<?xml version="1.0" encoding="UTF-8" standalone="no"?>
<!DOCTYPE svg PUBLIC "-//W3C//DTD SVG 1.1//EN"
 "http://www.w3.org/Graphics/SVG/1.1/DTD/svg11.dtd">
<!-- Generated by graphviz version 14.1.3 (20260303.0454)
 -->
<!-- Title: core/AbstractSocket.h Pages: 1 -->
<svg width="401pt" height="196pt"
 viewBox="0.00 0.00 401.00 196.00" xmlns="http://www.w3.org/2000/svg" xmlns:xlink="http://www.w3.org/1999/xlink">
<g id="graph0" class="graph" transform="scale(1 1) rotate(0) translate(4 192)">
<title>core/AbstractSocket.h</title>
<!-- Node1 -->
<g id="Node000001" class="node">
<title>Node1</title>
<g id="a_Node000001"><a xlink:title="The AbstractSocket class.">
<polygon fill="#999999" stroke="#666666" points="314.38,-188 200.88,-188 200.88,-168 314.38,-168 314.38,-188"/>
<text xml:space="preserve" text-anchor="middle" x="257.62" y="-174.5" font-family="Helvetica,sans-Serif" font-size="10.00">core/AbstractSocket.h</text>
</a>
</g>
</g>
<!-- Node2 -->
<g id="Node000002" class="node">
<title>Node2</title>
<g id="a_Node000002"><a xlink:href="AbstractTlsSocket_8h.html" target="_top" xlink:title="The AbstractTlsSocket class.">
<polygon fill="white" stroke="#666666" points="254.12,-132 127.12,-132 127.12,-112 254.12,-112 254.12,-132"/>
<text xml:space="preserve" text-anchor="middle" x="190.62" y="-118.5" font-family="Helvetica,sans-Serif" font-size="10.00">core/AbstractTlsSocket.h</text>
</a>
</g>
</g>
<!-- Node1&#45;&gt;Node2 -->
<g id="edge1_Node000001_Node000002" class="edge">
<title>Node1&#45;&gt;Node2</title>
<g id="a_edge1_Node000001_Node000002"><a xlink:title=" ">
<path fill="none" stroke="#63b8ff" d="M237.03,-160.4C225.57,-151.17 211.73,-140.01 202.16,-132.3"/>
<polygon fill="#63b8ff" stroke="#63b8ff" points="234.79,-163.09 244.78,-166.64 239.19,-157.64 234.79,-163.09"/>
</a>
</g>
</g>
<!-- Node6 -->
<g id="Node000006" class="node">
<title>Node6</title>
<g id="a_Node000006"><a xlink:href="ListenSocket_8h.html" target="_top" xlink:title="The ListenSocket class.">
<polygon fill="white" stroke="#666666" points="377.25,-132 272,-132 272,-112 377.25,-112 377.25,-132"/>
<text xml:space="preserve" text-anchor="middle" x="324.62" y="-118.5" font-family="Helvetica,sans-Serif" font-size="10.00">main/ListenSocket.h</text>
</a>
</g>
</g>
<!-- Node1&#45;&gt;Node6 -->
<g id="edge5_Node000001_Node000006" class="edge">
<title>Node1&#45;&gt;Node6</title>
<g id="a_edge5_Node000001_Node000006"><a xlink:title=" ">
<path fill="none" stroke="#63b8ff" d="M278.22,-160.4C289.68,-151.17 303.52,-140.01 313.09,-132.3"/>
<polygon fill="#63b8ff" stroke="#63b8ff" points="276.06,-157.64 270.47,-166.64 280.46,-163.09 276.06,-157.64"/>
</a>
</g>
</g>
<!-- Node3 -->
<g id="Node000003" class="node">
<title>Node3</title>
<g id="a_Node000003"><a xlink:href="DataArraySocket_8h.html" target="_top" xlink:title="The DataArraySocket class.">
<polygon fill="white" stroke="#666666" points="123.25,-76 0,-76 0,-56 123.25,-56 123.25,-76"/>
<text xml:space="preserve" text-anchor="middle" x="61.62" y="-62.5" font-family="Helvetica,sans-Serif" font-size="10.00">main/DataArraySocket.h</text>
</a>
</g>
</g>
<!-- Node2&#45;&gt;Node3 -->
<g id="edge2_Node000002_Node000003" class="edge">
<title>Node2&#45;&gt;Node3</title>
<g id="a_edge2_Node000002_Node000003"><a xlink:title=" ">
<path fill="none" stroke="#63b8ff" d="M157.83,-107.27C134.82,-97.64 104.64,-85.01 84.27,-76.48"/>
<polygon fill="#63b8ff" stroke="#63b8ff" points="156.18,-110.38 166.76,-111.01 158.89,-103.92 156.18,-110.38"/>
</a>
</g>
</g>
<!-- Node4 -->
<g id="Node000004" class="node">
<title>Node4</title>
<g id="a_Node000004"><a xlink:href="HttpSocket_8h.html" target="_top" xlink:title="The HttpSocket class.">
<polygon fill="white" stroke="#666666" points="239.5,-76 141.75,-76 141.75,-56 239.5,-56 239.5,-76"/>
<text xml:space="preserve" text-anchor="middle" x="190.62" y="-62.5" font-family="Helvetica,sans-Serif" font-size="10.00">main/HttpSocket.h</text>
</a>
</g>
</g>
<!-- Node2&#45;&gt;Node4 -->
<g id="edge3_Node000002_Node000004" class="edge">
<title>Node2&#45;&gt;Node4</title>
<g id="a_edge3_Node000002_Node000004"><a xlink:title=" ">
<path fill="none" stroke="#63b8ff" d="M190.62,-100.13C190.62,-91.9 190.62,-82.85 190.62,-76.3"/>
<polygon fill="#63b8ff" stroke="#63b8ff" points="187.13,-100.08 190.63,-110.08 194.13,-100.08 187.13,-100.08"/>
</a>
</g>
</g>
<!-- Node5 -->
<g id="Node000005" class="node">
<title>Node5</title>
<g id="a_Node000005"><a xlink:href="HttpServer_8h.html" target="_top" xlink:title="The HttpServer class.">
<polygon fill="white" stroke="#666666" points="238,-20 143.25,-20 143.25,0 238,0 238,-20"/>
<text xml:space="preserve" text-anchor="middle" x="190.62" y="-6.5" font-family="Helvetica,sans-Serif" font-size="10.00">main/HttpServer.h</text>
</a>
</g>
</g>
<!-- Node4&#45;&gt;Node5 -->
<g id="edge4_Node000004_Node000005" class="edge">
<title>Node4&#45;&gt;Node5</title>
<g id="a_edge4_Node000004_Node000005"><a xlink:title=" ">
<path fill="none" stroke="#63b8ff" d="M190.62,-44.13C190.62,-35.9 190.62,-26.85 190.62,-20.3"/>
<polygon fill="#63b8ff" stroke="#63b8ff" points="187.13,-44.08 190.63,-54.08 194.13,-44.08 187.13,-44.08"/>
</a>
</g>
</g>
<!-- Node7 -->
<g id="Node000007" class="node">
<title>Node7</title>
<g id="a_Node000007"><a xlink:href="DataArrayTcpServer_8h.html" target="_top" xlink:title="The DataArrayTcpServer class.">
<polygon fill="white" stroke="#666666" points="393.25,-76 258,-76 258,-56 393.25,-56 393.25,-76"/>
<text xml:space="preserve" text-anchor="middle" x="325.62" y="-62.5" font-family="Helvetica,sans-Serif" font-size="10.00">main/DataArrayTcpServer.h</text>
</a>
</g>
</g>
<!-- Node6&#45;&gt;Node7 -->
<g id="edge6_Node000006_Node000007" class="edge">
<title>Node6&#45;&gt;Node7</title>
<g id="a_edge6_Node000006_Node000007"><a xlink:title=" ">
<path fill="none" stroke="#63b8ff" d="M325.01,-100.13C325.16,-91.9 325.33,-82.85 325.45,-76.3"/>
<polygon fill="#63b8ff" stroke="#63b8ff" points="321.51,-100.02 324.83,-110.08 328.51,-100.15 321.51,-100.02"/>
</a>
</g>
</g>
</g>
</svg>
