<?xml version="1.0" encoding="UTF-8" standalone="no"?>
<!DOCTYPE svg PUBLIC "-//W3C//DTD SVG 1.1//EN"
 "http://www.w3.org/Graphics/SVG/1.1/DTD/svg11.dtd">
<!-- Generated by graphviz version 14.1.3 (20260303.0454)
 -->
<!-- Title: core/AbstractTlsSocket.h Pages: 1 -->
<svg width="248pt" height="140pt"
 viewBox="0.00 0.00 248.00 140.00" xmlns="http://www.w3.org/2000/svg" xmlns:xlink="http://www.w3.org/1999/xlink">
<g id="graph0" class="graph" transform="scale(1 1) rotate(0) translate(4 136)">
<title>core/AbstractTlsSocket.h</title>
<!-- Node1 -->
<g id="Node000001" class="node">
<title>Node1</title>
<g id="a_Node000001"><a xlink:title="The AbstractTlsSocket class.">
<polygon fill="#999999" stroke="#666666" points="189.12,-132 62.12,-132 62.12,-112 189.12,-112 189.12,-132"/>
<text xml:space="preserve" text-anchor="middle" x="125.62" y="-118.5" font-family="Helvetica,sans-Serif" font-size="10.00">core/AbstractTlsSocket.h</text>
</a>
</g>
</g>
<!-- Node2 -->
<g id="Node000002" class="node">
<title>Node2</title>
<g id="a_Node000002"><a xlink:href="DataArraySocket_8h.html" target="_top" xlink:title="The DataArraySocket class.">
<polygon fill="white" stroke="#666666" points="123.25,-76 0,-76 0,-56 123.25,-56 123.25,-76"/>
<text xml:space="preserve" text-anchor="middle" x="61.62" y="-62.5" font-family="Helvetica,sans-Serif" font-size="10.00">main/DataArraySocket.h</text>
</a>
</g>
</g>
<!-- Node1&#45;&gt;Node2 -->
<g id="edge1_Node000001_Node000002" class="edge">
<title>Node1&#45;&gt;Node2</title>
<g id="a_edge1_Node000001_Node000002"><a xlink:title=" ">
<path fill="none" stroke="#63b8ff" d="M105.95,-104.4C95.01,-95.17 81.78,-84.01 72.65,-76.3"/>
<polygon fill="#63b8ff" stroke="#63b8ff" points="103.42,-106.84 113.32,-110.62 107.93,-101.49 103.42,-106.84"/>
</a>
</g>
</g>
<!-- Node3 -->
<g id="Node000003" class="node">
<title>Node3</title>
<g id="a_Node000003"><a xlink:href="HttpSocket_8h.html" target="_top" xlink:title="The HttpSocket class.">
<polygon fill="white" stroke="#666666" points="239.5,-76 141.75,-76 141.75,-56 239.5,-56 239.5,-76"/>
<text xml:space="preserve" text-anchor="middle" x="190.62" y="-62.5" font-family="Helvetica,sans-Serif" font-size="10.00">main/HttpSocket.h</text>
</a>
</g>
</g>
<!-- Node1&#45;&gt;Node3 -->
<g id="edge2_Node000001_Node000003" class="edge">
<title>Node1&#45;&gt;Node3</title>
<g id="a_edge2_Node000001_Node000003"><a xlink:title=" ">
<path fill="none" stroke="#63b8ff" d="M145.6,-104.4C156.72,-95.17 170.15,-84.01 179.43,-76.3"/>
<polygon fill="#63b8ff" stroke="#63b8ff" points="143.57,-101.54 138.11,-110.63 148.04,-106.93 143.57,-101.54"/>
</a>
</g>
</g>
<!-- Node4 -->
<g id="Node000004" class="node">
<title>Node4</title>
<g id="a_Node000004"><a xlink:href="HttpServer_8h.html" target="_top" xlink:title="The HttpServer class.">
<polygon fill="white" stroke="#666666" points="238,-20 143.25,-20 143.25,0 238,0 238,-20"/>
<text xml:space="preserve" text-anchor="middle" x="190.62" y="-6.5" font-family="Helvetica,sans-Serif" font-size="10.00">main/HttpServer.h</text>
</a>
</g>
</g>
<!-- Node3&#45;&gt;Node4 -->
<g id="edge3_Node000003_Node000004" class="edge">
<title>Node3&#45;&gt;Node4</title>
<g id="a_edge3_Node000003_Node000004"><a xlink:title=" ">
<path fill="none" stroke="#63b8ff" d="M190.62,-44.13C190.62,-35.9 190.62,-26.85 190.62,-20.3"/>
<polygon fill="#63b8ff" stroke="#63b8ff" points="187.13,-44.08 190.63,-54.08 194.13,-44.08 187.13,-44.08"/>
</a>
</g>
</g>
</g>
</svg>
