<?xml version="1.0" encoding="UTF-8" standalone="no"?>
<!DOCTYPE svg PUBLIC "-//W3C//DTD SVG 1.1//EN"
 "http://www.w3.org/Graphics/SVG/1.1/DTD/svg11.dtd">
<!-- Generated by graphviz version 14.1.3 (20260303.0454)
 -->
<!-- Title: core/AbstractTlsSocket.h Pages: 1 -->
<svg width="192pt" height="196pt"
 viewBox="0.00 0.00 192.00 196.00" xmlns="http://www.w3.org/2000/svg" xmlns:xlink="http://www.w3.org/1999/xlink">
<g id="graph0" class="graph" transform="scale(1 1) rotate(0) translate(4 192)">
<title>core/AbstractTlsSocket.h</title>
<!-- Node1 -->
<g id="Node000001" class="node">
<title>Node1</title>
<g id="a_Node000001"><a xlink:title="The AbstractTlsSocket class.">
<polygon fill="#999999" stroke="#666666" points="147.12,-188 20.12,-188 20.12,-168 147.12,-168 147.12,-188"/>
<text xml:space="preserve" text-anchor="middle" x="83.62" y="-174.5" font-family="Helvetica,sans-Serif" font-size="10.00">core/AbstractTlsSocket.h</text>
</a>
</g>
</g>
<!-- Node2 -->
<g id="Node000002" class="node">
<title>Node2</title>
<g id="a_Node000002"><a xlink:href="AbstractSocket_8h.html" target="_top" xlink:title="The AbstractSocket class.">
<polygon fill="white" stroke="#666666" points="129.5,-132 37.75,-132 37.75,-112 129.5,-112 129.5,-132"/>
<text xml:space="preserve" text-anchor="middle" x="83.62" y="-118.5" font-family="Helvetica,sans-Serif" font-size="10.00">AbstractSocket.h</text>
</a>
</g>
</g>
<!-- Node1&#45;&gt;Node2 -->
<g id="edge1_Node000001_Node000002" class="edge">
<title>Node1&#45;&gt;Node2</title>
<g id="a_edge1_Node000001_Node000002"><a xlink:title=" ">
<path fill="none" stroke="#63b8ff" d="M83.62,-167.59C83.62,-161.01 83.62,-151.96 83.62,-143.73"/>
<polygon fill="#63b8ff" stroke="#63b8ff" points="87.13,-143.81 83.63,-133.81 80.13,-143.81 87.13,-143.81"/>
</a>
</g>
</g>
<!-- Node3 -->
<g id="Node000003" class="node">
<title>Node3</title>
<g id="a_Node000003"><a xlink:title=" ">
<polygon fill="#e0e0e0" stroke="#999999" points="45.25,-76 0,-76 0,-56 45.25,-56 45.25,-76"/>
<text xml:space="preserve" text-anchor="middle" x="22.62" y="-62.5" font-family="Helvetica,sans-Serif" font-size="10.00">cstdint</text>
</a>
</g>
</g>
<!-- Node2&#45;&gt;Node3 -->
<g id="edge2_Node000002_Node000003" class="edge">
<title>Node2&#45;&gt;Node3</title>
<g id="a_edge2_Node000002_Node000003"><a xlink:title=" ">
<path fill="none" stroke="#63b8ff" d="M73,-111.59C64.34,-103.93 51.89,-92.91 41.54,-83.75"/>
<polygon fill="#63b8ff" stroke="#63b8ff" points="44.07,-81.31 34.26,-77.3 39.43,-86.55 44.07,-81.31"/>
</a>
</g>
</g>
<!-- Node4 -->
<g id="Node000004" class="node">
<title>Node4</title>
<g id="a_Node000004"><a xlink:title=" ">
<polygon fill="#e0e0e0" stroke="#999999" points="103.62,-76 63.62,-76 63.62,-56 103.62,-56 103.62,-76"/>
<text xml:space="preserve" text-anchor="middle" x="83.62" y="-62.5" font-family="Helvetica,sans-Serif" font-size="10.00">string</text>
</a>
</g>
</g>
<!-- Node2&#45;&gt;Node4 -->
<g id="edge3_Node000002_Node000004" class="edge">
<title>Node2&#45;&gt;Node4</title>
<g id="a_edge3_Node000002_Node000004"><a xlink:title=" ">
<path fill="none" stroke="#63b8ff" d="M83.62,-111.59C83.62,-105.01 83.62,-95.96 83.62,-87.73"/>
<polygon fill="#63b8ff" stroke="#63b8ff" points="87.13,-87.81 83.63,-77.81 80.13,-87.81 87.13,-87.81"/>
</a>
</g>
</g>
<!-- Node5 -->
<g id="Node000005" class="node">
<title>Node5</title>
<g id="a_Node000005"><a xlink:href="AnyData_8h.html" target="_top" xlink:title="The AnyData class.">
<polygon fill="white" stroke="#666666" points="183.88,-76 121.38,-76 121.38,-56 183.88,-56 183.88,-76"/>
<text xml:space="preserve" text-anchor="middle" x="152.62" y="-62.5" font-family="Helvetica,sans-Serif" font-size="10.00">AnyData.h</text>
</a>
</g>
</g>
<!-- Node2&#45;&gt;Node5 -->
<g id="edge4_Node000002_Node000005" class="edge">
<title>Node2&#45;&gt;Node5</title>
<g id="a_edge4_Node000002_Node000005"><a xlink:title=" ">
<path fill="none" stroke="#63b8ff" d="M95.64,-111.59C105.64,-103.77 120.09,-92.46 131.93,-83.19"/>
<polygon fill="#63b8ff" stroke="#63b8ff" points="133.83,-86.15 139.55,-77.23 129.52,-80.64 133.83,-86.15"/>
</a>
</g>
</g>
<!-- Node6 -->
<g id="Node000006" class="node">
<title>Node6</title>
<g id="a_Node000006"><a xlink:title=" ">
<polygon fill="#e0e0e0" stroke="#999999" points="168.5,-20 136.75,-20 136.75,0 168.5,0 168.5,-20"/>
<text xml:space="preserve" text-anchor="middle" x="152.62" y="-6.5" font-family="Helvetica,sans-Serif" font-size="10.00">any</text>
</a>
</g>
</g>
<!-- Node5&#45;&gt;Node6 -->
<g id="edge5_Node000005_Node000006" class="edge">
<title>Node5&#45;&gt;Node6</title>
<g id="a_edge5_Node000005_Node000006"><a xlink:title=" ">
<path fill="none" stroke="#63b8ff" d="M152.62,-55.59C152.62,-49.01 152.62,-39.96 152.62,-31.73"/>
<polygon fill="#63b8ff" stroke="#63b8ff" points="156.13,-31.81 152.63,-21.81 149.13,-31.81 156.13,-31.81"/>
</a>
</g>
</g>
</g>
</svg>
