<?xml version="1.0" encoding="UTF-8" standalone="no"?>
<!DOCTYPE svg PUBLIC "-//W3C//DTD SVG 1.1//EN"
 "http://www.w3.org/Graphics/SVG/1.1/DTD/svg11.dtd">
<!-- Generated by graphviz version 12.2.1 (20241206.2353)
 -->
<!-- Title: main/AddressResolver.h Pages: 1 -->
<svg width="420pt" height="364pt"
 viewBox="0.00 0.00 419.73 364.00" xmlns="http://www.w3.org/2000/svg" xmlns:xlink="http://www.w3.org/1999/xlink">
<g id="graph0" class="graph" transform="scale(1 1) rotate(0) translate(4 360)">
<title>main/AddressResolver.h</title>
<!-- Node1 -->
<g id="Node000001" class="node">
<title>Node1</title>
<g id="a_Node000001"><a xlink:title="The AddressResolver class.">
<polygon fill="#999999" stroke="#666666" points="224.98,-356 102.48,-356 102.48,-336 224.98,-336 224.98,-356"/>
<text text-anchor="middle" x="163.73" y="-342.5" font-family="Helvetica,sans-Serif" font-size="10.00">main/AddressResolver.h</text>
</a>
</g>
</g>
<!-- Node2 -->
<g id="Node000002" class="node">
<title>Node2</title>
<g id="a_Node000002"><a xlink:title=" ">
<polygon fill="#e0e0e0" stroke="#999999" points="111.73,-132 71.73,-132 71.73,-112 111.73,-112 111.73,-132"/>
<text text-anchor="middle" x="91.73" y="-118.5" font-family="Helvetica,sans-Serif" font-size="10.00">string</text>
</a>
</g>
</g>
<!-- Node1&#45;&gt;Node2 -->
<g id="edge1_Node000001_Node000002" class="edge">
<title>Node1&#45;&gt;Node2</title>
<g id="a_edge1_Node000001_Node000002"><a xlink:title=" ">
<path fill="none" stroke="#63b8ff" d="M133.2,-335.61C95.43,-322.16 32.78,-293.4 5.73,-244 -16.37,-203.64 34.18,-160.73 66.8,-138.45"/>
<polygon fill="#63b8ff" stroke="#63b8ff" points="68.56,-141.48 74.98,-133.06 64.7,-135.64 68.56,-141.48"/>
</a>
</g>
</g>
<!-- Node3 -->
<g id="Node000003" class="node">
<title>Node3</title>
<g id="a_Node000003"><a xlink:href="FunctionConnector_8h.html" target="_top" xlink:title="The AbstractFunctionConnector, FunctionConnector, FunctionConnectorProtected, FunctionConnectionGuard...">
<polygon fill="white" stroke="#666666" points="333.1,-132 196.35,-132 196.35,-112 333.1,-112 333.1,-132"/>
<text text-anchor="middle" x="264.73" y="-118.5" font-family="Helvetica,sans-Serif" font-size="10.00">../core/FunctionConnector.h</text>
</a>
</g>
</g>
<!-- Node1&#45;&gt;Node3 -->
<g id="edge2_Node000001_Node000003" class="edge">
<title>Node1&#45;&gt;Node3</title>
<g id="a_edge2_Node000001_Node000003"><a xlink:title=" ">
<path fill="none" stroke="#63b8ff" d="M183.24,-335.58C211.56,-320.67 262.93,-288.68 283.73,-244 299.22,-210.71 285.17,-167.29 274.38,-142.54"/>
<polygon fill="#63b8ff" stroke="#63b8ff" points="277.65,-141.27 270.27,-133.67 271.3,-144.22 277.65,-141.27"/>
</a>
</g>
</g>
<!-- Node9 -->
<g id="Node000009" class="node">
<title>Node9</title>
<g id="a_Node000009"><a xlink:href="Coroutine_8h.html" target="_top" xlink:title="The CoroutineTask, CoroutineAwait, CoroutineInvokeAwait structs.">
<polygon fill="white" stroke="#666666" points="196.85,-300 130.6,-300 130.6,-280 196.85,-280 196.85,-300"/>
<text text-anchor="middle" x="163.73" y="-286.5" font-family="Helvetica,sans-Serif" font-size="10.00">Coroutine.h</text>
</a>
</g>
</g>
<!-- Node1&#45;&gt;Node9 -->
<g id="edge8_Node000001_Node000009" class="edge">
<title>Node1&#45;&gt;Node9</title>
<g id="a_edge8_Node000001_Node000009"><a xlink:title=" ">
<path fill="none" stroke="#63b8ff" d="M163.73,-335.59C163.73,-329.01 163.73,-319.96 163.73,-311.73"/>
<polygon fill="#63b8ff" stroke="#63b8ff" points="167.23,-311.81 163.73,-301.81 160.23,-311.81 167.23,-311.81"/>
</a>
</g>
</g>
<!-- Node4 -->
<g id="Node000004" class="node">
<title>Node4</title>
<g id="a_Node000004"><a xlink:href="AbstractThread_8h.html" target="_top" xlink:title="The AbstractThread class.">
<polygon fill="white" stroke="#666666" points="310.23,-76 219.23,-76 219.23,-56 310.23,-56 310.23,-76"/>
<text text-anchor="middle" x="264.73" y="-62.5" font-family="Helvetica,sans-Serif" font-size="10.00">AbstractThread.h</text>
</a>
</g>
</g>
<!-- Node3&#45;&gt;Node4 -->
<g id="edge3_Node000003_Node000004" class="edge">
<title>Node3&#45;&gt;Node4</title>
<g id="a_edge3_Node000003_Node000004"><a xlink:title=" ">
<path fill="none" stroke="#63b8ff" d="M264.73,-111.59C264.73,-105.01 264.73,-95.96 264.73,-87.73"/>
<polygon fill="#63b8ff" stroke="#63b8ff" points="268.23,-87.81 264.73,-77.81 261.23,-87.81 268.23,-87.81"/>
</a>
</g>
</g>
<!-- Node5 -->
<g id="Node000005" class="node">
<title>Node5</title>
<g id="a_Node000005"><a xlink:title=" ">
<polygon fill="#e0e0e0" stroke="#999999" points="195.23,-20 152.23,-20 152.23,0 195.23,0 195.23,-20"/>
<text text-anchor="middle" x="173.73" y="-6.5" font-family="Helvetica,sans-Serif" font-size="10.00">thread</text>
</a>
</g>
</g>
<!-- Node4&#45;&gt;Node5 -->
<g id="edge4_Node000004_Node000005" class="edge">
<title>Node4&#45;&gt;Node5</title>
<g id="a_edge4_Node000004_Node000005"><a xlink:title=" ">
<path fill="none" stroke="#63b8ff" d="M248.88,-55.59C235.26,-47.51 215.37,-35.71 199.47,-26.27"/>
<polygon fill="#63b8ff" stroke="#63b8ff" points="201.39,-23.35 191,-21.25 197.82,-29.37 201.39,-23.35"/>
</a>
</g>
</g>
<!-- Node6 -->
<g id="Node000006" class="node">
<title>Node6</title>
<g id="a_Node000006"><a xlink:title=" ">
<polygon fill="#e0e0e0" stroke="#999999" points="256.23,-20 213.23,-20 213.23,0 256.23,0 256.23,-20"/>
<text text-anchor="middle" x="234.73" y="-6.5" font-family="Helvetica,sans-Serif" font-size="10.00">mutex</text>
</a>
</g>
</g>
<!-- Node4&#45;&gt;Node6 -->
<g id="edge5_Node000004_Node000006" class="edge">
<title>Node4&#45;&gt;Node6</title>
<g id="a_edge5_Node000004_Node000006"><a xlink:title=" ">
<path fill="none" stroke="#63b8ff" d="M259.5,-55.59C255.63,-48.63 250.22,-38.89 245.44,-30.29"/>
<polygon fill="#63b8ff" stroke="#63b8ff" points="248.54,-28.66 240.63,-21.62 242.43,-32.06 248.54,-28.66"/>
</a>
</g>
</g>
<!-- Node7 -->
<g id="Node000007" class="node">
<title>Node7</title>
<g id="a_Node000007"><a xlink:title=" ">
<polygon fill="#e0e0e0" stroke="#999999" points="317.23,-20 274.23,-20 274.23,0 317.23,0 317.23,-20"/>
<text text-anchor="middle" x="295.73" y="-6.5" font-family="Helvetica,sans-Serif" font-size="10.00">vector</text>
</a>
</g>
</g>
<!-- Node4&#45;&gt;Node7 -->
<g id="edge6_Node000004_Node000007" class="edge">
<title>Node4&#45;&gt;Node7</title>
<g id="a_edge6_Node000004_Node000007"><a xlink:title=" ">
<path fill="none" stroke="#63b8ff" d="M270.13,-55.59C274.17,-48.55 279.84,-38.67 284.82,-30"/>
<polygon fill="#63b8ff" stroke="#63b8ff" points="287.69,-32.03 289.64,-21.61 281.62,-28.54 287.69,-32.03"/>
</a>
</g>
</g>
<!-- Node8 -->
<g id="Node000008" class="node">
<title>Node8</title>
<g id="a_Node000008"><a xlink:href="invocable_8hpp_source.html" target="_top" xlink:title=" ">
<polygon fill="white" stroke="#666666" points="411.73,-20 335.73,-20 335.73,0 411.73,0 411.73,-20"/>
<text text-anchor="middle" x="373.73" y="-6.5" font-family="Helvetica,sans-Serif" font-size="10.00">invocable.hpp</text>
</a>
</g>
</g>
<!-- Node4&#45;&gt;Node8 -->
<g id="edge7_Node000004_Node000008" class="edge">
<title>Node4&#45;&gt;Node8</title>
<g id="a_edge7_Node000004_Node000008"><a xlink:title=" ">
<path fill="none" stroke="#63b8ff" d="M283.71,-55.59C300.49,-47.28 325.22,-35.03 344.52,-25.47"/>
<polygon fill="#63b8ff" stroke="#63b8ff" points="345.83,-28.73 353.24,-21.15 342.72,-22.45 345.83,-28.73"/>
</a>
</g>
</g>
<!-- Node10 -->
<g id="Node000010" class="node">
<title>Node10</title>
<g id="a_Node000010"><a xlink:title=" ">
<polygon fill="#e0e0e0" stroke="#999999" points="274.6,-244 218.85,-244 218.85,-224 274.6,-224 274.6,-244"/>
<text text-anchor="middle" x="246.73" y="-230.5" font-family="Helvetica,sans-Serif" font-size="10.00">coroutine</text>
</a>
</g>
</g>
<!-- Node9&#45;&gt;Node10 -->
<g id="edge9_Node000009_Node000010" class="edge">
<title>Node9&#45;&gt;Node10</title>
<g id="a_edge9_Node000009_Node000010"><a xlink:title=" ">
<path fill="none" stroke="#63b8ff" d="M178.19,-279.59C190.49,-271.59 208.41,-259.93 222.84,-250.54"/>
<polygon fill="#63b8ff" stroke="#63b8ff" points="224.42,-253.69 230.89,-245.3 220.6,-247.82 224.42,-253.69"/>
</a>
</g>
</g>
<!-- Node11 -->
<g id="Node000011" class="node">
<title>Node11</title>
<g id="a_Node000011"><a xlink:href="AnyData_8h.html" target="_top" xlink:title="The AnyData class.">
<polygon fill="white" stroke="#666666" points="108.35,-244 15.1,-244 15.1,-224 108.35,-224 108.35,-244"/>
<text text-anchor="middle" x="61.73" y="-230.5" font-family="Helvetica,sans-Serif" font-size="10.00">../core/AnyData.h</text>
</a>
</g>
</g>
<!-- Node9&#45;&gt;Node11 -->
<g id="edge10_Node000009_Node000011" class="edge">
<title>Node9&#45;&gt;Node11</title>
<g id="a_edge10_Node000009_Node000011"><a xlink:title=" ">
<path fill="none" stroke="#63b8ff" d="M145.96,-279.59C130.41,-271.36 107.55,-259.26 89.57,-249.74"/>
<polygon fill="#63b8ff" stroke="#63b8ff" points="91.45,-246.77 80.97,-245.19 88.17,-252.96 91.45,-246.77"/>
</a>
</g>
</g>
<!-- Node13 -->
<g id="Node000013" class="node">
<title>Node13</title>
<g id="a_Node000013"><a xlink:href="ThreadPool_8h.html" target="_top" xlink:title="The AbstractThreadPool and ThreadPool classes.">
<polygon fill="white" stroke="#666666" points="200.6,-244 126.85,-244 126.85,-224 200.6,-224 200.6,-244"/>
<text text-anchor="middle" x="163.73" y="-230.5" font-family="Helvetica,sans-Serif" font-size="10.00">ThreadPool.h</text>
</a>
</g>
</g>
<!-- Node9&#45;&gt;Node13 -->
<g id="edge12_Node000009_Node000013" class="edge">
<title>Node9&#45;&gt;Node13</title>
<g id="a_edge12_Node000009_Node000013"><a xlink:title=" ">
<path fill="none" stroke="#63b8ff" d="M163.73,-279.59C163.73,-273.01 163.73,-263.96 163.73,-255.73"/>
<polygon fill="#63b8ff" stroke="#63b8ff" points="167.23,-255.81 163.73,-245.81 160.23,-255.81 167.23,-255.81"/>
</a>
</g>
</g>
<!-- Node12 -->
<g id="Node000012" class="node">
<title>Node12</title>
<g id="a_Node000012"><a xlink:title=" ">
<polygon fill="#e0e0e0" stroke="#999999" points="77.6,-188 45.85,-188 45.85,-168 77.6,-168 77.6,-188"/>
<text text-anchor="middle" x="61.73" y="-174.5" font-family="Helvetica,sans-Serif" font-size="10.00">any</text>
</a>
</g>
</g>
<!-- Node11&#45;&gt;Node12 -->
<g id="edge11_Node000011_Node000012" class="edge">
<title>Node11&#45;&gt;Node12</title>
<g id="a_edge11_Node000011_Node000012"><a xlink:title=" ">
<path fill="none" stroke="#63b8ff" d="M61.73,-223.59C61.73,-217.01 61.73,-207.96 61.73,-199.73"/>
<polygon fill="#63b8ff" stroke="#63b8ff" points="65.23,-199.81 61.73,-189.81 58.23,-199.81 65.23,-199.81"/>
</a>
</g>
</g>
<!-- Node14 -->
<g id="Node000014" class="node">
<title>Node14</title>
<g id="a_Node000014"><a xlink:href="Thread_8h.html" target="_top" xlink:title="The Thread class.">
<polygon fill="white" stroke="#666666" points="270.23,-188 185.23,-188 185.23,-168 270.23,-168 270.23,-188"/>
<text text-anchor="middle" x="227.73" y="-174.5" font-family="Helvetica,sans-Serif" font-size="10.00">../core/Thread.h</text>
</a>
</g>
</g>
<!-- Node13&#45;&gt;Node14 -->
<g id="edge13_Node000013_Node000014" class="edge">
<title>Node13&#45;&gt;Node14</title>
<g id="a_edge13_Node000013_Node000014"><a xlink:title=" ">
<path fill="none" stroke="#63b8ff" d="M174.88,-223.59C184.05,-215.85 197.28,-204.69 208.21,-195.47"/>
<polygon fill="#63b8ff" stroke="#63b8ff" points="210.17,-198.4 215.55,-189.27 205.65,-193.05 210.17,-198.4"/>
</a>
</g>
</g>
<!-- Node15 -->
<g id="Node000015" class="node">
<title>Node15</title>
<g id="a_Node000015"><a xlink:href="Instance_8h.html" target="_top" xlink:title="The AbstractInstance and Instance classes.">
<polygon fill="white" stroke="#666666" points="164.6,-188 102.85,-188 102.85,-168 164.6,-168 164.6,-188"/>
<text text-anchor="middle" x="133.73" y="-174.5" font-family="Helvetica,sans-Serif" font-size="10.00">Instance.h</text>
</a>
</g>
</g>
<!-- Node13&#45;&gt;Node15 -->
<g id="edge15_Node000013_Node000015" class="edge">
<title>Node13&#45;&gt;Node15</title>
<g id="a_edge15_Node000013_Node000015"><a xlink:title=" ">
<path fill="none" stroke="#63b8ff" d="M158.5,-223.59C154.63,-216.63 149.22,-206.89 144.44,-198.29"/>
<polygon fill="#63b8ff" stroke="#63b8ff" points="147.54,-196.66 139.63,-189.62 141.43,-200.06 147.54,-196.66"/>
</a>
</g>
</g>
<!-- Node14&#45;&gt;Node3 -->
<g id="edge14_Node000014_Node000003" class="edge">
<title>Node14&#45;&gt;Node3</title>
<g id="a_edge14_Node000014_Node000003"><a xlink:title=" ">
<path fill="none" stroke="#63b8ff" d="M234.17,-167.59C239.05,-160.47 245.92,-150.45 251.9,-141.72"/>
<polygon fill="#63b8ff" stroke="#63b8ff" points="254.74,-143.77 257.5,-133.55 248.96,-139.82 254.74,-143.77"/>
</a>
</g>
</g>
<!-- Node15&#45;&gt;Node2 -->
<g id="edge16_Node000015_Node000002" class="edge">
<title>Node15&#45;&gt;Node2</title>
<g id="a_edge16_Node000015_Node000002"><a xlink:title=" ">
<path fill="none" stroke="#63b8ff" d="M126.41,-167.59C120.75,-160.32 112.74,-150.02 105.84,-141.15"/>
<polygon fill="#63b8ff" stroke="#63b8ff" points="108.79,-139.24 99.89,-133.49 103.27,-143.54 108.79,-139.24"/>
</a>
</g>
</g>
</g>
</svg>
