<?xml version="1.0" encoding="UTF-8" standalone="no"?>
<!DOCTYPE svg PUBLIC "-//W3C//DTD SVG 1.1//EN"
 "http://www.w3.org/Graphics/SVG/1.1/DTD/svg11.dtd">
<!-- Generated by graphviz version 14.1.3 (20260303.0454)
 -->
<!-- Title: core/AnyData.h Pages: 1 -->
<svg width="696pt" height="252pt"
 viewBox="0.00 0.00 696.00 252.00" xmlns="http://www.w3.org/2000/svg" xmlns:xlink="http://www.w3.org/1999/xlink">
<g id="graph0" class="graph" transform="scale(1 1) rotate(0) translate(4 248)">
<title>core/AnyData.h</title>
<!-- Node1 -->
<g id="Node000001" class="node">
<title>Node1</title>
<g id="a_Node000001"><a xlink:title="The AnyData class.">
<polygon fill="#999999" stroke="#666666" points="533.75,-244 449.5,-244 449.5,-224 533.75,-224 533.75,-244"/>
<text xml:space="preserve" text-anchor="middle" x="491.62" y="-230.5" font-family="Helvetica,sans-Serif" font-size="10.00">core/AnyData.h</text>
</a>
</g>
</g>
<!-- Node2 -->
<g id="Node000002" class="node">
<title>Node2</title>
<g id="a_Node000002"><a xlink:href="AbstractSocket_8h.html" target="_top" xlink:title="The AbstractSocket class.">
<polygon fill="white" stroke="#666666" points="347.38,-188 233.88,-188 233.88,-168 347.38,-168 347.38,-188"/>
<text xml:space="preserve" text-anchor="middle" x="290.62" y="-174.5" font-family="Helvetica,sans-Serif" font-size="10.00">core/AbstractSocket.h</text>
</a>
</g>
</g>
<!-- Node1&#45;&gt;Node2 -->
<g id="edge1_Node000001_Node000002" class="edge">
<title>Node1&#45;&gt;Node2</title>
<g id="a_edge1_Node000001_Node000002"><a xlink:title=" ">
<path fill="none" stroke="#63b8ff" d="M445.79,-220.69C409.39,-210.91 359.23,-197.43 325.91,-188.48"/>
<polygon fill="#63b8ff" stroke="#63b8ff" points="444.59,-223.99 455.15,-223.2 446.4,-217.23 444.59,-223.99"/>
</a>
</g>
</g>
<!-- Node9 -->
<g id="Node000009" class="node">
<title>Node9</title>
<g id="a_Node000009"><a xlink:href="ApplicationNotifier_8h.html" target="_top" xlink:title="The ApplicationNotifier class.">
<polygon fill="white" stroke="#666666" points="492.12,-188 365.12,-188 365.12,-168 492.12,-168 492.12,-188"/>
<text xml:space="preserve" text-anchor="middle" x="428.62" y="-174.5" font-family="Helvetica,sans-Serif" font-size="10.00">main/ApplicationNotifier.h</text>
</a>
</g>
</g>
<!-- Node1&#45;&gt;Node9 -->
<g id="edge8_Node000001_Node000009" class="edge">
<title>Node1&#45;&gt;Node9</title>
<g id="a_edge8_Node000001_Node000009"><a xlink:title=" ">
<path fill="none" stroke="#63b8ff" d="M471.94,-216.13C461.22,-206.94 448.38,-195.93 439.47,-188.3"/>
<polygon fill="#63b8ff" stroke="#63b8ff" points="469.63,-218.76 479.5,-222.61 474.19,-213.44 469.63,-218.76"/>
</a>
</g>
</g>
<!-- Node10 -->
<g id="Node000010" class="node">
<title>Node10</title>
<g id="a_Node000010"><a xlink:href="Coroutine_8h.html" target="_top" xlink:title="The CoroutineTask, CoroutineAwait, CoroutineInvokeAwait structs.">
<polygon fill="white" stroke="#666666" points="600.75,-188 510.5,-188 510.5,-168 600.75,-168 600.75,-188"/>
<text xml:space="preserve" text-anchor="middle" x="555.62" y="-174.5" font-family="Helvetica,sans-Serif" font-size="10.00">main/Coroutine.h</text>
</a>
</g>
</g>
<!-- Node1&#45;&gt;Node10 -->
<g id="edge9_Node000001_Node000010" class="edge">
<title>Node1&#45;&gt;Node10</title>
<g id="a_edge9_Node000001_Node000010"><a xlink:title=" ">
<path fill="none" stroke="#63b8ff" d="M511.3,-216.4C522.24,-207.17 535.47,-196.01 544.6,-188.3"/>
<polygon fill="#63b8ff" stroke="#63b8ff" points="509.32,-213.49 503.93,-222.62 513.83,-218.84 509.32,-213.49"/>
</a>
</g>
</g>
<!-- Node13 -->
<g id="Node000013" class="node">
<title>Node13</title>
<g id="a_Node000013"><a xlink:href="Task_8h.html" target="_top" xlink:title="The AbstractTask and Task classes.">
<polygon fill="white" stroke="#666666" points="688.25,-188 619,-188 619,-168 688.25,-168 688.25,-188"/>
<text xml:space="preserve" text-anchor="middle" x="653.62" y="-174.5" font-family="Helvetica,sans-Serif" font-size="10.00">main/Task.h</text>
</a>
</g>
</g>
<!-- Node1&#45;&gt;Node13 -->
<g id="edge12_Node000001_Node000013" class="edge">
<title>Node1&#45;&gt;Node13</title>
<g id="a_edge12_Node000001_Node000013"><a xlink:title=" ">
<path fill="none" stroke="#63b8ff" d="M530.48,-220.05C559.64,-210.33 598.91,-197.24 625.19,-188.48"/>
<polygon fill="#63b8ff" stroke="#63b8ff" points="529.66,-216.63 521.28,-223.12 531.87,-223.27 529.66,-216.63"/>
</a>
</g>
</g>
<!-- Node3 -->
<g id="Node000003" class="node">
<title>Node3</title>
<g id="a_Node000003"><a xlink:href="AbstractTlsSocket_8h.html" target="_top" xlink:title="The AbstractTlsSocket class.">
<polygon fill="white" stroke="#666666" points="254.12,-132 127.12,-132 127.12,-112 254.12,-112 254.12,-132"/>
<text xml:space="preserve" text-anchor="middle" x="190.62" y="-118.5" font-family="Helvetica,sans-Serif" font-size="10.00">core/AbstractTlsSocket.h</text>
</a>
</g>
</g>
<!-- Node2&#45;&gt;Node3 -->
<g id="edge2_Node000002_Node000003" class="edge">
<title>Node2&#45;&gt;Node3</title>
<g id="a_edge2_Node000002_Node000003"><a xlink:title=" ">
<path fill="none" stroke="#63b8ff" d="M263.49,-162.35C245.89,-152.84 223.47,-140.74 208.18,-132.48"/>
<polygon fill="#63b8ff" stroke="#63b8ff" points="261.41,-165.2 271.87,-166.87 264.74,-159.04 261.41,-165.2"/>
</a>
</g>
</g>
<!-- Node7 -->
<g id="Node000007" class="node">
<title>Node7</title>
<g id="a_Node000007"><a xlink:href="ListenSocket_8h.html" target="_top" xlink:title="The ListenSocket class.">
<polygon fill="white" stroke="#666666" points="377.25,-132 272,-132 272,-112 377.25,-112 377.25,-132"/>
<text xml:space="preserve" text-anchor="middle" x="324.62" y="-118.5" font-family="Helvetica,sans-Serif" font-size="10.00">main/ListenSocket.h</text>
</a>
</g>
</g>
<!-- Node2&#45;&gt;Node7 -->
<g id="edge6_Node000002_Node000007" class="edge">
<title>Node2&#45;&gt;Node7</title>
<g id="a_edge6_Node000002_Node000007"><a xlink:title=" ">
<path fill="none" stroke="#63b8ff" d="M302.67,-157.87C308.14,-149.19 314.35,-139.32 318.77,-132.3"/>
<polygon fill="#63b8ff" stroke="#63b8ff" points="299.72,-155.99 297.35,-166.31 305.64,-159.72 299.72,-155.99"/>
</a>
</g>
</g>
<!-- Node4 -->
<g id="Node000004" class="node">
<title>Node4</title>
<g id="a_Node000004"><a xlink:href="DataArraySocket_8h.html" target="_top" xlink:title="The DataArraySocket class.">
<polygon fill="white" stroke="#666666" points="123.25,-76 0,-76 0,-56 123.25,-56 123.25,-76"/>
<text xml:space="preserve" text-anchor="middle" x="61.62" y="-62.5" font-family="Helvetica,sans-Serif" font-size="10.00">main/DataArraySocket.h</text>
</a>
</g>
</g>
<!-- Node3&#45;&gt;Node4 -->
<g id="edge3_Node000003_Node000004" class="edge">
<title>Node3&#45;&gt;Node4</title>
<g id="a_edge3_Node000003_Node000004"><a xlink:title=" ">
<path fill="none" stroke="#63b8ff" d="M157.83,-107.27C134.82,-97.64 104.64,-85.01 84.27,-76.48"/>
<polygon fill="#63b8ff" stroke="#63b8ff" points="156.18,-110.38 166.76,-111.01 158.89,-103.92 156.18,-110.38"/>
</a>
</g>
</g>
<!-- Node5 -->
<g id="Node000005" class="node">
<title>Node5</title>
<g id="a_Node000005"><a xlink:href="HttpSocket_8h.html" target="_top" xlink:title="The HttpSocket class.">
<polygon fill="white" stroke="#666666" points="239.5,-76 141.75,-76 141.75,-56 239.5,-56 239.5,-76"/>
<text xml:space="preserve" text-anchor="middle" x="190.62" y="-62.5" font-family="Helvetica,sans-Serif" font-size="10.00">main/HttpSocket.h</text>
</a>
</g>
</g>
<!-- Node3&#45;&gt;Node5 -->
<g id="edge4_Node000003_Node000005" class="edge">
<title>Node3&#45;&gt;Node5</title>
<g id="a_edge4_Node000003_Node000005"><a xlink:title=" ">
<path fill="none" stroke="#63b8ff" d="M190.62,-100.13C190.62,-91.9 190.62,-82.85 190.62,-76.3"/>
<polygon fill="#63b8ff" stroke="#63b8ff" points="187.13,-100.08 190.63,-110.08 194.13,-100.08 187.13,-100.08"/>
</a>
</g>
</g>
<!-- Node6 -->
<g id="Node000006" class="node">
<title>Node6</title>
<g id="a_Node000006"><a xlink:href="HttpServer_8h.html" target="_top" xlink:title="The HttpServer class.">
<polygon fill="white" stroke="#666666" points="238,-20 143.25,-20 143.25,0 238,0 238,-20"/>
<text xml:space="preserve" text-anchor="middle" x="190.62" y="-6.5" font-family="Helvetica,sans-Serif" font-size="10.00">main/HttpServer.h</text>
</a>
</g>
</g>
<!-- Node5&#45;&gt;Node6 -->
<g id="edge5_Node000005_Node000006" class="edge">
<title>Node5&#45;&gt;Node6</title>
<g id="a_edge5_Node000005_Node000006"><a xlink:title=" ">
<path fill="none" stroke="#63b8ff" d="M190.62,-44.13C190.62,-35.9 190.62,-26.85 190.62,-20.3"/>
<polygon fill="#63b8ff" stroke="#63b8ff" points="187.13,-44.08 190.63,-54.08 194.13,-44.08 187.13,-44.08"/>
</a>
</g>
</g>
<!-- Node8 -->
<g id="Node000008" class="node">
<title>Node8</title>
<g id="a_Node000008"><a xlink:href="DataArrayTcpServer_8h.html" target="_top" xlink:title="The DataArrayTcpServer class.">
<polygon fill="white" stroke="#666666" points="393.25,-76 258,-76 258,-56 393.25,-56 393.25,-76"/>
<text xml:space="preserve" text-anchor="middle" x="325.62" y="-62.5" font-family="Helvetica,sans-Serif" font-size="10.00">main/DataArrayTcpServer.h</text>
</a>
</g>
</g>
<!-- Node7&#45;&gt;Node8 -->
<g id="edge7_Node000007_Node000008" class="edge">
<title>Node7&#45;&gt;Node8</title>
<g id="a_edge7_Node000007_Node000008"><a xlink:title=" ">
<path fill="none" stroke="#63b8ff" d="M325.01,-100.13C325.16,-91.9 325.33,-82.85 325.45,-76.3"/>
<polygon fill="#63b8ff" stroke="#63b8ff" points="321.51,-100.02 324.83,-110.08 328.51,-100.15 321.51,-100.02"/>
</a>
</g>
</g>
<!-- Node11 -->
<g id="Node000011" class="node">
<title>Node11</title>
<g id="a_Node000011"><a xlink:href="AddressResolver_8h.html" target="_top" xlink:title="The AddressResolver class.">
<polygon fill="white" stroke="#666666" points="583.88,-132 461.38,-132 461.38,-112 583.88,-112 583.88,-132"/>
<text xml:space="preserve" text-anchor="middle" x="522.62" y="-118.5" font-family="Helvetica,sans-Serif" font-size="10.00">main/AddressResolver.h</text>
</a>
</g>
</g>
<!-- Node10&#45;&gt;Node11 -->
<g id="edge10_Node000010_Node000011" class="edge">
<title>Node10&#45;&gt;Node11</title>
<g id="a_edge10_Node000010_Node000011"><a xlink:title=" ">
<path fill="none" stroke="#63b8ff" d="M543.93,-157.87C538.63,-149.19 532.6,-139.32 528.31,-132.3"/>
<polygon fill="#63b8ff" stroke="#63b8ff" points="540.89,-159.59 549.09,-166.3 546.86,-155.94 540.89,-159.59"/>
</a>
</g>
</g>
<!-- Node12 -->
<g id="Node000012" class="node">
<title>Node12</title>
<g id="a_Node000012"><a xlink:href="Timer_8h.html" target="_top" xlink:title="The Timer class.">
<polygon fill="white" stroke="#666666" points="673.75,-132 601.5,-132 601.5,-112 673.75,-112 673.75,-132"/>
<text xml:space="preserve" text-anchor="middle" x="637.62" y="-118.5" font-family="Helvetica,sans-Serif" font-size="10.00">main/Timer.h</text>
</a>
</g>
</g>
<!-- Node10&#45;&gt;Node12 -->
<g id="edge11_Node000010_Node000012" class="edge">
<title>Node10&#45;&gt;Node12</title>
<g id="a_edge11_Node000010_Node000012"><a xlink:title=" ">
<path fill="none" stroke="#63b8ff" d="M579.51,-161.27C593.67,-151.94 611.16,-140.43 623.23,-132.48"/>
<polygon fill="#63b8ff" stroke="#63b8ff" points="577.6,-158.34 571.17,-166.76 581.45,-164.18 577.6,-158.34"/>
</a>
</g>
</g>
</g>
</svg>
