<?xml version="1.0" encoding="UTF-8" standalone="no"?>
<!DOCTYPE svg PUBLIC "-//W3C//DTD SVG 1.1//EN"
 "http://www.w3.org/Graphics/SVG/1.1/DTD/svg11.dtd">
<!-- Generated by graphviz version 12.2.1 (20241206.2353)
 -->
<!-- Title: AsyncFw::AbstractLog Pages: 1 -->
<svg width="302pt" height="200pt"
 viewBox="0.00 0.00 301.88 200.00" xmlns="http://www.w3.org/2000/svg" xmlns:xlink="http://www.w3.org/1999/xlink">
<g id="graph0" class="graph" transform="scale(1 1) rotate(0) translate(4 196)">
<title>AsyncFw::AbstractLog</title>
<!-- Node1 -->
<g id="Node000001" class="node">
<title>Node1</title>
<g id="a_Node000001"><a xlink:title="The AbstractLog class provides the core thread&#45;safe infrastructure for log management and duplicate r...">
<polygon fill="#999999" stroke="#666666" points="200.88,-20 85.12,-20 85.12,0 200.88,0 200.88,-20"/>
<text text-anchor="middle" x="143" y="-6.5" font-family="Helvetica,sans-Serif" font-size="10.00">AsyncFw::AbstractLog</text>
</a>
</g>
</g>
<!-- Node2 -->
<g id="Node000002" class="node">
<title>Node2</title>
<g id="a_Node000002"><a xlink:href="classAsyncFw_1_1Thread.html" target="_top" xlink:title="AsyncFw::Thread thread with sockets.">
<polygon fill="white" stroke="#666666" points="189.62,-88 96.38,-88 96.38,-68 189.62,-68 189.62,-88"/>
<text text-anchor="middle" x="143" y="-74.5" font-family="Helvetica,sans-Serif" font-size="10.00">AsyncFw::Thread</text>
</a>
</g>
</g>
<!-- Node2&#45;&gt;Node1 -->
<g id="edge1_Node000001_Node000002" class="edge">
<title>Node2&#45;&gt;Node1</title>
<g id="a_edge1_Node000001_Node000002"><a xlink:title=" ">
<path fill="none" stroke="#9a32cd" stroke-dasharray="5,2" d="M143,-56.28C143,-44.27 143,-29.74 143,-20.44"/>
<polygon fill="#9a32cd" stroke="#9a32cd" points="139.5,-56.03 143,-66.03 146.5,-56.03 139.5,-56.03"/>
</a>
</g>
<text text-anchor="middle" x="160.62" y="-40.5" font-family="Helvetica,sans-Serif" font-size="10.00" fill="grey"> thread_</text>
</g>
<!-- Node3 -->
<g id="Node000003" class="node">
<title>Node3</title>
<g id="a_Node000003"><a xlink:href="classAsyncFw_1_1AbstractThread.html" target="_top" xlink:title="The AbstractThread class provides the base functionality for thread management.">
<polygon fill="white" stroke="#666666" points="130,-186 0,-186 0,-166 130,-166 130,-186"/>
<text text-anchor="middle" x="65" y="-172.5" font-family="Helvetica,sans-Serif" font-size="10.00">AsyncFw::AbstractThread</text>
</a>
</g>
</g>
<!-- Node3&#45;&gt;Node2 -->
<g id="edge2_Node000002_Node000003" class="edge">
<title>Node3&#45;&gt;Node2</title>
<g id="a_edge2_Node000002_Node000003"><a xlink:title=" ">
<path fill="none" stroke="#63b8ff" d="M79.73,-156.86C96.31,-136.47 122.59,-104.13 135.43,-88.32"/>
<polygon fill="#63b8ff" stroke="#63b8ff" points="77.02,-154.65 73.43,-164.62 82.46,-159.07 77.02,-154.65"/>
</a>
</g>
</g>
<!-- Node4 -->
<g id="Node000004" class="node">
<title>Node4</title>
<g id="a_Node000004"><a xlink:href="classAsyncFw_1_1FunctionConnector.html" target="_top" xlink:title="Provides a thread&#45;safe, publisher&#45;subscriber mechanism to establish sender&#45;to&#45;receivers connections.">
<polygon fill="white" stroke="#666666" points="293.88,-192 148.12,-192 148.12,-160 293.88,-160 293.88,-192"/>
<text text-anchor="start" x="156.12" y="-178.5" font-family="Helvetica,sans-Serif" font-size="10.00">AsyncFw::FunctionConnector</text>
<text text-anchor="middle" x="221" y="-166.5" font-family="Helvetica,sans-Serif" font-size="10.00">&lt; Args &gt;</text>
</a>
</g>
</g>
<!-- Node4&#45;&gt;Node2 -->
<g id="edge3_Node000002_Node000004" class="edge">
<title>Node4&#45;&gt;Node2</title>
<g id="a_edge3_Node000002_Node000004"><a xlink:title=" ">
<path fill="none" stroke="#9a32cd" stroke-dasharray="5,2" d="M201.39,-150.86C184.89,-130.56 162.19,-102.61 150.55,-88.29"/>
<polygon fill="#9a32cd" stroke="#9a32cd" points="198.49,-152.85 207.51,-158.4 203.92,-148.43 198.49,-152.85"/>
</a>
</g>
<text text-anchor="middle" x="214.92" y="-132.5" font-family="Helvetica,sans-Serif" font-size="10.00" fill="grey"> destroing</text>
<text text-anchor="middle" x="214.92" y="-120.5" font-family="Helvetica,sans-Serif" font-size="10.00" fill="grey">finished</text>
<text text-anchor="middle" x="214.92" y="-108.5" font-family="Helvetica,sans-Serif" font-size="10.00" fill="grey">started</text>
</g>
</g>
</svg>
