<?xml version="1.0" encoding="UTF-8" standalone="no"?>
<!DOCTYPE svg PUBLIC "-//W3C//DTD SVG 1.1//EN"
 "http://www.w3.org/Graphics/SVG/1.1/DTD/svg11.dtd">
<!-- Generated by graphviz version 12.2.1 (20241206.2353)
 -->
<!-- Title: AsyncFw::SystemProcess Pages: 1 -->
<svg width="825pt" height="90pt"
 viewBox="0.00 0.00 825.25 90.00" xmlns="http://www.w3.org/2000/svg" xmlns:xlink="http://www.w3.org/1999/xlink">
<g id="graph0" class="graph" transform="scale(1 1) rotate(0) translate(4 86)">
<title>AsyncFw::SystemProcess</title>
<!-- Node1 -->
<g id="Node000001" class="node">
<title>Node1</title>
<g id="a_Node000001"><a xlink:title="The SystemProcess class.">
<polygon fill="#999999" stroke="#666666" points="817.25,-50 684.25,-50 684.25,-30 817.25,-30 817.25,-50"/>
<text text-anchor="middle" x="750.75" y="-36.5" font-family="Helvetica,sans-Serif" font-size="10.00">AsyncFw::SystemProcess</text>
</a>
</g>
</g>
<!-- Node2 -->
<g id="Node000002" class="node">
<title>Node2</title>
<g id="a_Node000002"><a xlink:href="classAsyncFw_1_1FunctionConnector.html" target="_top" xlink:title=" ">
<polygon fill="white" stroke="#666666" points="584.5,-82 438.75,-82 438.75,-50 584.5,-50 584.5,-82"/>
<text text-anchor="start" x="446.75" y="-68.5" font-family="Helvetica,sans-Serif" font-size="10.00">AsyncFw::FunctionConnector</text>
<text text-anchor="middle" x="511.62" y="-56.5" font-family="Helvetica,sans-Serif" font-size="10.00">&lt; State &gt;</text>
</a>
</g>
</g>
<!-- Node2&#45;&gt;Node1 -->
<g id="edge1_Node000001_Node000002" class="edge">
<title>Node2&#45;&gt;Node1</title>
<g id="a_edge1_Node000001_Node000002"><a xlink:title=" ">
<path fill="none" stroke="#9a32cd" stroke-dasharray="5,2" d="M596.05,-56.85C624.9,-53.69 656.81,-50.19 684.04,-47.21"/>
<polygon fill="#9a32cd" stroke="#9a32cd" points="595.8,-53.36 586.24,-57.93 596.56,-60.32 595.8,-53.36"/>
</a>
</g>
<text text-anchor="middle" x="634.38" y="-58.59" font-family="Helvetica,sans-Serif" font-size="10.00" fill="grey"> stateChanged</text>
</g>
<!-- Node3 -->
<g id="Node000003" class="node">
<title>Node3</title>
<g id="a_Node000003"><a xlink:href="classAsyncFw_1_1AbstractFunctionConnector.html" target="_top" xlink:title="The AbstractFunctionConnector class provides the base functionality for FunctionConnector.">
<polygon fill="white" stroke="#666666" points="137.5,-54 0,-54 0,-22 137.5,-22 137.5,-54"/>
<text text-anchor="start" x="8" y="-40.5" font-family="Helvetica,sans-Serif" font-size="10.00">AsyncFw::AbstractFunction</text>
<text text-anchor="middle" x="68.75" y="-28.5" font-family="Helvetica,sans-Serif" font-size="10.00">Connector</text>
</a>
</g>
</g>
<!-- Node3&#45;&gt;Node2 -->
<g id="edge2_Node000002_Node000003" class="edge">
<title>Node3&#45;&gt;Node2</title>
<g id="a_edge2_Node000002_Node000003"><a xlink:title=" ">
<path fill="none" stroke="#63b8ff" d="M141.82,-56.99C152.71,-59.34 163.86,-61.45 174.5,-63 282.87,-78.78 311.29,-75.65 420.75,-72 426.53,-71.81 432.52,-71.54 438.54,-71.24"/>
<polygon fill="#63b8ff" stroke="#63b8ff" points="142.6,-53.57 132.08,-54.8 141.07,-60.4 142.6,-53.57"/>
</a>
</g>
</g>
<!-- Node4 -->
<g id="Node000004" class="node">
<title>Node4</title>
<g id="a_Node000004"><a xlink:href="classAsyncFw_1_1FunctionConnector.html" target="_top" xlink:title="Provides a sender&#45;to&#45;receivers connection. Receivers can be invoked in their own threads (default beh...">
<polygon fill="white" stroke="#666666" points="320.25,-54 174.5,-54 174.5,-22 320.25,-22 320.25,-54"/>
<text text-anchor="start" x="182.5" y="-40.5" font-family="Helvetica,sans-Serif" font-size="10.00">AsyncFw::FunctionConnector</text>
<text text-anchor="middle" x="247.38" y="-28.5" font-family="Helvetica,sans-Serif" font-size="10.00">&lt; Args &gt;</text>
</a>
</g>
</g>
<!-- Node3&#45;&gt;Node4 -->
<g id="edge4_Node000004_Node000003" class="edge">
<title>Node3&#45;&gt;Node4</title>
<g id="a_edge4_Node000004_Node000003"><a xlink:title=" ">
<path fill="none" stroke="#63b8ff" d="M149.12,-38C157.5,-38 165.98,-38 174.27,-38"/>
<polygon fill="#63b8ff" stroke="#63b8ff" points="149.3,-34.5 139.3,-38 149.3,-41.5 149.3,-34.5"/>
</a>
</g>
</g>
<!-- Node5 -->
<g id="Node000005" class="node">
<title>Node5</title>
<g id="a_Node000005"><a xlink:href="classAsyncFw_1_1FunctionConnector.html" target="_top" xlink:title=" ">
<polygon fill="white" stroke="#666666" points="584.5,-32 438.75,-32 438.75,0 584.5,0 584.5,-32"/>
<text text-anchor="start" x="446.75" y="-18.5" font-family="Helvetica,sans-Serif" font-size="10.00">AsyncFw::FunctionConnector</text>
<text text-anchor="middle" x="511.62" y="-6.5" font-family="Helvetica,sans-Serif" font-size="10.00">&lt; const std::string &amp;, bool &gt;</text>
</a>
</g>
</g>
<!-- Node3&#45;&gt;Node5 -->
<g id="edge6_Node000005_Node000003" class="edge">
<title>Node3&#45;&gt;Node5</title>
<g id="a_edge6_Node000005_Node000003"><a xlink:title=" ">
<path fill="none" stroke="#63b8ff" d="M139.8,-19.08C151.31,-16.61 163.19,-14.44 174.5,-13 264.96,-1.51 370.21,-5.17 438.5,-9.76"/>
<polygon fill="#63b8ff" stroke="#63b8ff" points="139.36,-15.59 130.37,-21.2 140.89,-22.42 139.36,-15.59"/>
</a>
</g>
</g>
<!-- Node4&#45;&gt;Node2 -->
<g id="edge3_Node000002_Node000004" class="edge">
<title>Node4&#45;&gt;Node2</title>
<g id="a_edge3_Node000002_Node000004"><a xlink:title=" ">
<path fill="none" stroke="orange" stroke-dasharray="5,2" d="M332.13,-46.94C366.36,-50.6 405.57,-54.78 438.51,-58.3"/>
<polygon fill="orange" stroke="orange" points="332.55,-43.47 322.24,-45.89 331.81,-50.43 332.55,-43.47"/>
</a>
</g>
<text text-anchor="middle" x="379.5" y="-58.64" font-family="Helvetica,sans-Serif" font-size="10.00" fill="grey"> &lt; State &gt;</text>
</g>
<!-- Node4&#45;&gt;Node5 -->
<g id="edge7_Node000005_Node000004" class="edge">
<title>Node4&#45;&gt;Node5</title>
<g id="a_edge7_Node000005_Node000004"><a xlink:title=" ">
<path fill="none" stroke="orange" stroke-dasharray="5,2" d="M331.59,-19.83C333.83,-19.53 336.05,-19.25 338.25,-19 370.96,-15.29 407.39,-14.22 438.3,-14.2"/>
<polygon fill="orange" stroke="orange" points="331.15,-16.36 321.78,-21.31 332.19,-23.28 331.15,-16.36"/>
</a>
</g>
<text text-anchor="start" x="338.25" y="-33.5" font-family="Helvetica,sans-Serif" font-size="10.00" fill="grey"> &lt; const std::string</text>
<text text-anchor="middle" x="379.5" y="-21.5" font-family="Helvetica,sans-Serif" font-size="10.00" fill="grey"> &amp;, bool &gt;</text>
</g>
<!-- Node5&#45;&gt;Node1 -->
<g id="edge5_Node000001_Node000005" class="edge">
<title>Node5&#45;&gt;Node1</title>
<g id="a_edge5_Node000001_Node000005"><a xlink:title=" ">
<path fill="none" stroke="#9a32cd" stroke-dasharray="5,2" d="M596,-21.52C618.8,-23.3 643.5,-25.48 666.25,-28 672.07,-28.65 678.11,-29.38 684.16,-30.17"/>
<polygon fill="#9a32cd" stroke="#9a32cd" points="596.36,-18.04 586.13,-20.77 595.83,-25.02 596.36,-18.04"/>
</a>
</g>
<text text-anchor="middle" x="634.38" y="-30.5" font-family="Helvetica,sans-Serif" font-size="10.00" fill="grey"> output</text>
</g>
</g>
</svg>
