<?xml version="1.0" encoding="UTF-8" standalone="no"?>
<!DOCTYPE svg PUBLIC "-//W3C//DTD SVG 1.1//EN"
 "http://www.w3.org/Graphics/SVG/1.1/DTD/svg11.dtd">
<!-- Generated by graphviz version 12.2.1 (20241206.2353)
 -->
<!-- Title: AsyncFw::AbstractThreadPool::Thread Pages: 1 -->
<svg width="312pt" height="281pt"
 viewBox="0.00 0.00 311.62 281.00" xmlns="http://www.w3.org/2000/svg" xmlns:xlink="http://www.w3.org/1999/xlink">
<g id="graph0" class="graph" transform="scale(1 1) rotate(0) translate(4 277)">
<title>AsyncFw::AbstractThreadPool::Thread</title>
<!-- Node1 -->
<g id="Node000001" class="node">
<title>Node1</title>
<g id="a_Node000001"><a xlink:title=" ">
<polygon fill="#999999" stroke="#666666" points="231.5,-32 82,-32 82,0 231.5,0 231.5,-32"/>
<text text-anchor="start" x="90" y="-18.5" font-family="Helvetica,sans-Serif" font-size="10.00">AsyncFw::AbstractThreadPool</text>
<text text-anchor="middle" x="156.75" y="-6.5" font-family="Helvetica,sans-Serif" font-size="10.00">::Thread</text>
</a>
</g>
</g>
<!-- Node2 -->
<g id="Node000002" class="node">
<title>Node2</title>
<g id="a_Node000002"><a xlink:href="classAsyncFw_1_1Thread.html" target="_top" xlink:title="AsyncFw::Thread thread with sockets.">
<polygon fill="white" stroke="#666666" points="260.38,-100 167.12,-100 167.12,-80 260.38,-80 260.38,-100"/>
<text text-anchor="middle" x="213.75" y="-86.5" font-family="Helvetica,sans-Serif" font-size="10.00">AsyncFw::Thread</text>
</a>
</g>
</g>
<!-- Node2&#45;&gt;Node1 -->
<g id="edge1_Node000001_Node000002" class="edge">
<title>Node2&#45;&gt;Node1</title>
<g id="a_edge1_Node000001_Node000002"><a xlink:title=" ">
<path fill="none" stroke="#63b8ff" d="M199.2,-70.62C189.86,-58.82 177.85,-43.66 169,-32.47"/>
<polygon fill="#63b8ff" stroke="#63b8ff" points="196.41,-72.73 205.36,-78.4 201.9,-68.39 196.41,-72.73"/>
</a>
</g>
</g>
<!-- Node3 -->
<g id="Node000003" class="node">
<title>Node3</title>
<g id="a_Node000003"><a xlink:href="classAsyncFw_1_1AbstractThread.html" target="_top" xlink:title="The AbstractThread class provides the base functionality for thread management.">
<polygon fill="white" stroke="#666666" points="139.75,-198 9.75,-198 9.75,-178 139.75,-178 139.75,-198"/>
<text text-anchor="middle" x="74.75" y="-184.5" font-family="Helvetica,sans-Serif" font-size="10.00">AsyncFw::AbstractThread</text>
</a>
</g>
</g>
<!-- Node3&#45;&gt;Node2 -->
<g id="edge2_Node000002_Node000003" class="edge">
<title>Node3&#45;&gt;Node2</title>
<g id="a_edge2_Node000002_Node000003"><a xlink:title=" ">
<path fill="none" stroke="#63b8ff" d="M97.76,-171.11C127.02,-150.9 176.59,-116.66 200.32,-100.28"/>
<polygon fill="#63b8ff" stroke="#63b8ff" points="95.82,-168.2 89.58,-176.76 99.79,-173.96 95.82,-168.2"/>
</a>
</g>
</g>
<!-- Node6 -->
<g id="Node000006" class="node">
<title>Node6</title>
<g id="a_Node000006"><a xlink:href="classAsyncFw_1_1AbstractThreadPool.html" target="_top" xlink:title="Abstract base class for creating and managing thread pools.">
<polygon fill="white" stroke="#666666" points="149.5,-100 0,-100 0,-80 149.5,-80 149.5,-100"/>
<text text-anchor="middle" x="74.75" y="-86.5" font-family="Helvetica,sans-Serif" font-size="10.00">AsyncFw::AbstractThreadPool</text>
</a>
</g>
</g>
<!-- Node3&#45;&gt;Node6 -->
<g id="edge6_Node000006_Node000003" class="edge">
<title>Node3&#45;&gt;Node6</title>
<g id="a_edge6_Node000006_Node000003"><a xlink:title=" ">
<path fill="none" stroke="#9a32cd" stroke-dasharray="5,2" d="M74.75,-166.3C74.75,-145.85 74.75,-115.48 74.75,-100.32"/>
<polygon fill="#9a32cd" stroke="#9a32cd" points="71.25,-166.28 74.75,-176.28 78.25,-166.28 71.25,-166.28"/>
</a>
</g>
<text text-anchor="middle" x="92.38" y="-132.5" font-family="Helvetica,sans-Serif" font-size="10.00" fill="grey"> thread_</text>
</g>
<!-- Node4 -->
<g id="Node000004" class="node">
<title>Node4</title>
<g id="a_Node000004"><a xlink:href="classAsyncFw_1_1FunctionConnector.html" target="_top" xlink:title="Provides a sender&#45;to&#45;receivers connection. Receivers can be invoked in their own threads (default beh...">
<polygon fill="white" stroke="#666666" points="303.62,-204 157.88,-204 157.88,-172 303.62,-172 303.62,-204"/>
<text text-anchor="start" x="165.88" y="-190.5" font-family="Helvetica,sans-Serif" font-size="10.00">AsyncFw::FunctionConnector</text>
<text text-anchor="middle" x="230.75" y="-178.5" font-family="Helvetica,sans-Serif" font-size="10.00">&lt; Args &gt;</text>
</a>
</g>
</g>
<!-- Node4&#45;&gt;Node2 -->
<g id="edge3_Node000002_Node000004" class="edge">
<title>Node4&#45;&gt;Node2</title>
<g id="a_edge3_Node000002_Node000004"><a xlink:title=" ">
<path fill="none" stroke="#9a32cd" stroke-dasharray="5,2" d="M226.03,-160.36C222.48,-140.31 217.83,-114.03 215.39,-100.29"/>
<polygon fill="#9a32cd" stroke="#9a32cd" points="222.56,-160.85 227.75,-170.09 229.46,-159.63 222.56,-160.85"/>
</a>
</g>
<text text-anchor="middle" x="246.14" y="-144.5" font-family="Helvetica,sans-Serif" font-size="10.00" fill="grey"> destroing</text>
<text text-anchor="middle" x="246.14" y="-132.5" font-family="Helvetica,sans-Serif" font-size="10.00" fill="grey">finished</text>
<text text-anchor="middle" x="246.14" y="-120.5" font-family="Helvetica,sans-Serif" font-size="10.00" fill="grey">started</text>
</g>
<!-- Node5 -->
<g id="Node000005" class="node">
<title>Node5</title>
<g id="a_Node000005"><a xlink:href="classAsyncFw_1_1AbstractFunctionConnector.html" target="_top" xlink:title="The AbstractFunctionConnector class provides the base functionality for FunctionConnector.">
<polygon fill="white" stroke="#666666" points="299.5,-273 162,-273 162,-241 299.5,-241 299.5,-273"/>
<text text-anchor="start" x="170" y="-259.5" font-family="Helvetica,sans-Serif" font-size="10.00">AsyncFw::AbstractFunction</text>
<text text-anchor="middle" x="230.75" y="-247.5" font-family="Helvetica,sans-Serif" font-size="10.00">Connector</text>
</a>
</g>
</g>
<!-- Node5&#45;&gt;Node4 -->
<g id="edge4_Node000004_Node000005" class="edge">
<title>Node5&#45;&gt;Node4</title>
<g id="a_edge4_Node000004_Node000005"><a xlink:title=" ">
<path fill="none" stroke="#63b8ff" d="M230.75,-229.35C230.75,-220.78 230.75,-211.59 230.75,-204.14"/>
<polygon fill="#63b8ff" stroke="#63b8ff" points="227.25,-229.28 230.75,-239.28 234.25,-229.28 227.25,-229.28"/>
</a>
</g>
</g>
<!-- Node6&#45;&gt;Node1 -->
<g id="edge5_Node000001_Node000006" class="edge">
<title>Node6&#45;&gt;Node1</title>
<g id="a_edge5_Node000001_Node000006"><a xlink:title=" ">
<path fill="none" stroke="#9a32cd" stroke-dasharray="5,2" d="M94.09,-72.02C107.74,-60.04 125.88,-44.11 139.13,-32.47"/>
<polygon fill="#9a32cd" stroke="#9a32cd" points="91.81,-69.36 86.61,-78.59 96.43,-74.62 91.81,-69.36"/>
</a>
</g>
<text text-anchor="middle" x="128.71" y="-52.5" font-family="Helvetica,sans-Serif" font-size="10.00" fill="grey"> pool</text>
</g>
</g>
</svg>
