<?xml version="1.0" encoding="UTF-8" standalone="no"?>
<!DOCTYPE svg PUBLIC "-//W3C//DTD SVG 1.1//EN"
 "http://www.w3.org/Graphics/SVG/1.1/DTD/svg11.dtd">
<!-- Generated by graphviz version 14.1.3 (20260303.0454)
 -->
<!-- Title: AsyncFw::DataArrayTcpClient::exchange Pages: 1 -->
<svg width="671pt" height="196pt"
 viewBox="0.00 0.00 671.00 196.00" xmlns="http://www.w3.org/2000/svg" xmlns:xlink="http://www.w3.org/1999/xlink">
<g id="graph0" class="graph" transform="scale(1 1) rotate(0) translate(4 192)">
<title>AsyncFw::DataArrayTcpClient::exchange</title>
<!-- Node1 -->
<g id="Node000001" class="node">
<title>Node1</title>
<g id="a_Node000001"><a xlink:title="Executes a synchronous request&#45;response data exchange over a specific socket.">
<polygon fill="#999999" stroke="#666666" points="148,-116 0,-116 0,-84 148,-84 148,-116"/>
<text xml:space="preserve" text-anchor="start" x="8" y="-102.5" font-family="Helvetica,sans-Serif" font-size="10.00">AsyncFw::DataArrayTcpClient</text>
<text xml:space="preserve" text-anchor="middle" x="74" y="-90.5" font-family="Helvetica,sans-Serif" font-size="10.00">::exchange</text>
</a>
</g>
</g>
<!-- Node2 -->
<g id="Node000002" class="node">
<title>Node2</title>
<g id="a_Node000002"><a xlink:href="classAsyncFw_1_1FunctionConnector.html#ae1f65144956b3b1247d58614e4080f63" target="_top" xlink:title="Establishes a connection to a callable target.">
<polygon fill="white" stroke="#666666" points="329.75,-188 184,-188 184,-156 329.75,-156 329.75,-188"/>
<text xml:space="preserve" text-anchor="start" x="192" y="-174.5" font-family="Helvetica,sans-Serif" font-size="10.00">AsyncFw::FunctionConnector</text>
<text xml:space="preserve" text-anchor="middle" x="256.88" y="-162.5" font-family="Helvetica,sans-Serif" font-size="10.00">::connect</text>
</a>
</g>
</g>
<!-- Node1&#45;&gt;Node2 -->
<g id="edge1_Node000001_Node000002" class="edge">
<title>Node1&#45;&gt;Node2</title>
<g id="a_edge1_Node000001_Node000002"><a xlink:title=" ">
<path fill="none" stroke="#63b8ff" d="M111.06,-116.33C132.17,-125.69 159.42,-137.44 184,-147 188.04,-148.57 192.23,-150.15 196.45,-151.71"/>
<polygon fill="#63b8ff" stroke="#63b8ff" points="194.97,-154.89 205.56,-155.01 197.35,-148.31 194.97,-154.89"/>
</a>
</g>
</g>
<!-- Node3 -->
<g id="Node000003" class="node">
<title>Node3</title>
<g id="a_Node000003"><a xlink:href="classAsyncFw_1_1AbstractThread.html#af33c5949edb374d673a7a9ac0c81ec32" target="_top" xlink:title="Returns a pointer to the AsyncFw::AbstractThread that manages the currently executing thread.">
<polygon fill="white" stroke="#666666" points="321.88,-138 191.88,-138 191.88,-106 321.88,-106 321.88,-138"/>
<text xml:space="preserve" text-anchor="start" x="199.88" y="-124.5" font-family="Helvetica,sans-Serif" font-size="10.00">AsyncFw::AbstractThread</text>
<text xml:space="preserve" text-anchor="middle" x="256.88" y="-112.5" font-family="Helvetica,sans-Serif" font-size="10.00">::current</text>
</a>
</g>
</g>
<!-- Node1&#45;&gt;Node3 -->
<g id="edge2_Node000001_Node000003" class="edge">
<title>Node1&#45;&gt;Node3</title>
<g id="a_edge2_Node000001_Node000003"><a xlink:title=" ">
<path fill="none" stroke="#63b8ff" d="M148.31,-108.92C158.81,-110.19 169.63,-111.51 180.17,-112.79"/>
<polygon fill="#63b8ff" stroke="#63b8ff" points="179.63,-116.25 189.97,-113.98 180.47,-109.3 179.63,-116.25"/>
</a>
</g>
</g>
<!-- Node6 -->
<g id="Node000006" class="node">
<title>Node6</title>
<g id="a_Node000006"><a xlink:href="classAsyncFw_1_1Timer.html#a14d02d88bd3682afd7c8fd72cc670e46" target="_top" xlink:title="Starts or restarts a timer with the specified timeout. If the timer is already running,...">
<polygon fill="white" stroke="#666666" points="313.62,-88 200.12,-88 200.12,-68 313.62,-68 313.62,-88"/>
<text xml:space="preserve" text-anchor="middle" x="256.88" y="-74.5" font-family="Helvetica,sans-Serif" font-size="10.00">AsyncFw::Timer::start</text>
</a>
</g>
</g>
<!-- Node1&#45;&gt;Node6 -->
<g id="edge5_Node000001_Node000006" class="edge">
<title>Node1&#45;&gt;Node6</title>
<g id="a_edge5_Node000001_Node000006"><a xlink:title=" ">
<path fill="none" stroke="#63b8ff" d="M148.31,-91.08C161.56,-89.47 175.33,-87.8 188.4,-86.21"/>
<polygon fill="#63b8ff" stroke="#63b8ff" points="188.68,-89.7 198.19,-85.02 187.84,-82.75 188.68,-89.7"/>
</a>
</g>
</g>
<!-- Node8 -->
<g id="Node000008" class="node">
<title>Node8</title>
<g id="a_Node000008"><a xlink:href="classAsyncFw_1_1DataArrayAbstractTcp.html#a45af100bb7d2133f28884c278b8ec298" target="_top" xlink:title="Asynchronously transmits a DataArray packet through a given socket context.">
<polygon fill="white" stroke="#666666" points="329,-32 184.75,-32 184.75,0 329,0 329,-32"/>
<text xml:space="preserve" text-anchor="start" x="192.75" y="-18.5" font-family="Helvetica,sans-Serif" font-size="10.00">AsyncFw::DataArrayAbstract</text>
<text xml:space="preserve" text-anchor="middle" x="256.88" y="-6.5" font-family="Helvetica,sans-Serif" font-size="10.00">Tcp::transmit</text>
</a>
</g>
</g>
<!-- Node1&#45;&gt;Node8 -->
<g id="edge7_Node000001_Node000008" class="edge">
<title>Node1&#45;&gt;Node8</title>
<g id="a_edge7_Node000001_Node000008"><a xlink:title=" ">
<path fill="none" stroke="#63b8ff" d="M110.3,-83.6C138.85,-70.35 179.23,-51.59 210.23,-37.2"/>
<polygon fill="#63b8ff" stroke="#63b8ff" points="211.38,-40.52 218.98,-33.13 208.43,-34.17 211.38,-40.52"/>
</a>
</g>
</g>
<!-- Node4 -->
<g id="Node000004" class="node">
<title>Node4</title>
<g id="a_Node000004"><a xlink:href="classAsyncFw_1_1AbstractThread.html#a8c9202c90ac101522f26c4260cb01b59" target="_top" xlink:title="Constructs a thread.">
<polygon fill="white" stroke="#666666" points="496.12,-138 366.12,-138 366.12,-106 496.12,-106 496.12,-138"/>
<text xml:space="preserve" text-anchor="start" x="374.12" y="-124.5" font-family="Helvetica,sans-Serif" font-size="10.00">AsyncFw::AbstractThread</text>
<text xml:space="preserve" text-anchor="middle" x="431.12" y="-112.5" font-family="Helvetica,sans-Serif" font-size="10.00">::AbstractThread</text>
</a>
</g>
</g>
<!-- Node3&#45;&gt;Node4 -->
<g id="edge3_Node000003_Node000004" class="edge">
<title>Node3&#45;&gt;Node4</title>
<g id="a_edge3_Node000003_Node000004"><a xlink:title=" ">
<path fill="none" stroke="#63b8ff" d="M322.01,-122C332.59,-122 343.64,-122 354.47,-122"/>
<polygon fill="#63b8ff" stroke="#63b8ff" points="354.13,-125.5 364.13,-122 354.13,-118.5 354.13,-125.5"/>
</a>
</g>
</g>
<!-- Node5 -->
<g id="Node000005" class="node">
<title>Node5</title>
<g id="a_Node000005"><a xlink:href="classAsyncFw_1_1AbstractThread.html#a0cd916251e061aaf3d456575ef052edd" target="_top" xlink:title="Returns name of managed thread.">
<polygon fill="white" stroke="#666666" points="662.5,-138 532.5,-138 532.5,-106 662.5,-106 662.5,-138"/>
<text xml:space="preserve" text-anchor="start" x="540.5" y="-124.5" font-family="Helvetica,sans-Serif" font-size="10.00">AsyncFw::AbstractThread</text>
<text xml:space="preserve" text-anchor="middle" x="597.5" y="-112.5" font-family="Helvetica,sans-Serif" font-size="10.00">::name</text>
</a>
</g>
</g>
<!-- Node4&#45;&gt;Node5 -->
<g id="edge4_Node000004_Node000005" class="edge">
<title>Node4&#45;&gt;Node5</title>
<g id="a_edge4_Node000004_Node000005"><a xlink:title=" ">
<path fill="none" stroke="#63b8ff" d="M496.62,-122C504.57,-122 512.74,-122 520.84,-122"/>
<polygon fill="#63b8ff" stroke="#63b8ff" points="520.68,-125.5 530.68,-122 520.68,-118.5 520.68,-125.5"/>
</a>
</g>
</g>
<!-- Node7 -->
<g id="Node000007" class="node">
<title>Node7</title>
<g id="a_Node000007"><a xlink:href="classAsyncFw_1_1Timer.html#ac71f0729e65046914c3358e87759f9e9" target="_top" xlink:title="Starts a single shot timer with the specified timeout.">
<polygon fill="white" stroke="#666666" points="490.88,-88 371.38,-88 371.38,-68 490.88,-68 490.88,-88"/>
<text xml:space="preserve" text-anchor="middle" x="431.12" y="-74.5" font-family="Helvetica,sans-Serif" font-size="10.00">AsyncFw::Timer::single</text>
</a>
</g>
</g>
<!-- Node6&#45;&gt;Node7 -->
<g id="edge6_Node000006_Node000007" class="edge">
<title>Node6&#45;&gt;Node7</title>
<g id="a_edge6_Node000006_Node000007"><a xlink:title=" ">
<path fill="none" stroke="#63b8ff" d="M313.8,-78C328.36,-78 344.24,-78 359.45,-78"/>
<polygon fill="#63b8ff" stroke="#63b8ff" points="359.41,-81.5 369.41,-78 359.41,-74.5 359.41,-81.5"/>
</a>
</g>
</g>
<!-- Node8&#45;&gt;Node8 -->
<g id="edge9_Node000008_Node000008" class="edge">
<title>Node8&#45;&gt;Node8</title>
<g id="a_edge9_Node000008_Node000008"><a xlink:title=" ">
<path fill="none" stroke="#63b8ff" d="M225.77,-32.44C219.96,-41.58 230.33,-50 256.88,-50 271.39,-50 281.07,-47.48 285.91,-43.71"/>
<polygon fill="#63b8ff" stroke="#63b8ff" points="289.34,-44.4 287.71,-33.93 282.46,-43.13 289.34,-44.4"/>
</a>
</g>
</g>
<!-- Node9 -->
<g id="Node000009" class="node">
<title>Node9</title>
<g id="a_Node000009"><a xlink:href="classAsyncFw_1_1AbstractSocket.html#ac1b9b68ae7fe6c9312d9d713a7b444a9" target="_top" xlink:title="Return Thread that manages the socket.">
<polygon fill="white" stroke="#666666" points="496.5,-32 365.75,-32 365.75,0 496.5,0 496.5,-32"/>
<text xml:space="preserve" text-anchor="start" x="373.75" y="-18.5" font-family="Helvetica,sans-Serif" font-size="10.00">AsyncFw::AbstractSocket</text>
<text xml:space="preserve" text-anchor="middle" x="431.12" y="-6.5" font-family="Helvetica,sans-Serif" font-size="10.00">::thread</text>
</a>
</g>
</g>
<!-- Node8&#45;&gt;Node9 -->
<g id="edge8_Node000008_Node000009" class="edge">
<title>Node8&#45;&gt;Node9</title>
<g id="a_edge8_Node000008_Node000009"><a xlink:title=" ">
<path fill="none" stroke="#63b8ff" d="M329.43,-16C337.53,-16 345.81,-16 353.97,-16"/>
<polygon fill="#63b8ff" stroke="#63b8ff" points="353.89,-19.5 363.89,-16 353.89,-12.5 353.89,-19.5"/>
</a>
</g>
</g>
</g>
</svg>
