<?xml version="1.0" encoding="UTF-8" standalone="no"?>
<!DOCTYPE svg PUBLIC "-//W3C//DTD SVG 1.1//EN"
 "http://www.w3.org/Graphics/SVG/1.1/DTD/svg11.dtd">
<!-- Generated by graphviz version 14.1.3 (20260303.0454)
 -->
<!-- Title: AsyncFw::AbstractTask Pages: 1 -->
<svg width="258pt" height="102pt"
 viewBox="0.00 0.00 258.00 102.00" xmlns="http://www.w3.org/2000/svg" xmlns:xlink="http://www.w3.org/1999/xlink">
<g id="graph0" class="graph" transform="scale(1 1) rotate(0) translate(4 98)">
<title>AsyncFw::AbstractTask</title>
<!-- Node1 -->
<g id="Node000001" class="node">
<title>Node1</title>
<g id="a_Node000001"><a xlink:title="Base polymorphic class for tasks with dynamic runtime data encapsulation.">
<polygon fill="#999999" stroke="#666666" points="178.25,-20 57.25,-20 57.25,0 178.25,0 178.25,-20"/>
<text xml:space="preserve" text-anchor="middle" x="117.75" y="-6.5" font-family="Helvetica,sans-Serif" font-size="10.00">AsyncFw::AbstractTask</text>
</a>
</g>
</g>
<!-- Node2 -->
<g id="Node000002" class="node">
<title>Node2</title>
<g id="a_Node000002"><a xlink:href="structAsyncFw_1_1AnyData.html" target="_top" xlink:title="A generic, type&#45;safe data container block wrapper utilizing std::any.">
<polygon fill="white" stroke="#666666" points="101.5,-94 0,-94 0,-74 101.5,-74 101.5,-94"/>
<text xml:space="preserve" text-anchor="middle" x="50.75" y="-80.5" font-family="Helvetica,sans-Serif" font-size="10.00">AsyncFw::AnyData</text>
</a>
</g>
</g>
<!-- Node2&#45;&gt;Node1 -->
<g id="edge1_Node000001_Node000002" class="edge">
<title>Node2&#45;&gt;Node1</title>
<g id="a_edge1_Node000001_Node000002"><a xlink:title=" ">
<path fill="none" stroke="#63b8ff" d="M67.04,-65.5C80.34,-51.21 98.61,-31.57 109.2,-20.19"/>
<polygon fill="#63b8ff" stroke="#63b8ff" points="64.79,-62.77 60.54,-72.48 69.91,-67.54 64.79,-62.77"/>
</a>
</g>
</g>
<!-- Node3 -->
<g id="Node000003" class="node">
<title>Node3</title>
<g id="a_Node000003"><a xlink:href="classAsyncFw_1_1AbstractThread.html" target="_top" xlink:title="The AbstractThread class provides the base functionality for thread management.">
<polygon fill="white" stroke="#666666" points="249.75,-94 119.75,-94 119.75,-74 249.75,-74 249.75,-94"/>
<text xml:space="preserve" text-anchor="middle" x="184.75" y="-80.5" font-family="Helvetica,sans-Serif" font-size="10.00">AsyncFw::AbstractThread</text>
</a>
</g>
</g>
<!-- Node3&#45;&gt;Node1 -->
<g id="edge2_Node000001_Node000003" class="edge">
<title>Node3&#45;&gt;Node1</title>
<g id="a_edge2_Node000001_Node000003"><a xlink:title=" ">
<path fill="none" stroke="#9a32cd" stroke-dasharray="5,2" d="M168.46,-65.5C155.16,-51.21 136.89,-31.57 126.3,-20.19"/>
<polygon fill="#9a32cd" stroke="#9a32cd" points="165.59,-67.54 174.96,-72.48 170.71,-62.77 165.59,-67.54"/>
</a>
</g>
<text xml:space="preserve" text-anchor="start" x="162.22" y="-43.25" font-family="Helvetica,sans-Serif" font-size="10.00" fill="grey">thread_</text>
</g>
</g>
</svg>
