<?xml version="1.0" encoding="UTF-8" standalone="no"?>
<!DOCTYPE svg PUBLIC "-//W3C//DTD SVG 1.1//EN"
 "http://www.w3.org/Graphics/SVG/1.1/DTD/svg11.dtd">
<!-- Generated by graphviz version 12.2.1 (20241206.2353)
 -->
<!-- Title: AsyncFw::AbstractFunctionConnector Pages: 1 -->
<svg width="592pt" height="99pt"
 viewBox="0.00 0.00 591.75 99.00" xmlns="http://www.w3.org/2000/svg" xmlns:xlink="http://www.w3.org/1999/xlink">
<g id="graph0" class="graph" transform="scale(1 1) rotate(0) translate(4 95)">
<title>AsyncFw::AbstractFunctionConnector</title>
<!-- Node1 -->
<g id="Node000001" class="node">
<title>Node1</title>
<g id="a_Node000001"><a xlink:title="The AbstractFunctionConnector class provides the base functionality for FunctionConnector.">
<polygon fill="#999999" stroke="#666666" points="137.5,-58 0,-58 0,-26 137.5,-26 137.5,-58"/>
<text text-anchor="start" x="8" y="-44.5" font-family="Helvetica,sans-Serif" font-size="10.00">AsyncFw::AbstractFunction</text>
<text text-anchor="middle" x="68.75" y="-32.5" font-family="Helvetica,sans-Serif" font-size="10.00">Connector</text>
</a>
</g>
</g>
<!-- Node2 -->
<g id="Node000002" class="node">
<title>Node2</title>
<g id="a_Node000002"><a xlink:href="classAsyncFw_1_1FunctionConnector.html" target="_top" xlink:title=" ">
<polygon fill="white" stroke="#666666" points="583.75,-91 438,-91 438,-59 583.75,-59 583.75,-91"/>
<text text-anchor="start" x="446" y="-77.5" font-family="Helvetica,sans-Serif" font-size="10.00">AsyncFw::FunctionConnector</text>
<text text-anchor="middle" x="510.88" y="-65.5" font-family="Helvetica,sans-Serif" font-size="10.00">&lt; Args... &gt;</text>
</a>
</g>
</g>
<!-- Node1&#45;&gt;Node2 -->
<g id="edge1_Node000001_Node000002" class="edge">
<title>Node1&#45;&gt;Node2</title>
<g id="a_edge1_Node000001_Node000002"><a xlink:title=" ">
<path fill="none" stroke="#63b8ff" d="M141.82,-60.99C152.71,-63.34 163.86,-65.45 174.5,-67 264.55,-80.11 369.61,-80.2 437.82,-78.28"/>
<polygon fill="#63b8ff" stroke="#63b8ff" points="142.6,-57.57 132.08,-58.8 141.07,-64.4 142.6,-57.57"/>
</a>
</g>
</g>
<!-- Node3 -->
<g id="Node000003" class="node">
<title>Node3</title>
<g id="a_Node000003"><a xlink:href="classAsyncFw_1_1FunctionConnector.html" target="_top" xlink:title=" ">
<polygon fill="white" stroke="#666666" points="583.75,-32 438,-32 438,0 583.75,0 583.75,-32"/>
<text text-anchor="start" x="446" y="-18.5" font-family="Helvetica,sans-Serif" font-size="10.00">AsyncFw::FunctionConnector</text>
<text text-anchor="middle" x="510.88" y="-6.5" font-family="Helvetica,sans-Serif" font-size="10.00">&lt; const Value &amp; &gt;</text>
</a>
</g>
</g>
<!-- Node1&#45;&gt;Node3 -->
<g id="edge2_Node000001_Node000003" class="edge">
<title>Node1&#45;&gt;Node3</title>
<g id="a_edge2_Node000001_Node000003"><a xlink:title=" ">
<path fill="none" stroke="#63b8ff" d="M139.35,-23.02C151,-20.53 163.03,-18.37 174.5,-17 264.69,-6.25 369.5,-8.23 437.62,-11.42"/>
<polygon fill="#63b8ff" stroke="#63b8ff" points="138.79,-19.56 129.8,-25.17 140.32,-26.39 138.79,-19.56"/>
</a>
</g>
</g>
<!-- Node4 -->
<g id="Node000004" class="node">
<title>Node4</title>
<g id="a_Node000004"><a xlink:href="classAsyncFw_1_1FunctionConnector.html" target="_top" xlink:title="Обеспечивает соединение отправитель &#45;&gt; получатели. Получатели могут быть вызваны в своих потоках (по ...">
<polygon fill="white" stroke="#666666" points="320.25,-58 174.5,-58 174.5,-26 320.25,-26 320.25,-58"/>
<text text-anchor="start" x="182.5" y="-44.5" font-family="Helvetica,sans-Serif" font-size="10.00">AsyncFw::FunctionConnector</text>
<text text-anchor="middle" x="247.38" y="-32.5" font-family="Helvetica,sans-Serif" font-size="10.00">&lt; Args &gt;</text>
</a>
</g>
</g>
<!-- Node1&#45;&gt;Node4 -->
<g id="edge3_Node000001_Node000004" class="edge">
<title>Node1&#45;&gt;Node4</title>
<g id="a_edge3_Node000001_Node000004"><a xlink:title=" ">
<path fill="none" stroke="#63b8ff" d="M149.12,-42C157.5,-42 165.98,-42 174.27,-42"/>
<polygon fill="#63b8ff" stroke="#63b8ff" points="149.3,-38.5 139.3,-42 149.3,-45.5 149.3,-38.5"/>
</a>
</g>
</g>
<!-- Node4&#45;&gt;Node2 -->
<g id="edge4_Node000004_Node000002" class="edge">
<title>Node4&#45;&gt;Node2</title>
<g id="a_edge4_Node000004_Node000002"><a xlink:title=" ">
<path fill="none" stroke="orange" stroke-dasharray="5,2" d="M331.84,-52.53C365.83,-56.82 404.75,-61.73 437.51,-65.87"/>
<polygon fill="orange" stroke="orange" points="332.38,-49.07 322.02,-51.29 331.51,-56.02 332.38,-49.07"/>
</a>
</g>
<text text-anchor="middle" x="379.12" y="-65.88" font-family="Helvetica,sans-Serif" font-size="10.00" fill="grey"> &lt; Args... &gt;</text>
</g>
<!-- Node4&#45;&gt;Node3 -->
<g id="edge5_Node000004_Node000003" class="edge">
<title>Node4&#45;&gt;Node3</title>
<g id="a_edge5_Node000004_Node000003"><a xlink:title=" ">
<path fill="none" stroke="orange" stroke-dasharray="5,2" d="M331.65,-29.75C333.87,-29.49 336.08,-29.24 338.25,-29 370.77,-25.42 406.87,-22.52 437.54,-20.38"/>
<polygon fill="orange" stroke="orange" points="331.43,-26.25 321.93,-30.95 332.29,-33.2 331.43,-26.25"/>
</a>
</g>
<text text-anchor="middle" x="379.12" y="-31.5" font-family="Helvetica,sans-Serif" font-size="10.00" fill="grey"> &lt; const Value &amp; &gt;</text>
</g>
</g>
</svg>
