<?xml version="1.0" encoding="UTF-8" standalone="no"?>
<!DOCTYPE svg PUBLIC "-//W3C//DTD SVG 1.1//EN"
 "http://www.w3.org/Graphics/SVG/1.1/DTD/svg11.dtd">
<!-- Generated by graphviz version 12.2.1 (20241206.2353)
 -->
<!-- Title: AsyncFw::FunctionConnectorProtected&lt; F &gt; Pages: 1 -->
<svg width="535pt" height="508pt"
 viewBox="0.00 0.00 535.00 508.42" xmlns="http://www.w3.org/2000/svg" xmlns:xlink="http://www.w3.org/1999/xlink">
<g id="graph0" class="graph" transform="scale(1 1) rotate(0) translate(4 504.42)">
<title>AsyncFw::FunctionConnectorProtected&lt; F &gt;</title>
<!-- Node1 -->
<g id="Node000001" class="node">
<title>Node1</title>
<g id="a_Node000001"><a xlink:title="Защищенный коннетор, отправитель может быть только один.">
<polygon fill="#999999" stroke="#666666" points="145.75,-260 0,-260 0,-228 145.75,-228 145.75,-260"/>
<text text-anchor="start" x="8" y="-246.5" font-family="Helvetica,sans-Serif" font-size="10.00">AsyncFw::FunctionConnector</text>
<text text-anchor="middle" x="72.88" y="-234.5" font-family="Helvetica,sans-Serif" font-size="10.00">Protected&lt; F &gt;</text>
</a>
</g>
</g>
<!-- Node2 -->
<g id="Node000002" class="node">
<title>Node2</title>
<g id="a_Node000002"><a xlink:href="classAsyncFw_1_1FunctionConnectorProtected.html" target="_top" xlink:title=" ">
<polygon fill="white" stroke="#666666" points="518.38,-494 343.38,-494 343.38,-462 518.38,-462 518.38,-494"/>
<text text-anchor="start" x="351.38" y="-480.5" font-family="Helvetica,sans-Serif" font-size="10.00">AsyncFw::FunctionConnector</text>
<text text-anchor="middle" x="430.88" y="-468.5" font-family="Helvetica,sans-Serif" font-size="10.00">Protected&lt; AsyncFw::AddressInfo &gt;</text>
</a>
</g>
</g>
<!-- Node1&#45;&gt;Node2 -->
<g id="edge1_Node000001_Node000002" class="edge">
<title>Node1&#45;&gt;Node2</title>
<g id="a_edge1_Node000001_Node000002"><a xlink:title=" ">
<path fill="none" stroke="orange" stroke-dasharray="5,2" d="M77.48,-271.57C84.91,-316.22 106.33,-403.61 163.75,-446 214.76,-483.66 286.86,-490.29 343.14,-488.26"/>
<polygon fill="orange" stroke="orange" points="80.98,-271.29 76,-261.93 74.06,-272.35 80.98,-271.29"/>
</a>
</g>
<text text-anchor="middle" x="240.25" y="-490.92" font-family="Helvetica,sans-Serif" font-size="10.00" fill="grey"> &lt; AsyncFw::AddressInfo &gt;</text>
</g>
<!-- Node3 -->
<g id="Node000003" class="node">
<title>Node3</title>
<g id="a_Node000003"><a xlink:href="classAsyncFw_1_1FunctionConnectorProtected.html" target="_top" xlink:title=" ">
<polygon fill="white" stroke="#666666" points="516.88,-444 344.88,-444 344.88,-412 516.88,-412 516.88,-444"/>
<text text-anchor="start" x="352.88" y="-430.5" font-family="Helvetica,sans-Serif" font-size="10.00">AsyncFw::FunctionConnector</text>
<text text-anchor="middle" x="430.88" y="-418.5" font-family="Helvetica,sans-Serif" font-size="10.00">Protected&lt; DataArrayAbstractTcp &gt;</text>
</a>
</g>
</g>
<!-- Node1&#45;&gt;Node3 -->
<g id="edge2_Node000001_Node000003" class="edge">
<title>Node1&#45;&gt;Node3</title>
<g id="a_edge2_Node000001_Node000003"><a xlink:title=" ">
<path fill="none" stroke="orange" stroke-dasharray="5,2" d="M83.07,-271.07C95.74,-303.97 121.88,-358.48 163.75,-386 217,-421.01 288.96,-430.65 344.62,-432.01"/>
<polygon fill="orange" stroke="orange" points="86.4,-270.01 79.66,-261.84 79.84,-272.43 86.4,-270.01"/>
</a>
</g>
<text text-anchor="middle" x="240.25" y="-432.97" font-family="Helvetica,sans-Serif" font-size="10.00" fill="grey"> &lt; DataArrayAbstractTcp &gt;</text>
</g>
<!-- Node4 -->
<g id="Node000004" class="node">
<title>Node4</title>
<g id="a_Node000004"><a xlink:href="classAsyncFw_1_1FunctionConnectorProtected.html" target="_top" xlink:title=" ">
<polygon fill="white" stroke="#666666" points="506.38,-394 355.38,-394 355.38,-362 506.38,-362 506.38,-394"/>
<text text-anchor="start" x="363.38" y="-380.5" font-family="Helvetica,sans-Serif" font-size="10.00">AsyncFw::FunctionConnector</text>
<text text-anchor="middle" x="430.88" y="-368.5" font-family="Helvetica,sans-Serif" font-size="10.00">Protected&lt; DataArraySocket &gt;</text>
</a>
</g>
</g>
<!-- Node1&#45;&gt;Node4 -->
<g id="edge3_Node000001_Node000004" class="edge">
<title>Node1&#45;&gt;Node4</title>
<g id="a_edge3_Node000001_Node000004"><a xlink:title=" ">
<path fill="none" stroke="orange" stroke-dasharray="5,2" d="M93.44,-268.76C110.05,-288.01 135.62,-313.76 163.75,-328 223.73,-358.37 299.74,-370.41 355.15,-375.12"/>
<polygon fill="orange" stroke="orange" points="96.32,-266.75 87.22,-261.34 90.96,-271.25 96.32,-266.75"/>
</a>
</g>
<text text-anchor="middle" x="240.25" y="-372.59" font-family="Helvetica,sans-Serif" font-size="10.00" fill="grey"> &lt; DataArraySocket &gt;</text>
</g>
<!-- Node5 -->
<g id="Node000005" class="node">
<title>Node5</title>
<g id="a_Node000005"><a xlink:href="classAsyncFw_1_1FunctionConnectorProtected.html" target="_top" xlink:title=" ">
<polygon fill="white" stroke="#666666" points="511.25,-344 350.5,-344 350.5,-312 511.25,-312 511.25,-344"/>
<text text-anchor="start" x="358.5" y="-330.5" font-family="Helvetica,sans-Serif" font-size="10.00">AsyncFw::FunctionConnector</text>
<text text-anchor="middle" x="430.88" y="-318.5" font-family="Helvetica,sans-Serif" font-size="10.00">Protected&lt; DataArrayTcpClient &gt;</text>
</a>
</g>
</g>
<!-- Node1&#45;&gt;Node5 -->
<g id="edge4_Node000001_Node000005" class="edge">
<title>Node1&#45;&gt;Node5</title>
<g id="a_edge4_Node000001_Node000005"><a xlink:title=" ">
<path fill="none" stroke="orange" stroke-dasharray="5,2" d="M121.81,-264.6C135.21,-269.82 149.9,-275.07 163.75,-279 225.32,-296.49 296.74,-309.24 350.08,-317.34"/>
<polygon fill="orange" stroke="orange" points="123.37,-261.45 112.78,-261 120.77,-267.95 123.37,-261.45"/>
</a>
</g>
<text text-anchor="middle" x="240.25" y="-314.1" font-family="Helvetica,sans-Serif" font-size="10.00" fill="grey"> &lt; DataArrayTcpClient &gt;</text>
</g>
<!-- Node6 -->
<g id="Node000006" class="node">
<title>Node6</title>
<g id="a_Node000006"><a xlink:href="classAsyncFw_1_1FunctionConnectorProtected.html" target="_top" xlink:title=" ">
<polygon fill="white" stroke="#666666" points="512.38,-294 349.38,-294 349.38,-250 512.38,-250 512.38,-294"/>
<text text-anchor="start" x="357.38" y="-280.5" font-family="Helvetica,sans-Serif" font-size="10.00">AsyncFw::FunctionConnector</text>
<text text-anchor="start" x="357.38" y="-268.5" font-family="Helvetica,sans-Serif" font-size="10.00">Protected&lt; AsyncFw::FileSystem</text>
<text text-anchor="middle" x="430.88" y="-256.5" font-family="Helvetica,sans-Serif" font-size="10.00">Watcher &gt;</text>
</a>
</g>
</g>
<!-- Node1&#45;&gt;Node6 -->
<g id="edge5_Node000001_Node000006" class="edge">
<title>Node1&#45;&gt;Node6</title>
<g id="a_edge5_Node000001_Node000006"><a xlink:title=" ">
<path fill="none" stroke="orange" stroke-dasharray="5,2" d="M157.22,-250.56C215.04,-255.1 291.64,-261.13 348.93,-265.63"/>
<polygon fill="orange" stroke="orange" points="157.67,-247.08 147.43,-249.78 157.12,-254.06 157.67,-247.08"/>
</a>
</g>
<text text-anchor="middle" x="240.25" y="-265.44" font-family="Helvetica,sans-Serif" font-size="10.00" fill="grey"> &lt; AsyncFw::FileSystemWatcher &gt;</text>
</g>
<!-- Node7 -->
<g id="Node000007" class="node">
<title>Node7</title>
<g id="a_Node000007"><a xlink:href="classAsyncFw_1_1FunctionConnectorProtected.html" target="_top" xlink:title=" ">
<polygon fill="white" stroke="#666666" points="516.88,-232 344.88,-232 344.88,-200 516.88,-200 516.88,-232"/>
<text text-anchor="start" x="352.88" y="-218.5" font-family="Helvetica,sans-Serif" font-size="10.00">AsyncFw::FunctionConnector</text>
<text text-anchor="middle" x="430.88" y="-206.5" font-family="Helvetica,sans-Serif" font-size="10.00">Protected&lt; AsyncFw::HttpSocket &gt;</text>
</a>
</g>
</g>
<!-- Node1&#45;&gt;Node7 -->
<g id="edge6_Node000001_Node000007" class="edge">
<title>Node1&#45;&gt;Node7</title>
<g id="a_edge6_Node000001_Node000007"><a xlink:title=" ">
<path fill="none" stroke="orange" stroke-dasharray="5,2" d="M157.45,-236.52C159.57,-236.34 161.67,-236.17 163.75,-236 224.13,-231.04 292.25,-225.93 344.46,-222.12"/>
<polygon fill="orange" stroke="orange" points="157.15,-233.03 147.49,-237.37 157.75,-240.01 157.15,-233.03"/>
</a>
</g>
<text text-anchor="middle" x="240.25" y="-238.5" font-family="Helvetica,sans-Serif" font-size="10.00" fill="grey"> &lt; AsyncFw::HttpSocket &gt;</text>
</g>
<!-- Node8 -->
<g id="Node000008" class="node">
<title>Node8</title>
<g id="a_Node000008"><a xlink:href="classAsyncFw_1_1FunctionConnectorProtected.html" target="_top" xlink:title=" ">
<polygon fill="white" stroke="#666666" points="516.12,-182 345.62,-182 345.62,-150 516.12,-150 516.12,-182"/>
<text text-anchor="start" x="353.62" y="-168.5" font-family="Helvetica,sans-Serif" font-size="10.00">AsyncFw::FunctionConnector</text>
<text text-anchor="middle" x="430.88" y="-156.5" font-family="Helvetica,sans-Serif" font-size="10.00">Protected&lt; AsyncFw::PollNotifier &gt;</text>
</a>
</g>
</g>
<!-- Node1&#45;&gt;Node8 -->
<g id="edge7_Node000001_Node000008" class="edge">
<title>Node1&#45;&gt;Node8</title>
<g id="a_edge7_Node000001_Node000008"><a xlink:title=" ">
<path fill="none" stroke="orange" stroke-dasharray="5,2" d="M119.82,-223.3C133.71,-217.66 149.16,-212.02 163.75,-208 223.39,-191.57 292.43,-180.91 345.24,-174.44"/>
<polygon fill="orange" stroke="orange" points="118.82,-219.92 110.93,-226.99 121.51,-226.38 118.82,-219.92"/>
</a>
</g>
<text text-anchor="middle" x="240.25" y="-210.5" font-family="Helvetica,sans-Serif" font-size="10.00" fill="grey"> &lt; AsyncFw::PollNotifier &gt;</text>
</g>
<!-- Node9 -->
<g id="Node000009" class="node">
<title>Node9</title>
<g id="a_Node000009"><a xlink:href="classAsyncFw_1_1FunctionConnectorProtected.html" target="_top" xlink:title=" ">
<polygon fill="white" stroke="#666666" points="503.75,-132 358,-132 358,-100 503.75,-100 503.75,-132"/>
<text text-anchor="start" x="366" y="-118.5" font-family="Helvetica,sans-Serif" font-size="10.00">AsyncFw::FunctionConnector</text>
<text text-anchor="middle" x="430.88" y="-106.5" font-family="Helvetica,sans-Serif" font-size="10.00">Protected&lt; AsyncFw::Rrd &gt;</text>
</a>
</g>
</g>
<!-- Node1&#45;&gt;Node9 -->
<g id="edge8_Node000001_Node000009" class="edge">
<title>Node1&#45;&gt;Node9</title>
<g id="a_edge8_Node000001_Node000009"><a xlink:title=" ">
<path fill="none" stroke="orange" stroke-dasharray="5,2" d="M94.39,-219.15C111.1,-200.65 136.34,-176.38 163.75,-163 224.88,-133.15 302.14,-122.04 357.65,-118.01"/>
<polygon fill="orange" stroke="orange" points="91.86,-216.72 87.9,-226.55 97.13,-221.34 91.86,-216.72"/>
</a>
</g>
<text text-anchor="middle" x="240.25" y="-165.5" font-family="Helvetica,sans-Serif" font-size="10.00" fill="grey"> &lt; AsyncFw::Rrd &gt;</text>
</g>
<!-- Node10 -->
<g id="Node000010" class="node">
<title>Node10</title>
<g id="a_Node000010"><a xlink:href="classAsyncFw_1_1FunctionConnectorProtected.html" target="_top" xlink:title=" ">
<polygon fill="white" stroke="#666666" points="527,-82 334.75,-82 334.75,-50 527,-50 527,-82"/>
<text text-anchor="start" x="342.75" y="-68.5" font-family="Helvetica,sans-Serif" font-size="10.00">AsyncFw::FunctionConnector</text>
<text text-anchor="middle" x="430.88" y="-56.5" font-family="Helvetica,sans-Serif" font-size="10.00">Protected&lt; AsyncFw::SystemProcess &gt;</text>
</a>
</g>
</g>
<!-- Node1&#45;&gt;Node10 -->
<g id="edge9_Node000001_Node000010" class="edge">
<title>Node1&#45;&gt;Node10</title>
<g id="a_edge9_Node000001_Node000010"><a xlink:title=" ">
<path fill="none" stroke="orange" stroke-dasharray="5,2" d="M83.52,-217.34C96.53,-185.51 122.87,-133.29 163.75,-107 214.08,-74.63 280.61,-64.38 334.56,-62.22"/>
<polygon fill="orange" stroke="orange" points="80.42,-215.68 80.03,-226.26 86.93,-218.23 80.42,-215.68"/>
</a>
</g>
<text text-anchor="middle" x="240.25" y="-109.5" font-family="Helvetica,sans-Serif" font-size="10.00" fill="grey"> &lt; AsyncFw::SystemProcess &gt;</text>
</g>
<!-- Node11 -->
<g id="Node000011" class="node">
<title>Node11</title>
<g id="a_Node000011"><a xlink:href="classAsyncFw_1_1FunctionConnectorProtected.html" target="_top" xlink:title=" ">
<polygon fill="white" stroke="#666666" points="504.5,-32 357.25,-32 357.25,0 504.5,0 504.5,-32"/>
<text text-anchor="start" x="365.25" y="-18.5" font-family="Helvetica,sans-Serif" font-size="10.00">AsyncFw::FunctionConnector</text>
<text text-anchor="middle" x="430.88" y="-6.5" font-family="Helvetica,sans-Serif" font-size="10.00">Protected&lt; AsyncFw::Timer &gt;</text>
</a>
</g>
</g>
<!-- Node1&#45;&gt;Node11 -->
<g id="edge10_Node000001_Node000011" class="edge">
<title>Node1&#45;&gt;Node11</title>
<g id="a_edge10_Node000001_Node000011"><a xlink:title=" ">
<path fill="none" stroke="orange" stroke-dasharray="5,2" d="M77.79,-216.46C85.61,-172.68 107.5,-87.96 163.75,-47 219.21,-6.61 299.11,-2.48 356.87,-6.22"/>
<polygon fill="orange" stroke="orange" points="74.37,-215.73 76.19,-226.16 81.27,-216.87 74.37,-215.73"/>
</a>
</g>
<text text-anchor="middle" x="240.25" y="-49.5" font-family="Helvetica,sans-Serif" font-size="10.00" fill="grey"> &lt; AsyncFw::Timer &gt;</text>
</g>
</g>
</svg>
