<?xml version="1.0" encoding="UTF-8" standalone="no"?>
<!DOCTYPE svg PUBLIC "-//W3C//DTD SVG 1.1//EN"
 "http://www.w3.org/Graphics/SVG/1.1/DTD/svg11.dtd">
<!-- Generated by graphviz version 14.1.3 (20260303.0454)
 -->
<!-- Title: AsyncFw::AbstractThread::AbstractThread Pages: 1 -->
<svg width="998pt" height="541pt"
 viewBox="0.00 0.00 998.00 541.00" xmlns="http://www.w3.org/2000/svg" xmlns:xlink="http://www.w3.org/1999/xlink">
<g id="graph0" class="graph" transform="scale(1 1) rotate(0) translate(4 537)">
<title>AsyncFw::AbstractThread::AbstractThread</title>
<!-- Node1 -->
<g id="Node000001" class="node">
<title>Node1</title>
<g id="a_Node000001"><a xlink:title="Constructs a thread.">
<polygon fill="#999999" stroke="#666666" points="990,-242 860,-242 860,-210 990,-210 990,-242"/>
<text xml:space="preserve" text-anchor="start" x="868" y="-228.5" font-family="Helvetica,sans-Serif" font-size="10.00">AsyncFw::AbstractThread</text>
<text xml:space="preserve" text-anchor="middle" x="925" y="-216.5" font-family="Helvetica,sans-Serif" font-size="10.00">::AbstractThread</text>
</a>
</g>
</g>
<!-- Node2 -->
<g id="Node000002" class="node">
<title>Node2</title>
<g id="a_Node000002"><a xlink:href="classAsyncFw_1_1AbstractThread_1_1Waiter.html#af91079f02392dbcccd1ef5f99acb53f7" target="_top" xlink:title="Signals task completion and initiates a safe exit sequence from the sub&#45;loop.">
<polygon fill="white" stroke="#666666" points="824,-308 694,-308 694,-276 824,-276 824,-308"/>
<text xml:space="preserve" text-anchor="start" x="702" y="-294.5" font-family="Helvetica,sans-Serif" font-size="10.00">AsyncFw::AbstractThread</text>
<text xml:space="preserve" text-anchor="middle" x="759" y="-282.5" font-family="Helvetica,sans-Serif" font-size="10.00">::Waiter::complete</text>
</a>
</g>
</g>
<!-- Node1&#45;&gt;Node2 -->
<g id="edge1_Node000001_Node000002" class="edge">
<title>Node1&#45;&gt;Node2</title>
<g id="a_edge1_Node000001_Node000002"><a xlink:title=" ">
<path fill="none" stroke="#63b8ff" d="M874.39,-246.53C858.33,-253.12 840.43,-260.42 824,-267 817.02,-269.79 809.6,-272.72 802.38,-275.56"/>
<polygon fill="#63b8ff" stroke="#63b8ff" points="875.32,-249.93 883.24,-242.89 872.66,-243.46 875.32,-249.93"/>
</a>
</g>
</g>
<!-- Node3 -->
<g id="Node000003" class="node">
<title>Node3</title>
<g id="a_Node000003"><a xlink:href="classAsyncFw_1_1AbstractThread.html#af33c5949edb374d673a7a9ac0c81ec32" target="_top" xlink:title="Returns a pointer to the AsyncFw::AbstractThread that manages the currently executing thread.">
<polygon fill="white" stroke="#666666" points="824,-220 694,-220 694,-188 824,-188 824,-220"/>
<text xml:space="preserve" text-anchor="start" x="702" y="-206.5" font-family="Helvetica,sans-Serif" font-size="10.00">AsyncFw::AbstractThread</text>
<text xml:space="preserve" text-anchor="middle" x="759" y="-194.5" font-family="Helvetica,sans-Serif" font-size="10.00">::current</text>
</a>
</g>
</g>
<!-- Node1&#45;&gt;Node3 -->
<g id="edge2_Node000001_Node000003" class="edge">
<title>Node1&#45;&gt;Node3</title>
<g id="a_edge2_Node000001_Node000003"><a xlink:title=" ">
<path fill="none" stroke="#63b8ff" d="M848.41,-215.86C840.4,-214.78 832.3,-213.7 824.43,-212.64"/>
<polygon fill="#63b8ff" stroke="#63b8ff" points="847.78,-219.31 858.15,-217.17 848.71,-212.37 847.78,-219.31"/>
</a>
</g>
</g>
<!-- Node30 -->
<g id="Node000030" class="node">
<title>Node30</title>
<g id="a_Node000030"><a xlink:href="classAsyncFw_1_1AbstractThread_1_1Waiter.html#ad2a62fc1276d8be1986a7e77f6dfb437" target="_top" xlink:title="Suspends the caller by running a controlled nested exec() loop until completed.">
<polygon fill="white" stroke="#666666" points="648.62,-32 518.62,-32 518.62,0 648.62,0 648.62,-32"/>
<text xml:space="preserve" text-anchor="start" x="526.62" y="-18.5" font-family="Helvetica,sans-Serif" font-size="10.00">AsyncFw::AbstractThread</text>
<text xml:space="preserve" text-anchor="middle" x="583.62" y="-6.5" font-family="Helvetica,sans-Serif" font-size="10.00">::Waiter::wait</text>
</a>
</g>
</g>
<!-- Node1&#45;&gt;Node30 -->
<g id="edge32_Node000001_Node000030" class="edge">
<title>Node1&#45;&gt;Node30</title>
<g id="a_edge32_Node000001_Node000030"><a xlink:title=" ">
<path fill="none" stroke="#63b8ff" d="M895.87,-202.42C849.09,-164.17 751.19,-88.11 658,-41 651.87,-37.9 645.28,-35.05 638.64,-32.46"/>
<polygon fill="#63b8ff" stroke="#63b8ff" points="893.42,-204.94 903.36,-208.59 897.87,-199.53 893.42,-204.94"/>
</a>
</g>
</g>
<!-- Node31 -->
<g id="Node000031" class="node">
<title>Node31</title>
<g id="a_Node000031"><a xlink:href="classAsyncFw_1_1Thread.html#afc5e422090767dd84020381fb9a4d490" target="_top" xlink:title="Constructs a thread.">
<polygon fill="white" stroke="#666666" points="823.62,-258 694.38,-258 694.38,-238 823.62,-238 823.62,-258"/>
<text xml:space="preserve" text-anchor="middle" x="759" y="-244.5" font-family="Helvetica,sans-Serif" font-size="10.00">AsyncFw::Thread::Thread</text>
</a>
</g>
</g>
<!-- Node1&#45;&gt;Node31 -->
<g id="edge30_Node000001_Node000031" class="edge">
<title>Node1&#45;&gt;Node31</title>
<g id="a_edge30_Node000001_Node000031"><a xlink:title=" ">
<path fill="none" stroke="#63b8ff" d="M848.52,-236.13C840.28,-237.23 831.96,-238.35 823.89,-239.43"/>
<polygon fill="#63b8ff" stroke="#63b8ff" points="848.71,-239.63 858.15,-234.83 847.78,-232.69 848.71,-239.63"/>
</a>
</g>
</g>
<!-- Node4 -->
<g id="Node000004" class="node">
<title>Node4</title>
<g id="a_Node000004"><a xlink:href="classAsyncFw_1_1ThreadPool.html#a9919894e586310a7ea5b780845376e17" target="_top" xlink:title="Asynchronously invokes a void function in the target thread, and executes a result callback in the ca...">
<polygon fill="white" stroke="#666666" points="640,-370 527.25,-370 527.25,-338 640,-338 640,-370"/>
<text xml:space="preserve" text-anchor="start" x="535.25" y="-356.5" font-family="Helvetica,sans-Serif" font-size="10.00">AsyncFw::ThreadPool</text>
<text xml:space="preserve" text-anchor="middle" x="583.62" y="-344.5" font-family="Helvetica,sans-Serif" font-size="10.00">::async</text>
</a>
</g>
</g>
<!-- Node3&#45;&gt;Node4 -->
<g id="edge3_Node000003_Node000004" class="edge">
<title>Node3&#45;&gt;Node4</title>
<g id="a_edge3_Node000003_Node000004"><a xlink:title=" ">
<path fill="none" stroke="#63b8ff" d="M695.83,-227.22C695.2,-227.8 694.59,-228.39 694,-229 661.05,-262.85 691.69,-295.89 658,-329 652.91,-334 646.79,-338 640.27,-341.2"/>
<polygon fill="#63b8ff" stroke="#63b8ff" points="697.67,-230.22 703.49,-221.36 693.42,-224.65 697.67,-230.22"/>
</a>
</g>
</g>
<!-- Node5 -->
<g id="Node000005" class="node">
<title>Node5</title>
<g id="a_Node000005"><a xlink:href="classAsyncFw_1_1Thread.html#a0a3bd6a54db28f73ff59cfea6a40b07a" target="_top" xlink:title="Returns a pointer to the AsyncFw::Thread that manages the currently executing thread.">
<polygon fill="white" stroke="#666666" points="648.25,-408 519,-408 519,-388 648.25,-388 648.25,-408"/>
<text xml:space="preserve" text-anchor="middle" x="583.62" y="-394.5" font-family="Helvetica,sans-Serif" font-size="10.00">AsyncFw::Thread::current</text>
</a>
</g>
</g>
<!-- Node3&#45;&gt;Node5 -->
<g id="edge4_Node000003_Node000005" class="edge">
<title>Node3&#45;&gt;Node5</title>
<g id="a_edge4_Node000003_Node000005"><a xlink:title=" ">
<path fill="none" stroke="#63b8ff" d="M695.08,-227.81C694.71,-228.2 694.35,-228.6 694,-229 648.95,-280.68 706.04,-330.09 658,-379 654.68,-382.38 650.84,-385.18 646.7,-387.51"/>
<polygon fill="#63b8ff" stroke="#63b8ff" points="697.19,-230.61 702.54,-221.46 692.65,-225.27 697.19,-230.61"/>
</a>
</g>
</g>
<!-- Node17 -->
<g id="Node000017" class="node">
<title>Node17</title>
<g id="a_Node000017"><a xlink:href="classAsyncFw_1_1HttpServer_1_1Response.html#afa24643371f00fe11d7df0f9caae4134" target="_top" xlink:title="Destroys the response object and cleans up its allocated resources.">
<polygon fill="white" stroke="#666666" points="638.88,-320 528.38,-320 528.38,-288 638.88,-288 638.88,-320"/>
<text xml:space="preserve" text-anchor="start" x="536.38" y="-306.5" font-family="Helvetica,sans-Serif" font-size="10.00">AsyncFw::HttpServer</text>
<text xml:space="preserve" text-anchor="middle" x="583.62" y="-294.5" font-family="Helvetica,sans-Serif" font-size="10.00">::Response::destroy</text>
</a>
</g>
</g>
<!-- Node3&#45;&gt;Node17 -->
<g id="edge16_Node000003_Node000017" class="edge">
<title>Node3&#45;&gt;Node17</title>
<g id="a_edge16_Node000003_Node000017"><a xlink:title=" ">
<path fill="none" stroke="#63b8ff" d="M698.02,-226.09C696.64,-227.03 695.3,-227.99 694,-229 672.36,-245.78 680,-262.7 658,-279 652.27,-283.25 645.77,-286.8 639.06,-289.78"/>
<polygon fill="#63b8ff" stroke="#63b8ff" points="699.45,-229.31 706.25,-221.19 695.87,-223.3 699.45,-229.31"/>
</a>
</g>
</g>
<!-- Node21 -->
<g id="Node000021" class="node">
<title>Node21</title>
<g id="a_Node000021"><a xlink:href="classAsyncFw_1_1HttpServer.html#ad7dae50cc3787112980fa7075a60f811" target="_top" xlink:title="Disconnects a specific client socket and clears it from the internally managed pool.">
<polygon fill="white" stroke="#666666" points="640,-270 527.25,-270 527.25,-238 640,-238 640,-270"/>
<text xml:space="preserve" text-anchor="start" x="535.25" y="-256.5" font-family="Helvetica,sans-Serif" font-size="10.00">AsyncFw::HttpServer</text>
<text xml:space="preserve" text-anchor="middle" x="583.62" y="-244.5" font-family="Helvetica,sans-Serif" font-size="10.00">::disconnectFromHost</text>
</a>
</g>
</g>
<!-- Node3&#45;&gt;Node21 -->
<g id="edge20_Node000003_Node000021" class="edge">
<title>Node3&#45;&gt;Node21</title>
<g id="a_edge20_Node000003_Node000021"><a xlink:title=" ">
<path fill="none" stroke="#63b8ff" d="M690.49,-223.47C673.9,-228.26 656.31,-233.33 640.34,-237.93"/>
<polygon fill="#63b8ff" stroke="#63b8ff" points="691.14,-226.93 699.78,-220.79 689.2,-220.2 691.14,-226.93"/>
</a>
</g>
</g>
<!-- Node24 -->
<g id="Node000024" class="node">
<title>Node24</title>
<g id="a_Node000024"><a xlink:href="classAsyncFw_1_1FileSystemWatcher.html#acd061a60fbaea1bb3c7d020e0da99039" target="_top" xlink:title="Constructs a FileSystemWatcher and optionally starts monitoring given paths.">
<polygon fill="white" stroke="#666666" points="658,-220 509.25,-220 509.25,-188 658,-188 658,-220"/>
<text xml:space="preserve" text-anchor="start" x="517.25" y="-206.5" font-family="Helvetica,sans-Serif" font-size="10.00">AsyncFw::FileSystemWatcher</text>
<text xml:space="preserve" text-anchor="middle" x="583.62" y="-194.5" font-family="Helvetica,sans-Serif" font-size="10.00">::FileSystemWatcher</text>
</a>
</g>
</g>
<!-- Node3&#45;&gt;Node24 -->
<g id="edge23_Node000003_Node000024" class="edge">
<title>Node3&#45;&gt;Node24</title>
<g id="a_edge23_Node000003_Node000024"><a xlink:title=" ">
<path fill="none" stroke="#63b8ff" d="M682.66,-204C674.61,-204 666.42,-204 658.38,-204"/>
<polygon fill="#63b8ff" stroke="#63b8ff" points="682.42,-207.5 692.42,-204 682.42,-200.5 682.42,-207.5"/>
</a>
</g>
</g>
<!-- Node26 -->
<g id="Node000026" class="node">
<title>Node26</title>
<g id="a_Node000026"><a xlink:href="classAsyncFw_1_1MulticastDns.html#ab9bfb41e98cd4ecf1cc63f8acd023afd" target="_top" xlink:title="Initializes the mDNS node with a specific target service type (e.g., &quot;_http._tcp&quot;).">
<polygon fill="white" stroke="#666666" points="644.12,-170 523.12,-170 523.12,-138 644.12,-138 644.12,-170"/>
<text xml:space="preserve" text-anchor="start" x="531.12" y="-156.5" font-family="Helvetica,sans-Serif" font-size="10.00">AsyncFw::MulticastDns</text>
<text xml:space="preserve" text-anchor="middle" x="583.62" y="-144.5" font-family="Helvetica,sans-Serif" font-size="10.00">::MulticastDns</text>
</a>
</g>
</g>
<!-- Node3&#45;&gt;Node26 -->
<g id="edge25_Node000003_Node000026" class="edge">
<title>Node3&#45;&gt;Node26</title>
<g id="a_edge25_Node000003_Node000026"><a xlink:title=" ">
<path fill="none" stroke="#63b8ff" d="M690.31,-184.48C674.27,-179.85 657.33,-174.97 641.82,-170.49"/>
<polygon fill="#63b8ff" stroke="#63b8ff" points="689.2,-187.8 699.78,-187.21 691.14,-181.07 689.2,-187.8"/>
</a>
</g>
</g>
<!-- Node28 -->
<g id="Node000028" class="node">
<title>Node28</title>
<g id="a_Node000028"><a xlink:href="classAsyncFw_1_1Log.html#a6b0ce40bc2e34f4b435894701194dc26" target="_top" xlink:title="Persists log entries into the underlying Rrd buffer and manages automated disk flushing.">
<polygon fill="white" stroke="#666666" points="639.62,-120 527.62,-120 527.62,-100 639.62,-100 639.62,-120"/>
<text xml:space="preserve" text-anchor="middle" x="583.62" y="-106.5" font-family="Helvetica,sans-Serif" font-size="10.00">AsyncFw::Log::output</text>
</a>
</g>
</g>
<!-- Node3&#45;&gt;Node28 -->
<g id="edge27_Node000003_Node000028" class="edge">
<title>Node3&#45;&gt;Node28</title>
<g id="a_edge27_Node000003_Node000028"><a xlink:title=" ">
<path fill="none" stroke="#63b8ff" d="M732.17,-180.12C713,-163.58 685.52,-142.24 658,-129 651,-125.63 643.34,-122.81 635.68,-120.46"/>
<polygon fill="#63b8ff" stroke="#63b8ff" points="729.66,-182.58 739.48,-186.57 734.29,-177.33 729.66,-182.58"/>
</a>
</g>
</g>
<!-- Node29 -->
<g id="Node000029" class="node">
<title>Node29</title>
<g id="a_Node000029"><a xlink:href="classAsyncFw_1_1SystemProcess.html#acf60a585a89304fdb3580e9add06d155" target="_top" xlink:title="Constructs a new SystemProcess manager.">
<polygon fill="white" stroke="#666666" points="650.12,-82 517.12,-82 517.12,-50 650.12,-50 650.12,-82"/>
<text xml:space="preserve" text-anchor="start" x="525.12" y="-68.5" font-family="Helvetica,sans-Serif" font-size="10.00">AsyncFw::SystemProcess</text>
<text xml:space="preserve" text-anchor="middle" x="583.62" y="-56.5" font-family="Helvetica,sans-Serif" font-size="10.00">::SystemProcess</text>
</a>
</g>
</g>
<!-- Node3&#45;&gt;Node29 -->
<g id="edge28_Node000003_Node000029" class="edge">
<title>Node3&#45;&gt;Node29</title>
<g id="a_edge28_Node000003_Node000029"><a xlink:title=" ">
<path fill="none" stroke="#63b8ff" d="M741.3,-178.37C723.48,-152.88 693.04,-114.33 658,-91 653.18,-87.79 647.91,-84.96 642.48,-82.46"/>
<polygon fill="#63b8ff" stroke="#63b8ff" points="738.33,-180.22 746.86,-186.51 744.11,-176.27 738.33,-180.22"/>
</a>
</g>
</g>
<!-- Node3&#45;&gt;Node30 -->
<g id="edge29_Node000003_Node000030" class="edge">
<title>Node3&#45;&gt;Node30</title>
<g id="a_edge29_Node000003_Node000030"><a xlink:title=" ">
<path fill="none" stroke="#63b8ff" d="M741.57,-178.25C728.53,-157.7 709.9,-128.12 694,-102 677.63,-75.11 682.42,-60.87 658,-41 654.03,-37.77 649.63,-34.95 645,-32.49"/>
<polygon fill="#63b8ff" stroke="#63b8ff" points="738.53,-179.99 746.85,-186.55 744.44,-176.24 738.53,-179.99"/>
</a>
</g>
</g>
<!-- Node6 -->
<g id="Node000006" class="node">
<title>Node6</title>
<g id="a_Node000006"><a xlink:href="classAsyncFw_1_1AbstractSocket.html#a94ae146fe8047af98d2dcfd14d20e261" target="_top" xlink:title="Constructs an AbstractSocket with default parameters (AF_INET, SOCK_STREAM, IPPROTO_TCP) and binds it...">
<polygon fill="white" stroke="#666666" points="464.25,-524 333.5,-524 333.5,-492 464.25,-492 464.25,-524"/>
<text xml:space="preserve" text-anchor="start" x="341.5" y="-510.5" font-family="Helvetica,sans-Serif" font-size="10.00">AsyncFw::AbstractSocket</text>
<text xml:space="preserve" text-anchor="middle" x="398.88" y="-498.5" font-family="Helvetica,sans-Serif" font-size="10.00">::AbstractSocket</text>
</a>
</g>
</g>
<!-- Node5&#45;&gt;Node6 -->
<g id="edge5_Node000005_Node000006" class="edge">
<title>Node5&#45;&gt;Node6</title>
<g id="a_edge5_Node000005_Node000006"><a xlink:title=" ">
<path fill="none" stroke="#63b8ff" d="M559.88,-415.15C538.21,-431.1 504.38,-455.05 473.25,-473 461.76,-479.63 448.81,-486.11 437.03,-491.65"/>
<polygon fill="#63b8ff" stroke="#63b8ff" points="561.77,-418.11 567.71,-409.33 557.59,-412.49 561.77,-418.11"/>
</a>
</g>
</g>
<!-- Node8 -->
<g id="Node000008" class="node">
<title>Node8</title>
<g id="a_Node000008"><a xlink:href="classAsyncFw_1_1AbstractSocket.html#a73a200f0008dbf9f820bdb2b8a0054cf" target="_top" xlink:title="Schedules the socket for deferred asynchronous destruction.">
<polygon fill="white" stroke="#666666" points="464.25,-464 333.5,-464 333.5,-432 464.25,-432 464.25,-464"/>
<text xml:space="preserve" text-anchor="start" x="341.5" y="-450.5" font-family="Helvetica,sans-Serif" font-size="10.00">AsyncFw::AbstractSocket</text>
<text xml:space="preserve" text-anchor="middle" x="398.88" y="-438.5" font-family="Helvetica,sans-Serif" font-size="10.00">::destroy</text>
</a>
</g>
</g>
<!-- Node5&#45;&gt;Node8 -->
<g id="edge7_Node000005_Node000008" class="edge">
<title>Node5&#45;&gt;Node8</title>
<g id="a_edge7_Node000005_Node000008"><a xlink:title=" ">
<path fill="none" stroke="#63b8ff" d="M533.29,-411.5C510.74,-417.67 483.81,-425.03 460.08,-431.53"/>
<polygon fill="#63b8ff" stroke="#63b8ff" points="534.13,-414.9 542.85,-408.88 532.29,-408.14 534.13,-414.9"/>
</a>
</g>
</g>
<!-- Node11 -->
<g id="Node000011" class="node">
<title>Node11</title>
<g id="a_Node000011"><a xlink:href="classAsyncFw_1_1Rrd.html#a2fd20dd3470a11ef179577c565c333f1" target="_top" xlink:title="Constructs a persistent circular archive database with physical disk backing.">
<polygon fill="white" stroke="#666666" points="449.25,-395 348.5,-395 348.5,-375 449.25,-375 449.25,-395"/>
<text xml:space="preserve" text-anchor="middle" x="398.88" y="-381.5" font-family="Helvetica,sans-Serif" font-size="10.00">AsyncFw::Rrd::Rrd</text>
</a>
</g>
</g>
<!-- Node5&#45;&gt;Node11 -->
<g id="edge10_Node000005_Node000011" class="edge">
<title>Node5&#45;&gt;Node11</title>
<g id="a_edge10_Node000005_Node000011"><a xlink:title=" ">
<path fill="none" stroke="#63b8ff" d="M507.39,-392.65C487.92,-391.26 467.45,-389.81 449.65,-388.54"/>
<polygon fill="#63b8ff" stroke="#63b8ff" points="506.98,-396.13 517.2,-393.35 507.47,-389.15 506.98,-396.13"/>
</a>
</g>
</g>
<!-- Node7 -->
<g id="Node000007" class="node">
<title>Node7</title>
<g id="a_Node000007"><a xlink:href="classAsyncFw_1_1AbstractSocket.html#ad82c1584c2664dd89cd94cc217974afe" target="_top" xlink:title="Constructs an AbstractSocket and binds it to the current thread context.">
<polygon fill="white" stroke="#666666" points="288.5,-533 157.75,-533 157.75,-501 288.5,-501 288.5,-533"/>
<text xml:space="preserve" text-anchor="start" x="165.75" y="-519.5" font-family="Helvetica,sans-Serif" font-size="10.00">AsyncFw::AbstractSocket</text>
<text xml:space="preserve" text-anchor="middle" x="223.12" y="-507.5" font-family="Helvetica,sans-Serif" font-size="10.00">::AbstractSocket</text>
</a>
</g>
</g>
<!-- Node6&#45;&gt;Node7 -->
<g id="edge6_Node000006_Node000007" class="edge">
<title>Node6&#45;&gt;Node7</title>
<g id="a_edge6_Node000006_Node000007"><a xlink:title=" ">
<path fill="none" stroke="#63b8ff" d="M321.84,-511.94C310.85,-512.51 299.62,-513.09 288.88,-513.65"/>
<polygon fill="#63b8ff" stroke="#63b8ff" points="321.86,-515.44 331.67,-511.43 321.5,-508.45 321.86,-515.44"/>
</a>
</g>
</g>
<!-- Node9 -->
<g id="Node000009" class="node">
<title>Node9</title>
<g id="a_Node000009"><a xlink:href="classAsyncFw_1_1HttpSocket.html#a8268467d3581a4d393e9ccd288de32ff" target="_top" xlink:title="Schedules the socket for deferred asynchronous destruction.">
<polygon fill="white" stroke="#666666" points="279.5,-483 166.75,-483 166.75,-451 279.5,-451 279.5,-483"/>
<text xml:space="preserve" text-anchor="start" x="174.75" y="-469.5" font-family="Helvetica,sans-Serif" font-size="10.00">AsyncFw::HttpSocket</text>
<text xml:space="preserve" text-anchor="middle" x="223.12" y="-457.5" font-family="Helvetica,sans-Serif" font-size="10.00">::destroy</text>
</a>
</g>
</g>
<!-- Node8&#45;&gt;Node9 -->
<g id="edge8_Node000008_Node000009" class="edge">
<title>Node8&#45;&gt;Node9</title>
<g id="a_edge8_Node000008_Node000009"><a xlink:title=" ">
<path fill="none" stroke="#63b8ff" d="M321.92,-456.31C307.74,-457.86 293.17,-459.45 279.75,-460.92"/>
<polygon fill="#63b8ff" stroke="#63b8ff" points="322.11,-459.81 331.67,-455.24 321.35,-452.85 322.11,-459.81"/>
</a>
</g>
</g>
<!-- Node10 -->
<g id="Node000010" class="node">
<title>Node10</title>
<g id="a_Node000010"><a xlink:href="classAsyncFw_1_1HttpServer_1_1TcpSocket.html#a41557b69e30e25b97cbdda210afb7657" target="_top" xlink:title="Constructs a new TcpSocket associated with the parent server.">
<polygon fill="white" stroke="#666666" points="120.62,-483 1.12,-483 1.12,-451 120.62,-451 120.62,-483"/>
<text xml:space="preserve" text-anchor="start" x="9.12" y="-469.5" font-family="Helvetica,sans-Serif" font-size="10.00">AsyncFw::HttpServer</text>
<text xml:space="preserve" text-anchor="middle" x="60.88" y="-457.5" font-family="Helvetica,sans-Serif" font-size="10.00">::TcpSocket::TcpSocket</text>
</a>
</g>
</g>
<!-- Node9&#45;&gt;Node10 -->
<g id="edge9_Node000009_Node000010" class="edge">
<title>Node9&#45;&gt;Node10</title>
<g id="a_edge9_Node000009_Node000010"><a xlink:title=" ">
<path fill="none" stroke="#63b8ff" d="M155.28,-467C143.88,-467 132.1,-467 120.92,-467"/>
<polygon fill="#63b8ff" stroke="#63b8ff" points="155.01,-470.5 165.01,-467 155.01,-463.5 155.01,-470.5"/>
</a>
</g>
</g>
<!-- Node12 -->
<g id="Node000012" class="node">
<title>Node12</title>
<g id="a_Node000012"><a xlink:href="classAsyncFw_1_1Log.html#a832d13f4e9231eee37d8decb5b9b96d7" target="_top" xlink:title="Constructs a persistent log system with a specific circular database size and file name context.">
<polygon fill="white" stroke="#666666" points="273.5,-433 172.75,-433 172.75,-413 273.5,-413 273.5,-433"/>
<text xml:space="preserve" text-anchor="middle" x="223.12" y="-419.5" font-family="Helvetica,sans-Serif" font-size="10.00">AsyncFw::Log::Log</text>
</a>
</g>
</g>
<!-- Node11&#45;&gt;Node12 -->
<g id="edge11_Node000011_Node000012" class="edge">
<title>Node11&#45;&gt;Node12</title>
<g id="a_edge11_Node000011_Node000012"><a xlink:title=" ">
<path fill="none" stroke="#63b8ff" d="M338.81,-397.92C317,-402.69 292.59,-408.03 271.91,-412.55"/>
<polygon fill="#63b8ff" stroke="#63b8ff" points="339.44,-401.36 348.46,-395.81 337.94,-394.53 339.44,-401.36"/>
</a>
</g>
</g>
<!-- Node14 -->
<g id="Node000014" class="node">
<title>Node14</title>
<g id="a_Node000014"><a xlink:href="classAsyncFw_1_1Rrd.html#aa54ae298c96e9efe88b644931b12f734" target="_top" xlink:title="Constructs a minimal in&#45;memory anonymous circular database with default system tracking intervals.">
<polygon fill="white" stroke="#666666" points="273.5,-395 172.75,-395 172.75,-375 273.5,-375 273.5,-395"/>
<text xml:space="preserve" text-anchor="middle" x="223.12" y="-381.5" font-family="Helvetica,sans-Serif" font-size="10.00">AsyncFw::Rrd::Rrd</text>
</a>
</g>
</g>
<!-- Node11&#45;&gt;Node14 -->
<g id="edge13_Node000011_Node000014" class="edge">
<title>Node11&#45;&gt;Node14</title>
<g id="a_edge13_Node000011_Node000014"><a xlink:title=" ">
<path fill="none" stroke="#63b8ff" d="M336.61,-385C316.08,-385 293.46,-385 273.92,-385"/>
<polygon fill="#63b8ff" stroke="#63b8ff" points="336.57,-388.5 346.57,-385 336.57,-381.5 336.57,-388.5"/>
</a>
</g>
</g>
<!-- Node15 -->
<g id="Node000015" class="node">
<title>Node15</title>
<g id="a_Node000015"><a xlink:href="classAsyncFw_1_1Rrd.html#aaea6a63444ab427f801be34f26d930d5" target="_top" xlink:title="Constructs a persistent circular archive database using default system tracking intervals.">
<polygon fill="white" stroke="#666666" points="273.5,-357 172.75,-357 172.75,-337 273.5,-337 273.5,-357"/>
<text xml:space="preserve" text-anchor="middle" x="223.12" y="-343.5" font-family="Helvetica,sans-Serif" font-size="10.00">AsyncFw::Rrd::Rrd</text>
</a>
</g>
</g>
<!-- Node11&#45;&gt;Node15 -->
<g id="edge14_Node000011_Node000015" class="edge">
<title>Node11&#45;&gt;Node15</title>
<g id="a_edge14_Node000011_Node000015"><a xlink:title=" ">
<path fill="none" stroke="#63b8ff" d="M338.81,-372.08C317,-367.31 292.59,-361.97 271.91,-357.45"/>
<polygon fill="#63b8ff" stroke="#63b8ff" points="337.94,-375.47 348.46,-374.19 339.44,-368.64 337.94,-375.47"/>
</a>
</g>
</g>
<!-- Node16 -->
<g id="Node000016" class="node">
<title>Node16</title>
<g id="a_Node000016"><a xlink:href="classAsyncFw_1_1Rrd.html#a98c7829cc6177c80245cf95095deb3ba" target="_top" xlink:title="Constructs an in&#45;memory anonymous circular database without file serialization.">
<polygon fill="white" stroke="#666666" points="273.5,-319 172.75,-319 172.75,-299 273.5,-299 273.5,-319"/>
<text xml:space="preserve" text-anchor="middle" x="223.12" y="-305.5" font-family="Helvetica,sans-Serif" font-size="10.00">AsyncFw::Rrd::Rrd</text>
</a>
</g>
</g>
<!-- Node11&#45;&gt;Node16 -->
<g id="edge15_Node000011_Node000016" class="edge">
<title>Node11&#45;&gt;Node16</title>
<g id="a_edge15_Node000011_Node000016"><a xlink:title=" ">
<path fill="none" stroke="#63b8ff" d="M358.5,-370.29C347.27,-365.58 335.19,-360.01 324.5,-354 307.3,-344.32 306.22,-336.7 288.5,-328 281.81,-324.71 274.43,-321.88 267.14,-319.49"/>
<polygon fill="#63b8ff" stroke="#63b8ff" points="356.96,-373.44 367.54,-373.96 359.59,-366.95 356.96,-373.44"/>
</a>
</g>
</g>
<!-- Node13 -->
<g id="Node000013" class="node">
<title>Node13</title>
<g id="a_Node000013"><a xlink:href="classAsyncFw_1_1Log.html#a00e9a20e7303e9a24403046af176b6b2" target="_top" xlink:title="Global service locator shortcut to fetch the current engine&#45;wide default log pointer.">
<polygon fill="white" stroke="#666666" points="121.75,-433 0,-433 0,-413 121.75,-413 121.75,-433"/>
<text xml:space="preserve" text-anchor="middle" x="60.88" y="-419.5" font-family="Helvetica,sans-Serif" font-size="10.00">AsyncFw::Log::instance</text>
</a>
</g>
</g>
<!-- Node12&#45;&gt;Node13 -->
<g id="edge12_Node000012_Node000013" class="edge">
<title>Node12&#45;&gt;Node13</title>
<g id="a_edge12_Node000012_Node000013"><a xlink:title=" ">
<path fill="none" stroke="#63b8ff" d="M160.86,-423C148.15,-423 134.76,-423 122.09,-423"/>
<polygon fill="#63b8ff" stroke="#63b8ff" points="160.79,-426.5 170.79,-423 160.79,-419.5 160.79,-426.5"/>
</a>
</g>
</g>
<!-- Node18 -->
<g id="Node000018" class="node">
<title>Node18</title>
<g id="a_Node000018"><a xlink:href="classAsyncFw_1_1HttpServer_1_1Response.html#a52925841696f5351ff43b46530c18390" target="_top" xlink:title="Finalizes and sends the response over the network via the associated socket.">
<polygon fill="white" stroke="#666666" points="454.12,-345 343.62,-345 343.62,-313 454.12,-313 454.12,-345"/>
<text xml:space="preserve" text-anchor="start" x="351.62" y="-331.5" font-family="Helvetica,sans-Serif" font-size="10.00">AsyncFw::HttpServer</text>
<text xml:space="preserve" text-anchor="middle" x="398.88" y="-319.5" font-family="Helvetica,sans-Serif" font-size="10.00">::Response::send</text>
</a>
</g>
</g>
<!-- Node17&#45;&gt;Node18 -->
<g id="edge17_Node000017_Node000018" class="edge">
<title>Node17&#45;&gt;Node18</title>
<g id="a_edge17_Node000017_Node000018"><a xlink:title=" ">
<path fill="none" stroke="#63b8ff" d="M517.08,-312.97C496.51,-315.78 474.04,-318.85 454.32,-321.55"/>
<polygon fill="#63b8ff" stroke="#63b8ff" points="517.36,-316.46 526.79,-311.64 516.41,-309.53 517.36,-316.46"/>
</a>
</g>
</g>
<!-- Node19 -->
<g id="Node000019" class="node">
<title>Node19</title>
<g id="a_Node000019"><a xlink:href="classAsyncFw_1_1HttpServer.html#a522928fa8bf3b13b706ac997d4f100dd" target="_top" xlink:title="Constructs the HTTP server instance.">
<polygon fill="white" stroke="#666666" points="278.38,-281 167.88,-281 167.88,-249 278.38,-249 278.38,-281"/>
<text xml:space="preserve" text-anchor="start" x="175.88" y="-267.5" font-family="Helvetica,sans-Serif" font-size="10.00">AsyncFw::HttpServer</text>
<text xml:space="preserve" text-anchor="middle" x="223.12" y="-255.5" font-family="Helvetica,sans-Serif" font-size="10.00">::HttpServer</text>
</a>
</g>
</g>
<!-- Node18&#45;&gt;Node19 -->
<g id="edge18_Node000018_Node000019" class="edge">
<title>Node18&#45;&gt;Node19</title>
<g id="a_edge18_Node000018_Node000019"><a xlink:title=" ">
<path fill="none" stroke="#63b8ff" d="M338.08,-308.86C333.48,-307.24 328.91,-305.61 324.5,-304 308.37,-298.12 304.5,-296.22 288.5,-290 281.35,-287.22 273.75,-284.27 266.37,-281.4"/>
<polygon fill="#63b8ff" stroke="#63b8ff" points="336.81,-312.13 347.4,-312.11 339.11,-305.52 336.81,-312.13"/>
</a>
</g>
</g>
<!-- Node20 -->
<g id="Node000020" class="node">
<title>Node20</title>
<g id="a_Node000020"><a xlink:href="classAsyncFw_1_1HttpServer.html#ad52f34791fe5848d9ba891b209fcdbe0" target="_top" xlink:title="Accessor to fetch the globally managed singleton instance reference of the active HttpServer.">
<polygon fill="white" stroke="#666666" points="116.12,-281 5.62,-281 5.62,-249 116.12,-249 116.12,-281"/>
<text xml:space="preserve" text-anchor="start" x="13.62" y="-267.5" font-family="Helvetica,sans-Serif" font-size="10.00">AsyncFw::HttpServer</text>
<text xml:space="preserve" text-anchor="middle" x="60.88" y="-255.5" font-family="Helvetica,sans-Serif" font-size="10.00">::instance</text>
</a>
</g>
</g>
<!-- Node19&#45;&gt;Node20 -->
<g id="edge19_Node000019_Node000020" class="edge">
<title>Node19&#45;&gt;Node20</title>
<g id="a_edge19_Node000019_Node000020"><a xlink:title=" ">
<path fill="none" stroke="#63b8ff" d="M156.06,-265C142.94,-265 129.3,-265 116.6,-265"/>
<polygon fill="#63b8ff" stroke="#63b8ff" points="155.91,-268.5 165.91,-265 155.91,-261.5 155.91,-268.5"/>
</a>
</g>
</g>
<!-- Node22 -->
<g id="Node000022" class="node">
<title>Node22</title>
<g id="a_Node000022"><a xlink:href="classAsyncFw_1_1HttpServer.html#ad3761260dfd18899afc22c6f4bc0c556" target="_top" xlink:title="Forcefully terminates all active socket connections currently retained by the server.">
<polygon fill="white" stroke="#666666" points="454.12,-295 343.62,-295 343.62,-263 454.12,-263 454.12,-295"/>
<text xml:space="preserve" text-anchor="start" x="351.62" y="-281.5" font-family="Helvetica,sans-Serif" font-size="10.00">AsyncFw::HttpServer</text>
<text xml:space="preserve" text-anchor="middle" x="398.88" y="-269.5" font-family="Helvetica,sans-Serif" font-size="10.00">::clearConnections</text>
</a>
</g>
</g>
<!-- Node21&#45;&gt;Node22 -->
<g id="edge21_Node000021_Node000022" class="edge">
<title>Node21&#45;&gt;Node22</title>
<g id="a_edge21_Node000021_Node000022"><a xlink:title=" ">
<path fill="none" stroke="#63b8ff" d="M515.51,-263.18C495.41,-265.93 473.61,-268.91 454.42,-271.54"/>
<polygon fill="#63b8ff" stroke="#63b8ff" points="515.87,-266.66 525.3,-261.84 514.92,-259.73 515.87,-266.66"/>
</a>
</g>
</g>
<!-- Node23 -->
<g id="Node000023" class="node">
<title>Node23</title>
<g id="a_Node000023"><a xlink:href="classAsyncFw_1_1HttpServer.html#ab3eeb1643d4482345afcd9f971c020ac" target="_top" xlink:title="Explicitly severs connections with active sockets holding custom user metadata matching data.">
<polygon fill="white" stroke="#666666" points="454.12,-245 343.62,-245 343.62,-213 454.12,-213 454.12,-245"/>
<text xml:space="preserve" text-anchor="start" x="351.62" y="-231.5" font-family="Helvetica,sans-Serif" font-size="10.00">AsyncFw::HttpServer</text>
<text xml:space="preserve" text-anchor="middle" x="398.88" y="-219.5" font-family="Helvetica,sans-Serif" font-size="10.00">::clearConnections</text>
</a>
</g>
</g>
<!-- Node21&#45;&gt;Node23 -->
<g id="edge22_Node000021_Node000023" class="edge">
<title>Node21&#45;&gt;Node23</title>
<g id="a_edge22_Node000021_Node000023"><a xlink:title=" ">
<path fill="none" stroke="#63b8ff" d="M515.51,-244.82C495.41,-242.07 473.61,-239.09 454.42,-236.46"/>
<polygon fill="#63b8ff" stroke="#63b8ff" points="514.92,-248.27 525.3,-246.16 515.87,-241.34 514.92,-248.27"/>
</a>
</g>
</g>
<!-- Node25 -->
<g id="Node000025" class="node">
<title>Node25</title>
<g id="a_Node000025"><a xlink:href="classAsyncFw_1_1FileSystemWatcher.html#a16b4210d215a3b340c98f650d2071114" target="_top" xlink:title="Retrieves the global instance pointer of the active FileSystemWatcher.">
<polygon fill="white" stroke="#666666" points="473.25,-195 324.5,-195 324.5,-163 473.25,-163 473.25,-195"/>
<text xml:space="preserve" text-anchor="start" x="332.5" y="-181.5" font-family="Helvetica,sans-Serif" font-size="10.00">AsyncFw::FileSystemWatcher</text>
<text xml:space="preserve" text-anchor="middle" x="398.88" y="-169.5" font-family="Helvetica,sans-Serif" font-size="10.00">::instance</text>
</a>
</g>
</g>
<!-- Node24&#45;&gt;Node25 -->
<g id="edge24_Node000024_Node000025" class="edge">
<title>Node24&#45;&gt;Node25</title>
<g id="a_edge24_Node000024_Node000025"><a xlink:title=" ">
<path fill="none" stroke="#63b8ff" d="M497.59,-192.37C489.59,-191.27 481.54,-190.17 473.66,-189.09"/>
<polygon fill="#63b8ff" stroke="#63b8ff" points="496.94,-195.81 507.32,-193.7 497.89,-188.88 496.94,-195.81"/>
</a>
</g>
</g>
<!-- Node27 -->
<g id="Node000027" class="node">
<title>Node27</title>
<g id="a_Node000027"><a xlink:href="classAsyncFw_1_1MulticastDns.html#a61341fa78536e7a787bbbce75116ef3e" target="_top" xlink:title="Returns the global default instance pointer.">
<polygon fill="white" stroke="#666666" points="459.38,-145 338.38,-145 338.38,-113 459.38,-113 459.38,-145"/>
<text xml:space="preserve" text-anchor="start" x="346.38" y="-131.5" font-family="Helvetica,sans-Serif" font-size="10.00">AsyncFw::MulticastDns</text>
<text xml:space="preserve" text-anchor="middle" x="398.88" y="-119.5" font-family="Helvetica,sans-Serif" font-size="10.00">::instance</text>
</a>
</g>
</g>
<!-- Node26&#45;&gt;Node27 -->
<g id="edge26_Node000026_Node000027" class="edge">
<title>Node26&#45;&gt;Node27</title>
<g id="a_edge26_Node000026_Node000027"><a xlink:title=" ">
<path fill="none" stroke="#63b8ff" d="M511.7,-144.3C494.57,-141.95 476.42,-139.47 459.85,-137.2"/>
<polygon fill="#63b8ff" stroke="#63b8ff" points="510.9,-147.72 521.29,-145.61 511.85,-140.79 510.9,-147.72"/>
</a>
</g>
</g>
<!-- Node31&#45;&gt;Node5 -->
<g id="edge31_Node000031_Node000005" class="edge">
<title>Node31&#45;&gt;Node5</title>
<g id="a_edge31_Node000031_Node000005"><a xlink:title=" ">
<path fill="none" stroke="#63b8ff" d="M696.36,-264.85C695.55,-265.54 694.76,-266.26 694,-267 656.62,-303.56 696.02,-343.11 658,-379 654.36,-382.43 650.19,-385.26 645.72,-387.6"/>
<polygon fill="#63b8ff" stroke="#63b8ff" points="698.26,-267.8 704.64,-259.34 694.38,-261.97 698.26,-267.8"/>
</a>
</g>
</g>
</g>
</svg>
