<?xml version="1.0" encoding="UTF-8" standalone="no"?>
<!DOCTYPE svg PUBLIC "-//W3C//DTD SVG 1.1//EN"
 "http://www.w3.org/Graphics/SVG/1.1/DTD/svg11.dtd">
<!-- Generated by graphviz version 14.1.3 (20260303.0454)
 -->
<!-- Title: AsyncFw::DataArrayTcpServer Pages: 1 -->
<svg width="930pt" height="159pt"
 viewBox="0.00 0.00 930.00 159.00" xmlns="http://www.w3.org/2000/svg" xmlns:xlink="http://www.w3.org/1999/xlink">
<g id="graph0" class="graph" transform="scale(1 1) rotate(0) translate(4 154.82)">
<title>AsyncFw::DataArrayTcpServer</title>
<!-- Node1 -->
<g id="Node000001" class="node">
<title>Node1</title>
<g id="a_Node000001"><a xlink:title="An asynchronous TCP server class managing client connections and TLS security. Inherits from DataArra...">
<polygon fill="#999999" stroke="#666666" points="922.25,-76 771.25,-76 771.25,-56 922.25,-56 922.25,-76"/>
<text xml:space="preserve" text-anchor="middle" x="846.75" y="-62.5" font-family="Helvetica,sans-Serif" font-size="10.00">AsyncFw::DataArrayTcpServer</text>
</a>
</g>
</g>
<!-- Node2 -->
<g id="Node000002" class="node">
<title>Node2</title>
<g id="a_Node000002"><a xlink:href="classAsyncFw_1_1DataArrayAbstractTcp.html" target="_top" xlink:title="Abstract base class implementing a multi&#45;threaded TCP pool for socket and packet management.">
<polygon fill="white" stroke="#666666" points="734.25,-76 575,-76 575,-56 734.25,-56 734.25,-76"/>
<text xml:space="preserve" text-anchor="middle" x="654.62" y="-62.5" font-family="Helvetica,sans-Serif" font-size="10.00">AsyncFw::DataArrayAbstractTcp</text>
</a>
</g>
</g>
<!-- Node2&#45;&gt;Node1 -->
<g id="edge1_Node000001_Node000002" class="edge">
<title>Node2&#45;&gt;Node1</title>
<g id="a_edge1_Node000001_Node000002"><a xlink:title=" ">
<path fill="none" stroke="#63b8ff" d="M745.97,-66C754.34,-66 762.77,-66 770.98,-66"/>
<polygon fill="#63b8ff" stroke="#63b8ff" points="746.12,-62.5 736.12,-66 746.12,-69.5 746.12,-62.5"/>
</a>
</g>
</g>
<!-- Node3 -->
<g id="Node000003" class="node">
<title>Node3</title>
<g id="a_Node000003"><a xlink:href="classAsyncFw_1_1AbstractThreadPool.html" target="_top" xlink:title="Abstract base class for creating and managing thread pools.">
<polygon fill="white" stroke="#666666" points="476,-140 326.5,-140 326.5,-120 476,-120 476,-140"/>
<text xml:space="preserve" text-anchor="middle" x="401.25" y="-126.5" font-family="Helvetica,sans-Serif" font-size="10.00">AsyncFw::AbstractThreadPool</text>
</a>
</g>
</g>
<!-- Node3&#45;&gt;Node2 -->
<g id="edge2_Node000002_Node000003" class="edge">
<title>Node3&#45;&gt;Node2</title>
<g id="a_edge2_Node000002_Node000003"><a xlink:title=" ">
<path fill="none" stroke="#63b8ff" d="M454.35,-116.73C501.38,-104.76 569.62,-87.39 612.79,-76.4"/>
<polygon fill="#63b8ff" stroke="#63b8ff" points="453.77,-113.27 444.94,-119.13 455.5,-120.05 453.77,-113.27"/>
</a>
</g>
</g>
<!-- Node4 -->
<g id="Node000004" class="node">
<title>Node4</title>
<g id="a_Node000004"><a xlink:href="classAsyncFw_1_1AbstractThread.html" target="_top" xlink:title="The AbstractThread class provides the base functionality for thread management.">
<polygon fill="white" stroke="#666666" points="137.88,-144 7.88,-144 7.88,-124 137.88,-124 137.88,-144"/>
<text xml:space="preserve" text-anchor="middle" x="72.88" y="-130.5" font-family="Helvetica,sans-Serif" font-size="10.00">AsyncFw::AbstractThread</text>
</a>
</g>
</g>
<!-- Node4&#45;&gt;Node3 -->
<g id="edge3_Node000003_Node000004" class="edge">
<title>Node4&#45;&gt;Node3</title>
<g id="a_edge3_Node000003_Node000004"><a xlink:title=" ">
<path fill="none" stroke="#9a32cd" stroke-dasharray="5,2" d="M149.75,-133.07C202.88,-132.42 273.49,-131.55 326.21,-130.91"/>
<polygon fill="#9a32cd" stroke="#9a32cd" points="149.83,-129.57 139.87,-133.19 149.91,-136.57 149.83,-129.57"/>
</a>
</g>
<text xml:space="preserve" text-anchor="start" x="214" y="-138.07" font-family="Helvetica,sans-Serif" font-size="10.00" fill="grey">thread_</text>
</g>
<!-- Node5 -->
<g id="Node000005" class="node">
<title>Node5</title>
<g id="a_Node000005"><a xlink:href="classAsyncFw_1_1FunctionConnector.html" target="_top" xlink:title=" ">
<polygon fill="white" stroke="#666666" points="488,-94 314.5,-94 314.5,-38 488,-38 488,-94"/>
<text xml:space="preserve" text-anchor="start" x="322.5" y="-80.5" font-family="Helvetica,sans-Serif" font-size="10.00">AsyncFw::FunctionConnector</text>
<text xml:space="preserve" text-anchor="start" x="322.5" y="-68.5" font-family="Helvetica,sans-Serif" font-size="10.00">&lt; const AsyncFw::DataArraySocket</text>
<text xml:space="preserve" text-anchor="start" x="322.5" y="-56.5" font-family="Helvetica,sans-Serif" font-size="10.00"> *, const AsyncFw::DataArray</text>
<text xml:space="preserve" text-anchor="middle" x="401.25" y="-44.5" font-family="Helvetica,sans-Serif" font-size="10.00"> *, uint32_t &gt;</text>
</a>
</g>
</g>
<!-- Node5&#45;&gt;Node2 -->
<g id="edge4_Node000002_Node000005" class="edge">
<title>Node5&#45;&gt;Node2</title>
<g id="a_edge4_Node000002_Node000005"><a xlink:title=" ">
<path fill="none" stroke="#9a32cd" stroke-dasharray="5,2" d="M499.7,-66C524.56,-66 550.96,-66 574.76,-66"/>
<polygon fill="#9a32cd" stroke="#9a32cd" points="499.92,-62.5 489.92,-66 499.92,-69.5 499.92,-62.5"/>
</a>
</g>
<text xml:space="preserve" text-anchor="start" x="513.12" y="-71.25" font-family="Helvetica,sans-Serif" font-size="10.00" fill="grey">received</text>
</g>
<!-- Node6 -->
<g id="Node000006" class="node">
<title>Node6</title>
<g id="a_Node000006"><a xlink:href="classAsyncFw_1_1FunctionConnector.html" target="_top" xlink:title="Provides a thread&#45;safe, publisher&#45;subscriber mechanism to establish sender&#45;to&#45;receivers connections.">
<polygon fill="white" stroke="#666666" points="145.75,-77 0,-77 0,-45 145.75,-45 145.75,-77"/>
<text xml:space="preserve" text-anchor="start" x="8" y="-63.5" font-family="Helvetica,sans-Serif" font-size="10.00">AsyncFw::FunctionConnector</text>
<text xml:space="preserve" text-anchor="middle" x="72.88" y="-51.5" font-family="Helvetica,sans-Serif" font-size="10.00">&lt; Args &gt;</text>
</a>
</g>
</g>
<!-- Node6&#45;&gt;Node5 -->
<g id="edge5_Node000005_Node000006" class="edge">
<title>Node6&#45;&gt;Node5</title>
<g id="a_edge5_Node000005_Node000006"><a xlink:title=" ">
<path fill="none" stroke="orange" stroke-dasharray="5,2" d="M157.22,-62.28C205.31,-63.01 265.68,-63.94 314.22,-64.68"/>
<polygon fill="orange" stroke="orange" points="157.47,-58.78 147.42,-62.13 157.36,-65.78 157.47,-58.78"/>
</a>
</g>
<text xml:space="preserve" text-anchor="start" x="166.75" y="-101.63" font-family="Helvetica,sans-Serif" font-size="10.00" fill="grey">&lt; const AsyncFw::DataArray</text>
<text xml:space="preserve" text-anchor="start" x="166.75" y="-85.63" font-family="Helvetica,sans-Serif" font-size="10.00" fill="grey">  Socket *, const AsyncFw</text>
<text xml:space="preserve" text-anchor="start" x="166.75" y="-69.63" font-family="Helvetica,sans-Serif" font-size="10.00" fill="grey">  ::DataArray *, uint32_t &gt;</text>
</g>
<!-- Node7 -->
<g id="Node000007" class="node">
<title>Node7</title>
<g id="a_Node000007"><a xlink:href="classAsyncFw_1_1TlsContext.html" target="_top" xlink:title="Manages cryptographic configurations, security profiles, credentials, and certificates for TLS sessio...">
<polygon fill="white" stroke="#666666" points="456.88,-20 345.62,-20 345.62,0 456.88,0 456.88,-20"/>
<text xml:space="preserve" text-anchor="middle" x="401.25" y="-6.5" font-family="Helvetica,sans-Serif" font-size="10.00">AsyncFw::TlsContext</text>
</a>
</g>
</g>
<!-- Node7&#45;&gt;Node2 -->
<g id="edge6_Node000002_Node000007" class="edge">
<title>Node7&#45;&gt;Node2</title>
<g id="a_edge6_Node000002_Node000007"><a xlink:title=" ">
<path fill="none" stroke="#9a32cd" stroke-dasharray="5,2" d="M461.49,-22.91C490.32,-29.21 525.48,-36.95 557,-44 573.62,-47.72 591.84,-51.85 607.93,-55.52"/>
<polygon fill="#9a32cd" stroke="#9a32cd" points="462.36,-19.51 451.85,-20.8 460.87,-26.35 462.36,-19.51"/>
</a>
</g>
<text xml:space="preserve" text-anchor="start" x="509" y="-49.25" font-family="Helvetica,sans-Serif" font-size="10.00" fill="grey">tlsContext</text>
</g>
</g>
</svg>
