<?xml version="1.0" encoding="UTF-8" standalone="no"?>
<!DOCTYPE svg PUBLIC "-//W3C//DTD SVG 1.1//EN"
 "http://www.w3.org/Graphics/SVG/1.1/DTD/svg11.dtd">
<!-- Generated by graphviz version 14.1.3 (20260303.0454)
 -->
<!-- Title: AsyncFw::SystemProcess Pages: 1 -->
<svg width="657pt" height="92pt"
 viewBox="0.00 0.00 657.00 92.00" xmlns="http://www.w3.org/2000/svg" xmlns:xlink="http://www.w3.org/1999/xlink">
<g id="graph0" class="graph" transform="scale(1 1) rotate(0) translate(4 88)">
<title>AsyncFw::SystemProcess</title>
<!-- Node1 -->
<g id="Node000001" class="node">
<title>Node1</title>
<g id="a_Node000001"><a xlink:title="Manages spawning and asynchronous communication with external processes.">
<polygon fill="#999999" stroke="#666666" points="648.75,-52 515.75,-52 515.75,-32 648.75,-32 648.75,-52"/>
<text xml:space="preserve" text-anchor="middle" x="582.25" y="-38.5" font-family="Helvetica,sans-Serif" font-size="10.00">AsyncFw::SystemProcess</text>
</a>
</g>
</g>
<!-- Node2 -->
<g id="Node000002" class="node">
<title>Node2</title>
<g id="a_Node000002"><a xlink:href="classAsyncFw_1_1FunctionConnector.html" target="_top" xlink:title=" ">
<polygon fill="white" stroke="#666666" points="413,-84 267.25,-84 267.25,-52 413,-52 413,-84"/>
<text xml:space="preserve" text-anchor="start" x="275.25" y="-70.5" font-family="Helvetica,sans-Serif" font-size="10.00">AsyncFw::FunctionConnector</text>
<text xml:space="preserve" text-anchor="middle" x="340.12" y="-58.5" font-family="Helvetica,sans-Serif" font-size="10.00">&lt; State &gt;</text>
</a>
</g>
</g>
<!-- Node2&#45;&gt;Node1 -->
<g id="edge1_Node000001_Node000002" class="edge">
<title>Node2&#45;&gt;Node1</title>
<g id="a_edge1_Node000001_Node000002"><a xlink:title=" ">
<path fill="none" stroke="#9a32cd" stroke-dasharray="5,2" d="M424.72,-58.95C454.48,-55.73 487.53,-52.15 515.57,-49.11"/>
<polygon fill="#9a32cd" stroke="#9a32cd" points="424.57,-55.44 415,-60 425.32,-62.4 424.57,-55.44"/>
</a>
</g>
<text xml:space="preserve" text-anchor="start" x="434" y="-63.34" font-family="Helvetica,sans-Serif" font-size="10.00" fill="grey">stateChanged</text>
</g>
<!-- Node3 -->
<g id="Node000003" class="node">
<title>Node3</title>
<g id="a_Node000003"><a xlink:href="classAsyncFw_1_1FunctionConnector.html" target="_top" xlink:title="Provides a thread&#45;safe, publisher&#45;subscriber mechanism to establish sender&#45;to&#45;receivers connections.">
<polygon fill="white" stroke="#666666" points="145.75,-57 0,-57 0,-25 145.75,-25 145.75,-57"/>
<text xml:space="preserve" text-anchor="start" x="8" y="-43.5" font-family="Helvetica,sans-Serif" font-size="10.00">AsyncFw::FunctionConnector</text>
<text xml:space="preserve" text-anchor="middle" x="72.88" y="-31.5" font-family="Helvetica,sans-Serif" font-size="10.00">&lt; Args &gt;</text>
</a>
</g>
</g>
<!-- Node3&#45;&gt;Node2 -->
<g id="edge2_Node000002_Node000003" class="edge">
<title>Node3&#45;&gt;Node2</title>
<g id="a_edge2_Node000002_Node000003"><a xlink:title=" ">
<path fill="none" stroke="orange" stroke-dasharray="5,2" d="M157.24,-49.49C192.46,-53.07 233.1,-57.21 267.01,-60.66"/>
<polygon fill="orange" stroke="orange" points="157.81,-46.03 147.51,-48.5 157.11,-52.99 157.81,-46.03"/>
</a>
</g>
<text xml:space="preserve" text-anchor="start" x="185.88" y="-63.75" font-family="Helvetica,sans-Serif" font-size="10.00" fill="grey">&lt; State &gt;</text>
</g>
<!-- Node4 -->
<g id="Node000004" class="node">
<title>Node4</title>
<g id="a_Node000004"><a xlink:href="classAsyncFw_1_1FunctionConnector.html" target="_top" xlink:title=" ">
<polygon fill="white" stroke="#666666" points="413,-32 267.25,-32 267.25,0 413,0 413,-32"/>
<text xml:space="preserve" text-anchor="start" x="275.25" y="-18.5" font-family="Helvetica,sans-Serif" font-size="10.00">AsyncFw::FunctionConnector</text>
<text xml:space="preserve" text-anchor="middle" x="340.12" y="-6.5" font-family="Helvetica,sans-Serif" font-size="10.00">&lt; const std::string &amp;, bool &gt;</text>
</a>
</g>
</g>
<!-- Node3&#45;&gt;Node4 -->
<g id="edge4_Node000004_Node000003" class="edge">
<title>Node3&#45;&gt;Node4</title>
<g id="a_edge4_Node000004_Node000003"><a xlink:title=" ">
<path fill="none" stroke="orange" stroke-dasharray="5,2" d="M129.88,-21.44C140.97,-18.35 152.63,-15.63 163.75,-14 197.49,-9.04 235.28,-8.8 267.11,-10.11"/>
<polygon fill="orange" stroke="orange" points="129.07,-18.03 120.46,-24.21 131.05,-24.75 129.07,-18.03"/>
</a>
</g>
<text xml:space="preserve" text-anchor="start" x="166.75" y="-35.25" font-family="Helvetica,sans-Serif" font-size="10.00" fill="grey">&lt; const std::string</text>
<text xml:space="preserve" text-anchor="start" x="166.75" y="-19.25" font-family="Helvetica,sans-Serif" font-size="10.00" fill="grey">   &amp;, bool &gt;</text>
</g>
<!-- Node4&#45;&gt;Node1 -->
<g id="edge3_Node000001_Node000004" class="edge">
<title>Node4&#45;&gt;Node1</title>
<g id="a_edge3_Node000001_Node000004"><a xlink:title=" ">
<path fill="none" stroke="#9a32cd" stroke-dasharray="5,2" d="M424.78,-21.83C448.41,-23.78 474.12,-26.18 497.75,-29 504.01,-29.75 510.53,-30.61 517.04,-31.53"/>
<polygon fill="#9a32cd" stroke="#9a32cd" points="425.12,-18.34 414.87,-21.03 424.56,-25.32 425.12,-18.34"/>
</a>
</g>
<text xml:space="preserve" text-anchor="start" x="450.88" y="-34.25" font-family="Helvetica,sans-Serif" font-size="10.00" fill="grey">output</text>
</g>
</g>
</svg>
