<?xml version="1.0" encoding="UTF-8" standalone="no"?>
<!DOCTYPE svg PUBLIC "-//W3C//DTD SVG 1.1//EN"
 "http://www.w3.org/Graphics/SVG/1.1/DTD/svg11.dtd">
<!-- Generated by graphviz version 12.2.1 (20241206.2353)
 -->
<!-- Title: AsyncFw::AbstractInstance Pages: 1 -->
<svg width="656pt" height="371pt"
 viewBox="0.00 0.00 656.25 371.00" xmlns="http://www.w3.org/2000/svg" xmlns:xlink="http://www.w3.org/1999/xlink">
<g id="graph0" class="graph" transform="scale(1 1) rotate(0) translate(4 367)">
<title>AsyncFw::AbstractInstance</title>
<!-- Node1 -->
<g id="Node000001" class="node">
<title>Node1</title>
<g id="a_Node000001"><a xlink:title="The AbstractInstance class.">
<polygon fill="#999999" stroke="#666666" points="137.5,-192 0,-192 0,-172 137.5,-172 137.5,-192"/>
<text text-anchor="middle" x="68.75" y="-178.5" font-family="Helvetica,sans-Serif" font-size="10.00">AsyncFw::AbstractInstance</text>
</a>
</g>
</g>
<!-- Node2 -->
<g id="Node000002" class="node">
<title>Node2</title>
<g id="a_Node000002"><a xlink:href="classAsyncFw_1_1Instance.html" target="_top" xlink:title=" ">
<polygon fill="white" stroke="#666666" points="621.62,-226 514.88,-226 514.88,-194 621.62,-194 621.62,-226"/>
<text text-anchor="start" x="522.88" y="-212.5" font-family="Helvetica,sans-Serif" font-size="10.00">AsyncFw::Instance&lt;</text>
<text text-anchor="middle" x="568.25" y="-200.5" font-family="Helvetica,sans-Serif" font-size="10.00"> Log &gt;</text>
</a>
</g>
</g>
<!-- Node1&#45;&gt;Node2 -->
<g id="edge1_Node000001_Node000002" class="edge">
<title>Node1&#45;&gt;Node2</title>
<g id="a_edge1_Node000001_Node000002"><a xlink:title=" ">
<path fill="none" stroke="#63b8ff" d="M105.6,-196.35C175.78,-222.58 336.16,-273.33 470.25,-248 492.47,-243.8 516.11,-234.65 534.5,-226.37"/>
<polygon fill="#63b8ff" stroke="#63b8ff" points="107.13,-193.19 96.54,-192.9 104.64,-199.73 107.13,-193.19"/>
</a>
</g>
</g>
<!-- Node3 -->
<g id="Node000003" class="node">
<title>Node3</title>
<g id="a_Node000003"><a xlink:href="classAsyncFw_1_1Instance.html" target="_top" xlink:title=" ">
<polygon fill="white" stroke="#666666" points="645.25,-301 491.25,-301 491.25,-269 645.25,-269 645.25,-301"/>
<text text-anchor="start" x="499.25" y="-287.5" font-family="Helvetica,sans-Serif" font-size="10.00">AsyncFw::Instance&lt;</text>
<text text-anchor="middle" x="568.25" y="-275.5" font-family="Helvetica,sans-Serif" font-size="10.00"> AsyncFw::ApplicationNotifier &gt;</text>
</a>
</g>
</g>
<!-- Node1&#45;&gt;Node3 -->
<g id="edge2_Node000001_Node000003" class="edge">
<title>Node1&#45;&gt;Node3</title>
<g id="a_edge2_Node000001_Node000003"><a xlink:title=" ">
<path fill="none" stroke="#63b8ff" d="M92.82,-199.22C134.79,-229.22 227.57,-289.64 317.25,-308 383.87,-321.64 402.71,-315.9 470.25,-308 482.37,-306.58 495.17,-304.2 507.36,-301.5"/>
<polygon fill="#63b8ff" stroke="#63b8ff" points="94.89,-196.39 84.74,-193.34 90.77,-202.05 94.89,-196.39"/>
</a>
</g>
</g>
<!-- Node4 -->
<g id="Node000004" class="node">
<title>Node4</title>
<g id="a_Node000004"><a xlink:href="classAsyncFw_1_1Instance.html" target="_top" xlink:title=" ">
<polygon fill="white" stroke="#666666" points="648.25,-363 488.25,-363 488.25,-331 648.25,-331 648.25,-363"/>
<text text-anchor="start" x="496.25" y="-349.5" font-family="Helvetica,sans-Serif" font-size="10.00">AsyncFw::Instance&lt;</text>
<text text-anchor="middle" x="568.25" y="-337.5" font-family="Helvetica,sans-Serif" font-size="10.00"> AsyncFw::FileSystemWatcher &gt;</text>
</a>
</g>
</g>
<!-- Node1&#45;&gt;Node4 -->
<g id="edge3_Node000001_Node000004" class="edge">
<title>Node1&#45;&gt;Node4</title>
<g id="a_edge3_Node000001_Node000004"><a xlink:title=" ">
<path fill="none" stroke="#63b8ff" d="M82.86,-201.58C100.62,-226.52 134.72,-269.12 174.5,-292 271.79,-347.94 404.41,-354.94 487.93,-352.65"/>
<polygon fill="#63b8ff" stroke="#63b8ff" points="85.91,-199.84 77.34,-193.62 80.16,-203.83 85.91,-199.84"/>
</a>
</g>
</g>
<!-- Node5 -->
<g id="Node000005" class="node">
<title>Node5</title>
<g id="a_Node000005"><a xlink:href="classAsyncFw_1_1Instance.html" target="_top" xlink:title=" ">
<polygon fill="white" stroke="#666666" points="629.12,-170 507.38,-170 507.38,-138 629.12,-138 629.12,-170"/>
<text text-anchor="start" x="515.38" y="-156.5" font-family="Helvetica,sans-Serif" font-size="10.00">AsyncFw::Instance&lt;</text>
<text text-anchor="middle" x="568.25" y="-144.5" font-family="Helvetica,sans-Serif" font-size="10.00"> AsyncFw::HttpServer &gt;</text>
</a>
</g>
</g>
<!-- Node1&#45;&gt;Node5 -->
<g id="edge4_Node000001_Node000005" class="edge">
<title>Node1&#45;&gt;Node5</title>
<g id="a_edge4_Node000001_Node000005"><a xlink:title=" ">
<path fill="none" stroke="#63b8ff" d="M103.11,-167.41C171.99,-139.19 334.84,-82.33 470.25,-111 483.05,-113.71 511.49,-126.64 534.29,-137.62"/>
<polygon fill="#63b8ff" stroke="#63b8ff" points="102.16,-164.01 94.28,-171.09 104.85,-170.47 102.16,-164.01"/>
</a>
</g>
</g>
<!-- Node6 -->
<g id="Node000006" class="node">
<title>Node6</title>
<g id="a_Node000006"><a xlink:href="classAsyncFw_1_1Instance.html" target="_top" xlink:title=" ">
<polygon fill="white" stroke="#666666" points="634.38,-107 502.12,-107 502.12,-75 634.38,-75 634.38,-107"/>
<text text-anchor="start" x="510.12" y="-93.5" font-family="Helvetica,sans-Serif" font-size="10.00">AsyncFw::Instance&lt;</text>
<text text-anchor="middle" x="568.25" y="-81.5" font-family="Helvetica,sans-Serif" font-size="10.00"> AsyncFw::MulticastDns &gt;</text>
</a>
</g>
</g>
<!-- Node1&#45;&gt;Node6 -->
<g id="edge5_Node000001_Node000006" class="edge">
<title>Node1&#45;&gt;Node6</title>
<g id="a_edge5_Node000001_Node000006"><a xlink:title=" ">
<path fill="none" stroke="#63b8ff" d="M90.74,-164.58C111.19,-148.21 143.62,-123.77 174.5,-107 234.39,-74.47 250.29,-63.67 317.25,-51 384.07,-38.36 403.55,-37.79 470.25,-51 493.3,-55.57 517.75,-65.69 536.34,-74.61"/>
<polygon fill="#63b8ff" stroke="#63b8ff" points="88.71,-161.72 83.16,-170.74 93.13,-167.15 88.71,-161.72"/>
</a>
</g>
</g>
<!-- Node7 -->
<g id="Node000007" class="node">
<title>Node7</title>
<g id="a_Node000007"><a xlink:href="classAsyncFw_1_1Instance.html" target="_top" xlink:title=" ">
<polygon fill="white" stroke="#666666" points="630.25,-32 506.25,-32 506.25,0 630.25,0 630.25,-32"/>
<text text-anchor="start" x="514.25" y="-18.5" font-family="Helvetica,sans-Serif" font-size="10.00">AsyncFw::Instance&lt;</text>
<text text-anchor="middle" x="568.25" y="-6.5" font-family="Helvetica,sans-Serif" font-size="10.00"> AsyncFw::ThreadPool &gt;</text>
</a>
</g>
</g>
<!-- Node1&#45;&gt;Node7 -->
<g id="edge6_Node000001_Node000007" class="edge">
<title>Node1&#45;&gt;Node7</title>
<g id="a_edge6_Node000001_Node000007"><a xlink:title=" ">
<path fill="none" stroke="#63b8ff" d="M79.33,-161.71C94.71,-131.69 127.97,-76.24 174.5,-51 279.8,6.12 424.67,1.5 505.8,-7.14"/>
<polygon fill="#63b8ff" stroke="#63b8ff" points="76.27,-159.99 74.99,-170.51 82.55,-163.09 76.27,-159.99"/>
</a>
</g>
</g>
<!-- Node8 -->
<g id="Node000008" class="node">
<title>Node8</title>
<g id="a_Node000008"><a xlink:href="classAsyncFw_1_1Instance.html" target="_top" xlink:title="The Instance class.">
<polygon fill="white" stroke="#666666" points="299.25,-192 174.5,-192 174.5,-172 299.25,-172 299.25,-192"/>
<text text-anchor="middle" x="236.88" y="-178.5" font-family="Helvetica,sans-Serif" font-size="10.00">AsyncFw::Instance&lt; T &gt;</text>
</a>
</g>
</g>
<!-- Node1&#45;&gt;Node8 -->
<g id="edge7_Node000001_Node000008" class="edge">
<title>Node1&#45;&gt;Node8</title>
<g id="a_edge7_Node000001_Node000008"><a xlink:title=" ">
<path fill="none" stroke="#63b8ff" d="M149.15,-182C157.52,-182 165.94,-182 174.07,-182"/>
<polygon fill="#63b8ff" stroke="#63b8ff" points="149.31,-178.5 139.31,-182 149.31,-185.5 149.31,-178.5"/>
</a>
</g>
</g>
<!-- Node8&#45;&gt;Node2 -->
<g id="edge8_Node000008_Node000002" class="edge">
<title>Node8&#45;&gt;Node2</title>
<g id="a_edge8_Node000008_Node000002"><a xlink:title=" ">
<path fill="none" stroke="orange" stroke-dasharray="5,2" d="M310.85,-187.76C356.64,-191.43 416.91,-196.34 470.25,-201 484.57,-202.25 500.08,-203.66 514.4,-204.99"/>
<polygon fill="orange" stroke="orange" points="311.29,-184.29 301.05,-186.98 310.73,-191.26 311.29,-184.29"/>
</a>
</g>
<text text-anchor="middle" x="393.75" y="-203.5" font-family="Helvetica,sans-Serif" font-size="10.00" fill="grey"> &lt; Log &gt;</text>
</g>
<!-- Node8&#45;&gt;Node3 -->
<g id="edge9_Node000008_Node000003" class="edge">
<title>Node8&#45;&gt;Node3</title>
<g id="a_edge9_Node000008_Node000003"><a xlink:title=" ">
<path fill="none" stroke="orange" stroke-dasharray="5,2" d="M273.12,-196.57C286.8,-202.01 302.65,-208.06 317.25,-213 380.14,-234.29 453.24,-254.87 504.08,-268.53"/>
<polygon fill="orange" stroke="orange" points="274.67,-193.42 264.09,-192.93 272.06,-199.91 274.67,-193.42"/>
</a>
</g>
<text text-anchor="middle" x="393.75" y="-260.4" font-family="Helvetica,sans-Serif" font-size="10.00" fill="grey"> &lt; AsyncFw::ApplicationNotifier &gt;</text>
</g>
<!-- Node8&#45;&gt;Node4 -->
<g id="edge10_Node000008_Node000004" class="edge">
<title>Node8&#45;&gt;Node4</title>
<g id="a_edge10_Node000008_Node000004"><a xlink:title=" ">
<path fill="none" stroke="orange" stroke-dasharray="5,2" d="M250.2,-201.84C264.06,-222.54 288.42,-254.5 317.25,-273 368.96,-306.19 436.13,-324.99 487.82,-335.33"/>
<polygon fill="orange" stroke="orange" points="253.31,-200.2 244.93,-193.71 247.43,-204 253.31,-200.2"/>
</a>
</g>
<text text-anchor="middle" x="393.75" y="-333.26" font-family="Helvetica,sans-Serif" font-size="10.00" fill="grey"> &lt; AsyncFw::FileSystemWatcher &gt;</text>
</g>
<!-- Node8&#45;&gt;Node5 -->
<g id="edge11_Node000008_Node000005" class="edge">
<title>Node8&#45;&gt;Node5</title>
<g id="a_edge11_Node000008_Node000005"><a xlink:title=" ">
<path fill="none" stroke="orange" stroke-dasharray="5,2" d="M310.64,-173.64C312.87,-173.42 315.08,-173.21 317.25,-173 382.03,-166.87 456.41,-161.42 507.08,-157.94"/>
<polygon fill="orange" stroke="orange" points="310.48,-170.14 300.89,-174.64 311.2,-177.1 310.48,-170.14"/>
</a>
</g>
<text text-anchor="middle" x="393.75" y="-175.5" font-family="Helvetica,sans-Serif" font-size="10.00" fill="grey"> &lt; AsyncFw::HttpServer &gt;</text>
</g>
<!-- Node8&#45;&gt;Node6 -->
<g id="edge12_Node000008_Node000006" class="edge">
<title>Node8&#45;&gt;Node6</title>
<g id="a_edge12_Node000008_Node000006"><a xlink:title=" ">
<path fill="none" stroke="orange" stroke-dasharray="5,2" d="M266.97,-166.53C281.72,-159.18 300.09,-150.77 317.25,-145 378.38,-124.44 450.62,-109.83 501.69,-101.03"/>
<polygon fill="orange" stroke="orange" points="265.62,-163.29 258.3,-170.94 268.8,-169.52 265.62,-163.29"/>
</a>
</g>
<text text-anchor="middle" x="393.75" y="-147.5" font-family="Helvetica,sans-Serif" font-size="10.00" fill="grey"> &lt; AsyncFw::MulticastDns &gt;</text>
</g>
<!-- Node8&#45;&gt;Node7 -->
<g id="edge13_Node000008_Node000007" class="edge">
<title>Node8&#45;&gt;Node7</title>
<g id="a_edge13_Node000008_Node000007"><a xlink:title=" ">
<path fill="none" stroke="orange" stroke-dasharray="5,2" d="M250.47,-162.14C264.42,-141.7 288.75,-110.33 317.25,-92 375.34,-54.64 452.76,-34.83 505.97,-24.92"/>
<polygon fill="orange" stroke="orange" points="247.58,-160.17 244.99,-170.44 253.42,-164.02 247.58,-160.17"/>
</a>
</g>
<text text-anchor="middle" x="393.75" y="-94.5" font-family="Helvetica,sans-Serif" font-size="10.00" fill="grey"> &lt; AsyncFw::ThreadPool &gt;</text>
</g>
</g>
</svg>
