<?xml version="1.0" encoding="UTF-8" standalone="no"?>
<!DOCTYPE svg PUBLIC "-//W3C//DTD SVG 1.1//EN"
 "http://www.w3.org/Graphics/SVG/1.1/DTD/svg11.dtd">
<!-- Generated by graphviz version 12.2.1 (20241206.2353)
 -->
<!-- Title: AsyncFw::ThreadPool Pages: 1 -->
<svg width="158pt" height="153pt"
 viewBox="0.00 0.00 157.50 153.00" xmlns="http://www.w3.org/2000/svg" xmlns:xlink="http://www.w3.org/1999/xlink">
<g id="graph0" class="graph" transform="scale(1 1) rotate(0) translate(4 149)">
<title>AsyncFw::ThreadPool</title>
<!-- Node1 -->
<g id="Node000001" class="node">
<title>Node1</title>
<g id="a_Node000001"><a xlink:title="Управляет набором многократно используемых рабочих потоков для параллельного выполнения задач,...">
<polygon fill="#999999" stroke="#666666" points="131.12,-20 18.38,-20 18.38,0 131.12,0 131.12,-20"/>
<text text-anchor="middle" x="74.75" y="-6.5" font-family="Helvetica,sans-Serif" font-size="10.00">AsyncFw::ThreadPool</text>
</a>
</g>
</g>
<!-- Node2 -->
<g id="Node000002" class="node">
<title>Node2</title>
<g id="a_Node000002"><a xlink:href="classAsyncFw_1_1AbstractThreadPool.html" target="_top" xlink:title="Абстрактный класс для создания пулов управления потоками.">
<polygon fill="white" stroke="#666666" points="149.5,-77 0,-77 0,-57 149.5,-57 149.5,-77"/>
<text text-anchor="middle" x="74.75" y="-63.5" font-family="Helvetica,sans-Serif" font-size="10.00">AsyncFw::AbstractThreadPool</text>
</a>
</g>
</g>
<!-- Node2&#45;&gt;Node1 -->
<g id="edge1_Node000001_Node000002" class="edge">
<title>Node2&#45;&gt;Node1</title>
<g id="a_edge1_Node000001_Node000002"><a xlink:title=" ">
<path fill="none" stroke="#63b8ff" d="M74.75,-45.69C74.75,-36.97 74.75,-27.22 74.75,-20.28"/>
<polygon fill="#63b8ff" stroke="#63b8ff" points="71.25,-45.4 74.75,-55.4 78.25,-45.4 71.25,-45.4"/>
</a>
</g>
</g>
<!-- Node3 -->
<g id="Node000003" class="node">
<title>Node3</title>
<g id="a_Node000003"><a xlink:href="classAsyncFw_1_1AbstractThread.html" target="_top" xlink:title="The AbstractThread class provides the base functionality for thread management.">
<polygon fill="white" stroke="#666666" points="139.75,-145 9.75,-145 9.75,-125 139.75,-125 139.75,-145"/>
<text text-anchor="middle" x="74.75" y="-131.5" font-family="Helvetica,sans-Serif" font-size="10.00">AsyncFw::AbstractThread</text>
</a>
</g>
</g>
<!-- Node3&#45;&gt;Node2 -->
<g id="edge2_Node000002_Node000003" class="edge">
<title>Node3&#45;&gt;Node2</title>
<g id="a_edge2_Node000002_Node000003"><a xlink:title=" ">
<path fill="none" stroke="#9a32cd" stroke-dasharray="5,2" d="M74.75,-113.28C74.75,-101.27 74.75,-86.74 74.75,-77.44"/>
<polygon fill="#9a32cd" stroke="#9a32cd" points="71.25,-113.03 74.75,-123.03 78.25,-113.03 71.25,-113.03"/>
</a>
</g>
<text text-anchor="middle" x="92.38" y="-97.5" font-family="Helvetica,sans-Serif" font-size="10.00" fill="grey"> thread_</text>
</g>
</g>
</svg>
