<?xml version="1.0" encoding="UTF-8" standalone="no"?>
<!DOCTYPE svg PUBLIC "-//W3C//DTD SVG 1.1//EN"
 "http://www.w3.org/Graphics/SVG/1.1/DTD/svg11.dtd">
<!-- Generated by graphviz version 12.2.1 (20241206.2353)
 -->
<!-- Title: AsyncFw::Rrd::Rrd Pages: 1 -->
<svg width="606pt" height="115pt"
 viewBox="0.00 0.00 606.00 115.00" xmlns="http://www.w3.org/2000/svg" xmlns:xlink="http://www.w3.org/1999/xlink">
<g id="graph0" class="graph" transform="scale(1 1) rotate(0) translate(4 111)">
<title>AsyncFw::Rrd::Rrd</title>
<!-- Node1 -->
<g id="Node000001" class="node">
<title>Node1</title>
<g id="a_Node000001"><a xlink:title="Constructs a persistent circular archive database with physical disk backing.">
<polygon fill="#999999" stroke="#666666" points="100.75,-39 0,-39 0,-19 100.75,-19 100.75,-39"/>
<text text-anchor="middle" x="50.38" y="-25.5" font-family="Helvetica,sans-Serif" font-size="10.00">AsyncFw::Rrd::Rrd</text>
</a>
</g>
</g>
<!-- Node2 -->
<g id="Node000002" class="node">
<title>Node2</title>
<g id="a_Node000002"><a xlink:href="classAsyncFw_1_1Thread.html#a0a3bd6a54db28f73ff59cfea6a40b07a" target="_top" xlink:title="Returns a pointer to the AsyncFw::Thread that manages the currently executing thread.">
<polygon fill="white" stroke="#666666" points="266,-58 136.75,-58 136.75,-38 266,-38 266,-58"/>
<text text-anchor="middle" x="201.38" y="-44.5" font-family="Helvetica,sans-Serif" font-size="10.00">AsyncFw::Thread::current</text>
</a>
</g>
</g>
<!-- Node1&#45;&gt;Node2 -->
<g id="edge1_Node000001_Node000002" class="edge">
<title>Node1&#45;&gt;Node2</title>
<g id="a_edge1_Node000001_Node000002"><a xlink:title=" ">
<path fill="none" stroke="#63b8ff" d="M100.99,-35.33C108.79,-36.32 117,-37.37 125.22,-38.42"/>
<polygon fill="#63b8ff" stroke="#63b8ff" points="124.53,-41.86 134.9,-39.65 125.42,-34.91 124.53,-41.86"/>
</a>
</g>
</g>
<!-- Node7 -->
<g id="Node000007" class="node">
<title>Node7</title>
<g id="a_Node000007"><a xlink:href="classAsyncFw_1_1Rrd.html#a330145de892c6f5e916d7dda15aeedfc" target="_top" xlink:title="Returns the absolute maximum capability size (total slots) configured for this circular ring buffer l...">
<polygon fill="white" stroke="#666666" points="252.88,-20 149.88,-20 149.88,0 252.88,0 252.88,-20"/>
<text text-anchor="middle" x="201.38" y="-6.5" font-family="Helvetica,sans-Serif" font-size="10.00">AsyncFw::Rrd::size</text>
</a>
</g>
</g>
<!-- Node1&#45;&gt;Node7 -->
<g id="edge9_Node000001_Node000007" class="edge">
<title>Node1&#45;&gt;Node7</title>
<g id="a_edge9_Node000001_Node000007"><a xlink:title=" ">
<path fill="none" stroke="#63b8ff" d="M100.99,-22.67C112.92,-21.15 125.8,-19.51 138.22,-17.93"/>
<polygon fill="#63b8ff" stroke="#63b8ff" points="138.47,-21.42 147.95,-16.69 137.59,-14.48 138.47,-21.42"/>
</a>
</g>
</g>
<!-- Node3 -->
<g id="Node000003" class="node">
<title>Node3</title>
<g id="a_Node000003"><a xlink:href="classAsyncFw_1_1AbstractThread.html#a09cdd1972b9416a7ddb2a1921f36938c" target="_top" xlink:title="Returns a pointer to the AsyncFw::AbstractThread that manages the currently executing thread.">
<polygon fill="white" stroke="#666666" points="432,-95 302,-95 302,-63 432,-63 432,-95"/>
<text text-anchor="start" x="310" y="-81.5" font-family="Helvetica,sans-Serif" font-size="10.00">AsyncFw::AbstractThread</text>
<text text-anchor="middle" x="367" y="-69.5" font-family="Helvetica,sans-Serif" font-size="10.00">::current</text>
</a>
</g>
</g>
<!-- Node2&#45;&gt;Node3 -->
<g id="edge2_Node000002_Node000003" class="edge">
<title>Node2&#45;&gt;Node3</title>
<g id="a_edge2_Node000002_Node000003"><a xlink:title=" ">
<path fill="none" stroke="#63b8ff" d="M257.77,-58.5C268.34,-60.5 279.57,-62.62 290.64,-64.72"/>
<polygon fill="#63b8ff" stroke="#63b8ff" points="289.66,-68.1 300.14,-66.52 290.96,-61.22 289.66,-68.1"/>
</a>
</g>
</g>
<!-- Node5 -->
<g id="Node000005" class="node">
<title>Node5</title>
<g id="a_Node000005"><a xlink:href="classAsyncFw_1_1Thread.html#afc5e422090767dd84020381fb9a4d490" target="_top" xlink:title="Constructs a thread.">
<polygon fill="white" stroke="#666666" points="431.62,-27 302.38,-27 302.38,-7 431.62,-7 431.62,-27"/>
<text text-anchor="middle" x="367" y="-13.5" font-family="Helvetica,sans-Serif" font-size="10.00">AsyncFw::Thread::Thread</text>
</a>
</g>
</g>
<!-- Node2&#45;&gt;Node5 -->
<g id="edge5_Node000002_Node000005" class="edge">
<title>Node2&#45;&gt;Node5</title>
<g id="a_edge5_Node000002_Node000005"><a xlink:title=" ">
<path fill="none" stroke="#63b8ff" d="M257.77,-37.5C271.23,-34.95 285.76,-32.2 299.67,-29.57"/>
<polygon fill="#63b8ff" stroke="#63b8ff" points="300,-33.07 309.17,-27.77 298.7,-26.19 300,-33.07"/>
</a>
</g>
</g>
<!-- Node4 -->
<g id="Node000004" class="node">
<title>Node4</title>
<g id="a_Node000004"><a xlink:href="classAsyncFw_1_1AbstractThread.html#ac8be1c406c4235ff1dabc1cdb4ac04ba" target="_top" xlink:title="Constructs a thread.">
<polygon fill="white" stroke="#666666" points="598,-89 468,-89 468,-57 598,-57 598,-89"/>
<text text-anchor="start" x="476" y="-75.5" font-family="Helvetica,sans-Serif" font-size="10.00">AsyncFw::AbstractThread</text>
<text text-anchor="middle" x="533" y="-63.5" font-family="Helvetica,sans-Serif" font-size="10.00">::AbstractThread</text>
</a>
</g>
</g>
<!-- Node3&#45;&gt;Node4 -->
<g id="edge3_Node000003_Node000004" class="edge">
<title>Node3&#45;&gt;Node4</title>
<g id="a_edge3_Node000003_Node000004"><a xlink:title=" ">
<path fill="none" stroke="#63b8ff" d="M432.35,-76.65C440.21,-76.36 448.31,-76.06 456.33,-75.77"/>
<polygon fill="#63b8ff" stroke="#63b8ff" points="456.19,-79.28 466.06,-75.41 455.94,-72.28 456.19,-79.28"/>
</a>
</g>
</g>
<!-- Node4&#45;&gt;Node4 -->
<g id="edge4_Node000004_Node000004" class="edge">
<title>Node4&#45;&gt;Node4</title>
<g id="a_edge4_Node000004_Node000004"><a xlink:title=" ">
<path fill="none" stroke="#63b8ff" d="M503.36,-89.44C497.83,-98.58 507.71,-107 533,-107 546.83,-107 556.05,-104.48 560.66,-100.71"/>
<polygon fill="#63b8ff" stroke="#63b8ff" points="564.1,-101.39 562.37,-90.93 557.2,-100.18 564.1,-101.39"/>
</a>
</g>
</g>
<!-- Node5&#45;&gt;Node4 -->
<g id="edge6_Node000005_Node000004" class="edge">
<title>Node5&#45;&gt;Node4</title>
<g id="a_edge6_Node000005_Node000004"><a xlink:title=" ">
<path fill="none" stroke="#63b8ff" d="M398.46,-27.4C419.46,-34.57 448.03,-44.33 473.35,-52.97"/>
<polygon fill="#63b8ff" stroke="#63b8ff" points="471.95,-56.19 482.55,-56.11 474.21,-49.57 471.95,-56.19"/>
</a>
</g>
</g>
<!-- Node5&#45;&gt;Node5 -->
<g id="edge8_Node000005_Node000005" class="edge">
<title>Node5&#45;&gt;Node5</title>
<g id="a_edge8_Node000005_Node000005"><a xlink:title=" ">
<path fill="none" stroke="#63b8ff" d="M340.68,-27.34C329.44,-35.98 338.21,-45 367,-45 382.74,-45 392.5,-42.3 396.27,-38.44"/>
<polygon fill="#63b8ff" stroke="#63b8ff" points="399.66,-37.56 393.71,-28.8 392.9,-39.37 399.66,-37.56"/>
</a>
</g>
</g>
<!-- Node6 -->
<g id="Node000006" class="node">
<title>Node6</title>
<g id="a_Node000006"><a xlink:href="classAsyncFw_1_1AbstractThread.html#a8ebcc00d7ecbc1f9a2cc0c44d52ee071" target="_top" xlink:title="Returns name of managed thread.">
<polygon fill="white" stroke="#666666" points="598,-33 468,-33 468,-1 598,-1 598,-33"/>
<text text-anchor="start" x="476" y="-19.5" font-family="Helvetica,sans-Serif" font-size="10.00">AsyncFw::AbstractThread</text>
<text text-anchor="middle" x="533" y="-7.5" font-family="Helvetica,sans-Serif" font-size="10.00">::name</text>
</a>
</g>
</g>
<!-- Node5&#45;&gt;Node6 -->
<g id="edge7_Node000005_Node000006" class="edge">
<title>Node5&#45;&gt;Node6</title>
<g id="a_edge7_Node000005_Node000006"><a xlink:title=" ">
<path fill="none" stroke="#63b8ff" d="M431.88,-17C439.88,-17 448.14,-17 456.3,-17"/>
<polygon fill="#63b8ff" stroke="#63b8ff" points="456.24,-20.5 466.24,-17 456.24,-13.5 456.24,-20.5"/>
</a>
</g>
</g>
</g>
</svg>
