<?xml version="1.0" encoding="UTF-8" standalone="no"?>
<!DOCTYPE svg PUBLIC "-//W3C//DTD SVG 1.1//EN"
 "http://www.w3.org/Graphics/SVG/1.1/DTD/svg11.dtd">
<!-- Generated by graphviz version 14.1.3 (20260303.0454)
 -->
<!-- Title: AsyncFw::AbstractTlsSocket::connect Pages: 1 -->
<svg width="486pt" height="190pt"
 viewBox="0.00 0.00 486.00 190.00" xmlns="http://www.w3.org/2000/svg" xmlns:xlink="http://www.w3.org/1999/xlink">
<g id="graph0" class="graph" transform="scale(1 1) rotate(0) translate(4 186)">
<title>AsyncFw::AbstractTlsSocket::connect</title>
<!-- Node1 -->
<g id="Node000001" class="node">
<title>Node1</title>
<g id="a_Node000001"><a xlink:title="Initiates an asynchronous connection to a remote host.">
<polygon fill="#999999" stroke="#666666" points="144.25,-101 0,-101 0,-69 144.25,-69 144.25,-101"/>
<text xml:space="preserve" text-anchor="start" x="8" y="-87.5" font-family="Helvetica,sans-Serif" font-size="10.00">AsyncFw::AbstractTlsSocket</text>
<text xml:space="preserve" text-anchor="middle" x="72.12" y="-75.5" font-family="Helvetica,sans-Serif" font-size="10.00">::connect</text>
</a>
</g>
</g>
<!-- Node2 -->
<g id="Node000002" class="node">
<title>Node2</title>
<g id="a_Node000002"><a xlink:href="classAsyncFw_1_1AbstractSocket.html#a3dd69e137ca3cf50f90607c17bbdc312" target="_top" xlink:title="Return address.">
<polygon fill="white" stroke="#666666" points="477.75,-182 347,-182 347,-150 477.75,-150 477.75,-182"/>
<text xml:space="preserve" text-anchor="start" x="355" y="-168.5" font-family="Helvetica,sans-Serif" font-size="10.00">AsyncFw::AbstractSocket</text>
<text xml:space="preserve" text-anchor="middle" x="412.38" y="-156.5" font-family="Helvetica,sans-Serif" font-size="10.00">::address</text>
</a>
</g>
</g>
<!-- Node1&#45;&gt;Node2 -->
<g id="edge1_Node000001_Node000002" class="edge">
<title>Node1&#45;&gt;Node2</title>
<g id="a_edge1_Node000001_Node000002"><a xlink:title=" ">
<path fill="none" stroke="#63b8ff" d="M108.16,-101.33C128.76,-110.35 155.54,-121.1 180.25,-128 231.16,-142.22 289.96,-151.79 335.51,-157.78"/>
<polygon fill="#63b8ff" stroke="#63b8ff" points="334.92,-161.23 345.29,-159.03 335.81,-154.29 334.92,-161.23"/>
</a>
</g>
</g>
<!-- Node3 -->
<g id="Node000003" class="node">
<title>Node3</title>
<g id="a_Node000003"><a xlink:href="classAsyncFw_1_1AbstractSocket.html#ac4b8765d203b4d4bc77d9d6e00d5dd85" target="_top" xlink:title="Initiates an asynchronous connection to a remote host.">
<polygon fill="white" stroke="#666666" points="311,-101 180.25,-101 180.25,-69 311,-69 311,-101"/>
<text xml:space="preserve" text-anchor="start" x="188.25" y="-87.5" font-family="Helvetica,sans-Serif" font-size="10.00">AsyncFw::AbstractSocket</text>
<text xml:space="preserve" text-anchor="middle" x="245.62" y="-75.5" font-family="Helvetica,sans-Serif" font-size="10.00">::connect</text>
</a>
</g>
</g>
<!-- Node1&#45;&gt;Node3 -->
<g id="edge2_Node000001_Node000003" class="edge">
<title>Node1&#45;&gt;Node3</title>
<g id="a_edge2_Node000001_Node000003"><a xlink:title=" ">
<path fill="none" stroke="#63b8ff" d="M144.37,-85C152.37,-85 160.55,-85 168.62,-85"/>
<polygon fill="#63b8ff" stroke="#63b8ff" points="168.4,-88.5 178.4,-85 168.4,-81.5 168.4,-88.5"/>
</a>
</g>
</g>
<!-- Node6 -->
<g id="Node000006" class="node">
<title>Node6</title>
<g id="a_Node000006"><a xlink:href="classAsyncFw_1_1AbstractSocket.html#aa29d033332c09e341d159b2189c774e9" target="_top" xlink:title="Return port.">
<polygon fill="white" stroke="#666666" points="477.75,-32 347,-32 347,0 477.75,0 477.75,-32"/>
<text xml:space="preserve" text-anchor="start" x="355" y="-18.5" font-family="Helvetica,sans-Serif" font-size="10.00">AsyncFw::AbstractSocket</text>
<text xml:space="preserve" text-anchor="middle" x="412.38" y="-6.5" font-family="Helvetica,sans-Serif" font-size="10.00">::port</text>
</a>
</g>
</g>
<!-- Node1&#45;&gt;Node6 -->
<g id="edge8_Node000001_Node000006" class="edge">
<title>Node1&#45;&gt;Node6</title>
<g id="a_edge8_Node000001_Node000006"><a xlink:title=" ">
<path fill="none" stroke="#63b8ff" d="M141.9,-68.51C154.63,-65.58 167.83,-62.63 180.25,-60 232.01,-49.04 290.56,-37.91 335.78,-29.58"/>
<polygon fill="#63b8ff" stroke="#63b8ff" points="336.28,-33.05 345.48,-27.8 335.02,-26.16 336.28,-33.05"/>
</a>
</g>
</g>
<!-- Node3&#45;&gt;Node2 -->
<g id="edge3_Node000003_Node000002" class="edge">
<title>Node3&#45;&gt;Node2</title>
<g id="a_edge3_Node000003_Node000002"><a xlink:title=" ">
<path fill="none" stroke="#63b8ff" d="M273.78,-101.5C293.68,-113.25 321.54,-129.02 347,-141 350.05,-142.43 353.2,-143.85 356.4,-145.25"/>
<polygon fill="#63b8ff" stroke="#63b8ff" points="354.74,-148.34 365.31,-148.99 357.45,-141.89 354.74,-148.34"/>
</a>
</g>
</g>
<!-- Node3&#45;&gt;Node3 -->
<g id="edge4_Node000003_Node000003" class="edge">
<title>Node3&#45;&gt;Node3</title>
<g id="a_edge4_Node000003_Node000003"><a xlink:title=" ">
<path fill="none" stroke="#63b8ff" d="M215.86,-101.44C210.3,-110.58 220.22,-119 245.62,-119 259.52,-119 268.78,-116.48 273.41,-112.71"/>
<polygon fill="#63b8ff" stroke="#63b8ff" points="276.85,-113.39 275.13,-102.93 269.95,-112.18 276.85,-113.39"/>
</a>
</g>
</g>
<!-- Node4 -->
<g id="Node000004" class="node">
<title>Node4</title>
<g id="a_Node000004"><a xlink:href="classAsyncFw_1_1AbstractSocket.html#ab05320fcb1c111e06a56587b4abbb639" target="_top" xlink:title="Return peer address.">
<polygon fill="white" stroke="#666666" points="477.75,-132 347,-132 347,-100 477.75,-100 477.75,-132"/>
<text xml:space="preserve" text-anchor="start" x="355" y="-118.5" font-family="Helvetica,sans-Serif" font-size="10.00">AsyncFw::AbstractSocket</text>
<text xml:space="preserve" text-anchor="middle" x="412.38" y="-106.5" font-family="Helvetica,sans-Serif" font-size="10.00">::peerAddress</text>
</a>
</g>
</g>
<!-- Node3&#45;&gt;Node4 -->
<g id="edge5_Node000003_Node000004" class="edge">
<title>Node3&#45;&gt;Node4</title>
<g id="a_edge5_Node000003_Node000004"><a xlink:title=" ">
<path fill="none" stroke="#63b8ff" d="M311.27,-97.16C319.17,-98.65 327.3,-100.18 335.35,-101.7"/>
<polygon fill="#63b8ff" stroke="#63b8ff" points="334.69,-105.13 345.16,-103.54 335.98,-98.25 334.69,-105.13"/>
</a>
</g>
</g>
<!-- Node5 -->
<g id="Node000005" class="node">
<title>Node5</title>
<g id="a_Node000005"><a xlink:href="classAsyncFw_1_1AbstractSocket.html#aa91adbe0ea3297083d63e26531daa266" target="_top" xlink:title="Return peer port.">
<polygon fill="white" stroke="#666666" points="477.75,-82 347,-82 347,-50 477.75,-50 477.75,-82"/>
<text xml:space="preserve" text-anchor="start" x="355" y="-68.5" font-family="Helvetica,sans-Serif" font-size="10.00">AsyncFw::AbstractSocket</text>
<text xml:space="preserve" text-anchor="middle" x="412.38" y="-56.5" font-family="Helvetica,sans-Serif" font-size="10.00">::peerPort</text>
</a>
</g>
</g>
<!-- Node3&#45;&gt;Node5 -->
<g id="edge6_Node000003_Node000005" class="edge">
<title>Node3&#45;&gt;Node5</title>
<g id="a_edge6_Node000003_Node000005"><a xlink:title=" ">
<path fill="none" stroke="#63b8ff" d="M311.27,-77.55C319.17,-76.63 327.3,-75.7 335.35,-74.77"/>
<polygon fill="#63b8ff" stroke="#63b8ff" points="335.61,-78.26 345.15,-73.64 334.81,-71.31 335.61,-78.26"/>
</a>
</g>
</g>
<!-- Node3&#45;&gt;Node6 -->
<g id="edge7_Node000003_Node000006" class="edge">
<title>Node3&#45;&gt;Node6</title>
<g id="a_edge7_Node000003_Node000006"><a xlink:title=" ">
<path fill="none" stroke="#63b8ff" d="M283.17,-68.53C302.13,-60.1 325.72,-49.79 347,-41 350.54,-39.54 354.2,-38.05 357.9,-36.57"/>
<polygon fill="#63b8ff" stroke="#63b8ff" points="358.93,-39.92 366.93,-32.98 356.34,-33.42 358.93,-39.92"/>
</a>
</g>
</g>
</g>
</svg>
