<?xml version="1.0" encoding="UTF-8" standalone="no"?>
<!DOCTYPE svg PUBLIC "-//W3C//DTD SVG 1.1//EN"
 "http://www.w3.org/Graphics/SVG/1.1/DTD/svg11.dtd">
<!-- Generated by graphviz version 12.2.1 (20241206.2353)
 -->
<!-- Title: AsyncFw::AbstractThread::AbstractThread Pages: 1 -->
<svg width="635pt" height="196pt"
 viewBox="0.00 0.00 635.25 196.00" xmlns="http://www.w3.org/2000/svg" xmlns:xlink="http://www.w3.org/1999/xlink">
<g id="graph0" class="graph" transform="scale(1 1) rotate(0) translate(4 192)">
<title>AsyncFw::AbstractThread::AbstractThread</title>
<!-- Node1 -->
<g id="Node000001" class="node">
<title>Node1</title>
<g id="a_Node000001"><a xlink:title="Constructs a thread.">
<polygon fill="#999999" stroke="#666666" points="627.25,-154 497.25,-154 497.25,-122 627.25,-122 627.25,-154"/>
<text text-anchor="start" x="505.25" y="-140.5" font-family="Helvetica,sans-Serif" font-size="10.00">AsyncFw::AbstractThread</text>
<text text-anchor="middle" x="562.25" y="-128.5" font-family="Helvetica,sans-Serif" font-size="10.00">::AbstractThread</text>
</a>
</g>
</g>
<!-- Node1&#45;&gt;Node1 -->
<g id="edge1_Node000001_Node000001" class="edge">
<title>Node1&#45;&gt;Node1</title>
<g id="a_edge1_Node000001_Node000001"><a xlink:title=" ">
<path fill="none" stroke="#63b8ff" d="M589.91,-165.71C585.3,-169.48 576.08,-172 562.25,-172 536.96,-172 527.08,-163.58 532.61,-154.44"/>
<polygon fill="#63b8ff" stroke="#63b8ff" points="593.35,-166.39 591.62,-155.93 586.45,-165.18 593.35,-166.39"/>
</a>
</g>
</g>
<!-- Node2 -->
<g id="Node000002" class="node">
<title>Node2</title>
<g id="a_Node000002"><a xlink:href="classAsyncFw_1_1AbstractThread.html#a09cdd1972b9416a7ddb2a1921f36938c" target="_top" xlink:title="Returns a pointer to the AsyncFw::AbstractThread that manages the currently executing thread.">
<polygon fill="white" stroke="#666666" points="461.25,-132 331.25,-132 331.25,-100 461.25,-100 461.25,-132"/>
<text text-anchor="start" x="339.25" y="-118.5" font-family="Helvetica,sans-Serif" font-size="10.00">AsyncFw::AbstractThread</text>
<text text-anchor="middle" x="396.25" y="-106.5" font-family="Helvetica,sans-Serif" font-size="10.00">::current</text>
</a>
</g>
</g>
<!-- Node1&#45;&gt;Node2 -->
<g id="edge2_Node000001_Node000002" class="edge">
<title>Node1&#45;&gt;Node2</title>
<g id="a_edge2_Node000001_Node000002"><a xlink:title=" ">
<path fill="none" stroke="#63b8ff" d="M485.66,-127.86C477.65,-126.78 469.55,-125.7 461.68,-124.64"/>
<polygon fill="#63b8ff" stroke="#63b8ff" points="485.03,-131.31 495.4,-129.17 485.96,-124.37 485.03,-131.31"/>
</a>
</g>
</g>
<!-- Node8 -->
<g id="Node000008" class="node">
<title>Node8</title>
<g id="a_Node000008"><a xlink:href="classAsyncFw_1_1Thread.html#afc5e422090767dd84020381fb9a4d490" target="_top" xlink:title="Constructs a thread.">
<polygon fill="white" stroke="#666666" points="460.88,-170 331.62,-170 331.62,-150 460.88,-150 460.88,-170"/>
<text text-anchor="middle" x="396.25" y="-156.5" font-family="Helvetica,sans-Serif" font-size="10.00">AsyncFw::Thread::Thread</text>
</a>
</g>
</g>
<!-- Node1&#45;&gt;Node8 -->
<g id="edge8_Node000001_Node000008" class="edge">
<title>Node1&#45;&gt;Node8</title>
<g id="a_edge8_Node000001_Node000008"><a xlink:title=" ">
<path fill="none" stroke="#63b8ff" d="M485.77,-148.13C477.53,-149.23 469.21,-150.35 461.14,-151.43"/>
<polygon fill="#63b8ff" stroke="#63b8ff" points="485.96,-151.63 495.4,-146.83 485.03,-144.69 485.96,-151.63"/>
</a>
</g>
</g>
<!-- Node3 -->
<g id="Node000003" class="node">
<title>Node3</title>
<g id="a_Node000003"><a xlink:href="classAsyncFw_1_1ThreadPool.html#a9919894e586310a7ea5b780845376e17" target="_top" xlink:title="Asynchronously invokes a void function in the target thread, and executes a result callback in the ca...">
<polygon fill="white" stroke="#666666" points="285.12,-132 172.38,-132 172.38,-100 285.12,-100 285.12,-132"/>
<text text-anchor="start" x="180.38" y="-118.5" font-family="Helvetica,sans-Serif" font-size="10.00">AsyncFw::ThreadPool</text>
<text text-anchor="middle" x="228.75" y="-106.5" font-family="Helvetica,sans-Serif" font-size="10.00">::async</text>
</a>
</g>
</g>
<!-- Node2&#45;&gt;Node3 -->
<g id="edge3_Node000002_Node000003" class="edge">
<title>Node2&#45;&gt;Node3</title>
<g id="a_edge3_Node000002_Node000003"><a xlink:title=" ">
<path fill="none" stroke="#63b8ff" d="M319.43,-116C307.98,-116 296.36,-116 285.44,-116"/>
<polygon fill="#63b8ff" stroke="#63b8ff" points="319.28,-119.5 329.28,-116 319.28,-112.5 319.28,-119.5"/>
</a>
</g>
</g>
<!-- Node4 -->
<g id="Node000004" class="node">
<title>Node4</title>
<g id="a_Node000004"><a xlink:href="classAsyncFw_1_1Thread.html#a0a3bd6a54db28f73ff59cfea6a40b07a" target="_top" xlink:title="Returns a pointer to the AsyncFw::Thread that manages the currently executing thread.">
<polygon fill="white" stroke="#666666" points="293.38,-170 164.12,-170 164.12,-150 293.38,-150 293.38,-170"/>
<text text-anchor="middle" x="228.75" y="-156.5" font-family="Helvetica,sans-Serif" font-size="10.00">AsyncFw::Thread::current</text>
</a>
</g>
</g>
<!-- Node2&#45;&gt;Node4 -->
<g id="edge4_Node000002_Node000004" class="edge">
<title>Node2&#45;&gt;Node4</title>
<g id="a_edge4_Node000002_Node000004"><a xlink:title=" ">
<path fill="none" stroke="#63b8ff" d="M322.55,-135.33C304.08,-140.24 284.93,-145.33 268.85,-149.6"/>
<polygon fill="#63b8ff" stroke="#63b8ff" points="323.4,-138.72 332.16,-132.77 321.6,-131.96 323.4,-138.72"/>
</a>
</g>
</g>
<!-- Node5 -->
<g id="Node000005" class="node">
<title>Node5</title>
<g id="a_Node000005"><a xlink:href="classAsyncFw_1_1SystemProcess.html#acf60a585a89304fdb3580e9add06d155" target="_top" xlink:title="False Управляет вводом данных в запущенный процесс. Это режим ввода по умолчанию для канала ввода">
<polygon fill="white" stroke="#666666" points="295.25,-82 162.25,-82 162.25,-50 295.25,-50 295.25,-82"/>
<text text-anchor="start" x="170.25" y="-68.5" font-family="Helvetica,sans-Serif" font-size="10.00">AsyncFw::SystemProcess</text>
<text text-anchor="middle" x="228.75" y="-56.5" font-family="Helvetica,sans-Serif" font-size="10.00">::SystemProcess</text>
</a>
</g>
</g>
<!-- Node2&#45;&gt;Node5 -->
<g id="edge5_Node000002_Node000005" class="edge">
<title>Node2&#45;&gt;Node5</title>
<g id="a_edge5_Node000002_Node000005"><a xlink:title=" ">
<path fill="none" stroke="#63b8ff" d="M330.19,-96.34C315.02,-91.76 299.01,-86.92 284.35,-82.49"/>
<polygon fill="#63b8ff" stroke="#63b8ff" points="329.03,-99.65 339.61,-99.19 331.05,-92.95 329.03,-99.65"/>
</a>
</g>
</g>
<!-- Node6 -->
<g id="Node000006" class="node">
<title>Node6</title>
<g id="a_Node000006"><a xlink:href="classAsyncFw_1_1AbstractThread_1_1Holder.html#a795fc5bb1d23123fc892b8d414c56083" target="_top" xlink:title="Runs nested exec() and wait for it completed.">
<polygon fill="white" stroke="#666666" points="293.75,-32 163.75,-32 163.75,0 293.75,0 293.75,-32"/>
<text text-anchor="start" x="171.75" y="-18.5" font-family="Helvetica,sans-Serif" font-size="10.00">AsyncFw::AbstractThread</text>
<text text-anchor="middle" x="228.75" y="-6.5" font-family="Helvetica,sans-Serif" font-size="10.00">::Holder::wait</text>
</a>
</g>
</g>
<!-- Node2&#45;&gt;Node6 -->
<g id="edge6_Node000002_Node000006" class="edge">
<title>Node2&#45;&gt;Node6</title>
<g id="a_edge6_Node000002_Node000006"><a xlink:title=" ">
<path fill="none" stroke="#63b8ff" d="M368.23,-92.45C348.87,-76.42 321.66,-55.57 295.25,-41 289.6,-37.88 283.48,-34.99 277.33,-32.35"/>
<polygon fill="#63b8ff" stroke="#63b8ff" points="365.73,-94.92 375.64,-98.68 370.24,-89.56 365.73,-94.92"/>
</a>
</g>
</g>
<!-- Node7 -->
<g id="Node000007" class="node">
<title>Node7</title>
<g id="a_Node000007"><a xlink:href="structAsyncFw_1_1CoroutineTask.html#a820a0a3410c4a14a71ad3599f46c1bb0" target="_top" xlink:title="Runs nested Thread::exec() and wait for task finished.">
<polygon fill="white" stroke="#666666" points="126.25,-32 0,-32 0,0 126.25,0 126.25,-32"/>
<text text-anchor="start" x="8" y="-18.5" font-family="Helvetica,sans-Serif" font-size="10.00">AsyncFw::CoroutineTask</text>
<text text-anchor="middle" x="63.12" y="-6.5" font-family="Helvetica,sans-Serif" font-size="10.00">::wait</text>
</a>
</g>
</g>
<!-- Node6&#45;&gt;Node7 -->
<g id="edge7_Node000006_Node000007" class="edge">
<title>Node6&#45;&gt;Node7</title>
<g id="a_edge7_Node000006_Node000007"><a xlink:title=" ">
<path fill="none" stroke="#63b8ff" d="M152.3,-16C143.68,-16 134.96,-16 126.53,-16"/>
<polygon fill="#63b8ff" stroke="#63b8ff" points="152.04,-19.5 162.04,-16 152.04,-12.5 152.04,-19.5"/>
</a>
</g>
</g>
<!-- Node8&#45;&gt;Node4 -->
<g id="edge9_Node000008_Node000004" class="edge">
<title>Node8&#45;&gt;Node4</title>
<g id="a_edge9_Node000008_Node000004"><a xlink:title=" ">
<path fill="none" stroke="#63b8ff" d="M319.91,-160C311.2,-160 302.38,-160 293.84,-160"/>
<polygon fill="#63b8ff" stroke="#63b8ff" points="319.75,-163.5 329.75,-160 319.75,-156.5 319.75,-163.5"/>
</a>
</g>
</g>
<!-- Node8&#45;&gt;Node8 -->
<g id="edge10_Node000008_Node000008" class="edge">
<title>Node8&#45;&gt;Node8</title>
<g id="a_edge10_Node000008_Node000008"><a xlink:title=" ">
<path fill="none" stroke="#63b8ff" d="M425.59,-181.44C421.81,-185.3 412.03,-188 396.25,-188 367.39,-188 358.6,-178.98 369.87,-170.34"/>
<polygon fill="#63b8ff" stroke="#63b8ff" points="428.98,-180.56 423.02,-171.8 422.21,-182.37 428.98,-180.56"/>
</a>
</g>
</g>
</g>
</svg>
