<?xml version="1.0" encoding="UTF-8" standalone="no"?>
<!DOCTYPE svg PUBLIC "-//W3C//DTD SVG 1.1//EN"
 "http://www.w3.org/Graphics/SVG/1.1/DTD/svg11.dtd">
<!-- Generated by graphviz version 12.2.1 (20241206.2353)
 -->
<!-- Title: AsyncFw::MainThread Pages: 1 -->
<svg width="302pt" height="258pt"
 viewBox="0.00 0.00 301.88 258.00" xmlns="http://www.w3.org/2000/svg" xmlns:xlink="http://www.w3.org/1999/xlink">
<g id="graph0" class="graph" transform="scale(1 1) rotate(0) translate(4 254)">
<title>AsyncFw::MainThread</title>
<!-- Node1 -->
<g id="Node000001" class="node">
<title>Node1</title>
<g id="a_Node000001"><a xlink:title="A static control interface managing the application&#39;s primary execution thread (Main Thread).">
<polygon fill="#999999" stroke="#666666" points="138.12,-20 23.88,-20 23.88,0 138.12,0 138.12,-20"/>
<text text-anchor="middle" x="81" y="-6.5" font-family="Helvetica,sans-Serif" font-size="10.00">AsyncFw::MainThread</text>
</a>
</g>
</g>
<!-- Node2 -->
<g id="Node000002" class="node">
<title>Node2</title>
<g id="a_Node000002"><a xlink:href="classAsyncFw_1_1Thread.html" target="_top" xlink:title="AsyncFw::Thread thread with sockets.">
<polygon fill="white" stroke="#666666" points="127.62,-77 34.38,-77 34.38,-57 127.62,-57 127.62,-77"/>
<text text-anchor="middle" x="81" y="-63.5" font-family="Helvetica,sans-Serif" font-size="10.00">AsyncFw::Thread</text>
</a>
</g>
</g>
<!-- Node2&#45;&gt;Node1 -->
<g id="edge1_Node000001_Node000002" class="edge">
<title>Node2&#45;&gt;Node1</title>
<g id="a_edge1_Node000001_Node000002"><a xlink:title=" ">
<path fill="none" stroke="#8b1a1a" d="M81,-45.69C81,-36.97 81,-27.22 81,-20.28"/>
<polygon fill="#8b1a1a" stroke="#8b1a1a" points="77.5,-45.4 81,-55.4 84.5,-45.4 77.5,-45.4"/>
</a>
</g>
</g>
<!-- Node3 -->
<g id="Node000003" class="node">
<title>Node3</title>
<g id="a_Node000003"><a xlink:href="classAsyncFw_1_1AbstractThread.html" target="_top" xlink:title="The AbstractThread class provides the base functionality for thread management.">
<polygon fill="white" stroke="#666666" points="130,-175 0,-175 0,-155 130,-155 130,-175"/>
<text text-anchor="middle" x="65" y="-161.5" font-family="Helvetica,sans-Serif" font-size="10.00">AsyncFw::AbstractThread</text>
</a>
</g>
</g>
<!-- Node3&#45;&gt;Node2 -->
<g id="edge2_Node000002_Node000003" class="edge">
<title>Node3&#45;&gt;Node2</title>
<g id="a_edge2_Node000002_Node000003"><a xlink:title=" ">
<path fill="none" stroke="#63b8ff" d="M68.4,-143.59C71.81,-123.14 76.91,-92.55 79.45,-77.32"/>
<polygon fill="#63b8ff" stroke="#63b8ff" points="64.97,-142.86 66.78,-153.3 71.88,-144.01 64.97,-142.86"/>
</a>
</g>
</g>
<!-- Node4 -->
<g id="Node000004" class="node">
<title>Node4</title>
<g id="a_Node000004"><a xlink:href="classAsyncFw_1_1FunctionConnector.html" target="_top" xlink:title="Provides a thread&#45;safe, publisher&#45;subscriber mechanism to establish sender&#45;to&#45;receivers connections.">
<polygon fill="white" stroke="#666666" points="293.88,-181 148.12,-181 148.12,-149 293.88,-149 293.88,-181"/>
<text text-anchor="start" x="156.12" y="-167.5" font-family="Helvetica,sans-Serif" font-size="10.00">AsyncFw::FunctionConnector</text>
<text text-anchor="middle" x="221" y="-155.5" font-family="Helvetica,sans-Serif" font-size="10.00">&lt; Args &gt;</text>
</a>
</g>
</g>
<!-- Node4&#45;&gt;Node2 -->
<g id="edge3_Node000002_Node000004" class="edge">
<title>Node4&#45;&gt;Node2</title>
<g id="a_edge3_Node000002_Node000004"><a xlink:title=" ">
<path fill="none" stroke="#9a32cd" stroke-dasharray="5,2" d="M189.34,-142.29C159.52,-121.84 116.28,-92.19 94.55,-77.29"/>
<polygon fill="#9a32cd" stroke="#9a32cd" points="187.03,-144.95 197.26,-147.72 190.99,-139.18 187.03,-144.95"/>
</a>
</g>
<text text-anchor="middle" x="193.09" y="-121.5" font-family="Helvetica,sans-Serif" font-size="10.00" fill="grey"> destroing</text>
<text text-anchor="middle" x="193.09" y="-109.5" font-family="Helvetica,sans-Serif" font-size="10.00" fill="grey">finished</text>
<text text-anchor="middle" x="193.09" y="-97.5" font-family="Helvetica,sans-Serif" font-size="10.00" fill="grey">started</text>
</g>
<!-- Node5 -->
<g id="Node000005" class="node">
<title>Node5</title>
<g id="a_Node000005"><a xlink:href="classAsyncFw_1_1AbstractFunctionConnector.html" target="_top" xlink:title="The AbstractFunctionConnector class provides the base functionality for FunctionConnector.">
<polygon fill="white" stroke="#666666" points="289.75,-250 152.25,-250 152.25,-218 289.75,-218 289.75,-250"/>
<text text-anchor="start" x="160.25" y="-236.5" font-family="Helvetica,sans-Serif" font-size="10.00">AsyncFw::AbstractFunction</text>
<text text-anchor="middle" x="221" y="-224.5" font-family="Helvetica,sans-Serif" font-size="10.00">Connector</text>
</a>
</g>
</g>
<!-- Node5&#45;&gt;Node4 -->
<g id="edge4_Node000004_Node000005" class="edge">
<title>Node5&#45;&gt;Node4</title>
<g id="a_edge4_Node000004_Node000005"><a xlink:title=" ">
<path fill="none" stroke="#63b8ff" d="M221,-206.35C221,-197.78 221,-188.59 221,-181.14"/>
<polygon fill="#63b8ff" stroke="#63b8ff" points="217.5,-206.28 221,-216.28 224.5,-206.28 217.5,-206.28"/>
</a>
</g>
</g>
</g>
</svg>
