<?xml version="1.0" encoding="UTF-8" standalone="no"?>
<!DOCTYPE svg PUBLIC "-//W3C//DTD SVG 1.1//EN"
 "http://www.w3.org/Graphics/SVG/1.1/DTD/svg11.dtd">
<!-- Generated by graphviz version 14.1.3 (20260303.0454)
 -->
<!-- Title: AsyncFw::DataArray::compress Pages: 1 -->
<svg width="403pt" height="58pt"
 viewBox="0.00 0.00 403.00 58.00" xmlns="http://www.w3.org/2000/svg" xmlns:xlink="http://www.w3.org/1999/xlink">
<g id="graph0" class="graph" transform="scale(1 1) rotate(0) translate(4 54)">
<title>AsyncFw::DataArray::compress</title>
<!-- Node1 -->
<g id="Node000001" class="node">
<title>Node1</title>
<g id="a_Node000001"><a xlink:title="Compresses the provided data view using the framework&#39;s default compression algorithm.">
<polygon fill="#999999" stroke="#666666" points="394.5,-32 287,-32 287,0 394.5,0 394.5,-32"/>
<text xml:space="preserve" text-anchor="start" x="295" y="-18.5" font-family="Helvetica,sans-Serif" font-size="10.00">AsyncFw::DataArray</text>
<text xml:space="preserve" text-anchor="middle" x="340.75" y="-6.5" font-family="Helvetica,sans-Serif" font-size="10.00">::compress</text>
</a>
</g>
</g>
<!-- Node1&#45;&gt;Node1 -->
<g id="edge1_Node000001_Node000001" class="edge">
<title>Node1&#45;&gt;Node1</title>
<g id="a_edge1_Node000001_Node000001"><a xlink:title=" ">
<path fill="none" stroke="#63b8ff" d="M364.66,-43.71C360.68,-47.48 352.71,-50 340.75,-50 318.89,-50 310.35,-41.58 315.13,-32.44"/>
<polygon fill="#63b8ff" stroke="#63b8ff" points="368.11,-44.35 366.14,-33.94 361.18,-43.3 368.11,-44.35"/>
</a>
</g>
</g>
<!-- Node2 -->
<g id="Node000002" class="node">
<title>Node2</title>
<g id="a_Node000002"><a xlink:href="classAsyncFw_1_1RrdServer.html#a518ff8e41bae78f1b1c0e099514e56eb" target="_top" xlink:title="Extracts a specific historical data slice from an Rrd archive and transmits it to a client socket.">
<polygon fill="white" stroke="#666666" points="251,-32 143.5,-32 143.5,0 251,0 251,-32"/>
<text xml:space="preserve" text-anchor="start" x="151.5" y="-18.5" font-family="Helvetica,sans-Serif" font-size="10.00">AsyncFw::RrdServer</text>
<text xml:space="preserve" text-anchor="middle" x="197.25" y="-6.5" font-family="Helvetica,sans-Serif" font-size="10.00">::transmit</text>
</a>
</g>
</g>
<!-- Node1&#45;&gt;Node2 -->
<g id="edge2_Node000001_Node000002" class="edge">
<title>Node1&#45;&gt;Node2</title>
<g id="a_edge2_Node000001_Node000002"><a xlink:title=" ">
<path fill="none" stroke="#63b8ff" d="M275.34,-16C267.25,-16 259.05,-16 251.17,-16"/>
<polygon fill="#63b8ff" stroke="#63b8ff" points="275.14,-19.5 285.14,-16 275.14,-12.5 275.14,-19.5"/>
</a>
</g>
</g>
<!-- Node3 -->
<g id="Node000003" class="node">
<title>Node3</title>
<g id="a_Node000003"><a xlink:href="classAsyncFw_1_1RrdServer.html#a80621329e326c77a65c5e4e65efa511d" target="_top" xlink:title="Constructs an RrdServer instance.">
<polygon fill="white" stroke="#666666" points="107.5,-32 0,-32 0,0 107.5,0 107.5,-32"/>
<text xml:space="preserve" text-anchor="start" x="8" y="-18.5" font-family="Helvetica,sans-Serif" font-size="10.00">AsyncFw::RrdServer</text>
<text xml:space="preserve" text-anchor="middle" x="53.75" y="-6.5" font-family="Helvetica,sans-Serif" font-size="10.00">::RrdServer</text>
</a>
</g>
</g>
<!-- Node2&#45;&gt;Node3 -->
<g id="edge3_Node000002_Node000003" class="edge">
<title>Node2&#45;&gt;Node3</title>
<g id="a_edge3_Node000002_Node000003"><a xlink:title=" ">
<path fill="none" stroke="#63b8ff" d="M131.84,-16C123.75,-16 115.55,-16 107.67,-16"/>
<polygon fill="#63b8ff" stroke="#63b8ff" points="131.64,-19.5 141.64,-16 131.64,-12.5 131.64,-19.5"/>
</a>
</g>
</g>
</g>
</svg>
