<?xml version="1.0" encoding="UTF-8" standalone="no"?>
<!DOCTYPE svg PUBLIC "-//W3C//DTD SVG 1.1//EN"
 "http://www.w3.org/Graphics/SVG/1.1/DTD/svg11.dtd">
<!-- Generated by graphviz version 14.1.3 (20260303.0454)
 -->
<!-- Title: AsyncFw::HttpSocket::activateEvent Pages: 1 -->
<svg width="815pt" height="366pt"
 viewBox="0.00 0.00 815.00 366.00" xmlns="http://www.w3.org/2000/svg" xmlns:xlink="http://www.w3.org/1999/xlink">
<g id="graph0" class="graph" transform="scale(1 1) rotate(0) translate(4 362)">
<title>AsyncFw::HttpSocket::activateEvent</title>
<!-- Node1 -->
<g id="Node000001" class="node">
<title>Node1</title>
<g id="a_Node000001"><a xlink:title="Core internal event handler reacting to raw descriptor readiness signals.">
<polygon fill="#999999" stroke="#666666" points="112.75,-267 0,-267 0,-235 112.75,-235 112.75,-267"/>
<text xml:space="preserve" text-anchor="start" x="8" y="-253.5" font-family="Helvetica,sans-Serif" font-size="10.00">AsyncFw::HttpSocket</text>
<text xml:space="preserve" text-anchor="middle" x="56.38" y="-241.5" font-family="Helvetica,sans-Serif" font-size="10.00">::activateEvent</text>
</a>
</g>
</g>
<!-- Node2 -->
<g id="Node000002" class="node">
<title>Node2</title>
<g id="a_Node000002"><a xlink:href="classAsyncFw_1_1AbstractTlsSocket.html#a57ac6daff9926cf631abcd1e19073cc8" target="_top" xlink:title="Core internal event handler reacting to raw descriptor readiness signals.">
<polygon fill="white" stroke="#666666" points="293,-220 148.75,-220 148.75,-188 293,-188 293,-220"/>
<text xml:space="preserve" text-anchor="start" x="156.75" y="-206.5" font-family="Helvetica,sans-Serif" font-size="10.00">AsyncFw::AbstractTlsSocket</text>
<text xml:space="preserve" text-anchor="middle" x="220.88" y="-194.5" font-family="Helvetica,sans-Serif" font-size="10.00">::activateEvent</text>
</a>
</g>
</g>
<!-- Node1&#45;&gt;Node2 -->
<g id="edge1_Node000001_Node000002" class="edge">
<title>Node1&#45;&gt;Node2</title>
<g id="a_edge1_Node000001_Node000002"><a xlink:title=" ">
<path fill="none" stroke="#63b8ff" d="M112.84,-234.96C125.49,-231.3 139.06,-227.37 152.15,-223.59"/>
<polygon fill="#63b8ff" stroke="#63b8ff" points="152.91,-227.01 161.54,-220.87 150.96,-220.29 152.91,-227.01"/>
</a>
</g>
</g>
<!-- Node16 -->
<g id="Node000016" class="node">
<title>Node16</title>
<g id="a_Node000016"><a xlink:href="classAsyncFw_1_1HttpSocket.html#a96932e5f6b5f84c4f204b0e6e4ef8472" target="_top" xlink:title="Immediately releases OpenSSL session pointers and forcefully closes the system&#45;level descriptor.">
<polygon fill="white" stroke="#666666" points="277.25,-314 164.5,-314 164.5,-282 277.25,-282 277.25,-314"/>
<text xml:space="preserve" text-anchor="start" x="172.5" y="-300.5" font-family="Helvetica,sans-Serif" font-size="10.00">AsyncFw::HttpSocket</text>
<text xml:space="preserve" text-anchor="middle" x="220.88" y="-288.5" font-family="Helvetica,sans-Serif" font-size="10.00">::close</text>
</a>
</g>
</g>
<!-- Node1&#45;&gt;Node16 -->
<g id="edge20_Node000001_Node000016" class="edge">
<title>Node1&#45;&gt;Node16</title>
<g id="a_edge20_Node000001_Node000016"><a xlink:title=" ">
<path fill="none" stroke="#63b8ff" d="M112.84,-267.04C125.9,-270.82 139.95,-274.88 153.44,-278.78"/>
<polygon fill="#63b8ff" stroke="#63b8ff" points="152.07,-282.03 162.65,-281.45 154.02,-275.31 152.07,-282.03"/>
</a>
</g>
</g>
<!-- Node3 -->
<g id="Node000003" class="node">
<title>Node3</title>
<g id="a_Node000003"><a xlink:href="classAsyncFw_1_1AbstractSocket.html#aac7ad6c4f9815d9b8b0817d38864d06d" target="_top" xlink:title="Called when established connection.">
<polygon fill="white" stroke="#666666" points="640,-308 509.25,-308 509.25,-276 640,-276 640,-308"/>
<text xml:space="preserve" text-anchor="start" x="517.25" y="-294.5" font-family="Helvetica,sans-Serif" font-size="10.00">AsyncFw::AbstractSocket</text>
<text xml:space="preserve" text-anchor="middle" x="574.62" y="-282.5" font-family="Helvetica,sans-Serif" font-size="10.00">::activateEvent</text>
</a>
</g>
</g>
<!-- Node2&#45;&gt;Node3 -->
<g id="edge2_Node000002_Node000003" class="edge">
<title>Node2&#45;&gt;Node3</title>
<g id="a_edge2_Node000002_Node000003"><a xlink:title=" ">
<path fill="none" stroke="#63b8ff" d="M238.72,-220.41C258.49,-238.49 293.16,-266.64 329,-279 383.27,-297.71 448.33,-300.3 497.7,-298.57"/>
<polygon fill="#63b8ff" stroke="#63b8ff" points="497.58,-302.08 507.43,-298.16 497.29,-295.09 497.58,-302.08"/>
</a>
</g>
</g>
<!-- Node5 -->
<g id="Node000005" class="node">
<title>Node5</title>
<g id="a_Node000005"><a xlink:href="classAsyncFw_1_1AbstractTlsSocket.html#ad26bb910e65bb758bfed6448e1af7186" target="_top" xlink:title="Intermediate signal hub executed immediately when a secure cryptographic tunnel is fully established.">
<polygon fill="white" stroke="#666666" points="473.25,-270 329,-270 329,-238 473.25,-238 473.25,-270"/>
<text xml:space="preserve" text-anchor="start" x="337" y="-256.5" font-family="Helvetica,sans-Serif" font-size="10.00">AsyncFw::AbstractTlsSocket</text>
<text xml:space="preserve" text-anchor="middle" x="401.12" y="-244.5" font-family="Helvetica,sans-Serif" font-size="10.00">::activateReady</text>
</a>
</g>
</g>
<!-- Node2&#45;&gt;Node5 -->
<g id="edge4_Node000002_Node000005" class="edge">
<title>Node2&#45;&gt;Node5</title>
<g id="a_edge4_Node000002_Node000005"><a xlink:title=" ">
<path fill="none" stroke="#63b8ff" d="M280.24,-220.37C296.32,-224.88 313.91,-229.82 330.55,-234.48"/>
<polygon fill="#63b8ff" stroke="#63b8ff" points="329.29,-237.77 339.87,-237.1 331.18,-231.03 329.29,-237.77"/>
</a>
</g>
</g>
<!-- Node6 -->
<g id="Node000006" class="node">
<title>Node6</title>
<g id="a_Node000006"><a xlink:href="classAsyncFw_1_1AbstractTlsSocket.html#a46dbd8e4895445214a4f46ee46433d6c" target="_top" xlink:title="Immediately releases OpenSSL session pointers and forcefully closes the system&#45;level descriptor.">
<polygon fill="white" stroke="#666666" points="473.25,-358 329,-358 329,-326 473.25,-326 473.25,-358"/>
<text xml:space="preserve" text-anchor="start" x="337" y="-344.5" font-family="Helvetica,sans-Serif" font-size="10.00">AsyncFw::AbstractTlsSocket</text>
<text xml:space="preserve" text-anchor="middle" x="401.12" y="-332.5" font-family="Helvetica,sans-Serif" font-size="10.00">::close</text>
</a>
</g>
</g>
<!-- Node2&#45;&gt;Node6 -->
<g id="edge6_Node000002_Node000006" class="edge">
<title>Node2&#45;&gt;Node6</title>
<g id="a_edge6_Node000002_Node000006"><a xlink:title=" ">
<path fill="none" stroke="#63b8ff" d="M239.38,-220.47C253.94,-234.29 275.1,-254.65 293,-273 309.47,-289.89 309.7,-298.44 329,-312 333.36,-315.06 338.09,-317.9 342.96,-320.51"/>
<polygon fill="#63b8ff" stroke="#63b8ff" points="341.21,-323.55 351.72,-324.85 344.32,-317.28 341.21,-323.55"/>
</a>
</g>
</g>
<!-- Node8 -->
<g id="Node000008" class="node">
<title>Node8</title>
<g id="a_Node000008"><a xlink:href="classAsyncFw_1_1AbstractSocket.html#a64ec81f99806967d9244337b88ae03ba" target="_top" xlink:title="Low&#45;level system call that checks whether a file descriptor contains data.">
<polygon fill="white" stroke="#666666" points="466.5,-170 335.75,-170 335.75,-138 466.5,-138 466.5,-170"/>
<text xml:space="preserve" text-anchor="start" x="343.75" y="-156.5" font-family="Helvetica,sans-Serif" font-size="10.00">AsyncFw::AbstractSocket</text>
<text xml:space="preserve" text-anchor="middle" x="401.12" y="-144.5" font-family="Helvetica,sans-Serif" font-size="10.00">::read_available_fd</text>
</a>
</g>
</g>
<!-- Node2&#45;&gt;Node8 -->
<g id="edge9_Node000002_Node000008" class="edge">
<title>Node2&#45;&gt;Node8</title>
<g id="a_edge9_Node000002_Node000008"><a xlink:title=" ">
<path fill="none" stroke="#63b8ff" d="M280.24,-187.63C296.32,-183.12 313.91,-178.18 330.55,-173.52"/>
<polygon fill="#63b8ff" stroke="#63b8ff" points="331.18,-176.97 339.87,-170.9 329.29,-170.23 331.18,-176.97"/>
</a>
</g>
</g>
<!-- Node9 -->
<g id="Node000009" class="node">
<title>Node9</title>
<g id="a_Node000009"><a xlink:href="classAsyncFw_1_1AbstractSocket.html#a25efdce1c4a0dedf15e57cb0af971d86" target="_top" xlink:title="Low&#45;level native operating system read operation proxying requests directly down to the fd handle.">
<polygon fill="white" stroke="#666666" points="640,-120 509.25,-120 509.25,-88 640,-88 640,-120"/>
<text xml:space="preserve" text-anchor="start" x="517.25" y="-106.5" font-family="Helvetica,sans-Serif" font-size="10.00">AsyncFw::AbstractSocket</text>
<text xml:space="preserve" text-anchor="middle" x="574.62" y="-94.5" font-family="Helvetica,sans-Serif" font-size="10.00">::read_fd</text>
</a>
</g>
</g>
<!-- Node2&#45;&gt;Node9 -->
<g id="edge10_Node000002_Node000009" class="edge">
<title>Node2&#45;&gt;Node9</title>
<g id="a_edge10_Node000002_Node000009"><a xlink:title=" ">
<path fill="none" stroke="#63b8ff" d="M239.19,-187.58C259.12,-169.78 293.68,-142.15 329,-129 383.01,-108.9 448.07,-103.04 497.52,-102"/>
<polygon fill="#63b8ff" stroke="#63b8ff" points="497.32,-105.51 507.26,-101.86 497.22,-98.51 497.32,-105.51"/>
</a>
</g>
</g>
<!-- Node11 -->
<g id="Node000011" class="node">
<title>Node11</title>
<g id="a_Node000011"><a xlink:href="classAsyncFw_1_1AbstractSocket.html#adf2d96f44c3abf205e637f3809bc614d" target="_top" xlink:title="Configures or overrides the internal error code.">
<polygon fill="white" stroke="#666666" points="466.5,-82 335.75,-82 335.75,-50 466.5,-50 466.5,-82"/>
<text xml:space="preserve" text-anchor="start" x="343.75" y="-68.5" font-family="Helvetica,sans-Serif" font-size="10.00">AsyncFw::AbstractSocket</text>
<text xml:space="preserve" text-anchor="middle" x="401.12" y="-56.5" font-family="Helvetica,sans-Serif" font-size="10.00">::setError</text>
</a>
</g>
</g>
<!-- Node2&#45;&gt;Node11 -->
<g id="edge12_Node000002_Node000011" class="edge">
<title>Node2&#45;&gt;Node11</title>
<g id="a_edge12_Node000002_Node000011"><a xlink:title=" ">
<path fill="none" stroke="#63b8ff" d="M234.49,-187.75C253.06,-164.73 289.83,-122.47 329,-96 333.67,-92.84 338.72,-89.92 343.91,-87.23"/>
<polygon fill="#63b8ff" stroke="#63b8ff" points="345.14,-90.52 352.62,-83.01 342.09,-84.22 345.14,-90.52"/>
</a>
</g>
</g>
<!-- Node12 -->
<g id="Node000012" class="node">
<title>Node12</title>
<g id="a_Node000012"><a xlink:href="classAsyncFw_1_1AbstractSocket.html#aee9d948ab5f79cb9c0c45da1709c1159" target="_top" xlink:title="Updates the human&#45;readable error description buffer string.">
<polygon fill="white" stroke="#666666" points="466.5,-32 335.75,-32 335.75,0 466.5,0 466.5,-32"/>
<text xml:space="preserve" text-anchor="start" x="343.75" y="-18.5" font-family="Helvetica,sans-Serif" font-size="10.00">AsyncFw::AbstractSocket</text>
<text xml:space="preserve" text-anchor="middle" x="401.12" y="-6.5" font-family="Helvetica,sans-Serif" font-size="10.00">::setErrorString</text>
</a>
</g>
</g>
<!-- Node2&#45;&gt;Node12 -->
<g id="edge13_Node000002_Node000012" class="edge">
<title>Node2&#45;&gt;Node12</title>
<g id="a_edge13_Node000002_Node000012"><a xlink:title=" ">
<path fill="none" stroke="#63b8ff" d="M228.36,-187.57C242.06,-154.96 276.98,-81.68 329,-41 330.29,-39.99 331.62,-39.02 332.99,-38.09"/>
<polygon fill="#63b8ff" stroke="#63b8ff" points="334.35,-41.35 341.17,-33.24 330.79,-35.33 334.35,-41.35"/>
</a>
</g>
</g>
<!-- Node13 -->
<g id="Node000013" class="node">
<title>Node13</title>
<g id="a_Node000013"><a xlink:href="classAsyncFw_1_1AbstractSocket.html#a4659df5988d2af771d4feee9edec55d8" target="_top" xlink:title="Low&#45;level native operating system write operation proxying requests directly up to the fd handle.">
<polygon fill="white" stroke="#666666" points="466.5,-220 335.75,-220 335.75,-188 466.5,-188 466.5,-220"/>
<text xml:space="preserve" text-anchor="start" x="343.75" y="-206.5" font-family="Helvetica,sans-Serif" font-size="10.00">AsyncFw::AbstractSocket</text>
<text xml:space="preserve" text-anchor="middle" x="401.12" y="-194.5" font-family="Helvetica,sans-Serif" font-size="10.00">::write_fd</text>
</a>
</g>
</g>
<!-- Node2&#45;&gt;Node13 -->
<g id="edge14_Node000002_Node000013" class="edge">
<title>Node2&#45;&gt;Node13</title>
<g id="a_edge14_Node000002_Node000013"><a xlink:title=" ">
<path fill="none" stroke="#63b8ff" d="M293.35,-204C303.41,-204 313.79,-204 323.94,-204"/>
<polygon fill="#63b8ff" stroke="#63b8ff" points="323.75,-207.5 333.75,-204 323.75,-200.5 323.75,-207.5"/>
</a>
</g>
</g>
<!-- Node4 -->
<g id="Node000004" class="node">
<title>Node4</title>
<g id="a_Node000004"><a xlink:href="classAsyncFw_1_1AbstractSocket.html#a5db12267a6d2241e81f570463f2d7ef5" target="_top" xlink:title="Called when the connection state changes.">
<polygon fill="white" stroke="#666666" points="806.75,-333 676,-333 676,-301 806.75,-301 806.75,-333"/>
<text xml:space="preserve" text-anchor="start" x="684" y="-319.5" font-family="Helvetica,sans-Serif" font-size="10.00">AsyncFw::AbstractSocket</text>
<text xml:space="preserve" text-anchor="middle" x="741.38" y="-307.5" font-family="Helvetica,sans-Serif" font-size="10.00">::stateEvent</text>
</a>
</g>
</g>
<!-- Node3&#45;&gt;Node4 -->
<g id="edge3_Node000003_Node000004" class="edge">
<title>Node3&#45;&gt;Node4</title>
<g id="a_edge3_Node000003_Node000004"><a xlink:title=" ">
<path fill="none" stroke="#63b8ff" d="M640.27,-301.81C648.17,-303.01 656.3,-304.24 664.35,-305.46"/>
<polygon fill="#63b8ff" stroke="#63b8ff" points="663.74,-308.91 674.15,-306.95 664.79,-301.99 663.74,-308.91"/>
</a>
</g>
</g>
<!-- Node5&#45;&gt;Node3 -->
<g id="edge5_Node000005_Node000003" class="edge">
<title>Node5&#45;&gt;Node3</title>
<g id="a_edge5_Node000005_Node000003"><a xlink:title=" ">
<path fill="none" stroke="#63b8ff" d="M473.37,-269.79C481.47,-271.58 489.74,-273.41 497.9,-275.22"/>
<polygon fill="#63b8ff" stroke="#63b8ff" points="496.91,-278.59 507.43,-277.33 498.43,-271.75 496.91,-278.59"/>
</a>
</g>
</g>
<!-- Node7 -->
<g id="Node000007" class="node">
<title>Node7</title>
<g id="a_Node000007"><a xlink:href="classAsyncFw_1_1AbstractSocket.html#a77c0a9ea7c5061c406673bbe8b18d60d" target="_top" xlink:title="Closes the network connection and unsubscribes from thread polling events.">
<polygon fill="white" stroke="#666666" points="640,-358 509.25,-358 509.25,-326 640,-326 640,-358"/>
<text xml:space="preserve" text-anchor="start" x="517.25" y="-344.5" font-family="Helvetica,sans-Serif" font-size="10.00">AsyncFw::AbstractSocket</text>
<text xml:space="preserve" text-anchor="middle" x="574.62" y="-332.5" font-family="Helvetica,sans-Serif" font-size="10.00">::close</text>
</a>
</g>
</g>
<!-- Node6&#45;&gt;Node7 -->
<g id="edge7_Node000006_Node000007" class="edge">
<title>Node6&#45;&gt;Node7</title>
<g id="a_edge7_Node000006_Node000007"><a xlink:title=" ">
<path fill="none" stroke="#63b8ff" d="M473.37,-342C481.37,-342 489.55,-342 497.62,-342"/>
<polygon fill="#63b8ff" stroke="#63b8ff" points="497.4,-345.5 507.4,-342 497.4,-338.5 497.4,-345.5"/>
</a>
</g>
</g>
<!-- Node7&#45;&gt;Node4 -->
<g id="edge8_Node000007_Node000004" class="edge">
<title>Node7&#45;&gt;Node4</title>
<g id="a_edge8_Node000007_Node000004"><a xlink:title=" ">
<path fill="none" stroke="#63b8ff" d="M640.27,-332.19C648.17,-330.99 656.3,-329.76 664.35,-328.54"/>
<polygon fill="#63b8ff" stroke="#63b8ff" points="664.79,-332.01 674.15,-327.05 663.74,-325.09 664.79,-332.01"/>
</a>
</g>
</g>
<!-- Node10 -->
<g id="Node000010" class="node">
<title>Node10</title>
<g id="a_Node000010"><a xlink:href="structAsyncFw_1_1AnyData.html#aa6d2c3488a44e34e25a0971b01a27b3c" target="_top" xlink:title="Type&#45;safely extracts and returns the stored data value.">
<polygon fill="white" stroke="#666666" points="804.5,-214 678.25,-214 678.25,-194 804.5,-194 804.5,-214"/>
<text xml:space="preserve" text-anchor="middle" x="741.38" y="-200.5" font-family="Helvetica,sans-Serif" font-size="10.00">AsyncFw::AnyData::data</text>
</a>
</g>
</g>
<!-- Node9&#45;&gt;Node10 -->
<g id="edge11_Node000009_Node000010" class="edge">
<title>Node9&#45;&gt;Node10</title>
<g id="a_edge11_Node000009_Node000010"><a xlink:title=" ">
<path fill="none" stroke="#63b8ff" d="M622.38,-120.42C628.43,-123.04 634.44,-125.92 640,-129 669.76,-145.49 700.62,-169.83 720.13,-186.27"/>
<polygon fill="#63b8ff" stroke="#63b8ff" points="717.72,-188.81 727.59,-192.65 722.27,-183.49 717.72,-188.81"/>
</a>
</g>
</g>
<!-- Node13&#45;&gt;Node10 -->
<g id="edge15_Node000013_Node000010" class="edge">
<title>Node13&#45;&gt;Node10</title>
<g id="a_edge15_Node000013_Node000010"><a xlink:title=" ">
<path fill="none" stroke="#63b8ff" d="M461.76,-220.47C477.11,-224 493.69,-227.21 509.25,-229 566.98,-235.65 582.32,-236.07 640,-229 658.72,-226.7 678.97,-222.09 696.34,-217.44"/>
<polygon fill="#63b8ff" stroke="#63b8ff" points="697.14,-220.85 705.84,-214.81 695.27,-214.1 697.14,-220.85"/>
</a>
</g>
</g>
<!-- Node14 -->
<g id="Node000014" class="node">
<title>Node14</title>
<g id="a_Node000014"><a xlink:href="classAsyncFw_1_1AbstractSocket.html#a6b5bfbc488d553dca8a2d01b6b415482" target="_top" xlink:title="Writes raw binary bytes out to the network socket layer.">
<polygon fill="white" stroke="#666666" points="640,-220 509.25,-220 509.25,-188 640,-188 640,-220"/>
<text xml:space="preserve" text-anchor="start" x="517.25" y="-206.5" font-family="Helvetica,sans-Serif" font-size="10.00">AsyncFw::AbstractSocket</text>
<text xml:space="preserve" text-anchor="middle" x="574.62" y="-194.5" font-family="Helvetica,sans-Serif" font-size="10.00">::write</text>
</a>
</g>
</g>
<!-- Node13&#45;&gt;Node14 -->
<g id="edge16_Node000013_Node000014" class="edge">
<title>Node13&#45;&gt;Node14</title>
<g id="a_edge16_Node000013_Node000014"><a xlink:title=" ">
<path fill="none" stroke="#63b8ff" d="M466.96,-197.43C476.95,-197.25 487.35,-197.21 497.56,-197.29"/>
<polygon fill="#63b8ff" stroke="#63b8ff" points="497.42,-200.79 507.47,-197.42 497.51,-193.79 497.42,-200.79"/>
</a>
</g>
</g>
<!-- Node15 -->
<g id="Node000015" class="node">
<title>Node15</title>
<g id="a_Node000015"><a xlink:href="classAsyncFw_1_1AbstractSocket.html#af8141e7714603e6c83c0640a2d74ec90" target="_top" xlink:title="Called when writing to the socket is possible.">
<polygon fill="white" stroke="#666666" points="640,-170 509.25,-170 509.25,-138 640,-138 640,-170"/>
<text xml:space="preserve" text-anchor="start" x="517.25" y="-156.5" font-family="Helvetica,sans-Serif" font-size="10.00">AsyncFw::AbstractSocket</text>
<text xml:space="preserve" text-anchor="middle" x="574.62" y="-144.5" font-family="Helvetica,sans-Serif" font-size="10.00">::writeEvent</text>
</a>
</g>
</g>
<!-- Node13&#45;&gt;Node15 -->
<g id="edge19_Node000013_Node000015" class="edge">
<title>Node13&#45;&gt;Node15</title>
<g id="a_edge19_Node000013_Node000015"><a xlink:title=" ">
<path fill="none" stroke="#63b8ff" d="M458.28,-187.63C473.6,-183.16 490.35,-178.28 506.23,-173.65"/>
<polygon fill="#63b8ff" stroke="#63b8ff" points="506.98,-177.08 515.6,-170.92 505.02,-170.36 506.98,-177.08"/>
</a>
</g>
</g>
<!-- Node14&#45;&gt;Node10 -->
<g id="edge17_Node000014_Node000010" class="edge">
<title>Node14&#45;&gt;Node10</title>
<g id="a_edge17_Node000014_Node000010"><a xlink:title=" ">
<path fill="none" stroke="#63b8ff" d="M640.27,-204C648.85,-204 657.71,-204 666.44,-204"/>
<polygon fill="#63b8ff" stroke="#63b8ff" points="666.29,-207.5 676.29,-204 666.29,-200.5 666.29,-207.5"/>
</a>
</g>
</g>
<!-- Node14&#45;&gt;Node13 -->
<g id="edge18_Node000014_Node000013" class="edge">
<title>Node14&#45;&gt;Node13</title>
<g id="a_edge18_Node000014_Node000013"><a xlink:title=" ">
<path fill="none" stroke="#63b8ff" d="M508.98,-210.56C498.99,-210.74 488.6,-210.79 478.38,-210.71"/>
<polygon fill="#63b8ff" stroke="#63b8ff" points="478.52,-207.21 468.48,-210.59 478.43,-214.21 478.52,-207.21"/>
</a>
</g>
</g>
<!-- Node16&#45;&gt;Node6 -->
<g id="edge21_Node000016_Node000006" class="edge">
<title>Node16&#45;&gt;Node6</title>
<g id="a_edge21_Node000016_Node000006"><a xlink:title=" ">
<path fill="none" stroke="#63b8ff" d="M277.3,-311.68C291.61,-315.21 307.28,-319.08 322.49,-322.84"/>
<polygon fill="#63b8ff" stroke="#63b8ff" points="321.45,-326.18 331.99,-325.18 323.12,-319.39 321.45,-326.18"/>
</a>
</g>
</g>
</g>
</svg>
