<?xml version="1.0" encoding="UTF-8" standalone="no"?>
<!DOCTYPE svg PUBLIC "-//W3C//DTD SVG 1.1//EN"
 "http://www.w3.org/Graphics/SVG/1.1/DTD/svg11.dtd">
<!-- Generated by graphviz version 12.2.1 (20241206.2353)
 -->
<!-- Title: AsyncFw::ListenSocket Pages: 1 -->
<svg width="968pt" height="148pt"
 viewBox="0.00 0.00 968.25 148.00" xmlns="http://www.w3.org/2000/svg" xmlns:xlink="http://www.w3.org/1999/xlink">
<g id="graph0" class="graph" transform="scale(1 1) rotate(0) translate(4 144)">
<title>AsyncFw::ListenSocket</title>
<!-- Node1 -->
<g id="Node000001" class="node">
<title>Node1</title>
<g id="a_Node000001"><a xlink:title="The ListenSocket class.">
<polygon fill="#999999" stroke="#666666" points="960.25,-57 840,-57 840,-37 960.25,-37 960.25,-57"/>
<text text-anchor="middle" x="900.12" y="-43.5" font-family="Helvetica,sans-Serif" font-size="10.00">AsyncFw::ListenSocket</text>
</a>
</g>
</g>
<!-- Node2 -->
<g id="Node000002" class="node">
<title>Node2</title>
<g id="a_Node000002"><a xlink:href="classAsyncFw_1_1AbstractSocket.html" target="_top" xlink:title="Abstract base class providing core network socket functionality and OS descriptor abstraction.">
<polygon fill="white" stroke="#666666" points="803,-90 672.25,-90 672.25,-70 803,-70 803,-90"/>
<text text-anchor="middle" x="737.62" y="-76.5" font-family="Helvetica,sans-Serif" font-size="10.00">AsyncFw::AbstractSocket</text>
</a>
</g>
</g>
<!-- Node2&#45;&gt;Node1 -->
<g id="edge1_Node000001_Node000002" class="edge">
<title>Node2&#45;&gt;Node1</title>
<g id="a_edge1_Node000001_Node000002"><a xlink:title=" ">
<path fill="none" stroke="#8b1a1a" d="M800.63,-67.25C816.34,-64.02 833.03,-60.59 848.12,-57.49"/>
<polygon fill="#8b1a1a" stroke="#8b1a1a" points="799.98,-63.81 790.89,-69.25 801.39,-70.67 799.98,-63.81"/>
</a>
</g>
</g>
<!-- Node3 -->
<g id="Node000003" class="node">
<title>Node3</title>
<g id="a_Node000003"><a xlink:href="structAsyncFw_1_1AnyData.html" target="_top" xlink:title="The AnyData class.">
<polygon fill="white" stroke="#666666" points="578.88,-128 477.38,-128 477.38,-108 578.88,-108 578.88,-128"/>
<text text-anchor="middle" x="528.12" y="-114.5" font-family="Helvetica,sans-Serif" font-size="10.00">AsyncFw::AnyData</text>
</a>
</g>
</g>
<!-- Node3&#45;&gt;Node2 -->
<g id="edge2_Node000002_Node000003" class="edge">
<title>Node3&#45;&gt;Node2</title>
<g id="a_edge2_Node000002_Node000003"><a xlink:title=" ">
<path fill="none" stroke="#63b8ff" d="M590.42,-107.45C610.75,-103.89 633.49,-99.84 654.25,-96 663.7,-94.25 673.76,-92.34 683.48,-90.47"/>
<polygon fill="#63b8ff" stroke="#63b8ff" points="589.83,-104 580.58,-109.16 591.03,-110.89 589.83,-104"/>
</a>
</g>
</g>
<!-- Node4 -->
<g id="Node000004" class="node">
<title>Node4</title>
<g id="a_Node000004"><a xlink:href="classAsyncFw_1_1Thread.html" target="_top" xlink:title="AsyncFw::Thread thread with sockets.">
<polygon fill="white" stroke="#666666" points="574.75,-90 481.5,-90 481.5,-70 574.75,-70 574.75,-90"/>
<text text-anchor="middle" x="528.12" y="-76.5" font-family="Helvetica,sans-Serif" font-size="10.00">AsyncFw::Thread</text>
</a>
</g>
</g>
<!-- Node4&#45;&gt;Node2 -->
<g id="edge3_Node000002_Node000004" class="edge">
<title>Node4&#45;&gt;Node2</title>
<g id="a_edge3_Node000002_Node000004"><a xlink:title=" ">
<path fill="none" stroke="#9a32cd" stroke-dasharray="5,2" d="M586.56,-80C613.01,-80 644.52,-80 671.82,-80"/>
<polygon fill="#9a32cd" stroke="#9a32cd" points="586.69,-76.5 576.69,-80 586.69,-83.5 586.69,-76.5"/>
</a>
</g>
<text text-anchor="middle" x="636.62" y="-82.5" font-family="Helvetica,sans-Serif" font-size="10.00" fill="grey"> thread_</text>
</g>
<!-- Node5 -->
<g id="Node000005" class="node">
<title>Node5</title>
<g id="a_Node000005"><a xlink:href="classAsyncFw_1_1AbstractThread.html" target="_top" xlink:title="The AbstractThread class provides the base functionality for thread management.">
<polygon fill="white" stroke="#666666" points="312.38,-140 182.38,-140 182.38,-120 312.38,-120 312.38,-140"/>
<text text-anchor="middle" x="247.38" y="-126.5" font-family="Helvetica,sans-Serif" font-size="10.00">AsyncFw::AbstractThread</text>
</a>
</g>
</g>
<!-- Node5&#45;&gt;Node4 -->
<g id="edge4_Node000004_Node000005" class="edge">
<title>Node5&#45;&gt;Node4</title>
<g id="a_edge4_Node000004_Node000005"><a xlink:title=" ">
<path fill="none" stroke="#63b8ff" d="M324.01,-129.59C359.21,-127.5 401.18,-122.23 437.25,-110 446.13,-106.99 446.63,-102.68 455.25,-99 463.44,-95.5 472.44,-92.51 481.21,-90.01"/>
<polygon fill="#63b8ff" stroke="#63b8ff" points="324.15,-126.08 314.35,-130.09 324.51,-133.07 324.15,-126.08"/>
</a>
</g>
</g>
<!-- Node6 -->
<g id="Node000006" class="node">
<title>Node6</title>
<g id="a_Node000006"><a xlink:href="classAsyncFw_1_1FunctionConnector.html" target="_top" xlink:title="Provides a thread&#45;safe, publisher&#45;subscriber mechanism to establish sender&#45;to&#45;receivers connections.">
<polygon fill="white" stroke="#666666" points="320.25,-59 174.5,-59 174.5,-27 320.25,-27 320.25,-59"/>
<text text-anchor="start" x="182.5" y="-45.5" font-family="Helvetica,sans-Serif" font-size="10.00">AsyncFw::FunctionConnector</text>
<text text-anchor="middle" x="247.38" y="-33.5" font-family="Helvetica,sans-Serif" font-size="10.00">&lt; Args &gt;</text>
</a>
</g>
</g>
<!-- Node6&#45;&gt;Node4 -->
<g id="edge5_Node000004_Node000006" class="edge">
<title>Node6&#45;&gt;Node4</title>
<g id="a_edge5_Node000004_Node000006"><a xlink:title=" ">
<path fill="none" stroke="#9a32cd" stroke-dasharray="5,2" d="M331.66,-56.07C333.88,-56.39 336.08,-56.7 338.25,-57 387,-63.76 442.99,-70.45 481.27,-74.85"/>
<polygon fill="#9a32cd" stroke="#9a32cd" points="332.35,-52.64 321.95,-54.66 331.34,-59.56 332.35,-52.64"/>
</a>
</g>
<text text-anchor="middle" x="387.75" y="-96.03" font-family="Helvetica,sans-Serif" font-size="10.00" fill="grey"> destroing</text>
<text text-anchor="middle" x="387.75" y="-84.03" font-family="Helvetica,sans-Serif" font-size="10.00" fill="grey">finished</text>
<text text-anchor="middle" x="387.75" y="-72.03" font-family="Helvetica,sans-Serif" font-size="10.00" fill="grey">started</text>
</g>
<!-- Node8 -->
<g id="Node000008" class="node">
<title>Node8</title>
<g id="a_Node000008"><a xlink:href="classAsyncFw_1_1FunctionConnector.html" target="_top" xlink:title=" ">
<polygon fill="white" stroke="#666666" points="601,-52 455.25,-52 455.25,-8 601,-8 601,-52"/>
<text text-anchor="start" x="463.25" y="-38.5" font-family="Helvetica,sans-Serif" font-size="10.00">AsyncFw::FunctionConnector</text>
<text text-anchor="start" x="463.25" y="-26.5" font-family="Helvetica,sans-Serif" font-size="10.00">&lt; int, const std::string</text>
<text text-anchor="middle" x="528.12" y="-14.5" font-family="Helvetica,sans-Serif" font-size="10.00"> &amp;, bool * &gt;</text>
</a>
</g>
</g>
<!-- Node6&#45;&gt;Node8 -->
<g id="edge9_Node000008_Node000006" class="edge">
<title>Node6&#45;&gt;Node8</title>
<g id="a_edge9_Node000008_Node000006"><a xlink:title=" ">
<path fill="none" stroke="orange" stroke-dasharray="5,2" d="M331.65,-33.46C333.87,-33.29 336.08,-33.14 338.25,-33 376.71,-30.56 419.65,-29.73 454.86,-29.54"/>
<polygon fill="orange" stroke="orange" points="331.62,-29.95 321.94,-34.25 332.19,-36.92 331.62,-29.95"/>
</a>
</g>
<text text-anchor="start" x="338.25" y="-47.5" font-family="Helvetica,sans-Serif" font-size="10.00" fill="grey"> &lt; int, const std::string</text>
<text text-anchor="middle" x="387.75" y="-35.5" font-family="Helvetica,sans-Serif" font-size="10.00" fill="grey"> &amp;, bool * &gt;</text>
</g>
<!-- Node7 -->
<g id="Node000007" class="node">
<title>Node7</title>
<g id="a_Node000007"><a xlink:href="classAsyncFw_1_1AbstractFunctionConnector.html" target="_top" xlink:title="The AbstractFunctionConnector class provides the base functionality for FunctionConnector.">
<polygon fill="white" stroke="#666666" points="137.5,-32 0,-32 0,0 137.5,0 137.5,-32"/>
<text text-anchor="start" x="8" y="-18.5" font-family="Helvetica,sans-Serif" font-size="10.00">AsyncFw::AbstractFunction</text>
<text text-anchor="middle" x="68.75" y="-6.5" font-family="Helvetica,sans-Serif" font-size="10.00">Connector</text>
</a>
</g>
</g>
<!-- Node7&#45;&gt;Node6 -->
<g id="edge6_Node000006_Node000007" class="edge">
<title>Node7&#45;&gt;Node6</title>
<g id="a_edge6_Node000006_Node000007"><a xlink:title=" ">
<path fill="none" stroke="#63b8ff" d="M149.12,-28.13C157.5,-29.41 165.98,-30.71 174.27,-31.98"/>
<polygon fill="#63b8ff" stroke="#63b8ff" points="149.7,-24.68 139.28,-26.63 148.64,-31.6 149.7,-24.68"/>
</a>
</g>
</g>
<!-- Node7&#45;&gt;Node8 -->
<g id="edge8_Node000008_Node000007" class="edge">
<title>Node7&#45;&gt;Node8</title>
<g id="a_edge8_Node000008_Node000007"><a xlink:title=" ">
<path fill="none" stroke="#63b8ff" d="M149.04,-15.62C198.32,-15.64 262.99,-16.11 320.25,-18 365.02,-19.48 415.17,-22.35 454.88,-24.92"/>
<polygon fill="#63b8ff" stroke="#63b8ff" points="149.33,-12.12 139.33,-15.63 149.33,-19.12 149.33,-12.12"/>
</a>
</g>
</g>
<!-- Node8&#45;&gt;Node1 -->
<g id="edge7_Node000001_Node000008" class="edge">
<title>Node8&#45;&gt;Node1</title>
<g id="a_edge7_Node000001_Node000008"><a xlink:title=" ">
<path fill="none" stroke="#9a32cd" stroke-dasharray="5,2" d="M612.61,-33.84C681.69,-37.01 778.12,-41.44 839.6,-44.26"/>
<polygon fill="#9a32cd" stroke="#9a32cd" points="613.01,-30.35 602.86,-33.39 612.68,-37.34 613.01,-30.35"/>
</a>
</g>
<text text-anchor="middle" x="737.62" y="-44.97" font-family="Helvetica,sans-Serif" font-size="10.00" fill="grey"> incoming</text>
</g>
</g>
</svg>
