<?xml version="1.0" encoding="UTF-8" standalone="no"?>
<!DOCTYPE svg PUBLIC "-//W3C//DTD SVG 1.1//EN"
 "http://www.w3.org/Graphics/SVG/1.1/DTD/svg11.dtd">
<!-- Generated by graphviz version 12.2.1 (20241206.2353)
 -->
<!-- Title: AsyncFw::Log Pages: 1 -->
<svg width="371pt" height="257pt"
 viewBox="0.00 0.00 370.50 257.00" xmlns="http://www.w3.org/2000/svg" xmlns:xlink="http://www.w3.org/1999/xlink">
<g id="graph0" class="graph" transform="scale(1 1) rotate(0) translate(4 253)">
<title>AsyncFw::Log</title>
<!-- Node1 -->
<g id="Node000001" class="node">
<title>Node1</title>
<g id="a_Node000001"><a xlink:title="Asynchronous log manager with circular database (Rrd) backend and duplicate сompression.">
<polygon fill="#999999" stroke="#666666" points="224.38,-20 145.38,-20 145.38,0 224.38,0 224.38,-20"/>
<text text-anchor="middle" x="184.88" y="-6.5" font-family="Helvetica,sans-Serif" font-size="10.00">AsyncFw::Log</text>
</a>
</g>
</g>
<!-- Node2 -->
<g id="Node000002" class="node">
<title>Node2</title>
<g id="a_Node000002"><a xlink:href="classAsyncFw_1_1Rrd.html" target="_top" xlink:title="A high&#45;performance circular database engine (Round&#45;Robin Database) for time&#45;series and structural dat...">
<polygon fill="white" stroke="#666666" points="271.38,-77 192.38,-77 192.38,-57 271.38,-57 271.38,-77"/>
<text text-anchor="middle" x="231.88" y="-63.5" font-family="Helvetica,sans-Serif" font-size="10.00">AsyncFw::Rrd</text>
</a>
</g>
</g>
<!-- Node2&#45;&gt;Node1 -->
<g id="edge1_Node000001_Node000002" class="edge">
<title>Node2&#45;&gt;Node1</title>
<g id="a_edge1_Node000001_Node000002"><a xlink:title=" ">
<path fill="none" stroke="#63b8ff" d="M216.8,-48.36C208.82,-39.02 199.35,-27.94 192.8,-20.28"/>
<polygon fill="#63b8ff" stroke="#63b8ff" points="213.97,-50.44 223.13,-55.77 219.29,-45.89 213.97,-50.44"/>
</a>
</g>
</g>
<!-- Node3 -->
<g id="Node000003" class="node">
<title>Node3</title>
<g id="a_Node000003"><a xlink:href="classAsyncFw_1_1FunctionConnector.html" target="_top" xlink:title="Provides a thread&#45;safe, publisher&#45;subscriber mechanism to establish sender&#45;to&#45;receivers connections.">
<polygon fill="white" stroke="#666666" points="145.75,-249 0,-249 0,-217 145.75,-217 145.75,-249"/>
<text text-anchor="start" x="8" y="-235.5" font-family="Helvetica,sans-Serif" font-size="10.00">AsyncFw::FunctionConnector</text>
<text text-anchor="middle" x="72.88" y="-223.5" font-family="Helvetica,sans-Serif" font-size="10.00">&lt; Args &gt;</text>
</a>
</g>
</g>
<!-- Node3&#45;&gt;Node2 -->
<g id="edge2_Node000002_Node000003" class="edge">
<title>Node3&#45;&gt;Node2</title>
<g id="a_edge2_Node000002_Node000003"><a xlink:title=" ">
<path fill="none" stroke="#9a32cd" stroke-dasharray="5,2" d="M68.32,-205.39C65.82,-182.26 65.86,-148.83 81.38,-125 93.84,-105.86 151.77,-87.92 192.01,-77.45"/>
<polygon fill="#9a32cd" stroke="#9a32cd" points="64.84,-205.79 69.64,-215.24 71.78,-204.86 64.84,-205.79"/>
</a>
</g>
<text text-anchor="middle" x="100.12" y="-131.5" font-family="Helvetica,sans-Serif" font-size="10.00" fill="grey"> updated</text>
</g>
<!-- Node4 -->
<g id="Node000004" class="node">
<title>Node4</title>
<g id="a_Node000004"><a xlink:href="classAsyncFw_1_1Thread.html" target="_top" xlink:title="AsyncFw::Thread thread with sockets.">
<polygon fill="white" stroke="#666666" points="221.5,-145 128.25,-145 128.25,-125 221.5,-125 221.5,-145"/>
<text text-anchor="middle" x="174.88" y="-131.5" font-family="Helvetica,sans-Serif" font-size="10.00">AsyncFw::Thread</text>
</a>
</g>
</g>
<!-- Node3&#45;&gt;Node4 -->
<g id="edge5_Node000004_Node000003" class="edge">
<title>Node3&#45;&gt;Node4</title>
<g id="a_edge5_Node000004_Node000003"><a xlink:title=" ">
<path fill="none" stroke="#9a32cd" stroke-dasharray="5,2" d="M96.23,-208.82C110.01,-195.29 127.88,-177.98 144.12,-163 150.6,-157.03 158.02,-150.51 163.94,-145.37"/>
<polygon fill="#9a32cd" stroke="#9a32cd" points="93.98,-206.13 89.31,-215.64 98.89,-211.11 93.98,-206.13"/>
</a>
</g>
<text text-anchor="middle" x="165.5" y="-189.5" font-family="Helvetica,sans-Serif" font-size="10.00" fill="grey"> destroing</text>
<text text-anchor="middle" x="165.5" y="-177.5" font-family="Helvetica,sans-Serif" font-size="10.00" fill="grey">finished</text>
<text text-anchor="middle" x="165.5" y="-165.5" font-family="Helvetica,sans-Serif" font-size="10.00" fill="grey">started</text>
</g>
<!-- Node4&#45;&gt;Node2 -->
<g id="edge3_Node000002_Node000004" class="edge">
<title>Node4&#45;&gt;Node2</title>
<g id="a_edge3_Node000002_Node000004"><a xlink:title=" ">
<path fill="none" stroke="#9a32cd" stroke-dasharray="5,2" d="M190.52,-115.88C201.27,-103.44 215.09,-87.43 223.72,-77.44"/>
<polygon fill="#9a32cd" stroke="#9a32cd" points="187.92,-113.54 184.03,-123.4 193.22,-118.12 187.92,-113.54"/>
</a>
</g>
<text text-anchor="middle" x="226.11" y="-97.5" font-family="Helvetica,sans-Serif" font-size="10.00" fill="grey"> thread_</text>
</g>
<!-- Node7 -->
<g id="Node000007" class="node">
<title>Node7</title>
<g id="a_Node000007"><a xlink:href="classAsyncFw_1_1AbstractLog.html" target="_top" xlink:title="The AbstractLog class provides the core thread&#45;safe infrastructure for log management and duplicate r...">
<polygon fill="white" stroke="#666666" points="174.75,-77 59,-77 59,-57 174.75,-57 174.75,-77"/>
<text text-anchor="middle" x="116.88" y="-63.5" font-family="Helvetica,sans-Serif" font-size="10.00">AsyncFw::AbstractLog</text>
</a>
</g>
</g>
<!-- Node4&#45;&gt;Node7 -->
<g id="edge8_Node000007_Node000004" class="edge">
<title>Node4&#45;&gt;Node7</title>
<g id="a_edge8_Node000007_Node000004"><a xlink:title=" ">
<path fill="none" stroke="#9a32cd" stroke-dasharray="5,2" d="M159.28,-116.25C148.3,-103.76 134.04,-87.53 125.17,-77.44"/>
<polygon fill="#9a32cd" stroke="#9a32cd" points="156.34,-118.21 165.57,-123.41 161.59,-113.58 156.34,-118.21"/>
</a>
</g>
<text text-anchor="middle" x="168.69" y="-97.5" font-family="Helvetica,sans-Serif" font-size="10.00" fill="grey"> thread_</text>
</g>
<!-- Node5 -->
<g id="Node000005" class="node">
<title>Node5</title>
<g id="a_Node000005"><a xlink:href="classAsyncFw_1_1AbstractThread.html" target="_top" xlink:title="The AbstractThread class provides the base functionality for thread management.">
<polygon fill="white" stroke="#666666" points="293.88,-243 163.88,-243 163.88,-223 293.88,-223 293.88,-243"/>
<text text-anchor="middle" x="228.88" y="-229.5" font-family="Helvetica,sans-Serif" font-size="10.00">AsyncFw::AbstractThread</text>
</a>
</g>
</g>
<!-- Node5&#45;&gt;Node4 -->
<g id="edge4_Node000004_Node000005" class="edge">
<title>Node5&#45;&gt;Node4</title>
<g id="a_edge4_Node000004_Node000005"><a xlink:title=" ">
<path fill="none" stroke="#63b8ff" d="M218.2,-213.02C206.71,-192.59 188.89,-160.91 180.12,-145.32"/>
<polygon fill="#63b8ff" stroke="#63b8ff" points="215,-214.48 222.96,-221.48 221.1,-211.04 215,-214.48"/>
</a>
</g>
</g>
<!-- Node6 -->
<g id="Node000006" class="node">
<title>Node6</title>
<g id="a_Node000006"><a xlink:href="classAsyncFw_1_1DataArrayList.html" target="_top" xlink:title="A specialized container aggregating multiple DataArray instances.">
<polygon fill="white" stroke="#666666" points="362.5,-145 239.25,-145 239.25,-125 362.5,-125 362.5,-145"/>
<text text-anchor="middle" x="300.88" y="-131.5" font-family="Helvetica,sans-Serif" font-size="10.00">AsyncFw::DataArrayList</text>
</a>
</g>
</g>
<!-- Node6&#45;&gt;Node2 -->
<g id="edge6_Node000002_Node000006" class="edge">
<title>Node6&#45;&gt;Node2</title>
<g id="a_edge6_Node000002_Node000006"><a xlink:title=" ">
<path fill="none" stroke="#9a32cd" stroke-dasharray="5,2" d="M282.7,-116.61C269.59,-104.07 252.39,-87.63 241.74,-77.44"/>
<polygon fill="#9a32cd" stroke="#9a32cd" points="280.25,-119.11 289.9,-123.5 285.09,-114.06 280.25,-119.11"/>
</a>
</g>
<text text-anchor="middle" x="294.68" y="-97.5" font-family="Helvetica,sans-Serif" font-size="10.00" fill="grey"> dataBase</text>
</g>
<!-- Node7&#45;&gt;Node1 -->
<g id="edge7_Node000001_Node000007" class="edge">
<title>Node7&#45;&gt;Node1</title>
<g id="a_edge7_Node000001_Node000007"><a xlink:title=" ">
<path fill="none" stroke="#63b8ff" d="M137.22,-49.54C149.1,-39.94 163.64,-28.18 173.51,-20.19"/>
<polygon fill="#63b8ff" stroke="#63b8ff" points="135.16,-46.71 129.59,-55.72 139.56,-52.15 135.16,-46.71"/>
</a>
</g>
</g>
</g>
</svg>
