<?xml version="1.0" encoding="UTF-8" standalone="no"?>
<!DOCTYPE svg PUBLIC "-//W3C//DTD SVG 1.1//EN"
 "http://www.w3.org/Graphics/SVG/1.1/DTD/svg11.dtd">
<!-- Generated by graphviz version 12.2.1 (20241206.2353)
 -->
<!-- Title: AsyncFw::FunctionConnector&lt; Args &gt; Pages: 1 -->
<svg width="154pt" height="189pt"
 viewBox="0.00 0.00 153.75 189.00" xmlns="http://www.w3.org/2000/svg" xmlns:xlink="http://www.w3.org/1999/xlink">
<g id="graph0" class="graph" transform="scale(1 1) rotate(0) translate(4 185)">
<title>AsyncFw::FunctionConnector&lt; Args &gt;</title>
<!-- Node1 -->
<g id="Node000001" class="node">
<title>Node1</title>
<g id="a_Node000001"><a xlink:title="Обеспечивает соединение отправитель &#45;&gt; получатели. Получатели могут быть вызваны в своих потоках (по ...">
<polygon fill="#999999" stroke="#666666" points="145.75,-112 0,-112 0,-80 145.75,-80 145.75,-112"/>
<text text-anchor="start" x="8" y="-98.5" font-family="Helvetica,sans-Serif" font-size="10.00">AsyncFw::FunctionConnector</text>
<text text-anchor="middle" x="72.88" y="-86.5" font-family="Helvetica,sans-Serif" font-size="10.00">&lt; Args &gt;</text>
</a>
</g>
</g>
<!-- Node3 -->
<g id="Node000003" class="node">
<title>Node3</title>
<g id="a_Node000003"><a xlink:href="classAsyncFw_1_1FunctionConnector.html" target="_top" xlink:title=" ">
<polygon fill="white" stroke="#666666" points="145.75,-32 0,-32 0,0 145.75,0 145.75,-32"/>
<text text-anchor="start" x="8" y="-18.5" font-family="Helvetica,sans-Serif" font-size="10.00">AsyncFw::FunctionConnector</text>
<text text-anchor="middle" x="72.88" y="-6.5" font-family="Helvetica,sans-Serif" font-size="10.00">&lt; Args... &gt;</text>
</a>
</g>
</g>
<!-- Node1&#45;&gt;Node3 -->
<g id="edge2_Node000001_Node000003" class="edge">
<title>Node1&#45;&gt;Node3</title>
<g id="a_edge2_Node000001_Node000003"><a xlink:title=" ">
<path fill="none" stroke="orange" stroke-dasharray="5,2" d="M72.88,-68.37C72.88,-56.37 72.88,-42.63 72.88,-32.38"/>
<polygon fill="orange" stroke="orange" points="69.38,-68.08 72.88,-78.08 76.38,-68.08 69.38,-68.08"/>
</a>
</g>
<text text-anchor="middle" x="97.62" y="-52.5" font-family="Helvetica,sans-Serif" font-size="10.00" fill="grey"> &lt; Args... &gt;</text>
</g>
<!-- Node2 -->
<g id="Node000002" class="node">
<title>Node2</title>
<g id="a_Node000002"><a xlink:href="classAsyncFw_1_1AbstractFunctionConnector.html" target="_top" xlink:title="The AbstractFunctionConnector class provides the base functionality for FunctionConnector.">
<polygon fill="white" stroke="#666666" points="141.62,-181 4.12,-181 4.12,-149 141.62,-149 141.62,-181"/>
<text text-anchor="start" x="12.12" y="-167.5" font-family="Helvetica,sans-Serif" font-size="10.00">AsyncFw::AbstractFunction</text>
<text text-anchor="middle" x="72.88" y="-155.5" font-family="Helvetica,sans-Serif" font-size="10.00">Connector</text>
</a>
</g>
</g>
<!-- Node2&#45;&gt;Node1 -->
<g id="edge1_Node000001_Node000002" class="edge">
<title>Node2&#45;&gt;Node1</title>
<g id="a_edge1_Node000001_Node000002"><a xlink:title=" ">
<path fill="none" stroke="#63b8ff" d="M72.88,-137.35C72.88,-128.78 72.88,-119.59 72.88,-112.14"/>
<polygon fill="#63b8ff" stroke="#63b8ff" points="69.38,-137.28 72.88,-147.28 76.38,-137.28 69.38,-137.28"/>
</a>
</g>
</g>
</g>
</svg>
