<?xml version="1.0" encoding="UTF-8" standalone="no"?>
<!DOCTYPE svg PUBLIC "-//W3C//DTD SVG 1.1//EN"
 "http://www.w3.org/Graphics/SVG/1.1/DTD/svg11.dtd">
<!-- Generated by graphviz version 14.1.3 (20260303.0454)
 -->
<!-- Title: AsyncFw::Thread::Thread Pages: 1 -->
<svg width="776pt" height="192pt"
 viewBox="0.00 0.00 776.00 192.00" xmlns="http://www.w3.org/2000/svg" xmlns:xlink="http://www.w3.org/1999/xlink">
<g id="graph0" class="graph" transform="scale(1 1) rotate(0) translate(4 188)">
<title>AsyncFw::Thread::Thread</title>
<!-- Node1 -->
<g id="Node000001" class="node">
<title>Node1</title>
<g id="a_Node000001"><a xlink:title="Constructs a thread.">
<polygon fill="#999999" stroke="#666666" points="767.75,-118 638.5,-118 638.5,-98 767.75,-98 767.75,-118"/>
<text xml:space="preserve" text-anchor="middle" x="703.12" y="-104.5" font-family="Helvetica,sans-Serif" font-size="10.00">AsyncFw::Thread::Thread</text>
</a>
</g>
</g>
<!-- Node2 -->
<g id="Node000002" class="node">
<title>Node2</title>
<g id="a_Node000002"><a xlink:href="classAsyncFw_1_1Thread.html#a0a3bd6a54db28f73ff59cfea6a40b07a" target="_top" xlink:title="Returns a pointer to the AsyncFw::Thread that manages the currently executing thread.">
<polygon fill="white" stroke="#666666" points="602.5,-118 473.25,-118 473.25,-98 602.5,-98 602.5,-118"/>
<text xml:space="preserve" text-anchor="middle" x="537.88" y="-104.5" font-family="Helvetica,sans-Serif" font-size="10.00">AsyncFw::Thread::current</text>
</a>
</g>
</g>
<!-- Node1&#45;&gt;Node2 -->
<g id="edge1_Node000001_Node000002" class="edge">
<title>Node1&#45;&gt;Node2</title>
<g id="a_edge1_Node000001_Node000002"><a xlink:title=" ">
<path fill="none" stroke="#63b8ff" d="M626.79,-108C618.75,-108 610.63,-108 602.74,-108"/>
<polygon fill="#63b8ff" stroke="#63b8ff" points="626.56,-111.5 636.56,-108 626.56,-104.5 626.56,-111.5"/>
</a>
</g>
</g>
<!-- Node3 -->
<g id="Node000003" class="node">
<title>Node3</title>
<g id="a_Node000003"><a xlink:href="classAsyncFw_1_1AbstractSocket.html#a73a200f0008dbf9f820bdb2b8a0054cf" target="_top" xlink:title="Schedules the socket for deferred asynchronous destruction.">
<polygon fill="white" stroke="#666666" points="437.25,-165 306.5,-165 306.5,-133 437.25,-133 437.25,-165"/>
<text xml:space="preserve" text-anchor="start" x="314.5" y="-151.5" font-family="Helvetica,sans-Serif" font-size="10.00">AsyncFw::AbstractSocket</text>
<text xml:space="preserve" text-anchor="middle" x="371.88" y="-139.5" font-family="Helvetica,sans-Serif" font-size="10.00">::destroy</text>
</a>
</g>
</g>
<!-- Node2&#45;&gt;Node3 -->
<g id="edge2_Node000002_Node000003" class="edge">
<title>Node2&#45;&gt;Node3</title>
<g id="a_edge2_Node000002_Node000003"><a xlink:title=" ">
<path fill="none" stroke="#63b8ff" d="M484.06,-121.2C469.25,-124.91 452.98,-128.97 437.57,-132.83"/>
<polygon fill="#63b8ff" stroke="#63b8ff" points="484.75,-124.64 493.6,-118.82 483.05,-117.85 484.75,-124.64"/>
</a>
</g>
</g>
<!-- Node6 -->
<g id="Node000006" class="node">
<title>Node6</title>
<g id="a_Node000006"><a xlink:href="classAsyncFw_1_1Rrd.html#a2fd20dd3470a11ef179577c565c333f1" target="_top" xlink:title="Constructs a persistent circular archive database with physical disk backing.">
<polygon fill="white" stroke="#666666" points="422.25,-96 321.5,-96 321.5,-76 422.25,-76 422.25,-96"/>
<text xml:space="preserve" text-anchor="middle" x="371.88" y="-82.5" font-family="Helvetica,sans-Serif" font-size="10.00">AsyncFw::Rrd::Rrd</text>
</a>
</g>
</g>
<!-- Node2&#45;&gt;Node6 -->
<g id="edge5_Node000002_Node000006" class="edge">
<title>Node2&#45;&gt;Node6</title>
<g id="a_edge5_Node000002_Node000006"><a xlink:title=" ">
<path fill="none" stroke="#63b8ff" d="M461.9,-97.94C448.58,-96.16 435.01,-94.34 422.61,-92.67"/>
<polygon fill="#63b8ff" stroke="#63b8ff" points="461.12,-101.37 471.5,-99.23 462.05,-94.43 461.12,-101.37"/>
</a>
</g>
</g>
<!-- Node4 -->
<g id="Node000004" class="node">
<title>Node4</title>
<g id="a_Node000004"><a xlink:href="classAsyncFw_1_1HttpSocket.html#a8268467d3581a4d393e9ccd288de32ff" target="_top" xlink:title="Schedules the socket for deferred asynchronous destruction.">
<polygon fill="white" stroke="#666666" points="270.5,-184 157.75,-184 157.75,-152 270.5,-152 270.5,-184"/>
<text xml:space="preserve" text-anchor="start" x="165.75" y="-170.5" font-family="Helvetica,sans-Serif" font-size="10.00">AsyncFw::HttpSocket</text>
<text xml:space="preserve" text-anchor="middle" x="214.12" y="-158.5" font-family="Helvetica,sans-Serif" font-size="10.00">::destroy</text>
</a>
</g>
</g>
<!-- Node3&#45;&gt;Node4 -->
<g id="edge3_Node000003_Node000004" class="edge">
<title>Node3&#45;&gt;Node4</title>
<g id="a_edge3_Node000003_Node000004"><a xlink:title=" ">
<path fill="none" stroke="#63b8ff" d="M294.84,-158.28C286.79,-159.26 278.71,-160.24 270.95,-161.19"/>
<polygon fill="#63b8ff" stroke="#63b8ff" points="295.17,-161.76 304.67,-157.08 294.32,-154.81 295.17,-161.76"/>
</a>
</g>
</g>
<!-- Node5 -->
<g id="Node000005" class="node">
<title>Node5</title>
<g id="a_Node000005"><a xlink:href="classAsyncFw_1_1HttpServer_1_1TcpSocket.html#a41557b69e30e25b97cbdda210afb7657" target="_top" xlink:title="Constructs a new TcpSocket associated with the parent server.">
<polygon fill="white" stroke="#666666" points="120.62,-184 1.12,-184 1.12,-152 120.62,-152 120.62,-184"/>
<text xml:space="preserve" text-anchor="start" x="9.12" y="-170.5" font-family="Helvetica,sans-Serif" font-size="10.00">AsyncFw::HttpServer</text>
<text xml:space="preserve" text-anchor="middle" x="60.88" y="-158.5" font-family="Helvetica,sans-Serif" font-size="10.00">::TcpSocket::TcpSocket</text>
</a>
</g>
</g>
<!-- Node4&#45;&gt;Node5 -->
<g id="edge4_Node000004_Node000005" class="edge">
<title>Node4&#45;&gt;Node5</title>
<g id="a_edge4_Node000004_Node000005"><a xlink:title=" ">
<path fill="none" stroke="#63b8ff" d="M146.27,-168C137.81,-168 129.21,-168 120.89,-168"/>
<polygon fill="#63b8ff" stroke="#63b8ff" points="146.15,-171.5 156.15,-168 146.15,-164.5 146.15,-171.5"/>
</a>
</g>
</g>
<!-- Node7 -->
<g id="Node000007" class="node">
<title>Node7</title>
<g id="a_Node000007"><a xlink:href="classAsyncFw_1_1Log.html#a832d13f4e9231eee37d8decb5b9b96d7" target="_top" xlink:title="Constructs a persistent log system with a specific circular database size and file name context.">
<polygon fill="white" stroke="#666666" points="264.5,-134 163.75,-134 163.75,-114 264.5,-114 264.5,-134"/>
<text xml:space="preserve" text-anchor="middle" x="214.12" y="-120.5" font-family="Helvetica,sans-Serif" font-size="10.00">AsyncFw::Log::Log</text>
</a>
</g>
</g>
<!-- Node6&#45;&gt;Node7 -->
<g id="edge6_Node000006_Node000007" class="edge">
<title>Node6&#45;&gt;Node7</title>
<g id="a_edge6_Node000006_Node000007"><a xlink:title=" ">
<path fill="none" stroke="#63b8ff" d="M316.85,-99.18C297.58,-103.88 276.15,-109.11 257.96,-113.55"/>
<polygon fill="#63b8ff" stroke="#63b8ff" points="317.55,-102.61 326.43,-96.84 315.89,-95.81 317.55,-102.61"/>
</a>
</g>
</g>
<!-- Node9 -->
<g id="Node000009" class="node">
<title>Node9</title>
<g id="a_Node000009"><a xlink:href="classAsyncFw_1_1Rrd.html#aa54ae298c96e9efe88b644931b12f734" target="_top" xlink:title="Constructs a minimal in&#45;memory anonymous circular database with default system tracking intervals.">
<polygon fill="white" stroke="#666666" points="264.5,-96 163.75,-96 163.75,-76 264.5,-76 264.5,-96"/>
<text xml:space="preserve" text-anchor="middle" x="214.12" y="-82.5" font-family="Helvetica,sans-Serif" font-size="10.00">AsyncFw::Rrd::Rrd</text>
</a>
</g>
</g>
<!-- Node6&#45;&gt;Node9 -->
<g id="edge8_Node000006_Node000009" class="edge">
<title>Node6&#45;&gt;Node9</title>
<g id="a_edge8_Node000006_Node000009"><a xlink:title=" ">
<path fill="none" stroke="#63b8ff" d="M309.96,-86C295.03,-86 279.23,-86 264.9,-86"/>
<polygon fill="#63b8ff" stroke="#63b8ff" points="309.65,-89.5 319.65,-86 309.65,-82.5 309.65,-89.5"/>
</a>
</g>
</g>
<!-- Node10 -->
<g id="Node000010" class="node">
<title>Node10</title>
<g id="a_Node000010"><a xlink:href="classAsyncFw_1_1Rrd.html#aaea6a63444ab427f801be34f26d930d5" target="_top" xlink:title="Constructs a persistent circular archive database using default system tracking intervals.">
<polygon fill="white" stroke="#666666" points="264.5,-58 163.75,-58 163.75,-38 264.5,-38 264.5,-58"/>
<text xml:space="preserve" text-anchor="middle" x="214.12" y="-44.5" font-family="Helvetica,sans-Serif" font-size="10.00">AsyncFw::Rrd::Rrd</text>
</a>
</g>
</g>
<!-- Node6&#45;&gt;Node10 -->
<g id="edge9_Node000006_Node000010" class="edge">
<title>Node6&#45;&gt;Node10</title>
<g id="a_edge9_Node000006_Node000010"><a xlink:title=" ">
<path fill="none" stroke="#63b8ff" d="M316.85,-72.82C297.58,-68.12 276.15,-62.89 257.96,-58.45"/>
<polygon fill="#63b8ff" stroke="#63b8ff" points="315.89,-76.19 326.43,-75.16 317.55,-69.39 315.89,-76.19"/>
</a>
</g>
</g>
<!-- Node11 -->
<g id="Node000011" class="node">
<title>Node11</title>
<g id="a_Node000011"><a xlink:href="classAsyncFw_1_1Rrd.html#a98c7829cc6177c80245cf95095deb3ba" target="_top" xlink:title="Constructs an in&#45;memory anonymous circular database without file serialization.">
<polygon fill="white" stroke="#666666" points="264.5,-20 163.75,-20 163.75,0 264.5,0 264.5,-20"/>
<text xml:space="preserve" text-anchor="middle" x="214.12" y="-6.5" font-family="Helvetica,sans-Serif" font-size="10.00">AsyncFw::Rrd::Rrd</text>
</a>
</g>
</g>
<!-- Node6&#45;&gt;Node11 -->
<g id="edge10_Node000006_Node000011" class="edge">
<title>Node6&#45;&gt;Node11</title>
<g id="a_edge10_Node000006_Node000011"><a xlink:title=" ">
<path fill="none" stroke="#63b8ff" d="M345.12,-69.6C325.25,-57.39 296.79,-40.85 270.5,-29 263.64,-25.91 256.12,-23.02 248.9,-20.47"/>
<polygon fill="#63b8ff" stroke="#63b8ff" points="343.05,-72.44 353.39,-74.75 346.75,-66.49 343.05,-72.44"/>
</a>
</g>
</g>
<!-- Node8 -->
<g id="Node000008" class="node">
<title>Node8</title>
<g id="a_Node000008"><a xlink:href="classAsyncFw_1_1Log.html#a00e9a20e7303e9a24403046af176b6b2" target="_top" xlink:title="Global service locator shortcut to fetch the current engine&#45;wide default log pointer.">
<polygon fill="white" stroke="#666666" points="121.75,-134 0,-134 0,-114 121.75,-114 121.75,-134"/>
<text xml:space="preserve" text-anchor="middle" x="60.88" y="-120.5" font-family="Helvetica,sans-Serif" font-size="10.00">AsyncFw::Log::instance</text>
</a>
</g>
</g>
<!-- Node7&#45;&gt;Node8 -->
<g id="edge7_Node000007_Node000008" class="edge">
<title>Node7&#45;&gt;Node8</title>
<g id="a_edge7_Node000007_Node000008"><a xlink:title=" ">
<path fill="none" stroke="#63b8ff" d="M152.16,-124C142.24,-124 131.97,-124 122.07,-124"/>
<polygon fill="#63b8ff" stroke="#63b8ff" points="152.09,-127.5 162.09,-124 152.09,-120.5 152.09,-127.5"/>
</a>
</g>
</g>
</g>
</svg>
