<?xml version="1.0" encoding="UTF-8" standalone="no"?>
<!DOCTYPE svg PUBLIC "-//W3C//DTD SVG 1.1//EN"
 "http://www.w3.org/Graphics/SVG/1.1/DTD/svg11.dtd">
<!-- Generated by graphviz version 14.1.3 (20260303.0454)
 -->
<!-- Title: AsyncFw::AbstractSocket::read_available_fd Pages: 1 -->
<svg width="493pt" height="140pt"
 viewBox="0.00 0.00 493.00 140.00" xmlns="http://www.w3.org/2000/svg" xmlns:xlink="http://www.w3.org/1999/xlink">
<g id="graph0" class="graph" transform="scale(1 1) rotate(0) translate(4 136)">
<title>AsyncFw::AbstractSocket::read_available_fd</title>
<!-- Node1 -->
<g id="Node000001" class="node">
<title>Node1</title>
<g id="a_Node000001"><a xlink:title="Low&#45;level system call that checks whether a file descriptor contains data.">
<polygon fill="#999999" stroke="#666666" points="485.25,-82 354.5,-82 354.5,-50 485.25,-50 485.25,-82"/>
<text xml:space="preserve" text-anchor="start" x="362.5" y="-68.5" font-family="Helvetica,sans-Serif" font-size="10.00">AsyncFw::AbstractSocket</text>
<text xml:space="preserve" text-anchor="middle" x="419.88" y="-56.5" font-family="Helvetica,sans-Serif" font-size="10.00">::read_available_fd</text>
</a>
</g>
</g>
<!-- Node2 -->
<g id="Node000002" class="node">
<title>Node2</title>
<g id="a_Node000002"><a xlink:href="classAsyncFw_1_1AbstractTlsSocket.html#a57ac6daff9926cf631abcd1e19073cc8" target="_top" xlink:title="Core internal event handler reacting to raw descriptor readiness signals.">
<polygon fill="white" stroke="#666666" points="318.5,-132 174.25,-132 174.25,-100 318.5,-100 318.5,-132"/>
<text xml:space="preserve" text-anchor="start" x="182.25" y="-118.5" font-family="Helvetica,sans-Serif" font-size="10.00">AsyncFw::AbstractTlsSocket</text>
<text xml:space="preserve" text-anchor="middle" x="246.38" y="-106.5" font-family="Helvetica,sans-Serif" font-size="10.00">::activateEvent</text>
</a>
</g>
</g>
<!-- Node1&#45;&gt;Node2 -->
<g id="edge1_Node000001_Node000002" class="edge">
<title>Node1&#45;&gt;Node2</title>
<g id="a_edge1_Node000001_Node000002"><a xlink:title=" ">
<path fill="none" stroke="#63b8ff" d="M351.91,-85.52C336.05,-90.15 319.29,-95.03 303.95,-99.51"/>
<polygon fill="#63b8ff" stroke="#63b8ff" points="352.65,-88.95 361.27,-82.8 350.69,-82.23 352.65,-88.95"/>
</a>
</g>
</g>
<!-- Node4 -->
<g id="Node000004" class="node">
<title>Node4</title>
<g id="a_Node000004"><a xlink:href="classAsyncFw_1_1AbstractSocket.html#a75415b9f0ecc82b703e49ad8abf1f3a8" target="_top" xlink:title="Returns the number of bytes of data pending to be read.">
<polygon fill="white" stroke="#666666" points="311.75,-82 181,-82 181,-50 311.75,-50 311.75,-82"/>
<text xml:space="preserve" text-anchor="start" x="189" y="-68.5" font-family="Helvetica,sans-Serif" font-size="10.00">AsyncFw::AbstractSocket</text>
<text xml:space="preserve" text-anchor="middle" x="246.38" y="-56.5" font-family="Helvetica,sans-Serif" font-size="10.00">::pendingRead</text>
</a>
</g>
</g>
<!-- Node1&#45;&gt;Node4 -->
<g id="edge3_Node000001_Node000004" class="edge">
<title>Node1&#45;&gt;Node4</title>
<g id="a_edge3_Node000001_Node000004"><a xlink:title=" ">
<path fill="none" stroke="#63b8ff" d="M342.62,-66C332.4,-66 322.01,-66 312.02,-66"/>
<polygon fill="#63b8ff" stroke="#63b8ff" points="342.52,-69.5 352.52,-66 342.52,-62.5 342.52,-69.5"/>
</a>
</g>
</g>
<!-- Node6 -->
<g id="Node000006" class="node">
<title>Node6</title>
<g id="a_Node000006"><a xlink:href="classAsyncFw_1_1AbstractTlsSocket.html#a7244e3b461e0012dab1d9c3b1c0db78e" target="_top" xlink:title="Calculates how many unread bytes are currently waiting within the active OpenSSL decrypted layer buff...">
<polygon fill="white" stroke="#666666" points="318.5,-32 174.25,-32 174.25,0 318.5,0 318.5,-32"/>
<text xml:space="preserve" text-anchor="start" x="182.25" y="-18.5" font-family="Helvetica,sans-Serif" font-size="10.00">AsyncFw::AbstractTlsSocket</text>
<text xml:space="preserve" text-anchor="middle" x="246.38" y="-6.5" font-family="Helvetica,sans-Serif" font-size="10.00">::read_available_fd</text>
</a>
</g>
</g>
<!-- Node1&#45;&gt;Node6 -->
<g id="edge5_Node000001_Node000006" class="edge">
<title>Node1&#45;&gt;Node6</title>
<g id="a_edge5_Node000001_Node000006"><a xlink:title=" ">
<path fill="none" stroke="#63b8ff" d="M351.91,-46.48C336.05,-41.85 319.29,-36.97 303.95,-32.49"/>
<polygon fill="#63b8ff" stroke="#63b8ff" points="350.69,-49.77 361.27,-49.2 352.65,-43.05 350.69,-49.77"/>
</a>
</g>
</g>
<!-- Node3 -->
<g id="Node000003" class="node">
<title>Node3</title>
<g id="a_Node000003"><a xlink:href="classAsyncFw_1_1HttpSocket.html#ad51bb1bf5880c3037c7ad70231c0767d" target="_top" xlink:title="Core internal event handler reacting to raw descriptor readiness signals.">
<polygon fill="white" stroke="#666666" points="125.5,-132 12.75,-132 12.75,-100 125.5,-100 125.5,-132"/>
<text xml:space="preserve" text-anchor="start" x="20.75" y="-118.5" font-family="Helvetica,sans-Serif" font-size="10.00">AsyncFw::HttpSocket</text>
<text xml:space="preserve" text-anchor="middle" x="69.12" y="-106.5" font-family="Helvetica,sans-Serif" font-size="10.00">::activateEvent</text>
</a>
</g>
</g>
<!-- Node2&#45;&gt;Node3 -->
<g id="edge2_Node000002_Node000003" class="edge">
<title>Node2&#45;&gt;Node3</title>
<g id="a_edge2_Node000002_Node000003"><a xlink:title=" ">
<path fill="none" stroke="#63b8ff" d="M162.5,-116C150.08,-116 137.54,-116 125.87,-116"/>
<polygon fill="#63b8ff" stroke="#63b8ff" points="162.33,-119.5 172.33,-116 162.33,-112.5 162.33,-119.5"/>
</a>
</g>
</g>
<!-- Node5 -->
<g id="Node000005" class="node">
<title>Node5</title>
<g id="a_Node000005"><a xlink:href="classAsyncFw_1_1DataArraySocket.html#a1a1f3404abcb93af27de1d7bc0a958b1" target="_top" xlink:title="Called when there is data to read.">
<polygon fill="white" stroke="#666666" points="138.25,-82 0,-82 0,-50 138.25,-50 138.25,-82"/>
<text xml:space="preserve" text-anchor="start" x="8" y="-68.5" font-family="Helvetica,sans-Serif" font-size="10.00">AsyncFw::DataArraySocket</text>
<text xml:space="preserve" text-anchor="middle" x="69.12" y="-56.5" font-family="Helvetica,sans-Serif" font-size="10.00">::readEvent</text>
</a>
</g>
</g>
<!-- Node4&#45;&gt;Node5 -->
<g id="edge4_Node000004_Node000005" class="edge">
<title>Node4&#45;&gt;Node5</title>
<g id="a_edge4_Node000004_Node000005"><a xlink:title=" ">
<path fill="none" stroke="#63b8ff" d="M169.27,-66C159.11,-66 148.75,-66 138.73,-66"/>
<polygon fill="#63b8ff" stroke="#63b8ff" points="169.1,-69.5 179.1,-66 169.1,-62.5 169.1,-69.5"/>
</a>
</g>
</g>
</g>
</svg>
