<?xml version="1.0" encoding="UTF-8" standalone="no"?>
<!DOCTYPE svg PUBLIC "-//W3C//DTD SVG 1.1//EN"
 "http://www.w3.org/Graphics/SVG/1.1/DTD/svg11.dtd">
<!-- Generated by graphviz version 14.1.3 (20260303.0454)
 -->
<!-- Title: AsyncFw::AbstractThread::AbstractThread Pages: 1 -->
<svg width="980pt" height="523pt"
 viewBox="0.00 0.00 980.00 523.00" xmlns="http://www.w3.org/2000/svg" xmlns:xlink="http://www.w3.org/1999/xlink">
<g id="graph0" class="graph" transform="scale(1 1) rotate(0) translate(4 519)">
<title>AsyncFw::AbstractThread::AbstractThread</title>
<!-- Node1 -->
<g id="Node000001" class="node">
<title>Node1</title>
<g id="a_Node000001"><a xlink:title="Constructs a thread.">
<polygon fill="#999999" stroke="#666666" points="972,-242 842,-242 842,-210 972,-210 972,-242"/>
<text xml:space="preserve" text-anchor="start" x="850" y="-228.5" font-family="Helvetica,sans-Serif" font-size="10.00">AsyncFw::AbstractThread</text>
<text xml:space="preserve" text-anchor="middle" x="907" y="-216.5" font-family="Helvetica,sans-Serif" font-size="10.00">::AbstractThread</text>
</a>
</g>
</g>
<!-- Node2 -->
<g id="Node000002" class="node">
<title>Node2</title>
<g id="a_Node000002"><a xlink:href="classAsyncFw_1_1AbstractThread_1_1Waiter.html#af91079f02392dbcccd1ef5f99acb53f7" target="_top" xlink:title="Signals task completion and initiates a safe exit sequence from the sub&#45;loop.">
<polygon fill="white" stroke="#666666" points="806,-308 676,-308 676,-276 806,-276 806,-308"/>
<text xml:space="preserve" text-anchor="start" x="684" y="-294.5" font-family="Helvetica,sans-Serif" font-size="10.00">AsyncFw::AbstractThread</text>
<text xml:space="preserve" text-anchor="middle" x="741" y="-282.5" font-family="Helvetica,sans-Serif" font-size="10.00">::Waiter::complete</text>
</a>
</g>
</g>
<!-- Node1&#45;&gt;Node2 -->
<g id="edge1_Node000001_Node000002" class="edge">
<title>Node1&#45;&gt;Node2</title>
<g id="a_edge1_Node000001_Node000002"><a xlink:title=" ">
<path fill="none" stroke="#63b8ff" d="M856.39,-246.53C840.33,-253.12 822.43,-260.42 806,-267 799.02,-269.79 791.6,-272.72 784.38,-275.56"/>
<polygon fill="#63b8ff" stroke="#63b8ff" points="857.32,-249.93 865.24,-242.89 854.66,-243.46 857.32,-249.93"/>
</a>
</g>
</g>
<!-- Node3 -->
<g id="Node000003" class="node">
<title>Node3</title>
<g id="a_Node000003"><a xlink:href="classAsyncFw_1_1AbstractThread.html#af33c5949edb374d673a7a9ac0c81ec32" target="_top" xlink:title="Returns a pointer to the AsyncFw::AbstractThread that manages the currently executing thread.">
<polygon fill="white" stroke="#666666" points="806,-220 676,-220 676,-188 806,-188 806,-220"/>
<text xml:space="preserve" text-anchor="start" x="684" y="-206.5" font-family="Helvetica,sans-Serif" font-size="10.00">AsyncFw::AbstractThread</text>
<text xml:space="preserve" text-anchor="middle" x="741" y="-194.5" font-family="Helvetica,sans-Serif" font-size="10.00">::current</text>
</a>
</g>
</g>
<!-- Node1&#45;&gt;Node3 -->
<g id="edge2_Node000001_Node000003" class="edge">
<title>Node1&#45;&gt;Node3</title>
<g id="a_edge2_Node000001_Node000003"><a xlink:title=" ">
<path fill="none" stroke="#63b8ff" d="M830.41,-215.86C822.4,-214.78 814.3,-213.7 806.43,-212.64"/>
<polygon fill="#63b8ff" stroke="#63b8ff" points="829.78,-219.31 840.15,-217.17 830.71,-212.37 829.78,-219.31"/>
</a>
</g>
</g>
<!-- Node28 -->
<g id="Node000028" class="node">
<title>Node28</title>
<g id="a_Node000028"><a xlink:href="classAsyncFw_1_1AbstractThread_1_1Waiter.html#ad2a62fc1276d8be1986a7e77f6dfb437" target="_top" xlink:title="Suspends the caller by running a controlled nested exec() loop until completed.">
<polygon fill="white" stroke="#666666" points="630.62,-32 500.62,-32 500.62,0 630.62,0 630.62,-32"/>
<text xml:space="preserve" text-anchor="start" x="508.62" y="-18.5" font-family="Helvetica,sans-Serif" font-size="10.00">AsyncFw::AbstractThread</text>
<text xml:space="preserve" text-anchor="middle" x="565.62" y="-6.5" font-family="Helvetica,sans-Serif" font-size="10.00">::Waiter::wait</text>
</a>
</g>
</g>
<!-- Node1&#45;&gt;Node28 -->
<g id="edge30_Node000001_Node000028" class="edge">
<title>Node1&#45;&gt;Node28</title>
<g id="a_edge30_Node000001_Node000028"><a xlink:title=" ">
<path fill="none" stroke="#63b8ff" d="M877.87,-202.42C831.09,-164.17 733.19,-88.11 640,-41 633.87,-37.9 627.28,-35.05 620.64,-32.46"/>
<polygon fill="#63b8ff" stroke="#63b8ff" points="875.42,-204.94 885.36,-208.59 879.87,-199.53 875.42,-204.94"/>
</a>
</g>
</g>
<!-- Node29 -->
<g id="Node000029" class="node">
<title>Node29</title>
<g id="a_Node000029"><a xlink:href="classAsyncFw_1_1Thread.html#afc5e422090767dd84020381fb9a4d490" target="_top" xlink:title="Constructs a thread.">
<polygon fill="white" stroke="#666666" points="805.62,-258 676.38,-258 676.38,-238 805.62,-238 805.62,-258"/>
<text xml:space="preserve" text-anchor="middle" x="741" y="-244.5" font-family="Helvetica,sans-Serif" font-size="10.00">AsyncFw::Thread::Thread</text>
</a>
</g>
</g>
<!-- Node1&#45;&gt;Node29 -->
<g id="edge28_Node000001_Node000029" class="edge">
<title>Node1&#45;&gt;Node29</title>
<g id="a_edge28_Node000001_Node000029"><a xlink:title=" ">
<path fill="none" stroke="#63b8ff" d="M830.52,-236.13C822.28,-237.23 813.96,-238.35 805.89,-239.43"/>
<polygon fill="#63b8ff" stroke="#63b8ff" points="830.71,-239.63 840.15,-234.83 829.78,-232.69 830.71,-239.63"/>
</a>
</g>
</g>
<!-- Node4 -->
<g id="Node000004" class="node">
<title>Node4</title>
<g id="a_Node000004"><a xlink:href="classAsyncFw_1_1ThreadPool.html#a9919894e586310a7ea5b780845376e17" target="_top" xlink:title="Asynchronously invokes a void function in the target thread, and executes a result callback in the ca...">
<polygon fill="white" stroke="#666666" points="622,-370 509.25,-370 509.25,-338 622,-338 622,-370"/>
<text xml:space="preserve" text-anchor="start" x="517.25" y="-356.5" font-family="Helvetica,sans-Serif" font-size="10.00">AsyncFw::ThreadPool</text>
<text xml:space="preserve" text-anchor="middle" x="565.62" y="-344.5" font-family="Helvetica,sans-Serif" font-size="10.00">::async</text>
</a>
</g>
</g>
<!-- Node3&#45;&gt;Node4 -->
<g id="edge3_Node000003_Node000004" class="edge">
<title>Node3&#45;&gt;Node4</title>
<g id="a_edge3_Node000003_Node000004"><a xlink:title=" ">
<path fill="none" stroke="#63b8ff" d="M677.83,-227.22C677.2,-227.8 676.59,-228.39 676,-229 643.05,-262.85 673.69,-295.89 640,-329 634.91,-334 628.79,-338 622.27,-341.2"/>
<polygon fill="#63b8ff" stroke="#63b8ff" points="679.67,-230.22 685.49,-221.36 675.42,-224.65 679.67,-230.22"/>
</a>
</g>
</g>
<!-- Node5 -->
<g id="Node000005" class="node">
<title>Node5</title>
<g id="a_Node000005"><a xlink:href="classAsyncFw_1_1Thread.html#a0a3bd6a54db28f73ff59cfea6a40b07a" target="_top" xlink:title="Returns a pointer to the AsyncFw::Thread that manages the currently executing thread.">
<polygon fill="white" stroke="#666666" points="630.25,-408 501,-408 501,-388 630.25,-388 630.25,-408"/>
<text xml:space="preserve" text-anchor="middle" x="565.62" y="-394.5" font-family="Helvetica,sans-Serif" font-size="10.00">AsyncFw::Thread::current</text>
</a>
</g>
</g>
<!-- Node3&#45;&gt;Node5 -->
<g id="edge4_Node000003_Node000005" class="edge">
<title>Node3&#45;&gt;Node5</title>
<g id="a_edge4_Node000003_Node000005"><a xlink:title=" ">
<path fill="none" stroke="#63b8ff" d="M677.08,-227.81C676.71,-228.2 676.35,-228.6 676,-229 630.95,-280.68 688.04,-330.09 640,-379 636.68,-382.38 632.84,-385.18 628.7,-387.51"/>
<polygon fill="#63b8ff" stroke="#63b8ff" points="679.19,-230.61 684.54,-221.46 674.65,-225.27 679.19,-230.61"/>
</a>
</g>
</g>
<!-- Node15 -->
<g id="Node000015" class="node">
<title>Node15</title>
<g id="a_Node000015"><a xlink:href="classAsyncFw_1_1HttpServer_1_1Response.html#afa24643371f00fe11d7df0f9caae4134" target="_top" xlink:title="Destroys the response object and cleans up its allocated resources.">
<polygon fill="white" stroke="#666666" points="620.88,-320 510.38,-320 510.38,-288 620.88,-288 620.88,-320"/>
<text xml:space="preserve" text-anchor="start" x="518.38" y="-306.5" font-family="Helvetica,sans-Serif" font-size="10.00">AsyncFw::HttpServer</text>
<text xml:space="preserve" text-anchor="middle" x="565.62" y="-294.5" font-family="Helvetica,sans-Serif" font-size="10.00">::Response::destroy</text>
</a>
</g>
</g>
<!-- Node3&#45;&gt;Node15 -->
<g id="edge14_Node000003_Node000015" class="edge">
<title>Node3&#45;&gt;Node15</title>
<g id="a_edge14_Node000003_Node000015"><a xlink:title=" ">
<path fill="none" stroke="#63b8ff" d="M680.02,-226.09C678.64,-227.03 677.3,-227.99 676,-229 654.36,-245.78 662,-262.7 640,-279 634.27,-283.25 627.77,-286.8 621.06,-289.78"/>
<polygon fill="#63b8ff" stroke="#63b8ff" points="681.45,-229.31 688.25,-221.19 677.87,-223.3 681.45,-229.31"/>
</a>
</g>
</g>
<!-- Node19 -->
<g id="Node000019" class="node">
<title>Node19</title>
<g id="a_Node000019"><a xlink:href="classAsyncFw_1_1HttpServer.html#ad7dae50cc3787112980fa7075a60f811" target="_top" xlink:title="Disconnects a specific client socket and clears it from the internally managed pool.">
<polygon fill="white" stroke="#666666" points="622,-270 509.25,-270 509.25,-238 622,-238 622,-270"/>
<text xml:space="preserve" text-anchor="start" x="517.25" y="-256.5" font-family="Helvetica,sans-Serif" font-size="10.00">AsyncFw::HttpServer</text>
<text xml:space="preserve" text-anchor="middle" x="565.62" y="-244.5" font-family="Helvetica,sans-Serif" font-size="10.00">::disconnectFromHost</text>
</a>
</g>
</g>
<!-- Node3&#45;&gt;Node19 -->
<g id="edge18_Node000003_Node000019" class="edge">
<title>Node3&#45;&gt;Node19</title>
<g id="a_edge18_Node000003_Node000019"><a xlink:title=" ">
<path fill="none" stroke="#63b8ff" d="M672.49,-223.47C655.9,-228.26 638.31,-233.33 622.34,-237.93"/>
<polygon fill="#63b8ff" stroke="#63b8ff" points="673.14,-226.93 681.78,-220.79 671.2,-220.2 673.14,-226.93"/>
</a>
</g>
</g>
<!-- Node22 -->
<g id="Node000022" class="node">
<title>Node22</title>
<g id="a_Node000022"><a xlink:href="classAsyncFw_1_1FileSystemWatcher.html#acd061a60fbaea1bb3c7d020e0da99039" target="_top" xlink:title="Constructs a FileSystemWatcher and optionally starts monitoring given paths.">
<polygon fill="white" stroke="#666666" points="640,-220 491.25,-220 491.25,-188 640,-188 640,-220"/>
<text xml:space="preserve" text-anchor="start" x="499.25" y="-206.5" font-family="Helvetica,sans-Serif" font-size="10.00">AsyncFw::FileSystemWatcher</text>
<text xml:space="preserve" text-anchor="middle" x="565.62" y="-194.5" font-family="Helvetica,sans-Serif" font-size="10.00">::FileSystemWatcher</text>
</a>
</g>
</g>
<!-- Node3&#45;&gt;Node22 -->
<g id="edge21_Node000003_Node000022" class="edge">
<title>Node3&#45;&gt;Node22</title>
<g id="a_edge21_Node000003_Node000022"><a xlink:title=" ">
<path fill="none" stroke="#63b8ff" d="M664.66,-204C656.61,-204 648.42,-204 640.38,-204"/>
<polygon fill="#63b8ff" stroke="#63b8ff" points="664.42,-207.5 674.42,-204 664.42,-200.5 664.42,-207.5"/>
</a>
</g>
</g>
<!-- Node24 -->
<g id="Node000024" class="node">
<title>Node24</title>
<g id="a_Node000024"><a xlink:href="classAsyncFw_1_1MulticastDns.html#ab9bfb41e98cd4ecf1cc63f8acd023afd" target="_top" xlink:title="Initializes the mDNS node with a specific target service type (e.g., &quot;_http._tcp&quot;).">
<polygon fill="white" stroke="#666666" points="626.12,-170 505.12,-170 505.12,-138 626.12,-138 626.12,-170"/>
<text xml:space="preserve" text-anchor="start" x="513.12" y="-156.5" font-family="Helvetica,sans-Serif" font-size="10.00">AsyncFw::MulticastDns</text>
<text xml:space="preserve" text-anchor="middle" x="565.62" y="-144.5" font-family="Helvetica,sans-Serif" font-size="10.00">::MulticastDns</text>
</a>
</g>
</g>
<!-- Node3&#45;&gt;Node24 -->
<g id="edge23_Node000003_Node000024" class="edge">
<title>Node3&#45;&gt;Node24</title>
<g id="a_edge23_Node000003_Node000024"><a xlink:title=" ">
<path fill="none" stroke="#63b8ff" d="M672.31,-184.48C656.27,-179.85 639.33,-174.97 623.82,-170.49"/>
<polygon fill="#63b8ff" stroke="#63b8ff" points="671.2,-187.8 681.78,-187.21 673.14,-181.07 671.2,-187.8"/>
</a>
</g>
</g>
<!-- Node26 -->
<g id="Node000026" class="node">
<title>Node26</title>
<g id="a_Node000026"><a xlink:href="classAsyncFw_1_1Log.html#a6b0ce40bc2e34f4b435894701194dc26" target="_top" xlink:title="Persists log entries into the underlying Rrd buffer and manages automated disk flushing.">
<polygon fill="white" stroke="#666666" points="621.62,-120 509.62,-120 509.62,-100 621.62,-100 621.62,-120"/>
<text xml:space="preserve" text-anchor="middle" x="565.62" y="-106.5" font-family="Helvetica,sans-Serif" font-size="10.00">AsyncFw::Log::output</text>
</a>
</g>
</g>
<!-- Node3&#45;&gt;Node26 -->
<g id="edge25_Node000003_Node000026" class="edge">
<title>Node3&#45;&gt;Node26</title>
<g id="a_edge25_Node000003_Node000026"><a xlink:title=" ">
<path fill="none" stroke="#63b8ff" d="M714.17,-180.12C695,-163.58 667.52,-142.24 640,-129 633,-125.63 625.34,-122.81 617.68,-120.46"/>
<polygon fill="#63b8ff" stroke="#63b8ff" points="711.66,-182.58 721.48,-186.57 716.29,-177.33 711.66,-182.58"/>
</a>
</g>
</g>
<!-- Node27 -->
<g id="Node000027" class="node">
<title>Node27</title>
<g id="a_Node000027"><a xlink:href="classAsyncFw_1_1SystemProcess.html#acf60a585a89304fdb3580e9add06d155" target="_top" xlink:title="Constructs a new SystemProcess manager.">
<polygon fill="white" stroke="#666666" points="632.12,-82 499.12,-82 499.12,-50 632.12,-50 632.12,-82"/>
<text xml:space="preserve" text-anchor="start" x="507.12" y="-68.5" font-family="Helvetica,sans-Serif" font-size="10.00">AsyncFw::SystemProcess</text>
<text xml:space="preserve" text-anchor="middle" x="565.62" y="-56.5" font-family="Helvetica,sans-Serif" font-size="10.00">::SystemProcess</text>
</a>
</g>
</g>
<!-- Node3&#45;&gt;Node27 -->
<g id="edge26_Node000003_Node000027" class="edge">
<title>Node3&#45;&gt;Node27</title>
<g id="a_edge26_Node000003_Node000027"><a xlink:title=" ">
<path fill="none" stroke="#63b8ff" d="M723.3,-178.37C705.48,-152.88 675.04,-114.33 640,-91 635.18,-87.79 629.91,-84.96 624.48,-82.46"/>
<polygon fill="#63b8ff" stroke="#63b8ff" points="720.33,-180.22 728.86,-186.51 726.11,-176.27 720.33,-180.22"/>
</a>
</g>
</g>
<!-- Node3&#45;&gt;Node28 -->
<g id="edge27_Node000003_Node000028" class="edge">
<title>Node3&#45;&gt;Node28</title>
<g id="a_edge27_Node000003_Node000028"><a xlink:title=" ">
<path fill="none" stroke="#63b8ff" d="M723.57,-178.25C710.53,-157.7 691.9,-128.12 676,-102 659.63,-75.11 664.42,-60.87 640,-41 636.03,-37.77 631.63,-34.95 627,-32.49"/>
<polygon fill="#63b8ff" stroke="#63b8ff" points="720.53,-179.99 728.85,-186.55 726.44,-176.24 720.53,-179.99"/>
</a>
</g>
</g>
<!-- Node6 -->
<g id="Node000006" class="node">
<title>Node6</title>
<g id="a_Node000006"><a xlink:href="classAsyncFw_1_1AbstractSocket.html#a73a200f0008dbf9f820bdb2b8a0054cf" target="_top" xlink:title="Schedules the socket for deferred asynchronous destruction.">
<polygon fill="white" stroke="#666666" points="446.25,-487 315.5,-487 315.5,-455 446.25,-455 446.25,-487"/>
<text xml:space="preserve" text-anchor="start" x="323.5" y="-473.5" font-family="Helvetica,sans-Serif" font-size="10.00">AsyncFw::AbstractSocket</text>
<text xml:space="preserve" text-anchor="middle" x="380.88" y="-461.5" font-family="Helvetica,sans-Serif" font-size="10.00">::destroy</text>
</a>
</g>
</g>
<!-- Node5&#45;&gt;Node6 -->
<g id="edge5_Node000005_Node000006" class="edge">
<title>Node5&#45;&gt;Node6</title>
<g id="a_edge5_Node000005_Node000006"><a xlink:title=" ">
<path fill="none" stroke="#63b8ff" d="M527.87,-412.68C497.47,-424.82 454.35,-442.05 422.85,-454.63"/>
<polygon fill="#63b8ff" stroke="#63b8ff" points="529.05,-415.98 537.04,-409.02 526.45,-409.48 529.05,-415.98"/>
</a>
</g>
</g>
<!-- Node9 -->
<g id="Node000009" class="node">
<title>Node9</title>
<g id="a_Node000009"><a xlink:href="classAsyncFw_1_1Rrd.html#a2fd20dd3470a11ef179577c565c333f1" target="_top" xlink:title="Constructs a persistent circular archive database with physical disk backing.">
<polygon fill="white" stroke="#666666" points="431.25,-408 330.5,-408 330.5,-388 431.25,-388 431.25,-408"/>
<text xml:space="preserve" text-anchor="middle" x="380.88" y="-394.5" font-family="Helvetica,sans-Serif" font-size="10.00">AsyncFw::Rrd::Rrd</text>
</a>
</g>
</g>
<!-- Node5&#45;&gt;Node9 -->
<g id="edge8_Node000005_Node000009" class="edge">
<title>Node5&#45;&gt;Node9</title>
<g id="a_edge8_Node000005_Node000009"><a xlink:title=" ">
<path fill="none" stroke="#63b8ff" d="M489.39,-398C469.92,-398 449.45,-398 431.65,-398"/>
<polygon fill="#63b8ff" stroke="#63b8ff" points="489.19,-401.5 499.19,-398 489.19,-394.5 489.19,-401.5"/>
</a>
</g>
</g>
<!-- Node7 -->
<g id="Node000007" class="node">
<title>Node7</title>
<g id="a_Node000007"><a xlink:href="classAsyncFw_1_1HttpSocket.html#a8268467d3581a4d393e9ccd288de32ff" target="_top" xlink:title="Schedules the socket for deferred asynchronous destruction.">
<polygon fill="white" stroke="#666666" points="270.5,-515 157.75,-515 157.75,-483 270.5,-483 270.5,-515"/>
<text xml:space="preserve" text-anchor="start" x="165.75" y="-501.5" font-family="Helvetica,sans-Serif" font-size="10.00">AsyncFw::HttpSocket</text>
<text xml:space="preserve" text-anchor="middle" x="214.12" y="-489.5" font-family="Helvetica,sans-Serif" font-size="10.00">::destroy</text>
</a>
</g>
</g>
<!-- Node6&#45;&gt;Node7 -->
<g id="edge6_Node000006_Node000007" class="edge">
<title>Node6&#45;&gt;Node7</title>
<g id="a_edge6_Node000006_Node000007"><a xlink:title=" ">
<path fill="none" stroke="#63b8ff" d="M304.1,-483.88C292.87,-485.79 281.49,-487.72 270.77,-489.54"/>
<polygon fill="#63b8ff" stroke="#63b8ff" points="304.47,-487.37 313.74,-482.24 303.3,-480.46 304.47,-487.37"/>
</a>
</g>
</g>
<!-- Node8 -->
<g id="Node000008" class="node">
<title>Node8</title>
<g id="a_Node000008"><a xlink:href="classAsyncFw_1_1HttpServer_1_1TcpSocket.html#a41557b69e30e25b97cbdda210afb7657" target="_top" xlink:title="Constructs a new TcpSocket associated with the parent server.">
<polygon fill="white" stroke="#666666" points="120.62,-515 1.12,-515 1.12,-483 120.62,-483 120.62,-515"/>
<text xml:space="preserve" text-anchor="start" x="9.12" y="-501.5" font-family="Helvetica,sans-Serif" font-size="10.00">AsyncFw::HttpServer</text>
<text xml:space="preserve" text-anchor="middle" x="60.88" y="-489.5" font-family="Helvetica,sans-Serif" font-size="10.00">::TcpSocket::TcpSocket</text>
</a>
</g>
</g>
<!-- Node7&#45;&gt;Node8 -->
<g id="edge7_Node000007_Node000008" class="edge">
<title>Node7&#45;&gt;Node8</title>
<g id="a_edge7_Node000007_Node000008"><a xlink:title=" ">
<path fill="none" stroke="#63b8ff" d="M146.27,-499C137.81,-499 129.21,-499 120.89,-499"/>
<polygon fill="#63b8ff" stroke="#63b8ff" points="146.15,-502.5 156.15,-499 146.15,-495.5 146.15,-502.5"/>
</a>
</g>
</g>
<!-- Node10 -->
<g id="Node000010" class="node">
<title>Node10</title>
<g id="a_Node000010"><a xlink:href="classAsyncFw_1_1Log.html#a832d13f4e9231eee37d8decb5b9b96d7" target="_top" xlink:title="Constructs a persistent log system with a specific circular database size and file name context.">
<polygon fill="white" stroke="#666666" points="264.5,-465 163.75,-465 163.75,-445 264.5,-445 264.5,-465"/>
<text xml:space="preserve" text-anchor="middle" x="214.12" y="-451.5" font-family="Helvetica,sans-Serif" font-size="10.00">AsyncFw::Log::Log</text>
</a>
</g>
</g>
<!-- Node9&#45;&gt;Node10 -->
<g id="edge9_Node000009_Node000010" class="edge">
<title>Node9&#45;&gt;Node10</title>
<g id="a_edge9_Node000009_Node000010"><a xlink:title=" ">
<path fill="none" stroke="#63b8ff" d="M339.56,-412.05C318.92,-419.23 293.37,-428.1 270.5,-436 262.43,-438.79 253.69,-441.79 245.6,-444.57"/>
<polygon fill="#63b8ff" stroke="#63b8ff" points="340.45,-415.44 348.75,-408.85 338.15,-408.83 340.45,-415.44"/>
</a>
</g>
</g>
<!-- Node12 -->
<g id="Node000012" class="node">
<title>Node12</title>
<g id="a_Node000012"><a xlink:href="classAsyncFw_1_1Rrd.html#aa54ae298c96e9efe88b644931b12f734" target="_top" xlink:title="Constructs a minimal in&#45;memory anonymous circular database with default system tracking intervals.">
<polygon fill="white" stroke="#666666" points="264.5,-427 163.75,-427 163.75,-407 264.5,-407 264.5,-427"/>
<text xml:space="preserve" text-anchor="middle" x="214.12" y="-413.5" font-family="Helvetica,sans-Serif" font-size="10.00">AsyncFw::Rrd::Rrd</text>
</a>
</g>
</g>
<!-- Node9&#45;&gt;Node12 -->
<g id="edge11_Node000009_Node000012" class="edge">
<title>Node9&#45;&gt;Node12</title>
<g id="a_edge11_Node000009_Node000012"><a xlink:title=" ">
<path fill="none" stroke="#63b8ff" d="M319.22,-404.99C301.32,-407.06 281.94,-409.29 264.81,-411.27"/>
<polygon fill="#63b8ff" stroke="#63b8ff" points="319.41,-408.5 328.94,-403.87 318.61,-401.54 319.41,-408.5"/>
</a>
</g>
</g>
<!-- Node13 -->
<g id="Node000013" class="node">
<title>Node13</title>
<g id="a_Node000013"><a xlink:href="classAsyncFw_1_1Rrd.html#aaea6a63444ab427f801be34f26d930d5" target="_top" xlink:title="Constructs a persistent circular archive database using default system tracking intervals.">
<polygon fill="white" stroke="#666666" points="264.5,-389 163.75,-389 163.75,-369 264.5,-369 264.5,-389"/>
<text xml:space="preserve" text-anchor="middle" x="214.12" y="-375.5" font-family="Helvetica,sans-Serif" font-size="10.00">AsyncFw::Rrd::Rrd</text>
</a>
</g>
</g>
<!-- Node9&#45;&gt;Node13 -->
<g id="edge12_Node000009_Node000013" class="edge">
<title>Node9&#45;&gt;Node13</title>
<g id="a_edge12_Node000009_Node000013"><a xlink:title=" ">
<path fill="none" stroke="#63b8ff" d="M319.22,-391.01C301.32,-388.94 281.94,-386.71 264.81,-384.73"/>
<polygon fill="#63b8ff" stroke="#63b8ff" points="318.61,-394.46 328.94,-392.13 319.41,-387.5 318.61,-394.46"/>
</a>
</g>
</g>
<!-- Node14 -->
<g id="Node000014" class="node">
<title>Node14</title>
<g id="a_Node000014"><a xlink:href="classAsyncFw_1_1Rrd.html#a98c7829cc6177c80245cf95095deb3ba" target="_top" xlink:title="Constructs an in&#45;memory anonymous circular database without file serialization.">
<polygon fill="white" stroke="#666666" points="264.5,-351 163.75,-351 163.75,-331 264.5,-331 264.5,-351"/>
<text xml:space="preserve" text-anchor="middle" x="214.12" y="-337.5" font-family="Helvetica,sans-Serif" font-size="10.00">AsyncFw::Rrd::Rrd</text>
</a>
</g>
</g>
<!-- Node9&#45;&gt;Node14 -->
<g id="edge13_Node000009_Node000014" class="edge">
<title>Node9&#45;&gt;Node14</title>
<g id="a_edge13_Node000009_Node000014"><a xlink:title=" ">
<path fill="none" stroke="#63b8ff" d="M339.56,-383.95C318.92,-376.77 293.37,-367.9 270.5,-360 262.43,-357.21 253.69,-354.21 245.6,-351.43"/>
<polygon fill="#63b8ff" stroke="#63b8ff" points="338.15,-387.17 348.75,-387.15 340.45,-380.56 338.15,-387.17"/>
</a>
</g>
</g>
<!-- Node11 -->
<g id="Node000011" class="node">
<title>Node11</title>
<g id="a_Node000011"><a xlink:href="classAsyncFw_1_1Log.html#a00e9a20e7303e9a24403046af176b6b2" target="_top" xlink:title="Global service locator shortcut to fetch the current engine&#45;wide default log pointer.">
<polygon fill="white" stroke="#666666" points="121.75,-465 0,-465 0,-445 121.75,-445 121.75,-465"/>
<text xml:space="preserve" text-anchor="middle" x="60.88" y="-451.5" font-family="Helvetica,sans-Serif" font-size="10.00">AsyncFw::Log::instance</text>
</a>
</g>
</g>
<!-- Node10&#45;&gt;Node11 -->
<g id="edge10_Node000010_Node000011" class="edge">
<title>Node10&#45;&gt;Node11</title>
<g id="a_edge10_Node000010_Node000011"><a xlink:title=" ">
<path fill="none" stroke="#63b8ff" d="M152.16,-455C142.24,-455 131.97,-455 122.07,-455"/>
<polygon fill="#63b8ff" stroke="#63b8ff" points="152.09,-458.5 162.09,-455 152.09,-451.5 152.09,-458.5"/>
</a>
</g>
</g>
<!-- Node16 -->
<g id="Node000016" class="node">
<title>Node16</title>
<g id="a_Node000016"><a xlink:href="classAsyncFw_1_1HttpServer_1_1Response.html#a52925841696f5351ff43b46530c18390" target="_top" xlink:title="Finalizes and sends the response over the network via the associated socket.">
<polygon fill="white" stroke="#666666" points="436.12,-345 325.62,-345 325.62,-313 436.12,-313 436.12,-345"/>
<text xml:space="preserve" text-anchor="start" x="333.62" y="-331.5" font-family="Helvetica,sans-Serif" font-size="10.00">AsyncFw::HttpServer</text>
<text xml:space="preserve" text-anchor="middle" x="380.88" y="-319.5" font-family="Helvetica,sans-Serif" font-size="10.00">::Response::send</text>
</a>
</g>
</g>
<!-- Node15&#45;&gt;Node16 -->
<g id="edge15_Node000015_Node000016" class="edge">
<title>Node15&#45;&gt;Node16</title>
<g id="a_edge15_Node000015_Node000016"><a xlink:title=" ">
<path fill="none" stroke="#63b8ff" d="M499.08,-312.97C478.51,-315.78 456.04,-318.85 436.32,-321.55"/>
<polygon fill="#63b8ff" stroke="#63b8ff" points="499.36,-316.46 508.79,-311.64 498.41,-309.53 499.36,-316.46"/>
</a>
</g>
</g>
<!-- Node17 -->
<g id="Node000017" class="node">
<title>Node17</title>
<g id="a_Node000017"><a xlink:href="classAsyncFw_1_1HttpServer.html#a522928fa8bf3b13b706ac997d4f100dd" target="_top" xlink:title="Constructs the HTTP server instance.">
<polygon fill="white" stroke="#666666" points="269.38,-313 158.88,-313 158.88,-281 269.38,-281 269.38,-313"/>
<text xml:space="preserve" text-anchor="start" x="166.88" y="-299.5" font-family="Helvetica,sans-Serif" font-size="10.00">AsyncFw::HttpServer</text>
<text xml:space="preserve" text-anchor="middle" x="214.12" y="-287.5" font-family="Helvetica,sans-Serif" font-size="10.00">::HttpServer</text>
</a>
</g>
</g>
<!-- Node16&#45;&gt;Node17 -->
<g id="edge16_Node000016_Node000017" class="edge">
<title>Node16&#45;&gt;Node17</title>
<g id="a_edge16_Node000016_Node000017"><a xlink:title=" ">
<path fill="none" stroke="#63b8ff" d="M314.35,-316.27C299.57,-313.4 284.03,-310.38 269.75,-307.61"/>
<polygon fill="#63b8ff" stroke="#63b8ff" points="313.5,-319.67 323.99,-318.14 314.84,-312.8 313.5,-319.67"/>
</a>
</g>
</g>
<!-- Node18 -->
<g id="Node000018" class="node">
<title>Node18</title>
<g id="a_Node000018"><a xlink:href="classAsyncFw_1_1HttpServer.html#ad52f34791fe5848d9ba891b209fcdbe0" target="_top" xlink:title="Accessor to fetch the globally managed singleton instance reference of the active HttpServer.">
<polygon fill="white" stroke="#666666" points="116.12,-313 5.62,-313 5.62,-281 116.12,-281 116.12,-313"/>
<text xml:space="preserve" text-anchor="start" x="13.62" y="-299.5" font-family="Helvetica,sans-Serif" font-size="10.00">AsyncFw::HttpServer</text>
<text xml:space="preserve" text-anchor="middle" x="60.88" y="-287.5" font-family="Helvetica,sans-Serif" font-size="10.00">::instance</text>
</a>
</g>
</g>
<!-- Node17&#45;&gt;Node18 -->
<g id="edge17_Node000017_Node000018" class="edge">
<title>Node17&#45;&gt;Node18</title>
<g id="a_edge17_Node000017_Node000018"><a xlink:title=" ">
<path fill="none" stroke="#63b8ff" d="M147.09,-297C136.84,-297 126.36,-297 116.4,-297"/>
<polygon fill="#63b8ff" stroke="#63b8ff" points="147.01,-300.5 157.01,-297 147.01,-293.5 147.01,-300.5"/>
</a>
</g>
</g>
<!-- Node20 -->
<g id="Node000020" class="node">
<title>Node20</title>
<g id="a_Node000020"><a xlink:href="classAsyncFw_1_1HttpServer.html#ad3761260dfd18899afc22c6f4bc0c556" target="_top" xlink:title="Forcefully terminates all active socket connections currently retained by the server.">
<polygon fill="white" stroke="#666666" points="436.12,-295 325.62,-295 325.62,-263 436.12,-263 436.12,-295"/>
<text xml:space="preserve" text-anchor="start" x="333.62" y="-281.5" font-family="Helvetica,sans-Serif" font-size="10.00">AsyncFw::HttpServer</text>
<text xml:space="preserve" text-anchor="middle" x="380.88" y="-269.5" font-family="Helvetica,sans-Serif" font-size="10.00">::clearConnections</text>
</a>
</g>
</g>
<!-- Node19&#45;&gt;Node20 -->
<g id="edge19_Node000019_Node000020" class="edge">
<title>Node19&#45;&gt;Node20</title>
<g id="a_edge19_Node000019_Node000020"><a xlink:title=" ">
<path fill="none" stroke="#63b8ff" d="M497.51,-263.18C477.41,-265.93 455.61,-268.91 436.42,-271.54"/>
<polygon fill="#63b8ff" stroke="#63b8ff" points="497.87,-266.66 507.3,-261.84 496.92,-259.73 497.87,-266.66"/>
</a>
</g>
</g>
<!-- Node21 -->
<g id="Node000021" class="node">
<title>Node21</title>
<g id="a_Node000021"><a xlink:href="classAsyncFw_1_1HttpServer.html#ab3eeb1643d4482345afcd9f971c020ac" target="_top" xlink:title="Explicitly severs connections with active sockets holding custom user metadata matching data.">
<polygon fill="white" stroke="#666666" points="436.12,-245 325.62,-245 325.62,-213 436.12,-213 436.12,-245"/>
<text xml:space="preserve" text-anchor="start" x="333.62" y="-231.5" font-family="Helvetica,sans-Serif" font-size="10.00">AsyncFw::HttpServer</text>
<text xml:space="preserve" text-anchor="middle" x="380.88" y="-219.5" font-family="Helvetica,sans-Serif" font-size="10.00">::clearConnections</text>
</a>
</g>
</g>
<!-- Node19&#45;&gt;Node21 -->
<g id="edge20_Node000019_Node000021" class="edge">
<title>Node19&#45;&gt;Node21</title>
<g id="a_edge20_Node000019_Node000021"><a xlink:title=" ">
<path fill="none" stroke="#63b8ff" d="M497.51,-244.82C477.41,-242.07 455.61,-239.09 436.42,-236.46"/>
<polygon fill="#63b8ff" stroke="#63b8ff" points="496.92,-248.27 507.3,-246.16 497.87,-241.34 496.92,-248.27"/>
</a>
</g>
</g>
<!-- Node23 -->
<g id="Node000023" class="node">
<title>Node23</title>
<g id="a_Node000023"><a xlink:href="classAsyncFw_1_1FileSystemWatcher.html#a16b4210d215a3b340c98f650d2071114" target="_top" xlink:title="Retrieves the global instance pointer of the active FileSystemWatcher.">
<polygon fill="white" stroke="#666666" points="455.25,-195 306.5,-195 306.5,-163 455.25,-163 455.25,-195"/>
<text xml:space="preserve" text-anchor="start" x="314.5" y="-181.5" font-family="Helvetica,sans-Serif" font-size="10.00">AsyncFw::FileSystemWatcher</text>
<text xml:space="preserve" text-anchor="middle" x="380.88" y="-169.5" font-family="Helvetica,sans-Serif" font-size="10.00">::instance</text>
</a>
</g>
</g>
<!-- Node22&#45;&gt;Node23 -->
<g id="edge22_Node000022_Node000023" class="edge">
<title>Node22&#45;&gt;Node23</title>
<g id="a_edge22_Node000022_Node000023"><a xlink:title=" ">
<path fill="none" stroke="#63b8ff" d="M479.59,-192.37C471.59,-191.27 463.54,-190.17 455.66,-189.09"/>
<polygon fill="#63b8ff" stroke="#63b8ff" points="478.94,-195.81 489.32,-193.7 479.89,-188.88 478.94,-195.81"/>
</a>
</g>
</g>
<!-- Node25 -->
<g id="Node000025" class="node">
<title>Node25</title>
<g id="a_Node000025"><a xlink:href="classAsyncFw_1_1MulticastDns.html#a61341fa78536e7a787bbbce75116ef3e" target="_top" xlink:title="Returns the global default instance pointer.">
<polygon fill="white" stroke="#666666" points="441.38,-145 320.38,-145 320.38,-113 441.38,-113 441.38,-145"/>
<text xml:space="preserve" text-anchor="start" x="328.38" y="-131.5" font-family="Helvetica,sans-Serif" font-size="10.00">AsyncFw::MulticastDns</text>
<text xml:space="preserve" text-anchor="middle" x="380.88" y="-119.5" font-family="Helvetica,sans-Serif" font-size="10.00">::instance</text>
</a>
</g>
</g>
<!-- Node24&#45;&gt;Node25 -->
<g id="edge24_Node000024_Node000025" class="edge">
<title>Node24&#45;&gt;Node25</title>
<g id="a_edge24_Node000024_Node000025"><a xlink:title=" ">
<path fill="none" stroke="#63b8ff" d="M493.7,-144.3C476.57,-141.95 458.42,-139.47 441.85,-137.2"/>
<polygon fill="#63b8ff" stroke="#63b8ff" points="492.9,-147.72 503.29,-145.61 493.85,-140.79 492.9,-147.72"/>
</a>
</g>
</g>
<!-- Node29&#45;&gt;Node5 -->
<g id="edge29_Node000029_Node000005" class="edge">
<title>Node29&#45;&gt;Node5</title>
<g id="a_edge29_Node000029_Node000005"><a xlink:title=" ">
<path fill="none" stroke="#63b8ff" d="M678.36,-264.85C677.55,-265.54 676.76,-266.26 676,-267 638.62,-303.56 678.02,-343.11 640,-379 636.36,-382.43 632.19,-385.26 627.72,-387.6"/>
<polygon fill="#63b8ff" stroke="#63b8ff" points="680.26,-267.8 686.64,-259.34 676.38,-261.97 680.26,-267.8"/>
</a>
</g>
</g>
</g>
</svg>
