<?xml version="1.0" encoding="UTF-8" standalone="no"?>
<!DOCTYPE svg PUBLIC "-//W3C//DTD SVG 1.1//EN"
 "http://www.w3.org/Graphics/SVG/1.1/DTD/svg11.dtd">
<!-- Generated by graphviz version 14.1.3 (20260303.0454)
 -->
<!-- Title: AsyncFw::RrdServer::RrdServer Pages: 1 -->
<svg width="554pt" height="108pt"
 viewBox="0.00 0.00 554.00 108.00" xmlns="http://www.w3.org/2000/svg" xmlns:xlink="http://www.w3.org/1999/xlink">
<g id="graph0" class="graph" transform="scale(1 1) rotate(0) translate(4 104)">
<title>AsyncFw::RrdServer::RrdServer</title>
<!-- Node1 -->
<g id="Node000001" class="node">
<title>Node1</title>
<g id="a_Node000001"><a xlink:title="Constructs an RrdServer instance.">
<polygon fill="#999999" stroke="#666666" points="107.5,-66 0,-66 0,-34 107.5,-34 107.5,-66"/>
<text xml:space="preserve" text-anchor="start" x="8" y="-52.5" font-family="Helvetica,sans-Serif" font-size="10.00">AsyncFw::RrdServer</text>
<text xml:space="preserve" text-anchor="middle" x="53.75" y="-40.5" font-family="Helvetica,sans-Serif" font-size="10.00">::RrdServer</text>
</a>
</g>
</g>
<!-- Node2 -->
<g id="Node000002" class="node">
<title>Node2</title>
<g id="a_Node000002"><a xlink:href="classAsyncFw_1_1RrdServer.html#a518ff8e41bae78f1b1c0e099514e56eb" target="_top" xlink:title="Extracts a specific historical data slice from an Rrd archive and transmits it to a client socket.">
<polygon fill="white" stroke="#666666" points="251,-66 143.5,-66 143.5,-34 251,-34 251,-66"/>
<text xml:space="preserve" text-anchor="start" x="151.5" y="-52.5" font-family="Helvetica,sans-Serif" font-size="10.00">AsyncFw::RrdServer</text>
<text xml:space="preserve" text-anchor="middle" x="197.25" y="-40.5" font-family="Helvetica,sans-Serif" font-size="10.00">::transmit</text>
</a>
</g>
</g>
<!-- Node1&#45;&gt;Node2 -->
<g id="edge1_Node000001_Node000002" class="edge">
<title>Node1&#45;&gt;Node2</title>
<g id="a_edge1_Node000001_Node000002"><a xlink:title=" ">
<path fill="none" stroke="#63b8ff" d="M107.84,-50C115.73,-50 123.93,-50 132.02,-50"/>
<polygon fill="#63b8ff" stroke="#63b8ff" points="131.82,-53.5 141.82,-50 131.82,-46.5 131.82,-53.5"/>
</a>
</g>
</g>
<!-- Node3 -->
<g id="Node000003" class="node">
<title>Node3</title>
<g id="a_Node000003"><a xlink:href="classAsyncFw_1_1DataStream.html#ae64c4b08a3259146d4476c0385352479" target="_top" xlink:title="Retrieves a reference to the active cumulative raw byte array built by the stream.">
<polygon fill="white" stroke="#666666" points="402.75,-100 287,-100 287,-68 402.75,-68 402.75,-100"/>
<text xml:space="preserve" text-anchor="start" x="295" y="-86.5" font-family="Helvetica,sans-Serif" font-size="10.00">AsyncFw::DataStream</text>
<text xml:space="preserve" text-anchor="middle" x="344.88" y="-74.5" font-family="Helvetica,sans-Serif" font-size="10.00">::array</text>
</a>
</g>
</g>
<!-- Node2&#45;&gt;Node3 -->
<g id="edge2_Node000002_Node000003" class="edge">
<title>Node2&#45;&gt;Node3</title>
<g id="a_edge2_Node000002_Node000003"><a xlink:title=" ">
<path fill="none" stroke="#63b8ff" d="M251.24,-62.37C259.18,-64.22 267.45,-66.16 275.66,-68.07"/>
<polygon fill="#63b8ff" stroke="#63b8ff" points="274.74,-71.45 285.28,-70.32 276.34,-64.64 274.74,-71.45"/>
</a>
</g>
</g>
<!-- Node4 -->
<g id="Node000004" class="node">
<title>Node4</title>
<g id="a_Node000004"><a xlink:href="classAsyncFw_1_1DataArray.html#a10279d86624995c981d2786aa43e6803" target="_top" xlink:title="Compresses the provided data view using the framework&#39;s default compression algorithm.">
<polygon fill="white" stroke="#666666" points="398.62,-32 291.12,-32 291.12,0 398.62,0 398.62,-32"/>
<text xml:space="preserve" text-anchor="start" x="299.12" y="-18.5" font-family="Helvetica,sans-Serif" font-size="10.00">AsyncFw::DataArray</text>
<text xml:space="preserve" text-anchor="middle" x="344.88" y="-6.5" font-family="Helvetica,sans-Serif" font-size="10.00">::compress</text>
</a>
</g>
</g>
<!-- Node2&#45;&gt;Node4 -->
<g id="edge3_Node000002_Node000004" class="edge">
<title>Node2&#45;&gt;Node4</title>
<g id="a_edge3_Node000002_Node000004"><a xlink:title=" ">
<path fill="none" stroke="#63b8ff" d="M251.24,-37.63C260.47,-35.47 270.17,-33.21 279.67,-30.99"/>
<polygon fill="#63b8ff" stroke="#63b8ff" points="280.27,-34.44 289.21,-28.76 278.68,-27.63 280.27,-34.44"/>
</a>
</g>
</g>
<!-- Node4&#45;&gt;Node4 -->
<g id="edge4_Node000004_Node000004" class="edge">
<title>Node4&#45;&gt;Node4</title>
<g id="a_edge4_Node000004_Node000004"><a xlink:title=" ">
<path fill="none" stroke="#63b8ff" d="M318.52,-32.44C313.6,-41.58 322.39,-50 344.88,-50 357.17,-50 365.37,-47.48 369.48,-43.71"/>
<polygon fill="#63b8ff" stroke="#63b8ff" points="372.92,-44.36 371,-33.94 366,-43.28 372.92,-44.36"/>
</a>
</g>
</g>
<!-- Node5 -->
<g id="Node000005" class="node">
<title>Node5</title>
<g id="a_Node000005"><a xlink:href="classAsyncFw_1_1DataArray.html#ab3ca8135417a38c8438a82f226b792ec" target="_top" xlink:title="Constructs a byte array from a standard string instance.">
<polygon fill="white" stroke="#666666" points="546.25,-32 438.75,-32 438.75,0 546.25,0 546.25,-32"/>
<text xml:space="preserve" text-anchor="start" x="446.75" y="-18.5" font-family="Helvetica,sans-Serif" font-size="10.00">AsyncFw::DataArray</text>
<text xml:space="preserve" text-anchor="middle" x="492.5" y="-6.5" font-family="Helvetica,sans-Serif" font-size="10.00">::DataArray</text>
</a>
</g>
</g>
<!-- Node4&#45;&gt;Node5 -->
<g id="edge5_Node000004_Node000005" class="edge">
<title>Node4&#45;&gt;Node5</title>
<g id="a_edge5_Node000004_Node000005"><a xlink:title=" ">
<path fill="none" stroke="#63b8ff" d="M398.86,-16C408,-16 417.58,-16 426.98,-16"/>
<polygon fill="#63b8ff" stroke="#63b8ff" points="426.8,-19.5 436.8,-16 426.8,-12.5 426.8,-19.5"/>
</a>
</g>
</g>
</g>
</svg>
