<?xml version="1.0" encoding="UTF-8" standalone="no"?>
<!DOCTYPE svg PUBLIC "-//W3C//DTD SVG 1.1//EN"
 "http://www.w3.org/Graphics/SVG/1.1/DTD/svg11.dtd">
<!-- Generated by graphviz version 12.2.1 (20241206.2353)
 -->
<!-- Title: AsyncFw::Thread Pages: 1 -->
<svg width="302pt" height="132pt"
 viewBox="0.00 0.00 301.88 132.00" xmlns="http://www.w3.org/2000/svg" xmlns:xlink="http://www.w3.org/1999/xlink">
<g id="graph0" class="graph" transform="scale(1 1) rotate(0) translate(4 128)">
<title>AsyncFw::Thread</title>
<!-- Node1 -->
<g id="Node000001" class="node">
<title>Node1</title>
<g id="a_Node000001"><a xlink:title="AsyncFw::Thread thread with sockets.">
<polygon fill="#999999" stroke="#666666" points="189.62,-20 96.38,-20 96.38,0 189.62,0 189.62,-20"/>
<text text-anchor="middle" x="143" y="-6.5" font-family="Helvetica,sans-Serif" font-size="10.00">AsyncFw::Thread</text>
</a>
</g>
</g>
<!-- Node2 -->
<g id="Node000002" class="node">
<title>Node2</title>
<g id="a_Node000002"><a xlink:href="classAsyncFw_1_1AbstractThread.html" target="_top" xlink:title="The AbstractThread class provides the base functionality for thread management.">
<polygon fill="white" stroke="#666666" points="130,-118 0,-118 0,-98 130,-98 130,-118"/>
<text text-anchor="middle" x="65" y="-104.5" font-family="Helvetica,sans-Serif" font-size="10.00">AsyncFw::AbstractThread</text>
</a>
</g>
</g>
<!-- Node2&#45;&gt;Node1 -->
<g id="edge1_Node000001_Node000002" class="edge">
<title>Node2&#45;&gt;Node1</title>
<g id="a_edge1_Node000001_Node000002"><a xlink:title=" ">
<path fill="none" stroke="#63b8ff" d="M79.73,-88.86C96.31,-68.47 122.59,-36.13 135.43,-20.32"/>
<polygon fill="#63b8ff" stroke="#63b8ff" points="77.02,-86.65 73.43,-96.62 82.46,-91.07 77.02,-86.65"/>
</a>
</g>
</g>
<!-- Node3 -->
<g id="Node000003" class="node">
<title>Node3</title>
<g id="a_Node000003"><a xlink:href="classAsyncFw_1_1FunctionConnector.html" target="_top" xlink:title="Provides a thread&#45;safe, publisher&#45;subscriber mechanism to establish sender&#45;to&#45;receivers connections.">
<polygon fill="white" stroke="#666666" points="293.88,-124 148.12,-124 148.12,-92 293.88,-92 293.88,-124"/>
<text text-anchor="start" x="156.12" y="-110.5" font-family="Helvetica,sans-Serif" font-size="10.00">AsyncFw::FunctionConnector</text>
<text text-anchor="middle" x="221" y="-98.5" font-family="Helvetica,sans-Serif" font-size="10.00">&lt; Args &gt;</text>
</a>
</g>
</g>
<!-- Node3&#45;&gt;Node1 -->
<g id="edge2_Node000001_Node000003" class="edge">
<title>Node3&#45;&gt;Node1</title>
<g id="a_edge2_Node000001_Node000003"><a xlink:title=" ">
<path fill="none" stroke="#9a32cd" stroke-dasharray="5,2" d="M201.39,-82.86C184.89,-62.56 162.19,-34.61 150.55,-20.29"/>
<polygon fill="#9a32cd" stroke="#9a32cd" points="198.49,-84.85 207.51,-90.4 203.92,-80.43 198.49,-84.85"/>
</a>
</g>
<text text-anchor="middle" x="214.92" y="-64.5" font-family="Helvetica,sans-Serif" font-size="10.00" fill="grey"> destroing</text>
<text text-anchor="middle" x="214.92" y="-52.5" font-family="Helvetica,sans-Serif" font-size="10.00" fill="grey">finished</text>
<text text-anchor="middle" x="214.92" y="-40.5" font-family="Helvetica,sans-Serif" font-size="10.00" fill="grey">started</text>
</g>
</g>
</svg>
