<?xml version="1.0" encoding="UTF-8" standalone="no"?>
<!DOCTYPE svg PUBLIC "-//W3C//DTD SVG 1.1//EN"
 "http://www.w3.org/Graphics/SVG/1.1/DTD/svg11.dtd">
<!-- Generated by graphviz version 14.1.3 (20260303.0454)
 -->
<!-- Title: AsyncFw::HttpServer::clearConnections Pages: 1 -->
<svg width="765pt" height="90pt"
 viewBox="0.00 0.00 765.00 90.00" xmlns="http://www.w3.org/2000/svg" xmlns:xlink="http://www.w3.org/1999/xlink">
<g id="graph0" class="graph" transform="scale(1 1) rotate(0) translate(4 86)">
<title>AsyncFw::HttpServer::clearConnections</title>
<!-- Node1 -->
<g id="Node000001" class="node">
<title>Node1</title>
<g id="a_Node000001"><a xlink:title="Explicitly severs connections with active sockets holding custom user metadata matching data.">
<polygon fill="#999999" stroke="#666666" points="110.5,-57 0,-57 0,-25 110.5,-25 110.5,-57"/>
<text xml:space="preserve" text-anchor="start" x="8" y="-43.5" font-family="Helvetica,sans-Serif" font-size="10.00">AsyncFw::HttpServer</text>
<text xml:space="preserve" text-anchor="middle" x="55.25" y="-31.5" font-family="Helvetica,sans-Serif" font-size="10.00">::clearConnections</text>
</a>
</g>
</g>
<!-- Node2 -->
<g id="Node000002" class="node">
<title>Node2</title>
<g id="a_Node000002"><a xlink:href="classAsyncFw_1_1HttpServer.html#ad7dae50cc3787112980fa7075a60f811" target="_top" xlink:title="Disconnects a specific client socket and clears it from the internally managed pool.">
<polygon fill="white" stroke="#666666" points="259.25,-57 146.5,-57 146.5,-25 259.25,-25 259.25,-57"/>
<text xml:space="preserve" text-anchor="start" x="154.5" y="-43.5" font-family="Helvetica,sans-Serif" font-size="10.00">AsyncFw::HttpServer</text>
<text xml:space="preserve" text-anchor="middle" x="202.88" y="-31.5" font-family="Helvetica,sans-Serif" font-size="10.00">::disconnectFromHost</text>
</a>
</g>
</g>
<!-- Node1&#45;&gt;Node2 -->
<g id="edge1_Node000001_Node000002" class="edge">
<title>Node1&#45;&gt;Node2</title>
<g id="a_edge1_Node000001_Node000002"><a xlink:title=" ">
<path fill="none" stroke="#63b8ff" d="M110.89,-41C118.79,-41 126.99,-41 135.1,-41"/>
<polygon fill="#63b8ff" stroke="#63b8ff" points="134.93,-44.5 144.93,-41 134.93,-37.5 134.93,-44.5"/>
</a>
</g>
</g>
<!-- Node3 -->
<g id="Node000003" class="node">
<title>Node3</title>
<g id="a_Node000003"><a xlink:href="classAsyncFw_1_1AbstractThread.html#af33c5949edb374d673a7a9ac0c81ec32" target="_top" xlink:title="Returns a pointer to the AsyncFw::AbstractThread that manages the currently executing thread.">
<polygon fill="white" stroke="#666666" points="425.25,-82 295.25,-82 295.25,-50 425.25,-50 425.25,-82"/>
<text xml:space="preserve" text-anchor="start" x="303.25" y="-68.5" font-family="Helvetica,sans-Serif" font-size="10.00">AsyncFw::AbstractThread</text>
<text xml:space="preserve" text-anchor="middle" x="360.25" y="-56.5" font-family="Helvetica,sans-Serif" font-size="10.00">::current</text>
</a>
</g>
</g>
<!-- Node2&#45;&gt;Node3 -->
<g id="edge2_Node000002_Node000003" class="edge">
<title>Node2&#45;&gt;Node3</title>
<g id="a_edge2_Node000002_Node000003"><a xlink:title=" ">
<path fill="none" stroke="#63b8ff" d="M259.53,-49.95C267.43,-51.23 275.67,-52.55 283.87,-53.87"/>
<polygon fill="#63b8ff" stroke="#63b8ff" points="283.07,-57.29 293.5,-55.42 284.18,-50.38 283.07,-57.29"/>
</a>
</g>
</g>
<!-- Node6 -->
<g id="Node000006" class="node">
<title>Node6</title>
<g id="a_Node000006"><a xlink:href="classAsyncFw_1_1AbstractThread.html#a786474d037b50053f1a97af7b67e6069" target="_top" xlink:title="Runs a function in a managed thread.">
<polygon fill="white" stroke="#666666" points="425.25,-32 295.25,-32 295.25,0 425.25,0 425.25,-32"/>
<text xml:space="preserve" text-anchor="start" x="303.25" y="-18.5" font-family="Helvetica,sans-Serif" font-size="10.00">AsyncFw::AbstractThread</text>
<text xml:space="preserve" text-anchor="middle" x="360.25" y="-6.5" font-family="Helvetica,sans-Serif" font-size="10.00">::invoke</text>
</a>
</g>
</g>
<!-- Node2&#45;&gt;Node6 -->
<g id="edge5_Node000002_Node000006" class="edge">
<title>Node2&#45;&gt;Node6</title>
<g id="a_edge5_Node000002_Node000006"><a xlink:title=" ">
<path fill="none" stroke="#63b8ff" d="M259.53,-32.05C267.43,-30.77 275.67,-29.45 283.87,-28.13"/>
<polygon fill="#63b8ff" stroke="#63b8ff" points="284.18,-31.62 293.5,-26.58 283.07,-24.71 284.18,-31.62"/>
</a>
</g>
</g>
<!-- Node4 -->
<g id="Node000004" class="node">
<title>Node4</title>
<g id="a_Node000004"><a xlink:href="classAsyncFw_1_1AbstractThread.html#a8c9202c90ac101522f26c4260cb01b59" target="_top" xlink:title="Constructs a thread.">
<polygon fill="white" stroke="#666666" points="591.25,-82 461.25,-82 461.25,-50 591.25,-50 591.25,-82"/>
<text xml:space="preserve" text-anchor="start" x="469.25" y="-68.5" font-family="Helvetica,sans-Serif" font-size="10.00">AsyncFw::AbstractThread</text>
<text xml:space="preserve" text-anchor="middle" x="526.25" y="-56.5" font-family="Helvetica,sans-Serif" font-size="10.00">::AbstractThread</text>
</a>
</g>
</g>
<!-- Node3&#45;&gt;Node4 -->
<g id="edge3_Node000003_Node000004" class="edge">
<title>Node3&#45;&gt;Node4</title>
<g id="a_edge3_Node000003_Node000004"><a xlink:title=" ">
<path fill="none" stroke="#63b8ff" d="M425.6,-66C433.46,-66 441.56,-66 449.58,-66"/>
<polygon fill="#63b8ff" stroke="#63b8ff" points="449.31,-69.5 459.31,-66 449.31,-62.5 449.31,-69.5"/>
</a>
</g>
</g>
<!-- Node5 -->
<g id="Node000005" class="node">
<title>Node5</title>
<g id="a_Node000005"><a xlink:href="classAsyncFw_1_1AbstractThread.html#a0cd916251e061aaf3d456575ef052edd" target="_top" xlink:title="Returns name of managed thread.">
<polygon fill="white" stroke="#666666" points="757.25,-82 627.25,-82 627.25,-50 757.25,-50 757.25,-82"/>
<text xml:space="preserve" text-anchor="start" x="635.25" y="-68.5" font-family="Helvetica,sans-Serif" font-size="10.00">AsyncFw::AbstractThread</text>
<text xml:space="preserve" text-anchor="middle" x="692.25" y="-56.5" font-family="Helvetica,sans-Serif" font-size="10.00">::name</text>
</a>
</g>
</g>
<!-- Node4&#45;&gt;Node5 -->
<g id="edge4_Node000004_Node000005" class="edge">
<title>Node4&#45;&gt;Node5</title>
<g id="a_edge4_Node000004_Node000005"><a xlink:title=" ">
<path fill="none" stroke="#63b8ff" d="M591.6,-66C599.46,-66 607.56,-66 615.58,-66"/>
<polygon fill="#63b8ff" stroke="#63b8ff" points="615.31,-69.5 625.31,-66 615.31,-62.5 615.31,-69.5"/>
</a>
</g>
</g>
<!-- Node7 -->
<g id="Node000007" class="node">
<title>Node7</title>
<g id="a_Node000007"><a xlink:href="classAsyncFw_1_1AbstractThread.html#abe96e6b2a1de041f0d25390a6b77e50a" target="_top" xlink:title="Runs a task in a managed thread.">
<polygon fill="white" stroke="#666666" points="591.25,-32 461.25,-32 461.25,0 591.25,0 591.25,-32"/>
<text xml:space="preserve" text-anchor="start" x="469.25" y="-18.5" font-family="Helvetica,sans-Serif" font-size="10.00">AsyncFw::AbstractThread</text>
<text xml:space="preserve" text-anchor="middle" x="526.25" y="-6.5" font-family="Helvetica,sans-Serif" font-size="10.00">::invokeTask</text>
</a>
</g>
</g>
<!-- Node6&#45;&gt;Node7 -->
<g id="edge6_Node000006_Node000007" class="edge">
<title>Node6&#45;&gt;Node7</title>
<g id="a_edge6_Node000006_Node000007"><a xlink:title=" ">
<path fill="none" stroke="#63b8ff" d="M425.6,-16C433.46,-16 441.56,-16 449.58,-16"/>
<polygon fill="#63b8ff" stroke="#63b8ff" points="449.31,-19.5 459.31,-16 449.31,-12.5 449.31,-19.5"/>
</a>
</g>
</g>
</g>
</svg>
