<?xml version="1.0" encoding="UTF-8" standalone="no"?>
<!DOCTYPE svg PUBLIC "-//W3C//DTD SVG 1.1//EN"
 "http://www.w3.org/Graphics/SVG/1.1/DTD/svg11.dtd">
<!-- Generated by graphviz version 12.2.1 (20241206.2353)
 -->
<!-- Title: AsyncFw::DataArrayTcpServer Pages: 1 -->
<svg width="971pt" height="83pt"
 viewBox="0.00 0.00 970.75 82.73" xmlns="http://www.w3.org/2000/svg" xmlns:xlink="http://www.w3.org/1999/xlink">
<g id="graph0" class="graph" transform="scale(1 1) rotate(0) translate(4 78.73)">
<title>AsyncFw::DataArrayTcpServer</title>
<!-- Node1 -->
<g id="Node000001" class="node">
<title>Node1</title>
<g id="a_Node000001"><a xlink:title="The DataArrayTcpServer class.">
<polygon fill="#999999" stroke="#666666" points="962.75,-48 811.75,-48 811.75,-28 962.75,-28 962.75,-48"/>
<text text-anchor="middle" x="887.25" y="-34.5" font-family="Helvetica,sans-Serif" font-size="10.00">AsyncFw::DataArrayTcpServer</text>
</a>
</g>
</g>
<!-- Node2 -->
<g id="Node000002" class="node">
<title>Node2</title>
<g id="a_Node000002"><a xlink:href="classAsyncFw_1_1DataArrayAbstractTcp.html" target="_top" xlink:title="The DataArrayAbstractTcp class.">
<polygon fill="white" stroke="#666666" points="774.75,-48 615.5,-48 615.5,-28 774.75,-28 774.75,-48"/>
<text text-anchor="middle" x="695.12" y="-34.5" font-family="Helvetica,sans-Serif" font-size="10.00">AsyncFw::DataArrayAbstractTcp</text>
</a>
</g>
</g>
<!-- Node2&#45;&gt;Node1 -->
<g id="edge1_Node000001_Node000002" class="edge">
<title>Node2&#45;&gt;Node1</title>
<g id="a_edge1_Node000001_Node000002"><a xlink:title=" ">
<path fill="none" stroke="#63b8ff" d="M786.47,-38C794.84,-38 803.27,-38 811.48,-38"/>
<polygon fill="#63b8ff" stroke="#63b8ff" points="786.62,-34.5 776.62,-38 786.62,-41.5 786.62,-34.5"/>
</a>
</g>
</g>
<!-- Node3 -->
<g id="Node000003" class="node">
<title>Node3</title>
<g id="a_Node000003"><a xlink:href="classAsyncFw_1_1AbstractThreadPool.html" target="_top" xlink:title="Абстрактный класс для создания пулов управления потоками.">
<polygon fill="white" stroke="#666666" points="505.25,-72 355.75,-72 355.75,-52 505.25,-52 505.25,-72"/>
<text text-anchor="middle" x="430.5" y="-58.5" font-family="Helvetica,sans-Serif" font-size="10.00">AsyncFw::AbstractThreadPool</text>
</a>
</g>
</g>
<!-- Node3&#45;&gt;Node2 -->
<g id="edge2_Node000002_Node000003" class="edge">
<title>Node3&#45;&gt;Node2</title>
<g id="a_edge2_Node000002_Node000003"><a xlink:title=" ">
<path fill="none" stroke="#63b8ff" d="M517.12,-54.18C548.63,-51.3 584.15,-48.05 615.06,-45.23"/>
<polygon fill="#63b8ff" stroke="#63b8ff" points="516.85,-50.69 507.21,-55.08 517.49,-57.66 516.85,-50.69"/>
</a>
</g>
</g>
<!-- Node4 -->
<g id="Node000004" class="node">
<title>Node4</title>
<g id="a_Node000004"><a xlink:href="classAsyncFw_1_1AbstractThread.html" target="_top" xlink:title="The AbstractThread class provides the base functionality for thread management.">
<polygon fill="white" stroke="#666666" points="137.88,-73 7.88,-73 7.88,-53 137.88,-53 137.88,-73"/>
<text text-anchor="middle" x="72.88" y="-59.5" font-family="Helvetica,sans-Serif" font-size="10.00">AsyncFw::AbstractThread</text>
</a>
</g>
</g>
<!-- Node4&#45;&gt;Node3 -->
<g id="edge3_Node000003_Node000004" class="edge">
<title>Node4&#45;&gt;Node3</title>
<g id="a_edge3_Node000003_Node000004"><a xlink:title=" ">
<path fill="none" stroke="#9a32cd" stroke-dasharray="5,2" d="M149.71,-62.79C210.45,-62.62 295.17,-62.38 355.44,-62.21"/>
<polygon fill="#9a32cd" stroke="#9a32cd" points="149.78,-59.29 139.79,-62.81 149.8,-66.29 149.78,-59.29"/>
</a>
</g>
<text text-anchor="middle" x="233.5" y="-65.23" font-family="Helvetica,sans-Serif" font-size="10.00" fill="grey"> thread_</text>
</g>
<!-- Node5 -->
<g id="Node000005" class="node">
<title>Node5</title>
<g id="a_Node000005"><a xlink:href="classAsyncFw_1_1FunctionConnectorProtected.html" target="_top" xlink:title=" ">
<polygon fill="white" stroke="#666666" points="539.75,-33 321.25,-33 321.25,-1 539.75,-1 539.75,-33"/>
<text text-anchor="start" x="329.25" y="-19.5" font-family="Helvetica,sans-Serif" font-size="10.00">AsyncFw::FunctionConnector</text>
<text text-anchor="middle" x="430.5" y="-7.5" font-family="Helvetica,sans-Serif" font-size="10.00">Protected&lt; AsyncFw::DataArrayAbstractTcp &gt;</text>
</a>
</g>
</g>
<!-- Node5&#45;&gt;Node2 -->
<g id="edge4_Node000002_Node000005" class="edge">
<title>Node5&#45;&gt;Node2</title>
<g id="a_edge4_Node000002_Node000005"><a xlink:title=" ">
<path fill="none" stroke="#9a32cd" stroke-dasharray="5,2" d="M551.28,-26.32C566.83,-27.54 582.54,-28.8 597.5,-30 603.2,-30.46 609.1,-30.94 615.03,-31.42"/>
<polygon fill="#9a32cd" stroke="#9a32cd" points="551.75,-22.84 541.51,-25.55 551.2,-29.82 551.75,-22.84"/>
</a>
</g>
<text text-anchor="middle" x="577.62" y="-32.5" font-family="Helvetica,sans-Serif" font-size="10.00" fill="grey"> received</text>
</g>
<!-- Node6 -->
<g id="Node000006" class="node">
<title>Node6</title>
<g id="a_Node000006"><a xlink:href="classAsyncFw_1_1FunctionConnectorProtected.html" target="_top" xlink:title="Защищенный коннетор, отправитель может быть только один.">
<polygon fill="white" stroke="#666666" points="145.75,-32 0,-32 0,0 145.75,0 145.75,-32"/>
<text text-anchor="start" x="8" y="-18.5" font-family="Helvetica,sans-Serif" font-size="10.00">AsyncFw::FunctionConnector</text>
<text text-anchor="middle" x="72.88" y="-6.5" font-family="Helvetica,sans-Serif" font-size="10.00">Protected&lt; F &gt;</text>
</a>
</g>
</g>
<!-- Node6&#45;&gt;Node5 -->
<g id="edge5_Node000005_Node000006" class="edge">
<title>Node6&#45;&gt;Node5</title>
<g id="a_edge5_Node000005_Node000006"><a xlink:title=" ">
<path fill="none" stroke="orange" stroke-dasharray="5,2" d="M157.31,-16.23C206.1,-16.37 268.24,-16.55 320.83,-16.69"/>
<polygon fill="orange" stroke="orange" points="157.36,-12.73 147.35,-16.21 157.34,-19.73 157.36,-12.73"/>
</a>
</g>
<text text-anchor="start" x="163.75" y="-31.12" font-family="Helvetica,sans-Serif" font-size="10.00" fill="grey"> &lt; AsyncFw::DataArrayAbstract</text>
<text text-anchor="middle" x="233.5" y="-19.12" font-family="Helvetica,sans-Serif" font-size="10.00" fill="grey">Tcp &gt;</text>
</g>
</g>
</svg>
