<?xml version="1.0" encoding="UTF-8" standalone="no"?>
<!DOCTYPE svg PUBLIC "-//W3C//DTD SVG 1.1//EN"
 "http://www.w3.org/Graphics/SVG/1.1/DTD/svg11.dtd">
<!-- Generated by graphviz version 14.1.3 (20260303.0454)
 -->
<!-- Title: AsyncFw::TlsContext::infoKey Pages: 1 -->
<svg width="288pt" height="128pt"
 viewBox="0.00 0.00 288.00 128.00" xmlns="http://www.w3.org/2000/svg" xmlns:xlink="http://www.w3.org/1999/xlink">
<g id="graph0" class="graph" transform="scale(1 1) rotate(0) translate(4 124)">
<title>AsyncFw::TlsContext::infoKey</title>
<!-- Node1 -->
<g id="Node000001" class="node">
<title>Node1</title>
<g id="a_Node000001"><a xlink:title="Parses a raw PEM&#45;formatted private key buffer and extracts its diagnostic properties.">
<polygon fill="#999999" stroke="#666666" points="111.25,-76 0,-76 0,-44 111.25,-44 111.25,-76"/>
<text xml:space="preserve" text-anchor="start" x="8" y="-62.5" font-family="Helvetica,sans-Serif" font-size="10.00">AsyncFw::TlsContext</text>
<text xml:space="preserve" text-anchor="middle" x="55.62" y="-50.5" font-family="Helvetica,sans-Serif" font-size="10.00">::infoKey</text>
</a>
</g>
</g>
<!-- Node2 -->
<g id="Node000002" class="node">
<title>Node2</title>
<g id="a_Node000002"><a xlink:href="classAsyncFw_1_1TlsContext.html#aac5676503ece10fccb60192d4cd573c5" target="_top" xlink:title="Return info of private key.">
<polygon fill="white" stroke="#666666" points="269.38,-120 158.12,-120 158.12,-88 269.38,-88 269.38,-120"/>
<text xml:space="preserve" text-anchor="start" x="166.12" y="-106.5" font-family="Helvetica,sans-Serif" font-size="10.00">AsyncFw::TlsContext</text>
<text xml:space="preserve" text-anchor="middle" x="213.75" y="-94.5" font-family="Helvetica,sans-Serif" font-size="10.00">::infoKey</text>
</a>
</g>
</g>
<!-- Node1&#45;&gt;Node2 -->
<g id="edge1_Node000001_Node000002" class="edge">
<title>Node1&#45;&gt;Node2</title>
<g id="a_edge1_Node000001_Node000002"><a xlink:title=" ">
<path fill="none" stroke="#63b8ff" d="M111.67,-75.51C122.98,-78.7 135,-82.09 146.65,-85.37"/>
<polygon fill="#63b8ff" stroke="#63b8ff" points="145.65,-88.72 156.22,-88.07 147.54,-81.99 145.65,-88.72"/>
</a>
</g>
</g>
<!-- Node3 -->
<g id="Node000003" class="node">
<title>Node3</title>
<g id="a_Node000003"><a xlink:href="classAsyncFw_1_1TlsContext.html#adbefc1c150e7e2965f27e154fce622e4" target="_top" xlink:title="Return private key in PEM format.">
<polygon fill="white" stroke="#666666" points="280.25,-70 147.25,-70 147.25,-50 280.25,-50 280.25,-70"/>
<text xml:space="preserve" text-anchor="middle" x="213.75" y="-56.5" font-family="Helvetica,sans-Serif" font-size="10.00">AsyncFw::TlsContext::key</text>
</a>
</g>
</g>
<!-- Node1&#45;&gt;Node3 -->
<g id="edge2_Node000001_Node000003" class="edge">
<title>Node1&#45;&gt;Node3</title>
<g id="a_edge2_Node000001_Node000003"><a xlink:title=" ">
<path fill="none" stroke="#63b8ff" d="M111.67,-60C119.43,-60 127.52,-60 135.59,-60"/>
<polygon fill="#63b8ff" stroke="#63b8ff" points="135.45,-63.5 145.45,-60 135.45,-56.5 135.45,-63.5"/>
</a>
</g>
</g>
<!-- Node4 -->
<g id="Node000004" class="node">
<title>Node4</title>
<g id="a_Node000004"><a xlink:href="classAsyncFw_1_1TlsContext.html#acbec0996184d7c2de72f7ea02344d849" target="_top" xlink:title="Set private key.">
<polygon fill="white" stroke="#666666" points="269.38,-32 158.12,-32 158.12,0 269.38,0 269.38,-32"/>
<text xml:space="preserve" text-anchor="start" x="166.12" y="-18.5" font-family="Helvetica,sans-Serif" font-size="10.00">AsyncFw::TlsContext</text>
<text xml:space="preserve" text-anchor="middle" x="213.75" y="-6.5" font-family="Helvetica,sans-Serif" font-size="10.00">::setKey</text>
</a>
</g>
</g>
<!-- Node1&#45;&gt;Node4 -->
<g id="edge3_Node000001_Node000004" class="edge">
<title>Node1&#45;&gt;Node4</title>
<g id="a_edge3_Node000001_Node000004"><a xlink:title=" ">
<path fill="none" stroke="#63b8ff" d="M111.67,-44.49C122.98,-41.3 135,-37.91 146.65,-34.63"/>
<polygon fill="#63b8ff" stroke="#63b8ff" points="147.54,-38.01 156.22,-31.93 145.65,-31.28 147.54,-38.01"/>
</a>
</g>
</g>
</g>
</svg>
