<?xml version="1.0" encoding="UTF-8" standalone="no"?>
<!DOCTYPE svg PUBLIC "-//W3C//DTD SVG 1.1//EN"
 "http://www.w3.org/Graphics/SVG/1.1/DTD/svg11.dtd">
<!-- Generated by graphviz version 14.1.3 (20260303.0454)
 -->
<!-- Title: AsyncFw::DataArrayAbstractTcp::Thread::initSocket Pages: 1 -->
<svg width="533pt" height="340pt"
 viewBox="0.00 0.00 533.00 340.00" xmlns="http://www.w3.org/2000/svg" xmlns:xlink="http://www.w3.org/1999/xlink">
<g id="graph0" class="graph" transform="scale(1 1) rotate(0) translate(4 336)">
<title>AsyncFw::DataArrayAbstractTcp::Thread::initSocket</title>
<!-- Node1 -->
<g id="Node000001" class="node">
<title>Node1</title>
<g id="a_Node000001"><a xlink:title="Configures timeouts, buffer sizes, and signal bounds for a new socket context.">
<polygon fill="#999999" stroke="#666666" points="144.25,-182 0,-182 0,-150 144.25,-150 144.25,-182"/>
<text xml:space="preserve" text-anchor="start" x="8" y="-168.5" font-family="Helvetica,sans-Serif" font-size="10.00">AsyncFw::DataArrayAbstract</text>
<text xml:space="preserve" text-anchor="middle" x="72.12" y="-156.5" font-family="Helvetica,sans-Serif" font-size="10.00">Tcp::Thread::initSocket</text>
</a>
</g>
</g>
<!-- Node2 -->
<g id="Node000002" class="node">
<title>Node2</title>
<g id="a_Node000002"><a xlink:href="classAsyncFw_1_1AbstractThread.html#a786474d037b50053f1a97af7b67e6069" target="_top" xlink:title="Runs a function in a managed thread.">
<polygon fill="white" stroke="#666666" points="334.62,-332 204.62,-332 204.62,-300 334.62,-300 334.62,-332"/>
<text xml:space="preserve" text-anchor="start" x="212.62" y="-318.5" font-family="Helvetica,sans-Serif" font-size="10.00">AsyncFw::AbstractThread</text>
<text xml:space="preserve" text-anchor="middle" x="269.62" y="-306.5" font-family="Helvetica,sans-Serif" font-size="10.00">::invoke</text>
</a>
</g>
</g>
<!-- Node1&#45;&gt;Node2 -->
<g id="edge1_Node000001_Node000002" class="edge">
<title>Node1&#45;&gt;Node2</title>
<g id="a_edge1_Node000001_Node000002"><a xlink:title=" ">
<path fill="none" stroke="#63b8ff" d="M82.46,-182.07C98.82,-208.78 135.22,-262.21 180.25,-291 184.52,-293.73 189.09,-296.17 193.83,-298.35"/>
<polygon fill="#63b8ff" stroke="#63b8ff" points="192.42,-301.55 203,-302.13 195.09,-295.08 192.42,-301.55"/>
</a>
</g>
</g>
<!-- Node4 -->
<g id="Node000004" class="node">
<title>Node4</title>
<g id="a_Node000004"><a xlink:href="classAsyncFw_1_1DataArraySocket.html#af6faaf80328db0a1644cd6b89ffae7eb" target="_top" xlink:title="Frees the memory allocated for the read buffer associated with the given pointer.">
<polygon fill="white" stroke="#666666" points="338.75,-282 200.5,-282 200.5,-250 338.75,-250 338.75,-282"/>
<text xml:space="preserve" text-anchor="start" x="208.5" y="-268.5" font-family="Helvetica,sans-Serif" font-size="10.00">AsyncFw::DataArraySocket</text>
<text xml:space="preserve" text-anchor="middle" x="269.62" y="-256.5" font-family="Helvetica,sans-Serif" font-size="10.00">::releaseBuffer</text>
</a>
</g>
</g>
<!-- Node1&#45;&gt;Node4 -->
<g id="edge3_Node000001_Node000004" class="edge">
<title>Node1&#45;&gt;Node4</title>
<g id="a_edge3_Node000001_Node000004"><a xlink:title=" ">
<path fill="none" stroke="#63b8ff" d="M92.03,-182.22C112.53,-199.06 146.82,-225.13 180.25,-241 183.74,-242.66 187.36,-244.22 191.06,-245.7"/>
<polygon fill="#63b8ff" stroke="#63b8ff" points="189.62,-248.9 200.21,-249.12 192.06,-242.34 189.62,-248.9"/>
</a>
</g>
</g>
<!-- Node5 -->
<g id="Node000005" class="node">
<title>Node5</title>
<g id="a_Node000005"><a xlink:href="classAsyncFw_1_1DataArraySocket.html#a3f856b69e149a98d06ca62582fea708d" target="_top" xlink:title="Configures limits for incoming (read) data buffers.">
<polygon fill="white" stroke="#666666" points="338.75,-232 200.5,-232 200.5,-200 338.75,-200 338.75,-232"/>
<text xml:space="preserve" text-anchor="start" x="208.5" y="-218.5" font-family="Helvetica,sans-Serif" font-size="10.00">AsyncFw::DataArraySocket</text>
<text xml:space="preserve" text-anchor="middle" x="269.62" y="-206.5" font-family="Helvetica,sans-Serif" font-size="10.00">::setReadBuffers</text>
</a>
</g>
</g>
<!-- Node1&#45;&gt;Node5 -->
<g id="edge4_Node000001_Node000005" class="edge">
<title>Node1&#45;&gt;Node5</title>
<g id="a_edge4_Node000001_Node000005"><a xlink:title=" ">
<path fill="none" stroke="#63b8ff" d="M137.41,-182.44C155.28,-187.01 174.85,-192.02 193.29,-196.73"/>
<polygon fill="#63b8ff" stroke="#63b8ff" points="192.28,-200.09 202.84,-199.17 194.01,-193.31 192.28,-200.09"/>
</a>
</g>
</g>
<!-- Node6 -->
<g id="Node000006" class="node">
<title>Node6</title>
<g id="a_Node000006"><a xlink:href="classAsyncFw_1_1DataArraySocket.html#a740f58c6fb06a731c59f7b3e9dace41e" target="_top" xlink:title="Sets the data read operation timeout interval.">
<polygon fill="white" stroke="#666666" points="338.75,-182 200.5,-182 200.5,-150 338.75,-150 338.75,-182"/>
<text xml:space="preserve" text-anchor="start" x="208.5" y="-168.5" font-family="Helvetica,sans-Serif" font-size="10.00">AsyncFw::DataArraySocket</text>
<text xml:space="preserve" text-anchor="middle" x="269.62" y="-156.5" font-family="Helvetica,sans-Serif" font-size="10.00">::setReadTimeout</text>
</a>
</g>
</g>
<!-- Node1&#45;&gt;Node6 -->
<g id="edge5_Node000001_Node000006" class="edge">
<title>Node1&#45;&gt;Node6</title>
<g id="a_edge5_Node000001_Node000006"><a xlink:title=" ">
<path fill="none" stroke="#63b8ff" d="M144.53,-166C158.96,-166 174.22,-166 188.91,-166"/>
<polygon fill="#63b8ff" stroke="#63b8ff" points="188.5,-169.5 198.5,-166 188.5,-162.5 188.5,-169.5"/>
</a>
</g>
</g>
<!-- Node7 -->
<g id="Node000007" class="node">
<title>Node7</title>
<g id="a_Node000007"><a xlink:href="classAsyncFw_1_1DataArraySocket.html#a7492a485097b835031af94924030e612" target="_top" xlink:title="Sets the timeout interval for establishing a TLS handshake.">
<polygon fill="white" stroke="#666666" points="345.12,-132 194.12,-132 194.12,-100 345.12,-100 345.12,-132"/>
<text xml:space="preserve" text-anchor="start" x="202.12" y="-118.5" font-family="Helvetica,sans-Serif" font-size="10.00">AsyncFw::DataArraySocket</text>
<text xml:space="preserve" text-anchor="middle" x="269.62" y="-106.5" font-family="Helvetica,sans-Serif" font-size="10.00">::setWaitForEncryptionTimeout</text>
</a>
</g>
</g>
<!-- Node1&#45;&gt;Node7 -->
<g id="edge6_Node000001_Node000007" class="edge">
<title>Node1&#45;&gt;Node7</title>
<g id="a_edge6_Node000001_Node000007"><a xlink:title=" ">
<path fill="none" stroke="#63b8ff" d="M137.41,-149.56C155.28,-144.99 174.85,-139.98 193.29,-135.27"/>
<polygon fill="#63b8ff" stroke="#63b8ff" points="194.01,-138.69 202.84,-132.83 192.28,-131.91 194.01,-138.69"/>
</a>
</g>
</g>
<!-- Node8 -->
<g id="Node000008" class="node">
<title>Node8</title>
<g id="a_Node000008"><a xlink:href="classAsyncFw_1_1DataArraySocket.html#a020287f09c337a869e9a6b52b15ea0f4" target="_top" xlink:title="Sets the timeout interval for receiving a keep&#45;alive response.">
<polygon fill="white" stroke="#666666" points="359,-82 180.25,-82 180.25,-50 359,-50 359,-82"/>
<text xml:space="preserve" text-anchor="start" x="188.25" y="-68.5" font-family="Helvetica,sans-Serif" font-size="10.00">AsyncFw::DataArraySocket</text>
<text xml:space="preserve" text-anchor="middle" x="269.62" y="-56.5" font-family="Helvetica,sans-Serif" font-size="10.00">::setWaitKeepAliveResponseTimeout</text>
</a>
</g>
</g>
<!-- Node1&#45;&gt;Node8 -->
<g id="edge7_Node000001_Node000008" class="edge">
<title>Node1&#45;&gt;Node8</title>
<g id="a_edge7_Node000001_Node000008"><a xlink:title=" ">
<path fill="none" stroke="#63b8ff" d="M92.03,-149.78C112.53,-132.94 146.82,-106.87 180.25,-91 183.74,-89.34 187.36,-87.78 191.06,-86.3"/>
<polygon fill="#63b8ff" stroke="#63b8ff" points="192.06,-89.66 200.21,-82.88 189.62,-83.1 192.06,-89.66"/>
</a>
</g>
</g>
<!-- Node9 -->
<g id="Node000009" class="node">
<title>Node9</title>
<g id="a_Node000009"><a xlink:href="classAsyncFw_1_1DataArraySocket.html#a63f570b3f48c75df1a306573e643b7f8" target="_top" xlink:title="Configures limits for outgoing (write) data buffers.">
<polygon fill="white" stroke="#666666" points="338.75,-32 200.5,-32 200.5,0 338.75,0 338.75,-32"/>
<text xml:space="preserve" text-anchor="start" x="208.5" y="-18.5" font-family="Helvetica,sans-Serif" font-size="10.00">AsyncFw::DataArraySocket</text>
<text xml:space="preserve" text-anchor="middle" x="269.62" y="-6.5" font-family="Helvetica,sans-Serif" font-size="10.00">::setWriteBuffers</text>
</a>
</g>
</g>
<!-- Node1&#45;&gt;Node9 -->
<g id="edge8_Node000001_Node000009" class="edge">
<title>Node1&#45;&gt;Node9</title>
<g id="a_edge8_Node000001_Node000009"><a xlink:title=" ">
<path fill="none" stroke="#63b8ff" d="M82.46,-149.93C98.82,-123.22 135.22,-69.79 180.25,-41 183.34,-39.02 186.59,-37.2 189.94,-35.52"/>
<polygon fill="#63b8ff" stroke="#63b8ff" points="191.19,-38.8 198.88,-31.51 188.32,-32.41 191.19,-38.8"/>
</a>
</g>
</g>
<!-- Node3 -->
<g id="Node000003" class="node">
<title>Node3</title>
<g id="a_Node000003"><a xlink:href="classAsyncFw_1_1AbstractThread.html#abe96e6b2a1de041f0d25390a6b77e50a" target="_top" xlink:title="Runs a task in a managed thread.">
<polygon fill="white" stroke="#666666" points="525,-332 395,-332 395,-300 525,-300 525,-332"/>
<text xml:space="preserve" text-anchor="start" x="403" y="-318.5" font-family="Helvetica,sans-Serif" font-size="10.00">AsyncFw::AbstractThread</text>
<text xml:space="preserve" text-anchor="middle" x="460" y="-306.5" font-family="Helvetica,sans-Serif" font-size="10.00">::invokeTask</text>
</a>
</g>
</g>
<!-- Node2&#45;&gt;Node3 -->
<g id="edge2_Node000002_Node000003" class="edge">
<title>Node2&#45;&gt;Node3</title>
<g id="a_edge2_Node000002_Node000003"><a xlink:title=" ">
<path fill="none" stroke="#63b8ff" d="M334.93,-316C350.45,-316 367.18,-316 383.18,-316"/>
<polygon fill="#63b8ff" stroke="#63b8ff" points="383.16,-319.5 393.16,-316 383.16,-312.5 383.16,-319.5"/>
</a>
</g>
</g>
</g>
</svg>
