<?xml version="1.0" encoding="UTF-8" standalone="no"?>
<!DOCTYPE svg PUBLIC "-//W3C//DTD SVG 1.1//EN"
 "http://www.w3.org/Graphics/SVG/1.1/DTD/svg11.dtd">
<!-- Generated by graphviz version 14.1.3 (20260303.0454)
 -->
<!-- Title: AsyncFw::RrdServer Pages: 1 -->
<svg width="1114pt" height="123pt"
 viewBox="0.00 0.00 1114.00 123.00" xmlns="http://www.w3.org/2000/svg" xmlns:xlink="http://www.w3.org/1999/xlink">
<g id="graph0" class="graph" transform="scale(1 1) rotate(0) translate(4 118.52)">
<title>AsyncFw::RrdServer</title>
<!-- Node1 -->
<g id="Node000001" class="node">
<title>Node1</title>
<g id="a_Node000001"><a xlink:title="The RrdServer class.">
<polygon fill="#999999" stroke="#666666" points="1105.5,-46 998,-46 998,-26 1105.5,-26 1105.5,-46"/>
<text xml:space="preserve" text-anchor="middle" x="1051.75" y="-32.5" font-family="Helvetica,sans-Serif" font-size="10.00">AsyncFw::RrdServer</text>
</a>
</g>
</g>
<!-- Node2 -->
<g id="Node000002" class="node">
<title>Node2</title>
<g id="a_Node000002"><a xlink:href="classAsyncFw_1_1DataArrayTcpServer.html" target="_top" xlink:title="The DataArrayTcpServer class.">
<polygon fill="white" stroke="#666666" points="914,-70 763,-70 763,-50 914,-50 914,-70"/>
<text xml:space="preserve" text-anchor="middle" x="838.5" y="-56.5" font-family="Helvetica,sans-Serif" font-size="10.00">AsyncFw::DataArrayTcpServer</text>
</a>
</g>
</g>
<!-- Node2&#45;&gt;Node1 -->
<g id="edge1_Node000001_Node000002" class="edge">
<title>Node2&#45;&gt;Node1</title>
<g id="a_edge1_Node000001_Node000002"><a xlink:title=" ">
<path fill="none" stroke="#9a32cd" stroke-dasharray="5,2" d="M925.39,-50.24C949.85,-47.46 975.77,-44.52 997.65,-42.03"/>
<polygon fill="#9a32cd" stroke="#9a32cd" points="925.32,-46.73 915.78,-51.33 926.11,-53.68 925.32,-46.73"/>
</a>
</g>
<text xml:space="preserve" text-anchor="start" x="935" y="-54.69" font-family="Helvetica,sans-Serif" font-size="10.00" fill="grey">tcpServer</text>
</g>
<!-- Node3 -->
<g id="Node000003" class="node">
<title>Node3</title>
<g id="a_Node000003"><a xlink:href="classAsyncFw_1_1DataArrayAbstractTcp.html" target="_top" xlink:title="The DataArrayAbstractTcp class.">
<polygon fill="white" stroke="#666666" points="726,-70 566.75,-70 566.75,-50 726,-50 726,-70"/>
<text xml:space="preserve" text-anchor="middle" x="646.38" y="-56.5" font-family="Helvetica,sans-Serif" font-size="10.00">AsyncFw::DataArrayAbstractTcp</text>
</a>
</g>
</g>
<!-- Node3&#45;&gt;Node2 -->
<g id="edge2_Node000002_Node000003" class="edge">
<title>Node3&#45;&gt;Node2</title>
<g id="a_edge2_Node000002_Node000003"><a xlink:title=" ">
<path fill="none" stroke="#63b8ff" d="M737.72,-60C746.09,-60 754.52,-60 762.73,-60"/>
<polygon fill="#63b8ff" stroke="#63b8ff" points="737.87,-56.5 727.87,-60 737.87,-63.5 737.87,-56.5"/>
</a>
</g>
</g>
<!-- Node4 -->
<g id="Node000004" class="node">
<title>Node4</title>
<g id="a_Node000004"><a xlink:href="classAsyncFw_1_1AbstractThreadPool.html" target="_top" xlink:title="Abstract base class for creating and managing thread pools.">
<polygon fill="white" stroke="#666666" points="476,-103 326.5,-103 326.5,-83 476,-83 476,-103"/>
<text xml:space="preserve" text-anchor="middle" x="401.25" y="-89.5" font-family="Helvetica,sans-Serif" font-size="10.00">AsyncFw::AbstractThreadPool</text>
</a>
</g>
</g>
<!-- Node4&#45;&gt;Node3 -->
<g id="edge3_Node000003_Node000004" class="edge">
<title>Node4&#45;&gt;Node3</title>
<g id="a_edge3_Node000003_Node000004"><a xlink:title=" ">
<path fill="none" stroke="#63b8ff" d="M487.32,-81.45C513.71,-77.87 542.62,-73.95 568.42,-70.44"/>
<polygon fill="#63b8ff" stroke="#63b8ff" points="487.12,-77.95 477.69,-82.76 488.07,-84.88 487.12,-77.95"/>
</a>
</g>
</g>
<!-- Node5 -->
<g id="Node000005" class="node">
<title>Node5</title>
<g id="a_Node000005"><a xlink:href="classAsyncFw_1_1AbstractThread.html" target="_top" xlink:title="The AbstractThread class provides the base functionality for thread management.">
<polygon fill="white" stroke="#666666" points="137.88,-108 7.88,-108 7.88,-88 137.88,-88 137.88,-108"/>
<text xml:space="preserve" text-anchor="middle" x="72.88" y="-94.5" font-family="Helvetica,sans-Serif" font-size="10.00">AsyncFw::AbstractThread</text>
</a>
</g>
</g>
<!-- Node5&#45;&gt;Node4 -->
<g id="edge4_Node000004_Node000005" class="edge">
<title>Node5&#45;&gt;Node4</title>
<g id="a_edge4_Node000004_Node000005"><a xlink:title=" ">
<path fill="none" stroke="#9a32cd" stroke-dasharray="5,2" d="M149.75,-96.84C202.88,-96.02 273.49,-94.94 326.21,-94.13"/>
<polygon fill="#9a32cd" stroke="#9a32cd" points="149.81,-93.34 139.87,-96.99 149.92,-100.34 149.81,-93.34"/>
</a>
</g>
<text xml:space="preserve" text-anchor="start" x="214" y="-101.77" font-family="Helvetica,sans-Serif" font-size="10.00" fill="grey">thread_</text>
</g>
<!-- Node6 -->
<g id="Node000006" class="node">
<title>Node6</title>
<g id="a_Node000006"><a xlink:href="classAsyncFw_1_1FunctionConnector.html" target="_top" xlink:title=" ">
<polygon fill="white" stroke="#666666" points="488,-61 314.5,-61 314.5,-5 488,-5 488,-61"/>
<text xml:space="preserve" text-anchor="start" x="322.5" y="-47.5" font-family="Helvetica,sans-Serif" font-size="10.00">AsyncFw::FunctionConnector</text>
<text xml:space="preserve" text-anchor="start" x="322.5" y="-35.5" font-family="Helvetica,sans-Serif" font-size="10.00">&lt; const AsyncFw::DataArraySocket</text>
<text xml:space="preserve" text-anchor="start" x="322.5" y="-23.5" font-family="Helvetica,sans-Serif" font-size="10.00"> *, const AsyncFw::DataArray</text>
<text xml:space="preserve" text-anchor="middle" x="401.25" y="-11.5" font-family="Helvetica,sans-Serif" font-size="10.00"> *, uint32_t &gt;</text>
</a>
</g>
</g>
<!-- Node6&#45;&gt;Node3 -->
<g id="edge5_Node000003_Node000006" class="edge">
<title>Node6&#45;&gt;Node3</title>
<g id="a_edge5_Node000003_Node000006"><a xlink:title=" ">
<path fill="none" stroke="#9a32cd" stroke-dasharray="5,2" d="M499.45,-43.79C521.66,-46.26 545,-48.85 566.34,-51.22"/>
<polygon fill="#9a32cd" stroke="#9a32cd" points="500.14,-40.35 489.81,-42.72 499.37,-47.31 500.14,-40.35"/>
</a>
</g>
<text xml:space="preserve" text-anchor="start" x="509" y="-54.17" font-family="Helvetica,sans-Serif" font-size="10.00" fill="grey">received</text>
</g>
<!-- Node7 -->
<g id="Node000007" class="node">
<title>Node7</title>
<g id="a_Node000007"><a xlink:href="classAsyncFw_1_1FunctionConnector.html" target="_top" xlink:title="Provides a thread&#45;safe, publisher&#45;subscriber mechanism to establish sender&#45;to&#45;receivers connections.">
<polygon fill="white" stroke="#666666" points="145.75,-41 0,-41 0,-9 145.75,-9 145.75,-41"/>
<text xml:space="preserve" text-anchor="start" x="8" y="-27.5" font-family="Helvetica,sans-Serif" font-size="10.00">AsyncFw::FunctionConnector</text>
<text xml:space="preserve" text-anchor="middle" x="72.88" y="-15.5" font-family="Helvetica,sans-Serif" font-size="10.00">&lt; Args &gt;</text>
</a>
</g>
</g>
<!-- Node7&#45;&gt;Node6 -->
<g id="edge6_Node000006_Node000007" class="edge">
<title>Node7&#45;&gt;Node6</title>
<g id="a_edge6_Node000006_Node000007"><a xlink:title=" ">
<path fill="none" stroke="orange" stroke-dasharray="5,2" d="M157.22,-27.04C205.31,-28.22 265.68,-29.7 314.22,-30.89"/>
<polygon fill="orange" stroke="orange" points="157.5,-23.55 147.42,-26.8 157.33,-30.55 157.5,-23.55"/>
</a>
</g>
<text xml:space="preserve" text-anchor="start" x="166.75" y="-67.66" font-family="Helvetica,sans-Serif" font-size="10.00" fill="grey">&lt; const AsyncFw::DataArray</text>
<text xml:space="preserve" text-anchor="start" x="166.75" y="-51.66" font-family="Helvetica,sans-Serif" font-size="10.00" fill="grey">  Socket *, const AsyncFw</text>
<text xml:space="preserve" text-anchor="start" x="166.75" y="-35.66" font-family="Helvetica,sans-Serif" font-size="10.00" fill="grey">  ::DataArray *, uint32_t &gt;</text>
</g>
<!-- Node8 -->
<g id="Node000008" class="node">
<title>Node8</title>
<g id="a_Node000008"><a xlink:href="classAsyncFw_1_1FunctionConnectionGuard.html" target="_top" xlink:title="An RAII guard that automatically manages the lifecycle of a FunctionConnector connection.">
<polygon fill="white" stroke="#666666" points="913.62,-32 763.38,-32 763.38,0 913.62,0 913.62,-32"/>
<text xml:space="preserve" text-anchor="start" x="771.38" y="-18.5" font-family="Helvetica,sans-Serif" font-size="10.00">AsyncFw::FunctionConnection</text>
<text xml:space="preserve" text-anchor="middle" x="838.5" y="-6.5" font-family="Helvetica,sans-Serif" font-size="10.00">Guard</text>
</a>
</g>
</g>
<!-- Node8&#45;&gt;Node1 -->
<g id="edge7_Node000001_Node000008" class="edge">
<title>Node8&#45;&gt;Node1</title>
<g id="a_edge7_Node000001_Node000008"><a xlink:title=" ">
<path fill="none" stroke="#9a32cd" stroke-dasharray="5,2" d="M925.53,-14.03C943.58,-14.51 962.46,-15.68 980,-18 992.06,-19.6 1005.03,-22.53 1016.52,-25.57"/>
<polygon fill="#9a32cd" stroke="#9a32cd" points="925.69,-10.53 915.63,-13.84 925.56,-17.53 925.69,-10.53"/>
</a>
</g>
<text xml:space="preserve" text-anchor="start" x="950.38" y="-23.25" font-family="Helvetica,sans-Serif" font-size="10.00" fill="grey">rf_</text>
</g>
</g>
</svg>
