<?xml version="1.0" encoding="UTF-8" standalone="no"?>
<!DOCTYPE svg PUBLIC "-//W3C//DTD SVG 1.1//EN"
 "http://www.w3.org/Graphics/SVG/1.1/DTD/svg11.dtd">
<!-- Generated by graphviz version 14.1.3 (20260303.0454)
 -->
<!-- Title: AsyncFw::AbstractThread::invokeTask Pages: 1 -->
<svg width="922pt" height="340pt"
 viewBox="0.00 0.00 922.00 340.00" xmlns="http://www.w3.org/2000/svg" xmlns:xlink="http://www.w3.org/1999/xlink">
<g id="graph0" class="graph" transform="scale(1 1) rotate(0) translate(4 336)">
<title>AsyncFw::AbstractThread::invokeTask</title>
<!-- Node1 -->
<g id="Node000001" class="node">
<title>Node1</title>
<g id="a_Node000001"><a xlink:title="Runs a task in a managed thread.">
<polygon fill="#999999" stroke="#666666" points="913.5,-132 783.5,-132 783.5,-100 913.5,-100 913.5,-132"/>
<text xml:space="preserve" text-anchor="start" x="791.5" y="-118.5" font-family="Helvetica,sans-Serif" font-size="10.00">AsyncFw::AbstractThread</text>
<text xml:space="preserve" text-anchor="middle" x="848.5" y="-106.5" font-family="Helvetica,sans-Serif" font-size="10.00">::invokeTask</text>
</a>
</g>
</g>
<!-- Node2 -->
<g id="Node000002" class="node">
<title>Node2</title>
<g id="a_Node000002"><a xlink:href="classAsyncFw_1_1AbstractThread.html#a786474d037b50053f1a97af7b67e6069" target="_top" xlink:title="Runs a function in a managed thread.">
<polygon fill="white" stroke="#666666" points="747.5,-182 617.5,-182 617.5,-150 747.5,-150 747.5,-182"/>
<text xml:space="preserve" text-anchor="start" x="625.5" y="-168.5" font-family="Helvetica,sans-Serif" font-size="10.00">AsyncFw::AbstractThread</text>
<text xml:space="preserve" text-anchor="middle" x="682.5" y="-156.5" font-family="Helvetica,sans-Serif" font-size="10.00">::invoke</text>
</a>
</g>
</g>
<!-- Node1&#45;&gt;Node2 -->
<g id="edge1_Node000001_Node000002" class="edge">
<title>Node1&#45;&gt;Node2</title>
<g id="a_edge1_Node000001_Node000002"><a xlink:title=" ">
<path fill="none" stroke="#63b8ff" d="M783.03,-135.66C767.99,-140.24 752.13,-145.08 737.6,-149.51"/>
<polygon fill="#63b8ff" stroke="#63b8ff" points="783.81,-139.08 792.35,-132.81 781.77,-132.38 783.81,-139.08"/>
</a>
</g>
</g>
<!-- Node18 -->
<g id="Node000018" class="node">
<title>Node18</title>
<g id="a_Node000018"><a xlink:href="classAsyncFw_1_1AbstractThread.html#a499a70b1d68a82fcded917a331f4cdef" target="_top" xlink:title="Remove poll descriptor.">
<polygon fill="white" stroke="#666666" points="747.5,-132 617.5,-132 617.5,-100 747.5,-100 747.5,-132"/>
<text xml:space="preserve" text-anchor="start" x="625.5" y="-118.5" font-family="Helvetica,sans-Serif" font-size="10.00">AsyncFw::AbstractThread</text>
<text xml:space="preserve" text-anchor="middle" x="682.5" y="-106.5" font-family="Helvetica,sans-Serif" font-size="10.00">::removePollDescriptor</text>
</a>
</g>
</g>
<!-- Node1&#45;&gt;Node18 -->
<g id="edge17_Node000001_Node000018" class="edge">
<title>Node1&#45;&gt;Node18</title>
<g id="a_edge17_Node000001_Node000018"><a xlink:title=" ">
<path fill="none" stroke="#63b8ff" d="M771.91,-116C763.9,-116 755.8,-116 747.93,-116"/>
<polygon fill="#63b8ff" stroke="#63b8ff" points="771.64,-119.5 781.64,-116 771.64,-112.5 771.64,-119.5"/>
</a>
</g>
</g>
<!-- Node19 -->
<g id="Node000019" class="node">
<title>Node19</title>
<g id="a_Node000019"><a xlink:href="classAsyncFw_1_1AbstractThread.html#ae8fc0b3f68faed69e7f0b4e940ef12c0" target="_top" xlink:title="Remove timer.">
<polygon fill="white" stroke="#666666" points="747.5,-82 617.5,-82 617.5,-50 747.5,-50 747.5,-82"/>
<text xml:space="preserve" text-anchor="start" x="625.5" y="-68.5" font-family="Helvetica,sans-Serif" font-size="10.00">AsyncFw::AbstractThread</text>
<text xml:space="preserve" text-anchor="middle" x="682.5" y="-56.5" font-family="Helvetica,sans-Serif" font-size="10.00">::removeTimer</text>
</a>
</g>
</g>
<!-- Node1&#45;&gt;Node19 -->
<g id="edge18_Node000001_Node000019" class="edge">
<title>Node1&#45;&gt;Node19</title>
<g id="a_edge18_Node000001_Node000019"><a xlink:title=" ">
<path fill="none" stroke="#63b8ff" d="M783.03,-96.34C767.99,-91.76 752.13,-86.92 737.6,-82.49"/>
<polygon fill="#63b8ff" stroke="#63b8ff" points="781.77,-99.62 792.35,-99.19 783.81,-92.92 781.77,-99.62"/>
</a>
</g>
</g>
<!-- Node3 -->
<g id="Node000003" class="node">
<title>Node3</title>
<g id="a_Node000003"><a xlink:href="classAsyncFw_1_1ThreadPool.html#a0a35c4070964e69b187842b69b04d325" target="_top" xlink:title="Asynchronously invokes a function in the given thread&#39;s event loop.">
<polygon fill="white" stroke="#666666" points="572.5,-332 459.75,-332 459.75,-300 572.5,-300 572.5,-332"/>
<text xml:space="preserve" text-anchor="start" x="467.75" y="-318.5" font-family="Helvetica,sans-Serif" font-size="10.00">AsyncFw::ThreadPool</text>
<text xml:space="preserve" text-anchor="middle" x="516.12" y="-306.5" font-family="Helvetica,sans-Serif" font-size="10.00">::async</text>
</a>
</g>
</g>
<!-- Node2&#45;&gt;Node3 -->
<g id="edge2_Node000002_Node000003" class="edge">
<title>Node2&#45;&gt;Node3</title>
<g id="a_edge2_Node000002_Node000003"><a xlink:title=" ">
<path fill="none" stroke="#63b8ff" d="M666.51,-191.99C649.23,-219.91 618.41,-263.9 581.5,-291 577.15,-294.19 572.34,-297.04 567.37,-299.55"/>
<polygon fill="#63b8ff" stroke="#63b8ff" points="669.29,-194.15 671.47,-183.79 663.3,-190.53 669.29,-194.15"/>
</a>
</g>
</g>
<!-- Node5 -->
<g id="Node000005" class="node">
<title>Node5</title>
<g id="a_Node000005"><a xlink:href="classAsyncFw_1_1ThreadPool.html#a9919894e586310a7ea5b780845376e17" target="_top" xlink:title="Asynchronously invokes a void function in the target thread, and executes a result callback in the ca...">
<polygon fill="white" stroke="#666666" points="572.5,-282 459.75,-282 459.75,-250 572.5,-250 572.5,-282"/>
<text xml:space="preserve" text-anchor="start" x="467.75" y="-268.5" font-family="Helvetica,sans-Serif" font-size="10.00">AsyncFw::ThreadPool</text>
<text xml:space="preserve" text-anchor="middle" x="516.12" y="-256.5" font-family="Helvetica,sans-Serif" font-size="10.00">::async</text>
</a>
</g>
</g>
<!-- Node2&#45;&gt;Node5 -->
<g id="edge4_Node000002_Node000005" class="edge">
<title>Node2&#45;&gt;Node5</title>
<g id="a_edge4_Node000002_Node000005"><a xlink:title=" ">
<path fill="none" stroke="#63b8ff" d="M654.45,-189.5C635.08,-205.51 607.87,-226.36 581.5,-241 575.94,-244.09 569.93,-246.96 563.89,-249.59"/>
<polygon fill="#63b8ff" stroke="#63b8ff" points="656.45,-192.39 661.87,-183.28 651.96,-187.03 656.45,-192.39"/>
</a>
</g>
</g>
<!-- Node6 -->
<g id="Node000006" class="node">
<title>Node6</title>
<g id="a_Node000006"><a xlink:href="classAsyncFw_1_1AbstractSocket.html#a73a200f0008dbf9f820bdb2b8a0054cf" target="_top" xlink:title="Schedules the socket for deferred asynchronous destruction.">
<polygon fill="white" stroke="#666666" points="581.5,-232 450.75,-232 450.75,-200 581.5,-200 581.5,-232"/>
<text xml:space="preserve" text-anchor="start" x="458.75" y="-218.5" font-family="Helvetica,sans-Serif" font-size="10.00">AsyncFw::AbstractSocket</text>
<text xml:space="preserve" text-anchor="middle" x="516.12" y="-206.5" font-family="Helvetica,sans-Serif" font-size="10.00">::destroy</text>
</a>
</g>
</g>
<!-- Node2&#45;&gt;Node6 -->
<g id="edge5_Node000002_Node000006" class="edge">
<title>Node2&#45;&gt;Node6</title>
<g id="a_edge5_Node000002_Node000006"><a xlink:title=" ">
<path fill="none" stroke="#63b8ff" d="M616.88,-185.66C601.81,-190.24 585.92,-195.08 571.35,-199.51"/>
<polygon fill="#63b8ff" stroke="#63b8ff" points="617.68,-189.07 626.23,-182.81 615.64,-182.37 617.68,-189.07"/>
</a>
</g>
</g>
<!-- Node9 -->
<g id="Node000009" class="node">
<title>Node9</title>
<g id="a_Node000009"><a xlink:href="classAsyncFw_1_1HttpServer_1_1Response.html#afa24643371f00fe11d7df0f9caae4134" target="_top" xlink:title="Destroys the response object and cleans up its allocated resources.">
<polygon fill="white" stroke="#666666" points="571.38,-182 460.88,-182 460.88,-150 571.38,-150 571.38,-182"/>
<text xml:space="preserve" text-anchor="start" x="468.88" y="-168.5" font-family="Helvetica,sans-Serif" font-size="10.00">AsyncFw::HttpServer</text>
<text xml:space="preserve" text-anchor="middle" x="516.12" y="-156.5" font-family="Helvetica,sans-Serif" font-size="10.00">::Response::destroy</text>
</a>
</g>
</g>
<!-- Node2&#45;&gt;Node9 -->
<g id="edge8_Node000002_Node000009" class="edge">
<title>Node2&#45;&gt;Node9</title>
<g id="a_edge8_Node000002_Node000009"><a xlink:title=" ">
<path fill="none" stroke="#63b8ff" d="M605.69,-166C594.28,-166 582.71,-166 571.86,-166"/>
<polygon fill="#63b8ff" stroke="#63b8ff" points="605.49,-169.5 615.49,-166 605.49,-162.5 605.49,-169.5"/>
</a>
</g>
</g>
<!-- Node13 -->
<g id="Node000013" class="node">
<title>Node13</title>
<g id="a_Node000013"><a xlink:href="classAsyncFw_1_1HttpServer.html#ad7dae50cc3787112980fa7075a60f811" target="_top" xlink:title="Disconnects a specific client socket and clears it from the internally managed pool.">
<polygon fill="white" stroke="#666666" points="572.5,-132 459.75,-132 459.75,-100 572.5,-100 572.5,-132"/>
<text xml:space="preserve" text-anchor="start" x="467.75" y="-118.5" font-family="Helvetica,sans-Serif" font-size="10.00">AsyncFw::HttpServer</text>
<text xml:space="preserve" text-anchor="middle" x="516.12" y="-106.5" font-family="Helvetica,sans-Serif" font-size="10.00">::disconnectFromHost</text>
</a>
</g>
</g>
<!-- Node2&#45;&gt;Node13 -->
<g id="edge12_Node000002_Node000013" class="edge">
<title>Node2&#45;&gt;Node13</title>
<g id="a_edge12_Node000002_Node000013"><a xlink:title=" ">
<path fill="none" stroke="#63b8ff" d="M616.88,-146.34C601.81,-141.76 585.92,-136.92 571.35,-132.49"/>
<polygon fill="#63b8ff" stroke="#63b8ff" points="615.64,-149.63 626.23,-149.19 617.68,-142.93 615.64,-149.63"/>
</a>
</g>
</g>
<!-- Node16 -->
<g id="Node000016" class="node">
<title>Node16</title>
<g id="a_Node000016"><a xlink:href="classAsyncFw_1_1ThreadPool.html#a4e73e16c0af130d6311c29952b11f720" target="_top" xlink:title="Selects and returns the least loaded thread from the pool for task distribution.">
<polygon fill="white" stroke="#666666" points="572.5,-82 459.75,-82 459.75,-50 572.5,-50 572.5,-82"/>
<text xml:space="preserve" text-anchor="start" x="467.75" y="-68.5" font-family="Helvetica,sans-Serif" font-size="10.00">AsyncFw::ThreadPool</text>
<text xml:space="preserve" text-anchor="middle" x="516.12" y="-56.5" font-family="Helvetica,sans-Serif" font-size="10.00">::getThread</text>
</a>
</g>
</g>
<!-- Node2&#45;&gt;Node16 -->
<g id="edge15_Node000002_Node000016" class="edge">
<title>Node2&#45;&gt;Node16</title>
<g id="a_edge15_Node000002_Node000016"><a xlink:title=" ">
<path fill="none" stroke="#63b8ff" d="M621.52,-143.91C620.14,-142.97 618.8,-142.01 617.5,-141 595.86,-124.22 603.16,-107.76 581.5,-91 577.33,-87.77 572.69,-84.91 567.87,-82.4"/>
<polygon fill="#63b8ff" stroke="#63b8ff" points="619.37,-146.7 629.75,-148.81 622.95,-140.69 619.37,-146.7"/>
</a>
</g>
</g>
<!-- Node17 -->
<g id="Node000017" class="node">
<title>Node17</title>
<g id="a_Node000017"><a xlink:href="classAsyncFw_1_1ThreadPool.html#add8ee85dd7581acb117a805ff5a8c18a" target="_top" xlink:title="Synchronously invokes a function in the given thread&#39;s event loop (blocks the caller).">
<polygon fill="white" stroke="#666666" points="572.5,-32 459.75,-32 459.75,0 572.5,0 572.5,-32"/>
<text xml:space="preserve" text-anchor="start" x="467.75" y="-18.5" font-family="Helvetica,sans-Serif" font-size="10.00">AsyncFw::ThreadPool</text>
<text xml:space="preserve" text-anchor="middle" x="516.12" y="-6.5" font-family="Helvetica,sans-Serif" font-size="10.00">::sync</text>
</a>
</g>
</g>
<!-- Node2&#45;&gt;Node17 -->
<g id="edge16_Node000002_Node000017" class="edge">
<title>Node2&#45;&gt;Node17</title>
<g id="a_edge16_Node000002_Node000017"><a xlink:title=" ">
<path fill="none" stroke="#63b8ff" d="M619.33,-142.78C618.7,-142.2 618.09,-141.61 617.5,-141 584.55,-107.15 614.48,-74.81 581.5,-41 578.32,-37.74 574.66,-34.89 570.75,-32.42"/>
<polygon fill="#63b8ff" stroke="#63b8ff" points="616.92,-145.35 626.99,-148.64 621.17,-139.78 616.92,-145.35"/>
</a>
</g>
</g>
<!-- Node4 -->
<g id="Node000004" class="node">
<title>Node4</title>
<g id="a_Node000004"><a xlink:href="classAsyncFw_1_1ThreadPool.html#a5af6a927b72eec19abb94ee2477d00b5" target="_top" xlink:title="Asynchronously invokes a function in the global pool, returning the result to a callback in the calle...">
<polygon fill="white" stroke="#666666" points="414.75,-332 302,-332 302,-300 414.75,-300 414.75,-332"/>
<text xml:space="preserve" text-anchor="start" x="310" y="-318.5" font-family="Helvetica,sans-Serif" font-size="10.00">AsyncFw::ThreadPool</text>
<text xml:space="preserve" text-anchor="middle" x="358.38" y="-306.5" font-family="Helvetica,sans-Serif" font-size="10.00">::async</text>
</a>
</g>
</g>
<!-- Node3&#45;&gt;Node4 -->
<g id="edge3_Node000003_Node000004" class="edge">
<title>Node3&#45;&gt;Node4</title>
<g id="a_edge3_Node000003_Node000004"><a xlink:title=" ">
<path fill="none" stroke="#63b8ff" d="M448.01,-316C437.01,-316 425.72,-316 415.04,-316"/>
<polygon fill="#63b8ff" stroke="#63b8ff" points="447.82,-319.5 457.82,-316 447.82,-312.5 447.82,-319.5"/>
</a>
</g>
</g>
<!-- Node7 -->
<g id="Node000007" class="node">
<title>Node7</title>
<g id="a_Node000007"><a xlink:href="classAsyncFw_1_1HttpSocket.html#a8268467d3581a4d393e9ccd288de32ff" target="_top" xlink:title="Schedules the socket for deferred asynchronous destruction.">
<polygon fill="white" stroke="#666666" points="414.75,-232 302,-232 302,-200 414.75,-200 414.75,-232"/>
<text xml:space="preserve" text-anchor="start" x="310" y="-218.5" font-family="Helvetica,sans-Serif" font-size="10.00">AsyncFw::HttpSocket</text>
<text xml:space="preserve" text-anchor="middle" x="358.38" y="-206.5" font-family="Helvetica,sans-Serif" font-size="10.00">::destroy</text>
</a>
</g>
</g>
<!-- Node6&#45;&gt;Node7 -->
<g id="edge6_Node000006_Node000007" class="edge">
<title>Node6&#45;&gt;Node7</title>
<g id="a_edge6_Node000006_Node000007"><a xlink:title=" ">
<path fill="none" stroke="#63b8ff" d="M439.09,-216C431.04,-216 422.96,-216 415.2,-216"/>
<polygon fill="#63b8ff" stroke="#63b8ff" points="438.91,-219.5 448.91,-216 438.91,-212.5 438.91,-219.5"/>
</a>
</g>
</g>
<!-- Node8 -->
<g id="Node000008" class="node">
<title>Node8</title>
<g id="a_Node000008"><a xlink:href="classAsyncFw_1_1HttpServer_1_1TcpSocket.html#a41557b69e30e25b97cbdda210afb7657" target="_top" xlink:title="Constructs a new TcpSocket associated with the parent server.">
<polygon fill="white" stroke="#666666" points="266,-232 146.5,-232 146.5,-200 266,-200 266,-232"/>
<text xml:space="preserve" text-anchor="start" x="154.5" y="-218.5" font-family="Helvetica,sans-Serif" font-size="10.00">AsyncFw::HttpServer</text>
<text xml:space="preserve" text-anchor="middle" x="206.25" y="-206.5" font-family="Helvetica,sans-Serif" font-size="10.00">::TcpSocket::TcpSocket</text>
</a>
</g>
</g>
<!-- Node7&#45;&gt;Node8 -->
<g id="edge7_Node000007_Node000008" class="edge">
<title>Node7&#45;&gt;Node8</title>
<g id="a_edge7_Node000007_Node000008"><a xlink:title=" ">
<path fill="none" stroke="#63b8ff" d="M290.58,-216C282.48,-216 274.25,-216 266.27,-216"/>
<polygon fill="#63b8ff" stroke="#63b8ff" points="290.39,-219.5 300.39,-216 290.39,-212.5 290.39,-219.5"/>
</a>
</g>
</g>
<!-- Node10 -->
<g id="Node000010" class="node">
<title>Node10</title>
<g id="a_Node000010"><a xlink:href="classAsyncFw_1_1HttpServer_1_1Response.html#a52925841696f5351ff43b46530c18390" target="_top" xlink:title="Finalizes and sends the response over the network via the associated socket.">
<polygon fill="white" stroke="#666666" points="413.62,-182 303.12,-182 303.12,-150 413.62,-150 413.62,-182"/>
<text xml:space="preserve" text-anchor="start" x="311.12" y="-168.5" font-family="Helvetica,sans-Serif" font-size="10.00">AsyncFw::HttpServer</text>
<text xml:space="preserve" text-anchor="middle" x="358.38" y="-156.5" font-family="Helvetica,sans-Serif" font-size="10.00">::Response::send</text>
</a>
</g>
</g>
<!-- Node9&#45;&gt;Node10 -->
<g id="edge9_Node000009_Node000010" class="edge">
<title>Node9&#45;&gt;Node10</title>
<g id="a_edge9_Node000009_Node000010"><a xlink:title=" ">
<path fill="none" stroke="#63b8ff" d="M449.5,-166C437.7,-166 425.53,-166 414.08,-166"/>
<polygon fill="#63b8ff" stroke="#63b8ff" points="449.14,-169.5 459.14,-166 449.14,-162.5 449.14,-169.5"/>
</a>
</g>
</g>
<!-- Node11 -->
<g id="Node000011" class="node">
<title>Node11</title>
<g id="a_Node000011"><a xlink:href="classAsyncFw_1_1HttpServer.html#a522928fa8bf3b13b706ac997d4f100dd" target="_top" xlink:title="Constructs the HTTP server instance.">
<polygon fill="white" stroke="#666666" points="261.5,-182 151,-182 151,-150 261.5,-150 261.5,-182"/>
<text xml:space="preserve" text-anchor="start" x="159" y="-168.5" font-family="Helvetica,sans-Serif" font-size="10.00">AsyncFw::HttpServer</text>
<text xml:space="preserve" text-anchor="middle" x="206.25" y="-156.5" font-family="Helvetica,sans-Serif" font-size="10.00">::HttpServer</text>
</a>
</g>
</g>
<!-- Node10&#45;&gt;Node11 -->
<g id="edge10_Node000010_Node000011" class="edge">
<title>Node10&#45;&gt;Node11</title>
<g id="a_edge10_Node000010_Node000011"><a xlink:title=" ">
<path fill="none" stroke="#63b8ff" d="M291.33,-166C281.47,-166 271.41,-166 261.83,-166"/>
<polygon fill="#63b8ff" stroke="#63b8ff" points="291.24,-169.5 301.24,-166 291.24,-162.5 291.24,-169.5"/>
</a>
</g>
</g>
<!-- Node12 -->
<g id="Node000012" class="node">
<title>Node12</title>
<g id="a_Node000012"><a xlink:href="classAsyncFw_1_1HttpServer.html#ad52f34791fe5848d9ba891b209fcdbe0" target="_top" xlink:title="Accessor to fetch the globally managed singleton instance reference of the active HttpServer.">
<polygon fill="white" stroke="#666666" points="110.5,-182 0,-182 0,-150 110.5,-150 110.5,-182"/>
<text xml:space="preserve" text-anchor="start" x="8" y="-168.5" font-family="Helvetica,sans-Serif" font-size="10.00">AsyncFw::HttpServer</text>
<text xml:space="preserve" text-anchor="middle" x="55.25" y="-156.5" font-family="Helvetica,sans-Serif" font-size="10.00">::instance</text>
</a>
</g>
</g>
<!-- Node11&#45;&gt;Node12 -->
<g id="edge11_Node000011_Node000012" class="edge">
<title>Node11&#45;&gt;Node12</title>
<g id="a_edge11_Node000011_Node000012"><a xlink:title=" ">
<path fill="none" stroke="#63b8ff" d="M139.2,-166C129.74,-166 120.09,-166 110.88,-166"/>
<polygon fill="#63b8ff" stroke="#63b8ff" points="139.1,-169.5 149.1,-166 139.1,-162.5 139.1,-169.5"/>
</a>
</g>
</g>
<!-- Node14 -->
<g id="Node000014" class="node">
<title>Node14</title>
<g id="a_Node000014"><a xlink:href="classAsyncFw_1_1HttpServer.html#ad3761260dfd18899afc22c6f4bc0c556" target="_top" xlink:title="Forcefully terminates all active socket connections currently retained by the server.">
<polygon fill="white" stroke="#666666" points="413.62,-132 303.12,-132 303.12,-100 413.62,-100 413.62,-132"/>
<text xml:space="preserve" text-anchor="start" x="311.12" y="-118.5" font-family="Helvetica,sans-Serif" font-size="10.00">AsyncFw::HttpServer</text>
<text xml:space="preserve" text-anchor="middle" x="358.38" y="-106.5" font-family="Helvetica,sans-Serif" font-size="10.00">::clearConnections</text>
</a>
</g>
</g>
<!-- Node13&#45;&gt;Node14 -->
<g id="edge13_Node000013_Node000014" class="edge">
<title>Node13&#45;&gt;Node14</title>
<g id="a_edge13_Node000013_Node000014"><a xlink:title=" ">
<path fill="none" stroke="#63b8ff" d="M448.09,-116C436.71,-116 425.01,-116 413.99,-116"/>
<polygon fill="#63b8ff" stroke="#63b8ff" points="447.82,-119.5 457.82,-116 447.82,-112.5 447.82,-119.5"/>
</a>
</g>
</g>
<!-- Node15 -->
<g id="Node000015" class="node">
<title>Node15</title>
<g id="a_Node000015"><a xlink:href="classAsyncFw_1_1HttpServer.html#ab3eeb1643d4482345afcd9f971c020ac" target="_top" xlink:title="Explicitly severs connections with active sockets holding custom user metadata matching data.">
<polygon fill="white" stroke="#666666" points="413.62,-82 303.12,-82 303.12,-50 413.62,-50 413.62,-82"/>
<text xml:space="preserve" text-anchor="start" x="311.12" y="-68.5" font-family="Helvetica,sans-Serif" font-size="10.00">AsyncFw::HttpServer</text>
<text xml:space="preserve" text-anchor="middle" x="358.38" y="-56.5" font-family="Helvetica,sans-Serif" font-size="10.00">::clearConnections</text>
</a>
</g>
</g>
<!-- Node13&#45;&gt;Node15 -->
<g id="edge14_Node000013_Node000015" class="edge">
<title>Node13&#45;&gt;Node15</title>
<g id="a_edge14_Node000013_Node000015"><a xlink:title=" ">
<path fill="none" stroke="#63b8ff" d="M453.48,-96.21C439.33,-91.67 424.42,-86.88 410.75,-82.49"/>
<polygon fill="#63b8ff" stroke="#63b8ff" points="452.09,-99.44 462.69,-99.17 454.23,-92.78 452.09,-99.44"/>
</a>
</g>
</g>
</g>
</svg>
