<?xml version="1.0" encoding="UTF-8" standalone="no"?>
<!DOCTYPE svg PUBLIC "-//W3C//DTD SVG 1.1//EN"
 "http://www.w3.org/Graphics/SVG/1.1/DTD/svg11.dtd">
<!-- Generated by graphviz version 12.2.1 (20241206.2353)
 -->
<!-- Title: AsyncFw::SystemProcess Pages: 1 -->
<svg width="651pt" height="90pt"
 viewBox="0.00 0.00 650.75 90.00" xmlns="http://www.w3.org/2000/svg" xmlns:xlink="http://www.w3.org/1999/xlink">
<g id="graph0" class="graph" transform="scale(1 1) rotate(0) translate(4 86)">
<title>AsyncFw::SystemProcess</title>
<!-- Node1 -->
<g id="Node000001" class="node">
<title>Node1</title>
<g id="a_Node000001"><a xlink:title="Example:">
<polygon fill="#999999" stroke="#666666" points="642.75,-52 509.75,-52 509.75,-32 642.75,-32 642.75,-52"/>
<text text-anchor="middle" x="576.25" y="-38.5" font-family="Helvetica,sans-Serif" font-size="10.00">AsyncFw::SystemProcess</text>
</a>
</g>
</g>
<!-- Node2 -->
<g id="Node000002" class="node">
<title>Node2</title>
<g id="a_Node000002"><a xlink:href="classAsyncFw_1_1FunctionConnector.html" target="_top" xlink:title=" ">
<polygon fill="white" stroke="#666666" points="410,-82 264.25,-82 264.25,-50 410,-50 410,-82"/>
<text text-anchor="start" x="272.25" y="-68.5" font-family="Helvetica,sans-Serif" font-size="10.00">AsyncFw::FunctionConnector</text>
<text text-anchor="middle" x="337.12" y="-56.5" font-family="Helvetica,sans-Serif" font-size="10.00">&lt; State &gt;</text>
</a>
</g>
</g>
<!-- Node2&#45;&gt;Node1 -->
<g id="edge1_Node000001_Node000002" class="edge">
<title>Node2&#45;&gt;Node1</title>
<g id="a_edge1_Node000001_Node000002"><a xlink:title=" ">
<path fill="none" stroke="#9a32cd" stroke-dasharray="5,2" d="M421.55,-57.56C450.4,-54.64 482.31,-51.41 509.54,-48.65"/>
<polygon fill="#9a32cd" stroke="#9a32cd" points="421.34,-54.06 411.74,-58.55 422.04,-61.02 421.34,-54.06"/>
</a>
</g>
<text text-anchor="middle" x="459.88" y="-59.36" font-family="Helvetica,sans-Serif" font-size="10.00" fill="grey"> stateChanged</text>
</g>
<!-- Node3 -->
<g id="Node000003" class="node">
<title>Node3</title>
<g id="a_Node000003"><a xlink:href="classAsyncFw_1_1FunctionConnector.html" target="_top" xlink:title="Provides a thread&#45;safe, publisher&#45;subscriber mechanism to establish sender&#45;to&#45;receivers connections.">
<polygon fill="white" stroke="#666666" points="145.75,-56 0,-56 0,-24 145.75,-24 145.75,-56"/>
<text text-anchor="start" x="8" y="-42.5" font-family="Helvetica,sans-Serif" font-size="10.00">AsyncFw::FunctionConnector</text>
<text text-anchor="middle" x="72.88" y="-30.5" font-family="Helvetica,sans-Serif" font-size="10.00">&lt; Args &gt;</text>
</a>
</g>
</g>
<!-- Node3&#45;&gt;Node2 -->
<g id="edge2_Node000002_Node000003" class="edge">
<title>Node3&#45;&gt;Node2</title>
<g id="a_edge2_Node000002_Node000003"><a xlink:title=" ">
<path fill="none" stroke="orange" stroke-dasharray="5,2" d="M157.63,-48.3C191.86,-51.7 231.07,-55.58 264.01,-58.85"/>
<polygon fill="orange" stroke="orange" points="158.03,-44.83 147.74,-47.32 157.34,-51.79 158.03,-44.83"/>
</a>
</g>
<text text-anchor="middle" x="205" y="-59.35" font-family="Helvetica,sans-Serif" font-size="10.00" fill="grey"> &lt; State &gt;</text>
</g>
<!-- Node4 -->
<g id="Node000004" class="node">
<title>Node4</title>
<g id="a_Node000004"><a xlink:href="classAsyncFw_1_1FunctionConnector.html" target="_top" xlink:title=" ">
<polygon fill="white" stroke="#666666" points="410,-32 264.25,-32 264.25,0 410,0 410,-32"/>
<text text-anchor="start" x="272.25" y="-18.5" font-family="Helvetica,sans-Serif" font-size="10.00">AsyncFw::FunctionConnector</text>
<text text-anchor="middle" x="337.12" y="-6.5" font-family="Helvetica,sans-Serif" font-size="10.00">&lt; const std::string &amp;, bool &gt;</text>
</a>
</g>
</g>
<!-- Node3&#45;&gt;Node4 -->
<g id="edge4_Node000004_Node000003" class="edge">
<title>Node3&#45;&gt;Node4</title>
<g id="a_edge4_Node000004_Node000003"><a xlink:title=" ">
<path fill="none" stroke="orange" stroke-dasharray="5,2" d="M147.59,-21.46C153.03,-20.5 158.46,-19.66 163.75,-19 196.42,-14.95 232.84,-13.82 263.76,-13.86"/>
<polygon fill="orange" stroke="orange" points="147.07,-18 137.91,-23.31 148.39,-24.87 147.07,-18"/>
</a>
</g>
<text text-anchor="start" x="163.75" y="-33.5" font-family="Helvetica,sans-Serif" font-size="10.00" fill="grey"> &lt; const std::string</text>
<text text-anchor="middle" x="205" y="-21.5" font-family="Helvetica,sans-Serif" font-size="10.00" fill="grey"> &amp;, bool &gt;</text>
</g>
<!-- Node4&#45;&gt;Node1 -->
<g id="edge3_Node000001_Node000004" class="edge">
<title>Node4&#45;&gt;Node1</title>
<g id="a_edge3_Node000001_Node000004"><a xlink:title=" ">
<path fill="none" stroke="#9a32cd" stroke-dasharray="5,2" d="M421.55,-25.15C450.4,-28.31 482.31,-31.81 509.54,-34.79"/>
<polygon fill="#9a32cd" stroke="#9a32cd" points="422.06,-21.68 411.74,-24.07 421.3,-28.64 422.06,-21.68"/>
</a>
</g>
<text text-anchor="middle" x="459.88" y="-34.59" font-family="Helvetica,sans-Serif" font-size="10.00" fill="grey"> output</text>
</g>
</g>
</svg>
