<?xml version="1.0" encoding="UTF-8" standalone="no"?>
<!DOCTYPE svg PUBLIC "-//W3C//DTD SVG 1.1//EN"
 "http://www.w3.org/Graphics/SVG/1.1/DTD/svg11.dtd">
<!-- Generated by graphviz version 12.2.1 (20241206.2353)
 -->
<!-- Title: AsyncFw::AbstractThread::invokeTask Pages: 1 -->
<svg width="304pt" height="140pt"
 viewBox="0.00 0.00 304.00 140.00" xmlns="http://www.w3.org/2000/svg" xmlns:xlink="http://www.w3.org/1999/xlink">
<g id="graph0" class="graph" transform="scale(1 1) rotate(0) translate(4 136)">
<title>AsyncFw::AbstractThread::invokeTask</title>
<!-- Node1 -->
<g id="Node000001" class="node">
<title>Node1</title>
<g id="a_Node000001"><a xlink:title="Runs a task in a managed thread.">
<polygon fill="#999999" stroke="#666666" points="296,-82 166,-82 166,-50 296,-50 296,-82"/>
<text text-anchor="start" x="174" y="-68.5" font-family="Helvetica,sans-Serif" font-size="10.00">AsyncFw::AbstractThread</text>
<text text-anchor="middle" x="231" y="-56.5" font-family="Helvetica,sans-Serif" font-size="10.00">::invokeTask</text>
</a>
</g>
</g>
<!-- Node2 -->
<g id="Node000002" class="node">
<title>Node2</title>
<g id="a_Node000002"><a xlink:href="classAsyncFw_1_1AbstractThread.html#aa58eb4ec370dece81d08f7cea08f2af7" target="_top" xlink:title="Runs a method in a managed thread.">
<polygon fill="white" stroke="#666666" points="130,-132 0,-132 0,-100 130,-100 130,-132"/>
<text text-anchor="start" x="8" y="-118.5" font-family="Helvetica,sans-Serif" font-size="10.00">AsyncFw::AbstractThread</text>
<text text-anchor="middle" x="65" y="-106.5" font-family="Helvetica,sans-Serif" font-size="10.00">::invokeMethod</text>
</a>
</g>
</g>
<!-- Node1&#45;&gt;Node2 -->
<g id="edge1_Node000001_Node000002" class="edge">
<title>Node1&#45;&gt;Node2</title>
<g id="a_edge1_Node000001_Node000002"><a xlink:title=" ">
<path fill="none" stroke="#63b8ff" d="M165.53,-85.66C150.49,-90.24 134.63,-95.08 120.1,-99.51"/>
<polygon fill="#63b8ff" stroke="#63b8ff" points="166.31,-89.08 174.85,-82.81 164.27,-82.38 166.31,-89.08"/>
</a>
</g>
</g>
<!-- Node3 -->
<g id="Node000003" class="node">
<title>Node3</title>
<g id="a_Node000003"><a xlink:href="classAsyncFw_1_1AbstractThread.html#a499a70b1d68a82fcded917a331f4cdef" target="_top" xlink:title="Remove poll descriptor.">
<polygon fill="white" stroke="#666666" points="130,-82 0,-82 0,-50 130,-50 130,-82"/>
<text text-anchor="start" x="8" y="-68.5" font-family="Helvetica,sans-Serif" font-size="10.00">AsyncFw::AbstractThread</text>
<text text-anchor="middle" x="65" y="-56.5" font-family="Helvetica,sans-Serif" font-size="10.00">::removePollDescriptor</text>
</a>
</g>
</g>
<!-- Node1&#45;&gt;Node3 -->
<g id="edge2_Node000001_Node000003" class="edge">
<title>Node1&#45;&gt;Node3</title>
<g id="a_edge2_Node000001_Node000003"><a xlink:title=" ">
<path fill="none" stroke="#63b8ff" d="M154.41,-66C146.4,-66 138.3,-66 130.43,-66"/>
<polygon fill="#63b8ff" stroke="#63b8ff" points="154.14,-69.5 164.14,-66 154.14,-62.5 154.14,-69.5"/>
</a>
</g>
</g>
<!-- Node4 -->
<g id="Node000004" class="node">
<title>Node4</title>
<g id="a_Node000004"><a xlink:href="classAsyncFw_1_1AbstractThread.html#ae8fc0b3f68faed69e7f0b4e940ef12c0" target="_top" xlink:title="Remove timer.">
<polygon fill="white" stroke="#666666" points="130,-32 0,-32 0,0 130,0 130,-32"/>
<text text-anchor="start" x="8" y="-18.5" font-family="Helvetica,sans-Serif" font-size="10.00">AsyncFw::AbstractThread</text>
<text text-anchor="middle" x="65" y="-6.5" font-family="Helvetica,sans-Serif" font-size="10.00">::removeTimer</text>
</a>
</g>
</g>
<!-- Node1&#45;&gt;Node4 -->
<g id="edge3_Node000001_Node000004" class="edge">
<title>Node1&#45;&gt;Node4</title>
<g id="a_edge3_Node000001_Node000004"><a xlink:title=" ">
<path fill="none" stroke="#63b8ff" d="M165.53,-46.34C150.49,-41.76 134.63,-36.92 120.1,-32.49"/>
<polygon fill="#63b8ff" stroke="#63b8ff" points="164.27,-49.62 174.85,-49.19 166.31,-42.92 164.27,-49.62"/>
</a>
</g>
</g>
</g>
</svg>
