<?xml version="1.0" encoding="UTF-8" standalone="no"?>
<!DOCTYPE svg PUBLIC "-//W3C//DTD SVG 1.1//EN"
 "http://www.w3.org/Graphics/SVG/1.1/DTD/svg11.dtd">
<!-- Generated by graphviz version 14.1.3 (20260303.0454)
 -->
<!-- Title: AsyncFw::Instance&lt; T &gt; Pages: 1 -->
<svg width="659pt" height="295pt"
 viewBox="0.00 0.00 659.00 295.00" xmlns="http://www.w3.org/2000/svg" xmlns:xlink="http://www.w3.org/1999/xlink">
<g id="graph0" class="graph" transform="scale(1 1) rotate(0) translate(4 290.59)">
<title>AsyncFw::Instance&lt; T &gt;</title>
<!-- Node1 -->
<g id="Node000001" class="node">
<title>Node1</title>
<g id="a_Node000001"><a xlink:title="A template&#45;based global registry wrapper for managing application&#45;wide default objects (Global Defaul...">
<polygon fill="#999999" stroke="#666666" points="299.25,-151 174.5,-151 174.5,-131 299.25,-131 299.25,-151"/>
<text xml:space="preserve" text-anchor="middle" x="236.88" y="-137.5" font-family="Helvetica,sans-Serif" font-size="10.00">AsyncFw::Instance&lt; T &gt;</text>
</a>
</g>
</g>
<!-- Node3 -->
<g id="Node000003" class="node">
<title>Node3</title>
<g id="a_Node000003"><a xlink:href="classAsyncFw_1_1Instance.html" target="_top" xlink:title=" ">
<polygon fill="white" stroke="#666666" points="624.62,-282 517.88,-282 517.88,-250 624.62,-250 624.62,-282"/>
<text xml:space="preserve" text-anchor="start" x="525.88" y="-268.5" font-family="Helvetica,sans-Serif" font-size="10.00">AsyncFw::Instance&lt;</text>
<text xml:space="preserve" text-anchor="middle" x="571.25" y="-256.5" font-family="Helvetica,sans-Serif" font-size="10.00"> Log &gt;</text>
</a>
</g>
</g>
<!-- Node1&#45;&gt;Node3 -->
<g id="edge2_Node000001_Node000003" class="edge">
<title>Node1&#45;&gt;Node3</title>
<g id="a_edge2_Node000001_Node000003"><a xlink:title=" ">
<path fill="none" stroke="orange" stroke-dasharray="5,2" d="M249.26,-161.07C262.59,-182.5 286.77,-215.6 317.25,-232 380.09,-265.8 463.95,-270.54 517.55,-269.39"/>
<polygon fill="orange" stroke="orange" points="252.36,-159.43 244.23,-152.64 246.35,-163.02 252.36,-159.43"/>
</a>
</g>
<text xml:space="preserve" text-anchor="start" x="378.38" y="-273.84" font-family="Helvetica,sans-Serif" font-size="10.00" fill="grey">&lt; Log &gt;</text>
</g>
<!-- Node4 -->
<g id="Node000004" class="node">
<title>Node4</title>
<g id="a_Node000004"><a xlink:href="classAsyncFw_1_1Instance.html" target="_top" xlink:title=" ">
<polygon fill="white" stroke="#666666" points="648.25,-232 494.25,-232 494.25,-200 648.25,-200 648.25,-232"/>
<text xml:space="preserve" text-anchor="start" x="502.25" y="-218.5" font-family="Helvetica,sans-Serif" font-size="10.00">AsyncFw::Instance&lt;</text>
<text xml:space="preserve" text-anchor="middle" x="571.25" y="-206.5" font-family="Helvetica,sans-Serif" font-size="10.00"> AsyncFw::ApplicationNotifier &gt;</text>
</a>
</g>
</g>
<!-- Node1&#45;&gt;Node4 -->
<g id="edge3_Node000001_Node000004" class="edge">
<title>Node1&#45;&gt;Node4</title>
<g id="a_edge3_Node000001_Node000004"><a xlink:title=" ">
<path fill="none" stroke="orange" stroke-dasharray="5,2" d="M264.15,-157.01C279.19,-165.44 298.7,-175.22 317.25,-181 374.93,-198.98 442.88,-207.73 493.83,-211.99"/>
<polygon fill="orange" stroke="orange" points="266.25,-154.17 255.84,-152.2 262.75,-160.23 266.25,-154.17"/>
</a>
</g>
<text xml:space="preserve" text-anchor="start" x="323.25" y="-215.25" font-family="Helvetica,sans-Serif" font-size="10.00" fill="grey">&lt; AsyncFw::ApplicationNotifier &gt;</text>
</g>
<!-- Node5 -->
<g id="Node000005" class="node">
<title>Node5</title>
<g id="a_Node000005"><a xlink:href="classAsyncFw_1_1Instance.html" target="_top" xlink:title=" ">
<polygon fill="white" stroke="#666666" points="651.25,-182 491.25,-182 491.25,-150 651.25,-150 651.25,-182"/>
<text xml:space="preserve" text-anchor="start" x="499.25" y="-168.5" font-family="Helvetica,sans-Serif" font-size="10.00">AsyncFw::Instance&lt;</text>
<text xml:space="preserve" text-anchor="middle" x="571.25" y="-156.5" font-family="Helvetica,sans-Serif" font-size="10.00"> AsyncFw::FileSystemWatcher &gt;</text>
</a>
</g>
</g>
<!-- Node1&#45;&gt;Node5 -->
<g id="edge4_Node000001_Node000005" class="edge">
<title>Node1&#45;&gt;Node5</title>
<g id="a_edge4_Node000001_Node000005"><a xlink:title=" ">
<path fill="none" stroke="orange" stroke-dasharray="5,2" d="M311.01,-146.5C364.25,-150.51 436.29,-155.92 490.91,-160.03"/>
<polygon fill="orange" stroke="orange" points="311.36,-143.02 301.12,-145.76 310.83,-150 311.36,-143.02"/>
</a>
</g>
<text xml:space="preserve" text-anchor="start" x="320.25" y="-163.86" font-family="Helvetica,sans-Serif" font-size="10.00" fill="grey">&lt; AsyncFw::FileSystemWatcher &gt;</text>
</g>
<!-- Node6 -->
<g id="Node000006" class="node">
<title>Node6</title>
<g id="a_Node000006"><a xlink:href="classAsyncFw_1_1Instance.html" target="_top" xlink:title=" ">
<polygon fill="white" stroke="#666666" points="632.12,-132 510.38,-132 510.38,-100 632.12,-100 632.12,-132"/>
<text xml:space="preserve" text-anchor="start" x="518.38" y="-118.5" font-family="Helvetica,sans-Serif" font-size="10.00">AsyncFw::Instance&lt;</text>
<text xml:space="preserve" text-anchor="middle" x="571.25" y="-106.5" font-family="Helvetica,sans-Serif" font-size="10.00"> AsyncFw::HttpServer &gt;</text>
</a>
</g>
</g>
<!-- Node1&#45;&gt;Node6 -->
<g id="edge5_Node000001_Node000006" class="edge">
<title>Node1&#45;&gt;Node6</title>
<g id="a_edge5_Node000001_Node000006"><a xlink:title=" ">
<path fill="none" stroke="orange" stroke-dasharray="5,2" d="M294.17,-128.47C301.89,-127.1 309.75,-125.88 317.25,-125 382.83,-117.28 458.58,-115.52 509.98,-115.38"/>
<polygon fill="orange" stroke="orange" points="293.67,-125.01 284.49,-130.3 294.97,-131.89 293.67,-125.01"/>
</a>
</g>
<text xml:space="preserve" text-anchor="start" x="339.38" y="-130.25" font-family="Helvetica,sans-Serif" font-size="10.00" fill="grey">&lt; AsyncFw::HttpServer &gt;</text>
</g>
<!-- Node7 -->
<g id="Node000007" class="node">
<title>Node7</title>
<g id="a_Node000007"><a xlink:href="classAsyncFw_1_1Instance.html" target="_top" xlink:title=" ">
<polygon fill="white" stroke="#666666" points="637.38,-82 505.12,-82 505.12,-50 637.38,-50 637.38,-82"/>
<text xml:space="preserve" text-anchor="start" x="513.12" y="-68.5" font-family="Helvetica,sans-Serif" font-size="10.00">AsyncFw::Instance&lt;</text>
<text xml:space="preserve" text-anchor="middle" x="571.25" y="-56.5" font-family="Helvetica,sans-Serif" font-size="10.00"> AsyncFw::MulticastDns &gt;</text>
</a>
</g>
</g>
<!-- Node1&#45;&gt;Node7 -->
<g id="edge6_Node000001_Node000007" class="edge">
<title>Node1&#45;&gt;Node7</title>
<g id="a_edge6_Node000001_Node000007"><a xlink:title=" ">
<path fill="none" stroke="orange" stroke-dasharray="5,2" d="M260.45,-124.1C275.68,-113.61 296.69,-100.87 317.25,-94 378.66,-73.49 452.63,-67.28 504.69,-65.73"/>
<polygon fill="orange" stroke="orange" points="258.69,-121.06 252.57,-129.7 262.74,-126.76 258.69,-121.06"/>
</a>
</g>
<text xml:space="preserve" text-anchor="start" x="334.12" y="-99.25" font-family="Helvetica,sans-Serif" font-size="10.00" fill="grey">&lt; AsyncFw::MulticastDns &gt;</text>
</g>
<!-- Node8 -->
<g id="Node000008" class="node">
<title>Node8</title>
<g id="a_Node000008"><a xlink:href="classAsyncFw_1_1Instance.html" target="_top" xlink:title=" ">
<polygon fill="white" stroke="#666666" points="633.25,-32 509.25,-32 509.25,0 633.25,0 633.25,-32"/>
<text xml:space="preserve" text-anchor="start" x="517.25" y="-18.5" font-family="Helvetica,sans-Serif" font-size="10.00">AsyncFw::Instance&lt;</text>
<text xml:space="preserve" text-anchor="middle" x="571.25" y="-6.5" font-family="Helvetica,sans-Serif" font-size="10.00"> AsyncFw::ThreadPool &gt;</text>
</a>
</g>
</g>
<!-- Node1&#45;&gt;Node8 -->
<g id="edge7_Node000001_Node000008" class="edge">
<title>Node1&#45;&gt;Node8</title>
<g id="a_edge7_Node000001_Node000008"><a xlink:title=" ">
<path fill="none" stroke="orange" stroke-dasharray="5,2" d="M248.34,-120.74C261.23,-98.07 285.39,-62.28 317.25,-45 376.61,-12.8 455.21,-8.7 508.95,-10.63"/>
<polygon fill="orange" stroke="orange" points="245.36,-118.88 243.66,-129.34 251.51,-122.23 245.36,-118.88"/>
</a>
</g>
<text xml:space="preserve" text-anchor="start" x="338.25" y="-50.25" font-family="Helvetica,sans-Serif" font-size="10.00" fill="grey">&lt; AsyncFw::ThreadPool &gt;</text>
</g>
<!-- Node2 -->
<g id="Node000002" class="node">
<title>Node2</title>
<g id="a_Node000002"><a xlink:href="classAsyncFw_1_1AbstractInstance.html" target="_top" xlink:title="Abstract base class for global default service providers and managed instances.">
<polygon fill="white" stroke="#666666" points="137.5,-151 0,-151 0,-131 137.5,-131 137.5,-151"/>
<text xml:space="preserve" text-anchor="middle" x="68.75" y="-137.5" font-family="Helvetica,sans-Serif" font-size="10.00">AsyncFw::AbstractInstance</text>
</a>
</g>
</g>
<!-- Node2&#45;&gt;Node1 -->
<g id="edge1_Node000001_Node000002" class="edge">
<title>Node2&#45;&gt;Node1</title>
<g id="a_edge1_Node000001_Node000002"><a xlink:title=" ">
<path fill="none" stroke="#63b8ff" d="M149.15,-141C157.52,-141 165.94,-141 174.07,-141"/>
<polygon fill="#63b8ff" stroke="#63b8ff" points="149.31,-137.5 139.31,-141 149.31,-144.5 149.31,-137.5"/>
</a>
</g>
</g>
</g>
</svg>
