<?xml version="1.0" encoding="UTF-8" standalone="no"?>
<!DOCTYPE svg PUBLIC "-//W3C//DTD SVG 1.1//EN"
 "http://www.w3.org/Graphics/SVG/1.1/DTD/svg11.dtd">
<!-- Generated by graphviz version 14.1.3 (20260303.0454)
 -->
<!-- Title: AsyncFw::AbstractTlsSocket::setDescriptor Pages: 1 -->
<svg width="486pt" height="240pt"
 viewBox="0.00 0.00 486.00 240.00" xmlns="http://www.w3.org/2000/svg" xmlns:xlink="http://www.w3.org/1999/xlink">
<g id="graph0" class="graph" transform="scale(1 1) rotate(0) translate(4 236)">
<title>AsyncFw::AbstractTlsSocket::setDescriptor</title>
<!-- Node1 -->
<g id="Node000001" class="node">
<title>Node1</title>
<g id="a_Node000001"><a xlink:title="Binds a raw native operating system socket descriptor to this managed context.">
<polygon fill="#999999" stroke="#666666" points="144.25,-132 0,-132 0,-100 144.25,-100 144.25,-132"/>
<text xml:space="preserve" text-anchor="start" x="8" y="-118.5" font-family="Helvetica,sans-Serif" font-size="10.00">AsyncFw::AbstractTlsSocket</text>
<text xml:space="preserve" text-anchor="middle" x="72.12" y="-106.5" font-family="Helvetica,sans-Serif" font-size="10.00">::setDescriptor</text>
</a>
</g>
</g>
<!-- Node2 -->
<g id="Node000002" class="node">
<title>Node2</title>
<g id="a_Node000002"><a xlink:href="classAsyncFw_1_1AbstractSocket.html#a0ffc2cb5dd293722a9336a528357f9c5" target="_top" xlink:title="Binds a raw native operating system socket file descriptor to this instance.">
<polygon fill="white" stroke="#666666" points="311,-132 180.25,-132 180.25,-100 311,-100 311,-132"/>
<text xml:space="preserve" text-anchor="start" x="188.25" y="-118.5" font-family="Helvetica,sans-Serif" font-size="10.00">AsyncFw::AbstractSocket</text>
<text xml:space="preserve" text-anchor="middle" x="245.62" y="-106.5" font-family="Helvetica,sans-Serif" font-size="10.00">::setDescriptor</text>
</a>
</g>
</g>
<!-- Node1&#45;&gt;Node2 -->
<g id="edge1_Node000001_Node000002" class="edge">
<title>Node1&#45;&gt;Node2</title>
<g id="a_edge1_Node000001_Node000002"><a xlink:title=" ">
<path fill="none" stroke="#63b8ff" d="M144.37,-116C152.37,-116 160.55,-116 168.62,-116"/>
<polygon fill="#63b8ff" stroke="#63b8ff" points="168.4,-119.5 178.4,-116 168.4,-112.5 168.4,-119.5"/>
</a>
</g>
</g>
<!-- Node3 -->
<g id="Node000003" class="node">
<title>Node3</title>
<g id="a_Node000003"><a xlink:href="classAsyncFw_1_1AbstractSocket.html#a3dd69e137ca3cf50f90607c17bbdc312" target="_top" xlink:title="Return local address bound to this socket interface.">
<polygon fill="white" stroke="#666666" points="477.75,-232 347,-232 347,-200 477.75,-200 477.75,-232"/>
<text xml:space="preserve" text-anchor="start" x="355" y="-218.5" font-family="Helvetica,sans-Serif" font-size="10.00">AsyncFw::AbstractSocket</text>
<text xml:space="preserve" text-anchor="middle" x="412.38" y="-206.5" font-family="Helvetica,sans-Serif" font-size="10.00">::address</text>
</a>
</g>
</g>
<!-- Node2&#45;&gt;Node3 -->
<g id="edge2_Node000002_Node000003" class="edge">
<title>Node2&#45;&gt;Node3</title>
<g id="a_edge2_Node000002_Node000003"><a xlink:title=" ">
<path fill="none" stroke="#63b8ff" d="M265.18,-132.31C284.56,-148.74 316.37,-174.02 347,-191 349.34,-192.3 351.77,-193.56 354.25,-194.79"/>
<polygon fill="#63b8ff" stroke="#63b8ff" points="352.7,-197.93 363.25,-198.95 355.64,-191.57 352.7,-197.93"/>
</a>
</g>
</g>
<!-- Node4 -->
<g id="Node000004" class="node">
<title>Node4</title>
<g id="a_Node000004"><a xlink:href="classAsyncFw_1_1AbstractSocket.html#ab05320fcb1c111e06a56587b4abbb639" target="_top" xlink:title="Return remote peer destination IP address string.">
<polygon fill="white" stroke="#666666" points="477.75,-182 347,-182 347,-150 477.75,-150 477.75,-182"/>
<text xml:space="preserve" text-anchor="start" x="355" y="-168.5" font-family="Helvetica,sans-Serif" font-size="10.00">AsyncFw::AbstractSocket</text>
<text xml:space="preserve" text-anchor="middle" x="412.38" y="-156.5" font-family="Helvetica,sans-Serif" font-size="10.00">::peerAddress</text>
</a>
</g>
</g>
<!-- Node2&#45;&gt;Node4 -->
<g id="edge3_Node000002_Node000004" class="edge">
<title>Node2&#45;&gt;Node4</title>
<g id="a_edge3_Node000002_Node000004"><a xlink:title=" ">
<path fill="none" stroke="#63b8ff" d="M300.57,-132.37C315.14,-136.8 331.07,-141.63 346.19,-146.22"/>
<polygon fill="#63b8ff" stroke="#63b8ff" points="344.99,-149.51 355.58,-149.07 347.03,-142.81 344.99,-149.51"/>
</a>
</g>
</g>
<!-- Node5 -->
<g id="Node000005" class="node">
<title>Node5</title>
<g id="a_Node000005"><a xlink:href="classAsyncFw_1_1AbstractSocket.html#aa91adbe0ea3297083d63e26531daa266" target="_top" xlink:title="Return local network port bound to this socket interface.">
<polygon fill="white" stroke="#666666" points="477.75,-132 347,-132 347,-100 477.75,-100 477.75,-132"/>
<text xml:space="preserve" text-anchor="start" x="355" y="-118.5" font-family="Helvetica,sans-Serif" font-size="10.00">AsyncFw::AbstractSocket</text>
<text xml:space="preserve" text-anchor="middle" x="412.38" y="-106.5" font-family="Helvetica,sans-Serif" font-size="10.00">::peerPort</text>
</a>
</g>
</g>
<!-- Node2&#45;&gt;Node5 -->
<g id="edge4_Node000002_Node000005" class="edge">
<title>Node2&#45;&gt;Node5</title>
<g id="a_edge4_Node000002_Node000005"><a xlink:title=" ">
<path fill="none" stroke="#63b8ff" d="M311.27,-116C319.17,-116 327.3,-116 335.35,-116"/>
<polygon fill="#63b8ff" stroke="#63b8ff" points="335.14,-119.5 345.14,-116 335.14,-112.5 335.14,-119.5"/>
</a>
</g>
</g>
<!-- Node6 -->
<g id="Node000006" class="node">
<title>Node6</title>
<g id="a_Node000006"><a xlink:href="classAsyncFw_1_1AbstractSocket.html#aa29d033332c09e341d159b2189c774e9" target="_top" xlink:title="Return local network port bound to this socket interface.">
<polygon fill="white" stroke="#666666" points="477.75,-82 347,-82 347,-50 477.75,-50 477.75,-82"/>
<text xml:space="preserve" text-anchor="start" x="355" y="-68.5" font-family="Helvetica,sans-Serif" font-size="10.00">AsyncFw::AbstractSocket</text>
<text xml:space="preserve" text-anchor="middle" x="412.38" y="-56.5" font-family="Helvetica,sans-Serif" font-size="10.00">::port</text>
</a>
</g>
</g>
<!-- Node2&#45;&gt;Node6 -->
<g id="edge5_Node000002_Node000006" class="edge">
<title>Node2&#45;&gt;Node6</title>
<g id="a_edge5_Node000002_Node000006"><a xlink:title=" ">
<path fill="none" stroke="#63b8ff" d="M300.57,-99.63C315.14,-95.2 331.07,-90.37 346.19,-85.78"/>
<polygon fill="#63b8ff" stroke="#63b8ff" points="347.03,-89.19 355.58,-82.93 344.99,-82.49 347.03,-89.19"/>
</a>
</g>
</g>
<!-- Node7 -->
<g id="Node000007" class="node">
<title>Node7</title>
<g id="a_Node000007"><a xlink:href="classAsyncFw_1_1AbstractSocket.html#a5db12267a6d2241e81f570463f2d7ef5" target="_top" xlink:title="Called when the connection state changes.">
<polygon fill="white" stroke="#666666" points="477.75,-32 347,-32 347,0 477.75,0 477.75,-32"/>
<text xml:space="preserve" text-anchor="start" x="355" y="-18.5" font-family="Helvetica,sans-Serif" font-size="10.00">AsyncFw::AbstractSocket</text>
<text xml:space="preserve" text-anchor="middle" x="412.38" y="-6.5" font-family="Helvetica,sans-Serif" font-size="10.00">::stateEvent</text>
</a>
</g>
</g>
<!-- Node2&#45;&gt;Node7 -->
<g id="edge6_Node000002_Node000007" class="edge">
<title>Node2&#45;&gt;Node7</title>
<g id="a_edge6_Node000002_Node000007"><a xlink:title=" ">
<path fill="none" stroke="#63b8ff" d="M265.18,-99.69C284.56,-83.26 316.37,-57.98 347,-41 349.34,-39.7 351.77,-38.44 354.25,-37.21"/>
<polygon fill="#63b8ff" stroke="#63b8ff" points="355.64,-40.43 363.25,-33.05 352.7,-34.07 355.64,-40.43"/>
</a>
</g>
</g>
</g>
</svg>
