<?xml version="1.0" encoding="UTF-8" standalone="no"?>
<!DOCTYPE svg PUBLIC "-//W3C//DTD SVG 1.1//EN"
 "http://www.w3.org/Graphics/SVG/1.1/DTD/svg11.dtd">
<!-- Generated by graphviz version 12.2.1 (20241206.2353)
 -->
<!-- Title: AsyncFw::Task&lt; M &gt; Pages: 1 -->
<svg width="406pt" height="165pt"
 viewBox="0.00 0.00 406.00 165.00" xmlns="http://www.w3.org/2000/svg" xmlns:xlink="http://www.w3.org/1999/xlink">
<g id="graph0" class="graph" transform="scale(1 1) rotate(0) translate(4 161)">
<title>AsyncFw::Task&lt; M &gt;</title>
<!-- Node1 -->
<g id="Node000001" class="node">
<title>Node1</title>
<g id="a_Node000001"><a xlink:title="The Task class.">
<polygon fill="#999999" stroke="#666666" points="254.25,-20 143.75,-20 143.75,0 254.25,0 254.25,-20"/>
<text text-anchor="middle" x="199" y="-6.5" font-family="Helvetica,sans-Serif" font-size="10.00">AsyncFw::Task&lt; M &gt;</text>
</a>
</g>
</g>
<!-- Node2 -->
<g id="Node000002" class="node">
<title>Node2</title>
<g id="a_Node000002"><a xlink:href="classAsyncFw_1_1AbstractTask.html" target="_top" xlink:title="The AbstractTask class.">
<polygon fill="white" stroke="#666666" points="259.5,-77 138.5,-77 138.5,-57 259.5,-57 259.5,-77"/>
<text text-anchor="middle" x="199" y="-63.5" font-family="Helvetica,sans-Serif" font-size="10.00">AsyncFw::AbstractTask</text>
</a>
</g>
</g>
<!-- Node2&#45;&gt;Node1 -->
<g id="edge1_Node000001_Node000002" class="edge">
<title>Node2&#45;&gt;Node1</title>
<g id="a_edge1_Node000001_Node000002"><a xlink:title=" ">
<path fill="none" stroke="#63b8ff" d="M199,-45.69C199,-36.97 199,-27.22 199,-20.28"/>
<polygon fill="#63b8ff" stroke="#63b8ff" points="195.5,-45.4 199,-55.4 202.5,-45.4 195.5,-45.4"/>
</a>
</g>
</g>
<!-- Node3 -->
<g id="Node000003" class="node">
<title>Node3</title>
<g id="a_Node000003"><a xlink:href="structAsyncFw_1_1AbstractThread_1_1AbstractTask.html" target="_top" xlink:title="The AbstractTask struct.">
<polygon fill="white" stroke="#666666" points="130,-157 0,-157 0,-125 130,-125 130,-157"/>
<text text-anchor="start" x="8" y="-143.5" font-family="Helvetica,sans-Serif" font-size="10.00">AsyncFw::AbstractThread</text>
<text text-anchor="middle" x="65" y="-131.5" font-family="Helvetica,sans-Serif" font-size="10.00">::AbstractTask</text>
</a>
</g>
</g>
<!-- Node3&#45;&gt;Node2 -->
<g id="edge2_Node000002_Node000003" class="edge">
<title>Node3&#45;&gt;Node2</title>
<g id="a_edge2_Node000002_Node000003"><a xlink:title=" ">
<path fill="none" stroke="#63b8ff" d="M103.55,-119.28C129.2,-105.5 161.68,-88.05 181.37,-77.47"/>
<polygon fill="#63b8ff" stroke="#63b8ff" points="102.23,-116.02 95.08,-123.84 105.55,-122.19 102.23,-116.02"/>
</a>
</g>
</g>
<!-- Node4 -->
<g id="Node000004" class="node">
<title>Node4</title>
<g id="a_Node000004"><a xlink:href="structAsyncFw_1_1AnyData.html" target="_top" xlink:title="The AnyData class.">
<polygon fill="white" stroke="#666666" points="249.75,-151 148.25,-151 148.25,-131 249.75,-131 249.75,-151"/>
<text text-anchor="middle" x="199" y="-137.5" font-family="Helvetica,sans-Serif" font-size="10.00">AsyncFw::AnyData</text>
</a>
</g>
</g>
<!-- Node4&#45;&gt;Node2 -->
<g id="edge3_Node000002_Node000004" class="edge">
<title>Node4&#45;&gt;Node2</title>
<g id="a_edge3_Node000002_Node000004"><a xlink:title=" ">
<path fill="none" stroke="#63b8ff" d="M199,-119.18C199,-105.29 199,-87.71 199,-77.19"/>
<polygon fill="#63b8ff" stroke="#63b8ff" points="195.5,-119.07 199,-129.07 202.5,-119.07 195.5,-119.07"/>
</a>
</g>
</g>
<!-- Node5 -->
<g id="Node000005" class="node">
<title>Node5</title>
<g id="a_Node000005"><a xlink:href="classAsyncFw_1_1AbstractThread.html" target="_top" xlink:title="The AbstractThread class provides the base functionality for thread management.">
<polygon fill="white" stroke="#666666" points="398,-151 268,-151 268,-131 398,-131 398,-151"/>
<text text-anchor="middle" x="333" y="-137.5" font-family="Helvetica,sans-Serif" font-size="10.00">AsyncFw::AbstractThread</text>
</a>
</g>
</g>
<!-- Node5&#45;&gt;Node2 -->
<g id="edge4_Node000002_Node000005" class="edge">
<title>Node5&#45;&gt;Node2</title>
<g id="a_edge4_Node000002_Node000005"><a xlink:title=" ">
<path fill="none" stroke="#9a32cd" stroke-dasharray="5,2" d="M305.62,-125.29C278.95,-110.96 239.2,-89.6 216.52,-77.42"/>
<polygon fill="#9a32cd" stroke="#9a32cd" points="303.68,-128.22 314.15,-129.87 307,-122.05 303.68,-128.22"/>
</a>
</g>
<text text-anchor="middle" x="287.64" y="-97.5" font-family="Helvetica,sans-Serif" font-size="10.00" fill="grey"> thread_</text>
</g>
</g>
</svg>
