<?xml version="1.0" encoding="UTF-8" standalone="no"?>
<!DOCTYPE svg PUBLIC "-//W3C//DTD SVG 1.1//EN"
 "http://www.w3.org/Graphics/SVG/1.1/DTD/svg11.dtd">
<!-- Generated by graphviz version 12.2.1 (20241206.2353)
 -->
<!-- Title: AsyncFw::Thread::Thread Pages: 1 -->
<svg width="303pt" height="108pt"
 viewBox="0.00 0.00 303.25 108.00" xmlns="http://www.w3.org/2000/svg" xmlns:xlink="http://www.w3.org/1999/xlink">
<g id="graph0" class="graph" transform="scale(1 1) rotate(0) translate(4 104)">
<title>AsyncFw::Thread::Thread</title>
<!-- Node1 -->
<g id="Node000001" class="node">
<title>Node1</title>
<g id="a_Node000001"><a xlink:title="Constructs a thread.">
<polygon fill="#999999" stroke="#666666" points="129.25,-51 0,-51 0,-31 129.25,-31 129.25,-51"/>
<text text-anchor="middle" x="64.62" y="-37.5" font-family="Helvetica,sans-Serif" font-size="10.00">AsyncFw::Thread::Thread</text>
</a>
</g>
</g>
<!-- Node1&#45;&gt;Node1 -->
<g id="edge4_Node000001_Node000001" class="edge">
<title>Node1&#45;&gt;Node1</title>
<g id="a_edge4_Node000001_Node000001"><a xlink:title=" ">
<path fill="none" stroke="#63b8ff" d="M38.31,-51.34C27.06,-59.98 35.83,-69 64.62,-69 80.37,-69 90.13,-66.3 93.9,-62.44"/>
<polygon fill="#63b8ff" stroke="#63b8ff" points="97.29,-61.56 91.33,-52.8 90.52,-63.37 97.29,-61.56"/>
</a>
</g>
</g>
<!-- Node2 -->
<g id="Node000002" class="node">
<title>Node2</title>
<g id="a_Node000002"><a xlink:href="classAsyncFw_1_1AbstractThread.html#ac8be1c406c4235ff1dabc1cdb4ac04ba" target="_top" xlink:title="Constructs a thread.">
<polygon fill="white" stroke="#666666" points="295.25,-82 165.25,-82 165.25,-50 295.25,-50 295.25,-82"/>
<text text-anchor="start" x="173.25" y="-68.5" font-family="Helvetica,sans-Serif" font-size="10.00">AsyncFw::AbstractThread</text>
<text text-anchor="middle" x="230.25" y="-56.5" font-family="Helvetica,sans-Serif" font-size="10.00">::AbstractThread</text>
</a>
</g>
</g>
<!-- Node1&#45;&gt;Node2 -->
<g id="edge1_Node000001_Node000002" class="edge">
<title>Node1&#45;&gt;Node2</title>
<g id="a_edge1_Node000001_Node000002"><a xlink:title=" ">
<path fill="none" stroke="#63b8ff" d="M129.36,-50.74C137.28,-51.95 145.45,-53.2 153.54,-54.43"/>
<polygon fill="#63b8ff" stroke="#63b8ff" points="152.98,-57.89 163.39,-55.94 154.03,-50.97 152.98,-57.89"/>
</a>
</g>
</g>
<!-- Node3 -->
<g id="Node000003" class="node">
<title>Node3</title>
<g id="a_Node000003"><a xlink:href="classAsyncFw_1_1AbstractThread.html#a8ebcc00d7ecbc1f9a2cc0c44d52ee071" target="_top" xlink:title="Returns name of managed thread.">
<polygon fill="white" stroke="#666666" points="295.25,-32 165.25,-32 165.25,0 295.25,0 295.25,-32"/>
<text text-anchor="start" x="173.25" y="-18.5" font-family="Helvetica,sans-Serif" font-size="10.00">AsyncFw::AbstractThread</text>
<text text-anchor="middle" x="230.25" y="-6.5" font-family="Helvetica,sans-Serif" font-size="10.00">::name</text>
</a>
</g>
</g>
<!-- Node1&#45;&gt;Node3 -->
<g id="edge3_Node000001_Node000003" class="edge">
<title>Node1&#45;&gt;Node3</title>
<g id="a_edge3_Node000001_Node000003"><a xlink:title=" ">
<path fill="none" stroke="#63b8ff" d="M129.36,-31.26C137.28,-30.05 145.45,-28.8 153.54,-27.57"/>
<polygon fill="#63b8ff" stroke="#63b8ff" points="154.03,-31.03 163.39,-26.06 152.98,-24.11 154.03,-31.03"/>
</a>
</g>
</g>
<!-- Node2&#45;&gt;Node2 -->
<g id="edge2_Node000002_Node000002" class="edge">
<title>Node2&#45;&gt;Node2</title>
<g id="a_edge2_Node000002_Node000002"><a xlink:title=" ">
<path fill="none" stroke="#63b8ff" d="M200.68,-82.44C195.16,-91.58 205.02,-100 230.25,-100 244.05,-100 253.25,-97.48 257.85,-93.71"/>
<polygon fill="#63b8ff" stroke="#63b8ff" points="261.28,-94.39 259.56,-83.93 254.39,-93.18 261.28,-94.39"/>
</a>
</g>
</g>
</g>
</svg>
