<?xml version="1.0" encoding="UTF-8" standalone="no"?>
<!DOCTYPE svg PUBLIC "-//W3C//DTD SVG 1.1//EN"
 "http://www.w3.org/Graphics/SVG/1.1/DTD/svg11.dtd">
<!-- Generated by graphviz version 12.2.1 (20241206.2353)
 -->
<!-- Title: AsyncFw::ApplicationNotifier Pages: 1 -->
<svg width="239pt" height="257pt"
 viewBox="0.00 0.00 238.75 257.00" xmlns="http://www.w3.org/2000/svg" xmlns:xlink="http://www.w3.org/1999/xlink">
<g id="graph0" class="graph" transform="scale(1 1) rotate(0) translate(4 253)">
<title>AsyncFw::ApplicationNotifier</title>
<!-- Node1 -->
<g id="Node000001" class="node">
<title>Node1</title>
<g id="a_Node000001"><a xlink:title="The ApplicationNotifier class.">
<polygon fill="#999999" stroke="#666666" points="144.25,-20 1.5,-20 1.5,0 144.25,0 144.25,-20"/>
<text text-anchor="middle" x="72.88" y="-6.5" font-family="Helvetica,sans-Serif" font-size="10.00">AsyncFw::ApplicationNotifier</text>
</a>
</g>
</g>
<!-- Node2 -->
<g id="Node000002" class="node">
<title>Node2</title>
<g id="a_Node000002"><a xlink:href="classAsyncFw_1_1FunctionConnector.html" target="_top" xlink:title=" ">
<polygon fill="white" stroke="#666666" points="145.75,-100 0,-100 0,-68 145.75,-68 145.75,-100"/>
<text text-anchor="start" x="8" y="-86.5" font-family="Helvetica,sans-Serif" font-size="10.00">AsyncFw::FunctionConnector</text>
<text text-anchor="middle" x="72.88" y="-74.5" font-family="Helvetica,sans-Serif" font-size="10.00">&lt; const Data &amp; &gt;</text>
</a>
</g>
</g>
<!-- Node2&#45;&gt;Node1 -->
<g id="edge1_Node000001_Node000002" class="edge">
<title>Node2&#45;&gt;Node1</title>
<g id="a_edge1_Node000001_Node000002"><a xlink:title=" ">
<path fill="none" stroke="#9a32cd" stroke-dasharray="5,2" d="M72.88,-56.34C72.88,-43.7 72.88,-29.41 72.88,-20.31"/>
<polygon fill="#9a32cd" stroke="#9a32cd" points="69.38,-56.22 72.88,-66.22 76.38,-56.22 69.38,-56.22"/>
</a>
</g>
<text text-anchor="middle" x="86.38" y="-40.5" font-family="Helvetica,sans-Serif" font-size="10.00" fill="grey"> notify</text>
</g>
<!-- Node3 -->
<g id="Node000003" class="node">
<title>Node3</title>
<g id="a_Node000003"><a xlink:href="classAsyncFw_1_1AbstractFunctionConnector.html" target="_top" xlink:title="The AbstractFunctionConnector class provides the base functionality for FunctionConnector.">
<polygon fill="white" stroke="#666666" points="137.62,-249 0.12,-249 0.12,-217 137.62,-217 137.62,-249"/>
<text text-anchor="start" x="8.12" y="-235.5" font-family="Helvetica,sans-Serif" font-size="10.00">AsyncFw::AbstractFunction</text>
<text text-anchor="middle" x="68.88" y="-223.5" font-family="Helvetica,sans-Serif" font-size="10.00">Connector</text>
</a>
</g>
</g>
<!-- Node3&#45;&gt;Node2 -->
<g id="edge2_Node000002_Node000003" class="edge">
<title>Node3&#45;&gt;Node2</title>
<g id="a_edge2_Node000002_Node000003"><a xlink:title=" ">
<path fill="none" stroke="#63b8ff" d="M69.6,-205.4C70.44,-174.65 71.78,-125.1 72.46,-100.25"/>
<polygon fill="#63b8ff" stroke="#63b8ff" points="66.11,-204.94 69.34,-215.03 73.11,-205.13 66.11,-204.94"/>
</a>
</g>
</g>
<!-- Node4 -->
<g id="Node000004" class="node">
<title>Node4</title>
<g id="a_Node000004"><a xlink:href="classAsyncFw_1_1FunctionConnector.html" target="_top" xlink:title="Обеспечивает соединение отправитель &#45;&gt; получатели. Получатели могут быть вызваны в своих потоках (по ...">
<polygon fill="white" stroke="#666666" points="230.75,-180 85,-180 85,-148 230.75,-148 230.75,-180"/>
<text text-anchor="start" x="93" y="-166.5" font-family="Helvetica,sans-Serif" font-size="10.00">AsyncFw::FunctionConnector</text>
<text text-anchor="middle" x="157.88" y="-154.5" font-family="Helvetica,sans-Serif" font-size="10.00">&lt; Args &gt;</text>
</a>
</g>
</g>
<!-- Node3&#45;&gt;Node4 -->
<g id="edge4_Node000004_Node000003" class="edge">
<title>Node3&#45;&gt;Node4</title>
<g id="a_edge4_Node000004_Node000003"><a xlink:title=" ">
<path fill="none" stroke="#63b8ff" d="M98.04,-210.05C110.93,-200.34 125.77,-189.17 137.45,-180.38"/>
<polygon fill="#63b8ff" stroke="#63b8ff" points="96.16,-207.08 90.28,-215.89 100.37,-212.67 96.16,-207.08"/>
</a>
</g>
</g>
<!-- Node4&#45;&gt;Node2 -->
<g id="edge3_Node000002_Node000004" class="edge">
<title>Node4&#45;&gt;Node2</title>
<g id="a_edge3_Node000002_Node000004"><a xlink:title=" ">
<path fill="none" stroke="orange" stroke-dasharray="5,2" d="M132.87,-140.05C118.94,-127.27 101.97,-111.69 89.63,-100.38"/>
<polygon fill="orange" stroke="orange" points="130.23,-142.38 139.97,-146.57 134.97,-137.23 130.23,-142.38"/>
</a>
</g>
<text text-anchor="middle" x="159.84" y="-120.5" font-family="Helvetica,sans-Serif" font-size="10.00" fill="grey"> &lt; const Data &amp; &gt;</text>
</g>
</g>
</svg>
