<?xml version="1.0" encoding="UTF-8" standalone="no"?>
<!DOCTYPE svg PUBLIC "-//W3C//DTD SVG 1.1//EN"
 "http://www.w3.org/Graphics/SVG/1.1/DTD/svg11.dtd">
<!-- Generated by graphviz version 12.2.1 (20241206.2353)
 -->
<!-- Title: AsyncFw::Rrd::Rrd Pages: 1 -->
<svg width="772pt" height="103pt"
 viewBox="0.00 0.00 772.00 103.00" xmlns="http://www.w3.org/2000/svg" xmlns:xlink="http://www.w3.org/1999/xlink">
<g id="graph0" class="graph" transform="scale(1 1) rotate(0) translate(4 99)">
<title>AsyncFw::Rrd::Rrd</title>
<!-- Node1 -->
<g id="Node000001" class="node">
<title>Node1</title>
<g id="a_Node000001"><a xlink:title="Constructs a persistent circular archive database with physical disk backing.">
<polygon fill="#999999" stroke="#666666" points="100.75,-39 0,-39 0,-19 100.75,-19 100.75,-39"/>
<text text-anchor="middle" x="50.38" y="-25.5" font-family="Helvetica,sans-Serif" font-size="10.00">AsyncFw::Rrd::Rrd</text>
</a>
</g>
</g>
<!-- Node2 -->
<g id="Node000002" class="node">
<title>Node2</title>
<g id="a_Node000002"><a xlink:href="classAsyncFw_1_1Thread.html#a0a3bd6a54db28f73ff59cfea6a40b07a" target="_top" xlink:title="Returns a pointer to the AsyncFw::Thread that manages the currently executing thread.">
<polygon fill="white" stroke="#666666" points="266,-58 136.75,-58 136.75,-38 266,-38 266,-58"/>
<text text-anchor="middle" x="201.38" y="-44.5" font-family="Helvetica,sans-Serif" font-size="10.00">AsyncFw::Thread::current</text>
</a>
</g>
</g>
<!-- Node1&#45;&gt;Node2 -->
<g id="edge1_Node000001_Node000002" class="edge">
<title>Node1&#45;&gt;Node2</title>
<g id="a_edge1_Node000001_Node000002"><a xlink:title=" ">
<path fill="none" stroke="#63b8ff" d="M100.99,-35.33C108.79,-36.32 117,-37.37 125.22,-38.42"/>
<polygon fill="#63b8ff" stroke="#63b8ff" points="124.53,-41.86 134.9,-39.65 125.42,-34.91 124.53,-41.86"/>
</a>
</g>
</g>
<!-- Node7 -->
<g id="Node000007" class="node">
<title>Node7</title>
<g id="a_Node000007"><a xlink:href="classAsyncFw_1_1Rrd.html#a330145de892c6f5e916d7dda15aeedfc" target="_top" xlink:title="Returns the absolute maximum capability size (total slots) configured for this circular ring buffer l...">
<polygon fill="white" stroke="#666666" points="252.88,-20 149.88,-20 149.88,0 252.88,0 252.88,-20"/>
<text text-anchor="middle" x="201.38" y="-6.5" font-family="Helvetica,sans-Serif" font-size="10.00">AsyncFw::Rrd::size</text>
</a>
</g>
</g>
<!-- Node1&#45;&gt;Node7 -->
<g id="edge9_Node000001_Node000007" class="edge">
<title>Node1&#45;&gt;Node7</title>
<g id="a_edge9_Node000001_Node000007"><a xlink:title=" ">
<path fill="none" stroke="#63b8ff" d="M100.99,-22.67C112.92,-21.15 125.8,-19.51 138.22,-17.93"/>
<polygon fill="#63b8ff" stroke="#63b8ff" points="138.47,-21.42 147.95,-16.69 137.59,-14.48 138.47,-21.42"/>
</a>
</g>
</g>
<!-- Node3 -->
<g id="Node000003" class="node">
<title>Node3</title>
<g id="a_Node000003"><a xlink:href="classAsyncFw_1_1AbstractThread.html#af33c5949edb374d673a7a9ac0c81ec32" target="_top" xlink:title="Returns a pointer to the AsyncFw::AbstractThread that manages the currently executing thread.">
<polygon fill="white" stroke="#666666" points="432,-95 302,-95 302,-63 432,-63 432,-95"/>
<text text-anchor="start" x="310" y="-81.5" font-family="Helvetica,sans-Serif" font-size="10.00">AsyncFw::AbstractThread</text>
<text text-anchor="middle" x="367" y="-69.5" font-family="Helvetica,sans-Serif" font-size="10.00">::current</text>
</a>
</g>
</g>
<!-- Node2&#45;&gt;Node3 -->
<g id="edge2_Node000002_Node000003" class="edge">
<title>Node2&#45;&gt;Node3</title>
<g id="a_edge2_Node000002_Node000003"><a xlink:title=" ">
<path fill="none" stroke="#63b8ff" d="M257.77,-58.5C268.34,-60.5 279.57,-62.62 290.64,-64.72"/>
<polygon fill="#63b8ff" stroke="#63b8ff" points="289.66,-68.1 300.14,-66.52 290.96,-61.22 289.66,-68.1"/>
</a>
</g>
</g>
<!-- Node6 -->
<g id="Node000006" class="node">
<title>Node6</title>
<g id="a_Node000006"><a xlink:href="classAsyncFw_1_1Thread.html#afc5e422090767dd84020381fb9a4d490" target="_top" xlink:title="Constructs a thread.">
<polygon fill="white" stroke="#666666" points="431.62,-27 302.38,-27 302.38,-7 431.62,-7 431.62,-27"/>
<text text-anchor="middle" x="367" y="-13.5" font-family="Helvetica,sans-Serif" font-size="10.00">AsyncFw::Thread::Thread</text>
</a>
</g>
</g>
<!-- Node2&#45;&gt;Node6 -->
<g id="edge5_Node000002_Node000006" class="edge">
<title>Node2&#45;&gt;Node6</title>
<g id="a_edge5_Node000002_Node000006"><a xlink:title=" ">
<path fill="none" stroke="#63b8ff" d="M257.77,-37.5C271.23,-34.95 285.76,-32.2 299.67,-29.57"/>
<polygon fill="#63b8ff" stroke="#63b8ff" points="300,-33.07 309.17,-27.77 298.7,-26.19 300,-33.07"/>
</a>
</g>
</g>
<!-- Node4 -->
<g id="Node000004" class="node">
<title>Node4</title>
<g id="a_Node000004"><a xlink:href="classAsyncFw_1_1AbstractThread.html#a8c9202c90ac101522f26c4260cb01b59" target="_top" xlink:title="Constructs a thread.">
<polygon fill="white" stroke="#666666" points="598,-77 468,-77 468,-45 598,-45 598,-77"/>
<text text-anchor="start" x="476" y="-63.5" font-family="Helvetica,sans-Serif" font-size="10.00">AsyncFw::AbstractThread</text>
<text text-anchor="middle" x="533" y="-51.5" font-family="Helvetica,sans-Serif" font-size="10.00">::AbstractThread</text>
</a>
</g>
</g>
<!-- Node3&#45;&gt;Node4 -->
<g id="edge3_Node000003_Node000004" class="edge">
<title>Node3&#45;&gt;Node4</title>
<g id="a_edge3_Node000003_Node000004"><a xlink:title=" ">
<path fill="none" stroke="#63b8ff" d="M432.35,-71.94C440.21,-71.07 448.31,-70.19 456.33,-69.31"/>
<polygon fill="#63b8ff" stroke="#63b8ff" points="456.51,-72.81 466.07,-68.24 455.74,-65.85 456.51,-72.81"/>
</a>
</g>
</g>
<!-- Node5 -->
<g id="Node000005" class="node">
<title>Node5</title>
<g id="a_Node000005"><a xlink:href="classAsyncFw_1_1AbstractThread.html#a0cd916251e061aaf3d456575ef052edd" target="_top" xlink:title="Returns name of managed thread.">
<polygon fill="white" stroke="#666666" points="764,-55 634,-55 634,-23 764,-23 764,-55"/>
<text text-anchor="start" x="642" y="-41.5" font-family="Helvetica,sans-Serif" font-size="10.00">AsyncFw::AbstractThread</text>
<text text-anchor="middle" x="699" y="-29.5" font-family="Helvetica,sans-Serif" font-size="10.00">::name</text>
</a>
</g>
</g>
<!-- Node4&#45;&gt;Node5 -->
<g id="edge4_Node000004_Node000005" class="edge">
<title>Node4&#45;&gt;Node5</title>
<g id="a_edge4_Node000004_Node000005"><a xlink:title=" ">
<path fill="none" stroke="#63b8ff" d="M598.35,-52.37C606.21,-51.31 614.31,-50.23 622.33,-49.15"/>
<polygon fill="#63b8ff" stroke="#63b8ff" points="622.62,-52.64 632.07,-47.84 621.69,-45.71 622.62,-52.64"/>
</a>
</g>
</g>
<!-- Node6&#45;&gt;Node4 -->
<g id="edge6_Node000006_Node000004" class="edge">
<title>Node6&#45;&gt;Node4</title>
<g id="a_edge6_Node000006_Node000004"><a xlink:title=" ">
<path fill="none" stroke="#63b8ff" d="M406.87,-27.43C422.71,-31.68 441.55,-36.73 459.74,-41.61"/>
<polygon fill="#63b8ff" stroke="#63b8ff" points="458.63,-44.94 469.19,-44.15 460.44,-38.18 458.63,-44.94"/>
</a>
</g>
</g>
<!-- Node6&#45;&gt;Node5 -->
<g id="edge7_Node000006_Node000005" class="edge">
<title>Node6&#45;&gt;Node5</title>
<g id="a_edge7_Node000006_Node000005"><a xlink:title=" ">
<path fill="none" stroke="#63b8ff" d="M432.02,-21.27C486.49,-24.9 564.82,-30.12 622.38,-33.96"/>
<polygon fill="#63b8ff" stroke="#63b8ff" points="621.88,-37.43 632.09,-34.61 622.34,-30.45 621.88,-37.43"/>
</a>
</g>
</g>
<!-- Node6&#45;&gt;Node6 -->
<g id="edge8_Node000006_Node000006" class="edge">
<title>Node6&#45;&gt;Node6</title>
<g id="a_edge8_Node000006_Node000006"><a xlink:title=" ">
<path fill="none" stroke="#63b8ff" d="M340.68,-27.34C329.44,-35.98 338.21,-45 367,-45 382.74,-45 392.5,-42.3 396.27,-38.44"/>
<polygon fill="#63b8ff" stroke="#63b8ff" points="399.66,-37.56 393.71,-28.8 392.9,-39.37 399.66,-37.56"/>
</a>
</g>
</g>
</g>
</svg>
