<?xml version="1.0" encoding="UTF-8" standalone="no"?>
<!DOCTYPE svg PUBLIC "-//W3C//DTD SVG 1.1//EN"
 "http://www.w3.org/Graphics/SVG/1.1/DTD/svg11.dtd">
<!-- Generated by graphviz version 14.1.3 (20260303.0454)
 -->
<!-- Title: AsyncFw::DataArrayAbstractTcp::Thread::destroySocket Pages: 1 -->
<svg width="1003pt" height="193pt"
 viewBox="0.00 0.00 1003.00 193.00" xmlns="http://www.w3.org/2000/svg" xmlns:xlink="http://www.w3.org/1999/xlink">
<g id="graph0" class="graph" transform="scale(1 1) rotate(0) translate(4 189)">
<title>AsyncFw::DataArrayAbstractTcp::Thread::destroySocket</title>
<!-- Node1 -->
<g id="Node000001" class="node">
<title>Node1</title>
<g id="a_Node000001"><a xlink:title="Performs cleanup routines and safely removes a socket from the thread loop.">
<polygon fill="#999999" stroke="#666666" points="144.25,-107 0,-107 0,-75 144.25,-75 144.25,-107"/>
<text xml:space="preserve" text-anchor="start" x="8" y="-93.5" font-family="Helvetica,sans-Serif" font-size="10.00">AsyncFw::DataArrayAbstract</text>
<text xml:space="preserve" text-anchor="middle" x="72.12" y="-81.5" font-family="Helvetica,sans-Serif" font-size="10.00">Tcp::Thread::destroySocket</text>
</a>
</g>
</g>
<!-- Node2 -->
<g id="Node000002" class="node">
<title>Node2</title>
<g id="a_Node000002"><a xlink:href="classAsyncFw_1_1AbstractTlsSocket.html#a46dbd8e4895445214a4f46ee46433d6c" target="_top" xlink:title="Immediately releases OpenSSL session pointers and forcefully closes the system&#45;level descriptor.">
<polygon fill="white" stroke="#666666" points="327.12,-182 182.88,-182 182.88,-150 327.12,-150 327.12,-182"/>
<text xml:space="preserve" text-anchor="start" x="190.88" y="-168.5" font-family="Helvetica,sans-Serif" font-size="10.00">AsyncFw::AbstractTlsSocket</text>
<text xml:space="preserve" text-anchor="middle" x="255" y="-156.5" font-family="Helvetica,sans-Serif" font-size="10.00">::close</text>
</a>
</g>
</g>
<!-- Node1&#45;&gt;Node2 -->
<g id="edge1_Node000001_Node000002" class="edge">
<title>Node1&#45;&gt;Node2</title>
<g id="a_edge1_Node000001_Node000002"><a xlink:title=" ">
<path fill="none" stroke="#63b8ff" d="M106.01,-107.49C126.99,-117.73 154.92,-130.83 180.25,-141 184.12,-142.55 188.12,-144.09 192.17,-145.6"/>
<polygon fill="#63b8ff" stroke="#63b8ff" points="190.93,-148.88 201.53,-148.99 193.32,-142.3 190.93,-148.88"/>
</a>
</g>
</g>
<!-- Node5 -->
<g id="Node000005" class="node">
<title>Node5</title>
<g id="a_Node000005"><a xlink:href="classAsyncFw_1_1AbstractSocket.html#a73a200f0008dbf9f820bdb2b8a0054cf" target="_top" xlink:title="Schedules the socket for deferred asynchronous destruction.">
<polygon fill="white" stroke="#666666" points="320.38,-132 189.62,-132 189.62,-100 320.38,-100 320.38,-132"/>
<text xml:space="preserve" text-anchor="start" x="197.62" y="-118.5" font-family="Helvetica,sans-Serif" font-size="10.00">AsyncFw::AbstractSocket</text>
<text xml:space="preserve" text-anchor="middle" x="255" y="-106.5" font-family="Helvetica,sans-Serif" font-size="10.00">::destroy</text>
</a>
</g>
</g>
<!-- Node1&#45;&gt;Node5 -->
<g id="edge4_Node000001_Node000005" class="edge">
<title>Node1&#45;&gt;Node5</title>
<g id="a_edge4_Node000001_Node000005"><a xlink:title=" ">
<path fill="none" stroke="#63b8ff" d="M144.61,-100.88C155.53,-102.39 166.84,-103.95 177.85,-105.48"/>
<polygon fill="#63b8ff" stroke="#63b8ff" points="177.31,-108.93 187.7,-106.84 178.27,-102 177.31,-108.93"/>
</a>
</g>
</g>
<!-- Node13 -->
<g id="Node000013" class="node">
<title>Node13</title>
<g id="a_Node000013"><a xlink:href="classAsyncFw_1_1AbstractThreadPool_1_1Thread.html#aa4a8873e426f02286f1082de4083cb01" target="_top" xlink:title="Gracefully destroys the thread, ensuring all tasks are flushed.">
<polygon fill="white" stroke="#666666" points="329.75,-82 180.25,-82 180.25,-50 329.75,-50 329.75,-82"/>
<text xml:space="preserve" text-anchor="start" x="188.25" y="-68.5" font-family="Helvetica,sans-Serif" font-size="10.00">AsyncFw::AbstractThreadPool</text>
<text xml:space="preserve" text-anchor="middle" x="255" y="-56.5" font-family="Helvetica,sans-Serif" font-size="10.00">::Thread::destroy</text>
</a>
</g>
</g>
<!-- Node1&#45;&gt;Node13 -->
<g id="edge15_Node000001_Node000013" class="edge">
<title>Node1&#45;&gt;Node13</title>
<g id="a_edge15_Node000001_Node000013"><a xlink:title=" ">
<path fill="none" stroke="#63b8ff" d="M144.61,-81.12C152.46,-80.03 160.52,-78.92 168.52,-77.82"/>
<polygon fill="#63b8ff" stroke="#63b8ff" points="168.84,-81.3 178.27,-76.47 167.88,-74.37 168.84,-81.3"/>
</a>
</g>
</g>
<!-- Node15 -->
<g id="Node000015" class="node">
<title>Node15</title>
<g id="a_Node000015"><a xlink:href="classAsyncFw_1_1AbstractSocket.html#aa0f81593deeb67fe6a3031e9d57738d4" target="_top" xlink:title="Synchronously detaches the socket from its execution thread.">
<polygon fill="white" stroke="#666666" points="320.38,-32 189.62,-32 189.62,0 320.38,0 320.38,-32"/>
<text xml:space="preserve" text-anchor="start" x="197.62" y="-18.5" font-family="Helvetica,sans-Serif" font-size="10.00">AsyncFw::AbstractSocket</text>
<text xml:space="preserve" text-anchor="middle" x="255" y="-6.5" font-family="Helvetica,sans-Serif" font-size="10.00">::removeFromThread</text>
</a>
</g>
</g>
<!-- Node1&#45;&gt;Node15 -->
<g id="edge17_Node000001_Node000015" class="edge">
<title>Node1&#45;&gt;Node15</title>
<g id="a_edge17_Node000001_Node000015"><a xlink:title=" ">
<path fill="none" stroke="#63b8ff" d="M106.01,-74.51C126.99,-64.27 154.92,-51.17 180.25,-41 184.12,-39.45 188.12,-37.91 192.17,-36.4"/>
<polygon fill="#63b8ff" stroke="#63b8ff" points="193.32,-39.7 201.53,-33.01 190.93,-33.12 193.32,-39.7"/>
</a>
</g>
</g>
<!-- Node3 -->
<g id="Node000003" class="node">
<title>Node3</title>
<g id="a_Node000003"><a xlink:href="classAsyncFw_1_1AbstractSocket.html#a77c0a9ea7c5061c406673bbe8b18d60d" target="_top" xlink:title="Closes the network connection and unsubscribes from thread polling events.">
<polygon fill="white" stroke="#666666" points="496.5,-182 365.75,-182 365.75,-150 496.5,-150 496.5,-182"/>
<text xml:space="preserve" text-anchor="start" x="373.75" y="-168.5" font-family="Helvetica,sans-Serif" font-size="10.00">AsyncFw::AbstractSocket</text>
<text xml:space="preserve" text-anchor="middle" x="431.12" y="-156.5" font-family="Helvetica,sans-Serif" font-size="10.00">::close</text>
</a>
</g>
</g>
<!-- Node2&#45;&gt;Node3 -->
<g id="edge2_Node000002_Node000003" class="edge">
<title>Node2&#45;&gt;Node3</title>
<g id="a_edge2_Node000002_Node000003"><a xlink:title=" ">
<path fill="none" stroke="#63b8ff" d="M327.58,-166C336.32,-166 345.27,-166 354.07,-166"/>
<polygon fill="#63b8ff" stroke="#63b8ff" points="354.01,-169.5 364.01,-166 354.01,-162.5 354.01,-169.5"/>
</a>
</g>
</g>
<!-- Node4 -->
<g id="Node000004" class="node">
<title>Node4</title>
<g id="a_Node000004"><a xlink:href="classAsyncFw_1_1AbstractSocket.html#a5db12267a6d2241e81f570463f2d7ef5" target="_top" xlink:title="Called when the connection state changes.">
<polygon fill="white" stroke="#666666" points="663.25,-185 532.5,-185 532.5,-153 663.25,-153 663.25,-185"/>
<text xml:space="preserve" text-anchor="start" x="540.5" y="-171.5" font-family="Helvetica,sans-Serif" font-size="10.00">AsyncFw::AbstractSocket</text>
<text xml:space="preserve" text-anchor="middle" x="597.88" y="-159.5" font-family="Helvetica,sans-Serif" font-size="10.00">::stateEvent</text>
</a>
</g>
</g>
<!-- Node3&#45;&gt;Node4 -->
<g id="edge3_Node000003_Node000004" class="edge">
<title>Node3&#45;&gt;Node4</title>
<g id="a_edge3_Node000003_Node000004"><a xlink:title=" ">
<path fill="none" stroke="#63b8ff" d="M496.77,-167.18C504.67,-167.32 512.8,-167.47 520.85,-167.62"/>
<polygon fill="#63b8ff" stroke="#63b8ff" points="520.57,-171.11 530.64,-167.79 520.7,-164.11 520.57,-171.11"/>
</a>
</g>
</g>
<!-- Node5&#45;&gt;Node3 -->
<g id="edge5_Node000005_Node000003" class="edge">
<title>Node5&#45;&gt;Node3</title>
<g id="a_edge5_Node000005_Node000003"><a xlink:title=" ">
<path fill="none" stroke="#63b8ff" d="M313.02,-132.37C328.57,-136.84 345.58,-141.72 361.7,-146.35"/>
<polygon fill="#63b8ff" stroke="#63b8ff" points="360.65,-149.69 371.23,-149.09 362.58,-142.96 360.65,-149.69"/>
</a>
</g>
</g>
<!-- Node6 -->
<g id="Node000006" class="node">
<title>Node6</title>
<g id="a_Node000006"><a xlink:href="classAsyncFw_1_1Thread.html#a0a3bd6a54db28f73ff59cfea6a40b07a" target="_top" xlink:title="Returns a pointer to the AsyncFw::Thread that manages the currently executing thread.">
<polygon fill="white" stroke="#666666" points="495.75,-128 366.5,-128 366.5,-108 495.75,-108 495.75,-128"/>
<text xml:space="preserve" text-anchor="middle" x="431.12" y="-114.5" font-family="Helvetica,sans-Serif" font-size="10.00">AsyncFw::Thread::current</text>
</a>
</g>
</g>
<!-- Node5&#45;&gt;Node6 -->
<g id="edge6_Node000005_Node000006" class="edge">
<title>Node5&#45;&gt;Node6</title>
<g id="a_edge6_Node000005_Node000006"><a xlink:title=" ">
<path fill="none" stroke="#63b8ff" d="M320.84,-116.74C331.93,-116.87 343.54,-117.01 354.88,-117.14"/>
<polygon fill="#63b8ff" stroke="#63b8ff" points="354.55,-120.63 364.59,-117.25 354.63,-113.63 354.55,-120.63"/>
</a>
</g>
</g>
<!-- Node11 -->
<g id="Node000011" class="node">
<title>Node11</title>
<g id="a_Node000011"><a xlink:href="classAsyncFw_1_1AbstractThread.html#a786474d037b50053f1a97af7b67e6069" target="_top" xlink:title="Runs a function in a managed thread.">
<polygon fill="white" stroke="#666666" points="496.12,-90 366.12,-90 366.12,-58 496.12,-58 496.12,-90"/>
<text xml:space="preserve" text-anchor="start" x="374.12" y="-76.5" font-family="Helvetica,sans-Serif" font-size="10.00">AsyncFw::AbstractThread</text>
<text xml:space="preserve" text-anchor="middle" x="431.12" y="-64.5" font-family="Helvetica,sans-Serif" font-size="10.00">::invoke</text>
</a>
</g>
</g>
<!-- Node5&#45;&gt;Node11 -->
<g id="edge13_Node000005_Node000011" class="edge">
<title>Node5&#45;&gt;Node11</title>
<g id="a_edge13_Node000005_Node000011"><a xlink:title=" ">
<path fill="none" stroke="#63b8ff" d="M320.84,-100.36C331.86,-97.7 343.39,-94.92 354.66,-92.2"/>
<polygon fill="#63b8ff" stroke="#63b8ff" points="355.44,-95.61 364.34,-89.87 353.8,-88.81 355.44,-95.61"/>
</a>
</g>
</g>
<!-- Node7 -->
<g id="Node000007" class="node">
<title>Node7</title>
<g id="a_Node000007"><a xlink:href="classAsyncFw_1_1AbstractThread.html#af33c5949edb374d673a7a9ac0c81ec32" target="_top" xlink:title="Returns a pointer to the AsyncFw::AbstractThread that manages the currently executing thread.">
<polygon fill="white" stroke="#666666" points="662.88,-135 532.88,-135 532.88,-103 662.88,-103 662.88,-135"/>
<text xml:space="preserve" text-anchor="start" x="540.88" y="-121.5" font-family="Helvetica,sans-Serif" font-size="10.00">AsyncFw::AbstractThread</text>
<text xml:space="preserve" text-anchor="middle" x="597.88" y="-109.5" font-family="Helvetica,sans-Serif" font-size="10.00">::current</text>
</a>
</g>
</g>
<!-- Node6&#45;&gt;Node7 -->
<g id="edge7_Node000006_Node000007" class="edge">
<title>Node6&#45;&gt;Node7</title>
<g id="a_edge7_Node000006_Node000007"><a xlink:title=" ">
<path fill="none" stroke="#63b8ff" d="M495.82,-118.39C504.1,-118.44 512.65,-118.49 521.1,-118.54"/>
<polygon fill="#63b8ff" stroke="#63b8ff" points="521,-122.04 531.02,-118.6 521.04,-115.04 521,-122.04"/>
</a>
</g>
</g>
<!-- Node10 -->
<g id="Node000010" class="node">
<title>Node10</title>
<g id="a_Node000010"><a xlink:href="classAsyncFw_1_1Thread.html#afc5e422090767dd84020381fb9a4d490" target="_top" xlink:title="Constructs a thread.">
<polygon fill="white" stroke="#666666" points="662.5,-85 533.25,-85 533.25,-65 662.5,-65 662.5,-85"/>
<text xml:space="preserve" text-anchor="middle" x="597.88" y="-71.5" font-family="Helvetica,sans-Serif" font-size="10.00">AsyncFw::Thread::Thread</text>
</a>
</g>
</g>
<!-- Node6&#45;&gt;Node10 -->
<g id="edge10_Node000006_Node000010" class="edge">
<title>Node6&#45;&gt;Node10</title>
<g id="a_edge10_Node000006_Node000010"><a xlink:title=" ">
<path fill="none" stroke="#63b8ff" d="M472.01,-107.59C494.2,-101.8 522.07,-94.52 545.84,-88.32"/>
<polygon fill="#63b8ff" stroke="#63b8ff" points="546.53,-91.76 555.33,-85.84 544.77,-84.98 546.53,-91.76"/>
</a>
</g>
</g>
<!-- Node8 -->
<g id="Node000008" class="node">
<title>Node8</title>
<g id="a_Node000008"><a xlink:href="classAsyncFw_1_1AbstractThread.html#a8c9202c90ac101522f26c4260cb01b59" target="_top" xlink:title="Constructs a thread.">
<polygon fill="white" stroke="#666666" points="829.25,-135 699.25,-135 699.25,-103 829.25,-103 829.25,-135"/>
<text xml:space="preserve" text-anchor="start" x="707.25" y="-121.5" font-family="Helvetica,sans-Serif" font-size="10.00">AsyncFw::AbstractThread</text>
<text xml:space="preserve" text-anchor="middle" x="764.25" y="-109.5" font-family="Helvetica,sans-Serif" font-size="10.00">::AbstractThread</text>
</a>
</g>
</g>
<!-- Node7&#45;&gt;Node8 -->
<g id="edge8_Node000007_Node000008" class="edge">
<title>Node7&#45;&gt;Node8</title>
<g id="a_edge8_Node000007_Node000008"><a xlink:title=" ">
<path fill="none" stroke="#63b8ff" d="M663.37,-119C671.32,-119 679.49,-119 687.59,-119"/>
<polygon fill="#63b8ff" stroke="#63b8ff" points="687.43,-122.5 697.43,-119 687.43,-115.5 687.43,-122.5"/>
</a>
</g>
</g>
<!-- Node9 -->
<g id="Node000009" class="node">
<title>Node9</title>
<g id="a_Node000009"><a xlink:href="classAsyncFw_1_1AbstractThread.html#a0cd916251e061aaf3d456575ef052edd" target="_top" xlink:title="Returns name of managed thread.">
<polygon fill="white" stroke="#666666" points="995.25,-113 865.25,-113 865.25,-81 995.25,-81 995.25,-113"/>
<text xml:space="preserve" text-anchor="start" x="873.25" y="-99.5" font-family="Helvetica,sans-Serif" font-size="10.00">AsyncFw::AbstractThread</text>
<text xml:space="preserve" text-anchor="middle" x="930.25" y="-87.5" font-family="Helvetica,sans-Serif" font-size="10.00">::name</text>
</a>
</g>
</g>
<!-- Node8&#45;&gt;Node9 -->
<g id="edge9_Node000008_Node000009" class="edge">
<title>Node8&#45;&gt;Node9</title>
<g id="a_edge9_Node000008_Node000009"><a xlink:title=" ">
<path fill="none" stroke="#63b8ff" d="M829.6,-110.37C837.46,-109.31 845.56,-108.23 853.58,-107.15"/>
<polygon fill="#63b8ff" stroke="#63b8ff" points="853.87,-110.64 863.32,-105.84 852.94,-103.71 853.87,-110.64"/>
</a>
</g>
</g>
<!-- Node10&#45;&gt;Node8 -->
<g id="edge11_Node000010_Node000008" class="edge">
<title>Node10&#45;&gt;Node8</title>
<g id="a_edge11_Node000010_Node000008"><a xlink:title=" ">
<path fill="none" stroke="#63b8ff" d="M637.83,-85.43C653.71,-89.68 672.59,-94.73 690.83,-99.61"/>
<polygon fill="#63b8ff" stroke="#63b8ff" points="689.74,-102.94 700.3,-102.15 691.55,-96.18 689.74,-102.94"/>
</a>
</g>
</g>
<!-- Node10&#45;&gt;Node9 -->
<g id="edge12_Node000010_Node000009" class="edge">
<title>Node10&#45;&gt;Node9</title>
<g id="a_edge12_Node000010_Node000009"><a xlink:title=" ">
<path fill="none" stroke="#63b8ff" d="M662.97,-79.27C717.5,-82.9 795.92,-88.12 853.54,-91.96"/>
<polygon fill="#63b8ff" stroke="#63b8ff" points="853.05,-95.43 863.26,-92.61 853.52,-88.45 853.05,-95.43"/>
</a>
</g>
</g>
<!-- Node12 -->
<g id="Node000012" class="node">
<title>Node12</title>
<g id="a_Node000012"><a xlink:href="classAsyncFw_1_1AbstractThread.html#abe96e6b2a1de041f0d25390a6b77e50a" target="_top" xlink:title="Runs a task in a managed thread.">
<polygon fill="white" stroke="#666666" points="662.88,-47 532.88,-47 532.88,-15 662.88,-15 662.88,-47"/>
<text xml:space="preserve" text-anchor="start" x="540.88" y="-33.5" font-family="Helvetica,sans-Serif" font-size="10.00">AsyncFw::AbstractThread</text>
<text xml:space="preserve" text-anchor="middle" x="597.88" y="-21.5" font-family="Helvetica,sans-Serif" font-size="10.00">::invokeTask</text>
</a>
</g>
</g>
<!-- Node11&#45;&gt;Node12 -->
<g id="edge14_Node000011_Node000012" class="edge">
<title>Node11&#45;&gt;Node12</title>
<g id="a_edge14_Node000011_Node000012"><a xlink:title=" ">
<path fill="none" stroke="#63b8ff" d="M494.88,-57.62C504.03,-55.23 513.52,-52.75 522.87,-50.32"/>
<polygon fill="#63b8ff" stroke="#63b8ff" points="523.49,-53.77 532.28,-47.86 521.72,-47 523.49,-53.77"/>
</a>
</g>
</g>
<!-- Node14 -->
<g id="Node000014" class="node">
<title>Node14</title>
<g id="a_Node000014"><a xlink:href="classAsyncFw_1_1AbstractThread.html#afef57401f138e8de37eb8d817772d9ff" target="_top" xlink:title="Tells the thread&#39;s exec() to exit.">
<polygon fill="white" stroke="#666666" points="496.12,-40 366.12,-40 366.12,-8 496.12,-8 496.12,-40"/>
<text xml:space="preserve" text-anchor="start" x="374.12" y="-26.5" font-family="Helvetica,sans-Serif" font-size="10.00">AsyncFw::AbstractThread</text>
<text xml:space="preserve" text-anchor="middle" x="431.12" y="-14.5" font-family="Helvetica,sans-Serif" font-size="10.00">::quit</text>
</a>
</g>
</g>
<!-- Node13&#45;&gt;Node14 -->
<g id="edge16_Node000013_Node000014" class="edge">
<title>Node13&#45;&gt;Node14</title>
<g id="a_edge16_Node000013_Node000014"><a xlink:title=" ">
<path fill="none" stroke="#63b8ff" d="M324.32,-49.52C334.32,-47.11 344.68,-44.61 354.81,-42.17"/>
<polygon fill="#63b8ff" stroke="#63b8ff" points="355.33,-45.64 364.23,-39.89 353.69,-38.84 355.33,-45.64"/>
</a>
</g>
</g>
</g>
</svg>
