<?xml version="1.0" encoding="UTF-8" standalone="no"?>
<!DOCTYPE svg PUBLIC "-//W3C//DTD SVG 1.1//EN"
 "http://www.w3.org/Graphics/SVG/1.1/DTD/svg11.dtd">
<!-- Generated by graphviz version 12.2.1 (20241206.2353)
 -->
<!-- Title: AsyncFw::Rrd Pages: 1 -->
<svg width="904pt" height="129pt"
 viewBox="0.00 0.00 904.00 129.00" xmlns="http://www.w3.org/2000/svg" xmlns:xlink="http://www.w3.org/1999/xlink">
<g id="graph0" class="graph" transform="scale(1 1) rotate(0) translate(4 125)">
<title>AsyncFw::Rrd</title>
<!-- Node1 -->
<g id="Node000001" class="node">
<title>Node1</title>
<g id="a_Node000001"><a xlink:title="The Rrd class.">
<polygon fill="#999999" stroke="#666666" points="896,-58 817,-58 817,-38 896,-38 896,-58"/>
<text text-anchor="middle" x="856.5" y="-44.5" font-family="Helvetica,sans-Serif" font-size="10.00">AsyncFw::Rrd</text>
</a>
</g>
</g>
<!-- Node2 -->
<g id="Node000002" class="node">
<title>Node2</title>
<g id="a_Node000002"><a xlink:href="classAsyncFw_1_1FunctionConnectorProtected.html" target="_top" xlink:title=" ">
<polygon fill="white" stroke="#666666" points="595.5,-121 449.75,-121 449.75,-89 595.5,-89 595.5,-121"/>
<text text-anchor="start" x="457.75" y="-107.5" font-family="Helvetica,sans-Serif" font-size="10.00">AsyncFw::FunctionConnector</text>
<text text-anchor="middle" x="522.62" y="-95.5" font-family="Helvetica,sans-Serif" font-size="10.00">Protected&lt; AsyncFw::Rrd &gt;</text>
</a>
</g>
</g>
<!-- Node2&#45;&gt;Node1 -->
<g id="edge1_Node000001_Node000002" class="edge">
<title>Node2&#45;&gt;Node1</title>
<g id="a_edge1_Node000001_Node000002"><a xlink:title=" ">
<path fill="none" stroke="#9a32cd" stroke-dasharray="5,2" d="M607.39,-95.36C662.22,-88.36 735.25,-77.71 799,-64 806.28,-62.43 814,-60.46 821.32,-58.44"/>
<polygon fill="#9a32cd" stroke="#9a32cd" points="606.96,-91.89 597.48,-96.61 607.84,-98.83 606.96,-91.89"/>
</a>
</g>
<text text-anchor="middle" x="675.12" y="-96.76" font-family="Helvetica,sans-Serif" font-size="10.00" fill="grey"> updated</text>
</g>
<!-- Node3 -->
<g id="Node000003" class="node">
<title>Node3</title>
<g id="a_Node000003"><a xlink:href="classAsyncFw_1_1FunctionConnectorProtected.html" target="_top" xlink:title="Защищенный коннетор, отправитель может быть только один. &#160;&#160;Обеспечивает соединение отправитель &#45;&gt; пол...">
<polygon fill="white" stroke="#666666" points="145.75,-98 0,-98 0,-66 145.75,-66 145.75,-98"/>
<text text-anchor="start" x="8" y="-84.5" font-family="Helvetica,sans-Serif" font-size="10.00">AsyncFw::FunctionConnector</text>
<text text-anchor="middle" x="72.88" y="-72.5" font-family="Helvetica,sans-Serif" font-size="10.00">Protected&lt; F &gt;</text>
</a>
</g>
</g>
<!-- Node3&#45;&gt;Node2 -->
<g id="edge2_Node000002_Node000003" class="edge">
<title>Node3&#45;&gt;Node2</title>
<g id="a_edge2_Node000002_Node000003"><a xlink:title=" ">
<path fill="none" stroke="orange" stroke-dasharray="5,2" d="M157.11,-86.28C241.16,-90.59 369.65,-97.19 449.49,-101.29"/>
<polygon fill="orange" stroke="orange" points="157.49,-82.79 147.33,-85.77 157.13,-89.78 157.49,-82.79"/>
</a>
</g>
<text text-anchor="middle" x="212.5" y="-94.04" font-family="Helvetica,sans-Serif" font-size="10.00" fill="grey"> &lt; AsyncFw::Rrd &gt;</text>
</g>
<!-- Node6 -->
<g id="Node000006" class="node">
<title>Node6</title>
<g id="a_Node000006"><a xlink:href="classAsyncFw_1_1FunctionConnectorProtected.html" target="_top" xlink:title=" ">
<polygon fill="white" stroke="#666666" points="431.75,-76 279.25,-76 279.25,-44 431.75,-44 431.75,-76"/>
<text text-anchor="start" x="287.25" y="-62.5" font-family="Helvetica,sans-Serif" font-size="10.00">AsyncFw::FunctionConnector</text>
<text text-anchor="middle" x="355.5" y="-50.5" font-family="Helvetica,sans-Serif" font-size="10.00">Protected&lt; AsyncFw::Thread &gt;</text>
</a>
</g>
</g>
<!-- Node3&#45;&gt;Node6 -->
<g id="edge6_Node000006_Node000003" class="edge">
<title>Node3&#45;&gt;Node6</title>
<g id="a_edge6_Node000006_Node000003"><a xlink:title=" ">
<path fill="none" stroke="orange" stroke-dasharray="5,2" d="M157.15,-70.64C159.37,-70.42 161.58,-70.2 163.75,-70 201.72,-66.48 244.07,-64.1 279.2,-62.55"/>
<polygon fill="orange" stroke="orange" points="157,-67.14 147.43,-71.7 157.75,-74.1 157,-67.14"/>
</a>
</g>
<text text-anchor="middle" x="212.5" y="-72.5" font-family="Helvetica,sans-Serif" font-size="10.00" fill="grey"> &lt; AsyncFw::Thread &gt;</text>
</g>
<!-- Node4 -->
<g id="Node000004" class="node">
<title>Node4</title>
<g id="a_Node000004"><a xlink:href="classAsyncFw_1_1Thread.html" target="_top" xlink:title="AsyncFw::Thread thread with sockets.">
<polygon fill="white" stroke="#666666" points="721.75,-58 628.5,-58 628.5,-38 721.75,-38 721.75,-58"/>
<text text-anchor="middle" x="675.12" y="-44.5" font-family="Helvetica,sans-Serif" font-size="10.00">AsyncFw::Thread</text>
</a>
</g>
</g>
<!-- Node4&#45;&gt;Node1 -->
<g id="edge3_Node000001_Node000004" class="edge">
<title>Node4&#45;&gt;Node1</title>
<g id="a_edge3_Node000001_Node000004"><a xlink:title=" ">
<path fill="none" stroke="#9a32cd" stroke-dasharray="5,2" d="M733.18,-48C760.36,-48 792.18,-48 816.54,-48"/>
<polygon fill="#9a32cd" stroke="#9a32cd" points="733.37,-44.5 723.37,-48 733.37,-51.5 733.37,-44.5"/>
</a>
</g>
<text text-anchor="middle" x="776.88" y="-50.5" font-family="Helvetica,sans-Serif" font-size="10.00" fill="grey"> thread_</text>
</g>
<!-- Node5 -->
<g id="Node000005" class="node">
<title>Node5</title>
<g id="a_Node000005"><a xlink:href="classAsyncFw_1_1AbstractThread.html" target="_top" xlink:title="The AbstractThread class provides the base functionality for thread management.">
<polygon fill="white" stroke="#666666" points="420.5,-25 290.5,-25 290.5,-5 420.5,-5 420.5,-25"/>
<text text-anchor="middle" x="355.5" y="-11.5" font-family="Helvetica,sans-Serif" font-size="10.00">AsyncFw::AbstractThread</text>
</a>
</g>
</g>
<!-- Node5&#45;&gt;Node4 -->
<g id="edge4_Node000004_Node000005" class="edge">
<title>Node5&#45;&gt;Node4</title>
<g id="a_edge4_Node000004_Node000005"><a xlink:title=" ">
<path fill="none" stroke="#63b8ff" d="M432.32,-21.06C479.36,-25.05 541.01,-30.68 595.5,-37 606.04,-38.22 617.36,-39.7 628.02,-41.18"/>
<polygon fill="#63b8ff" stroke="#63b8ff" points="432.77,-17.58 422.51,-20.23 432.18,-24.56 432.77,-17.58"/>
</a>
</g>
</g>
<!-- Node6&#45;&gt;Node4 -->
<g id="edge5_Node000004_Node000006" class="edge">
<title>Node6&#45;&gt;Node4</title>
<g id="a_edge5_Node000004_Node000006"><a xlink:title=" ">
<path fill="none" stroke="#9a32cd" stroke-dasharray="5,2" d="M443.51,-44.59C445.61,-44.37 447.69,-44.18 449.75,-44 514.29,-38.5 530.74,-42.35 595.5,-44 606.16,-44.27 617.62,-44.75 628.41,-45.28"/>
<polygon fill="#9a32cd" stroke="#9a32cd" points="443.22,-41.1 433.69,-45.73 444.03,-48.05 443.22,-41.1"/>
</a>
</g>
<text text-anchor="middle" x="522.62" y="-70.5" font-family="Helvetica,sans-Serif" font-size="10.00" fill="grey"> destroing</text>
<text text-anchor="middle" x="522.62" y="-58.5" font-family="Helvetica,sans-Serif" font-size="10.00" fill="grey">finished</text>
<text text-anchor="middle" x="522.62" y="-46.5" font-family="Helvetica,sans-Serif" font-size="10.00" fill="grey">started</text>
</g>
<!-- Node7 -->
<g id="Node000007" class="node">
<title>Node7</title>
<g id="a_Node000007"><a xlink:href="classAsyncFw_1_1DataArrayList.html" target="_top" xlink:title="The DataArrayList class.">
<polygon fill="white" stroke="#666666" points="736.75,-20 613.5,-20 613.5,0 736.75,0 736.75,-20"/>
<text text-anchor="middle" x="675.12" y="-6.5" font-family="Helvetica,sans-Serif" font-size="10.00">AsyncFw::DataArrayList</text>
</a>
</g>
</g>
<!-- Node7&#45;&gt;Node1 -->
<g id="edge7_Node000001_Node000007" class="edge">
<title>Node7&#45;&gt;Node1</title>
<g id="a_edge7_Node000001_Node000007"><a xlink:title=" ">
<path fill="none" stroke="#9a32cd" stroke-dasharray="5,2" d="M747.89,-21.62C764.72,-24.68 782.54,-28.21 799,-32 806.05,-33.63 813.54,-35.58 820.68,-37.56"/>
<polygon fill="#9a32cd" stroke="#9a32cd" points="748.94,-18.25 738.48,-19.94 747.71,-25.14 748.94,-18.25"/>
</a>
</g>
<text text-anchor="middle" x="776.88" y="-34.5" font-family="Helvetica,sans-Serif" font-size="10.00" fill="grey"> dataBase</text>
</g>
</g>
</svg>
