<?xml version="1.0" encoding="UTF-8" standalone="no"?>
<!DOCTYPE svg PUBLIC "-//W3C//DTD SVG 1.1//EN"
 "http://www.w3.org/Graphics/SVG/1.1/DTD/svg11.dtd">
<!-- Generated by graphviz version 12.2.1 (20241206.2353)
 -->
<!-- Title: AsyncFw::FunctionConnectorProtected&lt; F &gt; Pages: 1 -->
<svg width="535pt" height="614pt"
 viewBox="0.00 0.00 535.00 614.28" xmlns="http://www.w3.org/2000/svg" xmlns:xlink="http://www.w3.org/1999/xlink">
<g id="graph0" class="graph" transform="scale(1 1) rotate(0) translate(4 610.28)">
<title>AsyncFw::FunctionConnectorProtected&lt; F &gt;</title>
<!-- Node1 -->
<g id="Node000001" class="node">
<title>Node1</title>
<g id="a_Node000001"><a xlink:title="Защищенный коннетор, отправитель может быть только один.">
<polygon fill="#999999" stroke="#666666" points="145.75,-307.04 0,-307.04 0,-275.04 145.75,-275.04 145.75,-307.04"/>
<text text-anchor="start" x="8" y="-293.54" font-family="Helvetica,sans-Serif" font-size="10.00">AsyncFw::FunctionConnector</text>
<text text-anchor="middle" x="72.88" y="-281.54" font-family="Helvetica,sans-Serif" font-size="10.00">Protected&lt; F &gt;</text>
</a>
</g>
</g>
<!-- Node2 -->
<g id="Node000002" class="node">
<title>Node2</title>
<g id="a_Node000002"><a xlink:href="classAsyncFw_1_1FunctionConnectorProtected.html" target="_top" xlink:title=" ">
<polygon fill="white" stroke="#666666" points="518.38,-594.04 343.38,-594.04 343.38,-562.04 518.38,-562.04 518.38,-594.04"/>
<text text-anchor="start" x="351.38" y="-580.54" font-family="Helvetica,sans-Serif" font-size="10.00">AsyncFw::FunctionConnector</text>
<text text-anchor="middle" x="430.88" y="-568.54" font-family="Helvetica,sans-Serif" font-size="10.00">Protected&lt; AsyncFw::AddressInfo &gt;</text>
</a>
</g>
</g>
<!-- Node1&#45;&gt;Node2 -->
<g id="edge1_Node000001_Node000002" class="edge">
<title>Node1&#45;&gt;Node2</title>
<g id="a_edge1_Node000001_Node000002"><a xlink:title=" ">
<path fill="none" stroke="orange" stroke-dasharray="5,2" d="M74.14,-318.63C76.31,-373.46 89.66,-495.86 163.75,-554.04 213.64,-593.22 286.17,-597.39 342.91,-592.78"/>
<polygon fill="orange" stroke="orange" points="77.65,-318.81 73.86,-308.92 70.65,-319.01 77.65,-318.81"/>
</a>
</g>
<text text-anchor="middle" x="240.25" y="-596.78" font-family="Helvetica,sans-Serif" font-size="10.00" fill="grey"> &lt; AsyncFw::AddressInfo &gt;</text>
</g>
<!-- Node3 -->
<g id="Node000003" class="node">
<title>Node3</title>
<g id="a_Node000003"><a xlink:href="classAsyncFw_1_1FunctionConnectorProtected.html" target="_top" xlink:title=" ">
<polygon fill="white" stroke="#666666" points="516.88,-544.04 344.88,-544.04 344.88,-512.04 516.88,-512.04 516.88,-544.04"/>
<text text-anchor="start" x="352.88" y="-530.54" font-family="Helvetica,sans-Serif" font-size="10.00">AsyncFw::FunctionConnector</text>
<text text-anchor="middle" x="430.88" y="-518.54" font-family="Helvetica,sans-Serif" font-size="10.00">Protected&lt; DataArrayAbstractTcp &gt;</text>
</a>
</g>
</g>
<!-- Node1&#45;&gt;Node3 -->
<g id="edge2_Node000001_Node000003" class="edge">
<title>Node1&#45;&gt;Node3</title>
<g id="a_edge2_Node000001_Node000003"><a xlink:title=" ">
<path fill="none" stroke="orange" stroke-dasharray="5,2" d="M77.36,-318.53C84.63,-363.47 105.87,-451.98 163.75,-495.04 215.11,-533.25 288.07,-539.94 344.61,-537.94"/>
<polygon fill="orange" stroke="orange" points="80.85,-318.2 75.91,-308.83 73.92,-319.23 80.85,-318.2"/>
</a>
</g>
<text text-anchor="middle" x="240.25" y="-540.53" font-family="Helvetica,sans-Serif" font-size="10.00" fill="grey"> &lt; DataArrayAbstractTcp &gt;</text>
</g>
<!-- Node4 -->
<g id="Node000004" class="node">
<title>Node4</title>
<g id="a_Node000004"><a xlink:href="classAsyncFw_1_1FunctionConnectorProtected.html" target="_top" xlink:title=" ">
<polygon fill="white" stroke="#666666" points="506.38,-494.04 355.38,-494.04 355.38,-462.04 506.38,-462.04 506.38,-494.04"/>
<text text-anchor="start" x="363.38" y="-480.54" font-family="Helvetica,sans-Serif" font-size="10.00">AsyncFw::FunctionConnector</text>
<text text-anchor="middle" x="430.88" y="-468.54" font-family="Helvetica,sans-Serif" font-size="10.00">Protected&lt; DataArraySocket &gt;</text>
</a>
</g>
</g>
<!-- Node1&#45;&gt;Node4 -->
<g id="edge3_Node000001_Node000004" class="edge">
<title>Node1&#45;&gt;Node4</title>
<g id="a_edge3_Node000001_Node000004"><a xlink:title=" ">
<path fill="none" stroke="orange" stroke-dasharray="5,2" d="M83.11,-318.04C95.84,-350.86 122.03,-405.29 163.75,-433.04 220.32,-470.68 298.18,-480.11 355.07,-481.22"/>
<polygon fill="orange" stroke="orange" points="86.46,-316.99 79.7,-308.83 79.89,-319.42 86.46,-316.99"/>
</a>
</g>
<text text-anchor="middle" x="240.25" y="-481.52" font-family="Helvetica,sans-Serif" font-size="10.00" fill="grey"> &lt; DataArraySocket &gt;</text>
</g>
<!-- Node5 -->
<g id="Node000005" class="node">
<title>Node5</title>
<g id="a_Node000005"><a xlink:href="classAsyncFw_1_1FunctionConnectorProtected.html" target="_top" xlink:title=" ">
<polygon fill="white" stroke="#666666" points="511.25,-444.04 350.5,-444.04 350.5,-412.04 511.25,-412.04 511.25,-444.04"/>
<text text-anchor="start" x="358.5" y="-430.54" font-family="Helvetica,sans-Serif" font-size="10.00">AsyncFw::FunctionConnector</text>
<text text-anchor="middle" x="430.88" y="-418.54" font-family="Helvetica,sans-Serif" font-size="10.00">Protected&lt; DataArrayTcpClient &gt;</text>
</a>
</g>
</g>
<!-- Node1&#45;&gt;Node5 -->
<g id="edge4_Node000001_Node000005" class="edge">
<title>Node1&#45;&gt;Node5</title>
<g id="a_edge4_Node000001_Node000005"><a xlink:title=" ">
<path fill="none" stroke="orange" stroke-dasharray="5,2" d="M94.82,-315.97C111.59,-334.29 136.72,-358.3 163.75,-372.04 222.14,-401.74 295.41,-415.69 350.28,-422.25"/>
<polygon fill="orange" stroke="orange" points="97.55,-313.78 88.29,-308.64 92.32,-318.43 97.55,-313.78"/>
</a>
</g>
<text text-anchor="middle" x="240.25" y="-419.1" font-family="Helvetica,sans-Serif" font-size="10.00" fill="grey"> &lt; DataArrayTcpClient &gt;</text>
</g>
<!-- Node6 -->
<g id="Node000006" class="node">
<title>Node6</title>
<g id="a_Node000006"><a xlink:href="classAsyncFw_1_1FunctionConnectorProtected.html" target="_top" xlink:title=" ">
<polygon fill="white" stroke="#666666" points="512.38,-394.04 349.38,-394.04 349.38,-350.04 512.38,-350.04 512.38,-394.04"/>
<text text-anchor="start" x="357.38" y="-380.54" font-family="Helvetica,sans-Serif" font-size="10.00">AsyncFw::FunctionConnector</text>
<text text-anchor="start" x="357.38" y="-368.54" font-family="Helvetica,sans-Serif" font-size="10.00">Protected&lt; AsyncFw::FileSystem</text>
<text text-anchor="middle" x="430.88" y="-356.54" font-family="Helvetica,sans-Serif" font-size="10.00">Watcher &gt;</text>
</a>
</g>
</g>
<!-- Node1&#45;&gt;Node6 -->
<g id="edge5_Node000001_Node000006" class="edge">
<title>Node1&#45;&gt;Node6</title>
<g id="a_edge5_Node000001_Node000006"><a xlink:title=" ">
<path fill="none" stroke="orange" stroke-dasharray="5,2" d="M124.87,-311.5C137.44,-316.07 150.97,-320.57 163.75,-324.04 225.03,-340.68 295.84,-353.14 349,-361.19"/>
<polygon fill="orange" stroke="orange" points="126.12,-308.24 115.52,-308.03 123.68,-314.8 126.12,-308.24"/>
</a>
</g>
<text text-anchor="middle" x="240.25" y="-358.18" font-family="Helvetica,sans-Serif" font-size="10.00" fill="grey"> &lt; AsyncFw::FileSystemWatcher &gt;</text>
</g>
<!-- Node7 -->
<g id="Node000007" class="node">
<title>Node7</title>
<g id="a_Node000007"><a xlink:href="classAsyncFw_1_1FunctionConnectorProtected.html" target="_top" xlink:title=" ">
<polygon fill="white" stroke="#666666" points="516.88,-332.04 344.88,-332.04 344.88,-300.04 516.88,-300.04 516.88,-332.04"/>
<text text-anchor="start" x="352.88" y="-318.54" font-family="Helvetica,sans-Serif" font-size="10.00">AsyncFw::FunctionConnector</text>
<text text-anchor="middle" x="430.88" y="-306.54" font-family="Helvetica,sans-Serif" font-size="10.00">Protected&lt; AsyncFw::HttpSocket &gt;</text>
</a>
</g>
</g>
<!-- Node1&#45;&gt;Node7 -->
<g id="edge6_Node000001_Node000007" class="edge">
<title>Node1&#45;&gt;Node7</title>
<g id="a_edge6_Node000001_Node000007"><a xlink:title=" ">
<path fill="none" stroke="orange" stroke-dasharray="5,2" d="M157.29,-296.9C213.61,-300.86 287.73,-306.06 344.46,-310.04"/>
<polygon fill="orange" stroke="orange" points="157.65,-293.42 147.43,-296.21 157.16,-300.4 157.65,-293.42"/>
</a>
</g>
<text text-anchor="middle" x="240.25" y="-310.46" font-family="Helvetica,sans-Serif" font-size="10.00" fill="grey"> &lt; AsyncFw::HttpSocket &gt;</text>
</g>
<!-- Node8 -->
<g id="Node000008" class="node">
<title>Node8</title>
<g id="a_Node000008"><a xlink:href="classAsyncFw_1_1FunctionConnectorProtected.html" target="_top" xlink:title=" ">
<polygon fill="white" stroke="#666666" points="520.62,-282.04 341.12,-282.04 341.12,-250.04 520.62,-250.04 520.62,-282.04"/>
<text text-anchor="start" x="349.12" y="-268.54" font-family="Helvetica,sans-Serif" font-size="10.00">AsyncFw::FunctionConnector</text>
<text text-anchor="middle" x="430.88" y="-256.54" font-family="Helvetica,sans-Serif" font-size="10.00">Protected&lt; AsyncFw::ListenSocket &gt;</text>
</a>
</g>
</g>
<!-- Node1&#45;&gt;Node8 -->
<g id="edge7_Node000001_Node000008" class="edge">
<title>Node1&#45;&gt;Node8</title>
<g id="a_edge7_Node000001_Node000008"><a xlink:title=" ">
<path fill="none" stroke="orange" stroke-dasharray="5,2" d="M157.17,-282.58C159.38,-282.4 161.58,-282.22 163.75,-282.04 222.69,-277.32 289.08,-273.33 340.8,-270.51"/>
<polygon fill="orange" stroke="orange" points="157.13,-279.07 147.47,-283.44 157.74,-286.05 157.13,-279.07"/>
</a>
</g>
<text text-anchor="middle" x="240.25" y="-284.54" font-family="Helvetica,sans-Serif" font-size="10.00" fill="grey"> &lt; AsyncFw::ListenSocket &gt;</text>
</g>
<!-- Node9 -->
<g id="Node000009" class="node">
<title>Node9</title>
<g id="a_Node000009"><a xlink:href="classAsyncFw_1_1FunctionConnectorProtected.html" target="_top" xlink:title=" ">
<polygon fill="white" stroke="#666666" points="516.12,-232.04 345.62,-232.04 345.62,-200.04 516.12,-200.04 516.12,-232.04"/>
<text text-anchor="start" x="353.62" y="-218.54" font-family="Helvetica,sans-Serif" font-size="10.00">AsyncFw::FunctionConnector</text>
<text text-anchor="middle" x="430.88" y="-206.54" font-family="Helvetica,sans-Serif" font-size="10.00">Protected&lt; AsyncFw::PollNotifier &gt;</text>
</a>
</g>
</g>
<!-- Node1&#45;&gt;Node9 -->
<g id="edge8_Node000001_Node000009" class="edge">
<title>Node1&#45;&gt;Node9</title>
<g id="a_edge8_Node000001_Node000009"><a xlink:title=" ">
<path fill="none" stroke="orange" stroke-dasharray="5,2" d="M120.99,-270.43C134.58,-265.11 149.58,-259.82 163.75,-256.04 223.46,-240.14 292.5,-229.99 345.29,-223.9"/>
<polygon fill="orange" stroke="orange" points="119.8,-267.13 111.83,-274.12 122.41,-273.63 119.8,-267.13"/>
</a>
</g>
<text text-anchor="middle" x="240.25" y="-258.54" font-family="Helvetica,sans-Serif" font-size="10.00" fill="grey"> &lt; AsyncFw::PollNotifier &gt;</text>
</g>
<!-- Node10 -->
<g id="Node000010" class="node">
<title>Node10</title>
<g id="a_Node000010"><a xlink:href="classAsyncFw_1_1FunctionConnectorProtected.html" target="_top" xlink:title=" ">
<polygon fill="white" stroke="#666666" points="503.75,-182.04 358,-182.04 358,-150.04 503.75,-150.04 503.75,-182.04"/>
<text text-anchor="start" x="366" y="-168.54" font-family="Helvetica,sans-Serif" font-size="10.00">AsyncFw::FunctionConnector</text>
<text text-anchor="middle" x="430.88" y="-156.54" font-family="Helvetica,sans-Serif" font-size="10.00">Protected&lt; AsyncFw::Rrd &gt;</text>
</a>
</g>
</g>
<!-- Node1&#45;&gt;Node10 -->
<g id="edge9_Node000001_Node000010" class="edge">
<title>Node1&#45;&gt;Node10</title>
<g id="a_edge9_Node000001_Node000010"><a xlink:title=" ">
<path fill="none" stroke="orange" stroke-dasharray="5,2" d="M94.8,-266.46C111.57,-248.45 136.69,-224.98 163.75,-212.04 225.08,-182.71 302.31,-171.85 357.76,-167.94"/>
<polygon fill="orange" stroke="orange" points="92.4,-263.91 88.29,-273.67 97.59,-268.6 92.4,-263.91"/>
</a>
</g>
<text text-anchor="middle" x="240.25" y="-214.54" font-family="Helvetica,sans-Serif" font-size="10.00" fill="grey"> &lt; AsyncFw::Rrd &gt;</text>
</g>
<!-- Node11 -->
<g id="Node000011" class="node">
<title>Node11</title>
<g id="a_Node000011"><a xlink:href="classAsyncFw_1_1FunctionConnectorProtected.html" target="_top" xlink:title=" ">
<polygon fill="white" stroke="#666666" points="527,-132.04 334.75,-132.04 334.75,-100.04 527,-100.04 527,-132.04"/>
<text text-anchor="start" x="342.75" y="-118.54" font-family="Helvetica,sans-Serif" font-size="10.00">AsyncFw::FunctionConnector</text>
<text text-anchor="middle" x="430.88" y="-106.54" font-family="Helvetica,sans-Serif" font-size="10.00">Protected&lt; AsyncFw::SystemProcess &gt;</text>
</a>
</g>
</g>
<!-- Node1&#45;&gt;Node11 -->
<g id="edge10_Node000001_Node000011" class="edge">
<title>Node1&#45;&gt;Node11</title>
<g id="a_edge10_Node000001_Node000011"><a xlink:title=" ">
<path fill="none" stroke="orange" stroke-dasharray="5,2" d="M84.07,-264.06C97.36,-232.84 123.75,-182.48 163.75,-157.04 214.14,-125 280.51,-114.72 334.37,-112.47"/>
<polygon fill="orange" stroke="orange" points="80.87,-262.63 80.33,-273.21 87.35,-265.27 80.87,-262.63"/>
</a>
</g>
<text text-anchor="middle" x="240.25" y="-159.54" font-family="Helvetica,sans-Serif" font-size="10.00" fill="grey"> &lt; AsyncFw::SystemProcess &gt;</text>
</g>
<!-- Node12 -->
<g id="Node000012" class="node">
<title>Node12</title>
<g id="a_Node000012"><a xlink:href="classAsyncFw_1_1FunctionConnectorProtected.html" target="_top" xlink:title=" ">
<polygon fill="white" stroke="#666666" points="507.12,-82.04 354.62,-82.04 354.62,-50.04 507.12,-50.04 507.12,-82.04"/>
<text text-anchor="start" x="362.62" y="-68.54" font-family="Helvetica,sans-Serif" font-size="10.00">AsyncFw::FunctionConnector</text>
<text text-anchor="middle" x="430.88" y="-56.54" font-family="Helvetica,sans-Serif" font-size="10.00">Protected&lt; AsyncFw::Thread &gt;</text>
</a>
</g>
</g>
<!-- Node1&#45;&gt;Node12 -->
<g id="edge11_Node000001_Node000012" class="edge">
<title>Node1&#45;&gt;Node12</title>
<g id="a_edge11_Node000001_Node000012"><a xlink:title=" ">
<path fill="none" stroke="orange" stroke-dasharray="5,2" d="M78.1,-263.48C86.29,-220.42 108.62,-138.02 163.75,-98.04 218.47,-58.37 296.77,-53.41 354.27,-56.55"/>
<polygon fill="orange" stroke="orange" points="74.67,-262.81 76.38,-273.26 81.56,-264.02 74.67,-262.81"/>
</a>
</g>
<text text-anchor="middle" x="240.25" y="-100.54" font-family="Helvetica,sans-Serif" font-size="10.00" fill="grey"> &lt; AsyncFw::Thread &gt;</text>
</g>
<!-- Node13 -->
<g id="Node000013" class="node">
<title>Node13</title>
<g id="a_Node000013"><a xlink:href="classAsyncFw_1_1FunctionConnectorProtected.html" target="_top" xlink:title=" ">
<polygon fill="white" stroke="#666666" points="504.5,-32.04 357.25,-32.04 357.25,-0.04 504.5,-0.04 504.5,-32.04"/>
<text text-anchor="start" x="365.25" y="-18.54" font-family="Helvetica,sans-Serif" font-size="10.00">AsyncFw::FunctionConnector</text>
<text text-anchor="middle" x="430.88" y="-6.54" font-family="Helvetica,sans-Serif" font-size="10.00">Protected&lt; AsyncFw::Timer &gt;</text>
</a>
</g>
</g>
<!-- Node1&#45;&gt;Node13 -->
<g id="edge12_Node000001_Node000013" class="edge">
<title>Node1&#45;&gt;Node13</title>
<g id="a_edge12_Node000001_Node000013"><a xlink:title=" ">
<path fill="none" stroke="orange" stroke-dasharray="5,2" d="M74.66,-263.25C77.81,-210.19 92.92,-94.84 163.75,-40.04 218.15,2.04 298.79,3.43 357.03,-2.85"/>
<polygon fill="orange" stroke="orange" points="71.17,-263.09 74.19,-273.24 78.16,-263.42 71.17,-263.09"/>
</a>
</g>
<text text-anchor="middle" x="240.25" y="-42.54" font-family="Helvetica,sans-Serif" font-size="10.00" fill="grey"> &lt; AsyncFw::Timer &gt;</text>
</g>
</g>
</svg>
