<?xml version="1.0" encoding="UTF-8" standalone="no"?>
<!DOCTYPE svg PUBLIC "-//W3C//DTD SVG 1.1//EN"
 "http://www.w3.org/Graphics/SVG/1.1/DTD/svg11.dtd">
<!-- Generated by graphviz version 12.2.1 (20241206.2353)
 -->
<!-- Title: AsyncFw::FileSystemWatcher Pages: 1 -->
<svg width="243pt" height="200pt"
 viewBox="0.00 0.00 242.50 200.00" xmlns="http://www.w3.org/2000/svg" xmlns:xlink="http://www.w3.org/1999/xlink">
<g id="graph0" class="graph" transform="scale(1 1) rotate(0) translate(4 196)">
<title>AsyncFw::FileSystemWatcher</title>
<!-- Node1 -->
<g id="Node000001" class="node">
<title>Node1</title>
<g id="a_Node000001"><a xlink:title="The FileSystemWatcher class.">
<polygon fill="#999999" stroke="#666666" points="155.88,-20 7.12,-20 7.12,0 155.88,0 155.88,-20"/>
<text text-anchor="middle" x="81.5" y="-6.5" font-family="Helvetica,sans-Serif" font-size="10.00">AsyncFw::FileSystemWatcher</text>
</a>
</g>
</g>
<!-- Node2 -->
<g id="Node000002" class="node">
<title>Node2</title>
<g id="a_Node000002"><a xlink:href="classAsyncFw_1_1FunctionConnectorProtected.html" target="_top" xlink:title=" ">
<polygon fill="white" stroke="#666666" points="163,-112 0,-112 0,-68 163,-68 163,-112"/>
<text text-anchor="start" x="8" y="-98.5" font-family="Helvetica,sans-Serif" font-size="10.00">AsyncFw::FunctionConnector</text>
<text text-anchor="start" x="8" y="-86.5" font-family="Helvetica,sans-Serif" font-size="10.00">Protected&lt; AsyncFw::FileSystem</text>
<text text-anchor="middle" x="81.5" y="-74.5" font-family="Helvetica,sans-Serif" font-size="10.00">Watcher &gt;</text>
</a>
</g>
</g>
<!-- Node2&#45;&gt;Node1 -->
<g id="edge1_Node000001_Node000002" class="edge">
<title>Node2&#45;&gt;Node1</title>
<g id="a_edge1_Node000001_Node000002"><a xlink:title=" ">
<path fill="none" stroke="#9a32cd" stroke-dasharray="5,2" d="M81.5,-56.57C81.5,-43.43 81.5,-29.28 81.5,-20.29"/>
<polygon fill="#9a32cd" stroke="#9a32cd" points="78,-56.17 81.5,-66.17 85,-56.17 78,-56.17"/>
</a>
</g>
<text text-anchor="middle" x="95" y="-40.5" font-family="Helvetica,sans-Serif" font-size="10.00" fill="grey"> notify</text>
</g>
<!-- Node3 -->
<g id="Node000003" class="node">
<title>Node3</title>
<g id="a_Node000003"><a xlink:href="classAsyncFw_1_1FunctionConnectorProtected.html" target="_top" xlink:title="Защищенный коннетор, отправитель может быть только один. &#160;&#160;Обеспечивает соединение отправитель &#45;&gt; пол...">
<polygon fill="white" stroke="#666666" points="154.38,-192 8.62,-192 8.62,-160 154.38,-160 154.38,-192"/>
<text text-anchor="start" x="16.62" y="-178.5" font-family="Helvetica,sans-Serif" font-size="10.00">AsyncFw::FunctionConnector</text>
<text text-anchor="middle" x="81.5" y="-166.5" font-family="Helvetica,sans-Serif" font-size="10.00">Protected&lt; F &gt;</text>
</a>
</g>
</g>
<!-- Node3&#45;&gt;Node2 -->
<g id="edge2_Node000002_Node000003" class="edge">
<title>Node3&#45;&gt;Node2</title>
<g id="a_edge2_Node000002_Node000003"><a xlink:title=" ">
<path fill="none" stroke="orange" stroke-dasharray="5,2" d="M81.5,-148.32C81.5,-136.7 81.5,-123.26 81.5,-112.32"/>
<polygon fill="orange" stroke="orange" points="78,-148.08 81.5,-158.08 85,-148.08 78,-148.08"/>
</a>
</g>
<text text-anchor="middle" x="158" y="-132.5" font-family="Helvetica,sans-Serif" font-size="10.00" fill="grey"> &lt; AsyncFw::FileSystemWatcher &gt;</text>
</g>
</g>
</svg>
