<?xml version="1.0" encoding="UTF-8" standalone="no"?>
<!DOCTYPE svg PUBLIC "-//W3C//DTD SVG 1.1//EN"
 "http://www.w3.org/Graphics/SVG/1.1/DTD/svg11.dtd">
<!-- Generated by graphviz version 14.1.3 (20260303.0454)
 -->
<!-- Title: AsyncFw::DataArrayAbstractTcp::Thread Pages: 1 -->
<svg width="158pt" height="288pt"
 viewBox="0.00 0.00 158.00 288.00" xmlns="http://www.w3.org/2000/svg" xmlns:xlink="http://www.w3.org/1999/xlink">
<g id="graph0" class="graph" transform="scale(1 1) rotate(0) translate(4 284)">
<title>AsyncFw::DataArrayAbstractTcp::Thread</title>
<!-- Node1 -->
<g id="Node000001" class="node">
<title>Node1</title>
<g id="a_Node000001"><a xlink:title=" ">
<polygon fill="#999999" stroke="#666666" points="146.88,-100 2.62,-100 2.62,-68 146.88,-68 146.88,-100"/>
<text xml:space="preserve" text-anchor="start" x="10.62" y="-86.5" font-family="Helvetica,sans-Serif" font-size="10.00">AsyncFw::DataArrayAbstract</text>
<text xml:space="preserve" text-anchor="middle" x="74.75" y="-74.5" font-family="Helvetica,sans-Serif" font-size="10.00">Tcp::Thread</text>
</a>
</g>
</g>
<!-- Node5 -->
<g id="Node000005" class="node">
<title>Node5</title>
<g id="a_Node000005"><a xlink:href="classAsyncFw_1_1DataArrayTcpClient_1_1Thread.html" target="_top" xlink:title=" ">
<polygon fill="white" stroke="#666666" points="148.75,-32 0.75,-32 0.75,0 148.75,0 148.75,-32"/>
<text xml:space="preserve" text-anchor="start" x="8.75" y="-18.5" font-family="Helvetica,sans-Serif" font-size="10.00">AsyncFw::DataArrayTcpClient</text>
<text xml:space="preserve" text-anchor="middle" x="74.75" y="-6.5" font-family="Helvetica,sans-Serif" font-size="10.00">::Thread</text>
</a>
</g>
</g>
<!-- Node1&#45;&gt;Node5 -->
<g id="edge4_Node000001_Node000005" class="edge">
<title>Node1&#45;&gt;Node5</title>
<g id="a_edge4_Node000001_Node000005"><a xlink:title=" ">
<path fill="none" stroke="#63b8ff" d="M74.75,-56.31C74.75,-48.12 74.75,-39.38 74.75,-32.22"/>
<polygon fill="#63b8ff" stroke="#63b8ff" points="71.25,-56.18 74.75,-66.18 78.25,-56.18 71.25,-56.18"/>
</a>
</g>
</g>
<!-- Node2 -->
<g id="Node000002" class="node">
<title>Node2</title>
<g id="a_Node000002"><a xlink:href="classAsyncFw_1_1AbstractThreadPool_1_1Thread.html" target="_top" xlink:title=" ">
<polygon fill="white" stroke="#666666" points="149.5,-168 0,-168 0,-136 149.5,-136 149.5,-168"/>
<text xml:space="preserve" text-anchor="start" x="8" y="-154.5" font-family="Helvetica,sans-Serif" font-size="10.00">AsyncFw::AbstractThreadPool</text>
<text xml:space="preserve" text-anchor="middle" x="74.75" y="-142.5" font-family="Helvetica,sans-Serif" font-size="10.00">::Thread</text>
</a>
</g>
</g>
<!-- Node2&#45;&gt;Node1 -->
<g id="edge1_Node000001_Node000002" class="edge">
<title>Node2&#45;&gt;Node1</title>
<g id="a_edge1_Node000001_Node000002"><a xlink:title=" ">
<path fill="none" stroke="#63b8ff" d="M74.75,-124.31C74.75,-116.12 74.75,-107.38 74.75,-100.22"/>
<polygon fill="#63b8ff" stroke="#63b8ff" points="71.25,-124.18 74.75,-134.18 78.25,-124.18 71.25,-124.18"/>
</a>
</g>
</g>
<!-- Node3 -->
<g id="Node000003" class="node">
<title>Node3</title>
<g id="a_Node000003"><a xlink:href="classAsyncFw_1_1Thread.html" target="_top" xlink:title="AsyncFw::Thread thread with sockets.">
<polygon fill="white" stroke="#666666" points="121.38,-224 28.12,-224 28.12,-204 121.38,-204 121.38,-224"/>
<text xml:space="preserve" text-anchor="middle" x="74.75" y="-210.5" font-family="Helvetica,sans-Serif" font-size="10.00">AsyncFw::Thread</text>
</a>
</g>
</g>
<!-- Node3&#45;&gt;Node2 -->
<g id="edge2_Node000002_Node000003" class="edge">
<title>Node3&#45;&gt;Node2</title>
<g id="a_edge2_Node000002_Node000003"><a xlink:title=" ">
<path fill="none" stroke="#63b8ff" d="M74.75,-192.31C74.75,-184.37 74.75,-175.46 74.75,-168.14"/>
<polygon fill="#63b8ff" stroke="#63b8ff" points="71.25,-192.11 74.75,-202.11 78.25,-192.11 71.25,-192.11"/>
</a>
</g>
</g>
<!-- Node4 -->
<g id="Node000004" class="node">
<title>Node4</title>
<g id="a_Node000004"><a xlink:href="classAsyncFw_1_1AbstractThread.html" target="_top" xlink:title="The AbstractThread class provides the base functionality for thread management.">
<polygon fill="white" stroke="#666666" points="139.75,-280 9.75,-280 9.75,-260 139.75,-260 139.75,-280"/>
<text xml:space="preserve" text-anchor="middle" x="74.75" y="-266.5" font-family="Helvetica,sans-Serif" font-size="10.00">AsyncFw::AbstractThread</text>
</a>
</g>
</g>
<!-- Node4&#45;&gt;Node3 -->
<g id="edge3_Node000003_Node000004" class="edge">
<title>Node4&#45;&gt;Node3</title>
<g id="a_edge3_Node000003_Node000004"><a xlink:title=" ">
<path fill="none" stroke="#63b8ff" d="M74.75,-248.13C74.75,-239.9 74.75,-230.85 74.75,-224.3"/>
<polygon fill="#63b8ff" stroke="#63b8ff" points="71.25,-248.08 74.75,-258.08 78.25,-248.08 71.25,-248.08"/>
</a>
</g>
</g>
</g>
</svg>
