<?xml version="1.0" encoding="UTF-8" standalone="no"?>
<!DOCTYPE svg PUBLIC "-//W3C//DTD SVG 1.1//EN"
 "http://www.w3.org/Graphics/SVG/1.1/DTD/svg11.dtd">
<!-- Generated by graphviz version 14.1.3 (20260303.0454)
 -->
<!-- Title: AsyncFw::HttpSocket::activateEvent Pages: 1 -->
<svg width="815pt" height="211pt"
 viewBox="0.00 0.00 815.00 211.00" xmlns="http://www.w3.org/2000/svg" xmlns:xlink="http://www.w3.org/1999/xlink">
<g id="graph0" class="graph" transform="scale(1 1) rotate(0) translate(4 207.08)">
<title>AsyncFw::HttpSocket::activateEvent</title>
<!-- Node1 -->
<g id="Node000001" class="node">
<title>Node1</title>
<g id="a_Node000001"><a xlink:title="Core internal event handler reacting to raw descriptor readiness signals.">
<polygon fill="#999999" stroke="#666666" points="112.75,-82 0,-82 0,-50 112.75,-50 112.75,-82"/>
<text xml:space="preserve" text-anchor="start" x="8" y="-68.5" font-family="Helvetica,sans-Serif" font-size="10.00">AsyncFw::HttpSocket</text>
<text xml:space="preserve" text-anchor="middle" x="56.38" y="-56.5" font-family="Helvetica,sans-Serif" font-size="10.00">::activateEvent</text>
</a>
</g>
</g>
<!-- Node2 -->
<g id="Node000002" class="node">
<title>Node2</title>
<g id="a_Node000002"><a xlink:href="classAsyncFw_1_1AbstractTlsSocket.html#a57ac6daff9926cf631abcd1e19073cc8" target="_top" xlink:title="Core internal event handler reacting to raw descriptor readiness signals.">
<polygon fill="white" stroke="#666666" points="293,-119 148.75,-119 148.75,-87 293,-87 293,-119"/>
<text xml:space="preserve" text-anchor="start" x="156.75" y="-105.5" font-family="Helvetica,sans-Serif" font-size="10.00">AsyncFw::AbstractTlsSocket</text>
<text xml:space="preserve" text-anchor="middle" x="220.88" y="-93.5" font-family="Helvetica,sans-Serif" font-size="10.00">::activateEvent</text>
</a>
</g>
</g>
<!-- Node1&#45;&gt;Node2 -->
<g id="edge1_Node000001_Node000002" class="edge">
<title>Node1&#45;&gt;Node2</title>
<g id="a_edge1_Node000001_Node000002"><a xlink:title=" ">
<path fill="none" stroke="#63b8ff" d="M112.84,-78.63C120.68,-80.41 128.88,-82.28 137.09,-84.15"/>
<polygon fill="#63b8ff" stroke="#63b8ff" points="136.28,-87.55 146.8,-86.36 137.83,-80.73 136.28,-87.55"/>
</a>
</g>
</g>
<!-- Node10 -->
<g id="Node000010" class="node">
<title>Node10</title>
<g id="a_Node000010"><a xlink:href="classAsyncFw_1_1HttpSocket.html#a96932e5f6b5f84c4f204b0e6e4ef8472" target="_top" xlink:title="Immediately releases OpenSSL session pointers and forcefully closes the system&#45;level descriptor.">
<polygon fill="white" stroke="#666666" points="277.25,-57 164.5,-57 164.5,-25 277.25,-25 277.25,-57"/>
<text xml:space="preserve" text-anchor="start" x="172.5" y="-43.5" font-family="Helvetica,sans-Serif" font-size="10.00">AsyncFw::HttpSocket</text>
<text xml:space="preserve" text-anchor="middle" x="220.88" y="-31.5" font-family="Helvetica,sans-Serif" font-size="10.00">::close</text>
</a>
</g>
</g>
<!-- Node1&#45;&gt;Node10 -->
<g id="edge11_Node000001_Node000010" class="edge">
<title>Node1&#45;&gt;Node10</title>
<g id="a_edge11_Node000001_Node000010"><a xlink:title=" ">
<path fill="none" stroke="#63b8ff" d="M112.84,-57.47C125.77,-55.48 139.67,-53.34 153.04,-51.28"/>
<polygon fill="#63b8ff" stroke="#63b8ff" points="153.26,-54.79 162.61,-49.81 152.19,-47.87 153.26,-54.79"/>
</a>
</g>
</g>
<!-- Node3 -->
<g id="Node000003" class="node">
<title>Node3</title>
<g id="a_Node000003"><a xlink:href="classAsyncFw_1_1AbstractSocket.html#aac7ad6c4f9815d9b8b0817d38864d06d" target="_top" xlink:title="Called when established connection.">
<polygon fill="white" stroke="#666666" points="640,-182 509.25,-182 509.25,-150 640,-150 640,-182"/>
<text xml:space="preserve" text-anchor="start" x="517.25" y="-168.5" font-family="Helvetica,sans-Serif" font-size="10.00">AsyncFw::AbstractSocket</text>
<text xml:space="preserve" text-anchor="middle" x="574.62" y="-156.5" font-family="Helvetica,sans-Serif" font-size="10.00">::activateEvent</text>
</a>
</g>
</g>
<!-- Node2&#45;&gt;Node3 -->
<g id="edge2_Node000002_Node000003" class="edge">
<title>Node2&#45;&gt;Node3</title>
<g id="a_edge2_Node000002_Node000003"><a xlink:title=" ">
<path fill="none" stroke="#63b8ff" d="M235.04,-119.23C253.44,-140.48 289.12,-176.72 329,-191 390.6,-213.06 466.11,-199.74 516.81,-185.51"/>
<polygon fill="#63b8ff" stroke="#63b8ff" points="517.48,-188.96 526.1,-182.8 515.52,-182.24 517.48,-188.96"/>
</a>
</g>
</g>
<!-- Node5 -->
<g id="Node000005" class="node">
<title>Node5</title>
<g id="a_Node000005"><a xlink:href="classAsyncFw_1_1AbstractTlsSocket.html#ad26bb910e65bb758bfed6448e1af7186" target="_top" xlink:title="Intermediate signal hub executed immediately when a secure cryptographic tunnel is fully established.">
<polygon fill="white" stroke="#666666" points="473.25,-182 329,-182 329,-150 473.25,-150 473.25,-182"/>
<text xml:space="preserve" text-anchor="start" x="337" y="-168.5" font-family="Helvetica,sans-Serif" font-size="10.00">AsyncFw::AbstractTlsSocket</text>
<text xml:space="preserve" text-anchor="middle" x="401.12" y="-156.5" font-family="Helvetica,sans-Serif" font-size="10.00">::activateReady</text>
</a>
</g>
</g>
<!-- Node2&#45;&gt;Node5 -->
<g id="edge4_Node000002_Node000005" class="edge">
<title>Node2&#45;&gt;Node5</title>
<g id="a_edge4_Node000002_Node000005"><a xlink:title=" ">
<path fill="none" stroke="#63b8ff" d="M268.27,-119.49C287.11,-126.18 309.09,-133.97 329,-141 333.44,-142.57 338.04,-144.19 342.67,-145.82"/>
<polygon fill="#63b8ff" stroke="#63b8ff" points="341.42,-149.09 352.01,-149.11 343.74,-142.49 341.42,-149.09"/>
</a>
</g>
</g>
<!-- Node6 -->
<g id="Node000006" class="node">
<title>Node6</title>
<g id="a_Node000006"><a xlink:href="classAsyncFw_1_1AbstractTlsSocket.html#a46dbd8e4895445214a4f46ee46433d6c" target="_top" xlink:title="Immediately releases OpenSSL session pointers and forcefully closes the system&#45;level descriptor.">
<polygon fill="white" stroke="#666666" points="473.25,-32 329,-32 329,0 473.25,0 473.25,-32"/>
<text xml:space="preserve" text-anchor="start" x="337" y="-18.5" font-family="Helvetica,sans-Serif" font-size="10.00">AsyncFw::AbstractTlsSocket</text>
<text xml:space="preserve" text-anchor="middle" x="401.12" y="-6.5" font-family="Helvetica,sans-Serif" font-size="10.00">::close</text>
</a>
</g>
</g>
<!-- Node2&#45;&gt;Node6 -->
<g id="edge6_Node000002_Node000006" class="edge">
<title>Node2&#45;&gt;Node6</title>
<g id="a_edge6_Node000002_Node000006"><a xlink:title=" ">
<path fill="none" stroke="#63b8ff" d="M255.65,-86.54C267.63,-80.42 281.09,-73.2 293,-66 309.67,-55.93 311.65,-49.87 329,-41 331.84,-39.55 334.79,-38.15 337.79,-36.8"/>
<polygon fill="#63b8ff" stroke="#63b8ff" points="338.91,-40.12 346.76,-33.01 336.19,-33.67 338.91,-40.12"/>
</a>
</g>
</g>
<!-- Node8 -->
<g id="Node000008" class="node">
<title>Node8</title>
<g id="a_Node000008"><a xlink:href="classAsyncFw_1_1AbstractSocket.html#adf2d96f44c3abf205e637f3809bc614d" target="_top" xlink:title="Configures or overrides the internal error code.">
<polygon fill="white" stroke="#666666" points="466.5,-132 335.75,-132 335.75,-100 466.5,-100 466.5,-132"/>
<text xml:space="preserve" text-anchor="start" x="343.75" y="-118.5" font-family="Helvetica,sans-Serif" font-size="10.00">AsyncFw::AbstractSocket</text>
<text xml:space="preserve" text-anchor="middle" x="401.12" y="-106.5" font-family="Helvetica,sans-Serif" font-size="10.00">::setError</text>
</a>
</g>
</g>
<!-- Node2&#45;&gt;Node8 -->
<g id="edge9_Node000002_Node000008" class="edge">
<title>Node2&#45;&gt;Node8</title>
<g id="a_edge9_Node000002_Node000008"><a xlink:title=" ">
<path fill="none" stroke="#63b8ff" d="M293.35,-108.21C303.41,-108.95 313.79,-109.7 323.94,-110.44"/>
<polygon fill="#63b8ff" stroke="#63b8ff" points="323.53,-113.92 333.76,-111.16 324.04,-106.94 323.53,-113.92"/>
</a>
</g>
</g>
<!-- Node9 -->
<g id="Node000009" class="node">
<title>Node9</title>
<g id="a_Node000009"><a xlink:href="classAsyncFw_1_1AbstractSocket.html#aee9d948ab5f79cb9c0c45da1709c1159" target="_top" xlink:title="Updates the human&#45;readable error description buffer string.">
<polygon fill="white" stroke="#666666" points="466.5,-82 335.75,-82 335.75,-50 466.5,-50 466.5,-82"/>
<text xml:space="preserve" text-anchor="start" x="343.75" y="-68.5" font-family="Helvetica,sans-Serif" font-size="10.00">AsyncFw::AbstractSocket</text>
<text xml:space="preserve" text-anchor="middle" x="401.12" y="-56.5" font-family="Helvetica,sans-Serif" font-size="10.00">::setErrorString</text>
</a>
</g>
</g>
<!-- Node2&#45;&gt;Node9 -->
<g id="edge10_Node000002_Node000009" class="edge">
<title>Node2&#45;&gt;Node9</title>
<g id="a_edge10_Node000002_Node000009"><a xlink:title=" ">
<path fill="none" stroke="#63b8ff" d="M293.35,-88.16C303.52,-86.05 314.01,-83.87 324.26,-81.75"/>
<polygon fill="#63b8ff" stroke="#63b8ff" points="324.7,-85.23 333.78,-79.77 323.28,-78.38 324.7,-85.23"/>
</a>
</g>
</g>
<!-- Node4 -->
<g id="Node000004" class="node">
<title>Node4</title>
<g id="a_Node000004"><a xlink:href="classAsyncFw_1_1AbstractSocket.html#a5db12267a6d2241e81f570463f2d7ef5" target="_top" xlink:title="Called when the connection state changes.">
<polygon fill="white" stroke="#666666" points="806.75,-144 676,-144 676,-112 806.75,-112 806.75,-144"/>
<text xml:space="preserve" text-anchor="start" x="684" y="-130.5" font-family="Helvetica,sans-Serif" font-size="10.00">AsyncFw::AbstractSocket</text>
<text xml:space="preserve" text-anchor="middle" x="741.38" y="-118.5" font-family="Helvetica,sans-Serif" font-size="10.00">::stateEvent</text>
</a>
</g>
</g>
<!-- Node3&#45;&gt;Node4 -->
<g id="edge3_Node000003_Node000004" class="edge">
<title>Node3&#45;&gt;Node4</title>
<g id="a_edge3_Node000003_Node000004"><a xlink:title=" ">
<path fill="none" stroke="#63b8ff" d="M640.27,-151.09C648.26,-149.25 656.49,-147.35 664.63,-145.47"/>
<polygon fill="#63b8ff" stroke="#63b8ff" points="665.22,-148.93 674.18,-143.27 663.64,-142.11 665.22,-148.93"/>
</a>
</g>
</g>
<!-- Node5&#45;&gt;Node3 -->
<g id="edge5_Node000005_Node000003" class="edge">
<title>Node5&#45;&gt;Node3</title>
<g id="a_edge5_Node000005_Node000003"><a xlink:title=" ">
<path fill="none" stroke="#63b8ff" d="M473.37,-166C481.37,-166 489.55,-166 497.62,-166"/>
<polygon fill="#63b8ff" stroke="#63b8ff" points="497.4,-169.5 507.4,-166 497.4,-162.5 497.4,-169.5"/>
</a>
</g>
</g>
<!-- Node7 -->
<g id="Node000007" class="node">
<title>Node7</title>
<g id="a_Node000007"><a xlink:href="classAsyncFw_1_1AbstractSocket.html#a77c0a9ea7c5061c406673bbe8b18d60d" target="_top" xlink:title="Closes the network connection and unsubscribes from thread polling events.">
<polygon fill="white" stroke="#666666" points="640,-69 509.25,-69 509.25,-37 640,-37 640,-69"/>
<text xml:space="preserve" text-anchor="start" x="517.25" y="-55.5" font-family="Helvetica,sans-Serif" font-size="10.00">AsyncFw::AbstractSocket</text>
<text xml:space="preserve" text-anchor="middle" x="574.62" y="-43.5" font-family="Helvetica,sans-Serif" font-size="10.00">::close</text>
</a>
</g>
</g>
<!-- Node6&#45;&gt;Node7 -->
<g id="edge7_Node000006_Node000007" class="edge">
<title>Node6&#45;&gt;Node7</title>
<g id="a_edge7_Node000006_Node000007"><a xlink:title=" ">
<path fill="none" stroke="#63b8ff" d="M473.37,-31.37C481.47,-33.12 489.74,-34.9 497.9,-36.66"/>
<polygon fill="#63b8ff" stroke="#63b8ff" points="496.92,-40.03 507.43,-38.72 498.39,-33.19 496.92,-40.03"/>
</a>
</g>
</g>
<!-- Node7&#45;&gt;Node4 -->
<g id="edge8_Node000007_Node000004" class="edge">
<title>Node7&#45;&gt;Node4</title>
<g id="a_edge8_Node000007_Node000004"><a xlink:title=" ">
<path fill="none" stroke="#63b8ff" d="M611.78,-69.46C635.92,-80.45 667.9,-95.01 693.92,-106.85"/>
<polygon fill="#63b8ff" stroke="#63b8ff" points="692.38,-109.99 702.93,-110.95 695.28,-103.62 692.38,-109.99"/>
</a>
</g>
</g>
<!-- Node10&#45;&gt;Node6 -->
<g id="edge12_Node000010_Node000006" class="edge">
<title>Node10&#45;&gt;Node6</title>
<g id="a_edge12_Node000010_Node000006"><a xlink:title=" ">
<path fill="none" stroke="#63b8ff" d="M277.3,-33.23C289.99,-31.45 303.76,-29.52 317.33,-27.61"/>
<polygon fill="#63b8ff" stroke="#63b8ff" points="317.73,-31.09 327.15,-26.23 316.76,-24.16 317.73,-31.09"/>
</a>
</g>
</g>
</g>
</svg>
