<?xml version="1.0" encoding="UTF-8" standalone="no"?>
<!DOCTYPE svg PUBLIC "-//W3C//DTD SVG 1.1//EN"
 "http://www.w3.org/Graphics/SVG/1.1/DTD/svg11.dtd">
<!-- Generated by graphviz version 14.1.3 (20260303.0454)
 -->
<!-- Title: AsyncFw::Rrd Pages: 1 -->
<svg width="374pt" height="220pt"
 viewBox="0.00 0.00 374.00 220.00" xmlns="http://www.w3.org/2000/svg" xmlns:xlink="http://www.w3.org/1999/xlink">
<g id="graph0" class="graph" transform="scale(1 1) rotate(0) translate(4 216)">
<title>AsyncFw::Rrd</title>
<!-- Node1 -->
<g id="Node000001" class="node">
<title>Node1</title>
<g id="a_Node000001"><a xlink:title="A high&#45;performance circular database engine (Round&#45;Robin Database) for time&#45;series and structural dat...">
<polygon fill="#999999" stroke="#666666" points="217.38,-20 138.38,-20 138.38,0 217.38,0 217.38,-20"/>
<text xml:space="preserve" text-anchor="middle" x="177.88" y="-6.5" font-family="Helvetica,sans-Serif" font-size="10.00">AsyncFw::Rrd</text>
</a>
</g>
</g>
<!-- Node2 -->
<g id="Node000002" class="node">
<title>Node2</title>
<g id="a_Node000002"><a xlink:href="classAsyncFw_1_1FunctionConnector.html" target="_top" xlink:title="Provides a thread&#45;safe, publisher&#45;subscriber mechanism to establish sender&#45;to&#45;receivers connections.">
<polygon fill="white" stroke="#666666" points="145.75,-212 0,-212 0,-180 145.75,-180 145.75,-212"/>
<text xml:space="preserve" text-anchor="start" x="8" y="-198.5" font-family="Helvetica,sans-Serif" font-size="10.00">AsyncFw::FunctionConnector</text>
<text xml:space="preserve" text-anchor="middle" x="72.88" y="-186.5" font-family="Helvetica,sans-Serif" font-size="10.00">&lt; Args &gt;</text>
</a>
</g>
</g>
<!-- Node2&#45;&gt;Node1 -->
<g id="edge1_Node000001_Node000002" class="edge">
<title>Node2&#45;&gt;Node1</title>
<g id="a_edge1_Node000001_Node000002"><a xlink:title=" ">
<path fill="none" stroke="#9a32cd" stroke-dasharray="5,2" d="M68.3,-168.41C65.24,-142.48 64.43,-102.84 81.38,-74 96.99,-47.44 128.74,-30.03 151.56,-20.38"/>
<polygon fill="#9a32cd" stroke="#9a32cd" points="64.8,-168.68 69.65,-178.1 71.73,-167.71 64.8,-168.68"/>
</a>
</g>
<text xml:space="preserve" text-anchor="start" x="84.38" y="-80.25" font-family="Helvetica,sans-Serif" font-size="10.00" fill="grey">updated</text>
</g>
<!-- Node3 -->
<g id="Node000003" class="node">
<title>Node3</title>
<g id="a_Node000003"><a xlink:href="classAsyncFw_1_1Thread.html" target="_top" xlink:title="AsyncFw::Thread thread with sockets.">
<polygon fill="white" stroke="#666666" points="224.5,-94 131.25,-94 131.25,-74 224.5,-74 224.5,-94"/>
<text xml:space="preserve" text-anchor="middle" x="177.88" y="-80.5" font-family="Helvetica,sans-Serif" font-size="10.00">AsyncFw::Thread</text>
</a>
</g>
</g>
<!-- Node2&#45;&gt;Node3 -->
<g id="edge4_Node000003_Node000002" class="edge">
<title>Node2&#45;&gt;Node3</title>
<g id="a_edge4_Node000003_Node000002"><a xlink:title=" ">
<path fill="none" stroke="#9a32cd" stroke-dasharray="5,2" d="M90.67,-170.82C103.93,-153.55 122.98,-130.24 142.12,-112 148.88,-105.56 157.16,-99.23 164.05,-94.31"/>
<polygon fill="#9a32cd" stroke="#9a32cd" points="88.09,-168.42 84.85,-178.51 93.67,-172.65 88.09,-168.42"/>
</a>
</g>
<text xml:space="preserve" text-anchor="start" x="145.12" y="-149.25" font-family="Helvetica,sans-Serif" font-size="10.00" fill="grey">destroing</text>
<text xml:space="preserve" text-anchor="start" x="145.12" y="-133.25" font-family="Helvetica,sans-Serif" font-size="10.00" fill="grey">finished</text>
<text xml:space="preserve" text-anchor="start" x="145.12" y="-117.25" font-family="Helvetica,sans-Serif" font-size="10.00" fill="grey">started</text>
</g>
<!-- Node3&#45;&gt;Node1 -->
<g id="edge2_Node000001_Node000003" class="edge">
<title>Node3&#45;&gt;Node1</title>
<g id="a_edge2_Node000001_Node000003"><a xlink:title=" ">
<path fill="none" stroke="#9a32cd" stroke-dasharray="5,2" d="M177.88,-62.18C177.88,-48.29 177.88,-30.71 177.88,-20.19"/>
<polygon fill="#9a32cd" stroke="#9a32cd" points="174.38,-62.07 177.88,-72.07 181.38,-62.07 174.38,-62.07"/>
</a>
</g>
<text xml:space="preserve" text-anchor="start" x="180.88" y="-43.25" font-family="Helvetica,sans-Serif" font-size="10.00" fill="grey">thread_</text>
</g>
<!-- Node4 -->
<g id="Node000004" class="node">
<title>Node4</title>
<g id="a_Node000004"><a xlink:href="classAsyncFw_1_1AbstractThread.html" target="_top" xlink:title="The AbstractThread class provides the base functionality for thread management.">
<polygon fill="white" stroke="#666666" points="293.88,-206 163.88,-206 163.88,-186 293.88,-186 293.88,-206"/>
<text xml:space="preserve" text-anchor="middle" x="228.88" y="-192.5" font-family="Helvetica,sans-Serif" font-size="10.00">AsyncFw::AbstractThread</text>
</a>
</g>
</g>
<!-- Node4&#45;&gt;Node3 -->
<g id="edge3_Node000003_Node000004" class="edge">
<title>Node4&#45;&gt;Node3</title>
<g id="a_edge3_Node000003_Node000004"><a xlink:title=" ">
<path fill="none" stroke="#63b8ff" d="M219.74,-175.3C208.67,-151.43 190.48,-112.2 182.21,-94.35"/>
<polygon fill="#63b8ff" stroke="#63b8ff" points="216.51,-176.65 223.89,-184.25 222.86,-173.7 216.51,-176.65"/>
</a>
</g>
</g>
<!-- Node5 -->
<g id="Node000005" class="node">
<title>Node5</title>
<g id="a_Node000005"><a xlink:href="classAsyncFw_1_1DataArrayList.html" target="_top" xlink:title="A specialized container aggregating multiple DataArray instances.">
<polygon fill="white" stroke="#666666" points="365.5,-94 242.25,-94 242.25,-74 365.5,-74 365.5,-94"/>
<text xml:space="preserve" text-anchor="middle" x="303.88" y="-80.5" font-family="Helvetica,sans-Serif" font-size="10.00">AsyncFw::DataArrayList</text>
</a>
</g>
</g>
<!-- Node5&#45;&gt;Node1 -->
<g id="edge5_Node000001_Node000005" class="edge">
<title>Node5&#45;&gt;Node1</title>
<g id="a_edge5_Node000001_Node000005"><a xlink:title=" ">
<path fill="none" stroke="#9a32cd" stroke-dasharray="5,2" d="M277.46,-67.91C252.39,-53.58 215.48,-32.49 194.35,-20.42"/>
<polygon fill="#9a32cd" stroke="#9a32cd" points="275.67,-70.91 286.09,-72.84 279.14,-64.84 275.67,-70.91"/>
</a>
</g>
<text xml:space="preserve" text-anchor="start" x="258.87" y="-43.25" font-family="Helvetica,sans-Serif" font-size="10.00" fill="grey">dataBase</text>
</g>
</g>
</svg>
