<?xml version="1.0" encoding="UTF-8" standalone="no"?>
<!DOCTYPE svg PUBLIC "-//W3C//DTD SVG 1.1//EN"
 "http://www.w3.org/Graphics/SVG/1.1/DTD/svg11.dtd">
<!-- Generated by graphviz version 12.2.1 (20241206.2353)
 -->
<!-- Title: AsyncFw::AbstractLog::output Pages: 1 -->
<svg width="726pt" height="91pt"
 viewBox="0.00 0.00 725.50 91.00" xmlns="http://www.w3.org/2000/svg" xmlns:xlink="http://www.w3.org/1999/xlink">
<g id="graph0" class="graph" transform="scale(1 1) rotate(0) translate(4 87)">
<title>AsyncFw::AbstractLog::output</title>
<!-- Node1 -->
<g id="Node000001" class="node">
<title>Node1</title>
<g id="a_Node000001"><a xlink:title="Routes an individual message directly to active outputs (like LogStream::console_output).">
<polygon fill="#999999" stroke="#666666" points="717.5,-48 601.75,-48 601.75,-16 717.5,-16 717.5,-48"/>
<text text-anchor="start" x="609.75" y="-34.5" font-family="Helvetica,sans-Serif" font-size="10.00">AsyncFw::AbstractLog</text>
<text text-anchor="middle" x="659.62" y="-22.5" font-family="Helvetica,sans-Serif" font-size="10.00">::output</text>
</a>
</g>
</g>
<!-- Node2 -->
<g id="Node000002" class="node">
<title>Node2</title>
<g id="a_Node000002"><a xlink:href="classAsyncFw_1_1AbstractLog.html#a8dd93228e8424dccdd74adbb6422bd78" target="_top" xlink:title="Synchronously flushes outstanding queues and tears down internal tracking structures.">
<polygon fill="white" stroke="#666666" points="565.75,-70 450,-70 450,-38 565.75,-38 565.75,-70"/>
<text text-anchor="start" x="458" y="-56.5" font-family="Helvetica,sans-Serif" font-size="10.00">AsyncFw::AbstractLog</text>
<text text-anchor="middle" x="507.88" y="-44.5" font-family="Helvetica,sans-Serif" font-size="10.00">::finality</text>
</a>
</g>
</g>
<!-- Node1&#45;&gt;Node2 -->
<g id="edge1_Node000001_Node000002" class="edge">
<title>Node1&#45;&gt;Node2</title>
<g id="a_edge1_Node000001_Node000002"><a xlink:title=" ">
<path fill="none" stroke="#63b8ff" d="M590.44,-42.02C582.18,-43.23 573.82,-44.46 565.76,-45.64"/>
<polygon fill="#63b8ff" stroke="#63b8ff" points="590.7,-45.52 600.09,-40.6 589.68,-38.59 590.7,-45.52"/>
</a>
</g>
</g>
<!-- Node7 -->
<g id="Node000007" class="node">
<title>Node7</title>
<g id="a_Node000007"><a xlink:href="classAsyncFw_1_1Log.html#a6b0ce40bc2e34f4b435894701194dc26" target="_top" xlink:title="Persists log entries into the underlying Rrd buffer and manages automated disk flushing.">
<polygon fill="white" stroke="#666666" points="563.88,-20 451.88,-20 451.88,0 563.88,0 563.88,-20"/>
<text text-anchor="middle" x="507.88" y="-6.5" font-family="Helvetica,sans-Serif" font-size="10.00">AsyncFw::Log::output</text>
</a>
</g>
</g>
<!-- Node1&#45;&gt;Node7 -->
<g id="edge6_Node000001_Node000007" class="edge">
<title>Node1&#45;&gt;Node7</title>
<g id="a_edge6_Node000001_Node000007"><a xlink:title=" ">
<path fill="none" stroke="#63b8ff" d="M590.25,-21.96C581.55,-20.68 572.74,-19.38 564.27,-18.14"/>
<polygon fill="#63b8ff" stroke="#63b8ff" points="589.68,-25.41 600.09,-23.4 590.7,-18.48 589.68,-25.41"/>
</a>
</g>
</g>
<!-- Node3 -->
<g id="Node000003" class="node">
<title>Node3</title>
<g id="a_Node000003"><a xlink:href="classAsyncFw_1_1Log.html#a27bf2284363cc365c8af12e923b95db5" target="_top" xlink:title="Performs early shutdown, restoring original console routing.">
<polygon fill="white" stroke="#666666" points="414,-64 300.5,-64 300.5,-44 414,-44 414,-64"/>
<text text-anchor="middle" x="357.25" y="-50.5" font-family="Helvetica,sans-Serif" font-size="10.00">AsyncFw::Log::finality</text>
</a>
</g>
</g>
<!-- Node2&#45;&gt;Node3 -->
<g id="edge2_Node000002_Node000003" class="edge">
<title>Node2&#45;&gt;Node3</title>
<g id="a_edge2_Node000002_Node000003"><a xlink:title=" ">
<path fill="none" stroke="#63b8ff" d="M438.52,-54C430.45,-54 422.28,-54 414.4,-54"/>
<polygon fill="#63b8ff" stroke="#63b8ff" points="438.32,-57.5 448.32,-54 438.32,-50.5 438.32,-57.5"/>
</a>
</g>
</g>
<!-- Node4 -->
<g id="Node000004" class="node">
<title>Node4</title>
<g id="a_Node000004"><a xlink:href="classAsyncFw_1_1Log.html#a832d13f4e9231eee37d8decb5b9b96d7" target="_top" xlink:title="Constructs a persistent log system with a specific circular database size and file name context.">
<polygon fill="white" stroke="#666666" points="261.5,-83 160.75,-83 160.75,-63 261.5,-63 261.5,-83"/>
<text text-anchor="middle" x="211.12" y="-69.5" font-family="Helvetica,sans-Serif" font-size="10.00">AsyncFw::Log::Log</text>
</a>
</g>
</g>
<!-- Node3&#45;&gt;Node4 -->
<g id="edge3_Node000003_Node000004" class="edge">
<title>Node3&#45;&gt;Node4</title>
<g id="a_edge3_Node000003_Node000004"><a xlink:title=" ">
<path fill="none" stroke="#63b8ff" d="M288.71,-62.9C279.64,-64.1 270.46,-65.31 261.78,-66.45"/>
<polygon fill="#63b8ff" stroke="#63b8ff" points="289.16,-66.38 298.61,-61.6 288.24,-59.44 289.16,-66.38"/>
</a>
</g>
</g>
<!-- Node6 -->
<g id="Node000006" class="node">
<title>Node6</title>
<g id="a_Node000006"><a xlink:href="classAsyncFw_1_1Log.html#a7f9618da213c4789bb158d337c819e22" target="_top" xlink:title="Destructor. Atomically unbinds global log routing hooks and finalizes all active background buffers.">
<polygon fill="white" stroke="#666666" points="264.5,-45 157.75,-45 157.75,-25 264.5,-25 264.5,-45"/>
<text text-anchor="middle" x="211.12" y="-31.5" font-family="Helvetica,sans-Serif" font-size="10.00">AsyncFw::Log::~Log</text>
</a>
</g>
</g>
<!-- Node3&#45;&gt;Node6 -->
<g id="edge5_Node000003_Node000006" class="edge">
<title>Node3&#45;&gt;Node6</title>
<g id="a_edge5_Node000003_Node000006"><a xlink:title=" ">
<path fill="none" stroke="#63b8ff" d="M288.74,-45.1C280.62,-44.03 272.43,-42.95 264.57,-41.91"/>
<polygon fill="#63b8ff" stroke="#63b8ff" points="288.24,-48.56 298.61,-46.4 289.16,-41.62 288.24,-48.56"/>
</a>
</g>
</g>
<!-- Node5 -->
<g id="Node000005" class="node">
<title>Node5</title>
<g id="a_Node000005"><a xlink:href="classAsyncFw_1_1Log.html#a00e9a20e7303e9a24403046af176b6b2" target="_top" xlink:title="Global service locator shortcut to fetch the current engine&#45;wide default log pointer.">
<polygon fill="white" stroke="#666666" points="121.75,-83 0,-83 0,-63 121.75,-63 121.75,-83"/>
<text text-anchor="middle" x="60.88" y="-69.5" font-family="Helvetica,sans-Serif" font-size="10.00">AsyncFw::Log::instance</text>
</a>
</g>
</g>
<!-- Node4&#45;&gt;Node5 -->
<g id="edge4_Node000004_Node000005" class="edge">
<title>Node4&#45;&gt;Node5</title>
<g id="a_edge4_Node000004_Node000005"><a xlink:title=" ">
<path fill="none" stroke="#63b8ff" d="M148.89,-73C140.02,-73 130.91,-73 122.07,-73"/>
<polygon fill="#63b8ff" stroke="#63b8ff" points="148.83,-76.5 158.83,-73 148.83,-69.5 148.83,-76.5"/>
</a>
</g>
</g>
</g>
</svg>
