<?xml version="1.0" encoding="UTF-8" standalone="no"?>
<!DOCTYPE svg PUBLIC "-//W3C//DTD SVG 1.1//EN"
 "http://www.w3.org/Graphics/SVG/1.1/DTD/svg11.dtd">
<!-- Generated by graphviz version 14.1.3 (20260303.0454)
 -->
<!-- Title: AsyncFw::AbstractLog Pages: 1 -->
<svg width="302pt" height="220pt"
 viewBox="0.00 0.00 302.00 220.00" xmlns="http://www.w3.org/2000/svg" xmlns:xlink="http://www.w3.org/1999/xlink">
<g id="graph0" class="graph" transform="scale(1 1) rotate(0) translate(4 216)">
<title>AsyncFw::AbstractLog</title>
<!-- Node1 -->
<g id="Node000001" class="node">
<title>Node1</title>
<g id="a_Node000001"><a xlink:title="The AbstractLog class provides the core thread&#45;safe infrastructure for log management and duplicate r...">
<polygon fill="#999999" stroke="#666666" points="200.88,-20 85.12,-20 85.12,0 200.88,0 200.88,-20"/>
<text xml:space="preserve" text-anchor="middle" x="143" y="-6.5" font-family="Helvetica,sans-Serif" font-size="10.00">AsyncFw::AbstractLog</text>
</a>
</g>
</g>
<!-- Node2 -->
<g id="Node000002" class="node">
<title>Node2</title>
<g id="a_Node000002"><a xlink:href="classAsyncFw_1_1Thread.html" target="_top" xlink:title="AsyncFw::Thread thread with sockets.">
<polygon fill="white" stroke="#666666" points="189.62,-94 96.38,-94 96.38,-74 189.62,-74 189.62,-94"/>
<text xml:space="preserve" text-anchor="middle" x="143" y="-80.5" font-family="Helvetica,sans-Serif" font-size="10.00">AsyncFw::Thread</text>
</a>
</g>
</g>
<!-- Node2&#45;&gt;Node1 -->
<g id="edge1_Node000001_Node000002" class="edge">
<title>Node2&#45;&gt;Node1</title>
<g id="a_edge1_Node000001_Node000002"><a xlink:title=" ">
<path fill="none" stroke="#9a32cd" stroke-dasharray="5,2" d="M143,-62.18C143,-48.29 143,-30.71 143,-20.19"/>
<polygon fill="#9a32cd" stroke="#9a32cd" points="139.5,-62.07 143,-72.07 146.5,-62.07 139.5,-62.07"/>
</a>
</g>
<text xml:space="preserve" text-anchor="start" x="146" y="-43.25" font-family="Helvetica,sans-Serif" font-size="10.00" fill="grey">thread_</text>
</g>
<!-- Node3 -->
<g id="Node000003" class="node">
<title>Node3</title>
<g id="a_Node000003"><a xlink:href="classAsyncFw_1_1AbstractThread.html" target="_top" xlink:title="The AbstractThread class provides the base functionality for thread management.">
<polygon fill="white" stroke="#666666" points="130,-206 0,-206 0,-186 130,-186 130,-206"/>
<text xml:space="preserve" text-anchor="middle" x="65" y="-192.5" font-family="Helvetica,sans-Serif" font-size="10.00">AsyncFw::AbstractThread</text>
</a>
</g>
</g>
<!-- Node3&#45;&gt;Node2 -->
<g id="edge2_Node000002_Node000003" class="edge">
<title>Node3&#45;&gt;Node2</title>
<g id="a_edge2_Node000002_Node000003"><a xlink:title=" ">
<path fill="none" stroke="#63b8ff" d="M78.28,-176.27C95.14,-152.5 123.54,-112.44 136.37,-94.35"/>
<polygon fill="#63b8ff" stroke="#63b8ff" points="75.45,-174.2 72.53,-184.39 81.17,-178.25 75.45,-174.2"/>
</a>
</g>
</g>
<!-- Node4 -->
<g id="Node000004" class="node">
<title>Node4</title>
<g id="a_Node000004"><a xlink:href="classAsyncFw_1_1FunctionConnector.html" target="_top" xlink:title="Provides a thread&#45;safe, publisher&#45;subscriber mechanism to establish sender&#45;to&#45;receivers connections.">
<polygon fill="white" stroke="#666666" points="293.88,-212 148.12,-212 148.12,-180 293.88,-180 293.88,-212"/>
<text xml:space="preserve" text-anchor="start" x="156.12" y="-198.5" font-family="Helvetica,sans-Serif" font-size="10.00">AsyncFw::FunctionConnector</text>
<text xml:space="preserve" text-anchor="middle" x="221" y="-186.5" font-family="Helvetica,sans-Serif" font-size="10.00">&lt; Args &gt;</text>
</a>
</g>
</g>
<!-- Node4&#45;&gt;Node2 -->
<g id="edge3_Node000002_Node000004" class="edge">
<title>Node4&#45;&gt;Node2</title>
<g id="a_edge3_Node000002_Node000004"><a xlink:title=" ">
<path fill="none" stroke="#9a32cd" stroke-dasharray="5,2" d="M203.62,-170.49C186.57,-146.45 161.47,-111.04 149.63,-94.35"/>
<polygon fill="#9a32cd" stroke="#9a32cd" points="200.64,-172.34 209.28,-178.47 206.35,-168.29 200.64,-172.34"/>
</a>
</g>
<text xml:space="preserve" text-anchor="start" x="198.77" y="-149.25" font-family="Helvetica,sans-Serif" font-size="10.00" fill="grey">destroying</text>
<text xml:space="preserve" text-anchor="start" x="198.77" y="-133.25" font-family="Helvetica,sans-Serif" font-size="10.00" fill="grey">finished</text>
<text xml:space="preserve" text-anchor="start" x="198.77" y="-117.25" font-family="Helvetica,sans-Serif" font-size="10.00" fill="grey">started</text>
</g>
</g>
</svg>
