<?xml version="1.0" encoding="UTF-8" standalone="no"?>
<!DOCTYPE svg PUBLIC "-//W3C//DTD SVG 1.1//EN"
 "http://www.w3.org/Graphics/SVG/1.1/DTD/svg11.dtd">
<!-- Generated by graphviz version 14.1.3 (20260303.0454)
 -->
<!-- Title: AsyncFw::AbstractThreadPool::Thread Pages: 1 -->
<svg width="312pt" height="232pt"
 viewBox="0.00 0.00 312.00 232.00" xmlns="http://www.w3.org/2000/svg" xmlns:xlink="http://www.w3.org/1999/xlink">
<g id="graph0" class="graph" transform="scale(1 1) rotate(0) translate(4 228)">
<title>AsyncFw::AbstractThreadPool::Thread</title>
<!-- Node1 -->
<g id="Node000001" class="node">
<title>Node1</title>
<g id="a_Node000001"><a xlink:title=" ">
<polygon fill="#999999" stroke="#666666" points="231.5,-32 82,-32 82,0 231.5,0 231.5,-32"/>
<text xml:space="preserve" text-anchor="start" x="90" y="-18.5" font-family="Helvetica,sans-Serif" font-size="10.00">AsyncFw::AbstractThreadPool</text>
<text xml:space="preserve" text-anchor="middle" x="156.75" y="-6.5" font-family="Helvetica,sans-Serif" font-size="10.00">::Thread</text>
</a>
</g>
</g>
<!-- Node2 -->
<g id="Node000002" class="node">
<title>Node2</title>
<g id="a_Node000002"><a xlink:href="classAsyncFw_1_1Thread.html" target="_top" xlink:title="AsyncFw::Thread thread with sockets.">
<polygon fill="white" stroke="#666666" points="260.38,-106 167.12,-106 167.12,-86 260.38,-86 260.38,-106"/>
<text xml:space="preserve" text-anchor="middle" x="213.75" y="-92.5" font-family="Helvetica,sans-Serif" font-size="10.00">AsyncFw::Thread</text>
</a>
</g>
</g>
<!-- Node2&#45;&gt;Node1 -->
<g id="edge1_Node000001_Node000002" class="edge">
<title>Node2&#45;&gt;Node1</title>
<g id="a_edge1_Node000001_Node000002"><a xlink:title=" ">
<path fill="none" stroke="#63b8ff" d="M200.24,-76.52C190.42,-63.08 177.28,-45.09 168.02,-32.42"/>
<polygon fill="#63b8ff" stroke="#63b8ff" points="197.37,-78.52 206.09,-84.52 203.02,-74.39 197.37,-78.52"/>
</a>
</g>
</g>
<!-- Node3 -->
<g id="Node000003" class="node">
<title>Node3</title>
<g id="a_Node000003"><a xlink:href="classAsyncFw_1_1AbstractThread.html" target="_top" xlink:title="The AbstractThread class provides the base functionality for thread management.">
<polygon fill="white" stroke="#666666" points="139.75,-218 9.75,-218 9.75,-198 139.75,-198 139.75,-218"/>
<text xml:space="preserve" text-anchor="middle" x="74.75" y="-204.5" font-family="Helvetica,sans-Serif" font-size="10.00">AsyncFw::AbstractThread</text>
</a>
</g>
</g>
<!-- Node3&#45;&gt;Node2 -->
<g id="edge2_Node000002_Node000003" class="edge">
<title>Node3&#45;&gt;Node2</title>
<g id="a_edge2_Node000002_Node000003"><a xlink:title=" ">
<path fill="none" stroke="#63b8ff" d="M95.22,-190.95C102.07,-185.57 109.75,-179.53 116.75,-174 147.63,-149.61 183.93,-120.74 202.12,-106.26"/>
<polygon fill="#63b8ff" stroke="#63b8ff" points="93.43,-187.91 87.72,-196.84 97.75,-193.41 93.43,-187.91"/>
</a>
</g>
</g>
<!-- Node5 -->
<g id="Node000005" class="node">
<title>Node5</title>
<g id="a_Node000005"><a xlink:href="classAsyncFw_1_1AbstractThreadPool.html" target="_top" xlink:title="Abstract base class for creating and managing thread pools.">
<polygon fill="white" stroke="#666666" points="149.5,-106 0,-106 0,-86 149.5,-86 149.5,-106"/>
<text xml:space="preserve" text-anchor="middle" x="74.75" y="-92.5" font-family="Helvetica,sans-Serif" font-size="10.00">AsyncFw::AbstractThreadPool</text>
</a>
</g>
</g>
<!-- Node3&#45;&gt;Node5 -->
<g id="edge5_Node000005_Node000003" class="edge">
<title>Node3&#45;&gt;Node5</title>
<g id="a_edge5_Node000005_Node000003"><a xlink:title=" ">
<path fill="none" stroke="#9a32cd" stroke-dasharray="5,2" d="M74.75,-186.31C74.75,-162.36 74.75,-123.95 74.75,-106.35"/>
<polygon fill="#9a32cd" stroke="#9a32cd" points="71.25,-186.11 74.75,-196.11 78.25,-186.11 71.25,-186.11"/>
</a>
</g>
<text xml:space="preserve" text-anchor="start" x="77.75" y="-145.25" font-family="Helvetica,sans-Serif" font-size="10.00" fill="grey">thread_</text>
</g>
<!-- Node4 -->
<g id="Node000004" class="node">
<title>Node4</title>
<g id="a_Node000004"><a xlink:href="classAsyncFw_1_1FunctionConnector.html" target="_top" xlink:title="Provides a thread&#45;safe, publisher&#45;subscriber mechanism to establish sender&#45;to&#45;receivers connections.">
<polygon fill="white" stroke="#666666" points="303.62,-224 157.88,-224 157.88,-192 303.62,-192 303.62,-224"/>
<text xml:space="preserve" text-anchor="start" x="165.88" y="-210.5" font-family="Helvetica,sans-Serif" font-size="10.00">AsyncFw::FunctionConnector</text>
<text xml:space="preserve" text-anchor="middle" x="230.75" y="-198.5" font-family="Helvetica,sans-Serif" font-size="10.00">&lt; Args &gt;</text>
</a>
</g>
</g>
<!-- Node4&#45;&gt;Node2 -->
<g id="edge3_Node000002_Node000004" class="edge">
<title>Node4&#45;&gt;Node2</title>
<g id="a_edge3_Node000002_Node000004"><a xlink:title=" ">
<path fill="none" stroke="#9a32cd" stroke-dasharray="5,2" d="M226.66,-180.55C222.96,-156.58 217.71,-122.6 215.2,-106.35"/>
<polygon fill="#9a32cd" stroke="#9a32cd" points="223.17,-180.86 228.16,-190.21 230.09,-179.79 223.17,-180.86"/>
</a>
</g>
<text xml:space="preserve" text-anchor="start" x="228.25" y="-161.25" font-family="Helvetica,sans-Serif" font-size="10.00" fill="grey">destroying</text>
<text xml:space="preserve" text-anchor="start" x="228.25" y="-145.25" font-family="Helvetica,sans-Serif" font-size="10.00" fill="grey">finished</text>
<text xml:space="preserve" text-anchor="start" x="228.25" y="-129.25" font-family="Helvetica,sans-Serif" font-size="10.00" fill="grey">started</text>
</g>
<!-- Node5&#45;&gt;Node1 -->
<g id="edge4_Node000001_Node000005" class="edge">
<title>Node5&#45;&gt;Node1</title>
<g id="a_edge4_Node000001_Node000005"><a xlink:title=" ">
<path fill="none" stroke="#9a32cd" stroke-dasharray="5,2" d="M92.54,-78.08C106.82,-64.49 126.7,-45.58 140.54,-32.42"/>
<polygon fill="#9a32cd" stroke="#9a32cd" points="90.41,-75.27 85.58,-84.7 95.23,-80.35 90.41,-75.27"/>
</a>
</g>
<text xml:space="preserve" text-anchor="start" x="123.66" y="-55.25" font-family="Helvetica,sans-Serif" font-size="10.00" fill="grey">pool</text>
</g>
</g>
</svg>
