<?xml version="1.0" encoding="UTF-8" standalone="no"?>
<!DOCTYPE svg PUBLIC "-//W3C//DTD SVG 1.1//EN"
 "http://www.w3.org/Graphics/SVG/1.1/DTD/svg11.dtd">
<!-- Generated by graphviz version 14.1.3 (20260303.0454)
 -->
<!-- Title: AsyncFw::DataArrayTcpClient::DataArrayTcpClient Pages: 1 -->
<svg width="522pt" height="62pt"
 viewBox="0.00 0.00 522.00 62.00" xmlns="http://www.w3.org/2000/svg" xmlns:xlink="http://www.w3.org/1999/xlink">
<g id="graph0" class="graph" transform="scale(1 1) rotate(0) translate(4 58)">
<title>AsyncFw::DataArrayTcpClient::DataArrayTcpClient</title>
<!-- Node1 -->
<g id="Node000001" class="node">
<title>Node1</title>
<g id="a_Node000001"><a xlink:title="Constructs a new DataArrayTcpClient object.">
<polygon fill="#999999" stroke="#666666" points="148,-32 0,-32 0,0 148,0 148,-32"/>
<text xml:space="preserve" text-anchor="start" x="8" y="-18.5" font-family="Helvetica,sans-Serif" font-size="10.00">AsyncFw::DataArrayTcpClient</text>
<text xml:space="preserve" text-anchor="middle" x="74" y="-6.5" font-family="Helvetica,sans-Serif" font-size="10.00">::DataArrayTcpClient</text>
</a>
</g>
</g>
<!-- Node2 -->
<g id="Node000002" class="node">
<title>Node2</title>
<g id="a_Node000002"><a xlink:href="classAsyncFw_1_1DataArrayAbstractTcp.html#adbdfede75d80d1c6c76800415d51b35c" target="_top" xlink:title="Constructs a new DataArrayAbstractTcp instance.">
<polygon fill="white" stroke="#666666" points="328.25,-54 184,-54 184,-22 328.25,-22 328.25,-54"/>
<text xml:space="preserve" text-anchor="start" x="192" y="-40.5" font-family="Helvetica,sans-Serif" font-size="10.00">AsyncFw::DataArrayAbstract</text>
<text xml:space="preserve" text-anchor="middle" x="256.12" y="-28.5" font-family="Helvetica,sans-Serif" font-size="10.00">Tcp::DataArrayAbstractTcp</text>
</a>
</g>
</g>
<!-- Node1&#45;&gt;Node2 -->
<g id="edge1_Node000001_Node000002" class="edge">
<title>Node1&#45;&gt;Node2</title>
<g id="a_edge1_Node000001_Node000002"><a xlink:title=" ">
<path fill="none" stroke="#63b8ff" d="M148.26,-24.95C156.21,-25.92 164.33,-26.91 172.38,-27.89"/>
<polygon fill="#63b8ff" stroke="#63b8ff" points="171.82,-31.35 182.17,-29.09 172.67,-24.4 171.82,-31.35"/>
</a>
</g>
</g>
<!-- Node3 -->
<g id="Node000003" class="node">
<title>Node3</title>
<g id="a_Node000003"><a xlink:href="classAsyncFw_1_1AbstractThreadPool.html#ac312e723c2e0fa3e4cc18e518853bdf2" target="_top" xlink:title="Returns the identifier name of the thread pool.">
<polygon fill="white" stroke="#666666" points="513.75,-32 364.25,-32 364.25,0 513.75,0 513.75,-32"/>
<text xml:space="preserve" text-anchor="start" x="372.25" y="-18.5" font-family="Helvetica,sans-Serif" font-size="10.00">AsyncFw::AbstractThreadPool</text>
<text xml:space="preserve" text-anchor="middle" x="439" y="-6.5" font-family="Helvetica,sans-Serif" font-size="10.00">::name</text>
</a>
</g>
</g>
<!-- Node1&#45;&gt;Node3 -->
<g id="edge3_Node000001_Node000003" class="edge">
<title>Node1&#45;&gt;Node3</title>
<g id="a_edge3_Node000001_Node000003"><a xlink:title=" ">
<path fill="none" stroke="#63b8ff" d="M148.28,-13.71C160.22,-13.41 172.45,-13.16 184,-13 248.11,-12.12 264.14,-12.12 328.25,-13 336.18,-13.11 344.43,-13.26 352.68,-13.44"/>
<polygon fill="#63b8ff" stroke="#63b8ff" points="352.32,-16.93 362.4,-13.66 352.49,-9.93 352.32,-16.93"/>
</a>
</g>
</g>
<!-- Node2&#45;&gt;Node3 -->
<g id="edge2_Node000002_Node000003" class="edge">
<title>Node2&#45;&gt;Node3</title>
<g id="a_edge2_Node000002_Node000003"><a xlink:title=" ">
<path fill="none" stroke="#63b8ff" d="M328.61,-29.31C336.46,-28.35 344.52,-27.37 352.52,-26.4"/>
<polygon fill="#63b8ff" stroke="#63b8ff" points="352.76,-29.89 362.26,-25.21 351.91,-22.94 352.76,-29.89"/>
</a>
</g>
</g>
</g>
</svg>
