<?xml version="1.0" encoding="UTF-8" standalone="no"?>
<!DOCTYPE svg PUBLIC "-//W3C//DTD SVG 1.1//EN"
 "http://www.w3.org/Graphics/SVG/1.1/DTD/svg11.dtd">
<!-- Generated by graphviz version 14.1.3 (20260303.0454)
 -->
<!-- Title: AsyncFw::HttpServer::HttpServer Pages: 1 -->
<svg width="937pt" height="240pt"
 viewBox="0.00 0.00 937.00 240.00" xmlns="http://www.w3.org/2000/svg" xmlns:xlink="http://www.w3.org/1999/xlink">
<g id="graph0" class="graph" transform="scale(1 1) rotate(0) translate(4 236)">
<title>AsyncFw::HttpServer::HttpServer</title>
<!-- Node1 -->
<g id="Node000001" class="node">
<title>Node1</title>
<g id="a_Node000001"><a xlink:title="Constructs the HTTP server instance.">
<polygon fill="#999999" stroke="#666666" points="110.5,-132 0,-132 0,-100 110.5,-100 110.5,-132"/>
<text xml:space="preserve" text-anchor="start" x="8" y="-118.5" font-family="Helvetica,sans-Serif" font-size="10.00">AsyncFw::HttpServer</text>
<text xml:space="preserve" text-anchor="middle" x="55.25" y="-106.5" font-family="Helvetica,sans-Serif" font-size="10.00">::HttpServer</text>
</a>
</g>
</g>
<!-- Node2 -->
<g id="Node000002" class="node">
<title>Node2</title>
<g id="a_Node000002"><a xlink:href="classAsyncFw_1_1HttpServer_1_1Request.html#afa488a05d879b6cbdca0853401352d19" target="_top" xlink:title="Returns the absolute path requested by the client (e.g., &quot;/index.html&quot;).">
<polygon fill="white" stroke="#666666" points="270.5,-232 160,-232 160,-200 270.5,-200 270.5,-232"/>
<text xml:space="preserve" text-anchor="start" x="168" y="-218.5" font-family="Helvetica,sans-Serif" font-size="10.00">AsyncFw::HttpServer</text>
<text xml:space="preserve" text-anchor="middle" x="215.25" y="-206.5" font-family="Helvetica,sans-Serif" font-size="10.00">::Request::path</text>
</a>
</g>
</g>
<!-- Node1&#45;&gt;Node2 -->
<g id="edge1_Node000001_Node000002" class="edge">
<title>Node1&#45;&gt;Node2</title>
<g id="a_edge1_Node000001_Node000002"><a xlink:title=" ">
<path fill="none" stroke="#63b8ff" d="M72.26,-132.24C89.37,-148.85 117.92,-174.5 146.5,-191 148.79,-192.32 151.16,-193.6 153.59,-194.82"/>
<polygon fill="#63b8ff" stroke="#63b8ff" points="151.88,-197.88 162.42,-198.94 154.83,-191.54 151.88,-197.88"/>
</a>
</g>
</g>
<!-- Node3 -->
<g id="Node000003" class="node">
<title>Node3</title>
<g id="a_Node000003"><a xlink:href="classAsyncFw_1_1HttpServer_1_1Request.html#a6183c383629786f1f45cc58a7cdba48c" target="_top" xlink:title="Links back to the responsive companion structure paired with this request.">
<polygon fill="white" stroke="#666666" points="270.5,-182 160,-182 160,-150 270.5,-150 270.5,-182"/>
<text xml:space="preserve" text-anchor="start" x="168" y="-168.5" font-family="Helvetica,sans-Serif" font-size="10.00">AsyncFw::HttpServer</text>
<text xml:space="preserve" text-anchor="middle" x="215.25" y="-156.5" font-family="Helvetica,sans-Serif" font-size="10.00">::Request::response</text>
</a>
</g>
</g>
<!-- Node1&#45;&gt;Node3 -->
<g id="edge2_Node000001_Node000003" class="edge">
<title>Node1&#45;&gt;Node3</title>
<g id="a_edge2_Node000001_Node000003"><a xlink:title=" ">
<path fill="none" stroke="#63b8ff" d="M107.99,-132.37C121.83,-136.75 136.94,-141.54 151.31,-146.08"/>
<polygon fill="#63b8ff" stroke="#63b8ff" points="150.1,-149.37 160.69,-149.05 152.21,-142.7 150.1,-149.37"/>
</a>
</g>
</g>
<!-- Node4 -->
<g id="Node000004" class="node">
<title>Node4</title>
<g id="a_Node000004"><a xlink:href="classAsyncFw_1_1HttpServer_1_1Response.html#a52925841696f5351ff43b46530c18390" target="_top" xlink:title="Finalizes and sends the response over the network via the associated socket.">
<polygon fill="white" stroke="#666666" points="270.5,-132 160,-132 160,-100 270.5,-100 270.5,-132"/>
<text xml:space="preserve" text-anchor="start" x="168" y="-118.5" font-family="Helvetica,sans-Serif" font-size="10.00">AsyncFw::HttpServer</text>
<text xml:space="preserve" text-anchor="middle" x="215.25" y="-106.5" font-family="Helvetica,sans-Serif" font-size="10.00">::Response::send</text>
</a>
</g>
</g>
<!-- Node1&#45;&gt;Node4 -->
<g id="edge3_Node000001_Node000004" class="edge">
<title>Node1&#45;&gt;Node4</title>
<g id="a_edge3_Node000001_Node000004"><a xlink:title=" ">
<path fill="none" stroke="#63b8ff" d="M110.62,-116C122.72,-116 135.67,-116 148.18,-116"/>
<polygon fill="#63b8ff" stroke="#63b8ff" points="147.99,-119.5 157.99,-116 147.99,-112.5 147.99,-119.5"/>
</a>
</g>
</g>
<!-- Node12 -->
<g id="Node000012" class="node">
<title>Node12</title>
<g id="a_Node000012"><a xlink:href="classAsyncFw_1_1HttpServer_1_1Response.html#a1e25071dfc003a6530edf35e0249e4b9" target="_top" xlink:title="Sets the payload content from a raw DataArray.">
<polygon fill="white" stroke="#666666" points="275.38,-82 155.12,-82 155.12,-50 275.38,-50 275.38,-82"/>
<text xml:space="preserve" text-anchor="start" x="163.12" y="-68.5" font-family="Helvetica,sans-Serif" font-size="10.00">AsyncFw::HttpServer</text>
<text xml:space="preserve" text-anchor="middle" x="215.25" y="-56.5" font-family="Helvetica,sans-Serif" font-size="10.00">::Response::setContent</text>
</a>
</g>
</g>
<!-- Node1&#45;&gt;Node12 -->
<g id="edge11_Node000001_Node000012" class="edge">
<title>Node1&#45;&gt;Node12</title>
<g id="a_edge11_Node000001_Node000012"><a xlink:title=" ">
<path fill="none" stroke="#63b8ff" d="M107.99,-99.63C121.83,-95.25 136.94,-90.46 151.31,-85.92"/>
<polygon fill="#63b8ff" stroke="#63b8ff" points="152.21,-89.3 160.69,-82.95 150.1,-82.63 152.21,-89.3"/>
</a>
</g>
</g>
<!-- Node13 -->
<g id="Node000013" class="node">
<title>Node13</title>
<g id="a_Node000013"><a xlink:href="classAsyncFw_1_1HttpServer_1_1Response.html#a3bd5303884754553c8dcf33c3b98da3c" target="_top" xlink:title="Assigns the HTTP status code for this response.">
<polygon fill="white" stroke="#666666" points="284,-32 146.5,-32 146.5,0 284,0 284,-32"/>
<text xml:space="preserve" text-anchor="start" x="154.5" y="-18.5" font-family="Helvetica,sans-Serif" font-size="10.00">AsyncFw::HttpServer</text>
<text xml:space="preserve" text-anchor="middle" x="215.25" y="-6.5" font-family="Helvetica,sans-Serif" font-size="10.00">::Response::setStatusCode</text>
</a>
</g>
</g>
<!-- Node1&#45;&gt;Node13 -->
<g id="edge12_Node000001_Node000013" class="edge">
<title>Node1&#45;&gt;Node13</title>
<g id="a_edge12_Node000001_Node000013"><a xlink:title=" ">
<path fill="none" stroke="#63b8ff" d="M72.26,-99.76C89.37,-83.15 117.92,-57.5 146.5,-41 148.79,-39.68 151.16,-38.4 153.59,-37.18"/>
<polygon fill="#63b8ff" stroke="#63b8ff" points="154.83,-40.46 162.42,-33.06 151.88,-34.12 154.83,-40.46"/>
</a>
</g>
</g>
<!-- Node5 -->
<g id="Node000005" class="node">
<title>Node5</title>
<g id="a_Node000005"><a xlink:href="classAsyncFw_1_1HttpServer_1_1Response.html#afa24643371f00fe11d7df0f9caae4134" target="_top" xlink:title="Destroys the response object and cleans up its allocated resources.">
<polygon fill="white" stroke="#666666" points="430.5,-157 320,-157 320,-125 430.5,-125 430.5,-157"/>
<text xml:space="preserve" text-anchor="start" x="328" y="-143.5" font-family="Helvetica,sans-Serif" font-size="10.00">AsyncFw::HttpServer</text>
<text xml:space="preserve" text-anchor="middle" x="375.25" y="-131.5" font-family="Helvetica,sans-Serif" font-size="10.00">::Response::destroy</text>
</a>
</g>
</g>
<!-- Node4&#45;&gt;Node5 -->
<g id="edge4_Node000004_Node000005" class="edge">
<title>Node4&#45;&gt;Node5</title>
<g id="a_edge4_Node000004_Node000005"><a xlink:title=" ">
<path fill="none" stroke="#63b8ff" d="M270.62,-124.6C282.72,-126.52 295.67,-128.57 308.18,-130.55"/>
<polygon fill="#63b8ff" stroke="#63b8ff" points="307.59,-134 318.01,-132.1 308.68,-127.08 307.59,-134"/>
</a>
</g>
</g>
<!-- Node11 -->
<g id="Node000011" class="node">
<title>Node11</title>
<g id="a_Node000011"><a xlink:href="classAsyncFw_1_1HttpServer_1_1Response.html#a5dd46db3eac7d1a07948d072e71c11f2" target="_top" xlink:title="Generates and returns the complete serialized HTTP header section.">
<polygon fill="white" stroke="#666666" points="430.5,-107 320,-107 320,-75 430.5,-75 430.5,-107"/>
<text xml:space="preserve" text-anchor="start" x="328" y="-93.5" font-family="Helvetica,sans-Serif" font-size="10.00">AsyncFw::HttpServer</text>
<text xml:space="preserve" text-anchor="middle" x="375.25" y="-81.5" font-family="Helvetica,sans-Serif" font-size="10.00">::Response::header</text>
</a>
</g>
</g>
<!-- Node4&#45;&gt;Node11 -->
<g id="edge10_Node000004_Node000011" class="edge">
<title>Node4&#45;&gt;Node11</title>
<g id="a_edge10_Node000004_Node000011"><a xlink:title=" ">
<path fill="none" stroke="#63b8ff" d="M270.62,-107.4C282.72,-105.48 295.67,-103.43 308.18,-101.45"/>
<polygon fill="#63b8ff" stroke="#63b8ff" points="308.68,-104.92 318.01,-99.9 307.59,-98 308.68,-104.92"/>
</a>
</g>
</g>
<!-- Node6 -->
<g id="Node000006" class="node">
<title>Node6</title>
<g id="a_Node000006"><a xlink:href="classAsyncFw_1_1AbstractThread.html#af33c5949edb374d673a7a9ac0c81ec32" target="_top" xlink:title="Returns a pointer to the AsyncFw::AbstractThread that manages the currently executing thread.">
<polygon fill="white" stroke="#666666" points="596.5,-182 466.5,-182 466.5,-150 596.5,-150 596.5,-182"/>
<text xml:space="preserve" text-anchor="start" x="474.5" y="-168.5" font-family="Helvetica,sans-Serif" font-size="10.00">AsyncFw::AbstractThread</text>
<text xml:space="preserve" text-anchor="middle" x="531.5" y="-156.5" font-family="Helvetica,sans-Serif" font-size="10.00">::current</text>
</a>
</g>
</g>
<!-- Node5&#45;&gt;Node6 -->
<g id="edge5_Node000005_Node000006" class="edge">
<title>Node5&#45;&gt;Node6</title>
<g id="a_edge5_Node000005_Node000006"><a xlink:title=" ">
<path fill="none" stroke="#63b8ff" d="M430.63,-149.81C438.5,-151.09 446.72,-152.42 454.92,-153.75"/>
<polygon fill="#63b8ff" stroke="#63b8ff" points="454.12,-157.17 464.55,-155.31 455.24,-150.26 454.12,-157.17"/>
</a>
</g>
</g>
<!-- Node9 -->
<g id="Node000009" class="node">
<title>Node9</title>
<g id="a_Node000009"><a xlink:href="classAsyncFw_1_1AbstractThread.html#a786474d037b50053f1a97af7b67e6069" target="_top" xlink:title="Runs a function in a managed thread.">
<polygon fill="white" stroke="#666666" points="596.5,-132 466.5,-132 466.5,-100 596.5,-100 596.5,-132"/>
<text xml:space="preserve" text-anchor="start" x="474.5" y="-118.5" font-family="Helvetica,sans-Serif" font-size="10.00">AsyncFw::AbstractThread</text>
<text xml:space="preserve" text-anchor="middle" x="531.5" y="-106.5" font-family="Helvetica,sans-Serif" font-size="10.00">::invoke</text>
</a>
</g>
</g>
<!-- Node5&#45;&gt;Node9 -->
<g id="edge8_Node000005_Node000009" class="edge">
<title>Node5&#45;&gt;Node9</title>
<g id="a_edge8_Node000005_Node000009"><a xlink:title=" ">
<path fill="none" stroke="#63b8ff" d="M430.63,-132.19C438.5,-130.91 446.72,-129.58 454.92,-128.25"/>
<polygon fill="#63b8ff" stroke="#63b8ff" points="455.24,-131.74 464.55,-126.69 454.12,-124.83 455.24,-131.74"/>
</a>
</g>
</g>
<!-- Node7 -->
<g id="Node000007" class="node">
<title>Node7</title>
<g id="a_Node000007"><a xlink:href="classAsyncFw_1_1AbstractThread.html#a8c9202c90ac101522f26c4260cb01b59" target="_top" xlink:title="Constructs a thread.">
<polygon fill="white" stroke="#666666" points="762.5,-182 632.5,-182 632.5,-150 762.5,-150 762.5,-182"/>
<text xml:space="preserve" text-anchor="start" x="640.5" y="-168.5" font-family="Helvetica,sans-Serif" font-size="10.00">AsyncFw::AbstractThread</text>
<text xml:space="preserve" text-anchor="middle" x="697.5" y="-156.5" font-family="Helvetica,sans-Serif" font-size="10.00">::AbstractThread</text>
</a>
</g>
</g>
<!-- Node6&#45;&gt;Node7 -->
<g id="edge6_Node000006_Node000007" class="edge">
<title>Node6&#45;&gt;Node7</title>
<g id="a_edge6_Node000006_Node000007"><a xlink:title=" ">
<path fill="none" stroke="#63b8ff" d="M596.85,-166C604.71,-166 612.81,-166 620.83,-166"/>
<polygon fill="#63b8ff" stroke="#63b8ff" points="620.56,-169.5 630.56,-166 620.56,-162.5 620.56,-169.5"/>
</a>
</g>
</g>
<!-- Node8 -->
<g id="Node000008" class="node">
<title>Node8</title>
<g id="a_Node000008"><a xlink:href="classAsyncFw_1_1AbstractThread.html#a0cd916251e061aaf3d456575ef052edd" target="_top" xlink:title="Returns name of managed thread.">
<polygon fill="white" stroke="#666666" points="928.5,-182 798.5,-182 798.5,-150 928.5,-150 928.5,-182"/>
<text xml:space="preserve" text-anchor="start" x="806.5" y="-168.5" font-family="Helvetica,sans-Serif" font-size="10.00">AsyncFw::AbstractThread</text>
<text xml:space="preserve" text-anchor="middle" x="863.5" y="-156.5" font-family="Helvetica,sans-Serif" font-size="10.00">::name</text>
</a>
</g>
</g>
<!-- Node7&#45;&gt;Node8 -->
<g id="edge7_Node000007_Node000008" class="edge">
<title>Node7&#45;&gt;Node8</title>
<g id="a_edge7_Node000007_Node000008"><a xlink:title=" ">
<path fill="none" stroke="#63b8ff" d="M762.85,-166C770.71,-166 778.81,-166 786.83,-166"/>
<polygon fill="#63b8ff" stroke="#63b8ff" points="786.56,-169.5 796.56,-166 786.56,-162.5 786.56,-169.5"/>
</a>
</g>
</g>
<!-- Node10 -->
<g id="Node000010" class="node">
<title>Node10</title>
<g id="a_Node000010"><a xlink:href="classAsyncFw_1_1AbstractThread.html#abe96e6b2a1de041f0d25390a6b77e50a" target="_top" xlink:title="Runs a task in a managed thread.">
<polygon fill="white" stroke="#666666" points="762.5,-132 632.5,-132 632.5,-100 762.5,-100 762.5,-132"/>
<text xml:space="preserve" text-anchor="start" x="640.5" y="-118.5" font-family="Helvetica,sans-Serif" font-size="10.00">AsyncFw::AbstractThread</text>
<text xml:space="preserve" text-anchor="middle" x="697.5" y="-106.5" font-family="Helvetica,sans-Serif" font-size="10.00">::invokeTask</text>
</a>
</g>
</g>
<!-- Node9&#45;&gt;Node10 -->
<g id="edge9_Node000009_Node000010" class="edge">
<title>Node9&#45;&gt;Node10</title>
<g id="a_edge9_Node000009_Node000010"><a xlink:title=" ">
<path fill="none" stroke="#63b8ff" d="M596.85,-116C604.71,-116 612.81,-116 620.83,-116"/>
<polygon fill="#63b8ff" stroke="#63b8ff" points="620.56,-119.5 630.56,-116 620.56,-112.5 620.56,-119.5"/>
</a>
</g>
</g>
</g>
</svg>
