<?xml version="1.0" encoding="UTF-8" standalone="no"?>
<!DOCTYPE svg PUBLIC "-//W3C//DTD SVG 1.1//EN"
 "http://www.w3.org/Graphics/SVG/1.1/DTD/svg11.dtd">
<!-- Generated by graphviz version 12.2.1 (20241206.2353)
 -->
<!-- Title: AsyncFw::AbstractFunctionConnector Pages: 1 -->
<svg width="676pt" height="114pt"
 viewBox="0.00 0.00 675.75 114.00" xmlns="http://www.w3.org/2000/svg" xmlns:xlink="http://www.w3.org/1999/xlink">
<g id="graph0" class="graph" transform="scale(1 1) rotate(0) translate(4 110)">
<title>AsyncFw::AbstractFunctionConnector</title>
<!-- Node1 -->
<g id="Node000001" class="node">
<title>Node1</title>
<g id="a_Node000001"><a xlink:title="The AbstractFunctionConnector class provides the base functionality for FunctionConnector.">
<polygon fill="#999999" stroke="#666666" points="137.5,-69 0,-69 0,-37 137.5,-37 137.5,-69"/>
<text text-anchor="start" x="8" y="-55.5" font-family="Helvetica,sans-Serif" font-size="10.00">AsyncFw::AbstractFunction</text>
<text text-anchor="middle" x="68.75" y="-43.5" font-family="Helvetica,sans-Serif" font-size="10.00">Connector</text>
</a>
</g>
</g>
<!-- Node2 -->
<g id="Node000002" class="node">
<title>Node2</title>
<g id="a_Node000002"><a xlink:href="classAsyncFw_1_1FunctionConnector.html" target="_top" xlink:title=" ">
<polygon fill="white" stroke="#666666" points="651.62,-106 505.88,-106 505.88,-74 651.62,-74 651.62,-106"/>
<text text-anchor="start" x="513.88" y="-92.5" font-family="Helvetica,sans-Serif" font-size="10.00">AsyncFw::FunctionConnector</text>
<text text-anchor="middle" x="578.75" y="-80.5" font-family="Helvetica,sans-Serif" font-size="10.00">&lt; Args... &gt;</text>
</a>
</g>
</g>
<!-- Node1&#45;&gt;Node2 -->
<g id="edge1_Node000001_Node000002" class="edge">
<title>Node1&#45;&gt;Node2</title>
<g id="a_edge1_Node000001_Node000002"><a xlink:title=" ">
<path fill="none" stroke="#63b8ff" d="M143.47,-71.99C153.84,-74.25 164.41,-76.34 174.5,-78 289.06,-96.82 424.32,-96.3 505.45,-93.59"/>
<polygon fill="#63b8ff" stroke="#63b8ff" points="144.32,-68.59 133.8,-69.81 142.79,-75.42 144.32,-68.59"/>
</a>
</g>
</g>
<!-- Node3 -->
<g id="Node000003" class="node">
<title>Node3</title>
<g id="a_Node000003"><a xlink:href="classAsyncFw_1_1FunctionConnector.html" target="_top" xlink:title=" ">
<polygon fill="white" stroke="#666666" points="667.75,-44 489.75,-44 489.75,0 667.75,0 667.75,-44"/>
<text text-anchor="start" x="497.75" y="-30.5" font-family="Helvetica,sans-Serif" font-size="10.00">AsyncFw::FunctionConnector</text>
<text text-anchor="start" x="497.75" y="-18.5" font-family="Helvetica,sans-Serif" font-size="10.00">&lt; const AsyncFw::ApplicationNotifier</text>
<text text-anchor="middle" x="578.75" y="-6.5" font-family="Helvetica,sans-Serif" font-size="10.00">::Value &amp; &gt;</text>
</a>
</g>
</g>
<!-- Node1&#45;&gt;Node3 -->
<g id="edge2_Node000001_Node000003" class="edge">
<title>Node1&#45;&gt;Node3</title>
<g id="a_edge2_Node000001_Node000003"><a xlink:title=" ">
<path fill="none" stroke="#63b8ff" d="M141.26,-34.07C152.32,-31.69 163.67,-29.54 174.5,-28 282.11,-12.66 407.51,-13.72 489.54,-16.93"/>
<polygon fill="#63b8ff" stroke="#63b8ff" points="140.78,-30.59 131.79,-36.2 142.31,-37.42 140.78,-30.59"/>
</a>
</g>
</g>
<!-- Node4 -->
<g id="Node000004" class="node">
<title>Node4</title>
<g id="a_Node000004"><a xlink:href="classAsyncFw_1_1FunctionConnector.html" target="_top" xlink:title="Обеспечивает соединение отправитель &#45;&gt; получатели. Получатели могут быть вызваны в своих потоках (по ...">
<polygon fill="white" stroke="#666666" points="320.25,-69 174.5,-69 174.5,-37 320.25,-37 320.25,-69"/>
<text text-anchor="start" x="182.5" y="-55.5" font-family="Helvetica,sans-Serif" font-size="10.00">AsyncFw::FunctionConnector</text>
<text text-anchor="middle" x="247.38" y="-43.5" font-family="Helvetica,sans-Serif" font-size="10.00">&lt; Args &gt;</text>
</a>
</g>
</g>
<!-- Node1&#45;&gt;Node4 -->
<g id="edge3_Node000001_Node000004" class="edge">
<title>Node1&#45;&gt;Node4</title>
<g id="a_edge3_Node000001_Node000004"><a xlink:title=" ">
<path fill="none" stroke="#63b8ff" d="M149.12,-53C157.5,-53 165.98,-53 174.27,-53"/>
<polygon fill="#63b8ff" stroke="#63b8ff" points="149.3,-49.5 139.3,-53 149.3,-56.5 149.3,-49.5"/>
</a>
</g>
</g>
<!-- Node4&#45;&gt;Node2 -->
<g id="edge4_Node000004_Node000002" class="edge">
<title>Node4&#45;&gt;Node2</title>
<g id="a_edge4_Node000004_Node000002"><a xlink:title=" ">
<path fill="none" stroke="orange" stroke-dasharray="5,2" d="M331.85,-62.38C385.47,-68.4 454.4,-76.14 505.64,-81.9"/>
<polygon fill="orange" stroke="orange" points="332.49,-58.93 322.16,-61.29 331.71,-65.88 332.49,-58.93"/>
</a>
</g>
<text text-anchor="middle" x="405" y="-80.53" font-family="Helvetica,sans-Serif" font-size="10.00" fill="grey"> &lt; Args... &gt;</text>
</g>
<!-- Node4&#45;&gt;Node3 -->
<g id="edge5_Node000004_Node000003" class="edge">
<title>Node4&#45;&gt;Node3</title>
<g id="a_edge5_Node000004_Node000003"><a xlink:title=" ">
<path fill="none" stroke="orange" stroke-dasharray="5,2" d="M331.6,-34.93C333.84,-34.6 336.06,-34.29 338.25,-34 388,-27.54 443.98,-24.5 489.3,-23.09"/>
<polygon fill="orange" stroke="orange" points="331.12,-31.46 321.81,-36.5 332.24,-38.37 331.12,-31.46"/>
</a>
</g>
<text text-anchor="start" x="338.25" y="-48.5" font-family="Helvetica,sans-Serif" font-size="10.00" fill="grey"> &lt; const AsyncFw::Application</text>
<text text-anchor="middle" x="405" y="-36.5" font-family="Helvetica,sans-Serif" font-size="10.00" fill="grey">Notifier::Value &amp; &gt;</text>
</g>
</g>
</svg>
