<?xml version="1.0" encoding="UTF-8" standalone="no"?>
<!DOCTYPE svg PUBLIC "-//W3C//DTD SVG 1.1//EN"
 "http://www.w3.org/Graphics/SVG/1.1/DTD/svg11.dtd">
<!-- Generated by graphviz version 12.2.1 (20241206.2353)
 -->
<!-- Title: AsyncFw::DataArrayTcpClient Pages: 1 -->
<svg width="1103pt" height="171pt"
 viewBox="0.00 0.00 1103.25 170.52" xmlns="http://www.w3.org/2000/svg" xmlns:xlink="http://www.w3.org/1999/xlink">
<g id="graph0" class="graph" transform="scale(1 1) rotate(0) translate(4 166.52)">
<title>AsyncFw::DataArrayTcpClient</title>
<!-- Node1 -->
<g id="Node000001" class="node">
<title>Node1</title>
<g id="a_Node000001"><a xlink:title="The DataArrayTcpClient class.">
<polygon fill="#999999" stroke="#666666" points="1095.25,-58 947.25,-58 947.25,-38 1095.25,-38 1095.25,-58"/>
<text text-anchor="middle" x="1021.25" y="-44.5" font-family="Helvetica,sans-Serif" font-size="10.00">AsyncFw::DataArrayTcpClient</text>
</a>
</g>
</g>
<!-- Node2 -->
<g id="Node000002" class="node">
<title>Node2</title>
<g id="a_Node000002"><a xlink:href="classAsyncFw_1_1DataArrayAbstractTcp.html" target="_top" xlink:title="The DataArrayAbstractTcp class.">
<polygon fill="white" stroke="#666666" points="910.25,-97 751,-97 751,-77 910.25,-77 910.25,-97"/>
<text text-anchor="middle" x="830.62" y="-83.5" font-family="Helvetica,sans-Serif" font-size="10.00">AsyncFw::DataArrayAbstractTcp</text>
</a>
</g>
</g>
<!-- Node2&#45;&gt;Node1 -->
<g id="edge1_Node000001_Node000002" class="edge">
<title>Node2&#45;&gt;Node1</title>
<g id="a_edge1_Node000001_Node000002"><a xlink:title=" ">
<path fill="none" stroke="#63b8ff" d="M893.25,-74.26C917.96,-69.15 946.07,-63.34 969.56,-58.48"/>
<polygon fill="#63b8ff" stroke="#63b8ff" points="892.74,-70.79 883.66,-76.24 894.16,-77.64 892.74,-70.79"/>
</a>
</g>
</g>
<!-- Node3 -->
<g id="Node000003" class="node">
<title>Node3</title>
<g id="a_Node000003"><a xlink:href="classAsyncFw_1_1AbstractThreadPool.html" target="_top" xlink:title="Abstract base class for creating and managing thread pools.">
<polygon fill="white" stroke="#666666" points="655.38,-157 505.88,-157 505.88,-137 655.38,-137 655.38,-157"/>
<text text-anchor="middle" x="580.62" y="-143.5" font-family="Helvetica,sans-Serif" font-size="10.00">AsyncFw::AbstractThreadPool</text>
</a>
</g>
</g>
<!-- Node3&#45;&gt;Node2 -->
<g id="edge2_Node000002_Node000003" class="edge">
<title>Node3&#45;&gt;Node2</title>
<g id="a_edge2_Node000002_Node000003"><a xlink:title=" ">
<path fill="none" stroke="#63b8ff" d="M635.9,-133.87C681.13,-122.93 744.7,-107.55 786.51,-97.43"/>
<polygon fill="#63b8ff" stroke="#63b8ff" points="635.19,-130.44 626.29,-136.19 636.84,-137.24 635.19,-130.44"/>
</a>
</g>
</g>
<!-- Node4 -->
<g id="Node000004" class="node">
<title>Node4</title>
<g id="a_Node000004"><a xlink:href="classAsyncFw_1_1AbstractThread.html" target="_top" xlink:title="The AbstractThread class provides the base functionality for thread management.">
<polygon fill="white" stroke="#666666" points="312.38,-162 182.38,-162 182.38,-142 312.38,-142 312.38,-162"/>
<text text-anchor="middle" x="247.38" y="-148.5" font-family="Helvetica,sans-Serif" font-size="10.00">AsyncFw::AbstractThread</text>
</a>
</g>
</g>
<!-- Node4&#45;&gt;Node3 -->
<g id="edge3_Node000003_Node000004" class="edge">
<title>Node4&#45;&gt;Node3</title>
<g id="a_edge3_Node000003_Node000004"><a xlink:title=" ">
<path fill="none" stroke="#9a32cd" stroke-dasharray="5,2" d="M323.95,-150.86C378.34,-150.04 451.35,-148.94 505.42,-148.12"/>
<polygon fill="#9a32cd" stroke="#9a32cd" points="324.1,-147.36 314.15,-151.01 324.2,-154.36 324.1,-147.36"/>
</a>
</g>
<text text-anchor="middle" x="403.12" y="-153.02" font-family="Helvetica,sans-Serif" font-size="10.00" fill="grey"> thread_</text>
</g>
<!-- Node5 -->
<g id="Node000005" class="node">
<title>Node5</title>
<g id="a_Node000005"><a xlink:href="classAsyncFw_1_1FunctionConnector.html" target="_top" xlink:title=" ">
<polygon fill="white" stroke="#666666" points="667.38,-115 493.88,-115 493.88,-59 667.38,-59 667.38,-115"/>
<text text-anchor="start" x="501.88" y="-101.5" font-family="Helvetica,sans-Serif" font-size="10.00">AsyncFw::FunctionConnector</text>
<text text-anchor="start" x="501.88" y="-89.5" font-family="Helvetica,sans-Serif" font-size="10.00">&lt; const AsyncFw::DataArraySocket</text>
<text text-anchor="start" x="501.88" y="-77.5" font-family="Helvetica,sans-Serif" font-size="10.00"> *, const AsyncFw::DataArray</text>
<text text-anchor="middle" x="580.62" y="-65.5" font-family="Helvetica,sans-Serif" font-size="10.00"> *, uint32_t &gt;</text>
</a>
</g>
</g>
<!-- Node5&#45;&gt;Node2 -->
<g id="edge4_Node000002_Node000005" class="edge">
<title>Node5&#45;&gt;Node2</title>
<g id="a_edge4_Node000002_Node000005"><a xlink:title=" ">
<path fill="none" stroke="#9a32cd" stroke-dasharray="5,2" d="M678.88,-87C702.72,-87 727.95,-87 750.8,-87"/>
<polygon fill="#9a32cd" stroke="#9a32cd" points="679.18,-83.5 669.18,-87 679.18,-90.5 679.18,-83.5"/>
</a>
</g>
<text text-anchor="middle" x="713.12" y="-89.5" font-family="Helvetica,sans-Serif" font-size="10.00" fill="grey"> received</text>
</g>
<!-- Node6 -->
<g id="Node000006" class="node">
<title>Node6</title>
<g id="a_Node000006"><a xlink:href="classAsyncFw_1_1AbstractFunctionConnector.html" target="_top" xlink:title="The AbstractFunctionConnector class provides the base functionality for FunctionConnector.">
<polygon fill="white" stroke="#666666" points="137.5,-61 0,-61 0,-29 137.5,-29 137.5,-61"/>
<text text-anchor="start" x="8" y="-47.5" font-family="Helvetica,sans-Serif" font-size="10.00">AsyncFw::AbstractFunction</text>
<text text-anchor="middle" x="68.75" y="-35.5" font-family="Helvetica,sans-Serif" font-size="10.00">Connector</text>
</a>
</g>
</g>
<!-- Node6&#45;&gt;Node5 -->
<g id="edge5_Node000005_Node000006" class="edge">
<title>Node6&#45;&gt;Node5</title>
<g id="a_edge5_Node000005_Node000006"><a xlink:title=" ">
<path fill="none" stroke="#63b8ff" d="M147.45,-64.03C156.55,-66.11 165.72,-68.15 174.5,-70 246.9,-85.26 264.56,-93.31 338.25,-100 395.68,-105.22 410.43,-103.34 468,-100 476.28,-99.52 484.88,-98.84 493.48,-98.04"/>
<polygon fill="#63b8ff" stroke="#63b8ff" points="148.41,-60.66 137.88,-61.81 146.83,-67.48 148.41,-60.66"/>
</a>
</g>
</g>
<!-- Node7 -->
<g id="Node000007" class="node">
<title>Node7</title>
<g id="a_Node000007"><a xlink:href="classAsyncFw_1_1FunctionConnector.html" target="_top" xlink:title="Provides a sender&#45;to&#45;receivers connection. Receivers can be invoked in their own threads (default beh...">
<polygon fill="white" stroke="#666666" points="320.25,-61 174.5,-61 174.5,-29 320.25,-29 320.25,-61"/>
<text text-anchor="start" x="182.5" y="-47.5" font-family="Helvetica,sans-Serif" font-size="10.00">AsyncFw::FunctionConnector</text>
<text text-anchor="middle" x="247.38" y="-35.5" font-family="Helvetica,sans-Serif" font-size="10.00">&lt; Args &gt;</text>
</a>
</g>
</g>
<!-- Node6&#45;&gt;Node7 -->
<g id="edge7_Node000007_Node000006" class="edge">
<title>Node6&#45;&gt;Node7</title>
<g id="a_edge7_Node000007_Node000006"><a xlink:title=" ">
<path fill="none" stroke="#63b8ff" d="M149.12,-45C157.5,-45 165.98,-45 174.27,-45"/>
<polygon fill="#63b8ff" stroke="#63b8ff" points="149.3,-41.5 139.3,-45 149.3,-48.5 149.3,-41.5"/>
</a>
</g>
</g>
<!-- Node8 -->
<g id="Node000008" class="node">
<title>Node8</title>
<g id="a_Node000008"><a xlink:href="classAsyncFw_1_1FunctionConnector.html" target="_top" xlink:title=" ">
<polygon fill="white" stroke="#666666" points="675.25,-32 486,-32 486,0 675.25,0 675.25,-32"/>
<text text-anchor="start" x="494" y="-18.5" font-family="Helvetica,sans-Serif" font-size="10.00">AsyncFw::FunctionConnector</text>
<text text-anchor="middle" x="580.62" y="-6.5" font-family="Helvetica,sans-Serif" font-size="10.00">&lt; const AsyncFw::DataArraySocket * &gt;</text>
</a>
</g>
</g>
<!-- Node6&#45;&gt;Node8 -->
<g id="edge9_Node000008_Node000006" class="edge">
<title>Node6&#45;&gt;Node8</title>
<g id="a_edge9_Node000008_Node000006"><a xlink:title=" ">
<path fill="none" stroke="#63b8ff" d="M143.47,-26.01C153.84,-23.75 164.41,-21.66 174.5,-20 303.39,1.17 337.54,1.41 468,-5 473.74,-5.28 479.64,-5.65 485.58,-6.07"/>
<polygon fill="#63b8ff" stroke="#63b8ff" points="142.79,-22.58 133.8,-28.19 144.32,-29.41 142.79,-22.58"/>
</a>
</g>
</g>
<!-- Node7&#45;&gt;Node5 -->
<g id="edge6_Node000005_Node000007" class="edge">
<title>Node7&#45;&gt;Node5</title>
<g id="a_edge6_Node000005_Node000007"><a xlink:title=" ">
<path fill="none" stroke="orange" stroke-dasharray="5,2" d="M331.68,-49.9C372.84,-52.91 423.17,-57.47 468,-64 476.32,-65.21 484.96,-66.66 493.57,-68.22"/>
<polygon fill="orange" stroke="orange" points="332.06,-46.42 321.84,-49.2 331.57,-53.4 332.06,-46.42"/>
</a>
</g>
<text text-anchor="start" x="338.25" y="-90.5" font-family="Helvetica,sans-Serif" font-size="10.00" fill="grey"> &lt; const AsyncFw::DataArray</text>
<text text-anchor="start" x="338.25" y="-78.5" font-family="Helvetica,sans-Serif" font-size="10.00" fill="grey">Socket *, const AsyncFw</text>
<text text-anchor="middle" x="403.12" y="-66.5" font-family="Helvetica,sans-Serif" font-size="10.00" fill="grey">::DataArray *, uint32_t &gt;</text>
</g>
<!-- Node7&#45;&gt;Node8 -->
<g id="edge10_Node000008_Node000007" class="edge">
<title>Node7&#45;&gt;Node8</title>
<g id="a_edge10_Node000008_Node000007"><a xlink:title=" ">
<path fill="none" stroke="orange" stroke-dasharray="5,2" d="M302.9,-25.18C314.43,-21.79 326.62,-18.79 338.25,-17 386.5,-9.56 440.82,-8.68 485.7,-9.94"/>
<polygon fill="orange" stroke="orange" points="302.07,-21.77 293.54,-28.07 304.13,-28.46 302.07,-21.77"/>
</a>
</g>
<text text-anchor="start" x="338.25" y="-31.5" font-family="Helvetica,sans-Serif" font-size="10.00" fill="grey"> &lt; const AsyncFw::DataArray</text>
<text text-anchor="middle" x="403.12" y="-19.5" font-family="Helvetica,sans-Serif" font-size="10.00" fill="grey">Socket * &gt;</text>
</g>
<!-- Node8&#45;&gt;Node1 -->
<g id="edge8_Node000001_Node000008" class="edge">
<title>Node8&#45;&gt;Node1</title>
<g id="a_edge8_Node000001_Node000008"><a xlink:title=" ">
<path fill="none" stroke="#9a32cd" stroke-dasharray="5,2" d="M686.86,-23.68C767.21,-29.54 875.85,-37.47 946.96,-42.65"/>
<polygon fill="#9a32cd" stroke="#9a32cd" points="687.46,-20.21 677.23,-22.97 686.95,-27.19 687.46,-20.21"/>
</a>
</g>
<text text-anchor="middle" x="830.62" y="-42.44" font-family="Helvetica,sans-Serif" font-size="10.00" fill="grey"> connectionStateChanged</text>
</g>
</g>
</svg>
