<?xml version="1.0" encoding="UTF-8" standalone="no"?>
<!DOCTYPE svg PUBLIC "-//W3C//DTD SVG 1.1//EN"
 "http://www.w3.org/Graphics/SVG/1.1/DTD/svg11.dtd">
<!-- Generated by graphviz version 14.1.3 (20260303.0454)
 -->
<!-- Title: AsyncFw::AbstractTlsSocket::write_fd Pages: 1 -->
<svg width="648pt" height="131pt"
 viewBox="0.00 0.00 648.00 131.00" xmlns="http://www.w3.org/2000/svg" xmlns:xlink="http://www.w3.org/1999/xlink">
<g id="graph0" class="graph" transform="scale(1 1) rotate(0) translate(4 127)">
<title>AsyncFw::AbstractTlsSocket::write_fd</title>
<!-- Node1 -->
<g id="Node000001" class="node">
<title>Node1</title>
<g id="a_Node000001"><a xlink:title="Low&#45;level encryption routing path proxying outgoing payload directly up to SSL_write().">
<polygon fill="#999999" stroke="#666666" points="144.25,-123 0,-123 0,-91 144.25,-91 144.25,-123"/>
<text xml:space="preserve" text-anchor="start" x="8" y="-109.5" font-family="Helvetica,sans-Serif" font-size="10.00">AsyncFw::AbstractTlsSocket</text>
<text xml:space="preserve" text-anchor="middle" x="72.12" y="-97.5" font-family="Helvetica,sans-Serif" font-size="10.00">::write_fd</text>
</a>
</g>
</g>
<!-- Node2 -->
<g id="Node000002" class="node">
<title>Node2</title>
<g id="a_Node000002"><a xlink:href="structAsyncFw_1_1AnyData.html#aa6d2c3488a44e34e25a0971b01a27b3c" target="_top" xlink:title="Type&#45;safely extracts and returns the stored data value.">
<polygon fill="white" stroke="#666666" points="640,-120 513.75,-120 513.75,-100 640,-100 640,-120"/>
<text xml:space="preserve" text-anchor="middle" x="576.88" y="-106.5" font-family="Helvetica,sans-Serif" font-size="10.00">AsyncFw::AnyData::data</text>
</a>
</g>
</g>
<!-- Node1&#45;&gt;Node2 -->
<g id="edge1_Node000001_Node000002" class="edge">
<title>Node1&#45;&gt;Node2</title>
<g id="a_edge1_Node000001_Node000002"><a xlink:title=" ">
<path fill="none" stroke="#63b8ff" d="M144.39,-108.85C225.21,-110.73 360.96,-113.19 477.75,-112 485.57,-111.92 493.73,-111.81 501.87,-111.67"/>
<polygon fill="#63b8ff" stroke="#63b8ff" points="501.88,-115.17 511.81,-111.49 501.75,-108.17 501.88,-115.17"/>
</a>
</g>
</g>
<!-- Node3 -->
<g id="Node000003" class="node">
<title>Node3</title>
<g id="a_Node000003"><a xlink:href="classAsyncFw_1_1AbstractSocket.html#a4659df5988d2af771d4feee9edec55d8" target="_top" xlink:title="Low&#45;level native operating system write operation proxying requests directly up to the fd handle.">
<polygon fill="white" stroke="#666666" points="311,-82 180.25,-82 180.25,-50 311,-50 311,-82"/>
<text xml:space="preserve" text-anchor="start" x="188.25" y="-68.5" font-family="Helvetica,sans-Serif" font-size="10.00">AsyncFw::AbstractSocket</text>
<text xml:space="preserve" text-anchor="middle" x="245.62" y="-56.5" font-family="Helvetica,sans-Serif" font-size="10.00">::write_fd</text>
</a>
</g>
</g>
<!-- Node1&#45;&gt;Node3 -->
<g id="edge2_Node000001_Node000003" class="edge">
<title>Node1&#45;&gt;Node3</title>
<g id="a_edge2_Node000001_Node000003"><a xlink:title=" ">
<path fill="none" stroke="#63b8ff" d="M141.89,-90.56C150.84,-88.42 160.04,-86.22 169.08,-84.06"/>
<polygon fill="#63b8ff" stroke="#63b8ff" points="169.63,-87.53 178.54,-81.8 168,-80.72 169.63,-87.53"/>
</a>
</g>
</g>
<!-- Node3&#45;&gt;Node2 -->
<g id="edge3_Node000003_Node000002" class="edge">
<title>Node3&#45;&gt;Node2</title>
<g id="a_edge3_Node000003_Node000002"><a xlink:title=" ">
<path fill="none" stroke="#63b8ff" d="M306.01,-82.47C319.4,-85.71 333.62,-88.79 347,-91 398.39,-99.48 456.93,-104.25 501.94,-106.89"/>
<polygon fill="#63b8ff" stroke="#63b8ff" points="501.68,-110.38 511.86,-107.45 502.07,-103.39 501.68,-110.38"/>
</a>
</g>
</g>
<!-- Node4 -->
<g id="Node000004" class="node">
<title>Node4</title>
<g id="a_Node000004"><a xlink:href="classAsyncFw_1_1AbstractSocket.html#a6b5bfbc488d553dca8a2d01b6b415482" target="_top" xlink:title="Writes raw binary bytes out to the network socket layer.">
<polygon fill="white" stroke="#666666" points="477.75,-82 347,-82 347,-50 477.75,-50 477.75,-82"/>
<text xml:space="preserve" text-anchor="start" x="355" y="-68.5" font-family="Helvetica,sans-Serif" font-size="10.00">AsyncFw::AbstractSocket</text>
<text xml:space="preserve" text-anchor="middle" x="412.38" y="-56.5" font-family="Helvetica,sans-Serif" font-size="10.00">::write</text>
</a>
</g>
</g>
<!-- Node3&#45;&gt;Node4 -->
<g id="edge4_Node000003_Node000004" class="edge">
<title>Node3&#45;&gt;Node4</title>
<g id="a_edge4_Node000003_Node000004"><a xlink:title=" ">
<path fill="none" stroke="#63b8ff" d="M311.27,-59.39C319.17,-59.26 327.3,-59.22 335.35,-59.27"/>
<polygon fill="#63b8ff" stroke="#63b8ff" points="335.1,-62.77 345.14,-59.37 335.18,-55.77 335.1,-62.77"/>
</a>
</g>
</g>
<!-- Node5 -->
<g id="Node000005" class="node">
<title>Node5</title>
<g id="a_Node000005"><a xlink:href="classAsyncFw_1_1AbstractSocket.html#af8141e7714603e6c83c0640a2d74ec90" target="_top" xlink:title="Called when writing to the socket is possible.">
<polygon fill="white" stroke="#666666" points="477.75,-32 347,-32 347,0 477.75,0 477.75,-32"/>
<text xml:space="preserve" text-anchor="start" x="355" y="-18.5" font-family="Helvetica,sans-Serif" font-size="10.00">AsyncFw::AbstractSocket</text>
<text xml:space="preserve" text-anchor="middle" x="412.38" y="-6.5" font-family="Helvetica,sans-Serif" font-size="10.00">::writeEvent</text>
</a>
</g>
</g>
<!-- Node3&#45;&gt;Node5 -->
<g id="edge7_Node000003_Node000005" class="edge">
<title>Node3&#45;&gt;Node5</title>
<g id="a_edge7_Node000003_Node000005"><a xlink:title=" ">
<path fill="none" stroke="#63b8ff" d="M300.57,-49.63C315.14,-45.2 331.07,-40.37 346.19,-35.78"/>
<polygon fill="#63b8ff" stroke="#63b8ff" points="347.03,-39.19 355.58,-32.93 344.99,-32.49 347.03,-39.19"/>
</a>
</g>
</g>
<!-- Node4&#45;&gt;Node2 -->
<g id="edge5_Node000004_Node000002" class="edge">
<title>Node4&#45;&gt;Node2</title>
<g id="a_edge5_Node000004_Node000002"><a xlink:title=" ">
<path fill="none" stroke="#63b8ff" d="M473.88,-82.38C491.19,-87.07 509.83,-92.12 526.39,-96.6"/>
<polygon fill="#63b8ff" stroke="#63b8ff" points="525.45,-99.97 536.02,-99.21 527.28,-93.22 525.45,-99.97"/>
</a>
</g>
</g>
<!-- Node4&#45;&gt;Node3 -->
<g id="edge6_Node000004_Node000003" class="edge">
<title>Node4&#45;&gt;Node3</title>
<g id="a_edge6_Node000004_Node000003"><a xlink:title=" ">
<path fill="none" stroke="#63b8ff" d="M346.65,-72.61C338.74,-72.74 330.61,-72.78 322.56,-72.73"/>
<polygon fill="#63b8ff" stroke="#63b8ff" points="322.82,-69.23 312.78,-72.63 322.74,-76.23 322.82,-69.23"/>
</a>
</g>
</g>
</g>
</svg>
