<?xml version="1.0" encoding="UTF-8" standalone="no"?>
<!DOCTYPE svg PUBLIC "-//W3C//DTD SVG 1.1//EN"
 "http://www.w3.org/Graphics/SVG/1.1/DTD/svg11.dtd">
<!-- Generated by graphviz version 12.2.1 (20241206.2353)
 -->
<!-- Title: AsyncFw::FunctionConnector&lt; Args &gt; Pages: 1 -->
<svg width="702pt" height="912pt"
 viewBox="0.00 0.00 702.00 912.21" xmlns="http://www.w3.org/2000/svg" xmlns:xlink="http://www.w3.org/1999/xlink">
<g id="graph0" class="graph" transform="scale(1 1) rotate(0) translate(4 908.21)">
<title>AsyncFw::FunctionConnector&lt; Args &gt;</title>
<!-- Node1 -->
<g id="Node000001" class="node">
<title>Node1</title>
<g id="a_Node000001"><a xlink:title="Provides a thread&#45;safe, publisher&#45;subscriber mechanism to establish sender&#45;to&#45;receivers connections.">
<polygon fill="#999999" stroke="#666666" points="320.25,-455.1 174.5,-455.1 174.5,-423.1 320.25,-423.1 320.25,-455.1"/>
<text text-anchor="start" x="182.5" y="-441.6" font-family="Helvetica,sans-Serif" font-size="10.00">AsyncFw::FunctionConnector</text>
<text text-anchor="middle" x="247.38" y="-429.6" font-family="Helvetica,sans-Serif" font-size="10.00">&lt; Args &gt;</text>
</a>
</g>
</g>
<!-- Node3 -->
<g id="Node000003" class="node">
<title>Node3</title>
<g id="a_Node000003"><a xlink:href="classAsyncFw_1_1FunctionConnector.html" target="_top" xlink:title=" ">
<polygon fill="white" stroke="#666666" points="672.25,-893.1 526.5,-893.1 526.5,-861.1 672.25,-861.1 672.25,-893.1"/>
<text text-anchor="start" x="534.5" y="-879.6" font-family="Helvetica,sans-Serif" font-size="10.00">AsyncFw::FunctionConnector</text>
<text text-anchor="middle" x="599.38" y="-867.6" font-family="Helvetica,sans-Serif" font-size="10.00">&lt; Args... &gt;</text>
</a>
</g>
</g>
<!-- Node1&#45;&gt;Node3 -->
<g id="edge2_Node000001_Node000003" class="edge">
<title>Node1&#45;&gt;Node3</title>
<g id="a_edge2_Node000001_Node000003"><a xlink:title=" ">
<path fill="none" stroke="orange" stroke-dasharray="5,2" d="M250.36,-466.8C256.96,-550.23 281.01,-796.59 338.25,-848.1 388.49,-893.31 468.17,-895.78 526.12,-889.9"/>
<polygon fill="orange" stroke="orange" points="253.87,-466.71 249.62,-457.01 246.89,-467.25 253.87,-466.71"/>
</a>
</g>
<text text-anchor="middle" x="412.5" y="-894.71" font-family="Helvetica,sans-Serif" font-size="10.00" fill="grey"> &lt; Args... &gt;</text>
</g>
<!-- Node4 -->
<g id="Node000004" class="node">
<title>Node4</title>
<g id="a_Node000004"><a xlink:href="classAsyncFw_1_1FunctionConnector.html" target="_top" xlink:title=" ">
<polygon fill="white" stroke="#666666" points="672.25,-843.1 526.5,-843.1 526.5,-799.1 672.25,-799.1 672.25,-843.1"/>
<text text-anchor="start" x="534.5" y="-829.6" font-family="Helvetica,sans-Serif" font-size="10.00">AsyncFw::FunctionConnector</text>
<text text-anchor="start" x="534.5" y="-817.6" font-family="Helvetica,sans-Serif" font-size="10.00">&lt; int, const std::vector</text>
<text text-anchor="middle" x="599.38" y="-805.6" font-family="Helvetica,sans-Serif" font-size="10.00">&lt; std::string &gt; &amp; &gt;</text>
</a>
</g>
</g>
<!-- Node1&#45;&gt;Node4 -->
<g id="edge3_Node000001_Node000004" class="edge">
<title>Node1&#45;&gt;Node4</title>
<g id="a_edge3_Node000001_Node000004"><a xlink:title=" ">
<path fill="none" stroke="orange" stroke-dasharray="5,2" d="M251.43,-466.51C260.36,-541.44 288.95,-746.91 338.25,-790.1 365.41,-813.89 458.91,-820.09 526.04,-821.38"/>
<polygon fill="orange" stroke="orange" points="254.93,-466.3 250.29,-456.77 247.97,-467.11 254.93,-466.3"/>
</a>
</g>
<text text-anchor="start" x="361.5" y="-834.48" font-family="Helvetica,sans-Serif" font-size="10.00" fill="grey"> &lt; int, const std::vector</text>
<text text-anchor="middle" x="412.5" y="-822.48" font-family="Helvetica,sans-Serif" font-size="10.00" fill="grey">&lt; std::string &gt; &amp; &gt;</text>
</g>
<!-- Node5 -->
<g id="Node000005" class="node">
<title>Node5</title>
<g id="a_Node000005"><a xlink:href="classAsyncFw_1_1FunctionConnector.html" target="_top" xlink:title=" ">
<polygon fill="white" stroke="#666666" points="688.38,-781.1 510.38,-781.1 510.38,-737.1 688.38,-737.1 688.38,-781.1"/>
<text text-anchor="start" x="518.38" y="-767.6" font-family="Helvetica,sans-Serif" font-size="10.00">AsyncFw::FunctionConnector</text>
<text text-anchor="start" x="518.38" y="-755.6" font-family="Helvetica,sans-Serif" font-size="10.00">&lt; const AsyncFw::ApplicationNotifier</text>
<text text-anchor="middle" x="599.38" y="-743.6" font-family="Helvetica,sans-Serif" font-size="10.00">::Value &amp; &gt;</text>
</a>
</g>
</g>
<!-- Node1&#45;&gt;Node5 -->
<g id="edge4_Node000001_Node000005" class="edge">
<title>Node1&#45;&gt;Node5</title>
<g id="a_edge4_Node000001_Node000005"><a xlink:title=" ">
<path fill="none" stroke="orange" stroke-dasharray="5,2" d="M252.72,-466.88C263.84,-534.07 295.47,-702.43 338.25,-737.1 364,-757.97 445.22,-762.17 510.14,-761.94"/>
<polygon fill="orange" stroke="orange" points="256.19,-466.37 251.13,-457.06 249.28,-467.49 256.19,-466.37"/>
</a>
</g>
<text text-anchor="start" x="345.75" y="-776.3" font-family="Helvetica,sans-Serif" font-size="10.00" fill="grey"> &lt; const AsyncFw::Application</text>
<text text-anchor="middle" x="412.5" y="-764.3" font-family="Helvetica,sans-Serif" font-size="10.00" fill="grey">Notifier::Value &amp; &gt;</text>
</g>
<!-- Node6 -->
<g id="Node000006" class="node">
<title>Node6</title>
<g id="a_Node000006"><a xlink:href="classAsyncFw_1_1FunctionConnector.html" target="_top" xlink:title=" ">
<polygon fill="white" stroke="#666666" points="686.12,-719.1 512.62,-719.1 512.62,-663.1 686.12,-663.1 686.12,-719.1"/>
<text text-anchor="start" x="520.62" y="-705.6" font-family="Helvetica,sans-Serif" font-size="10.00">AsyncFw::FunctionConnector</text>
<text text-anchor="start" x="520.62" y="-693.6" font-family="Helvetica,sans-Serif" font-size="10.00">&lt; const AsyncFw::DataArraySocket</text>
<text text-anchor="start" x="520.62" y="-681.6" font-family="Helvetica,sans-Serif" font-size="10.00"> *, const AsyncFw::DataArray</text>
<text text-anchor="middle" x="599.38" y="-669.6" font-family="Helvetica,sans-Serif" font-size="10.00"> *, uint32_t &gt;</text>
</a>
</g>
</g>
<!-- Node1&#45;&gt;Node6 -->
<g id="edge5_Node000001_Node000006" class="edge">
<title>Node1&#45;&gt;Node6</title>
<g id="a_edge5_Node000001_Node000006"><a xlink:title=" ">
<path fill="none" stroke="orange" stroke-dasharray="5,2" d="M251.05,-466.71C257.23,-514.04 277.02,-610.08 338.25,-657.1 387.2,-694.69 457.2,-702.01 512.26,-700.58"/>
<polygon fill="orange" stroke="orange" points="254.56,-466.55 249.91,-457.03 247.61,-467.37 254.56,-466.55"/>
</a>
</g>
<text text-anchor="start" x="347.62" y="-726.95" font-family="Helvetica,sans-Serif" font-size="10.00" fill="grey"> &lt; const AsyncFw::DataArray</text>
<text text-anchor="start" x="347.62" y="-714.95" font-family="Helvetica,sans-Serif" font-size="10.00" fill="grey">Socket *, const AsyncFw</text>
<text text-anchor="middle" x="412.5" y="-702.95" font-family="Helvetica,sans-Serif" font-size="10.00" fill="grey">::DataArray *, uint32_t &gt;</text>
</g>
<!-- Node7 -->
<g id="Node000007" class="node">
<title>Node7</title>
<g id="a_Node000007"><a xlink:href="classAsyncFw_1_1FunctionConnector.html" target="_top" xlink:title=" ">
<polygon fill="white" stroke="#666666" points="672.25,-645.1 526.5,-645.1 526.5,-613.1 672.25,-613.1 672.25,-645.1"/>
<text text-anchor="start" x="534.5" y="-631.6" font-family="Helvetica,sans-Serif" font-size="10.00">AsyncFw::FunctionConnector</text>
<text text-anchor="middle" x="599.38" y="-619.6" font-family="Helvetica,sans-Serif" font-size="10.00">&lt; AbstractSocket::State &gt;</text>
</a>
</g>
</g>
<!-- Node1&#45;&gt;Node7 -->
<g id="edge6_Node000001_Node000007" class="edge">
<title>Node1&#45;&gt;Node7</title>
<g id="a_edge6_Node000001_Node000007"><a xlink:title=" ">
<path fill="none" stroke="orange" stroke-dasharray="5,2" d="M254.66,-466.18C265.01,-504.08 289.54,-571.91 338.25,-604.1 393.51,-640.62 470.35,-643.61 526.18,-639.45"/>
<polygon fill="orange" stroke="orange" points="258.16,-465.72 252.27,-456.91 251.38,-467.47 258.16,-465.72"/>
</a>
</g>
<text text-anchor="middle" x="412.5" y="-643.37" font-family="Helvetica,sans-Serif" font-size="10.00" fill="grey"> &lt; AbstractSocket::State &gt;</text>
</g>
<!-- Node8 -->
<g id="Node000008" class="node">
<title>Node8</title>
<g id="a_Node000008"><a xlink:href="classAsyncFw_1_1FunctionConnector.html" target="_top" xlink:title=" ">
<polygon fill="white" stroke="#666666" points="672.25,-595.1 526.5,-595.1 526.5,-551.1 672.25,-551.1 672.25,-595.1"/>
<text text-anchor="start" x="534.5" y="-581.6" font-family="Helvetica,sans-Serif" font-size="10.00">AsyncFw::FunctionConnector</text>
<text text-anchor="start" x="534.5" y="-569.6" font-family="Helvetica,sans-Serif" font-size="10.00">&lt; const AsyncFw::DataArray</text>
<text text-anchor="middle" x="599.38" y="-557.6" font-family="Helvetica,sans-Serif" font-size="10.00"> *, uint32_t &gt;</text>
</a>
</g>
</g>
<!-- Node1&#45;&gt;Node8 -->
<g id="edge7_Node000001_Node000008" class="edge">
<title>Node1&#45;&gt;Node8</title>
<g id="a_edge7_Node000001_Node000008"><a xlink:title=" ">
<path fill="none" stroke="orange" stroke-dasharray="5,2" d="M263.53,-464.8C279.06,-488.61 305.54,-522.87 338.25,-540.1 396.35,-570.71 471.56,-577.3 526.16,-577.22"/>
<polygon fill="orange" stroke="orange" points="266.65,-463.19 258.36,-456.59 260.73,-466.92 266.65,-463.19"/>
</a>
</g>
<text text-anchor="start" x="347.62" y="-590.2" font-family="Helvetica,sans-Serif" font-size="10.00" fill="grey"> &lt; const AsyncFw::DataArray</text>
<text text-anchor="middle" x="412.5" y="-578.2" font-family="Helvetica,sans-Serif" font-size="10.00" fill="grey"> *, uint32_t &gt;</text>
</g>
<!-- Node9 -->
<g id="Node000009" class="node">
<title>Node9</title>
<g id="a_Node000009"><a xlink:href="classAsyncFw_1_1FunctionConnector.html" target="_top" xlink:title=" ">
<polygon fill="white" stroke="#666666" points="694,-533.1 504.75,-533.1 504.75,-501.1 694,-501.1 694,-533.1"/>
<text text-anchor="start" x="512.75" y="-519.6" font-family="Helvetica,sans-Serif" font-size="10.00">AsyncFw::FunctionConnector</text>
<text text-anchor="middle" x="599.38" y="-507.6" font-family="Helvetica,sans-Serif" font-size="10.00">&lt; const AsyncFw::DataArraySocket * &gt;</text>
</a>
</g>
</g>
<!-- Node1&#45;&gt;Node9 -->
<g id="edge8_Node000001_Node000009" class="edge">
<title>Node1&#45;&gt;Node9</title>
<g id="a_edge8_Node000001_Node000009"><a xlink:title=" ">
<path fill="none" stroke="orange" stroke-dasharray="5,2" d="M283.19,-461.09C299.35,-470.29 319.17,-480.19 338.25,-486.1 391.8,-502.68 454.08,-510.48 504.27,-514.11"/>
<polygon fill="orange" stroke="orange" points="285.35,-458.3 274.95,-456.27 281.81,-464.34 285.35,-458.3"/>
</a>
</g>
<text text-anchor="start" x="347.62" y="-527.01" font-family="Helvetica,sans-Serif" font-size="10.00" fill="grey"> &lt; const AsyncFw::DataArray</text>
<text text-anchor="middle" x="412.5" y="-515.01" font-family="Helvetica,sans-Serif" font-size="10.00" fill="grey">Socket * &gt;</text>
</g>
<!-- Node10 -->
<g id="Node000010" class="node">
<title>Node10</title>
<g id="a_Node000010"><a xlink:href="classAsyncFw_1_1FunctionConnector.html" target="_top" xlink:title=" ">
<polygon fill="white" stroke="#666666" points="672.25,-483.1 526.5,-483.1 526.5,-451.1 672.25,-451.1 672.25,-483.1"/>
<text text-anchor="start" x="534.5" y="-469.6" font-family="Helvetica,sans-Serif" font-size="10.00">AsyncFw::FunctionConnector</text>
<text text-anchor="middle" x="599.38" y="-457.6" font-family="Helvetica,sans-Serif" font-size="10.00">&lt; const std::string &amp;, int &gt;</text>
</a>
</g>
</g>
<!-- Node1&#45;&gt;Node10 -->
<g id="edge9_Node000001_Node000010" class="edge">
<title>Node1&#45;&gt;Node10</title>
<g id="a_edge9_Node000001_Node000010"><a xlink:title=" ">
<path fill="none" stroke="orange" stroke-dasharray="5,2" d="M331.66,-445.76C390.84,-450.5 469.53,-456.79 526.07,-461.32"/>
<polygon fill="orange" stroke="orange" points="332.23,-442.3 321.98,-444.99 331.67,-449.27 332.23,-442.3"/>
</a>
</g>
<text text-anchor="start" x="371.25" y="-472.54" font-family="Helvetica,sans-Serif" font-size="10.00" fill="grey"> &lt; const std::string</text>
<text text-anchor="middle" x="412.5" y="-460.54" font-family="Helvetica,sans-Serif" font-size="10.00" fill="grey"> &amp;, int &gt;</text>
</g>
<!-- Node11 -->
<g id="Node000011" class="node">
<title>Node11</title>
<g id="a_Node000011"><a xlink:href="classAsyncFw_1_1FunctionConnector.html" target="_top" xlink:title=" ">
<polygon fill="white" stroke="#666666" points="672.25,-433.1 526.5,-433.1 526.5,-389.1 672.25,-389.1 672.25,-433.1"/>
<text text-anchor="start" x="534.5" y="-419.6" font-family="Helvetica,sans-Serif" font-size="10.00">AsyncFw::FunctionConnector</text>
<text text-anchor="start" x="534.5" y="-407.6" font-family="Helvetica,sans-Serif" font-size="10.00">&lt; int, const std::string</text>
<text text-anchor="middle" x="599.38" y="-395.6" font-family="Helvetica,sans-Serif" font-size="10.00"> &amp;, bool * &gt;</text>
</a>
</g>
</g>
<!-- Node1&#45;&gt;Node11 -->
<g id="edge10_Node000001_Node000011" class="edge">
<title>Node1&#45;&gt;Node11</title>
<g id="a_edge10_Node000001_Node000011"><a xlink:title=" ">
<path fill="none" stroke="orange" stroke-dasharray="5,2" d="M327.14,-420.69C330.88,-420.1 334.6,-419.56 338.25,-419.1 401.35,-411.18 473.7,-409.55 526.05,-409.69"/>
<polygon fill="orange" stroke="orange" points="326.6,-417.23 317.35,-422.39 327.8,-424.13 326.6,-417.23"/>
</a>
</g>
<text text-anchor="start" x="363" y="-433.6" font-family="Helvetica,sans-Serif" font-size="10.00" fill="grey"> &lt; int, const std::string</text>
<text text-anchor="middle" x="412.5" y="-421.6" font-family="Helvetica,sans-Serif" font-size="10.00" fill="grey"> &amp;, bool * &gt;</text>
</g>
<!-- Node12 -->
<g id="Node000012" class="node">
<title>Node12</title>
<g id="a_Node000012"><a xlink:href="classAsyncFw_1_1FunctionConnector.html" target="_top" xlink:title=" ">
<polygon fill="white" stroke="#666666" points="672.25,-371.1 526.5,-371.1 526.5,-327.1 672.25,-327.1 672.25,-371.1"/>
<text text-anchor="start" x="534.5" y="-357.6" font-family="Helvetica,sans-Serif" font-size="10.00">AsyncFw::FunctionConnector</text>
<text text-anchor="start" x="534.5" y="-345.6" font-family="Helvetica,sans-Serif" font-size="10.00">&lt; const AbstractSocket::</text>
<text text-anchor="middle" x="599.38" y="-333.6" font-family="Helvetica,sans-Serif" font-size="10.00">State &gt;</text>
</a>
</g>
</g>
<!-- Node1&#45;&gt;Node12 -->
<g id="edge11_Node000001_Node000012" class="edge">
<title>Node1&#45;&gt;Node12</title>
<g id="a_edge11_Node000001_Node000012"><a xlink:title=" ">
<path fill="none" stroke="orange" stroke-dasharray="5,2" d="M277.66,-415.86C294.45,-403.79 316.45,-389.95 338.25,-382.1 399.17,-360.16 472.71,-352.41 526.03,-349.86"/>
<polygon fill="orange" stroke="orange" points="275.59,-413.04 269.65,-421.8 279.76,-418.66 275.59,-413.04"/>
</a>
</g>
<text text-anchor="start" x="359.62" y="-396.6" font-family="Helvetica,sans-Serif" font-size="10.00" fill="grey"> &lt; const AbstractSocket</text>
<text text-anchor="middle" x="412.5" y="-384.6" font-family="Helvetica,sans-Serif" font-size="10.00" fill="grey">::State &gt;</text>
</g>
<!-- Node13 -->
<g id="Node000013" class="node">
<title>Node13</title>
<g id="a_Node000013"><a xlink:href="classAsyncFw_1_1FunctionConnector.html" target="_top" xlink:title=" ">
<polygon fill="white" stroke="#666666" points="680.12,-309.1 518.62,-309.1 518.62,-277.1 680.12,-277.1 680.12,-309.1"/>
<text text-anchor="start" x="526.62" y="-295.6" font-family="Helvetica,sans-Serif" font-size="10.00">AsyncFw::FunctionConnector</text>
<text text-anchor="middle" x="599.38" y="-283.6" font-family="Helvetica,sans-Serif" font-size="10.00">&lt; const AsyncFw::DataArray &amp; &gt;</text>
</a>
</g>
</g>
<!-- Node1&#45;&gt;Node13 -->
<g id="edge12_Node000001_Node000013" class="edge">
<title>Node1&#45;&gt;Node13</title>
<g id="a_edge12_Node000001_Node000013"><a xlink:title=" ">
<path fill="none" stroke="orange" stroke-dasharray="5,2" d="M263.63,-413.45C279.24,-389.62 305.77,-355.18 338.25,-337.1 393.27,-306.46 464.23,-296.04 518.14,-292.96"/>
<polygon fill="orange" stroke="orange" points="260.83,-411.33 258.43,-421.65 266.74,-415.08 260.83,-411.33"/>
</a>
</g>
<text text-anchor="middle" x="412.5" y="-339.6" font-family="Helvetica,sans-Serif" font-size="10.00" fill="grey"> &lt; const AsyncFw::DataArray &amp; &gt;</text>
</g>
<!-- Node14 -->
<g id="Node000014" class="node">
<title>Node14</title>
<g id="a_Node000014"><a xlink:href="classAsyncFw_1_1FunctionConnector.html" target="_top" xlink:title=" ">
<polygon fill="white" stroke="#666666" points="672.25,-259.1 526.5,-259.1 526.5,-227.1 672.25,-227.1 672.25,-259.1"/>
<text text-anchor="start" x="534.5" y="-245.6" font-family="Helvetica,sans-Serif" font-size="10.00">AsyncFw::FunctionConnector</text>
<text text-anchor="middle" x="599.38" y="-233.6" font-family="Helvetica,sans-Serif" font-size="10.00">&lt; int &gt;</text>
</a>
</g>
</g>
<!-- Node1&#45;&gt;Node14 -->
<g id="edge13_Node000001_Node000014" class="edge">
<title>Node1&#45;&gt;Node14</title>
<g id="a_edge13_Node000001_Node000014"><a xlink:title=" ">
<path fill="none" stroke="orange" stroke-dasharray="5,2" d="M255.55,-411.97C266.71,-375.53 291.93,-311.71 338.25,-280.1 393.26,-242.56 470.13,-235.81 526.04,-236.93"/>
<polygon fill="orange" stroke="orange" points="252.27,-410.73 252.83,-421.31 258.99,-412.69 252.27,-410.73"/>
</a>
</g>
<text text-anchor="middle" x="412.5" y="-282.6" font-family="Helvetica,sans-Serif" font-size="10.00" fill="grey"> &lt; int &gt;</text>
</g>
<!-- Node15 -->
<g id="Node000015" class="node">
<title>Node15</title>
<g id="a_Node000015"><a xlink:href="classAsyncFw_1_1FunctionConnector.html" target="_top" xlink:title=" ">
<polygon fill="white" stroke="#666666" points="677.5,-209.1 521.25,-209.1 521.25,-165.1 677.5,-165.1 677.5,-209.1"/>
<text text-anchor="start" x="529.25" y="-195.6" font-family="Helvetica,sans-Serif" font-size="10.00">AsyncFw::FunctionConnector</text>
<text text-anchor="start" x="529.25" y="-183.6" font-family="Helvetica,sans-Serif" font-size="10.00">&lt; const AsyncFw::MulticastDns</text>
<text text-anchor="middle" x="599.38" y="-171.6" font-family="Helvetica,sans-Serif" font-size="10.00">::Host &amp; &gt;</text>
</a>
</g>
</g>
<!-- Node1&#45;&gt;Node15 -->
<g id="edge14_Node000001_Node000015" class="edge">
<title>Node1&#45;&gt;Node15</title>
<g id="a_edge14_Node000001_Node000015"><a xlink:title=" ">
<path fill="none" stroke="orange" stroke-dasharray="5,2" d="M250.23,-411.27C255.17,-361.71 273.16,-258.82 338.25,-210.1 389.97,-171.39 464.71,-168.65 520.82,-173.83"/>
<polygon fill="orange" stroke="orange" points="246.75,-410.88 249.37,-421.15 253.73,-411.49 246.75,-410.88"/>
</a>
</g>
<text text-anchor="start" x="349.88" y="-224.6" font-family="Helvetica,sans-Serif" font-size="10.00" fill="grey"> &lt; const AsyncFw::Multicast</text>
<text text-anchor="middle" x="412.5" y="-212.6" font-family="Helvetica,sans-Serif" font-size="10.00" fill="grey">Dns::Host &amp; &gt;</text>
</g>
<!-- Node16 -->
<g id="Node000016" class="node">
<title>Node16</title>
<g id="a_Node000016"><a xlink:href="classAsyncFw_1_1FunctionConnector.html" target="_top" xlink:title=" ">
<polygon fill="white" stroke="#666666" points="676,-147.1 522.75,-147.1 522.75,-115.1 676,-115.1 676,-147.1"/>
<text text-anchor="start" x="530.75" y="-133.6" font-family="Helvetica,sans-Serif" font-size="10.00">AsyncFw::FunctionConnector</text>
<text text-anchor="middle" x="599.38" y="-121.6" font-family="Helvetica,sans-Serif" font-size="10.00">&lt; AbstractThread::PollEvents &gt;</text>
</a>
</g>
</g>
<!-- Node1&#45;&gt;Node16 -->
<g id="edge15_Node000001_Node000016" class="edge">
<title>Node1&#45;&gt;Node16</title>
<g id="a_edge15_Node000001_Node000016"><a xlink:title=" ">
<path fill="none" stroke="orange" stroke-dasharray="5,2" d="M247.91,-411.14C248.61,-353.16 259.24,-219.93 338.25,-156.1 389.24,-114.9 465.55,-112.25 522.34,-117.75"/>
<polygon fill="orange" stroke="orange" points="244.41,-411.11 247.89,-421.12 251.41,-411.12 244.41,-411.11"/>
</a>
</g>
<text text-anchor="middle" x="412.5" y="-158.6" font-family="Helvetica,sans-Serif" font-size="10.00" fill="grey"> &lt; AbstractThread::PollEvents &gt;</text>
</g>
<!-- Node17 -->
<g id="Node000017" class="node">
<title>Node17</title>
<g id="a_Node000017"><a xlink:href="classAsyncFw_1_1FunctionConnector.html" target="_top" xlink:title=" ">
<polygon fill="white" stroke="#666666" points="672.25,-97.1 526.5,-97.1 526.5,-65.1 672.25,-65.1 672.25,-97.1"/>
<text text-anchor="start" x="534.5" y="-83.6" font-family="Helvetica,sans-Serif" font-size="10.00">AsyncFw::FunctionConnector</text>
<text text-anchor="middle" x="599.38" y="-71.6" font-family="Helvetica,sans-Serif" font-size="10.00">&lt; State &gt;</text>
</a>
</g>
</g>
<!-- Node1&#45;&gt;Node17 -->
<g id="edge16_Node000001_Node000017" class="edge">
<title>Node1&#45;&gt;Node17</title>
<g id="a_edge16_Node000001_Node000017"><a xlink:title=" ">
<path fill="none" stroke="orange" stroke-dasharray="5,2" d="M251.54,-412C260.66,-338.91 289.52,-140.5 338.25,-100.1 389.84,-57.32 468.72,-57.66 526.09,-65.55"/>
<polygon fill="orange" stroke="orange" points="248.12,-411.14 250.38,-421.49 255.07,-411.99 248.12,-411.14"/>
</a>
</g>
<text text-anchor="middle" x="412.5" y="-102.6" font-family="Helvetica,sans-Serif" font-size="10.00" fill="grey"> &lt; State &gt;</text>
</g>
<!-- Node18 -->
<g id="Node000018" class="node">
<title>Node18</title>
<g id="a_Node000018"><a xlink:href="classAsyncFw_1_1FunctionConnector.html" target="_top" xlink:title=" ">
<polygon fill="white" stroke="#666666" points="672.25,-47.1 526.5,-47.1 526.5,-15.1 672.25,-15.1 672.25,-47.1"/>
<text text-anchor="start" x="534.5" y="-33.6" font-family="Helvetica,sans-Serif" font-size="10.00">AsyncFw::FunctionConnector</text>
<text text-anchor="middle" x="599.38" y="-21.6" font-family="Helvetica,sans-Serif" font-size="10.00">&lt; const std::string &amp;, bool &gt;</text>
</a>
</g>
</g>
<!-- Node1&#45;&gt;Node18 -->
<g id="edge17_Node000001_Node000018" class="edge">
<title>Node1&#45;&gt;Node18</title>
<g id="a_edge17_Node000001_Node000018"><a xlink:title=" ">
<path fill="none" stroke="orange" stroke-dasharray="5,2" d="M250.17,-411.33C256.2,-327.74 278.8,-81.2 338.25,-33.1 397.14,14.56 490.55,0.61 547.95,-14.66"/>
<polygon fill="orange" stroke="orange" points="246.69,-410.93 249.49,-421.15 253.67,-411.41 246.69,-410.93"/>
</a>
</g>
<text text-anchor="start" x="371.25" y="-47.6" font-family="Helvetica,sans-Serif" font-size="10.00" fill="grey"> &lt; const std::string</text>
<text text-anchor="middle" x="412.5" y="-35.6" font-family="Helvetica,sans-Serif" font-size="10.00" fill="grey"> &amp;, bool &gt;</text>
</g>
<!-- Node2 -->
<g id="Node000002" class="node">
<title>Node2</title>
<g id="a_Node000002"><a xlink:href="classAsyncFw_1_1AbstractFunctionConnector.html" target="_top" xlink:title="The AbstractFunctionConnector class provides the base functionality for FunctionConnector.">
<polygon fill="white" stroke="#666666" points="137.5,-455.1 0,-455.1 0,-423.1 137.5,-423.1 137.5,-455.1"/>
<text text-anchor="start" x="8" y="-441.6" font-family="Helvetica,sans-Serif" font-size="10.00">AsyncFw::AbstractFunction</text>
<text text-anchor="middle" x="68.75" y="-429.6" font-family="Helvetica,sans-Serif" font-size="10.00">Connector</text>
</a>
</g>
</g>
<!-- Node2&#45;&gt;Node1 -->
<g id="edge1_Node000001_Node000002" class="edge">
<title>Node2&#45;&gt;Node1</title>
<g id="a_edge1_Node000001_Node000002"><a xlink:title=" ">
<path fill="none" stroke="#63b8ff" d="M149.12,-439.1C157.5,-439.1 165.98,-439.1 174.27,-439.1"/>
<polygon fill="#63b8ff" stroke="#63b8ff" points="149.3,-435.6 139.3,-439.1 149.3,-442.6 149.3,-435.6"/>
</a>
</g>
</g>
</g>
</svg>
