<?xml version="1.0" encoding="UTF-8" standalone="no"?>
<!DOCTYPE svg PUBLIC "-//W3C//DTD SVG 1.1//EN"
 "http://www.w3.org/Graphics/SVG/1.1/DTD/svg11.dtd">
<!-- Generated by graphviz version 12.2.1 (20241206.2353)
 -->
<!-- Title: AsyncFw::FileSystemWatcher::paths Pages: 1 -->
<svg width="526pt" height="140pt"
 viewBox="0.00 0.00 526.25 140.00" xmlns="http://www.w3.org/2000/svg" xmlns:xlink="http://www.w3.org/1999/xlink">
<g id="graph0" class="graph" transform="scale(1 1) rotate(0) translate(4 136)">
<title>AsyncFw::FileSystemWatcher::paths</title>
<!-- Node1 -->
<g id="Node000001" class="node">
<title>Node1</title>
<g id="a_Node000001"><a xlink:title="Obtains a list of all currently registered file paths.">
<polygon fill="#999999" stroke="#666666" points="518.25,-82 369.5,-82 369.5,-50 518.25,-50 518.25,-82"/>
<text text-anchor="start" x="377.5" y="-68.5" font-family="Helvetica,sans-Serif" font-size="10.00">AsyncFw::FileSystemWatcher</text>
<text text-anchor="middle" x="443.88" y="-56.5" font-family="Helvetica,sans-Serif" font-size="10.00">::paths</text>
</a>
</g>
</g>
<!-- Node2 -->
<g id="Node000002" class="node">
<title>Node2</title>
<g id="a_Node000002"><a xlink:href="classAsyncFw_1_1FileSystemWatcher.html#aa4e37387e27aa1508584b7d0b199d165" target="_top" xlink:title="Registers multiple file paths into the observation pool.">
<polygon fill="white" stroke="#666666" points="333.5,-132 184.75,-132 184.75,-100 333.5,-100 333.5,-132"/>
<text text-anchor="start" x="192.75" y="-118.5" font-family="Helvetica,sans-Serif" font-size="10.00">AsyncFw::FileSystemWatcher</text>
<text text-anchor="middle" x="259.12" y="-106.5" font-family="Helvetica,sans-Serif" font-size="10.00">::addPaths</text>
</a>
</g>
</g>
<!-- Node1&#45;&gt;Node2 -->
<g id="edge1_Node000001_Node000002" class="edge">
<title>Node1&#45;&gt;Node2</title>
<g id="a_edge1_Node000001_Node000002"><a xlink:title=" ">
<path fill="none" stroke="#63b8ff" d="M371.76,-85.46C354.74,-90.11 336.73,-95.04 320.25,-99.55"/>
<polygon fill="#63b8ff" stroke="#63b8ff" points="372.6,-88.86 381.32,-82.84 370.75,-82.1 372.6,-88.86"/>
</a>
</g>
</g>
<!-- Node3 -->
<g id="Node000003" class="node">
<title>Node3</title>
<g id="a_Node000003"><a xlink:href="classAsyncFw_1_1FileSystemWatcher.html#acd061a60fbaea1bb3c7d020e0da99039" target="_top" xlink:title="Constructs a FileSystemWatcher and optionally starts monitoring given paths.">
<polygon fill="white" stroke="#666666" points="333.5,-82 184.75,-82 184.75,-50 333.5,-50 333.5,-82"/>
<text text-anchor="start" x="192.75" y="-68.5" font-family="Helvetica,sans-Serif" font-size="10.00">AsyncFw::FileSystemWatcher</text>
<text text-anchor="middle" x="259.12" y="-56.5" font-family="Helvetica,sans-Serif" font-size="10.00">::FileSystemWatcher</text>
</a>
</g>
</g>
<!-- Node1&#45;&gt;Node3 -->
<g id="edge2_Node000001_Node000003" class="edge">
<title>Node1&#45;&gt;Node3</title>
<g id="a_edge2_Node000001_Node000003"><a xlink:title=" ">
<path fill="none" stroke="#63b8ff" d="M357.56,-66C349.66,-66 341.69,-66 333.91,-66"/>
<polygon fill="#63b8ff" stroke="#63b8ff" points="357.56,-69.5 367.56,-66 357.56,-62.5 357.56,-69.5"/>
</a>
</g>
</g>
<!-- Node5 -->
<g id="Node000005" class="node">
<title>Node5</title>
<g id="a_Node000005"><a xlink:href="classAsyncFw_1_1FileSystemWatcher.html#a437baed4f56fd823fa2ba42dc5be781c" target="_top" xlink:title="Unregisters multiple file paths from the observation pool.">
<polygon fill="white" stroke="#666666" points="333.5,-32 184.75,-32 184.75,0 333.5,0 333.5,-32"/>
<text text-anchor="start" x="192.75" y="-18.5" font-family="Helvetica,sans-Serif" font-size="10.00">AsyncFw::FileSystemWatcher</text>
<text text-anchor="middle" x="259.12" y="-6.5" font-family="Helvetica,sans-Serif" font-size="10.00">::removePaths</text>
</a>
</g>
</g>
<!-- Node1&#45;&gt;Node5 -->
<g id="edge4_Node000001_Node000005" class="edge">
<title>Node1&#45;&gt;Node5</title>
<g id="a_edge4_Node000001_Node000005"><a xlink:title=" ">
<path fill="none" stroke="#63b8ff" d="M371.76,-46.54C354.74,-41.89 336.73,-36.96 320.25,-32.45"/>
<polygon fill="#63b8ff" stroke="#63b8ff" points="370.75,-49.9 381.32,-49.16 372.6,-43.14 370.75,-49.9"/>
</a>
</g>
</g>
<!-- Node4 -->
<g id="Node000004" class="node">
<title>Node4</title>
<g id="a_Node000004"><a xlink:href="classAsyncFw_1_1FileSystemWatcher.html#a16b4210d215a3b340c98f650d2071114" target="_top" xlink:title="Retrieves the global instance pointer of the active FileSystemWatcher.">
<polygon fill="white" stroke="#666666" points="148.75,-82 0,-82 0,-50 148.75,-50 148.75,-82"/>
<text text-anchor="start" x="8" y="-68.5" font-family="Helvetica,sans-Serif" font-size="10.00">AsyncFw::FileSystemWatcher</text>
<text text-anchor="middle" x="74.38" y="-56.5" font-family="Helvetica,sans-Serif" font-size="10.00">::instance</text>
</a>
</g>
</g>
<!-- Node3&#45;&gt;Node4 -->
<g id="edge3_Node000003_Node000004" class="edge">
<title>Node3&#45;&gt;Node4</title>
<g id="a_edge3_Node000003_Node000004"><a xlink:title=" ">
<path fill="none" stroke="#63b8ff" d="M172.81,-66C164.91,-66 156.94,-66 149.16,-66"/>
<polygon fill="#63b8ff" stroke="#63b8ff" points="172.81,-69.5 182.81,-66 172.81,-62.5 172.81,-69.5"/>
</a>
</g>
</g>
</g>
</svg>
