<?xml version="1.0" encoding="UTF-8" standalone="no"?>
<!DOCTYPE svg PUBLIC "-//W3C//DTD SVG 1.1//EN"
 "http://www.w3.org/Graphics/SVG/1.1/DTD/svg11.dtd">
<!-- Generated by graphviz version 14.1.3 (20260303.0454)
 -->
<!-- Title: AsyncFw::FunctionConnector&lt; Args &gt; Pages: 1 -->
<svg width="540pt" height="948pt"
 viewBox="0.00 0.00 540.00 948.00" xmlns="http://www.w3.org/2000/svg" xmlns:xlink="http://www.w3.org/1999/xlink">
<g id="graph0" class="graph" transform="scale(1 1) rotate(0) translate(4 943.54)">
<title>AsyncFw::FunctionConnector&lt; Args &gt;</title>
<!-- Node1 -->
<g id="Node000001" class="node">
<title>Node1</title>
<g id="a_Node000001"><a xlink:title="Provides a thread&#45;safe, publisher&#45;subscriber mechanism to establish sender&#45;to&#45;receivers connections.">
<polygon fill="#999999" stroke="#666666" points="145.75,-453.07 0,-453.07 0,-421.07 145.75,-421.07 145.75,-453.07"/>
<text xml:space="preserve" text-anchor="start" x="8" y="-439.57" font-family="Helvetica,sans-Serif" font-size="10.00">AsyncFw::FunctionConnector</text>
<text xml:space="preserve" text-anchor="middle" x="72.88" y="-427.57" font-family="Helvetica,sans-Serif" font-size="10.00">&lt; Args &gt;</text>
</a>
</g>
</g>
<!-- Node2 -->
<g id="Node000002" class="node">
<title>Node2</title>
<g id="a_Node000002"><a xlink:href="classAsyncFw_1_1FunctionConnector.html" target="_top" xlink:title=" ">
<polygon fill="white" stroke="#666666" points="510.5,-907.07 364.75,-907.07 364.75,-863.07 510.5,-863.07 510.5,-907.07"/>
<text xml:space="preserve" text-anchor="start" x="372.75" y="-893.57" font-family="Helvetica,sans-Serif" font-size="10.00">AsyncFw::FunctionConnector</text>
<text xml:space="preserve" text-anchor="start" x="372.75" y="-881.57" font-family="Helvetica,sans-Serif" font-size="10.00">&lt; int, const std::vector</text>
<text xml:space="preserve" text-anchor="middle" x="437.62" y="-869.57" font-family="Helvetica,sans-Serif" font-size="10.00">&lt; std::string &gt; &amp; &gt;</text>
</a>
</g>
</g>
<!-- Node1&#45;&gt;Node2 -->
<g id="edge1_Node000001_Node000002" class="edge">
<title>Node1&#45;&gt;Node2</title>
<g id="a_edge1_Node000001_Node000002"><a xlink:title=" ">
<path fill="none" stroke="orange" stroke-dasharray="5,2" d="M75.51,-464.56C81.23,-550.24 103.31,-809.89 163.75,-863.07 217.8,-910.64 303.45,-909.61 364.36,-900.85"/>
<polygon fill="orange" stroke="orange" points="79.02,-464.5 74.88,-454.74 72.03,-464.94 79.02,-464.5"/>
</a>
</g>
<text xml:space="preserve" text-anchor="start" x="194.88" y="-926.79" font-family="Helvetica,sans-Serif" font-size="10.00" fill="grey">&lt; int, const std::vector</text>
<text xml:space="preserve" text-anchor="start" x="194.88" y="-910.79" font-family="Helvetica,sans-Serif" font-size="10.00" fill="grey">  &lt; std::string &gt; &amp; &gt;</text>
</g>
<!-- Node3 -->
<g id="Node000003" class="node">
<title>Node3</title>
<g id="a_Node000003"><a xlink:href="classAsyncFw_1_1FunctionConnector.html" target="_top" xlink:title=" ">
<polygon fill="white" stroke="#666666" points="526.62,-845.07 348.62,-845.07 348.62,-801.07 526.62,-801.07 526.62,-845.07"/>
<text xml:space="preserve" text-anchor="start" x="356.62" y="-831.57" font-family="Helvetica,sans-Serif" font-size="10.00">AsyncFw::FunctionConnector</text>
<text xml:space="preserve" text-anchor="start" x="356.62" y="-819.57" font-family="Helvetica,sans-Serif" font-size="10.00">&lt; const AsyncFw::ApplicationNotifier</text>
<text xml:space="preserve" text-anchor="middle" x="437.62" y="-807.57" font-family="Helvetica,sans-Serif" font-size="10.00">::Value &amp; &gt;</text>
</a>
</g>
</g>
<!-- Node1&#45;&gt;Node3 -->
<g id="edge2_Node000001_Node000003" class="edge">
<title>Node1&#45;&gt;Node3</title>
<g id="a_edge2_Node000001_Node000003"><a xlink:title=" ">
<path fill="none" stroke="orange" stroke-dasharray="5,2" d="M76.61,-464.42C84.89,-541.02 112.25,-755.03 163.75,-799.07 190.76,-822.18 279.29,-826.48 348.27,-826.07"/>
<polygon fill="orange" stroke="orange" points="80.14,-464.43 75.61,-454.86 73.17,-465.17 80.14,-464.43"/>
</a>
</g>
<text xml:space="preserve" text-anchor="start" x="179.12" y="-847.27" font-family="Helvetica,sans-Serif" font-size="10.00" fill="grey">&lt; const AsyncFw::Application</text>
<text xml:space="preserve" text-anchor="start" x="179.12" y="-831.27" font-family="Helvetica,sans-Serif" font-size="10.00" fill="grey">  Notifier::Value &amp; &gt;</text>
</g>
<!-- Node4 -->
<g id="Node000004" class="node">
<title>Node4</title>
<g id="a_Node000004"><a xlink:href="classAsyncFw_1_1FunctionConnector.html" target="_top" xlink:title=" ">
<polygon fill="white" stroke="#666666" points="524.38,-783.07 350.88,-783.07 350.88,-727.07 524.38,-727.07 524.38,-783.07"/>
<text xml:space="preserve" text-anchor="start" x="358.88" y="-769.57" font-family="Helvetica,sans-Serif" font-size="10.00">AsyncFw::FunctionConnector</text>
<text xml:space="preserve" text-anchor="start" x="358.88" y="-757.57" font-family="Helvetica,sans-Serif" font-size="10.00">&lt; const AsyncFw::DataArraySocket</text>
<text xml:space="preserve" text-anchor="start" x="358.88" y="-745.57" font-family="Helvetica,sans-Serif" font-size="10.00"> *, const AsyncFw::DataArray</text>
<text xml:space="preserve" text-anchor="middle" x="437.62" y="-733.57" font-family="Helvetica,sans-Serif" font-size="10.00"> *, uint32_t &gt;</text>
</a>
</g>
</g>
<!-- Node1&#45;&gt;Node4 -->
<g id="edge3_Node000001_Node000004" class="edge">
<title>Node1&#45;&gt;Node4</title>
<g id="a_edge3_Node000001_Node000004"><a xlink:title=" ">
<path fill="none" stroke="orange" stroke-dasharray="5,2" d="M73.68,-464.6C74.89,-521.72 86.43,-653.21 163.75,-718.07 178.01,-730.04 275.92,-741.14 350.42,-748"/>
<polygon fill="orange" stroke="orange" points="77.18,-464.76 73.57,-454.8 70.18,-464.83 77.18,-464.76"/>
</a>
</g>
<text xml:space="preserve" text-anchor="start" x="181" y="-782.78" font-family="Helvetica,sans-Serif" font-size="10.00" fill="grey">&lt; const AsyncFw::DataArray</text>
<text xml:space="preserve" text-anchor="start" x="181" y="-766.78" font-family="Helvetica,sans-Serif" font-size="10.00" fill="grey">  Socket *, const AsyncFw</text>
<text xml:space="preserve" text-anchor="start" x="181" y="-750.78" font-family="Helvetica,sans-Serif" font-size="10.00" fill="grey">  ::DataArray *, uint32_t &gt;</text>
</g>
<!-- Node5 -->
<g id="Node000005" class="node">
<title>Node5</title>
<g id="a_Node000005"><a xlink:href="classAsyncFw_1_1FunctionConnector.html" target="_top" xlink:title=" ">
<polygon fill="white" stroke="#666666" points="510.5,-709.07 364.75,-709.07 364.75,-677.07 510.5,-677.07 510.5,-709.07"/>
<text xml:space="preserve" text-anchor="start" x="372.75" y="-695.57" font-family="Helvetica,sans-Serif" font-size="10.00">AsyncFw::FunctionConnector</text>
<text xml:space="preserve" text-anchor="middle" x="437.62" y="-683.57" font-family="Helvetica,sans-Serif" font-size="10.00">&lt; AbstractSocket::State &gt;</text>
</a>
</g>
</g>
<!-- Node1&#45;&gt;Node5 -->
<g id="edge4_Node000001_Node000005" class="edge">
<title>Node1&#45;&gt;Node5</title>
<g id="a_edge4_Node000001_Node000005"><a xlink:title=" ">
<path fill="none" stroke="orange" stroke-dasharray="5,2" d="M75.39,-464.49C79.8,-514.76 96.95,-621.1 163.75,-671.07 194.39,-693.99 294.42,-696.79 364.44,-695.7"/>
<polygon fill="orange" stroke="orange" points="78.9,-464.48 74.66,-454.77 71.92,-465.01 78.9,-464.48"/>
</a>
</g>
<text xml:space="preserve" text-anchor="start" x="187.38" y="-700.99" font-family="Helvetica,sans-Serif" font-size="10.00" fill="grey">&lt; AbstractSocket::State &gt;</text>
</g>
<!-- Node6 -->
<g id="Node000006" class="node">
<title>Node6</title>
<g id="a_Node000006"><a xlink:href="classAsyncFw_1_1FunctionConnector.html" target="_top" xlink:title=" ">
<polygon fill="white" stroke="#666666" points="510.5,-659.07 364.75,-659.07 364.75,-615.07 510.5,-615.07 510.5,-659.07"/>
<text xml:space="preserve" text-anchor="start" x="372.75" y="-645.57" font-family="Helvetica,sans-Serif" font-size="10.00">AsyncFw::FunctionConnector</text>
<text xml:space="preserve" text-anchor="start" x="372.75" y="-633.57" font-family="Helvetica,sans-Serif" font-size="10.00">&lt; const AsyncFw::DataArray</text>
<text xml:space="preserve" text-anchor="middle" x="437.62" y="-621.57" font-family="Helvetica,sans-Serif" font-size="10.00"> *, uint32_t &gt;</text>
</a>
</g>
</g>
<!-- Node1&#45;&gt;Node6 -->
<g id="edge5_Node000001_Node000006" class="edge">
<title>Node1&#45;&gt;Node6</title>
<g id="a_edge5_Node000001_Node000006"><a xlink:title=" ">
<path fill="none" stroke="orange" stroke-dasharray="5,2" d="M79.01,-464.52C88.19,-505.08 111.56,-579.99 163.75,-615.07 180.07,-626.04 289.33,-632.03 364.55,-634.88"/>
<polygon fill="orange" stroke="orange" points="82.45,-463.9 76.96,-454.84 75.61,-465.34 82.45,-463.9"/>
</a>
</g>
<text xml:space="preserve" text-anchor="start" x="181" y="-654.08" font-family="Helvetica,sans-Serif" font-size="10.00" fill="grey">&lt; const AsyncFw::DataArray</text>
<text xml:space="preserve" text-anchor="start" x="181" y="-638.08" font-family="Helvetica,sans-Serif" font-size="10.00" fill="grey">   *, uint32_t &gt;</text>
</g>
<!-- Node7 -->
<g id="Node000007" class="node">
<title>Node7</title>
<g id="a_Node000007"><a xlink:href="classAsyncFw_1_1FunctionConnector.html" target="_top" xlink:title=" ">
<polygon fill="white" stroke="#666666" points="532.25,-596.07 343,-596.07 343,-564.07 532.25,-564.07 532.25,-596.07"/>
<text xml:space="preserve" text-anchor="start" x="351" y="-582.57" font-family="Helvetica,sans-Serif" font-size="10.00">AsyncFw::FunctionConnector</text>
<text xml:space="preserve" text-anchor="middle" x="437.62" y="-570.57" font-family="Helvetica,sans-Serif" font-size="10.00">&lt; const AsyncFw::DataArraySocket * &gt;</text>
</a>
</g>
</g>
<!-- Node1&#45;&gt;Node7 -->
<g id="edge6_Node000001_Node000007" class="edge">
<title>Node1&#45;&gt;Node7</title>
<g id="a_edge6_Node000001_Node000007"><a xlink:title=" ">
<path fill="none" stroke="orange" stroke-dasharray="5,2" d="M85.35,-463.71C99.31,-492.49 125.8,-537.04 163.75,-558.07 193.68,-574.67 276.28,-579.55 342.82,-580.65"/>
<polygon fill="orange" stroke="orange" points="88.65,-462.5 81.25,-454.91 82.3,-465.45 88.65,-462.5"/>
</a>
</g>
<text xml:space="preserve" text-anchor="start" x="181" y="-601.39" font-family="Helvetica,sans-Serif" font-size="10.00" fill="grey">&lt; const AsyncFw::DataArray</text>
<text xml:space="preserve" text-anchor="start" x="181" y="-585.39" font-family="Helvetica,sans-Serif" font-size="10.00" fill="grey">  Socket * &gt;</text>
</g>
<!-- Node8 -->
<g id="Node000008" class="node">
<title>Node8</title>
<g id="a_Node000008"><a xlink:href="classAsyncFw_1_1FunctionConnector.html" target="_top" xlink:title=" ">
<polygon fill="white" stroke="#666666" points="510.5,-546.07 364.75,-546.07 364.75,-514.07 510.5,-514.07 510.5,-546.07"/>
<text xml:space="preserve" text-anchor="start" x="372.75" y="-532.57" font-family="Helvetica,sans-Serif" font-size="10.00">AsyncFw::FunctionConnector</text>
<text xml:space="preserve" text-anchor="middle" x="437.62" y="-520.57" font-family="Helvetica,sans-Serif" font-size="10.00">&lt; const std::string &amp;, int &gt;</text>
</a>
</g>
</g>
<!-- Node1&#45;&gt;Node8 -->
<g id="edge7_Node000001_Node000008" class="edge">
<title>Node1&#45;&gt;Node8</title>
<g id="a_edge7_Node000001_Node000008"><a xlink:title=" ">
<path fill="none" stroke="orange" stroke-dasharray="5,2" d="M99.96,-460.71C116.89,-474.61 140.13,-491.17 163.75,-500.07 199.26,-513.46 296.19,-521.8 364.38,-526.19"/>
<polygon fill="orange" stroke="orange" points="102.29,-458.09 92.4,-454.3 97.76,-463.43 102.29,-458.09"/>
</a>
</g>
<text xml:space="preserve" text-anchor="start" x="204.62" y="-544.39" font-family="Helvetica,sans-Serif" font-size="10.00" fill="grey">&lt; const std::string</text>
<text xml:space="preserve" text-anchor="start" x="204.62" y="-528.39" font-family="Helvetica,sans-Serif" font-size="10.00" fill="grey">   &amp;, int &gt;</text>
</g>
<!-- Node9 -->
<g id="Node000009" class="node">
<title>Node9</title>
<g id="a_Node000009"><a xlink:href="classAsyncFw_1_1FunctionConnector.html" target="_top" xlink:title=" ">
<polygon fill="white" stroke="#666666" points="510.5,-496.07 364.75,-496.07 364.75,-452.07 510.5,-452.07 510.5,-496.07"/>
<text xml:space="preserve" text-anchor="start" x="372.75" y="-482.57" font-family="Helvetica,sans-Serif" font-size="10.00">AsyncFw::FunctionConnector</text>
<text xml:space="preserve" text-anchor="start" x="372.75" y="-470.57" font-family="Helvetica,sans-Serif" font-size="10.00">&lt; int, const std::string</text>
<text xml:space="preserve" text-anchor="middle" x="437.62" y="-458.57" font-family="Helvetica,sans-Serif" font-size="10.00"> &amp;, bool * &gt;</text>
</a>
</g>
</g>
<!-- Node1&#45;&gt;Node9 -->
<g id="edge8_Node000001_Node000009" class="edge">
<title>Node1&#45;&gt;Node9</title>
<g id="a_edge8_Node000001_Node000009"><a xlink:title=" ">
<path fill="none" stroke="orange" stroke-dasharray="5,2" d="M157.39,-445.59C219.95,-451.97 304.68,-460.62 364.35,-466.7"/>
<polygon fill="orange" stroke="orange" points="157.79,-442.11 147.48,-444.58 157.08,-449.08 157.79,-442.11"/>
</a>
</g>
<text xml:space="preserve" text-anchor="start" x="196.38" y="-483.36" font-family="Helvetica,sans-Serif" font-size="10.00" fill="grey">&lt; int, const std::string</text>
<text xml:space="preserve" text-anchor="start" x="196.38" y="-467.36" font-family="Helvetica,sans-Serif" font-size="10.00" fill="grey">   &amp;, bool * &gt;</text>
</g>
<!-- Node10 -->
<g id="Node000010" class="node">
<title>Node10</title>
<g id="a_Node000010"><a xlink:href="classAsyncFw_1_1FunctionConnector.html" target="_top" xlink:title=" ">
<polygon fill="white" stroke="#666666" points="520.25,-434.07 355,-434.07 355,-390.07 520.25,-390.07 520.25,-434.07"/>
<text xml:space="preserve" text-anchor="start" x="363" y="-420.57" font-family="Helvetica,sans-Serif" font-size="10.00">AsyncFw::FunctionConnector</text>
<text xml:space="preserve" text-anchor="start" x="363" y="-408.57" font-family="Helvetica,sans-Serif" font-size="10.00">&lt; const AsyncFw::HttpSocket</text>
<text xml:space="preserve" text-anchor="middle" x="437.62" y="-396.57" font-family="Helvetica,sans-Serif" font-size="10.00"> *, const AsyncFw::DataArray &amp; &gt;</text>
</a>
</g>
</g>
<!-- Node1&#45;&gt;Node10 -->
<g id="edge9_Node000001_Node000010" class="edge">
<title>Node1&#45;&gt;Node10</title>
<g id="a_edge9_Node000001_Node000010"><a xlink:title=" ">
<path fill="none" stroke="orange" stroke-dasharray="5,2" d="M129.88,-417.52C140.97,-414.42 152.63,-411.71 163.75,-410.07 227.38,-400.72 300.26,-401.85 354.68,-404.97"/>
<polygon fill="orange" stroke="orange" points="129.07,-414.11 120.46,-420.29 131.05,-420.82 129.07,-414.11"/>
</a>
</g>
<text xml:space="preserve" text-anchor="start" x="166.75" y="-431.32" font-family="Helvetica,sans-Serif" font-size="10.00" fill="grey">&lt; const AsyncFw::HttpSocket</text>
<text xml:space="preserve" text-anchor="start" x="166.75" y="-415.32" font-family="Helvetica,sans-Serif" font-size="10.00" fill="grey">   *, const AsyncFw::DataArray &amp; &gt;</text>
</g>
<!-- Node11 -->
<g id="Node000011" class="node">
<title>Node11</title>
<g id="a_Node000011"><a xlink:href="classAsyncFw_1_1FunctionConnector.html" target="_top" xlink:title=" ">
<polygon fill="white" stroke="#666666" points="510.5,-372.07 364.75,-372.07 364.75,-328.07 510.5,-328.07 510.5,-372.07"/>
<text xml:space="preserve" text-anchor="start" x="372.75" y="-358.57" font-family="Helvetica,sans-Serif" font-size="10.00">AsyncFw::FunctionConnector</text>
<text xml:space="preserve" text-anchor="start" x="372.75" y="-346.57" font-family="Helvetica,sans-Serif" font-size="10.00">&lt; const AbstractSocket::</text>
<text xml:space="preserve" text-anchor="middle" x="437.62" y="-334.57" font-family="Helvetica,sans-Serif" font-size="10.00">State &gt;</text>
</a>
</g>
</g>
<!-- Node1&#45;&gt;Node11 -->
<g id="edge10_Node000001_Node000011" class="edge">
<title>Node1&#45;&gt;Node11</title>
<g id="a_edge10_Node000001_Node000011"><a xlink:title=" ">
<path fill="none" stroke="orange" stroke-dasharray="5,2" d="M95.77,-412.92C112.55,-396.2 137.27,-375.2 163.75,-365.07 228.34,-340.38 307.84,-338.94 364.33,-342.28"/>
<polygon fill="orange" stroke="orange" points="93.7,-410.02 89.24,-419.63 98.72,-414.89 93.7,-410.02"/>
</a>
</g>
<text xml:space="preserve" text-anchor="start" x="193" y="-386.32" font-family="Helvetica,sans-Serif" font-size="10.00" fill="grey">&lt; const AbstractSocket</text>
<text xml:space="preserve" text-anchor="start" x="193" y="-370.32" font-family="Helvetica,sans-Serif" font-size="10.00" fill="grey">  ::State &gt;</text>
</g>
<!-- Node12 -->
<g id="Node000012" class="node">
<title>Node12</title>
<g id="a_Node000012"><a xlink:href="classAsyncFw_1_1FunctionConnector.html" target="_top" xlink:title=" ">
<polygon fill="white" stroke="#666666" points="518.38,-310.07 356.88,-310.07 356.88,-278.07 518.38,-278.07 518.38,-310.07"/>
<text xml:space="preserve" text-anchor="start" x="364.88" y="-296.57" font-family="Helvetica,sans-Serif" font-size="10.00">AsyncFw::FunctionConnector</text>
<text xml:space="preserve" text-anchor="middle" x="437.62" y="-284.57" font-family="Helvetica,sans-Serif" font-size="10.00">&lt; const AsyncFw::DataArray &amp; &gt;</text>
</a>
</g>
</g>
<!-- Node1&#45;&gt;Node12 -->
<g id="edge11_Node000001_Node000012" class="edge">
<title>Node1&#45;&gt;Node12</title>
<g id="a_edge11_Node000001_Node000012"><a xlink:title=" ">
<path fill="none" stroke="orange" stroke-dasharray="5,2" d="M85.99,-410.34C100.24,-382.31 126.76,-339.55 163.75,-319.07 222.43,-286.59 299.25,-282.3 356.43,-285.01"/>
<polygon fill="orange" stroke="orange" points="82.86,-408.75 81.62,-419.27 89.16,-411.82 82.86,-408.75"/>
</a>
</g>
<text xml:space="preserve" text-anchor="start" x="171.62" y="-324.32" font-family="Helvetica,sans-Serif" font-size="10.00" fill="grey">&lt; const AsyncFw::DataArray &amp; &gt;</text>
</g>
<!-- Node13 -->
<g id="Node000013" class="node">
<title>Node13</title>
<g id="a_Node000013"><a xlink:href="classAsyncFw_1_1FunctionConnector.html" target="_top" xlink:title=" ">
<polygon fill="white" stroke="#666666" points="510.5,-260.07 364.75,-260.07 364.75,-228.07 510.5,-228.07 510.5,-260.07"/>
<text xml:space="preserve" text-anchor="start" x="372.75" y="-246.57" font-family="Helvetica,sans-Serif" font-size="10.00">AsyncFw::FunctionConnector</text>
<text xml:space="preserve" text-anchor="middle" x="437.62" y="-234.57" font-family="Helvetica,sans-Serif" font-size="10.00">&lt; int &gt;</text>
</a>
</g>
</g>
<!-- Node1&#45;&gt;Node13 -->
<g id="edge12_Node000001_Node000013" class="edge">
<title>Node1&#45;&gt;Node13</title>
<g id="a_edge12_Node000001_Node000013"><a xlink:title=" ">
<path fill="none" stroke="orange" stroke-dasharray="5,2" d="M79.16,-409.68C88.5,-369.59 112.02,-296.04 163.75,-262.07 222.88,-223.24 305.62,-223.51 364.45,-230.53"/>
<polygon fill="orange" stroke="orange" points="75.79,-408.74 77.08,-419.25 82.63,-410.23 75.79,-408.74"/>
</a>
</g>
<text xml:space="preserve" text-anchor="start" x="230.12" y="-267.32" font-family="Helvetica,sans-Serif" font-size="10.00" fill="grey">&lt; int &gt;</text>
</g>
<!-- Node14 -->
<g id="Node000014" class="node">
<title>Node14</title>
<g id="a_Node000014"><a xlink:href="classAsyncFw_1_1FunctionConnector.html" target="_top" xlink:title=" ">
<polygon fill="white" stroke="#666666" points="515.75,-210.07 359.5,-210.07 359.5,-166.07 515.75,-166.07 515.75,-210.07"/>
<text xml:space="preserve" text-anchor="start" x="367.5" y="-196.57" font-family="Helvetica,sans-Serif" font-size="10.00">AsyncFw::FunctionConnector</text>
<text xml:space="preserve" text-anchor="start" x="367.5" y="-184.57" font-family="Helvetica,sans-Serif" font-size="10.00">&lt; const AsyncFw::MulticastDns</text>
<text xml:space="preserve" text-anchor="middle" x="437.62" y="-172.57" font-family="Helvetica,sans-Serif" font-size="10.00">::Host &amp; &gt;</text>
</a>
</g>
</g>
<!-- Node1&#45;&gt;Node14 -->
<g id="edge13_Node000001_Node000014" class="edge">
<title>Node1&#45;&gt;Node14</title>
<g id="a_edge13_Node000001_Node000014"><a xlink:title=" ">
<path fill="none" stroke="orange" stroke-dasharray="5,2" d="M74.36,-409.39C76.96,-356.14 91.14,-240.19 163.75,-189.07 220.02,-149.46 300.28,-154.48 359.19,-166.23"/>
<polygon fill="orange" stroke="orange" points="70.87,-409 73.99,-419.12 77.86,-409.26 70.87,-409"/>
</a>
</g>
<text xml:space="preserve" text-anchor="start" x="183.25" y="-210.32" font-family="Helvetica,sans-Serif" font-size="10.00" fill="grey">&lt; const AsyncFw::Multicast</text>
<text xml:space="preserve" text-anchor="start" x="183.25" y="-194.32" font-family="Helvetica,sans-Serif" font-size="10.00" fill="grey">  Dns::Host &amp; &gt;</text>
</g>
<!-- Node15 -->
<g id="Node000015" class="node">
<title>Node15</title>
<g id="a_Node000015"><a xlink:href="classAsyncFw_1_1FunctionConnector.html" target="_top" xlink:title=" ">
<polygon fill="white" stroke="#666666" points="514.25,-148.07 361,-148.07 361,-116.07 514.25,-116.07 514.25,-148.07"/>
<text xml:space="preserve" text-anchor="start" x="369" y="-134.57" font-family="Helvetica,sans-Serif" font-size="10.00">AsyncFw::FunctionConnector</text>
<text xml:space="preserve" text-anchor="middle" x="437.62" y="-122.57" font-family="Helvetica,sans-Serif" font-size="10.00">&lt; AbstractThread::PollEvents &gt;</text>
</a>
</g>
</g>
<!-- Node1&#45;&gt;Node15 -->
<g id="edge14_Node000001_Node000015" class="edge">
<title>Node1&#45;&gt;Node15</title>
<g id="a_edge14_Node000001_Node000015"><a xlink:title=" ">
<path fill="none" stroke="orange" stroke-dasharray="5,2" d="M77.89,-409.72C88.44,-342.04 119.23,-169.75 163.75,-136.07 193.65,-113.46 290.85,-117.27 360.73,-123.49"/>
<polygon fill="orange" stroke="orange" points="74.49,-408.82 76.44,-419.23 81.41,-409.88 74.49,-408.82"/>
</a>
</g>
<text xml:space="preserve" text-anchor="start" x="175.75" y="-141.32" font-family="Helvetica,sans-Serif" font-size="10.00" fill="grey">&lt; AbstractThread::PollEvents &gt;</text>
</g>
<!-- Node16 -->
<g id="Node000016" class="node">
<title>Node16</title>
<g id="a_Node000016"><a xlink:href="classAsyncFw_1_1FunctionConnector.html" target="_top" xlink:title=" ">
<polygon fill="white" stroke="#666666" points="510.5,-98.07 364.75,-98.07 364.75,-66.07 510.5,-66.07 510.5,-98.07"/>
<text xml:space="preserve" text-anchor="start" x="372.75" y="-84.57" font-family="Helvetica,sans-Serif" font-size="10.00">AsyncFw::FunctionConnector</text>
<text xml:space="preserve" text-anchor="middle" x="437.62" y="-72.57" font-family="Helvetica,sans-Serif" font-size="10.00">&lt; State &gt;</text>
</a>
</g>
</g>
<!-- Node1&#45;&gt;Node16 -->
<g id="edge15_Node000001_Node000016" class="edge">
<title>Node1&#45;&gt;Node16</title>
<g id="a_edge15_Node000001_Node000016"><a xlink:title=" ">
<path fill="none" stroke="orange" stroke-dasharray="5,2" d="M76.99,-409.85C85.98,-336.42 114.54,-137.17 163.75,-97.07 193.41,-72.91 293.97,-73.24 364.34,-76.79"/>
<polygon fill="orange" stroke="orange" points="73.56,-409.04 75.85,-419.39 80.51,-409.87 73.56,-409.04"/>
</a>
</g>
<text xml:space="preserve" text-anchor="start" x="223.75" y="-102.32" font-family="Helvetica,sans-Serif" font-size="10.00" fill="grey">&lt; State &gt;</text>
</g>
<!-- Node17 -->
<g id="Node000017" class="node">
<title>Node17</title>
<g id="a_Node000017"><a xlink:href="classAsyncFw_1_1FunctionConnector.html" target="_top" xlink:title=" ">
<polygon fill="white" stroke="#666666" points="510.5,-45.07 364.75,-45.07 364.75,-13.07 510.5,-13.07 510.5,-45.07"/>
<text xml:space="preserve" text-anchor="start" x="372.75" y="-31.57" font-family="Helvetica,sans-Serif" font-size="10.00">AsyncFw::FunctionConnector</text>
<text xml:space="preserve" text-anchor="middle" x="437.62" y="-19.57" font-family="Helvetica,sans-Serif" font-size="10.00">&lt; const std::string &amp;, bool &gt;</text>
</a>
</g>
</g>
<!-- Node1&#45;&gt;Node17 -->
<g id="edge16_Node000001_Node000017" class="edge">
<title>Node1&#45;&gt;Node17</title>
<g id="a_edge16_Node000001_Node000017"><a xlink:title=" ">
<path fill="none" stroke="orange" stroke-dasharray="5,2" d="M75.8,-409.52C82.19,-327.06 105.64,-84.99 163.75,-37.07 224.18,12.75 320.29,1.59 380.84,-12.59"/>
<polygon fill="orange" stroke="orange" points="72.32,-409.16 75.06,-419.4 79.3,-409.68 72.32,-409.16"/>
</a>
</g>
<text xml:space="preserve" text-anchor="start" x="204.62" y="-58.32" font-family="Helvetica,sans-Serif" font-size="10.00" fill="grey">&lt; const std::string</text>
<text xml:space="preserve" text-anchor="start" x="204.62" y="-42.32" font-family="Helvetica,sans-Serif" font-size="10.00" fill="grey">   &amp;, bool &gt;</text>
</g>
</g>
</svg>
