<?xml version="1.0" encoding="UTF-8" standalone="no"?>
<!DOCTYPE svg PUBLIC "-//W3C//DTD SVG 1.1//EN"
 "http://www.w3.org/Graphics/SVG/1.1/DTD/svg11.dtd">
<!-- Generated by graphviz version 14.1.3 (20260303.0454)
 -->
<!-- Title: AsyncFw::HttpSocket::writeEvent Pages: 1 -->
<svg width="468pt" height="90pt"
 viewBox="0.00 0.00 468.00 90.00" xmlns="http://www.w3.org/2000/svg" xmlns:xlink="http://www.w3.org/1999/xlink">
<g id="graph0" class="graph" transform="scale(1 1) rotate(0) translate(4 86)">
<title>AsyncFw::HttpSocket::writeEvent</title>
<!-- Node1 -->
<g id="Node000001" class="node">
<title>Node1</title>
<g id="a_Node000001"><a xlink:title="Called when writing to the socket is possible.">
<polygon fill="#999999" stroke="#666666" points="112.75,-57 0,-57 0,-25 112.75,-25 112.75,-57"/>
<text xml:space="preserve" text-anchor="start" x="8" y="-43.5" font-family="Helvetica,sans-Serif" font-size="10.00">AsyncFw::HttpSocket</text>
<text xml:space="preserve" text-anchor="middle" x="56.38" y="-31.5" font-family="Helvetica,sans-Serif" font-size="10.00">::writeEvent</text>
</a>
</g>
</g>
<!-- Node2 -->
<g id="Node000002" class="node">
<title>Node2</title>
<g id="a_Node000002"><a xlink:href="classAsyncFw_1_1HttpSocket.html#a33dadd18584b3b2b76a02dffa0a831fb" target="_top" xlink:title="Shuts down the active TLS session gracefully via SSL_shutdown() before terminating the network pipe.">
<polygon fill="white" stroke="#666666" points="270.5,-82 157.75,-82 157.75,-50 270.5,-50 270.5,-82"/>
<text xml:space="preserve" text-anchor="start" x="165.75" y="-68.5" font-family="Helvetica,sans-Serif" font-size="10.00">AsyncFw::HttpSocket</text>
<text xml:space="preserve" text-anchor="middle" x="214.12" y="-56.5" font-family="Helvetica,sans-Serif" font-size="10.00">::disconnect</text>
</a>
</g>
</g>
<!-- Node1&#45;&gt;Node2 -->
<g id="edge1_Node000001_Node000002" class="edge">
<title>Node1&#45;&gt;Node2</title>
<g id="a_edge1_Node000001_Node000002"><a xlink:title=" ">
<path fill="none" stroke="#63b8ff" d="M113.16,-49.95C123.85,-51.67 135.15,-53.48 146.15,-55.25"/>
<polygon fill="#63b8ff" stroke="#63b8ff" points="145.54,-58.7 155.97,-56.83 146.65,-51.78 145.54,-58.7"/>
</a>
</g>
</g>
<!-- Node4 -->
<g id="Node000004" class="node">
<title>Node4</title>
<g id="a_Node000004"><a xlink:href="classAsyncFw_1_1AbstractSocket.html#a5cc266f87cd4666f10b85a2c52b762bb" target="_top" xlink:title="Returns the number of bytes of data pending to be write.">
<polygon fill="white" stroke="#666666" points="279.5,-32 148.75,-32 148.75,0 279.5,0 279.5,-32"/>
<text xml:space="preserve" text-anchor="start" x="156.75" y="-18.5" font-family="Helvetica,sans-Serif" font-size="10.00">AsyncFw::AbstractSocket</text>
<text xml:space="preserve" text-anchor="middle" x="214.12" y="-6.5" font-family="Helvetica,sans-Serif" font-size="10.00">::pendingWrite</text>
</a>
</g>
</g>
<!-- Node1&#45;&gt;Node4 -->
<g id="edge3_Node000001_Node000004" class="edge">
<title>Node1&#45;&gt;Node4</title>
<g id="a_edge3_Node000001_Node000004"><a xlink:title=" ">
<path fill="none" stroke="#63b8ff" d="M113.16,-32.05C120.94,-30.8 129.03,-29.5 137.09,-28.2"/>
<polygon fill="#63b8ff" stroke="#63b8ff" points="137.63,-31.66 146.95,-26.62 136.52,-24.75 137.63,-31.66"/>
</a>
</g>
</g>
<!-- Node3 -->
<g id="Node000003" class="node">
<title>Node3</title>
<g id="a_Node000003"><a xlink:href="classAsyncFw_1_1AbstractTlsSocket.html#af52f94f709ab74eace61da79cbd8af7d" target="_top" xlink:title="Shuts down the active TLS session gracefully via SSL_shutdown() before terminating the network pipe.">
<polygon fill="white" stroke="#666666" points="459.75,-82 315.5,-82 315.5,-50 459.75,-50 459.75,-82"/>
<text xml:space="preserve" text-anchor="start" x="323.5" y="-68.5" font-family="Helvetica,sans-Serif" font-size="10.00">AsyncFw::AbstractTlsSocket</text>
<text xml:space="preserve" text-anchor="middle" x="387.62" y="-56.5" font-family="Helvetica,sans-Serif" font-size="10.00">::disconnect</text>
</a>
</g>
</g>
<!-- Node2&#45;&gt;Node3 -->
<g id="edge2_Node000002_Node000003" class="edge">
<title>Node2&#45;&gt;Node3</title>
<g id="a_edge2_Node000002_Node000003"><a xlink:title=" ">
<path fill="none" stroke="#63b8ff" d="M270.81,-66C281.44,-66 292.79,-66 304.06,-66"/>
<polygon fill="#63b8ff" stroke="#63b8ff" points="303.76,-69.5 313.76,-66 303.76,-62.5 303.76,-69.5"/>
</a>
</g>
</g>
</g>
</svg>
