<?xml version="1.0" encoding="UTF-8" standalone="no"?>
<!DOCTYPE svg PUBLIC "-//W3C//DTD SVG 1.1//EN"
 "http://www.w3.org/Graphics/SVG/1.1/DTD/svg11.dtd">
<!-- Generated by graphviz version 12.2.1 (20241206.2353)
 -->
<!-- Title: AsyncFw::Instance&lt; T &gt; Pages: 1 -->
<svg width="656pt" height="140pt"
 viewBox="0.00 0.00 656.25 140.00" xmlns="http://www.w3.org/2000/svg" xmlns:xlink="http://www.w3.org/1999/xlink">
<g id="graph0" class="graph" transform="scale(1 1) rotate(0) translate(4 136)">
<title>AsyncFw::Instance&lt; T &gt;</title>
<!-- Node1 -->
<g id="Node000001" class="node">
<title>Node1</title>
<g id="a_Node000001"><a xlink:title="The Instance class.">
<polygon fill="#999999" stroke="#666666" points="299.25,-76 174.5,-76 174.5,-56 299.25,-56 299.25,-76"/>
<text text-anchor="middle" x="236.88" y="-62.5" font-family="Helvetica,sans-Serif" font-size="10.00">AsyncFw::Instance&lt; T &gt;</text>
</a>
</g>
</g>
<!-- Node3 -->
<g id="Node000003" class="node">
<title>Node3</title>
<g id="a_Node000003"><a xlink:href="classAsyncFw_1_1Instance.html" target="_top" xlink:title=" ">
<polygon fill="white" stroke="#666666" points="621.62,-132 514.88,-132 514.88,-100 621.62,-100 621.62,-132"/>
<text text-anchor="start" x="522.88" y="-118.5" font-family="Helvetica,sans-Serif" font-size="10.00">AsyncFw::Instance&lt;</text>
<text text-anchor="middle" x="568.25" y="-106.5" font-family="Helvetica,sans-Serif" font-size="10.00"> Log &gt;</text>
</a>
</g>
</g>
<!-- Node1&#45;&gt;Node3 -->
<g id="edge2_Node000001_Node000003" class="edge">
<title>Node1&#45;&gt;Node3</title>
<g id="a_edge2_Node000001_Node000003"><a xlink:title=" ">
<path fill="none" stroke="orange" stroke-dasharray="5,2" d="M298.58,-78.65C304.88,-79.84 311.19,-80.98 317.25,-82 385.06,-93.43 463.73,-103.63 514.43,-109.81"/>
<polygon fill="orange" stroke="orange" points="299.29,-75.22 288.81,-76.76 297.97,-82.09 299.29,-75.22"/>
</a>
</g>
<text text-anchor="middle" x="393.75" y="-106.17" font-family="Helvetica,sans-Serif" font-size="10.00" fill="grey"> &lt; Log &gt;</text>
</g>
<!-- Node4 -->
<g id="Node000004" class="node">
<title>Node4</title>
<g id="a_Node000004"><a xlink:href="classAsyncFw_1_1Instance.html" target="_top" xlink:title=" ">
<polygon fill="white" stroke="#666666" points="648.25,-82 488.25,-82 488.25,-50 648.25,-50 648.25,-82"/>
<text text-anchor="start" x="496.25" y="-68.5" font-family="Helvetica,sans-Serif" font-size="10.00">AsyncFw::Instance&lt;</text>
<text text-anchor="middle" x="568.25" y="-56.5" font-family="Helvetica,sans-Serif" font-size="10.00"> AsyncFw::FileSystemWatcher &gt;</text>
</a>
</g>
</g>
<!-- Node1&#45;&gt;Node4 -->
<g id="edge3_Node000001_Node000004" class="edge">
<title>Node1&#45;&gt;Node4</title>
<g id="a_edge3_Node000001_Node000004"><a xlink:title=" ">
<path fill="none" stroke="orange" stroke-dasharray="5,2" d="M310.69,-66C363.17,-66 433.97,-66 487.9,-66"/>
<polygon fill="orange" stroke="orange" points="310.96,-62.5 300.96,-66 310.96,-69.5 310.96,-62.5"/>
</a>
</g>
<text text-anchor="middle" x="393.75" y="-68.5" font-family="Helvetica,sans-Serif" font-size="10.00" fill="grey"> &lt; AsyncFw::FileSystemWatcher &gt;</text>
</g>
<!-- Node5 -->
<g id="Node000005" class="node">
<title>Node5</title>
<g id="a_Node000005"><a xlink:href="classAsyncFw_1_1Instance.html" target="_top" xlink:title=" ">
<polygon fill="white" stroke="#666666" points="630.25,-32 506.25,-32 506.25,0 630.25,0 630.25,-32"/>
<text text-anchor="start" x="514.25" y="-18.5" font-family="Helvetica,sans-Serif" font-size="10.00">AsyncFw::Instance&lt;</text>
<text text-anchor="middle" x="568.25" y="-6.5" font-family="Helvetica,sans-Serif" font-size="10.00"> AsyncFw::ThreadPool &gt;</text>
</a>
</g>
</g>
<!-- Node1&#45;&gt;Node5 -->
<g id="edge4_Node000001_Node000005" class="edge">
<title>Node1&#45;&gt;Node5</title>
<g id="a_edge4_Node000001_Node000005"><a xlink:title=" ">
<path fill="none" stroke="orange" stroke-dasharray="5,2" d="M298.58,-53.35C304.88,-52.16 311.19,-51.02 317.25,-50 381.39,-39.19 455.24,-29.48 505.95,-23.23"/>
<polygon fill="orange" stroke="orange" points="297.97,-49.91 288.81,-55.24 299.29,-56.78 297.97,-49.91"/>
</a>
</g>
<text text-anchor="middle" x="393.75" y="-52.5" font-family="Helvetica,sans-Serif" font-size="10.00" fill="grey"> &lt; AsyncFw::ThreadPool &gt;</text>
</g>
<!-- Node2 -->
<g id="Node000002" class="node">
<title>Node2</title>
<g id="a_Node000002"><a xlink:href="classAsyncFw_1_1AbstractInstance.html" target="_top" xlink:title="The AbstractInstance class.">
<polygon fill="white" stroke="#666666" points="137.5,-76 0,-76 0,-56 137.5,-56 137.5,-76"/>
<text text-anchor="middle" x="68.75" y="-62.5" font-family="Helvetica,sans-Serif" font-size="10.00">AsyncFw::AbstractInstance</text>
</a>
</g>
</g>
<!-- Node2&#45;&gt;Node1 -->
<g id="edge1_Node000001_Node000002" class="edge">
<title>Node2&#45;&gt;Node1</title>
<g id="a_edge1_Node000001_Node000002"><a xlink:title=" ">
<path fill="none" stroke="#63b8ff" d="M149.15,-66C157.52,-66 165.94,-66 174.07,-66"/>
<polygon fill="#63b8ff" stroke="#63b8ff" points="149.31,-62.5 139.31,-66 149.31,-69.5 149.31,-62.5"/>
</a>
</g>
</g>
</g>
</svg>
