<?xml version="1.0" encoding="UTF-8" standalone="no"?>
<!DOCTYPE svg PUBLIC "-//W3C//DTD SVG 1.1//EN"
 "http://www.w3.org/Graphics/SVG/1.1/DTD/svg11.dtd">
<!-- Generated by graphviz version 12.2.1 (20241206.2353)
 -->
<!-- Title: AsyncFw::AbstractThread::AbstractThread Pages: 1 -->
<svg width="640pt" height="234pt"
 viewBox="0.00 0.00 639.75 234.00" xmlns="http://www.w3.org/2000/svg" xmlns:xlink="http://www.w3.org/1999/xlink">
<g id="graph0" class="graph" transform="scale(1 1) rotate(0) translate(4 230)">
<title>AsyncFw::AbstractThread::AbstractThread</title>
<!-- Node1 -->
<g id="Node000001" class="node">
<title>Node1</title>
<g id="a_Node000001"><a xlink:title="Constructs a thread.">
<polygon fill="#999999" stroke="#666666" points="631.75,-179 501.75,-179 501.75,-147 631.75,-147 631.75,-179"/>
<text text-anchor="start" x="509.75" y="-165.5" font-family="Helvetica,sans-Serif" font-size="10.00">AsyncFw::AbstractThread</text>
<text text-anchor="middle" x="566.75" y="-153.5" font-family="Helvetica,sans-Serif" font-size="10.00">::AbstractThread</text>
</a>
</g>
</g>
<!-- Node1&#45;&gt;Node1 -->
<g id="edge1_Node000001_Node000001" class="edge">
<title>Node1&#45;&gt;Node1</title>
<g id="a_edge1_Node000001_Node000001"><a xlink:title=" ">
<path fill="none" stroke="#63b8ff" d="M594.41,-190.71C589.8,-194.48 580.58,-197 566.75,-197 541.46,-197 531.58,-188.58 537.11,-179.44"/>
<polygon fill="#63b8ff" stroke="#63b8ff" points="597.85,-191.39 596.12,-180.93 590.95,-190.18 597.85,-191.39"/>
</a>
</g>
</g>
<!-- Node2 -->
<g id="Node000002" class="node">
<title>Node2</title>
<g id="a_Node000002"><a xlink:href="classAsyncFw_1_1AbstractThread.html#a09cdd1972b9416a7ddb2a1921f36938c" target="_top" xlink:title="Returns a pointer to the AsyncFw::AbstractThread that manages the currently executing thread.">
<polygon fill="white" stroke="#666666" points="465.75,-157 335.75,-157 335.75,-125 465.75,-125 465.75,-157"/>
<text text-anchor="start" x="343.75" y="-143.5" font-family="Helvetica,sans-Serif" font-size="10.00">AsyncFw::AbstractThread</text>
<text text-anchor="middle" x="400.75" y="-131.5" font-family="Helvetica,sans-Serif" font-size="10.00">::current</text>
</a>
</g>
</g>
<!-- Node1&#45;&gt;Node2 -->
<g id="edge2_Node000001_Node000002" class="edge">
<title>Node1&#45;&gt;Node2</title>
<g id="a_edge2_Node000001_Node000002"><a xlink:title=" ">
<path fill="none" stroke="#63b8ff" d="M490.16,-152.86C482.15,-151.78 474.05,-150.7 466.18,-149.64"/>
<polygon fill="#63b8ff" stroke="#63b8ff" points="489.53,-156.31 499.9,-154.17 490.46,-149.37 489.53,-156.31"/>
</a>
</g>
</g>
<!-- Node11 -->
<g id="Node000011" class="node">
<title>Node11</title>
<g id="a_Node000011"><a xlink:href="classAsyncFw_1_1Thread.html#afc5e422090767dd84020381fb9a4d490" target="_top" xlink:title="Constructs a thread.">
<polygon fill="white" stroke="#666666" points="465.38,-207 336.12,-207 336.12,-187 465.38,-187 465.38,-207"/>
<text text-anchor="middle" x="400.75" y="-193.5" font-family="Helvetica,sans-Serif" font-size="10.00">AsyncFw::Thread::Thread</text>
</a>
</g>
</g>
<!-- Node1&#45;&gt;Node11 -->
<g id="edge11_Node000001_Node000011" class="edge">
<title>Node1&#45;&gt;Node11</title>
<g id="a_edge11_Node000001_Node000011"><a xlink:title=" ">
<path fill="none" stroke="#63b8ff" d="M490.18,-178.67C477.32,-181.33 464.24,-184.04 452.23,-186.54"/>
<polygon fill="#63b8ff" stroke="#63b8ff" points="490.84,-182.1 499.92,-176.65 489.42,-175.25 490.84,-182.1"/>
</a>
</g>
</g>
<!-- Node3 -->
<g id="Node000003" class="node">
<title>Node3</title>
<g id="a_Node000003"><a xlink:href="classAsyncFw_1_1ThreadPool.html#a9919894e586310a7ea5b780845376e17" target="_top" xlink:title="Asynchronously invokes a void function in the target thread, and executes a result callback in the ca...">
<polygon fill="white" stroke="#666666" points="289.62,-182 176.88,-182 176.88,-150 289.62,-150 289.62,-182"/>
<text text-anchor="start" x="184.88" y="-168.5" font-family="Helvetica,sans-Serif" font-size="10.00">AsyncFw::ThreadPool</text>
<text text-anchor="middle" x="233.25" y="-156.5" font-family="Helvetica,sans-Serif" font-size="10.00">::async</text>
</a>
</g>
</g>
<!-- Node2&#45;&gt;Node3 -->
<g id="edge3_Node000002_Node000003" class="edge">
<title>Node2&#45;&gt;Node3</title>
<g id="a_edge3_Node000002_Node000003"><a xlink:title=" ">
<path fill="none" stroke="#63b8ff" d="M323.93,-152.45C312.48,-154.18 300.86,-155.94 289.94,-157.59"/>
<polygon fill="#63b8ff" stroke="#63b8ff" points="324.43,-155.92 333.79,-150.96 323.38,-149 324.43,-155.92"/>
</a>
</g>
</g>
<!-- Node4 -->
<g id="Node000004" class="node">
<title>Node4</title>
<g id="a_Node000004"><a xlink:href="classAsyncFw_1_1Thread.html#a0a3bd6a54db28f73ff59cfea6a40b07a" target="_top" xlink:title="Returns a pointer to the AsyncFw::Thread that manages the currently executing thread.">
<polygon fill="white" stroke="#666666" points="297.88,-220 168.62,-220 168.62,-200 297.88,-200 297.88,-220"/>
<text text-anchor="middle" x="233.25" y="-206.5" font-family="Helvetica,sans-Serif" font-size="10.00">AsyncFw::Thread::current</text>
</a>
</g>
</g>
<!-- Node2&#45;&gt;Node4 -->
<g id="edge4_Node000002_Node000004" class="edge">
<title>Node2&#45;&gt;Node4</title>
<g id="a_edge4_Node000002_Node000004"><a xlink:title=" ">
<path fill="none" stroke="#63b8ff" d="M360.7,-162.59C342.53,-172.1 320.4,-182.92 299.75,-191 291.7,-194.15 282.92,-197.05 274.47,-199.58"/>
<polygon fill="#63b8ff" stroke="#63b8ff" points="362.11,-165.81 369.3,-158.03 358.82,-159.62 362.11,-165.81"/>
</a>
</g>
</g>
<!-- Node6 -->
<g id="Node000006" class="node">
<title>Node6</title>
<g id="a_Node000006"><a xlink:href="classAsyncFw_1_1MulticastDns.html#ab9bfb41e98cd4ecf1cc63f8acd023afd" target="_top" xlink:title="Initializes the mDNS node with a specific target service type (e.g., &quot;_http._tcp&quot;).">
<polygon fill="white" stroke="#666666" points="293.75,-132 172.75,-132 172.75,-100 293.75,-100 293.75,-132"/>
<text text-anchor="start" x="180.75" y="-118.5" font-family="Helvetica,sans-Serif" font-size="10.00">AsyncFw::MulticastDns</text>
<text text-anchor="middle" x="233.25" y="-106.5" font-family="Helvetica,sans-Serif" font-size="10.00">::MulticastDns</text>
</a>
</g>
</g>
<!-- Node2&#45;&gt;Node6 -->
<g id="edge6_Node000002_Node000006" class="edge">
<title>Node2&#45;&gt;Node6</title>
<g id="a_edge6_Node000002_Node000006"><a xlink:title=" ">
<path fill="none" stroke="#63b8ff" d="M324.07,-129.57C314.06,-128.06 303.91,-126.52 294.21,-125.06"/>
<polygon fill="#63b8ff" stroke="#63b8ff" points="323.38,-133 333.79,-131.04 324.43,-126.08 323.38,-133"/>
</a>
</g>
</g>
<!-- Node8 -->
<g id="Node000008" class="node">
<title>Node8</title>
<g id="a_Node000008"><a xlink:href="classAsyncFw_1_1SystemProcess.html#acf60a585a89304fdb3580e9add06d155" target="_top" xlink:title="False Управляет вводом данных в запущенный процесс. Это режим ввода по умолчанию для канала ввода">
<polygon fill="white" stroke="#666666" points="299.75,-82 166.75,-82 166.75,-50 299.75,-50 299.75,-82"/>
<text text-anchor="start" x="174.75" y="-68.5" font-family="Helvetica,sans-Serif" font-size="10.00">AsyncFw::SystemProcess</text>
<text text-anchor="middle" x="233.25" y="-56.5" font-family="Helvetica,sans-Serif" font-size="10.00">::SystemProcess</text>
</a>
</g>
</g>
<!-- Node2&#45;&gt;Node8 -->
<g id="edge8_Node000002_Node000008" class="edge">
<title>Node2&#45;&gt;Node8</title>
<g id="a_edge8_Node000002_Node000008"><a xlink:title=" ">
<path fill="none" stroke="#63b8ff" d="M358.92,-119.44C340.96,-110.26 319.51,-99.68 299.75,-91 293.18,-88.11 286.15,-85.22 279.24,-82.49"/>
<polygon fill="#63b8ff" stroke="#63b8ff" points="357.21,-122.49 367.7,-123.96 360.42,-116.27 357.21,-122.49"/>
</a>
</g>
</g>
<!-- Node9 -->
<g id="Node000009" class="node">
<title>Node9</title>
<g id="a_Node000009"><a xlink:href="classAsyncFw_1_1AbstractThread_1_1Holder.html#a795fc5bb1d23123fc892b8d414c56083" target="_top" xlink:title="Runs nested exec() and wait for it completed.">
<polygon fill="white" stroke="#666666" points="298.25,-32 168.25,-32 168.25,0 298.25,0 298.25,-32"/>
<text text-anchor="start" x="176.25" y="-18.5" font-family="Helvetica,sans-Serif" font-size="10.00">AsyncFw::AbstractThread</text>
<text text-anchor="middle" x="233.25" y="-6.5" font-family="Helvetica,sans-Serif" font-size="10.00">::Holder::wait</text>
</a>
</g>
</g>
<!-- Node2&#45;&gt;Node9 -->
<g id="edge9_Node000002_Node000009" class="edge">
<title>Node2&#45;&gt;Node9</title>
<g id="a_edge9_Node000002_Node000009"><a xlink:title=" ">
<path fill="none" stroke="#63b8ff" d="M379.89,-115.82C361.22,-93.57 331.48,-61.56 299.75,-41 294.85,-37.82 289.48,-34.96 284,-32.4"/>
<polygon fill="#63b8ff" stroke="#63b8ff" points="377.17,-118.02 386.22,-123.52 382.57,-113.57 377.17,-118.02"/>
</a>
</g>
</g>
<!-- Node5 -->
<g id="Node000005" class="node">
<title>Node5</title>
<g id="a_Node000005"><a xlink:href="classAsyncFw_1_1AbstractSocket.html#a73a200f0008dbf9f820bdb2b8a0054cf" target="_top" xlink:title="Schedules the socket for deferred asynchronous destruction.">
<polygon fill="white" stroke="#666666" points="130.75,-226 0,-226 0,-194 130.75,-194 130.75,-226"/>
<text text-anchor="start" x="8" y="-212.5" font-family="Helvetica,sans-Serif" font-size="10.00">AsyncFw::AbstractSocket</text>
<text text-anchor="middle" x="65.38" y="-200.5" font-family="Helvetica,sans-Serif" font-size="10.00">::destroy</text>
</a>
</g>
</g>
<!-- Node4&#45;&gt;Node5 -->
<g id="edge5_Node000004_Node000005" class="edge">
<title>Node4&#45;&gt;Node5</title>
<g id="a_edge5_Node000004_Node000005"><a xlink:title=" ">
<path fill="none" stroke="#63b8ff" d="M157.27,-210C148.58,-210 139.77,-210 131.23,-210"/>
<polygon fill="#63b8ff" stroke="#63b8ff" points="157.08,-213.5 167.08,-210 157.08,-206.5 157.08,-213.5"/>
</a>
</g>
</g>
<!-- Node7 -->
<g id="Node000007" class="node">
<title>Node7</title>
<g id="a_Node000007"><a xlink:href="classAsyncFw_1_1MulticastDns.html#a61341fa78536e7a787bbbce75116ef3e" target="_top" xlink:title="Returns the global default instance pointer.">
<polygon fill="white" stroke="#666666" points="125.88,-132 4.88,-132 4.88,-100 125.88,-100 125.88,-132"/>
<text text-anchor="start" x="12.88" y="-118.5" font-family="Helvetica,sans-Serif" font-size="10.00">AsyncFw::MulticastDns</text>
<text text-anchor="middle" x="65.38" y="-106.5" font-family="Helvetica,sans-Serif" font-size="10.00">::instance</text>
</a>
</g>
</g>
<!-- Node6&#45;&gt;Node7 -->
<g id="edge7_Node000006_Node000007" class="edge">
<title>Node6&#45;&gt;Node7</title>
<g id="a_edge7_Node000006_Node000007"><a xlink:title=" ">
<path fill="none" stroke="#63b8ff" d="M160.92,-116C149.34,-116 137.44,-116 126.17,-116"/>
<polygon fill="#63b8ff" stroke="#63b8ff" points="160.85,-119.5 170.85,-116 160.85,-112.5 160.85,-119.5"/>
</a>
</g>
</g>
<!-- Node10 -->
<g id="Node000010" class="node">
<title>Node10</title>
<g id="a_Node000010"><a xlink:href="structAsyncFw_1_1CoroutineTask.html#a820a0a3410c4a14a71ad3599f46c1bb0" target="_top" xlink:title="Runs nested Thread::exec() and wait for task finished.">
<polygon fill="white" stroke="#666666" points="128.5,-32 2.25,-32 2.25,0 128.5,0 128.5,-32"/>
<text text-anchor="start" x="10.25" y="-18.5" font-family="Helvetica,sans-Serif" font-size="10.00">AsyncFw::CoroutineTask</text>
<text text-anchor="middle" x="65.38" y="-6.5" font-family="Helvetica,sans-Serif" font-size="10.00">::wait</text>
</a>
</g>
</g>
<!-- Node9&#45;&gt;Node10 -->
<g id="edge10_Node000009_Node000010" class="edge">
<title>Node9&#45;&gt;Node10</title>
<g id="a_edge10_Node000009_Node000010"><a xlink:title=" ">
<path fill="none" stroke="#63b8ff" d="M156.84,-16C147.52,-16 138.07,-16 128.97,-16"/>
<polygon fill="#63b8ff" stroke="#63b8ff" points="156.6,-19.5 166.6,-16 156.6,-12.5 156.6,-19.5"/>
</a>
</g>
</g>
<!-- Node11&#45;&gt;Node4 -->
<g id="edge12_Node000011_Node000004" class="edge">
<title>Node11&#45;&gt;Node4</title>
<g id="a_edge12_Node000011_Node000004"><a xlink:title=" ">
<path fill="none" stroke="#63b8ff" d="M324.41,-202.92C315.7,-203.6 306.88,-204.29 298.34,-204.97"/>
<polygon fill="#63b8ff" stroke="#63b8ff" points="324.56,-206.42 334.25,-202.14 324.01,-199.44 324.56,-206.42"/>
</a>
</g>
</g>
<!-- Node11&#45;&gt;Node11 -->
<g id="edge13_Node000011_Node000011" class="edge">
<title>Node11&#45;&gt;Node11</title>
<g id="a_edge13_Node000011_Node000011"><a xlink:title=" ">
<path fill="none" stroke="#63b8ff" d="M430.09,-218.44C426.31,-222.3 416.53,-225 400.75,-225 371.89,-225 363.1,-215.98 374.37,-207.34"/>
<polygon fill="#63b8ff" stroke="#63b8ff" points="433.48,-217.56 427.52,-208.8 426.71,-219.37 433.48,-217.56"/>
</a>
</g>
</g>
</g>
</svg>
