<?xml version="1.0" encoding="UTF-8" standalone="no"?>
<!DOCTYPE svg PUBLIC "-//W3C//DTD SVG 1.1//EN"
 "http://www.w3.org/Graphics/SVG/1.1/DTD/svg11.dtd">
<!-- Generated by graphviz version 12.2.1 (20241206.2353)
 -->
<!-- Title: AsyncFw::AbstractTlsSocket::close Pages: 1 -->
<svg width="481pt" height="62pt"
 viewBox="0.00 0.00 481.25 62.00" xmlns="http://www.w3.org/2000/svg" xmlns:xlink="http://www.w3.org/1999/xlink">
<g id="graph0" class="graph" transform="scale(1 1) rotate(0) translate(4 58)">
<title>AsyncFw::AbstractTlsSocket::close</title>
<!-- Node1 -->
<g id="Node000001" class="node">
<title>Node1</title>
<g id="a_Node000001"><a xlink:title="Closes the network connection and unsubscribes from thread polling events.">
<polygon fill="#999999" stroke="#666666" points="473.25,-32 329,-32 329,0 473.25,0 473.25,-32"/>
<text text-anchor="start" x="337" y="-18.5" font-family="Helvetica,sans-Serif" font-size="10.00">AsyncFw::AbstractTlsSocket</text>
<text text-anchor="middle" x="401.12" y="-6.5" font-family="Helvetica,sans-Serif" font-size="10.00">::close</text>
</a>
</g>
</g>
<!-- Node2 -->
<g id="Node000002" class="node">
<title>Node2</title>
<g id="a_Node000002"><a xlink:href="classAsyncFw_1_1AbstractTlsSocket.html#a57ac6daff9926cf631abcd1e19073cc8" target="_top" xlink:title="Called when established connection.">
<polygon fill="white" stroke="#666666" points="293,-54 148.75,-54 148.75,-22 293,-22 293,-54"/>
<text text-anchor="start" x="156.75" y="-40.5" font-family="Helvetica,sans-Serif" font-size="10.00">AsyncFw::AbstractTlsSocket</text>
<text text-anchor="middle" x="220.88" y="-28.5" font-family="Helvetica,sans-Serif" font-size="10.00">::activateEvent</text>
</a>
</g>
</g>
<!-- Node1&#45;&gt;Node2 -->
<g id="edge1_Node000001_Node000002" class="edge">
<title>Node1&#45;&gt;Node2</title>
<g id="a_edge1_Node000001_Node000002"><a xlink:title=" ">
<path fill="none" stroke="#63b8ff" d="M317.38,-26.21C309.36,-27.2 301.27,-28.2 293.37,-29.18"/>
<polygon fill="#63b8ff" stroke="#63b8ff" points="317.65,-29.71 327.15,-25.01 316.8,-22.76 317.65,-29.71"/>
</a>
</g>
</g>
<!-- Node3 -->
<g id="Node000003" class="node">
<title>Node3</title>
<g id="a_Node000003"><a xlink:href="classAsyncFw_1_1HttpSocket.html#ad51bb1bf5880c3037c7ad70231c0767d" target="_top" xlink:title="Called when established connection.">
<polygon fill="white" stroke="#666666" points="112.75,-32 0,-32 0,0 112.75,0 112.75,-32"/>
<text text-anchor="start" x="8" y="-18.5" font-family="Helvetica,sans-Serif" font-size="10.00">AsyncFw::HttpSocket</text>
<text text-anchor="middle" x="56.38" y="-6.5" font-family="Helvetica,sans-Serif" font-size="10.00">::activateEvent</text>
</a>
</g>
</g>
<!-- Node1&#45;&gt;Node3 -->
<g id="edge3_Node000001_Node000003" class="edge">
<title>Node1&#45;&gt;Node3</title>
<g id="a_edge3_Node000001_Node000003"><a xlink:title=" ">
<path fill="none" stroke="#63b8ff" d="M317.45,-13.45C309.19,-13.27 300.93,-13.11 293,-13 228.9,-12.1 212.85,-11.95 148.75,-13 137.16,-13.19 124.76,-13.52 112.94,-13.88"/>
<polygon fill="#63b8ff" stroke="#63b8ff" points="317.08,-16.95 327.17,-13.68 317.25,-9.95 317.08,-16.95"/>
</a>
</g>
</g>
<!-- Node2&#45;&gt;Node3 -->
<g id="edge2_Node000002_Node000003" class="edge">
<title>Node2&#45;&gt;Node3</title>
<g id="a_edge2_Node000002_Node000003"><a xlink:title=" ">
<path fill="none" stroke="#63b8ff" d="M137.35,-26.83C129.09,-25.71 120.85,-24.59 112.96,-23.53"/>
<polygon fill="#63b8ff" stroke="#63b8ff" points="136.72,-30.27 147.1,-28.15 137.66,-23.34 136.72,-30.27"/>
</a>
</g>
</g>
</g>
</svg>
