<?xml version="1.0" encoding="UTF-8" standalone="no"?>
<!DOCTYPE svg PUBLIC "-//W3C//DTD SVG 1.1//EN"
 "http://www.w3.org/Graphics/SVG/1.1/DTD/svg11.dtd">
<!-- Generated by graphviz version 14.1.3 (20260303.0454)
 -->
<!-- Title: AsyncFw::AbstractTlsSocket::read_fd Pages: 1 -->
<svg width="481pt" height="62pt"
 viewBox="0.00 0.00 481.00 62.00" xmlns="http://www.w3.org/2000/svg" xmlns:xlink="http://www.w3.org/1999/xlink">
<g id="graph0" class="graph" transform="scale(1 1) rotate(0) translate(4 58)">
<title>AsyncFw::AbstractTlsSocket::read_fd</title>
<!-- Node1 -->
<g id="Node000001" class="node">
<title>Node1</title>
<g id="a_Node000001"><a xlink:title="Low&#45;level decryption routing path proxying requests down to SSL_read().">
<polygon fill="#999999" stroke="#666666" points="144.25,-54 0,-54 0,-22 144.25,-22 144.25,-54"/>
<text xml:space="preserve" text-anchor="start" x="8" y="-40.5" font-family="Helvetica,sans-Serif" font-size="10.00">AsyncFw::AbstractTlsSocket</text>
<text xml:space="preserve" text-anchor="middle" x="72.12" y="-28.5" font-family="Helvetica,sans-Serif" font-size="10.00">::read_fd</text>
</a>
</g>
</g>
<!-- Node2 -->
<g id="Node000002" class="node">
<title>Node2</title>
<g id="a_Node000002"><a xlink:href="structAsyncFw_1_1AnyData.html#aa6d2c3488a44e34e25a0971b01a27b3c" target="_top" xlink:title="Type&#45;safely extracts and returns the stored data value.">
<polygon fill="white" stroke="#666666" points="473.25,-48 347,-48 347,-28 473.25,-28 473.25,-48"/>
<text xml:space="preserve" text-anchor="middle" x="410.12" y="-34.5" font-family="Helvetica,sans-Serif" font-size="10.00">AsyncFw::AnyData::data</text>
</a>
</g>
</g>
<!-- Node1&#45;&gt;Node2 -->
<g id="edge1_Node000001_Node000002" class="edge">
<title>Node1&#45;&gt;Node2</title>
<g id="a_edge1_Node000001_Node000002"><a xlink:title=" ">
<path fill="none" stroke="#63b8ff" d="M144.57,-40.28C156.49,-40.58 168.72,-40.84 180.25,-41 238.36,-41.81 252.9,-41.89 311,-41 318.82,-40.88 326.99,-40.71 335.13,-40.5"/>
<polygon fill="#63b8ff" stroke="#63b8ff" points="335.16,-44 345.07,-40.24 334.98,-37.01 335.16,-44"/>
</a>
</g>
</g>
<!-- Node3 -->
<g id="Node000003" class="node">
<title>Node3</title>
<g id="a_Node000003"><a xlink:href="classAsyncFw_1_1AbstractSocket.html#a25efdce1c4a0dedf15e57cb0af971d86" target="_top" xlink:title="Low&#45;level native operating system read operation proxying requests directly down to the fd handle.">
<polygon fill="white" stroke="#666666" points="311,-32 180.25,-32 180.25,0 311,0 311,-32"/>
<text xml:space="preserve" text-anchor="start" x="188.25" y="-18.5" font-family="Helvetica,sans-Serif" font-size="10.00">AsyncFw::AbstractSocket</text>
<text xml:space="preserve" text-anchor="middle" x="245.62" y="-6.5" font-family="Helvetica,sans-Serif" font-size="10.00">::read_fd</text>
</a>
</g>
</g>
<!-- Node1&#45;&gt;Node3 -->
<g id="edge2_Node000001_Node000003" class="edge">
<title>Node1&#45;&gt;Node3</title>
<g id="a_edge2_Node000001_Node000003"><a xlink:title=" ">
<path fill="none" stroke="#63b8ff" d="M144.37,-28.86C152.37,-27.83 160.55,-26.78 168.62,-25.75"/>
<polygon fill="#63b8ff" stroke="#63b8ff" points="168.94,-29.24 178.41,-24.49 168.05,-22.3 168.94,-29.24"/>
</a>
</g>
</g>
<!-- Node3&#45;&gt;Node2 -->
<g id="edge3_Node000003_Node000002" class="edge">
<title>Node3&#45;&gt;Node2</title>
<g id="a_edge3_Node000003_Node000002"><a xlink:title=" ">
<path fill="none" stroke="#63b8ff" d="M311.32,-24.76C319.2,-25.83 327.29,-26.92 335.3,-28"/>
<polygon fill="#63b8ff" stroke="#63b8ff" points="334.63,-31.45 345.01,-29.32 335.57,-24.51 334.63,-31.45"/>
</a>
</g>
</g>
</g>
</svg>
