<?xml version="1.0" encoding="UTF-8" standalone="no"?>
<!DOCTYPE svg PUBLIC "-//W3C//DTD SVG 1.1//EN"
 "http://www.w3.org/Graphics/SVG/1.1/DTD/svg11.dtd">
<!-- Generated by graphviz version 12.2.1 (20241206.2353)
 -->
<!-- Title: AsyncFw::AbstractThread::AbstractThread Pages: 1 -->
<svg width="632pt" height="102pt"
 viewBox="0.00 0.00 632.25 102.00" xmlns="http://www.w3.org/2000/svg" xmlns:xlink="http://www.w3.org/1999/xlink">
<g id="graph0" class="graph" transform="scale(1 1) rotate(0) translate(4 98)">
<title>AsyncFw::AbstractThread::AbstractThread</title>
<!-- Node1 -->
<g id="Node000001" class="node">
<title>Node1</title>
<g id="a_Node000001"><a xlink:title="Constructs a thread.">
<polygon fill="#999999" stroke="#666666" points="624.25,-60 494.25,-60 494.25,-28 624.25,-28 624.25,-60"/>
<text text-anchor="start" x="502.25" y="-46.5" font-family="Helvetica,sans-Serif" font-size="10.00">AsyncFw::AbstractThread</text>
<text text-anchor="middle" x="559.25" y="-34.5" font-family="Helvetica,sans-Serif" font-size="10.00">::AbstractThread</text>
</a>
</g>
</g>
<!-- Node2 -->
<g id="Node000002" class="node">
<title>Node2</title>
<g id="a_Node000002"><a xlink:href="classAsyncFw_1_1AbstractThread.html#ac1b35ef04b06ce771f6d6ca0a5b120db" target="_top" xlink:title="Returns a pointer to the AsyncFw::AbstractThread that manages the currently executing thread.">
<polygon fill="white" stroke="#666666" points="458.25,-38 328.25,-38 328.25,-6 458.25,-6 458.25,-38"/>
<text text-anchor="start" x="336.25" y="-24.5" font-family="Helvetica,sans-Serif" font-size="10.00">AsyncFw::AbstractThread</text>
<text text-anchor="middle" x="393.25" y="-12.5" font-family="Helvetica,sans-Serif" font-size="10.00">::currentThread</text>
</a>
</g>
</g>
<!-- Node1&#45;&gt;Node2 -->
<g id="edge1_Node000001_Node000002" class="edge">
<title>Node1&#45;&gt;Node2</title>
<g id="a_edge1_Node000001_Node000002"><a xlink:title=" ">
<path fill="none" stroke="#63b8ff" d="M482.66,-33.86C474.65,-32.78 466.55,-31.7 458.68,-30.64"/>
<polygon fill="#63b8ff" stroke="#63b8ff" points="482.03,-37.31 492.4,-35.17 482.96,-30.37 482.03,-37.31"/>
</a>
</g>
</g>
<!-- Node6 -->
<g id="Node000006" class="node">
<title>Node6</title>
<g id="a_Node000006"><a xlink:href="classAsyncFw_1_1Thread.html#afc5e422090767dd84020381fb9a4d490" target="_top" xlink:title="Constructs a thread.">
<polygon fill="white" stroke="#666666" points="457.88,-76 328.62,-76 328.62,-56 457.88,-56 457.88,-76"/>
<text text-anchor="middle" x="393.25" y="-62.5" font-family="Helvetica,sans-Serif" font-size="10.00">AsyncFw::Thread::Thread</text>
</a>
</g>
</g>
<!-- Node1&#45;&gt;Node6 -->
<g id="edge5_Node000001_Node000006" class="edge">
<title>Node1&#45;&gt;Node6</title>
<g id="a_edge5_Node000001_Node000006"><a xlink:title=" ">
<path fill="none" stroke="#63b8ff" d="M482.77,-54.13C474.53,-55.23 466.21,-56.35 458.14,-57.43"/>
<polygon fill="#63b8ff" stroke="#63b8ff" points="482.96,-57.63 492.4,-52.83 482.03,-50.69 482.96,-57.63"/>
</a>
</g>
</g>
<!-- Node3 -->
<g id="Node000003" class="node">
<title>Node3</title>
<g id="a_Node000003"><a xlink:href="classAsyncFw_1_1Thread.html#a46662ffa7482f1c1e52b654c51639fd2" target="_top" xlink:title="Returns a pointer to the AsyncFw::Thread that manages the currently executing thread.">
<polygon fill="white" stroke="#666666" points="291.88,-82 162.62,-82 162.62,-50 291.88,-50 291.88,-82"/>
<text text-anchor="start" x="170.62" y="-68.5" font-family="Helvetica,sans-Serif" font-size="10.00">AsyncFw::Thread::current</text>
<text text-anchor="middle" x="227.25" y="-56.5" font-family="Helvetica,sans-Serif" font-size="10.00">Thread</text>
</a>
</g>
</g>
<!-- Node2&#45;&gt;Node3 -->
<g id="edge2_Node000002_Node000003" class="edge">
<title>Node2&#45;&gt;Node3</title>
<g id="a_edge2_Node000002_Node000003"><a xlink:title=" ">
<path fill="none" stroke="#63b8ff" d="M320.23,-41.32C310.03,-44.06 299.62,-46.85 289.64,-49.53"/>
<polygon fill="#63b8ff" stroke="#63b8ff" points="320.97,-44.75 329.72,-38.78 319.16,-37.99 320.97,-44.75"/>
</a>
</g>
</g>
<!-- Node4 -->
<g id="Node000004" class="node">
<title>Node4</title>
<g id="a_Node000004"><a xlink:href="classAsyncFw_1_1AbstractThread_1_1Holder.html#a795fc5bb1d23123fc892b8d414c56083" target="_top" xlink:title="Runs nested exec() and wait for it completed.">
<polygon fill="white" stroke="#666666" points="292.25,-32 162.25,-32 162.25,0 292.25,0 292.25,-32"/>
<text text-anchor="start" x="170.25" y="-18.5" font-family="Helvetica,sans-Serif" font-size="10.00">AsyncFw::AbstractThread</text>
<text text-anchor="middle" x="227.25" y="-6.5" font-family="Helvetica,sans-Serif" font-size="10.00">::Holder::wait</text>
</a>
</g>
</g>
<!-- Node2&#45;&gt;Node4 -->
<g id="edge3_Node000002_Node000004" class="edge">
<title>Node2&#45;&gt;Node4</title>
<g id="a_edge3_Node000002_Node000004"><a xlink:title=" ">
<path fill="none" stroke="#63b8ff" d="M316.66,-19.23C308.65,-18.94 300.55,-18.65 292.68,-18.36"/>
<polygon fill="#63b8ff" stroke="#63b8ff" points="316.27,-22.72 326.39,-19.59 316.53,-15.73 316.27,-22.72"/>
</a>
</g>
</g>
<!-- Node5 -->
<g id="Node000005" class="node">
<title>Node5</title>
<g id="a_Node000005"><a xlink:href="structAsyncFw_1_1CoroutineTask.html#a820a0a3410c4a14a71ad3599f46c1bb0" target="_top" xlink:title="Runs nested Thread::exec() and wait for task finished.">
<polygon fill="white" stroke="#666666" points="126.25,-32 0,-32 0,0 126.25,0 126.25,-32"/>
<text text-anchor="start" x="8" y="-18.5" font-family="Helvetica,sans-Serif" font-size="10.00">AsyncFw::CoroutineTask</text>
<text text-anchor="middle" x="63.12" y="-6.5" font-family="Helvetica,sans-Serif" font-size="10.00">::wait</text>
</a>
</g>
</g>
<!-- Node4&#45;&gt;Node5 -->
<g id="edge4_Node000004_Node000005" class="edge">
<title>Node4&#45;&gt;Node5</title>
<g id="a_edge4_Node000004_Node000005"><a xlink:title=" ">
<path fill="none" stroke="#63b8ff" d="M150.83,-16C142.75,-16 134.59,-16 126.68,-16"/>
<polygon fill="#63b8ff" stroke="#63b8ff" points="150.66,-19.5 160.66,-16 150.66,-12.5 150.66,-19.5"/>
</a>
</g>
</g>
<!-- Node6&#45;&gt;Node3 -->
<g id="edge6_Node000006_Node000003" class="edge">
<title>Node6&#45;&gt;Node3</title>
<g id="a_edge6_Node000006_Node000003"><a xlink:title=" ">
<path fill="none" stroke="#63b8ff" d="M317.12,-66C308.8,-66 300.39,-66 292.22,-66"/>
<polygon fill="#63b8ff" stroke="#63b8ff" points="316.86,-69.5 326.86,-66 316.86,-62.5 316.86,-69.5"/>
</a>
</g>
</g>
<!-- Node6&#45;&gt;Node6 -->
<g id="edge7_Node000006_Node000006" class="edge">
<title>Node6&#45;&gt;Node6</title>
<g id="a_edge7_Node000006_Node000006"><a xlink:title=" ">
<path fill="none" stroke="#63b8ff" d="M422.59,-87.44C418.81,-91.3 409.03,-94 393.25,-94 364.39,-94 355.6,-84.98 366.87,-76.34"/>
<polygon fill="#63b8ff" stroke="#63b8ff" points="425.98,-86.56 420.02,-77.8 419.21,-88.37 425.98,-86.56"/>
</a>
</g>
</g>
</g>
</svg>
