<?xml version="1.0" encoding="UTF-8" standalone="no"?>
<!DOCTYPE svg PUBLIC "-//W3C//DTD SVG 1.1//EN"
 "http://www.w3.org/Graphics/SVG/1.1/DTD/svg11.dtd">
<!-- Generated by graphviz version 14.1.3 (20260303.0454)
 -->
<!-- Title: AsyncFw::HttpServer::TcpSocket::readEvent Pages: 1 -->
<svg width="604pt" height="90pt"
 viewBox="0.00 0.00 604.00 90.00" xmlns="http://www.w3.org/2000/svg" xmlns:xlink="http://www.w3.org/1999/xlink">
<g id="graph0" class="graph" transform="scale(1 1) rotate(0) translate(4 86)">
<title>AsyncFw::HttpServer::TcpSocket::readEvent</title>
<!-- Node1 -->
<g id="Node000001" class="node">
<title>Node1</title>
<g id="a_Node000001"><a xlink:title="Triggered when new raw data is available in the socket for reading. &#160;&#160;Overrides the base behavior to ...">
<polygon fill="#999999" stroke="#666666" points="118,-60 0,-60 0,-28 118,-28 118,-60"/>
<text xml:space="preserve" text-anchor="start" x="8" y="-46.5" font-family="Helvetica,sans-Serif" font-size="10.00">AsyncFw::HttpServer</text>
<text xml:space="preserve" text-anchor="middle" x="59" y="-34.5" font-family="Helvetica,sans-Serif" font-size="10.00">::TcpSocket::readEvent</text>
</a>
</g>
</g>
<!-- Node2 -->
<g id="Node000002" class="node">
<title>Node2</title>
<g id="a_Node000002"><a xlink:href="classAsyncFw_1_1HttpSocket.html#a33dadd18584b3b2b76a02dffa0a831fb" target="_top" xlink:title="Shuts down the active TLS session gracefully via SSL_shutdown() before terminating the network pipe.">
<polygon fill="white" stroke="#666666" points="415.5,-82 302.75,-82 302.75,-50 415.5,-50 415.5,-82"/>
<text xml:space="preserve" text-anchor="start" x="310.75" y="-68.5" font-family="Helvetica,sans-Serif" font-size="10.00">AsyncFw::HttpSocket</text>
<text xml:space="preserve" text-anchor="middle" x="359.12" y="-56.5" font-family="Helvetica,sans-Serif" font-size="10.00">::disconnect</text>
</a>
</g>
</g>
<!-- Node1&#45;&gt;Node2 -->
<g id="edge1_Node000001_Node000002" class="edge">
<title>Node1&#45;&gt;Node2</title>
<g id="a_edge1_Node000001_Node000002"><a xlink:title=" ">
<path fill="none" stroke="#63b8ff" d="M118.19,-48.29C167.73,-51.95 238.94,-57.2 290.91,-61.04"/>
<polygon fill="#63b8ff" stroke="#63b8ff" points="290.61,-64.53 300.84,-61.77 291.13,-57.55 290.61,-64.53"/>
</a>
</g>
</g>
<!-- Node4 -->
<g id="Node000004" class="node">
<title>Node4</title>
<g id="a_Node000004"><a xlink:href="classAsyncFw_1_1HttpSocket.html#a7163448458d68f433dbdb214a6175be3" target="_top" xlink:title="Called when there is data to read.">
<polygon fill="white" stroke="#666666" points="266.75,-38 154,-38 154,-6 266.75,-6 266.75,-38"/>
<text xml:space="preserve" text-anchor="start" x="162" y="-24.5" font-family="Helvetica,sans-Serif" font-size="10.00">AsyncFw::HttpSocket</text>
<text xml:space="preserve" text-anchor="middle" x="210.38" y="-12.5" font-family="Helvetica,sans-Serif" font-size="10.00">::readEvent</text>
</a>
</g>
</g>
<!-- Node1&#45;&gt;Node4 -->
<g id="edge3_Node000001_Node000004" class="edge">
<title>Node1&#45;&gt;Node4</title>
<g id="a_edge3_Node000001_Node000004"><a xlink:title=" ">
<path fill="none" stroke="#63b8ff" d="M118.18,-35.43C126.09,-34.27 134.25,-33.06 142.3,-31.88"/>
<polygon fill="#63b8ff" stroke="#63b8ff" points="142.68,-35.36 152.06,-30.44 141.66,-28.44 142.68,-35.36"/>
</a>
</g>
</g>
<!-- Node3 -->
<g id="Node000003" class="node">
<title>Node3</title>
<g id="a_Node000003"><a xlink:href="classAsyncFw_1_1AbstractTlsSocket.html#af52f94f709ab74eace61da79cbd8af7d" target="_top" xlink:title="Shuts down the active TLS session gracefully via SSL_shutdown() before terminating the network pipe.">
<polygon fill="white" stroke="#666666" points="595.75,-82 451.5,-82 451.5,-50 595.75,-50 595.75,-82"/>
<text xml:space="preserve" text-anchor="start" x="459.5" y="-68.5" font-family="Helvetica,sans-Serif" font-size="10.00">AsyncFw::AbstractTlsSocket</text>
<text xml:space="preserve" text-anchor="middle" x="523.62" y="-56.5" font-family="Helvetica,sans-Serif" font-size="10.00">::disconnect</text>
</a>
</g>
</g>
<!-- Node2&#45;&gt;Node3 -->
<g id="edge2_Node000002_Node000003" class="edge">
<title>Node2&#45;&gt;Node3</title>
<g id="a_edge2_Node000002_Node000003"><a xlink:title=" ">
<path fill="none" stroke="#63b8ff" d="M415.59,-66C423.34,-66 431.44,-66 439.56,-66"/>
<polygon fill="#63b8ff" stroke="#63b8ff" points="439.52,-69.5 449.52,-66 439.52,-62.5 439.52,-69.5"/>
</a>
</g>
</g>
<!-- Node4&#45;&gt;Node2 -->
<g id="edge4_Node000004_Node000002" class="edge">
<title>Node4&#45;&gt;Node2</title>
<g id="a_edge4_Node000004_Node000002"><a xlink:title=" ">
<path fill="none" stroke="#63b8ff" d="M266.02,-38.38C274.71,-40.99 283.78,-43.71 292.68,-46.38"/>
<polygon fill="#63b8ff" stroke="#63b8ff" points="291.4,-49.65 301.99,-49.17 293.41,-42.94 291.4,-49.65"/>
</a>
</g>
</g>
<!-- Node5 -->
<g id="Node000005" class="node">
<title>Node5</title>
<g id="a_Node000005"><a xlink:href="classAsyncFw_1_1DataArray.html#a5406261e5730adfa64e4d0bbd0083e31" target="_top" xlink:title="Creates a lightweight, non&#45;allocating view slicing a sub&#45;region of this byte array.">
<polygon fill="white" stroke="#666666" points="412.88,-32 305.38,-32 305.38,0 412.88,0 412.88,-32"/>
<text xml:space="preserve" text-anchor="start" x="313.38" y="-18.5" font-family="Helvetica,sans-Serif" font-size="10.00">AsyncFw::DataArray</text>
<text xml:space="preserve" text-anchor="middle" x="359.12" y="-6.5" font-family="Helvetica,sans-Serif" font-size="10.00">::view</text>
</a>
</g>
</g>
<!-- Node4&#45;&gt;Node5 -->
<g id="edge5_Node000004_Node000005" class="edge">
<title>Node4&#45;&gt;Node5</title>
<g id="a_edge5_Node000004_Node000005"><a xlink:title=" ">
<path fill="none" stroke="#63b8ff" d="M266.85,-19.73C275.64,-19.37 284.8,-19 293.77,-18.63"/>
<polygon fill="#63b8ff" stroke="#63b8ff" points="293.63,-22.14 303.48,-18.23 293.35,-15.15 293.63,-22.14"/>
</a>
</g>
</g>
</g>
</svg>
