<?xml version="1.0" encoding="UTF-8" standalone="no"?>
<!DOCTYPE svg PUBLIC "-//W3C//DTD SVG 1.1//EN"
 "http://www.w3.org/Graphics/SVG/1.1/DTD/svg11.dtd">
<!-- Generated by graphviz version 14.1.3 (20260303.0454)
 -->
<!-- Title: AsyncFw::Log Pages: 1 -->
<svg width="374pt" height="277pt"
 viewBox="0.00 0.00 374.00 277.00" xmlns="http://www.w3.org/2000/svg" xmlns:xlink="http://www.w3.org/1999/xlink">
<g id="graph0" class="graph" transform="scale(1 1) rotate(0) translate(4 273)">
<title>AsyncFw::Log</title>
<!-- Node1 -->
<g id="Node000001" class="node">
<title>Node1</title>
<g id="a_Node000001"><a xlink:title="Asynchronous log manager with circular database (Rrd) backend and duplicate сompression.">
<polygon fill="#999999" stroke="#666666" points="226.38,-20 147.38,-20 147.38,0 226.38,0 226.38,-20"/>
<text xml:space="preserve" text-anchor="middle" x="186.88" y="-6.5" font-family="Helvetica,sans-Serif" font-size="10.00">AsyncFw::Log</text>
</a>
</g>
</g>
<!-- Node2 -->
<g id="Node000002" class="node">
<title>Node2</title>
<g id="a_Node000002"><a xlink:href="classAsyncFw_1_1Rrd.html" target="_top" xlink:title="A high&#45;performance circular database engine (Round&#45;Robin Database) for time&#45;series and structural dat...">
<polygon fill="white" stroke="#666666" points="273.38,-77 194.38,-77 194.38,-57 273.38,-57 273.38,-77"/>
<text xml:space="preserve" text-anchor="middle" x="233.88" y="-63.5" font-family="Helvetica,sans-Serif" font-size="10.00">AsyncFw::Rrd</text>
</a>
</g>
</g>
<!-- Node2&#45;&gt;Node1 -->
<g id="edge1_Node000001_Node000002" class="edge">
<title>Node2&#45;&gt;Node1</title>
<g id="a_edge1_Node000001_Node000002"><a xlink:title=" ">
<path fill="none" stroke="#63b8ff" d="M218.8,-48.36C210.82,-39.02 201.35,-27.94 194.8,-20.28"/>
<polygon fill="#63b8ff" stroke="#63b8ff" points="215.97,-50.44 225.13,-55.77 221.29,-45.89 215.97,-50.44"/>
</a>
</g>
</g>
<!-- Node3 -->
<g id="Node000003" class="node">
<title>Node3</title>
<g id="a_Node000003"><a xlink:href="classAsyncFw_1_1FunctionConnector.html" target="_top" xlink:title="Provides a thread&#45;safe, publisher&#45;subscriber mechanism to establish sender&#45;to&#45;receivers connections.">
<polygon fill="white" stroke="#666666" points="145.75,-269 0,-269 0,-237 145.75,-237 145.75,-269"/>
<text xml:space="preserve" text-anchor="start" x="8" y="-255.5" font-family="Helvetica,sans-Serif" font-size="10.00">AsyncFw::FunctionConnector</text>
<text xml:space="preserve" text-anchor="middle" x="72.88" y="-243.5" font-family="Helvetica,sans-Serif" font-size="10.00">&lt; Args &gt;</text>
</a>
</g>
</g>
<!-- Node3&#45;&gt;Node2 -->
<g id="edge2_Node000002_Node000003" class="edge">
<title>Node3&#45;&gt;Node2</title>
<g id="a_edge2_Node000002_Node000003"><a xlink:title=" ">
<path fill="none" stroke="#9a32cd" stroke-dasharray="5,2" d="M68.28,-225.4C65.21,-199.46 64.39,-159.81 81.38,-131 96.31,-105.67 110.07,-107.08 136.88,-95 155.04,-86.81 176.27,-80.56 194.22,-76.15"/>
<polygon fill="#9a32cd" stroke="#9a32cd" points="64.78,-225.67 69.63,-235.09 71.71,-224.7 64.78,-225.67"/>
</a>
</g>
<text xml:space="preserve" text-anchor="start" x="84.38" y="-137.25" font-family="Helvetica,sans-Serif" font-size="10.00" fill="grey">updated</text>
</g>
<!-- Node4 -->
<g id="Node000004" class="node">
<title>Node4</title>
<g id="a_Node000004"><a xlink:href="classAsyncFw_1_1Thread.html" target="_top" xlink:title="AsyncFw::Thread thread with sockets.">
<polygon fill="white" stroke="#666666" points="224.5,-151 131.25,-151 131.25,-131 224.5,-131 224.5,-151"/>
<text xml:space="preserve" text-anchor="middle" x="177.88" y="-137.5" font-family="Helvetica,sans-Serif" font-size="10.00">AsyncFw::Thread</text>
</a>
</g>
</g>
<!-- Node3&#45;&gt;Node4 -->
<g id="edge5_Node000004_Node000003" class="edge">
<title>Node3&#45;&gt;Node4</title>
<g id="a_edge5_Node000004_Node000003"><a xlink:title=" ">
<path fill="none" stroke="#9a32cd" stroke-dasharray="5,2" d="M90.67,-227.82C103.93,-210.55 122.98,-187.24 142.12,-169 148.88,-162.56 157.16,-156.23 164.05,-151.31"/>
<polygon fill="#9a32cd" stroke="#9a32cd" points="88.09,-225.42 84.85,-235.51 93.67,-229.65 88.09,-225.42"/>
</a>
</g>
<text xml:space="preserve" text-anchor="start" x="145.12" y="-206.25" font-family="Helvetica,sans-Serif" font-size="10.00" fill="grey">destroing</text>
<text xml:space="preserve" text-anchor="start" x="145.12" y="-190.25" font-family="Helvetica,sans-Serif" font-size="10.00" fill="grey">finished</text>
<text xml:space="preserve" text-anchor="start" x="145.12" y="-174.25" font-family="Helvetica,sans-Serif" font-size="10.00" fill="grey">started</text>
</g>
<!-- Node4&#45;&gt;Node2 -->
<g id="edge3_Node000002_Node000004" class="edge">
<title>Node4&#45;&gt;Node2</title>
<g id="a_edge3_Node000002_Node000004"><a xlink:title=" ">
<path fill="none" stroke="#9a32cd" stroke-dasharray="5,2" d="M192.12,-121.68C203.18,-107.47 218.04,-88.36 226.73,-77.19"/>
<polygon fill="#9a32cd" stroke="#9a32cd" points="189.5,-119.35 186.13,-129.39 195.03,-123.65 189.5,-119.35"/>
</a>
</g>
<text xml:space="preserve" text-anchor="start" x="215.54" y="-100.25" font-family="Helvetica,sans-Serif" font-size="10.00" fill="grey">thread_</text>
</g>
<!-- Node7 -->
<g id="Node000007" class="node">
<title>Node7</title>
<g id="a_Node000007"><a xlink:href="classAsyncFw_1_1AbstractLog.html" target="_top" xlink:title="The AbstractLog class provides the core thread&#45;safe infrastructure for log management and duplicate r...">
<polygon fill="white" stroke="#666666" points="176.75,-77 61,-77 61,-57 176.75,-57 176.75,-77"/>
<text xml:space="preserve" text-anchor="middle" x="118.88" y="-63.5" font-family="Helvetica,sans-Serif" font-size="10.00">AsyncFw::AbstractLog</text>
</a>
</g>
</g>
<!-- Node4&#45;&gt;Node7 -->
<g id="edge8_Node000007_Node000004" class="edge">
<title>Node4&#45;&gt;Node7</title>
<g id="a_edge8_Node000007_Node000004"><a xlink:title=" ">
<path fill="none" stroke="#9a32cd" stroke-dasharray="5,2" d="M162.87,-121.68C151.22,-107.47 135.55,-88.36 126.4,-77.19"/>
<polygon fill="#9a32cd" stroke="#9a32cd" points="160.16,-123.9 169.2,-129.42 165.57,-119.46 160.16,-123.9"/>
</a>
</g>
<text xml:space="preserve" text-anchor="start" x="158.39" y="-100.25" font-family="Helvetica,sans-Serif" font-size="10.00" fill="grey">thread_</text>
</g>
<!-- Node5 -->
<g id="Node000005" class="node">
<title>Node5</title>
<g id="a_Node000005"><a xlink:href="classAsyncFw_1_1AbstractThread.html" target="_top" xlink:title="The AbstractThread class provides the base functionality for thread management.">
<polygon fill="white" stroke="#666666" points="293.88,-263 163.88,-263 163.88,-243 293.88,-243 293.88,-263"/>
<text xml:space="preserve" text-anchor="middle" x="228.88" y="-249.5" font-family="Helvetica,sans-Serif" font-size="10.00">AsyncFw::AbstractThread</text>
</a>
</g>
</g>
<!-- Node5&#45;&gt;Node4 -->
<g id="edge4_Node000004_Node000005" class="edge">
<title>Node5&#45;&gt;Node4</title>
<g id="a_edge4_Node000004_Node000005"><a xlink:title=" ">
<path fill="none" stroke="#63b8ff" d="M219.74,-232.3C208.67,-208.43 190.48,-169.2 182.21,-151.35"/>
<polygon fill="#63b8ff" stroke="#63b8ff" points="216.51,-233.65 223.89,-241.25 222.86,-230.7 216.51,-233.65"/>
</a>
</g>
</g>
<!-- Node6 -->
<g id="Node000006" class="node">
<title>Node6</title>
<g id="a_Node000006"><a xlink:href="classAsyncFw_1_1DataArrayList.html" target="_top" xlink:title="A specialized container aggregating multiple DataArray instances.">
<polygon fill="white" stroke="#666666" points="365.5,-151 242.25,-151 242.25,-131 365.5,-131 365.5,-151"/>
<text xml:space="preserve" text-anchor="middle" x="303.88" y="-137.5" font-family="Helvetica,sans-Serif" font-size="10.00">AsyncFw::DataArrayList</text>
</a>
</g>
</g>
<!-- Node6&#45;&gt;Node2 -->
<g id="edge6_Node000002_Node000006" class="edge">
<title>Node6&#45;&gt;Node2</title>
<g id="a_edge6_Node000002_Node000006"><a xlink:title=" ">
<path fill="none" stroke="#9a32cd" stroke-dasharray="5,2" d="M286.86,-122.5C272.96,-108.21 253.87,-88.57 242.81,-77.19"/>
<polygon fill="#9a32cd" stroke="#9a32cd" points="284.19,-124.77 293.67,-129.5 289.21,-119.89 284.19,-124.77"/>
</a>
</g>
<text xml:space="preserve" text-anchor="start" x="280.2" y="-100.25" font-family="Helvetica,sans-Serif" font-size="10.00" fill="grey">dataBase</text>
</g>
<!-- Node7&#45;&gt;Node1 -->
<g id="edge7_Node000001_Node000007" class="edge">
<title>Node7&#45;&gt;Node1</title>
<g id="a_edge7_Node000001_Node000007"><a xlink:title=" ">
<path fill="none" stroke="#63b8ff" d="M139.22,-49.54C151.1,-39.94 165.64,-28.18 175.51,-20.19"/>
<polygon fill="#63b8ff" stroke="#63b8ff" points="137.16,-46.71 131.59,-55.72 141.56,-52.15 137.16,-46.71"/>
</a>
</g>
</g>
</g>
</svg>
