<?xml version="1.0" encoding="UTF-8" standalone="no"?>
<!DOCTYPE svg PUBLIC "-//W3C//DTD SVG 1.1//EN"
 "http://www.w3.org/Graphics/SVG/1.1/DTD/svg11.dtd">
<!-- Generated by graphviz version 12.2.1 (20241206.2353)
 -->
<!-- Title: AsyncFw::RrdServer Pages: 1 -->
<svg width="1159pt" height="105pt"
 viewBox="0.00 0.00 1159.25 104.73" xmlns="http://www.w3.org/2000/svg" xmlns:xlink="http://www.w3.org/1999/xlink">
<g id="graph0" class="graph" transform="scale(1 1) rotate(0) translate(4 100.73)">
<title>AsyncFw::RrdServer</title>
<!-- Node1 -->
<g id="Node000001" class="node">
<title>Node1</title>
<g id="a_Node000001"><a xlink:title="The RrdServer class.">
<polygon fill="#999999" stroke="#666666" points="1151.25,-43 1043.75,-43 1043.75,-23 1151.25,-23 1151.25,-43"/>
<text text-anchor="middle" x="1097.5" y="-29.5" font-family="Helvetica,sans-Serif" font-size="10.00">AsyncFw::RrdServer</text>
</a>
</g>
</g>
<!-- Node2 -->
<g id="Node000002" class="node">
<title>Node2</title>
<g id="a_Node000002"><a xlink:href="classAsyncFw_1_1DataArrayTcpServer.html" target="_top" xlink:title="The DataArrayTcpServer class.">
<polygon fill="white" stroke="#666666" points="962.75,-70 811.75,-70 811.75,-50 962.75,-50 962.75,-70"/>
<text text-anchor="middle" x="887.25" y="-56.5" font-family="Helvetica,sans-Serif" font-size="10.00">AsyncFw::DataArrayTcpServer</text>
</a>
</g>
</g>
<!-- Node2&#45;&gt;Node1 -->
<g id="edge1_Node000001_Node000002" class="edge">
<title>Node2&#45;&gt;Node1</title>
<g id="a_edge1_Node000001_Node000002"><a xlink:title=" ">
<path fill="none" stroke="#9a32cd" stroke-dasharray="5,2" d="M974.5,-48.82C997.88,-45.79 1022.51,-42.59 1043.46,-39.88"/>
<polygon fill="#9a32cd" stroke="#9a32cd" points="974.11,-45.34 964.64,-50.1 975.01,-52.28 974.11,-45.34"/>
</a>
</g>
<text text-anchor="middle" x="1003.25" y="-49.81" font-family="Helvetica,sans-Serif" font-size="10.00" fill="grey"> tcpServer</text>
</g>
<!-- Node3 -->
<g id="Node000003" class="node">
<title>Node3</title>
<g id="a_Node000003"><a xlink:href="classAsyncFw_1_1DataArrayAbstractTcp.html" target="_top" xlink:title="The DataArrayAbstractTcp class.">
<polygon fill="white" stroke="#666666" points="774.75,-70 615.5,-70 615.5,-50 774.75,-50 774.75,-70"/>
<text text-anchor="middle" x="695.12" y="-56.5" font-family="Helvetica,sans-Serif" font-size="10.00">AsyncFw::DataArrayAbstractTcp</text>
</a>
</g>
</g>
<!-- Node3&#45;&gt;Node2 -->
<g id="edge2_Node000002_Node000003" class="edge">
<title>Node3&#45;&gt;Node2</title>
<g id="a_edge2_Node000002_Node000003"><a xlink:title=" ">
<path fill="none" stroke="#63b8ff" d="M786.47,-60C794.84,-60 803.27,-60 811.48,-60"/>
<polygon fill="#63b8ff" stroke="#63b8ff" points="786.62,-56.5 776.62,-60 786.62,-63.5 786.62,-56.5"/>
</a>
</g>
</g>
<!-- Node4 -->
<g id="Node000004" class="node">
<title>Node4</title>
<g id="a_Node000004"><a xlink:href="classAsyncFw_1_1AbstractThreadPool.html" target="_top" xlink:title="Абстрактный класс для создания пулов управления потоками.">
<polygon fill="white" stroke="#666666" points="505.25,-94 355.75,-94 355.75,-74 505.25,-74 505.25,-94"/>
<text text-anchor="middle" x="430.5" y="-80.5" font-family="Helvetica,sans-Serif" font-size="10.00">AsyncFw::AbstractThreadPool</text>
</a>
</g>
</g>
<!-- Node4&#45;&gt;Node3 -->
<g id="edge3_Node000003_Node000004" class="edge">
<title>Node4&#45;&gt;Node3</title>
<g id="a_edge3_Node000003_Node000004"><a xlink:title=" ">
<path fill="none" stroke="#63b8ff" d="M517.12,-76.18C548.63,-73.3 584.15,-70.05 615.06,-67.23"/>
<polygon fill="#63b8ff" stroke="#63b8ff" points="516.85,-72.69 507.21,-77.08 517.49,-79.66 516.85,-72.69"/>
</a>
</g>
</g>
<!-- Node5 -->
<g id="Node000005" class="node">
<title>Node5</title>
<g id="a_Node000005"><a xlink:href="classAsyncFw_1_1AbstractThread.html" target="_top" xlink:title="The AbstractThread class provides the base functionality for thread management.">
<polygon fill="white" stroke="#666666" points="137.88,-95 7.88,-95 7.88,-75 137.88,-75 137.88,-95"/>
<text text-anchor="middle" x="72.88" y="-81.5" font-family="Helvetica,sans-Serif" font-size="10.00">AsyncFw::AbstractThread</text>
</a>
</g>
</g>
<!-- Node5&#45;&gt;Node4 -->
<g id="edge4_Node000004_Node000005" class="edge">
<title>Node5&#45;&gt;Node4</title>
<g id="a_edge4_Node000004_Node000005"><a xlink:title=" ">
<path fill="none" stroke="#9a32cd" stroke-dasharray="5,2" d="M149.71,-84.79C210.45,-84.62 295.17,-84.38 355.44,-84.21"/>
<polygon fill="#9a32cd" stroke="#9a32cd" points="149.78,-81.29 139.79,-84.81 149.8,-88.29 149.78,-81.29"/>
</a>
</g>
<text text-anchor="middle" x="233.5" y="-87.23" font-family="Helvetica,sans-Serif" font-size="10.00" fill="grey"> thread_</text>
</g>
<!-- Node6 -->
<g id="Node000006" class="node">
<title>Node6</title>
<g id="a_Node000006"><a xlink:href="classAsyncFw_1_1FunctionConnectorProtected.html" target="_top" xlink:title=" ">
<polygon fill="white" stroke="#666666" points="539.75,-55 321.25,-55 321.25,-23 539.75,-23 539.75,-55"/>
<text text-anchor="start" x="329.25" y="-41.5" font-family="Helvetica,sans-Serif" font-size="10.00">AsyncFw::FunctionConnector</text>
<text text-anchor="middle" x="430.5" y="-29.5" font-family="Helvetica,sans-Serif" font-size="10.00">Protected&lt; AsyncFw::DataArrayAbstractTcp &gt;</text>
</a>
</g>
</g>
<!-- Node6&#45;&gt;Node3 -->
<g id="edge5_Node000003_Node000006" class="edge">
<title>Node6&#45;&gt;Node3</title>
<g id="a_edge5_Node000003_Node000006"><a xlink:title=" ">
<path fill="none" stroke="#9a32cd" stroke-dasharray="5,2" d="M551.28,-48.32C566.83,-49.54 582.54,-50.8 597.5,-52 603.2,-52.46 609.1,-52.94 615.03,-53.42"/>
<polygon fill="#9a32cd" stroke="#9a32cd" points="551.75,-44.84 541.51,-47.55 551.2,-51.82 551.75,-44.84"/>
</a>
</g>
<text text-anchor="middle" x="577.62" y="-54.5" font-family="Helvetica,sans-Serif" font-size="10.00" fill="grey"> received</text>
</g>
<!-- Node7 -->
<g id="Node000007" class="node">
<title>Node7</title>
<g id="a_Node000007"><a xlink:href="classAsyncFw_1_1FunctionConnectorProtected.html" target="_top" xlink:title="Защищенный коннетор, отправитель может быть только один.">
<polygon fill="white" stroke="#666666" points="145.75,-54 0,-54 0,-22 145.75,-22 145.75,-54"/>
<text text-anchor="start" x="8" y="-40.5" font-family="Helvetica,sans-Serif" font-size="10.00">AsyncFw::FunctionConnector</text>
<text text-anchor="middle" x="72.88" y="-28.5" font-family="Helvetica,sans-Serif" font-size="10.00">Protected&lt; F &gt;</text>
</a>
</g>
</g>
<!-- Node7&#45;&gt;Node6 -->
<g id="edge6_Node000006_Node000007" class="edge">
<title>Node7&#45;&gt;Node6</title>
<g id="a_edge6_Node000006_Node000007"><a xlink:title=" ">
<path fill="none" stroke="orange" stroke-dasharray="5,2" d="M157.31,-38.23C206.1,-38.37 268.24,-38.55 320.83,-38.69"/>
<polygon fill="orange" stroke="orange" points="157.36,-34.73 147.35,-38.21 157.34,-41.73 157.36,-34.73"/>
</a>
</g>
<text text-anchor="start" x="163.75" y="-53.12" font-family="Helvetica,sans-Serif" font-size="10.00" fill="grey"> &lt; AsyncFw::DataArrayAbstract</text>
<text text-anchor="middle" x="233.5" y="-41.12" font-family="Helvetica,sans-Serif" font-size="10.00" fill="grey">Tcp &gt;</text>
</g>
<!-- Node8 -->
<g id="Node000008" class="node">
<title>Node8</title>
<g id="a_Node000008"><a xlink:href="classAsyncFw_1_1FunctionConnectionGuard.html" target="_top" xlink:title="The FunctionConnectionGuard class.">
<polygon fill="white" stroke="#666666" points="962.38,-32 812.12,-32 812.12,0 962.38,0 962.38,-32"/>
<text text-anchor="start" x="820.12" y="-18.5" font-family="Helvetica,sans-Serif" font-size="10.00">AsyncFw::FunctionConnection</text>
<text text-anchor="middle" x="887.25" y="-6.5" font-family="Helvetica,sans-Serif" font-size="10.00">Guard</text>
</a>
</g>
</g>
<!-- Node8&#45;&gt;Node1 -->
<g id="edge7_Node000001_Node000008" class="edge">
<title>Node8&#45;&gt;Node1</title>
<g id="a_edge7_Node000001_Node000008"><a xlink:title=" ">
<path fill="none" stroke="#9a32cd" stroke-dasharray="5,2" d="M973.79,-17.36C991.02,-18.13 1008.99,-19.28 1025.75,-21 1031.45,-21.58 1037.39,-22.35 1043.29,-23.2"/>
<polygon fill="#9a32cd" stroke="#9a32cd" points="974.23,-13.88 964.1,-16.97 973.95,-20.87 974.23,-13.88"/>
</a>
</g>
<text text-anchor="middle" x="1003.25" y="-23.5" font-family="Helvetica,sans-Serif" font-size="10.00" fill="grey"> rf_</text>
</g>
</g>
</svg>
