<?xml version="1.0" encoding="UTF-8" standalone="no"?>
<!DOCTYPE svg PUBLIC "-//W3C//DTD SVG 1.1//EN"
 "http://www.w3.org/Graphics/SVG/1.1/DTD/svg11.dtd">
<!-- Generated by graphviz version 12.2.1 (20241206.2353)
 -->
<!-- Title: AsyncFw::AbstractThread::startedEvent Pages: 1 -->
<svg width="470pt" height="90pt"
 viewBox="0.00 0.00 470.00 90.00" xmlns="http://www.w3.org/2000/svg" xmlns:xlink="http://www.w3.org/1999/xlink">
<g id="graph0" class="graph" transform="scale(1 1) rotate(0) translate(4 86)">
<title>AsyncFw::AbstractThread::startedEvent</title>
<!-- Node1 -->
<g id="Node000001" class="node">
<title>Node1</title>
<g id="a_Node000001"><a xlink:title="This call from thread when it starts executing.">
<polygon fill="#999999" stroke="#666666" points="462,-57 332,-57 332,-25 462,-25 462,-57"/>
<text text-anchor="start" x="340" y="-43.5" font-family="Helvetica,sans-Serif" font-size="10.00">AsyncFw::AbstractThread</text>
<text text-anchor="middle" x="397" y="-31.5" font-family="Helvetica,sans-Serif" font-size="10.00">::startedEvent</text>
</a>
</g>
</g>
<!-- Node2 -->
<g id="Node000002" class="node">
<title>Node2</title>
<g id="a_Node000002"><a xlink:href="classAsyncFw_1_1AbstractThread.html#a1abe0f5c637dcc6af5aff00c5291bd4f" target="_top" xlink:title="Run manage loop.">
<polygon fill="white" stroke="#666666" points="296,-82 166,-82 166,-50 296,-50 296,-82"/>
<text text-anchor="start" x="174" y="-68.5" font-family="Helvetica,sans-Serif" font-size="10.00">AsyncFw::AbstractThread</text>
<text text-anchor="middle" x="231" y="-56.5" font-family="Helvetica,sans-Serif" font-size="10.00">::exec</text>
</a>
</g>
</g>
<!-- Node1&#45;&gt;Node2 -->
<g id="edge1_Node000001_Node000002" class="edge">
<title>Node1&#45;&gt;Node2</title>
<g id="a_edge1_Node000001_Node000002"><a xlink:title=" ">
<path fill="none" stroke="#63b8ff" d="M320.41,-52.52C312.4,-53.74 304.3,-54.98 296.43,-56.18"/>
<polygon fill="#63b8ff" stroke="#63b8ff" points="320.8,-56 330.16,-51.04 319.74,-49.08 320.8,-56"/>
</a>
</g>
</g>
<!-- Node4 -->
<g id="Node000004" class="node">
<title>Node4</title>
<g id="a_Node000004"><a xlink:href="classAsyncFw_1_1Thread.html#ae03f85da53209734bdafe450f45e5d53" target="_top" xlink:title="This call from thread when it starts executing.">
<polygon fill="white" stroke="#666666" points="295.62,-32 166.38,-32 166.38,0 295.62,0 295.62,-32"/>
<text text-anchor="start" x="174.38" y="-18.5" font-family="Helvetica,sans-Serif" font-size="10.00">AsyncFw::Thread::started</text>
<text text-anchor="middle" x="231" y="-6.5" font-family="Helvetica,sans-Serif" font-size="10.00">Event</text>
</a>
</g>
</g>
<!-- Node1&#45;&gt;Node4 -->
<g id="edge3_Node000001_Node000004" class="edge">
<title>Node1&#45;&gt;Node4</title>
<g id="a_edge3_Node000001_Node000004"><a xlink:title=" ">
<path fill="none" stroke="#63b8ff" d="M320.52,-29.49C312.28,-28.24 303.96,-26.97 295.89,-25.74"/>
<polygon fill="#63b8ff" stroke="#63b8ff" points="319.74,-32.92 330.16,-30.96 320.8,-26 319.74,-32.92"/>
</a>
</g>
</g>
<!-- Node3 -->
<g id="Node000003" class="node">
<title>Node3</title>
<g id="a_Node000003"><a xlink:href="classAsyncFw_1_1AbstractThread.html#afdaccb5da7d4bee5e9ff687f761bd21f" target="_top" xlink:title="Create a managed thread and run exec().">
<polygon fill="white" stroke="#666666" points="130,-82 0,-82 0,-50 130,-50 130,-82"/>
<text text-anchor="start" x="8" y="-68.5" font-family="Helvetica,sans-Serif" font-size="10.00">AsyncFw::AbstractThread</text>
<text text-anchor="middle" x="65" y="-56.5" font-family="Helvetica,sans-Serif" font-size="10.00">::start</text>
</a>
</g>
</g>
<!-- Node2&#45;&gt;Node3 -->
<g id="edge2_Node000002_Node000003" class="edge">
<title>Node2&#45;&gt;Node3</title>
<g id="a_edge2_Node000002_Node000003"><a xlink:title=" ">
<path fill="none" stroke="#63b8ff" d="M154.41,-66C146.4,-66 138.3,-66 130.43,-66"/>
<polygon fill="#63b8ff" stroke="#63b8ff" points="154.14,-69.5 164.14,-66 154.14,-62.5 154.14,-69.5"/>
</a>
</g>
</g>
</g>
</svg>
