<?xml version="1.0" encoding="UTF-8" standalone="no"?>
<!DOCTYPE svg PUBLIC "-//W3C//DTD SVG 1.1//EN"
 "http://www.w3.org/Graphics/SVG/1.1/DTD/svg11.dtd">
<!-- Generated by graphviz version 12.2.1 (20241206.2353)
 -->
<!-- Title: AsyncFw::AbstractThread::AbstractThread Pages: 1 -->
<svg width="789pt" height="234pt"
 viewBox="0.00 0.00 788.50 234.00" xmlns="http://www.w3.org/2000/svg" xmlns:xlink="http://www.w3.org/1999/xlink">
<g id="graph0" class="graph" transform="scale(1 1) rotate(0) translate(4 230)">
<title>AsyncFw::AbstractThread::AbstractThread</title>
<!-- Node1 -->
<g id="Node000001" class="node">
<title>Node1</title>
<g id="a_Node000001"><a xlink:title="Constructs a thread.">
<polygon fill="#999999" stroke="#666666" points="780.5,-179 650.5,-179 650.5,-147 780.5,-147 780.5,-179"/>
<text text-anchor="start" x="658.5" y="-165.5" font-family="Helvetica,sans-Serif" font-size="10.00">AsyncFw::AbstractThread</text>
<text text-anchor="middle" x="715.5" y="-153.5" font-family="Helvetica,sans-Serif" font-size="10.00">::AbstractThread</text>
</a>
</g>
</g>
<!-- Node1&#45;&gt;Node1 -->
<g id="edge1_Node000001_Node000001" class="edge">
<title>Node1&#45;&gt;Node1</title>
<g id="a_edge1_Node000001_Node000001"><a xlink:title=" ">
<path fill="none" stroke="#63b8ff" d="M743.16,-190.71C738.55,-194.48 729.33,-197 715.5,-197 690.21,-197 680.33,-188.58 685.86,-179.44"/>
<polygon fill="#63b8ff" stroke="#63b8ff" points="746.6,-191.39 744.87,-180.93 739.7,-190.18 746.6,-191.39"/>
</a>
</g>
</g>
<!-- Node2 -->
<g id="Node000002" class="node">
<title>Node2</title>
<g id="a_Node000002"><a xlink:href="classAsyncFw_1_1AbstractThread.html#a09cdd1972b9416a7ddb2a1921f36938c" target="_top" xlink:title="Returns a pointer to the AsyncFw::AbstractThread that manages the currently executing thread.">
<polygon fill="white" stroke="#666666" points="614.5,-157 484.5,-157 484.5,-125 614.5,-125 614.5,-157"/>
<text text-anchor="start" x="492.5" y="-143.5" font-family="Helvetica,sans-Serif" font-size="10.00">AsyncFw::AbstractThread</text>
<text text-anchor="middle" x="549.5" y="-131.5" font-family="Helvetica,sans-Serif" font-size="10.00">::current</text>
</a>
</g>
</g>
<!-- Node1&#45;&gt;Node2 -->
<g id="edge2_Node000001_Node000002" class="edge">
<title>Node1&#45;&gt;Node2</title>
<g id="a_edge2_Node000001_Node000002"><a xlink:title=" ">
<path fill="none" stroke="#63b8ff" d="M638.91,-152.86C630.9,-151.78 622.8,-150.7 614.93,-149.64"/>
<polygon fill="#63b8ff" stroke="#63b8ff" points="638.28,-156.31 648.65,-154.17 639.21,-149.37 638.28,-156.31"/>
</a>
</g>
</g>
<!-- Node12 -->
<g id="Node000012" class="node">
<title>Node12</title>
<g id="a_Node000012"><a xlink:href="classAsyncFw_1_1Thread.html#afc5e422090767dd84020381fb9a4d490" target="_top" xlink:title="Constructs a thread.">
<polygon fill="white" stroke="#666666" points="614.12,-207 484.88,-207 484.88,-187 614.12,-187 614.12,-207"/>
<text text-anchor="middle" x="549.5" y="-193.5" font-family="Helvetica,sans-Serif" font-size="10.00">AsyncFw::Thread::Thread</text>
</a>
</g>
</g>
<!-- Node1&#45;&gt;Node12 -->
<g id="edge12_Node000001_Node000012" class="edge">
<title>Node1&#45;&gt;Node12</title>
<g id="a_edge12_Node000001_Node000012"><a xlink:title=" ">
<path fill="none" stroke="#63b8ff" d="M638.93,-178.67C626.07,-181.33 612.99,-184.04 600.98,-186.54"/>
<polygon fill="#63b8ff" stroke="#63b8ff" points="639.59,-182.1 648.67,-176.65 638.17,-175.25 639.59,-182.1"/>
</a>
</g>
</g>
<!-- Node3 -->
<g id="Node000003" class="node">
<title>Node3</title>
<g id="a_Node000003"><a xlink:href="classAsyncFw_1_1ThreadPool.html#a9919894e586310a7ea5b780845376e17" target="_top" xlink:title="Asynchronously invokes a void function in the target thread, and executes a result callback in the ca...">
<polygon fill="white" stroke="#666666" points="438.38,-182 325.62,-182 325.62,-150 438.38,-150 438.38,-182"/>
<text text-anchor="start" x="333.62" y="-168.5" font-family="Helvetica,sans-Serif" font-size="10.00">AsyncFw::ThreadPool</text>
<text text-anchor="middle" x="382" y="-156.5" font-family="Helvetica,sans-Serif" font-size="10.00">::async</text>
</a>
</g>
</g>
<!-- Node2&#45;&gt;Node3 -->
<g id="edge3_Node000002_Node000003" class="edge">
<title>Node2&#45;&gt;Node3</title>
<g id="a_edge3_Node000002_Node000003"><a xlink:title=" ">
<path fill="none" stroke="#63b8ff" d="M472.68,-152.45C461.23,-154.18 449.61,-155.94 438.69,-157.59"/>
<polygon fill="#63b8ff" stroke="#63b8ff" points="473.18,-155.92 482.54,-150.96 472.13,-149 473.18,-155.92"/>
</a>
</g>
</g>
<!-- Node4 -->
<g id="Node000004" class="node">
<title>Node4</title>
<g id="a_Node000004"><a xlink:href="classAsyncFw_1_1Thread.html#a0a3bd6a54db28f73ff59cfea6a40b07a" target="_top" xlink:title="Returns a pointer to the AsyncFw::Thread that manages the currently executing thread.">
<polygon fill="white" stroke="#666666" points="446.62,-220 317.38,-220 317.38,-200 446.62,-200 446.62,-220"/>
<text text-anchor="middle" x="382" y="-206.5" font-family="Helvetica,sans-Serif" font-size="10.00">AsyncFw::Thread::current</text>
</a>
</g>
</g>
<!-- Node2&#45;&gt;Node4 -->
<g id="edge4_Node000002_Node000004" class="edge">
<title>Node2&#45;&gt;Node4</title>
<g id="a_edge4_Node000002_Node000004"><a xlink:title=" ">
<path fill="none" stroke="#63b8ff" d="M509.45,-162.59C491.28,-172.1 469.15,-182.92 448.5,-191 440.45,-194.15 431.67,-197.05 423.22,-199.58"/>
<polygon fill="#63b8ff" stroke="#63b8ff" points="510.86,-165.81 518.05,-158.03 507.57,-159.62 510.86,-165.81"/>
</a>
</g>
</g>
<!-- Node7 -->
<g id="Node000007" class="node">
<title>Node7</title>
<g id="a_Node000007"><a xlink:href="classAsyncFw_1_1MulticastDns.html#ab9bfb41e98cd4ecf1cc63f8acd023afd" target="_top" xlink:title="Initializes the mDNS node with a specific target service type (e.g., &quot;_http._tcp&quot;).">
<polygon fill="white" stroke="#666666" points="442.5,-132 321.5,-132 321.5,-100 442.5,-100 442.5,-132"/>
<text text-anchor="start" x="329.5" y="-118.5" font-family="Helvetica,sans-Serif" font-size="10.00">AsyncFw::MulticastDns</text>
<text text-anchor="middle" x="382" y="-106.5" font-family="Helvetica,sans-Serif" font-size="10.00">::MulticastDns</text>
</a>
</g>
</g>
<!-- Node2&#45;&gt;Node7 -->
<g id="edge7_Node000002_Node000007" class="edge">
<title>Node2&#45;&gt;Node7</title>
<g id="a_edge7_Node000002_Node000007"><a xlink:title=" ">
<path fill="none" stroke="#63b8ff" d="M472.82,-129.57C462.81,-128.06 452.66,-126.52 442.96,-125.06"/>
<polygon fill="#63b8ff" stroke="#63b8ff" points="472.13,-133 482.54,-131.04 473.18,-126.08 472.13,-133"/>
</a>
</g>
</g>
<!-- Node9 -->
<g id="Node000009" class="node">
<title>Node9</title>
<g id="a_Node000009"><a xlink:href="classAsyncFw_1_1SystemProcess.html#acf60a585a89304fdb3580e9add06d155" target="_top" xlink:title="False Управляет вводом данных в запущенный процесс. Это режим ввода по умолчанию для канала ввода">
<polygon fill="white" stroke="#666666" points="448.5,-82 315.5,-82 315.5,-50 448.5,-50 448.5,-82"/>
<text text-anchor="start" x="323.5" y="-68.5" font-family="Helvetica,sans-Serif" font-size="10.00">AsyncFw::SystemProcess</text>
<text text-anchor="middle" x="382" y="-56.5" font-family="Helvetica,sans-Serif" font-size="10.00">::SystemProcess</text>
</a>
</g>
</g>
<!-- Node2&#45;&gt;Node9 -->
<g id="edge9_Node000002_Node000009" class="edge">
<title>Node2&#45;&gt;Node9</title>
<g id="a_edge9_Node000002_Node000009"><a xlink:title=" ">
<path fill="none" stroke="#63b8ff" d="M507.67,-119.44C489.71,-110.26 468.26,-99.68 448.5,-91 441.93,-88.11 434.9,-85.22 427.99,-82.49"/>
<polygon fill="#63b8ff" stroke="#63b8ff" points="505.96,-122.49 516.45,-123.96 509.17,-116.27 505.96,-122.49"/>
</a>
</g>
</g>
<!-- Node10 -->
<g id="Node000010" class="node">
<title>Node10</title>
<g id="a_Node000010"><a xlink:href="classAsyncFw_1_1AbstractThread_1_1Holder.html#a795fc5bb1d23123fc892b8d414c56083" target="_top" xlink:title="Runs nested exec() and wait for it completed.">
<polygon fill="white" stroke="#666666" points="447,-32 317,-32 317,0 447,0 447,-32"/>
<text text-anchor="start" x="325" y="-18.5" font-family="Helvetica,sans-Serif" font-size="10.00">AsyncFw::AbstractThread</text>
<text text-anchor="middle" x="382" y="-6.5" font-family="Helvetica,sans-Serif" font-size="10.00">::Holder::wait</text>
</a>
</g>
</g>
<!-- Node2&#45;&gt;Node10 -->
<g id="edge10_Node000002_Node000010" class="edge">
<title>Node2&#45;&gt;Node10</title>
<g id="a_edge10_Node000002_Node000010"><a xlink:title=" ">
<path fill="none" stroke="#63b8ff" d="M528.64,-115.82C509.97,-93.57 480.23,-61.56 448.5,-41 443.6,-37.82 438.23,-34.96 432.75,-32.4"/>
<polygon fill="#63b8ff" stroke="#63b8ff" points="525.92,-118.02 534.97,-123.52 531.32,-113.57 525.92,-118.02"/>
</a>
</g>
</g>
<!-- Node5 -->
<g id="Node000005" class="node">
<title>Node5</title>
<g id="a_Node000005"><a xlink:href="classAsyncFw_1_1AbstractSocket.html#a73a200f0008dbf9f820bdb2b8a0054cf" target="_top" xlink:title="Schedules the socket for deferred asynchronous destruction.">
<polygon fill="white" stroke="#666666" points="279.5,-226 148.75,-226 148.75,-194 279.5,-194 279.5,-226"/>
<text text-anchor="start" x="156.75" y="-212.5" font-family="Helvetica,sans-Serif" font-size="10.00">AsyncFw::AbstractSocket</text>
<text text-anchor="middle" x="214.12" y="-200.5" font-family="Helvetica,sans-Serif" font-size="10.00">::destroy</text>
</a>
</g>
</g>
<!-- Node4&#45;&gt;Node5 -->
<g id="edge5_Node000004_Node000005" class="edge">
<title>Node4&#45;&gt;Node5</title>
<g id="a_edge5_Node000004_Node000005"><a xlink:title=" ">
<path fill="none" stroke="#63b8ff" d="M306.02,-210C297.33,-210 288.52,-210 279.98,-210"/>
<polygon fill="#63b8ff" stroke="#63b8ff" points="305.83,-213.5 315.83,-210 305.83,-206.5 305.83,-213.5"/>
</a>
</g>
</g>
<!-- Node6 -->
<g id="Node000006" class="node">
<title>Node6</title>
<g id="a_Node000006"><a xlink:href="classAsyncFw_1_1HttpSocket.html#a8268467d3581a4d393e9ccd288de32ff" target="_top" xlink:title="Schedules the socket for deferred asynchronous destruction.">
<polygon fill="white" stroke="#666666" points="112.75,-226 0,-226 0,-194 112.75,-194 112.75,-226"/>
<text text-anchor="start" x="8" y="-212.5" font-family="Helvetica,sans-Serif" font-size="10.00">AsyncFw::HttpSocket</text>
<text text-anchor="middle" x="56.38" y="-200.5" font-family="Helvetica,sans-Serif" font-size="10.00">::destroy</text>
</a>
</g>
</g>
<!-- Node5&#45;&gt;Node6 -->
<g id="edge6_Node000005_Node000006" class="edge">
<title>Node5&#45;&gt;Node6</title>
<g id="a_edge6_Node000005_Node000006"><a xlink:title=" ">
<path fill="none" stroke="#63b8ff" d="M137.09,-210C129.04,-210 120.96,-210 113.2,-210"/>
<polygon fill="#63b8ff" stroke="#63b8ff" points="136.91,-213.5 146.91,-210 136.91,-206.5 136.91,-213.5"/>
</a>
</g>
</g>
<!-- Node8 -->
<g id="Node000008" class="node">
<title>Node8</title>
<g id="a_Node000008"><a xlink:href="classAsyncFw_1_1MulticastDns.html#a61341fa78536e7a787bbbce75116ef3e" target="_top" xlink:title="Returns the global default instance pointer.">
<polygon fill="white" stroke="#666666" points="274.62,-132 153.62,-132 153.62,-100 274.62,-100 274.62,-132"/>
<text text-anchor="start" x="161.62" y="-118.5" font-family="Helvetica,sans-Serif" font-size="10.00">AsyncFw::MulticastDns</text>
<text text-anchor="middle" x="214.12" y="-106.5" font-family="Helvetica,sans-Serif" font-size="10.00">::instance</text>
</a>
</g>
</g>
<!-- Node7&#45;&gt;Node8 -->
<g id="edge8_Node000007_Node000008" class="edge">
<title>Node7&#45;&gt;Node8</title>
<g id="a_edge8_Node000007_Node000008"><a xlink:title=" ">
<path fill="none" stroke="#63b8ff" d="M309.67,-116C298.09,-116 286.19,-116 274.92,-116"/>
<polygon fill="#63b8ff" stroke="#63b8ff" points="309.6,-119.5 319.6,-116 309.6,-112.5 309.6,-119.5"/>
</a>
</g>
</g>
<!-- Node11 -->
<g id="Node000011" class="node">
<title>Node11</title>
<g id="a_Node000011"><a xlink:href="structAsyncFw_1_1CoroutineTask.html#a820a0a3410c4a14a71ad3599f46c1bb0" target="_top" xlink:title="Runs nested Thread::exec() and wait for task finished.">
<polygon fill="white" stroke="#666666" points="277.25,-32 151,-32 151,0 277.25,0 277.25,-32"/>
<text text-anchor="start" x="159" y="-18.5" font-family="Helvetica,sans-Serif" font-size="10.00">AsyncFw::CoroutineTask</text>
<text text-anchor="middle" x="214.12" y="-6.5" font-family="Helvetica,sans-Serif" font-size="10.00">::wait</text>
</a>
</g>
</g>
<!-- Node10&#45;&gt;Node11 -->
<g id="edge11_Node000010_Node000011" class="edge">
<title>Node10&#45;&gt;Node11</title>
<g id="a_edge11_Node000010_Node000011"><a xlink:title=" ">
<path fill="none" stroke="#63b8ff" d="M305.59,-16C296.27,-16 286.82,-16 277.72,-16"/>
<polygon fill="#63b8ff" stroke="#63b8ff" points="305.35,-19.5 315.35,-16 305.35,-12.5 305.35,-19.5"/>
</a>
</g>
</g>
<!-- Node12&#45;&gt;Node4 -->
<g id="edge13_Node000012_Node000004" class="edge">
<title>Node12&#45;&gt;Node4</title>
<g id="a_edge13_Node000012_Node000004"><a xlink:title=" ">
<path fill="none" stroke="#63b8ff" d="M473.16,-202.92C464.45,-203.6 455.63,-204.29 447.09,-204.97"/>
<polygon fill="#63b8ff" stroke="#63b8ff" points="473.31,-206.42 483,-202.14 472.76,-199.44 473.31,-206.42"/>
</a>
</g>
</g>
<!-- Node12&#45;&gt;Node12 -->
<g id="edge14_Node000012_Node000012" class="edge">
<title>Node12&#45;&gt;Node12</title>
<g id="a_edge14_Node000012_Node000012"><a xlink:title=" ">
<path fill="none" stroke="#63b8ff" d="M578.84,-218.44C575.06,-222.3 565.28,-225 549.5,-225 520.64,-225 511.85,-215.98 523.12,-207.34"/>
<polygon fill="#63b8ff" stroke="#63b8ff" points="582.23,-217.56 576.27,-208.8 575.46,-219.37 582.23,-217.56"/>
</a>
</g>
</g>
</g>
</svg>
