<?xml version="1.0" encoding="UTF-8" standalone="no"?>
<!DOCTYPE svg PUBLIC "-//W3C//DTD SVG 1.1//EN"
 "http://www.w3.org/Graphics/SVG/1.1/DTD/svg11.dtd">
<!-- Generated by graphviz version 12.2.1 (20241206.2353)
 -->
<!-- Title: AsyncFw::SystemProcess::SystemProcess Pages: 1 -->
<svg width="639pt" height="40pt"
 viewBox="0.00 0.00 639.00 40.00" xmlns="http://www.w3.org/2000/svg" xmlns:xlink="http://www.w3.org/1999/xlink">
<g id="graph0" class="graph" transform="scale(1 1) rotate(0) translate(4 36)">
<title>AsyncFw::SystemProcess::SystemProcess</title>
<!-- Node1 -->
<g id="Node000001" class="node">
<title>Node1</title>
<g id="a_Node000001"><a xlink:title="False Управляет вводом данных в запущенный процесс. Это режим ввода по умолчанию для канала ввода">
<polygon fill="#999999" stroke="#666666" points="133,-32 0,-32 0,0 133,0 133,-32"/>
<text text-anchor="start" x="8" y="-18.5" font-family="Helvetica,sans-Serif" font-size="10.00">AsyncFw::SystemProcess</text>
<text text-anchor="middle" x="66.5" y="-6.5" font-family="Helvetica,sans-Serif" font-size="10.00">::SystemProcess</text>
</a>
</g>
</g>
<!-- Node2 -->
<g id="Node000002" class="node">
<title>Node2</title>
<g id="a_Node000002"><a xlink:href="classAsyncFw_1_1AbstractThread.html#ac1b35ef04b06ce771f6d6ca0a5b120db" target="_top" xlink:title="Returns a pointer to the AsyncFw::AbstractThread that manages the currently executing thread.">
<polygon fill="white" stroke="#666666" points="299,-32 169,-32 169,0 299,0 299,-32"/>
<text text-anchor="start" x="177" y="-18.5" font-family="Helvetica,sans-Serif" font-size="10.00">AsyncFw::AbstractThread</text>
<text text-anchor="middle" x="234" y="-6.5" font-family="Helvetica,sans-Serif" font-size="10.00">::currentThread</text>
</a>
</g>
</g>
<!-- Node1&#45;&gt;Node2 -->
<g id="edge1_Node000001_Node000002" class="edge">
<title>Node1&#45;&gt;Node2</title>
<g id="a_edge1_Node000001_Node000002"><a xlink:title=" ">
<path fill="none" stroke="#63b8ff" d="M133.39,-16C141.29,-16 149.41,-16 157.43,-16"/>
<polygon fill="#63b8ff" stroke="#63b8ff" points="157.18,-19.5 167.18,-16 157.18,-12.5 157.18,-19.5"/>
</a>
</g>
</g>
<!-- Node3 -->
<g id="Node000003" class="node">
<title>Node3</title>
<g id="a_Node000003"><a xlink:href="classAsyncFw_1_1AbstractThread.html#a8c9202c90ac101522f26c4260cb01b59" target="_top" xlink:title="Constructs a thread.">
<polygon fill="white" stroke="#666666" points="465,-32 335,-32 335,0 465,0 465,-32"/>
<text text-anchor="start" x="343" y="-18.5" font-family="Helvetica,sans-Serif" font-size="10.00">AsyncFw::AbstractThread</text>
<text text-anchor="middle" x="400" y="-6.5" font-family="Helvetica,sans-Serif" font-size="10.00">::AbstractThread</text>
</a>
</g>
</g>
<!-- Node2&#45;&gt;Node3 -->
<g id="edge2_Node000002_Node000003" class="edge">
<title>Node2&#45;&gt;Node3</title>
<g id="a_edge2_Node000002_Node000003"><a xlink:title=" ">
<path fill="none" stroke="#63b8ff" d="M299.35,-16C307.21,-16 315.31,-16 323.33,-16"/>
<polygon fill="#63b8ff" stroke="#63b8ff" points="323.06,-19.5 333.06,-16 323.06,-12.5 323.06,-19.5"/>
</a>
</g>
</g>
<!-- Node4 -->
<g id="Node000004" class="node">
<title>Node4</title>
<g id="a_Node000004"><a xlink:href="classAsyncFw_1_1AbstractThread.html#a0cd916251e061aaf3d456575ef052edd" target="_top" xlink:title="Returns name of managed thread.">
<polygon fill="white" stroke="#666666" points="631,-32 501,-32 501,0 631,0 631,-32"/>
<text text-anchor="start" x="509" y="-18.5" font-family="Helvetica,sans-Serif" font-size="10.00">AsyncFw::AbstractThread</text>
<text text-anchor="middle" x="566" y="-6.5" font-family="Helvetica,sans-Serif" font-size="10.00">::name</text>
</a>
</g>
</g>
<!-- Node3&#45;&gt;Node4 -->
<g id="edge3_Node000003_Node000004" class="edge">
<title>Node3&#45;&gt;Node4</title>
<g id="a_edge3_Node000003_Node000004"><a xlink:title=" ">
<path fill="none" stroke="#63b8ff" d="M465.35,-16C473.21,-16 481.31,-16 489.33,-16"/>
<polygon fill="#63b8ff" stroke="#63b8ff" points="489.06,-19.5 499.06,-16 489.06,-12.5 489.06,-19.5"/>
</a>
</g>
</g>
</g>
</svg>
