<?xml version="1.0" encoding="UTF-8" standalone="no"?>
<!DOCTYPE svg PUBLIC "-//W3C//DTD SVG 1.1//EN"
 "http://www.w3.org/Graphics/SVG/1.1/DTD/svg11.dtd">
<!-- Generated by graphviz version 12.2.1 (20241206.2353)
 -->
<!-- Title: AsyncFw::RrdServer Pages: 1 -->
<svg width="1105pt" height="111pt"
 viewBox="0.00 0.00 1104.50 110.70" xmlns="http://www.w3.org/2000/svg" xmlns:xlink="http://www.w3.org/1999/xlink">
<g id="graph0" class="graph" transform="scale(1 1) rotate(0) translate(4 106.7)">
<title>AsyncFw::RrdServer</title>
<!-- Node1 -->
<g id="Node000001" class="node">
<title>Node1</title>
<g id="a_Node000001"><a xlink:title="The RrdServer class.">
<polygon fill="#999999" stroke="#666666" points="1096.5,-43 989,-43 989,-23 1096.5,-23 1096.5,-43"/>
<text text-anchor="middle" x="1042.75" y="-29.5" font-family="Helvetica,sans-Serif" font-size="10.00">AsyncFw::RrdServer</text>
</a>
</g>
</g>
<!-- Node2 -->
<g id="Node000002" class="node">
<title>Node2</title>
<g id="a_Node000002"><a xlink:href="classAsyncFw_1_1DataArrayTcpServer.html" target="_top" xlink:title="The DataArrayTcpServer class.">
<polygon fill="white" stroke="#666666" points="908,-70 757,-70 757,-50 908,-50 908,-70"/>
<text text-anchor="middle" x="832.5" y="-56.5" font-family="Helvetica,sans-Serif" font-size="10.00">AsyncFw::DataArrayTcpServer</text>
</a>
</g>
</g>
<!-- Node2&#45;&gt;Node1 -->
<g id="edge1_Node000001_Node000002" class="edge">
<title>Node2&#45;&gt;Node1</title>
<g id="a_edge1_Node000001_Node000002"><a xlink:title=" ">
<path fill="none" stroke="#9a32cd" stroke-dasharray="5,2" d="M919.75,-48.82C943.13,-45.79 967.76,-42.59 988.71,-39.88"/>
<polygon fill="#9a32cd" stroke="#9a32cd" points="919.36,-45.34 909.89,-50.1 920.26,-52.28 919.36,-45.34"/>
</a>
</g>
<text text-anchor="middle" x="948.5" y="-49.81" font-family="Helvetica,sans-Serif" font-size="10.00" fill="grey"> tcpServer</text>
</g>
<!-- Node3 -->
<g id="Node000003" class="node">
<title>Node3</title>
<g id="a_Node000003"><a xlink:href="classAsyncFw_1_1DataArrayAbstractTcp.html" target="_top" xlink:title="The DataArrayAbstractTcp class.">
<polygon fill="white" stroke="#666666" points="720,-70 560.75,-70 560.75,-50 720,-50 720,-70"/>
<text text-anchor="middle" x="640.38" y="-56.5" font-family="Helvetica,sans-Serif" font-size="10.00">AsyncFw::DataArrayAbstractTcp</text>
</a>
</g>
</g>
<!-- Node3&#45;&gt;Node2 -->
<g id="edge2_Node000002_Node000003" class="edge">
<title>Node3&#45;&gt;Node2</title>
<g id="a_edge2_Node000002_Node000003"><a xlink:title=" ">
<path fill="none" stroke="#63b8ff" d="M731.72,-60C740.09,-60 748.52,-60 756.73,-60"/>
<polygon fill="#63b8ff" stroke="#63b8ff" points="731.87,-56.5 721.87,-60 731.87,-63.5 731.87,-56.5"/>
</a>
</g>
</g>
<!-- Node4 -->
<g id="Node000004" class="node">
<title>Node4</title>
<g id="a_Node000004"><a xlink:href="classAsyncFw_1_1AbstractThreadPool.html" target="_top" xlink:title="Abstract base class for creating and managing thread pools.">
<polygon fill="white" stroke="#666666" points="473,-100 323.5,-100 323.5,-80 473,-80 473,-100"/>
<text text-anchor="middle" x="398.25" y="-86.5" font-family="Helvetica,sans-Serif" font-size="10.00">AsyncFw::AbstractThreadPool</text>
</a>
</g>
</g>
<!-- Node4&#45;&gt;Node3 -->
<g id="edge3_Node000003_Node000004" class="edge">
<title>Node4&#45;&gt;Node3</title>
<g id="a_edge3_Node000003_Node000004"><a xlink:title=" ">
<path fill="none" stroke="#63b8ff" d="M484.48,-79.35C509.27,-76.25 536.24,-72.89 560.62,-69.84"/>
<polygon fill="#63b8ff" stroke="#63b8ff" points="484.25,-75.85 474.76,-80.57 485.11,-82.8 484.25,-75.85"/>
</a>
</g>
</g>
<!-- Node5 -->
<g id="Node000005" class="node">
<title>Node5</title>
<g id="a_Node000005"><a xlink:href="classAsyncFw_1_1AbstractThread.html" target="_top" xlink:title="The AbstractThread class provides the base functionality for thread management.">
<polygon fill="white" stroke="#666666" points="137.88,-101 7.88,-101 7.88,-81 137.88,-81 137.88,-101"/>
<text text-anchor="middle" x="72.88" y="-87.5" font-family="Helvetica,sans-Serif" font-size="10.00">AsyncFw::AbstractThread</text>
</a>
</g>
</g>
<!-- Node5&#45;&gt;Node4 -->
<g id="edge4_Node000004_Node000005" class="edge">
<title>Node5&#45;&gt;Node4</title>
<g id="a_edge4_Node000004_Node000005"><a xlink:title=" ">
<path fill="none" stroke="#9a32cd" stroke-dasharray="5,2" d="M149.39,-90.77C201.75,-90.6 271.15,-90.39 323.19,-90.23"/>
<polygon fill="#9a32cd" stroke="#9a32cd" points="149.65,-87.27 139.66,-90.8 149.67,-94.27 149.65,-87.27"/>
</a>
</g>
<text text-anchor="middle" x="228.62" y="-93.2" font-family="Helvetica,sans-Serif" font-size="10.00" fill="grey"> thread_</text>
</g>
<!-- Node6 -->
<g id="Node000006" class="node">
<title>Node6</title>
<g id="a_Node000006"><a xlink:href="classAsyncFw_1_1FunctionConnector.html" target="_top" xlink:title=" ">
<polygon fill="white" stroke="#666666" points="485,-61 311.5,-61 311.5,-5 485,-5 485,-61"/>
<text text-anchor="start" x="319.5" y="-47.5" font-family="Helvetica,sans-Serif" font-size="10.00">AsyncFw::FunctionConnector</text>
<text text-anchor="start" x="319.5" y="-35.5" font-family="Helvetica,sans-Serif" font-size="10.00">&lt; const AsyncFw::DataArraySocket</text>
<text text-anchor="start" x="319.5" y="-23.5" font-family="Helvetica,sans-Serif" font-size="10.00"> *, const AsyncFw::DataArray</text>
<text text-anchor="middle" x="398.25" y="-11.5" font-family="Helvetica,sans-Serif" font-size="10.00"> *, uint32_t &gt;</text>
</a>
</g>
</g>
<!-- Node6&#45;&gt;Node3 -->
<g id="edge5_Node000003_Node000006" class="edge">
<title>Node6&#45;&gt;Node3</title>
<g id="a_edge5_Node000003_Node000006"><a xlink:title=" ">
<path fill="none" stroke="#9a32cd" stroke-dasharray="5,2" d="M496.58,-43.94C517.79,-46.33 539.97,-48.82 560.36,-51.12"/>
<polygon fill="#9a32cd" stroke="#9a32cd" points="497.09,-40.48 486.77,-42.84 496.31,-47.44 497.09,-40.48"/>
</a>
</g>
<text text-anchor="middle" x="522.88" y="-51.42" font-family="Helvetica,sans-Serif" font-size="10.00" fill="grey"> received</text>
</g>
<!-- Node7 -->
<g id="Node000007" class="node">
<title>Node7</title>
<g id="a_Node000007"><a xlink:href="classAsyncFw_1_1FunctionConnector.html" target="_top" xlink:title="Provides a thread&#45;safe, publisher&#45;subscriber mechanism to establish sender&#45;to&#45;receivers connections.">
<polygon fill="white" stroke="#666666" points="145.75,-48 0,-48 0,-16 145.75,-16 145.75,-48"/>
<text text-anchor="start" x="8" y="-34.5" font-family="Helvetica,sans-Serif" font-size="10.00">AsyncFw::FunctionConnector</text>
<text text-anchor="middle" x="72.88" y="-22.5" font-family="Helvetica,sans-Serif" font-size="10.00">&lt; Args &gt;</text>
</a>
</g>
</g>
<!-- Node7&#45;&gt;Node6 -->
<g id="edge6_Node000006_Node000007" class="edge">
<title>Node7&#45;&gt;Node6</title>
<g id="a_edge6_Node000006_Node000007"><a xlink:title=" ">
<path fill="none" stroke="orange" stroke-dasharray="5,2" d="M157.47,-32.26C204.7,-32.4 263.62,-32.59 311.24,-32.73"/>
<polygon fill="orange" stroke="orange" points="157.57,-28.76 147.56,-32.23 157.55,-35.76 157.57,-28.76"/>
</a>
</g>
<text text-anchor="start" x="163.75" y="-59.18" font-family="Helvetica,sans-Serif" font-size="10.00" fill="grey"> &lt; const AsyncFw::DataArray</text>
<text text-anchor="start" x="163.75" y="-47.18" font-family="Helvetica,sans-Serif" font-size="10.00" fill="grey">Socket *, const AsyncFw</text>
<text text-anchor="middle" x="228.62" y="-35.18" font-family="Helvetica,sans-Serif" font-size="10.00" fill="grey">::DataArray *, uint32_t &gt;</text>
</g>
<!-- Node8 -->
<g id="Node000008" class="node">
<title>Node8</title>
<g id="a_Node000008"><a xlink:href="classAsyncFw_1_1FunctionConnectionGuard.html" target="_top" xlink:title="An RAII guard that automatically manages the lifecycle of a FunctionConnector connection.">
<polygon fill="white" stroke="#666666" points="907.62,-32 757.38,-32 757.38,0 907.62,0 907.62,-32"/>
<text text-anchor="start" x="765.38" y="-18.5" font-family="Helvetica,sans-Serif" font-size="10.00">AsyncFw::FunctionConnection</text>
<text text-anchor="middle" x="832.5" y="-6.5" font-family="Helvetica,sans-Serif" font-size="10.00">Guard</text>
</a>
</g>
</g>
<!-- Node8&#45;&gt;Node1 -->
<g id="edge7_Node000001_Node000008" class="edge">
<title>Node8&#45;&gt;Node1</title>
<g id="a_edge7_Node000001_Node000008"><a xlink:title=" ">
<path fill="none" stroke="#9a32cd" stroke-dasharray="5,2" d="M919.04,-17.36C936.27,-18.13 954.24,-19.28 971,-21 976.7,-21.58 982.64,-22.35 988.54,-23.2"/>
<polygon fill="#9a32cd" stroke="#9a32cd" points="919.48,-13.88 909.35,-16.97 919.2,-20.87 919.48,-13.88"/>
</a>
</g>
<text text-anchor="middle" x="948.5" y="-23.5" font-family="Helvetica,sans-Serif" font-size="10.00" fill="grey"> rf_</text>
</g>
</g>
</svg>
