<?xml version="1.0" encoding="UTF-8" standalone="no"?>
<!DOCTYPE svg PUBLIC "-//W3C//DTD SVG 1.1//EN"
 "http://www.w3.org/Graphics/SVG/1.1/DTD/svg11.dtd">
<!-- Generated by graphviz version 14.1.3 (20260303.0454)
 -->
<!-- Title: AsyncFw::DataArraySocket::disconnect Pages: 1 -->
<svg width="321pt" height="90pt"
 viewBox="0.00 0.00 321.00 90.00" xmlns="http://www.w3.org/2000/svg" xmlns:xlink="http://www.w3.org/1999/xlink">
<g id="graph0" class="graph" transform="scale(1 1) rotate(0) translate(4 86)">
<title>AsyncFw::DataArraySocket::disconnect</title>
<!-- Node1 -->
<g id="Node000001" class="node">
<title>Node1</title>
<g id="a_Node000001"><a xlink:title="Disconnects the socket from the remote peer.">
<polygon fill="#999999" stroke="#666666" points="312.5,-57 174.25,-57 174.25,-25 312.5,-25 312.5,-57"/>
<text xml:space="preserve" text-anchor="start" x="182.25" y="-43.5" font-family="Helvetica,sans-Serif" font-size="10.00">AsyncFw::DataArraySocket</text>
<text xml:space="preserve" text-anchor="middle" x="243.38" y="-31.5" font-family="Helvetica,sans-Serif" font-size="10.00">::disconnect</text>
</a>
</g>
</g>
<!-- Node2 -->
<g id="Node000002" class="node">
<title>Node2</title>
<g id="a_Node000002"><a xlink:href="classAsyncFw_1_1DataArraySocket.html#a1a1f3404abcb93af27de1d7bc0a958b1" target="_top" xlink:title="Called when there is data to read.">
<polygon fill="white" stroke="#666666" points="138.25,-82 0,-82 0,-50 138.25,-50 138.25,-82"/>
<text xml:space="preserve" text-anchor="start" x="8" y="-68.5" font-family="Helvetica,sans-Serif" font-size="10.00">AsyncFw::DataArraySocket</text>
<text xml:space="preserve" text-anchor="middle" x="69.12" y="-56.5" font-family="Helvetica,sans-Serif" font-size="10.00">::readEvent</text>
</a>
</g>
</g>
<!-- Node1&#45;&gt;Node2 -->
<g id="edge1_Node000001_Node000002" class="edge">
<title>Node1&#45;&gt;Node2</title>
<g id="a_edge1_Node000001_Node000002"><a xlink:title=" ">
<path fill="none" stroke="#63b8ff" d="M162.61,-52.58C154.63,-53.73 146.59,-54.9 138.74,-56.04"/>
<polygon fill="#63b8ff" stroke="#63b8ff" points="162.91,-56.07 172.3,-51.17 161.91,-49.14 162.91,-56.07"/>
</a>
</g>
</g>
<!-- Node3 -->
<g id="Node000003" class="node">
<title>Node3</title>
<g id="a_Node000003"><a xlink:href="classAsyncFw_1_1DataArraySocket.html#ac7366a53ca9c5c43bc3c6bb88b539d53" target="_top" xlink:title="Asynchronously transmits a data array through the socket.">
<polygon fill="white" stroke="#666666" points="138.25,-32 0,-32 0,0 138.25,0 138.25,-32"/>
<text xml:space="preserve" text-anchor="start" x="8" y="-18.5" font-family="Helvetica,sans-Serif" font-size="10.00">AsyncFw::DataArraySocket</text>
<text xml:space="preserve" text-anchor="middle" x="69.12" y="-6.5" font-family="Helvetica,sans-Serif" font-size="10.00">::transmit</text>
</a>
</g>
</g>
<!-- Node1&#45;&gt;Node3 -->
<g id="edge2_Node000001_Node000003" class="edge">
<title>Node1&#45;&gt;Node3</title>
<g id="a_edge2_Node000001_Node000003"><a xlink:title=" ">
<path fill="none" stroke="#63b8ff" d="M162.61,-29.42C154.63,-28.27 146.59,-27.1 138.74,-25.96"/>
<polygon fill="#63b8ff" stroke="#63b8ff" points="161.91,-32.86 172.3,-30.83 162.91,-25.93 161.91,-32.86"/>
</a>
</g>
</g>
</g>
</svg>
