<?xml version="1.0" encoding="UTF-8" standalone="no"?>
<!DOCTYPE svg PUBLIC "-//W3C//DTD SVG 1.1//EN"
 "http://www.w3.org/Graphics/SVG/1.1/DTD/svg11.dtd">
<!-- Generated by graphviz version 14.1.3 (20260303.0454)
 -->
<!-- Title: AsyncFw::DataArrayTcpServer Pages: 1 -->
<svg width="922pt" height="118pt"
 viewBox="0.00 0.00 922.00 118.00" xmlns="http://www.w3.org/2000/svg" xmlns:xlink="http://www.w3.org/1999/xlink">
<g id="graph0" class="graph" transform="scale(1 1) rotate(0) translate(4 113.52)">
<title>AsyncFw::DataArrayTcpServer</title>
<!-- Node1 -->
<g id="Node000001" class="node">
<title>Node1</title>
<g id="a_Node000001"><a xlink:title="The DataArrayTcpServer class.">
<polygon fill="#999999" stroke="#666666" points="914,-65 763,-65 763,-45 914,-45 914,-65"/>
<text xml:space="preserve" text-anchor="middle" x="838.5" y="-51.5" font-family="Helvetica,sans-Serif" font-size="10.00">AsyncFw::DataArrayTcpServer</text>
</a>
</g>
</g>
<!-- Node2 -->
<g id="Node000002" class="node">
<title>Node2</title>
<g id="a_Node000002"><a xlink:href="classAsyncFw_1_1DataArrayAbstractTcp.html" target="_top" xlink:title="The DataArrayAbstractTcp class.">
<polygon fill="white" stroke="#666666" points="726,-65 566.75,-65 566.75,-45 726,-45 726,-65"/>
<text xml:space="preserve" text-anchor="middle" x="646.38" y="-51.5" font-family="Helvetica,sans-Serif" font-size="10.00">AsyncFw::DataArrayAbstractTcp</text>
</a>
</g>
</g>
<!-- Node2&#45;&gt;Node1 -->
<g id="edge1_Node000001_Node000002" class="edge">
<title>Node2&#45;&gt;Node1</title>
<g id="a_edge1_Node000001_Node000002"><a xlink:title=" ">
<path fill="none" stroke="#63b8ff" d="M737.72,-55C746.09,-55 754.52,-55 762.73,-55"/>
<polygon fill="#63b8ff" stroke="#63b8ff" points="737.87,-51.5 727.87,-55 737.87,-58.5 737.87,-51.5"/>
</a>
</g>
</g>
<!-- Node3 -->
<g id="Node000003" class="node">
<title>Node3</title>
<g id="a_Node000003"><a xlink:href="classAsyncFw_1_1AbstractThreadPool.html" target="_top" xlink:title="Abstract base class for creating and managing thread pools.">
<polygon fill="white" stroke="#666666" points="476,-98 326.5,-98 326.5,-78 476,-78 476,-98"/>
<text xml:space="preserve" text-anchor="middle" x="401.25" y="-84.5" font-family="Helvetica,sans-Serif" font-size="10.00">AsyncFw::AbstractThreadPool</text>
</a>
</g>
</g>
<!-- Node3&#45;&gt;Node2 -->
<g id="edge2_Node000002_Node000003" class="edge">
<title>Node3&#45;&gt;Node2</title>
<g id="a_edge2_Node000002_Node000003"><a xlink:title=" ">
<path fill="none" stroke="#63b8ff" d="M487.32,-76.45C513.71,-72.87 542.62,-68.95 568.42,-65.44"/>
<polygon fill="#63b8ff" stroke="#63b8ff" points="487.12,-72.95 477.69,-77.76 488.07,-79.88 487.12,-72.95"/>
</a>
</g>
</g>
<!-- Node4 -->
<g id="Node000004" class="node">
<title>Node4</title>
<g id="a_Node000004"><a xlink:href="classAsyncFw_1_1AbstractThread.html" target="_top" xlink:title="The AbstractThread class provides the base functionality for thread management.">
<polygon fill="white" stroke="#666666" points="137.88,-103 7.88,-103 7.88,-83 137.88,-83 137.88,-103"/>
<text xml:space="preserve" text-anchor="middle" x="72.88" y="-89.5" font-family="Helvetica,sans-Serif" font-size="10.00">AsyncFw::AbstractThread</text>
</a>
</g>
</g>
<!-- Node4&#45;&gt;Node3 -->
<g id="edge3_Node000003_Node000004" class="edge">
<title>Node4&#45;&gt;Node3</title>
<g id="a_edge3_Node000003_Node000004"><a xlink:title=" ">
<path fill="none" stroke="#9a32cd" stroke-dasharray="5,2" d="M149.75,-91.84C202.88,-91.02 273.49,-89.94 326.21,-89.13"/>
<polygon fill="#9a32cd" stroke="#9a32cd" points="149.81,-88.34 139.87,-91.99 149.92,-95.34 149.81,-88.34"/>
</a>
</g>
<text xml:space="preserve" text-anchor="start" x="214" y="-96.77" font-family="Helvetica,sans-Serif" font-size="10.00" fill="grey">thread_</text>
</g>
<!-- Node5 -->
<g id="Node000005" class="node">
<title>Node5</title>
<g id="a_Node000005"><a xlink:href="classAsyncFw_1_1FunctionConnector.html" target="_top" xlink:title=" ">
<polygon fill="white" stroke="#666666" points="488,-56 314.5,-56 314.5,0 488,0 488,-56"/>
<text xml:space="preserve" text-anchor="start" x="322.5" y="-42.5" font-family="Helvetica,sans-Serif" font-size="10.00">AsyncFw::FunctionConnector</text>
<text xml:space="preserve" text-anchor="start" x="322.5" y="-30.5" font-family="Helvetica,sans-Serif" font-size="10.00">&lt; const AsyncFw::DataArraySocket</text>
<text xml:space="preserve" text-anchor="start" x="322.5" y="-18.5" font-family="Helvetica,sans-Serif" font-size="10.00"> *, const AsyncFw::DataArray</text>
<text xml:space="preserve" text-anchor="middle" x="401.25" y="-6.5" font-family="Helvetica,sans-Serif" font-size="10.00"> *, uint32_t &gt;</text>
</a>
</g>
</g>
<!-- Node5&#45;&gt;Node2 -->
<g id="edge4_Node000002_Node000005" class="edge">
<title>Node5&#45;&gt;Node2</title>
<g id="a_edge4_Node000002_Node000005"><a xlink:title=" ">
<path fill="none" stroke="#9a32cd" stroke-dasharray="5,2" d="M499.45,-38.79C521.66,-41.26 545,-43.85 566.34,-46.22"/>
<polygon fill="#9a32cd" stroke="#9a32cd" points="500.14,-35.35 489.81,-37.72 499.37,-42.31 500.14,-35.35"/>
</a>
</g>
<text xml:space="preserve" text-anchor="start" x="509" y="-49.17" font-family="Helvetica,sans-Serif" font-size="10.00" fill="grey">received</text>
</g>
<!-- Node6 -->
<g id="Node000006" class="node">
<title>Node6</title>
<g id="a_Node000006"><a xlink:href="classAsyncFw_1_1FunctionConnector.html" target="_top" xlink:title="Provides a thread&#45;safe, publisher&#45;subscriber mechanism to establish sender&#45;to&#45;receivers connections.">
<polygon fill="white" stroke="#666666" points="145.75,-36 0,-36 0,-4 145.75,-4 145.75,-36"/>
<text xml:space="preserve" text-anchor="start" x="8" y="-22.5" font-family="Helvetica,sans-Serif" font-size="10.00">AsyncFw::FunctionConnector</text>
<text xml:space="preserve" text-anchor="middle" x="72.88" y="-10.5" font-family="Helvetica,sans-Serif" font-size="10.00">&lt; Args &gt;</text>
</a>
</g>
</g>
<!-- Node6&#45;&gt;Node5 -->
<g id="edge5_Node000005_Node000006" class="edge">
<title>Node6&#45;&gt;Node5</title>
<g id="a_edge5_Node000005_Node000006"><a xlink:title=" ">
<path fill="none" stroke="orange" stroke-dasharray="5,2" d="M157.22,-22.04C205.31,-23.22 265.68,-24.7 314.22,-25.89"/>
<polygon fill="orange" stroke="orange" points="157.5,-18.55 147.42,-21.8 157.33,-25.55 157.5,-18.55"/>
</a>
</g>
<text xml:space="preserve" text-anchor="start" x="166.75" y="-62.66" font-family="Helvetica,sans-Serif" font-size="10.00" fill="grey">&lt; const AsyncFw::DataArray</text>
<text xml:space="preserve" text-anchor="start" x="166.75" y="-46.66" font-family="Helvetica,sans-Serif" font-size="10.00" fill="grey">  Socket *, const AsyncFw</text>
<text xml:space="preserve" text-anchor="start" x="166.75" y="-30.66" font-family="Helvetica,sans-Serif" font-size="10.00" fill="grey">  ::DataArray *, uint32_t &gt;</text>
</g>
</g>
</svg>
