<?xml version="1.0" encoding="UTF-8" standalone="no"?>
<!DOCTYPE svg PUBLIC "-//W3C//DTD SVG 1.1//EN"
 "http://www.w3.org/Graphics/SVG/1.1/DTD/svg11.dtd">
<!-- Generated by graphviz version 12.2.1 (20241206.2353)
 -->
<!-- Title: AsyncFw::AbstractTask Pages: 1 -->
<svg width="258pt" height="152pt"
 viewBox="0.00 0.00 257.75 152.00" xmlns="http://www.w3.org/2000/svg" xmlns:xlink="http://www.w3.org/1999/xlink">
<g id="graph0" class="graph" transform="scale(1 1) rotate(0) translate(4 148)">
<title>AsyncFw::AbstractTask</title>
<!-- Node1 -->
<g id="Node000001" class="node">
<title>Node1</title>
<g id="a_Node000001"><a xlink:title="The AbstractTask class.">
<polygon fill="#999999" stroke="#666666" points="192.5,-76 71.5,-76 71.5,-56 192.5,-56 192.5,-76"/>
<text text-anchor="middle" x="132" y="-62.5" font-family="Helvetica,sans-Serif" font-size="10.00">AsyncFw::AbstractTask</text>
</a>
</g>
</g>
<!-- Node4 -->
<g id="Node000004" class="node">
<title>Node4</title>
<g id="a_Node000004"><a xlink:href="classAsyncFw_1_1Task.html" target="_top" xlink:title="The Task class.">
<polygon fill="white" stroke="#666666" points="187.25,-20 76.75,-20 76.75,0 187.25,0 187.25,-20"/>
<text text-anchor="middle" x="132" y="-6.5" font-family="Helvetica,sans-Serif" font-size="10.00">AsyncFw::Task&lt; M &gt;</text>
</a>
</g>
</g>
<!-- Node1&#45;&gt;Node4 -->
<g id="edge3_Node000001_Node000004" class="edge">
<title>Node1&#45;&gt;Node4</title>
<g id="a_edge3_Node000001_Node000004"><a xlink:title=" ">
<path fill="none" stroke="#63b8ff" d="M132,-44.13C132,-35.9 132,-26.85 132,-20.3"/>
<polygon fill="#63b8ff" stroke="#63b8ff" points="128.5,-44.08 132,-54.08 135.5,-44.08 128.5,-44.08"/>
</a>
</g>
</g>
<!-- Node2 -->
<g id="Node000002" class="node">
<title>Node2</title>
<g id="a_Node000002"><a xlink:href="structAsyncFw_1_1AbstractThread_1_1AbstractTask.html" target="_top" xlink:title="The AbstractTask struct.">
<polygon fill="white" stroke="#666666" points="130,-144 0,-144 0,-112 130,-112 130,-144"/>
<text text-anchor="start" x="8" y="-130.5" font-family="Helvetica,sans-Serif" font-size="10.00">AsyncFw::AbstractThread</text>
<text text-anchor="middle" x="65" y="-118.5" font-family="Helvetica,sans-Serif" font-size="10.00">::AbstractTask</text>
</a>
</g>
</g>
<!-- Node2&#45;&gt;Node1 -->
<g id="edge1_Node000001_Node000002" class="edge">
<title>Node2&#45;&gt;Node1</title>
<g id="a_edge1_Node000001_Node000002"><a xlink:title=" ">
<path fill="none" stroke="#63b8ff" d="M90.54,-104.13C101.29,-94.5 113.21,-83.83 121.49,-76.41"/>
<polygon fill="#63b8ff" stroke="#63b8ff" points="88.5,-101.26 83.38,-110.54 93.17,-106.47 88.5,-101.26"/>
</a>
</g>
</g>
<!-- Node3 -->
<g id="Node000003" class="node">
<title>Node3</title>
<g id="a_Node000003"><a xlink:href="structAsyncFw_1_1AnyData.html" target="_top" xlink:title="The AnyData class.">
<polygon fill="white" stroke="#666666" points="249.75,-138 148.25,-138 148.25,-118 249.75,-118 249.75,-138"/>
<text text-anchor="middle" x="199" y="-124.5" font-family="Helvetica,sans-Serif" font-size="10.00">AsyncFw::AnyData</text>
</a>
</g>
</g>
<!-- Node3&#45;&gt;Node1 -->
<g id="edge2_Node000001_Node000003" class="edge">
<title>Node3&#45;&gt;Node1</title>
<g id="a_edge2_Node000001_Node000003"><a xlink:title=" ">
<path fill="none" stroke="#63b8ff" d="M180.27,-110.22C167.93,-99.18 152.26,-85.14 142.18,-76.11"/>
<polygon fill="#63b8ff" stroke="#63b8ff" points="177.62,-112.55 187.4,-116.62 182.29,-107.34 177.62,-112.55"/>
</a>
</g>
</g>
</g>
</svg>
