<?xml version="1.0" encoding="UTF-8" standalone="no"?>
<!DOCTYPE svg PUBLIC "-//W3C//DTD SVG 1.1//EN"
 "http://www.w3.org/Graphics/SVG/1.1/DTD/svg11.dtd">
<!-- Generated by graphviz version 12.2.1 (20241206.2353)
 -->
<!-- Title: AsyncFw::DataArrayTcpClient Pages: 1 -->
<svg width="1114pt" height="130pt"
 viewBox="0.00 0.00 1113.50 130.00" xmlns="http://www.w3.org/2000/svg" xmlns:xlink="http://www.w3.org/1999/xlink">
<g id="graph0" class="graph" transform="scale(1 1) rotate(0) translate(4 126)">
<title>AsyncFw::DataArrayTcpClient</title>
<!-- Node1 -->
<g id="Node000001" class="node">
<title>Node1</title>
<g id="a_Node000001"><a xlink:title="The DataArrayTcpClient class.">
<polygon fill="#999999" stroke="#666666" points="1105.5,-51 957.5,-51 957.5,-31 1105.5,-31 1105.5,-51"/>
<text text-anchor="middle" x="1031.5" y="-37.5" font-family="Helvetica,sans-Serif" font-size="10.00">AsyncFw::DataArrayTcpClient</text>
</a>
</g>
</g>
<!-- Node2 -->
<g id="Node000002" class="node">
<title>Node2</title>
<g id="a_Node000002"><a xlink:href="classAsyncFw_1_1DataArrayAbstractTcp.html" target="_top" xlink:title="The DataArrayAbstractTcp class.">
<polygon fill="white" stroke="#666666" points="920.5,-77 761.25,-77 761.25,-57 920.5,-57 920.5,-77"/>
<text text-anchor="middle" x="840.88" y="-63.5" font-family="Helvetica,sans-Serif" font-size="10.00">AsyncFw::DataArrayAbstractTcp</text>
</a>
</g>
</g>
<!-- Node2&#45;&gt;Node1 -->
<g id="edge1_Node000001_Node000002" class="edge">
<title>Node2&#45;&gt;Node1</title>
<g id="a_edge1_Node000001_Node000002"><a xlink:title=" ">
<path fill="none" stroke="#63b8ff" d="M929.15,-54.97C938.53,-53.68 948.01,-52.37 957.2,-51.1"/>
<polygon fill="#63b8ff" stroke="#63b8ff" points="928.71,-51.5 919.28,-56.33 929.66,-58.43 928.71,-51.5"/>
</a>
</g>
</g>
<!-- Node3 -->
<g id="Node000003" class="node">
<title>Node3</title>
<g id="a_Node000003"><a xlink:href="classAsyncFw_1_1AbstractThreadPool.html" target="_top" xlink:title="Абстрактный класс для создания пулов управления потоками.">
<polygon fill="white" stroke="#666666" points="518,-120 368.5,-120 368.5,-100 518,-100 518,-120"/>
<text text-anchor="middle" x="443.25" y="-106.5" font-family="Helvetica,sans-Serif" font-size="10.00">AsyncFw::AbstractThreadPool</text>
</a>
</g>
</g>
<!-- Node3&#45;&gt;Node2 -->
<g id="edge2_Node000002_Node000003" class="edge">
<title>Node3&#45;&gt;Node2</title>
<g id="a_edge2_Node000002_Node000003"><a xlink:title=" ">
<path fill="none" stroke="#63b8ff" d="M529.75,-103.97C589.64,-99.33 671.49,-92.17 743.25,-83 755.48,-81.44 768.53,-79.48 780.96,-77.47"/>
<polygon fill="#63b8ff" stroke="#63b8ff" points="529.66,-100.47 519.96,-104.72 530.2,-107.45 529.66,-100.47"/>
</a>
</g>
</g>
<!-- Node4 -->
<g id="Node000004" class="node">
<title>Node4</title>
<g id="a_Node000004"><a xlink:href="classAsyncFw_1_1AbstractThread.html" target="_top" xlink:title="The AbstractThread class provides the base functionality for thread management.">
<polygon fill="white" stroke="#666666" points="137.88,-120 7.88,-120 7.88,-100 137.88,-100 137.88,-120"/>
<text text-anchor="middle" x="72.88" y="-106.5" font-family="Helvetica,sans-Serif" font-size="10.00">AsyncFw::AbstractThread</text>
</a>
</g>
</g>
<!-- Node4&#45;&gt;Node3 -->
<g id="edge3_Node000003_Node000004" class="edge">
<title>Node4&#45;&gt;Node3</title>
<g id="a_edge3_Node000003_Node000004"><a xlink:title=" ">
<path fill="none" stroke="#9a32cd" stroke-dasharray="5,2" d="M149.25,-110C213.2,-110 304.44,-110 368.05,-110"/>
<polygon fill="#9a32cd" stroke="#9a32cd" points="149.55,-106.5 139.55,-110 149.55,-113.5 149.55,-106.5"/>
</a>
</g>
<text text-anchor="middle" x="239.88" y="-112.5" font-family="Helvetica,sans-Serif" font-size="10.00" fill="grey"> thread_</text>
</g>
<!-- Node5 -->
<g id="Node000005" class="node">
<title>Node5</title>
<g id="a_Node000005"><a xlink:href="classAsyncFw_1_1FunctionConnectorProtected.html" target="_top" xlink:title=" ">
<polygon fill="white" stroke="#666666" points="552.5,-82 334,-82 334,-50 552.5,-50 552.5,-82"/>
<text text-anchor="start" x="342" y="-68.5" font-family="Helvetica,sans-Serif" font-size="10.00">AsyncFw::FunctionConnector</text>
<text text-anchor="middle" x="443.25" y="-56.5" font-family="Helvetica,sans-Serif" font-size="10.00">Protected&lt; AsyncFw::DataArrayAbstractTcp &gt;</text>
</a>
</g>
</g>
<!-- Node5&#45;&gt;Node2 -->
<g id="edge4_Node000002_Node000005" class="edge">
<title>Node5&#45;&gt;Node2</title>
<g id="a_edge4_Node000002_Node000005"><a xlink:title=" ">
<path fill="none" stroke="#9a32cd" stroke-dasharray="5,2" d="M564.23,-66.3C628.04,-66.46 704.71,-66.66 760.97,-66.8"/>
<polygon fill="#9a32cd" stroke="#9a32cd" points="564.4,-62.8 554.39,-66.28 564.38,-69.8 564.4,-62.8"/>
</a>
</g>
<text text-anchor="middle" x="656.88" y="-69.23" font-family="Helvetica,sans-Serif" font-size="10.00" fill="grey"> received</text>
</g>
<!-- Node6 -->
<g id="Node000006" class="node">
<title>Node6</title>
<g id="a_Node000006"><a xlink:href="classAsyncFw_1_1FunctionConnectorProtected.html" target="_top" xlink:title="Защищенный коннетор, отправитель может быть только один.">
<polygon fill="white" stroke="#666666" points="145.75,-56 0,-56 0,-24 145.75,-24 145.75,-56"/>
<text text-anchor="start" x="8" y="-42.5" font-family="Helvetica,sans-Serif" font-size="10.00">AsyncFw::FunctionConnector</text>
<text text-anchor="middle" x="72.88" y="-30.5" font-family="Helvetica,sans-Serif" font-size="10.00">Protected&lt; F &gt;</text>
</a>
</g>
</g>
<!-- Node6&#45;&gt;Node5 -->
<g id="edge5_Node000005_Node000006" class="edge">
<title>Node6&#45;&gt;Node5</title>
<g id="a_edge5_Node000005_Node000006"><a xlink:title=" ">
<path fill="none" stroke="orange" stroke-dasharray="5,2" d="M157.44,-45.9C209.65,-49.58 277.42,-54.37 333.75,-58.34"/>
<polygon fill="orange" stroke="orange" points="157.95,-42.43 147.72,-45.21 157.45,-49.41 157.95,-42.43"/>
</a>
</g>
<text text-anchor="start" x="170.12" y="-71.35" font-family="Helvetica,sans-Serif" font-size="10.00" fill="grey"> &lt; AsyncFw::DataArrayAbstract</text>
<text text-anchor="middle" x="239.88" y="-59.35" font-family="Helvetica,sans-Serif" font-size="10.00" fill="grey">Tcp &gt;</text>
</g>
<!-- Node7 -->
<g id="Node000007" class="node">
<title>Node7</title>
<g id="a_Node000007"><a xlink:href="classAsyncFw_1_1FunctionConnectorProtected.html" target="_top" xlink:title=" ">
<polygon fill="white" stroke="#666666" points="743.25,-44 570.5,-44 570.5,0 743.25,0 743.25,-44"/>
<text text-anchor="start" x="578.5" y="-30.5" font-family="Helvetica,sans-Serif" font-size="10.00">AsyncFw::FunctionConnector</text>
<text text-anchor="start" x="578.5" y="-18.5" font-family="Helvetica,sans-Serif" font-size="10.00">Protected&lt; AsyncFw::DataArrayTcp</text>
<text text-anchor="middle" x="656.88" y="-6.5" font-family="Helvetica,sans-Serif" font-size="10.00">Client &gt;</text>
</a>
</g>
</g>
<!-- Node6&#45;&gt;Node7 -->
<g id="edge7_Node000007_Node000006" class="edge">
<title>Node6&#45;&gt;Node7</title>
<g id="a_edge7_Node000007_Node000006"><a xlink:title=" ">
<path fill="none" stroke="orange" stroke-dasharray="5,2" d="M157.16,-31.42C159.38,-31.27 161.58,-31.13 163.75,-31 305.99,-22.59 471.73,-21.32 570,-21.45"/>
<polygon fill="orange" stroke="orange" points="157.16,-27.91 147.45,-32.15 157.69,-34.89 157.16,-27.91"/>
</a>
</g>
<text text-anchor="middle" x="239.88" y="-33.5" font-family="Helvetica,sans-Serif" font-size="10.00" fill="grey"> &lt; AsyncFw::DataArrayTcpClient &gt;</text>
</g>
<!-- Node7&#45;&gt;Node1 -->
<g id="edge6_Node000001_Node000007" class="edge">
<title>Node7&#45;&gt;Node1</title>
<g id="a_edge6_Node000001_Node000007"><a xlink:title=" ">
<path fill="none" stroke="#9a32cd" stroke-dasharray="5,2" d="M754.55,-26.93C817.78,-30.15 899.1,-34.3 957.04,-37.25"/>
<polygon fill="#9a32cd" stroke="#9a32cd" points="755.04,-23.45 744.87,-26.44 754.68,-30.44 755.04,-23.45"/>
</a>
</g>
<text text-anchor="middle" x="840.88" y="-37.87" font-family="Helvetica,sans-Serif" font-size="10.00" fill="grey"> connectionStateChanged</text>
</g>
</g>
</svg>
