<?xml version="1.0" encoding="UTF-8" standalone="no"?>
<!DOCTYPE svg PUBLIC "-//W3C//DTD SVG 1.1//EN"
 "http://www.w3.org/Graphics/SVG/1.1/DTD/svg11.dtd">
<!-- Generated by graphviz version 14.1.3 (20260303.0454)
 -->
<!-- Title: AsyncFw::AbstractTlsSocket::activateEvent Pages: 1 -->
<svg width="666pt" height="105pt"
 viewBox="0.00 0.00 666.00 105.00" xmlns="http://www.w3.org/2000/svg" xmlns:xlink="http://www.w3.org/1999/xlink">
<g id="graph0" class="graph" transform="scale(1 1) rotate(0) translate(4 100.74)">
<title>AsyncFw::AbstractTlsSocket::activateEvent</title>
<!-- Node1 -->
<g id="Node000001" class="node">
<title>Node1</title>
<g id="a_Node000001"><a xlink:title="Core internal event handler reacting to raw descriptor readiness signals.">
<polygon fill="#999999" stroke="#666666" points="144.25,-82 0,-82 0,-50 144.25,-50 144.25,-82"/>
<text xml:space="preserve" text-anchor="start" x="8" y="-68.5" font-family="Helvetica,sans-Serif" font-size="10.00">AsyncFw::AbstractTlsSocket</text>
<text xml:space="preserve" text-anchor="middle" x="72.12" y="-56.5" font-family="Helvetica,sans-Serif" font-size="10.00">::activateEvent</text>
</a>
</g>
</g>
<!-- Node2 -->
<g id="Node000002" class="node">
<title>Node2</title>
<g id="a_Node000002"><a xlink:href="classAsyncFw_1_1AbstractSocket.html#aac7ad6c4f9815d9b8b0817d38864d06d" target="_top" xlink:title="Called when established connection.">
<polygon fill="white" stroke="#666666" points="491.25,-82 360.5,-82 360.5,-50 491.25,-50 491.25,-82"/>
<text xml:space="preserve" text-anchor="start" x="368.5" y="-68.5" font-family="Helvetica,sans-Serif" font-size="10.00">AsyncFw::AbstractSocket</text>
<text xml:space="preserve" text-anchor="middle" x="425.88" y="-56.5" font-family="Helvetica,sans-Serif" font-size="10.00">::activateEvent</text>
</a>
</g>
</g>
<!-- Node1&#45;&gt;Node2 -->
<g id="edge1_Node000001_Node000002" class="edge">
<title>Node1&#45;&gt;Node2</title>
<g id="a_edge1_Node000001_Node000002"><a xlink:title=" ">
<path fill="none" stroke="#63b8ff" d="M132.76,-82.47C148.11,-86 164.69,-89.21 180.25,-91 243.94,-98.33 260.87,-98.81 324.5,-91 335.46,-89.66 346.95,-87.51 358.08,-85.04"/>
<polygon fill="#63b8ff" stroke="#63b8ff" points="358.64,-88.5 367.58,-82.81 357.05,-81.68 358.64,-88.5"/>
</a>
</g>
</g>
<!-- Node4 -->
<g id="Node000004" class="node">
<title>Node4</title>
<g id="a_Node000004"><a xlink:href="classAsyncFw_1_1AbstractTlsSocket.html#ad26bb910e65bb758bfed6448e1af7186" target="_top" xlink:title="Intermediate signal hub executed immediately when a secure cryptographic tunnel has been fully establ...">
<polygon fill="white" stroke="#666666" points="324.5,-82 180.25,-82 180.25,-50 324.5,-50 324.5,-82"/>
<text xml:space="preserve" text-anchor="start" x="188.25" y="-68.5" font-family="Helvetica,sans-Serif" font-size="10.00">AsyncFw::AbstractTlsSocket</text>
<text xml:space="preserve" text-anchor="middle" x="252.38" y="-56.5" font-family="Helvetica,sans-Serif" font-size="10.00">::activateReady</text>
</a>
</g>
</g>
<!-- Node1&#45;&gt;Node4 -->
<g id="edge3_Node000001_Node000004" class="edge">
<title>Node1&#45;&gt;Node4</title>
<g id="a_edge3_Node000001_Node000004"><a xlink:title=" ">
<path fill="none" stroke="#63b8ff" d="M144.6,-66C152.5,-66 160.59,-66 168.61,-66"/>
<polygon fill="#63b8ff" stroke="#63b8ff" points="168.37,-69.5 178.37,-66 168.37,-62.5 168.37,-69.5"/>
</a>
</g>
</g>
<!-- Node5 -->
<g id="Node000005" class="node">
<title>Node5</title>
<g id="a_Node000005"><a xlink:href="classAsyncFw_1_1AbstractTlsSocket.html#a46dbd8e4895445214a4f46ee46433d6c" target="_top" xlink:title="Immediately releases OpenSSL session pointers and forcefully closes the system&#45;level descriptor.">
<polygon fill="white" stroke="#666666" points="324.5,-32 180.25,-32 180.25,0 324.5,0 324.5,-32"/>
<text xml:space="preserve" text-anchor="start" x="188.25" y="-18.5" font-family="Helvetica,sans-Serif" font-size="10.00">AsyncFw::AbstractTlsSocket</text>
<text xml:space="preserve" text-anchor="middle" x="252.38" y="-6.5" font-family="Helvetica,sans-Serif" font-size="10.00">::close</text>
</a>
</g>
</g>
<!-- Node1&#45;&gt;Node5 -->
<g id="edge5_Node000001_Node000005" class="edge">
<title>Node1&#45;&gt;Node5</title>
<g id="a_edge5_Node000001_Node000005"><a xlink:title=" ">
<path fill="none" stroke="#63b8ff" d="M131.49,-49.63C147.57,-45.12 165.16,-40.18 181.8,-35.52"/>
<polygon fill="#63b8ff" stroke="#63b8ff" points="182.43,-38.97 191.12,-32.9 180.54,-32.23 182.43,-38.97"/>
</a>
</g>
</g>
<!-- Node3 -->
<g id="Node000003" class="node">
<title>Node3</title>
<g id="a_Node000003"><a xlink:href="classAsyncFw_1_1AbstractSocket.html#a5db12267a6d2241e81f570463f2d7ef5" target="_top" xlink:title="Called when the connection state changes.">
<polygon fill="white" stroke="#666666" points="658,-57 527.25,-57 527.25,-25 658,-25 658,-57"/>
<text xml:space="preserve" text-anchor="start" x="535.25" y="-43.5" font-family="Helvetica,sans-Serif" font-size="10.00">AsyncFw::AbstractSocket</text>
<text xml:space="preserve" text-anchor="middle" x="592.62" y="-31.5" font-family="Helvetica,sans-Serif" font-size="10.00">::stateEvent</text>
</a>
</g>
</g>
<!-- Node2&#45;&gt;Node3 -->
<g id="edge2_Node000002_Node000003" class="edge">
<title>Node2&#45;&gt;Node3</title>
<g id="a_edge2_Node000002_Node000003"><a xlink:title=" ">
<path fill="none" stroke="#63b8ff" d="M491.52,-56.19C499.42,-54.99 507.55,-53.76 515.6,-52.54"/>
<polygon fill="#63b8ff" stroke="#63b8ff" points="516.04,-56.01 525.4,-51.05 514.99,-49.09 516.04,-56.01"/>
</a>
</g>
</g>
<!-- Node4&#45;&gt;Node2 -->
<g id="edge4_Node000004_Node000002" class="edge">
<title>Node4&#45;&gt;Node2</title>
<g id="a_edge4_Node000004_Node000002"><a xlink:title=" ">
<path fill="none" stroke="#63b8ff" d="M324.62,-66C332.62,-66 340.8,-66 348.87,-66"/>
<polygon fill="#63b8ff" stroke="#63b8ff" points="348.65,-69.5 358.65,-66 348.65,-62.5 348.65,-69.5"/>
</a>
</g>
</g>
<!-- Node6 -->
<g id="Node000006" class="node">
<title>Node6</title>
<g id="a_Node000006"><a xlink:href="classAsyncFw_1_1AbstractSocket.html#a77c0a9ea7c5061c406673bbe8b18d60d" target="_top" xlink:title="Closes the network connection and unsubscribes from thread polling events.">
<polygon fill="white" stroke="#666666" points="491.25,-32 360.5,-32 360.5,0 491.25,0 491.25,-32"/>
<text xml:space="preserve" text-anchor="start" x="368.5" y="-18.5" font-family="Helvetica,sans-Serif" font-size="10.00">AsyncFw::AbstractSocket</text>
<text xml:space="preserve" text-anchor="middle" x="425.88" y="-6.5" font-family="Helvetica,sans-Serif" font-size="10.00">::close</text>
</a>
</g>
</g>
<!-- Node5&#45;&gt;Node6 -->
<g id="edge6_Node000005_Node000006" class="edge">
<title>Node5&#45;&gt;Node6</title>
<g id="a_edge6_Node000005_Node000006"><a xlink:title=" ">
<path fill="none" stroke="#63b8ff" d="M324.62,-16C332.62,-16 340.8,-16 348.87,-16"/>
<polygon fill="#63b8ff" stroke="#63b8ff" points="348.65,-19.5 358.65,-16 348.65,-12.5 348.65,-19.5"/>
</a>
</g>
</g>
<!-- Node6&#45;&gt;Node3 -->
<g id="edge7_Node000006_Node000003" class="edge">
<title>Node6&#45;&gt;Node3</title>
<g id="a_edge7_Node000006_Node000003"><a xlink:title=" ">
<path fill="none" stroke="#63b8ff" d="M491.52,-25.81C499.42,-27.01 507.55,-28.24 515.6,-29.46"/>
<polygon fill="#63b8ff" stroke="#63b8ff" points="514.99,-32.91 525.4,-30.95 516.04,-25.99 514.99,-32.91"/>
</a>
</g>
</g>
</g>
</svg>
