<?xml version="1.0" encoding="UTF-8" standalone="no"?>
<!DOCTYPE svg PUBLIC "-//W3C//DTD SVG 1.1//EN"
 "http://www.w3.org/Graphics/SVG/1.1/DTD/svg11.dtd">
<!-- Generated by graphviz version 12.2.1 (20241206.2353)
 -->
<!-- Title: AsyncFw::Rrd::Rrd Pages: 1 -->
<svg width="403pt" height="142pt"
 viewBox="0.00 0.00 403.25 142.00" xmlns="http://www.w3.org/2000/svg" xmlns:xlink="http://www.w3.org/1999/xlink">
<g id="graph0" class="graph" transform="scale(1 1) rotate(0) translate(4 138)">
<title>AsyncFw::Rrd::Rrd</title>
<!-- Node1 -->
<g id="Node000001" class="node">
<title>Node1</title>
<g id="a_Node000001"><a xlink:title="Constructs a persistent circular archive database with physical disk backing.">
<polygon fill="#999999" stroke="#666666" points="395.25,-77 294.5,-77 294.5,-57 395.25,-57 395.25,-77"/>
<text text-anchor="middle" x="344.88" y="-63.5" font-family="Helvetica,sans-Serif" font-size="10.00">AsyncFw::Rrd::Rrd</text>
</a>
</g>
</g>
<!-- Node2 -->
<g id="Node000002" class="node">
<title>Node2</title>
<g id="a_Node000002"><a xlink:href="classAsyncFw_1_1Log.html#a832d13f4e9231eee37d8decb5b9b96d7" target="_top" xlink:title="Constructs a persistent log system with a specific circular database size and file name context.">
<polygon fill="white" stroke="#666666" points="258.5,-134 157.75,-134 157.75,-114 258.5,-114 258.5,-134"/>
<text text-anchor="middle" x="208.12" y="-120.5" font-family="Helvetica,sans-Serif" font-size="10.00">AsyncFw::Log::Log</text>
</a>
</g>
</g>
<!-- Node1&#45;&gt;Node2 -->
<g id="edge1_Node000001_Node000002" class="edge">
<title>Node1&#45;&gt;Node2</title>
<g id="a_edge1_Node000001_Node000002"><a xlink:title=" ">
<path fill="none" stroke="#63b8ff" d="M310.88,-82.16C295.11,-89.29 275.91,-97.78 258.5,-105 251.54,-107.88 243.98,-110.87 236.91,-113.6"/>
<polygon fill="#63b8ff" stroke="#63b8ff" points="312.15,-85.43 319.81,-78.11 309.25,-79.06 312.15,-85.43"/>
</a>
</g>
</g>
<!-- Node4 -->
<g id="Node000004" class="node">
<title>Node4</title>
<g id="a_Node000004"><a xlink:href="classAsyncFw_1_1Rrd.html#aa54ae298c96e9efe88b644931b12f734" target="_top" xlink:title="Constructs a minimal in&#45;memory anonymous circular database with default system tracking intervals.">
<polygon fill="white" stroke="#666666" points="258.5,-96 157.75,-96 157.75,-76 258.5,-76 258.5,-96"/>
<text text-anchor="middle" x="208.12" y="-82.5" font-family="Helvetica,sans-Serif" font-size="10.00">AsyncFw::Rrd::Rrd</text>
</a>
</g>
</g>
<!-- Node1&#45;&gt;Node4 -->
<g id="edge3_Node000001_Node000004" class="edge">
<title>Node1&#45;&gt;Node4</title>
<g id="a_edge3_Node000001_Node000004"><a xlink:title=" ">
<path fill="none" stroke="#63b8ff" d="M282.81,-75.61C274.74,-76.75 266.55,-77.9 258.71,-79.01"/>
<polygon fill="#63b8ff" stroke="#63b8ff" points="283.17,-79.09 292.58,-74.23 282.19,-72.16 283.17,-79.09"/>
</a>
</g>
</g>
<!-- Node5 -->
<g id="Node000005" class="node">
<title>Node5</title>
<g id="a_Node000005"><a xlink:href="classAsyncFw_1_1Rrd.html#aaea6a63444ab427f801be34f26d930d5" target="_top" xlink:title="Constructs a persistent circular archive database using default system tracking intervals.">
<polygon fill="white" stroke="#666666" points="258.5,-58 157.75,-58 157.75,-38 258.5,-38 258.5,-58"/>
<text text-anchor="middle" x="208.12" y="-44.5" font-family="Helvetica,sans-Serif" font-size="10.00">AsyncFw::Rrd::Rrd</text>
</a>
</g>
</g>
<!-- Node1&#45;&gt;Node5 -->
<g id="edge4_Node000001_Node000005" class="edge">
<title>Node1&#45;&gt;Node5</title>
<g id="a_edge4_Node000001_Node000005"><a xlink:title=" ">
<path fill="none" stroke="#63b8ff" d="M282.81,-58.39C274.74,-57.25 266.55,-56.1 258.71,-54.99"/>
<polygon fill="#63b8ff" stroke="#63b8ff" points="282.19,-61.84 292.58,-59.77 283.17,-54.91 282.19,-61.84"/>
</a>
</g>
</g>
<!-- Node6 -->
<g id="Node000006" class="node">
<title>Node6</title>
<g id="a_Node000006"><a xlink:href="classAsyncFw_1_1Rrd.html#a98c7829cc6177c80245cf95095deb3ba" target="_top" xlink:title="Constructs an in&#45;memory anonymous circular database without file serialization.">
<polygon fill="white" stroke="#666666" points="258.5,-20 157.75,-20 157.75,0 258.5,0 258.5,-20"/>
<text text-anchor="middle" x="208.12" y="-6.5" font-family="Helvetica,sans-Serif" font-size="10.00">AsyncFw::Rrd::Rrd</text>
</a>
</g>
</g>
<!-- Node1&#45;&gt;Node6 -->
<g id="edge5_Node000001_Node000006" class="edge">
<title>Node1&#45;&gt;Node6</title>
<g id="a_edge5_Node000001_Node000006"><a xlink:title=" ">
<path fill="none" stroke="#63b8ff" d="M310.88,-51.84C295.11,-44.71 275.91,-36.22 258.5,-29 251.54,-26.12 243.98,-23.13 236.91,-20.4"/>
<polygon fill="#63b8ff" stroke="#63b8ff" points="309.25,-54.94 319.81,-55.89 312.15,-48.57 309.25,-54.94"/>
</a>
</g>
</g>
<!-- Node3 -->
<g id="Node000003" class="node">
<title>Node3</title>
<g id="a_Node000003"><a xlink:href="classAsyncFw_1_1Log.html#a00e9a20e7303e9a24403046af176b6b2" target="_top" xlink:title="Global service locator shortcut to fetch the current engine&#45;wide default log pointer.">
<polygon fill="white" stroke="#666666" points="121.75,-134 0,-134 0,-114 121.75,-114 121.75,-134"/>
<text text-anchor="middle" x="60.88" y="-120.5" font-family="Helvetica,sans-Serif" font-size="10.00">AsyncFw::Log::instance</text>
</a>
</g>
</g>
<!-- Node2&#45;&gt;Node3 -->
<g id="edge2_Node000002_Node000003" class="edge">
<title>Node2&#45;&gt;Node3</title>
<g id="a_edge2_Node000002_Node000003"><a xlink:title=" ">
<path fill="none" stroke="#63b8ff" d="M146.07,-124C138.12,-124 129.97,-124 122.03,-124"/>
<polygon fill="#63b8ff" stroke="#63b8ff" points="146.03,-127.5 156.03,-124 146.03,-120.5 146.03,-127.5"/>
</a>
</g>
</g>
</g>
</svg>
