<?xml version="1.0" encoding="UTF-8" standalone="no"?>
<!DOCTYPE svg PUBLIC "-//W3C//DTD SVG 1.1//EN"
 "http://www.w3.org/Graphics/SVG/1.1/DTD/svg11.dtd">
<!-- Generated by graphviz version 12.2.1 (20241206.2353)
 -->
<!-- Title: AsyncFw::RrdServer Pages: 1 -->
<svg width="1279pt" height="130pt"
 viewBox="0.00 0.00 1279.00 130.00" xmlns="http://www.w3.org/2000/svg" xmlns:xlink="http://www.w3.org/1999/xlink">
<g id="graph0" class="graph" transform="scale(1 1) rotate(0) translate(4 126)">
<title>AsyncFw::RrdServer</title>
<!-- Node1 -->
<g id="Node000001" class="node">
<title>Node1</title>
<g id="a_Node000001"><a xlink:title="The RrdServer class.">
<polygon fill="#999999" stroke="#666666" points="1271,-64 1163.5,-64 1163.5,-44 1271,-44 1271,-64"/>
<text text-anchor="middle" x="1217.25" y="-50.5" font-family="Helvetica,sans-Serif" font-size="10.00">AsyncFw::RrdServer</text>
</a>
</g>
</g>
<!-- Node2 -->
<g id="Node000002" class="node">
<title>Node2</title>
<g id="a_Node000002"><a xlink:href="classAsyncFw_1_1DataArrayTcpServer.html" target="_top" xlink:title="The DataArrayTcpServer class.">
<polygon fill="white" stroke="#666666" points="1082.5,-91 931.5,-91 931.5,-71 1082.5,-71 1082.5,-91"/>
<text text-anchor="middle" x="1007" y="-77.5" font-family="Helvetica,sans-Serif" font-size="10.00">AsyncFw::DataArrayTcpServer</text>
</a>
</g>
</g>
<!-- Node2&#45;&gt;Node1 -->
<g id="edge1_Node000001_Node000002" class="edge">
<title>Node2&#45;&gt;Node1</title>
<g id="a_edge1_Node000001_Node000002"><a xlink:title=" ">
<path fill="none" stroke="#9a32cd" stroke-dasharray="5,2" d="M1094.25,-69.82C1117.63,-66.79 1142.26,-63.59 1163.21,-60.88"/>
<polygon fill="#9a32cd" stroke="#9a32cd" points="1093.86,-66.34 1084.39,-71.1 1094.76,-73.28 1093.86,-66.34"/>
</a>
</g>
<text text-anchor="middle" x="1123" y="-70.81" font-family="Helvetica,sans-Serif" font-size="10.00" fill="grey"> tcpServer</text>
</g>
<!-- Node3 -->
<g id="Node000003" class="node">
<title>Node3</title>
<g id="a_Node000003"><a xlink:href="classAsyncFw_1_1DataArrayAbstractTcp.html" target="_top" xlink:title="The DataArrayAbstractTcp class.">
<polygon fill="white" stroke="#666666" points="894.5,-91 735.25,-91 735.25,-71 894.5,-71 894.5,-91"/>
<text text-anchor="middle" x="814.88" y="-77.5" font-family="Helvetica,sans-Serif" font-size="10.00">AsyncFw::DataArrayAbstractTcp</text>
</a>
</g>
</g>
<!-- Node3&#45;&gt;Node2 -->
<g id="edge2_Node000002_Node000003" class="edge">
<title>Node3&#45;&gt;Node2</title>
<g id="a_edge2_Node000002_Node000003"><a xlink:title=" ">
<path fill="none" stroke="#63b8ff" d="M906.22,-81C914.59,-81 923.02,-81 931.23,-81"/>
<polygon fill="#63b8ff" stroke="#63b8ff" points="906.37,-77.5 896.37,-81 906.37,-84.5 906.37,-77.5"/>
</a>
</g>
</g>
<!-- Node4 -->
<g id="Node000004" class="node">
<title>Node4</title>
<g id="a_Node000004"><a xlink:href="classAsyncFw_1_1AbstractThreadPool.html" target="_top" xlink:title="Abstract base class for creating and managing thread pools.">
<polygon fill="white" stroke="#666666" points="647.5,-120 498,-120 498,-100 647.5,-100 647.5,-120"/>
<text text-anchor="middle" x="572.75" y="-106.5" font-family="Helvetica,sans-Serif" font-size="10.00">AsyncFw::AbstractThreadPool</text>
</a>
</g>
</g>
<!-- Node4&#45;&gt;Node3 -->
<g id="edge3_Node000003_Node000004" class="edge">
<title>Node4&#45;&gt;Node3</title>
<g id="a_edge3_Node000003_Node000004"><a xlink:title=" ">
<path fill="none" stroke="#63b8ff" d="M658.98,-99.71C683.77,-96.71 710.74,-93.46 735.12,-90.51"/>
<polygon fill="#63b8ff" stroke="#63b8ff" points="658.77,-96.21 649.26,-100.88 659.6,-103.16 658.77,-96.21"/>
</a>
</g>
</g>
<!-- Node5 -->
<g id="Node000005" class="node">
<title>Node5</title>
<g id="a_Node000005"><a xlink:href="classAsyncFw_1_1AbstractThread.html" target="_top" xlink:title="The AbstractThread class provides the base functionality for thread management.">
<polygon fill="white" stroke="#666666" points="312.38,-120 182.38,-120 182.38,-100 312.38,-100 312.38,-120"/>
<text text-anchor="middle" x="247.38" y="-106.5" font-family="Helvetica,sans-Serif" font-size="10.00">AsyncFw::AbstractThread</text>
</a>
</g>
</g>
<!-- Node5&#45;&gt;Node4 -->
<g id="edge4_Node000004_Node000005" class="edge">
<title>Node5&#45;&gt;Node4</title>
<g id="a_edge4_Node000004_Node000005"><a xlink:title=" ">
<path fill="none" stroke="#9a32cd" stroke-dasharray="5,2" d="M323.89,-110C376.25,-110 445.65,-110 497.69,-110"/>
<polygon fill="#9a32cd" stroke="#9a32cd" points="324.16,-106.5 314.16,-110 324.16,-113.5 324.16,-106.5"/>
</a>
</g>
<text text-anchor="middle" x="403.12" y="-112.5" font-family="Helvetica,sans-Serif" font-size="10.00" fill="grey"> thread_</text>
</g>
<!-- Node6 -->
<g id="Node000006" class="node">
<title>Node6</title>
<g id="a_Node000006"><a xlink:href="classAsyncFw_1_1FunctionConnector.html" target="_top" xlink:title=" ">
<polygon fill="white" stroke="#666666" points="659.5,-82 486,-82 486,-26 659.5,-26 659.5,-82"/>
<text text-anchor="start" x="494" y="-68.5" font-family="Helvetica,sans-Serif" font-size="10.00">AsyncFw::FunctionConnector</text>
<text text-anchor="start" x="494" y="-56.5" font-family="Helvetica,sans-Serif" font-size="10.00">&lt; const AsyncFw::DataArraySocket</text>
<text text-anchor="start" x="494" y="-44.5" font-family="Helvetica,sans-Serif" font-size="10.00"> *, const AsyncFw::DataArray</text>
<text text-anchor="middle" x="572.75" y="-32.5" font-family="Helvetica,sans-Serif" font-size="10.00"> *, uint32_t &gt;</text>
</a>
</g>
</g>
<!-- Node6&#45;&gt;Node3 -->
<g id="edge5_Node000003_Node000006" class="edge">
<title>Node6&#45;&gt;Node3</title>
<g id="a_edge5_Node000003_Node000006"><a xlink:title=" ">
<path fill="none" stroke="#9a32cd" stroke-dasharray="5,2" d="M671.08,-64.94C692.29,-67.33 714.47,-69.82 734.86,-72.12"/>
<polygon fill="#9a32cd" stroke="#9a32cd" points="671.59,-61.48 661.27,-63.84 670.81,-68.44 671.59,-61.48"/>
</a>
</g>
<text text-anchor="middle" x="697.38" y="-72.42" font-family="Helvetica,sans-Serif" font-size="10.00" fill="grey"> received</text>
</g>
<!-- Node7 -->
<g id="Node000007" class="node">
<title>Node7</title>
<g id="a_Node000007"><a xlink:href="classAsyncFw_1_1AbstractFunctionConnector.html" target="_top" xlink:title="The AbstractFunctionConnector class provides the base functionality for FunctionConnector.">
<polygon fill="white" stroke="#666666" points="137.5,-57 0,-57 0,-25 137.5,-25 137.5,-57"/>
<text text-anchor="start" x="8" y="-43.5" font-family="Helvetica,sans-Serif" font-size="10.00">AsyncFw::AbstractFunction</text>
<text text-anchor="middle" x="68.75" y="-31.5" font-family="Helvetica,sans-Serif" font-size="10.00">Connector</text>
</a>
</g>
</g>
<!-- Node7&#45;&gt;Node6 -->
<g id="edge6_Node000006_Node000007" class="edge">
<title>Node7&#45;&gt;Node6</title>
<g id="a_edge6_Node000006_Node000007"><a xlink:title=" ">
<path fill="none" stroke="#63b8ff" d="M149.34,-43.55C202.77,-45.21 274.73,-47.37 338.25,-49 386.99,-50.25 441.46,-51.43 485.53,-52.33"/>
<polygon fill="#63b8ff" stroke="#63b8ff" points="149.51,-40.05 139.4,-43.24 149.29,-47.05 149.51,-40.05"/>
</a>
</g>
</g>
<!-- Node8 -->
<g id="Node000008" class="node">
<title>Node8</title>
<g id="a_Node000008"><a xlink:href="classAsyncFw_1_1FunctionConnector.html" target="_top" xlink:title="Provides a thread&#45;safe, publisher&#45;subscriber mechanism to establish sender&#45;to&#45;receivers connections.">
<polygon fill="white" stroke="#666666" points="320.25,-32 174.5,-32 174.5,0 320.25,0 320.25,-32"/>
<text text-anchor="start" x="182.5" y="-18.5" font-family="Helvetica,sans-Serif" font-size="10.00">AsyncFw::FunctionConnector</text>
<text text-anchor="middle" x="247.38" y="-6.5" font-family="Helvetica,sans-Serif" font-size="10.00">&lt; Args &gt;</text>
</a>
</g>
</g>
<!-- Node7&#45;&gt;Node8 -->
<g id="edge8_Node000008_Node000007" class="edge">
<title>Node7&#45;&gt;Node8</title>
<g id="a_edge8_Node000008_Node000007"><a xlink:title=" ">
<path fill="none" stroke="#63b8ff" d="M149.12,-29.77C157.5,-28.58 165.98,-27.38 174.27,-26.21"/>
<polygon fill="#63b8ff" stroke="#63b8ff" points="148.69,-26.29 139.28,-31.16 149.68,-33.22 148.69,-26.29"/>
</a>
</g>
</g>
<!-- Node8&#45;&gt;Node6 -->
<g id="edge7_Node000006_Node000008" class="edge">
<title>Node8&#45;&gt;Node6</title>
<g id="a_edge7_Node000006_Node000008"><a xlink:title=" ">
<path fill="none" stroke="orange" stroke-dasharray="5,2" d="M332.11,-7.01C373.37,-4.56 423.66,-4.56 468,-13 482.27,-15.72 497.08,-20.36 510.9,-25.57"/>
<polygon fill="orange" stroke="orange" points="331.98,-3.51 322.23,-7.66 332.44,-10.5 331.98,-3.51"/>
</a>
</g>
<text text-anchor="start" x="338.25" y="-39.5" font-family="Helvetica,sans-Serif" font-size="10.00" fill="grey"> &lt; const AsyncFw::DataArray</text>
<text text-anchor="start" x="338.25" y="-27.5" font-family="Helvetica,sans-Serif" font-size="10.00" fill="grey">Socket *, const AsyncFw</text>
<text text-anchor="middle" x="403.12" y="-15.5" font-family="Helvetica,sans-Serif" font-size="10.00" fill="grey">::DataArray *, uint32_t &gt;</text>
</g>
<!-- Node9 -->
<g id="Node000009" class="node">
<title>Node9</title>
<g id="a_Node000009"><a xlink:href="classAsyncFw_1_1FunctionConnectionGuard.html" target="_top" xlink:title="An RAII guard that automatically manages the lifecycle of a FunctionConnector connection.">
<polygon fill="white" stroke="#666666" points="1082.12,-53 931.88,-53 931.88,-21 1082.12,-21 1082.12,-53"/>
<text text-anchor="start" x="939.88" y="-39.5" font-family="Helvetica,sans-Serif" font-size="10.00">AsyncFw::FunctionConnection</text>
<text text-anchor="middle" x="1007" y="-27.5" font-family="Helvetica,sans-Serif" font-size="10.00">Guard</text>
</a>
</g>
</g>
<!-- Node9&#45;&gt;Node1 -->
<g id="edge9_Node000001_Node000009" class="edge">
<title>Node9&#45;&gt;Node1</title>
<g id="a_edge9_Node000001_Node000009"><a xlink:title=" ">
<path fill="none" stroke="#9a32cd" stroke-dasharray="5,2" d="M1093.54,-38.36C1110.77,-39.13 1128.74,-40.28 1145.5,-42 1151.2,-42.58 1157.14,-43.35 1163.04,-44.2"/>
<polygon fill="#9a32cd" stroke="#9a32cd" points="1093.98,-34.88 1083.85,-37.97 1093.7,-41.87 1093.98,-34.88"/>
</a>
</g>
<text text-anchor="middle" x="1123" y="-44.5" font-family="Helvetica,sans-Serif" font-size="10.00" fill="grey"> rf_</text>
</g>
</g>
</svg>
