<?xml version="1.0" encoding="UTF-8" standalone="no"?>
<!DOCTYPE svg PUBLIC "-//W3C//DTD SVG 1.1//EN"
 "http://www.w3.org/Graphics/SVG/1.1/DTD/svg11.dtd">
<!-- Generated by graphviz version 12.2.1 (20241206.2353)
 -->
<!-- Title: AsyncFw::HttpSocket Pages: 1 -->
<svg width="1248pt" height="250pt"
 viewBox="0.00 0.00 1248.00 250.00" xmlns="http://www.w3.org/2000/svg" xmlns:xlink="http://www.w3.org/1999/xlink">
<g id="graph0" class="graph" transform="scale(1 1) rotate(0) translate(4 246)">
<title>AsyncFw::HttpSocket</title>
<!-- Node1 -->
<g id="Node000001" class="node">
<title>Node1</title>
<g id="a_Node000001"><a xlink:title="The HttpSocket class.">
<polygon fill="#999999" stroke="#666666" points="1240,-112 1127.25,-112 1127.25,-92 1240,-92 1240,-112"/>
<text text-anchor="middle" x="1183.62" y="-98.5" font-family="Helvetica,sans-Serif" font-size="10.00">AsyncFw::HttpSocket</text>
</a>
</g>
</g>
<!-- Node2 -->
<g id="Node000002" class="node">
<title>Node2</title>
<g id="a_Node000002"><a xlink:href="classAsyncFw_1_1AbstractTlsSocket.html" target="_top" xlink:title="Abstract base class providing Transport Layer Security (TLS/SSL) encryption layers on top of standard...">
<polygon fill="white" stroke="#666666" points="1090.25,-196 946,-196 946,-176 1090.25,-176 1090.25,-196"/>
<text text-anchor="middle" x="1018.12" y="-182.5" font-family="Helvetica,sans-Serif" font-size="10.00">AsyncFw::AbstractTlsSocket</text>
</a>
</g>
</g>
<!-- Node2&#45;&gt;Node1 -->
<g id="edge1_Node000001_Node000002" class="edge">
<title>Node2&#45;&gt;Node1</title>
<g id="a_edge1_Node000001_Node000002"><a xlink:title=" ">
<path fill="none" stroke="#63b8ff" d="M1084.3,-172.21C1092.91,-169.37 1101.45,-165.99 1109.25,-162 1135.03,-148.81 1160.05,-125.4 1173.16,-112.05"/>
<polygon fill="#63b8ff" stroke="#63b8ff" points="1083.41,-168.83 1074.86,-175.09 1085.45,-175.52 1083.41,-168.83"/>
</a>
</g>
</g>
<!-- Node3 -->
<g id="Node000003" class="node">
<title>Node3</title>
<g id="a_Node000003"><a xlink:href="classAsyncFw_1_1AbstractSocket.html" target="_top" xlink:title="Abstract base class providing core network socket functionality and OS descriptor abstraction.">
<polygon fill="white" stroke="#666666" points="748.5,-198 617.75,-198 617.75,-178 748.5,-178 748.5,-198"/>
<text text-anchor="middle" x="683.12" y="-184.5" font-family="Helvetica,sans-Serif" font-size="10.00">AsyncFw::AbstractSocket</text>
</a>
</g>
</g>
<!-- Node3&#45;&gt;Node2 -->
<g id="edge2_Node000002_Node000003" class="edge">
<title>Node3&#45;&gt;Node2</title>
<g id="a_edge2_Node000002_Node000003"><a xlink:title=" ">
<path fill="none" stroke="#63b8ff" d="M759.96,-187.54C815.75,-187.21 891.08,-186.76 945.78,-186.43"/>
<polygon fill="#63b8ff" stroke="#63b8ff" points="760.22,-184.04 750.24,-187.6 760.26,-191.04 760.22,-184.04"/>
</a>
</g>
</g>
<!-- Node4 -->
<g id="Node000004" class="node">
<title>Node4</title>
<g id="a_Node000004"><a xlink:href="structAsyncFw_1_1AnyData.html" target="_top" xlink:title="The AnyData class.">
<polygon fill="white" stroke="#666666" points="412.5,-235 311,-235 311,-215 412.5,-215 412.5,-235"/>
<text text-anchor="middle" x="361.75" y="-221.5" font-family="Helvetica,sans-Serif" font-size="10.00">AsyncFw::AnyData</text>
</a>
</g>
</g>
<!-- Node4&#45;&gt;Node3 -->
<g id="edge3_Node000003_Node000004" class="edge">
<title>Node4&#45;&gt;Node3</title>
<g id="a_edge3_Node000003_Node000004"><a xlink:title=" ">
<path fill="none" stroke="#63b8ff" d="M424.29,-221.3C472.25,-217.99 540.42,-212.37 599.75,-204 610.43,-202.49 621.81,-200.52 632.61,-198.48"/>
<polygon fill="#63b8ff" stroke="#63b8ff" points="424.11,-217.8 414.37,-221.97 424.58,-224.79 424.11,-217.8"/>
</a>
</g>
</g>
<!-- Node5 -->
<g id="Node000005" class="node">
<title>Node5</title>
<g id="a_Node000005"><a xlink:href="classAsyncFw_1_1Thread.html" target="_top" xlink:title="AsyncFw::Thread thread with sockets.">
<polygon fill="white" stroke="#666666" points="408.38,-197 315.12,-197 315.12,-177 408.38,-177 408.38,-197"/>
<text text-anchor="middle" x="361.75" y="-183.5" font-family="Helvetica,sans-Serif" font-size="10.00">AsyncFw::Thread</text>
</a>
</g>
</g>
<!-- Node5&#45;&gt;Node3 -->
<g id="edge4_Node000003_Node000005" class="edge">
<title>Node5&#45;&gt;Node3</title>
<g id="a_edge4_Node000003_Node000005"><a xlink:title=" ">
<path fill="none" stroke="#9a32cd" stroke-dasharray="5,2" d="M420.25,-187.18C475.77,-187.35 559.72,-187.62 617.52,-187.8"/>
<polygon fill="#9a32cd" stroke="#9a32cd" points="420.37,-183.68 410.36,-187.15 420.35,-190.68 420.37,-183.68"/>
</a>
</g>
<text text-anchor="middle" x="526.88" y="-190.23" font-family="Helvetica,sans-Serif" font-size="10.00" fill="grey"> thread_</text>
</g>
<!-- Node6 -->
<g id="Node000006" class="node">
<title>Node6</title>
<g id="a_Node000006"><a xlink:href="classAsyncFw_1_1AbstractThread.html" target="_top" xlink:title="The AbstractThread class provides the base functionality for thread management.">
<polygon fill="white" stroke="#666666" points="137.88,-242 7.88,-242 7.88,-222 137.88,-222 137.88,-242"/>
<text text-anchor="middle" x="72.88" y="-228.5" font-family="Helvetica,sans-Serif" font-size="10.00">AsyncFw::AbstractThread</text>
</a>
</g>
</g>
<!-- Node6&#45;&gt;Node5 -->
<g id="edge5_Node000005_Node000006" class="edge">
<title>Node6&#45;&gt;Node5</title>
<g id="a_edge5_Node000005_Node000006"><a xlink:title=" ">
<path fill="none" stroke="#63b8ff" d="M149.31,-235.53C186.41,-235.05 231.25,-231.09 269.5,-218 278.6,-214.89 278.72,-209.93 287.5,-206 296.13,-202.14 305.71,-198.94 315,-196.35"/>
<polygon fill="#63b8ff" stroke="#63b8ff" points="149.56,-232.03 139.58,-235.57 149.59,-239.03 149.56,-232.03"/>
</a>
</g>
</g>
<!-- Node7 -->
<g id="Node000007" class="node">
<title>Node7</title>
<g id="a_Node000007"><a xlink:href="classAsyncFw_1_1FunctionConnector.html" target="_top" xlink:title="Provides a thread&#45;safe, publisher&#45;subscriber mechanism to establish sender&#45;to&#45;receivers connections.">
<polygon fill="white" stroke="#666666" points="145.75,-118 0,-118 0,-86 145.75,-86 145.75,-118"/>
<text text-anchor="start" x="8" y="-104.5" font-family="Helvetica,sans-Serif" font-size="10.00">AsyncFw::FunctionConnector</text>
<text text-anchor="middle" x="72.88" y="-92.5" font-family="Helvetica,sans-Serif" font-size="10.00">&lt; Args &gt;</text>
</a>
</g>
</g>
<!-- Node7&#45;&gt;Node1 -->
<g id="edge11_Node000001_Node000007" class="edge">
<title>Node7&#45;&gt;Node1</title>
<g id="a_edge11_Node000001_Node000007"><a xlink:title=" ">
<path fill="none" stroke="#9a32cd" stroke-dasharray="5,2" d="M131.04,-121.78C141.81,-124.94 153.04,-127.87 163.75,-130 249.98,-147.17 272.83,-148 360.75,-148 360.75,-148 360.75,-148 1019.12,-148 1071.32,-148 1129.5,-126.01 1160.44,-112.44"/>
<polygon fill="#9a32cd" stroke="#9a32cd" points="132.07,-118.44 121.49,-118.87 130.03,-125.13 132.07,-118.44"/>
</a>
</g>
<text text-anchor="middle" x="683.12" y="-150.5" font-family="Helvetica,sans-Serif" font-size="10.00" fill="grey"> writeContent</text>
</g>
<!-- Node7&#45;&gt;Node5 -->
<g id="edge6_Node000005_Node000007" class="edge">
<title>Node7&#45;&gt;Node5</title>
<g id="a_edge6_Node000005_Node000007"><a xlink:title=" ">
<path fill="none" stroke="#9a32cd" stroke-dasharray="5,2" d="M103.21,-125.11C120.01,-137.15 142.01,-150.99 163.75,-159 190.65,-168.92 265.5,-177.75 314.8,-182.73"/>
<polygon fill="#9a32cd" stroke="#9a32cd" points="105.31,-122.31 95.18,-119.19 101.15,-127.95 105.31,-122.31"/>
</a>
</g>
<text text-anchor="middle" x="216.62" y="-203.98" font-family="Helvetica,sans-Serif" font-size="10.00" fill="grey"> destroing</text>
<text text-anchor="middle" x="216.62" y="-191.98" font-family="Helvetica,sans-Serif" font-size="10.00" fill="grey">finished</text>
<text text-anchor="middle" x="216.62" y="-179.98" font-family="Helvetica,sans-Serif" font-size="10.00" fill="grey">started</text>
</g>
<!-- Node8 -->
<g id="Node000008" class="node">
<title>Node8</title>
<g id="a_Node000008"><a xlink:href="classAsyncFw_1_1FunctionConnector.html" target="_top" xlink:title=" ">
<polygon fill="white" stroke="#666666" points="599.75,-124 454,-124 454,-80 599.75,-80 599.75,-124"/>
<text text-anchor="start" x="462" y="-110.5" font-family="Helvetica,sans-Serif" font-size="10.00">AsyncFw::FunctionConnector</text>
<text text-anchor="start" x="462" y="-98.5" font-family="Helvetica,sans-Serif" font-size="10.00">&lt; const AbstractSocket::</text>
<text text-anchor="middle" x="526.88" y="-86.5" font-family="Helvetica,sans-Serif" font-size="10.00">State &gt;</text>
</a>
</g>
</g>
<!-- Node7&#45;&gt;Node8 -->
<g id="edge8_Node000008_Node000007" class="edge">
<title>Node7&#45;&gt;Node8</title>
<g id="a_edge8_Node000008_Node000007"><a xlink:title=" ">
<path fill="none" stroke="orange" stroke-dasharray="5,2" d="M157.42,-102C242.46,-102 372.93,-102 453.64,-102"/>
<polygon fill="orange" stroke="orange" points="157.51,-98.5 147.51,-102 157.51,-105.5 157.51,-98.5"/>
</a>
</g>
<text text-anchor="start" x="163.75" y="-116.5" font-family="Helvetica,sans-Serif" font-size="10.00" fill="grey"> &lt; const AbstractSocket</text>
<text text-anchor="middle" x="216.62" y="-104.5" font-family="Helvetica,sans-Serif" font-size="10.00" fill="grey">::State &gt;</text>
</g>
<!-- Node9 -->
<g id="Node000009" class="node">
<title>Node9</title>
<g id="a_Node000009"><a xlink:href="classAsyncFw_1_1FunctionConnector.html" target="_top" xlink:title=" ">
<polygon fill="white" stroke="#666666" points="928,-78 766.5,-78 766.5,-46 928,-46 928,-78"/>
<text text-anchor="start" x="774.5" y="-64.5" font-family="Helvetica,sans-Serif" font-size="10.00">AsyncFw::FunctionConnector</text>
<text text-anchor="middle" x="847.25" y="-52.5" font-family="Helvetica,sans-Serif" font-size="10.00">&lt; const AsyncFw::DataArray &amp; &gt;</text>
</a>
</g>
</g>
<!-- Node7&#45;&gt;Node9 -->
<g id="edge10_Node000009_Node000007" class="edge">
<title>Node7&#45;&gt;Node9</title>
<g id="a_edge10_Node000009_Node000007"><a xlink:title=" ">
<path fill="none" stroke="orange" stroke-dasharray="5,2" d="M157.46,-95.45C196.9,-92.44 244.61,-88.89 287.5,-86 361.47,-81.01 379.95,-79.54 454,-76 562.05,-70.83 686.93,-66.69 766.22,-64.29"/>
<polygon fill="orange" stroke="orange" points="157.25,-91.96 147.55,-96.21 157.79,-98.94 157.25,-91.96"/>
</a>
</g>
<text text-anchor="middle" x="361.75" y="-88.5" font-family="Helvetica,sans-Serif" font-size="10.00" fill="grey"> &lt; const AsyncFw::DataArray &amp; &gt;</text>
</g>
<!-- Node10 -->
<g id="Node000010" class="node">
<title>Node10</title>
<g id="a_Node000010"><a xlink:href="classAsyncFw_1_1FunctionConnector.html" target="_top" xlink:title=" ">
<polygon fill="white" stroke="#666666" points="599.75,-32 454,-32 454,0 599.75,0 599.75,-32"/>
<text text-anchor="start" x="462" y="-18.5" font-family="Helvetica,sans-Serif" font-size="10.00">AsyncFw::FunctionConnector</text>
<text text-anchor="middle" x="526.88" y="-6.5" font-family="Helvetica,sans-Serif" font-size="10.00">&lt; int &gt;</text>
</a>
</g>
</g>
<!-- Node7&#45;&gt;Node10 -->
<g id="edge13_Node000010_Node000007" class="edge">
<title>Node7&#45;&gt;Node10</title>
<g id="a_edge13_Node000010_Node000007"><a xlink:title=" ">
<path fill="none" stroke="orange" stroke-dasharray="5,2" d="M98.18,-78.03C115.06,-63.02 138.92,-44.9 163.75,-36 259.62,-1.62 378.91,-2.7 453.75,-8.16"/>
<polygon fill="orange" stroke="orange" points="96.12,-75.16 91.13,-84.5 100.86,-80.32 96.12,-75.16"/>
</a>
</g>
<text text-anchor="middle" x="216.62" y="-38.5" font-family="Helvetica,sans-Serif" font-size="10.00" fill="grey"> &lt; int &gt;</text>
</g>
<!-- Node8&#45;&gt;Node1 -->
<g id="edge7_Node000001_Node000008" class="edge">
<title>Node8&#45;&gt;Node1</title>
<g id="a_edge7_Node000001_Node000008"><a xlink:title=" ">
<path fill="none" stroke="#9a32cd" stroke-dasharray="5,2" d="M611.25,-102C746.83,-102 1011.5,-102 1126.75,-102"/>
<polygon fill="#9a32cd" stroke="#9a32cd" points="611.65,-98.5 601.65,-102 611.65,-105.5 611.65,-98.5"/>
</a>
</g>
<text text-anchor="middle" x="847.25" y="-104.5" font-family="Helvetica,sans-Serif" font-size="10.00" fill="grey"> stateChanged</text>
</g>
<!-- Node9&#45;&gt;Node1 -->
<g id="edge9_Node000001_Node000009" class="edge">
<title>Node9&#45;&gt;Node1</title>
<g id="a_edge9_Node000001_Node000009"><a xlink:title=" ">
<path fill="none" stroke="#9a32cd" stroke-dasharray="5,2" d="M939.64,-62.63C985.17,-64.12 1040.89,-67.73 1090.25,-76 1111.12,-79.5 1134.02,-85.92 1151.79,-91.51"/>
<polygon fill="#9a32cd" stroke="#9a32cd" points="939.91,-59.13 929.81,-62.34 939.71,-66.13 939.91,-59.13"/>
</a>
</g>
<text text-anchor="middle" x="1018.12" y="-78.5" font-family="Helvetica,sans-Serif" font-size="10.00" fill="grey"> received</text>
</g>
<!-- Node10&#45;&gt;Node1 -->
<g id="edge12_Node000001_Node000010" class="edge">
<title>Node10&#45;&gt;Node1</title>
<g id="a_edge12_Node000001_Node000010"><a xlink:title=" ">
<path fill="none" stroke="#9a32cd" stroke-dasharray="5,2" d="M611.41,-9.99C723.46,-4.68 927.21,-4.77 1090.25,-59 1116.6,-67.77 1145.38,-81.95 1163.69,-91.61"/>
<polygon fill="#9a32cd" stroke="#9a32cd" points="611.51,-6.48 601.7,-10.48 611.87,-13.47 611.51,-6.48"/>
</a>
</g>
<text text-anchor="middle" x="847.25" y="-24.6" font-family="Helvetica,sans-Serif" font-size="10.00" fill="grey"> progress</text>
</g>
</g>
</svg>
