<?xml version="1.0" encoding="UTF-8" standalone="no"?>
<!DOCTYPE svg PUBLIC "-//W3C//DTD SVG 1.1//EN"
 "http://www.w3.org/Graphics/SVG/1.1/DTD/svg11.dtd">
<!-- Generated by graphviz version 14.1.3 (20260303.0454)
 -->
<!-- Title: AsyncFw::HttpSocket Pages: 1 -->
<svg width="1254pt" height="272pt"
 viewBox="0.00 0.00 1254.00 272.00" xmlns="http://www.w3.org/2000/svg" xmlns:xlink="http://www.w3.org/1999/xlink">
<g id="graph0" class="graph" transform="scale(1 1) rotate(0) translate(4 267.89)">
<title>AsyncFw::HttpSocket</title>
<!-- Node1 -->
<g id="Node000001" class="node">
<title>Node1</title>
<g id="a_Node000001"><a xlink:title="The HttpSocket class.">
<polygon fill="#999999" stroke="#666666" points="1246,-118.88 1133.25,-118.88 1133.25,-98.88 1246,-98.88 1246,-118.88"/>
<text xml:space="preserve" text-anchor="middle" x="1189.62" y="-105.38" font-family="Helvetica,sans-Serif" font-size="10.00">AsyncFw::HttpSocket</text>
</a>
</g>
</g>
<!-- Node2 -->
<g id="Node000002" class="node">
<title>Node2</title>
<g id="a_Node000002"><a xlink:href="classAsyncFw_1_1AbstractTlsSocket.html" target="_top" xlink:title="Abstract base class providing Transport Layer Security (TLS/SSL) encryption layers on top of standard...">
<polygon fill="white" stroke="#666666" points="1096.25,-205.88 952,-205.88 952,-185.88 1096.25,-185.88 1096.25,-205.88"/>
<text xml:space="preserve" text-anchor="middle" x="1024.12" y="-192.38" font-family="Helvetica,sans-Serif" font-size="10.00">AsyncFw::AbstractTlsSocket</text>
</a>
</g>
</g>
<!-- Node2&#45;&gt;Node1 -->
<g id="edge1_Node000001_Node000002" class="edge">
<title>Node2&#45;&gt;Node1</title>
<g id="a_edge1_Node000001_Node000002"><a xlink:title=" ">
<path fill="none" stroke="#63b8ff" d="M1086.03,-182.04C1096.07,-178.71 1106.16,-174.69 1115.25,-169.88 1141.01,-156.23 1166.03,-132.51 1179.15,-119.03"/>
<polygon fill="#63b8ff" stroke="#63b8ff" points="1085.17,-178.64 1076.65,-184.94 1087.23,-185.33 1085.17,-178.64"/>
</a>
</g>
</g>
<!-- Node3 -->
<g id="Node000003" class="node">
<title>Node3</title>
<g id="a_Node000003"><a xlink:href="classAsyncFw_1_1AbstractSocket.html" target="_top" xlink:title="Abstract base class providing core network socket functionality and OS descriptor abstraction.">
<polygon fill="white" stroke="#666666" points="754.5,-211.88 623.75,-211.88 623.75,-191.88 754.5,-191.88 754.5,-211.88"/>
<text xml:space="preserve" text-anchor="middle" x="689.12" y="-198.38" font-family="Helvetica,sans-Serif" font-size="10.00">AsyncFw::AbstractSocket</text>
</a>
</g>
</g>
<!-- Node3&#45;&gt;Node2 -->
<g id="edge2_Node000002_Node000003" class="edge">
<title>Node3&#45;&gt;Node2</title>
<g id="a_edge2_Node000002_Node000003"><a xlink:title=" ">
<path fill="none" stroke="#63b8ff" d="M765.96,-200.51C821.75,-199.51 897.08,-198.15 951.78,-197.16"/>
<polygon fill="#63b8ff" stroke="#63b8ff" points="766.17,-197.01 756.24,-200.69 766.3,-204 766.17,-197.01"/>
</a>
</g>
</g>
<!-- Node4 -->
<g id="Node000004" class="node">
<title>Node4</title>
<g id="a_Node000004"><a xlink:href="structAsyncFw_1_1AnyData.html" target="_top" xlink:title="A generic, type&#45;safe data container block wrapper utilizing std::any.">
<polygon fill="white" stroke="#666666" points="417,-242.88 315.5,-242.88 315.5,-222.88 417,-222.88 417,-242.88"/>
<text xml:space="preserve" text-anchor="middle" x="366.25" y="-229.38" font-family="Helvetica,sans-Serif" font-size="10.00">AsyncFw::AnyData</text>
</a>
</g>
</g>
<!-- Node4&#45;&gt;Node3 -->
<g id="edge3_Node000003_Node000004" class="edge">
<title>Node4&#45;&gt;Node3</title>
<g id="a_edge3_Node000003_Node000004"><a xlink:title=" ">
<path fill="none" stroke="#63b8ff" d="M428.45,-231.72C476.76,-230.22 545.79,-226.78 605.75,-218.88 618.06,-217.25 631.27,-214.84 643.44,-212.33"/>
<polygon fill="#63b8ff" stroke="#63b8ff" points="428.65,-228.21 418.75,-232 428.85,-235.21 428.65,-228.21"/>
</a>
</g>
</g>
<!-- Node5 -->
<g id="Node000005" class="node">
<title>Node5</title>
<g id="a_Node000005"><a xlink:href="classAsyncFw_1_1Thread.html" target="_top" xlink:title="AsyncFw::Thread thread with sockets.">
<polygon fill="white" stroke="#666666" points="412.88,-204.88 319.62,-204.88 319.62,-184.88 412.88,-184.88 412.88,-204.88"/>
<text xml:space="preserve" text-anchor="middle" x="366.25" y="-191.38" font-family="Helvetica,sans-Serif" font-size="10.00">AsyncFw::Thread</text>
</a>
</g>
</g>
<!-- Node5&#45;&gt;Node3 -->
<g id="edge4_Node000003_Node000005" class="edge">
<title>Node5&#45;&gt;Node3</title>
<g id="a_edge4_Node000003_Node000005"><a xlink:title=" ">
<path fill="none" stroke="#9a32cd" stroke-dasharray="5,2" d="M424.68,-196.13C480.51,-197.35 565.17,-199.19 623.37,-200.46"/>
<polygon fill="#9a32cd" stroke="#9a32cd" points="424.81,-192.63 414.74,-195.91 424.66,-199.63 424.81,-192.63"/>
</a>
</g>
<text xml:space="preserve" text-anchor="start" x="516.75" y="-205.25" font-family="Helvetica,sans-Serif" font-size="10.00" fill="grey">thread_</text>
</g>
<!-- Node6 -->
<g id="Node000006" class="node">
<title>Node6</title>
<g id="a_Node000006"><a xlink:href="classAsyncFw_1_1AbstractThread.html" target="_top" xlink:title="The AbstractThread class provides the base functionality for thread management.">
<polygon fill="white" stroke="#666666" points="137.88,-263.88 7.88,-263.88 7.88,-243.88 137.88,-243.88 137.88,-263.88"/>
<text xml:space="preserve" text-anchor="middle" x="72.88" y="-250.38" font-family="Helvetica,sans-Serif" font-size="10.00">AsyncFw::AbstractThread</text>
</a>
</g>
</g>
<!-- Node6&#45;&gt;Node5 -->
<g id="edge5_Node000005_Node000006" class="edge">
<title>Node6&#45;&gt;Node5</title>
<g id="a_edge5_Node000005_Node000006"><a xlink:title=" ">
<path fill="none" stroke="#63b8ff" d="M149.65,-263.53C188.71,-264.94 235.73,-260.82 272.5,-239.88 284.71,-232.92 278.96,-221.89 290.5,-213.88 298.97,-208 309.1,-203.93 319.14,-201.13"/>
<polygon fill="#63b8ff" stroke="#63b8ff" points="150,-260.04 139.84,-263.04 149.65,-267.03 150,-260.04"/>
</a>
</g>
</g>
<!-- Node7 -->
<g id="Node000007" class="node">
<title>Node7</title>
<g id="a_Node000007"><a xlink:href="classAsyncFw_1_1FunctionConnector.html" target="_top" xlink:title="Provides a thread&#45;safe, publisher&#45;subscriber mechanism to establish sender&#45;to&#45;receivers connections.">
<polygon fill="white" stroke="#666666" points="145.75,-122.88 0,-122.88 0,-90.88 145.75,-90.88 145.75,-122.88"/>
<text xml:space="preserve" text-anchor="start" x="8" y="-109.38" font-family="Helvetica,sans-Serif" font-size="10.00">AsyncFw::FunctionConnector</text>
<text xml:space="preserve" text-anchor="middle" x="72.88" y="-97.38" font-family="Helvetica,sans-Serif" font-size="10.00">&lt; Args &gt;</text>
</a>
</g>
</g>
<!-- Node7&#45;&gt;Node1 -->
<g id="edge11_Node000001_Node000007" class="edge">
<title>Node7&#45;&gt;Node1</title>
<g id="a_edge11_Node000001_Node000007"><a xlink:title=" ">
<path fill="none" stroke="#9a32cd" stroke-dasharray="5,2" d="M118.93,-127.48C133.01,-133.08 148.78,-138.52 163.75,-141.88 251.35,-161.5 275.48,-155.88 365.25,-155.88 365.25,-155.88 365.25,-155.88 1025.12,-155.88 1077.7,-155.88 1136.21,-133.15 1166.98,-119.31"/>
<polygon fill="#9a32cd" stroke="#9a32cd" points="120.51,-124.35 109.93,-123.78 117.85,-130.82 120.51,-124.35"/>
</a>
</g>
<text xml:space="preserve" text-anchor="start" x="661.38" y="-161.13" font-family="Helvetica,sans-Serif" font-size="10.00" fill="grey">writeContent</text>
</g>
<!-- Node7&#45;&gt;Node5 -->
<g id="edge6_Node000005_Node000007" class="edge">
<title>Node7&#45;&gt;Node5</title>
<g id="a_edge6_Node000005_Node000007"><a xlink:title=" ">
<path fill="none" stroke="#9a32cd" stroke-dasharray="5,2" d="M101.55,-130.15C118.45,-143.09 141.11,-158.27 163.75,-166.88 177.99,-172.29 264.53,-183.12 319.47,-189.61"/>
<polygon fill="#9a32cd" stroke="#9a32cd" points="104,-127.62 93.97,-124.18 99.66,-133.12 104,-127.62"/>
</a>
</g>
<text xml:space="preserve" text-anchor="start" x="198.25" y="-221.14" font-family="Helvetica,sans-Serif" font-size="10.00" fill="grey">destroing</text>
<text xml:space="preserve" text-anchor="start" x="198.25" y="-205.14" font-family="Helvetica,sans-Serif" font-size="10.00" fill="grey">finished</text>
<text xml:space="preserve" text-anchor="start" x="198.25" y="-189.14" font-family="Helvetica,sans-Serif" font-size="10.00" fill="grey">started</text>
</g>
<!-- Node8 -->
<g id="Node000008" class="node">
<title>Node8</title>
<g id="a_Node000008"><a xlink:href="classAsyncFw_1_1FunctionConnector.html" target="_top" xlink:title=" ">
<polygon fill="white" stroke="#666666" points="605.75,-130.88 460,-130.88 460,-86.88 605.75,-86.88 605.75,-130.88"/>
<text xml:space="preserve" text-anchor="start" x="468" y="-117.38" font-family="Helvetica,sans-Serif" font-size="10.00">AsyncFw::FunctionConnector</text>
<text xml:space="preserve" text-anchor="start" x="468" y="-105.38" font-family="Helvetica,sans-Serif" font-size="10.00">&lt; const AbstractSocket::</text>
<text xml:space="preserve" text-anchor="middle" x="532.88" y="-93.38" font-family="Helvetica,sans-Serif" font-size="10.00">State &gt;</text>
</a>
</g>
</g>
<!-- Node7&#45;&gt;Node8 -->
<g id="edge8_Node000008_Node000007" class="edge">
<title>Node7&#45;&gt;Node8</title>
<g id="a_edge8_Node000008_Node000007"><a xlink:title=" ">
<path fill="none" stroke="orange" stroke-dasharray="5,2" d="M157.54,-107.24C243.99,-107.62 377.54,-108.2 459.56,-108.56"/>
<polygon fill="orange" stroke="orange" points="157.72,-103.74 147.71,-107.2 157.69,-110.74 157.72,-103.74"/>
</a>
</g>
<text xml:space="preserve" text-anchor="start" x="166.75" y="-128.96" font-family="Helvetica,sans-Serif" font-size="10.00" fill="grey">&lt; const AbstractSocket</text>
<text xml:space="preserve" text-anchor="start" x="166.75" y="-112.96" font-family="Helvetica,sans-Serif" font-size="10.00" fill="grey">  ::State &gt;</text>
</g>
<!-- Node9 -->
<g id="Node000009" class="node">
<title>Node9</title>
<g id="a_Node000009"><a xlink:href="classAsyncFw_1_1FunctionConnector.html" target="_top" xlink:title=" ">
<polygon fill="white" stroke="#666666" points="934,-78.88 772.5,-78.88 772.5,-46.88 934,-46.88 934,-78.88"/>
<text xml:space="preserve" text-anchor="start" x="780.5" y="-65.38" font-family="Helvetica,sans-Serif" font-size="10.00">AsyncFw::FunctionConnector</text>
<text xml:space="preserve" text-anchor="middle" x="853.25" y="-53.38" font-family="Helvetica,sans-Serif" font-size="10.00">&lt; const AsyncFw::DataArray &amp; &gt;</text>
</a>
</g>
</g>
<!-- Node7&#45;&gt;Node9 -->
<g id="edge10_Node000009_Node000007" class="edge">
<title>Node7&#45;&gt;Node9</title>
<g id="a_edge10_Node000009_Node000007"><a xlink:title=" ">
<path fill="none" stroke="orange" stroke-dasharray="5,2" d="M157.37,-97.81C197.58,-93.69 246.5,-89.05 290.5,-85.88 461.85,-73.54 663.11,-67.29 772.16,-64.6"/>
<polygon fill="orange" stroke="orange" points="157.1,-94.32 147.51,-98.83 157.82,-101.28 157.1,-94.32"/>
</a>
</g>
<text xml:space="preserve" text-anchor="start" x="293.5" y="-91.13" font-family="Helvetica,sans-Serif" font-size="10.00" fill="grey">&lt; const AsyncFw::DataArray &amp; &gt;</text>
</g>
<!-- Node10 -->
<g id="Node000010" class="node">
<title>Node10</title>
<g id="a_Node000010"><a xlink:href="classAsyncFw_1_1FunctionConnector.html" target="_top" xlink:title=" ">
<polygon fill="white" stroke="#666666" points="605.75,-32.88 460,-32.88 460,-0.88 605.75,-0.88 605.75,-32.88"/>
<text xml:space="preserve" text-anchor="start" x="468" y="-19.38" font-family="Helvetica,sans-Serif" font-size="10.00">AsyncFw::FunctionConnector</text>
<text xml:space="preserve" text-anchor="middle" x="532.88" y="-7.38" font-family="Helvetica,sans-Serif" font-size="10.00">&lt; int &gt;</text>
</a>
</g>
</g>
<!-- Node7&#45;&gt;Node10 -->
<g id="edge13_Node000010_Node000007" class="edge">
<title>Node7&#45;&gt;Node10</title>
<g id="a_edge13_Node000010_Node000007"><a xlink:title=" ">
<path fill="none" stroke="orange" stroke-dasharray="5,2" d="M94.55,-82.21C111.18,-64.35 136.24,-41.54 163.75,-30.88 260.8,6.76 383.23,2.2 459.56,-6.11"/>
<polygon fill="orange" stroke="orange" points="92.18,-79.61 88.1,-89.38 97.39,-84.29 92.18,-79.61"/>
</a>
</g>
<text xml:space="preserve" text-anchor="start" x="203.88" y="-36.13" font-family="Helvetica,sans-Serif" font-size="10.00" fill="grey">&lt; int &gt;</text>
</g>
<!-- Node8&#45;&gt;Node1 -->
<g id="edge7_Node000001_Node000008" class="edge">
<title>Node8&#45;&gt;Node1</title>
<g id="a_edge7_Node000001_Node000008"><a xlink:title=" ">
<path fill="none" stroke="#9a32cd" stroke-dasharray="5,2" d="M617.25,-108.88C752.83,-108.88 1017.5,-108.88 1132.75,-108.88"/>
<polygon fill="#9a32cd" stroke="#9a32cd" points="617.65,-105.38 607.65,-108.88 617.65,-112.38 617.65,-105.38"/>
</a>
</g>
<text xml:space="preserve" text-anchor="start" x="822.88" y="-114.13" font-family="Helvetica,sans-Serif" font-size="10.00" fill="grey">stateChanged</text>
</g>
<!-- Node9&#45;&gt;Node1 -->
<g id="edge9_Node000001_Node000009" class="edge">
<title>Node9&#45;&gt;Node1</title>
<g id="a_edge9_Node000001_Node000009"><a xlink:title=" ">
<path fill="none" stroke="#9a32cd" stroke-dasharray="5,2" d="M945.61,-62.25C991.24,-63.42 1047.06,-67.13 1096.25,-76.88 1120.06,-81.59 1146.09,-91.03 1164.44,-98.43"/>
<polygon fill="#9a32cd" stroke="#9a32cd" points="945.83,-58.75 935.75,-62.03 945.67,-65.75 945.83,-58.75"/>
</a>
</g>
<text xml:space="preserve" text-anchor="start" x="1005.75" y="-82.13" font-family="Helvetica,sans-Serif" font-size="10.00" fill="grey">received</text>
</g>
<!-- Node10&#45;&gt;Node1 -->
<g id="edge12_Node000001_Node000010" class="edge">
<title>Node10&#45;&gt;Node1</title>
<g id="a_edge12_Node000001_Node000010"><a xlink:title=" ">
<path fill="none" stroke="#9a32cd" stroke-dasharray="5,2" d="M617.25,-8.54C729.98,-0.48 935.39,2.78 1096.25,-58.88 1124.35,-69.65 1154.6,-87.3 1172.56,-98.5"/>
<polygon fill="#9a32cd" stroke="#9a32cd" points="617.19,-5.04 607.48,-9.28 617.71,-12.02 617.19,-5.04"/>
</a>
</g>
<text xml:space="preserve" text-anchor="start" x="834.5" y="-23.11" font-family="Helvetica,sans-Serif" font-size="10.00" fill="grey">progress</text>
</g>
</g>
</svg>
