<?xml version="1.0" encoding="UTF-8" standalone="no"?>
<!DOCTYPE svg PUBLIC "-//W3C//DTD SVG 1.1//EN"
 "http://www.w3.org/Graphics/SVG/1.1/DTD/svg11.dtd">
<!-- Generated by graphviz version 14.1.3 (20260303.0454)
 -->
<!-- Title: AsyncFw::DataArrayTcpClient::createSocket Pages: 1 -->
<svg width="862pt" height="165pt"
 viewBox="0.00 0.00 862.00 165.00" xmlns="http://www.w3.org/2000/svg" xmlns:xlink="http://www.w3.org/1999/xlink">
<g id="graph0" class="graph" transform="scale(1 1) rotate(0) translate(4 161)">
<title>AsyncFw::DataArrayTcpClient::createSocket</title>
<!-- Node1 -->
<g id="Node000001" class="node">
<title>Node1</title>
<g id="a_Node000001"><a xlink:title="Allocates a new socket instance and associates it with a specific worker thread.">
<polygon fill="#999999" stroke="#666666" points="148,-82 0,-82 0,-50 148,-50 148,-82"/>
<text xml:space="preserve" text-anchor="start" x="8" y="-68.5" font-family="Helvetica,sans-Serif" font-size="10.00">AsyncFw::DataArrayTcpClient</text>
<text xml:space="preserve" text-anchor="middle" x="74" y="-56.5" font-family="Helvetica,sans-Serif" font-size="10.00">::createSocket</text>
</a>
</g>
</g>
<!-- Node2 -->
<g id="Node000002" class="node">
<title>Node2</title>
<g id="a_Node000002"><a xlink:href="classAsyncFw_1_1DataArrayTcpClient.html#af5306849ea109fb9e5bfba5360cfe57a" target="_top" xlink:title="Allocates and spawns a new worker thread within the client pool context.">
<polygon fill="white" stroke="#666666" points="334.25,-132 186.25,-132 186.25,-100 334.25,-100 334.25,-132"/>
<text xml:space="preserve" text-anchor="start" x="194.25" y="-118.5" font-family="Helvetica,sans-Serif" font-size="10.00">AsyncFw::DataArrayTcpClient</text>
<text xml:space="preserve" text-anchor="middle" x="260.25" y="-106.5" font-family="Helvetica,sans-Serif" font-size="10.00">::createThread</text>
</a>
</g>
</g>
<!-- Node1&#45;&gt;Node2 -->
<g id="edge1_Node000001_Node000002" class="edge">
<title>Node1&#45;&gt;Node2</title>
<g id="a_edge1_Node000001_Node000002"><a xlink:title=" ">
<path fill="none" stroke="#63b8ff" d="M135.59,-82.44C152.19,-86.95 170.35,-91.88 187.52,-96.53"/>
<polygon fill="#63b8ff" stroke="#63b8ff" points="186.6,-99.91 197.17,-99.15 188.43,-93.16 186.6,-99.91"/>
</a>
</g>
</g>
<!-- Node9 -->
<g id="Node000009" class="node">
<title>Node9</title>
<g id="a_Node000009"><a xlink:href="classAsyncFw_1_1DataArrayAbstractTcp.html#a1d9557d91e39b12da701e6d371d71031" target="_top" xlink:title="Locates the worker thread currently hosting the lowest number of socket contexts.">
<polygon fill="white" stroke="#666666" points="336.5,-82 184,-82 184,-50 336.5,-50 336.5,-82"/>
<text xml:space="preserve" text-anchor="start" x="192" y="-68.5" font-family="Helvetica,sans-Serif" font-size="10.00">AsyncFw::DataArrayAbstract</text>
<text xml:space="preserve" text-anchor="middle" x="260.25" y="-56.5" font-family="Helvetica,sans-Serif" font-size="10.00">Tcp::findMinimalSocketsThread</text>
</a>
</g>
</g>
<!-- Node1&#45;&gt;Node9 -->
<g id="edge8_Node000001_Node000009" class="edge">
<title>Node1&#45;&gt;Node9</title>
<g id="a_edge8_Node000001_Node000009"><a xlink:title=" ">
<path fill="none" stroke="#63b8ff" d="M148.35,-66C156.26,-66 164.37,-66 172.42,-66"/>
<polygon fill="#63b8ff" stroke="#63b8ff" points="172.23,-69.5 182.23,-66 172.23,-62.5 172.23,-69.5"/>
</a>
</g>
</g>
<!-- Node10 -->
<g id="Node000010" class="node">
<title>Node10</title>
<g id="a_Node000010"><a xlink:href="classAsyncFw_1_1AbstractThread.html#a786474d037b50053f1a97af7b67e6069" target="_top" xlink:title="Runs a function in a managed thread.">
<polygon fill="white" stroke="#666666" points="325.25,-32 195.25,-32 195.25,0 325.25,0 325.25,-32"/>
<text xml:space="preserve" text-anchor="start" x="203.25" y="-18.5" font-family="Helvetica,sans-Serif" font-size="10.00">AsyncFw::AbstractThread</text>
<text xml:space="preserve" text-anchor="middle" x="260.25" y="-6.5" font-family="Helvetica,sans-Serif" font-size="10.00">::invoke</text>
</a>
</g>
</g>
<!-- Node1&#45;&gt;Node10 -->
<g id="edge9_Node000001_Node000010" class="edge">
<title>Node1&#45;&gt;Node10</title>
<g id="a_edge9_Node000001_Node000010"><a xlink:title=" ">
<path fill="none" stroke="#63b8ff" d="M135.59,-49.56C152.19,-45.05 170.35,-40.12 187.52,-35.47"/>
<polygon fill="#63b8ff" stroke="#63b8ff" points="188.43,-38.84 197.17,-32.85 186.6,-32.09 188.43,-38.84"/>
</a>
</g>
</g>
<!-- Node3 -->
<g id="Node000003" class="node">
<title>Node3</title>
<g id="a_Node000003"><a xlink:href="classAsyncFw_1_1AbstractThreadPool.html#ac312e723c2e0fa3e4cc18e518853bdf2" target="_top" xlink:title="Returns the identifier name of the thread pool.">
<polygon fill="white" stroke="#666666" points="522,-157 372.5,-157 372.5,-125 522,-125 522,-157"/>
<text xml:space="preserve" text-anchor="start" x="380.5" y="-143.5" font-family="Helvetica,sans-Serif" font-size="10.00">AsyncFw::AbstractThreadPool</text>
<text xml:space="preserve" text-anchor="middle" x="447.25" y="-131.5" font-family="Helvetica,sans-Serif" font-size="10.00">::name</text>
</a>
</g>
</g>
<!-- Node2&#45;&gt;Node3 -->
<g id="edge2_Node000002_Node000003" class="edge">
<title>Node2&#45;&gt;Node3</title>
<g id="a_edge2_Node000002_Node000003"><a xlink:title=" ">
<path fill="none" stroke="#63b8ff" d="M334.63,-125.92C343.19,-127.07 351.98,-128.26 360.68,-129.44"/>
<polygon fill="#63b8ff" stroke="#63b8ff" points="360.17,-132.9 370.55,-130.77 361.11,-125.96 360.17,-132.9"/>
</a>
</g>
</g>
<!-- Node4 -->
<g id="Node000004" class="node">
<title>Node4</title>
<g id="a_Node000004"><a xlink:href="classAsyncFw_1_1AbstractThread.html#afdaccb5da7d4bee5e9ff687f761bd21f" target="_top" xlink:title="Create a managed thread and run exec().">
<polygon fill="white" stroke="#666666" points="512.25,-107 382.25,-107 382.25,-75 512.25,-75 512.25,-107"/>
<text xml:space="preserve" text-anchor="start" x="390.25" y="-93.5" font-family="Helvetica,sans-Serif" font-size="10.00">AsyncFw::AbstractThread</text>
<text xml:space="preserve" text-anchor="middle" x="447.25" y="-81.5" font-family="Helvetica,sans-Serif" font-size="10.00">::start</text>
</a>
</g>
</g>
<!-- Node2&#45;&gt;Node4 -->
<g id="edge3_Node000002_Node000004" class="edge">
<title>Node2&#45;&gt;Node4</title>
<g id="a_edge3_Node000002_Node000004"><a xlink:title=" ">
<path fill="none" stroke="#63b8ff" d="M334.63,-106.08C346.48,-104.48 358.77,-102.82 370.67,-101.21"/>
<polygon fill="#63b8ff" stroke="#63b8ff" points="370.99,-104.7 380.43,-99.89 370.06,-97.76 370.99,-104.7"/>
</a>
</g>
</g>
<!-- Node5 -->
<g id="Node000005" class="node">
<title>Node5</title>
<g id="a_Node000005"><a xlink:href="classAsyncFw_1_1AbstractThread.html#a1abe0f5c637dcc6af5aff00c5291bd4f" target="_top" xlink:title="Run manage loop.">
<polygon fill="white" stroke="#666666" points="688,-107 558,-107 558,-75 688,-75 688,-107"/>
<text xml:space="preserve" text-anchor="start" x="566" y="-93.5" font-family="Helvetica,sans-Serif" font-size="10.00">AsyncFw::AbstractThread</text>
<text xml:space="preserve" text-anchor="middle" x="623" y="-81.5" font-family="Helvetica,sans-Serif" font-size="10.00">::exec</text>
</a>
</g>
</g>
<!-- Node4&#45;&gt;Node5 -->
<g id="edge4_Node000004_Node000005" class="edge">
<title>Node4&#45;&gt;Node5</title>
<g id="a_edge4_Node000004_Node000005"><a xlink:title=" ">
<path fill="none" stroke="#63b8ff" d="M512.45,-91C523.55,-91 535.17,-91 546.53,-91"/>
<polygon fill="#63b8ff" stroke="#63b8ff" points="546.26,-94.5 556.26,-91 546.26,-87.5 546.26,-94.5"/>
</a>
</g>
</g>
<!-- Node6 -->
<g id="Node000006" class="node">
<title>Node6</title>
<g id="a_Node000006"><a xlink:href="classAsyncFw_1_1AbstractThread.html#ad43b7b79e541bd1d6cce20f0231cc64d" target="_top" xlink:title="This call from the thread when it finishing execution.">
<polygon fill="white" stroke="#666666" points="854,-157 724,-157 724,-125 854,-125 854,-157"/>
<text xml:space="preserve" text-anchor="start" x="732" y="-143.5" font-family="Helvetica,sans-Serif" font-size="10.00">AsyncFw::AbstractThread</text>
<text xml:space="preserve" text-anchor="middle" x="789" y="-131.5" font-family="Helvetica,sans-Serif" font-size="10.00">::finishedEvent</text>
</a>
</g>
</g>
<!-- Node5&#45;&gt;Node6 -->
<g id="edge5_Node000005_Node000006" class="edge">
<title>Node5&#45;&gt;Node6</title>
<g id="a_edge5_Node000005_Node000006"><a xlink:title=" ">
<path fill="none" stroke="#63b8ff" d="M677.7,-107.37C692.21,-111.8 708.06,-116.63 723.11,-121.22"/>
<polygon fill="#63b8ff" stroke="#63b8ff" points="721.87,-124.5 732.45,-124.06 723.91,-117.8 721.87,-124.5"/>
</a>
</g>
</g>
<!-- Node7 -->
<g id="Node000007" class="node">
<title>Node7</title>
<g id="a_Node000007"><a xlink:href="classAsyncFw_1_1AbstractThread.html#a0cd916251e061aaf3d456575ef052edd" target="_top" xlink:title="Returns name of managed thread.">
<polygon fill="white" stroke="#666666" points="854,-107 724,-107 724,-75 854,-75 854,-107"/>
<text xml:space="preserve" text-anchor="start" x="732" y="-93.5" font-family="Helvetica,sans-Serif" font-size="10.00">AsyncFw::AbstractThread</text>
<text xml:space="preserve" text-anchor="middle" x="789" y="-81.5" font-family="Helvetica,sans-Serif" font-size="10.00">::name</text>
</a>
</g>
</g>
<!-- Node5&#45;&gt;Node7 -->
<g id="edge6_Node000005_Node000007" class="edge">
<title>Node5&#45;&gt;Node7</title>
<g id="a_edge6_Node000005_Node000007"><a xlink:title=" ">
<path fill="none" stroke="#63b8ff" d="M688.35,-91C696.21,-91 704.31,-91 712.33,-91"/>
<polygon fill="#63b8ff" stroke="#63b8ff" points="712.06,-94.5 722.06,-91 712.06,-87.5 712.06,-94.5"/>
</a>
</g>
</g>
<!-- Node8 -->
<g id="Node000008" class="node">
<title>Node8</title>
<g id="a_Node000008"><a xlink:href="classAsyncFw_1_1AbstractThread.html#a9b9db94ad8c90eafe1ef34a076af8498" target="_top" xlink:title="This call from thread when it starts executing.">
<polygon fill="white" stroke="#666666" points="854,-57 724,-57 724,-25 854,-25 854,-57"/>
<text xml:space="preserve" text-anchor="start" x="732" y="-43.5" font-family="Helvetica,sans-Serif" font-size="10.00">AsyncFw::AbstractThread</text>
<text xml:space="preserve" text-anchor="middle" x="789" y="-31.5" font-family="Helvetica,sans-Serif" font-size="10.00">::startedEvent</text>
</a>
</g>
</g>
<!-- Node5&#45;&gt;Node8 -->
<g id="edge7_Node000005_Node000008" class="edge">
<title>Node5&#45;&gt;Node8</title>
<g id="a_edge7_Node000005_Node000008"><a xlink:title=" ">
<path fill="none" stroke="#63b8ff" d="M677.7,-74.63C692.21,-70.2 708.06,-65.37 723.11,-60.78"/>
<polygon fill="#63b8ff" stroke="#63b8ff" points="723.91,-64.2 732.45,-57.94 721.87,-57.5 723.91,-64.2"/>
</a>
</g>
</g>
<!-- Node11 -->
<g id="Node000011" class="node">
<title>Node11</title>
<g id="a_Node000011"><a xlink:href="classAsyncFw_1_1AbstractThread.html#abe96e6b2a1de041f0d25390a6b77e50a" target="_top" xlink:title="Runs a task in a managed thread.">
<polygon fill="white" stroke="#666666" points="512.25,-32 382.25,-32 382.25,0 512.25,0 512.25,-32"/>
<text xml:space="preserve" text-anchor="start" x="390.25" y="-18.5" font-family="Helvetica,sans-Serif" font-size="10.00">AsyncFw::AbstractThread</text>
<text xml:space="preserve" text-anchor="middle" x="447.25" y="-6.5" font-family="Helvetica,sans-Serif" font-size="10.00">::invokeTask</text>
</a>
</g>
</g>
<!-- Node10&#45;&gt;Node11 -->
<g id="edge10_Node000010_Node000011" class="edge">
<title>Node10&#45;&gt;Node11</title>
<g id="a_edge10_Node000010_Node000011"><a xlink:title=" ">
<path fill="none" stroke="#63b8ff" d="M325.69,-16C340.24,-16 355.8,-16 370.75,-16"/>
<polygon fill="#63b8ff" stroke="#63b8ff" points="370.52,-19.5 380.52,-16 370.52,-12.5 370.52,-19.5"/>
</a>
</g>
</g>
</g>
</svg>
