<?xml version="1.0" encoding="UTF-8" standalone="no"?>
<!DOCTYPE svg PUBLIC "-//W3C//DTD SVG 1.1//EN"
 "http://www.w3.org/Graphics/SVG/1.1/DTD/svg11.dtd">
<!-- Generated by graphviz version 14.1.3 (20260303.0454)
 -->
<!-- Title: AsyncFw::AbstractThread::invoke Pages: 1 -->
<svg width="454pt" height="240pt"
 viewBox="0.00 0.00 454.00 240.00" xmlns="http://www.w3.org/2000/svg" xmlns:xlink="http://www.w3.org/1999/xlink">
<g id="graph0" class="graph" transform="scale(1 1) rotate(0) translate(4 236)">
<title>AsyncFw::AbstractThread::invoke</title>
<!-- Node1 -->
<g id="Node000001" class="node">
<title>Node1</title>
<g id="a_Node000001"><a xlink:title="Runs a function in a managed thread.">
<polygon fill="#999999" stroke="#666666" points="445.5,-132 315.5,-132 315.5,-100 445.5,-100 445.5,-132"/>
<text xml:space="preserve" text-anchor="start" x="323.5" y="-118.5" font-family="Helvetica,sans-Serif" font-size="10.00">AsyncFw::AbstractThread</text>
<text xml:space="preserve" text-anchor="middle" x="380.5" y="-106.5" font-family="Helvetica,sans-Serif" font-size="10.00">::invoke</text>
</a>
</g>
</g>
<!-- Node2 -->
<g id="Node000002" class="node">
<title>Node2</title>
<g id="a_Node000002"><a xlink:href="classAsyncFw_1_1ThreadPool.html#a0a35c4070964e69b187842b69b04d325" target="_top" xlink:title="Asynchronously invokes a function in the given thread&#39;s event loop.">
<polygon fill="white" stroke="#666666" points="270.5,-232 157.75,-232 157.75,-200 270.5,-200 270.5,-232"/>
<text xml:space="preserve" text-anchor="start" x="165.75" y="-218.5" font-family="Helvetica,sans-Serif" font-size="10.00">AsyncFw::ThreadPool</text>
<text xml:space="preserve" text-anchor="middle" x="214.12" y="-206.5" font-family="Helvetica,sans-Serif" font-size="10.00">::async</text>
</a>
</g>
</g>
<!-- Node1&#45;&gt;Node2 -->
<g id="edge1_Node000001_Node000002" class="edge">
<title>Node1&#45;&gt;Node2</title>
<g id="a_edge1_Node000001_Node000002"><a xlink:title=" ">
<path fill="none" stroke="#63b8ff" d="M352.45,-139.5C333.08,-155.51 305.87,-176.36 279.5,-191 273.94,-194.09 267.93,-196.96 261.89,-199.59"/>
<polygon fill="#63b8ff" stroke="#63b8ff" points="354.45,-142.39 359.87,-133.28 349.96,-137.03 354.45,-142.39"/>
</a>
</g>
</g>
<!-- Node4 -->
<g id="Node000004" class="node">
<title>Node4</title>
<g id="a_Node000004"><a xlink:href="classAsyncFw_1_1ThreadPool.html#a9919894e586310a7ea5b780845376e17" target="_top" xlink:title="Asynchronously invokes a void function in the target thread, and executes a result callback in the ca...">
<polygon fill="white" stroke="#666666" points="270.5,-182 157.75,-182 157.75,-150 270.5,-150 270.5,-182"/>
<text xml:space="preserve" text-anchor="start" x="165.75" y="-168.5" font-family="Helvetica,sans-Serif" font-size="10.00">AsyncFw::ThreadPool</text>
<text xml:space="preserve" text-anchor="middle" x="214.12" y="-156.5" font-family="Helvetica,sans-Serif" font-size="10.00">::async</text>
</a>
</g>
</g>
<!-- Node1&#45;&gt;Node4 -->
<g id="edge3_Node000001_Node000004" class="edge">
<title>Node1&#45;&gt;Node4</title>
<g id="a_edge3_Node000001_Node000004"><a xlink:title=" ">
<path fill="none" stroke="#63b8ff" d="M314.88,-135.66C299.81,-140.24 283.92,-145.08 269.35,-149.51"/>
<polygon fill="#63b8ff" stroke="#63b8ff" points="315.68,-139.07 324.23,-132.81 313.64,-132.37 315.68,-139.07"/>
</a>
</g>
</g>
<!-- Node5 -->
<g id="Node000005" class="node">
<title>Node5</title>
<g id="a_Node000005"><a xlink:href="classAsyncFw_1_1AbstractSocket.html#a73a200f0008dbf9f820bdb2b8a0054cf" target="_top" xlink:title="Schedules the socket for deferred asynchronous destruction.">
<polygon fill="white" stroke="#666666" points="279.5,-132 148.75,-132 148.75,-100 279.5,-100 279.5,-132"/>
<text xml:space="preserve" text-anchor="start" x="156.75" y="-118.5" font-family="Helvetica,sans-Serif" font-size="10.00">AsyncFw::AbstractSocket</text>
<text xml:space="preserve" text-anchor="middle" x="214.12" y="-106.5" font-family="Helvetica,sans-Serif" font-size="10.00">::destroy</text>
</a>
</g>
</g>
<!-- Node1&#45;&gt;Node5 -->
<g id="edge4_Node000001_Node000005" class="edge">
<title>Node1&#45;&gt;Node5</title>
<g id="a_edge4_Node000001_Node000005"><a xlink:title=" ">
<path fill="none" stroke="#63b8ff" d="M303.55,-116C295.67,-116 287.71,-116 279.97,-116"/>
<polygon fill="#63b8ff" stroke="#63b8ff" points="303.49,-119.5 313.49,-116 303.49,-112.5 303.49,-119.5"/>
</a>
</g>
</g>
<!-- Node7 -->
<g id="Node000007" class="node">
<title>Node7</title>
<g id="a_Node000007"><a xlink:href="classAsyncFw_1_1ThreadPool.html#a4e73e16c0af130d6311c29952b11f720" target="_top" xlink:title="Selects and returns the least loaded thread from the pool for task distribution.">
<polygon fill="white" stroke="#666666" points="270.5,-82 157.75,-82 157.75,-50 270.5,-50 270.5,-82"/>
<text xml:space="preserve" text-anchor="start" x="165.75" y="-68.5" font-family="Helvetica,sans-Serif" font-size="10.00">AsyncFw::ThreadPool</text>
<text xml:space="preserve" text-anchor="middle" x="214.12" y="-56.5" font-family="Helvetica,sans-Serif" font-size="10.00">::getThread</text>
</a>
</g>
</g>
<!-- Node1&#45;&gt;Node7 -->
<g id="edge6_Node000001_Node000007" class="edge">
<title>Node1&#45;&gt;Node7</title>
<g id="a_edge6_Node000001_Node000007"><a xlink:title=" ">
<path fill="none" stroke="#63b8ff" d="M314.88,-96.34C299.81,-91.76 283.92,-86.92 269.35,-82.49"/>
<polygon fill="#63b8ff" stroke="#63b8ff" points="313.64,-99.63 324.23,-99.19 315.68,-92.93 313.64,-99.63"/>
</a>
</g>
</g>
<!-- Node8 -->
<g id="Node000008" class="node">
<title>Node8</title>
<g id="a_Node000008"><a xlink:href="classAsyncFw_1_1ThreadPool.html#add8ee85dd7581acb117a805ff5a8c18a" target="_top" xlink:title="Synchronously invokes a function in the given thread&#39;s event loop (blocks the caller).">
<polygon fill="white" stroke="#666666" points="270.5,-32 157.75,-32 157.75,0 270.5,0 270.5,-32"/>
<text xml:space="preserve" text-anchor="start" x="165.75" y="-18.5" font-family="Helvetica,sans-Serif" font-size="10.00">AsyncFw::ThreadPool</text>
<text xml:space="preserve" text-anchor="middle" x="214.12" y="-6.5" font-family="Helvetica,sans-Serif" font-size="10.00">::sync</text>
</a>
</g>
</g>
<!-- Node1&#45;&gt;Node8 -->
<g id="edge7_Node000001_Node000008" class="edge">
<title>Node1&#45;&gt;Node8</title>
<g id="a_edge7_Node000001_Node000008"><a xlink:title=" ">
<path fill="none" stroke="#63b8ff" d="M352.45,-92.5C333.08,-76.49 305.87,-55.64 279.5,-41 273.94,-37.91 267.93,-35.04 261.89,-32.41"/>
<polygon fill="#63b8ff" stroke="#63b8ff" points="349.96,-94.97 359.87,-98.72 354.45,-89.61 349.96,-94.97"/>
</a>
</g>
</g>
<!-- Node3 -->
<g id="Node000003" class="node">
<title>Node3</title>
<g id="a_Node000003"><a xlink:href="classAsyncFw_1_1ThreadPool.html#a5af6a927b72eec19abb94ee2477d00b5" target="_top" xlink:title="Asynchronously invokes a function in the global pool, returning the result to a callback in the calle...">
<polygon fill="white" stroke="#666666" points="112.75,-232 0,-232 0,-200 112.75,-200 112.75,-232"/>
<text xml:space="preserve" text-anchor="start" x="8" y="-218.5" font-family="Helvetica,sans-Serif" font-size="10.00">AsyncFw::ThreadPool</text>
<text xml:space="preserve" text-anchor="middle" x="56.38" y="-206.5" font-family="Helvetica,sans-Serif" font-size="10.00">::async</text>
</a>
</g>
</g>
<!-- Node2&#45;&gt;Node3 -->
<g id="edge2_Node000002_Node000003" class="edge">
<title>Node2&#45;&gt;Node3</title>
<g id="a_edge2_Node000002_Node000003"><a xlink:title=" ">
<path fill="none" stroke="#63b8ff" d="M146.01,-216C135.01,-216 123.72,-216 113.04,-216"/>
<polygon fill="#63b8ff" stroke="#63b8ff" points="145.82,-219.5 155.82,-216 145.82,-212.5 145.82,-219.5"/>
</a>
</g>
</g>
<!-- Node6 -->
<g id="Node000006" class="node">
<title>Node6</title>
<g id="a_Node000006"><a xlink:href="classAsyncFw_1_1HttpSocket.html#a8268467d3581a4d393e9ccd288de32ff" target="_top" xlink:title="Schedules the socket for deferred asynchronous destruction.">
<polygon fill="white" stroke="#666666" points="112.75,-132 0,-132 0,-100 112.75,-100 112.75,-132"/>
<text xml:space="preserve" text-anchor="start" x="8" y="-118.5" font-family="Helvetica,sans-Serif" font-size="10.00">AsyncFw::HttpSocket</text>
<text xml:space="preserve" text-anchor="middle" x="56.38" y="-106.5" font-family="Helvetica,sans-Serif" font-size="10.00">::destroy</text>
</a>
</g>
</g>
<!-- Node5&#45;&gt;Node6 -->
<g id="edge5_Node000005_Node000006" class="edge">
<title>Node5&#45;&gt;Node6</title>
<g id="a_edge5_Node000005_Node000006"><a xlink:title=" ">
<path fill="none" stroke="#63b8ff" d="M137.09,-116C129.04,-116 120.96,-116 113.2,-116"/>
<polygon fill="#63b8ff" stroke="#63b8ff" points="136.91,-119.5 146.91,-116 136.91,-112.5 136.91,-119.5"/>
</a>
</g>
</g>
</g>
</svg>
