<?xml version="1.0" encoding="UTF-8" standalone="no"?>
<!DOCTYPE svg PUBLIC "-//W3C//DTD SVG 1.1//EN"
 "http://www.w3.org/Graphics/SVG/1.1/DTD/svg11.dtd">
<!-- Generated by graphviz version 12.2.1 (20241206.2353)
 -->
<!-- Title: AsyncFw::AbstractSocket Pages: 1 -->
<svg width="356pt" height="269pt"
 viewBox="0.00 0.00 355.62 269.00" xmlns="http://www.w3.org/2000/svg" xmlns:xlink="http://www.w3.org/1999/xlink">
<g id="graph0" class="graph" transform="scale(1 1) rotate(0) translate(4 265)">
<title>AsyncFw::AbstractSocket</title>
<!-- Node1 -->
<g id="Node000001" class="node">
<title>Node1</title>
<g id="a_Node000001"><a xlink:title="Abstract base class providing core network socket functionality and OS descriptor abstraction.">
<polygon fill="#999999" stroke="#666666" points="132.12,-20 1.38,-20 1.38,0 132.12,0 132.12,-20"/>
<text text-anchor="middle" x="66.75" y="-6.5" font-family="Helvetica,sans-Serif" font-size="10.00">AsyncFw::AbstractSocket</text>
</a>
</g>
</g>
<!-- Node2 -->
<g id="Node000002" class="node">
<title>Node2</title>
<g id="a_Node000002"><a xlink:href="structAsyncFw_1_1AnyData.html" target="_top" xlink:title="The AnyData class.">
<polygon fill="white" stroke="#666666" points="101.5,-88 0,-88 0,-68 101.5,-68 101.5,-88"/>
<text text-anchor="middle" x="50.75" y="-74.5" font-family="Helvetica,sans-Serif" font-size="10.00">AsyncFw::AnyData</text>
</a>
</g>
</g>
<!-- Node2&#45;&gt;Node1 -->
<g id="edge1_Node000001_Node000002" class="edge">
<title>Node2&#45;&gt;Node1</title>
<g id="a_edge1_Node000001_Node000002"><a xlink:title=" ">
<path fill="none" stroke="#63b8ff" d="M55.68,-56.65C58.61,-44.58 62.18,-29.84 64.46,-20.44"/>
<polygon fill="#63b8ff" stroke="#63b8ff" points="52.35,-55.53 53.4,-66.07 59.16,-57.18 52.35,-55.53"/>
</a>
</g>
</g>
<!-- Node3 -->
<g id="Node000003" class="node">
<title>Node3</title>
<g id="a_Node000003"><a xlink:href="classAsyncFw_1_1Thread.html" target="_top" xlink:title="AsyncFw::Thread thread with sockets.">
<polygon fill="white" stroke="#666666" points="212.38,-88 119.12,-88 119.12,-68 212.38,-68 212.38,-88"/>
<text text-anchor="middle" x="165.75" y="-74.5" font-family="Helvetica,sans-Serif" font-size="10.00">AsyncFw::Thread</text>
</a>
</g>
</g>
<!-- Node3&#45;&gt;Node1 -->
<g id="edge2_Node000001_Node000003" class="edge">
<title>Node3&#45;&gt;Node1</title>
<g id="a_edge2_Node000001_Node000003"><a xlink:title=" ">
<path fill="none" stroke="#9a32cd" stroke-dasharray="5,2" d="M142.08,-61.22C123.01,-48.51 96.85,-31.07 80.91,-20.44"/>
<polygon fill="#9a32cd" stroke="#9a32cd" points="140.04,-64.07 150.31,-66.7 143.93,-58.25 140.04,-64.07"/>
</a>
</g>
<text text-anchor="middle" x="142.74" y="-40.5" font-family="Helvetica,sans-Serif" font-size="10.00" fill="grey"> thread_</text>
</g>
<!-- Node4 -->
<g id="Node000004" class="node">
<title>Node4</title>
<g id="a_Node000004"><a xlink:href="classAsyncFw_1_1AbstractThread.html" target="_top" xlink:title="The AbstractThread class provides the base functionality for thread management.">
<polygon fill="white" stroke="#666666" points="183.75,-186 53.75,-186 53.75,-166 183.75,-166 183.75,-186"/>
<text text-anchor="middle" x="118.75" y="-172.5" font-family="Helvetica,sans-Serif" font-size="10.00">AsyncFw::AbstractThread</text>
</a>
</g>
</g>
<!-- Node4&#45;&gt;Node3 -->
<g id="edge3_Node000003_Node000004" class="edge">
<title>Node4&#45;&gt;Node3</title>
<g id="a_edge3_Node000003_Node000004"><a xlink:title=" ">
<path fill="none" stroke="#63b8ff" d="M128.32,-155.46C138.33,-135 153.62,-103.77 161.19,-88.32"/>
<polygon fill="#63b8ff" stroke="#63b8ff" points="125.18,-153.92 123.92,-164.44 131.46,-156.99 125.18,-153.92"/>
</a>
</g>
</g>
<!-- Node5 -->
<g id="Node000005" class="node">
<title>Node5</title>
<g id="a_Node000005"><a xlink:href="classAsyncFw_1_1FunctionConnector.html" target="_top" xlink:title="Provides a thread&#45;safe, publisher&#45;subscriber mechanism to establish sender&#45;to&#45;receivers connections.">
<polygon fill="white" stroke="#666666" points="347.62,-192 201.88,-192 201.88,-160 347.62,-160 347.62,-192"/>
<text text-anchor="start" x="209.88" y="-178.5" font-family="Helvetica,sans-Serif" font-size="10.00">AsyncFw::FunctionConnector</text>
<text text-anchor="middle" x="274.75" y="-166.5" font-family="Helvetica,sans-Serif" font-size="10.00">&lt; Args &gt;</text>
</a>
</g>
</g>
<!-- Node5&#45;&gt;Node3 -->
<g id="edge4_Node000003_Node000005" class="edge">
<title>Node5&#45;&gt;Node3</title>
<g id="a_edge4_Node000003_Node000005"><a xlink:title=" ">
<path fill="none" stroke="#9a32cd" stroke-dasharray="5,2" d="M248.89,-152.22C225.72,-131.82 192.93,-102.94 176.3,-88.29"/>
<polygon fill="#9a32cd" stroke="#9a32cd" points="246.28,-154.59 256.1,-158.58 250.91,-149.34 246.28,-154.59"/>
</a>
</g>
<text text-anchor="middle" x="257.76" y="-132.5" font-family="Helvetica,sans-Serif" font-size="10.00" fill="grey"> destroing</text>
<text text-anchor="middle" x="257.76" y="-120.5" font-family="Helvetica,sans-Serif" font-size="10.00" fill="grey">finished</text>
<text text-anchor="middle" x="257.76" y="-108.5" font-family="Helvetica,sans-Serif" font-size="10.00" fill="grey">started</text>
</g>
<!-- Node6 -->
<g id="Node000006" class="node">
<title>Node6</title>
<g id="a_Node000006"><a xlink:href="classAsyncFw_1_1AbstractFunctionConnector.html" target="_top" xlink:title="The AbstractFunctionConnector class provides the base functionality for FunctionConnector.">
<polygon fill="white" stroke="#666666" points="343.5,-261 206,-261 206,-229 343.5,-229 343.5,-261"/>
<text text-anchor="start" x="214" y="-247.5" font-family="Helvetica,sans-Serif" font-size="10.00">AsyncFw::AbstractFunction</text>
<text text-anchor="middle" x="274.75" y="-235.5" font-family="Helvetica,sans-Serif" font-size="10.00">Connector</text>
</a>
</g>
</g>
<!-- Node6&#45;&gt;Node5 -->
<g id="edge5_Node000005_Node000006" class="edge">
<title>Node6&#45;&gt;Node5</title>
<g id="a_edge5_Node000005_Node000006"><a xlink:title=" ">
<path fill="none" stroke="#63b8ff" d="M274.75,-217.35C274.75,-208.78 274.75,-199.59 274.75,-192.14"/>
<polygon fill="#63b8ff" stroke="#63b8ff" points="271.25,-217.28 274.75,-227.28 278.25,-217.28 271.25,-217.28"/>
</a>
</g>
</g>
</g>
</svg>
