<?xml version="1.0" encoding="UTF-8" standalone="no"?>
<!DOCTYPE svg PUBLIC "-//W3C//DTD SVG 1.1//EN"
 "http://www.w3.org/Graphics/SVG/1.1/DTD/svg11.dtd">
<!-- Generated by graphviz version 12.2.1 (20241206.2353)
 -->
<!-- Title: AsyncFw::AbstractTlsSocket Pages: 1 -->
<svg width="361pt" height="326pt"
 viewBox="0.00 0.00 361.00 326.00" xmlns="http://www.w3.org/2000/svg" xmlns:xlink="http://www.w3.org/1999/xlink">
<g id="graph0" class="graph" transform="scale(1 1) rotate(0) translate(4 322)">
<title>AsyncFw::AbstractTlsSocket</title>
<!-- Node1 -->
<g id="Node000001" class="node">
<title>Node1</title>
<g id="a_Node000001"><a xlink:title="Abstract base class providing Transport Layer Security (TLS/SSL) encryption layers on top of standard...">
<polygon fill="#999999" stroke="#666666" points="144.25,-20 0,-20 0,0 144.25,0 144.25,-20"/>
<text text-anchor="middle" x="72.12" y="-6.5" font-family="Helvetica,sans-Serif" font-size="10.00">AsyncFw::AbstractTlsSocket</text>
</a>
</g>
</g>
<!-- Node2 -->
<g id="Node000002" class="node">
<title>Node2</title>
<g id="a_Node000002"><a xlink:href="classAsyncFw_1_1AbstractSocket.html" target="_top" xlink:title="Abstract base class providing core network socket functionality and OS descriptor abstraction.">
<polygon fill="white" stroke="#666666" points="137.5,-77 6.75,-77 6.75,-57 137.5,-57 137.5,-77"/>
<text text-anchor="middle" x="72.12" y="-63.5" font-family="Helvetica,sans-Serif" font-size="10.00">AsyncFw::AbstractSocket</text>
</a>
</g>
</g>
<!-- Node2&#45;&gt;Node1 -->
<g id="edge1_Node000001_Node000002" class="edge">
<title>Node2&#45;&gt;Node1</title>
<g id="a_edge1_Node000001_Node000002"><a xlink:title=" ">
<path fill="none" stroke="#63b8ff" d="M72.12,-45.69C72.12,-36.97 72.12,-27.22 72.12,-20.28"/>
<polygon fill="#63b8ff" stroke="#63b8ff" points="68.63,-45.4 72.13,-55.4 75.63,-45.4 68.63,-45.4"/>
</a>
</g>
</g>
<!-- Node3 -->
<g id="Node000003" class="node">
<title>Node3</title>
<g id="a_Node000003"><a xlink:href="structAsyncFw_1_1AnyData.html" target="_top" xlink:title="The AnyData class.">
<polygon fill="white" stroke="#666666" points="106.88,-145 5.38,-145 5.38,-125 106.88,-125 106.88,-145"/>
<text text-anchor="middle" x="56.12" y="-131.5" font-family="Helvetica,sans-Serif" font-size="10.00">AsyncFw::AnyData</text>
</a>
</g>
</g>
<!-- Node3&#45;&gt;Node2 -->
<g id="edge2_Node000002_Node000003" class="edge">
<title>Node3&#45;&gt;Node2</title>
<g id="a_edge2_Node000002_Node000003"><a xlink:title=" ">
<path fill="none" stroke="#63b8ff" d="M61.06,-113.65C63.98,-101.58 67.56,-86.84 69.84,-77.44"/>
<polygon fill="#63b8ff" stroke="#63b8ff" points="57.73,-112.53 58.77,-123.07 64.53,-114.18 57.73,-112.53"/>
</a>
</g>
</g>
<!-- Node4 -->
<g id="Node000004" class="node">
<title>Node4</title>
<g id="a_Node000004"><a xlink:href="classAsyncFw_1_1Thread.html" target="_top" xlink:title="AsyncFw::Thread thread with sockets.">
<polygon fill="white" stroke="#666666" points="217.75,-145 124.5,-145 124.5,-125 217.75,-125 217.75,-145"/>
<text text-anchor="middle" x="171.12" y="-131.5" font-family="Helvetica,sans-Serif" font-size="10.00">AsyncFw::Thread</text>
</a>
</g>
</g>
<!-- Node4&#45;&gt;Node2 -->
<g id="edge3_Node000002_Node000004" class="edge">
<title>Node4&#45;&gt;Node2</title>
<g id="a_edge3_Node000002_Node000004"><a xlink:title=" ">
<path fill="none" stroke="#9a32cd" stroke-dasharray="5,2" d="M147.45,-118.22C128.39,-105.51 102.22,-88.07 86.28,-77.44"/>
<polygon fill="#9a32cd" stroke="#9a32cd" points="145.42,-121.07 155.68,-123.7 149.3,-115.25 145.42,-121.07"/>
</a>
</g>
<text text-anchor="middle" x="148.12" y="-97.5" font-family="Helvetica,sans-Serif" font-size="10.00" fill="grey"> thread_</text>
</g>
<!-- Node5 -->
<g id="Node000005" class="node">
<title>Node5</title>
<g id="a_Node000005"><a xlink:href="classAsyncFw_1_1AbstractThread.html" target="_top" xlink:title="The AbstractThread class provides the base functionality for thread management.">
<polygon fill="white" stroke="#666666" points="189.12,-243 59.12,-243 59.12,-223 189.12,-223 189.12,-243"/>
<text text-anchor="middle" x="124.12" y="-229.5" font-family="Helvetica,sans-Serif" font-size="10.00">AsyncFw::AbstractThread</text>
</a>
</g>
</g>
<!-- Node5&#45;&gt;Node4 -->
<g id="edge4_Node000004_Node000005" class="edge">
<title>Node5&#45;&gt;Node4</title>
<g id="a_edge4_Node000004_Node000005"><a xlink:title=" ">
<path fill="none" stroke="#63b8ff" d="M133.69,-212.46C143.71,-192 159,-160.77 166.56,-145.32"/>
<polygon fill="#63b8ff" stroke="#63b8ff" points="130.55,-210.92 129.3,-221.44 136.84,-213.99 130.55,-210.92"/>
</a>
</g>
</g>
<!-- Node6 -->
<g id="Node000006" class="node">
<title>Node6</title>
<g id="a_Node000006"><a xlink:href="classAsyncFw_1_1FunctionConnector.html" target="_top" xlink:title="Provides a thread&#45;safe, publisher&#45;subscriber mechanism to establish sender&#45;to&#45;receivers connections.">
<polygon fill="white" stroke="#666666" points="353,-249 207.25,-249 207.25,-217 353,-217 353,-249"/>
<text text-anchor="start" x="215.25" y="-235.5" font-family="Helvetica,sans-Serif" font-size="10.00">AsyncFw::FunctionConnector</text>
<text text-anchor="middle" x="280.12" y="-223.5" font-family="Helvetica,sans-Serif" font-size="10.00">&lt; Args &gt;</text>
</a>
</g>
</g>
<!-- Node6&#45;&gt;Node4 -->
<g id="edge5_Node000004_Node000006" class="edge">
<title>Node6&#45;&gt;Node4</title>
<g id="a_edge5_Node000004_Node000006"><a xlink:title=" ">
<path fill="none" stroke="#9a32cd" stroke-dasharray="5,2" d="M254.26,-209.22C231.1,-188.82 198.3,-159.94 181.67,-145.29"/>
<polygon fill="#9a32cd" stroke="#9a32cd" points="251.66,-211.59 261.48,-215.58 256.29,-206.34 251.66,-211.59"/>
</a>
</g>
<text text-anchor="middle" x="263.13" y="-189.5" font-family="Helvetica,sans-Serif" font-size="10.00" fill="grey"> destroing</text>
<text text-anchor="middle" x="263.13" y="-177.5" font-family="Helvetica,sans-Serif" font-size="10.00" fill="grey">finished</text>
<text text-anchor="middle" x="263.13" y="-165.5" font-family="Helvetica,sans-Serif" font-size="10.00" fill="grey">started</text>
</g>
<!-- Node7 -->
<g id="Node000007" class="node">
<title>Node7</title>
<g id="a_Node000007"><a xlink:href="classAsyncFw_1_1AbstractFunctionConnector.html" target="_top" xlink:title="The AbstractFunctionConnector class provides the base functionality for FunctionConnector.">
<polygon fill="white" stroke="#666666" points="348.88,-318 211.38,-318 211.38,-286 348.88,-286 348.88,-318"/>
<text text-anchor="start" x="219.38" y="-304.5" font-family="Helvetica,sans-Serif" font-size="10.00">AsyncFw::AbstractFunction</text>
<text text-anchor="middle" x="280.12" y="-292.5" font-family="Helvetica,sans-Serif" font-size="10.00">Connector</text>
</a>
</g>
</g>
<!-- Node7&#45;&gt;Node6 -->
<g id="edge6_Node000006_Node000007" class="edge">
<title>Node7&#45;&gt;Node6</title>
<g id="a_edge6_Node000006_Node000007"><a xlink:title=" ">
<path fill="none" stroke="#63b8ff" d="M280.12,-274.35C280.12,-265.78 280.12,-256.59 280.12,-249.14"/>
<polygon fill="#63b8ff" stroke="#63b8ff" points="276.63,-274.28 280.13,-284.28 283.63,-274.28 276.63,-274.28"/>
</a>
</g>
</g>
</g>
</svg>
