<?xml version="1.0" encoding="UTF-8" standalone="no"?>
<!DOCTYPE svg PUBLIC "-//W3C//DTD SVG 1.1//EN"
 "http://www.w3.org/Graphics/SVG/1.1/DTD/svg11.dtd">
<!-- Generated by graphviz version 12.2.1 (20241206.2353)
 -->
<!-- Title: AsyncFw::HttpServer Pages: 1 -->
<svg width="239pt" height="281pt"
 viewBox="0.00 0.00 238.75 281.00" xmlns="http://www.w3.org/2000/svg" xmlns:xlink="http://www.w3.org/1999/xlink">
<g id="graph0" class="graph" transform="scale(1 1) rotate(0) translate(4 277)">
<title>AsyncFw::HttpServer</title>
<!-- Node1 -->
<g id="Node000001" class="node">
<title>Node1</title>
<g id="a_Node000001"><a xlink:title="The HttpServer class.">
<polygon fill="#999999" stroke="#666666" points="128.12,-20 17.62,-20 17.62,0 128.12,0 128.12,-20"/>
<text text-anchor="middle" x="72.88" y="-6.5" font-family="Helvetica,sans-Serif" font-size="10.00">AsyncFw::HttpServer</text>
</a>
</g>
</g>
<!-- Node2 -->
<g id="Node000002" class="node">
<title>Node2</title>
<g id="a_Node000002"><a xlink:href="classAsyncFw_1_1FunctionConnector.html" target="_top" xlink:title=" ">
<polygon fill="white" stroke="#666666" points="145.75,-112 0,-112 0,-68 145.75,-68 145.75,-112"/>
<text text-anchor="start" x="8" y="-98.5" font-family="Helvetica,sans-Serif" font-size="10.00">AsyncFw::FunctionConnector</text>
<text text-anchor="start" x="8" y="-86.5" font-family="Helvetica,sans-Serif" font-size="10.00">&lt; int, const std::string</text>
<text text-anchor="middle" x="72.88" y="-74.5" font-family="Helvetica,sans-Serif" font-size="10.00"> &amp;, bool * &gt;</text>
</a>
</g>
</g>
<!-- Node2&#45;&gt;Node1 -->
<g id="edge1_Node000001_Node000002" class="edge">
<title>Node2&#45;&gt;Node1</title>
<g id="a_edge1_Node000001_Node000002"><a xlink:title=" ">
<path fill="none" stroke="#9a32cd" stroke-dasharray="5,2" d="M72.88,-56.57C72.88,-43.43 72.88,-29.28 72.88,-20.29"/>
<polygon fill="#9a32cd" stroke="#9a32cd" points="69.38,-56.17 72.88,-66.17 76.38,-56.17 69.38,-56.17"/>
</a>
</g>
<text text-anchor="middle" x="93.88" y="-40.5" font-family="Helvetica,sans-Serif" font-size="10.00" fill="grey"> incoming</text>
</g>
<!-- Node3 -->
<g id="Node000003" class="node">
<title>Node3</title>
<g id="a_Node000003"><a xlink:href="classAsyncFw_1_1AbstractFunctionConnector.html" target="_top" xlink:title="The AbstractFunctionConnector class provides the base functionality for FunctionConnector.">
<polygon fill="white" stroke="#666666" points="137.62,-273 0.12,-273 0.12,-241 137.62,-241 137.62,-273"/>
<text text-anchor="start" x="8.12" y="-259.5" font-family="Helvetica,sans-Serif" font-size="10.00">AsyncFw::AbstractFunction</text>
<text text-anchor="middle" x="68.88" y="-247.5" font-family="Helvetica,sans-Serif" font-size="10.00">Connector</text>
</a>
</g>
</g>
<!-- Node3&#45;&gt;Node2 -->
<g id="edge2_Node000002_Node000003" class="edge">
<title>Node3&#45;&gt;Node2</title>
<g id="a_edge2_Node000002_Node000003"><a xlink:title=" ">
<path fill="none" stroke="#63b8ff" d="M69.52,-229.47C70.31,-196.91 71.63,-142.35 72.36,-112.36"/>
<polygon fill="#63b8ff" stroke="#63b8ff" points="66.02,-229.18 69.28,-239.26 73.02,-229.35 66.02,-229.18"/>
</a>
</g>
</g>
<!-- Node4 -->
<g id="Node000004" class="node">
<title>Node4</title>
<g id="a_Node000004"><a xlink:href="classAsyncFw_1_1FunctionConnector.html" target="_top" xlink:title="Provides a sender&#45;to&#45;receivers connection. Receivers can be invoked in their own threads (default beh...">
<polygon fill="white" stroke="#666666" points="230.75,-204 85,-204 85,-172 230.75,-172 230.75,-204"/>
<text text-anchor="start" x="93" y="-190.5" font-family="Helvetica,sans-Serif" font-size="10.00">AsyncFw::FunctionConnector</text>
<text text-anchor="middle" x="157.88" y="-178.5" font-family="Helvetica,sans-Serif" font-size="10.00">&lt; Args &gt;</text>
</a>
</g>
</g>
<!-- Node3&#45;&gt;Node4 -->
<g id="edge4_Node000004_Node000003" class="edge">
<title>Node3&#45;&gt;Node4</title>
<g id="a_edge4_Node000004_Node000003"><a xlink:title=" ">
<path fill="none" stroke="#63b8ff" d="M98.04,-234.05C110.93,-224.34 125.77,-213.17 137.45,-204.38"/>
<polygon fill="#63b8ff" stroke="#63b8ff" points="96.16,-231.08 90.28,-239.89 100.37,-236.67 96.16,-231.08"/>
</a>
</g>
</g>
<!-- Node4&#45;&gt;Node2 -->
<g id="edge3_Node000002_Node000004" class="edge">
<title>Node4&#45;&gt;Node2</title>
<g id="a_edge3_Node000002_Node000004"><a xlink:title=" ">
<path fill="none" stroke="orange" stroke-dasharray="5,2" d="M136.65,-163.03C122.91,-147.51 105.16,-127.47 91.88,-112.47"/>
<polygon fill="orange" stroke="orange" points="133.97,-165.28 143.21,-170.44 139.21,-160.64 133.97,-165.28"/>
</a>
</g>
<text text-anchor="start" x="127.95" y="-144.5" font-family="Helvetica,sans-Serif" font-size="10.00" fill="grey"> &lt; int, const std::string</text>
<text text-anchor="middle" x="177.45" y="-132.5" font-family="Helvetica,sans-Serif" font-size="10.00" fill="grey"> &amp;, bool * &gt;</text>
</g>
</g>
</svg>
