<?xml version="1.0" encoding="UTF-8" standalone="no"?>
<!DOCTYPE svg PUBLIC "-//W3C//DTD SVG 1.1//EN"
 "http://www.w3.org/Graphics/SVG/1.1/DTD/svg11.dtd">
<!-- Generated by graphviz version 14.1.3 (20260303.0454)
 -->
<!-- Title: AsyncFw::DataArray::view Pages: 1 -->
<svg width="439pt" height="196pt"
 viewBox="0.00 0.00 439.00 196.00" xmlns="http://www.w3.org/2000/svg" xmlns:xlink="http://www.w3.org/1999/xlink">
<g id="graph0" class="graph" transform="scale(1 1) rotate(0) translate(4 192)">
<title>AsyncFw::DataArray::view</title>
<!-- Node1 -->
<g id="Node000001" class="node">
<title>Node1</title>
<g id="a_Node000001"><a xlink:title="Creates a lightweight, non&#45;allocating view slicing a sub&#45;region of this byte array.">
<polygon fill="#999999" stroke="#666666" points="431.25,-107 323.75,-107 323.75,-75 431.25,-75 431.25,-107"/>
<text xml:space="preserve" text-anchor="start" x="331.75" y="-93.5" font-family="Helvetica,sans-Serif" font-size="10.00">AsyncFw::DataArray</text>
<text xml:space="preserve" text-anchor="middle" x="377.5" y="-81.5" font-family="Helvetica,sans-Serif" font-size="10.00">::view</text>
</a>
</g>
</g>
<!-- Node2 -->
<g id="Node000002" class="node">
<title>Node2</title>
<g id="a_Node000002"><a xlink:href="classAsyncFw_1_1Cryptor.html#a85041f8d5b2a6c69be47a811039b2aec" target="_top" xlink:title="Type&#45;safely encrypts raw data payload into a secure ciphertext buffer.">
<polygon fill="white" stroke="#666666" points="287.75,-170 154,-170 154,-150 287.75,-150 287.75,-170"/>
<text xml:space="preserve" text-anchor="middle" x="220.88" y="-156.5" font-family="Helvetica,sans-Serif" font-size="10.00">AsyncFw::Cryptor::encrypt</text>
</a>
</g>
</g>
<!-- Node1&#45;&gt;Node2 -->
<g id="edge1_Node000001_Node000002" class="edge">
<title>Node1&#45;&gt;Node2</title>
<g id="a_edge1_Node000001_Node000002"><a xlink:title=" ">
<path fill="none" stroke="#63b8ff" d="M341.8,-113.03C325.79,-122.54 306.25,-133.24 287.75,-141 280.07,-144.22 271.66,-147.1 263.5,-149.59"/>
<polygon fill="#63b8ff" stroke="#63b8ff" points="343.24,-116.25 349.99,-108.08 339.62,-110.26 343.24,-116.25"/>
</a>
</g>
</g>
<!-- Node3 -->
<g id="Node000003" class="node">
<title>Node3</title>
<g id="a_Node000003"><a xlink:href="classAsyncFw_1_1TlsContext.html#a0d49f644e95fd8a232d8b20f00ba826b" target="_top" xlink:title="Parses a raw PEM&#45;formatted Certificate Signing Request (CSR) and decodes its payload properties.">
<polygon fill="white" stroke="#666666" points="276.5,-132 165.25,-132 165.25,-100 276.5,-100 276.5,-132"/>
<text xml:space="preserve" text-anchor="start" x="173.25" y="-118.5" font-family="Helvetica,sans-Serif" font-size="10.00">AsyncFw::TlsContext</text>
<text xml:space="preserve" text-anchor="middle" x="220.88" y="-106.5" font-family="Helvetica,sans-Serif" font-size="10.00">::infoRequest</text>
</a>
</g>
</g>
<!-- Node1&#45;&gt;Node3 -->
<g id="edge3_Node000001_Node000003" class="edge">
<title>Node1&#45;&gt;Node3</title>
<g id="a_edge3_Node000001_Node000003"><a xlink:title=" ">
<path fill="none" stroke="#63b8ff" d="M312.17,-101.4C300.4,-103.3 288.22,-105.27 276.76,-107.13"/>
<polygon fill="#63b8ff" stroke="#63b8ff" points="312.48,-104.9 321.79,-99.85 311.36,-97.99 312.48,-104.9"/>
</a>
</g>
</g>
<!-- Node4 -->
<g id="Node000004" class="node">
<title>Node4</title>
<g id="a_Node000004"><a xlink:href="classAsyncFw_1_1HttpSocket.html#a7163448458d68f433dbdb214a6175be3" target="_top" xlink:title="Called when there is data to read.">
<polygon fill="white" stroke="#666666" points="277.25,-82 164.5,-82 164.5,-50 277.25,-50 277.25,-82"/>
<text xml:space="preserve" text-anchor="start" x="172.5" y="-68.5" font-family="Helvetica,sans-Serif" font-size="10.00">AsyncFw::HttpSocket</text>
<text xml:space="preserve" text-anchor="middle" x="220.88" y="-56.5" font-family="Helvetica,sans-Serif" font-size="10.00">::readEvent</text>
</a>
</g>
</g>
<!-- Node1&#45;&gt;Node4 -->
<g id="edge4_Node000001_Node000004" class="edge">
<title>Node1&#45;&gt;Node4</title>
<g id="a_edge4_Node000001_Node000004"><a xlink:title=" ">
<path fill="none" stroke="#63b8ff" d="M312.01,-80.57C300.56,-78.72 288.73,-76.81 277.56,-75"/>
<polygon fill="#63b8ff" stroke="#63b8ff" points="311.36,-84.01 321.79,-82.15 312.48,-77.1 311.36,-84.01"/>
</a>
</g>
</g>
<!-- Node6 -->
<g id="Node000006" class="node">
<title>Node6</title>
<g id="a_Node000006"><a xlink:href="classAsyncFw_1_1HttpServer_1_1TcpSocket.html#a41557b69e30e25b97cbdda210afb7657" target="_top" xlink:title="Constructs a new TcpSocket associated with the parent server.">
<polygon fill="white" stroke="#666666" points="280.62,-32 161.12,-32 161.12,0 280.62,0 280.62,-32"/>
<text xml:space="preserve" text-anchor="start" x="169.12" y="-18.5" font-family="Helvetica,sans-Serif" font-size="10.00">AsyncFw::HttpServer</text>
<text xml:space="preserve" text-anchor="middle" x="220.88" y="-6.5" font-family="Helvetica,sans-Serif" font-size="10.00">::TcpSocket::TcpSocket</text>
</a>
</g>
</g>
<!-- Node1&#45;&gt;Node6 -->
<g id="edge6_Node000001_Node000006" class="edge">
<title>Node1&#45;&gt;Node6</title>
<g id="a_edge6_Node000001_Node000006"><a xlink:title=" ">
<path fill="none" stroke="#63b8ff" d="M339.98,-68.79C324.2,-59.63 305.36,-49.24 287.75,-41 281.44,-38.04 274.67,-35.16 267.96,-32.47"/>
<polygon fill="#63b8ff" stroke="#63b8ff" points="338.17,-71.78 348.56,-73.84 341.72,-65.75 338.17,-71.78"/>
</a>
</g>
</g>
<!-- Node2&#45;&gt;Node2 -->
<g id="edge2_Node000002_Node000002" class="edge">
<title>Node2&#45;&gt;Node2</title>
<g id="a_edge2_Node000002_Node000002"><a xlink:title=" ">
<path fill="none" stroke="#63b8ff" d="M248.56,-181.44C244.99,-185.3 235.76,-188 220.88,-188 193.65,-188 185.35,-178.98 195.99,-170.34"/>
<polygon fill="#63b8ff" stroke="#63b8ff" points="251.97,-180.65 246.13,-171.81 245.18,-182.36 251.97,-180.65"/>
</a>
</g>
</g>
<!-- Node5 -->
<g id="Node000005" class="node">
<title>Node5</title>
<g id="a_Node000005"><a xlink:href="classAsyncFw_1_1HttpServer_1_1TcpSocket.html#abb44001861ba7b24633b54ae90c2896c" target="_top" xlink:title="Triggered when new raw data is available in the socket for reading. &#160;&#160;Overrides the base behavior to ...">
<polygon fill="white" stroke="#666666" points="118,-82 0,-82 0,-50 118,-50 118,-82"/>
<text xml:space="preserve" text-anchor="start" x="8" y="-68.5" font-family="Helvetica,sans-Serif" font-size="10.00">AsyncFw::HttpServer</text>
<text xml:space="preserve" text-anchor="middle" x="59" y="-56.5" font-family="Helvetica,sans-Serif" font-size="10.00">::TcpSocket::readEvent</text>
</a>
</g>
</g>
<!-- Node4&#45;&gt;Node5 -->
<g id="edge5_Node000004_Node000005" class="edge">
<title>Node4&#45;&gt;Node5</title>
<g id="a_edge5_Node000004_Node000005"><a xlink:title=" ">
<path fill="none" stroke="#63b8ff" d="M153.05,-66C141.53,-66 129.64,-66 118.36,-66"/>
<polygon fill="#63b8ff" stroke="#63b8ff" points="152.89,-69.5 162.89,-66 152.89,-62.5 152.89,-69.5"/>
</a>
</g>
</g>
</g>
</svg>
