<?xml version="1.0" encoding="UTF-8" standalone="no"?>
<!DOCTYPE svg PUBLIC "-//W3C//DTD SVG 1.1//EN"
 "http://www.w3.org/Graphics/SVG/1.1/DTD/svg11.dtd">
<!-- Generated by graphviz version 14.1.3 (20260303.0454)
 -->
<!-- Title: AsyncFw::HttpServer::TcpSocket::TcpSocket Pages: 1 -->
<svg width="1127pt" height="251pt"
 viewBox="0.00 0.00 1127.00 251.00" xmlns="http://www.w3.org/2000/svg" xmlns:xlink="http://www.w3.org/1999/xlink">
<g id="graph0" class="graph" transform="scale(1 1) rotate(0) translate(4 247)">
<title>AsyncFw::HttpServer::TcpSocket::TcpSocket</title>
<!-- Node1 -->
<g id="Node000001" class="node">
<title>Node1</title>
<g id="a_Node000001"><a xlink:title="Constructs a new TcpSocket associated with the parent server.">
<polygon fill="#999999" stroke="#666666" points="119.5,-107 0,-107 0,-75 119.5,-75 119.5,-107"/>
<text xml:space="preserve" text-anchor="start" x="8" y="-93.5" font-family="Helvetica,sans-Serif" font-size="10.00">AsyncFw::HttpServer</text>
<text xml:space="preserve" text-anchor="middle" x="59.75" y="-81.5" font-family="Helvetica,sans-Serif" font-size="10.00">::TcpSocket::TcpSocket</text>
</a>
</g>
</g>
<!-- Node2 -->
<g id="Node000002" class="node">
<title>Node2</title>
<g id="a_Node000002"><a xlink:href="classAsyncFw_1_1HttpSocket.html#a8268467d3581a4d393e9ccd288de32ff" target="_top" xlink:title="Schedules the socket for deferred asynchronous destruction.">
<polygon fill="white" stroke="#666666" points="277.25,-182 164.5,-182 164.5,-150 277.25,-150 277.25,-182"/>
<text xml:space="preserve" text-anchor="start" x="172.5" y="-168.5" font-family="Helvetica,sans-Serif" font-size="10.00">AsyncFw::HttpSocket</text>
<text xml:space="preserve" text-anchor="middle" x="220.88" y="-156.5" font-family="Helvetica,sans-Serif" font-size="10.00">::destroy</text>
</a>
</g>
</g>
<!-- Node1&#45;&gt;Node2 -->
<g id="edge1_Node000001_Node000002" class="edge">
<title>Node1&#45;&gt;Node2</title>
<g id="a_edge1_Node000001_Node000002"><a xlink:title=" ">
<path fill="none" stroke="#63b8ff" d="M89.76,-107.43C108.3,-117.64 132.99,-130.73 155.5,-141 158.62,-142.42 161.84,-143.84 165.11,-145.23"/>
<polygon fill="#63b8ff" stroke="#63b8ff" points="163.64,-148.41 174.22,-149.01 166.32,-141.95 163.64,-148.41"/>
</a>
</g>
</g>
<!-- Node13 -->
<g id="Node000013" class="node">
<title>Node13</title>
<g id="a_Node000013"><a xlink:href="classAsyncFw_1_1AbstractSocket.html#ab05320fcb1c111e06a56587b4abbb639" target="_top" xlink:title="Return remote peer destination IP address string.">
<polygon fill="white" stroke="#666666" points="286.25,-132 155.5,-132 155.5,-100 286.25,-100 286.25,-132"/>
<text xml:space="preserve" text-anchor="start" x="163.5" y="-118.5" font-family="Helvetica,sans-Serif" font-size="10.00">AsyncFw::AbstractSocket</text>
<text xml:space="preserve" text-anchor="middle" x="220.88" y="-106.5" font-family="Helvetica,sans-Serif" font-size="10.00">::peerAddress</text>
</a>
</g>
</g>
<!-- Node1&#45;&gt;Node13 -->
<g id="edge14_Node000001_Node000013" class="edge">
<title>Node1&#45;&gt;Node13</title>
<g id="a_edge14_Node000001_Node000013"><a xlink:title=" ">
<path fill="none" stroke="#63b8ff" d="M119.55,-100.24C127.52,-101.49 135.8,-102.79 144.02,-104.08"/>
<polygon fill="#63b8ff" stroke="#63b8ff" points="143.24,-107.5 153.66,-105.6 144.33,-100.59 143.24,-107.5"/>
</a>
</g>
</g>
<!-- Node14 -->
<g id="Node000014" class="node">
<title>Node14</title>
<g id="a_Node000014"><a xlink:href="classAsyncFw_1_1AbstractSocket.html#aa91adbe0ea3297083d63e26531daa266" target="_top" xlink:title="Return local network port bound to this socket interface.">
<polygon fill="white" stroke="#666666" points="286.25,-82 155.5,-82 155.5,-50 286.25,-50 286.25,-82"/>
<text xml:space="preserve" text-anchor="start" x="163.5" y="-68.5" font-family="Helvetica,sans-Serif" font-size="10.00">AsyncFw::AbstractSocket</text>
<text xml:space="preserve" text-anchor="middle" x="220.88" y="-56.5" font-family="Helvetica,sans-Serif" font-size="10.00">::peerPort</text>
</a>
</g>
</g>
<!-- Node1&#45;&gt;Node14 -->
<g id="edge15_Node000001_Node000014" class="edge">
<title>Node1&#45;&gt;Node14</title>
<g id="a_edge15_Node000001_Node000014"><a xlink:title=" ">
<path fill="none" stroke="#63b8ff" d="M119.55,-81.76C127.52,-80.51 135.8,-79.21 144.02,-77.92"/>
<polygon fill="#63b8ff" stroke="#63b8ff" points="144.33,-81.41 153.66,-76.4 143.24,-74.5 144.33,-81.41"/>
</a>
</g>
</g>
<!-- Node15 -->
<g id="Node000015" class="node">
<title>Node15</title>
<g id="a_Node000015"><a xlink:href="classAsyncFw_1_1DataArray.html#a5406261e5730adfa64e4d0bbd0083e31" target="_top" xlink:title="Creates a lightweight, non&#45;allocating view slicing a sub&#45;region of this byte array.">
<polygon fill="white" stroke="#666666" points="274.62,-32 167.12,-32 167.12,0 274.62,0 274.62,-32"/>
<text xml:space="preserve" text-anchor="start" x="175.12" y="-18.5" font-family="Helvetica,sans-Serif" font-size="10.00">AsyncFw::DataArray</text>
<text xml:space="preserve" text-anchor="middle" x="220.88" y="-6.5" font-family="Helvetica,sans-Serif" font-size="10.00">::view</text>
</a>
</g>
</g>
<!-- Node1&#45;&gt;Node15 -->
<g id="edge16_Node000001_Node000015" class="edge">
<title>Node1&#45;&gt;Node15</title>
<g id="a_edge16_Node000001_Node000015"><a xlink:title=" ">
<path fill="none" stroke="#63b8ff" d="M89.76,-74.57C108.3,-64.36 132.99,-51.27 155.5,-41 158.62,-39.58 161.84,-38.16 165.11,-36.77"/>
<polygon fill="#63b8ff" stroke="#63b8ff" points="166.32,-40.05 174.22,-32.99 163.64,-33.59 166.32,-40.05"/>
</a>
</g>
</g>
<!-- Node3 -->
<g id="Node000003" class="node">
<title>Node3</title>
<g id="a_Node000003"><a xlink:href="classAsyncFw_1_1AbstractSocket.html#a73a200f0008dbf9f820bdb2b8a0054cf" target="_top" xlink:title="Schedules the socket for deferred asynchronous destruction.">
<polygon fill="white" stroke="#666666" points="453,-182 322.25,-182 322.25,-150 453,-150 453,-182"/>
<text xml:space="preserve" text-anchor="start" x="330.25" y="-168.5" font-family="Helvetica,sans-Serif" font-size="10.00">AsyncFw::AbstractSocket</text>
<text xml:space="preserve" text-anchor="middle" x="387.62" y="-156.5" font-family="Helvetica,sans-Serif" font-size="10.00">::destroy</text>
</a>
</g>
</g>
<!-- Node2&#45;&gt;Node3 -->
<g id="edge2_Node000002_Node000003" class="edge">
<title>Node2&#45;&gt;Node3</title>
<g id="a_edge2_Node000002_Node000003"><a xlink:title=" ">
<path fill="none" stroke="#63b8ff" d="M277.65,-166C288.18,-166 299.36,-166 310.4,-166"/>
<polygon fill="#63b8ff" stroke="#63b8ff" points="310.29,-169.5 320.29,-166 310.29,-162.5 310.29,-169.5"/>
</a>
</g>
</g>
<!-- Node4 -->
<g id="Node000004" class="node">
<title>Node4</title>
<g id="a_Node000004"><a xlink:href="classAsyncFw_1_1AbstractSocket.html#a77c0a9ea7c5061c406673bbe8b18d60d" target="_top" xlink:title="Closes the network connection and unsubscribes from thread polling events.">
<polygon fill="white" stroke="#666666" points="619.75,-234 489,-234 489,-202 619.75,-202 619.75,-234"/>
<text xml:space="preserve" text-anchor="start" x="497" y="-220.5" font-family="Helvetica,sans-Serif" font-size="10.00">AsyncFw::AbstractSocket</text>
<text xml:space="preserve" text-anchor="middle" x="554.38" y="-208.5" font-family="Helvetica,sans-Serif" font-size="10.00">::close</text>
</a>
</g>
</g>
<!-- Node3&#45;&gt;Node4 -->
<g id="edge3_Node000003_Node000004" class="edge">
<title>Node3&#45;&gt;Node4</title>
<g id="a_edge3_Node000003_Node000004"><a xlink:title=" ">
<path fill="none" stroke="#63b8ff" d="M440.75,-182.45C456.61,-187.46 474.19,-193.01 490.67,-198.21"/>
<polygon fill="#63b8ff" stroke="#63b8ff" points="489.27,-201.44 499.86,-201.11 491.38,-194.76 489.27,-201.44"/>
</a>
</g>
</g>
<!-- Node6 -->
<g id="Node000006" class="node">
<title>Node6</title>
<g id="a_Node000006"><a xlink:href="classAsyncFw_1_1Thread.html#a0a3bd6a54db28f73ff59cfea6a40b07a" target="_top" xlink:title="Returns a pointer to the AsyncFw::Thread that manages the currently executing thread.">
<polygon fill="white" stroke="#666666" points="619,-176 489.75,-176 489.75,-156 619,-156 619,-176"/>
<text xml:space="preserve" text-anchor="middle" x="554.38" y="-162.5" font-family="Helvetica,sans-Serif" font-size="10.00">AsyncFw::Thread::current</text>
</a>
</g>
</g>
<!-- Node3&#45;&gt;Node6 -->
<g id="edge5_Node000003_Node000006" class="edge">
<title>Node3&#45;&gt;Node6</title>
<g id="a_edge5_Node000003_Node000006"><a xlink:title=" ">
<path fill="none" stroke="#63b8ff" d="M453.27,-166C461.45,-166 469.87,-166 478.2,-166"/>
<polygon fill="#63b8ff" stroke="#63b8ff" points="477.95,-169.5 487.95,-166 477.95,-162.5 477.95,-169.5"/>
</a>
</g>
</g>
<!-- Node11 -->
<g id="Node000011" class="node">
<title>Node11</title>
<g id="a_Node000011"><a xlink:href="classAsyncFw_1_1AbstractThread.html#a786474d037b50053f1a97af7b67e6069" target="_top" xlink:title="Runs a function in a managed thread.">
<polygon fill="white" stroke="#666666" points="619.38,-127 489.38,-127 489.38,-95 619.38,-95 619.38,-127"/>
<text xml:space="preserve" text-anchor="start" x="497.38" y="-113.5" font-family="Helvetica,sans-Serif" font-size="10.00">AsyncFw::AbstractThread</text>
<text xml:space="preserve" text-anchor="middle" x="554.38" y="-101.5" font-family="Helvetica,sans-Serif" font-size="10.00">::invoke</text>
</a>
</g>
</g>
<!-- Node3&#45;&gt;Node11 -->
<g id="edge12_Node000003_Node000011" class="edge">
<title>Node3&#45;&gt;Node11</title>
<g id="a_edge12_Node000003_Node000011"><a xlink:title=" ">
<path fill="none" stroke="#63b8ff" d="M437.61,-149.65C455.05,-143.82 474.9,-137.2 493.17,-131.1"/>
<polygon fill="#63b8ff" stroke="#63b8ff" points="494.2,-134.45 502.57,-127.96 491.98,-127.81 494.2,-134.45"/>
</a>
</g>
</g>
<!-- Node5 -->
<g id="Node000005" class="node">
<title>Node5</title>
<g id="a_Node000005"><a xlink:href="classAsyncFw_1_1AbstractSocket.html#a5db12267a6d2241e81f570463f2d7ef5" target="_top" xlink:title="Called when the connection state changes.">
<polygon fill="white" stroke="#666666" points="786.5,-243 655.75,-243 655.75,-211 786.5,-211 786.5,-243"/>
<text xml:space="preserve" text-anchor="start" x="663.75" y="-229.5" font-family="Helvetica,sans-Serif" font-size="10.00">AsyncFw::AbstractSocket</text>
<text xml:space="preserve" text-anchor="middle" x="721.12" y="-217.5" font-family="Helvetica,sans-Serif" font-size="10.00">::stateEvent</text>
</a>
</g>
</g>
<!-- Node4&#45;&gt;Node5 -->
<g id="edge4_Node000004_Node000005" class="edge">
<title>Node4&#45;&gt;Node5</title>
<g id="a_edge4_Node000004_Node000005"><a xlink:title=" ">
<path fill="none" stroke="#63b8ff" d="M620.02,-221.53C627.92,-221.96 636.05,-222.41 644.1,-222.85"/>
<polygon fill="#63b8ff" stroke="#63b8ff" points="643.71,-226.33 653.89,-223.38 644.09,-219.34 643.71,-226.33"/>
</a>
</g>
</g>
<!-- Node7 -->
<g id="Node000007" class="node">
<title>Node7</title>
<g id="a_Node000007"><a xlink:href="classAsyncFw_1_1AbstractThread.html#af33c5949edb374d673a7a9ac0c81ec32" target="_top" xlink:title="Returns a pointer to the AsyncFw::AbstractThread that manages the currently executing thread.">
<polygon fill="white" stroke="#666666" points="786.12,-193 656.12,-193 656.12,-161 786.12,-161 786.12,-193"/>
<text xml:space="preserve" text-anchor="start" x="664.12" y="-179.5" font-family="Helvetica,sans-Serif" font-size="10.00">AsyncFw::AbstractThread</text>
<text xml:space="preserve" text-anchor="middle" x="721.12" y="-167.5" font-family="Helvetica,sans-Serif" font-size="10.00">::current</text>
</a>
</g>
</g>
<!-- Node6&#45;&gt;Node7 -->
<g id="edge6_Node000006_Node000007" class="edge">
<title>Node6&#45;&gt;Node7</title>
<g id="a_edge6_Node000006_Node000007"><a xlink:title=" ">
<path fill="none" stroke="#63b8ff" d="M619.07,-170.25C627.35,-170.81 635.9,-171.38 644.35,-171.94"/>
<polygon fill="#63b8ff" stroke="#63b8ff" points="644.06,-175.43 654.27,-172.6 644.53,-168.44 644.06,-175.43"/>
</a>
</g>
</g>
<!-- Node10 -->
<g id="Node000010" class="node">
<title>Node10</title>
<g id="a_Node000010"><a xlink:href="classAsyncFw_1_1Thread.html#afc5e422090767dd84020381fb9a4d490" target="_top" xlink:title="Constructs a thread.">
<polygon fill="white" stroke="#666666" points="785.75,-143 656.5,-143 656.5,-123 785.75,-123 785.75,-143"/>
<text xml:space="preserve" text-anchor="middle" x="721.12" y="-129.5" font-family="Helvetica,sans-Serif" font-size="10.00">AsyncFw::Thread::Thread</text>
</a>
</g>
</g>
<!-- Node6&#45;&gt;Node10 -->
<g id="edge9_Node000006_Node000010" class="edge">
<title>Node6&#45;&gt;Node10</title>
<g id="a_edge9_Node000006_Node000010"><a xlink:title=" ">
<path fill="none" stroke="#63b8ff" d="M607.5,-155.56C623.13,-152.43 640.44,-148.96 656.71,-145.7"/>
<polygon fill="#63b8ff" stroke="#63b8ff" points="657.17,-149.18 666.29,-143.78 655.79,-142.32 657.17,-149.18"/>
</a>
</g>
</g>
<!-- Node8 -->
<g id="Node000008" class="node">
<title>Node8</title>
<g id="a_Node000008"><a xlink:href="classAsyncFw_1_1AbstractThread.html#a8c9202c90ac101522f26c4260cb01b59" target="_top" xlink:title="Constructs a thread.">
<polygon fill="white" stroke="#666666" points="952.5,-193 822.5,-193 822.5,-161 952.5,-161 952.5,-193"/>
<text xml:space="preserve" text-anchor="start" x="830.5" y="-179.5" font-family="Helvetica,sans-Serif" font-size="10.00">AsyncFw::AbstractThread</text>
<text xml:space="preserve" text-anchor="middle" x="887.5" y="-167.5" font-family="Helvetica,sans-Serif" font-size="10.00">::AbstractThread</text>
</a>
</g>
</g>
<!-- Node7&#45;&gt;Node8 -->
<g id="edge7_Node000007_Node000008" class="edge">
<title>Node7&#45;&gt;Node8</title>
<g id="a_edge7_Node000007_Node000008"><a xlink:title=" ">
<path fill="none" stroke="#63b8ff" d="M786.62,-177C794.57,-177 802.74,-177 810.84,-177"/>
<polygon fill="#63b8ff" stroke="#63b8ff" points="810.68,-180.5 820.68,-177 810.68,-173.5 810.68,-180.5"/>
</a>
</g>
</g>
<!-- Node9 -->
<g id="Node000009" class="node">
<title>Node9</title>
<g id="a_Node000009"><a xlink:href="classAsyncFw_1_1AbstractThread.html#a0cd916251e061aaf3d456575ef052edd" target="_top" xlink:title="Returns name of managed thread.">
<polygon fill="white" stroke="#666666" points="1118.5,-171 988.5,-171 988.5,-139 1118.5,-139 1118.5,-171"/>
<text xml:space="preserve" text-anchor="start" x="996.5" y="-157.5" font-family="Helvetica,sans-Serif" font-size="10.00">AsyncFw::AbstractThread</text>
<text xml:space="preserve" text-anchor="middle" x="1053.5" y="-145.5" font-family="Helvetica,sans-Serif" font-size="10.00">::name</text>
</a>
</g>
</g>
<!-- Node8&#45;&gt;Node9 -->
<g id="edge8_Node000008_Node000009" class="edge">
<title>Node8&#45;&gt;Node9</title>
<g id="a_edge8_Node000008_Node000009"><a xlink:title=" ">
<path fill="none" stroke="#63b8ff" d="M952.85,-168.37C960.71,-167.31 968.81,-166.23 976.83,-165.15"/>
<polygon fill="#63b8ff" stroke="#63b8ff" points="977.12,-168.64 986.57,-163.84 976.19,-161.71 977.12,-168.64"/>
</a>
</g>
</g>
<!-- Node10&#45;&gt;Node8 -->
<g id="edge10_Node000010_Node000008" class="edge">
<title>Node10&#45;&gt;Node8</title>
<g id="a_edge10_Node000010_Node000008"><a xlink:title=" ">
<path fill="none" stroke="#63b8ff" d="M761.08,-143.43C776.96,-147.68 795.84,-152.73 814.08,-157.61"/>
<polygon fill="#63b8ff" stroke="#63b8ff" points="812.99,-160.94 823.55,-160.15 814.8,-154.18 812.99,-160.94"/>
</a>
</g>
</g>
<!-- Node10&#45;&gt;Node9 -->
<g id="edge11_Node000010_Node000009" class="edge">
<title>Node10&#45;&gt;Node9</title>
<g id="a_edge11_Node000010_Node000009"><a xlink:title=" ">
<path fill="none" stroke="#63b8ff" d="M786.22,-137.27C840.75,-140.9 919.17,-146.12 976.79,-149.96"/>
<polygon fill="#63b8ff" stroke="#63b8ff" points="976.3,-153.43 986.51,-150.61 976.77,-146.45 976.3,-153.43"/>
</a>
</g>
</g>
<!-- Node12 -->
<g id="Node000012" class="node">
<title>Node12</title>
<g id="a_Node000012"><a xlink:href="classAsyncFw_1_1AbstractThread.html#abe96e6b2a1de041f0d25390a6b77e50a" target="_top" xlink:title="Runs a task in a managed thread.">
<polygon fill="white" stroke="#666666" points="786.12,-105 656.12,-105 656.12,-73 786.12,-73 786.12,-105"/>
<text xml:space="preserve" text-anchor="start" x="664.12" y="-91.5" font-family="Helvetica,sans-Serif" font-size="10.00">AsyncFw::AbstractThread</text>
<text xml:space="preserve" text-anchor="middle" x="721.12" y="-79.5" font-family="Helvetica,sans-Serif" font-size="10.00">::invokeTask</text>
</a>
</g>
</g>
<!-- Node11&#45;&gt;Node12 -->
<g id="edge13_Node000011_Node000012" class="edge">
<title>Node11&#45;&gt;Node12</title>
<g id="a_edge13_Node000011_Node000012"><a xlink:title=" ">
<path fill="none" stroke="#63b8ff" d="M619.54,-102.43C627.74,-101.34 636.2,-100.21 644.55,-99.09"/>
<polygon fill="#63b8ff" stroke="#63b8ff" points="644.91,-102.57 654.36,-97.78 643.99,-95.64 644.91,-102.57"/>
</a>
</g>
</g>
</g>
</svg>
