<?xml version="1.0" encoding="UTF-8" standalone="no"?>
<!DOCTYPE svg PUBLIC "-//W3C//DTD SVG 1.1//EN"
 "http://www.w3.org/Graphics/SVG/1.1/DTD/svg11.dtd">
<!-- Generated by graphviz version 14.1.3 (20260303.0454)
 -->
<!-- Title: AsyncFw::DataArraySocket::readEvent Pages: 1 -->
<svg width="321pt" height="158pt"
 viewBox="0.00 0.00 321.00 158.00" xmlns="http://www.w3.org/2000/svg" xmlns:xlink="http://www.w3.org/1999/xlink">
<g id="graph0" class="graph" transform="scale(1 1) rotate(0) translate(4 154)">
<title>AsyncFw::DataArraySocket::readEvent</title>
<!-- Node1 -->
<g id="Node000001" class="node">
<title>Node1</title>
<g id="a_Node000001"><a xlink:title="Called when there is data to read.">
<polygon fill="#999999" stroke="#666666" points="138.25,-100 0,-100 0,-68 138.25,-68 138.25,-100"/>
<text xml:space="preserve" text-anchor="start" x="8" y="-86.5" font-family="Helvetica,sans-Serif" font-size="10.00">AsyncFw::DataArraySocket</text>
<text xml:space="preserve" text-anchor="middle" x="69.12" y="-74.5" font-family="Helvetica,sans-Serif" font-size="10.00">::readEvent</text>
</a>
</g>
</g>
<!-- Node2 -->
<g id="Node000002" class="node">
<title>Node2</title>
<g id="a_Node000002"><a xlink:href="classAsyncFw_1_1DataArraySocket.html#a9942cbf100e7898ba95c8fb92e059ae8" target="_top" xlink:title="Disconnects the socket from the remote peer.">
<polygon fill="white" stroke="#666666" points="312.5,-150 174.25,-150 174.25,-118 312.5,-118 312.5,-150"/>
<text xml:space="preserve" text-anchor="start" x="182.25" y="-136.5" font-family="Helvetica,sans-Serif" font-size="10.00">AsyncFw::DataArraySocket</text>
<text xml:space="preserve" text-anchor="middle" x="243.38" y="-124.5" font-family="Helvetica,sans-Serif" font-size="10.00">::disconnect</text>
</a>
</g>
</g>
<!-- Node1&#45;&gt;Node2 -->
<g id="edge1_Node000001_Node000002" class="edge">
<title>Node1&#45;&gt;Node2</title>
<g id="a_edge1_Node000001_Node000002"><a xlink:title=" ">
<path fill="none" stroke="#63b8ff" d="M126.53,-100.37C141.91,-104.84 158.74,-109.72 174.68,-114.35"/>
<polygon fill="#63b8ff" stroke="#63b8ff" points="173.52,-117.66 184.1,-117.08 175.47,-110.93 173.52,-117.66"/>
</a>
</g>
</g>
<!-- Node3 -->
<g id="Node000003" class="node">
<title>Node3</title>
<g id="a_Node000003"><a xlink:href="classAsyncFw_1_1AbstractSocket.html#a75415b9f0ecc82b703e49ad8abf1f3a8" target="_top" xlink:title="Returns the number of bytes of data pending to be read.">
<polygon fill="white" stroke="#666666" points="308.75,-100 178,-100 178,-68 308.75,-68 308.75,-100"/>
<text xml:space="preserve" text-anchor="start" x="186" y="-86.5" font-family="Helvetica,sans-Serif" font-size="10.00">AsyncFw::AbstractSocket</text>
<text xml:space="preserve" text-anchor="middle" x="243.38" y="-74.5" font-family="Helvetica,sans-Serif" font-size="10.00">::pendingRead</text>
</a>
</g>
</g>
<!-- Node1&#45;&gt;Node3 -->
<g id="edge2_Node000001_Node000003" class="edge">
<title>Node1&#45;&gt;Node3</title>
<g id="a_edge2_Node000001_Node000003"><a xlink:title=" ">
<path fill="none" stroke="#63b8ff" d="M138.7,-84C147.74,-84 157.04,-84 166.2,-84"/>
<polygon fill="#63b8ff" stroke="#63b8ff" points="166.17,-87.5 176.17,-84 166.17,-80.5 166.17,-87.5"/>
</a>
</g>
</g>
<!-- Node4 -->
<g id="Node000004" class="node">
<title>Node4</title>
<g id="a_Node000004"><a xlink:href="classAsyncFw_1_1DataArraySocket.html#a60d24e73561b9ffc720deefca7a6f720" target="_top" xlink:title="Forces the transmission of a keep&#45;alive request (ping) to the remote peer.">
<polygon fill="white" stroke="#666666" points="312.5,-32 174.25,-32 174.25,0 312.5,0 312.5,-32"/>
<text xml:space="preserve" text-anchor="start" x="182.25" y="-18.5" font-family="Helvetica,sans-Serif" font-size="10.00">AsyncFw::DataArraySocket</text>
<text xml:space="preserve" text-anchor="middle" x="243.38" y="-6.5" font-family="Helvetica,sans-Serif" font-size="10.00">::sendKeepAlive</text>
</a>
</g>
</g>
<!-- Node1&#45;&gt;Node4 -->
<g id="edge3_Node000001_Node000004" class="edge">
<title>Node1&#45;&gt;Node4</title>
<g id="a_edge3_Node000001_Node000004"><a xlink:title=" ">
<path fill="none" stroke="#63b8ff" d="M111.82,-67.54C135.43,-58.22 165.18,-46.48 190.31,-36.56"/>
<polygon fill="#63b8ff" stroke="#63b8ff" points="191.34,-39.91 199.36,-32.98 188.77,-33.4 191.34,-39.91"/>
</a>
</g>
</g>
<!-- Node4&#45;&gt;Node4 -->
<g id="edge4_Node000004_Node000004" class="edge">
<title>Node4&#45;&gt;Node4</title>
<g id="a_edge4_Node000004_Node000004"><a xlink:title=" ">
<path fill="none" stroke="#63b8ff" d="M212.27,-32.44C206.46,-41.58 216.83,-50 243.38,-50 257.89,-50 267.57,-47.48 272.41,-43.71"/>
<polygon fill="#63b8ff" stroke="#63b8ff" points="275.84,-44.4 274.21,-33.93 268.96,-43.13 275.84,-44.4"/>
</a>
</g>
</g>
</g>
</svg>
