<?xml version="1.0" encoding="UTF-8" standalone="no"?>
<!DOCTYPE svg PUBLIC "-//W3C//DTD SVG 1.1//EN"
 "http://www.w3.org/Graphics/SVG/1.1/DTD/svg11.dtd">
<!-- Generated by graphviz version 12.2.1 (20241206.2353)
 -->
<!-- Title: AsyncFw::ListenSocket Pages: 1 -->
<svg width="1150pt" height="127pt"
 viewBox="0.00 0.00 1149.75 127.32" xmlns="http://www.w3.org/2000/svg" xmlns:xlink="http://www.w3.org/1999/xlink">
<g id="graph0" class="graph" transform="scale(1 1) rotate(0) translate(4 123.32)">
<title>AsyncFw::ListenSocket</title>
<!-- Node1 -->
<g id="Node000001" class="node">
<title>Node1</title>
<g id="a_Node000001"><a xlink:title="The ListenSocket class.">
<polygon fill="#999999" stroke="#666666" points="1141.75,-43 1021.5,-43 1021.5,-23 1141.75,-23 1141.75,-43"/>
<text text-anchor="middle" x="1081.62" y="-29.5" font-family="Helvetica,sans-Serif" font-size="10.00">AsyncFw::ListenSocket</text>
</a>
</g>
</g>
<!-- Node2 -->
<g id="Node000002" class="node">
<title>Node2</title>
<g id="a_Node000002"><a xlink:href="classAsyncFw_1_1AbstractSocket.html" target="_top" xlink:title="The AbstractSocket class provides the base functionality for socket.">
<polygon fill="white" stroke="#666666" points="984.5,-66 853.75,-66 853.75,-46 984.5,-46 984.5,-66"/>
<text text-anchor="middle" x="919.12" y="-52.5" font-family="Helvetica,sans-Serif" font-size="10.00">AsyncFw::AbstractSocket</text>
</a>
</g>
</g>
<!-- Node2&#45;&gt;Node1 -->
<g id="edge1_Node000001_Node000002" class="edge">
<title>Node2&#45;&gt;Node1</title>
<g id="a_edge1_Node000001_Node000002"><a xlink:title=" ">
<path fill="none" stroke="#8b1a1a" d="M996.22,-45.1C1004.55,-43.9 1012.93,-42.7 1021.01,-41.54"/>
<polygon fill="#8b1a1a" stroke="#8b1a1a" points="995.84,-41.61 986.44,-46.5 996.84,-48.54 995.84,-41.61"/>
</a>
</g>
</g>
<!-- Node3 -->
<g id="Node000003" class="node">
<title>Node3</title>
<g id="a_Node000003"><a xlink:href="structAsyncFw_1_1AnyData.html" target="_top" xlink:title="The AnyData class.">
<polygon fill="white" stroke="#666666" points="775.75,-104 674.25,-104 674.25,-84 775.75,-84 775.75,-104"/>
<text text-anchor="middle" x="725" y="-90.5" font-family="Helvetica,sans-Serif" font-size="10.00">AsyncFw::AnyData</text>
</a>
</g>
</g>
<!-- Node3&#45;&gt;Node2 -->
<g id="edge2_Node000002_Node000003" class="edge">
<title>Node3&#45;&gt;Node2</title>
<g id="a_edge2_Node000002_Node000003"><a xlink:title=" ">
<path fill="none" stroke="#63b8ff" d="M787.44,-81.85C812.46,-76.9 841.09,-71.24 865.17,-66.47"/>
<polygon fill="#63b8ff" stroke="#63b8ff" points="786.84,-78.4 777.71,-83.77 788.2,-85.27 786.84,-78.4"/>
</a>
</g>
</g>
<!-- Node4 -->
<g id="Node000004" class="node">
<title>Node4</title>
<g id="a_Node000004"><a xlink:href="classAsyncFw_1_1Thread.html" target="_top" xlink:title="AsyncFw::Thread thread with sockets.">
<polygon fill="white" stroke="#666666" points="771.62,-66 678.38,-66 678.38,-46 771.62,-46 771.62,-66"/>
<text text-anchor="middle" x="725" y="-52.5" font-family="Helvetica,sans-Serif" font-size="10.00">AsyncFw::Thread</text>
</a>
</g>
</g>
<!-- Node4&#45;&gt;Node2 -->
<g id="edge3_Node000002_Node000004" class="edge">
<title>Node4&#45;&gt;Node2</title>
<g id="a_edge3_Node000002_Node000004"><a xlink:title=" ">
<path fill="none" stroke="#9a32cd" stroke-dasharray="5,2" d="M783.26,-56C805.39,-56 830.82,-56 853.59,-56"/>
<polygon fill="#9a32cd" stroke="#9a32cd" points="783.53,-52.5 773.53,-56 783.53,-59.5 783.53,-52.5"/>
</a>
</g>
<text text-anchor="middle" x="814.75" y="-58.5" font-family="Helvetica,sans-Serif" font-size="10.00" fill="grey"> thread_</text>
</g>
<!-- Node5 -->
<g id="Node000005" class="node">
<title>Node5</title>
<g id="a_Node000005"><a xlink:href="classAsyncFw_1_1AbstractThread.html" target="_top" xlink:title="The AbstractThread class provides the base functionality for thread management.">
<polygon fill="white" stroke="#666666" points="447.5,-117 317.5,-117 317.5,-97 447.5,-97 447.5,-117"/>
<text text-anchor="middle" x="382.5" y="-103.5" font-family="Helvetica,sans-Serif" font-size="10.00">AsyncFw::AbstractThread</text>
</a>
</g>
</g>
<!-- Node5&#45;&gt;Node4 -->
<g id="edge4_Node000004_Node000005" class="edge">
<title>Node5&#45;&gt;Node4</title>
<g id="a_edge4_Node000004_Node000005"><a xlink:title=" ">
<path fill="none" stroke="#63b8ff" d="M459.36,-117.29C516.04,-121.69 594.13,-120.62 656.25,-93 666.59,-88.4 664.76,-81.15 674.25,-75 679.29,-71.73 684.98,-68.9 690.66,-66.49"/>
<polygon fill="#63b8ff" stroke="#63b8ff" points="459.73,-113.81 449.46,-116.44 459.13,-120.78 459.73,-113.81"/>
</a>
</g>
</g>
<!-- Node6 -->
<g id="Node000006" class="node">
<title>Node6</title>
<g id="a_Node000006"><a xlink:href="classAsyncFw_1_1FunctionConnectorProtected.html" target="_top" xlink:title=" ">
<polygon fill="white" stroke="#666666" points="458.75,-74 306.25,-74 306.25,-42 458.75,-42 458.75,-74"/>
<text text-anchor="start" x="314.25" y="-60.5" font-family="Helvetica,sans-Serif" font-size="10.00">AsyncFw::FunctionConnector</text>
<text text-anchor="middle" x="382.5" y="-48.5" font-family="Helvetica,sans-Serif" font-size="10.00">Protected&lt; AsyncFw::Thread &gt;</text>
</a>
</g>
</g>
<!-- Node6&#45;&gt;Node4 -->
<g id="edge5_Node000004_Node000006" class="edge">
<title>Node6&#45;&gt;Node4</title>
<g id="a_edge5_Node000004_Node000006"><a xlink:title=" ">
<path fill="none" stroke="#9a32cd" stroke-dasharray="5,2" d="M470.48,-57.05C472.59,-57.03 474.68,-57.02 476.75,-57 546.93,-56.48 628.32,-56.22 677.97,-56.09"/>
<polygon fill="#9a32cd" stroke="#9a32cd" points="470.56,-53.55 460.59,-57.13 470.62,-60.55 470.56,-53.55"/>
</a>
</g>
<text text-anchor="middle" x="566.5" y="-83.5" font-family="Helvetica,sans-Serif" font-size="10.00" fill="grey"> destroing</text>
<text text-anchor="middle" x="566.5" y="-71.5" font-family="Helvetica,sans-Serif" font-size="10.00" fill="grey">finished</text>
<text text-anchor="middle" x="566.5" y="-59.5" font-family="Helvetica,sans-Serif" font-size="10.00" fill="grey">started</text>
</g>
<!-- Node7 -->
<g id="Node000007" class="node">
<title>Node7</title>
<g id="a_Node000007"><a xlink:href="classAsyncFw_1_1FunctionConnectorProtected.html" target="_top" xlink:title="Защищенный коннетор, отправитель может быть только один. &#160;&#160;Обеспечивает соединение отправитель &#45;&gt; пол...">
<polygon fill="white" stroke="#666666" points="145.75,-47 0,-47 0,-15 145.75,-15 145.75,-47"/>
<text text-anchor="start" x="8" y="-33.5" font-family="Helvetica,sans-Serif" font-size="10.00">AsyncFw::FunctionConnector</text>
<text text-anchor="middle" x="72.88" y="-21.5" font-family="Helvetica,sans-Serif" font-size="10.00">Protected&lt; F &gt;</text>
</a>
</g>
</g>
<!-- Node7&#45;&gt;Node6 -->
<g id="edge6_Node000006_Node000007" class="edge">
<title>Node7&#45;&gt;Node6</title>
<g id="a_edge6_Node000006_Node000007"><a xlink:title=" ">
<path fill="none" stroke="orange" stroke-dasharray="5,2" d="M157.22,-38.32C203.55,-42.38 260.76,-47.4 305.81,-51.36"/>
<polygon fill="orange" stroke="orange" points="157.77,-34.85 147.51,-37.46 157.16,-41.82 157.77,-34.85"/>
</a>
</g>
<text text-anchor="middle" x="226" y="-51.77" font-family="Helvetica,sans-Serif" font-size="10.00" fill="grey"> &lt; AsyncFw::Thread &gt;</text>
</g>
<!-- Node8 -->
<g id="Node000008" class="node">
<title>Node8</title>
<g id="a_Node000008"><a xlink:href="classAsyncFw_1_1FunctionConnectorProtected.html" target="_top" xlink:title=" ">
<polygon fill="white" stroke="#666666" points="656.25,-32 476.75,-32 476.75,0 656.25,0 656.25,-32"/>
<text text-anchor="start" x="484.75" y="-18.5" font-family="Helvetica,sans-Serif" font-size="10.00">AsyncFw::FunctionConnector</text>
<text text-anchor="middle" x="566.5" y="-6.5" font-family="Helvetica,sans-Serif" font-size="10.00">Protected&lt; AsyncFw::ListenSocket &gt;</text>
</a>
</g>
</g>
<!-- Node7&#45;&gt;Node8 -->
<g id="edge8_Node000008_Node000007" class="edge">
<title>Node7&#45;&gt;Node8</title>
<g id="a_edge8_Node000008_Node000007"><a xlink:title=" ">
<path fill="none" stroke="orange" stroke-dasharray="5,2" d="M157.44,-23.36C159.56,-23.23 161.67,-23.11 163.75,-23 271.2,-17.29 395.02,-15.92 476.48,-15.73"/>
<polygon fill="orange" stroke="orange" points="157.21,-19.87 147.46,-24.03 157.67,-26.85 157.21,-19.87"/>
</a>
</g>
<text text-anchor="middle" x="226" y="-25.5" font-family="Helvetica,sans-Serif" font-size="10.00" fill="grey"> &lt; AsyncFw::ListenSocket &gt;</text>
</g>
<!-- Node8&#45;&gt;Node1 -->
<g id="edge7_Node000001_Node000008" class="edge">
<title>Node8&#45;&gt;Node1</title>
<g id="a_edge7_Node000001_Node000008"><a xlink:title=" ">
<path fill="none" stroke="#9a32cd" stroke-dasharray="5,2" d="M667.84,-19.32C772.92,-22.81 934.46,-28.16 1021,-31.02"/>
<polygon fill="#9a32cd" stroke="#9a32cd" points="668.21,-15.83 658.1,-19 667.98,-22.83 668.21,-15.83"/>
</a>
</g>
<text text-anchor="middle" x="814.75" y="-27.23" font-family="Helvetica,sans-Serif" font-size="10.00" fill="grey"> incoming</text>
</g>
</g>
</svg>
