<?xml version="1.0" encoding="UTF-8" standalone="no"?>
<!DOCTYPE svg PUBLIC "-//W3C//DTD SVG 1.1//EN"
 "http://www.w3.org/Graphics/SVG/1.1/DTD/svg11.dtd">
<!-- Generated by graphviz version 14.1.3 (20260303.0454)
 -->
<!-- Title: AsyncFw::HttpServer::TcpSocket Pages: 1 -->
<svg width="152pt" height="264pt"
 viewBox="0.00 0.00 152.00 264.00" xmlns="http://www.w3.org/2000/svg" xmlns:xlink="http://www.w3.org/1999/xlink">
<g id="graph0" class="graph" transform="scale(1 1) rotate(0) translate(4 260)">
<title>AsyncFw::HttpServer::TcpSocket</title>
<!-- Node1 -->
<g id="Node000001" class="node">
<title>Node1</title>
<g id="a_Node000001"><a xlink:title=" ">
<polygon fill="#999999" stroke="#666666" points="127.38,-32 16.88,-32 16.88,0 127.38,0 127.38,-32"/>
<text xml:space="preserve" text-anchor="start" x="24.88" y="-18.5" font-family="Helvetica,sans-Serif" font-size="10.00">AsyncFw::HttpServer</text>
<text xml:space="preserve" text-anchor="middle" x="72.12" y="-6.5" font-family="Helvetica,sans-Serif" font-size="10.00">::TcpSocket</text>
</a>
</g>
</g>
<!-- Node2 -->
<g id="Node000002" class="node">
<title>Node2</title>
<g id="a_Node000002"><a xlink:href="classAsyncFw_1_1HttpSocket.html" target="_top" xlink:title="The HttpSocket class.">
<polygon fill="white" stroke="#666666" points="128.5,-88 15.75,-88 15.75,-68 128.5,-68 128.5,-88"/>
<text xml:space="preserve" text-anchor="middle" x="72.12" y="-74.5" font-family="Helvetica,sans-Serif" font-size="10.00">AsyncFw::HttpSocket</text>
</a>
</g>
</g>
<!-- Node2&#45;&gt;Node1 -->
<g id="edge1_Node000001_Node000002" class="edge">
<title>Node2&#45;&gt;Node1</title>
<g id="a_edge1_Node000001_Node000002"><a xlink:title=" ">
<path fill="none" stroke="#63b8ff" d="M72.12,-56.31C72.12,-48.37 72.12,-39.46 72.12,-32.14"/>
<polygon fill="#63b8ff" stroke="#63b8ff" points="68.63,-56.11 72.13,-66.11 75.63,-56.11 68.63,-56.11"/>
</a>
</g>
</g>
<!-- Node3 -->
<g id="Node000003" class="node">
<title>Node3</title>
<g id="a_Node000003"><a xlink:href="classAsyncFw_1_1AbstractTlsSocket.html" target="_top" xlink:title="Abstract base class providing Transport Layer Security (TLS/SSL) encryption layers on top of standard...">
<polygon fill="white" stroke="#666666" points="144.25,-144 0,-144 0,-124 144.25,-124 144.25,-144"/>
<text xml:space="preserve" text-anchor="middle" x="72.12" y="-130.5" font-family="Helvetica,sans-Serif" font-size="10.00">AsyncFw::AbstractTlsSocket</text>
</a>
</g>
</g>
<!-- Node3&#45;&gt;Node2 -->
<g id="edge2_Node000002_Node000003" class="edge">
<title>Node3&#45;&gt;Node2</title>
<g id="a_edge2_Node000002_Node000003"><a xlink:title=" ">
<path fill="none" stroke="#63b8ff" d="M72.12,-112.13C72.12,-103.9 72.12,-94.85 72.12,-88.3"/>
<polygon fill="#63b8ff" stroke="#63b8ff" points="68.63,-112.08 72.13,-122.08 75.63,-112.08 68.63,-112.08"/>
</a>
</g>
</g>
<!-- Node4 -->
<g id="Node000004" class="node">
<title>Node4</title>
<g id="a_Node000004"><a xlink:href="classAsyncFw_1_1AbstractSocket.html" target="_top" xlink:title="Abstract base class providing core network socket functionality and OS descriptor abstraction.">
<polygon fill="white" stroke="#666666" points="137.5,-200 6.75,-200 6.75,-180 137.5,-180 137.5,-200"/>
<text xml:space="preserve" text-anchor="middle" x="72.12" y="-186.5" font-family="Helvetica,sans-Serif" font-size="10.00">AsyncFw::AbstractSocket</text>
</a>
</g>
</g>
<!-- Node4&#45;&gt;Node3 -->
<g id="edge3_Node000003_Node000004" class="edge">
<title>Node4&#45;&gt;Node3</title>
<g id="a_edge3_Node000003_Node000004"><a xlink:title=" ">
<path fill="none" stroke="#63b8ff" d="M72.12,-168.13C72.12,-159.9 72.12,-150.85 72.12,-144.3"/>
<polygon fill="#63b8ff" stroke="#63b8ff" points="68.63,-168.08 72.13,-178.08 75.63,-168.08 68.63,-168.08"/>
</a>
</g>
</g>
<!-- Node5 -->
<g id="Node000005" class="node">
<title>Node5</title>
<g id="a_Node000005"><a xlink:href="structAsyncFw_1_1AnyData.html" target="_top" xlink:title="A generic, type&#45;safe data container block wrapper utilizing std::any.">
<polygon fill="white" stroke="#666666" points="122.88,-256 21.38,-256 21.38,-236 122.88,-236 122.88,-256"/>
<text xml:space="preserve" text-anchor="middle" x="72.12" y="-242.5" font-family="Helvetica,sans-Serif" font-size="10.00">AsyncFw::AnyData</text>
</a>
</g>
</g>
<!-- Node5&#45;&gt;Node4 -->
<g id="edge4_Node000004_Node000005" class="edge">
<title>Node5&#45;&gt;Node4</title>
<g id="a_edge4_Node000004_Node000005"><a xlink:title=" ">
<path fill="none" stroke="#63b8ff" d="M72.12,-224.13C72.12,-215.9 72.12,-206.85 72.12,-200.3"/>
<polygon fill="#63b8ff" stroke="#63b8ff" points="68.63,-224.08 72.13,-234.08 75.63,-224.08 68.63,-224.08"/>
</a>
</g>
</g>
</g>
</svg>
