<?xml version="1.0" encoding="UTF-8" standalone="no"?>
<!DOCTYPE svg PUBLIC "-//W3C//DTD SVG 1.1//EN"
 "http://www.w3.org/Graphics/SVG/1.1/DTD/svg11.dtd">
<!-- Generated by graphviz version 12.2.1 (20241206.2353)
 -->
<!-- Title: AsyncFw::Rrd Pages: 1 -->
<svg width="578pt" height="116pt"
 viewBox="0.00 0.00 578.00 116.00" xmlns="http://www.w3.org/2000/svg" xmlns:xlink="http://www.w3.org/1999/xlink">
<g id="graph0" class="graph" transform="scale(1 1) rotate(0) translate(4 112)">
<title>AsyncFw::Rrd</title>
<!-- Node1 -->
<g id="Node000001" class="node">
<title>Node1</title>
<g id="a_Node000001"><a xlink:title="The Rrd class.">
<polygon fill="#999999" stroke="#666666" points="570,-58 491,-58 491,-38 570,-38 570,-58"/>
<text text-anchor="middle" x="530.5" y="-44.5" font-family="Helvetica,sans-Serif" font-size="10.00">AsyncFw::Rrd</text>
</a>
</g>
</g>
<!-- Node2 -->
<g id="Node000002" class="node">
<title>Node2</title>
<g id="a_Node000002"><a xlink:href="classAsyncFw_1_1FunctionConnectorProtected.html" target="_top" xlink:title=" ">
<polygon fill="white" stroke="#666666" points="410.75,-108 265,-108 265,-76 410.75,-76 410.75,-108"/>
<text text-anchor="start" x="273" y="-94.5" font-family="Helvetica,sans-Serif" font-size="10.00">AsyncFw::FunctionConnector</text>
<text text-anchor="middle" x="337.88" y="-82.5" font-family="Helvetica,sans-Serif" font-size="10.00">Protected&lt; AsyncFw::Rrd &gt;</text>
</a>
</g>
</g>
<!-- Node2&#45;&gt;Node1 -->
<g id="edge1_Node000001_Node000002" class="edge">
<title>Node2&#45;&gt;Node1</title>
<g id="a_edge1_Node000001_Node000002"><a xlink:title=" ">
<path fill="none" stroke="#9a32cd" stroke-dasharray="5,2" d="M422.11,-75.57C439,-71.97 456.61,-68.03 473,-64 479.83,-62.32 487.08,-60.39 494.04,-58.45"/>
<polygon fill="#9a32cd" stroke="#9a32cd" points="421.67,-72.09 412.61,-77.57 423.12,-78.94 421.67,-72.09"/>
</a>
</g>
<text text-anchor="middle" x="450.88" y="-76.61" font-family="Helvetica,sans-Serif" font-size="10.00" fill="grey"> updated</text>
</g>
<!-- Node3 -->
<g id="Node000003" class="node">
<title>Node3</title>
<g id="a_Node000003"><a xlink:href="classAsyncFw_1_1FunctionConnectorProtected.html" target="_top" xlink:title="Защищенный коннетор, отправитель может быть только один.">
<polygon fill="white" stroke="#666666" points="145.75,-108 0,-108 0,-76 145.75,-76 145.75,-108"/>
<text text-anchor="start" x="8" y="-94.5" font-family="Helvetica,sans-Serif" font-size="10.00">AsyncFw::FunctionConnector</text>
<text text-anchor="middle" x="72.88" y="-82.5" font-family="Helvetica,sans-Serif" font-size="10.00">Protected&lt; F &gt;</text>
</a>
</g>
</g>
<!-- Node3&#45;&gt;Node2 -->
<g id="edge2_Node000002_Node000003" class="edge">
<title>Node3&#45;&gt;Node2</title>
<g id="a_edge2_Node000002_Node000003"><a xlink:title=" ">
<path fill="none" stroke="orange" stroke-dasharray="5,2" d="M157.58,-92C192.07,-92 231.64,-92 264.82,-92"/>
<polygon fill="orange" stroke="orange" points="157.6,-88.5 147.6,-92 157.6,-95.5 157.6,-88.5"/>
</a>
</g>
<text text-anchor="middle" x="205.38" y="-94.5" font-family="Helvetica,sans-Serif" font-size="10.00" fill="grey"> &lt; AsyncFw::Rrd &gt;</text>
</g>
<!-- Node4 -->
<g id="Node000004" class="node">
<title>Node4</title>
<g id="a_Node000004"><a xlink:href="classAsyncFw_1_1AbstractThread.html" target="_top" xlink:title="The AbstractThread class provides the base functionality for thread management.">
<polygon fill="white" stroke="#666666" points="402.88,-58 272.88,-58 272.88,-38 402.88,-38 402.88,-58"/>
<text text-anchor="middle" x="337.88" y="-44.5" font-family="Helvetica,sans-Serif" font-size="10.00">AsyncFw::AbstractThread</text>
</a>
</g>
</g>
<!-- Node4&#45;&gt;Node1 -->
<g id="edge3_Node000001_Node000004" class="edge">
<title>Node4&#45;&gt;Node1</title>
<g id="a_edge3_Node000001_Node000004"><a xlink:title=" ">
<path fill="none" stroke="#9a32cd" stroke-dasharray="5,2" d="M414.58,-48C440.7,-48 468.87,-48 490.78,-48"/>
<polygon fill="#9a32cd" stroke="#9a32cd" points="414.66,-44.5 404.66,-48 414.66,-51.5 414.66,-44.5"/>
</a>
</g>
<text text-anchor="middle" x="450.88" y="-50.5" font-family="Helvetica,sans-Serif" font-size="10.00" fill="grey"> thread_</text>
</g>
<!-- Node5 -->
<g id="Node000005" class="node">
<title>Node5</title>
<g id="a_Node000005"><a xlink:href="classAsyncFw_1_1DataArrayList.html" target="_top" xlink:title="The DataArrayList class.">
<polygon fill="white" stroke="#666666" points="399.5,-20 276.25,-20 276.25,0 399.5,0 399.5,-20"/>
<text text-anchor="middle" x="337.88" y="-6.5" font-family="Helvetica,sans-Serif" font-size="10.00">AsyncFw::DataArrayList</text>
</a>
</g>
</g>
<!-- Node5&#45;&gt;Node1 -->
<g id="edge4_Node000001_Node000005" class="edge">
<title>Node5&#45;&gt;Node1</title>
<g id="a_edge4_Node000001_Node000005"><a xlink:title=" ">
<path fill="none" stroke="#9a32cd" stroke-dasharray="5,2" d="M411.2,-20.32C431.3,-23.61 453.08,-27.56 473,-32 480.16,-33.6 487.77,-35.56 495,-37.56"/>
<polygon fill="#9a32cd" stroke="#9a32cd" points="411.84,-16.88 401.41,-18.76 410.73,-23.79 411.84,-16.88"/>
</a>
</g>
<text text-anchor="middle" x="450.88" y="-34.5" font-family="Helvetica,sans-Serif" font-size="10.00" fill="grey"> dataBase</text>
</g>
</g>
</svg>
