<?xml version="1.0" encoding="UTF-8" standalone="no"?>
<!DOCTYPE svg PUBLIC "-//W3C//DTD SVG 1.1//EN"
 "http://www.w3.org/Graphics/SVG/1.1/DTD/svg11.dtd">
<!-- Generated by graphviz version 12.2.1 (20241206.2353)
 -->
<!-- Title: AsyncFw::AbstractTask Pages: 1 -->
<svg width="406pt" height="108pt"
 viewBox="0.00 0.00 406.00 108.00" xmlns="http://www.w3.org/2000/svg" xmlns:xlink="http://www.w3.org/1999/xlink">
<g id="graph0" class="graph" transform="scale(1 1) rotate(0) translate(4 104)">
<title>AsyncFw::AbstractTask</title>
<!-- Node1 -->
<g id="Node000001" class="node">
<title>Node1</title>
<g id="a_Node000001"><a xlink:title="The AbstractTask class.">
<polygon fill="#999999" stroke="#666666" points="259.5,-20 138.5,-20 138.5,0 259.5,0 259.5,-20"/>
<text text-anchor="middle" x="199" y="-6.5" font-family="Helvetica,sans-Serif" font-size="10.00">AsyncFw::AbstractTask</text>
</a>
</g>
</g>
<!-- Node2 -->
<g id="Node000002" class="node">
<title>Node2</title>
<g id="a_Node000002"><a xlink:href="structAsyncFw_1_1AbstractThread_1_1AbstractTask.html" target="_top" xlink:title="The AbstractTask struct.">
<polygon fill="white" stroke="#666666" points="130,-100 0,-100 0,-68 130,-68 130,-100"/>
<text text-anchor="start" x="8" y="-86.5" font-family="Helvetica,sans-Serif" font-size="10.00">AsyncFw::AbstractThread</text>
<text text-anchor="middle" x="65" y="-74.5" font-family="Helvetica,sans-Serif" font-size="10.00">::AbstractTask</text>
</a>
</g>
</g>
<!-- Node2&#45;&gt;Node1 -->
<g id="edge1_Node000001_Node000002" class="edge">
<title>Node2&#45;&gt;Node1</title>
<g id="a_edge1_Node000001_Node000002"><a xlink:title=" ">
<path fill="none" stroke="#63b8ff" d="M103.55,-62.28C129.2,-48.5 161.68,-31.05 181.37,-20.47"/>
<polygon fill="#63b8ff" stroke="#63b8ff" points="102.23,-59.02 95.08,-66.84 105.55,-65.19 102.23,-59.02"/>
</a>
</g>
</g>
<!-- Node3 -->
<g id="Node000003" class="node">
<title>Node3</title>
<g id="a_Node000003"><a xlink:href="structAsyncFw_1_1AnyData.html" target="_top" xlink:title="The AnyData class.">
<polygon fill="white" stroke="#666666" points="249.75,-94 148.25,-94 148.25,-74 249.75,-74 249.75,-94"/>
<text text-anchor="middle" x="199" y="-80.5" font-family="Helvetica,sans-Serif" font-size="10.00">AsyncFw::AnyData</text>
</a>
</g>
</g>
<!-- Node3&#45;&gt;Node1 -->
<g id="edge2_Node000001_Node000003" class="edge">
<title>Node3&#45;&gt;Node1</title>
<g id="a_edge2_Node000001_Node000003"><a xlink:title=" ">
<path fill="none" stroke="#63b8ff" d="M199,-62.18C199,-48.29 199,-30.71 199,-20.19"/>
<polygon fill="#63b8ff" stroke="#63b8ff" points="195.5,-62.07 199,-72.07 202.5,-62.07 195.5,-62.07"/>
</a>
</g>
</g>
<!-- Node4 -->
<g id="Node000004" class="node">
<title>Node4</title>
<g id="a_Node000004"><a xlink:href="classAsyncFw_1_1AbstractThread.html" target="_top" xlink:title="The AbstractThread class provides the base functionality for thread management.">
<polygon fill="white" stroke="#666666" points="398,-94 268,-94 268,-74 398,-74 398,-94"/>
<text text-anchor="middle" x="333" y="-80.5" font-family="Helvetica,sans-Serif" font-size="10.00">AsyncFw::AbstractThread</text>
</a>
</g>
</g>
<!-- Node4&#45;&gt;Node1 -->
<g id="edge3_Node000001_Node000004" class="edge">
<title>Node4&#45;&gt;Node1</title>
<g id="a_edge3_Node000001_Node000004"><a xlink:title=" ">
<path fill="none" stroke="#9a32cd" stroke-dasharray="5,2" d="M305.62,-68.29C278.95,-53.96 239.2,-32.6 216.52,-20.42"/>
<polygon fill="#9a32cd" stroke="#9a32cd" points="303.68,-71.22 314.15,-72.87 307,-65.05 303.68,-71.22"/>
</a>
</g>
<text text-anchor="middle" x="287.64" y="-40.5" font-family="Helvetica,sans-Serif" font-size="10.00" fill="grey"> thread_</text>
</g>
</g>
</svg>
