<?xml version="1.0" encoding="UTF-8" standalone="no"?>
<!DOCTYPE svg PUBLIC "-//W3C//DTD SVG 1.1//EN"
 "http://www.w3.org/Graphics/SVG/1.1/DTD/svg11.dtd">
<!-- Generated by graphviz version 12.2.1 (20241206.2353)
 -->
<!-- Title: AsyncFw::HttpSocket::destroy Pages: 1 -->
<svg width="953pt" height="196pt"
 viewBox="0.00 0.00 953.00 196.00" xmlns="http://www.w3.org/2000/svg" xmlns:xlink="http://www.w3.org/1999/xlink">
<g id="graph0" class="graph" transform="scale(1 1) rotate(0) translate(4 192)">
<title>AsyncFw::HttpSocket::destroy</title>
<!-- Node1 -->
<g id="Node000001" class="node">
<title>Node1</title>
<g id="a_Node000001"><a xlink:title="Schedules the socket for deferred asynchronous destruction.">
<polygon fill="#999999" stroke="#666666" points="112.75,-122 0,-122 0,-90 112.75,-90 112.75,-122"/>
<text text-anchor="start" x="8" y="-108.5" font-family="Helvetica,sans-Serif" font-size="10.00">AsyncFw::HttpSocket</text>
<text text-anchor="middle" x="56.38" y="-96.5" font-family="Helvetica,sans-Serif" font-size="10.00">::destroy</text>
</a>
</g>
</g>
<!-- Node2 -->
<g id="Node000002" class="node">
<title>Node2</title>
<g id="a_Node000002"><a xlink:href="classAsyncFw_1_1AbstractSocket.html#a73a200f0008dbf9f820bdb2b8a0054cf" target="_top" xlink:title="Schedules the socket for deferred asynchronous destruction.">
<polygon fill="white" stroke="#666666" points="279.5,-122 148.75,-122 148.75,-90 279.5,-90 279.5,-122"/>
<text text-anchor="start" x="156.75" y="-108.5" font-family="Helvetica,sans-Serif" font-size="10.00">AsyncFw::AbstractSocket</text>
<text text-anchor="middle" x="214.12" y="-96.5" font-family="Helvetica,sans-Serif" font-size="10.00">::destroy</text>
</a>
</g>
</g>
<!-- Node1&#45;&gt;Node2 -->
<g id="edge1_Node000001_Node000002" class="edge">
<title>Node1&#45;&gt;Node2</title>
<g id="a_edge1_Node000001_Node000002"><a xlink:title=" ">
<path fill="none" stroke="#63b8ff" d="M113.16,-106C120.94,-106 129.03,-106 137.09,-106"/>
<polygon fill="#63b8ff" stroke="#63b8ff" points="136.93,-109.5 146.93,-106 136.93,-102.5 136.93,-109.5"/>
</a>
</g>
</g>
<!-- Node3 -->
<g id="Node000003" class="node">
<title>Node3</title>
<g id="a_Node000003"><a xlink:href="classAsyncFw_1_1AbstractSocket.html#a77c0a9ea7c5061c406673bbe8b18d60d" target="_top" xlink:title="Closes the network connection and unsubscribes from thread polling events.">
<polygon fill="white" stroke="#666666" points="446.25,-177 315.5,-177 315.5,-145 446.25,-145 446.25,-177"/>
<text text-anchor="start" x="323.5" y="-163.5" font-family="Helvetica,sans-Serif" font-size="10.00">AsyncFw::AbstractSocket</text>
<text text-anchor="middle" x="380.88" y="-151.5" font-family="Helvetica,sans-Serif" font-size="10.00">::close</text>
</a>
</g>
</g>
<!-- Node2&#45;&gt;Node3 -->
<g id="edge2_Node000002_Node000003" class="edge">
<title>Node2&#45;&gt;Node3</title>
<g id="a_edge2_Node000002_Node000003"><a xlink:title=" ">
<path fill="none" stroke="#63b8ff" d="M264.11,-122.35C281.55,-128.18 301.4,-134.8 319.67,-140.9"/>
<polygon fill="#63b8ff" stroke="#63b8ff" points="318.48,-144.19 329.07,-144.04 320.7,-137.55 318.48,-144.19"/>
</a>
</g>
</g>
<!-- Node5 -->
<g id="Node000005" class="node">
<title>Node5</title>
<g id="a_Node000005"><a xlink:href="classAsyncFw_1_1Thread.html#a0a3bd6a54db28f73ff59cfea6a40b07a" target="_top" xlink:title="Returns a pointer to the AsyncFw::Thread that manages the currently executing thread.">
<polygon fill="white" stroke="#666666" points="445.5,-116 316.25,-116 316.25,-96 445.5,-96 445.5,-116"/>
<text text-anchor="middle" x="380.88" y="-102.5" font-family="Helvetica,sans-Serif" font-size="10.00">AsyncFw::Thread::current</text>
</a>
</g>
</g>
<!-- Node2&#45;&gt;Node5 -->
<g id="edge4_Node000002_Node000005" class="edge">
<title>Node2&#45;&gt;Node5</title>
<g id="a_edge4_Node000002_Node000005"><a xlink:title=" ">
<path fill="none" stroke="#63b8ff" d="M279.77,-106C287.95,-106 296.37,-106 304.7,-106"/>
<polygon fill="#63b8ff" stroke="#63b8ff" points="304.45,-109.5 314.45,-106 304.45,-102.5 304.45,-109.5"/>
</a>
</g>
</g>
<!-- Node10 -->
<g id="Node000010" class="node">
<title>Node10</title>
<g id="a_Node000010"><a xlink:href="classAsyncFw_1_1AbstractThread.html#a786474d037b50053f1a97af7b67e6069" target="_top" xlink:title="Runs a function in a managed thread.">
<polygon fill="white" stroke="#666666" points="445.88,-63 315.88,-63 315.88,-31 445.88,-31 445.88,-63"/>
<text text-anchor="start" x="323.88" y="-49.5" font-family="Helvetica,sans-Serif" font-size="10.00">AsyncFw::AbstractThread</text>
<text text-anchor="middle" x="380.88" y="-37.5" font-family="Helvetica,sans-Serif" font-size="10.00">::invoke</text>
</a>
</g>
</g>
<!-- Node2&#45;&gt;Node10 -->
<g id="edge12_Node000002_Node000010" class="edge">
<title>Node2&#45;&gt;Node10</title>
<g id="a_edge12_Node000002_Node000010"><a xlink:title=" ">
<path fill="none" stroke="#63b8ff" d="M261.02,-89.57C280.31,-82.66 302.94,-74.55 323.25,-67.28"/>
<polygon fill="#63b8ff" stroke="#63b8ff" points="324.28,-70.63 332.52,-63.96 321.92,-64.04 324.28,-70.63"/>
</a>
</g>
</g>
<!-- Node4 -->
<g id="Node000004" class="node">
<title>Node4</title>
<g id="a_Node000004"><a xlink:href="classAsyncFw_1_1AbstractSocket.html#a5db12267a6d2241e81f570463f2d7ef5" target="_top" xlink:title="Called when the connection state changes.">
<polygon fill="white" stroke="#666666" points="613,-188 482.25,-188 482.25,-156 613,-156 613,-188"/>
<text text-anchor="start" x="490.25" y="-174.5" font-family="Helvetica,sans-Serif" font-size="10.00">AsyncFw::AbstractSocket</text>
<text text-anchor="middle" x="547.62" y="-162.5" font-family="Helvetica,sans-Serif" font-size="10.00">::stateEvent</text>
</a>
</g>
</g>
<!-- Node3&#45;&gt;Node4 -->
<g id="edge3_Node000003_Node000004" class="edge">
<title>Node3&#45;&gt;Node4</title>
<g id="a_edge3_Node000003_Node000004"><a xlink:title=" ">
<path fill="none" stroke="#63b8ff" d="M446.52,-165.32C454.42,-165.84 462.55,-166.39 470.6,-166.92"/>
<polygon fill="#63b8ff" stroke="#63b8ff" points="470.18,-170.4 480.39,-167.58 470.65,-163.42 470.18,-170.4"/>
</a>
</g>
</g>
<!-- Node6 -->
<g id="Node000006" class="node">
<title>Node6</title>
<g id="a_Node000006"><a xlink:href="classAsyncFw_1_1AbstractThread.html#af33c5949edb374d673a7a9ac0c81ec32" target="_top" xlink:title="Returns a pointer to the AsyncFw::AbstractThread that manages the currently executing thread.">
<polygon fill="white" stroke="#666666" points="612.62,-138 482.62,-138 482.62,-106 612.62,-106 612.62,-138"/>
<text text-anchor="start" x="490.62" y="-124.5" font-family="Helvetica,sans-Serif" font-size="10.00">AsyncFw::AbstractThread</text>
<text text-anchor="middle" x="547.62" y="-112.5" font-family="Helvetica,sans-Serif" font-size="10.00">::current</text>
</a>
</g>
</g>
<!-- Node5&#45;&gt;Node6 -->
<g id="edge5_Node000005_Node000006" class="edge">
<title>Node5&#45;&gt;Node6</title>
<g id="a_edge5_Node000005_Node000006"><a xlink:title=" ">
<path fill="none" stroke="#63b8ff" d="M445.57,-112.19C453.85,-112.99 462.4,-113.82 470.85,-114.64"/>
<polygon fill="#63b8ff" stroke="#63b8ff" points="470.48,-118.12 480.78,-115.6 471.16,-111.15 470.48,-118.12"/>
</a>
</g>
</g>
<!-- Node9 -->
<g id="Node000009" class="node">
<title>Node9</title>
<g id="a_Node000009"><a xlink:href="classAsyncFw_1_1Thread.html#afc5e422090767dd84020381fb9a4d490" target="_top" xlink:title="Constructs a thread.">
<polygon fill="white" stroke="#666666" points="612.25,-70 483,-70 483,-50 612.25,-50 612.25,-70"/>
<text text-anchor="middle" x="547.62" y="-56.5" font-family="Helvetica,sans-Serif" font-size="10.00">AsyncFw::Thread::Thread</text>
</a>
</g>
</g>
<!-- Node5&#45;&gt;Node9 -->
<g id="edge8_Node000005_Node000009" class="edge">
<title>Node5&#45;&gt;Node9</title>
<g id="a_edge8_Node000005_Node000009"><a xlink:title=" ">
<path fill="none" stroke="#63b8ff" d="M419.26,-95.56C442.66,-89.03 473.06,-80.54 498.28,-73.5"/>
<polygon fill="#63b8ff" stroke="#63b8ff" points="498.96,-76.94 507.65,-70.88 497.07,-70.2 498.96,-76.94"/>
</a>
</g>
</g>
<!-- Node7 -->
<g id="Node000007" class="node">
<title>Node7</title>
<g id="a_Node000007"><a xlink:href="classAsyncFw_1_1AbstractThread.html#a8c9202c90ac101522f26c4260cb01b59" target="_top" xlink:title="Constructs a thread.">
<polygon fill="white" stroke="#666666" points="779,-120 649,-120 649,-88 779,-88 779,-120"/>
<text text-anchor="start" x="657" y="-106.5" font-family="Helvetica,sans-Serif" font-size="10.00">AsyncFw::AbstractThread</text>
<text text-anchor="middle" x="714" y="-94.5" font-family="Helvetica,sans-Serif" font-size="10.00">::AbstractThread</text>
</a>
</g>
</g>
<!-- Node6&#45;&gt;Node7 -->
<g id="edge6_Node000006_Node000007" class="edge">
<title>Node6&#45;&gt;Node7</title>
<g id="a_edge6_Node000006_Node000007"><a xlink:title=" ">
<path fill="none" stroke="#63b8ff" d="M613.12,-114.94C621.07,-114.07 629.24,-113.17 637.34,-112.29"/>
<polygon fill="#63b8ff" stroke="#63b8ff" points="637.63,-115.77 647.19,-111.21 636.87,-108.82 637.63,-115.77"/>
</a>
</g>
</g>
<!-- Node8 -->
<g id="Node000008" class="node">
<title>Node8</title>
<g id="a_Node000008"><a xlink:href="classAsyncFw_1_1AbstractThread.html#a0cd916251e061aaf3d456575ef052edd" target="_top" xlink:title="Returns name of managed thread.">
<polygon fill="white" stroke="#666666" points="945,-98 815,-98 815,-66 945,-66 945,-98"/>
<text text-anchor="start" x="823" y="-84.5" font-family="Helvetica,sans-Serif" font-size="10.00">AsyncFw::AbstractThread</text>
<text text-anchor="middle" x="880" y="-72.5" font-family="Helvetica,sans-Serif" font-size="10.00">::name</text>
</a>
</g>
</g>
<!-- Node7&#45;&gt;Node8 -->
<g id="edge7_Node000007_Node000008" class="edge">
<title>Node7&#45;&gt;Node8</title>
<g id="a_edge7_Node000007_Node000008"><a xlink:title=" ">
<path fill="none" stroke="#63b8ff" d="M779.35,-95.37C787.21,-94.31 795.31,-93.23 803.33,-92.15"/>
<polygon fill="#63b8ff" stroke="#63b8ff" points="803.62,-95.64 813.07,-90.84 802.69,-88.71 803.62,-95.64"/>
</a>
</g>
</g>
<!-- Node9&#45;&gt;Node7 -->
<g id="edge9_Node000009_Node000007" class="edge">
<title>Node9&#45;&gt;Node7</title>
<g id="a_edge9_Node000009_Node000007"><a xlink:title=" ">
<path fill="none" stroke="#63b8ff" d="M587.58,-70.43C603.46,-74.68 622.34,-79.73 640.58,-84.61"/>
<polygon fill="#63b8ff" stroke="#63b8ff" points="639.49,-87.94 650.05,-87.15 641.3,-81.18 639.49,-87.94"/>
</a>
</g>
</g>
<!-- Node9&#45;&gt;Node8 -->
<g id="edge10_Node000009_Node000008" class="edge">
<title>Node9&#45;&gt;Node8</title>
<g id="a_edge10_Node000009_Node000008"><a xlink:title=" ">
<path fill="none" stroke="#63b8ff" d="M612.72,-64.27C667.25,-67.9 745.67,-73.12 803.29,-76.96"/>
<polygon fill="#63b8ff" stroke="#63b8ff" points="802.8,-80.43 813.01,-77.61 803.27,-73.45 802.8,-80.43"/>
</a>
</g>
</g>
<!-- Node9&#45;&gt;Node9 -->
<g id="edge11_Node000009_Node000009" class="edge">
<title>Node9&#45;&gt;Node9</title>
<g id="a_edge11_Node000009_Node000009"><a xlink:title=" ">
<path fill="none" stroke="#63b8ff" d="M521.19,-70.34C509.89,-78.98 518.7,-88 547.62,-88 563.44,-88 573.24,-85.3 577.03,-81.44"/>
<polygon fill="#63b8ff" stroke="#63b8ff" points="580.42,-80.56 574.45,-71.8 573.65,-82.37 580.42,-80.56"/>
</a>
</g>
</g>
<!-- Node11 -->
<g id="Node000011" class="node">
<title>Node11</title>
<g id="a_Node000011"><a xlink:href="classAsyncFw_1_1AbstractThread.html#abe96e6b2a1de041f0d25390a6b77e50a" target="_top" xlink:title="Runs a task in a managed thread.">
<polygon fill="white" stroke="#666666" points="612.62,-32 482.62,-32 482.62,0 612.62,0 612.62,-32"/>
<text text-anchor="start" x="490.62" y="-18.5" font-family="Helvetica,sans-Serif" font-size="10.00">AsyncFw::AbstractThread</text>
<text text-anchor="middle" x="547.62" y="-6.5" font-family="Helvetica,sans-Serif" font-size="10.00">::invokeTask</text>
</a>
</g>
</g>
<!-- Node10&#45;&gt;Node11 -->
<g id="edge13_Node000010_Node000011" class="edge">
<title>Node10&#45;&gt;Node11</title>
<g id="a_edge13_Node000010_Node000011"><a xlink:title=" ">
<path fill="none" stroke="#63b8ff" d="M446.04,-34.93C454.24,-33.38 462.7,-31.79 471.05,-30.22"/>
<polygon fill="#63b8ff" stroke="#63b8ff" points="471.69,-33.66 480.87,-28.37 470.4,-26.78 471.69,-33.66"/>
</a>
</g>
</g>
</g>
</svg>
