<?xml version="1.0" encoding="UTF-8" standalone="no"?>
<!DOCTYPE svg PUBLIC "-//W3C//DTD SVG 1.1//EN"
 "http://www.w3.org/Graphics/SVG/1.1/DTD/svg11.dtd">
<!-- Generated by graphviz version 14.1.3 (20260303.0454)
 -->
<!-- Title: AsyncFw::Task&lt; F &gt; Pages: 1 -->
<svg width="258pt" height="159pt"
 viewBox="0.00 0.00 258.00 159.00" xmlns="http://www.w3.org/2000/svg" xmlns:xlink="http://www.w3.org/1999/xlink">
<g id="graph0" class="graph" transform="scale(1 1) rotate(0) translate(4 155)">
<title>AsyncFw::Task&lt; F &gt;</title>
<!-- Node1 -->
<g id="Node000001" class="node">
<title>Node1</title>
<g id="a_Node000001"><a xlink:title="A template container to execute custom callable payloads with dynamic data binding.">
<polygon fill="#999999" stroke="#666666" points="171.88,-20 63.62,-20 63.62,0 171.88,0 171.88,-20"/>
<text xml:space="preserve" text-anchor="middle" x="117.75" y="-6.5" font-family="Helvetica,sans-Serif" font-size="10.00">AsyncFw::Task&lt; F &gt;</text>
</a>
</g>
</g>
<!-- Node2 -->
<g id="Node000002" class="node">
<title>Node2</title>
<g id="a_Node000002"><a xlink:href="classAsyncFw_1_1AbstractTask.html" target="_top" xlink:title="Base polymorphic class for tasks with dynamic runtime data encapsulation.">
<polygon fill="white" stroke="#666666" points="178.25,-77 57.25,-77 57.25,-57 178.25,-57 178.25,-77"/>
<text xml:space="preserve" text-anchor="middle" x="117.75" y="-63.5" font-family="Helvetica,sans-Serif" font-size="10.00">AsyncFw::AbstractTask</text>
</a>
</g>
</g>
<!-- Node2&#45;&gt;Node1 -->
<g id="edge1_Node000001_Node000002" class="edge">
<title>Node2&#45;&gt;Node1</title>
<g id="a_edge1_Node000001_Node000002"><a xlink:title=" ">
<path fill="none" stroke="#63b8ff" d="M117.75,-45.69C117.75,-36.97 117.75,-27.22 117.75,-20.28"/>
<polygon fill="#63b8ff" stroke="#63b8ff" points="114.25,-45.4 117.75,-55.4 121.25,-45.4 114.25,-45.4"/>
</a>
</g>
</g>
<!-- Node3 -->
<g id="Node000003" class="node">
<title>Node3</title>
<g id="a_Node000003"><a xlink:href="structAsyncFw_1_1AnyData.html" target="_top" xlink:title="A generic, type&#45;safe data container block wrapper utilizing std::any.">
<polygon fill="white" stroke="#666666" points="101.5,-151 0,-151 0,-131 101.5,-131 101.5,-151"/>
<text xml:space="preserve" text-anchor="middle" x="50.75" y="-137.5" font-family="Helvetica,sans-Serif" font-size="10.00">AsyncFw::AnyData</text>
</a>
</g>
</g>
<!-- Node3&#45;&gt;Node2 -->
<g id="edge2_Node000002_Node000003" class="edge">
<title>Node3&#45;&gt;Node2</title>
<g id="a_edge2_Node000002_Node000003"><a xlink:title=" ">
<path fill="none" stroke="#63b8ff" d="M67.04,-122.5C80.34,-108.21 98.61,-88.57 109.2,-77.19"/>
<polygon fill="#63b8ff" stroke="#63b8ff" points="64.79,-119.77 60.54,-129.48 69.91,-124.54 64.79,-119.77"/>
</a>
</g>
</g>
<!-- Node4 -->
<g id="Node000004" class="node">
<title>Node4</title>
<g id="a_Node000004"><a xlink:href="classAsyncFw_1_1AbstractThread.html" target="_top" xlink:title="The AbstractThread class provides the base functionality for thread management.">
<polygon fill="white" stroke="#666666" points="249.75,-151 119.75,-151 119.75,-131 249.75,-131 249.75,-151"/>
<text xml:space="preserve" text-anchor="middle" x="184.75" y="-137.5" font-family="Helvetica,sans-Serif" font-size="10.00">AsyncFw::AbstractThread</text>
</a>
</g>
</g>
<!-- Node4&#45;&gt;Node2 -->
<g id="edge3_Node000002_Node000004" class="edge">
<title>Node4&#45;&gt;Node2</title>
<g id="a_edge3_Node000002_Node000004"><a xlink:title=" ">
<path fill="none" stroke="#9a32cd" stroke-dasharray="5,2" d="M168.46,-122.5C155.16,-108.21 136.89,-88.57 126.3,-77.19"/>
<polygon fill="#9a32cd" stroke="#9a32cd" points="165.59,-124.54 174.96,-129.48 170.71,-119.77 165.59,-124.54"/>
</a>
</g>
<text xml:space="preserve" text-anchor="start" x="162.22" y="-100.25" font-family="Helvetica,sans-Serif" font-size="10.00" fill="grey">thread_</text>
</g>
</g>
</svg>
