<?xml version="1.0" encoding="UTF-8" standalone="no"?>
<!DOCTYPE svg PUBLIC "-//W3C//DTD SVG 1.1//EN"
 "http://www.w3.org/Graphics/SVG/1.1/DTD/svg11.dtd">
<!-- Generated by graphviz version 12.2.1 (20241206.2353)
 -->
<!-- Title: AsyncFw::AbstractThread::AbstractThread Pages: 1 -->
<svg width="822pt" height="309pt"
 viewBox="0.00 0.00 822.25 309.00" xmlns="http://www.w3.org/2000/svg" xmlns:xlink="http://www.w3.org/1999/xlink">
<g id="graph0" class="graph" transform="scale(1 1) rotate(0) translate(4 305)">
<title>AsyncFw::AbstractThread::AbstractThread</title>
<!-- Node1 -->
<g id="Node000001" class="node">
<title>Node1</title>
<g id="a_Node000001"><a xlink:title="Constructs a thread.">
<polygon fill="#999999" stroke="#666666" points="814.25,-229 684.25,-229 684.25,-197 814.25,-197 814.25,-229"/>
<text text-anchor="start" x="692.25" y="-215.5" font-family="Helvetica,sans-Serif" font-size="10.00">AsyncFw::AbstractThread</text>
<text text-anchor="middle" x="749.25" y="-203.5" font-family="Helvetica,sans-Serif" font-size="10.00">::AbstractThread</text>
</a>
</g>
</g>
<!-- Node1&#45;&gt;Node1 -->
<g id="edge1_Node000001_Node000001" class="edge">
<title>Node1&#45;&gt;Node1</title>
<g id="a_edge1_Node000001_Node000001"><a xlink:title=" ">
<path fill="none" stroke="#63b8ff" d="M776.91,-240.71C772.3,-244.48 763.08,-247 749.25,-247 723.96,-247 714.08,-238.58 719.61,-229.44"/>
<polygon fill="#63b8ff" stroke="#63b8ff" points="780.35,-241.39 778.62,-230.93 773.45,-240.18 780.35,-241.39"/>
</a>
</g>
</g>
<!-- Node2 -->
<g id="Node000002" class="node">
<title>Node2</title>
<g id="a_Node000002"><a xlink:href="classAsyncFw_1_1AbstractThread.html#a09cdd1972b9416a7ddb2a1921f36938c" target="_top" xlink:title="Returns a pointer to the AsyncFw::AbstractThread that manages the currently executing thread.">
<polygon fill="white" stroke="#666666" points="648.25,-207 518.25,-207 518.25,-175 648.25,-175 648.25,-207"/>
<text text-anchor="start" x="526.25" y="-193.5" font-family="Helvetica,sans-Serif" font-size="10.00">AsyncFw::AbstractThread</text>
<text text-anchor="middle" x="583.25" y="-181.5" font-family="Helvetica,sans-Serif" font-size="10.00">::current</text>
</a>
</g>
</g>
<!-- Node1&#45;&gt;Node2 -->
<g id="edge2_Node000001_Node000002" class="edge">
<title>Node1&#45;&gt;Node2</title>
<g id="a_edge2_Node000001_Node000002"><a xlink:title=" ">
<path fill="none" stroke="#63b8ff" d="M672.66,-202.86C664.65,-201.78 656.55,-200.7 648.68,-199.64"/>
<polygon fill="#63b8ff" stroke="#63b8ff" points="672.03,-206.31 682.4,-204.17 672.96,-199.37 672.03,-206.31"/>
</a>
</g>
</g>
<!-- Node15 -->
<g id="Node000015" class="node">
<title>Node15</title>
<g id="a_Node000015"><a xlink:href="classAsyncFw_1_1Thread.html#afc5e422090767dd84020381fb9a4d490" target="_top" xlink:title="Constructs a thread.">
<polygon fill="white" stroke="#666666" points="647.88,-270 518.62,-270 518.62,-250 647.88,-250 647.88,-270"/>
<text text-anchor="middle" x="583.25" y="-256.5" font-family="Helvetica,sans-Serif" font-size="10.00">AsyncFw::Thread::Thread</text>
</a>
</g>
</g>
<!-- Node1&#45;&gt;Node15 -->
<g id="edge15_Node000001_Node000015" class="edge">
<title>Node1&#45;&gt;Node15</title>
<g id="a_edge15_Node000001_Node000015"><a xlink:title=" ">
<path fill="none" stroke="#63b8ff" d="M680.08,-232.54C659.76,-238.36 638.28,-244.52 620.81,-249.52"/>
<polygon fill="#63b8ff" stroke="#63b8ff" points="680.79,-235.97 689.44,-229.86 678.86,-229.25 680.79,-235.97"/>
</a>
</g>
</g>
<!-- Node3 -->
<g id="Node000003" class="node">
<title>Node3</title>
<g id="a_Node000003"><a xlink:href="classAsyncFw_1_1ThreadPool.html#a9919894e586310a7ea5b780845376e17" target="_top" xlink:title="Asynchronously invokes a void function in the target thread, and executes a result callback in the ca...">
<polygon fill="white" stroke="#666666" points="464.25,-257 351.5,-257 351.5,-225 464.25,-225 464.25,-257"/>
<text text-anchor="start" x="359.5" y="-243.5" font-family="Helvetica,sans-Serif" font-size="10.00">AsyncFw::ThreadPool</text>
<text text-anchor="middle" x="407.88" y="-231.5" font-family="Helvetica,sans-Serif" font-size="10.00">::async</text>
</a>
</g>
</g>
<!-- Node2&#45;&gt;Node3 -->
<g id="edge3_Node000002_Node000003" class="edge">
<title>Node2&#45;&gt;Node3</title>
<g id="a_edge3_Node000002_Node000003"><a xlink:title=" ">
<path fill="none" stroke="#63b8ff" d="M514.74,-210.47C498.15,-215.26 480.56,-220.33 464.59,-224.93"/>
<polygon fill="#63b8ff" stroke="#63b8ff" points="515.39,-213.93 524.03,-207.79 513.45,-207.2 515.39,-213.93"/>
</a>
</g>
</g>
<!-- Node4 -->
<g id="Node000004" class="node">
<title>Node4</title>
<g id="a_Node000004"><a xlink:href="classAsyncFw_1_1Thread.html#a0a3bd6a54db28f73ff59cfea6a40b07a" target="_top" xlink:title="Returns a pointer to the AsyncFw::Thread that manages the currently executing thread.">
<polygon fill="white" stroke="#666666" points="472.5,-295 343.25,-295 343.25,-275 472.5,-275 472.5,-295"/>
<text text-anchor="middle" x="407.88" y="-281.5" font-family="Helvetica,sans-Serif" font-size="10.00">AsyncFw::Thread::current</text>
</a>
</g>
</g>
<!-- Node2&#45;&gt;Node4 -->
<g id="edge4_Node000002_Node000004" class="edge">
<title>Node2&#45;&gt;Node4</title>
<g id="a_edge4_Node000002_Node000004"><a xlink:title=" ">
<path fill="none" stroke="#63b8ff" d="M552.62,-214.14C526,-234.78 489.95,-262.3 482.25,-266 475.25,-269.37 467.59,-272.19 459.93,-274.54"/>
<polygon fill="#63b8ff" stroke="#63b8ff" points="554.63,-217.01 560.38,-208.11 550.34,-211.48 554.63,-217.01"/>
</a>
</g>
</g>
<!-- Node7 -->
<g id="Node000007" class="node">
<title>Node7</title>
<g id="a_Node000007"><a xlink:href="classAsyncFw_1_1FileSystemWatcher.html#acd061a60fbaea1bb3c7d020e0da99039" target="_top" xlink:title="Constructs a FileSystemWatcher and optionally starts monitoring given paths.">
<polygon fill="white" stroke="#666666" points="482.25,-207 333.5,-207 333.5,-175 482.25,-175 482.25,-207"/>
<text text-anchor="start" x="341.5" y="-193.5" font-family="Helvetica,sans-Serif" font-size="10.00">AsyncFw::FileSystemWatcher</text>
<text text-anchor="middle" x="407.88" y="-181.5" font-family="Helvetica,sans-Serif" font-size="10.00">::FileSystemWatcher</text>
</a>
</g>
</g>
<!-- Node2&#45;&gt;Node7 -->
<g id="edge7_Node000002_Node000007" class="edge">
<title>Node2&#45;&gt;Node7</title>
<g id="a_edge7_Node000002_Node000007"><a xlink:title=" ">
<path fill="none" stroke="#63b8ff" d="M506.91,-191C498.86,-191 490.67,-191 482.63,-191"/>
<polygon fill="#63b8ff" stroke="#63b8ff" points="506.67,-194.5 516.67,-191 506.67,-187.5 506.67,-194.5"/>
</a>
</g>
</g>
<!-- Node9 -->
<g id="Node000009" class="node">
<title>Node9</title>
<g id="a_Node000009"><a xlink:href="classAsyncFw_1_1MulticastDns.html#ab9bfb41e98cd4ecf1cc63f8acd023afd" target="_top" xlink:title="Initializes the mDNS node with a specific target service type (e.g., &quot;_http._tcp&quot;).">
<polygon fill="white" stroke="#666666" points="468.38,-157 347.38,-157 347.38,-125 468.38,-125 468.38,-157"/>
<text text-anchor="start" x="355.38" y="-143.5" font-family="Helvetica,sans-Serif" font-size="10.00">AsyncFw::MulticastDns</text>
<text text-anchor="middle" x="407.88" y="-131.5" font-family="Helvetica,sans-Serif" font-size="10.00">::MulticastDns</text>
</a>
</g>
</g>
<!-- Node2&#45;&gt;Node9 -->
<g id="edge9_Node000002_Node000009" class="edge">
<title>Node2&#45;&gt;Node9</title>
<g id="a_edge9_Node000002_Node000009"><a xlink:title=" ">
<path fill="none" stroke="#63b8ff" d="M514.56,-171.48C498.52,-166.85 481.58,-161.97 466.07,-157.49"/>
<polygon fill="#63b8ff" stroke="#63b8ff" points="513.45,-174.8 524.03,-174.21 515.39,-168.07 513.45,-174.8"/>
</a>
</g>
</g>
<!-- Node11 -->
<g id="Node000011" class="node">
<title>Node11</title>
<g id="a_Node000011"><a xlink:href="classAsyncFw_1_1SystemProcess.html#acf60a585a89304fdb3580e9add06d155" target="_top" xlink:title="Constructs a new SystemProcess manager.">
<polygon fill="white" stroke="#666666" points="474.38,-107 341.38,-107 341.38,-75 474.38,-75 474.38,-107"/>
<text text-anchor="start" x="349.38" y="-93.5" font-family="Helvetica,sans-Serif" font-size="10.00">AsyncFw::SystemProcess</text>
<text text-anchor="middle" x="407.88" y="-81.5" font-family="Helvetica,sans-Serif" font-size="10.00">::SystemProcess</text>
</a>
</g>
</g>
<!-- Node2&#45;&gt;Node11 -->
<g id="edge11_Node000002_Node000011" class="edge">
<title>Node2&#45;&gt;Node11</title>
<g id="a_edge11_Node000002_Node000011"><a xlink:title=" ">
<path fill="none" stroke="#63b8ff" d="M555.75,-167.45C536.45,-151.24 509.09,-130.17 482.25,-116 476.3,-112.86 469.88,-109.99 463.39,-107.41"/>
<polygon fill="#63b8ff" stroke="#63b8ff" points="553.25,-169.92 563.13,-173.75 557.79,-164.59 553.25,-169.92"/>
</a>
</g>
</g>
<!-- Node12 -->
<g id="Node000012" class="node">
<title>Node12</title>
<g id="a_Node000012"><a xlink:href="classAsyncFw_1_1AbstractThread_1_1Holder.html#a795fc5bb1d23123fc892b8d414c56083" target="_top" xlink:title="Runs nested exec() and wait for it completed.">
<polygon fill="white" stroke="#666666" points="472.88,-57 342.88,-57 342.88,-25 472.88,-25 472.88,-57"/>
<text text-anchor="start" x="350.88" y="-43.5" font-family="Helvetica,sans-Serif" font-size="10.00">AsyncFw::AbstractThread</text>
<text text-anchor="middle" x="407.88" y="-31.5" font-family="Helvetica,sans-Serif" font-size="10.00">::Holder::wait</text>
</a>
</g>
</g>
<!-- Node2&#45;&gt;Node12 -->
<g id="edge12_Node000002_Node000012" class="edge">
<title>Node2&#45;&gt;Node12</title>
<g id="a_edge12_Node000002_Node000012"><a xlink:title=" ">
<path fill="none" stroke="#63b8ff" d="M567.75,-165.17C550.72,-137.02 519.93,-92.46 482.25,-66 477.62,-62.75 472.54,-59.9 467.28,-57.39"/>
<polygon fill="#63b8ff" stroke="#63b8ff" points="564.53,-166.6 572.63,-173.43 570.56,-163.04 564.53,-166.6"/>
</a>
</g>
</g>
<!-- Node5 -->
<g id="Node000005" class="node">
<title>Node5</title>
<g id="a_Node000005"><a xlink:href="classAsyncFw_1_1AbstractSocket.html#a73a200f0008dbf9f820bdb2b8a0054cf" target="_top" xlink:title="Schedules the socket for deferred asynchronous destruction.">
<polygon fill="white" stroke="#666666" points="288.5,-301 157.75,-301 157.75,-269 288.5,-269 288.5,-301"/>
<text text-anchor="start" x="165.75" y="-287.5" font-family="Helvetica,sans-Serif" font-size="10.00">AsyncFw::AbstractSocket</text>
<text text-anchor="middle" x="223.12" y="-275.5" font-family="Helvetica,sans-Serif" font-size="10.00">::destroy</text>
</a>
</g>
</g>
<!-- Node4&#45;&gt;Node5 -->
<g id="edge5_Node000004_Node000005" class="edge">
<title>Node4&#45;&gt;Node5</title>
<g id="a_edge5_Node000004_Node000005"><a xlink:title=" ">
<path fill="none" stroke="#63b8ff" d="M331.71,-285C317.52,-285 302.78,-285 288.93,-285"/>
<polygon fill="#63b8ff" stroke="#63b8ff" points="331.44,-288.5 341.44,-285 331.44,-281.5 331.44,-288.5"/>
</a>
</g>
</g>
<!-- Node6 -->
<g id="Node000006" class="node">
<title>Node6</title>
<g id="a_Node000006"><a xlink:href="classAsyncFw_1_1HttpSocket.html#a8268467d3581a4d393e9ccd288de32ff" target="_top" xlink:title="Schedules the socket for deferred asynchronous destruction.">
<polygon fill="white" stroke="#666666" points="112.75,-301 0,-301 0,-269 112.75,-269 112.75,-301"/>
<text text-anchor="start" x="8" y="-287.5" font-family="Helvetica,sans-Serif" font-size="10.00">AsyncFw::HttpSocket</text>
<text text-anchor="middle" x="56.38" y="-275.5" font-family="Helvetica,sans-Serif" font-size="10.00">::destroy</text>
</a>
</g>
</g>
<!-- Node5&#45;&gt;Node6 -->
<g id="edge6_Node000005_Node000006" class="edge">
<title>Node5&#45;&gt;Node6</title>
<g id="a_edge6_Node000005_Node000006"><a xlink:title=" ">
<path fill="none" stroke="#63b8ff" d="M146,-285C134.89,-285 123.62,-285 113.02,-285"/>
<polygon fill="#63b8ff" stroke="#63b8ff" points="145.97,-288.5 155.97,-285 145.97,-281.5 145.97,-288.5"/>
</a>
</g>
</g>
<!-- Node8 -->
<g id="Node000008" class="node">
<title>Node8</title>
<g id="a_Node000008"><a xlink:href="classAsyncFw_1_1FileSystemWatcher.html#a16b4210d215a3b340c98f650d2071114" target="_top" xlink:title="Retrieves the global instance pointer of the active FileSystemWatcher.">
<polygon fill="white" stroke="#666666" points="297.5,-207 148.75,-207 148.75,-175 297.5,-175 297.5,-207"/>
<text text-anchor="start" x="156.75" y="-193.5" font-family="Helvetica,sans-Serif" font-size="10.00">AsyncFw::FileSystemWatcher</text>
<text text-anchor="middle" x="223.12" y="-181.5" font-family="Helvetica,sans-Serif" font-size="10.00">::instance</text>
</a>
</g>
</g>
<!-- Node7&#45;&gt;Node8 -->
<g id="edge8_Node000007_Node000008" class="edge">
<title>Node7&#45;&gt;Node8</title>
<g id="a_edge8_Node000007_Node000008"><a xlink:title=" ">
<path fill="none" stroke="#63b8ff" d="M321.56,-191C313.66,-191 305.69,-191 297.91,-191"/>
<polygon fill="#63b8ff" stroke="#63b8ff" points="321.56,-194.5 331.56,-191 321.56,-187.5 321.56,-194.5"/>
</a>
</g>
</g>
<!-- Node10 -->
<g id="Node000010" class="node">
<title>Node10</title>
<g id="a_Node000010"><a xlink:href="classAsyncFw_1_1MulticastDns.html#a61341fa78536e7a787bbbce75116ef3e" target="_top" xlink:title="Returns the global default instance pointer.">
<polygon fill="white" stroke="#666666" points="283.62,-157 162.62,-157 162.62,-125 283.62,-125 283.62,-157"/>
<text text-anchor="start" x="170.62" y="-143.5" font-family="Helvetica,sans-Serif" font-size="10.00">AsyncFw::MulticastDns</text>
<text text-anchor="middle" x="223.12" y="-131.5" font-family="Helvetica,sans-Serif" font-size="10.00">::instance</text>
</a>
</g>
</g>
<!-- Node9&#45;&gt;Node10 -->
<g id="edge10_Node000009_Node000010" class="edge">
<title>Node9&#45;&gt;Node10</title>
<g id="a_edge10_Node000009_Node000010"><a xlink:title=" ">
<path fill="none" stroke="#63b8ff" d="M335.95,-141C318.82,-141 300.67,-141 284.1,-141"/>
<polygon fill="#63b8ff" stroke="#63b8ff" points="335.52,-144.5 345.52,-141 335.52,-137.5 335.52,-144.5"/>
</a>
</g>
</g>
<!-- Node13 -->
<g id="Node000013" class="node">
<title>Node13</title>
<g id="a_Node000013"><a xlink:href="structAsyncFw_1_1CoroutineTask.html#a820a0a3410c4a14a71ad3599f46c1bb0" target="_top" xlink:title="Runs nested Thread::exec() and wait for task finished.">
<polygon fill="white" stroke="#666666" points="286.25,-82 160,-82 160,-50 286.25,-50 286.25,-82"/>
<text text-anchor="start" x="168" y="-68.5" font-family="Helvetica,sans-Serif" font-size="10.00">AsyncFw::CoroutineTask</text>
<text text-anchor="middle" x="223.12" y="-56.5" font-family="Helvetica,sans-Serif" font-size="10.00">::wait</text>
</a>
</g>
</g>
<!-- Node12&#45;&gt;Node13 -->
<g id="edge13_Node000012_Node000013" class="edge">
<title>Node12&#45;&gt;Node13</title>
<g id="a_edge13_Node000012_Node000013"><a xlink:title=" ">
<path fill="none" stroke="#63b8ff" d="M331.26,-51.34C316.45,-53.37 301.07,-55.47 286.75,-57.43"/>
<polygon fill="#63b8ff" stroke="#63b8ff" points="331.51,-54.84 340.94,-50.02 330.56,-47.91 331.51,-54.84"/>
</a>
</g>
</g>
<!-- Node14 -->
<g id="Node000014" class="node">
<title>Node14</title>
<g id="a_Node000014"><a xlink:href="classAsyncFw_1_1SystemProcess.html#a98555529994f67d993e103999604f1ed" target="_top" xlink:title="Blocks current execution frame until process finishes. Spins a nested Event Loop, allowing other thre...">
<polygon fill="white" stroke="#666666" points="289.62,-32 156.62,-32 156.62,0 289.62,0 289.62,-32"/>
<text text-anchor="start" x="164.62" y="-18.5" font-family="Helvetica,sans-Serif" font-size="10.00">AsyncFw::SystemProcess</text>
<text text-anchor="middle" x="223.12" y="-6.5" font-family="Helvetica,sans-Serif" font-size="10.00">::wait</text>
</a>
</g>
</g>
<!-- Node12&#45;&gt;Node14 -->
<g id="edge14_Node000012_Node000014" class="edge">
<title>Node12&#45;&gt;Node14</title>
<g id="a_edge14_Node000012_Node000014"><a xlink:title=" ">
<path fill="none" stroke="#63b8ff" d="M331.08,-30.63C317.38,-28.76 303.2,-26.82 289.83,-24.99"/>
<polygon fill="#63b8ff" stroke="#63b8ff" points="330.56,-34.09 340.94,-31.98 331.51,-27.16 330.56,-34.09"/>
</a>
</g>
</g>
<!-- Node15&#45;&gt;Node4 -->
<g id="edge16_Node000015_Node000004" class="edge">
<title>Node15&#45;&gt;Node4</title>
<g id="a_edge16_Node000015_Node000004"><a xlink:title=" ">
<path fill="none" stroke="#63b8ff" d="M506.97,-270.86C495.63,-272.49 484.04,-274.16 472.97,-275.76"/>
<polygon fill="#63b8ff" stroke="#63b8ff" points="507.29,-274.35 516.69,-269.45 506.29,-267.42 507.29,-274.35"/>
</a>
</g>
</g>
<!-- Node15&#45;&gt;Node15 -->
<g id="edge17_Node000015_Node000015" class="edge">
<title>Node15&#45;&gt;Node15</title>
<g id="a_edge17_Node000015_Node000015"><a xlink:title=" ">
<path fill="none" stroke="#63b8ff" d="M612.59,-281.44C608.81,-285.3 599.03,-288 583.25,-288 554.39,-288 545.6,-278.98 556.87,-270.34"/>
<polygon fill="#63b8ff" stroke="#63b8ff" points="615.98,-280.56 610.02,-271.8 609.21,-282.37 615.98,-280.56"/>
</a>
</g>
</g>
</g>
</svg>
