<?xml version="1.0" encoding="UTF-8" standalone="no"?>
<!DOCTYPE svg PUBLIC "-//W3C//DTD SVG 1.1//EN"
 "http://www.w3.org/Graphics/SVG/1.1/DTD/svg11.dtd">
<!-- Generated by graphviz version 14.1.3 (20260303.0454)
 -->
<!-- Title: AsyncFw::HttpSocket::writeEvent Pages: 1 -->
<svg width="968pt" height="212pt"
 viewBox="0.00 0.00 968.00 212.00" xmlns="http://www.w3.org/2000/svg" xmlns:xlink="http://www.w3.org/1999/xlink">
<g id="graph0" class="graph" transform="scale(1 1) rotate(0) translate(4 208)">
<title>AsyncFw::HttpSocket::writeEvent</title>
<!-- Node1 -->
<g id="Node000001" class="node">
<title>Node1</title>
<g id="a_Node000001"><a xlink:title="Called when writing to the socket is possible.">
<polygon fill="#999999" stroke="#666666" points="112.75,-132 0,-132 0,-100 112.75,-100 112.75,-132"/>
<text xml:space="preserve" text-anchor="start" x="8" y="-118.5" font-family="Helvetica,sans-Serif" font-size="10.00">AsyncFw::HttpSocket</text>
<text xml:space="preserve" text-anchor="middle" x="56.38" y="-106.5" font-family="Helvetica,sans-Serif" font-size="10.00">::writeEvent</text>
</a>
</g>
</g>
<!-- Node2 -->
<g id="Node000002" class="node">
<title>Node2</title>
<g id="a_Node000002"><a xlink:href="classAsyncFw_1_1HttpSocket.html#a33dadd18584b3b2b76a02dffa0a831fb" target="_top" xlink:title="Shuts down the active TLS session gracefully via SSL_shutdown() before terminating the network pipe.">
<polygon fill="white" stroke="#666666" points="270.5,-182 157.75,-182 157.75,-150 270.5,-150 270.5,-182"/>
<text xml:space="preserve" text-anchor="start" x="165.75" y="-168.5" font-family="Helvetica,sans-Serif" font-size="10.00">AsyncFw::HttpSocket</text>
<text xml:space="preserve" text-anchor="middle" x="214.12" y="-156.5" font-family="Helvetica,sans-Serif" font-size="10.00">::disconnect</text>
</a>
</g>
</g>
<!-- Node1&#45;&gt;Node2 -->
<g id="edge1_Node000001_Node000002" class="edge">
<title>Node1&#45;&gt;Node2</title>
<g id="a_edge1_Node000001_Node000002"><a xlink:title=" ">
<path fill="none" stroke="#63b8ff" d="M108.37,-132.37C122.02,-136.75 136.92,-141.54 151.09,-146.08"/>
<polygon fill="#63b8ff" stroke="#63b8ff" points="149.71,-149.32 160.3,-149.04 151.85,-142.65 149.71,-149.32"/>
</a>
</g>
</g>
<!-- Node7 -->
<g id="Node000007" class="node">
<title>Node7</title>
<g id="a_Node000007"><a xlink:href="classAsyncFw_1_1AbstractSocket.html#a5cc266f87cd4666f10b85a2c52b762bb" target="_top" xlink:title="Returns the number of bytes of data pending to be write.">
<polygon fill="white" stroke="#666666" points="279.5,-132 148.75,-132 148.75,-100 279.5,-100 279.5,-132"/>
<text xml:space="preserve" text-anchor="start" x="156.75" y="-118.5" font-family="Helvetica,sans-Serif" font-size="10.00">AsyncFw::AbstractSocket</text>
<text xml:space="preserve" text-anchor="middle" x="214.12" y="-106.5" font-family="Helvetica,sans-Serif" font-size="10.00">::pendingWrite</text>
</a>
</g>
</g>
<!-- Node1&#45;&gt;Node7 -->
<g id="edge7_Node000001_Node000007" class="edge">
<title>Node1&#45;&gt;Node7</title>
<g id="a_edge7_Node000001_Node000007"><a xlink:title=" ">
<path fill="none" stroke="#63b8ff" d="M113.16,-116C120.94,-116 129.03,-116 137.09,-116"/>
<polygon fill="#63b8ff" stroke="#63b8ff" points="136.93,-119.5 146.93,-116 136.93,-112.5 136.93,-119.5"/>
</a>
</g>
</g>
<!-- Node8 -->
<g id="Node000008" class="node">
<title>Node8</title>
<g id="a_Node000008"><a xlink:href="classAsyncFw_1_1AbstractSocket.html#a6b5bfbc488d553dca8a2d01b6b415482" target="_top" xlink:title="Writes raw binary bytes out to the network socket layer.">
<polygon fill="white" stroke="#666666" points="279.5,-82 148.75,-82 148.75,-50 279.5,-50 279.5,-82"/>
<text xml:space="preserve" text-anchor="start" x="156.75" y="-68.5" font-family="Helvetica,sans-Serif" font-size="10.00">AsyncFw::AbstractSocket</text>
<text xml:space="preserve" text-anchor="middle" x="214.12" y="-56.5" font-family="Helvetica,sans-Serif" font-size="10.00">::write</text>
</a>
</g>
</g>
<!-- Node1&#45;&gt;Node8 -->
<g id="edge8_Node000001_Node000008" class="edge">
<title>Node1&#45;&gt;Node8</title>
<g id="a_edge8_Node000001_Node000008"><a xlink:title=" ">
<path fill="none" stroke="#63b8ff" d="M108.37,-99.63C122.02,-95.25 136.92,-90.46 151.09,-85.92"/>
<polygon fill="#63b8ff" stroke="#63b8ff" points="151.85,-89.35 160.3,-82.96 149.71,-82.68 151.85,-89.35"/>
</a>
</g>
</g>
<!-- Node3 -->
<g id="Node000003" class="node">
<title>Node3</title>
<g id="a_Node000003"><a xlink:href="classAsyncFw_1_1AbstractTlsSocket.html#af52f94f709ab74eace61da79cbd8af7d" target="_top" xlink:title="Shuts down the active TLS session gracefully via SSL_shutdown() before terminating the network pipe.">
<polygon fill="white" stroke="#666666" points="459.75,-182 315.5,-182 315.5,-150 459.75,-150 459.75,-182"/>
<text xml:space="preserve" text-anchor="start" x="323.5" y="-168.5" font-family="Helvetica,sans-Serif" font-size="10.00">AsyncFw::AbstractTlsSocket</text>
<text xml:space="preserve" text-anchor="middle" x="387.62" y="-156.5" font-family="Helvetica,sans-Serif" font-size="10.00">::disconnect</text>
</a>
</g>
</g>
<!-- Node2&#45;&gt;Node3 -->
<g id="edge2_Node000002_Node000003" class="edge">
<title>Node2&#45;&gt;Node3</title>
<g id="a_edge2_Node000002_Node000003"><a xlink:title=" ">
<path fill="none" stroke="#63b8ff" d="M270.81,-166C281.44,-166 292.79,-166 304.06,-166"/>
<polygon fill="#63b8ff" stroke="#63b8ff" points="303.76,-169.5 313.76,-166 303.76,-162.5 303.76,-169.5"/>
</a>
</g>
</g>
<!-- Node4 -->
<g id="Node000004" class="node">
<title>Node4</title>
<g id="a_Node000004"><a xlink:href="classAsyncFw_1_1AbstractSocket.html#a96c331ff22db7a34923c34f575075e6a" target="_top" xlink:title="Disconnects the socket from the remote host gracefully.">
<polygon fill="white" stroke="#666666" points="626.5,-182 495.75,-182 495.75,-150 626.5,-150 626.5,-182"/>
<text xml:space="preserve" text-anchor="start" x="503.75" y="-168.5" font-family="Helvetica,sans-Serif" font-size="10.00">AsyncFw::AbstractSocket</text>
<text xml:space="preserve" text-anchor="middle" x="561.12" y="-156.5" font-family="Helvetica,sans-Serif" font-size="10.00">::disconnect</text>
</a>
</g>
</g>
<!-- Node3&#45;&gt;Node4 -->
<g id="edge3_Node000003_Node000004" class="edge">
<title>Node3&#45;&gt;Node4</title>
<g id="a_edge3_Node000003_Node000004"><a xlink:title=" ">
<path fill="none" stroke="#63b8ff" d="M459.87,-166C467.87,-166 476.05,-166 484.12,-166"/>
<polygon fill="#63b8ff" stroke="#63b8ff" points="483.9,-169.5 493.9,-166 483.9,-162.5 483.9,-169.5"/>
</a>
</g>
</g>
<!-- Node5 -->
<g id="Node000005" class="node">
<title>Node5</title>
<g id="a_Node000005"><a xlink:href="classAsyncFw_1_1AbstractSocket.html#a77c0a9ea7c5061c406673bbe8b18d60d" target="_top" xlink:title="Closes the network connection and unsubscribes from thread polling events.">
<polygon fill="white" stroke="#666666" points="793.25,-204 662.5,-204 662.5,-172 793.25,-172 793.25,-204"/>
<text xml:space="preserve" text-anchor="start" x="670.5" y="-190.5" font-family="Helvetica,sans-Serif" font-size="10.00">AsyncFw::AbstractSocket</text>
<text xml:space="preserve" text-anchor="middle" x="727.88" y="-178.5" font-family="Helvetica,sans-Serif" font-size="10.00">::close</text>
</a>
</g>
</g>
<!-- Node4&#45;&gt;Node5 -->
<g id="edge4_Node000004_Node000005" class="edge">
<title>Node4&#45;&gt;Node5</title>
<g id="a_edge4_Node000004_Node000005"><a xlink:title=" ">
<path fill="none" stroke="#63b8ff" d="M626.77,-174.63C634.67,-175.69 642.8,-176.77 650.85,-177.85"/>
<polygon fill="#63b8ff" stroke="#63b8ff" points="650.27,-181.3 660.65,-179.16 651.2,-174.36 650.27,-181.3"/>
</a>
</g>
</g>
<!-- Node6 -->
<g id="Node000006" class="node">
<title>Node6</title>
<g id="a_Node000006"><a xlink:href="classAsyncFw_1_1AbstractSocket.html#a5db12267a6d2241e81f570463f2d7ef5" target="_top" xlink:title="Called when the connection state changes.">
<polygon fill="white" stroke="#666666" points="960,-182 829.25,-182 829.25,-150 960,-150 960,-182"/>
<text xml:space="preserve" text-anchor="start" x="837.25" y="-168.5" font-family="Helvetica,sans-Serif" font-size="10.00">AsyncFw::AbstractSocket</text>
<text xml:space="preserve" text-anchor="middle" x="894.62" y="-156.5" font-family="Helvetica,sans-Serif" font-size="10.00">::stateEvent</text>
</a>
</g>
</g>
<!-- Node4&#45;&gt;Node6 -->
<g id="edge6_Node000004_Node000006" class="edge">
<title>Node4&#45;&gt;Node6</title>
<g id="a_edge6_Node000004_Node000006"><a xlink:title=" ">
<path fill="none" stroke="#63b8ff" d="M626.91,-163.78C638.75,-163.45 650.99,-163.17 662.5,-163 720.6,-162.13 735.15,-162.13 793.25,-163 801.07,-163.12 809.23,-163.28 817.37,-163.48"/>
<polygon fill="#63b8ff" stroke="#63b8ff" points="817.24,-166.98 827.32,-163.74 817.42,-159.98 817.24,-166.98"/>
</a>
</g>
</g>
<!-- Node5&#45;&gt;Node6 -->
<g id="edge5_Node000005_Node000006" class="edge">
<title>Node5&#45;&gt;Node6</title>
<g id="a_edge5_Node000005_Node000006"><a xlink:title=" ">
<path fill="none" stroke="#63b8ff" d="M793.52,-179.37C801.42,-178.31 809.55,-177.23 817.6,-176.15"/>
<polygon fill="#63b8ff" stroke="#63b8ff" points="817.95,-179.64 827.4,-174.84 817.02,-172.7 817.95,-179.64"/>
</a>
</g>
</g>
<!-- Node9 -->
<g id="Node000009" class="node">
<title>Node9</title>
<g id="a_Node000009"><a xlink:href="structAsyncFw_1_1AnyData.html#aa6d2c3488a44e34e25a0971b01a27b3c" target="_top" xlink:title="Type&#45;safely extracts and returns the stored data value.">
<polygon fill="white" stroke="#666666" points="624.25,-98 498,-98 498,-78 624.25,-78 624.25,-98"/>
<text xml:space="preserve" text-anchor="middle" x="561.12" y="-84.5" font-family="Helvetica,sans-Serif" font-size="10.00">AsyncFw::AnyData::data</text>
</a>
</g>
</g>
<!-- Node8&#45;&gt;Node9 -->
<g id="edge9_Node000008_Node000009" class="edge">
<title>Node8&#45;&gt;Node9</title>
<g id="a_edge9_Node000008_Node000009"><a xlink:title=" ">
<path fill="none" stroke="#63b8ff" d="M270.94,-82.46C285.33,-86 300.88,-89.21 315.5,-91 372.48,-97.99 437.49,-96.76 486.16,-94.05"/>
<polygon fill="#63b8ff" stroke="#63b8ff" points="486.25,-97.55 496.02,-93.46 485.83,-90.56 486.25,-97.55"/>
</a>
</g>
</g>
<!-- Node10 -->
<g id="Node000010" class="node">
<title>Node10</title>
<g id="a_Node000010"><a xlink:href="classAsyncFw_1_1AbstractSocket.html#a4659df5988d2af771d4feee9edec55d8" target="_top" xlink:title="Low&#45;level native operating system write operation proxying requests directly up to the fd handle.">
<polygon fill="white" stroke="#666666" points="453,-82 322.25,-82 322.25,-50 453,-50 453,-82"/>
<text xml:space="preserve" text-anchor="start" x="330.25" y="-68.5" font-family="Helvetica,sans-Serif" font-size="10.00">AsyncFw::AbstractSocket</text>
<text xml:space="preserve" text-anchor="middle" x="387.62" y="-56.5" font-family="Helvetica,sans-Serif" font-size="10.00">::write_fd</text>
</a>
</g>
</g>
<!-- Node8&#45;&gt;Node10 -->
<g id="edge10_Node000008_Node000010" class="edge">
<title>Node8&#45;&gt;Node10</title>
<g id="a_edge10_Node000008_Node000010"><a xlink:title=" ">
<path fill="none" stroke="#63b8ff" d="M279.96,-66C289.95,-66 300.35,-66 310.56,-66"/>
<polygon fill="#63b8ff" stroke="#63b8ff" points="310.47,-69.5 320.47,-66 310.47,-62.5 310.47,-69.5"/>
</a>
</g>
</g>
<!-- Node11 -->
<g id="Node000011" class="node">
<title>Node11</title>
<g id="a_Node000011"><a xlink:href="classAsyncFw_1_1AbstractSocket.html#af8141e7714603e6c83c0640a2d74ec90" target="_top" xlink:title="Called when writing to the socket is possible.">
<polygon fill="white" stroke="#666666" points="453,-32 322.25,-32 322.25,0 453,0 453,-32"/>
<text xml:space="preserve" text-anchor="start" x="330.25" y="-18.5" font-family="Helvetica,sans-Serif" font-size="10.00">AsyncFw::AbstractSocket</text>
<text xml:space="preserve" text-anchor="middle" x="387.62" y="-6.5" font-family="Helvetica,sans-Serif" font-size="10.00">::writeEvent</text>
</a>
</g>
</g>
<!-- Node8&#45;&gt;Node11 -->
<g id="edge12_Node000008_Node000011" class="edge">
<title>Node8&#45;&gt;Node11</title>
<g id="a_edge12_Node000008_Node000011"><a xlink:title=" ">
<path fill="none" stroke="#63b8ff" d="M271.28,-49.63C286.6,-45.16 303.35,-40.28 319.23,-35.65"/>
<polygon fill="#63b8ff" stroke="#63b8ff" points="319.98,-39.08 328.6,-32.92 318.02,-32.36 319.98,-39.08"/>
</a>
</g>
</g>
<!-- Node10&#45;&gt;Node9 -->
<g id="edge11_Node000010_Node000009" class="edge">
<title>Node10&#45;&gt;Node9</title>
<g id="a_edge11_Node000010_Node000009"><a xlink:title=" ">
<path fill="none" stroke="#63b8ff" d="M453.46,-74.32C464.23,-75.7 475.47,-77.14 486.44,-78.55"/>
<polygon fill="#63b8ff" stroke="#63b8ff" points="485.88,-82 496.25,-79.81 486.77,-75.06 485.88,-82"/>
</a>
</g>
</g>
</g>
</svg>
