<?xml version="1.0" encoding="UTF-8" standalone="no"?>
<!DOCTYPE svg PUBLIC "-//W3C//DTD SVG 1.1//EN"
 "http://www.w3.org/Graphics/SVG/1.1/DTD/svg11.dtd">
<!-- Generated by graphviz version 14.1.3 (20260303.0454)
 -->
<!-- Title: AsyncFw::ListenSocket Pages: 1 -->
<svg width="863pt" height="157pt"
 viewBox="0.00 0.00 863.00 157.00" xmlns="http://www.w3.org/2000/svg" xmlns:xlink="http://www.w3.org/1999/xlink">
<g id="graph0" class="graph" transform="scale(1 1) rotate(0) translate(4 153)">
<title>AsyncFw::ListenSocket</title>
<!-- Node1 -->
<g id="Node000001" class="node">
<title>Node1</title>
<g id="a_Node000001"><a xlink:title="Server&#45;side socket wrapper specialized for listening and accepting incoming network connections.">
<polygon fill="#999999" stroke="#666666" points="855,-53 734.75,-53 734.75,-33 855,-33 855,-53"/>
<text xml:space="preserve" text-anchor="middle" x="794.88" y="-39.5" font-family="Helvetica,sans-Serif" font-size="10.00">AsyncFw::ListenSocket</text>
</a>
</g>
</g>
<!-- Node2 -->
<g id="Node000002" class="node">
<title>Node2</title>
<g id="a_Node000002"><a xlink:href="classAsyncFw_1_1AbstractSocket.html" target="_top" xlink:title="Abstract base class providing core network socket functionality and OS descriptor abstraction.">
<polygon fill="white" stroke="#666666" points="697.75,-84 567,-84 567,-64 697.75,-64 697.75,-84"/>
<text xml:space="preserve" text-anchor="middle" x="632.38" y="-70.5" font-family="Helvetica,sans-Serif" font-size="10.00">AsyncFw::AbstractSocket</text>
</a>
</g>
</g>
<!-- Node2&#45;&gt;Node1 -->
<g id="edge1_Node000001_Node000002" class="edge">
<title>Node2&#45;&gt;Node1</title>
<g id="a_edge1_Node000001_Node000002"><a xlink:title=" ">
<path fill="none" stroke="#8b1a1a" d="M698.9,-61.34C712.42,-58.73 726.52,-56.01 739.59,-53.48"/>
<polygon fill="#8b1a1a" stroke="#8b1a1a" points="698.35,-57.88 689.2,-63.22 699.68,-64.76 698.35,-57.88"/>
</a>
</g>
</g>
<!-- Node3 -->
<g id="Node000003" class="node">
<title>Node3</title>
<g id="a_Node000003"><a xlink:href="structAsyncFw_1_1AnyData.html" target="_top" xlink:title="A generic, type&#45;safe data container block wrapper utilizing std::any.">
<polygon fill="white" stroke="#666666" points="385.25,-122 283.75,-122 283.75,-102 385.25,-102 385.25,-122"/>
<text xml:space="preserve" text-anchor="middle" x="334.5" y="-108.5" font-family="Helvetica,sans-Serif" font-size="10.00">AsyncFw::AnyData</text>
</a>
</g>
</g>
<!-- Node3&#45;&gt;Node2 -->
<g id="edge2_Node000002_Node000003" class="edge">
<title>Node3&#45;&gt;Node2</title>
<g id="a_edge2_Node000002_Node000003"><a xlink:title=" ">
<path fill="none" stroke="#63b8ff" d="M396.81,-110.43C439.68,-108.6 498.14,-104.62 549,-96 565.35,-93.23 583.16,-88.67 598.02,-84.42"/>
<polygon fill="#63b8ff" stroke="#63b8ff" points="396.79,-106.93 386.94,-110.82 397.07,-113.92 396.79,-106.93"/>
</a>
</g>
</g>
<!-- Node4 -->
<g id="Node000004" class="node">
<title>Node4</title>
<g id="a_Node000004"><a xlink:href="classAsyncFw_1_1Thread.html" target="_top" xlink:title="AsyncFw::Thread thread with sockets.">
<polygon fill="white" stroke="#666666" points="381.12,-84 287.88,-84 287.88,-64 381.12,-64 381.12,-84"/>
<text xml:space="preserve" text-anchor="middle" x="334.5" y="-70.5" font-family="Helvetica,sans-Serif" font-size="10.00">AsyncFw::Thread</text>
</a>
</g>
</g>
<!-- Node4&#45;&gt;Node2 -->
<g id="edge3_Node000002_Node000004" class="edge">
<title>Node4&#45;&gt;Node2</title>
<g id="a_edge3_Node000002_Node000004"><a xlink:title=" ">
<path fill="none" stroke="#9a32cd" stroke-dasharray="5,2" d="M392.62,-74C442.45,-74 514.71,-74 566.66,-74"/>
<polygon fill="#9a32cd" stroke="#9a32cd" points="392.92,-70.5 382.92,-74 392.92,-77.5 392.92,-70.5"/>
</a>
</g>
<text xml:space="preserve" text-anchor="start" x="460" y="-79.25" font-family="Helvetica,sans-Serif" font-size="10.00" fill="grey">thread_</text>
</g>
<!-- Node5 -->
<g id="Node000005" class="node">
<title>Node5</title>
<g id="a_Node000005"><a xlink:href="classAsyncFw_1_1AbstractThread.html" target="_top" xlink:title="The AbstractThread class provides the base functionality for thread management.">
<polygon fill="white" stroke="#666666" points="137.88,-149 7.88,-149 7.88,-129 137.88,-129 137.88,-149"/>
<text xml:space="preserve" text-anchor="middle" x="72.88" y="-135.5" font-family="Helvetica,sans-Serif" font-size="10.00">AsyncFw::AbstractThread</text>
</a>
</g>
</g>
<!-- Node5&#45;&gt;Node4 -->
<g id="edge4_Node000004_Node000005" class="edge">
<title>Node5&#45;&gt;Node4</title>
<g id="a_edge4_Node000004_Node000005"><a xlink:title=" ">
<path fill="none" stroke="#63b8ff" d="M149.56,-146.12C186.94,-146.15 231.29,-140.69 265.75,-120 278.11,-112.58 272.48,-102 283.75,-93 288.01,-89.6 292.95,-86.75 298.03,-84.39"/>
<polygon fill="#63b8ff" stroke="#63b8ff" points="149.77,-142.62 139.72,-145.97 149.66,-149.62 149.77,-142.62"/>
</a>
</g>
</g>
<!-- Node6 -->
<g id="Node000006" class="node">
<title>Node6</title>
<g id="a_Node000006"><a xlink:href="classAsyncFw_1_1FunctionConnector.html" target="_top" xlink:title="Provides a thread&#45;safe, publisher&#45;subscriber mechanism to establish sender&#45;to&#45;receivers connections.">
<polygon fill="white" stroke="#666666" points="145.75,-62 0,-62 0,-30 145.75,-30 145.75,-62"/>
<text xml:space="preserve" text-anchor="start" x="8" y="-48.5" font-family="Helvetica,sans-Serif" font-size="10.00">AsyncFw::FunctionConnector</text>
<text xml:space="preserve" text-anchor="middle" x="72.88" y="-36.5" font-family="Helvetica,sans-Serif" font-size="10.00">&lt; Args &gt;</text>
</a>
</g>
</g>
<!-- Node6&#45;&gt;Node4 -->
<g id="edge5_Node000004_Node000006" class="edge">
<title>Node6&#45;&gt;Node4</title>
<g id="a_edge5_Node000004_Node000006"><a xlink:title=" ">
<path fill="none" stroke="#9a32cd" stroke-dasharray="5,2" d="M157.57,-55.03C200.74,-59.68 251.74,-65.18 287.69,-69.06"/>
<polygon fill="#9a32cd" stroke="#9a32cd" points="158.02,-51.55 147.7,-53.96 157.27,-58.51 158.02,-51.55"/>
</a>
</g>
<text xml:space="preserve" text-anchor="start" x="194.88" y="-103.74" font-family="Helvetica,sans-Serif" font-size="10.00" fill="grey">destroing</text>
<text xml:space="preserve" text-anchor="start" x="194.88" y="-87.74" font-family="Helvetica,sans-Serif" font-size="10.00" fill="grey">finished</text>
<text xml:space="preserve" text-anchor="start" x="194.88" y="-71.74" font-family="Helvetica,sans-Serif" font-size="10.00" fill="grey">started</text>
</g>
<!-- Node7 -->
<g id="Node000007" class="node">
<title>Node7</title>
<g id="a_Node000007"><a xlink:href="classAsyncFw_1_1FunctionConnector.html" target="_top" xlink:title=" ">
<polygon fill="white" stroke="#666666" points="549,-44 403.25,-44 403.25,0 549,0 549,-44"/>
<text xml:space="preserve" text-anchor="start" x="411.25" y="-30.5" font-family="Helvetica,sans-Serif" font-size="10.00">AsyncFw::FunctionConnector</text>
<text xml:space="preserve" text-anchor="start" x="411.25" y="-18.5" font-family="Helvetica,sans-Serif" font-size="10.00">&lt; int, const std::string</text>
<text xml:space="preserve" text-anchor="middle" x="476.12" y="-6.5" font-family="Helvetica,sans-Serif" font-size="10.00"> &amp;, bool * &gt;</text>
</a>
</g>
</g>
<!-- Node6&#45;&gt;Node7 -->
<g id="edge7_Node000007_Node000006" class="edge">
<title>Node6&#45;&gt;Node7</title>
<g id="a_edge7_Node000007_Node000006"><a xlink:title=" ">
<path fill="none" stroke="orange" stroke-dasharray="5,2" d="M128.03,-26.25C139.66,-22.82 152,-19.79 163.75,-18 244.99,-5.64 339.53,-9.37 402.93,-14.44"/>
<polygon fill="orange" stroke="orange" points="127.1,-22.87 118.58,-29.18 129.17,-29.56 127.1,-22.87"/>
</a>
</g>
<text xml:space="preserve" text-anchor="start" x="166.75" y="-39.25" font-family="Helvetica,sans-Serif" font-size="10.00" fill="grey">&lt; int, const std::string</text>
<text xml:space="preserve" text-anchor="start" x="166.75" y="-23.25" font-family="Helvetica,sans-Serif" font-size="10.00" fill="grey">   &amp;, bool * &gt;</text>
</g>
<!-- Node7&#45;&gt;Node1 -->
<g id="edge6_Node000001_Node000007" class="edge">
<title>Node7&#45;&gt;Node1</title>
<g id="a_edge6_Node000001_Node000007"><a xlink:title=" ">
<path fill="none" stroke="#9a32cd" stroke-dasharray="5,2" d="M560.81,-27.55C615.42,-31.17 685.42,-35.81 734.38,-39.06"/>
<polygon fill="#9a32cd" stroke="#9a32cd" points="561.12,-24.06 550.91,-26.89 560.65,-31.05 561.12,-24.06"/>
</a>
</g>
<text xml:space="preserve" text-anchor="start" x="612.88" y="-41.71" font-family="Helvetica,sans-Serif" font-size="10.00" fill="grey">incoming</text>
</g>
</g>
</svg>
