<?xml version="1.0" encoding="UTF-8" standalone="no"?>
<!DOCTYPE svg PUBLIC "-//W3C//DTD SVG 1.1//EN"
 "http://www.w3.org/Graphics/SVG/1.1/DTD/svg11.dtd">
<!-- Generated by graphviz version 14.1.3 (20260303.0454)
 -->
<!-- Title: AsyncFw::DataArrayTcpClient::connectToHost Pages: 1 -->
<svg width="514pt" height="208pt"
 viewBox="0.00 0.00 514.00 208.00" xmlns="http://www.w3.org/2000/svg" xmlns:xlink="http://www.w3.org/1999/xlink">
<g id="graph0" class="graph" transform="scale(1 1) rotate(0) translate(4 204)">
<title>AsyncFw::DataArrayTcpClient::connectToHost</title>
<!-- Node1 -->
<g id="Node000001" class="node">
<title>Node1</title>
<g id="a_Node000001"><a xlink:title="Initiates a connection using a pre&#45;configured socket&#39;s internal host settings.">
<polygon fill="#999999" stroke="#666666" points="148,-107 0,-107 0,-75 148,-75 148,-107"/>
<text xml:space="preserve" text-anchor="start" x="8" y="-93.5" font-family="Helvetica,sans-Serif" font-size="10.00">AsyncFw::DataArrayTcpClient</text>
<text xml:space="preserve" text-anchor="middle" x="74" y="-81.5" font-family="Helvetica,sans-Serif" font-size="10.00">::connectToHost</text>
</a>
</g>
</g>
<!-- Node2 -->
<g id="Node000002" class="node">
<title>Node2</title>
<g id="a_Node000002"><a xlink:href="classAsyncFw_1_1DataArrayTcpClient.html#ab1d57ed772640642f422515435d62197" target="_top" xlink:title="Explicitly connects a specific socket to a target host and port.">
<polygon fill="white" stroke="#666666" points="332,-182 184,-182 184,-150 332,-150 332,-182"/>
<text xml:space="preserve" text-anchor="start" x="192" y="-168.5" font-family="Helvetica,sans-Serif" font-size="10.00">AsyncFw::DataArrayTcpClient</text>
<text xml:space="preserve" text-anchor="middle" x="258" y="-156.5" font-family="Helvetica,sans-Serif" font-size="10.00">::connectToHost</text>
</a>
</g>
</g>
<!-- Node1&#45;&gt;Node2 -->
<g id="edge1_Node000001_Node000002" class="edge">
<title>Node1&#45;&gt;Node2</title>
<g id="a_edge1_Node000001_Node000002"><a xlink:title=" ">
<path fill="none" stroke="#63b8ff" d="M108.5,-107.42C129.87,-117.63 158.29,-130.73 184,-141 188.01,-142.6 192.18,-144.2 196.38,-145.77"/>
<polygon fill="#63b8ff" stroke="#63b8ff" points="194.87,-148.94 205.46,-149.06 197.26,-142.36 194.87,-148.94"/>
</a>
</g>
</g>
<!-- Node4 -->
<g id="Node000004" class="node">
<title>Node4</title>
<g id="a_Node000004"><a xlink:href="classAsyncFw_1_1DataArraySocket.html#a5d5d666ae1842125adb08acc2f749926" target="_top" xlink:title="Gets the remote host address previously assigned via setHost.">
<polygon fill="white" stroke="#666666" points="327.12,-132 188.88,-132 188.88,-100 327.12,-100 327.12,-132"/>
<text xml:space="preserve" text-anchor="start" x="196.88" y="-118.5" font-family="Helvetica,sans-Serif" font-size="10.00">AsyncFw::DataArraySocket</text>
<text xml:space="preserve" text-anchor="middle" x="258" y="-106.5" font-family="Helvetica,sans-Serif" font-size="10.00">::hostAddress</text>
</a>
</g>
</g>
<!-- Node1&#45;&gt;Node4 -->
<g id="edge4_Node000001_Node000004" class="edge">
<title>Node1&#45;&gt;Node4</title>
<g id="a_edge4_Node000001_Node000004"><a xlink:title=" ">
<path fill="none" stroke="#63b8ff" d="M148.24,-101.06C157.82,-102.38 167.68,-103.73 177.37,-105.06"/>
<polygon fill="#63b8ff" stroke="#63b8ff" points="176.74,-108.51 187.13,-106.4 177.7,-101.57 176.74,-108.51"/>
</a>
</g>
</g>
<!-- Node5 -->
<g id="Node000005" class="node">
<title>Node5</title>
<g id="a_Node000005"><a xlink:href="classAsyncFw_1_1AbstractThread.html#a786474d037b50053f1a97af7b67e6069" target="_top" xlink:title="Runs a function in a managed thread.">
<polygon fill="white" stroke="#666666" points="323,-82 193,-82 193,-50 323,-50 323,-82"/>
<text xml:space="preserve" text-anchor="start" x="201" y="-68.5" font-family="Helvetica,sans-Serif" font-size="10.00">AsyncFw::AbstractThread</text>
<text xml:space="preserve" text-anchor="middle" x="258" y="-56.5" font-family="Helvetica,sans-Serif" font-size="10.00">::invoke</text>
</a>
</g>
</g>
<!-- Node1&#45;&gt;Node5 -->
<g id="edge5_Node000001_Node000005" class="edge">
<title>Node1&#45;&gt;Node5</title>
<g id="a_edge5_Node000001_Node000005"><a xlink:title=" ">
<path fill="none" stroke="#63b8ff" d="M148.24,-80.94C159.16,-79.44 170.44,-77.89 181.41,-76.38"/>
<polygon fill="#63b8ff" stroke="#63b8ff" points="181.77,-79.87 191.21,-75.04 180.82,-72.93 181.77,-79.87"/>
</a>
</g>
</g>
<!-- Node7 -->
<g id="Node000007" class="node">
<title>Node7</title>
<g id="a_Node000007"><a xlink:href="classAsyncFw_1_1AbstractSocket.html#ac1b9b68ae7fe6c9312d9d713a7b444a9" target="_top" xlink:title="Return Thread that manages the socket.">
<polygon fill="white" stroke="#666666" points="323.38,-32 192.62,-32 192.62,0 323.38,0 323.38,-32"/>
<text xml:space="preserve" text-anchor="start" x="200.62" y="-18.5" font-family="Helvetica,sans-Serif" font-size="10.00">AsyncFw::AbstractSocket</text>
<text xml:space="preserve" text-anchor="middle" x="258" y="-6.5" font-family="Helvetica,sans-Serif" font-size="10.00">::thread</text>
</a>
</g>
</g>
<!-- Node1&#45;&gt;Node7 -->
<g id="edge7_Node000001_Node000007" class="edge">
<title>Node1&#45;&gt;Node7</title>
<g id="a_edge7_Node000001_Node000007"><a xlink:title=" ">
<path fill="none" stroke="#63b8ff" d="M108.5,-74.58C129.87,-64.37 158.29,-51.27 184,-41 188.01,-39.4 192.18,-37.8 196.38,-36.23"/>
<polygon fill="#63b8ff" stroke="#63b8ff" points="197.26,-39.64 205.46,-32.94 194.87,-33.06 197.26,-39.64"/>
</a>
</g>
</g>
<!-- Node2&#45;&gt;Node2 -->
<g id="edge2_Node000002_Node000002" class="edge">
<title>Node2&#45;&gt;Node2</title>
<g id="a_edge2_Node000002_Node000002"><a xlink:title=" ">
<path fill="none" stroke="#63b8ff" d="M226.02,-182.44C220.05,-191.58 230.71,-200 258,-200 272.92,-200 282.87,-197.48 287.85,-193.71"/>
<polygon fill="#63b8ff" stroke="#63b8ff" points="291.28,-194.41 289.7,-183.93 284.4,-193.11 291.28,-194.41"/>
</a>
</g>
</g>
<!-- Node3 -->
<g id="Node000003" class="node">
<title>Node3</title>
<g id="a_Node000003"><a xlink:href="classAsyncFw_1_1DataArraySocket.html#ad3f44b667eb9f7b721e5216635ff67ee" target="_top" xlink:title="Configures the remote host address and port for subsequent connection attempts.">
<polygon fill="white" stroke="#666666" points="506.25,-182 368,-182 368,-150 506.25,-150 506.25,-182"/>
<text xml:space="preserve" text-anchor="start" x="376" y="-168.5" font-family="Helvetica,sans-Serif" font-size="10.00">AsyncFw::DataArraySocket</text>
<text xml:space="preserve" text-anchor="middle" x="437.12" y="-156.5" font-family="Helvetica,sans-Serif" font-size="10.00">::setHost</text>
</a>
</g>
</g>
<!-- Node2&#45;&gt;Node3 -->
<g id="edge3_Node000002_Node000003" class="edge">
<title>Node2&#45;&gt;Node3</title>
<g id="a_edge3_Node000002_Node000003"><a xlink:title=" ">
<path fill="none" stroke="#63b8ff" d="M332.32,-166C340.28,-166 348.4,-166 356.43,-166"/>
<polygon fill="#63b8ff" stroke="#63b8ff" points="356.17,-169.5 366.17,-166 356.17,-162.5 356.17,-169.5"/>
</a>
</g>
</g>
<!-- Node6 -->
<g id="Node000006" class="node">
<title>Node6</title>
<g id="a_Node000006"><a xlink:href="classAsyncFw_1_1AbstractThread.html#abe96e6b2a1de041f0d25390a6b77e50a" target="_top" xlink:title="Runs a task in a managed thread.">
<polygon fill="white" stroke="#666666" points="502.12,-82 372.12,-82 372.12,-50 502.12,-50 502.12,-82"/>
<text xml:space="preserve" text-anchor="start" x="380.12" y="-68.5" font-family="Helvetica,sans-Serif" font-size="10.00">AsyncFw::AbstractThread</text>
<text xml:space="preserve" text-anchor="middle" x="437.12" y="-56.5" font-family="Helvetica,sans-Serif" font-size="10.00">::invokeTask</text>
</a>
</g>
</g>
<!-- Node5&#45;&gt;Node6 -->
<g id="edge6_Node000005_Node000006" class="edge">
<title>Node5&#45;&gt;Node6</title>
<g id="a_edge6_Node000005_Node000006"><a xlink:title=" ">
<path fill="none" stroke="#63b8ff" d="M323.45,-66C335.49,-66 348.17,-66 360.52,-66"/>
<polygon fill="#63b8ff" stroke="#63b8ff" points="360.21,-69.5 370.21,-66 360.21,-62.5 360.21,-69.5"/>
</a>
</g>
</g>
</g>
</svg>
