<?xml version="1.0" encoding="UTF-8" standalone="no"?>
<!DOCTYPE svg PUBLIC "-//W3C//DTD SVG 1.1//EN"
 "http://www.w3.org/Graphics/SVG/1.1/DTD/svg11.dtd">
<!-- Generated by graphviz version 14.1.3 (20260303.0454)
 -->
<!-- Title: AsyncFw::AbstractTlsSocket::activateEvent Pages: 1 -->
<svg width="666pt" height="209pt"
 viewBox="0.00 0.00 666.00 209.00" xmlns="http://www.w3.org/2000/svg" xmlns:xlink="http://www.w3.org/1999/xlink">
<g id="graph0" class="graph" transform="scale(1 1) rotate(0) translate(4 205.44)">
<title>AsyncFw::AbstractTlsSocket::activateEvent</title>
<!-- Node1 -->
<g id="Node000001" class="node">
<title>Node1</title>
<g id="a_Node000001"><a xlink:title="Core internal event handler reacting to raw descriptor readiness signals.">
<polygon fill="#999999" stroke="#666666" points="144.25,-132 0,-132 0,-100 144.25,-100 144.25,-132"/>
<text xml:space="preserve" text-anchor="start" x="8" y="-118.5" font-family="Helvetica,sans-Serif" font-size="10.00">AsyncFw::AbstractTlsSocket</text>
<text xml:space="preserve" text-anchor="middle" x="72.12" y="-106.5" font-family="Helvetica,sans-Serif" font-size="10.00">::activateEvent</text>
</a>
</g>
</g>
<!-- Node2 -->
<g id="Node000002" class="node">
<title>Node2</title>
<g id="a_Node000002"><a xlink:href="classAsyncFw_1_1AbstractSocket.html#aac7ad6c4f9815d9b8b0817d38864d06d" target="_top" xlink:title="Called when established connection.">
<polygon fill="white" stroke="#666666" points="491.25,-182 360.5,-182 360.5,-150 491.25,-150 491.25,-182"/>
<text xml:space="preserve" text-anchor="start" x="368.5" y="-168.5" font-family="Helvetica,sans-Serif" font-size="10.00">AsyncFw::AbstractSocket</text>
<text xml:space="preserve" text-anchor="middle" x="425.88" y="-156.5" font-family="Helvetica,sans-Serif" font-size="10.00">::activateEvent</text>
</a>
</g>
</g>
<!-- Node1&#45;&gt;Node2 -->
<g id="edge1_Node000001_Node000002" class="edge">
<title>Node1&#45;&gt;Node2</title>
<g id="a_edge1_Node000001_Node000002"><a xlink:title=" ">
<path fill="none" stroke="#63b8ff" d="M89.5,-132.43C109.11,-150.82 143.87,-179.53 180.25,-191 241,-210.15 314.04,-198.49 364.41,-185.42"/>
<polygon fill="#63b8ff" stroke="#63b8ff" points="365.22,-188.82 373.97,-182.84 363.4,-182.06 365.22,-188.82"/>
</a>
</g>
</g>
<!-- Node4 -->
<g id="Node000004" class="node">
<title>Node4</title>
<g id="a_Node000004"><a xlink:href="classAsyncFw_1_1AbstractTlsSocket.html#ad26bb910e65bb758bfed6448e1af7186" target="_top" xlink:title="Intermediate signal hub executed immediately when a secure cryptographic tunnel is fully established.">
<polygon fill="white" stroke="#666666" points="324.5,-182 180.25,-182 180.25,-150 324.5,-150 324.5,-182"/>
<text xml:space="preserve" text-anchor="start" x="188.25" y="-168.5" font-family="Helvetica,sans-Serif" font-size="10.00">AsyncFw::AbstractTlsSocket</text>
<text xml:space="preserve" text-anchor="middle" x="252.38" y="-156.5" font-family="Helvetica,sans-Serif" font-size="10.00">::activateReady</text>
</a>
</g>
</g>
<!-- Node1&#45;&gt;Node4 -->
<g id="edge3_Node000001_Node000004" class="edge">
<title>Node1&#45;&gt;Node4</title>
<g id="a_edge3_Node000001_Node000004"><a xlink:title=" ">
<path fill="none" stroke="#63b8ff" d="M131.49,-132.37C147.57,-136.88 165.16,-141.82 181.8,-146.48"/>
<polygon fill="#63b8ff" stroke="#63b8ff" points="180.54,-149.77 191.12,-149.1 182.43,-143.03 180.54,-149.77"/>
</a>
</g>
</g>
<!-- Node5 -->
<g id="Node000005" class="node">
<title>Node5</title>
<g id="a_Node000005"><a xlink:href="classAsyncFw_1_1AbstractTlsSocket.html#a46dbd8e4895445214a4f46ee46433d6c" target="_top" xlink:title="Immediately releases OpenSSL session pointers and forcefully closes the system&#45;level descriptor.">
<polygon fill="white" stroke="#666666" points="324.5,-132 180.25,-132 180.25,-100 324.5,-100 324.5,-132"/>
<text xml:space="preserve" text-anchor="start" x="188.25" y="-118.5" font-family="Helvetica,sans-Serif" font-size="10.00">AsyncFw::AbstractTlsSocket</text>
<text xml:space="preserve" text-anchor="middle" x="252.38" y="-106.5" font-family="Helvetica,sans-Serif" font-size="10.00">::close</text>
</a>
</g>
</g>
<!-- Node1&#45;&gt;Node5 -->
<g id="edge5_Node000001_Node000005" class="edge">
<title>Node1&#45;&gt;Node5</title>
<g id="a_edge5_Node000001_Node000005"><a xlink:title=" ">
<path fill="none" stroke="#63b8ff" d="M144.6,-116C152.5,-116 160.59,-116 168.61,-116"/>
<polygon fill="#63b8ff" stroke="#63b8ff" points="168.37,-119.5 178.37,-116 168.37,-112.5 168.37,-119.5"/>
</a>
</g>
</g>
<!-- Node7 -->
<g id="Node000007" class="node">
<title>Node7</title>
<g id="a_Node000007"><a xlink:href="classAsyncFw_1_1AbstractSocket.html#adf2d96f44c3abf205e637f3809bc614d" target="_top" xlink:title="Configures or overrides the internal error code.">
<polygon fill="white" stroke="#666666" points="317.75,-82 187,-82 187,-50 317.75,-50 317.75,-82"/>
<text xml:space="preserve" text-anchor="start" x="195" y="-68.5" font-family="Helvetica,sans-Serif" font-size="10.00">AsyncFw::AbstractSocket</text>
<text xml:space="preserve" text-anchor="middle" x="252.38" y="-56.5" font-family="Helvetica,sans-Serif" font-size="10.00">::setError</text>
</a>
</g>
</g>
<!-- Node1&#45;&gt;Node7 -->
<g id="edge8_Node000001_Node000007" class="edge">
<title>Node1&#45;&gt;Node7</title>
<g id="a_edge8_Node000001_Node000007"><a xlink:title=" ">
<path fill="none" stroke="#63b8ff" d="M131.49,-99.63C147.57,-95.12 165.16,-90.18 181.8,-85.52"/>
<polygon fill="#63b8ff" stroke="#63b8ff" points="182.43,-88.97 191.12,-82.9 180.54,-82.23 182.43,-88.97"/>
</a>
</g>
</g>
<!-- Node8 -->
<g id="Node000008" class="node">
<title>Node8</title>
<g id="a_Node000008"><a xlink:href="classAsyncFw_1_1AbstractSocket.html#aee9d948ab5f79cb9c0c45da1709c1159" target="_top" xlink:title="Updates the human&#45;readable error description buffer string.">
<polygon fill="white" stroke="#666666" points="317.75,-32 187,-32 187,0 317.75,0 317.75,-32"/>
<text xml:space="preserve" text-anchor="start" x="195" y="-18.5" font-family="Helvetica,sans-Serif" font-size="10.00">AsyncFw::AbstractSocket</text>
<text xml:space="preserve" text-anchor="middle" x="252.38" y="-6.5" font-family="Helvetica,sans-Serif" font-size="10.00">::setErrorString</text>
</a>
</g>
</g>
<!-- Node1&#45;&gt;Node8 -->
<g id="edge9_Node000001_Node000008" class="edge">
<title>Node1&#45;&gt;Node8</title>
<g id="a_edge9_Node000001_Node000008"><a xlink:title=" ">
<path fill="none" stroke="#63b8ff" d="M93,-99.58C113.75,-83.06 147.73,-57.7 180.25,-41 183.09,-39.54 186.03,-38.14 189.03,-36.78"/>
<polygon fill="#63b8ff" stroke="#63b8ff" points="190.15,-40.11 198,-32.99 187.43,-33.66 190.15,-40.11"/>
</a>
</g>
</g>
<!-- Node3 -->
<g id="Node000003" class="node">
<title>Node3</title>
<g id="a_Node000003"><a xlink:href="classAsyncFw_1_1AbstractSocket.html#a5db12267a6d2241e81f570463f2d7ef5" target="_top" xlink:title="Called when the connection state changes.">
<polygon fill="white" stroke="#666666" points="658,-157 527.25,-157 527.25,-125 658,-125 658,-157"/>
<text xml:space="preserve" text-anchor="start" x="535.25" y="-143.5" font-family="Helvetica,sans-Serif" font-size="10.00">AsyncFw::AbstractSocket</text>
<text xml:space="preserve" text-anchor="middle" x="592.62" y="-131.5" font-family="Helvetica,sans-Serif" font-size="10.00">::stateEvent</text>
</a>
</g>
</g>
<!-- Node2&#45;&gt;Node3 -->
<g id="edge2_Node000002_Node000003" class="edge">
<title>Node2&#45;&gt;Node3</title>
<g id="a_edge2_Node000002_Node000003"><a xlink:title=" ">
<path fill="none" stroke="#63b8ff" d="M491.52,-156.19C499.42,-154.99 507.55,-153.76 515.6,-152.54"/>
<polygon fill="#63b8ff" stroke="#63b8ff" points="516.04,-156.01 525.4,-151.05 514.99,-149.09 516.04,-156.01"/>
</a>
</g>
</g>
<!-- Node4&#45;&gt;Node2 -->
<g id="edge4_Node000004_Node000002" class="edge">
<title>Node4&#45;&gt;Node2</title>
<g id="a_edge4_Node000004_Node000002"><a xlink:title=" ">
<path fill="none" stroke="#63b8ff" d="M324.62,-166C332.62,-166 340.8,-166 348.87,-166"/>
<polygon fill="#63b8ff" stroke="#63b8ff" points="348.65,-169.5 358.65,-166 348.65,-162.5 348.65,-169.5"/>
</a>
</g>
</g>
<!-- Node6 -->
<g id="Node000006" class="node">
<title>Node6</title>
<g id="a_Node000006"><a xlink:href="classAsyncFw_1_1AbstractSocket.html#a77c0a9ea7c5061c406673bbe8b18d60d" target="_top" xlink:title="Closes the network connection and unsubscribes from thread polling events.">
<polygon fill="white" stroke="#666666" points="491.25,-132 360.5,-132 360.5,-100 491.25,-100 491.25,-132"/>
<text xml:space="preserve" text-anchor="start" x="368.5" y="-118.5" font-family="Helvetica,sans-Serif" font-size="10.00">AsyncFw::AbstractSocket</text>
<text xml:space="preserve" text-anchor="middle" x="425.88" y="-106.5" font-family="Helvetica,sans-Serif" font-size="10.00">::close</text>
</a>
</g>
</g>
<!-- Node5&#45;&gt;Node6 -->
<g id="edge6_Node000005_Node000006" class="edge">
<title>Node5&#45;&gt;Node6</title>
<g id="a_edge6_Node000005_Node000006"><a xlink:title=" ">
<path fill="none" stroke="#63b8ff" d="M324.62,-116C332.62,-116 340.8,-116 348.87,-116"/>
<polygon fill="#63b8ff" stroke="#63b8ff" points="348.65,-119.5 358.65,-116 348.65,-112.5 348.65,-119.5"/>
</a>
</g>
</g>
<!-- Node6&#45;&gt;Node3 -->
<g id="edge7_Node000006_Node000003" class="edge">
<title>Node6&#45;&gt;Node3</title>
<g id="a_edge7_Node000006_Node000003"><a xlink:title=" ">
<path fill="none" stroke="#63b8ff" d="M491.52,-125.81C499.42,-127.01 507.55,-128.24 515.6,-129.46"/>
<polygon fill="#63b8ff" stroke="#63b8ff" points="514.99,-132.91 525.4,-130.95 516.04,-125.99 514.99,-132.91"/>
</a>
</g>
</g>
</g>
</svg>
