<?xml version="1.0" encoding="UTF-8" standalone="no"?>
<!DOCTYPE svg PUBLIC "-//W3C//DTD SVG 1.1//EN"
 "http://www.w3.org/Graphics/SVG/1.1/DTD/svg11.dtd">
<!-- Generated by graphviz version 12.2.1 (20241206.2353)
 -->
<!-- Title: AsyncFw::Timer::single Pages: 1 -->
<svg width="453pt" height="66pt"
 viewBox="0.00 0.00 452.75 66.00" xmlns="http://www.w3.org/2000/svg" xmlns:xlink="http://www.w3.org/1999/xlink">
<g id="graph0" class="graph" transform="scale(1 1) rotate(0) translate(4 62)">
<title>AsyncFw::Timer::single</title>
<!-- Node1 -->
<g id="Node000001" class="node">
<title>Node1</title>
<g id="a_Node000001"><a xlink:title="Starts a single shot timer with the specified timeout.">
<polygon fill="#999999" stroke="#666666" points="444.75,-39 325.25,-39 325.25,-19 444.75,-19 444.75,-39"/>
<text text-anchor="middle" x="385" y="-25.5" font-family="Helvetica,sans-Serif" font-size="10.00">AsyncFw::Timer::single</text>
</a>
</g>
</g>
<!-- Node2 -->
<g id="Node000002" class="node">
<title>Node2</title>
<g id="a_Node000002"><a xlink:href="group__coroutine__api.html#ga2f5c202b3a290939feba04811f8ec888" target="_top" xlink:title="Non&#45;blocking coroutine sleep for the specified timeout interval.">
<polygon fill="white" stroke="#666666" points="287,-58 178,-58 178,-38 287,-38 287,-58"/>
<text text-anchor="middle" x="232.5" y="-44.5" font-family="Helvetica,sans-Serif" font-size="10.00">AsyncFw::coTimeout</text>
</a>
</g>
</g>
<!-- Node1&#45;&gt;Node2 -->
<g id="edge1_Node000001_Node000002" class="edge">
<title>Node1&#45;&gt;Node2</title>
<g id="a_edge1_Node000001_Node000002"><a xlink:title=" ">
<path fill="none" stroke="#63b8ff" d="M313.53,-37.9C304.77,-39 295.93,-40.12 287.48,-41.19"/>
<polygon fill="#63b8ff" stroke="#63b8ff" points="313.97,-41.37 323.45,-36.64 313.09,-34.42 313.97,-41.37"/>
</a>
</g>
</g>
<!-- Node3 -->
<g id="Node000003" class="node">
<title>Node3</title>
<g id="a_Node000003"><a xlink:href="classAsyncFw_1_1Timer.html#a14d02d88bd3682afd7c8fd72cc670e46" target="_top" xlink:title="Starts or restarts a timer with the specified timeout. If the timer is already running,...">
<polygon fill="white" stroke="#666666" points="289.25,-20 175.75,-20 175.75,0 289.25,0 289.25,-20"/>
<text text-anchor="middle" x="232.5" y="-6.5" font-family="Helvetica,sans-Serif" font-size="10.00">AsyncFw::Timer::start</text>
</a>
</g>
</g>
<!-- Node1&#45;&gt;Node3 -->
<g id="edge2_Node000001_Node000003" class="edge">
<title>Node1&#45;&gt;Node3</title>
<g id="a_edge2_Node000001_Node000003"><a xlink:title=" ">
<path fill="none" stroke="#63b8ff" d="M313.58,-20.11C305.48,-19.09 297.3,-18.05 289.43,-17.06"/>
<polygon fill="#63b8ff" stroke="#63b8ff" points="313.09,-23.58 323.45,-21.36 313.97,-16.63 313.09,-23.58"/>
</a>
</g>
</g>
<!-- Node4 -->
<g id="Node000004" class="node">
<title>Node4</title>
<g id="a_Node000004"><a xlink:href="classAsyncFw_1_1Timer.html#a2578293bf0bd7eef49a48039853d3b37" target="_top" xlink:title="Asynchronously waits for the specified timeout interval.">
<polygon fill="white" stroke="#666666" points="139.75,-20 0,-20 0,0 139.75,0 139.75,-20"/>
<text text-anchor="middle" x="69.88" y="-6.5" font-family="Helvetica,sans-Serif" font-size="10.00">AsyncFw::Timer::coTimeout</text>
</a>
</g>
</g>
<!-- Node3&#45;&gt;Node4 -->
<g id="edge3_Node000003_Node000004" class="edge">
<title>Node3&#45;&gt;Node4</title>
<g id="a_edge3_Node000003_Node000004"><a xlink:title=" ">
<path fill="none" stroke="#63b8ff" d="M163.91,-10C156.01,-10 147.94,-10 140.02,-10"/>
<polygon fill="#63b8ff" stroke="#63b8ff" points="163.81,-13.5 173.81,-10 163.81,-6.5 163.81,-13.5"/>
</a>
</g>
</g>
</g>
</svg>
