<?xml version="1.0" encoding="UTF-8" standalone="no"?>
<!DOCTYPE svg PUBLIC "-//W3C//DTD SVG 1.1//EN"
 "http://www.w3.org/Graphics/SVG/1.1/DTD/svg11.dtd">
<!-- Generated by graphviz version 14.1.3 (20260303.0454)
 -->
<!-- Title: AsyncFw::AbstractSocket::write Pages: 1 -->
<svg width="472pt" height="78pt"
 viewBox="0.00 0.00 472.00 78.00" xmlns="http://www.w3.org/2000/svg" xmlns:xlink="http://www.w3.org/1999/xlink">
<g id="graph0" class="graph" transform="scale(1 1) rotate(0) translate(4 74)">
<title>AsyncFw::AbstractSocket::write</title>
<!-- Node1 -->
<g id="Node000001" class="node">
<title>Node1</title>
<g id="a_Node000001"><a xlink:title="Writes raw binary bytes out to the network socket layer.">
<polygon fill="#999999" stroke="#666666" points="130.75,-32 0,-32 0,0 130.75,0 130.75,-32"/>
<text xml:space="preserve" text-anchor="start" x="8" y="-18.5" font-family="Helvetica,sans-Serif" font-size="10.00">AsyncFw::AbstractSocket</text>
<text xml:space="preserve" text-anchor="middle" x="65.38" y="-6.5" font-family="Helvetica,sans-Serif" font-size="10.00">::write</text>
</a>
</g>
</g>
<!-- Node2 -->
<g id="Node000002" class="node">
<title>Node2</title>
<g id="a_Node000002"><a xlink:href="structAsyncFw_1_1AnyData.html#aa6d2c3488a44e34e25a0971b01a27b3c" target="_top" xlink:title="Type&#45;safely extracts and returns the stored data value.">
<polygon fill="white" stroke="#666666" points="462,-70 335.75,-70 335.75,-50 462,-50 462,-70"/>
<text xml:space="preserve" text-anchor="middle" x="398.88" y="-56.5" font-family="Helvetica,sans-Serif" font-size="10.00">AsyncFw::AnyData::data</text>
</a>
</g>
</g>
<!-- Node1&#45;&gt;Node2 -->
<g id="edge1_Node000001_Node000002" class="edge">
<title>Node1&#45;&gt;Node2</title>
<g id="a_edge1_Node000001_Node000002"><a xlink:title=" ">
<path fill="none" stroke="#63b8ff" d="M125.75,-32.48C139.15,-35.72 153.37,-38.8 166.75,-41 219.12,-49.62 278.84,-54.4 324.46,-57.01"/>
<polygon fill="#63b8ff" stroke="#63b8ff" points="324.05,-60.49 334.23,-57.54 324.43,-53.5 324.05,-60.49"/>
</a>
</g>
</g>
<!-- Node3 -->
<g id="Node000003" class="node">
<title>Node3</title>
<g id="a_Node000003"><a xlink:href="classAsyncFw_1_1AbstractSocket.html#a4659df5988d2af771d4feee9edec55d8" target="_top" xlink:title="Low&#45;level native operating system write operation proxying requests directly up to the fd handle.">
<polygon fill="white" stroke="#666666" points="297.5,-32 166.75,-32 166.75,0 297.5,0 297.5,-32"/>
<text xml:space="preserve" text-anchor="start" x="174.75" y="-18.5" font-family="Helvetica,sans-Serif" font-size="10.00">AsyncFw::AbstractSocket</text>
<text xml:space="preserve" text-anchor="middle" x="232.12" y="-6.5" font-family="Helvetica,sans-Serif" font-size="10.00">::write_fd</text>
</a>
</g>
</g>
<!-- Node1&#45;&gt;Node3 -->
<g id="edge2_Node000001_Node000003" class="edge">
<title>Node1&#45;&gt;Node3</title>
<g id="a_edge2_Node000001_Node000003"><a xlink:title=" ">
<path fill="none" stroke="#63b8ff" d="M131.02,-9.39C138.92,-9.26 147.05,-9.22 155.1,-9.27"/>
<polygon fill="#63b8ff" stroke="#63b8ff" points="154.85,-12.77 164.89,-9.37 154.93,-5.77 154.85,-12.77"/>
</a>
</g>
</g>
<!-- Node3&#45;&gt;Node1 -->
<g id="edge4_Node000003_Node000001" class="edge">
<title>Node3&#45;&gt;Node1</title>
<g id="a_edge4_Node000003_Node000001"><a xlink:title=" ">
<path fill="none" stroke="#63b8ff" d="M166.4,-22.61C158.49,-22.74 150.36,-22.78 142.31,-22.73"/>
<polygon fill="#63b8ff" stroke="#63b8ff" points="142.57,-19.23 132.53,-22.63 142.49,-26.23 142.57,-19.23"/>
</a>
</g>
</g>
<!-- Node3&#45;&gt;Node2 -->
<g id="edge3_Node000003_Node000002" class="edge">
<title>Node3&#45;&gt;Node2</title>
<g id="a_edge3_Node000003_Node000002"><a xlink:title=" ">
<path fill="none" stroke="#63b8ff" d="M294.47,-32.38C312.18,-37.11 331.28,-42.22 348.19,-46.73"/>
<polygon fill="#63b8ff" stroke="#63b8ff" points="346.92,-50.01 357.49,-49.21 348.73,-43.25 346.92,-50.01"/>
</a>
</g>
</g>
<!-- Node4 -->
<g id="Node000004" class="node">
<title>Node4</title>
<g id="a_Node000004"><a xlink:href="classAsyncFw_1_1AbstractSocket.html#af8141e7714603e6c83c0640a2d74ec90" target="_top" xlink:title="Called when writing to the socket is possible.">
<polygon fill="white" stroke="#666666" points="464.25,-32 333.5,-32 333.5,0 464.25,0 464.25,-32"/>
<text xml:space="preserve" text-anchor="start" x="341.5" y="-18.5" font-family="Helvetica,sans-Serif" font-size="10.00">AsyncFw::AbstractSocket</text>
<text xml:space="preserve" text-anchor="middle" x="398.88" y="-6.5" font-family="Helvetica,sans-Serif" font-size="10.00">::writeEvent</text>
</a>
</g>
</g>
<!-- Node3&#45;&gt;Node4 -->
<g id="edge5_Node000003_Node000004" class="edge">
<title>Node3&#45;&gt;Node4</title>
<g id="a_edge5_Node000003_Node000004"><a xlink:title=" ">
<path fill="none" stroke="#63b8ff" d="M297.77,-16C305.67,-16 313.8,-16 321.85,-16"/>
<polygon fill="#63b8ff" stroke="#63b8ff" points="321.64,-19.5 331.64,-16 321.64,-12.5 321.64,-19.5"/>
</a>
</g>
</g>
</g>
</svg>
