<?xml version="1.0" encoding="UTF-8" standalone="no"?>
<!DOCTYPE svg PUBLIC "-//W3C//DTD SVG 1.1//EN"
 "http://www.w3.org/Graphics/SVG/1.1/DTD/svg11.dtd">
<!-- Generated by graphviz version 12.2.1 (20241206.2353)
 -->
<!-- Title: AsyncFw::AbstractSocket::stateEvent Pages: 1 -->
<svg width="635pt" height="108pt"
 viewBox="0.00 0.00 634.50 108.00" xmlns="http://www.w3.org/2000/svg" xmlns:xlink="http://www.w3.org/1999/xlink">
<g id="graph0" class="graph" transform="scale(1 1) rotate(0) translate(4 104)">
<title>AsyncFw::AbstractSocket::stateEvent</title>
<!-- Node1 -->
<g id="Node000001" class="node">
<title>Node1</title>
<g id="a_Node000001"><a xlink:title="Called when the connection state changes.">
<polygon fill="#999999" stroke="#666666" points="626.5,-66 495.75,-66 495.75,-34 626.5,-34 626.5,-66"/>
<text text-anchor="start" x="503.75" y="-52.5" font-family="Helvetica,sans-Serif" font-size="10.00">AsyncFw::AbstractSocket</text>
<text text-anchor="middle" x="561.12" y="-40.5" font-family="Helvetica,sans-Serif" font-size="10.00">::stateEvent</text>
</a>
</g>
</g>
<!-- Node2 -->
<g id="Node000002" class="node">
<title>Node2</title>
<g id="a_Node000002"><a xlink:href="classAsyncFw_1_1AbstractSocket.html#aac7ad6c4f9815d9b8b0817d38864d06d" target="_top" xlink:title="Called when established connection.">
<polygon fill="white" stroke="#666666" points="459.75,-100 329,-100 329,-68 459.75,-68 459.75,-100"/>
<text text-anchor="start" x="337" y="-86.5" font-family="Helvetica,sans-Serif" font-size="10.00">AsyncFw::AbstractSocket</text>
<text text-anchor="middle" x="394.38" y="-74.5" font-family="Helvetica,sans-Serif" font-size="10.00">::activateEvent</text>
</a>
</g>
</g>
<!-- Node1&#45;&gt;Node2 -->
<g id="edge1_Node000001_Node000002" class="edge">
<title>Node1&#45;&gt;Node2</title>
<g id="a_edge1_Node000001_Node000002"><a xlink:title=" ">
<path fill="none" stroke="#63b8ff" d="M484.47,-65.61C476.33,-67.29 468.1,-68.99 460.1,-70.64"/>
<polygon fill="#63b8ff" stroke="#63b8ff" points="484.92,-69.1 494,-63.65 483.5,-62.24 484.92,-69.1"/>
</a>
</g>
</g>
<!-- Node5 -->
<g id="Node000005" class="node">
<title>Node5</title>
<g id="a_Node000005"><a xlink:href="classAsyncFw_1_1AbstractSocket.html#a426c3b10de20344079571d6708f096ca" target="_top" xlink:title="Listen for incoming connections on address and port.">
<polygon fill="white" stroke="#666666" points="459.75,-32 329,-32 329,0 459.75,0 459.75,-32"/>
<text text-anchor="start" x="337" y="-18.5" font-family="Helvetica,sans-Serif" font-size="10.00">AsyncFw::AbstractSocket</text>
<text text-anchor="middle" x="394.38" y="-6.5" font-family="Helvetica,sans-Serif" font-size="10.00">::listen</text>
</a>
</g>
</g>
<!-- Node1&#45;&gt;Node5 -->
<g id="edge4_Node000001_Node000005" class="edge">
<title>Node1&#45;&gt;Node5</title>
<g id="a_edge4_Node000001_Node000005"><a xlink:title=" ">
<path fill="none" stroke="#63b8ff" d="M484.47,-34.39C476.33,-32.71 468.1,-31.01 460.1,-29.36"/>
<polygon fill="#63b8ff" stroke="#63b8ff" points="483.5,-37.76 494,-36.35 484.92,-30.9 483.5,-37.76"/>
</a>
</g>
</g>
<!-- Node3 -->
<g id="Node000003" class="node">
<title>Node3</title>
<g id="a_Node000003"><a xlink:href="classAsyncFw_1_1AbstractTlsSocket.html#a57ac6daff9926cf631abcd1e19073cc8" target="_top" xlink:title="Called when established connection.">
<polygon fill="white" stroke="#666666" points="293,-100 148.75,-100 148.75,-68 293,-68 293,-100"/>
<text text-anchor="start" x="156.75" y="-86.5" font-family="Helvetica,sans-Serif" font-size="10.00">AsyncFw::AbstractTlsSocket</text>
<text text-anchor="middle" x="220.88" y="-74.5" font-family="Helvetica,sans-Serif" font-size="10.00">::activateEvent</text>
</a>
</g>
</g>
<!-- Node2&#45;&gt;Node3 -->
<g id="edge2_Node000002_Node000003" class="edge">
<title>Node2&#45;&gt;Node3</title>
<g id="a_edge2_Node000002_Node000003"><a xlink:title=" ">
<path fill="none" stroke="#63b8ff" d="M317.1,-84C309.22,-84 301.23,-84 293.4,-84"/>
<polygon fill="#63b8ff" stroke="#63b8ff" points="317.02,-87.5 327.02,-84 317.02,-80.5 317.02,-87.5"/>
</a>
</g>
</g>
<!-- Node4 -->
<g id="Node000004" class="node">
<title>Node4</title>
<g id="a_Node000004"><a xlink:href="classAsyncFw_1_1HttpSocket.html#ad51bb1bf5880c3037c7ad70231c0767d" target="_top" xlink:title="Called when established connection.">
<polygon fill="white" stroke="#666666" points="112.75,-100 0,-100 0,-68 112.75,-68 112.75,-100"/>
<text text-anchor="start" x="8" y="-86.5" font-family="Helvetica,sans-Serif" font-size="10.00">AsyncFw::HttpSocket</text>
<text text-anchor="middle" x="56.38" y="-74.5" font-family="Helvetica,sans-Serif" font-size="10.00">::activateEvent</text>
</a>
</g>
</g>
<!-- Node3&#45;&gt;Node4 -->
<g id="edge3_Node000003_Node000004" class="edge">
<title>Node3&#45;&gt;Node4</title>
<g id="a_edge3_Node000003_Node000004"><a xlink:title=" ">
<path fill="none" stroke="#63b8ff" d="M137.35,-84C129.09,-84 120.85,-84 112.96,-84"/>
<polygon fill="#63b8ff" stroke="#63b8ff" points="137.09,-87.5 147.09,-84 137.09,-80.5 137.09,-87.5"/>
</a>
</g>
</g>
<!-- Node5&#45;&gt;Node5 -->
<g id="edge5_Node000005_Node000005" class="edge">
<title>Node5&#45;&gt;Node5</title>
<g id="a_edge5_Node000005_Node000005"><a xlink:title=" ">
<path fill="none" stroke="#63b8ff" d="M422.16,-43.71C417.53,-47.48 408.27,-50 394.38,-50 368.97,-50 359.05,-41.58 364.61,-32.44"/>
<polygon fill="#63b8ff" stroke="#63b8ff" points="425.6,-44.39 423.88,-33.93 418.7,-43.18 425.6,-44.39"/>
</a>
</g>
</g>
</g>
</svg>
