<?xml version="1.0" encoding="UTF-8" standalone="no"?>
<!DOCTYPE svg PUBLIC "-//W3C//DTD SVG 1.1//EN"
 "http://www.w3.org/Graphics/SVG/1.1/DTD/svg11.dtd">
<!-- Generated by graphviz version 14.1.3 (20260303.0454)
 -->
<!-- Title: AsyncFw::SystemProcess::start Pages: 1 -->
<svg width="479pt" height="40pt"
 viewBox="0.00 0.00 479.00 40.00" xmlns="http://www.w3.org/2000/svg" xmlns:xlink="http://www.w3.org/1999/xlink">
<g id="graph0" class="graph" transform="scale(1 1) rotate(0) translate(4 36)">
<title>AsyncFw::SystemProcess::start</title>
<!-- Node1 -->
<g id="Node000001" class="node">
<title>Node1</title>
<g id="a_Node000001"><a xlink:title="Starts the process with the specified command and arguments.">
<polygon fill="#999999" stroke="#666666" points="133,-32 0,-32 0,0 133,0 133,-32"/>
<text xml:space="preserve" text-anchor="start" x="8" y="-18.5" font-family="Helvetica,sans-Serif" font-size="10.00">AsyncFw::SystemProcess</text>
<text xml:space="preserve" text-anchor="middle" x="66.5" y="-6.5" font-family="Helvetica,sans-Serif" font-size="10.00">::start</text>
</a>
</g>
</g>
<!-- Node2 -->
<g id="Node000002" class="node">
<title>Node2</title>
<g id="a_Node000002"><a xlink:href="classAsyncFw_1_1SystemProcess.html#a9bed6483038544317152552027178459" target="_top" xlink:title="Starts the process using stored command and arguments.">
<polygon fill="white" stroke="#666666" points="302,-32 169,-32 169,0 302,0 302,-32"/>
<text xml:space="preserve" text-anchor="start" x="177" y="-18.5" font-family="Helvetica,sans-Serif" font-size="10.00">AsyncFw::SystemProcess</text>
<text xml:space="preserve" text-anchor="middle" x="235.5" y="-6.5" font-family="Helvetica,sans-Serif" font-size="10.00">::start</text>
</a>
</g>
</g>
<!-- Node1&#45;&gt;Node2 -->
<g id="edge1_Node000001_Node000002" class="edge">
<title>Node1&#45;&gt;Node2</title>
<g id="a_edge1_Node000001_Node000002"><a xlink:title=" ">
<path fill="none" stroke="#63b8ff" d="M133.02,-16C140.97,-16 149.15,-16 157.25,-16"/>
<polygon fill="#63b8ff" stroke="#63b8ff" points="157.1,-19.5 167.1,-16 157.1,-12.5 157.1,-19.5"/>
</a>
</g>
</g>
<!-- Node3 -->
<g id="Node000003" class="node">
<title>Node3</title>
<g id="a_Node000003"><a xlink:href="classAsyncFw_1_1SystemProcess.html#a2474831568ca17479f4b7b4350cb13c8" target="_top" xlink:title="Writes data string to standard input (stdin) of the child process.">
<polygon fill="white" stroke="#666666" points="471,-32 338,-32 338,0 471,0 471,-32"/>
<text xml:space="preserve" text-anchor="start" x="346" y="-18.5" font-family="Helvetica,sans-Serif" font-size="10.00">AsyncFw::SystemProcess</text>
<text xml:space="preserve" text-anchor="middle" x="404.5" y="-6.5" font-family="Helvetica,sans-Serif" font-size="10.00">::input</text>
</a>
</g>
</g>
<!-- Node2&#45;&gt;Node3 -->
<g id="edge2_Node000002_Node000003" class="edge">
<title>Node2&#45;&gt;Node3</title>
<g id="a_edge2_Node000002_Node000003"><a xlink:title=" ">
<path fill="none" stroke="#63b8ff" d="M302.02,-16C309.97,-16 318.15,-16 326.25,-16"/>
<polygon fill="#63b8ff" stroke="#63b8ff" points="326.1,-19.5 336.1,-16 326.1,-12.5 326.1,-19.5"/>
</a>
</g>
</g>
</g>
</svg>
