<?xml version="1.0" encoding="UTF-8" standalone="no"?>
<!DOCTYPE svg PUBLIC "-//W3C//DTD SVG 1.1//EN"
 "http://www.w3.org/Graphics/SVG/1.1/DTD/svg11.dtd">
<!-- Generated by graphviz version 14.1.3 (20260303.0454)
 -->
<!-- Title: AsyncFw::FunctionConnector&lt; Args &gt; Pages: 1 -->
<svg width="531pt" height="887pt"
 viewBox="0.00 0.00 531.00 887.00" xmlns="http://www.w3.org/2000/svg" xmlns:xlink="http://www.w3.org/1999/xlink">
<g id="graph0" class="graph" transform="scale(1 1) rotate(0) translate(4 882.55)">
<title>AsyncFw::FunctionConnector&lt; Args &gt;</title>
<!-- Node1 -->
<g id="Node000001" class="node">
<title>Node1</title>
<g id="a_Node000001"><a xlink:title="Provides a thread&#45;safe, publisher&#45;subscriber mechanism to establish sender&#45;to&#45;receivers connections.">
<polygon fill="#999999" stroke="#666666" points="145.75,-422.53 0,-422.53 0,-390.53 145.75,-390.53 145.75,-422.53"/>
<text xml:space="preserve" text-anchor="start" x="8" y="-409.03" font-family="Helvetica,sans-Serif" font-size="10.00">AsyncFw::FunctionConnector</text>
<text xml:space="preserve" text-anchor="middle" x="72.88" y="-397.03" font-family="Helvetica,sans-Serif" font-size="10.00">&lt; Args &gt;</text>
</a>
</g>
</g>
<!-- Node2 -->
<g id="Node000002" class="node">
<title>Node2</title>
<g id="a_Node000002"><a xlink:href="classAsyncFw_1_1FunctionConnector.html" target="_top" xlink:title=" ">
<polygon fill="white" stroke="#666666" points="500.75,-847.53 355,-847.53 355,-803.53 500.75,-803.53 500.75,-847.53"/>
<text xml:space="preserve" text-anchor="start" x="363" y="-834.03" font-family="Helvetica,sans-Serif" font-size="10.00">AsyncFw::FunctionConnector</text>
<text xml:space="preserve" text-anchor="start" x="363" y="-822.03" font-family="Helvetica,sans-Serif" font-size="10.00">&lt; int, const std::vector</text>
<text xml:space="preserve" text-anchor="middle" x="427.88" y="-810.03" font-family="Helvetica,sans-Serif" font-size="10.00">&lt; std::string &gt; &amp; &gt;</text>
</a>
</g>
</g>
<!-- Node1&#45;&gt;Node2 -->
<g id="edge1_Node000001_Node000002" class="edge">
<title>Node1&#45;&gt;Node2</title>
<g id="a_edge1_Node000001_Node000002"><a xlink:title=" ">
<path fill="none" stroke="orange" stroke-dasharray="5,2" d="M76,-434.29C82.88,-516.27 107.45,-754.57 163.75,-803.53 215.38,-848.42 296.24,-848.45 354.7,-840.66"/>
<polygon fill="orange" stroke="orange" points="79.5,-434.14 75.2,-424.46 72.52,-434.71 79.5,-434.14"/>
</a>
</g>
<text xml:space="preserve" text-anchor="start" x="190" y="-865.8" font-family="Helvetica,sans-Serif" font-size="10.00" fill="grey">&lt; int, const std::vector</text>
<text xml:space="preserve" text-anchor="start" x="190" y="-849.8" font-family="Helvetica,sans-Serif" font-size="10.00" fill="grey">  &lt; std::string &gt; &amp; &gt;</text>
</g>
<!-- Node3 -->
<g id="Node000003" class="node">
<title>Node3</title>
<g id="a_Node000003"><a xlink:href="classAsyncFw_1_1FunctionConnector.html" target="_top" xlink:title=" ">
<polygon fill="white" stroke="#666666" points="516.88,-785.53 338.88,-785.53 338.88,-741.53 516.88,-741.53 516.88,-785.53"/>
<text xml:space="preserve" text-anchor="start" x="346.88" y="-772.03" font-family="Helvetica,sans-Serif" font-size="10.00">AsyncFw::FunctionConnector</text>
<text xml:space="preserve" text-anchor="start" x="346.88" y="-760.03" font-family="Helvetica,sans-Serif" font-size="10.00">&lt; const AsyncFw::ApplicationNotifier</text>
<text xml:space="preserve" text-anchor="middle" x="427.88" y="-748.03" font-family="Helvetica,sans-Serif" font-size="10.00">::Value &amp; &gt;</text>
</a>
</g>
</g>
<!-- Node1&#45;&gt;Node3 -->
<g id="edge2_Node000001_Node000003" class="edge">
<title>Node1&#45;&gt;Node3</title>
<g id="a_edge2_Node000001_Node000003"><a xlink:title=" ">
<path fill="none" stroke="orange" stroke-dasharray="5,2" d="M77.23,-434.23C86.67,-507.15 115.92,-701.56 163.75,-741.53 189.61,-763.13 272.53,-767.18 338.45,-766.71"/>
<polygon fill="orange" stroke="orange" points="80.71,-433.83 75.98,-424.35 73.77,-434.71 80.71,-433.83"/>
</a>
</g>
<text xml:space="preserve" text-anchor="start" x="174.25" y="-787.89" font-family="Helvetica,sans-Serif" font-size="10.00" fill="grey">&lt; const AsyncFw::Application</text>
<text xml:space="preserve" text-anchor="start" x="174.25" y="-771.89" font-family="Helvetica,sans-Serif" font-size="10.00" fill="grey">  Notifier::Value &amp; &gt;</text>
</g>
<!-- Node4 -->
<g id="Node000004" class="node">
<title>Node4</title>
<g id="a_Node000004"><a xlink:href="classAsyncFw_1_1FunctionConnector.html" target="_top" xlink:title=" ">
<polygon fill="white" stroke="#666666" points="514.62,-723.53 341.12,-723.53 341.12,-667.53 514.62,-667.53 514.62,-723.53"/>
<text xml:space="preserve" text-anchor="start" x="349.12" y="-710.03" font-family="Helvetica,sans-Serif" font-size="10.00">AsyncFw::FunctionConnector</text>
<text xml:space="preserve" text-anchor="start" x="349.12" y="-698.03" font-family="Helvetica,sans-Serif" font-size="10.00">&lt; const AsyncFw::DataArraySocket</text>
<text xml:space="preserve" text-anchor="start" x="349.12" y="-686.03" font-family="Helvetica,sans-Serif" font-size="10.00"> *, const AsyncFw::DataArray</text>
<text xml:space="preserve" text-anchor="middle" x="427.88" y="-674.03" font-family="Helvetica,sans-Serif" font-size="10.00"> *, uint32_t &gt;</text>
</a>
</g>
</g>
<!-- Node1&#45;&gt;Node4 -->
<g id="edge3_Node000001_Node000004" class="edge">
<title>Node1&#45;&gt;Node4</title>
<g id="a_edge3_Node000001_Node000004"><a xlink:title=" ">
<path fill="none" stroke="orange" stroke-dasharray="5,2" d="M74.25,-434.28C76.64,-488.93 90.39,-610.25 163.75,-668.53 177.55,-679.49 269.4,-687.01 340.74,-691.28"/>
<polygon fill="orange" stroke="orange" points="77.75,-434.18 73.93,-424.29 70.75,-434.4 77.75,-434.18"/>
</a>
</g>
<text xml:space="preserve" text-anchor="start" x="176.12" y="-726.66" font-family="Helvetica,sans-Serif" font-size="10.00" fill="grey">&lt; const AsyncFw::DataArray</text>
<text xml:space="preserve" text-anchor="start" x="176.12" y="-710.66" font-family="Helvetica,sans-Serif" font-size="10.00" fill="grey">  Socket *, const AsyncFw</text>
<text xml:space="preserve" text-anchor="start" x="176.12" y="-694.66" font-family="Helvetica,sans-Serif" font-size="10.00" fill="grey">  ::DataArray *, uint32_t &gt;</text>
</g>
<!-- Node5 -->
<g id="Node000005" class="node">
<title>Node5</title>
<g id="a_Node000005"><a xlink:href="classAsyncFw_1_1FunctionConnector.html" target="_top" xlink:title=" ">
<polygon fill="white" stroke="#666666" points="500.75,-649.53 355,-649.53 355,-617.53 500.75,-617.53 500.75,-649.53"/>
<text xml:space="preserve" text-anchor="start" x="363" y="-636.03" font-family="Helvetica,sans-Serif" font-size="10.00">AsyncFw::FunctionConnector</text>
<text xml:space="preserve" text-anchor="middle" x="427.88" y="-624.03" font-family="Helvetica,sans-Serif" font-size="10.00">&lt; AbstractSocket::State &gt;</text>
</a>
</g>
</g>
<!-- Node1&#45;&gt;Node5 -->
<g id="edge4_Node000001_Node000005" class="edge">
<title>Node1&#45;&gt;Node5</title>
<g id="a_edge4_Node000001_Node000005"><a xlink:title=" ">
<path fill="none" stroke="orange" stroke-dasharray="5,2" d="M77.01,-434.22C83.8,-479.9 104.39,-570.19 163.75,-612.53 218.69,-651.71 297.48,-652.76 354.51,-646.59"/>
<polygon fill="orange" stroke="orange" points="80.48,-433.79 75.67,-424.35 73.55,-434.73 80.48,-433.79"/>
</a>
</g>
<text xml:space="preserve" text-anchor="start" x="182.5" y="-654.65" font-family="Helvetica,sans-Serif" font-size="10.00" fill="grey">&lt; AbstractSocket::State &gt;</text>
</g>
<!-- Node6 -->
<g id="Node000006" class="node">
<title>Node6</title>
<g id="a_Node000006"><a xlink:href="classAsyncFw_1_1FunctionConnector.html" target="_top" xlink:title=" ">
<polygon fill="white" stroke="#666666" points="500.75,-599.53 355,-599.53 355,-555.53 500.75,-555.53 500.75,-599.53"/>
<text xml:space="preserve" text-anchor="start" x="363" y="-586.03" font-family="Helvetica,sans-Serif" font-size="10.00">AsyncFw::FunctionConnector</text>
<text xml:space="preserve" text-anchor="start" x="363" y="-574.03" font-family="Helvetica,sans-Serif" font-size="10.00">&lt; const AsyncFw::DataArray</text>
<text xml:space="preserve" text-anchor="middle" x="427.88" y="-562.03" font-family="Helvetica,sans-Serif" font-size="10.00"> *, uint32_t &gt;</text>
</a>
</g>
</g>
<!-- Node1&#45;&gt;Node6 -->
<g id="edge5_Node000001_Node000006" class="edge">
<title>Node1&#45;&gt;Node6</title>
<g id="a_edge5_Node000001_Node000006"><a xlink:title=" ">
<path fill="none" stroke="orange" stroke-dasharray="5,2" d="M81.65,-433.35C93.27,-468.12 118.79,-527.61 163.75,-555.53 194.56,-574.66 287.83,-578.55 354.56,-578.72"/>
<polygon fill="orange" stroke="orange" points="85.05,-432.5 78.69,-424.02 78.38,-434.62 85.05,-432.5"/>
</a>
</g>
<text xml:space="preserve" text-anchor="start" x="176.12" y="-599.39" font-family="Helvetica,sans-Serif" font-size="10.00" fill="grey">&lt; const AsyncFw::DataArray</text>
<text xml:space="preserve" text-anchor="start" x="176.12" y="-583.39" font-family="Helvetica,sans-Serif" font-size="10.00" fill="grey">   *, uint32_t &gt;</text>
</g>
<!-- Node7 -->
<g id="Node000007" class="node">
<title>Node7</title>
<g id="a_Node000007"><a xlink:href="classAsyncFw_1_1FunctionConnector.html" target="_top" xlink:title=" ">
<polygon fill="white" stroke="#666666" points="522.5,-536.53 333.25,-536.53 333.25,-504.53 522.5,-504.53 522.5,-536.53"/>
<text xml:space="preserve" text-anchor="start" x="341.25" y="-523.03" font-family="Helvetica,sans-Serif" font-size="10.00">AsyncFw::FunctionConnector</text>
<text xml:space="preserve" text-anchor="middle" x="427.88" y="-511.03" font-family="Helvetica,sans-Serif" font-size="10.00">&lt; const AsyncFw::DataArraySocket * &gt;</text>
</a>
</g>
</g>
<!-- Node1&#45;&gt;Node7 -->
<g id="edge6_Node000001_Node000007" class="edge">
<title>Node1&#45;&gt;Node7</title>
<g id="a_edge6_Node000001_Node000007"><a xlink:title=" ">
<path fill="none" stroke="orange" stroke-dasharray="5,2" d="M90.92,-432.31C106.91,-454.1 132.92,-484 163.75,-498.53 192.99,-512.3 269.84,-517.58 332.99,-519.54"/>
<polygon fill="orange" stroke="orange" points="93.81,-430.34 85.18,-424.19 88.1,-434.38 93.81,-430.34"/>
</a>
</g>
<text xml:space="preserve" text-anchor="start" x="176.12" y="-540.15" font-family="Helvetica,sans-Serif" font-size="10.00" fill="grey">&lt; const AsyncFw::DataArray</text>
<text xml:space="preserve" text-anchor="start" x="176.12" y="-524.15" font-family="Helvetica,sans-Serif" font-size="10.00" fill="grey">  Socket * &gt;</text>
</g>
<!-- Node8 -->
<g id="Node000008" class="node">
<title>Node8</title>
<g id="a_Node000008"><a xlink:href="classAsyncFw_1_1FunctionConnector.html" target="_top" xlink:title=" ">
<polygon fill="white" stroke="#666666" points="500.75,-485.53 355,-485.53 355,-453.53 500.75,-453.53 500.75,-485.53"/>
<text xml:space="preserve" text-anchor="start" x="363" y="-472.03" font-family="Helvetica,sans-Serif" font-size="10.00">AsyncFw::FunctionConnector</text>
<text xml:space="preserve" text-anchor="middle" x="427.88" y="-460.03" font-family="Helvetica,sans-Serif" font-size="10.00">&lt; const std::string &amp;, int &gt;</text>
</a>
</g>
</g>
<!-- Node1&#45;&gt;Node8 -->
<g id="edge7_Node000001_Node000008" class="edge">
<title>Node1&#45;&gt;Node8</title>
<g id="a_edge7_Node000001_Node000008"><a xlink:title=" ">
<path fill="none" stroke="orange" stroke-dasharray="5,2" d="M119.74,-427.09C133.64,-432.58 149.1,-437.96 163.75,-441.53 227.13,-456.95 301.16,-463.88 354.52,-466.99"/>
<polygon fill="orange" stroke="orange" points="121.45,-424 110.87,-423.47 118.81,-430.49 121.45,-424"/>
</a>
</g>
<text xml:space="preserve" text-anchor="start" x="199.75" y="-485.23" font-family="Helvetica,sans-Serif" font-size="10.00" fill="grey">&lt; const std::string</text>
<text xml:space="preserve" text-anchor="start" x="199.75" y="-469.23" font-family="Helvetica,sans-Serif" font-size="10.00" fill="grey">   &amp;, int &gt;</text>
</g>
<!-- Node9 -->
<g id="Node000009" class="node">
<title>Node9</title>
<g id="a_Node000009"><a xlink:href="classAsyncFw_1_1FunctionConnector.html" target="_top" xlink:title=" ">
<polygon fill="white" stroke="#666666" points="500.75,-435.53 355,-435.53 355,-391.53 500.75,-391.53 500.75,-435.53"/>
<text xml:space="preserve" text-anchor="start" x="363" y="-422.03" font-family="Helvetica,sans-Serif" font-size="10.00">AsyncFw::FunctionConnector</text>
<text xml:space="preserve" text-anchor="start" x="363" y="-410.03" font-family="Helvetica,sans-Serif" font-size="10.00">&lt; int, const std::string</text>
<text xml:space="preserve" text-anchor="middle" x="427.88" y="-398.03" font-family="Helvetica,sans-Serif" font-size="10.00"> &amp;, bool * &gt;</text>
</a>
</g>
</g>
<!-- Node1&#45;&gt;Node9 -->
<g id="edge8_Node000001_Node000009" class="edge">
<title>Node1&#45;&gt;Node9</title>
<g id="a_edge8_Node000001_Node000009"><a xlink:title=" ">
<path fill="none" stroke="orange" stroke-dasharray="5,2" d="M157.47,-405.86C203.95,-405.74 262.81,-406.01 315.25,-407.53 327.96,-407.9 341.47,-408.47 354.54,-409.12"/>
<polygon fill="orange" stroke="orange" points="157.74,-402.35 147.75,-405.89 157.77,-409.35 157.74,-402.35"/>
</a>
</g>
<text xml:space="preserve" text-anchor="start" x="191.5" y="-428.78" font-family="Helvetica,sans-Serif" font-size="10.00" fill="grey">&lt; int, const std::string</text>
<text xml:space="preserve" text-anchor="start" x="191.5" y="-412.78" font-family="Helvetica,sans-Serif" font-size="10.00" fill="grey">   &amp;, bool * &gt;</text>
</g>
<!-- Node10 -->
<g id="Node000010" class="node">
<title>Node10</title>
<g id="a_Node000010"><a xlink:href="classAsyncFw_1_1FunctionConnector.html" target="_top" xlink:title=" ">
<polygon fill="white" stroke="#666666" points="500.75,-373.53 355,-373.53 355,-329.53 500.75,-329.53 500.75,-373.53"/>
<text xml:space="preserve" text-anchor="start" x="363" y="-360.03" font-family="Helvetica,sans-Serif" font-size="10.00">AsyncFw::FunctionConnector</text>
<text xml:space="preserve" text-anchor="start" x="363" y="-348.03" font-family="Helvetica,sans-Serif" font-size="10.00">&lt; const AbstractSocket::</text>
<text xml:space="preserve" text-anchor="middle" x="427.88" y="-336.03" font-family="Helvetica,sans-Serif" font-size="10.00">State &gt;</text>
</a>
</g>
</g>
<!-- Node1&#45;&gt;Node10 -->
<g id="edge9_Node000001_Node000010" class="edge">
<title>Node1&#45;&gt;Node10</title>
<g id="a_edge9_Node000001_Node000010"><a xlink:title=" ">
<path fill="none" stroke="orange" stroke-dasharray="5,2" d="M114.56,-385.3C129.62,-378.41 147.08,-371.52 163.75,-367.53 227.06,-352.36 301.26,-349.11 354.69,-349.22"/>
<polygon fill="orange" stroke="orange" points="113.47,-381.94 105.93,-389.38 116.46,-388.27 113.47,-381.94"/>
</a>
</g>
<text xml:space="preserve" text-anchor="start" x="188.12" y="-388.78" font-family="Helvetica,sans-Serif" font-size="10.00" fill="grey">&lt; const AbstractSocket</text>
<text xml:space="preserve" text-anchor="start" x="188.12" y="-372.78" font-family="Helvetica,sans-Serif" font-size="10.00" fill="grey">  ::State &gt;</text>
</g>
<!-- Node11 -->
<g id="Node000011" class="node">
<title>Node11</title>
<g id="a_Node000011"><a xlink:href="classAsyncFw_1_1FunctionConnector.html" target="_top" xlink:title=" ">
<polygon fill="white" stroke="#666666" points="508.62,-311.53 347.12,-311.53 347.12,-279.53 508.62,-279.53 508.62,-311.53"/>
<text xml:space="preserve" text-anchor="start" x="355.12" y="-298.03" font-family="Helvetica,sans-Serif" font-size="10.00">AsyncFw::FunctionConnector</text>
<text xml:space="preserve" text-anchor="middle" x="427.88" y="-286.03" font-family="Helvetica,sans-Serif" font-size="10.00">&lt; const AsyncFw::DataArray &amp; &gt;</text>
</a>
</g>
</g>
<!-- Node1&#45;&gt;Node11 -->
<g id="edge10_Node000001_Node000011" class="edge">
<title>Node1&#45;&gt;Node11</title>
<g id="a_edge10_Node000001_Node000011"><a xlink:title=" ">
<path fill="none" stroke="orange" stroke-dasharray="5,2" d="M94.33,-381.88C110.99,-363.63 136.21,-339.86 163.75,-327.53 221.39,-301.71 292.86,-294.38 346.76,-293.13"/>
<polygon fill="orange" stroke="orange" points="91.86,-379.39 87.86,-389.2 97.11,-384.02 91.86,-379.39"/>
</a>
</g>
<text xml:space="preserve" text-anchor="start" x="166.75" y="-332.78" font-family="Helvetica,sans-Serif" font-size="10.00" fill="grey">&lt; const AsyncFw::DataArray &amp; &gt;</text>
</g>
<!-- Node12 -->
<g id="Node000012" class="node">
<title>Node12</title>
<g id="a_Node000012"><a xlink:href="classAsyncFw_1_1FunctionConnector.html" target="_top" xlink:title=" ">
<polygon fill="white" stroke="#666666" points="500.75,-261.53 355,-261.53 355,-229.53 500.75,-229.53 500.75,-261.53"/>
<text xml:space="preserve" text-anchor="start" x="363" y="-248.03" font-family="Helvetica,sans-Serif" font-size="10.00">AsyncFw::FunctionConnector</text>
<text xml:space="preserve" text-anchor="middle" x="427.88" y="-236.03" font-family="Helvetica,sans-Serif" font-size="10.00">&lt; int &gt;</text>
</a>
</g>
</g>
<!-- Node1&#45;&gt;Node12 -->
<g id="edge11_Node000001_Node000012" class="edge">
<title>Node1&#45;&gt;Node12</title>
<g id="a_edge11_Node000001_Node000012"><a xlink:title=" ">
<path fill="none" stroke="orange" stroke-dasharray="5,2" d="M83.64,-379.69C96.66,-348.17 122.91,-297.07 163.75,-272.53 221.22,-237.99 298.72,-234.07 354.71,-237.07"/>
<polygon fill="orange" stroke="orange" points="80.42,-378.33 80,-388.92 86.93,-380.9 80.42,-378.33"/>
</a>
</g>
<text xml:space="preserve" text-anchor="start" x="225.25" y="-277.78" font-family="Helvetica,sans-Serif" font-size="10.00" fill="grey">&lt; int &gt;</text>
</g>
<!-- Node13 -->
<g id="Node000013" class="node">
<title>Node13</title>
<g id="a_Node000013"><a xlink:href="classAsyncFw_1_1FunctionConnector.html" target="_top" xlink:title=" ">
<polygon fill="white" stroke="#666666" points="506,-211.53 349.75,-211.53 349.75,-167.53 506,-167.53 506,-211.53"/>
<text xml:space="preserve" text-anchor="start" x="357.75" y="-198.03" font-family="Helvetica,sans-Serif" font-size="10.00">AsyncFw::FunctionConnector</text>
<text xml:space="preserve" text-anchor="start" x="357.75" y="-186.03" font-family="Helvetica,sans-Serif" font-size="10.00">&lt; const AsyncFw::MulticastDns</text>
<text xml:space="preserve" text-anchor="middle" x="427.88" y="-174.03" font-family="Helvetica,sans-Serif" font-size="10.00">::Host &amp; &gt;</text>
</a>
</g>
</g>
<!-- Node1&#45;&gt;Node13 -->
<g id="edge12_Node000001_Node000013" class="edge">
<title>Node1&#45;&gt;Node13</title>
<g id="a_edge12_Node000001_Node000013"><a xlink:title=" ">
<path fill="none" stroke="orange" stroke-dasharray="5,2" d="M76.62,-378.91C82.88,-332.57 102.74,-240.14 163.75,-198.53 217.56,-161.83 292.99,-163.2 349.3,-171.62"/>
<polygon fill="orange" stroke="orange" points="73.17,-378.31 75.44,-388.66 80.12,-379.16 73.17,-378.31"/>
</a>
</g>
<text xml:space="preserve" text-anchor="start" x="178.38" y="-219.78" font-family="Helvetica,sans-Serif" font-size="10.00" fill="grey">&lt; const AsyncFw::Multicast</text>
<text xml:space="preserve" text-anchor="start" x="178.38" y="-203.78" font-family="Helvetica,sans-Serif" font-size="10.00" fill="grey">  Dns::Host &amp; &gt;</text>
</g>
<!-- Node14 -->
<g id="Node000014" class="node">
<title>Node14</title>
<g id="a_Node000014"><a xlink:href="classAsyncFw_1_1FunctionConnector.html" target="_top" xlink:title=" ">
<polygon fill="white" stroke="#666666" points="504.5,-149.53 351.25,-149.53 351.25,-117.53 504.5,-117.53 504.5,-149.53"/>
<text xml:space="preserve" text-anchor="start" x="359.25" y="-136.03" font-family="Helvetica,sans-Serif" font-size="10.00">AsyncFw::FunctionConnector</text>
<text xml:space="preserve" text-anchor="middle" x="427.88" y="-124.03" font-family="Helvetica,sans-Serif" font-size="10.00">&lt; AbstractThread::PollEvents &gt;</text>
</a>
</g>
</g>
<!-- Node1&#45;&gt;Node14 -->
<g id="edge13_Node000001_Node000014" class="edge">
<title>Node1&#45;&gt;Node14</title>
<g id="a_edge13_Node000001_Node000014"><a xlink:title=" ">
<path fill="none" stroke="orange" stroke-dasharray="5,2" d="M73.94,-378.74C75.76,-323.56 88.51,-200.67 163.75,-144.53 219.72,-102.76 302.58,-106.92 360.31,-117.07"/>
<polygon fill="orange" stroke="orange" points="70.45,-378.45 73.73,-388.53 77.45,-378.61 70.45,-378.45"/>
</a>
</g>
<text xml:space="preserve" text-anchor="start" x="170.88" y="-149.78" font-family="Helvetica,sans-Serif" font-size="10.00" fill="grey">&lt; AbstractThread::PollEvents &gt;</text>
</g>
<!-- Node15 -->
<g id="Node000015" class="node">
<title>Node15</title>
<g id="a_Node000015"><a xlink:href="classAsyncFw_1_1FunctionConnector.html" target="_top" xlink:title=" ">
<polygon fill="white" stroke="#666666" points="500.75,-99.53 355,-99.53 355,-67.53 500.75,-67.53 500.75,-99.53"/>
<text xml:space="preserve" text-anchor="start" x="363" y="-86.03" font-family="Helvetica,sans-Serif" font-size="10.00">AsyncFw::FunctionConnector</text>
<text xml:space="preserve" text-anchor="middle" x="427.88" y="-74.03" font-family="Helvetica,sans-Serif" font-size="10.00">&lt; State &gt;</text>
</a>
</g>
</g>
<!-- Node1&#45;&gt;Node15 -->
<g id="edge14_Node000001_Node000015" class="edge">
<title>Node1&#45;&gt;Node15</title>
<g id="a_edge14_Node000001_Node000015"><a xlink:title=" ">
<path fill="none" stroke="orange" stroke-dasharray="5,2" d="M77.46,-379.09C87.26,-308.68 116.95,-124.64 163.75,-88.53 192.51,-66.34 287.05,-69.78 354.56,-75.58"/>
<polygon fill="orange" stroke="orange" points="74.04,-378.23 76.16,-388.61 80.98,-379.18 74.04,-378.23"/>
</a>
</g>
<text xml:space="preserve" text-anchor="start" x="218.88" y="-93.78" font-family="Helvetica,sans-Serif" font-size="10.00" fill="grey">&lt; State &gt;</text>
</g>
<!-- Node16 -->
<g id="Node000016" class="node">
<title>Node16</title>
<g id="a_Node000016"><a xlink:href="classAsyncFw_1_1FunctionConnector.html" target="_top" xlink:title=" ">
<polygon fill="white" stroke="#666666" points="500.75,-46.53 355,-46.53 355,-14.53 500.75,-14.53 500.75,-46.53"/>
<text xml:space="preserve" text-anchor="start" x="363" y="-33.03" font-family="Helvetica,sans-Serif" font-size="10.00">AsyncFw::FunctionConnector</text>
<text xml:space="preserve" text-anchor="middle" x="427.88" y="-21.03" font-family="Helvetica,sans-Serif" font-size="10.00">&lt; const std::string &amp;, bool &gt;</text>
</a>
</g>
</g>
<!-- Node1&#45;&gt;Node16 -->
<g id="edge15_Node000001_Node000016" class="edge">
<title>Node1&#45;&gt;Node16</title>
<g id="a_edge15_Node000001_Node000016"><a xlink:title=" ">
<path fill="none" stroke="orange" stroke-dasharray="5,2" d="M76.26,-378.7C83.67,-299.72 109.11,-77.07 163.75,-33.53 223.32,13.95 316.93,0.85 374.95,-14.06"/>
<polygon fill="orange" stroke="orange" points="72.78,-378.31 75.36,-388.58 79.76,-378.94 72.78,-378.31"/>
</a>
</g>
<text xml:space="preserve" text-anchor="start" x="199.75" y="-54.78" font-family="Helvetica,sans-Serif" font-size="10.00" fill="grey">&lt; const std::string</text>
<text xml:space="preserve" text-anchor="start" x="199.75" y="-38.78" font-family="Helvetica,sans-Serif" font-size="10.00" fill="grey">   &amp;, bool &gt;</text>
</g>
</g>
</svg>
