<?xml version="1.0" encoding="UTF-8" standalone="no"?>
<!DOCTYPE svg PUBLIC "-//W3C//DTD SVG 1.1//EN"
 "http://www.w3.org/Graphics/SVG/1.1/DTD/svg11.dtd">
<!-- Generated by graphviz version 12.2.1 (20241206.2353)
 -->
<!-- Title: AsyncFw::FunctionConnectorProtected&lt; F &gt; Pages: 1 -->
<svg width="561pt" height="737pt"
 viewBox="0.00 0.00 561.25 736.91" xmlns="http://www.w3.org/2000/svg" xmlns:xlink="http://www.w3.org/1999/xlink">
<g id="graph0" class="graph" transform="scale(1 1) rotate(0) translate(4 732.91)">
<title>AsyncFw::FunctionConnectorProtected&lt; F &gt;</title>
<!-- Node1 -->
<g id="Node000001" class="node">
<title>Node1</title>
<g id="a_Node000001"><a xlink:title="Защищенный коннетор, отправитель может быть только один. &#160;&#160;Обеспечивает соединение отправитель &#45;&gt; пол...">
<polygon fill="#999999" stroke="#666666" points="145.75,-364.47 0,-364.47 0,-332.47 145.75,-332.47 145.75,-364.47"/>
<text text-anchor="start" x="8" y="-350.97" font-family="Helvetica,sans-Serif" font-size="10.00">AsyncFw::FunctionConnector</text>
<text text-anchor="middle" x="72.88" y="-338.97" font-family="Helvetica,sans-Serif" font-size="10.00">Protected&lt; F &gt;</text>
</a>
</g>
</g>
<!-- Node2 -->
<g id="Node000002" class="node">
<title>Node2</title>
<g id="a_Node000002"><a xlink:href="classAsyncFw_1_1FunctionConnectorProtected.html" target="_top" xlink:title=" ">
<polygon fill="white" stroke="#666666" points="531.5,-713.47 356.5,-713.47 356.5,-681.47 531.5,-681.47 531.5,-713.47"/>
<text text-anchor="start" x="364.5" y="-699.97" font-family="Helvetica,sans-Serif" font-size="10.00">AsyncFw::FunctionConnector</text>
<text text-anchor="middle" x="444" y="-687.97" font-family="Helvetica,sans-Serif" font-size="10.00">Protected&lt; AsyncFw::AddressInfo &gt;</text>
</a>
</g>
</g>
<!-- Node1&#45;&gt;Node2 -->
<g id="edge1_Node000001_Node000002" class="edge">
<title>Node1&#45;&gt;Node2</title>
<g id="a_edge1_Node000001_Node000002"><a xlink:title=" ">
<path fill="none" stroke="orange" stroke-dasharray="5,2" d="M77.41,-375.93C87.21,-447.3 117.06,-635.78 163.75,-674.47 217.22,-718.77 297.89,-720.82 358.79,-713.96"/>
<polygon fill="orange" stroke="orange" points="80.92,-375.71 76.12,-366.27 73.98,-376.64 80.92,-375.71"/>
</a>
</g>
<text text-anchor="middle" x="240.25" y="-719.41" font-family="Helvetica,sans-Serif" font-size="10.00" fill="grey"> &lt; AsyncFw::AddressInfo &gt;</text>
</g>
<!-- Node3 -->
<g id="Node000003" class="node">
<title>Node3</title>
<g id="a_Node000003"><a xlink:href="classAsyncFw_1_1FunctionConnectorProtected.html" target="_top" xlink:title=" ">
<polygon fill="white" stroke="#666666" points="553.25,-663.47 334.75,-663.47 334.75,-631.47 553.25,-631.47 553.25,-663.47"/>
<text text-anchor="start" x="342.75" y="-649.97" font-family="Helvetica,sans-Serif" font-size="10.00">AsyncFw::FunctionConnector</text>
<text text-anchor="middle" x="444" y="-637.97" font-family="Helvetica,sans-Serif" font-size="10.00">Protected&lt; AsyncFw::DataArrayAbstractTcp &gt;</text>
</a>
</g>
</g>
<!-- Node1&#45;&gt;Node3 -->
<g id="edge2_Node000001_Node000003" class="edge">
<title>Node1&#45;&gt;Node3</title>
<g id="a_edge2_Node000001_Node000003"><a xlink:title=" ">
<path fill="none" stroke="orange" stroke-dasharray="5,2" d="M73.99,-376.15C75.86,-431.8 88.68,-557.05 163.75,-617.47 189.72,-638.37 267.63,-645.5 334.58,-647.61"/>
<polygon fill="orange" stroke="orange" points="77.49,-376.21 73.77,-366.29 70.49,-376.37 77.49,-376.21"/>
</a>
</g>
<text text-anchor="start" x="170.5" y="-661.3" font-family="Helvetica,sans-Serif" font-size="10.00" fill="grey"> &lt; AsyncFw::DataArrayAbstract</text>
<text text-anchor="middle" x="240.25" y="-649.3" font-family="Helvetica,sans-Serif" font-size="10.00" fill="grey">Tcp &gt;</text>
</g>
<!-- Node4 -->
<g id="Node000004" class="node">
<title>Node4</title>
<g id="a_Node000004"><a xlink:href="classAsyncFw_1_1FunctionConnectorProtected.html" target="_top" xlink:title=" ">
<polygon fill="white" stroke="#666666" points="542.75,-613.47 345.25,-613.47 345.25,-581.47 542.75,-581.47 542.75,-613.47"/>
<text text-anchor="start" x="353.25" y="-599.97" font-family="Helvetica,sans-Serif" font-size="10.00">AsyncFw::FunctionConnector</text>
<text text-anchor="middle" x="444" y="-587.97" font-family="Helvetica,sans-Serif" font-size="10.00">Protected&lt; AsyncFw::DataArraySocket &gt;</text>
</a>
</g>
</g>
<!-- Node1&#45;&gt;Node4 -->
<g id="edge3_Node000001_Node000004" class="edge">
<title>Node1&#45;&gt;Node4</title>
<g id="a_edge3_Node000001_Node000004"><a xlink:title=" ">
<path fill="none" stroke="orange" stroke-dasharray="5,2" d="M77.7,-376.18C85.41,-420.73 107.19,-507.69 163.75,-551.47 214.75,-590.93 286.86,-602.02 345.02,-603.46"/>
<polygon fill="orange" stroke="orange" points="81.15,-375.62 76.12,-366.3 74.24,-376.73 81.15,-375.62"/>
</a>
</g>
<text text-anchor="middle" x="240.25" y="-604.12" font-family="Helvetica,sans-Serif" font-size="10.00" fill="grey"> &lt; AsyncFw::DataArraySocket &gt;</text>
</g>
<!-- Node5 -->
<g id="Node000005" class="node">
<title>Node5</title>
<g id="a_Node000005"><a xlink:href="classAsyncFw_1_1FunctionConnectorProtected.html" target="_top" xlink:title=" ">
<polygon fill="white" stroke="#666666" points="530.38,-563.47 357.62,-563.47 357.62,-519.47 530.38,-519.47 530.38,-563.47"/>
<text text-anchor="start" x="365.62" y="-549.97" font-family="Helvetica,sans-Serif" font-size="10.00">AsyncFw::FunctionConnector</text>
<text text-anchor="start" x="365.62" y="-537.97" font-family="Helvetica,sans-Serif" font-size="10.00">Protected&lt; AsyncFw::DataArrayTcp</text>
<text text-anchor="middle" x="444" y="-525.97" font-family="Helvetica,sans-Serif" font-size="10.00">Client &gt;</text>
</a>
</g>
</g>
<!-- Node1&#45;&gt;Node5 -->
<g id="edge4_Node000001_Node000005" class="edge">
<title>Node1&#45;&gt;Node5</title>
<g id="a_edge4_Node000001_Node000005"><a xlink:title=" ">
<path fill="none" stroke="orange" stroke-dasharray="5,2" d="M84.25,-375.29C97.71,-406.4 124.27,-456.79 163.75,-483.47 220.89,-522.06 298.49,-535.83 357.39,-540.36"/>
<polygon fill="orange" stroke="orange" points="87.53,-374.07 80.46,-366.18 81.07,-376.76 87.53,-374.07"/>
</a>
</g>
<text text-anchor="middle" x="240.25" y="-538.14" font-family="Helvetica,sans-Serif" font-size="10.00" fill="grey"> &lt; AsyncFw::DataArrayTcpClient &gt;</text>
</g>
<!-- Node6 -->
<g id="Node000006" class="node">
<title>Node6</title>
<g id="a_Node000006"><a xlink:href="classAsyncFw_1_1FunctionConnectorProtected.html" target="_top" xlink:title=" ">
<polygon fill="white" stroke="#666666" points="525.5,-501.47 362.5,-501.47 362.5,-457.47 525.5,-457.47 525.5,-501.47"/>
<text text-anchor="start" x="370.5" y="-487.97" font-family="Helvetica,sans-Serif" font-size="10.00">AsyncFw::FunctionConnector</text>
<text text-anchor="start" x="370.5" y="-475.97" font-family="Helvetica,sans-Serif" font-size="10.00">Protected&lt; AsyncFw::FileSystem</text>
<text text-anchor="middle" x="444" y="-463.97" font-family="Helvetica,sans-Serif" font-size="10.00">Watcher &gt;</text>
</a>
</g>
</g>
<!-- Node1&#45;&gt;Node6 -->
<g id="edge5_Node000001_Node000006" class="edge">
<title>Node1&#45;&gt;Node6</title>
<g id="a_edge5_Node000001_Node000006"><a xlink:title=" ">
<path fill="none" stroke="orange" stroke-dasharray="5,2" d="M95.98,-372.85C112.88,-389.95 137.64,-411.91 163.75,-424.47 226.43,-454.6 304.6,-468.23 362.28,-474.39"/>
<polygon fill="orange" stroke="orange" points="98.85,-370.78 89.4,-366 93.81,-375.63 98.85,-370.78"/>
</a>
</g>
<text text-anchor="middle" x="240.25" y="-470.01" font-family="Helvetica,sans-Serif" font-size="10.00" fill="grey"> &lt; AsyncFw::FileSystemWatcher &gt;</text>
</g>
<!-- Node7 -->
<g id="Node000007" class="node">
<title>Node7</title>
<g id="a_Node000007"><a xlink:href="classAsyncFw_1_1FunctionConnectorProtected.html" target="_top" xlink:title=" ">
<polygon fill="white" stroke="#666666" points="528.88,-439.47 359.12,-439.47 359.12,-407.47 528.88,-407.47 528.88,-439.47"/>
<text text-anchor="start" x="367.12" y="-425.97" font-family="Helvetica,sans-Serif" font-size="10.00">AsyncFw::FunctionConnector</text>
<text text-anchor="middle" x="444" y="-413.97" font-family="Helvetica,sans-Serif" font-size="10.00">Protected&lt; AsyncFw::HttpServer &gt;</text>
</a>
</g>
</g>
<!-- Node1&#45;&gt;Node7 -->
<g id="edge6_Node000001_Node000007" class="edge">
<title>Node1&#45;&gt;Node7</title>
<g id="a_edge6_Node000001_Node000007"><a xlink:title=" ">
<path fill="none" stroke="orange" stroke-dasharray="5,2" d="M125.58,-368.75C137.95,-373.08 151.21,-377.3 163.75,-380.47 228.31,-396.77 302.92,-407.88 358.77,-414.71"/>
<polygon fill="orange" stroke="orange" points="127,-365.55 116.41,-365.46 124.63,-372.13 127,-365.55"/>
</a>
</g>
<text text-anchor="middle" x="240.25" y="-411.39" font-family="Helvetica,sans-Serif" font-size="10.00" fill="grey"> &lt; AsyncFw::HttpServer &gt;</text>
</g>
<!-- Node8 -->
<g id="Node000008" class="node">
<title>Node8</title>
<g id="a_Node000008"><a xlink:href="classAsyncFw_1_1FunctionConnectorProtected.html" target="_top" xlink:title=" ">
<polygon fill="white" stroke="#666666" points="530,-389.47 358,-389.47 358,-357.47 530,-357.47 530,-389.47"/>
<text text-anchor="start" x="366" y="-375.97" font-family="Helvetica,sans-Serif" font-size="10.00">AsyncFw::FunctionConnector</text>
<text text-anchor="middle" x="444" y="-363.97" font-family="Helvetica,sans-Serif" font-size="10.00">Protected&lt; AsyncFw::HttpSocket &gt;</text>
</a>
</g>
</g>
<!-- Node1&#45;&gt;Node8 -->
<g id="edge7_Node000001_Node000008" class="edge">
<title>Node1&#45;&gt;Node8</title>
<g id="a_edge7_Node000001_Node000008"><a xlink:title=" ">
<path fill="none" stroke="orange" stroke-dasharray="5,2" d="M157.21,-354.11C216.99,-358.16 297.28,-363.6 357.53,-367.68"/>
<polygon fill="orange" stroke="orange" points="157.65,-350.63 147.43,-353.45 157.17,-357.61 157.65,-350.63"/>
</a>
</g>
<text text-anchor="middle" x="240.25" y="-367.17" font-family="Helvetica,sans-Serif" font-size="10.00" fill="grey"> &lt; AsyncFw::HttpSocket &gt;</text>
</g>
<!-- Node9 -->
<g id="Node000009" class="node">
<title>Node9</title>
<g id="a_Node000009"><a xlink:href="classAsyncFw_1_1FunctionConnectorProtected.html" target="_top" xlink:title=" ">
<polygon fill="white" stroke="#666666" points="533.75,-339.47 354.25,-339.47 354.25,-307.47 533.75,-307.47 533.75,-339.47"/>
<text text-anchor="start" x="362.25" y="-325.97" font-family="Helvetica,sans-Serif" font-size="10.00">AsyncFw::FunctionConnector</text>
<text text-anchor="middle" x="444" y="-313.97" font-family="Helvetica,sans-Serif" font-size="10.00">Protected&lt; AsyncFw::ListenSocket &gt;</text>
</a>
</g>
</g>
<!-- Node1&#45;&gt;Node9 -->
<g id="edge8_Node000001_Node000009" class="edge">
<title>Node1&#45;&gt;Node9</title>
<g id="a_edge8_Node000001_Node000009"><a xlink:title=" ">
<path fill="none" stroke="orange" stroke-dasharray="5,2" d="M157.17,-340C159.38,-339.81 161.58,-339.64 163.75,-339.47 227.29,-334.47 299.08,-330.39 353.96,-327.6"/>
<polygon fill="orange" stroke="orange" points="157.13,-336.49 147.47,-340.84 157.73,-343.46 157.13,-336.49"/>
</a>
</g>
<text text-anchor="middle" x="240.25" y="-341.97" font-family="Helvetica,sans-Serif" font-size="10.00" fill="grey"> &lt; AsyncFw::ListenSocket &gt;</text>
</g>
<!-- Node10 -->
<g id="Node000010" class="node">
<title>Node10</title>
<g id="a_Node000010"><a xlink:href="classAsyncFw_1_1FunctionConnectorProtected.html" target="_top" xlink:title=" ">
<polygon fill="white" stroke="#666666" points="534.12,-289.47 353.88,-289.47 353.88,-257.47 534.12,-257.47 534.12,-289.47"/>
<text text-anchor="start" x="361.88" y="-275.97" font-family="Helvetica,sans-Serif" font-size="10.00">AsyncFw::FunctionConnector</text>
<text text-anchor="middle" x="444" y="-263.97" font-family="Helvetica,sans-Serif" font-size="10.00">Protected&lt; AsyncFw::MulticastDns &gt;</text>
</a>
</g>
</g>
<!-- Node1&#45;&gt;Node10 -->
<g id="edge9_Node000001_Node000010" class="edge">
<title>Node1&#45;&gt;Node10</title>
<g id="a_edge9_Node000001_Node000010"><a xlink:title=" ">
<path fill="none" stroke="orange" stroke-dasharray="5,2" d="M120.97,-327.79C134.57,-322.46 149.56,-317.19 163.75,-313.47 226.16,-297.08 298.29,-286.96 353.61,-281"/>
<polygon fill="orange" stroke="orange" points="119.78,-324.49 111.81,-331.48 122.4,-330.99 119.78,-324.49"/>
</a>
</g>
<text text-anchor="middle" x="240.25" y="-315.97" font-family="Helvetica,sans-Serif" font-size="10.00" fill="grey"> &lt; AsyncFw::MulticastDns &gt;</text>
</g>
<!-- Node11 -->
<g id="Node000011" class="node">
<title>Node11</title>
<g id="a_Node000011"><a xlink:href="classAsyncFw_1_1FunctionConnectorProtected.html" target="_top" xlink:title=" ">
<polygon fill="white" stroke="#666666" points="529.25,-239.47 358.75,-239.47 358.75,-207.47 529.25,-207.47 529.25,-239.47"/>
<text text-anchor="start" x="366.75" y="-225.97" font-family="Helvetica,sans-Serif" font-size="10.00">AsyncFw::FunctionConnector</text>
<text text-anchor="middle" x="444" y="-213.97" font-family="Helvetica,sans-Serif" font-size="10.00">Protected&lt; AsyncFw::PollNotifier &gt;</text>
</a>
</g>
</g>
<!-- Node1&#45;&gt;Node11 -->
<g id="edge10_Node000001_Node000011" class="edge">
<title>Node1&#45;&gt;Node11</title>
<g id="a_edge10_Node000001_Node000011"><a xlink:title=" ">
<path fill="none" stroke="orange" stroke-dasharray="5,2" d="M94.77,-323.82C111.52,-305.78 136.64,-282.3 163.75,-269.47 224.92,-240.5 301.12,-229.39 358.45,-225.3"/>
<polygon fill="orange" stroke="orange" points="92.36,-321.28 88.26,-331.05 97.56,-325.96 92.36,-321.28"/>
</a>
</g>
<text text-anchor="middle" x="240.25" y="-271.97" font-family="Helvetica,sans-Serif" font-size="10.00" fill="grey"> &lt; AsyncFw::PollNotifier &gt;</text>
</g>
<!-- Node12 -->
<g id="Node000012" class="node">
<title>Node12</title>
<g id="a_Node000012"><a xlink:href="classAsyncFw_1_1FunctionConnectorProtected.html" target="_top" xlink:title=" ">
<polygon fill="white" stroke="#666666" points="516.88,-189.47 371.12,-189.47 371.12,-157.47 516.88,-157.47 516.88,-189.47"/>
<text text-anchor="start" x="379.12" y="-175.97" font-family="Helvetica,sans-Serif" font-size="10.00">AsyncFw::FunctionConnector</text>
<text text-anchor="middle" x="444" y="-163.97" font-family="Helvetica,sans-Serif" font-size="10.00">Protected&lt; AsyncFw::Rrd &gt;</text>
</a>
</g>
</g>
<!-- Node1&#45;&gt;Node12 -->
<g id="edge11_Node000001_Node000012" class="edge">
<title>Node1&#45;&gt;Node12</title>
<g id="a_edge11_Node000001_Node000012"><a xlink:title=" ">
<path fill="none" stroke="orange" stroke-dasharray="5,2" d="M84.04,-321.43C97.3,-290.16 123.66,-239.76 163.75,-214.47 225.81,-175.31 310.82,-167.93 370.69,-168.55"/>
<polygon fill="orange" stroke="orange" points="80.83,-320.02 80.31,-330.6 87.32,-322.65 80.83,-320.02"/>
</a>
</g>
<text text-anchor="middle" x="240.25" y="-216.97" font-family="Helvetica,sans-Serif" font-size="10.00" fill="grey"> &lt; AsyncFw::Rrd &gt;</text>
</g>
<!-- Node13 -->
<g id="Node000013" class="node">
<title>Node13</title>
<g id="a_Node000013"><a xlink:href="classAsyncFw_1_1FunctionConnectorProtected.html" target="_top" xlink:title=" ">
<polygon fill="white" stroke="#666666" points="540.12,-139.47 347.88,-139.47 347.88,-107.47 540.12,-107.47 540.12,-139.47"/>
<text text-anchor="start" x="355.88" y="-125.97" font-family="Helvetica,sans-Serif" font-size="10.00">AsyncFw::FunctionConnector</text>
<text text-anchor="middle" x="444" y="-113.97" font-family="Helvetica,sans-Serif" font-size="10.00">Protected&lt; AsyncFw::SystemProcess &gt;</text>
</a>
</g>
</g>
<!-- Node1&#45;&gt;Node13 -->
<g id="edge12_Node000001_Node000013" class="edge">
<title>Node1&#45;&gt;Node13</title>
<g id="a_edge12_Node000001_Node000013"><a xlink:title=" ">
<path fill="none" stroke="orange" stroke-dasharray="5,2" d="M77.96,-320.98C85.98,-277.7 108.12,-194.5 163.75,-154.47 216.31,-116.64 289.45,-109.71 347.69,-111.8"/>
<polygon fill="orange" stroke="orange" points="74.56,-320.12 76.32,-330.57 81.46,-321.3 74.56,-320.12"/>
</a>
</g>
<text text-anchor="middle" x="240.25" y="-156.97" font-family="Helvetica,sans-Serif" font-size="10.00" fill="grey"> &lt; AsyncFw::SystemProcess &gt;</text>
</g>
<!-- Node14 -->
<g id="Node000014" class="node">
<title>Node14</title>
<g id="a_Node000014"><a xlink:href="classAsyncFw_1_1FunctionConnectorProtected.html" target="_top" xlink:title=" ">
<polygon fill="white" stroke="#666666" points="520.25,-89.47 367.75,-89.47 367.75,-57.47 520.25,-57.47 520.25,-89.47"/>
<text text-anchor="start" x="375.75" y="-75.97" font-family="Helvetica,sans-Serif" font-size="10.00">AsyncFw::FunctionConnector</text>
<text text-anchor="middle" x="444" y="-63.97" font-family="Helvetica,sans-Serif" font-size="10.00">Protected&lt; AsyncFw::Thread &gt;</text>
</a>
</g>
</g>
<!-- Node1&#45;&gt;Node14 -->
<g id="edge13_Node000001_Node000014" class="edge">
<title>Node1&#45;&gt;Node14</title>
<g id="a_edge13_Node000001_Node000014"><a xlink:title=" ">
<path fill="none" stroke="orange" stroke-dasharray="5,2" d="M74.51,-320.73C77.39,-267.28 92.02,-150.45 163.75,-95.47 221.16,-51.45 306.14,-51.16 367.26,-58.64"/>
<polygon fill="orange" stroke="orange" points="71.03,-320.35 74.1,-330.49 78.02,-320.65 71.03,-320.35"/>
</a>
</g>
<text text-anchor="middle" x="240.25" y="-97.97" font-family="Helvetica,sans-Serif" font-size="10.00" fill="grey"> &lt; AsyncFw::Thread &gt;</text>
</g>
<!-- Node15 -->
<g id="Node000015" class="node">
<title>Node15</title>
<g id="a_Node000015"><a xlink:href="classAsyncFw_1_1FunctionConnectorProtected.html" target="_top" xlink:title=" ">
<polygon fill="white" stroke="#666666" points="517.62,-39.47 370.38,-39.47 370.38,-7.47 517.62,-7.47 517.62,-39.47"/>
<text text-anchor="start" x="378.38" y="-25.97" font-family="Helvetica,sans-Serif" font-size="10.00">AsyncFw::FunctionConnector</text>
<text text-anchor="middle" x="444" y="-13.97" font-family="Helvetica,sans-Serif" font-size="10.00">Protected&lt; AsyncFw::Timer &gt;</text>
</a>
</g>
</g>
<!-- Node1&#45;&gt;Node15 -->
<g id="edge14_Node000001_Node000015" class="edge">
<title>Node1&#45;&gt;Node15</title>
<g id="a_edge14_Node000001_Node000015"><a xlink:title=" ">
<path fill="none" stroke="orange" stroke-dasharray="5,2" d="M77.79,-320.99C88.21,-252.14 118.91,-75.17 163.75,-39.47 222.44,7.27 312,3.42 373.79,-6.98"/>
<polygon fill="orange" stroke="orange" points="74.36,-320.27 76.36,-330.67 81.29,-321.29 74.36,-320.27"/>
</a>
</g>
<text text-anchor="middle" x="240.25" y="-41.97" font-family="Helvetica,sans-Serif" font-size="10.00" fill="grey"> &lt; AsyncFw::Timer &gt;</text>
</g>
</g>
</svg>
