<?xml version="1.0" encoding="UTF-8" standalone="no"?>
<!DOCTYPE svg PUBLIC "-//W3C//DTD SVG 1.1//EN"
 "http://www.w3.org/Graphics/SVG/1.1/DTD/svg11.dtd">
<!-- Generated by graphviz version 12.2.1 (20241206.2353)
 -->
<!-- Title: AsyncFw::AbstractThread::finishedEvent Pages: 1 -->
<svg width="473pt" height="90pt"
 viewBox="0.00 0.00 473.00 90.00" xmlns="http://www.w3.org/2000/svg" xmlns:xlink="http://www.w3.org/1999/xlink">
<g id="graph0" class="graph" transform="scale(1 1) rotate(0) translate(4 86)">
<title>AsyncFw::AbstractThread::finishedEvent</title>
<!-- Node1 -->
<g id="Node000001" class="node">
<title>Node1</title>
<g id="a_Node000001"><a xlink:title="This call from the thread when it finishing execution.">
<polygon fill="#999999" stroke="#666666" points="465,-57 335,-57 335,-25 465,-25 465,-57"/>
<text text-anchor="start" x="343" y="-43.5" font-family="Helvetica,sans-Serif" font-size="10.00">AsyncFw::AbstractThread</text>
<text text-anchor="middle" x="400" y="-31.5" font-family="Helvetica,sans-Serif" font-size="10.00">::finishedEvent</text>
</a>
</g>
</g>
<!-- Node2 -->
<g id="Node000002" class="node">
<title>Node2</title>
<g id="a_Node000002"><a xlink:href="classAsyncFw_1_1AbstractThread.html#a1abe0f5c637dcc6af5aff00c5291bd4f" target="_top" xlink:title="Run manage loop.">
<polygon fill="white" stroke="#666666" points="297.5,-82 167.5,-82 167.5,-50 297.5,-50 297.5,-82"/>
<text text-anchor="start" x="175.5" y="-68.5" font-family="Helvetica,sans-Serif" font-size="10.00">AsyncFw::AbstractThread</text>
<text text-anchor="middle" x="232.5" y="-56.5" font-family="Helvetica,sans-Serif" font-size="10.00">::exec</text>
</a>
</g>
</g>
<!-- Node1&#45;&gt;Node2 -->
<g id="edge1_Node000001_Node000002" class="edge">
<title>Node1&#45;&gt;Node2</title>
<g id="a_edge1_Node000001_Node000002"><a xlink:title=" ">
<path fill="none" stroke="#63b8ff" d="M323.38,-52.42C314.83,-53.71 306.17,-55.02 297.78,-56.29"/>
<polygon fill="#63b8ff" stroke="#63b8ff" points="323.68,-55.92 333.04,-50.96 322.63,-49 323.68,-55.92"/>
</a>
</g>
</g>
<!-- Node4 -->
<g id="Node000004" class="node">
<title>Node4</title>
<g id="a_Node000004"><a xlink:href="classAsyncFw_1_1Thread.html#ae9fc9cf8baddcc8dfa0e14784918c4a5" target="_top" xlink:title="This call from the thread when it finishing execution.">
<polygon fill="white" stroke="#666666" points="299,-32 166,-32 166,0 299,0 299,-32"/>
<text text-anchor="start" x="174" y="-18.5" font-family="Helvetica,sans-Serif" font-size="10.00">AsyncFw::Thread::finished</text>
<text text-anchor="middle" x="232.5" y="-6.5" font-family="Helvetica,sans-Serif" font-size="10.00">Event</text>
</a>
</g>
</g>
<!-- Node1&#45;&gt;Node4 -->
<g id="edge3_Node000001_Node000004" class="edge">
<title>Node1&#45;&gt;Node4</title>
<g id="a_edge3_Node000001_Node000004"><a xlink:title=" ">
<path fill="none" stroke="#63b8ff" d="M323.34,-29.57C315.36,-28.36 307.28,-27.15 299.42,-25.96"/>
<polygon fill="#63b8ff" stroke="#63b8ff" points="322.63,-33 333.04,-31.04 323.68,-26.08 322.63,-33"/>
</a>
</g>
</g>
<!-- Node3 -->
<g id="Node000003" class="node">
<title>Node3</title>
<g id="a_Node000003"><a xlink:href="classAsyncFw_1_1AbstractThread.html#afdaccb5da7d4bee5e9ff687f761bd21f" target="_top" xlink:title="Create a managed thread and run exec()">
<polygon fill="white" stroke="#666666" points="130,-82 0,-82 0,-50 130,-50 130,-82"/>
<text text-anchor="start" x="8" y="-68.5" font-family="Helvetica,sans-Serif" font-size="10.00">AsyncFw::AbstractThread</text>
<text text-anchor="middle" x="65" y="-56.5" font-family="Helvetica,sans-Serif" font-size="10.00">::start</text>
</a>
</g>
</g>
<!-- Node2&#45;&gt;Node3 -->
<g id="edge2_Node000002_Node000003" class="edge">
<title>Node2&#45;&gt;Node3</title>
<g id="a_edge2_Node000002_Node000003"><a xlink:title=" ">
<path fill="none" stroke="#63b8ff" d="M155.6,-66C147.14,-66 138.58,-66 130.28,-66"/>
<polygon fill="#63b8ff" stroke="#63b8ff" points="155.53,-69.5 165.53,-66 155.53,-62.5 155.53,-69.5"/>
</a>
</g>
</g>
</g>
</svg>
