<?xml version="1.0" encoding="UTF-8" standalone="no"?>
<!DOCTYPE svg PUBLIC "-//W3C//DTD SVG 1.1//EN"
 "http://www.w3.org/Graphics/SVG/1.1/DTD/svg11.dtd">
<!-- Generated by graphviz version 12.2.1 (20241206.2353)
 -->
<!-- Title: AsyncFw::AbstractTlsSocket Pages: 1 -->
<svg width="278pt" height="196pt"
 viewBox="0.00 0.00 277.50 196.00" xmlns="http://www.w3.org/2000/svg" xmlns:xlink="http://www.w3.org/1999/xlink">
<g id="graph0" class="graph" transform="scale(1 1) rotate(0) translate(4 192)">
<title>AsyncFw::AbstractTlsSocket</title>
<!-- Node1 -->
<g id="Node000001" class="node">
<title>Node1</title>
<g id="a_Node000001"><a xlink:title="The AbstractTlsSocket class provides the base functionality for TLS encrypted socket.">
<polygon fill="#999999" stroke="#666666" points="213.25,-76 69,-76 69,-56 213.25,-56 213.25,-76"/>
<text text-anchor="middle" x="141.12" y="-62.5" font-family="Helvetica,sans-Serif" font-size="10.00">AsyncFw::AbstractTlsSocket</text>
</a>
</g>
</g>
<!-- Node4 -->
<g id="Node000004" class="node">
<title>Node4</title>
<g id="a_Node000004"><a xlink:href="classAsyncFw_1_1DataArraySocket.html" target="_top" xlink:title="The DataArraySocket class.">
<polygon fill="white" stroke="#666666" points="138.25,-20 0,-20 0,0 138.25,0 138.25,-20"/>
<text text-anchor="middle" x="69.12" y="-6.5" font-family="Helvetica,sans-Serif" font-size="10.00">AsyncFw::DataArraySocket</text>
</a>
</g>
</g>
<!-- Node1&#45;&gt;Node4 -->
<g id="edge3_Node000001_Node000004" class="edge">
<title>Node1&#45;&gt;Node4</title>
<g id="a_edge3_Node000001_Node000004"><a xlink:title=" ">
<path fill="none" stroke="#63b8ff" d="M119.73,-48.95C107.28,-39.61 92.01,-28.16 81.52,-20.3"/>
<polygon fill="#63b8ff" stroke="#63b8ff" points="117.27,-51.49 127.37,-54.69 121.47,-45.89 117.27,-51.49"/>
</a>
</g>
</g>
<!-- Node5 -->
<g id="Node000005" class="node">
<title>Node5</title>
<g id="a_Node000005"><a xlink:href="classAsyncFw_1_1HttpSocket.html" target="_top" xlink:title="The HttpSocket class.">
<polygon fill="white" stroke="#666666" points="269.5,-20 156.75,-20 156.75,0 269.5,0 269.5,-20"/>
<text text-anchor="middle" x="213.12" y="-6.5" font-family="Helvetica,sans-Serif" font-size="10.00">AsyncFw::HttpSocket</text>
</a>
</g>
</g>
<!-- Node1&#45;&gt;Node5 -->
<g id="edge4_Node000001_Node000005" class="edge">
<title>Node1&#45;&gt;Node5</title>
<g id="a_edge4_Node000001_Node000005"><a xlink:title=" ">
<path fill="none" stroke="#63b8ff" d="M162.52,-48.95C174.97,-39.61 190.24,-28.16 200.73,-20.3"/>
<polygon fill="#63b8ff" stroke="#63b8ff" points="160.78,-45.89 154.88,-54.69 164.98,-51.49 160.78,-45.89"/>
</a>
</g>
</g>
<!-- Node2 -->
<g id="Node000002" class="node">
<title>Node2</title>
<g id="a_Node000002"><a xlink:href="classAsyncFw_1_1AbstractSocket.html" target="_top" xlink:title="The AbstractSocket class provides the base functionality for socket.">
<polygon fill="white" stroke="#666666" points="206.5,-132 75.75,-132 75.75,-112 206.5,-112 206.5,-132"/>
<text text-anchor="middle" x="141.12" y="-118.5" font-family="Helvetica,sans-Serif" font-size="10.00">AsyncFw::AbstractSocket</text>
</a>
</g>
</g>
<!-- Node2&#45;&gt;Node1 -->
<g id="edge1_Node000001_Node000002" class="edge">
<title>Node2&#45;&gt;Node1</title>
<g id="a_edge1_Node000001_Node000002"><a xlink:title=" ">
<path fill="none" stroke="#63b8ff" d="M141.12,-100.13C141.12,-91.9 141.12,-82.85 141.12,-76.3"/>
<polygon fill="#63b8ff" stroke="#63b8ff" points="137.63,-100.08 141.13,-110.08 144.63,-100.08 137.63,-100.08"/>
</a>
</g>
</g>
<!-- Node3 -->
<g id="Node000003" class="node">
<title>Node3</title>
<g id="a_Node000003"><a xlink:href="structAsyncFw_1_1AnyData.html" target="_top" xlink:title="The AnyData class.">
<polygon fill="white" stroke="#666666" points="191.88,-188 90.38,-188 90.38,-168 191.88,-168 191.88,-188"/>
<text text-anchor="middle" x="141.12" y="-174.5" font-family="Helvetica,sans-Serif" font-size="10.00">AsyncFw::AnyData</text>
</a>
</g>
</g>
<!-- Node3&#45;&gt;Node2 -->
<g id="edge2_Node000002_Node000003" class="edge">
<title>Node3&#45;&gt;Node2</title>
<g id="a_edge2_Node000002_Node000003"><a xlink:title=" ">
<path fill="none" stroke="#63b8ff" d="M141.12,-156.13C141.12,-147.9 141.12,-138.85 141.12,-132.3"/>
<polygon fill="#63b8ff" stroke="#63b8ff" points="137.63,-156.08 141.13,-166.08 144.63,-156.08 137.63,-156.08"/>
</a>
</g>
</g>
</g>
</svg>
