<?xml version="1.0" encoding="UTF-8" standalone="no"?>
<!DOCTYPE svg PUBLIC "-//W3C//DTD SVG 1.1//EN"
 "http://www.w3.org/Graphics/SVG/1.1/DTD/svg11.dtd">
<!-- Generated by graphviz version 14.1.3 (20260303.0454)
 -->
<!-- Title: AsyncFw::DataArraySocket::readEvent Pages: 1 -->
<svg width="1001pt" height="280pt"
 viewBox="0.00 0.00 1001.00 280.00" xmlns="http://www.w3.org/2000/svg" xmlns:xlink="http://www.w3.org/1999/xlink">
<g id="graph0" class="graph" transform="scale(1 1) rotate(0) translate(4 276)">
<title>AsyncFw::DataArraySocket::readEvent</title>
<!-- Node1 -->
<g id="Node000001" class="node">
<title>Node1</title>
<g id="a_Node000001"><a xlink:title="Called when there is data to read.">
<polygon fill="#999999" stroke="#666666" points="138.25,-150 0,-150 0,-118 138.25,-118 138.25,-150"/>
<text xml:space="preserve" text-anchor="start" x="8" y="-136.5" font-family="Helvetica,sans-Serif" font-size="10.00">AsyncFw::DataArraySocket</text>
<text xml:space="preserve" text-anchor="middle" x="69.12" y="-124.5" font-family="Helvetica,sans-Serif" font-size="10.00">::readEvent</text>
</a>
</g>
</g>
<!-- Node2 -->
<g id="Node000002" class="node">
<title>Node2</title>
<g id="a_Node000002"><a xlink:href="classAsyncFw_1_1DataArraySocket.html#a9942cbf100e7898ba95c8fb92e059ae8" target="_top" xlink:title="Disconnects the socket from the remote peer.">
<polygon fill="white" stroke="#666666" points="312.5,-250 174.25,-250 174.25,-218 312.5,-218 312.5,-250"/>
<text xml:space="preserve" text-anchor="start" x="182.25" y="-236.5" font-family="Helvetica,sans-Serif" font-size="10.00">AsyncFw::DataArraySocket</text>
<text xml:space="preserve" text-anchor="middle" x="243.38" y="-224.5" font-family="Helvetica,sans-Serif" font-size="10.00">::disconnect</text>
</a>
</g>
</g>
<!-- Node1&#45;&gt;Node2 -->
<g id="edge1_Node000001_Node000002" class="edge">
<title>Node1&#45;&gt;Node2</title>
<g id="a_edge1_Node000001_Node000002"><a xlink:title=" ">
<path fill="none" stroke="#63b8ff" d="M89.41,-150.37C109.55,-166.86 142.57,-192.18 174.25,-209 176.78,-210.34 179.4,-211.65 182.07,-212.9"/>
<polygon fill="#63b8ff" stroke="#63b8ff" points="180.62,-216.09 191.18,-216.92 183.44,-209.68 180.62,-216.09"/>
</a>
</g>
</g>
<!-- Node7 -->
<g id="Node000007" class="node">
<title>Node7</title>
<g id="a_Node000007"><a xlink:href="classAsyncFw_1_1AbstractSocket.html#a75415b9f0ecc82b703e49ad8abf1f3a8" target="_top" xlink:title="Returns the number of bytes of data pending to be read.">
<polygon fill="white" stroke="#666666" points="308.75,-200 178,-200 178,-168 308.75,-168 308.75,-200"/>
<text xml:space="preserve" text-anchor="start" x="186" y="-186.5" font-family="Helvetica,sans-Serif" font-size="10.00">AsyncFw::AbstractSocket</text>
<text xml:space="preserve" text-anchor="middle" x="243.38" y="-174.5" font-family="Helvetica,sans-Serif" font-size="10.00">::pendingRead</text>
</a>
</g>
</g>
<!-- Node1&#45;&gt;Node7 -->
<g id="edge7_Node000001_Node000007" class="edge">
<title>Node1&#45;&gt;Node7</title>
<g id="a_edge7_Node000001_Node000007"><a xlink:title=" ">
<path fill="none" stroke="#63b8ff" d="M126.53,-150.37C141.91,-154.84 158.74,-159.72 174.68,-164.35"/>
<polygon fill="#63b8ff" stroke="#63b8ff" points="173.52,-167.66 184.1,-167.08 175.47,-160.93 173.52,-167.66"/>
</a>
</g>
</g>
<!-- Node9 -->
<g id="Node000009" class="node">
<title>Node9</title>
<g id="a_Node000009"><a xlink:href="classAsyncFw_1_1AbstractSocket.html#a374dd4ce66bfcc8a6dcf40b4ba552828" target="_top" xlink:title="Reads incoming data into a raw byte buffer up to a specified maximum size.">
<polygon fill="white" stroke="#666666" points="308.75,-150 178,-150 178,-118 308.75,-118 308.75,-150"/>
<text xml:space="preserve" text-anchor="start" x="186" y="-136.5" font-family="Helvetica,sans-Serif" font-size="10.00">AsyncFw::AbstractSocket</text>
<text xml:space="preserve" text-anchor="middle" x="243.38" y="-124.5" font-family="Helvetica,sans-Serif" font-size="10.00">::read</text>
</a>
</g>
</g>
<!-- Node1&#45;&gt;Node9 -->
<g id="edge9_Node000001_Node000009" class="edge">
<title>Node1&#45;&gt;Node9</title>
<g id="a_edge9_Node000001_Node000009"><a xlink:title=" ">
<path fill="none" stroke="#63b8ff" d="M138.7,-134C147.74,-134 157.04,-134 166.2,-134"/>
<polygon fill="#63b8ff" stroke="#63b8ff" points="166.17,-137.5 176.17,-134 166.17,-130.5 166.17,-137.5"/>
</a>
</g>
</g>
<!-- Node12 -->
<g id="Node000012" class="node">
<title>Node12</title>
<g id="a_Node000012"><a xlink:href="classAsyncFw_1_1DataArraySocket.html#a60d24e73561b9ffc720deefca7a6f720" target="_top" xlink:title="Forces the transmission of a keep&#45;alive request (ping) to the remote peer.">
<polygon fill="white" stroke="#666666" points="312.5,-82 174.25,-82 174.25,-50 312.5,-50 312.5,-82"/>
<text xml:space="preserve" text-anchor="start" x="182.25" y="-68.5" font-family="Helvetica,sans-Serif" font-size="10.00">AsyncFw::DataArraySocket</text>
<text xml:space="preserve" text-anchor="middle" x="243.38" y="-56.5" font-family="Helvetica,sans-Serif" font-size="10.00">::sendKeepAlive</text>
</a>
</g>
</g>
<!-- Node1&#45;&gt;Node12 -->
<g id="edge12_Node000001_Node000012" class="edge">
<title>Node1&#45;&gt;Node12</title>
<g id="a_edge12_Node000001_Node000012"><a xlink:title=" ">
<path fill="none" stroke="#63b8ff" d="M111.82,-117.54C135.43,-108.22 165.18,-96.48 190.31,-86.56"/>
<polygon fill="#63b8ff" stroke="#63b8ff" points="191.34,-89.91 199.36,-82.98 188.77,-83.4 191.34,-89.91"/>
</a>
</g>
</g>
<!-- Node13 -->
<g id="Node000013" class="node">
<title>Node13</title>
<g id="a_Node000013"><a xlink:href="classAsyncFw_1_1AbstractSocket.html#aee9d948ab5f79cb9c0c45da1709c1159" target="_top" xlink:title="Updates the human&#45;readable error description buffer string.">
<polygon fill="white" stroke="#666666" points="308.75,-32 178,-32 178,0 308.75,0 308.75,-32"/>
<text xml:space="preserve" text-anchor="start" x="186" y="-18.5" font-family="Helvetica,sans-Serif" font-size="10.00">AsyncFw::AbstractSocket</text>
<text xml:space="preserve" text-anchor="middle" x="243.38" y="-6.5" font-family="Helvetica,sans-Serif" font-size="10.00">::setErrorString</text>
</a>
</g>
</g>
<!-- Node1&#45;&gt;Node13 -->
<g id="edge14_Node000001_Node000013" class="edge">
<title>Node1&#45;&gt;Node13</title>
<g id="a_edge14_Node000001_Node000013"><a xlink:title=" ">
<path fill="none" stroke="#63b8ff" d="M84.52,-117.81C103.38,-97.46 138.29,-62.57 174.25,-41 176.4,-39.71 178.63,-38.47 180.91,-37.28"/>
<polygon fill="#63b8ff" stroke="#63b8ff" points="182.29,-40.5 189.8,-33.03 179.27,-34.18 182.29,-40.5"/>
</a>
</g>
</g>
<!-- Node3 -->
<g id="Node000003" class="node">
<title>Node3</title>
<g id="a_Node000003"><a xlink:href="classAsyncFw_1_1AbstractTlsSocket.html#af52f94f709ab74eace61da79cbd8af7d" target="_top" xlink:title="Shuts down the active TLS session gracefully via SSL_shutdown() before terminating the network pipe.">
<polygon fill="white" stroke="#666666" points="492.75,-250 348.5,-250 348.5,-218 492.75,-218 492.75,-250"/>
<text xml:space="preserve" text-anchor="start" x="356.5" y="-236.5" font-family="Helvetica,sans-Serif" font-size="10.00">AsyncFw::AbstractTlsSocket</text>
<text xml:space="preserve" text-anchor="middle" x="420.62" y="-224.5" font-family="Helvetica,sans-Serif" font-size="10.00">::disconnect</text>
</a>
</g>
</g>
<!-- Node2&#45;&gt;Node3 -->
<g id="edge2_Node000002_Node000003" class="edge">
<title>Node2&#45;&gt;Node3</title>
<g id="a_edge2_Node000002_Node000003"><a xlink:title=" ">
<path fill="none" stroke="#63b8ff" d="M312.88,-234C320.78,-234 328.89,-234 336.95,-234"/>
<polygon fill="#63b8ff" stroke="#63b8ff" points="336.76,-237.5 346.76,-234 336.76,-230.5 336.76,-237.5"/>
</a>
</g>
</g>
<!-- Node4 -->
<g id="Node000004" class="node">
<title>Node4</title>
<g id="a_Node000004"><a xlink:href="classAsyncFw_1_1AbstractSocket.html#a96c331ff22db7a34923c34f575075e6a" target="_top" xlink:title="Disconnects the socket from the remote host gracefully.">
<polygon fill="white" stroke="#666666" points="659.5,-250 528.75,-250 528.75,-218 659.5,-218 659.5,-250"/>
<text xml:space="preserve" text-anchor="start" x="536.75" y="-236.5" font-family="Helvetica,sans-Serif" font-size="10.00">AsyncFw::AbstractSocket</text>
<text xml:space="preserve" text-anchor="middle" x="594.12" y="-224.5" font-family="Helvetica,sans-Serif" font-size="10.00">::disconnect</text>
</a>
</g>
</g>
<!-- Node3&#45;&gt;Node4 -->
<g id="edge3_Node000003_Node000004" class="edge">
<title>Node3&#45;&gt;Node4</title>
<g id="a_edge3_Node000003_Node000004"><a xlink:title=" ">
<path fill="none" stroke="#63b8ff" d="M492.87,-234C500.87,-234 509.05,-234 517.12,-234"/>
<polygon fill="#63b8ff" stroke="#63b8ff" points="516.9,-237.5 526.9,-234 516.9,-230.5 516.9,-237.5"/>
</a>
</g>
</g>
<!-- Node5 -->
<g id="Node000005" class="node">
<title>Node5</title>
<g id="a_Node000005"><a xlink:href="classAsyncFw_1_1AbstractSocket.html#a77c0a9ea7c5061c406673bbe8b18d60d" target="_top" xlink:title="Closes the network connection and unsubscribes from thread polling events.">
<polygon fill="white" stroke="#666666" points="826.25,-272 695.5,-272 695.5,-240 826.25,-240 826.25,-272"/>
<text xml:space="preserve" text-anchor="start" x="703.5" y="-258.5" font-family="Helvetica,sans-Serif" font-size="10.00">AsyncFw::AbstractSocket</text>
<text xml:space="preserve" text-anchor="middle" x="760.88" y="-246.5" font-family="Helvetica,sans-Serif" font-size="10.00">::close</text>
</a>
</g>
</g>
<!-- Node4&#45;&gt;Node5 -->
<g id="edge4_Node000004_Node000005" class="edge">
<title>Node4&#45;&gt;Node5</title>
<g id="a_edge4_Node000004_Node000005"><a xlink:title=" ">
<path fill="none" stroke="#63b8ff" d="M659.77,-242.63C667.67,-243.69 675.8,-244.77 683.85,-245.85"/>
<polygon fill="#63b8ff" stroke="#63b8ff" points="683.27,-249.3 693.65,-247.16 684.2,-242.36 683.27,-249.3"/>
</a>
</g>
</g>
<!-- Node6 -->
<g id="Node000006" class="node">
<title>Node6</title>
<g id="a_Node000006"><a xlink:href="classAsyncFw_1_1AbstractSocket.html#a5db12267a6d2241e81f570463f2d7ef5" target="_top" xlink:title="Called when the connection state changes.">
<polygon fill="white" stroke="#666666" points="993,-250 862.25,-250 862.25,-218 993,-218 993,-250"/>
<text xml:space="preserve" text-anchor="start" x="870.25" y="-236.5" font-family="Helvetica,sans-Serif" font-size="10.00">AsyncFw::AbstractSocket</text>
<text xml:space="preserve" text-anchor="middle" x="927.62" y="-224.5" font-family="Helvetica,sans-Serif" font-size="10.00">::stateEvent</text>
</a>
</g>
</g>
<!-- Node4&#45;&gt;Node6 -->
<g id="edge6_Node000004_Node000006" class="edge">
<title>Node4&#45;&gt;Node6</title>
<g id="a_edge6_Node000004_Node000006"><a xlink:title=" ">
<path fill="none" stroke="#63b8ff" d="M659.91,-231.78C671.75,-231.45 683.99,-231.17 695.5,-231 753.6,-230.13 768.15,-230.13 826.25,-231 834.07,-231.12 842.23,-231.28 850.37,-231.48"/>
<polygon fill="#63b8ff" stroke="#63b8ff" points="850.24,-234.98 860.32,-231.74 850.42,-227.98 850.24,-234.98"/>
</a>
</g>
</g>
<!-- Node5&#45;&gt;Node6 -->
<g id="edge5_Node000005_Node000006" class="edge">
<title>Node5&#45;&gt;Node6</title>
<g id="a_edge5_Node000005_Node000006"><a xlink:title=" ">
<path fill="none" stroke="#63b8ff" d="M826.52,-247.37C834.42,-246.31 842.55,-245.23 850.6,-244.15"/>
<polygon fill="#63b8ff" stroke="#63b8ff" points="850.95,-247.64 860.4,-242.84 850.02,-240.7 850.95,-247.64"/>
</a>
</g>
</g>
<!-- Node8 -->
<g id="Node000008" class="node">
<title>Node8</title>
<g id="a_Node000008"><a xlink:href="classAsyncFw_1_1AbstractSocket.html#a64ec81f99806967d9244337b88ae03ba" target="_top" xlink:title="Low&#45;level system call that checks whether a file descriptor contains data.">
<polygon fill="white" stroke="#666666" points="486,-200 355.25,-200 355.25,-168 486,-168 486,-200"/>
<text xml:space="preserve" text-anchor="start" x="363.25" y="-186.5" font-family="Helvetica,sans-Serif" font-size="10.00">AsyncFw::AbstractSocket</text>
<text xml:space="preserve" text-anchor="middle" x="420.62" y="-174.5" font-family="Helvetica,sans-Serif" font-size="10.00">::read_available_fd</text>
</a>
</g>
</g>
<!-- Node7&#45;&gt;Node8 -->
<g id="edge8_Node000007_Node000008" class="edge">
<title>Node7&#45;&gt;Node8</title>
<g id="a_edge8_Node000007_Node000008"><a xlink:title=" ">
<path fill="none" stroke="#63b8ff" d="M309.13,-184C320.32,-184 332.05,-184 343.5,-184"/>
<polygon fill="#63b8ff" stroke="#63b8ff" points="343.33,-187.5 353.33,-184 343.33,-180.5 343.33,-187.5"/>
</a>
</g>
</g>
<!-- Node10 -->
<g id="Node000010" class="node">
<title>Node10</title>
<g id="a_Node000010"><a xlink:href="classAsyncFw_1_1AbstractSocket.html#a25efdce1c4a0dedf15e57cb0af971d86" target="_top" xlink:title="Low&#45;level native operating system read operation proxying requests directly down to the fd handle.">
<polygon fill="white" stroke="#666666" points="486,-150 355.25,-150 355.25,-118 486,-118 486,-150"/>
<text xml:space="preserve" text-anchor="start" x="363.25" y="-136.5" font-family="Helvetica,sans-Serif" font-size="10.00">AsyncFw::AbstractSocket</text>
<text xml:space="preserve" text-anchor="middle" x="420.62" y="-124.5" font-family="Helvetica,sans-Serif" font-size="10.00">::read_fd</text>
</a>
</g>
</g>
<!-- Node9&#45;&gt;Node10 -->
<g id="edge10_Node000009_Node000010" class="edge">
<title>Node9&#45;&gt;Node10</title>
<g id="a_edge10_Node000009_Node000010"><a xlink:title=" ">
<path fill="none" stroke="#63b8ff" d="M309.13,-134C320.32,-134 332.05,-134 343.5,-134"/>
<polygon fill="#63b8ff" stroke="#63b8ff" points="343.33,-137.5 353.33,-134 343.33,-130.5 343.33,-137.5"/>
</a>
</g>
</g>
<!-- Node11 -->
<g id="Node000011" class="node">
<title>Node11</title>
<g id="a_Node000011"><a xlink:href="structAsyncFw_1_1AnyData.html#aa6d2c3488a44e34e25a0971b01a27b3c" target="_top" xlink:title="Type&#45;safely extracts and returns the stored data value.">
<polygon fill="white" stroke="#666666" points="657.25,-144 531,-144 531,-124 657.25,-124 657.25,-144"/>
<text xml:space="preserve" text-anchor="middle" x="594.12" y="-130.5" font-family="Helvetica,sans-Serif" font-size="10.00">AsyncFw::AnyData::data</text>
</a>
</g>
</g>
<!-- Node10&#45;&gt;Node11 -->
<g id="edge11_Node000010_Node000011" class="edge">
<title>Node10&#45;&gt;Node11</title>
<g id="a_edge11_Node000010_Node000011"><a xlink:title=" ">
<path fill="none" stroke="#63b8ff" d="M486.46,-134C497.23,-134 508.47,-134 519.44,-134"/>
<polygon fill="#63b8ff" stroke="#63b8ff" points="519.24,-137.5 529.24,-134 519.24,-130.5 519.24,-137.5"/>
</a>
</g>
</g>
<!-- Node12&#45;&gt;Node12 -->
<g id="edge13_Node000012_Node000012" class="edge">
<title>Node12&#45;&gt;Node12</title>
<g id="a_edge13_Node000012_Node000012"><a xlink:title=" ">
<path fill="none" stroke="#63b8ff" d="M212.27,-82.44C206.46,-91.58 216.83,-100 243.38,-100 257.89,-100 267.57,-97.48 272.41,-93.71"/>
<polygon fill="#63b8ff" stroke="#63b8ff" points="275.84,-94.4 274.21,-83.93 268.96,-93.13 275.84,-94.4"/>
</a>
</g>
</g>
</g>
</svg>
