<?xml version="1.0" encoding="UTF-8" standalone="no"?>
<!DOCTYPE svg PUBLIC "-//W3C//DTD SVG 1.1//EN"
 "http://www.w3.org/Graphics/SVG/1.1/DTD/svg11.dtd">
<!-- Generated by graphviz version 12.2.1 (20241206.2353)
 -->
<!-- Title: AsyncFw::DataArray::view Pages: 1 -->
<svg width="285pt" height="96pt"
 viewBox="0.00 0.00 285.25 96.00" xmlns="http://www.w3.org/2000/svg" xmlns:xlink="http://www.w3.org/1999/xlink">
<g id="graph0" class="graph" transform="scale(1 1) rotate(0) translate(4 92)">
<title>AsyncFw::DataArray::view</title>
<!-- Node1 -->
<g id="Node000001" class="node">
<title>Node1</title>
<g id="a_Node000001"><a xlink:title="Creates a lightweight, non&#45;allocating view slicing a sub&#45;region of this byte array.">
<polygon fill="#999999" stroke="#666666" points="277.25,-54 169.75,-54 169.75,-22 277.25,-22 277.25,-54"/>
<text text-anchor="start" x="177.75" y="-40.5" font-family="Helvetica,sans-Serif" font-size="10.00">AsyncFw::DataArray</text>
<text text-anchor="middle" x="223.5" y="-28.5" font-family="Helvetica,sans-Serif" font-size="10.00">::view</text>
</a>
</g>
</g>
<!-- Node2 -->
<g id="Node000002" class="node">
<title>Node2</title>
<g id="a_Node000002"><a xlink:href="classAsyncFw_1_1Cryptor.html#a85041f8d5b2a6c69be47a811039b2aec" target="_top" xlink:title="Type&#45;safely encrypts raw data payload into a secure ciphertext buffer.">
<polygon fill="white" stroke="#666666" points="133.75,-70 0,-70 0,-50 133.75,-50 133.75,-70"/>
<text text-anchor="middle" x="66.88" y="-56.5" font-family="Helvetica,sans-Serif" font-size="10.00">AsyncFw::Cryptor::encrypt</text>
</a>
</g>
</g>
<!-- Node1&#45;&gt;Node2 -->
<g id="edge1_Node000001_Node000002" class="edge">
<title>Node1&#45;&gt;Node2</title>
<g id="a_edge1_Node000001_Node000002"><a xlink:title=" ">
<path fill="none" stroke="#63b8ff" d="M157.9,-47.19C150.01,-48.31 141.94,-49.46 134.03,-50.59"/>
<polygon fill="#63b8ff" stroke="#63b8ff" points="158.38,-50.66 167.79,-45.78 157.4,-43.73 158.38,-50.66"/>
</a>
</g>
</g>
<!-- Node3 -->
<g id="Node000003" class="node">
<title>Node3</title>
<g id="a_Node000003"><a xlink:href="classAsyncFw_1_1HttpSocket.html#a7163448458d68f433dbdb214a6175be3" target="_top" xlink:title="Called when there is data to read.">
<polygon fill="white" stroke="#666666" points="123.25,-32 10.5,-32 10.5,0 123.25,0 123.25,-32"/>
<text text-anchor="start" x="18.5" y="-18.5" font-family="Helvetica,sans-Serif" font-size="10.00">AsyncFw::HttpSocket</text>
<text text-anchor="middle" x="66.88" y="-6.5" font-family="Helvetica,sans-Serif" font-size="10.00">::readEvent</text>
</a>
</g>
</g>
<!-- Node1&#45;&gt;Node3 -->
<g id="edge3_Node000001_Node000003" class="edge">
<title>Node1&#45;&gt;Node3</title>
<g id="a_edge3_Node000001_Node000003"><a xlink:title=" ">
<path fill="none" stroke="#63b8ff" d="M158.01,-28.82C146.56,-27.2 134.73,-25.51 123.56,-23.92"/>
<polygon fill="#63b8ff" stroke="#63b8ff" points="157.4,-32.27 167.79,-30.22 158.38,-25.34 157.4,-32.27"/>
</a>
</g>
</g>
<!-- Node2&#45;&gt;Node2 -->
<g id="edge2_Node000002_Node000002" class="edge">
<title>Node2&#45;&gt;Node2</title>
<g id="a_edge2_Node000002_Node000002"><a xlink:title=" ">
<path fill="none" stroke="#63b8ff" d="M94.56,-81.44C90.99,-85.3 81.76,-88 66.88,-88 39.65,-88 31.35,-78.98 41.99,-70.34"/>
<polygon fill="#63b8ff" stroke="#63b8ff" points="97.97,-80.65 92.13,-71.81 91.18,-82.36 97.97,-80.65"/>
</a>
</g>
</g>
</g>
</svg>
