<?xml version="1.0" encoding="UTF-8" standalone="no"?>
<!DOCTYPE svg PUBLIC "-//W3C//DTD SVG 1.1//EN"
 "http://www.w3.org/Graphics/SVG/1.1/DTD/svg11.dtd">
<!-- Generated by graphviz version 12.2.1 (20241206.2353)
 -->
<!-- Title: AsyncFw::AbstractSocket Pages: 1 -->
<svg width="239pt" height="153pt"
 viewBox="0.00 0.00 238.75 153.00" xmlns="http://www.w3.org/2000/svg" xmlns:xlink="http://www.w3.org/1999/xlink">
<g id="graph0" class="graph" transform="scale(1 1) rotate(0) translate(4 149)">
<title>AsyncFw::AbstractSocket</title>
<!-- Node1 -->
<g id="Node000001" class="node">
<title>Node1</title>
<g id="a_Node000001"><a xlink:title="The AbstractSocket class provides the base functionality for socket.">
<polygon fill="#999999" stroke="#666666" points="153.12,-20 22.38,-20 22.38,0 153.12,0 153.12,-20"/>
<text text-anchor="middle" x="87.75" y="-6.5" font-family="Helvetica,sans-Serif" font-size="10.00">AsyncFw::AbstractSocket</text>
</a>
</g>
</g>
<!-- Node2 -->
<g id="Node000002" class="node">
<title>Node2</title>
<g id="a_Node000002"><a xlink:href="structAsyncFw_1_1AnyData.html" target="_top" xlink:title="The AnyData class.">
<polygon fill="white" stroke="#666666" points="101.5,-88 0,-88 0,-68 101.5,-68 101.5,-88"/>
<text text-anchor="middle" x="50.75" y="-74.5" font-family="Helvetica,sans-Serif" font-size="10.00">AsyncFw::AnyData</text>
</a>
</g>
</g>
<!-- Node2&#45;&gt;Node1 -->
<g id="edge1_Node000001_Node000002" class="edge">
<title>Node2&#45;&gt;Node1</title>
<g id="a_edge1_Node000001_Node000002"><a xlink:title=" ">
<path fill="none" stroke="#63b8ff" d="M61.53,-57.78C68.41,-45.51 77.02,-30.14 82.46,-20.44"/>
<polygon fill="#63b8ff" stroke="#63b8ff" points="58.63,-55.79 56.79,-66.22 64.73,-59.21 58.63,-55.79"/>
</a>
</g>
</g>
<!-- Node3 -->
<g id="Node000003" class="node">
<title>Node3</title>
<g id="a_Node000003"><a xlink:href="classAsyncFw_1_1Thread.html" target="_top" xlink:title="AsyncFw::Thread thread with sockets.">
<polygon fill="white" stroke="#666666" points="212.38,-88 119.12,-88 119.12,-68 212.38,-68 212.38,-88"/>
<text text-anchor="middle" x="165.75" y="-74.5" font-family="Helvetica,sans-Serif" font-size="10.00">AsyncFw::Thread</text>
</a>
</g>
</g>
<!-- Node3&#45;&gt;Node1 -->
<g id="edge2_Node000001_Node000003" class="edge">
<title>Node3&#45;&gt;Node1</title>
<g id="a_edge2_Node000001_Node000003"><a xlink:title=" ">
<path fill="none" stroke="#9a32cd" stroke-dasharray="5,2" d="M146.05,-60.33C131.13,-47.71 111.18,-30.82 98.9,-20.44"/>
<polygon fill="#9a32cd" stroke="#9a32cd" points="143.52,-62.78 153.42,-66.57 148.05,-57.43 143.52,-62.78"/>
</a>
</g>
<text text-anchor="middle" x="151.36" y="-40.5" font-family="Helvetica,sans-Serif" font-size="10.00" fill="grey"> thread_</text>
</g>
<!-- Node4 -->
<g id="Node000004" class="node">
<title>Node4</title>
<g id="a_Node000004"><a xlink:href="classAsyncFw_1_1AbstractThread.html" target="_top" xlink:title="The AbstractThread class provides the base functionality for thread management.">
<polygon fill="white" stroke="#666666" points="230.75,-145 100.75,-145 100.75,-125 230.75,-125 230.75,-145"/>
<text text-anchor="middle" x="165.75" y="-131.5" font-family="Helvetica,sans-Serif" font-size="10.00">AsyncFw::AbstractThread</text>
</a>
</g>
</g>
<!-- Node4&#45;&gt;Node3 -->
<g id="edge3_Node000003_Node000004" class="edge">
<title>Node4&#45;&gt;Node3</title>
<g id="a_edge3_Node000003_Node000004"><a xlink:title=" ">
<path fill="none" stroke="#63b8ff" d="M165.75,-113.69C165.75,-104.97 165.75,-95.22 165.75,-88.28"/>
<polygon fill="#63b8ff" stroke="#63b8ff" points="162.25,-113.4 165.75,-123.4 169.25,-113.4 162.25,-113.4"/>
</a>
</g>
</g>
</g>
</svg>
