<?xml version="1.0" encoding="UTF-8" standalone="no"?>
<!DOCTYPE svg PUBLIC "-//W3C//DTD SVG 1.1//EN"
 "http://www.w3.org/Graphics/SVG/1.1/DTD/svg11.dtd">
<!-- Generated by graphviz version 14.1.3 (20260303.0454)
 -->
<!-- Title: AsyncFw::HttpServer::TcpSocket::readEvent Pages: 1 -->
<svg width="1122pt" height="190pt"
 viewBox="0.00 0.00 1122.00 190.00" xmlns="http://www.w3.org/2000/svg" xmlns:xlink="http://www.w3.org/1999/xlink">
<g id="graph0" class="graph" transform="scale(1 1) rotate(0) translate(4 186)">
<title>AsyncFw::HttpServer::TcpSocket::readEvent</title>
<!-- Node1 -->
<g id="Node000001" class="node">
<title>Node1</title>
<g id="a_Node000001"><a xlink:title="Triggered when new raw data is available in the socket for reading. &#160;&#160;Overrides the base behavior to ...">
<polygon fill="#999999" stroke="#666666" points="118,-138 0,-138 0,-106 118,-106 118,-138"/>
<text xml:space="preserve" text-anchor="start" x="8" y="-124.5" font-family="Helvetica,sans-Serif" font-size="10.00">AsyncFw::HttpServer</text>
<text xml:space="preserve" text-anchor="middle" x="59" y="-112.5" font-family="Helvetica,sans-Serif" font-size="10.00">::TcpSocket::readEvent</text>
</a>
</g>
</g>
<!-- Node2 -->
<g id="Node000002" class="node">
<title>Node2</title>
<g id="a_Node000002"><a xlink:href="classAsyncFw_1_1HttpSocket.html#a33dadd18584b3b2b76a02dffa0a831fb" target="_top" xlink:title="Shuts down the active TLS session gracefully via SSL_shutdown() before terminating the network pipe.">
<polygon fill="white" stroke="#666666" points="424.5,-182 311.75,-182 311.75,-150 424.5,-150 424.5,-182"/>
<text xml:space="preserve" text-anchor="start" x="319.75" y="-168.5" font-family="Helvetica,sans-Serif" font-size="10.00">AsyncFw::HttpSocket</text>
<text xml:space="preserve" text-anchor="middle" x="368.12" y="-156.5" font-family="Helvetica,sans-Serif" font-size="10.00">::disconnect</text>
</a>
</g>
</g>
<!-- Node1&#45;&gt;Node2 -->
<g id="edge1_Node000001_Node000002" class="edge">
<title>Node1&#45;&gt;Node2</title>
<g id="a_edge1_Node000001_Node000002"><a xlink:title=" ">
<path fill="none" stroke="#63b8ff" d="M118.49,-130.38C170.32,-137.81 245.98,-148.64 300.21,-156.41"/>
<polygon fill="#63b8ff" stroke="#63b8ff" points="299.55,-159.85 309.94,-157.81 300.54,-152.92 299.55,-159.85"/>
</a>
</g>
</g>
<!-- Node7 -->
<g id="Node000007" class="node">
<title>Node7</title>
<g id="a_Node000007"><a xlink:href="classAsyncFw_1_1AbstractSocket.html#a374dd4ce66bfcc8a6dcf40b4ba552828" target="_top" xlink:title="Reads incoming data into a raw byte buffer up to a specified maximum size.">
<polygon fill="white" stroke="#666666" points="433.5,-132 302.75,-132 302.75,-100 433.5,-100 433.5,-132"/>
<text xml:space="preserve" text-anchor="start" x="310.75" y="-118.5" font-family="Helvetica,sans-Serif" font-size="10.00">AsyncFw::AbstractSocket</text>
<text xml:space="preserve" text-anchor="middle" x="368.12" y="-106.5" font-family="Helvetica,sans-Serif" font-size="10.00">::read</text>
</a>
</g>
</g>
<!-- Node1&#45;&gt;Node7 -->
<g id="edge7_Node000001_Node000007" class="edge">
<title>Node1&#45;&gt;Node7</title>
<g id="a_edge7_Node000001_Node000007"><a xlink:title=" ">
<path fill="none" stroke="#63b8ff" d="M118.49,-120.86C167.46,-119.9 237.69,-118.53 291.03,-117.49"/>
<polygon fill="#63b8ff" stroke="#63b8ff" points="291.04,-120.99 300.97,-117.29 290.9,-113.99 291.04,-120.99"/>
</a>
</g>
</g>
<!-- Node10 -->
<g id="Node000010" class="node">
<title>Node10</title>
<g id="a_Node000010"><a xlink:href="classAsyncFw_1_1HttpSocket.html#a7163448458d68f433dbdb214a6175be3" target="_top" xlink:title="Called when there is data to read.">
<polygon fill="white" stroke="#666666" points="266.75,-94 154,-94 154,-62 266.75,-62 266.75,-94"/>
<text xml:space="preserve" text-anchor="start" x="162" y="-80.5" font-family="Helvetica,sans-Serif" font-size="10.00">AsyncFw::HttpSocket</text>
<text xml:space="preserve" text-anchor="middle" x="210.38" y="-68.5" font-family="Helvetica,sans-Serif" font-size="10.00">::readEvent</text>
</a>
</g>
</g>
<!-- Node1&#45;&gt;Node10 -->
<g id="edge10_Node000001_Node000010" class="edge">
<title>Node1&#45;&gt;Node10</title>
<g id="a_edge10_Node000001_Node000010"><a xlink:title=" ">
<path fill="none" stroke="#63b8ff" d="M115.62,-105.62C124.47,-103.01 133.7,-100.29 142.76,-97.62"/>
<polygon fill="#63b8ff" stroke="#63b8ff" points="143.65,-101.01 152.25,-94.83 141.67,-94.29 143.65,-101.01"/>
</a>
</g>
</g>
<!-- Node3 -->
<g id="Node000003" class="node">
<title>Node3</title>
<g id="a_Node000003"><a xlink:href="classAsyncFw_1_1AbstractTlsSocket.html#af52f94f709ab74eace61da79cbd8af7d" target="_top" xlink:title="Shuts down the active TLS session gracefully via SSL_shutdown() before terminating the network pipe.">
<polygon fill="white" stroke="#666666" points="613.75,-182 469.5,-182 469.5,-150 613.75,-150 613.75,-182"/>
<text xml:space="preserve" text-anchor="start" x="477.5" y="-168.5" font-family="Helvetica,sans-Serif" font-size="10.00">AsyncFw::AbstractTlsSocket</text>
<text xml:space="preserve" text-anchor="middle" x="541.62" y="-156.5" font-family="Helvetica,sans-Serif" font-size="10.00">::disconnect</text>
</a>
</g>
</g>
<!-- Node2&#45;&gt;Node3 -->
<g id="edge2_Node000002_Node000003" class="edge">
<title>Node2&#45;&gt;Node3</title>
<g id="a_edge2_Node000002_Node000003"><a xlink:title=" ">
<path fill="none" stroke="#63b8ff" d="M424.81,-166C435.44,-166 446.79,-166 458.06,-166"/>
<polygon fill="#63b8ff" stroke="#63b8ff" points="457.76,-169.5 467.76,-166 457.76,-162.5 457.76,-169.5"/>
</a>
</g>
</g>
<!-- Node4 -->
<g id="Node000004" class="node">
<title>Node4</title>
<g id="a_Node000004"><a xlink:href="classAsyncFw_1_1AbstractSocket.html#a96c331ff22db7a34923c34f575075e6a" target="_top" xlink:title="Disconnects the socket from the remote host gracefully.">
<polygon fill="white" stroke="#666666" points="780.5,-182 649.75,-182 649.75,-150 780.5,-150 780.5,-182"/>
<text xml:space="preserve" text-anchor="start" x="657.75" y="-168.5" font-family="Helvetica,sans-Serif" font-size="10.00">AsyncFw::AbstractSocket</text>
<text xml:space="preserve" text-anchor="middle" x="715.12" y="-156.5" font-family="Helvetica,sans-Serif" font-size="10.00">::disconnect</text>
</a>
</g>
</g>
<!-- Node3&#45;&gt;Node4 -->
<g id="edge3_Node000003_Node000004" class="edge">
<title>Node3&#45;&gt;Node4</title>
<g id="a_edge3_Node000003_Node000004"><a xlink:title=" ">
<path fill="none" stroke="#63b8ff" d="M613.87,-166C621.87,-166 630.05,-166 638.12,-166"/>
<polygon fill="#63b8ff" stroke="#63b8ff" points="637.9,-169.5 647.9,-166 637.9,-162.5 637.9,-169.5"/>
</a>
</g>
</g>
<!-- Node5 -->
<g id="Node000005" class="node">
<title>Node5</title>
<g id="a_Node000005"><a xlink:href="classAsyncFw_1_1AbstractSocket.html#a77c0a9ea7c5061c406673bbe8b18d60d" target="_top" xlink:title="Closes the network connection and unsubscribes from thread polling events.">
<polygon fill="white" stroke="#666666" points="947.25,-160 816.5,-160 816.5,-128 947.25,-128 947.25,-160"/>
<text xml:space="preserve" text-anchor="start" x="824.5" y="-146.5" font-family="Helvetica,sans-Serif" font-size="10.00">AsyncFw::AbstractSocket</text>
<text xml:space="preserve" text-anchor="middle" x="881.88" y="-134.5" font-family="Helvetica,sans-Serif" font-size="10.00">::close</text>
</a>
</g>
</g>
<!-- Node4&#45;&gt;Node5 -->
<g id="edge4_Node000004_Node000005" class="edge">
<title>Node4&#45;&gt;Node5</title>
<g id="a_edge4_Node000004_Node000005"><a xlink:title=" ">
<path fill="none" stroke="#63b8ff" d="M780.77,-157.37C788.67,-156.31 796.8,-155.23 804.85,-154.15"/>
<polygon fill="#63b8ff" stroke="#63b8ff" points="805.2,-157.64 814.65,-152.84 804.27,-150.7 805.2,-157.64"/>
</a>
</g>
</g>
<!-- Node6 -->
<g id="Node000006" class="node">
<title>Node6</title>
<g id="a_Node000006"><a xlink:href="classAsyncFw_1_1AbstractSocket.html#a5db12267a6d2241e81f570463f2d7ef5" target="_top" xlink:title="Called when the connection state changes.">
<polygon fill="white" stroke="#666666" points="1114,-182 983.25,-182 983.25,-150 1114,-150 1114,-182"/>
<text xml:space="preserve" text-anchor="start" x="991.25" y="-168.5" font-family="Helvetica,sans-Serif" font-size="10.00">AsyncFw::AbstractSocket</text>
<text xml:space="preserve" text-anchor="middle" x="1048.62" y="-156.5" font-family="Helvetica,sans-Serif" font-size="10.00">::stateEvent</text>
</a>
</g>
</g>
<!-- Node4&#45;&gt;Node6 -->
<g id="edge6_Node000004_Node000006" class="edge">
<title>Node4&#45;&gt;Node6</title>
<g id="a_edge6_Node000004_Node000006"><a xlink:title=" ">
<path fill="none" stroke="#63b8ff" d="M780.91,-168.22C792.75,-168.55 804.99,-168.83 816.5,-169 874.6,-169.87 889.15,-169.87 947.25,-169 955.07,-168.88 963.23,-168.72 971.37,-168.52"/>
<polygon fill="#63b8ff" stroke="#63b8ff" points="971.42,-172.02 981.32,-168.26 971.24,-165.02 971.42,-172.02"/>
</a>
</g>
</g>
<!-- Node5&#45;&gt;Node6 -->
<g id="edge5_Node000005_Node000006" class="edge">
<title>Node5&#45;&gt;Node6</title>
<g id="a_edge5_Node000005_Node000006"><a xlink:title=" ">
<path fill="none" stroke="#63b8ff" d="M947.52,-152.63C955.42,-153.69 963.55,-154.77 971.6,-155.85"/>
<polygon fill="#63b8ff" stroke="#63b8ff" points="971.02,-159.3 981.4,-157.16 971.95,-152.36 971.02,-159.3"/>
</a>
</g>
</g>
<!-- Node8 -->
<g id="Node000008" class="node">
<title>Node8</title>
<g id="a_Node000008"><a xlink:href="classAsyncFw_1_1AbstractSocket.html#a25efdce1c4a0dedf15e57cb0af971d86" target="_top" xlink:title="Low&#45;level native operating system read operation proxying requests directly down to the fd handle.">
<polygon fill="white" stroke="#666666" points="607,-107 476.25,-107 476.25,-75 607,-75 607,-107"/>
<text xml:space="preserve" text-anchor="start" x="484.25" y="-93.5" font-family="Helvetica,sans-Serif" font-size="10.00">AsyncFw::AbstractSocket</text>
<text xml:space="preserve" text-anchor="middle" x="541.62" y="-81.5" font-family="Helvetica,sans-Serif" font-size="10.00">::read_fd</text>
</a>
</g>
</g>
<!-- Node7&#45;&gt;Node8 -->
<g id="edge8_Node000007_Node000008" class="edge">
<title>Node7&#45;&gt;Node8</title>
<g id="a_edge8_Node000007_Node000008"><a xlink:title=" ">
<path fill="none" stroke="#63b8ff" d="M433.96,-106.55C444.06,-105.08 454.58,-103.54 464.89,-102.04"/>
<polygon fill="#63b8ff" stroke="#63b8ff" points="465.09,-105.55 474.48,-100.64 464.08,-98.62 465.09,-105.55"/>
</a>
</g>
</g>
<!-- Node9 -->
<g id="Node000009" class="node">
<title>Node9</title>
<g id="a_Node000009"><a xlink:href="structAsyncFw_1_1AnyData.html#aa6d2c3488a44e34e25a0971b01a27b3c" target="_top" xlink:title="Type&#45;safely extracts and returns the stored data value.">
<polygon fill="white" stroke="#666666" points="778.25,-101 652,-101 652,-81 778.25,-81 778.25,-101"/>
<text xml:space="preserve" text-anchor="middle" x="715.12" y="-87.5" font-family="Helvetica,sans-Serif" font-size="10.00">AsyncFw::AnyData::data</text>
</a>
</g>
</g>
<!-- Node8&#45;&gt;Node9 -->
<g id="edge9_Node000008_Node000009" class="edge">
<title>Node8&#45;&gt;Node9</title>
<g id="a_edge9_Node000008_Node000009"><a xlink:title=" ">
<path fill="none" stroke="#63b8ff" d="M607.46,-91C618.23,-91 629.47,-91 640.44,-91"/>
<polygon fill="#63b8ff" stroke="#63b8ff" points="640.24,-94.5 650.24,-91 640.24,-87.5 640.24,-94.5"/>
</a>
</g>
</g>
<!-- Node10&#45;&gt;Node2 -->
<g id="edge11_Node000010_Node000002" class="edge">
<title>Node10&#45;&gt;Node2</title>
<g id="a_edge11_Node000010_Node000002"><a xlink:title=" ">
<path fill="none" stroke="#63b8ff" d="M231.9,-94.23C249.87,-107.91 277.04,-127.38 302.75,-141 305.25,-142.33 307.84,-143.62 310.48,-144.88"/>
<polygon fill="#63b8ff" stroke="#63b8ff" points="308.89,-148 319.44,-148.91 311.76,-141.61 308.89,-148"/>
</a>
</g>
</g>
<!-- Node10&#45;&gt;Node7 -->
<g id="edge14_Node000010_Node000007" class="edge">
<title>Node10&#45;&gt;Node7</title>
<g id="a_edge14_Node000010_Node000007"><a xlink:title=" ">
<path fill="none" stroke="#63b8ff" d="M267.16,-91.61C275.03,-93.53 283.21,-95.53 291.37,-97.52"/>
<polygon fill="#63b8ff" stroke="#63b8ff" points="290.43,-100.89 300.97,-99.86 292.09,-94.09 290.43,-100.89"/>
</a>
</g>
</g>
<!-- Node11 -->
<g id="Node000011" class="node">
<title>Node11</title>
<g id="a_Node000011"><a xlink:href="classAsyncFw_1_1AbstractSocket.html#a3f4a74f0ab83d096bd37118bb28d8654" target="_top" xlink:title="Non&#45;destructively glimpses at the internal unread data buffer without consuming it.">
<polygon fill="white" stroke="#666666" points="433.5,-82 302.75,-82 302.75,-50 433.5,-50 433.5,-82"/>
<text xml:space="preserve" text-anchor="start" x="310.75" y="-68.5" font-family="Helvetica,sans-Serif" font-size="10.00">AsyncFw::AbstractSocket</text>
<text xml:space="preserve" text-anchor="middle" x="368.12" y="-56.5" font-family="Helvetica,sans-Serif" font-size="10.00">::peek</text>
</a>
</g>
</g>
<!-- Node10&#45;&gt;Node11 -->
<g id="edge12_Node000010_Node000011" class="edge">
<title>Node10&#45;&gt;Node11</title>
<g id="a_edge12_Node000010_Node000011"><a xlink:title=" ">
<path fill="none" stroke="#63b8ff" d="M267.16,-73.7C274.94,-73.1 283.03,-72.48 291.09,-71.86"/>
<polygon fill="#63b8ff" stroke="#63b8ff" points="291.23,-75.36 300.93,-71.1 290.69,-68.38 291.23,-75.36"/>
</a>
</g>
</g>
<!-- Node12 -->
<g id="Node000012" class="node">
<title>Node12</title>
<g id="a_Node000012"><a xlink:href="classAsyncFw_1_1DataArray.html#a5406261e5730adfa64e4d0bbd0083e31" target="_top" xlink:title="Creates a lightweight, non&#45;allocating view slicing a sub&#45;region of this byte array.">
<polygon fill="white" stroke="#666666" points="421.88,-32 314.38,-32 314.38,0 421.88,0 421.88,-32"/>
<text xml:space="preserve" text-anchor="start" x="322.38" y="-18.5" font-family="Helvetica,sans-Serif" font-size="10.00">AsyncFw::DataArray</text>
<text xml:space="preserve" text-anchor="middle" x="368.12" y="-6.5" font-family="Helvetica,sans-Serif" font-size="10.00">::view</text>
</a>
</g>
</g>
<!-- Node10&#45;&gt;Node12 -->
<g id="edge15_Node000010_Node000012" class="edge">
<title>Node10&#45;&gt;Node12</title>
<g id="a_edge15_Node000010_Node000012"><a xlink:title=" ">
<path fill="none" stroke="#63b8ff" d="M251.36,-61.67C267.32,-55.18 285.89,-47.69 302.75,-41 306.37,-39.56 310.11,-38.09 313.88,-36.61"/>
<polygon fill="#63b8ff" stroke="#63b8ff" points="315.05,-39.91 323.09,-33.01 312.5,-33.39 315.05,-39.91"/>
</a>
</g>
</g>
<!-- Node11&#45;&gt;Node8 -->
<g id="edge13_Node000011_Node000008" class="edge">
<title>Node11&#45;&gt;Node8</title>
<g id="a_edge13_Node000011_Node000008"><a xlink:title=" ">
<path fill="none" stroke="#63b8ff" d="M433.96,-75.45C444.06,-76.92 454.58,-78.46 464.89,-79.96"/>
<polygon fill="#63b8ff" stroke="#63b8ff" points="464.08,-83.38 474.48,-81.36 465.09,-76.45 464.08,-83.38"/>
</a>
</g>
</g>
</g>
</svg>
