<?xml version="1.0" encoding="UTF-8" standalone="no"?>
<!DOCTYPE svg PUBLIC "-//W3C//DTD SVG 1.1//EN"
 "http://www.w3.org/Graphics/SVG/1.1/DTD/svg11.dtd">
<!-- Generated by graphviz version 12.2.1 (20241206.2353)
 -->
<!-- Title: AsyncFw::AbstractInstance Pages: 1 -->
<svg width="656pt" height="239pt"
 viewBox="0.00 0.00 656.25 239.00" xmlns="http://www.w3.org/2000/svg" xmlns:xlink="http://www.w3.org/1999/xlink">
<g id="graph0" class="graph" transform="scale(1 1) rotate(0) translate(4 235)">
<title>AsyncFw::AbstractInstance</title>
<!-- Node1 -->
<g id="Node000001" class="node">
<title>Node1</title>
<g id="a_Node000001"><a xlink:title="The AbstractInstance class.">
<polygon fill="#999999" stroke="#666666" points="137.5,-126 0,-126 0,-106 137.5,-106 137.5,-126"/>
<text text-anchor="middle" x="68.75" y="-112.5" font-family="Helvetica,sans-Serif" font-size="10.00">AsyncFw::AbstractInstance</text>
</a>
</g>
</g>
<!-- Node2 -->
<g id="Node000002" class="node">
<title>Node2</title>
<g id="a_Node000002"><a xlink:href="classAsyncFw_1_1Instance.html" target="_top" xlink:title=" ">
<polygon fill="white" stroke="#666666" points="621.62,-162 514.88,-162 514.88,-130 621.62,-130 621.62,-162"/>
<text text-anchor="start" x="522.88" y="-148.5" font-family="Helvetica,sans-Serif" font-size="10.00">AsyncFw::Instance&lt;</text>
<text text-anchor="middle" x="568.25" y="-136.5" font-family="Helvetica,sans-Serif" font-size="10.00"> Log &gt;</text>
</a>
</g>
</g>
<!-- Node1&#45;&gt;Node2 -->
<g id="edge1_Node000001_Node000002" class="edge">
<title>Node1&#45;&gt;Node2</title>
<g id="a_edge1_Node000001_Node000002"><a xlink:title=" ">
<path fill="none" stroke="#63b8ff" d="M106.07,-130.32C176.46,-156.23 336.27,-206.06 470.25,-182 491.47,-178.19 514.11,-170.04 532.17,-162.46"/>
<polygon fill="#63b8ff" stroke="#63b8ff" points="107.57,-127.15 96.98,-126.92 105.12,-133.7 107.57,-127.15"/>
</a>
</g>
</g>
<!-- Node3 -->
<g id="Node000003" class="node">
<title>Node3</title>
<g id="a_Node000003"><a xlink:href="classAsyncFw_1_1Instance.html" target="_top" xlink:title=" ">
<polygon fill="white" stroke="#666666" points="648.25,-231 488.25,-231 488.25,-199 648.25,-199 648.25,-231"/>
<text text-anchor="start" x="496.25" y="-217.5" font-family="Helvetica,sans-Serif" font-size="10.00">AsyncFw::Instance&lt;</text>
<text text-anchor="middle" x="568.25" y="-205.5" font-family="Helvetica,sans-Serif" font-size="10.00"> AsyncFw::FileSystemWatcher &gt;</text>
</a>
</g>
</g>
<!-- Node1&#45;&gt;Node3 -->
<g id="edge2_Node000001_Node000003" class="edge">
<title>Node1&#45;&gt;Node3</title>
<g id="a_edge2_Node000001_Node000003"><a xlink:title=" ">
<path fill="none" stroke="#63b8ff" d="M91.32,-133.29C111.55,-148.52 143.29,-169.95 174.5,-181 278.37,-217.79 406.93,-221.75 488.05,-219.63"/>
<polygon fill="#63b8ff" stroke="#63b8ff" points="93.62,-130.64 83.56,-127.31 89.34,-136.19 93.62,-130.64"/>
</a>
</g>
</g>
<!-- Node4 -->
<g id="Node000004" class="node">
<title>Node4</title>
<g id="a_Node000004"><a xlink:href="classAsyncFw_1_1Instance.html" target="_top" xlink:title=" ">
<polygon fill="white" stroke="#666666" points="629.12,-32 507.38,-32 507.38,0 629.12,0 629.12,-32"/>
<text text-anchor="start" x="515.38" y="-18.5" font-family="Helvetica,sans-Serif" font-size="10.00">AsyncFw::Instance&lt;</text>
<text text-anchor="middle" x="568.25" y="-6.5" font-family="Helvetica,sans-Serif" font-size="10.00"> AsyncFw::HttpServer &gt;</text>
</a>
</g>
</g>
<!-- Node1&#45;&gt;Node4 -->
<g id="edge3_Node000001_Node000004" class="edge">
<title>Node1&#45;&gt;Node4</title>
<g id="a_edge3_Node000001_Node000004"><a xlink:title=" ">
<path fill="none" stroke="#63b8ff" d="M88.52,-97.8C108.17,-80.02 140.8,-53.94 174.5,-42 286.73,-2.23 428.14,-4.55 507.01,-10.09"/>
<polygon fill="#63b8ff" stroke="#63b8ff" points="86.25,-95.12 81.31,-104.5 91.02,-100.25 86.25,-95.12"/>
</a>
</g>
</g>
<!-- Node5 -->
<g id="Node000005" class="node">
<title>Node5</title>
<g id="a_Node000005"><a xlink:href="classAsyncFw_1_1Instance.html" target="_top" xlink:title=" ">
<polygon fill="white" stroke="#666666" points="630.25,-102 506.25,-102 506.25,-70 630.25,-70 630.25,-102"/>
<text text-anchor="start" x="514.25" y="-88.5" font-family="Helvetica,sans-Serif" font-size="10.00">AsyncFw::Instance&lt;</text>
<text text-anchor="middle" x="568.25" y="-76.5" font-family="Helvetica,sans-Serif" font-size="10.00"> AsyncFw::ThreadPool &gt;</text>
</a>
</g>
</g>
<!-- Node1&#45;&gt;Node5 -->
<g id="edge4_Node000001_Node000005" class="edge">
<title>Node1&#45;&gt;Node5</title>
<g id="a_edge4_Node000001_Node000005"><a xlink:title=" ">
<path fill="none" stroke="#63b8ff" d="M103.57,-101.4C172.66,-73.47 334.92,-17.57 470.25,-45 493.72,-49.76 518.57,-60.38 537.24,-69.62"/>
<polygon fill="#63b8ff" stroke="#63b8ff" points="102.62,-98.01 94.7,-105.05 105.28,-104.48 102.62,-98.01"/>
</a>
</g>
</g>
<!-- Node6 -->
<g id="Node000006" class="node">
<title>Node6</title>
<g id="a_Node000006"><a xlink:href="classAsyncFw_1_1Instance.html" target="_top" xlink:title="The Instance class.">
<polygon fill="white" stroke="#666666" points="299.25,-126 174.5,-126 174.5,-106 299.25,-106 299.25,-126"/>
<text text-anchor="middle" x="236.88" y="-112.5" font-family="Helvetica,sans-Serif" font-size="10.00">AsyncFw::Instance&lt; T &gt;</text>
</a>
</g>
</g>
<!-- Node1&#45;&gt;Node6 -->
<g id="edge5_Node000001_Node000006" class="edge">
<title>Node1&#45;&gt;Node6</title>
<g id="a_edge5_Node000001_Node000006"><a xlink:title=" ">
<path fill="none" stroke="#63b8ff" d="M149.15,-116C157.52,-116 165.94,-116 174.07,-116"/>
<polygon fill="#63b8ff" stroke="#63b8ff" points="149.31,-112.5 139.31,-116 149.31,-119.5 149.31,-112.5"/>
</a>
</g>
</g>
<!-- Node6&#45;&gt;Node2 -->
<g id="edge6_Node000006_Node000002" class="edge">
<title>Node6&#45;&gt;Node2</title>
<g id="a_edge6_Node000006_Node000002"><a xlink:title=" ">
<path fill="none" stroke="orange" stroke-dasharray="5,2" d="M310.89,-121.38C356.69,-124.9 416.96,-129.8 470.25,-135 484.59,-136.4 500.1,-138.08 514.42,-139.71"/>
<polygon fill="orange" stroke="orange" points="311.31,-117.9 301.08,-120.63 310.78,-124.88 311.31,-117.9"/>
</a>
</g>
<text text-anchor="middle" x="393.75" y="-137.5" font-family="Helvetica,sans-Serif" font-size="10.00" fill="grey"> &lt; Log &gt;</text>
</g>
<!-- Node6&#45;&gt;Node3 -->
<g id="edge7_Node000006_Node000003" class="edge">
<title>Node6&#45;&gt;Node3</title>
<g id="a_edge7_Node000006_Node000003"><a xlink:title=" ">
<path fill="none" stroke="orange" stroke-dasharray="5,2" d="M273.08,-130.68C286.75,-136.14 302.62,-142.17 317.25,-147 378.01,-167.06 448.43,-185.83 499.02,-198.54"/>
<polygon fill="orange" stroke="orange" points="274.64,-127.54 264.05,-127.03 272.01,-134.02 274.64,-127.54"/>
</a>
</g>
<text text-anchor="middle" x="393.75" y="-192.36" font-family="Helvetica,sans-Serif" font-size="10.00" fill="grey"> &lt; AsyncFw::FileSystemWatcher &gt;</text>
</g>
<!-- Node6&#45;&gt;Node4 -->
<g id="edge8_Node000006_Node000004" class="edge">
<title>Node6&#45;&gt;Node4</title>
<g id="a_edge8_Node000006_Node000004"><a xlink:title=" ">
<path fill="none" stroke="orange" stroke-dasharray="5,2" d="M266.35,-100.13C281.19,-92.35 299.83,-83.32 317.25,-77 380.46,-54.07 455.75,-37.02 507.07,-26.86"/>
<polygon fill="orange" stroke="orange" points="264.79,-97 257.63,-104.8 268.1,-103.17 264.79,-97"/>
</a>
</g>
<text text-anchor="middle" x="393.75" y="-79.5" font-family="Helvetica,sans-Serif" font-size="10.00" fill="grey"> &lt; AsyncFw::HttpServer &gt;</text>
</g>
<!-- Node6&#45;&gt;Node5 -->
<g id="edge9_Node000006_Node000005" class="edge">
<title>Node6&#45;&gt;Node5</title>
<g id="a_edge9_Node000006_Node000005"><a xlink:title=" ">
<path fill="none" stroke="orange" stroke-dasharray="5,2" d="M310.64,-106.7C312.87,-106.46 315.07,-106.22 317.25,-106 381.46,-99.39 455.14,-93.73 505.79,-90.13"/>
<polygon fill="orange" stroke="orange" points="310.42,-103.2 300.88,-107.8 311.21,-110.16 310.42,-103.2"/>
</a>
</g>
<text text-anchor="middle" x="393.75" y="-108.5" font-family="Helvetica,sans-Serif" font-size="10.00" fill="grey"> &lt; AsyncFw::ThreadPool &gt;</text>
</g>
</g>
</svg>
