<?xml version="1.0" encoding="UTF-8" standalone="no"?>
<!DOCTYPE svg PUBLIC "-//W3C//DTD SVG 1.1//EN"
 "http://www.w3.org/Graphics/SVG/1.1/DTD/svg11.dtd">
<!-- Generated by graphviz version 14.1.3 (20260303.0454)
 -->
<!-- Title: AsyncFw::AbstractSocket::write Pages: 1 -->
<svg width="635pt" height="106pt"
 viewBox="0.00 0.00 635.00 106.00" xmlns="http://www.w3.org/2000/svg" xmlns:xlink="http://www.w3.org/1999/xlink">
<g id="graph0" class="graph" transform="scale(1 1) rotate(0) translate(4 102)">
<title>AsyncFw::AbstractSocket::write</title>
<!-- Node1 -->
<g id="Node000001" class="node">
<title>Node1</title>
<g id="a_Node000001"><a xlink:title="Transmits a structural DataArray package out to the network layer.">
<polygon fill="#999999" stroke="#666666" points="130.75,-82 0,-82 0,-50 130.75,-50 130.75,-82"/>
<text xml:space="preserve" text-anchor="start" x="8" y="-68.5" font-family="Helvetica,sans-Serif" font-size="10.00">AsyncFw::AbstractSocket</text>
<text xml:space="preserve" text-anchor="middle" x="65.38" y="-56.5" font-family="Helvetica,sans-Serif" font-size="10.00">::write</text>
</a>
</g>
</g>
<!-- Node2 -->
<g id="Node000002" class="node">
<title>Node2</title>
<g id="a_Node000002"><a xlink:href="classAsyncFw_1_1AbstractSocket.html#a6b5bfbc488d553dca8a2d01b6b415482" target="_top" xlink:title="Writes raw binary bytes out to the network socket layer.">
<polygon fill="white" stroke="#666666" points="297.5,-82 166.75,-82 166.75,-50 297.5,-50 297.5,-82"/>
<text xml:space="preserve" text-anchor="start" x="174.75" y="-68.5" font-family="Helvetica,sans-Serif" font-size="10.00">AsyncFw::AbstractSocket</text>
<text xml:space="preserve" text-anchor="middle" x="232.12" y="-56.5" font-family="Helvetica,sans-Serif" font-size="10.00">::write</text>
</a>
</g>
</g>
<!-- Node1&#45;&gt;Node2 -->
<g id="edge1_Node000001_Node000002" class="edge">
<title>Node1&#45;&gt;Node2</title>
<g id="a_edge1_Node000001_Node000002"><a xlink:title=" ">
<path fill="none" stroke="#63b8ff" d="M131.02,-66C138.92,-66 147.05,-66 155.1,-66"/>
<polygon fill="#63b8ff" stroke="#63b8ff" points="154.89,-69.5 164.89,-66 154.89,-62.5 154.89,-69.5"/>
</a>
</g>
</g>
<!-- Node3 -->
<g id="Node000003" class="node">
<title>Node3</title>
<g id="a_Node000003"><a xlink:href="structAsyncFw_1_1AnyData.html#aa6d2c3488a44e34e25a0971b01a27b3c" target="_top" xlink:title="Type&#45;safely extracts and returns the stored data value.">
<polygon fill="white" stroke="#666666" points="626.5,-98 500.25,-98 500.25,-78 626.5,-78 626.5,-98"/>
<text xml:space="preserve" text-anchor="middle" x="563.38" y="-84.5" font-family="Helvetica,sans-Serif" font-size="10.00">AsyncFw::AnyData::data</text>
</a>
</g>
</g>
<!-- Node2&#45;&gt;Node3 -->
<g id="edge2_Node000002_Node000003" class="edge">
<title>Node2&#45;&gt;Node3</title>
<g id="a_edge2_Node000002_Node000003"><a xlink:title=" ">
<path fill="none" stroke="#63b8ff" d="M288.94,-82.46C303.33,-86 318.88,-89.21 333.5,-91 385.02,-97.32 443.56,-96.41 488.53,-94"/>
<polygon fill="#63b8ff" stroke="#63b8ff" points="488.67,-97.5 498.45,-93.43 488.26,-90.51 488.67,-97.5"/>
</a>
</g>
</g>
<!-- Node4 -->
<g id="Node000004" class="node">
<title>Node4</title>
<g id="a_Node000004"><a xlink:href="classAsyncFw_1_1AbstractSocket.html#a4659df5988d2af771d4feee9edec55d8" target="_top" xlink:title="Low&#45;level native operating system write operation proxying requests directly up to the fd handle.">
<polygon fill="white" stroke="#666666" points="464.25,-82 333.5,-82 333.5,-50 464.25,-50 464.25,-82"/>
<text xml:space="preserve" text-anchor="start" x="341.5" y="-68.5" font-family="Helvetica,sans-Serif" font-size="10.00">AsyncFw::AbstractSocket</text>
<text xml:space="preserve" text-anchor="middle" x="398.88" y="-56.5" font-family="Helvetica,sans-Serif" font-size="10.00">::write_fd</text>
</a>
</g>
</g>
<!-- Node2&#45;&gt;Node4 -->
<g id="edge3_Node000002_Node000004" class="edge">
<title>Node2&#45;&gt;Node4</title>
<g id="a_edge3_Node000002_Node000004"><a xlink:title=" ">
<path fill="none" stroke="#63b8ff" d="M297.77,-66C305.67,-66 313.8,-66 321.85,-66"/>
<polygon fill="#63b8ff" stroke="#63b8ff" points="321.64,-69.5 331.64,-66 321.64,-62.5 321.64,-69.5"/>
</a>
</g>
</g>
<!-- Node5 -->
<g id="Node000005" class="node">
<title>Node5</title>
<g id="a_Node000005"><a xlink:href="classAsyncFw_1_1AbstractSocket.html#af8141e7714603e6c83c0640a2d74ec90" target="_top" xlink:title="Called when writing to the socket is possible.">
<polygon fill="white" stroke="#666666" points="464.25,-32 333.5,-32 333.5,0 464.25,0 464.25,-32"/>
<text xml:space="preserve" text-anchor="start" x="341.5" y="-18.5" font-family="Helvetica,sans-Serif" font-size="10.00">AsyncFw::AbstractSocket</text>
<text xml:space="preserve" text-anchor="middle" x="398.88" y="-6.5" font-family="Helvetica,sans-Serif" font-size="10.00">::writeEvent</text>
</a>
</g>
</g>
<!-- Node2&#45;&gt;Node5 -->
<g id="edge5_Node000002_Node000005" class="edge">
<title>Node2&#45;&gt;Node5</title>
<g id="a_edge5_Node000002_Node000005"><a xlink:title=" ">
<path fill="none" stroke="#63b8ff" d="M287.07,-49.63C301.64,-45.2 317.57,-40.37 332.69,-35.78"/>
<polygon fill="#63b8ff" stroke="#63b8ff" points="333.53,-39.19 342.08,-32.93 331.49,-32.49 333.53,-39.19"/>
</a>
</g>
</g>
<!-- Node4&#45;&gt;Node3 -->
<g id="edge4_Node000004_Node000003" class="edge">
<title>Node4&#45;&gt;Node3</title>
<g id="a_edge4_Node000004_Node000003"><a xlink:title=" ">
<path fill="none" stroke="#63b8ff" d="M464.57,-74.76C472.45,-75.83 480.54,-76.92 488.55,-78"/>
<polygon fill="#63b8ff" stroke="#63b8ff" points="487.88,-81.45 498.26,-79.32 488.82,-74.51 487.88,-81.45"/>
</a>
</g>
</g>
</g>
</svg>
