<?xml version="1.0" encoding="UTF-8" standalone="no"?>
<!DOCTYPE svg PUBLIC "-//W3C//DTD SVG 1.1//EN"
 "http://www.w3.org/Graphics/SVG/1.1/DTD/svg11.dtd">
<!-- Generated by graphviz version 14.1.3 (20260303.0454)
 -->
<!-- Title: AsyncFw::AbstractTlsSocket::activateEvent Pages: 1 -->
<svg width="666pt" height="404pt"
 viewBox="0.00 0.00 666.00 404.00" xmlns="http://www.w3.org/2000/svg" xmlns:xlink="http://www.w3.org/1999/xlink">
<g id="graph0" class="graph" transform="scale(1 1) rotate(0) translate(4 400.1)">
<title>AsyncFw::AbstractTlsSocket::activateEvent</title>
<!-- Node1 -->
<g id="Node000001" class="node">
<title>Node1</title>
<g id="a_Node000001"><a xlink:title="Core internal event handler reacting to raw descriptor readiness signals.">
<polygon fill="#999999" stroke="#666666" points="144.25,-248 0,-248 0,-216 144.25,-216 144.25,-248"/>
<text xml:space="preserve" text-anchor="start" x="8" y="-234.5" font-family="Helvetica,sans-Serif" font-size="10.00">AsyncFw::AbstractTlsSocket</text>
<text xml:space="preserve" text-anchor="middle" x="72.12" y="-222.5" font-family="Helvetica,sans-Serif" font-size="10.00">::activateEvent</text>
</a>
</g>
</g>
<!-- Node2 -->
<g id="Node000002" class="node">
<title>Node2</title>
<g id="a_Node000002"><a xlink:href="classAsyncFw_1_1AbstractSocket.html#aac7ad6c4f9815d9b8b0817d38864d06d" target="_top" xlink:title="Called when established connection.">
<polygon fill="white" stroke="#666666" points="491.25,-370 360.5,-370 360.5,-338 491.25,-338 491.25,-370"/>
<text xml:space="preserve" text-anchor="start" x="368.5" y="-356.5" font-family="Helvetica,sans-Serif" font-size="10.00">AsyncFw::AbstractSocket</text>
<text xml:space="preserve" text-anchor="middle" x="425.88" y="-344.5" font-family="Helvetica,sans-Serif" font-size="10.00">::activateEvent</text>
</a>
</g>
</g>
<!-- Node1&#45;&gt;Node2 -->
<g id="edge1_Node000001_Node000002" class="edge">
<title>Node1&#45;&gt;Node2</title>
<g id="a_edge1_Node000001_Node000002"><a xlink:title=" ">
<path fill="none" stroke="#63b8ff" d="M79.12,-248.31C91.94,-280.4 125.36,-351.08 180.25,-379 242.06,-410.44 323.93,-391.91 375.51,-374.17"/>
<polygon fill="#63b8ff" stroke="#63b8ff" points="376.37,-377.58 384.61,-370.93 374.02,-370.99 376.37,-377.58"/>
</a>
</g>
</g>
<!-- Node4 -->
<g id="Node000004" class="node">
<title>Node4</title>
<g id="a_Node000004"><a xlink:href="classAsyncFw_1_1AbstractTlsSocket.html#ad26bb910e65bb758bfed6448e1af7186" target="_top" xlink:title="Intermediate signal hub executed immediately when a secure cryptographic tunnel is fully established.">
<polygon fill="white" stroke="#666666" points="324.5,-370 180.25,-370 180.25,-338 324.5,-338 324.5,-370"/>
<text xml:space="preserve" text-anchor="start" x="188.25" y="-356.5" font-family="Helvetica,sans-Serif" font-size="10.00">AsyncFw::AbstractTlsSocket</text>
<text xml:space="preserve" text-anchor="middle" x="252.38" y="-344.5" font-family="Helvetica,sans-Serif" font-size="10.00">::activateReady</text>
</a>
</g>
</g>
<!-- Node1&#45;&gt;Node4 -->
<g id="edge3_Node000001_Node000004" class="edge">
<title>Node1&#45;&gt;Node4</title>
<g id="a_edge3_Node000001_Node000004"><a xlink:title=" ">
<path fill="none" stroke="#63b8ff" d="M87.18,-248.24C106.32,-269.46 142.52,-306.54 180.25,-329 182.4,-330.28 184.62,-331.5 186.9,-332.68"/>
<polygon fill="#63b8ff" stroke="#63b8ff" points="185.23,-335.76 195.76,-336.86 188.21,-329.43 185.23,-335.76"/>
</a>
</g>
</g>
<!-- Node5 -->
<g id="Node000005" class="node">
<title>Node5</title>
<g id="a_Node000005"><a xlink:href="classAsyncFw_1_1AbstractTlsSocket.html#a46dbd8e4895445214a4f46ee46433d6c" target="_top" xlink:title="Immediately releases OpenSSL session pointers and forcefully closes the system&#45;level descriptor.">
<polygon fill="white" stroke="#666666" points="324.5,-320 180.25,-320 180.25,-288 324.5,-288 324.5,-320"/>
<text xml:space="preserve" text-anchor="start" x="188.25" y="-306.5" font-family="Helvetica,sans-Serif" font-size="10.00">AsyncFw::AbstractTlsSocket</text>
<text xml:space="preserve" text-anchor="middle" x="252.38" y="-294.5" font-family="Helvetica,sans-Serif" font-size="10.00">::close</text>
</a>
</g>
</g>
<!-- Node1&#45;&gt;Node5 -->
<g id="edge5_Node000001_Node000005" class="edge">
<title>Node1&#45;&gt;Node5</title>
<g id="a_edge5_Node000001_Node000005"><a xlink:title=" ">
<path fill="none" stroke="#63b8ff" d="M108.55,-248.35C129.29,-257.71 156.07,-269.46 180.25,-279 184.13,-280.53 188.15,-282.07 192.21,-283.59"/>
<polygon fill="#63b8ff" stroke="#63b8ff" points="190.97,-286.86 201.57,-287.02 193.38,-280.29 190.97,-286.86"/>
</a>
</g>
</g>
<!-- Node7 -->
<g id="Node000007" class="node">
<title>Node7</title>
<g id="a_Node000007"><a xlink:href="classAsyncFw_1_1AbstractSocket.html#a64ec81f99806967d9244337b88ae03ba" target="_top" xlink:title="Low&#45;level system call that checks whether a file descriptor contains data.">
<polygon fill="white" stroke="#666666" points="317.75,-270 187,-270 187,-238 317.75,-238 317.75,-270"/>
<text xml:space="preserve" text-anchor="start" x="195" y="-256.5" font-family="Helvetica,sans-Serif" font-size="10.00">AsyncFw::AbstractSocket</text>
<text xml:space="preserve" text-anchor="middle" x="252.38" y="-244.5" font-family="Helvetica,sans-Serif" font-size="10.00">::read_available_fd</text>
</a>
</g>
</g>
<!-- Node1&#45;&gt;Node7 -->
<g id="edge8_Node000001_Node000007" class="edge">
<title>Node1&#45;&gt;Node7</title>
<g id="a_edge8_Node000001_Node000007"><a xlink:title=" ">
<path fill="none" stroke="#63b8ff" d="M144.6,-240.82C154.66,-242.06 165.04,-243.34 175.19,-244.6"/>
<polygon fill="#63b8ff" stroke="#63b8ff" points="174.66,-248.06 185.01,-245.81 175.52,-241.11 174.66,-248.06"/>
</a>
</g>
</g>
<!-- Node8 -->
<g id="Node000008" class="node">
<title>Node8</title>
<g id="a_Node000008"><a xlink:href="classAsyncFw_1_1AbstractSocket.html#a25efdce1c4a0dedf15e57cb0af971d86" target="_top" xlink:title="Low&#45;level native operating system read operation proxying requests directly down to the fd handle.">
<polygon fill="white" stroke="#666666" points="491.25,-198 360.5,-198 360.5,-166 491.25,-166 491.25,-198"/>
<text xml:space="preserve" text-anchor="start" x="368.5" y="-184.5" font-family="Helvetica,sans-Serif" font-size="10.00">AsyncFw::AbstractSocket</text>
<text xml:space="preserve" text-anchor="middle" x="425.88" y="-172.5" font-family="Helvetica,sans-Serif" font-size="10.00">::read_fd</text>
</a>
</g>
</g>
<!-- Node1&#45;&gt;Node8 -->
<g id="edge9_Node000001_Node000008" class="edge">
<title>Node1&#45;&gt;Node8</title>
<g id="a_edge9_Node000001_Node000008"><a xlink:title=" ">
<path fill="none" stroke="#63b8ff" d="M144.73,-221.82C204.2,-213.37 288.57,-201.37 349.16,-192.76"/>
<polygon fill="#63b8ff" stroke="#63b8ff" points="349.27,-196.28 358.68,-191.41 348.29,-189.35 349.27,-196.28"/>
</a>
</g>
</g>
<!-- Node10 -->
<g id="Node000010" class="node">
<title>Node10</title>
<g id="a_Node000010"><a xlink:href="classAsyncFw_1_1AbstractSocket.html#adf2d96f44c3abf205e637f3809bc614d" target="_top" xlink:title="Configures or overrides the internal error code.">
<polygon fill="white" stroke="#666666" points="317.75,-182 187,-182 187,-150 317.75,-150 317.75,-182"/>
<text xml:space="preserve" text-anchor="start" x="195" y="-168.5" font-family="Helvetica,sans-Serif" font-size="10.00">AsyncFw::AbstractSocket</text>
<text xml:space="preserve" text-anchor="middle" x="252.38" y="-156.5" font-family="Helvetica,sans-Serif" font-size="10.00">::setError</text>
</a>
</g>
</g>
<!-- Node1&#45;&gt;Node10 -->
<g id="edge11_Node000001_Node000010" class="edge">
<title>Node1&#45;&gt;Node10</title>
<g id="a_edge11_Node000001_Node000010"><a xlink:title=" ">
<path fill="none" stroke="#63b8ff" d="M117.65,-215.52C141.56,-206.66 171.24,-195.67 196.56,-186.3"/>
<polygon fill="#63b8ff" stroke="#63b8ff" points="197.53,-189.67 205.69,-182.91 195.1,-183.1 197.53,-189.67"/>
</a>
</g>
</g>
<!-- Node11 -->
<g id="Node000011" class="node">
<title>Node11</title>
<g id="a_Node000011"><a xlink:href="classAsyncFw_1_1AbstractSocket.html#aee9d948ab5f79cb9c0c45da1709c1159" target="_top" xlink:title="Updates the human&#45;readable error description buffer string.">
<polygon fill="white" stroke="#666666" points="317.75,-132 187,-132 187,-100 317.75,-100 317.75,-132"/>
<text xml:space="preserve" text-anchor="start" x="195" y="-118.5" font-family="Helvetica,sans-Serif" font-size="10.00">AsyncFw::AbstractSocket</text>
<text xml:space="preserve" text-anchor="middle" x="252.38" y="-106.5" font-family="Helvetica,sans-Serif" font-size="10.00">::setErrorString</text>
</a>
</g>
</g>
<!-- Node1&#45;&gt;Node11 -->
<g id="edge12_Node000001_Node000011" class="edge">
<title>Node1&#45;&gt;Node11</title>
<g id="a_edge12_Node000001_Node000011"><a xlink:title=" ">
<path fill="none" stroke="#63b8ff" d="M88.4,-215.79C108,-195.79 143.85,-161.9 180.25,-141 182.55,-139.68 184.93,-138.41 187.36,-137.2"/>
<polygon fill="#63b8ff" stroke="#63b8ff" points="188.6,-140.48 196.23,-133.13 185.68,-134.12 188.6,-140.48"/>
</a>
</g>
</g>
<!-- Node12 -->
<g id="Node000012" class="node">
<title>Node12</title>
<g id="a_Node000012"><a xlink:href="classAsyncFw_1_1AbstractSocket.html#a4659df5988d2af771d4feee9edec55d8" target="_top" xlink:title="Low&#45;level native operating system write operation proxying requests directly up to the fd handle.">
<polygon fill="white" stroke="#666666" points="317.75,-82 187,-82 187,-50 317.75,-50 317.75,-82"/>
<text xml:space="preserve" text-anchor="start" x="195" y="-68.5" font-family="Helvetica,sans-Serif" font-size="10.00">AsyncFw::AbstractSocket</text>
<text xml:space="preserve" text-anchor="middle" x="252.38" y="-56.5" font-family="Helvetica,sans-Serif" font-size="10.00">::write_fd</text>
</a>
</g>
</g>
<!-- Node1&#45;&gt;Node12 -->
<g id="edge13_Node000001_Node000012" class="edge">
<title>Node1&#45;&gt;Node12</title>
<g id="a_edge13_Node000001_Node000012"><a xlink:title=" ">
<path fill="none" stroke="#63b8ff" d="M81.4,-215.57C96.9,-186.4 133.04,-125.39 180.25,-91 181.78,-89.89 183.36,-88.82 184.98,-87.8"/>
<polygon fill="#63b8ff" stroke="#63b8ff" points="186.31,-91.06 193.36,-83.15 182.91,-84.94 186.31,-91.06"/>
</a>
</g>
</g>
<!-- Node3 -->
<g id="Node000003" class="node">
<title>Node3</title>
<g id="a_Node000003"><a xlink:href="classAsyncFw_1_1AbstractSocket.html#a5db12267a6d2241e81f570463f2d7ef5" target="_top" xlink:title="Called when the connection state changes.">
<polygon fill="white" stroke="#666666" points="658,-345 527.25,-345 527.25,-313 658,-313 658,-345"/>
<text xml:space="preserve" text-anchor="start" x="535.25" y="-331.5" font-family="Helvetica,sans-Serif" font-size="10.00">AsyncFw::AbstractSocket</text>
<text xml:space="preserve" text-anchor="middle" x="592.62" y="-319.5" font-family="Helvetica,sans-Serif" font-size="10.00">::stateEvent</text>
</a>
</g>
</g>
<!-- Node2&#45;&gt;Node3 -->
<g id="edge2_Node000002_Node000003" class="edge">
<title>Node2&#45;&gt;Node3</title>
<g id="a_edge2_Node000002_Node000003"><a xlink:title=" ">
<path fill="none" stroke="#63b8ff" d="M491.52,-344.19C499.42,-342.99 507.55,-341.76 515.6,-340.54"/>
<polygon fill="#63b8ff" stroke="#63b8ff" points="516.04,-344.01 525.4,-339.05 514.99,-337.09 516.04,-344.01"/>
</a>
</g>
</g>
<!-- Node4&#45;&gt;Node2 -->
<g id="edge4_Node000004_Node000002" class="edge">
<title>Node4&#45;&gt;Node2</title>
<g id="a_edge4_Node000004_Node000002"><a xlink:title=" ">
<path fill="none" stroke="#63b8ff" d="M324.62,-354C332.62,-354 340.8,-354 348.87,-354"/>
<polygon fill="#63b8ff" stroke="#63b8ff" points="348.65,-357.5 358.65,-354 348.65,-350.5 348.65,-357.5"/>
</a>
</g>
</g>
<!-- Node6 -->
<g id="Node000006" class="node">
<title>Node6</title>
<g id="a_Node000006"><a xlink:href="classAsyncFw_1_1AbstractSocket.html#a77c0a9ea7c5061c406673bbe8b18d60d" target="_top" xlink:title="Closes the network connection and unsubscribes from thread polling events.">
<polygon fill="white" stroke="#666666" points="491.25,-320 360.5,-320 360.5,-288 491.25,-288 491.25,-320"/>
<text xml:space="preserve" text-anchor="start" x="368.5" y="-306.5" font-family="Helvetica,sans-Serif" font-size="10.00">AsyncFw::AbstractSocket</text>
<text xml:space="preserve" text-anchor="middle" x="425.88" y="-294.5" font-family="Helvetica,sans-Serif" font-size="10.00">::close</text>
</a>
</g>
</g>
<!-- Node5&#45;&gt;Node6 -->
<g id="edge6_Node000005_Node000006" class="edge">
<title>Node5&#45;&gt;Node6</title>
<g id="a_edge6_Node000005_Node000006"><a xlink:title=" ">
<path fill="none" stroke="#63b8ff" d="M324.62,-304C332.62,-304 340.8,-304 348.87,-304"/>
<polygon fill="#63b8ff" stroke="#63b8ff" points="348.65,-307.5 358.65,-304 348.65,-300.5 348.65,-307.5"/>
</a>
</g>
</g>
<!-- Node6&#45;&gt;Node3 -->
<g id="edge7_Node000006_Node000003" class="edge">
<title>Node6&#45;&gt;Node3</title>
<g id="a_edge7_Node000006_Node000003"><a xlink:title=" ">
<path fill="none" stroke="#63b8ff" d="M491.52,-313.81C499.42,-315.01 507.55,-316.24 515.6,-317.46"/>
<polygon fill="#63b8ff" stroke="#63b8ff" points="514.99,-320.91 525.4,-318.95 516.04,-313.99 514.99,-320.91"/>
</a>
</g>
</g>
<!-- Node9 -->
<g id="Node000009" class="node">
<title>Node9</title>
<g id="a_Node000009"><a xlink:href="structAsyncFw_1_1AnyData.html#aa6d2c3488a44e34e25a0971b01a27b3c" target="_top" xlink:title="Type&#45;safely extracts and returns the stored data value.">
<polygon fill="white" stroke="#666666" points="655.75,-120 529.5,-120 529.5,-100 655.75,-100 655.75,-120"/>
<text xml:space="preserve" text-anchor="middle" x="592.62" y="-106.5" font-family="Helvetica,sans-Serif" font-size="10.00">AsyncFw::AnyData::data</text>
</a>
</g>
</g>
<!-- Node8&#45;&gt;Node9 -->
<g id="edge10_Node000008_Node000009" class="edge">
<title>Node8&#45;&gt;Node9</title>
<g id="a_edge10_Node000008_Node000009"><a xlink:title=" ">
<path fill="none" stroke="#63b8ff" d="M464.26,-165.66C492.25,-153.43 530.25,-136.82 557.44,-124.94"/>
<polygon fill="#63b8ff" stroke="#63b8ff" points="558.5,-128.3 566.26,-121.09 555.69,-121.88 558.5,-128.3"/>
</a>
</g>
</g>
<!-- Node12&#45;&gt;Node9 -->
<g id="edge14_Node000012_Node000009" class="edge">
<title>Node12&#45;&gt;Node9</title>
<g id="a_edge14_Node000012_Node000009"><a xlink:title=" ">
<path fill="none" stroke="#63b8ff" d="M317.08,-82.49C331.3,-85.71 346.35,-88.78 360.5,-91 412.75,-99.2 472.24,-103.99 517.77,-106.7"/>
<polygon fill="#63b8ff" stroke="#63b8ff" points="517.34,-110.19 527.53,-107.27 517.74,-103.2 517.34,-110.19"/>
</a>
</g>
</g>
<!-- Node13 -->
<g id="Node000013" class="node">
<title>Node13</title>
<g id="a_Node000013"><a xlink:href="classAsyncFw_1_1AbstractSocket.html#a6b5bfbc488d553dca8a2d01b6b415482" target="_top" xlink:title="Writes raw binary bytes out to the network socket layer.">
<polygon fill="white" stroke="#666666" points="491.25,-82 360.5,-82 360.5,-50 491.25,-50 491.25,-82"/>
<text xml:space="preserve" text-anchor="start" x="368.5" y="-68.5" font-family="Helvetica,sans-Serif" font-size="10.00">AsyncFw::AbstractSocket</text>
<text xml:space="preserve" text-anchor="middle" x="425.88" y="-56.5" font-family="Helvetica,sans-Serif" font-size="10.00">::write</text>
</a>
</g>
</g>
<!-- Node12&#45;&gt;Node13 -->
<g id="edge15_Node000012_Node000013" class="edge">
<title>Node12&#45;&gt;Node13</title>
<g id="a_edge15_Node000012_Node000013"><a xlink:title=" ">
<path fill="none" stroke="#63b8ff" d="M318.21,-59.43C328.2,-59.25 338.6,-59.21 348.81,-59.29"/>
<polygon fill="#63b8ff" stroke="#63b8ff" points="348.67,-62.79 358.72,-59.42 348.76,-55.79 348.67,-62.79"/>
</a>
</g>
</g>
<!-- Node14 -->
<g id="Node000014" class="node">
<title>Node14</title>
<g id="a_Node000014"><a xlink:href="classAsyncFw_1_1AbstractSocket.html#af8141e7714603e6c83c0640a2d74ec90" target="_top" xlink:title="Called when writing to the socket is possible.">
<polygon fill="white" stroke="#666666" points="491.25,-32 360.5,-32 360.5,0 491.25,0 491.25,-32"/>
<text xml:space="preserve" text-anchor="start" x="368.5" y="-18.5" font-family="Helvetica,sans-Serif" font-size="10.00">AsyncFw::AbstractSocket</text>
<text xml:space="preserve" text-anchor="middle" x="425.88" y="-6.5" font-family="Helvetica,sans-Serif" font-size="10.00">::writeEvent</text>
</a>
</g>
</g>
<!-- Node12&#45;&gt;Node14 -->
<g id="edge18_Node000012_Node000014" class="edge">
<title>Node12&#45;&gt;Node14</title>
<g id="a_edge18_Node000012_Node000014"><a xlink:title=" ">
<path fill="none" stroke="#63b8ff" d="M309.53,-49.63C324.85,-45.16 341.6,-40.28 357.48,-35.65"/>
<polygon fill="#63b8ff" stroke="#63b8ff" points="358.23,-39.08 366.85,-32.92 356.27,-32.36 358.23,-39.08"/>
</a>
</g>
</g>
<!-- Node13&#45;&gt;Node9 -->
<g id="edge16_Node000013_Node000009" class="edge">
<title>Node13&#45;&gt;Node9</title>
<g id="a_edge16_Node000013_Node000009"><a xlink:title=" ">
<path fill="none" stroke="#63b8ff" d="M488.22,-82.38C505.93,-87.11 525.03,-92.22 541.94,-96.73"/>
<polygon fill="#63b8ff" stroke="#63b8ff" points="540.67,-100.01 551.24,-99.21 542.48,-93.25 540.67,-100.01"/>
</a>
</g>
</g>
<!-- Node13&#45;&gt;Node12 -->
<g id="edge17_Node000013_Node000012" class="edge">
<title>Node13&#45;&gt;Node12</title>
<g id="a_edge17_Node000013_Node000012"><a xlink:title=" ">
<path fill="none" stroke="#63b8ff" d="M360.23,-72.56C350.24,-72.74 339.85,-72.79 329.63,-72.71"/>
<polygon fill="#63b8ff" stroke="#63b8ff" points="329.77,-69.21 319.73,-72.59 329.68,-76.21 329.77,-69.21"/>
</a>
</g>
</g>
</g>
</svg>
