<?xml version="1.0" encoding="UTF-8" standalone="no"?>
<!DOCTYPE svg PUBLIC "-//W3C//DTD SVG 1.1//EN"
 "http://www.w3.org/Graphics/SVG/1.1/DTD/svg11.dtd">
<!-- Generated by graphviz version 14.1.3 (20260303.0454)
 -->
<!-- Title: AsyncFw::DataStream::array Pages: 1 -->
<svg width="480pt" height="119pt"
 viewBox="0.00 0.00 480.00 119.00" xmlns="http://www.w3.org/2000/svg" xmlns:xlink="http://www.w3.org/1999/xlink">
<g id="graph0" class="graph" transform="scale(1 1) rotate(0) translate(4 115)">
<title>AsyncFw::DataStream::array</title>
<!-- Node1 -->
<g id="Node000001" class="node">
<title>Node1</title>
<g id="a_Node000001"><a xlink:title="Retrieves a reference to the active cumulative raw byte array built by the stream.">
<polygon fill="#999999" stroke="#666666" points="471.75,-57 356,-57 356,-25 471.75,-25 471.75,-57"/>
<text xml:space="preserve" text-anchor="start" x="364" y="-43.5" font-family="Helvetica,sans-Serif" font-size="10.00">AsyncFw::DataStream</text>
<text xml:space="preserve" text-anchor="middle" x="413.88" y="-31.5" font-family="Helvetica,sans-Serif" font-size="10.00">::array</text>
</a>
</g>
</g>
<!-- Node2 -->
<g id="Node000002" class="node">
<title>Node2</title>
<g id="a_Node000002"><a xlink:href="classAsyncFw_1_1Log.html#a36128876c58bc05a4b8ec59144abdaa1" target="_top" xlink:title="Unrolls a Message structure into a flat serialized DataArray binary block suitable for Rrd storage.">
<polygon fill="white" stroke="#666666" points="320,-82 181.75,-82 181.75,-50 320,-50 320,-82"/>
<text xml:space="preserve" text-anchor="start" x="189.75" y="-68.5" font-family="Helvetica,sans-Serif" font-size="10.00">AsyncFw::Log::rrdItemFrom</text>
<text xml:space="preserve" text-anchor="middle" x="250.88" y="-56.5" font-family="Helvetica,sans-Serif" font-size="10.00">Message</text>
</a>
</g>
</g>
<!-- Node1&#45;&gt;Node2 -->
<g id="edge1_Node000001_Node000002" class="edge">
<title>Node1&#45;&gt;Node2</title>
<g id="a_edge1_Node000001_Node000002"><a xlink:title=" ">
<path fill="none" stroke="#63b8ff" d="M344.54,-51.61C336.57,-52.85 328.45,-54.11 320.48,-55.35"/>
<polygon fill="#63b8ff" stroke="#63b8ff" points="344.82,-55.11 354.16,-50.12 343.74,-48.19 344.82,-55.11"/>
</a>
</g>
</g>
<!-- Node5 -->
<g id="Node000005" class="node">
<title>Node5</title>
<g id="a_Node000005"><a xlink:href="classAsyncFw_1_1RrdServer.html#a518ff8e41bae78f1b1c0e099514e56eb" target="_top" xlink:title="Extracts a specific historical data slice from an Rrd archive and transmits it to a client socket.">
<polygon fill="white" stroke="#666666" points="304.62,-32 197.12,-32 197.12,0 304.62,0 304.62,-32"/>
<text xml:space="preserve" text-anchor="start" x="205.12" y="-18.5" font-family="Helvetica,sans-Serif" font-size="10.00">AsyncFw::RrdServer</text>
<text xml:space="preserve" text-anchor="middle" x="250.88" y="-6.5" font-family="Helvetica,sans-Serif" font-size="10.00">::transmit</text>
</a>
</g>
</g>
<!-- Node1&#45;&gt;Node5 -->
<g id="edge4_Node000001_Node000005" class="edge">
<title>Node1&#45;&gt;Node5</title>
<g id="a_edge4_Node000001_Node000005"><a xlink:title=" ">
<path fill="none" stroke="#63b8ff" d="M344.63,-30.4C331.34,-28.34 317.58,-26.2 304.87,-24.23"/>
<polygon fill="#63b8ff" stroke="#63b8ff" points="343.74,-33.81 354.16,-31.88 344.82,-26.89 343.74,-33.81"/>
</a>
</g>
</g>
<!-- Node3 -->
<g id="Node000003" class="node">
<title>Node3</title>
<g id="a_Node000003"><a xlink:href="classAsyncFw_1_1Log.html#a6b0ce40bc2e34f4b435894701194dc26" target="_top" xlink:title="Persists log entries into the underlying Rrd buffer and manages automated disk flushing.">
<polygon fill="white" stroke="#666666" points="128.88,-111 16.87,-111 16.87,-91 128.88,-91 128.88,-111"/>
<text xml:space="preserve" text-anchor="middle" x="72.88" y="-97.5" font-family="Helvetica,sans-Serif" font-size="10.00">AsyncFw::Log::output</text>
</a>
</g>
</g>
<!-- Node2&#45;&gt;Node3 -->
<g id="edge2_Node000002_Node000003" class="edge">
<title>Node2&#45;&gt;Node3</title>
<g id="a_edge2_Node000002_Node000003"><a xlink:title=" ">
<path fill="none" stroke="#63b8ff" d="M170.09,-81.87C155.28,-84.81 140.17,-87.82 126.43,-90.55"/>
<polygon fill="#63b8ff" stroke="#63b8ff" points="170.72,-85.31 179.84,-79.93 169.35,-78.45 170.72,-85.31"/>
</a>
</g>
</g>
<!-- Node4 -->
<g id="Node000004" class="node">
<title>Node4</title>
<g id="a_Node000004"><a xlink:href="classAsyncFw_1_1Log.html#ab990350e0de8b9a9c6153f7c67b7a527" target="_top" xlink:title="Directly overwrites a circular log archive slot with a freshly serialized log entry structure.">
<polygon fill="white" stroke="#666666" points="145.75,-73 0,-73 0,-53 145.75,-53 145.75,-73"/>
<text xml:space="preserve" text-anchor="middle" x="72.88" y="-59.5" font-family="Helvetica,sans-Serif" font-size="10.00">AsyncFw::Log::writeMessage</text>
</a>
</g>
</g>
<!-- Node2&#45;&gt;Node4 -->
<g id="edge3_Node000002_Node000004" class="edge">
<title>Node2&#45;&gt;Node4</title>
<g id="a_edge3_Node000002_Node000004"><a xlink:title=" ">
<path fill="none" stroke="#63b8ff" d="M170.08,-64.64C162.06,-64.5 153.95,-64.36 146.02,-64.23"/>
<polygon fill="#63b8ff" stroke="#63b8ff" points="169.75,-68.13 179.81,-64.81 169.87,-61.14 169.75,-68.13"/>
</a>
</g>
</g>
<!-- Node6 -->
<g id="Node000006" class="node">
<title>Node6</title>
<g id="a_Node000006"><a xlink:href="classAsyncFw_1_1RrdServer.html#a80621329e326c77a65c5e4e65efa511d" target="_top" xlink:title="Constructs an RrdServer instance.">
<polygon fill="white" stroke="#666666" points="126.62,-32 19.12,-32 19.12,0 126.62,0 126.62,-32"/>
<text xml:space="preserve" text-anchor="start" x="27.12" y="-18.5" font-family="Helvetica,sans-Serif" font-size="10.00">AsyncFw::RrdServer</text>
<text xml:space="preserve" text-anchor="middle" x="72.88" y="-6.5" font-family="Helvetica,sans-Serif" font-size="10.00">::RrdServer</text>
</a>
</g>
</g>
<!-- Node5&#45;&gt;Node6 -->
<g id="edge5_Node000005_Node000006" class="edge">
<title>Node5&#45;&gt;Node6</title>
<g id="a_edge5_Node000005_Node000006"><a xlink:title=" ">
<path fill="none" stroke="#63b8ff" d="M185.63,-16C166.35,-16 145.42,-16 126.95,-16"/>
<polygon fill="#63b8ff" stroke="#63b8ff" points="185.56,-19.5 195.56,-16 185.56,-12.5 185.56,-19.5"/>
</a>
</g>
</g>
</g>
</svg>
