<?xml version="1.0" encoding="UTF-8" standalone="no"?>
<!DOCTYPE svg PUBLIC "-//W3C//DTD SVG 1.1//EN"
 "http://www.w3.org/Graphics/SVG/1.1/DTD/svg11.dtd">
<!-- Generated by graphviz version 14.1.3 (20260303.0454)
 -->
<!-- Title: AsyncFw::DataArraySocket::setHost Pages: 1 -->
<svg width="514pt" height="108pt"
 viewBox="0.00 0.00 514.00 108.00" xmlns="http://www.w3.org/2000/svg" xmlns:xlink="http://www.w3.org/1999/xlink">
<g id="graph0" class="graph" transform="scale(1 1) rotate(0) translate(4 104)">
<title>AsyncFw::DataArraySocket::setHost</title>
<!-- Node1 -->
<g id="Node000001" class="node">
<title>Node1</title>
<g id="a_Node000001"><a xlink:title="Configures the remote host address and port for subsequent connection attempts.">
<polygon fill="#999999" stroke="#666666" points="506.25,-66 368,-66 368,-34 506.25,-34 506.25,-66"/>
<text xml:space="preserve" text-anchor="start" x="376" y="-52.5" font-family="Helvetica,sans-Serif" font-size="10.00">AsyncFw::DataArraySocket</text>
<text xml:space="preserve" text-anchor="middle" x="437.12" y="-40.5" font-family="Helvetica,sans-Serif" font-size="10.00">::setHost</text>
</a>
</g>
</g>
<!-- Node2 -->
<g id="Node000002" class="node">
<title>Node2</title>
<g id="a_Node000002"><a xlink:href="classAsyncFw_1_1DataArraySocket.html#aed242e797aea527f8b86c4bc866ab454" target="_top" xlink:title="Initiates a connection to the specified remote host and port.">
<polygon fill="white" stroke="#666666" points="327.12,-100 188.88,-100 188.88,-68 327.12,-68 327.12,-100"/>
<text xml:space="preserve" text-anchor="start" x="196.88" y="-86.5" font-family="Helvetica,sans-Serif" font-size="10.00">AsyncFw::DataArraySocket</text>
<text xml:space="preserve" text-anchor="middle" x="258" y="-74.5" font-family="Helvetica,sans-Serif" font-size="10.00">::connect</text>
</a>
</g>
</g>
<!-- Node1&#45;&gt;Node2 -->
<g id="edge1_Node000001_Node000002" class="edge">
<title>Node1&#45;&gt;Node2</title>
<g id="a_edge1_Node000001_Node000002"><a xlink:title=" ">
<path fill="none" stroke="#63b8ff" d="M356.43,-65.3C346.81,-67.14 337.04,-69.02 327.59,-70.83"/>
<polygon fill="#63b8ff" stroke="#63b8ff" points="357,-68.75 366.16,-63.43 355.68,-61.88 357,-68.75"/>
</a>
</g>
</g>
<!-- Node3 -->
<g id="Node000003" class="node">
<title>Node3</title>
<g id="a_Node000003"><a xlink:href="classAsyncFw_1_1DataArrayTcpClient.html#ab1d57ed772640642f422515435d62197" target="_top" xlink:title="Explicitly connects a specific socket to a target host and port.">
<polygon fill="white" stroke="#666666" points="332,-32 184,-32 184,0 332,0 332,-32"/>
<text xml:space="preserve" text-anchor="start" x="192" y="-18.5" font-family="Helvetica,sans-Serif" font-size="10.00">AsyncFw::DataArrayTcpClient</text>
<text xml:space="preserve" text-anchor="middle" x="258" y="-6.5" font-family="Helvetica,sans-Serif" font-size="10.00">::connectToHost</text>
</a>
</g>
</g>
<!-- Node1&#45;&gt;Node3 -->
<g id="edge2_Node000001_Node000003" class="edge">
<title>Node1&#45;&gt;Node3</title>
<g id="a_edge2_Node000001_Node000003"><a xlink:title=" ">
<path fill="none" stroke="#63b8ff" d="M356.39,-34.69C348.37,-33.15 340.24,-31.59 332.29,-30.07"/>
<polygon fill="#63b8ff" stroke="#63b8ff" points="355.68,-38.12 366.16,-36.57 357,-31.25 355.68,-38.12"/>
</a>
</g>
</g>
<!-- Node3&#45;&gt;Node3 -->
<g id="edge4_Node000003_Node000003" class="edge">
<title>Node3&#45;&gt;Node3</title>
<g id="a_edge4_Node000003_Node000003"><a xlink:title=" ">
<path fill="none" stroke="#63b8ff" d="M287.85,-43.71C282.87,-47.48 272.92,-50 258,-50 230.71,-50 220.05,-41.58 226.02,-32.44"/>
<polygon fill="#63b8ff" stroke="#63b8ff" points="291.28,-44.41 289.7,-33.93 284.4,-43.11 291.28,-44.41"/>
</a>
</g>
</g>
<!-- Node4 -->
<g id="Node000004" class="node">
<title>Node4</title>
<g id="a_Node000004"><a xlink:href="classAsyncFw_1_1DataArrayTcpClient.html#a39e5b88e09a327955fb47b64dc60f568" target="_top" xlink:title="Initiates a connection using a pre&#45;configured socket&#39;s internal host settings.">
<polygon fill="white" stroke="#666666" points="148,-32 0,-32 0,0 148,0 148,-32"/>
<text xml:space="preserve" text-anchor="start" x="8" y="-18.5" font-family="Helvetica,sans-Serif" font-size="10.00">AsyncFw::DataArrayTcpClient</text>
<text xml:space="preserve" text-anchor="middle" x="74" y="-6.5" font-family="Helvetica,sans-Serif" font-size="10.00">::connectToHost</text>
</a>
</g>
</g>
<!-- Node3&#45;&gt;Node4 -->
<g id="edge3_Node000003_Node000004" class="edge">
<title>Node3&#45;&gt;Node4</title>
<g id="a_edge3_Node000003_Node000004"><a xlink:title=" ">
<path fill="none" stroke="#63b8ff" d="M172.46,-16C164.42,-16 156.31,-16 148.39,-16"/>
<polygon fill="#63b8ff" stroke="#63b8ff" points="172.25,-19.5 182.25,-16 172.25,-12.5 172.25,-19.5"/>
</a>
</g>
</g>
</g>
</svg>
