<?xml version="1.0" encoding="UTF-8" standalone="no"?>
<!DOCTYPE svg PUBLIC "-//W3C//DTD SVG 1.1//EN"
 "http://www.w3.org/Graphics/SVG/1.1/DTD/svg11.dtd">
<!-- Generated by graphviz version 14.1.3 (20260303.0454)
 -->
<!-- Title: AsyncFw::AbstractThread::AbstractThread Pages: 1 -->
<svg width="1012pt" height="679pt"
 viewBox="0.00 0.00 1012.00 679.00" xmlns="http://www.w3.org/2000/svg" xmlns:xlink="http://www.w3.org/1999/xlink">
<g id="graph0" class="graph" transform="scale(1 1) rotate(0) translate(4 675)">
<title>AsyncFw::AbstractThread::AbstractThread</title>
<!-- Node1 -->
<g id="Node000001" class="node">
<title>Node1</title>
<g id="a_Node000001"><a xlink:title="Constructs a thread.">
<polygon fill="#999999" stroke="#666666" points="1003.5,-267 873.5,-267 873.5,-235 1003.5,-235 1003.5,-267"/>
<text xml:space="preserve" text-anchor="start" x="881.5" y="-253.5" font-family="Helvetica,sans-Serif" font-size="10.00">AsyncFw::AbstractThread</text>
<text xml:space="preserve" text-anchor="middle" x="938.5" y="-241.5" font-family="Helvetica,sans-Serif" font-size="10.00">::AbstractThread</text>
</a>
</g>
</g>
<!-- Node2 -->
<g id="Node000002" class="node">
<title>Node2</title>
<g id="a_Node000002"><a xlink:href="classAsyncFw_1_1AbstractThread_1_1Waiter.html#af91079f02392dbcccd1ef5f99acb53f7" target="_top" xlink:title="Signals task completion and initiates a safe exit sequence from the sub&#45;loop.">
<polygon fill="white" stroke="#666666" points="837.5,-333 707.5,-333 707.5,-301 837.5,-301 837.5,-333"/>
<text xml:space="preserve" text-anchor="start" x="715.5" y="-319.5" font-family="Helvetica,sans-Serif" font-size="10.00">AsyncFw::AbstractThread</text>
<text xml:space="preserve" text-anchor="middle" x="772.5" y="-307.5" font-family="Helvetica,sans-Serif" font-size="10.00">::Waiter::complete</text>
</a>
</g>
</g>
<!-- Node1&#45;&gt;Node2 -->
<g id="edge1_Node000001_Node000002" class="edge">
<title>Node1&#45;&gt;Node2</title>
<g id="a_edge1_Node000001_Node000002"><a xlink:title=" ">
<path fill="none" stroke="#63b8ff" d="M887.89,-271.53C871.83,-278.12 853.93,-285.42 837.5,-292 830.52,-294.79 823.1,-297.72 815.88,-300.56"/>
<polygon fill="#63b8ff" stroke="#63b8ff" points="888.82,-274.93 896.74,-267.89 886.16,-268.46 888.82,-274.93"/>
</a>
</g>
</g>
<!-- Node3 -->
<g id="Node000003" class="node">
<title>Node3</title>
<g id="a_Node000003"><a xlink:href="classAsyncFw_1_1AbstractThread.html#af33c5949edb374d673a7a9ac0c81ec32" target="_top" xlink:title="Returns a pointer to the AsyncFw::AbstractThread that manages the currently executing thread.">
<polygon fill="white" stroke="#666666" points="837.5,-245 707.5,-245 707.5,-213 837.5,-213 837.5,-245"/>
<text xml:space="preserve" text-anchor="start" x="715.5" y="-231.5" font-family="Helvetica,sans-Serif" font-size="10.00">AsyncFw::AbstractThread</text>
<text xml:space="preserve" text-anchor="middle" x="772.5" y="-219.5" font-family="Helvetica,sans-Serif" font-size="10.00">::current</text>
</a>
</g>
</g>
<!-- Node1&#45;&gt;Node3 -->
<g id="edge2_Node000001_Node000003" class="edge">
<title>Node1&#45;&gt;Node3</title>
<g id="a_edge2_Node000001_Node000003"><a xlink:title=" ">
<path fill="none" stroke="#63b8ff" d="M861.91,-240.86C853.9,-239.78 845.8,-238.7 837.93,-237.64"/>
<polygon fill="#63b8ff" stroke="#63b8ff" points="861.28,-244.31 871.65,-242.17 862.21,-237.37 861.28,-244.31"/>
</a>
</g>
</g>
<!-- Node33 -->
<g id="Node000033" class="node">
<title>Node33</title>
<g id="a_Node000033"><a xlink:href="classAsyncFw_1_1AbstractThread_1_1Waiter.html#ad2a62fc1276d8be1986a7e77f6dfb437" target="_top" xlink:title="Suspends the caller by running a controlled nested exec() loop until completed.">
<polygon fill="white" stroke="#666666" points="662.12,-32 532.12,-32 532.12,0 662.12,0 662.12,-32"/>
<text xml:space="preserve" text-anchor="start" x="540.12" y="-18.5" font-family="Helvetica,sans-Serif" font-size="10.00">AsyncFw::AbstractThread</text>
<text xml:space="preserve" text-anchor="middle" x="597.12" y="-6.5" font-family="Helvetica,sans-Serif" font-size="10.00">::Waiter::wait</text>
</a>
</g>
</g>
<!-- Node1&#45;&gt;Node33 -->
<g id="edge35_Node000001_Node000033" class="edge">
<title>Node1&#45;&gt;Node33</title>
<g id="a_edge35_Node000001_Node000033"><a xlink:title=" ">
<path fill="none" stroke="#63b8ff" d="M913.05,-226.87C868.49,-184.08 769.61,-94.39 671.5,-41 665.71,-37.85 659.44,-34.99 653.1,-32.42"/>
<polygon fill="#63b8ff" stroke="#63b8ff" points="910.51,-229.29 920.13,-233.73 915.38,-224.26 910.51,-229.29"/>
</a>
</g>
</g>
<!-- Node34 -->
<g id="Node000034" class="node">
<title>Node34</title>
<g id="a_Node000034"><a xlink:href="classAsyncFw_1_1Thread.html#afc5e422090767dd84020381fb9a4d490" target="_top" xlink:title="Constructs a thread.">
<polygon fill="white" stroke="#666666" points="837.12,-283 707.88,-283 707.88,-263 837.12,-263 837.12,-283"/>
<text xml:space="preserve" text-anchor="middle" x="772.5" y="-269.5" font-family="Helvetica,sans-Serif" font-size="10.00">AsyncFw::Thread::Thread</text>
</a>
</g>
</g>
<!-- Node1&#45;&gt;Node34 -->
<g id="edge33_Node000001_Node000034" class="edge">
<title>Node1&#45;&gt;Node34</title>
<g id="a_edge33_Node000001_Node000034"><a xlink:title=" ">
<path fill="none" stroke="#63b8ff" d="M862.02,-261.13C853.78,-262.23 845.46,-263.35 837.39,-264.43"/>
<polygon fill="#63b8ff" stroke="#63b8ff" points="862.21,-264.63 871.65,-259.83 861.28,-257.69 862.21,-264.63"/>
</a>
</g>
</g>
<!-- Node4 -->
<g id="Node000004" class="node">
<title>Node4</title>
<g id="a_Node000004"><a xlink:href="classAsyncFw_1_1ThreadPool.html#a9919894e586310a7ea5b780845376e17" target="_top" xlink:title="Asynchronously invokes a void function in the target thread, and executes a result callback in the ca...">
<polygon fill="white" stroke="#666666" points="653.5,-420 540.75,-420 540.75,-388 653.5,-388 653.5,-420"/>
<text xml:space="preserve" text-anchor="start" x="548.75" y="-406.5" font-family="Helvetica,sans-Serif" font-size="10.00">AsyncFw::ThreadPool</text>
<text xml:space="preserve" text-anchor="middle" x="597.12" y="-394.5" font-family="Helvetica,sans-Serif" font-size="10.00">::async</text>
</a>
</g>
</g>
<!-- Node3&#45;&gt;Node4 -->
<g id="edge3_Node000003_Node000004" class="edge">
<title>Node3&#45;&gt;Node4</title>
<g id="a_edge3_Node000003_Node000004"><a xlink:title=" ">
<path fill="none" stroke="#63b8ff" d="M708.93,-252.5C708.44,-252.99 707.96,-253.49 707.5,-254 668.54,-296.72 711.39,-337.15 671.5,-379 666.49,-384.26 660.32,-388.41 653.72,-391.69"/>
<polygon fill="#63b8ff" stroke="#63b8ff" points="710.92,-255.4 716.48,-246.38 706.51,-249.96 710.92,-255.4"/>
</a>
</g>
</g>
<!-- Node5 -->
<g id="Node000005" class="node">
<title>Node5</title>
<g id="a_Node000005"><a xlink:href="classAsyncFw_1_1Thread.html#a0a3bd6a54db28f73ff59cfea6a40b07a" target="_top" xlink:title="Returns a pointer to the AsyncFw::Thread that manages the currently executing thread.">
<polygon fill="white" stroke="#666666" points="661.75,-458 532.5,-458 532.5,-438 661.75,-438 661.75,-458"/>
<text xml:space="preserve" text-anchor="middle" x="597.12" y="-444.5" font-family="Helvetica,sans-Serif" font-size="10.00">AsyncFw::Thread::current</text>
</a>
</g>
</g>
<!-- Node3&#45;&gt;Node5 -->
<g id="edge4_Node000003_Node000005" class="edge">
<title>Node3&#45;&gt;Node5</title>
<g id="a_edge4_Node000003_Node000005"><a xlink:title=" ">
<path fill="none" stroke="#63b8ff" d="M708.56,-252.79C708.2,-253.19 707.85,-253.59 707.5,-254 656.31,-314.7 726.21,-371.45 671.5,-429 668.24,-432.43 664.44,-435.28 660.32,-437.63"/>
<polygon fill="#63b8ff" stroke="#63b8ff" points="710.69,-255.58 715.93,-246.38 706.09,-250.3 710.69,-255.58"/>
</a>
</g>
</g>
<!-- Node19 -->
<g id="Node000019" class="node">
<title>Node19</title>
<g id="a_Node000019"><a xlink:href="classAsyncFw_1_1HttpServer_1_1Response.html#afa24643371f00fe11d7df0f9caae4134" target="_top" xlink:title="Destroys the response object and cleans up its allocated resources.">
<polygon fill="white" stroke="#666666" points="652.38,-370 541.88,-370 541.88,-338 652.38,-338 652.38,-370"/>
<text xml:space="preserve" text-anchor="start" x="549.88" y="-356.5" font-family="Helvetica,sans-Serif" font-size="10.00">AsyncFw::HttpServer</text>
<text xml:space="preserve" text-anchor="middle" x="597.12" y="-344.5" font-family="Helvetica,sans-Serif" font-size="10.00">::Response::destroy</text>
</a>
</g>
</g>
<!-- Node3&#45;&gt;Node19 -->
<g id="edge18_Node000003_Node000019" class="edge">
<title>Node3&#45;&gt;Node19</title>
<g id="a_edge18_Node000003_Node000019"><a xlink:title=" ">
<path fill="none" stroke="#63b8ff" d="M709.86,-251.93C709.05,-252.6 708.27,-253.29 707.5,-254 680.39,-279.14 699.16,-304.46 671.5,-329 665.96,-333.91 659.42,-337.87 652.56,-341.05"/>
<polygon fill="#63b8ff" stroke="#63b8ff" points="711.73,-254.89 717.93,-246.3 707.73,-249.15 711.73,-254.89"/>
</a>
</g>
</g>
<!-- Node23 -->
<g id="Node000023" class="node">
<title>Node23</title>
<g id="a_Node000023"><a xlink:href="classAsyncFw_1_1HttpServer.html#ad7dae50cc3787112980fa7075a60f811" target="_top" xlink:title="Disconnects a specific client socket and clears it from the internally managed pool.">
<polygon fill="white" stroke="#666666" points="653.5,-320 540.75,-320 540.75,-288 653.5,-288 653.5,-320"/>
<text xml:space="preserve" text-anchor="start" x="548.75" y="-306.5" font-family="Helvetica,sans-Serif" font-size="10.00">AsyncFw::HttpServer</text>
<text xml:space="preserve" text-anchor="middle" x="597.12" y="-294.5" font-family="Helvetica,sans-Serif" font-size="10.00">::disconnectFromHost</text>
</a>
</g>
</g>
<!-- Node3&#45;&gt;Node23 -->
<g id="edge22_Node000003_Node000023" class="edge">
<title>Node3&#45;&gt;Node23</title>
<g id="a_edge22_Node000003_Node000023"><a xlink:title=" ">
<path fill="none" stroke="#63b8ff" d="M715.18,-250.12C712.56,-251.38 709.99,-252.67 707.5,-254 690.31,-263.16 688.89,-270.22 671.5,-279 665.37,-282.09 658.78,-284.95 652.14,-287.53"/>
<polygon fill="#63b8ff" stroke="#63b8ff" points="716.41,-253.41 724.08,-246.1 713.53,-247.03 716.41,-253.41"/>
</a>
</g>
</g>
<!-- Node26 -->
<g id="Node000026" class="node">
<title>Node26</title>
<g id="a_Node000026"><a xlink:href="classAsyncFw_1_1DataArrayTcpClient.html#a380c907a396d306611fe7dc21f35f74f" target="_top" xlink:title="Executes a synchronous request&#45;response data exchange over a specific socket.">
<polygon fill="white" stroke="#666666" points="671.12,-270 523.12,-270 523.12,-238 671.12,-238 671.12,-270"/>
<text xml:space="preserve" text-anchor="start" x="531.12" y="-256.5" font-family="Helvetica,sans-Serif" font-size="10.00">AsyncFw::DataArrayTcpClient</text>
<text xml:space="preserve" text-anchor="middle" x="597.12" y="-244.5" font-family="Helvetica,sans-Serif" font-size="10.00">::exchange</text>
</a>
</g>
</g>
<!-- Node3&#45;&gt;Node26 -->
<g id="edge25_Node000003_Node000026" class="edge">
<title>Node3&#45;&gt;Node26</title>
<g id="a_edge25_Node000003_Node000026"><a xlink:title=" ">
<path fill="none" stroke="#63b8ff" d="M696.07,-239.88C687.94,-241.05 679.68,-242.24 671.58,-243.41"/>
<polygon fill="#63b8ff" stroke="#63b8ff" points="696.54,-243.35 705.94,-238.45 695.54,-236.42 696.54,-243.35"/>
</a>
</g>
</g>
<!-- Node27 -->
<g id="Node000027" class="node">
<title>Node27</title>
<g id="a_Node000027"><a xlink:href="classAsyncFw_1_1FileSystemWatcher.html#acd061a60fbaea1bb3c7d020e0da99039" target="_top" xlink:title="Constructs a FileSystemWatcher and optionally starts monitoring given paths.">
<polygon fill="white" stroke="#666666" points="671.5,-220 522.75,-220 522.75,-188 671.5,-188 671.5,-220"/>
<text xml:space="preserve" text-anchor="start" x="530.75" y="-206.5" font-family="Helvetica,sans-Serif" font-size="10.00">AsyncFw::FileSystemWatcher</text>
<text xml:space="preserve" text-anchor="middle" x="597.12" y="-194.5" font-family="Helvetica,sans-Serif" font-size="10.00">::FileSystemWatcher</text>
</a>
</g>
</g>
<!-- Node3&#45;&gt;Node27 -->
<g id="edge26_Node000003_Node000027" class="edge">
<title>Node3&#45;&gt;Node27</title>
<g id="a_edge26_Node000003_Node000027"><a xlink:title=" ">
<path fill="none" stroke="#63b8ff" d="M696.16,-218.14C688.11,-216.97 679.92,-215.79 671.88,-214.64"/>
<polygon fill="#63b8ff" stroke="#63b8ff" points="695.54,-221.58 705.94,-219.55 696.54,-214.65 695.54,-221.58"/>
</a>
</g>
</g>
<!-- Node29 -->
<g id="Node000029" class="node">
<title>Node29</title>
<g id="a_Node000029"><a xlink:href="classAsyncFw_1_1MulticastDns.html#ab9bfb41e98cd4ecf1cc63f8acd023afd" target="_top" xlink:title="Initializes the mDNS node with a specific target service type (e.g., &quot;_http._tcp&quot;).">
<polygon fill="white" stroke="#666666" points="657.62,-170 536.62,-170 536.62,-138 657.62,-138 657.62,-170"/>
<text xml:space="preserve" text-anchor="start" x="544.62" y="-156.5" font-family="Helvetica,sans-Serif" font-size="10.00">AsyncFw::MulticastDns</text>
<text xml:space="preserve" text-anchor="middle" x="597.12" y="-144.5" font-family="Helvetica,sans-Serif" font-size="10.00">::MulticastDns</text>
</a>
</g>
</g>
<!-- Node3&#45;&gt;Node29 -->
<g id="edge28_Node000003_Node000029" class="edge">
<title>Node3&#45;&gt;Node29</title>
<g id="a_edge28_Node000003_Node000029"><a xlink:title=" ">
<path fill="none" stroke="#63b8ff" d="M731.22,-207.3C713.21,-198.01 691.56,-187.39 671.5,-179 664.42,-176.04 656.86,-173.16 649.38,-170.47"/>
<polygon fill="#63b8ff" stroke="#63b8ff" points="729.54,-210.37 740.02,-211.89 732.77,-204.16 729.54,-210.37"/>
</a>
</g>
</g>
<!-- Node31 -->
<g id="Node000031" class="node">
<title>Node31</title>
<g id="a_Node000031"><a xlink:href="classAsyncFw_1_1Log.html#a6b0ce40bc2e34f4b435894701194dc26" target="_top" xlink:title="Persists log entries into the underlying Rrd buffer and manages automated disk flushing.">
<polygon fill="white" stroke="#666666" points="653.12,-120 541.12,-120 541.12,-100 653.12,-100 653.12,-120"/>
<text xml:space="preserve" text-anchor="middle" x="597.12" y="-106.5" font-family="Helvetica,sans-Serif" font-size="10.00">AsyncFw::Log::output</text>
</a>
</g>
</g>
<!-- Node3&#45;&gt;Node31 -->
<g id="edge30_Node000003_Node000031" class="edge">
<title>Node3&#45;&gt;Node31</title>
<g id="a_edge30_Node000003_Node000031"><a xlink:title=" ">
<path fill="none" stroke="#63b8ff" d="M753.02,-204.04C734.78,-181.17 704.85,-148.07 671.5,-129 665.56,-125.6 659.01,-122.8 652.33,-120.5"/>
<polygon fill="#63b8ff" stroke="#63b8ff" points="750.04,-205.91 758.94,-211.65 755.56,-201.61 750.04,-205.91"/>
</a>
</g>
</g>
<!-- Node32 -->
<g id="Node000032" class="node">
<title>Node32</title>
<g id="a_Node000032"><a xlink:href="classAsyncFw_1_1SystemProcess.html#acf60a585a89304fdb3580e9add06d155" target="_top" xlink:title="Constructs a new SystemProcess manager.">
<polygon fill="white" stroke="#666666" points="663.62,-82 530.62,-82 530.62,-50 663.62,-50 663.62,-82"/>
<text xml:space="preserve" text-anchor="start" x="538.62" y="-68.5" font-family="Helvetica,sans-Serif" font-size="10.00">AsyncFw::SystemProcess</text>
<text xml:space="preserve" text-anchor="middle" x="597.12" y="-56.5" font-family="Helvetica,sans-Serif" font-size="10.00">::SystemProcess</text>
</a>
</g>
</g>
<!-- Node3&#45;&gt;Node32 -->
<g id="edge31_Node000003_Node000032" class="edge">
<title>Node3&#45;&gt;Node32</title>
<g id="a_edge31_Node000003_Node000032"><a xlink:title=" ">
<path fill="none" stroke="#63b8ff" d="M755.35,-202.96C732.93,-167.52 692.73,-106.68 671.5,-91 667.06,-87.72 662.16,-84.85 657.06,-82.35"/>
<polygon fill="#63b8ff" stroke="#63b8ff" points="752.35,-204.76 760.63,-211.37 758.28,-201.04 752.35,-204.76"/>
</a>
</g>
</g>
<!-- Node3&#45;&gt;Node33 -->
<g id="edge32_Node000003_Node000033" class="edge">
<title>Node3&#45;&gt;Node33</title>
<g id="a_edge32_Node000003_Node000033"><a xlink:title=" ">
<path fill="none" stroke="#63b8ff" d="M753.59,-203.1C740.02,-182.89 721.41,-153.83 707.5,-127 688.42,-90.22 701.78,-69.29 671.5,-41 667.96,-37.69 663.96,-34.82 659.71,-32.33"/>
<polygon fill="#63b8ff" stroke="#63b8ff" points="750.63,-204.97 759.14,-211.28 756.42,-201.04 750.63,-204.97"/>
</a>
</g>
</g>
<!-- Node6 -->
<g id="Node000006" class="node">
<title>Node6</title>
<g id="a_Node000006"><a xlink:href="classAsyncFw_1_1AbstractSocket.html#a94ae146fe8047af98d2dcfd14d20e261" target="_top" xlink:title="Constructs an AbstractSocket with default parameters (AF_INET, SOCK_STREAM, IPPROTO_TCP) and binds it...">
<polygon fill="white" stroke="#666666" points="477.75,-621 347,-621 347,-589 477.75,-589 477.75,-621"/>
<text xml:space="preserve" text-anchor="start" x="355" y="-607.5" font-family="Helvetica,sans-Serif" font-size="10.00">AsyncFw::AbstractSocket</text>
<text xml:space="preserve" text-anchor="middle" x="412.38" y="-595.5" font-family="Helvetica,sans-Serif" font-size="10.00">::AbstractSocket</text>
</a>
</g>
</g>
<!-- Node5&#45;&gt;Node6 -->
<g id="edge5_Node000005_Node000006" class="edge">
<title>Node5&#45;&gt;Node6</title>
<g id="a_edge5_Node000005_Node000006"><a xlink:title=" ">
<path fill="none" stroke="#63b8ff" d="M575.52,-465.7C539.87,-496.33 467.2,-558.76 432.57,-588.51"/>
<polygon fill="#63b8ff" stroke="#63b8ff" points="577.68,-468.46 582.99,-459.29 573.12,-463.15 577.68,-468.46"/>
</a>
</g>
</g>
<!-- Node9 -->
<g id="Node000009" class="node">
<title>Node9</title>
<g id="a_Node000009"><a xlink:href="classAsyncFw_1_1AbstractSocket.html#a73a200f0008dbf9f820bdb2b8a0054cf" target="_top" xlink:title="Schedules the socket for deferred asynchronous destruction.">
<polygon fill="white" stroke="#666666" points="477.75,-521 347,-521 347,-489 477.75,-489 477.75,-521"/>
<text xml:space="preserve" text-anchor="start" x="355" y="-507.5" font-family="Helvetica,sans-Serif" font-size="10.00">AsyncFw::AbstractSocket</text>
<text xml:space="preserve" text-anchor="middle" x="412.38" y="-495.5" font-family="Helvetica,sans-Serif" font-size="10.00">::destroy</text>
</a>
</g>
</g>
<!-- Node5&#45;&gt;Node9 -->
<g id="edge8_Node000005_Node000009" class="edge">
<title>Node5&#45;&gt;Node9</title>
<g id="a_edge8_Node000005_Node000009"><a xlink:title=" ">
<path fill="none" stroke="#63b8ff" d="M551.64,-461.88C525.82,-469.93 493.15,-480.12 466.06,-488.57"/>
<polygon fill="#63b8ff" stroke="#63b8ff" points="552.66,-465.22 561.16,-458.91 550.57,-458.54 552.66,-465.22"/>
</a>
</g>
</g>
<!-- Node13 -->
<g id="Node000013" class="node">
<title>Node13</title>
<g id="a_Node000013"><a xlink:href="classAsyncFw_1_1Rrd.html#a2fd20dd3470a11ef179577c565c333f1" target="_top" xlink:title="Constructs a persistent circular archive database with physical disk backing.">
<polygon fill="white" stroke="#666666" points="462.75,-433 362,-433 362,-413 462.75,-413 462.75,-433"/>
<text xml:space="preserve" text-anchor="middle" x="412.38" y="-419.5" font-family="Helvetica,sans-Serif" font-size="10.00">AsyncFw::Rrd::Rrd</text>
</a>
</g>
</g>
<!-- Node5&#45;&gt;Node13 -->
<g id="edge12_Node000005_Node000013" class="edge">
<title>Node5&#45;&gt;Node13</title>
<g id="a_edge12_Node000005_Node000013"><a xlink:title=" ">
<path fill="none" stroke="#63b8ff" d="M520.89,-437.71C501.42,-435.04 480.95,-432.24 463.15,-429.81"/>
<polygon fill="#63b8ff" stroke="#63b8ff" points="520.33,-441.16 530.71,-439.05 521.28,-434.23 520.33,-441.16"/>
</a>
</g>
</g>
<!-- Node7 -->
<g id="Node000007" class="node">
<title>Node7</title>
<g id="a_Node000007"><a xlink:href="classAsyncFw_1_1AbstractSocket.html#ad82c1584c2664dd89cd94cc217974afe" target="_top" xlink:title="Constructs an AbstractSocket and binds it to the current thread context.">
<polygon fill="white" stroke="#666666" points="295.25,-671 164.5,-671 164.5,-639 295.25,-639 295.25,-671"/>
<text xml:space="preserve" text-anchor="start" x="172.5" y="-657.5" font-family="Helvetica,sans-Serif" font-size="10.00">AsyncFw::AbstractSocket</text>
<text xml:space="preserve" text-anchor="middle" x="229.88" y="-645.5" font-family="Helvetica,sans-Serif" font-size="10.00">::AbstractSocket</text>
</a>
</g>
</g>
<!-- Node6&#45;&gt;Node7 -->
<g id="edge6_Node000006_Node000007" class="edge">
<title>Node6&#45;&gt;Node7</title>
<g id="a_edge6_Node000006_Node000007"><a xlink:title=" ">
<path fill="none" stroke="#63b8ff" d="M341.14,-624.46C324.32,-629.11 306.53,-634.04 290.26,-638.55"/>
<polygon fill="#63b8ff" stroke="#63b8ff" points="341.86,-627.89 350.56,-621.85 339.99,-621.14 341.86,-627.89"/>
</a>
</g>
</g>
<!-- Node8 -->
<g id="Node000008" class="node">
<title>Node8</title>
<g id="a_Node000008"><a xlink:href="classAsyncFw_1_1AbstractTlsSocket.html#a7800254e24419820e105e863c0266ac4" target="_top" xlink:title="Protected default constructor. Allocates the internal private structure and setups context pointers.">
<polygon fill="white" stroke="#666666" points="302,-621 157.75,-621 157.75,-589 302,-589 302,-621"/>
<text xml:space="preserve" text-anchor="start" x="165.75" y="-607.5" font-family="Helvetica,sans-Serif" font-size="10.00">AsyncFw::AbstractTlsSocket</text>
<text xml:space="preserve" text-anchor="middle" x="229.88" y="-595.5" font-family="Helvetica,sans-Serif" font-size="10.00">::AbstractTlsSocket</text>
</a>
</g>
</g>
<!-- Node6&#45;&gt;Node8 -->
<g id="edge7_Node000006_Node000008" class="edge">
<title>Node6&#45;&gt;Node8</title>
<g id="a_edge7_Node000006_Node000008"><a xlink:title=" ">
<path fill="none" stroke="#63b8ff" d="M335.45,-605C324.51,-605 313.28,-605 302.43,-605"/>
<polygon fill="#63b8ff" stroke="#63b8ff" points="335.21,-608.5 345.21,-605 335.21,-601.5 335.21,-608.5"/>
</a>
</g>
</g>
<!-- Node10 -->
<g id="Node000010" class="node">
<title>Node10</title>
<g id="a_Node000010"><a xlink:href="classAsyncFw_1_1HttpSocket.html#a8268467d3581a4d393e9ccd288de32ff" target="_top" xlink:title="Schedules the socket for deferred asynchronous destruction.">
<polygon fill="white" stroke="#666666" points="286.25,-571 173.5,-571 173.5,-539 286.25,-539 286.25,-571"/>
<text xml:space="preserve" text-anchor="start" x="181.5" y="-557.5" font-family="Helvetica,sans-Serif" font-size="10.00">AsyncFw::HttpSocket</text>
<text xml:space="preserve" text-anchor="middle" x="229.88" y="-545.5" font-family="Helvetica,sans-Serif" font-size="10.00">::destroy</text>
</a>
</g>
</g>
<!-- Node9&#45;&gt;Node10 -->
<g id="edge9_Node000009_Node000010" class="edge">
<title>Node9&#45;&gt;Node10</title>
<g id="a_edge9_Node000009_Node000010"><a xlink:title=" ">
<path fill="none" stroke="#63b8ff" d="M340.96,-524.5C322.92,-529.5 303.77,-534.81 286.59,-539.57"/>
<polygon fill="#63b8ff" stroke="#63b8ff" points="341.86,-527.89 350.56,-521.85 339.99,-521.14 341.86,-527.89"/>
</a>
</g>
</g>
<!-- Node12 -->
<g id="Node000012" class="node">
<title>Node12</title>
<g id="a_Node000012"><a xlink:href="classAsyncFw_1_1DataArrayAbstractTcp_1_1Thread.html#ab6df6de1f9828a772e5968477ce5dffa" target="_top" xlink:title="Performs cleanup routines and safely removes a socket from the thread loop.">
<polygon fill="white" stroke="#666666" points="302,-521 157.75,-521 157.75,-489 302,-489 302,-521"/>
<text xml:space="preserve" text-anchor="start" x="165.75" y="-507.5" font-family="Helvetica,sans-Serif" font-size="10.00">AsyncFw::DataArrayAbstract</text>
<text xml:space="preserve" text-anchor="middle" x="229.88" y="-495.5" font-family="Helvetica,sans-Serif" font-size="10.00">Tcp::Thread::destroySocket</text>
</a>
</g>
</g>
<!-- Node9&#45;&gt;Node12 -->
<g id="edge11_Node000009_Node000012" class="edge">
<title>Node9&#45;&gt;Node12</title>
<g id="a_edge11_Node000009_Node000012"><a xlink:title=" ">
<path fill="none" stroke="#63b8ff" d="M335.45,-505C324.51,-505 313.28,-505 302.43,-505"/>
<polygon fill="#63b8ff" stroke="#63b8ff" points="335.21,-508.5 345.21,-505 335.21,-501.5 335.21,-508.5"/>
</a>
</g>
</g>
<!-- Node11 -->
<g id="Node000011" class="node">
<title>Node11</title>
<g id="a_Node000011"><a xlink:href="classAsyncFw_1_1HttpServer_1_1TcpSocket.html#a41557b69e30e25b97cbdda210afb7657" target="_top" xlink:title="Constructs a new TcpSocket associated with the parent server.">
<polygon fill="white" stroke="#666666" points="120.62,-571 1.12,-571 1.12,-539 120.62,-539 120.62,-571"/>
<text xml:space="preserve" text-anchor="start" x="9.12" y="-557.5" font-family="Helvetica,sans-Serif" font-size="10.00">AsyncFw::HttpServer</text>
<text xml:space="preserve" text-anchor="middle" x="60.88" y="-545.5" font-family="Helvetica,sans-Serif" font-size="10.00">::TcpSocket::TcpSocket</text>
</a>
</g>
</g>
<!-- Node10&#45;&gt;Node11 -->
<g id="edge10_Node000010_Node000011" class="edge">
<title>Node10&#45;&gt;Node11</title>
<g id="a_edge10_Node000010_Node000011"><a xlink:title=" ">
<path fill="none" stroke="#63b8ff" d="M162.03,-555C148.45,-555 134.26,-555 120.96,-555"/>
<polygon fill="#63b8ff" stroke="#63b8ff" points="161.75,-558.5 171.75,-555 161.75,-551.5 161.75,-558.5"/>
</a>
</g>
</g>
<!-- Node14 -->
<g id="Node000014" class="node">
<title>Node14</title>
<g id="a_Node000014"><a xlink:href="classAsyncFw_1_1Log.html#a832d13f4e9231eee37d8decb5b9b96d7" target="_top" xlink:title="Constructs a persistent log system with a specific circular database size and file name context.">
<polygon fill="white" stroke="#666666" points="280.25,-471 179.5,-471 179.5,-451 280.25,-451 280.25,-471"/>
<text xml:space="preserve" text-anchor="middle" x="229.88" y="-457.5" font-family="Helvetica,sans-Serif" font-size="10.00">AsyncFw::Log::Log</text>
</a>
</g>
</g>
<!-- Node13&#45;&gt;Node14 -->
<g id="edge13_Node000013_Node000014" class="edge">
<title>Node13&#45;&gt;Node14</title>
<g id="a_edge13_Node000013_Node000014"><a xlink:title=" ">
<path fill="none" stroke="#63b8ff" d="M350.32,-435.85C327.59,-440.64 302.1,-446.01 280.51,-450.55"/>
<polygon fill="#63b8ff" stroke="#63b8ff" points="351.03,-439.28 360.09,-433.8 349.59,-432.43 351.03,-439.28"/>
</a>
</g>
</g>
<!-- Node16 -->
<g id="Node000016" class="node">
<title>Node16</title>
<g id="a_Node000016"><a xlink:href="classAsyncFw_1_1Rrd.html#aa54ae298c96e9efe88b644931b12f734" target="_top" xlink:title="Constructs a minimal in&#45;memory anonymous circular database with default system tracking intervals.">
<polygon fill="white" stroke="#666666" points="280.25,-433 179.5,-433 179.5,-413 280.25,-413 280.25,-433"/>
<text xml:space="preserve" text-anchor="middle" x="229.88" y="-419.5" font-family="Helvetica,sans-Serif" font-size="10.00">AsyncFw::Rrd::Rrd</text>
</a>
</g>
</g>
<!-- Node13&#45;&gt;Node16 -->
<g id="edge15_Node000013_Node000016" class="edge">
<title>Node13&#45;&gt;Node16</title>
<g id="a_edge15_Node000013_Node000016"><a xlink:title=" ">
<path fill="none" stroke="#63b8ff" d="M350.32,-423C327.59,-423 302.1,-423 280.51,-423"/>
<polygon fill="#63b8ff" stroke="#63b8ff" points="350.06,-426.5 360.06,-423 350.06,-419.5 350.06,-426.5"/>
</a>
</g>
</g>
<!-- Node17 -->
<g id="Node000017" class="node">
<title>Node17</title>
<g id="a_Node000017"><a xlink:href="classAsyncFw_1_1Rrd.html#aaea6a63444ab427f801be34f26d930d5" target="_top" xlink:title="Constructs a persistent circular archive database using default system tracking intervals.">
<polygon fill="white" stroke="#666666" points="280.25,-395 179.5,-395 179.5,-375 280.25,-375 280.25,-395"/>
<text xml:space="preserve" text-anchor="middle" x="229.88" y="-381.5" font-family="Helvetica,sans-Serif" font-size="10.00">AsyncFw::Rrd::Rrd</text>
</a>
</g>
</g>
<!-- Node13&#45;&gt;Node17 -->
<g id="edge16_Node000013_Node000017" class="edge">
<title>Node13&#45;&gt;Node17</title>
<g id="a_edge16_Node000013_Node000017"><a xlink:title=" ">
<path fill="none" stroke="#63b8ff" d="M350.32,-410.15C327.59,-405.36 302.1,-399.99 280.51,-395.45"/>
<polygon fill="#63b8ff" stroke="#63b8ff" points="349.59,-413.57 360.09,-412.2 351.03,-406.72 349.59,-413.57"/>
</a>
</g>
</g>
<!-- Node18 -->
<g id="Node000018" class="node">
<title>Node18</title>
<g id="a_Node000018"><a xlink:href="classAsyncFw_1_1Rrd.html#a98c7829cc6177c80245cf95095deb3ba" target="_top" xlink:title="Constructs an in&#45;memory anonymous circular database without file serialization.">
<polygon fill="white" stroke="#666666" points="280.25,-357 179.5,-357 179.5,-337 280.25,-337 280.25,-357"/>
<text xml:space="preserve" text-anchor="middle" x="229.88" y="-343.5" font-family="Helvetica,sans-Serif" font-size="10.00">AsyncFw::Rrd::Rrd</text>
</a>
</g>
</g>
<!-- Node13&#45;&gt;Node18 -->
<g id="edge17_Node000013_Node000018" class="edge">
<title>Node13&#45;&gt;Node18</title>
<g id="a_edge17_Node000013_Node000018"><a xlink:title=" ">
<path fill="none" stroke="#63b8ff" d="M384.71,-406.99C363.03,-394.49 331.33,-377.4 302,-366 293.78,-362.8 284.82,-359.95 276.13,-357.49"/>
<polygon fill="#63b8ff" stroke="#63b8ff" points="382.79,-409.92 393.19,-411.94 386.32,-403.88 382.79,-409.92"/>
</a>
</g>
</g>
<!-- Node15 -->
<g id="Node000015" class="node">
<title>Node15</title>
<g id="a_Node000015"><a xlink:href="classAsyncFw_1_1Log.html#a00e9a20e7303e9a24403046af176b6b2" target="_top" xlink:title="Global service locator shortcut to fetch the current engine&#45;wide default log pointer.">
<polygon fill="white" stroke="#666666" points="121.75,-471 0,-471 0,-451 121.75,-451 121.75,-471"/>
<text xml:space="preserve" text-anchor="middle" x="60.88" y="-457.5" font-family="Helvetica,sans-Serif" font-size="10.00">AsyncFw::Log::instance</text>
</a>
</g>
</g>
<!-- Node14&#45;&gt;Node15 -->
<g id="edge14_Node000014_Node000015" class="edge">
<title>Node14&#45;&gt;Node15</title>
<g id="a_edge14_Node000014_Node000015"><a xlink:title=" ">
<path fill="none" stroke="#63b8ff" d="M167.99,-461C152.99,-461 136.93,-461 121.96,-461"/>
<polygon fill="#63b8ff" stroke="#63b8ff" points="167.71,-464.5 177.71,-461 167.71,-457.5 167.71,-464.5"/>
</a>
</g>
</g>
<!-- Node20 -->
<g id="Node000020" class="node">
<title>Node20</title>
<g id="a_Node000020"><a xlink:href="classAsyncFw_1_1HttpServer_1_1Response.html#a52925841696f5351ff43b46530c18390" target="_top" xlink:title="Finalizes and sends the response over the network via the associated socket.">
<polygon fill="white" stroke="#666666" points="467.62,-370 357.12,-370 357.12,-338 467.62,-338 467.62,-370"/>
<text xml:space="preserve" text-anchor="start" x="365.12" y="-356.5" font-family="Helvetica,sans-Serif" font-size="10.00">AsyncFw::HttpServer</text>
<text xml:space="preserve" text-anchor="middle" x="412.38" y="-344.5" font-family="Helvetica,sans-Serif" font-size="10.00">::Response::send</text>
</a>
</g>
</g>
<!-- Node19&#45;&gt;Node20 -->
<g id="edge19_Node000019_Node000020" class="edge">
<title>Node19&#45;&gt;Node20</title>
<g id="a_edge19_Node000019_Node000020"><a xlink:title=" ">
<path fill="none" stroke="#63b8ff" d="M530.3,-354C509.8,-354 487.44,-354 467.82,-354"/>
<polygon fill="#63b8ff" stroke="#63b8ff" points="530.28,-357.5 540.28,-354 530.28,-350.5 530.28,-357.5"/>
</a>
</g>
</g>
<!-- Node21 -->
<g id="Node000021" class="node">
<title>Node21</title>
<g id="a_Node000021"><a xlink:href="classAsyncFw_1_1HttpServer.html#a522928fa8bf3b13b706ac997d4f100dd" target="_top" xlink:title="Constructs the HTTP server instance.">
<polygon fill="white" stroke="#666666" points="285.12,-319 174.62,-319 174.62,-287 285.12,-287 285.12,-319"/>
<text xml:space="preserve" text-anchor="start" x="182.62" y="-305.5" font-family="Helvetica,sans-Serif" font-size="10.00">AsyncFw::HttpServer</text>
<text xml:space="preserve" text-anchor="middle" x="229.88" y="-293.5" font-family="Helvetica,sans-Serif" font-size="10.00">::HttpServer</text>
</a>
</g>
</g>
<!-- Node20&#45;&gt;Node21 -->
<g id="edge20_Node000020_Node000021" class="edge">
<title>Node20&#45;&gt;Node21</title>
<g id="a_edge20_Node000020_Node000021"><a xlink:title=" ">
<path fill="none" stroke="#63b8ff" d="M345.89,-335.5C326.02,-329.88 304.4,-323.78 285.34,-318.39"/>
<polygon fill="#63b8ff" stroke="#63b8ff" points="344.7,-338.8 355.27,-338.15 346.6,-332.06 344.7,-338.8"/>
</a>
</g>
</g>
<!-- Node22 -->
<g id="Node000022" class="node">
<title>Node22</title>
<g id="a_Node000022"><a xlink:href="classAsyncFw_1_1HttpServer.html#ad52f34791fe5848d9ba891b209fcdbe0" target="_top" xlink:title="Accessor to fetch the globally managed singleton instance reference of the active HttpServer.">
<polygon fill="white" stroke="#666666" points="116.12,-319 5.62,-319 5.62,-287 116.12,-287 116.12,-319"/>
<text xml:space="preserve" text-anchor="start" x="13.62" y="-305.5" font-family="Helvetica,sans-Serif" font-size="10.00">AsyncFw::HttpServer</text>
<text xml:space="preserve" text-anchor="middle" x="60.88" y="-293.5" font-family="Helvetica,sans-Serif" font-size="10.00">::instance</text>
</a>
</g>
</g>
<!-- Node21&#45;&gt;Node22 -->
<g id="edge21_Node000021_Node000022" class="edge">
<title>Node21&#45;&gt;Node22</title>
<g id="a_edge21_Node000021_Node000022"><a xlink:title=" ">
<path fill="none" stroke="#63b8ff" d="M163.11,-303C147.64,-303 131.31,-303 116.39,-303"/>
<polygon fill="#63b8ff" stroke="#63b8ff" points="162.68,-306.5 172.68,-303 162.68,-299.5 162.68,-306.5"/>
</a>
</g>
</g>
<!-- Node24 -->
<g id="Node000024" class="node">
<title>Node24</title>
<g id="a_Node000024"><a xlink:href="classAsyncFw_1_1HttpServer.html#ad3761260dfd18899afc22c6f4bc0c556" target="_top" xlink:title="Forcefully terminates all active socket connections currently retained by the server.">
<polygon fill="white" stroke="#666666" points="467.62,-320 357.12,-320 357.12,-288 467.62,-288 467.62,-320"/>
<text xml:space="preserve" text-anchor="start" x="365.12" y="-306.5" font-family="Helvetica,sans-Serif" font-size="10.00">AsyncFw::HttpServer</text>
<text xml:space="preserve" text-anchor="middle" x="412.38" y="-294.5" font-family="Helvetica,sans-Serif" font-size="10.00">::clearConnections</text>
</a>
</g>
</g>
<!-- Node23&#45;&gt;Node24 -->
<g id="edge23_Node000023_Node000024" class="edge">
<title>Node23&#45;&gt;Node24</title>
<g id="a_edge23_Node000023_Node000024"><a xlink:title=" ">
<path fill="none" stroke="#63b8ff" d="M529.01,-304C508.91,-304 487.11,-304 467.92,-304"/>
<polygon fill="#63b8ff" stroke="#63b8ff" points="528.79,-307.5 538.79,-304 528.79,-300.5 528.79,-307.5"/>
</a>
</g>
</g>
<!-- Node25 -->
<g id="Node000025" class="node">
<title>Node25</title>
<g id="a_Node000025"><a xlink:href="classAsyncFw_1_1HttpServer.html#ab3eeb1643d4482345afcd9f971c020ac" target="_top" xlink:title="Explicitly severs connections with active sockets holding custom user metadata matching data.">
<polygon fill="white" stroke="#666666" points="467.62,-270 357.12,-270 357.12,-238 467.62,-238 467.62,-270"/>
<text xml:space="preserve" text-anchor="start" x="365.12" y="-256.5" font-family="Helvetica,sans-Serif" font-size="10.00">AsyncFw::HttpServer</text>
<text xml:space="preserve" text-anchor="middle" x="412.38" y="-244.5" font-family="Helvetica,sans-Serif" font-size="10.00">::clearConnections</text>
</a>
</g>
</g>
<!-- Node23&#45;&gt;Node25 -->
<g id="edge24_Node000023_Node000025" class="edge">
<title>Node23&#45;&gt;Node25</title>
<g id="a_edge24_Node000023_Node000025"><a xlink:title=" ">
<path fill="none" stroke="#63b8ff" d="M529.29,-285.71C509.11,-280.19 487.2,-274.2 467.92,-268.92"/>
<polygon fill="#63b8ff" stroke="#63b8ff" points="528.27,-289.06 538.84,-288.33 530.12,-282.31 528.27,-289.06"/>
</a>
</g>
</g>
<!-- Node28 -->
<g id="Node000028" class="node">
<title>Node28</title>
<g id="a_Node000028"><a xlink:href="classAsyncFw_1_1FileSystemWatcher.html#a16b4210d215a3b340c98f650d2071114" target="_top" xlink:title="Retrieves the global instance pointer of the active FileSystemWatcher.">
<polygon fill="white" stroke="#666666" points="486.75,-220 338,-220 338,-188 486.75,-188 486.75,-220"/>
<text xml:space="preserve" text-anchor="start" x="346" y="-206.5" font-family="Helvetica,sans-Serif" font-size="10.00">AsyncFw::FileSystemWatcher</text>
<text xml:space="preserve" text-anchor="middle" x="412.38" y="-194.5" font-family="Helvetica,sans-Serif" font-size="10.00">::instance</text>
</a>
</g>
</g>
<!-- Node27&#45;&gt;Node28 -->
<g id="edge27_Node000027_Node000028" class="edge">
<title>Node27&#45;&gt;Node28</title>
<g id="a_edge27_Node000027_Node000028"><a xlink:title=" ">
<path fill="none" stroke="#63b8ff" d="M510.81,-204C502.91,-204 494.94,-204 487.16,-204"/>
<polygon fill="#63b8ff" stroke="#63b8ff" points="510.81,-207.5 520.81,-204 510.81,-200.5 510.81,-207.5"/>
</a>
</g>
</g>
<!-- Node30 -->
<g id="Node000030" class="node">
<title>Node30</title>
<g id="a_Node000030"><a xlink:href="classAsyncFw_1_1MulticastDns.html#a61341fa78536e7a787bbbce75116ef3e" target="_top" xlink:title="Returns the global default instance pointer.">
<polygon fill="white" stroke="#666666" points="472.88,-170 351.88,-170 351.88,-138 472.88,-138 472.88,-170"/>
<text xml:space="preserve" text-anchor="start" x="359.88" y="-156.5" font-family="Helvetica,sans-Serif" font-size="10.00">AsyncFw::MulticastDns</text>
<text xml:space="preserve" text-anchor="middle" x="412.38" y="-144.5" font-family="Helvetica,sans-Serif" font-size="10.00">::instance</text>
</a>
</g>
</g>
<!-- Node29&#45;&gt;Node30 -->
<g id="edge29_Node000029_Node000030" class="edge">
<title>Node29&#45;&gt;Node30</title>
<g id="a_edge29_Node000029_Node000030"><a xlink:title=" ">
<path fill="none" stroke="#63b8ff" d="M525.2,-154C508.07,-154 489.92,-154 473.35,-154"/>
<polygon fill="#63b8ff" stroke="#63b8ff" points="524.77,-157.5 534.77,-154 524.77,-150.5 524.77,-157.5"/>
</a>
</g>
</g>
<!-- Node34&#45;&gt;Node5 -->
<g id="edge34_Node000034_Node000005" class="edge">
<title>Node34&#45;&gt;Node5</title>
<g id="a_edge34_Node000034_Node000005"><a xlink:title=" ">
<path fill="none" stroke="#63b8ff" d="M709.75,-289.85C708.97,-290.54 708.22,-291.25 707.5,-292 663.69,-337.21 716.1,-384.56 671.5,-429 668.05,-432.44 664.07,-435.28 659.77,-437.62"/>
<polygon fill="#63b8ff" stroke="#63b8ff" points="711.45,-292.93 717.65,-284.34 707.45,-287.18 711.45,-292.93"/>
</a>
</g>
</g>
</g>
</svg>
