<?xml version="1.0" encoding="UTF-8" standalone="no"?>
<!DOCTYPE svg PUBLIC "-//W3C//DTD SVG 1.1//EN"
 "http://www.w3.org/Graphics/SVG/1.1/DTD/svg11.dtd">
<!-- Generated by graphviz version 12.2.1 (20241206.2353)
 -->
<!-- Title: AsyncFw::FileSystemWatcher::instance Pages: 1 -->
<svg width="858pt" height="90pt"
 viewBox="0.00 0.00 858.25 90.00" xmlns="http://www.w3.org/2000/svg" xmlns:xlink="http://www.w3.org/1999/xlink">
<g id="graph0" class="graph" transform="scale(1 1) rotate(0) translate(4 86)">
<title>AsyncFw::FileSystemWatcher::instance</title>
<!-- Node1 -->
<g id="Node000001" class="node">
<title>Node1</title>
<g id="a_Node000001"><a xlink:title="Retrieves the global instance pointer of the active FileSystemWatcher.">
<polygon fill="#999999" stroke="#666666" points="148.75,-57 0,-57 0,-25 148.75,-25 148.75,-57"/>
<text text-anchor="start" x="8" y="-43.5" font-family="Helvetica,sans-Serif" font-size="10.00">AsyncFw::FileSystemWatcher</text>
<text text-anchor="middle" x="74.38" y="-31.5" font-family="Helvetica,sans-Serif" font-size="10.00">::instance</text>
</a>
</g>
</g>
<!-- Node2 -->
<g id="Node000002" class="node">
<title>Node2</title>
<g id="a_Node000002"><a xlink:href="classAsyncFw_1_1FileSystemWatcher.html#acd061a60fbaea1bb3c7d020e0da99039" target="_top" xlink:title="Constructs a FileSystemWatcher and optionally starts monitoring given paths.">
<polygon fill="white" stroke="#666666" points="333.5,-57 184.75,-57 184.75,-25 333.5,-25 333.5,-57"/>
<text text-anchor="start" x="192.75" y="-43.5" font-family="Helvetica,sans-Serif" font-size="10.00">AsyncFw::FileSystemWatcher</text>
<text text-anchor="middle" x="259.12" y="-31.5" font-family="Helvetica,sans-Serif" font-size="10.00">::FileSystemWatcher</text>
</a>
</g>
</g>
<!-- Node1&#45;&gt;Node2 -->
<g id="edge1_Node000001_Node000002" class="edge">
<title>Node1&#45;&gt;Node2</title>
<g id="a_edge1_Node000001_Node000002"><a xlink:title=" ">
<path fill="none" stroke="#63b8ff" d="M149.18,-41C156.97,-41 164.93,-41 172.83,-41"/>
<polygon fill="#63b8ff" stroke="#63b8ff" points="172.83,-44.5 182.83,-41 172.83,-37.5 172.83,-44.5"/>
</a>
</g>
</g>
<!-- Node3 -->
<g id="Node000003" class="node">
<title>Node3</title>
<g id="a_Node000003"><a xlink:href="classAsyncFw_1_1AbstractThread.html#af33c5949edb374d673a7a9ac0c81ec32" target="_top" xlink:title="Returns a pointer to the AsyncFw::AbstractThread that manages the currently executing thread.">
<polygon fill="white" stroke="#666666" points="508.88,-82 378.88,-82 378.88,-50 508.88,-50 508.88,-82"/>
<text text-anchor="start" x="386.88" y="-68.5" font-family="Helvetica,sans-Serif" font-size="10.00">AsyncFw::AbstractThread</text>
<text text-anchor="middle" x="443.88" y="-56.5" font-family="Helvetica,sans-Serif" font-size="10.00">::current</text>
</a>
</g>
</g>
<!-- Node2&#45;&gt;Node3 -->
<g id="edge2_Node000002_Node000003" class="edge">
<title>Node2&#45;&gt;Node3</title>
<g id="a_edge2_Node000002_Node000003"><a xlink:title=" ">
<path fill="none" stroke="#63b8ff" d="M333.93,-51.1C344.88,-52.6 356.19,-54.14 367.18,-55.65"/>
<polygon fill="#63b8ff" stroke="#63b8ff" points="366.62,-59.1 377,-56.99 367.56,-52.16 366.62,-59.1"/>
</a>
</g>
</g>
<!-- Node6 -->
<g id="Node000006" class="node">
<title>Node6</title>
<g id="a_Node000006"><a xlink:href="classAsyncFw_1_1FileSystemWatcher.html#ab174c18c8399c50a7818c456e2a51551" target="_top" xlink:title="Obtains a list of all currently registered file paths.">
<polygon fill="white" stroke="#666666" points="518.25,-32 369.5,-32 369.5,0 518.25,0 518.25,-32"/>
<text text-anchor="start" x="377.5" y="-18.5" font-family="Helvetica,sans-Serif" font-size="10.00">AsyncFw::FileSystemWatcher</text>
<text text-anchor="middle" x="443.88" y="-6.5" font-family="Helvetica,sans-Serif" font-size="10.00">::paths</text>
</a>
</g>
</g>
<!-- Node2&#45;&gt;Node6 -->
<g id="edge5_Node000002_Node000006" class="edge">
<title>Node2&#45;&gt;Node6</title>
<g id="a_edge5_Node000002_Node000006"><a xlink:title=" ">
<path fill="none" stroke="#63b8ff" d="M333.93,-30.9C341.81,-29.83 349.87,-28.72 357.86,-27.63"/>
<polygon fill="#63b8ff" stroke="#63b8ff" points="358.16,-31.12 367.59,-26.3 357.21,-24.19 358.16,-31.12"/>
</a>
</g>
</g>
<!-- Node4 -->
<g id="Node000004" class="node">
<title>Node4</title>
<g id="a_Node000004"><a xlink:href="classAsyncFw_1_1AbstractThread.html#a8c9202c90ac101522f26c4260cb01b59" target="_top" xlink:title="Constructs a thread.">
<polygon fill="white" stroke="#666666" points="684.25,-82 554.25,-82 554.25,-50 684.25,-50 684.25,-82"/>
<text text-anchor="start" x="562.25" y="-68.5" font-family="Helvetica,sans-Serif" font-size="10.00">AsyncFw::AbstractThread</text>
<text text-anchor="middle" x="619.25" y="-56.5" font-family="Helvetica,sans-Serif" font-size="10.00">::AbstractThread</text>
</a>
</g>
</g>
<!-- Node3&#45;&gt;Node4 -->
<g id="edge3_Node000003_Node000004" class="edge">
<title>Node3&#45;&gt;Node4</title>
<g id="a_edge3_Node000003_Node000004"><a xlink:title=" ">
<path fill="none" stroke="#63b8ff" d="M508.94,-66C519.82,-66 531.22,-66 542.37,-66"/>
<polygon fill="#63b8ff" stroke="#63b8ff" points="542.36,-69.5 552.36,-66 542.36,-62.5 542.36,-69.5"/>
</a>
</g>
</g>
<!-- Node5 -->
<g id="Node000005" class="node">
<title>Node5</title>
<g id="a_Node000005"><a xlink:href="classAsyncFw_1_1AbstractThread.html#a0cd916251e061aaf3d456575ef052edd" target="_top" xlink:title="Returns name of managed thread.">
<polygon fill="white" stroke="#666666" points="850.25,-82 720.25,-82 720.25,-50 850.25,-50 850.25,-82"/>
<text text-anchor="start" x="728.25" y="-68.5" font-family="Helvetica,sans-Serif" font-size="10.00">AsyncFw::AbstractThread</text>
<text text-anchor="middle" x="785.25" y="-56.5" font-family="Helvetica,sans-Serif" font-size="10.00">::name</text>
</a>
</g>
</g>
<!-- Node4&#45;&gt;Node5 -->
<g id="edge4_Node000004_Node000005" class="edge">
<title>Node4&#45;&gt;Node5</title>
<g id="a_edge4_Node000004_Node000005"><a xlink:title=" ">
<path fill="none" stroke="#63b8ff" d="M684.6,-66C692.46,-66 700.56,-66 708.58,-66"/>
<polygon fill="#63b8ff" stroke="#63b8ff" points="708.31,-69.5 718.31,-66 708.31,-62.5 708.31,-69.5"/>
</a>
</g>
</g>
</g>
</svg>
