<?xml version="1.0" encoding="UTF-8" standalone="no"?>
<!DOCTYPE svg PUBLIC "-//W3C//DTD SVG 1.1//EN"
 "http://www.w3.org/Graphics/SVG/1.1/DTD/svg11.dtd">
<!-- Generated by graphviz version 12.2.1 (20241206.2353)
 -->
<!-- Title: AsyncFw::Log Pages: 1 -->
<svg width="731pt" height="129pt"
 viewBox="0.00 0.00 730.75 129.00" xmlns="http://www.w3.org/2000/svg" xmlns:xlink="http://www.w3.org/1999/xlink">
<g id="graph0" class="graph" transform="scale(1 1) rotate(0) translate(4 125)">
<title>AsyncFw::Log</title>
<!-- Node1 -->
<g id="Node000001" class="node">
<title>Node1</title>
<g id="a_Node000001"><a xlink:title="The Log class.">
<polygon fill="#999999" stroke="#666666" points="722.75,-46 643.75,-46 643.75,-26 722.75,-26 722.75,-46"/>
<text text-anchor="middle" x="683.25" y="-32.5" font-family="Helvetica,sans-Serif" font-size="10.00">AsyncFw::Log</text>
</a>
</g>
</g>
<!-- Node2 -->
<g id="Node000002" class="node">
<title>Node2</title>
<g id="a_Node000002"><a xlink:href="classAsyncFw_1_1Rrd.html" target="_top" xlink:title="The Rrd class.">
<polygon fill="white" stroke="#666666" points="588.38,-74 509.38,-74 509.38,-54 588.38,-54 588.38,-74"/>
<text text-anchor="middle" x="548.88" y="-60.5" font-family="Helvetica,sans-Serif" font-size="10.00">AsyncFw::Rrd</text>
</a>
</g>
</g>
<!-- Node2&#45;&gt;Node1 -->
<g id="edge1_Node000001_Node000002" class="edge">
<title>Node2&#45;&gt;Node1</title>
<g id="a_edge1_Node000001_Node000002"><a xlink:title=" ">
<path fill="none" stroke="#63b8ff" d="M599.78,-53.44C614.19,-50.4 629.69,-47.12 643.33,-44.23"/>
<polygon fill="#63b8ff" stroke="#63b8ff" points="599.06,-50.02 590,-55.51 600.51,-56.87 599.06,-50.02"/>
</a>
</g>
</g>
<!-- Node3 -->
<g id="Node000003" class="node">
<title>Node3</title>
<g id="a_Node000003"><a xlink:href="classAsyncFw_1_1FunctionConnectorProtected.html" target="_top" xlink:title=" ">
<polygon fill="white" stroke="#666666" points="410.75,-83 265,-83 265,-51 410.75,-51 410.75,-83"/>
<text text-anchor="start" x="273" y="-69.5" font-family="Helvetica,sans-Serif" font-size="10.00">AsyncFw::FunctionConnector</text>
<text text-anchor="middle" x="337.88" y="-57.5" font-family="Helvetica,sans-Serif" font-size="10.00">Protected&lt; AsyncFw::Rrd &gt;</text>
</a>
</g>
</g>
<!-- Node3&#45;&gt;Node2 -->
<g id="edge2_Node000002_Node000003" class="edge">
<title>Node3&#45;&gt;Node2</title>
<g id="a_edge2_Node000002_Node000003"><a xlink:title=" ">
<path fill="none" stroke="#9a32cd" stroke-dasharray="5,2" d="M422.44,-65.8C452.41,-65.37 484.78,-64.91 509.13,-64.56"/>
<polygon fill="#9a32cd" stroke="#9a32cd" points="422.56,-62.3 412.61,-65.94 422.66,-69.3 422.56,-62.3"/>
</a>
</g>
<text text-anchor="middle" x="450.88" y="-68.18" font-family="Helvetica,sans-Serif" font-size="10.00" fill="grey"> updated</text>
</g>
<!-- Node4 -->
<g id="Node000004" class="node">
<title>Node4</title>
<g id="a_Node000004"><a xlink:href="classAsyncFw_1_1FunctionConnectorProtected.html" target="_top" xlink:title="Защищенный коннетор, отправитель может быть только один.">
<polygon fill="white" stroke="#666666" points="145.75,-83 0,-83 0,-51 145.75,-51 145.75,-83"/>
<text text-anchor="start" x="8" y="-69.5" font-family="Helvetica,sans-Serif" font-size="10.00">AsyncFw::FunctionConnector</text>
<text text-anchor="middle" x="72.88" y="-57.5" font-family="Helvetica,sans-Serif" font-size="10.00">Protected&lt; F &gt;</text>
</a>
</g>
</g>
<!-- Node4&#45;&gt;Node3 -->
<g id="edge3_Node000003_Node000004" class="edge">
<title>Node4&#45;&gt;Node3</title>
<g id="a_edge3_Node000003_Node000004"><a xlink:title=" ">
<path fill="none" stroke="orange" stroke-dasharray="5,2" d="M157.58,-67C192.07,-67 231.64,-67 264.82,-67"/>
<polygon fill="orange" stroke="orange" points="157.6,-63.5 147.6,-67 157.6,-70.5 157.6,-63.5"/>
</a>
</g>
<text text-anchor="middle" x="205.38" y="-69.5" font-family="Helvetica,sans-Serif" font-size="10.00" fill="grey"> &lt; AsyncFw::Rrd &gt;</text>
</g>
<!-- Node5 -->
<g id="Node000005" class="node">
<title>Node5</title>
<g id="a_Node000005"><a xlink:href="classAsyncFw_1_1AbstractThread.html" target="_top" xlink:title="The AbstractThread class provides the base functionality for thread management.">
<polygon fill="white" stroke="#666666" points="402.88,-20 272.88,-20 272.88,0 402.88,0 402.88,-20"/>
<text text-anchor="middle" x="337.88" y="-6.5" font-family="Helvetica,sans-Serif" font-size="10.00">AsyncFw::AbstractThread</text>
</a>
</g>
</g>
<!-- Node5&#45;&gt;Node2 -->
<g id="edge4_Node000002_Node000005" class="edge">
<title>Node5&#45;&gt;Node2</title>
<g id="a_edge4_Node000002_Node000005"><a xlink:title=" ">
<path fill="none" stroke="#9a32cd" stroke-dasharray="5,2" d="M390.16,-23.25C426.9,-32.74 475.6,-45.33 509.11,-53.99"/>
<polygon fill="#9a32cd" stroke="#9a32cd" points="391.2,-19.9 380.64,-20.79 389.44,-26.68 391.2,-19.9"/>
</a>
</g>
<text text-anchor="middle" x="450.88" y="-45.92" font-family="Helvetica,sans-Serif" font-size="10.00" fill="grey"> thread_</text>
</g>
<!-- Node7 -->
<g id="Node000007" class="node">
<title>Node7</title>
<g id="a_Node000007"><a xlink:href="classAsyncFw_1_1AbstractLog.html" target="_top" xlink:title="The AbstractLog class provides the base functionality for logger.">
<polygon fill="white" stroke="#666666" points="606.75,-28 491,-28 491,-8 606.75,-8 606.75,-28"/>
<text text-anchor="middle" x="548.88" y="-14.5" font-family="Helvetica,sans-Serif" font-size="10.00">AsyncFw::AbstractLog</text>
</a>
</g>
</g>
<!-- Node5&#45;&gt;Node7 -->
<g id="edge7_Node000007_Node000005" class="edge">
<title>Node5&#45;&gt;Node7</title>
<g id="a_edge7_Node000007_Node000005"><a xlink:title=" ">
<path fill="none" stroke="#9a32cd" stroke-dasharray="5,2" d="M414.49,-2.06C433.61,-1.15 454.08,-1.12 473,-3 482.76,-3.97 493.14,-5.63 502.96,-7.5"/>
<polygon fill="#9a32cd" stroke="#9a32cd" points="414.39,1.44 404.61,-2.63 414.79,-5.55 414.39,1.44"/>
</a>
</g>
<text text-anchor="middle" x="450.88" y="-5.5" font-family="Helvetica,sans-Serif" font-size="10.00" fill="grey"> thread_</text>
</g>
<!-- Node6 -->
<g id="Node000006" class="node">
<title>Node6</title>
<g id="a_Node000006"><a xlink:href="classAsyncFw_1_1DataArrayList.html" target="_top" xlink:title="The DataArrayList class.">
<polygon fill="white" stroke="#666666" points="399.5,-121 276.25,-121 276.25,-101 399.5,-101 399.5,-121"/>
<text text-anchor="middle" x="337.88" y="-107.5" font-family="Helvetica,sans-Serif" font-size="10.00">AsyncFw::DataArrayList</text>
</a>
</g>
</g>
<!-- Node6&#45;&gt;Node2 -->
<g id="edge5_Node000002_Node000006" class="edge">
<title>Node6&#45;&gt;Node2</title>
<g id="a_edge5_Node000002_Node000006"><a xlink:title=" ">
<path fill="none" stroke="#9a32cd" stroke-dasharray="5,2" d="M399.62,-98.18C422.63,-93.24 449.05,-87.47 473,-82 484.73,-79.32 497.47,-76.3 509.05,-73.51"/>
<polygon fill="#9a32cd" stroke="#9a32cd" points="399.14,-94.7 390.1,-100.21 400.61,-101.54 399.14,-94.7"/>
</a>
</g>
<text text-anchor="middle" x="450.88" y="-94.35" font-family="Helvetica,sans-Serif" font-size="10.00" fill="grey"> dataBase</text>
</g>
<!-- Node7&#45;&gt;Node1 -->
<g id="edge6_Node000001_Node000007" class="edge">
<title>Node7&#45;&gt;Node1</title>
<g id="a_edge6_Node000001_Node000007"><a xlink:title=" ">
<path fill="none" stroke="#63b8ff" d="M618.47,-27.33C627.09,-28.5 635.65,-29.66 643.57,-30.74"/>
<polygon fill="#63b8ff" stroke="#63b8ff" points="619.05,-23.87 608.67,-25.99 618.1,-30.81 619.05,-23.87"/>
</a>
</g>
</g>
</g>
</svg>
