<?xml version="1.0" encoding="UTF-8" standalone="no"?>
<!DOCTYPE svg PUBLIC "-//W3C//DTD SVG 1.1//EN"
 "http://www.w3.org/Graphics/SVG/1.1/DTD/svg11.dtd">
<!-- Generated by graphviz version 14.1.3 (20260303.0454)
 -->
<!-- Title: AsyncFw::Cryptor::encrypt Pages: 1 -->
<svg width="285pt" height="52pt"
 viewBox="0.00 0.00 285.00 52.00" xmlns="http://www.w3.org/2000/svg" xmlns:xlink="http://www.w3.org/1999/xlink">
<g id="graph0" class="graph" transform="scale(1 1) rotate(0) translate(4 48)">
<title>AsyncFw::Cryptor::encrypt</title>
<!-- Node1 -->
<g id="Node000001" class="node">
<title>Node1</title>
<g id="a_Node000001"><a xlink:title="Type&#45;safely encrypts raw data payload into a secure ciphertext buffer.">
<polygon fill="#999999" stroke="#666666" points="133.75,-26 0,-26 0,-6 133.75,-6 133.75,-26"/>
<text xml:space="preserve" text-anchor="middle" x="66.88" y="-12.5" font-family="Helvetica,sans-Serif" font-size="10.00">AsyncFw::Cryptor::encrypt</text>
</a>
</g>
</g>
<!-- Node1&#45;&gt;Node1 -->
<g id="edge1_Node000001_Node000001" class="edge">
<title>Node1&#45;&gt;Node1</title>
<g id="a_edge1_Node000001_Node000001"><a xlink:title=" ">
<path fill="none" stroke="#63b8ff" d="M41.99,-26.34C31.35,-34.98 39.65,-44 66.88,-44 81.76,-44 90.99,-41.3 94.56,-37.44"/>
<polygon fill="#63b8ff" stroke="#63b8ff" points="97.97,-36.65 92.13,-27.81 91.18,-38.36 97.97,-36.65"/>
</a>
</g>
</g>
<!-- Node2 -->
<g id="Node000002" class="node">
<title>Node2</title>
<g id="a_Node000002"><a xlink:href="classAsyncFw_1_1DataArray.html#a5406261e5730adfa64e4d0bbd0083e31" target="_top" xlink:title="Creates a lightweight, non&#45;allocating view slicing a sub&#45;region of this byte array.">
<polygon fill="white" stroke="#666666" points="277.25,-32 169.75,-32 169.75,0 277.25,0 277.25,-32"/>
<text xml:space="preserve" text-anchor="start" x="177.75" y="-18.5" font-family="Helvetica,sans-Serif" font-size="10.00">AsyncFw::DataArray</text>
<text xml:space="preserve" text-anchor="middle" x="223.5" y="-6.5" font-family="Helvetica,sans-Serif" font-size="10.00">::view</text>
</a>
</g>
</g>
<!-- Node1&#45;&gt;Node2 -->
<g id="edge2_Node000001_Node000002" class="edge">
<title>Node1&#45;&gt;Node2</title>
<g id="a_edge2_Node000001_Node000002"><a xlink:title=" ">
<path fill="none" stroke="#63b8ff" d="M133.9,-16C141.84,-16 149.94,-16 157.87,-16"/>
<polygon fill="#63b8ff" stroke="#63b8ff" points="157.79,-19.5 167.79,-16 157.79,-12.5 157.79,-19.5"/>
</a>
</g>
</g>
</g>
</svg>
