<?xml version="1.0" encoding="UTF-8" standalone="no"?>
<!DOCTYPE svg PUBLIC "-//W3C//DTD SVG 1.1//EN"
 "http://www.w3.org/Graphics/SVG/1.1/DTD/svg11.dtd">
<!-- Generated by graphviz version 14.1.3 (20260303.0454)
 -->
<!-- Title: AsyncFw::DataArrayTcpClient Pages: 1 -->
<svg width="1066pt" height="167pt"
 viewBox="0.00 0.00 1066.00 167.00" xmlns="http://www.w3.org/2000/svg" xmlns:xlink="http://www.w3.org/1999/xlink">
<g id="graph0" class="graph" transform="scale(1 1) rotate(0) translate(4 162.85)">
<title>AsyncFw::DataArrayTcpClient</title>
<!-- Node1 -->
<g id="Node000001" class="node">
<title>Node1</title>
<g id="a_Node000001"><a xlink:title="An asynchronous TCP client class managing outgoing server connections and synchronous exchanges....">
<polygon fill="#999999" stroke="#666666" points="1057.5,-49.51 909.5,-49.51 909.5,-29.51 1057.5,-29.51 1057.5,-49.51"/>
<text xml:space="preserve" text-anchor="middle" x="983.5" y="-36.01" font-family="Helvetica,sans-Serif" font-size="10.00">AsyncFw::DataArrayTcpClient</text>
</a>
</g>
</g>
<!-- Node2 -->
<g id="Node000002" class="node">
<title>Node2</title>
<g id="a_Node000002"><a xlink:href="classAsyncFw_1_1DataArrayAbstractTcp.html" target="_top" xlink:title="Abstract base class implementing a multi&#45;threaded TCP pool for socket and packet management.">
<polygon fill="white" stroke="#666666" points="872.5,-80.51 713.25,-80.51 713.25,-60.51 872.5,-60.51 872.5,-80.51"/>
<text xml:space="preserve" text-anchor="middle" x="792.88" y="-67.01" font-family="Helvetica,sans-Serif" font-size="10.00">AsyncFw::DataArrayAbstractTcp</text>
</a>
</g>
</g>
<!-- Node2&#45;&gt;Node1 -->
<g id="edge1_Node000001_Node000002" class="edge">
<title>Node2&#45;&gt;Node1</title>
<g id="a_edge1_Node000001_Node000002"><a xlink:title=" ">
<path fill="none" stroke="#63b8ff" d="M868.98,-58.17C885.45,-55.46 902.73,-52.62 918.71,-49.99"/>
<polygon fill="#63b8ff" stroke="#63b8ff" points="868.53,-54.69 859.23,-59.77 869.66,-61.6 868.53,-54.69"/>
</a>
</g>
</g>
<!-- Node3 -->
<g id="Node000003" class="node">
<title>Node3</title>
<g id="a_Node000003"><a xlink:href="classAsyncFw_1_1AbstractThreadPool.html" target="_top" xlink:title="Abstract base class for creating and managing thread pools.">
<polygon fill="white" stroke="#666666" points="476,-144.51 326.5,-144.51 326.5,-124.51 476,-124.51 476,-144.51"/>
<text xml:space="preserve" text-anchor="middle" x="401.25" y="-131.01" font-family="Helvetica,sans-Serif" font-size="10.00">AsyncFw::AbstractThreadPool</text>
</a>
</g>
</g>
<!-- Node3&#45;&gt;Node2 -->
<g id="edge2_Node000002_Node000003" class="edge">
<title>Node3&#45;&gt;Node2</title>
<g id="a_edge2_Node000002_Node000003"><a xlink:title=" ">
<path fill="none" stroke="#63b8ff" d="M487.34,-124.17C545.98,-116.6 625.59,-105.41 695.25,-92.51 713.01,-89.22 732.46,-84.93 749.22,-81.01"/>
<polygon fill="#63b8ff" stroke="#63b8ff" points="487.25,-120.66 477.78,-125.4 488.14,-127.6 487.25,-120.66"/>
</a>
</g>
</g>
<!-- Node4 -->
<g id="Node000004" class="node">
<title>Node4</title>
<g id="a_Node000004"><a xlink:href="classAsyncFw_1_1AbstractThread.html" target="_top" xlink:title="The AbstractThread class provides the base functionality for thread management.">
<polygon fill="white" stroke="#666666" points="137.88,-153.51 7.88,-153.51 7.88,-133.51 137.88,-133.51 137.88,-153.51"/>
<text xml:space="preserve" text-anchor="middle" x="72.88" y="-140.01" font-family="Helvetica,sans-Serif" font-size="10.00">AsyncFw::AbstractThread</text>
</a>
</g>
</g>
<!-- Node4&#45;&gt;Node3 -->
<g id="edge3_Node000003_Node000004" class="edge">
<title>Node4&#45;&gt;Node3</title>
<g id="a_edge3_Node000003_Node000004"><a xlink:title=" ">
<path fill="none" stroke="#9a32cd" stroke-dasharray="5,2" d="M149.75,-141.42C202.88,-139.95 273.49,-138 326.21,-136.55"/>
<polygon fill="#9a32cd" stroke="#9a32cd" points="149.77,-137.91 139.87,-141.69 149.96,-144.91 149.77,-137.91"/>
</a>
</g>
<text xml:space="preserve" text-anchor="start" x="214" y="-146.1" font-family="Helvetica,sans-Serif" font-size="10.00" fill="grey">thread_</text>
</g>
<!-- Node5 -->
<g id="Node000005" class="node">
<title>Node5</title>
<g id="a_Node000005"><a xlink:href="classAsyncFw_1_1FunctionConnector.html" target="_top" xlink:title=" ">
<polygon fill="white" stroke="#666666" points="488,-98.51 314.5,-98.51 314.5,-42.51 488,-42.51 488,-98.51"/>
<text xml:space="preserve" text-anchor="start" x="322.5" y="-85.01" font-family="Helvetica,sans-Serif" font-size="10.00">AsyncFw::FunctionConnector</text>
<text xml:space="preserve" text-anchor="start" x="322.5" y="-73.01" font-family="Helvetica,sans-Serif" font-size="10.00">&lt; const AsyncFw::DataArraySocket</text>
<text xml:space="preserve" text-anchor="start" x="322.5" y="-61.01" font-family="Helvetica,sans-Serif" font-size="10.00"> *, const AsyncFw::DataArray</text>
<text xml:space="preserve" text-anchor="middle" x="401.25" y="-49.01" font-family="Helvetica,sans-Serif" font-size="10.00"> *, uint32_t &gt;</text>
</a>
</g>
</g>
<!-- Node5&#45;&gt;Node2 -->
<g id="edge4_Node000002_Node000005" class="edge">
<title>Node5&#45;&gt;Node2</title>
<g id="a_edge4_Node000002_Node000005"><a xlink:title=" ">
<path fill="none" stroke="#9a32cd" stroke-dasharray="5,2" d="M499.47,-70.51C565.39,-70.51 651.42,-70.51 713.06,-70.51"/>
<polygon fill="#9a32cd" stroke="#9a32cd" points="499.75,-67.01 489.75,-70.51 499.75,-74.01 499.75,-67.01"/>
</a>
</g>
<text xml:space="preserve" text-anchor="start" x="582.25" y="-75.76" font-family="Helvetica,sans-Serif" font-size="10.00" fill="grey">received</text>
</g>
<!-- Node6 -->
<g id="Node000006" class="node">
<title>Node6</title>
<g id="a_Node000006"><a xlink:href="classAsyncFw_1_1FunctionConnector.html" target="_top" xlink:title="Provides a thread&#45;safe, publisher&#45;subscriber mechanism to establish sender&#45;to&#45;receivers connections.">
<polygon fill="white" stroke="#666666" points="145.75,-58.51 0,-58.51 0,-26.51 145.75,-26.51 145.75,-58.51"/>
<text xml:space="preserve" text-anchor="start" x="8" y="-45.01" font-family="Helvetica,sans-Serif" font-size="10.00">AsyncFw::FunctionConnector</text>
<text xml:space="preserve" text-anchor="middle" x="72.88" y="-33.01" font-family="Helvetica,sans-Serif" font-size="10.00">&lt; Args &gt;</text>
</a>
</g>
</g>
<!-- Node6&#45;&gt;Node5 -->
<g id="edge5_Node000005_Node000006" class="edge">
<title>Node6&#45;&gt;Node5</title>
<g id="a_edge5_Node000005_Node000006"><a xlink:title=" ">
<path fill="none" stroke="orange" stroke-dasharray="5,2" d="M157.22,-49.66C205.31,-53.79 265.68,-58.96 314.22,-63.13"/>
<polygon fill="orange" stroke="orange" points="157.67,-46.19 147.41,-48.82 157.08,-53.16 157.67,-46.19"/>
</a>
</g>
<text xml:space="preserve" text-anchor="start" x="166.75" y="-98.7" font-family="Helvetica,sans-Serif" font-size="10.00" fill="grey">&lt; const AsyncFw::DataArray</text>
<text xml:space="preserve" text-anchor="start" x="166.75" y="-82.7" font-family="Helvetica,sans-Serif" font-size="10.00" fill="grey">  Socket *, const AsyncFw</text>
<text xml:space="preserve" text-anchor="start" x="166.75" y="-66.7" font-family="Helvetica,sans-Serif" font-size="10.00" fill="grey">  ::DataArray *, uint32_t &gt;</text>
</g>
<!-- Node7 -->
<g id="Node000007" class="node">
<title>Node7</title>
<g id="a_Node000007"><a xlink:href="classAsyncFw_1_1FunctionConnector.html" target="_top" xlink:title=" ">
<polygon fill="white" stroke="#666666" points="695.25,-34.51 506,-34.51 506,-2.51 695.25,-2.51 695.25,-34.51"/>
<text xml:space="preserve" text-anchor="start" x="514" y="-21.01" font-family="Helvetica,sans-Serif" font-size="10.00">AsyncFw::FunctionConnector</text>
<text xml:space="preserve" text-anchor="middle" x="600.62" y="-9.01" font-family="Helvetica,sans-Serif" font-size="10.00">&lt; const AsyncFw::DataArraySocket * &gt;</text>
</a>
</g>
</g>
<!-- Node6&#45;&gt;Node7 -->
<g id="edge7_Node000007_Node000006" class="edge">
<title>Node6&#45;&gt;Node7</title>
<g id="a_edge7_Node000007_Node000006"><a xlink:title=" ">
<path fill="none" stroke="orange" stroke-dasharray="5,2" d="M124.65,-22.41C137.23,-18.31 150.82,-14.61 163.75,-12.51 280.47,6.46 417.08,0.04 505.83,-7.85"/>
<polygon fill="orange" stroke="orange" points="123.65,-19.05 115.32,-25.59 125.92,-25.67 123.65,-19.05"/>
</a>
</g>
<text xml:space="preserve" text-anchor="start" x="166.75" y="-33.76" font-family="Helvetica,sans-Serif" font-size="10.00" fill="grey">&lt; const AsyncFw::DataArray</text>
<text xml:space="preserve" text-anchor="start" x="166.75" y="-17.76" font-family="Helvetica,sans-Serif" font-size="10.00" fill="grey">  Socket * &gt;</text>
</g>
<!-- Node7&#45;&gt;Node1 -->
<g id="edge6_Node000001_Node000007" class="edge">
<title>Node7&#45;&gt;Node1</title>
<g id="a_edge6_Node000001_Node000007"><a xlink:title=" ">
<path fill="none" stroke="#9a32cd" stroke-dasharray="5,2" d="M706.69,-24.3C771.03,-27.85 851.77,-32.3 909.23,-35.47"/>
<polygon fill="#9a32cd" stroke="#9a32cd" points="706.97,-20.81 696.8,-23.76 706.59,-27.8 706.97,-20.81"/>
</a>
</g>
<text xml:space="preserve" text-anchor="start" x="738.12" y="-38.69" font-family="Helvetica,sans-Serif" font-size="10.00" fill="grey">connectionStateChanged</text>
</g>
</g>
</svg>
