<?xml version="1.0" encoding="UTF-8" standalone="no"?>
<!DOCTYPE svg PUBLIC "-//W3C//DTD SVG 1.1//EN"
 "http://www.w3.org/Graphics/SVG/1.1/DTD/svg11.dtd">
<!-- Generated by graphviz version 12.2.1 (20241206.2353)
 -->
<!-- Title: AsyncFw::AbstractSocket Pages: 1 -->
<svg width="290pt" height="196pt"
 viewBox="0.00 0.00 290.25 196.00" xmlns="http://www.w3.org/2000/svg" xmlns:xlink="http://www.w3.org/1999/xlink">
<g id="graph0" class="graph" transform="scale(1 1) rotate(0) translate(4 192)">
<title>AsyncFw::AbstractSocket</title>
<!-- Node1 -->
<g id="Node000001" class="node">
<title>Node1</title>
<g id="a_Node000001"><a xlink:title="The AbstractSocket class provides the base functionality for socket.">
<polygon fill="#999999" stroke="#666666" points="212.5,-132 81.75,-132 81.75,-112 212.5,-112 212.5,-132"/>
<text text-anchor="middle" x="147.12" y="-118.5" font-family="Helvetica,sans-Serif" font-size="10.00">AsyncFw::AbstractSocket</text>
</a>
</g>
</g>
<!-- Node3 -->
<g id="Node000003" class="node">
<title>Node3</title>
<g id="a_Node000003"><a xlink:href="classAsyncFw_1_1AbstractTlsSocket.html" target="_top" xlink:title="The AbstractTlsSocket class provides the base functionality for TLS encrypted socket.">
<polygon fill="white" stroke="#666666" points="144.25,-76 0,-76 0,-56 144.25,-56 144.25,-76"/>
<text text-anchor="middle" x="72.12" y="-62.5" font-family="Helvetica,sans-Serif" font-size="10.00">AsyncFw::AbstractTlsSocket</text>
</a>
</g>
</g>
<!-- Node1&#45;&gt;Node3 -->
<g id="edge2_Node000001_Node000003" class="edge">
<title>Node1&#45;&gt;Node3</title>
<g id="a_edge2_Node000001_Node000003"><a xlink:title=" ">
<path fill="none" stroke="#63b8ff" d="M124.9,-105C112.01,-95.72 96.22,-84.35 85.29,-76.48"/>
<polygon fill="#63b8ff" stroke="#63b8ff" points="122.67,-107.71 132.83,-110.71 126.76,-102.03 122.67,-107.71"/>
</a>
</g>
</g>
<!-- Node5 -->
<g id="Node000005" class="node">
<title>Node5</title>
<g id="a_Node000005"><a xlink:href="classAsyncFw_1_1ListenSocket.html" target="_top" xlink:title="The ListenSocket class.">
<polygon fill="white" stroke="#666666" points="282.25,-76 162,-76 162,-56 282.25,-56 282.25,-76"/>
<text text-anchor="middle" x="222.12" y="-62.5" font-family="Helvetica,sans-Serif" font-size="10.00">AsyncFw::ListenSocket</text>
</a>
</g>
</g>
<!-- Node1&#45;&gt;Node5 -->
<g id="edge4_Node000001_Node000005" class="edge">
<title>Node1&#45;&gt;Node5</title>
<g id="a_edge4_Node000001_Node000005"><a xlink:title=" ">
<path fill="none" stroke="#63b8ff" d="M169.35,-105C182.24,-95.72 198.03,-84.35 208.96,-76.48"/>
<polygon fill="#63b8ff" stroke="#63b8ff" points="167.49,-102.03 161.42,-110.71 171.58,-107.71 167.49,-102.03"/>
</a>
</g>
</g>
<!-- Node2 -->
<g id="Node000002" class="node">
<title>Node2</title>
<g id="a_Node000002"><a xlink:href="structAsyncFw_1_1AnyData.html" target="_top" xlink:title="The AnyData class.">
<polygon fill="white" stroke="#666666" points="197.88,-188 96.38,-188 96.38,-168 197.88,-168 197.88,-188"/>
<text text-anchor="middle" x="147.12" y="-174.5" font-family="Helvetica,sans-Serif" font-size="10.00">AsyncFw::AnyData</text>
</a>
</g>
</g>
<!-- Node2&#45;&gt;Node1 -->
<g id="edge1_Node000001_Node000002" class="edge">
<title>Node2&#45;&gt;Node1</title>
<g id="a_edge1_Node000001_Node000002"><a xlink:title=" ">
<path fill="none" stroke="#63b8ff" d="M147.12,-156.13C147.12,-147.9 147.12,-138.85 147.12,-132.3"/>
<polygon fill="#63b8ff" stroke="#63b8ff" points="143.63,-156.08 147.13,-166.08 150.63,-156.08 143.63,-156.08"/>
</a>
</g>
</g>
<!-- Node4 -->
<g id="Node000004" class="node">
<title>Node4</title>
<g id="a_Node000004"><a xlink:href="classAsyncFw_1_1HttpSocket.html" target="_top" xlink:title="The HttpSocket class.">
<polygon fill="white" stroke="#666666" points="128.5,-20 15.75,-20 15.75,0 128.5,0 128.5,-20"/>
<text text-anchor="middle" x="72.12" y="-6.5" font-family="Helvetica,sans-Serif" font-size="10.00">AsyncFw::HttpSocket</text>
</a>
</g>
</g>
<!-- Node3&#45;&gt;Node4 -->
<g id="edge3_Node000003_Node000004" class="edge">
<title>Node3&#45;&gt;Node4</title>
<g id="a_edge3_Node000003_Node000004"><a xlink:title=" ">
<path fill="none" stroke="#63b8ff" d="M72.12,-44.13C72.12,-35.9 72.12,-26.85 72.12,-20.3"/>
<polygon fill="#63b8ff" stroke="#63b8ff" points="68.63,-44.08 72.13,-54.08 75.63,-44.08 68.63,-44.08"/>
</a>
</g>
</g>
</g>
</svg>
