<?xml version="1.0" encoding="UTF-8" standalone="no"?>
<!DOCTYPE svg PUBLIC "-//W3C//DTD SVG 1.1//EN"
 "http://www.w3.org/Graphics/SVG/1.1/DTD/svg11.dtd">
<!-- Generated by graphviz version 14.1.3 (20260303.0454)
 -->
<!-- Title: AsyncFw::File::tellg Pages: 1 -->
<svg width="251pt" height="46pt"
 viewBox="0.00 0.00 251.00 46.00" xmlns="http://www.w3.org/2000/svg" xmlns:xlink="http://www.w3.org/1999/xlink">
<g id="graph0" class="graph" transform="scale(1 1) rotate(0) translate(4 42)">
<title>AsyncFw::File::tellg</title>
<!-- Node1 -->
<g id="Node000001" class="node">
<title>Node1</title>
<g id="a_Node000001"><a xlink:title="Returns the current read position in the file (stream get).">
<polygon fill="#999999" stroke="#666666" points="242.75,-20 139.75,-20 139.75,0 242.75,0 242.75,-20"/>
<text xml:space="preserve" text-anchor="middle" x="191.25" y="-6.5" font-family="Helvetica,sans-Serif" font-size="10.00">AsyncFw::File::tellg</text>
</a>
</g>
</g>
<!-- Node2 -->
<g id="Node000002" class="node">
<title>Node2</title>
<g id="a_Node000002"><a xlink:href="classAsyncFw_1_1File.html#a7e940f76fe48e35d1273f06e376541eb" target="_top" xlink:title="Reads data from the file into a DataArray container.">
<polygon fill="white" stroke="#666666" points="103.75,-20 0,-20 0,0 103.75,0 103.75,-20"/>
<text xml:space="preserve" text-anchor="middle" x="51.88" y="-6.5" font-family="Helvetica,sans-Serif" font-size="10.00">AsyncFw::File::read</text>
</a>
</g>
</g>
<!-- Node1&#45;&gt;Node2 -->
<g id="edge1_Node000001_Node000002" class="edge">
<title>Node1&#45;&gt;Node2</title>
<g id="a_edge1_Node000001_Node000002"><a xlink:title=" ">
<path fill="none" stroke="#63b8ff" d="M128.14,-10C120.03,-10 111.79,-10 103.89,-10"/>
<polygon fill="#63b8ff" stroke="#63b8ff" points="127.97,-13.5 137.97,-10 127.97,-6.5 127.97,-13.5"/>
</a>
</g>
</g>
<!-- Node2&#45;&gt;Node2 -->
<g id="edge2_Node000002_Node000002" class="edge">
<title>Node2&#45;&gt;Node2</title>
<g id="a_edge2_Node000002_Node000002"><a xlink:title=" ">
<path fill="none" stroke="#63b8ff" d="M76.51,-31.44C73.34,-35.3 65.12,-38 51.88,-38 27.65,-38 20.27,-28.98 29.73,-20.34"/>
<polygon fill="#63b8ff" stroke="#63b8ff" points="79.95,-30.81 74.35,-21.82 73.12,-32.34 79.95,-30.81"/>
</a>
</g>
</g>
</g>
</svg>
