<?xml version="1.0" encoding="UTF-8" standalone="no"?>
<!DOCTYPE svg PUBLIC "-//W3C//DTD SVG 1.1//EN"
 "http://www.w3.org/Graphics/SVG/1.1/DTD/svg11.dtd">
<!-- Generated by graphviz version 12.2.1 (20241206.2353)
 -->
<!-- Title: AsyncFw::AbstractThread::AbstractThread Pages: 1 -->
<svg width="789pt" height="196pt"
 viewBox="0.00 0.00 788.50 196.00" xmlns="http://www.w3.org/2000/svg" xmlns:xlink="http://www.w3.org/1999/xlink">
<g id="graph0" class="graph" transform="scale(1 1) rotate(0) translate(4 192)">
<title>AsyncFw::AbstractThread::AbstractThread</title>
<!-- Node1 -->
<g id="Node000001" class="node">
<title>Node1</title>
<g id="a_Node000001"><a xlink:title="Constructs a thread.">
<polygon fill="#999999" stroke="#666666" points="780.5,-154 650.5,-154 650.5,-122 780.5,-122 780.5,-154"/>
<text text-anchor="start" x="658.5" y="-140.5" font-family="Helvetica,sans-Serif" font-size="10.00">AsyncFw::AbstractThread</text>
<text text-anchor="middle" x="715.5" y="-128.5" font-family="Helvetica,sans-Serif" font-size="10.00">::AbstractThread</text>
</a>
</g>
</g>
<!-- Node1&#45;&gt;Node1 -->
<g id="edge1_Node000001_Node000001" class="edge">
<title>Node1&#45;&gt;Node1</title>
<g id="a_edge1_Node000001_Node000001"><a xlink:title=" ">
<path fill="none" stroke="#63b8ff" d="M743.16,-165.71C738.55,-169.48 729.33,-172 715.5,-172 690.21,-172 680.33,-163.58 685.86,-154.44"/>
<polygon fill="#63b8ff" stroke="#63b8ff" points="746.6,-166.39 744.87,-155.93 739.7,-165.18 746.6,-166.39"/>
</a>
</g>
</g>
<!-- Node2 -->
<g id="Node000002" class="node">
<title>Node2</title>
<g id="a_Node000002"><a xlink:href="classAsyncFw_1_1AbstractThread.html#a09cdd1972b9416a7ddb2a1921f36938c" target="_top" xlink:title="Returns a pointer to the AsyncFw::AbstractThread that manages the currently executing thread.">
<polygon fill="white" stroke="#666666" points="614.5,-132 484.5,-132 484.5,-100 614.5,-100 614.5,-132"/>
<text text-anchor="start" x="492.5" y="-118.5" font-family="Helvetica,sans-Serif" font-size="10.00">AsyncFw::AbstractThread</text>
<text text-anchor="middle" x="549.5" y="-106.5" font-family="Helvetica,sans-Serif" font-size="10.00">::current</text>
</a>
</g>
</g>
<!-- Node1&#45;&gt;Node2 -->
<g id="edge2_Node000001_Node000002" class="edge">
<title>Node1&#45;&gt;Node2</title>
<g id="a_edge2_Node000001_Node000002"><a xlink:title=" ">
<path fill="none" stroke="#63b8ff" d="M638.91,-127.86C630.9,-126.78 622.8,-125.7 614.93,-124.64"/>
<polygon fill="#63b8ff" stroke="#63b8ff" points="638.28,-131.31 648.65,-129.17 639.21,-124.37 638.28,-131.31"/>
</a>
</g>
</g>
<!-- Node10 -->
<g id="Node000010" class="node">
<title>Node10</title>
<g id="a_Node000010"><a xlink:href="classAsyncFw_1_1Thread.html#afc5e422090767dd84020381fb9a4d490" target="_top" xlink:title="Constructs a thread.">
<polygon fill="white" stroke="#666666" points="614.12,-170 484.88,-170 484.88,-150 614.12,-150 614.12,-170"/>
<text text-anchor="middle" x="549.5" y="-156.5" font-family="Helvetica,sans-Serif" font-size="10.00">AsyncFw::Thread::Thread</text>
</a>
</g>
</g>
<!-- Node1&#45;&gt;Node10 -->
<g id="edge10_Node000001_Node000010" class="edge">
<title>Node1&#45;&gt;Node10</title>
<g id="a_edge10_Node000001_Node000010"><a xlink:title=" ">
<path fill="none" stroke="#63b8ff" d="M639.02,-148.13C630.78,-149.23 622.46,-150.35 614.39,-151.43"/>
<polygon fill="#63b8ff" stroke="#63b8ff" points="639.21,-151.63 648.65,-146.83 638.28,-144.69 639.21,-151.63"/>
</a>
</g>
</g>
<!-- Node3 -->
<g id="Node000003" class="node">
<title>Node3</title>
<g id="a_Node000003"><a xlink:href="classAsyncFw_1_1ThreadPool.html#a9919894e586310a7ea5b780845376e17" target="_top" xlink:title="Asynchronously invokes a void function in the target thread, and executes a result callback in the ca...">
<polygon fill="white" stroke="#666666" points="438.38,-132 325.62,-132 325.62,-100 438.38,-100 438.38,-132"/>
<text text-anchor="start" x="333.62" y="-118.5" font-family="Helvetica,sans-Serif" font-size="10.00">AsyncFw::ThreadPool</text>
<text text-anchor="middle" x="382" y="-106.5" font-family="Helvetica,sans-Serif" font-size="10.00">::async</text>
</a>
</g>
</g>
<!-- Node2&#45;&gt;Node3 -->
<g id="edge3_Node000002_Node000003" class="edge">
<title>Node2&#45;&gt;Node3</title>
<g id="a_edge3_Node000002_Node000003"><a xlink:title=" ">
<path fill="none" stroke="#63b8ff" d="M472.68,-116C461.23,-116 449.61,-116 438.69,-116"/>
<polygon fill="#63b8ff" stroke="#63b8ff" points="472.53,-119.5 482.53,-116 472.53,-112.5 472.53,-119.5"/>
</a>
</g>
</g>
<!-- Node4 -->
<g id="Node000004" class="node">
<title>Node4</title>
<g id="a_Node000004"><a xlink:href="classAsyncFw_1_1Thread.html#a0a3bd6a54db28f73ff59cfea6a40b07a" target="_top" xlink:title="Returns a pointer to the AsyncFw::Thread that manages the currently executing thread.">
<polygon fill="white" stroke="#666666" points="446.62,-170 317.38,-170 317.38,-150 446.62,-150 446.62,-170"/>
<text text-anchor="middle" x="382" y="-156.5" font-family="Helvetica,sans-Serif" font-size="10.00">AsyncFw::Thread::current</text>
</a>
</g>
</g>
<!-- Node2&#45;&gt;Node4 -->
<g id="edge4_Node000002_Node000004" class="edge">
<title>Node2&#45;&gt;Node4</title>
<g id="a_edge4_Node000002_Node000004"><a xlink:title=" ">
<path fill="none" stroke="#63b8ff" d="M475.8,-135.33C457.33,-140.24 438.18,-145.33 422.1,-149.6"/>
<polygon fill="#63b8ff" stroke="#63b8ff" points="476.65,-138.72 485.41,-132.77 474.85,-131.96 476.65,-138.72"/>
</a>
</g>
</g>
<!-- Node7 -->
<g id="Node000007" class="node">
<title>Node7</title>
<g id="a_Node000007"><a xlink:href="classAsyncFw_1_1SystemProcess.html#acf60a585a89304fdb3580e9add06d155" target="_top" xlink:title="False Управляет вводом данных в запущенный процесс. Это режим ввода по умолчанию для канала ввода">
<polygon fill="white" stroke="#666666" points="448.5,-82 315.5,-82 315.5,-50 448.5,-50 448.5,-82"/>
<text text-anchor="start" x="323.5" y="-68.5" font-family="Helvetica,sans-Serif" font-size="10.00">AsyncFw::SystemProcess</text>
<text text-anchor="middle" x="382" y="-56.5" font-family="Helvetica,sans-Serif" font-size="10.00">::SystemProcess</text>
</a>
</g>
</g>
<!-- Node2&#45;&gt;Node7 -->
<g id="edge7_Node000002_Node000007" class="edge">
<title>Node2&#45;&gt;Node7</title>
<g id="a_edge7_Node000002_Node000007"><a xlink:title=" ">
<path fill="none" stroke="#63b8ff" d="M483.44,-96.34C468.27,-91.76 452.26,-86.92 437.6,-82.49"/>
<polygon fill="#63b8ff" stroke="#63b8ff" points="482.28,-99.65 492.86,-99.19 484.3,-92.95 482.28,-99.65"/>
</a>
</g>
</g>
<!-- Node8 -->
<g id="Node000008" class="node">
<title>Node8</title>
<g id="a_Node000008"><a xlink:href="classAsyncFw_1_1AbstractThread_1_1Holder.html#a795fc5bb1d23123fc892b8d414c56083" target="_top" xlink:title="Runs nested exec() and wait for it completed.">
<polygon fill="white" stroke="#666666" points="447,-32 317,-32 317,0 447,0 447,-32"/>
<text text-anchor="start" x="325" y="-18.5" font-family="Helvetica,sans-Serif" font-size="10.00">AsyncFw::AbstractThread</text>
<text text-anchor="middle" x="382" y="-6.5" font-family="Helvetica,sans-Serif" font-size="10.00">::Holder::wait</text>
</a>
</g>
</g>
<!-- Node2&#45;&gt;Node8 -->
<g id="edge8_Node000002_Node000008" class="edge">
<title>Node2&#45;&gt;Node8</title>
<g id="a_edge8_Node000002_Node000008"><a xlink:title=" ">
<path fill="none" stroke="#63b8ff" d="M521.48,-92.45C502.12,-76.42 474.91,-55.57 448.5,-41 442.85,-37.88 436.73,-34.99 430.58,-32.35"/>
<polygon fill="#63b8ff" stroke="#63b8ff" points="518.98,-94.92 528.89,-98.68 523.49,-89.56 518.98,-94.92"/>
</a>
</g>
</g>
<!-- Node5 -->
<g id="Node000005" class="node">
<title>Node5</title>
<g id="a_Node000005"><a xlink:href="classAsyncFw_1_1AbstractSocket.html#a73a200f0008dbf9f820bdb2b8a0054cf" target="_top" xlink:title="Schedules the socket for deferred asynchronous destruction.">
<polygon fill="white" stroke="#666666" points="279.5,-176 148.75,-176 148.75,-144 279.5,-144 279.5,-176"/>
<text text-anchor="start" x="156.75" y="-162.5" font-family="Helvetica,sans-Serif" font-size="10.00">AsyncFw::AbstractSocket</text>
<text text-anchor="middle" x="214.12" y="-150.5" font-family="Helvetica,sans-Serif" font-size="10.00">::destroy</text>
</a>
</g>
</g>
<!-- Node4&#45;&gt;Node5 -->
<g id="edge5_Node000004_Node000005" class="edge">
<title>Node4&#45;&gt;Node5</title>
<g id="a_edge5_Node000004_Node000005"><a xlink:title=" ">
<path fill="none" stroke="#63b8ff" d="M306.02,-160C297.33,-160 288.52,-160 279.98,-160"/>
<polygon fill="#63b8ff" stroke="#63b8ff" points="305.83,-163.5 315.83,-160 305.83,-156.5 305.83,-163.5"/>
</a>
</g>
</g>
<!-- Node6 -->
<g id="Node000006" class="node">
<title>Node6</title>
<g id="a_Node000006"><a xlink:href="classAsyncFw_1_1HttpSocket.html#a8268467d3581a4d393e9ccd288de32ff" target="_top" xlink:title="Schedules the socket for deferred asynchronous destruction.">
<polygon fill="white" stroke="#666666" points="112.75,-176 0,-176 0,-144 112.75,-144 112.75,-176"/>
<text text-anchor="start" x="8" y="-162.5" font-family="Helvetica,sans-Serif" font-size="10.00">AsyncFw::HttpSocket</text>
<text text-anchor="middle" x="56.38" y="-150.5" font-family="Helvetica,sans-Serif" font-size="10.00">::destroy</text>
</a>
</g>
</g>
<!-- Node5&#45;&gt;Node6 -->
<g id="edge6_Node000005_Node000006" class="edge">
<title>Node5&#45;&gt;Node6</title>
<g id="a_edge6_Node000005_Node000006"><a xlink:title=" ">
<path fill="none" stroke="#63b8ff" d="M137.09,-160C129.04,-160 120.96,-160 113.2,-160"/>
<polygon fill="#63b8ff" stroke="#63b8ff" points="136.91,-163.5 146.91,-160 136.91,-156.5 136.91,-163.5"/>
</a>
</g>
</g>
<!-- Node9 -->
<g id="Node000009" class="node">
<title>Node9</title>
<g id="a_Node000009"><a xlink:href="structAsyncFw_1_1CoroutineTask.html#a820a0a3410c4a14a71ad3599f46c1bb0" target="_top" xlink:title="Runs nested Thread::exec() and wait for task finished.">
<polygon fill="white" stroke="#666666" points="277.25,-32 151,-32 151,0 277.25,0 277.25,-32"/>
<text text-anchor="start" x="159" y="-18.5" font-family="Helvetica,sans-Serif" font-size="10.00">AsyncFw::CoroutineTask</text>
<text text-anchor="middle" x="214.12" y="-6.5" font-family="Helvetica,sans-Serif" font-size="10.00">::wait</text>
</a>
</g>
</g>
<!-- Node8&#45;&gt;Node9 -->
<g id="edge9_Node000008_Node000009" class="edge">
<title>Node8&#45;&gt;Node9</title>
<g id="a_edge9_Node000008_Node000009"><a xlink:title=" ">
<path fill="none" stroke="#63b8ff" d="M305.59,-16C296.27,-16 286.82,-16 277.72,-16"/>
<polygon fill="#63b8ff" stroke="#63b8ff" points="305.35,-19.5 315.35,-16 305.35,-12.5 305.35,-19.5"/>
</a>
</g>
</g>
<!-- Node10&#45;&gt;Node4 -->
<g id="edge11_Node000010_Node000004" class="edge">
<title>Node10&#45;&gt;Node4</title>
<g id="a_edge11_Node000010_Node000004"><a xlink:title=" ">
<path fill="none" stroke="#63b8ff" d="M473.16,-160C464.45,-160 455.63,-160 447.09,-160"/>
<polygon fill="#63b8ff" stroke="#63b8ff" points="473,-163.5 483,-160 473,-156.5 473,-163.5"/>
</a>
</g>
</g>
<!-- Node10&#45;&gt;Node10 -->
<g id="edge12_Node000010_Node000010" class="edge">
<title>Node10&#45;&gt;Node10</title>
<g id="a_edge12_Node000010_Node000010"><a xlink:title=" ">
<path fill="none" stroke="#63b8ff" d="M578.84,-181.44C575.06,-185.3 565.28,-188 549.5,-188 520.64,-188 511.85,-178.98 523.12,-170.34"/>
<polygon fill="#63b8ff" stroke="#63b8ff" points="582.23,-180.56 576.27,-171.8 575.46,-182.37 582.23,-180.56"/>
</a>
</g>
</g>
</g>
</svg>
