<?xml version="1.0" encoding="UTF-8" standalone="no"?>
<!DOCTYPE svg PUBLIC "-//W3C//DTD SVG 1.1//EN"
 "http://www.w3.org/Graphics/SVG/1.1/DTD/svg11.dtd">
<!-- Generated by graphviz version 12.2.1 (20241206.2353)
 -->
<!-- Title: AsyncFw::AbstractSocket::connect Pages: 1 -->
<svg width="306pt" height="190pt"
 viewBox="0.00 0.00 305.50 190.00" xmlns="http://www.w3.org/2000/svg" xmlns:xlink="http://www.w3.org/1999/xlink">
<g id="graph0" class="graph" transform="scale(1 1) rotate(0) translate(4 186)">
<title>AsyncFw::AbstractSocket::connect</title>
<!-- Node1 -->
<g id="Node000001" class="node">
<title>Node1</title>
<g id="a_Node000001"><a xlink:title="Initiates an asynchronous connection to a remote host.">
<polygon fill="#999999" stroke="#666666" points="130.75,-107 0,-107 0,-75 130.75,-75 130.75,-107"/>
<text text-anchor="start" x="8" y="-93.5" font-family="Helvetica,sans-Serif" font-size="10.00">AsyncFw::AbstractSocket</text>
<text text-anchor="middle" x="65.38" y="-81.5" font-family="Helvetica,sans-Serif" font-size="10.00">::connect</text>
</a>
</g>
</g>
<!-- Node1&#45;&gt;Node1 -->
<g id="edge2_Node000001_Node000001" class="edge">
<title>Node1&#45;&gt;Node1</title>
<g id="a_edge2_Node000001_Node000001"><a xlink:title=" ">
<path fill="none" stroke="#63b8ff" d="M35.61,-107.44C30.05,-116.58 39.97,-125 65.38,-125 79.27,-125 88.53,-122.48 93.16,-118.71"/>
<polygon fill="#63b8ff" stroke="#63b8ff" points="96.6,-119.39 94.88,-108.93 89.7,-118.18 96.6,-119.39"/>
</a>
</g>
</g>
<!-- Node2 -->
<g id="Node000002" class="node">
<title>Node2</title>
<g id="a_Node000002"><a xlink:href="classAsyncFw_1_1AbstractSocket.html#a3dd69e137ca3cf50f90607c17bbdc312" target="_top" xlink:title="Return address.">
<polygon fill="white" stroke="#666666" points="297.5,-182 166.75,-182 166.75,-150 297.5,-150 297.5,-182"/>
<text text-anchor="start" x="174.75" y="-168.5" font-family="Helvetica,sans-Serif" font-size="10.00">AsyncFw::AbstractSocket</text>
<text text-anchor="middle" x="232.12" y="-156.5" font-family="Helvetica,sans-Serif" font-size="10.00">::address</text>
</a>
</g>
</g>
<!-- Node1&#45;&gt;Node2 -->
<g id="edge1_Node000001_Node000002" class="edge">
<title>Node1&#45;&gt;Node2</title>
<g id="a_edge1_Node000001_Node000002"><a xlink:title=" ">
<path fill="none" stroke="#63b8ff" d="M97.22,-107.28C116.9,-117.44 143.07,-130.53 166.75,-141 170.04,-142.45 173.44,-143.91 176.89,-145.35"/>
<polygon fill="#63b8ff" stroke="#63b8ff" points="175.29,-148.48 185.87,-149.02 177.94,-142 175.29,-148.48"/>
</a>
</g>
</g>
<!-- Node3 -->
<g id="Node000003" class="node">
<title>Node3</title>
<g id="a_Node000003"><a xlink:href="classAsyncFw_1_1AbstractSocket.html#ab05320fcb1c111e06a56587b4abbb639" target="_top" xlink:title="Return peer address.">
<polygon fill="white" stroke="#666666" points="297.5,-132 166.75,-132 166.75,-100 297.5,-100 297.5,-132"/>
<text text-anchor="start" x="174.75" y="-118.5" font-family="Helvetica,sans-Serif" font-size="10.00">AsyncFw::AbstractSocket</text>
<text text-anchor="middle" x="232.12" y="-106.5" font-family="Helvetica,sans-Serif" font-size="10.00">::peerAddress</text>
</a>
</g>
</g>
<!-- Node1&#45;&gt;Node3 -->
<g id="edge3_Node000001_Node000003" class="edge">
<title>Node1&#45;&gt;Node3</title>
<g id="a_edge3_Node000001_Node000003"><a xlink:title=" ">
<path fill="none" stroke="#63b8ff" d="M131.02,-100.81C138.92,-102.01 147.05,-103.24 155.1,-104.46"/>
<polygon fill="#63b8ff" stroke="#63b8ff" points="154.49,-107.91 164.9,-105.95 155.54,-100.99 154.49,-107.91"/>
</a>
</g>
</g>
<!-- Node4 -->
<g id="Node000004" class="node">
<title>Node4</title>
<g id="a_Node000004"><a xlink:href="classAsyncFw_1_1AbstractSocket.html#aa91adbe0ea3297083d63e26531daa266" target="_top" xlink:title="Return peer port.">
<polygon fill="white" stroke="#666666" points="297.5,-82 166.75,-82 166.75,-50 297.5,-50 297.5,-82"/>
<text text-anchor="start" x="174.75" y="-68.5" font-family="Helvetica,sans-Serif" font-size="10.00">AsyncFw::AbstractSocket</text>
<text text-anchor="middle" x="232.12" y="-56.5" font-family="Helvetica,sans-Serif" font-size="10.00">::peerPort</text>
</a>
</g>
</g>
<!-- Node1&#45;&gt;Node4 -->
<g id="edge4_Node000001_Node000004" class="edge">
<title>Node1&#45;&gt;Node4</title>
<g id="a_edge4_Node000001_Node000004"><a xlink:title=" ">
<path fill="none" stroke="#63b8ff" d="M131.02,-81.19C138.92,-79.99 147.05,-78.76 155.1,-77.54"/>
<polygon fill="#63b8ff" stroke="#63b8ff" points="155.54,-81.01 164.9,-76.05 154.49,-74.09 155.54,-81.01"/>
</a>
</g>
</g>
<!-- Node5 -->
<g id="Node000005" class="node">
<title>Node5</title>
<g id="a_Node000005"><a xlink:href="classAsyncFw_1_1AbstractSocket.html#aa29d033332c09e341d159b2189c774e9" target="_top" xlink:title="Return port.">
<polygon fill="white" stroke="#666666" points="297.5,-32 166.75,-32 166.75,0 297.5,0 297.5,-32"/>
<text text-anchor="start" x="174.75" y="-18.5" font-family="Helvetica,sans-Serif" font-size="10.00">AsyncFw::AbstractSocket</text>
<text text-anchor="middle" x="232.12" y="-6.5" font-family="Helvetica,sans-Serif" font-size="10.00">::port</text>
</a>
</g>
</g>
<!-- Node1&#45;&gt;Node5 -->
<g id="edge5_Node000001_Node000005" class="edge">
<title>Node1&#45;&gt;Node5</title>
<g id="a_edge5_Node000001_Node000005"><a xlink:title=" ">
<path fill="none" stroke="#63b8ff" d="M97.22,-74.72C116.9,-64.56 143.07,-51.47 166.75,-41 170.04,-39.55 173.44,-38.09 176.89,-36.65"/>
<polygon fill="#63b8ff" stroke="#63b8ff" points="177.94,-40 185.87,-32.98 175.29,-33.52 177.94,-40"/>
</a>
</g>
</g>
</g>
</svg>
