<?xml version="1.0" encoding="UTF-8" standalone="no"?>
<!DOCTYPE svg PUBLIC "-//W3C//DTD SVG 1.1//EN"
 "http://www.w3.org/Graphics/SVG/1.1/DTD/svg11.dtd">
<!-- Generated by graphviz version 12.2.1 (20241206.2353)
 -->
<!-- Title: AsyncFw::AbstractThread::invoke Pages: 1 -->
<svg width="454pt" height="190pt"
 viewBox="0.00 0.00 453.50 190.00" xmlns="http://www.w3.org/2000/svg" xmlns:xlink="http://www.w3.org/1999/xlink">
<g id="graph0" class="graph" transform="scale(1 1) rotate(0) translate(4 186)">
<title>AsyncFw::AbstractThread::invoke</title>
<!-- Node1 -->
<g id="Node000001" class="node">
<title>Node1</title>
<g id="a_Node000001"><a xlink:title="Runs a function in a managed thread.">
<polygon fill="#999999" stroke="#666666" points="445.5,-107 315.5,-107 315.5,-75 445.5,-75 445.5,-107"/>
<text text-anchor="start" x="323.5" y="-93.5" font-family="Helvetica,sans-Serif" font-size="10.00">AsyncFw::AbstractThread</text>
<text text-anchor="middle" x="380.5" y="-81.5" font-family="Helvetica,sans-Serif" font-size="10.00">::invoke</text>
</a>
</g>
</g>
<!-- Node2 -->
<g id="Node000002" class="node">
<title>Node2</title>
<g id="a_Node000002"><a xlink:href="classAsyncFw_1_1ThreadPool.html#a0a35c4070964e69b187842b69b04d325" target="_top" xlink:title="Asynchronously invokes a function in the given thread&#39;s event loop.">
<polygon fill="white" stroke="#666666" points="270.5,-182 157.75,-182 157.75,-150 270.5,-150 270.5,-182"/>
<text text-anchor="start" x="165.75" y="-168.5" font-family="Helvetica,sans-Serif" font-size="10.00">AsyncFw::ThreadPool</text>
<text text-anchor="middle" x="214.12" y="-156.5" font-family="Helvetica,sans-Serif" font-size="10.00">::async</text>
</a>
</g>
</g>
<!-- Node1&#45;&gt;Node2 -->
<g id="edge1_Node000001_Node000002" class="edge">
<title>Node1&#45;&gt;Node2</title>
<g id="a_edge1_Node000001_Node000002"><a xlink:title=" ">
<path fill="none" stroke="#63b8ff" d="M338.64,-112.51C320.68,-121.68 299.23,-132.26 279.5,-141 272.92,-143.91 265.89,-146.84 258.98,-149.6"/>
<polygon fill="#63b8ff" stroke="#63b8ff" points="340.14,-115.67 347.43,-107.99 336.94,-109.45 340.14,-115.67"/>
</a>
</g>
</g>
<!-- Node4 -->
<g id="Node000004" class="node">
<title>Node4</title>
<g id="a_Node000004"><a xlink:href="classAsyncFw_1_1ThreadPool.html#a9919894e586310a7ea5b780845376e17" target="_top" xlink:title="Asynchronously invokes a void function in the target thread, and executes a result callback in the ca...">
<polygon fill="white" stroke="#666666" points="270.5,-132 157.75,-132 157.75,-100 270.5,-100 270.5,-132"/>
<text text-anchor="start" x="165.75" y="-118.5" font-family="Helvetica,sans-Serif" font-size="10.00">AsyncFw::ThreadPool</text>
<text text-anchor="middle" x="214.12" y="-106.5" font-family="Helvetica,sans-Serif" font-size="10.00">::async</text>
</a>
</g>
</g>
<!-- Node1&#45;&gt;Node4 -->
<g id="edge3_Node000001_Node000004" class="edge">
<title>Node1&#45;&gt;Node4</title>
<g id="a_edge3_Node000001_Node000004"><a xlink:title=" ">
<path fill="none" stroke="#63b8ff" d="M303.96,-102.49C292.83,-104.18 281.54,-105.9 270.91,-107.52"/>
<polygon fill="#63b8ff" stroke="#63b8ff" points="304.15,-106 313.51,-101.04 303.1,-99.08 304.15,-106"/>
</a>
</g>
</g>
<!-- Node5 -->
<g id="Node000005" class="node">
<title>Node5</title>
<g id="a_Node000005"><a xlink:href="classAsyncFw_1_1AbstractSocket.html#a73a200f0008dbf9f820bdb2b8a0054cf" target="_top" xlink:title="Schedules the socket for deferred asynchronous destruction.">
<polygon fill="white" stroke="#666666" points="279.5,-82 148.75,-82 148.75,-50 279.5,-50 279.5,-82"/>
<text text-anchor="start" x="156.75" y="-68.5" font-family="Helvetica,sans-Serif" font-size="10.00">AsyncFw::AbstractSocket</text>
<text text-anchor="middle" x="214.12" y="-56.5" font-family="Helvetica,sans-Serif" font-size="10.00">::destroy</text>
</a>
</g>
</g>
<!-- Node1&#45;&gt;Node5 -->
<g id="edge4_Node000001_Node000005" class="edge">
<title>Node1&#45;&gt;Node5</title>
<g id="a_edge4_Node000001_Node000005"><a xlink:title=" ">
<path fill="none" stroke="#63b8ff" d="M303.83,-79.49C295.86,-78.28 287.8,-77.05 279.97,-75.86"/>
<polygon fill="#63b8ff" stroke="#63b8ff" points="303.1,-82.92 313.51,-80.96 304.15,-76 303.1,-82.92"/>
</a>
</g>
</g>
<!-- Node7 -->
<g id="Node000007" class="node">
<title>Node7</title>
<g id="a_Node000007"><a xlink:href="classAsyncFw_1_1ThreadPool.html#add8ee85dd7581acb117a805ff5a8c18a" target="_top" xlink:title="Synchronously invokes a function in the given thread&#39;s event loop (blocks the caller).">
<polygon fill="white" stroke="#666666" points="270.5,-32 157.75,-32 157.75,0 270.5,0 270.5,-32"/>
<text text-anchor="start" x="165.75" y="-18.5" font-family="Helvetica,sans-Serif" font-size="10.00">AsyncFw::ThreadPool</text>
<text text-anchor="middle" x="214.12" y="-6.5" font-family="Helvetica,sans-Serif" font-size="10.00">::sync</text>
</a>
</g>
</g>
<!-- Node1&#45;&gt;Node7 -->
<g id="edge6_Node000001_Node000007" class="edge">
<title>Node1&#45;&gt;Node7</title>
<g id="a_edge6_Node000001_Node000007"><a xlink:title=" ">
<path fill="none" stroke="#63b8ff" d="M338.64,-69.49C320.68,-60.32 299.23,-49.74 279.5,-41 272.92,-38.09 265.89,-35.16 258.98,-32.4"/>
<polygon fill="#63b8ff" stroke="#63b8ff" points="336.94,-72.55 347.43,-74.01 340.14,-66.33 336.94,-72.55"/>
</a>
</g>
</g>
<!-- Node3 -->
<g id="Node000003" class="node">
<title>Node3</title>
<g id="a_Node000003"><a xlink:href="classAsyncFw_1_1ThreadPool.html#a5af6a927b72eec19abb94ee2477d00b5" target="_top" xlink:title="Asynchronously invokes a function in the global pool, returning the result to a callback in the calle...">
<polygon fill="white" stroke="#666666" points="112.75,-182 0,-182 0,-150 112.75,-150 112.75,-182"/>
<text text-anchor="start" x="8" y="-168.5" font-family="Helvetica,sans-Serif" font-size="10.00">AsyncFw::ThreadPool</text>
<text text-anchor="middle" x="56.38" y="-156.5" font-family="Helvetica,sans-Serif" font-size="10.00">::async</text>
</a>
</g>
</g>
<!-- Node2&#45;&gt;Node3 -->
<g id="edge2_Node000002_Node000003" class="edge">
<title>Node2&#45;&gt;Node3</title>
<g id="a_edge2_Node000002_Node000003"><a xlink:title=" ">
<path fill="none" stroke="#63b8ff" d="M146.01,-166C135.01,-166 123.72,-166 113.04,-166"/>
<polygon fill="#63b8ff" stroke="#63b8ff" points="145.82,-169.5 155.82,-166 145.82,-162.5 145.82,-169.5"/>
</a>
</g>
</g>
<!-- Node6 -->
<g id="Node000006" class="node">
<title>Node6</title>
<g id="a_Node000006"><a xlink:href="classAsyncFw_1_1HttpSocket.html#a8268467d3581a4d393e9ccd288de32ff" target="_top" xlink:title="Schedules the socket for deferred asynchronous destruction.">
<polygon fill="white" stroke="#666666" points="112.75,-82 0,-82 0,-50 112.75,-50 112.75,-82"/>
<text text-anchor="start" x="8" y="-68.5" font-family="Helvetica,sans-Serif" font-size="10.00">AsyncFw::HttpSocket</text>
<text text-anchor="middle" x="56.38" y="-56.5" font-family="Helvetica,sans-Serif" font-size="10.00">::destroy</text>
</a>
</g>
</g>
<!-- Node5&#45;&gt;Node6 -->
<g id="edge5_Node000005_Node000006" class="edge">
<title>Node5&#45;&gt;Node6</title>
<g id="a_edge5_Node000005_Node000006"><a xlink:title=" ">
<path fill="none" stroke="#63b8ff" d="M137.09,-66C129.04,-66 120.96,-66 113.2,-66"/>
<polygon fill="#63b8ff" stroke="#63b8ff" points="136.91,-69.5 146.91,-66 136.91,-62.5 136.91,-69.5"/>
</a>
</g>
</g>
</g>
</svg>
