<?xml version="1.0" encoding="UTF-8" standalone="no"?>
<!DOCTYPE svg PUBLIC "-//W3C//DTD SVG 1.1//EN"
 "http://www.w3.org/Graphics/SVG/1.1/DTD/svg11.dtd">
<!-- Generated by graphviz version 14.1.3 (20260303.0454)
 -->
<!-- Title: AsyncFw::DataArrayTcpServer::DataArrayTcpServer Pages: 1 -->
<svg width="525pt" height="62pt"
 viewBox="0.00 0.00 525.00 62.00" xmlns="http://www.w3.org/2000/svg" xmlns:xlink="http://www.w3.org/1999/xlink">
<g id="graph0" class="graph" transform="scale(1 1) rotate(0) translate(4 58)">
<title>AsyncFw::DataArrayTcpServer::DataArrayTcpServer</title>
<!-- Node1 -->
<g id="Node000001" class="node">
<title>Node1</title>
<g id="a_Node000001"><a xlink:title="Constructs a new DataArrayTcpServer object.">
<polygon fill="#999999" stroke="#666666" points="151,-32 0,-32 0,0 151,0 151,-32"/>
<text xml:space="preserve" text-anchor="start" x="8" y="-18.5" font-family="Helvetica,sans-Serif" font-size="10.00">AsyncFw::DataArrayTcpServer</text>
<text xml:space="preserve" text-anchor="middle" x="75.5" y="-6.5" font-family="Helvetica,sans-Serif" font-size="10.00">::DataArrayTcpServer</text>
</a>
</g>
</g>
<!-- Node2 -->
<g id="Node000002" class="node">
<title>Node2</title>
<g id="a_Node000002"><a xlink:href="classAsyncFw_1_1DataArrayAbstractTcp.html#adbdfede75d80d1c6c76800415d51b35c" target="_top" xlink:title="Constructs a new DataArrayAbstractTcp instance.">
<polygon fill="white" stroke="#666666" points="331.25,-54 187,-54 187,-22 331.25,-22 331.25,-54"/>
<text xml:space="preserve" text-anchor="start" x="195" y="-40.5" font-family="Helvetica,sans-Serif" font-size="10.00">AsyncFw::DataArrayAbstract</text>
<text xml:space="preserve" text-anchor="middle" x="259.12" y="-28.5" font-family="Helvetica,sans-Serif" font-size="10.00">Tcp::DataArrayAbstractTcp</text>
</a>
</g>
</g>
<!-- Node1&#45;&gt;Node2 -->
<g id="edge1_Node000001_Node000002" class="edge">
<title>Node1&#45;&gt;Node2</title>
<g id="a_edge1_Node000001_Node000002"><a xlink:title=" ">
<path fill="none" stroke="#63b8ff" d="M151.42,-25.08C159.33,-26.03 167.4,-27.01 175.38,-27.98"/>
<polygon fill="#63b8ff" stroke="#63b8ff" points="174.74,-31.42 185.09,-29.15 175.58,-24.48 174.74,-31.42"/>
</a>
</g>
</g>
<!-- Node3 -->
<g id="Node000003" class="node">
<title>Node3</title>
<g id="a_Node000003"><a xlink:href="classAsyncFw_1_1AbstractThreadPool.html#ac312e723c2e0fa3e4cc18e518853bdf2" target="_top" xlink:title="Returns the identifier name of the thread pool.">
<polygon fill="white" stroke="#666666" points="516.75,-32 367.25,-32 367.25,0 516.75,0 516.75,-32"/>
<text xml:space="preserve" text-anchor="start" x="375.25" y="-18.5" font-family="Helvetica,sans-Serif" font-size="10.00">AsyncFw::AbstractThreadPool</text>
<text xml:space="preserve" text-anchor="middle" x="442" y="-6.5" font-family="Helvetica,sans-Serif" font-size="10.00">::name</text>
</a>
</g>
</g>
<!-- Node1&#45;&gt;Node3 -->
<g id="edge3_Node000001_Node000003" class="edge">
<title>Node1&#45;&gt;Node3</title>
<g id="a_edge3_Node000001_Node000003"><a xlink:title=" ">
<path fill="none" stroke="#63b8ff" d="M151.39,-13.69C163.3,-13.4 175.49,-13.16 187,-13 251.11,-12.13 267.14,-12.12 331.25,-13 339.18,-13.11 347.43,-13.26 355.68,-13.44"/>
<polygon fill="#63b8ff" stroke="#63b8ff" points="355.32,-16.93 365.4,-13.66 355.49,-9.93 355.32,-16.93"/>
</a>
</g>
</g>
<!-- Node2&#45;&gt;Node3 -->
<g id="edge2_Node000002_Node000003" class="edge">
<title>Node2&#45;&gt;Node3</title>
<g id="a_edge2_Node000002_Node000003"><a xlink:title=" ">
<path fill="none" stroke="#63b8ff" d="M331.61,-29.31C339.46,-28.35 347.52,-27.37 355.52,-26.4"/>
<polygon fill="#63b8ff" stroke="#63b8ff" points="355.76,-29.89 365.26,-25.21 354.91,-22.94 355.76,-29.89"/>
</a>
</g>
</g>
</g>
</svg>
