<?xml version="1.0" encoding="UTF-8" standalone="no"?>
<!DOCTYPE svg PUBLIC "-//W3C//DTD SVG 1.1//EN"
 "http://www.w3.org/Graphics/SVG/1.1/DTD/svg11.dtd">
<!-- Generated by graphviz version 14.1.3 (20260303.0454)
 -->
<!-- Title: AsyncFw::AbstractSocket::setDescriptor Pages: 1 -->
<svg width="306pt" height="240pt"
 viewBox="0.00 0.00 306.00 240.00" xmlns="http://www.w3.org/2000/svg" xmlns:xlink="http://www.w3.org/1999/xlink">
<g id="graph0" class="graph" transform="scale(1 1) rotate(0) translate(4 236)">
<title>AsyncFw::AbstractSocket::setDescriptor</title>
<!-- Node1 -->
<g id="Node000001" class="node">
<title>Node1</title>
<g id="a_Node000001"><a xlink:title="Binds a raw native operating system socket file descriptor to this instance.">
<polygon fill="#999999" stroke="#666666" points="130.75,-132 0,-132 0,-100 130.75,-100 130.75,-132"/>
<text xml:space="preserve" text-anchor="start" x="8" y="-118.5" font-family="Helvetica,sans-Serif" font-size="10.00">AsyncFw::AbstractSocket</text>
<text xml:space="preserve" text-anchor="middle" x="65.38" y="-106.5" font-family="Helvetica,sans-Serif" font-size="10.00">::setDescriptor</text>
</a>
</g>
</g>
<!-- Node2 -->
<g id="Node000002" class="node">
<title>Node2</title>
<g id="a_Node000002"><a xlink:href="classAsyncFw_1_1AbstractSocket.html#a3dd69e137ca3cf50f90607c17bbdc312" target="_top" xlink:title="Return local address bound to this socket interface.">
<polygon fill="white" stroke="#666666" points="297.5,-232 166.75,-232 166.75,-200 297.5,-200 297.5,-232"/>
<text xml:space="preserve" text-anchor="start" x="174.75" y="-218.5" font-family="Helvetica,sans-Serif" font-size="10.00">AsyncFw::AbstractSocket</text>
<text xml:space="preserve" text-anchor="middle" x="232.12" y="-206.5" font-family="Helvetica,sans-Serif" font-size="10.00">::address</text>
</a>
</g>
</g>
<!-- Node1&#45;&gt;Node2 -->
<g id="edge1_Node000001_Node000002" class="edge">
<title>Node1&#45;&gt;Node2</title>
<g id="a_edge1_Node000001_Node000002"><a xlink:title=" ">
<path fill="none" stroke="#63b8ff" d="M84.93,-132.31C104.31,-148.74 136.12,-174.02 166.75,-191 169.09,-192.3 171.52,-193.56 174,-194.79"/>
<polygon fill="#63b8ff" stroke="#63b8ff" points="172.45,-197.93 183,-198.95 175.39,-191.57 172.45,-197.93"/>
</a>
</g>
</g>
<!-- Node3 -->
<g id="Node000003" class="node">
<title>Node3</title>
<g id="a_Node000003"><a xlink:href="classAsyncFw_1_1AbstractSocket.html#ab05320fcb1c111e06a56587b4abbb639" target="_top" xlink:title="Return remote peer destination IP address string.">
<polygon fill="white" stroke="#666666" points="297.5,-182 166.75,-182 166.75,-150 297.5,-150 297.5,-182"/>
<text xml:space="preserve" text-anchor="start" x="174.75" y="-168.5" font-family="Helvetica,sans-Serif" font-size="10.00">AsyncFw::AbstractSocket</text>
<text xml:space="preserve" text-anchor="middle" x="232.12" y="-156.5" font-family="Helvetica,sans-Serif" font-size="10.00">::peerAddress</text>
</a>
</g>
</g>
<!-- Node1&#45;&gt;Node3 -->
<g id="edge2_Node000001_Node000003" class="edge">
<title>Node1&#45;&gt;Node3</title>
<g id="a_edge2_Node000001_Node000003"><a xlink:title=" ">
<path fill="none" stroke="#63b8ff" d="M120.32,-132.37C134.89,-136.8 150.82,-141.63 165.94,-146.22"/>
<polygon fill="#63b8ff" stroke="#63b8ff" points="164.74,-149.51 175.33,-149.07 166.78,-142.81 164.74,-149.51"/>
</a>
</g>
</g>
<!-- Node4 -->
<g id="Node000004" class="node">
<title>Node4</title>
<g id="a_Node000004"><a xlink:href="classAsyncFw_1_1AbstractSocket.html#aa91adbe0ea3297083d63e26531daa266" target="_top" xlink:title="Return local network port bound to this socket interface.">
<polygon fill="white" stroke="#666666" points="297.5,-132 166.75,-132 166.75,-100 297.5,-100 297.5,-132"/>
<text xml:space="preserve" text-anchor="start" x="174.75" y="-118.5" font-family="Helvetica,sans-Serif" font-size="10.00">AsyncFw::AbstractSocket</text>
<text xml:space="preserve" text-anchor="middle" x="232.12" y="-106.5" font-family="Helvetica,sans-Serif" font-size="10.00">::peerPort</text>
</a>
</g>
</g>
<!-- Node1&#45;&gt;Node4 -->
<g id="edge3_Node000001_Node000004" class="edge">
<title>Node1&#45;&gt;Node4</title>
<g id="a_edge3_Node000001_Node000004"><a xlink:title=" ">
<path fill="none" stroke="#63b8ff" d="M131.02,-116C138.92,-116 147.05,-116 155.1,-116"/>
<polygon fill="#63b8ff" stroke="#63b8ff" points="154.89,-119.5 164.89,-116 154.89,-112.5 154.89,-119.5"/>
</a>
</g>
</g>
<!-- Node5 -->
<g id="Node000005" class="node">
<title>Node5</title>
<g id="a_Node000005"><a xlink:href="classAsyncFw_1_1AbstractSocket.html#aa29d033332c09e341d159b2189c774e9" target="_top" xlink:title="Return local network port bound to this socket interface.">
<polygon fill="white" stroke="#666666" points="297.5,-82 166.75,-82 166.75,-50 297.5,-50 297.5,-82"/>
<text xml:space="preserve" text-anchor="start" x="174.75" y="-68.5" font-family="Helvetica,sans-Serif" font-size="10.00">AsyncFw::AbstractSocket</text>
<text xml:space="preserve" text-anchor="middle" x="232.12" y="-56.5" font-family="Helvetica,sans-Serif" font-size="10.00">::port</text>
</a>
</g>
</g>
<!-- Node1&#45;&gt;Node5 -->
<g id="edge4_Node000001_Node000005" class="edge">
<title>Node1&#45;&gt;Node5</title>
<g id="a_edge4_Node000001_Node000005"><a xlink:title=" ">
<path fill="none" stroke="#63b8ff" d="M120.32,-99.63C134.89,-95.2 150.82,-90.37 165.94,-85.78"/>
<polygon fill="#63b8ff" stroke="#63b8ff" points="166.78,-89.19 175.33,-82.93 164.74,-82.49 166.78,-89.19"/>
</a>
</g>
</g>
<!-- Node6 -->
<g id="Node000006" class="node">
<title>Node6</title>
<g id="a_Node000006"><a xlink:href="classAsyncFw_1_1AbstractSocket.html#a5db12267a6d2241e81f570463f2d7ef5" target="_top" xlink:title="Called when the connection state changes.">
<polygon fill="white" stroke="#666666" points="297.5,-32 166.75,-32 166.75,0 297.5,0 297.5,-32"/>
<text xml:space="preserve" text-anchor="start" x="174.75" y="-18.5" font-family="Helvetica,sans-Serif" font-size="10.00">AsyncFw::AbstractSocket</text>
<text xml:space="preserve" text-anchor="middle" x="232.12" y="-6.5" font-family="Helvetica,sans-Serif" font-size="10.00">::stateEvent</text>
</a>
</g>
</g>
<!-- Node1&#45;&gt;Node6 -->
<g id="edge5_Node000001_Node000006" class="edge">
<title>Node1&#45;&gt;Node6</title>
<g id="a_edge5_Node000001_Node000006"><a xlink:title=" ">
<path fill="none" stroke="#63b8ff" d="M84.93,-99.69C104.31,-83.26 136.12,-57.98 166.75,-41 169.09,-39.7 171.52,-38.44 174,-37.21"/>
<polygon fill="#63b8ff" stroke="#63b8ff" points="175.39,-40.43 183,-33.05 172.45,-34.07 175.39,-40.43"/>
</a>
</g>
</g>
</g>
</svg>
