<?xml version="1.0" encoding="UTF-8" standalone="no"?>
<!DOCTYPE svg PUBLIC "-//W3C//DTD SVG 1.1//EN"
 "http://www.w3.org/Graphics/SVG/1.1/DTD/svg11.dtd">
<!-- Generated by graphviz version 14.1.3 (20260303.0454)
 -->
<!-- Title: AsyncFw::Timer::coTimeout Pages: 1 -->
<svg width="453pt" height="28pt"
 viewBox="0.00 0.00 453.00 28.00" xmlns="http://www.w3.org/2000/svg" xmlns:xlink="http://www.w3.org/1999/xlink">
<g id="graph0" class="graph" transform="scale(1 1) rotate(0) translate(4 24)">
<title>AsyncFw::Timer::coTimeout</title>
<!-- Node1 -->
<g id="Node000001" class="node">
<title>Node1</title>
<g id="a_Node000001"><a xlink:title="Asynchronously waits for the specified timeout interval.">
<polygon fill="#999999" stroke="#666666" points="139.75,-20 0,-20 0,0 139.75,0 139.75,-20"/>
<text xml:space="preserve" text-anchor="middle" x="69.88" y="-6.5" font-family="Helvetica,sans-Serif" font-size="10.00">AsyncFw::Timer::coTimeout</text>
</a>
</g>
</g>
<!-- Node2 -->
<g id="Node000002" class="node">
<title>Node2</title>
<g id="a_Node000002"><a xlink:href="classAsyncFw_1_1Timer.html#a14d02d88bd3682afd7c8fd72cc670e46" target="_top" xlink:title="Starts or restarts a timer with the specified timeout. If the timer is already running,...">
<polygon fill="white" stroke="#666666" points="289.25,-20 175.75,-20 175.75,0 289.25,0 289.25,-20"/>
<text xml:space="preserve" text-anchor="middle" x="232.5" y="-6.5" font-family="Helvetica,sans-Serif" font-size="10.00">AsyncFw::Timer::start</text>
</a>
</g>
</g>
<!-- Node1&#45;&gt;Node2 -->
<g id="edge1_Node000001_Node000002" class="edge">
<title>Node1&#45;&gt;Node2</title>
<g id="a_edge1_Node000001_Node000002"><a xlink:title=" ">
<path fill="none" stroke="#63b8ff" d="M139.93,-10C148.02,-10 156.26,-10 164.33,-10"/>
<polygon fill="#63b8ff" stroke="#63b8ff" points="164.06,-13.5 174.06,-10 164.06,-6.5 164.06,-13.5"/>
</a>
</g>
</g>
<!-- Node3 -->
<g id="Node000003" class="node">
<title>Node3</title>
<g id="a_Node000003"><a xlink:href="classAsyncFw_1_1Timer.html#ac71f0729e65046914c3358e87759f9e9" target="_top" xlink:title="Starts a single shot timer with the specified timeout.">
<polygon fill="white" stroke="#666666" points="444.75,-20 325.25,-20 325.25,0 444.75,0 444.75,-20"/>
<text xml:space="preserve" text-anchor="middle" x="385" y="-6.5" font-family="Helvetica,sans-Serif" font-size="10.00">AsyncFw::Timer::single</text>
</a>
</g>
</g>
<!-- Node2&#45;&gt;Node3 -->
<g id="edge2_Node000002_Node000003" class="edge">
<title>Node2&#45;&gt;Node3</title>
<g id="a_edge2_Node000002_Node000003"><a xlink:title=" ">
<path fill="none" stroke="#63b8ff" d="M289.54,-10C297.38,-10 305.52,-10 313.58,-10"/>
<polygon fill="#63b8ff" stroke="#63b8ff" points="313.38,-13.5 323.38,-10 313.38,-6.5 313.38,-13.5"/>
</a>
</g>
</g>
</g>
</svg>
