<?xml version="1.0" encoding="UTF-8" standalone="no"?>
<!DOCTYPE svg PUBLIC "-//W3C//DTD SVG 1.1//EN"
 "http://www.w3.org/Graphics/SVG/1.1/DTD/svg11.dtd">
<!-- Generated by graphviz version 14.1.3 (20260303.0454)
 -->
<!-- Title: AsyncFw::Thread::Thread Pages: 1 -->
<svg width="807pt" height="342pt"
 viewBox="0.00 0.00 807.00 342.00" xmlns="http://www.w3.org/2000/svg" xmlns:xlink="http://www.w3.org/1999/xlink">
<g id="graph0" class="graph" transform="scale(1 1) rotate(0) translate(4 338)">
<title>AsyncFw::Thread::Thread</title>
<!-- Node1 -->
<g id="Node000001" class="node">
<title>Node1</title>
<g id="a_Node000001"><a xlink:title="Constructs a thread.">
<polygon fill="#999999" stroke="#666666" points="799.25,-203 670,-203 670,-183 799.25,-183 799.25,-203"/>
<text xml:space="preserve" text-anchor="middle" x="734.62" y="-189.5" font-family="Helvetica,sans-Serif" font-size="10.00">AsyncFw::Thread::Thread</text>
</a>
</g>
</g>
<!-- Node2 -->
<g id="Node000002" class="node">
<title>Node2</title>
<g id="a_Node000002"><a xlink:href="classAsyncFw_1_1Thread.html#a0a3bd6a54db28f73ff59cfea6a40b07a" target="_top" xlink:title="Returns a pointer to the AsyncFw::Thread that manages the currently executing thread.">
<polygon fill="white" stroke="#666666" points="634,-203 504.75,-203 504.75,-183 634,-183 634,-203"/>
<text xml:space="preserve" text-anchor="middle" x="569.38" y="-189.5" font-family="Helvetica,sans-Serif" font-size="10.00">AsyncFw::Thread::current</text>
</a>
</g>
</g>
<!-- Node1&#45;&gt;Node2 -->
<g id="edge1_Node000001_Node000002" class="edge">
<title>Node1&#45;&gt;Node2</title>
<g id="a_edge1_Node000001_Node000002"><a xlink:title=" ">
<path fill="none" stroke="#63b8ff" d="M658.29,-193C650.25,-193 642.13,-193 634.24,-193"/>
<polygon fill="#63b8ff" stroke="#63b8ff" points="658.06,-196.5 668.06,-193 658.06,-189.5 658.06,-196.5"/>
</a>
</g>
</g>
<!-- Node3 -->
<g id="Node000003" class="node">
<title>Node3</title>
<g id="a_Node000003"><a xlink:href="classAsyncFw_1_1AbstractSocket.html#a94ae146fe8047af98d2dcfd14d20e261" target="_top" xlink:title="Constructs an AbstractSocket with default parameters (AF_INET, SOCK_STREAM, IPPROTO_TCP) and binds it...">
<polygon fill="white" stroke="#666666" points="468.75,-284 338,-284 338,-252 468.75,-252 468.75,-284"/>
<text xml:space="preserve" text-anchor="start" x="346" y="-270.5" font-family="Helvetica,sans-Serif" font-size="10.00">AsyncFw::AbstractSocket</text>
<text xml:space="preserve" text-anchor="middle" x="403.38" y="-258.5" font-family="Helvetica,sans-Serif" font-size="10.00">::AbstractSocket</text>
</a>
</g>
</g>
<!-- Node2&#45;&gt;Node3 -->
<g id="edge2_Node000002_Node000003" class="edge">
<title>Node2&#45;&gt;Node3</title>
<g id="a_edge2_Node000002_Node000003"><a xlink:title=" ">
<path fill="none" stroke="#63b8ff" d="M535.26,-208.14C507.7,-220.75 468.52,-238.66 440.23,-251.6"/>
<polygon fill="#63b8ff" stroke="#63b8ff" points="536.56,-211.4 544.2,-204.06 533.65,-205.03 536.56,-211.4"/>
</a>
</g>
</g>
<!-- Node6 -->
<g id="Node000006" class="node">
<title>Node6</title>
<g id="a_Node000006"><a xlink:href="classAsyncFw_1_1AbstractSocket.html#a73a200f0008dbf9f820bdb2b8a0054cf" target="_top" xlink:title="Schedules the socket for deferred asynchronous destruction.">
<polygon fill="white" stroke="#666666" points="468.75,-209 338,-209 338,-177 468.75,-177 468.75,-209"/>
<text xml:space="preserve" text-anchor="start" x="346" y="-195.5" font-family="Helvetica,sans-Serif" font-size="10.00">AsyncFw::AbstractSocket</text>
<text xml:space="preserve" text-anchor="middle" x="403.38" y="-183.5" font-family="Helvetica,sans-Serif" font-size="10.00">::destroy</text>
</a>
</g>
</g>
<!-- Node2&#45;&gt;Node6 -->
<g id="edge5_Node000002_Node000006" class="edge">
<title>Node2&#45;&gt;Node6</title>
<g id="a_edge5_Node000002_Node000006"><a xlink:title=" ">
<path fill="none" stroke="#63b8ff" d="M493.23,-193C485.19,-193 477.06,-193 469.16,-193"/>
<polygon fill="#63b8ff" stroke="#63b8ff" points="492.99,-196.5 502.99,-193 492.99,-189.5 492.99,-196.5"/>
</a>
</g>
</g>
<!-- Node10 -->
<g id="Node000010" class="node">
<title>Node10</title>
<g id="a_Node000010"><a xlink:href="classAsyncFw_1_1Rrd.html#a2fd20dd3470a11ef179577c565c333f1" target="_top" xlink:title="Constructs a persistent circular archive database with physical disk backing.">
<polygon fill="white" stroke="#666666" points="453.75,-96 353,-96 353,-76 453.75,-76 453.75,-96"/>
<text xml:space="preserve" text-anchor="middle" x="403.38" y="-82.5" font-family="Helvetica,sans-Serif" font-size="10.00">AsyncFw::Rrd::Rrd</text>
</a>
</g>
</g>
<!-- Node2&#45;&gt;Node10 -->
<g id="edge9_Node000002_Node000010" class="edge">
<title>Node2&#45;&gt;Node10</title>
<g id="a_edge9_Node000002_Node000010"><a xlink:title=" ">
<path fill="none" stroke="#63b8ff" d="M543.01,-176.45C508.75,-154.1 448.7,-114.92 420.22,-96.34"/>
<polygon fill="#63b8ff" stroke="#63b8ff" points="540.8,-179.19 551.08,-181.72 544.62,-173.32 540.8,-179.19"/>
</a>
</g>
</g>
<!-- Node4 -->
<g id="Node000004" class="node">
<title>Node4</title>
<g id="a_Node000004"><a xlink:href="classAsyncFw_1_1AbstractSocket.html#ad82c1584c2664dd89cd94cc217974afe" target="_top" xlink:title="Constructs an AbstractSocket and binds it to the current thread context.">
<polygon fill="white" stroke="#666666" points="295.25,-334 164.5,-334 164.5,-302 295.25,-302 295.25,-334"/>
<text xml:space="preserve" text-anchor="start" x="172.5" y="-320.5" font-family="Helvetica,sans-Serif" font-size="10.00">AsyncFw::AbstractSocket</text>
<text xml:space="preserve" text-anchor="middle" x="229.88" y="-308.5" font-family="Helvetica,sans-Serif" font-size="10.00">::AbstractSocket</text>
</a>
</g>
</g>
<!-- Node3&#45;&gt;Node4 -->
<g id="edge3_Node000003_Node000004" class="edge">
<title>Node3&#45;&gt;Node4</title>
<g id="a_edge3_Node000003_Node000004"><a xlink:title=" ">
<path fill="none" stroke="#63b8ff" d="M335.41,-287.52C319.55,-292.15 302.79,-297.03 287.45,-301.51"/>
<polygon fill="#63b8ff" stroke="#63b8ff" points="336.15,-290.95 344.77,-284.8 334.19,-284.23 336.15,-290.95"/>
</a>
</g>
</g>
<!-- Node5 -->
<g id="Node000005" class="node">
<title>Node5</title>
<g id="a_Node000005"><a xlink:href="classAsyncFw_1_1AbstractTlsSocket.html#a7800254e24419820e105e863c0266ac4" target="_top" xlink:title="Protected default constructor. Allocates the internal private structure and setups context pointers.">
<polygon fill="white" stroke="#666666" points="302,-284 157.75,-284 157.75,-252 302,-252 302,-284"/>
<text xml:space="preserve" text-anchor="start" x="165.75" y="-270.5" font-family="Helvetica,sans-Serif" font-size="10.00">AsyncFw::AbstractTlsSocket</text>
<text xml:space="preserve" text-anchor="middle" x="229.88" y="-258.5" font-family="Helvetica,sans-Serif" font-size="10.00">::AbstractTlsSocket</text>
</a>
</g>
</g>
<!-- Node3&#45;&gt;Node5 -->
<g id="edge4_Node000003_Node000005" class="edge">
<title>Node3&#45;&gt;Node5</title>
<g id="a_edge4_Node000003_Node000005"><a xlink:title=" ">
<path fill="none" stroke="#63b8ff" d="M326.1,-268C318.22,-268 310.23,-268 302.4,-268"/>
<polygon fill="#63b8ff" stroke="#63b8ff" points="326.02,-271.5 336.02,-268 326.02,-264.5 326.02,-271.5"/>
</a>
</g>
</g>
<!-- Node7 -->
<g id="Node000007" class="node">
<title>Node7</title>
<g id="a_Node000007"><a xlink:href="classAsyncFw_1_1HttpSocket.html#a8268467d3581a4d393e9ccd288de32ff" target="_top" xlink:title="Schedules the socket for deferred asynchronous destruction.">
<polygon fill="white" stroke="#666666" points="286.25,-234 173.5,-234 173.5,-202 286.25,-202 286.25,-234"/>
<text xml:space="preserve" text-anchor="start" x="181.5" y="-220.5" font-family="Helvetica,sans-Serif" font-size="10.00">AsyncFw::HttpSocket</text>
<text xml:space="preserve" text-anchor="middle" x="229.88" y="-208.5" font-family="Helvetica,sans-Serif" font-size="10.00">::destroy</text>
</a>
</g>
</g>
<!-- Node6&#45;&gt;Node7 -->
<g id="edge6_Node000006_Node000007" class="edge">
<title>Node6&#45;&gt;Node7</title>
<g id="a_edge6_Node000006_Node000007"><a xlink:title=" ">
<path fill="none" stroke="#63b8ff" d="M326.39,-204.08C312.98,-206.03 299.26,-208.03 286.55,-209.88"/>
<polygon fill="#63b8ff" stroke="#63b8ff" points="326.65,-207.58 336.04,-202.67 325.64,-200.65 326.65,-207.58"/>
</a>
</g>
</g>
<!-- Node9 -->
<g id="Node000009" class="node">
<title>Node9</title>
<g id="a_Node000009"><a xlink:href="classAsyncFw_1_1DataArrayAbstractTcp_1_1Thread.html#ab6df6de1f9828a772e5968477ce5dffa" target="_top" xlink:title="Performs cleanup routines and safely removes a socket from the thread loop.">
<polygon fill="white" stroke="#666666" points="302,-184 157.75,-184 157.75,-152 302,-152 302,-184"/>
<text xml:space="preserve" text-anchor="start" x="165.75" y="-170.5" font-family="Helvetica,sans-Serif" font-size="10.00">AsyncFw::DataArrayAbstract</text>
<text xml:space="preserve" text-anchor="middle" x="229.88" y="-158.5" font-family="Helvetica,sans-Serif" font-size="10.00">Tcp::Thread::destroySocket</text>
</a>
</g>
</g>
<!-- Node6&#45;&gt;Node9 -->
<g id="edge8_Node000006_Node000009" class="edge">
<title>Node6&#45;&gt;Node9</title>
<g id="a_edge8_Node000006_Node000009"><a xlink:title=" ">
<path fill="none" stroke="#63b8ff" d="M326.37,-181.92C318.4,-180.76 310.32,-179.58 302.4,-178.43"/>
<polygon fill="#63b8ff" stroke="#63b8ff" points="325.64,-185.35 336.04,-183.33 326.65,-178.42 325.64,-185.35"/>
</a>
</g>
</g>
<!-- Node8 -->
<g id="Node000008" class="node">
<title>Node8</title>
<g id="a_Node000008"><a xlink:href="classAsyncFw_1_1HttpServer_1_1TcpSocket.html#a41557b69e30e25b97cbdda210afb7657" target="_top" xlink:title="Constructs a new TcpSocket associated with the parent server.">
<polygon fill="white" stroke="#666666" points="120.62,-234 1.12,-234 1.12,-202 120.62,-202 120.62,-234"/>
<text xml:space="preserve" text-anchor="start" x="9.12" y="-220.5" font-family="Helvetica,sans-Serif" font-size="10.00">AsyncFw::HttpServer</text>
<text xml:space="preserve" text-anchor="middle" x="60.88" y="-208.5" font-family="Helvetica,sans-Serif" font-size="10.00">::TcpSocket::TcpSocket</text>
</a>
</g>
</g>
<!-- Node7&#45;&gt;Node8 -->
<g id="edge7_Node000007_Node000008" class="edge">
<title>Node7&#45;&gt;Node8</title>
<g id="a_edge7_Node000007_Node000008"><a xlink:title=" ">
<path fill="none" stroke="#63b8ff" d="M162.03,-218C148.45,-218 134.26,-218 120.96,-218"/>
<polygon fill="#63b8ff" stroke="#63b8ff" points="161.75,-221.5 171.75,-218 161.75,-214.5 161.75,-221.5"/>
</a>
</g>
</g>
<!-- Node11 -->
<g id="Node000011" class="node">
<title>Node11</title>
<g id="a_Node000011"><a xlink:href="classAsyncFw_1_1Log.html#a832d13f4e9231eee37d8decb5b9b96d7" target="_top" xlink:title="Constructs a persistent log system with a specific circular database size and file name context.">
<polygon fill="white" stroke="#666666" points="280.25,-134 179.5,-134 179.5,-114 280.25,-114 280.25,-134"/>
<text xml:space="preserve" text-anchor="middle" x="229.88" y="-120.5" font-family="Helvetica,sans-Serif" font-size="10.00">AsyncFw::Log::Log</text>
</a>
</g>
</g>
<!-- Node10&#45;&gt;Node11 -->
<g id="edge10_Node000010_Node000011" class="edge">
<title>Node10&#45;&gt;Node11</title>
<g id="a_edge10_Node000010_Node000011"><a xlink:title=" ">
<path fill="none" stroke="#63b8ff" d="M344.07,-98.92C322.55,-103.69 298.45,-109.03 278.04,-113.55"/>
<polygon fill="#63b8ff" stroke="#63b8ff" points="344.57,-102.39 353.58,-96.81 343.06,-95.56 344.57,-102.39"/>
</a>
</g>
</g>
<!-- Node13 -->
<g id="Node000013" class="node">
<title>Node13</title>
<g id="a_Node000013"><a xlink:href="classAsyncFw_1_1Rrd.html#aa54ae298c96e9efe88b644931b12f734" target="_top" xlink:title="Constructs a minimal in&#45;memory anonymous circular database with default system tracking intervals.">
<polygon fill="white" stroke="#666666" points="280.25,-96 179.5,-96 179.5,-76 280.25,-76 280.25,-96"/>
<text xml:space="preserve" text-anchor="middle" x="229.88" y="-82.5" font-family="Helvetica,sans-Serif" font-size="10.00">AsyncFw::Rrd::Rrd</text>
</a>
</g>
</g>
<!-- Node10&#45;&gt;Node13 -->
<g id="edge12_Node000010_Node000013" class="edge">
<title>Node10&#45;&gt;Node13</title>
<g id="a_edge12_Node000010_Node000013"><a xlink:title=" ">
<path fill="none" stroke="#63b8ff" d="M341.32,-86C321.44,-86 299.62,-86 280.67,-86"/>
<polygon fill="#63b8ff" stroke="#63b8ff" points="341.26,-89.5 351.26,-86 341.26,-82.5 341.26,-89.5"/>
</a>
</g>
</g>
<!-- Node14 -->
<g id="Node000014" class="node">
<title>Node14</title>
<g id="a_Node000014"><a xlink:href="classAsyncFw_1_1Rrd.html#aaea6a63444ab427f801be34f26d930d5" target="_top" xlink:title="Constructs a persistent circular archive database using default system tracking intervals.">
<polygon fill="white" stroke="#666666" points="280.25,-58 179.5,-58 179.5,-38 280.25,-38 280.25,-58"/>
<text xml:space="preserve" text-anchor="middle" x="229.88" y="-44.5" font-family="Helvetica,sans-Serif" font-size="10.00">AsyncFw::Rrd::Rrd</text>
</a>
</g>
</g>
<!-- Node10&#45;&gt;Node14 -->
<g id="edge13_Node000010_Node000014" class="edge">
<title>Node10&#45;&gt;Node14</title>
<g id="a_edge13_Node000010_Node000014"><a xlink:title=" ">
<path fill="none" stroke="#63b8ff" d="M344.07,-73.08C322.55,-68.31 298.45,-62.97 278.04,-58.45"/>
<polygon fill="#63b8ff" stroke="#63b8ff" points="343.06,-76.44 353.58,-75.19 344.57,-69.61 343.06,-76.44"/>
</a>
</g>
</g>
<!-- Node15 -->
<g id="Node000015" class="node">
<title>Node15</title>
<g id="a_Node000015"><a xlink:href="classAsyncFw_1_1Rrd.html#a98c7829cc6177c80245cf95095deb3ba" target="_top" xlink:title="Constructs an in&#45;memory anonymous circular database without file serialization.">
<polygon fill="white" stroke="#666666" points="280.25,-20 179.5,-20 179.5,0 280.25,0 280.25,-20"/>
<text xml:space="preserve" text-anchor="middle" x="229.88" y="-6.5" font-family="Helvetica,sans-Serif" font-size="10.00">AsyncFw::Rrd::Rrd</text>
</a>
</g>
</g>
<!-- Node10&#45;&gt;Node15 -->
<g id="edge14_Node000010_Node000015" class="edge">
<title>Node10&#45;&gt;Node15</title>
<g id="a_edge14_Node000010_Node000015"><a xlink:title=" ">
<path fill="none" stroke="#63b8ff" d="M377.55,-69.52C357.76,-56.98 329,-40.06 302,-29 294.08,-25.75 285.43,-22.91 276.98,-20.47"/>
<polygon fill="#63b8ff" stroke="#63b8ff" points="375.44,-72.32 385.74,-74.8 379.23,-66.44 375.44,-72.32"/>
</a>
</g>
</g>
<!-- Node12 -->
<g id="Node000012" class="node">
<title>Node12</title>
<g id="a_Node000012"><a xlink:href="classAsyncFw_1_1Log.html#a00e9a20e7303e9a24403046af176b6b2" target="_top" xlink:title="Global service locator shortcut to fetch the current engine&#45;wide default log pointer.">
<polygon fill="white" stroke="#666666" points="121.75,-134 0,-134 0,-114 121.75,-114 121.75,-134"/>
<text xml:space="preserve" text-anchor="middle" x="60.88" y="-120.5" font-family="Helvetica,sans-Serif" font-size="10.00">AsyncFw::Log::instance</text>
</a>
</g>
</g>
<!-- Node11&#45;&gt;Node12 -->
<g id="edge11_Node000011_Node000012" class="edge">
<title>Node11&#45;&gt;Node12</title>
<g id="a_edge11_Node000011_Node000012"><a xlink:title=" ">
<path fill="none" stroke="#63b8ff" d="M167.99,-124C152.99,-124 136.93,-124 121.96,-124"/>
<polygon fill="#63b8ff" stroke="#63b8ff" points="167.71,-127.5 177.71,-124 167.71,-120.5 167.71,-127.5"/>
</a>
</g>
</g>
</g>
</svg>
