<?xml version="1.0" encoding="UTF-8" standalone="no"?>
<!DOCTYPE svg PUBLIC "-//W3C//DTD SVG 1.1//EN"
 "http://www.w3.org/Graphics/SVG/1.1/DTD/svg11.dtd">
<!-- Generated by graphviz version 14.1.3 (20260303.0454)
 -->
<!-- Title: AsyncFw::TlsContext::infoCertificate Pages: 1 -->
<svg width="267pt" height="140pt"
 viewBox="0.00 0.00 267.00 140.00" xmlns="http://www.w3.org/2000/svg" xmlns:xlink="http://www.w3.org/1999/xlink">
<g id="graph0" class="graph" transform="scale(1 1) rotate(0) translate(4 136)">
<title>AsyncFw::TlsContext::infoCertificate</title>
<!-- Node1 -->
<g id="Node000001" class="node">
<title>Node1</title>
<g id="a_Node000001"><a xlink:title="Parses a raw PEM&#45;formatted X509 certificate buffer and extracts its metadata header.">
<polygon fill="#999999" stroke="#666666" points="111.25,-82 0,-82 0,-50 111.25,-50 111.25,-82"/>
<text xml:space="preserve" text-anchor="start" x="8" y="-68.5" font-family="Helvetica,sans-Serif" font-size="10.00">AsyncFw::TlsContext</text>
<text xml:space="preserve" text-anchor="middle" x="55.62" y="-56.5" font-family="Helvetica,sans-Serif" font-size="10.00">::infoCertificate</text>
</a>
</g>
</g>
<!-- Node2 -->
<g id="Node000002" class="node">
<title>Node2</title>
<g id="a_Node000002"><a xlink:href="classAsyncFw_1_1TlsContext.html#a1f84d5908bb3af689637ef250ddb1467" target="_top" xlink:title="Return certificate in PEM format.">
<polygon fill="white" stroke="#666666" points="258.5,-132 147.25,-132 147.25,-100 258.5,-100 258.5,-132"/>
<text xml:space="preserve" text-anchor="start" x="155.25" y="-118.5" font-family="Helvetica,sans-Serif" font-size="10.00">AsyncFw::TlsContext</text>
<text xml:space="preserve" text-anchor="middle" x="202.88" y="-106.5" font-family="Helvetica,sans-Serif" font-size="10.00">::certificate</text>
</a>
</g>
</g>
<!-- Node1&#45;&gt;Node2 -->
<g id="edge1_Node000001_Node000002" class="edge">
<title>Node1&#45;&gt;Node2</title>
<g id="a_edge1_Node000001_Node000002"><a xlink:title=" ">
<path fill="none" stroke="#63b8ff" d="M104.19,-82.37C116.73,-86.69 130.4,-91.4 143.44,-95.89"/>
<polygon fill="#63b8ff" stroke="#63b8ff" points="142.18,-99.15 152.78,-99.1 144.46,-92.53 142.18,-99.15"/>
</a>
</g>
</g>
<!-- Node3 -->
<g id="Node000003" class="node">
<title>Node3</title>
<g id="a_Node000003"><a xlink:href="classAsyncFw_1_1TlsContext.html#a6d9871b944dda7508bf311ed1de76031" target="_top" xlink:title="Return info of certificate.">
<polygon fill="white" stroke="#666666" points="258.5,-82 147.25,-82 147.25,-50 258.5,-50 258.5,-82"/>
<text xml:space="preserve" text-anchor="start" x="155.25" y="-68.5" font-family="Helvetica,sans-Serif" font-size="10.00">AsyncFw::TlsContext</text>
<text xml:space="preserve" text-anchor="middle" x="202.88" y="-56.5" font-family="Helvetica,sans-Serif" font-size="10.00">::infoCertificate</text>
</a>
</g>
</g>
<!-- Node1&#45;&gt;Node3 -->
<g id="edge2_Node000001_Node000003" class="edge">
<title>Node1&#45;&gt;Node3</title>
<g id="a_edge2_Node000001_Node000003"><a xlink:title=" ">
<path fill="none" stroke="#63b8ff" d="M111.54,-66C119.4,-66 127.56,-66 135.61,-66"/>
<polygon fill="#63b8ff" stroke="#63b8ff" points="135.37,-69.5 145.37,-66 135.37,-62.5 135.37,-69.5"/>
</a>
</g>
</g>
<!-- Node4 -->
<g id="Node000004" class="node">
<title>Node4</title>
<g id="a_Node000004"><a xlink:href="classAsyncFw_1_1TlsContext.html#afb5237df49026bf53948efaafaa2f0f9" target="_top" xlink:title="Set certificate.">
<polygon fill="white" stroke="#666666" points="258.5,-32 147.25,-32 147.25,0 258.5,0 258.5,-32"/>
<text xml:space="preserve" text-anchor="start" x="155.25" y="-18.5" font-family="Helvetica,sans-Serif" font-size="10.00">AsyncFw::TlsContext</text>
<text xml:space="preserve" text-anchor="middle" x="202.88" y="-6.5" font-family="Helvetica,sans-Serif" font-size="10.00">::setCertificate</text>
</a>
</g>
</g>
<!-- Node1&#45;&gt;Node4 -->
<g id="edge3_Node000001_Node000004" class="edge">
<title>Node1&#45;&gt;Node4</title>
<g id="a_edge3_Node000001_Node000004"><a xlink:title=" ">
<path fill="none" stroke="#63b8ff" d="M104.19,-49.63C116.73,-45.31 130.4,-40.6 143.44,-36.11"/>
<polygon fill="#63b8ff" stroke="#63b8ff" points="144.46,-39.47 152.78,-32.9 142.18,-32.85 144.46,-39.47"/>
</a>
</g>
</g>
</g>
</svg>
