<?xml version="1.0" encoding="UTF-8" standalone="no"?>
<!DOCTYPE svg PUBLIC "-//W3C//DTD SVG 1.1//EN"
 "http://www.w3.org/Graphics/SVG/1.1/DTD/svg11.dtd">
<!-- Generated by graphviz version 12.2.1 (20241206.2353)
 -->
<!-- Title: AsyncFw::Rrd::Rrd Pages: 1 -->
<svg width="909pt" height="103pt"
 viewBox="0.00 0.00 908.75 103.00" xmlns="http://www.w3.org/2000/svg" xmlns:xlink="http://www.w3.org/1999/xlink">
<g id="graph0" class="graph" transform="scale(1 1) rotate(0) translate(4 99)">
<title>AsyncFw::Rrd::Rrd</title>
<!-- Node1 -->
<g id="Node000001" class="node">
<title>Node1</title>
<g id="a_Node000001"><a xlink:title="Constructs a minimal in&#45;memory anonymous circular database with default system tracking intervals.">
<polygon fill="#999999" stroke="#666666" points="100.75,-39 0,-39 0,-19 100.75,-19 100.75,-39"/>
<text text-anchor="middle" x="50.38" y="-25.5" font-family="Helvetica,sans-Serif" font-size="10.00">AsyncFw::Rrd::Rrd</text>
</a>
</g>
</g>
<!-- Node2 -->
<g id="Node000002" class="node">
<title>Node2</title>
<g id="a_Node000002"><a xlink:href="classAsyncFw_1_1Rrd.html#a2fd20dd3470a11ef179577c565c333f1" target="_top" xlink:title="Constructs a persistent circular archive database with physical disk backing.">
<polygon fill="white" stroke="#666666" points="237.5,-58 136.75,-58 136.75,-38 237.5,-38 237.5,-58"/>
<text text-anchor="middle" x="187.12" y="-44.5" font-family="Helvetica,sans-Serif" font-size="10.00">AsyncFw::Rrd::Rrd</text>
</a>
</g>
</g>
<!-- Node1&#45;&gt;Node2 -->
<g id="edge1_Node000001_Node000002" class="edge">
<title>Node1&#45;&gt;Node2</title>
<g id="a_edge1_Node000001_Node000002"><a xlink:title=" ">
<path fill="none" stroke="#63b8ff" d="M101.17,-36.02C109.02,-37.13 117.2,-38.28 125.27,-39.42"/>
<polygon fill="#63b8ff" stroke="#63b8ff" points="124.65,-42.87 135.04,-40.8 125.62,-35.93 124.65,-42.87"/>
</a>
</g>
</g>
<!-- Node8 -->
<g id="Node000008" class="node">
<title>Node8</title>
<g id="a_Node000008"><a xlink:href="classAsyncFw_1_1Rrd.html#a330145de892c6f5e916d7dda15aeedfc" target="_top" xlink:title="Returns the absolute maximum capability size (total slots) configured for this circular ring buffer l...">
<polygon fill="white" stroke="#666666" points="389.62,-20 286.62,-20 286.62,0 389.62,0 389.62,-20"/>
<text text-anchor="middle" x="338.12" y="-6.5" font-family="Helvetica,sans-Serif" font-size="10.00">AsyncFw::Rrd::size</text>
</a>
</g>
</g>
<!-- Node1&#45;&gt;Node8 -->
<g id="edge11_Node000001_Node000008" class="edge">
<title>Node1&#45;&gt;Node8</title>
<g id="a_edge11_Node000001_Node000008"><a xlink:title=" ">
<path fill="none" stroke="#63b8ff" d="M101.15,-25.69C149.46,-22.48 222.93,-17.59 275.04,-14.13"/>
<polygon fill="#63b8ff" stroke="#63b8ff" points="275.22,-17.62 284.97,-13.47 274.76,-10.64 275.22,-17.62"/>
</a>
</g>
</g>
<!-- Node3 -->
<g id="Node000003" class="node">
<title>Node3</title>
<g id="a_Node000003"><a xlink:href="classAsyncFw_1_1Thread.html#a0a3bd6a54db28f73ff59cfea6a40b07a" target="_top" xlink:title="Returns a pointer to the AsyncFw::Thread that manages the currently executing thread.">
<polygon fill="white" stroke="#666666" points="402.75,-58 273.5,-58 273.5,-38 402.75,-38 402.75,-58"/>
<text text-anchor="middle" x="338.12" y="-44.5" font-family="Helvetica,sans-Serif" font-size="10.00">AsyncFw::Thread::current</text>
</a>
</g>
</g>
<!-- Node2&#45;&gt;Node3 -->
<g id="edge2_Node000002_Node000003" class="edge">
<title>Node2&#45;&gt;Node3</title>
<g id="a_edge2_Node000002_Node000003"><a xlink:title=" ">
<path fill="none" stroke="#63b8ff" d="M237.74,-48C245.45,-48 253.56,-48 261.69,-48"/>
<polygon fill="#63b8ff" stroke="#63b8ff" points="261.64,-51.5 271.64,-48 261.64,-44.5 261.64,-51.5"/>
</a>
</g>
</g>
<!-- Node2&#45;&gt;Node8 -->
<g id="edge10_Node000002_Node000008" class="edge">
<title>Node2&#45;&gt;Node8</title>
<g id="a_edge10_Node000002_Node000008"><a xlink:title=" ">
<path fill="none" stroke="#63b8ff" d="M229.23,-37.52C246.5,-33.11 266.78,-27.94 285.06,-23.28"/>
<polygon fill="#63b8ff" stroke="#63b8ff" points="285.86,-26.69 294.68,-20.82 284.13,-19.9 285.86,-26.69"/>
</a>
</g>
</g>
<!-- Node4 -->
<g id="Node000004" class="node">
<title>Node4</title>
<g id="a_Node000004"><a xlink:href="classAsyncFw_1_1AbstractThread.html#af33c5949edb374d673a7a9ac0c81ec32" target="_top" xlink:title="Returns a pointer to the AsyncFw::AbstractThread that manages the currently executing thread.">
<polygon fill="white" stroke="#666666" points="568.75,-95 438.75,-95 438.75,-63 568.75,-63 568.75,-95"/>
<text text-anchor="start" x="446.75" y="-81.5" font-family="Helvetica,sans-Serif" font-size="10.00">AsyncFw::AbstractThread</text>
<text text-anchor="middle" x="503.75" y="-69.5" font-family="Helvetica,sans-Serif" font-size="10.00">::current</text>
</a>
</g>
</g>
<!-- Node3&#45;&gt;Node4 -->
<g id="edge3_Node000003_Node000004" class="edge">
<title>Node3&#45;&gt;Node4</title>
<g id="a_edge3_Node000003_Node000004"><a xlink:title=" ">
<path fill="none" stroke="#63b8ff" d="M394.52,-58.5C405.09,-60.5 416.32,-62.62 427.39,-64.72"/>
<polygon fill="#63b8ff" stroke="#63b8ff" points="426.41,-68.1 436.89,-66.52 427.71,-61.22 426.41,-68.1"/>
</a>
</g>
</g>
<!-- Node7 -->
<g id="Node000007" class="node">
<title>Node7</title>
<g id="a_Node000007"><a xlink:href="classAsyncFw_1_1Thread.html#afc5e422090767dd84020381fb9a4d490" target="_top" xlink:title="Constructs a thread.">
<polygon fill="white" stroke="#666666" points="568.38,-27 439.12,-27 439.12,-7 568.38,-7 568.38,-27"/>
<text text-anchor="middle" x="503.75" y="-13.5" font-family="Helvetica,sans-Serif" font-size="10.00">AsyncFw::Thread::Thread</text>
</a>
</g>
</g>
<!-- Node3&#45;&gt;Node7 -->
<g id="edge6_Node000003_Node000007" class="edge">
<title>Node3&#45;&gt;Node7</title>
<g id="a_edge6_Node000003_Node000007"><a xlink:title=" ">
<path fill="none" stroke="#63b8ff" d="M394.52,-37.5C407.98,-34.95 422.51,-32.2 436.42,-29.57"/>
<polygon fill="#63b8ff" stroke="#63b8ff" points="436.75,-33.07 445.92,-27.77 435.45,-26.19 436.75,-33.07"/>
</a>
</g>
</g>
<!-- Node5 -->
<g id="Node000005" class="node">
<title>Node5</title>
<g id="a_Node000005"><a xlink:href="classAsyncFw_1_1AbstractThread.html#a8c9202c90ac101522f26c4260cb01b59" target="_top" xlink:title="Constructs a thread.">
<polygon fill="white" stroke="#666666" points="734.75,-77 604.75,-77 604.75,-45 734.75,-45 734.75,-77"/>
<text text-anchor="start" x="612.75" y="-63.5" font-family="Helvetica,sans-Serif" font-size="10.00">AsyncFw::AbstractThread</text>
<text text-anchor="middle" x="669.75" y="-51.5" font-family="Helvetica,sans-Serif" font-size="10.00">::AbstractThread</text>
</a>
</g>
</g>
<!-- Node4&#45;&gt;Node5 -->
<g id="edge4_Node000004_Node000005" class="edge">
<title>Node4&#45;&gt;Node5</title>
<g id="a_edge4_Node000004_Node000005"><a xlink:title=" ">
<path fill="none" stroke="#63b8ff" d="M569.1,-71.94C576.96,-71.07 585.06,-70.19 593.08,-69.31"/>
<polygon fill="#63b8ff" stroke="#63b8ff" points="593.26,-72.81 602.82,-68.24 592.49,-65.85 593.26,-72.81"/>
</a>
</g>
</g>
<!-- Node6 -->
<g id="Node000006" class="node">
<title>Node6</title>
<g id="a_Node000006"><a xlink:href="classAsyncFw_1_1AbstractThread.html#a0cd916251e061aaf3d456575ef052edd" target="_top" xlink:title="Returns name of managed thread.">
<polygon fill="white" stroke="#666666" points="900.75,-55 770.75,-55 770.75,-23 900.75,-23 900.75,-55"/>
<text text-anchor="start" x="778.75" y="-41.5" font-family="Helvetica,sans-Serif" font-size="10.00">AsyncFw::AbstractThread</text>
<text text-anchor="middle" x="835.75" y="-29.5" font-family="Helvetica,sans-Serif" font-size="10.00">::name</text>
</a>
</g>
</g>
<!-- Node5&#45;&gt;Node6 -->
<g id="edge5_Node000005_Node000006" class="edge">
<title>Node5&#45;&gt;Node6</title>
<g id="a_edge5_Node000005_Node000006"><a xlink:title=" ">
<path fill="none" stroke="#63b8ff" d="M735.1,-52.37C742.96,-51.31 751.06,-50.23 759.08,-49.15"/>
<polygon fill="#63b8ff" stroke="#63b8ff" points="759.37,-52.64 768.82,-47.84 758.44,-45.71 759.37,-52.64"/>
</a>
</g>
</g>
<!-- Node7&#45;&gt;Node5 -->
<g id="edge7_Node000007_Node000005" class="edge">
<title>Node7&#45;&gt;Node5</title>
<g id="a_edge7_Node000007_Node000005"><a xlink:title=" ">
<path fill="none" stroke="#63b8ff" d="M543.62,-27.43C559.46,-31.68 578.3,-36.73 596.49,-41.61"/>
<polygon fill="#63b8ff" stroke="#63b8ff" points="595.38,-44.94 605.94,-44.15 597.19,-38.18 595.38,-44.94"/>
</a>
</g>
</g>
<!-- Node7&#45;&gt;Node6 -->
<g id="edge8_Node000007_Node000006" class="edge">
<title>Node7&#45;&gt;Node6</title>
<g id="a_edge8_Node000007_Node000006"><a xlink:title=" ">
<path fill="none" stroke="#63b8ff" d="M568.77,-21.27C623.24,-24.9 701.57,-30.12 759.13,-33.96"/>
<polygon fill="#63b8ff" stroke="#63b8ff" points="758.63,-37.43 768.84,-34.61 759.09,-30.45 758.63,-37.43"/>
</a>
</g>
</g>
<!-- Node7&#45;&gt;Node7 -->
<g id="edge9_Node000007_Node000007" class="edge">
<title>Node7&#45;&gt;Node7</title>
<g id="a_edge9_Node000007_Node000007"><a xlink:title=" ">
<path fill="none" stroke="#63b8ff" d="M477.43,-27.34C466.19,-35.98 474.96,-45 503.75,-45 519.49,-45 529.25,-42.3 533.02,-38.44"/>
<polygon fill="#63b8ff" stroke="#63b8ff" points="536.41,-37.56 530.46,-28.8 529.65,-39.37 536.41,-37.56"/>
</a>
</g>
</g>
</g>
</svg>
