<?xml version="1.0" encoding="UTF-8" standalone="no"?>
<!DOCTYPE svg PUBLIC "-//W3C//DTD SVG 1.1//EN"
 "http://www.w3.org/Graphics/SVG/1.1/DTD/svg11.dtd">
<!-- Generated by graphviz version 12.2.1 (20241206.2353)
 -->
<!-- Title: AsyncFw::Rrd::Rrd Pages: 1 -->
<svg width="743pt" height="115pt"
 viewBox="0.00 0.00 742.75 115.00" xmlns="http://www.w3.org/2000/svg" xmlns:xlink="http://www.w3.org/1999/xlink">
<g id="graph0" class="graph" transform="scale(1 1) rotate(0) translate(4 111)">
<title>AsyncFw::Rrd::Rrd</title>
<!-- Node1 -->
<g id="Node000001" class="node">
<title>Node1</title>
<g id="a_Node000001"><a xlink:title="Constructs a minimal in&#45;memory anonymous circular database with default system tracking intervals.">
<polygon fill="#999999" stroke="#666666" points="100.75,-39 0,-39 0,-19 100.75,-19 100.75,-39"/>
<text text-anchor="middle" x="50.38" y="-25.5" font-family="Helvetica,sans-Serif" font-size="10.00">AsyncFw::Rrd::Rrd</text>
</a>
</g>
</g>
<!-- Node2 -->
<g id="Node000002" class="node">
<title>Node2</title>
<g id="a_Node000002"><a xlink:href="classAsyncFw_1_1Rrd.html#a2fd20dd3470a11ef179577c565c333f1" target="_top" xlink:title="Constructs a persistent circular archive database with physical disk backing.">
<polygon fill="white" stroke="#666666" points="237.5,-58 136.75,-58 136.75,-38 237.5,-38 237.5,-58"/>
<text text-anchor="middle" x="187.12" y="-44.5" font-family="Helvetica,sans-Serif" font-size="10.00">AsyncFw::Rrd::Rrd</text>
</a>
</g>
</g>
<!-- Node1&#45;&gt;Node2 -->
<g id="edge1_Node000001_Node000002" class="edge">
<title>Node1&#45;&gt;Node2</title>
<g id="a_edge1_Node000001_Node000002"><a xlink:title=" ">
<path fill="none" stroke="#63b8ff" d="M101.17,-36.02C109.02,-37.13 117.2,-38.28 125.27,-39.42"/>
<polygon fill="#63b8ff" stroke="#63b8ff" points="124.65,-42.87 135.04,-40.8 125.62,-35.93 124.65,-42.87"/>
</a>
</g>
</g>
<!-- Node8 -->
<g id="Node000008" class="node">
<title>Node8</title>
<g id="a_Node000008"><a xlink:href="classAsyncFw_1_1Rrd.html#a330145de892c6f5e916d7dda15aeedfc" target="_top" xlink:title="Returns the absolute maximum capability size (total slots) configured for this circular ring buffer l...">
<polygon fill="white" stroke="#666666" points="389.62,-20 286.62,-20 286.62,0 389.62,0 389.62,-20"/>
<text text-anchor="middle" x="338.12" y="-6.5" font-family="Helvetica,sans-Serif" font-size="10.00">AsyncFw::Rrd::size</text>
</a>
</g>
</g>
<!-- Node1&#45;&gt;Node8 -->
<g id="edge11_Node000001_Node000008" class="edge">
<title>Node1&#45;&gt;Node8</title>
<g id="a_edge11_Node000001_Node000008"><a xlink:title=" ">
<path fill="none" stroke="#63b8ff" d="M101.15,-25.69C149.46,-22.48 222.93,-17.59 275.04,-14.13"/>
<polygon fill="#63b8ff" stroke="#63b8ff" points="275.22,-17.62 284.97,-13.47 274.76,-10.64 275.22,-17.62"/>
</a>
</g>
</g>
<!-- Node3 -->
<g id="Node000003" class="node">
<title>Node3</title>
<g id="a_Node000003"><a xlink:href="classAsyncFw_1_1Thread.html#a0a3bd6a54db28f73ff59cfea6a40b07a" target="_top" xlink:title="Returns a pointer to the AsyncFw::Thread that manages the currently executing thread.">
<polygon fill="white" stroke="#666666" points="402.75,-58 273.5,-58 273.5,-38 402.75,-38 402.75,-58"/>
<text text-anchor="middle" x="338.12" y="-44.5" font-family="Helvetica,sans-Serif" font-size="10.00">AsyncFw::Thread::current</text>
</a>
</g>
</g>
<!-- Node2&#45;&gt;Node3 -->
<g id="edge2_Node000002_Node000003" class="edge">
<title>Node2&#45;&gt;Node3</title>
<g id="a_edge2_Node000002_Node000003"><a xlink:title=" ">
<path fill="none" stroke="#63b8ff" d="M237.74,-48C245.45,-48 253.56,-48 261.69,-48"/>
<polygon fill="#63b8ff" stroke="#63b8ff" points="261.64,-51.5 271.64,-48 261.64,-44.5 261.64,-51.5"/>
</a>
</g>
</g>
<!-- Node2&#45;&gt;Node8 -->
<g id="edge10_Node000002_Node000008" class="edge">
<title>Node2&#45;&gt;Node8</title>
<g id="a_edge10_Node000002_Node000008"><a xlink:title=" ">
<path fill="none" stroke="#63b8ff" d="M229.23,-37.52C246.5,-33.11 266.78,-27.94 285.06,-23.28"/>
<polygon fill="#63b8ff" stroke="#63b8ff" points="285.86,-26.69 294.68,-20.82 284.13,-19.9 285.86,-26.69"/>
</a>
</g>
</g>
<!-- Node4 -->
<g id="Node000004" class="node">
<title>Node4</title>
<g id="a_Node000004"><a xlink:href="classAsyncFw_1_1AbstractThread.html#a09cdd1972b9416a7ddb2a1921f36938c" target="_top" xlink:title="Returns a pointer to the AsyncFw::AbstractThread that manages the currently executing thread.">
<polygon fill="white" stroke="#666666" points="568.75,-95 438.75,-95 438.75,-63 568.75,-63 568.75,-95"/>
<text text-anchor="start" x="446.75" y="-81.5" font-family="Helvetica,sans-Serif" font-size="10.00">AsyncFw::AbstractThread</text>
<text text-anchor="middle" x="503.75" y="-69.5" font-family="Helvetica,sans-Serif" font-size="10.00">::current</text>
</a>
</g>
</g>
<!-- Node3&#45;&gt;Node4 -->
<g id="edge3_Node000003_Node000004" class="edge">
<title>Node3&#45;&gt;Node4</title>
<g id="a_edge3_Node000003_Node000004"><a xlink:title=" ">
<path fill="none" stroke="#63b8ff" d="M394.52,-58.5C405.09,-60.5 416.32,-62.62 427.39,-64.72"/>
<polygon fill="#63b8ff" stroke="#63b8ff" points="426.41,-68.1 436.89,-66.52 427.71,-61.22 426.41,-68.1"/>
</a>
</g>
</g>
<!-- Node6 -->
<g id="Node000006" class="node">
<title>Node6</title>
<g id="a_Node000006"><a xlink:href="classAsyncFw_1_1Thread.html#afc5e422090767dd84020381fb9a4d490" target="_top" xlink:title="Constructs a thread.">
<polygon fill="white" stroke="#666666" points="568.38,-27 439.12,-27 439.12,-7 568.38,-7 568.38,-27"/>
<text text-anchor="middle" x="503.75" y="-13.5" font-family="Helvetica,sans-Serif" font-size="10.00">AsyncFw::Thread::Thread</text>
</a>
</g>
</g>
<!-- Node3&#45;&gt;Node6 -->
<g id="edge6_Node000003_Node000006" class="edge">
<title>Node3&#45;&gt;Node6</title>
<g id="a_edge6_Node000003_Node000006"><a xlink:title=" ">
<path fill="none" stroke="#63b8ff" d="M394.52,-37.5C407.98,-34.95 422.51,-32.2 436.42,-29.57"/>
<polygon fill="#63b8ff" stroke="#63b8ff" points="436.75,-33.07 445.92,-27.77 435.45,-26.19 436.75,-33.07"/>
</a>
</g>
</g>
<!-- Node5 -->
<g id="Node000005" class="node">
<title>Node5</title>
<g id="a_Node000005"><a xlink:href="classAsyncFw_1_1AbstractThread.html#ac8be1c406c4235ff1dabc1cdb4ac04ba" target="_top" xlink:title="Constructs a thread.">
<polygon fill="white" stroke="#666666" points="734.75,-89 604.75,-89 604.75,-57 734.75,-57 734.75,-89"/>
<text text-anchor="start" x="612.75" y="-75.5" font-family="Helvetica,sans-Serif" font-size="10.00">AsyncFw::AbstractThread</text>
<text text-anchor="middle" x="669.75" y="-63.5" font-family="Helvetica,sans-Serif" font-size="10.00">::AbstractThread</text>
</a>
</g>
</g>
<!-- Node4&#45;&gt;Node5 -->
<g id="edge4_Node000004_Node000005" class="edge">
<title>Node4&#45;&gt;Node5</title>
<g id="a_edge4_Node000004_Node000005"><a xlink:title=" ">
<path fill="none" stroke="#63b8ff" d="M569.1,-76.65C576.96,-76.36 585.06,-76.06 593.08,-75.77"/>
<polygon fill="#63b8ff" stroke="#63b8ff" points="592.94,-79.28 602.81,-75.41 592.69,-72.28 592.94,-79.28"/>
</a>
</g>
</g>
<!-- Node5&#45;&gt;Node5 -->
<g id="edge5_Node000005_Node000005" class="edge">
<title>Node5&#45;&gt;Node5</title>
<g id="a_edge5_Node000005_Node000005"><a xlink:title=" ">
<path fill="none" stroke="#63b8ff" d="M640.11,-89.44C634.58,-98.58 644.46,-107 669.75,-107 683.58,-107 692.8,-104.48 697.41,-100.71"/>
<polygon fill="#63b8ff" stroke="#63b8ff" points="700.85,-101.39 699.12,-90.93 693.95,-100.18 700.85,-101.39"/>
</a>
</g>
</g>
<!-- Node6&#45;&gt;Node5 -->
<g id="edge7_Node000006_Node000005" class="edge">
<title>Node6&#45;&gt;Node5</title>
<g id="a_edge7_Node000006_Node000005"><a xlink:title=" ">
<path fill="none" stroke="#63b8ff" d="M535.21,-27.4C556.21,-34.57 584.78,-44.33 610.1,-52.97"/>
<polygon fill="#63b8ff" stroke="#63b8ff" points="608.7,-56.19 619.3,-56.11 610.96,-49.57 608.7,-56.19"/>
</a>
</g>
</g>
<!-- Node6&#45;&gt;Node6 -->
<g id="edge9_Node000006_Node000006" class="edge">
<title>Node6&#45;&gt;Node6</title>
<g id="a_edge9_Node000006_Node000006"><a xlink:title=" ">
<path fill="none" stroke="#63b8ff" d="M477.43,-27.34C466.19,-35.98 474.96,-45 503.75,-45 519.49,-45 529.25,-42.3 533.02,-38.44"/>
<polygon fill="#63b8ff" stroke="#63b8ff" points="536.41,-37.56 530.46,-28.8 529.65,-39.37 536.41,-37.56"/>
</a>
</g>
</g>
<!-- Node7 -->
<g id="Node000007" class="node">
<title>Node7</title>
<g id="a_Node000007"><a xlink:href="classAsyncFw_1_1AbstractThread.html#a8ebcc00d7ecbc1f9a2cc0c44d52ee071" target="_top" xlink:title="Returns name of managed thread.">
<polygon fill="white" stroke="#666666" points="734.75,-33 604.75,-33 604.75,-1 734.75,-1 734.75,-33"/>
<text text-anchor="start" x="612.75" y="-19.5" font-family="Helvetica,sans-Serif" font-size="10.00">AsyncFw::AbstractThread</text>
<text text-anchor="middle" x="669.75" y="-7.5" font-family="Helvetica,sans-Serif" font-size="10.00">::name</text>
</a>
</g>
</g>
<!-- Node6&#45;&gt;Node7 -->
<g id="edge8_Node000006_Node000007" class="edge">
<title>Node6&#45;&gt;Node7</title>
<g id="a_edge8_Node000006_Node000007"><a xlink:title=" ">
<path fill="none" stroke="#63b8ff" d="M568.63,-17C576.63,-17 584.89,-17 593.05,-17"/>
<polygon fill="#63b8ff" stroke="#63b8ff" points="592.99,-20.5 602.99,-17 592.99,-13.5 592.99,-20.5"/>
</a>
</g>
</g>
</g>
</svg>
