<?xml version="1.0" encoding="UTF-8" standalone="no"?>
<!DOCTYPE svg PUBLIC "-//W3C//DTD SVG 1.1//EN"
 "http://www.w3.org/Graphics/SVG/1.1/DTD/svg11.dtd">
<!-- Generated by graphviz version 12.2.1 (20241206.2353)
 -->
<!-- Title: AsyncFw::DataArrayTcpClient Pages: 1 -->
<svg width="1063pt" height="140pt"
 viewBox="0.00 0.00 1062.50 140.00" xmlns="http://www.w3.org/2000/svg" xmlns:xlink="http://www.w3.org/1999/xlink">
<g id="graph0" class="graph" transform="scale(1 1) rotate(0) translate(4 136)">
<title>AsyncFw::DataArrayTcpClient</title>
<!-- Node1 -->
<g id="Node000001" class="node">
<title>Node1</title>
<g id="a_Node000001"><a xlink:title="The DataArrayTcpClient class.">
<polygon fill="#999999" stroke="#666666" points="1054.5,-47 906.5,-47 906.5,-27 1054.5,-27 1054.5,-47"/>
<text text-anchor="middle" x="980.5" y="-33.5" font-family="Helvetica,sans-Serif" font-size="10.00">AsyncFw::DataArrayTcpClient</text>
</a>
</g>
</g>
<!-- Node2 -->
<g id="Node000002" class="node">
<title>Node2</title>
<g id="a_Node000002"><a xlink:href="classAsyncFw_1_1DataArrayAbstractTcp.html" target="_top" xlink:title="The DataArrayAbstractTcp class.">
<polygon fill="white" stroke="#666666" points="869.5,-74 710.25,-74 710.25,-54 869.5,-54 869.5,-74"/>
<text text-anchor="middle" x="789.88" y="-60.5" font-family="Helvetica,sans-Serif" font-size="10.00">AsyncFw::DataArrayAbstractTcp</text>
</a>
</g>
</g>
<!-- Node2&#45;&gt;Node1 -->
<g id="edge1_Node000001_Node000002" class="edge">
<title>Node2&#45;&gt;Node1</title>
<g id="a_edge1_Node000001_Node000002"><a xlink:title=" ">
<path fill="none" stroke="#63b8ff" d="M875.24,-51.92C885.62,-50.44 896.15,-48.93 906.34,-47.47"/>
<polygon fill="#63b8ff" stroke="#63b8ff" points="874.97,-48.43 865.57,-53.31 875.97,-55.36 874.97,-48.43"/>
</a>
</g>
</g>
<!-- Node3 -->
<g id="Node000003" class="node">
<title>Node3</title>
<g id="a_Node000003"><a xlink:href="classAsyncFw_1_1AbstractThreadPool.html" target="_top" xlink:title="Abstract base class for creating and managing thread pools.">
<polygon fill="white" stroke="#666666" points="473,-130 323.5,-130 323.5,-110 473,-110 473,-130"/>
<text text-anchor="middle" x="398.25" y="-116.5" font-family="Helvetica,sans-Serif" font-size="10.00">AsyncFw::AbstractThreadPool</text>
</a>
</g>
</g>
<!-- Node3&#45;&gt;Node2 -->
<g id="edge2_Node000002_Node000003" class="edge">
<title>Node3&#45;&gt;Node2</title>
<g id="a_edge2_Node000002_Node000003"><a xlink:title=" ">
<path fill="none" stroke="#63b8ff" d="M484.8,-108.97C543.28,-101.27 622.53,-90.53 692.25,-80 703.6,-78.29 715.68,-76.36 727.32,-74.46"/>
<polygon fill="#63b8ff" stroke="#63b8ff" points="484.35,-105.5 474.89,-110.27 485.26,-112.44 484.35,-105.5"/>
</a>
</g>
</g>
<!-- Node4 -->
<g id="Node000004" class="node">
<title>Node4</title>
<g id="a_Node000004"><a xlink:href="classAsyncFw_1_1AbstractThread.html" target="_top" xlink:title="The AbstractThread class provides the base functionality for thread management.">
<polygon fill="white" stroke="#666666" points="137.88,-130 7.88,-130 7.88,-110 137.88,-110 137.88,-130"/>
<text text-anchor="middle" x="72.88" y="-116.5" font-family="Helvetica,sans-Serif" font-size="10.00">AsyncFw::AbstractThread</text>
</a>
</g>
</g>
<!-- Node4&#45;&gt;Node3 -->
<g id="edge3_Node000003_Node000004" class="edge">
<title>Node4&#45;&gt;Node3</title>
<g id="a_edge3_Node000003_Node000004"><a xlink:title=" ">
<path fill="none" stroke="#9a32cd" stroke-dasharray="5,2" d="M149.39,-120C201.75,-120 271.15,-120 323.19,-120"/>
<polygon fill="#9a32cd" stroke="#9a32cd" points="149.66,-116.5 139.66,-120 149.66,-123.5 149.66,-116.5"/>
</a>
</g>
<text text-anchor="middle" x="228.62" y="-122.5" font-family="Helvetica,sans-Serif" font-size="10.00" fill="grey"> thread_</text>
</g>
<!-- Node5 -->
<g id="Node000005" class="node">
<title>Node5</title>
<g id="a_Node000005"><a xlink:href="classAsyncFw_1_1FunctionConnector.html" target="_top" xlink:title=" ">
<polygon fill="white" stroke="#666666" points="485,-92 311.5,-92 311.5,-36 485,-36 485,-92"/>
<text text-anchor="start" x="319.5" y="-78.5" font-family="Helvetica,sans-Serif" font-size="10.00">AsyncFw::FunctionConnector</text>
<text text-anchor="start" x="319.5" y="-66.5" font-family="Helvetica,sans-Serif" font-size="10.00">&lt; const AsyncFw::DataArraySocket</text>
<text text-anchor="start" x="319.5" y="-54.5" font-family="Helvetica,sans-Serif" font-size="10.00"> *, const AsyncFw::DataArray</text>
<text text-anchor="middle" x="398.25" y="-42.5" font-family="Helvetica,sans-Serif" font-size="10.00"> *, uint32_t &gt;</text>
</a>
</g>
</g>
<!-- Node5&#45;&gt;Node2 -->
<g id="edge4_Node000002_Node000005" class="edge">
<title>Node5&#45;&gt;Node2</title>
<g id="a_edge4_Node000002_Node000005"><a xlink:title=" ">
<path fill="none" stroke="#9a32cd" stroke-dasharray="5,2" d="M496.47,-64C562.39,-64 648.42,-64 710.06,-64"/>
<polygon fill="#9a32cd" stroke="#9a32cd" points="496.75,-60.5 486.75,-64 496.75,-67.5 496.75,-60.5"/>
</a>
</g>
<text text-anchor="middle" x="597.62" y="-66.5" font-family="Helvetica,sans-Serif" font-size="10.00" fill="grey"> received</text>
</g>
<!-- Node6 -->
<g id="Node000006" class="node">
<title>Node6</title>
<g id="a_Node000006"><a xlink:href="classAsyncFw_1_1FunctionConnector.html" target="_top" xlink:title="Provides a thread&#45;safe, publisher&#45;subscriber mechanism to establish sender&#45;to&#45;receivers connections.">
<polygon fill="white" stroke="#666666" points="145.75,-48 0,-48 0,-16 145.75,-16 145.75,-48"/>
<text text-anchor="start" x="8" y="-34.5" font-family="Helvetica,sans-Serif" font-size="10.00">AsyncFw::FunctionConnector</text>
<text text-anchor="middle" x="72.88" y="-22.5" font-family="Helvetica,sans-Serif" font-size="10.00">&lt; Args &gt;</text>
</a>
</g>
</g>
<!-- Node6&#45;&gt;Node5 -->
<g id="edge5_Node000005_Node000006" class="edge">
<title>Node6&#45;&gt;Node5</title>
<g id="a_edge5_Node000005_Node000006"><a xlink:title=" ">
<path fill="none" stroke="orange" stroke-dasharray="5,2" d="M157.47,-40.27C204.7,-44.95 263.62,-50.78 311.24,-55.49"/>
<polygon fill="orange" stroke="orange" points="157.85,-36.79 147.55,-39.29 157.16,-43.76 157.85,-36.79"/>
</a>
</g>
<text text-anchor="start" x="163.75" y="-80.15" font-family="Helvetica,sans-Serif" font-size="10.00" fill="grey"> &lt; const AsyncFw::DataArray</text>
<text text-anchor="start" x="163.75" y="-68.15" font-family="Helvetica,sans-Serif" font-size="10.00" fill="grey">Socket *, const AsyncFw</text>
<text text-anchor="middle" x="228.62" y="-56.15" font-family="Helvetica,sans-Serif" font-size="10.00" fill="grey">::DataArray *, uint32_t &gt;</text>
</g>
<!-- Node7 -->
<g id="Node000007" class="node">
<title>Node7</title>
<g id="a_Node000007"><a xlink:href="classAsyncFw_1_1FunctionConnector.html" target="_top" xlink:title=" ">
<polygon fill="white" stroke="#666666" points="692.25,-32 503,-32 503,0 692.25,0 692.25,-32"/>
<text text-anchor="start" x="511" y="-18.5" font-family="Helvetica,sans-Serif" font-size="10.00">AsyncFw::FunctionConnector</text>
<text text-anchor="middle" x="597.62" y="-6.5" font-family="Helvetica,sans-Serif" font-size="10.00">&lt; const AsyncFw::DataArraySocket * &gt;</text>
</a>
</g>
</g>
<!-- Node6&#45;&gt;Node7 -->
<g id="edge7_Node000007_Node000006" class="edge">
<title>Node6&#45;&gt;Node7</title>
<g id="a_edge7_Node000007_Node000006"><a xlink:title=" ">
<path fill="none" stroke="orange" stroke-dasharray="5,2" d="M156.61,-13.84C159.01,-13.53 161.4,-13.25 163.75,-13 279.98,-0.85 414.72,-4.57 502.6,-9.36"/>
<polygon fill="orange" stroke="orange" points="156.17,-10.37 146.78,-15.28 157.18,-17.29 156.17,-10.37"/>
</a>
</g>
<text text-anchor="start" x="163.75" y="-27.5" font-family="Helvetica,sans-Serif" font-size="10.00" fill="grey"> &lt; const AsyncFw::DataArray</text>
<text text-anchor="middle" x="228.62" y="-15.5" font-family="Helvetica,sans-Serif" font-size="10.00" fill="grey">Socket * &gt;</text>
</g>
<!-- Node7&#45;&gt;Node1 -->
<g id="edge6_Node000001_Node000007" class="edge">
<title>Node7&#45;&gt;Node1</title>
<g id="a_edge6_Node000001_Node000007"><a xlink:title=" ">
<path fill="none" stroke="#9a32cd" stroke-dasharray="5,2" d="M703.69,-21.79C768.03,-25.34 848.77,-29.79 906.23,-32.96"/>
<polygon fill="#9a32cd" stroke="#9a32cd" points="703.97,-18.3 693.8,-21.25 703.59,-25.29 703.97,-18.3"/>
</a>
</g>
<text text-anchor="middle" x="789.88" y="-33.43" font-family="Helvetica,sans-Serif" font-size="10.00" fill="grey"> connectionStateChanged</text>
</g>
</g>
</svg>
