<?xml version="1.0" encoding="UTF-8" standalone="no"?>
<!DOCTYPE svg PUBLIC "-//W3C//DTD SVG 1.1//EN"
 "http://www.w3.org/Graphics/SVG/1.1/DTD/svg11.dtd">
<!-- Generated by graphviz version 14.1.3 (20260303.0454)
 -->
<!-- Title: AsyncFw::AbstractSocket::close Pages: 1 -->
<svg width="655pt" height="190pt"
 viewBox="0.00 0.00 655.00 190.00" xmlns="http://www.w3.org/2000/svg" xmlns:xlink="http://www.w3.org/1999/xlink">
<g id="graph0" class="graph" transform="scale(1 1) rotate(0) translate(4 186)">
<title>AsyncFw::AbstractSocket::close</title>
<!-- Node1 -->
<g id="Node000001" class="node">
<title>Node1</title>
<g id="a_Node000001"><a xlink:title="Closes the network connection and unsubscribes from thread polling events.">
<polygon fill="#999999" stroke="#666666" points="646.75,-107 516,-107 516,-75 646.75,-75 646.75,-107"/>
<text xml:space="preserve" text-anchor="start" x="524" y="-93.5" font-family="Helvetica,sans-Serif" font-size="10.00">AsyncFw::AbstractSocket</text>
<text xml:space="preserve" text-anchor="middle" x="581.38" y="-81.5" font-family="Helvetica,sans-Serif" font-size="10.00">::close</text>
</a>
</g>
</g>
<!-- Node2 -->
<g id="Node000002" class="node">
<title>Node2</title>
<g id="a_Node000002"><a xlink:href="classAsyncFw_1_1AbstractTlsSocket.html#a46dbd8e4895445214a4f46ee46433d6c" target="_top" xlink:title="Immediately releases OpenSSL session pointers and forcefully closes the system&#45;level descriptor.">
<polygon fill="white" stroke="#666666" points="480,-132 335.75,-132 335.75,-100 480,-100 480,-132"/>
<text xml:space="preserve" text-anchor="start" x="343.75" y="-118.5" font-family="Helvetica,sans-Serif" font-size="10.00">AsyncFw::AbstractTlsSocket</text>
<text xml:space="preserve" text-anchor="middle" x="407.88" y="-106.5" font-family="Helvetica,sans-Serif" font-size="10.00">::close</text>
</a>
</g>
</g>
<!-- Node1&#45;&gt;Node2 -->
<g id="edge1_Node000001_Node000002" class="edge">
<title>Node1&#45;&gt;Node2</title>
<g id="a_edge1_Node000001_Node000002"><a xlink:title=" ">
<path fill="none" stroke="#63b8ff" d="M504.37,-102.08C496.4,-103.24 488.32,-104.42 480.4,-105.57"/>
<polygon fill="#63b8ff" stroke="#63b8ff" points="504.65,-105.58 514.04,-100.67 503.64,-98.65 504.65,-105.58"/>
</a>
</g>
</g>
<!-- Node7 -->
<g id="Node000007" class="node">
<title>Node7</title>
<g id="a_Node000007"><a xlink:href="classAsyncFw_1_1AbstractSocket.html#a73a200f0008dbf9f820bdb2b8a0054cf" target="_top" xlink:title="Schedules the socket for deferred asynchronous destruction.">
<polygon fill="white" stroke="#666666" points="473.25,-82 342.5,-82 342.5,-50 473.25,-50 473.25,-82"/>
<text xml:space="preserve" text-anchor="start" x="350.5" y="-68.5" font-family="Helvetica,sans-Serif" font-size="10.00">AsyncFw::AbstractSocket</text>
<text xml:space="preserve" text-anchor="middle" x="407.88" y="-56.5" font-family="Helvetica,sans-Serif" font-size="10.00">::destroy</text>
</a>
</g>
</g>
<!-- Node1&#45;&gt;Node7 -->
<g id="edge7_Node000001_Node000007" class="edge">
<title>Node1&#45;&gt;Node7</title>
<g id="a_edge7_Node000001_Node000007"><a xlink:title=" ">
<path fill="none" stroke="#63b8ff" d="M504.44,-79.93C494.13,-78.43 483.61,-76.89 473.52,-75.42"/>
<polygon fill="#63b8ff" stroke="#63b8ff" points="503.64,-83.35 514.04,-81.33 504.65,-76.42 503.64,-83.35"/>
</a>
</g>
</g>
<!-- Node3 -->
<g id="Node000003" class="node">
<title>Node3</title>
<g id="a_Node000003"><a xlink:href="classAsyncFw_1_1AbstractTlsSocket.html#a57ac6daff9926cf631abcd1e19073cc8" target="_top" xlink:title="Core internal event handler reacting to raw descriptor readiness signals.">
<polygon fill="white" stroke="#666666" points="299.75,-182 155.5,-182 155.5,-150 299.75,-150 299.75,-182"/>
<text xml:space="preserve" text-anchor="start" x="163.5" y="-168.5" font-family="Helvetica,sans-Serif" font-size="10.00">AsyncFw::AbstractTlsSocket</text>
<text xml:space="preserve" text-anchor="middle" x="227.62" y="-156.5" font-family="Helvetica,sans-Serif" font-size="10.00">::activateEvent</text>
</a>
</g>
</g>
<!-- Node2&#45;&gt;Node3 -->
<g id="edge2_Node000002_Node000003" class="edge">
<title>Node2&#45;&gt;Node3</title>
<g id="a_edge2_Node000002_Node000003"><a xlink:title=" ">
<path fill="none" stroke="#63b8ff" d="M337.75,-135.39C321.13,-140.05 303.53,-144.99 287.43,-149.51"/>
<polygon fill="#63b8ff" stroke="#63b8ff" points="338.37,-138.85 347.05,-132.78 336.48,-132.11 338.37,-138.85"/>
</a>
</g>
</g>
<!-- Node5 -->
<g id="Node000005" class="node">
<title>Node5</title>
<g id="a_Node000005"><a xlink:href="classAsyncFw_1_1HttpSocket.html#a96932e5f6b5f84c4f204b0e6e4ef8472" target="_top" xlink:title="Immediately releases OpenSSL session pointers and forcefully closes the system&#45;level descriptor.">
<polygon fill="white" stroke="#666666" points="284,-132 171.25,-132 171.25,-100 284,-100 284,-132"/>
<text xml:space="preserve" text-anchor="start" x="179.25" y="-118.5" font-family="Helvetica,sans-Serif" font-size="10.00">AsyncFw::HttpSocket</text>
<text xml:space="preserve" text-anchor="middle" x="227.62" y="-106.5" font-family="Helvetica,sans-Serif" font-size="10.00">::close</text>
</a>
</g>
</g>
<!-- Node2&#45;&gt;Node5 -->
<g id="edge4_Node000002_Node000005" class="edge">
<title>Node2&#45;&gt;Node5</title>
<g id="a_edge4_Node000002_Node000005"><a xlink:title=" ">
<path fill="none" stroke="#63b8ff" d="M324.18,-116C310.73,-116 297.08,-116 284.48,-116"/>
<polygon fill="#63b8ff" stroke="#63b8ff" points="323.89,-119.5 333.89,-116 323.89,-112.5 323.89,-119.5"/>
</a>
</g>
</g>
<!-- Node6 -->
<g id="Node000006" class="node">
<title>Node6</title>
<g id="a_Node000006"><a xlink:href="classAsyncFw_1_1DataArrayAbstractTcp_1_1Thread.html#ab6df6de1f9828a772e5968477ce5dffa" target="_top" xlink:title="Performs cleanup routines and safely removes a socket from the thread loop.">
<polygon fill="white" stroke="#666666" points="299.75,-82 155.5,-82 155.5,-50 299.75,-50 299.75,-82"/>
<text xml:space="preserve" text-anchor="start" x="163.5" y="-68.5" font-family="Helvetica,sans-Serif" font-size="10.00">AsyncFw::DataArrayAbstract</text>
<text xml:space="preserve" text-anchor="middle" x="227.62" y="-56.5" font-family="Helvetica,sans-Serif" font-size="10.00">Tcp::Thread::destroySocket</text>
</a>
</g>
</g>
<!-- Node2&#45;&gt;Node6 -->
<g id="edge6_Node000002_Node000006" class="edge">
<title>Node2&#45;&gt;Node6</title>
<g id="a_edge6_Node000002_Node000006"><a xlink:title=" ">
<path fill="none" stroke="#63b8ff" d="M337.75,-96.61C321.13,-91.95 303.53,-87.01 287.43,-82.49"/>
<polygon fill="#63b8ff" stroke="#63b8ff" points="336.48,-99.89 347.05,-99.22 338.37,-93.15 336.48,-99.89"/>
</a>
</g>
</g>
<!-- Node4 -->
<g id="Node000004" class="node">
<title>Node4</title>
<g id="a_Node000004"><a xlink:href="classAsyncFw_1_1HttpSocket.html#ad51bb1bf5880c3037c7ad70231c0767d" target="_top" xlink:title="Core internal event handler reacting to raw descriptor readiness signals.">
<polygon fill="white" stroke="#666666" points="116.12,-157 3.38,-157 3.38,-125 116.12,-125 116.12,-157"/>
<text xml:space="preserve" text-anchor="start" x="11.38" y="-143.5" font-family="Helvetica,sans-Serif" font-size="10.00">AsyncFw::HttpSocket</text>
<text xml:space="preserve" text-anchor="middle" x="59.75" y="-131.5" font-family="Helvetica,sans-Serif" font-size="10.00">::activateEvent</text>
</a>
</g>
</g>
<!-- Node3&#45;&gt;Node4 -->
<g id="edge3_Node000003_Node000004" class="edge">
<title>Node3&#45;&gt;Node4</title>
<g id="a_edge3_Node000003_Node000004"><a xlink:title=" ">
<path fill="none" stroke="#63b8ff" d="M143.98,-153.54C134.66,-152.14 125.33,-150.73 116.47,-149.4"/>
<polygon fill="#63b8ff" stroke="#63b8ff" points="143.41,-157 153.82,-155.03 144.45,-150.08 143.41,-157"/>
</a>
</g>
</g>
<!-- Node5&#45;&gt;Node4 -->
<g id="edge5_Node000005_Node000004" class="edge">
<title>Node5&#45;&gt;Node4</title>
<g id="a_edge5_Node000005_Node000004"><a xlink:title=" ">
<path fill="none" stroke="#63b8ff" d="M159.64,-126.1C145.35,-128.25 130.4,-130.5 116.58,-132.59"/>
<polygon fill="#63b8ff" stroke="#63b8ff" points="160.07,-129.57 169.43,-124.62 159.02,-122.65 160.07,-129.57"/>
</a>
</g>
</g>
<!-- Node7&#45;&gt;Node6 -->
<g id="edge10_Node000007_Node000006" class="edge">
<title>Node7&#45;&gt;Node6</title>
<g id="a_edge10_Node000007_Node000006"><a xlink:title=" ">
<path fill="none" stroke="#63b8ff" d="M330.68,-66C320.52,-66 310.13,-66 300.06,-66"/>
<polygon fill="#63b8ff" stroke="#63b8ff" points="330.5,-69.5 340.5,-66 330.5,-62.5 330.5,-69.5"/>
</a>
</g>
</g>
<!-- Node8 -->
<g id="Node000008" class="node">
<title>Node8</title>
<g id="a_Node000008"><a xlink:href="classAsyncFw_1_1HttpSocket.html#a8268467d3581a4d393e9ccd288de32ff" target="_top" xlink:title="Schedules the socket for deferred asynchronous destruction.">
<polygon fill="white" stroke="#666666" points="284,-32 171.25,-32 171.25,0 284,0 284,-32"/>
<text xml:space="preserve" text-anchor="start" x="179.25" y="-18.5" font-family="Helvetica,sans-Serif" font-size="10.00">AsyncFw::HttpSocket</text>
<text xml:space="preserve" text-anchor="middle" x="227.62" y="-6.5" font-family="Helvetica,sans-Serif" font-size="10.00">::destroy</text>
</a>
</g>
</g>
<!-- Node7&#45;&gt;Node8 -->
<g id="edge8_Node000007_Node000008" class="edge">
<title>Node7&#45;&gt;Node8</title>
<g id="a_edge8_Node000007_Node000008"><a xlink:title=" ">
<path fill="none" stroke="#63b8ff" d="M337.69,-46.59C320.03,-41.64 301.28,-36.38 284.39,-31.64"/>
<polygon fill="#63b8ff" stroke="#63b8ff" points="336.48,-49.89 347.05,-49.22 338.37,-43.15 336.48,-49.89"/>
</a>
</g>
</g>
<!-- Node9 -->
<g id="Node000009" class="node">
<title>Node9</title>
<g id="a_Node000009"><a xlink:href="classAsyncFw_1_1HttpServer_1_1TcpSocket.html#a41557b69e30e25b97cbdda210afb7657" target="_top" xlink:title="Constructs a new TcpSocket associated with the parent server.">
<polygon fill="white" stroke="#666666" points="119.5,-32 0,-32 0,0 119.5,0 119.5,-32"/>
<text xml:space="preserve" text-anchor="start" x="8" y="-18.5" font-family="Helvetica,sans-Serif" font-size="10.00">AsyncFw::HttpServer</text>
<text xml:space="preserve" text-anchor="middle" x="59.75" y="-6.5" font-family="Helvetica,sans-Serif" font-size="10.00">::TcpSocket::TcpSocket</text>
</a>
</g>
</g>
<!-- Node8&#45;&gt;Node9 -->
<g id="edge9_Node000008_Node000009" class="edge">
<title>Node8&#45;&gt;Node9</title>
<g id="a_edge9_Node000008_Node000009"><a xlink:title=" ">
<path fill="none" stroke="#63b8ff" d="M159.59,-16C146.48,-16 132.82,-16 119.99,-16"/>
<polygon fill="#63b8ff" stroke="#63b8ff" points="159.42,-19.5 169.42,-16 159.42,-12.5 159.42,-19.5"/>
</a>
</g>
</g>
</g>
</svg>
