<?xml version="1.0" encoding="UTF-8" standalone="no"?>
<!DOCTYPE svg PUBLIC "-//W3C//DTD SVG 1.1//EN"
 "http://www.w3.org/Graphics/SVG/1.1/DTD/svg11.dtd">
<!-- Generated by graphviz version 14.1.3 (20260303.0454)
 -->
<!-- Title: AsyncFw::RrdServer::transmit Pages: 1 -->
<svg width="411pt" height="108pt"
 viewBox="0.00 0.00 411.00 108.00" xmlns="http://www.w3.org/2000/svg" xmlns:xlink="http://www.w3.org/1999/xlink">
<g id="graph0" class="graph" transform="scale(1 1) rotate(0) translate(4 104)">
<title>AsyncFw::RrdServer::transmit</title>
<!-- Node1 -->
<g id="Node000001" class="node">
<title>Node1</title>
<g id="a_Node000001"><a xlink:title="Extracts a specific historical data slice from an Rrd archive and transmits it to a client socket.">
<polygon fill="#999999" stroke="#666666" points="107.5,-66 0,-66 0,-34 107.5,-34 107.5,-66"/>
<text xml:space="preserve" text-anchor="start" x="8" y="-52.5" font-family="Helvetica,sans-Serif" font-size="10.00">AsyncFw::RrdServer</text>
<text xml:space="preserve" text-anchor="middle" x="53.75" y="-40.5" font-family="Helvetica,sans-Serif" font-size="10.00">::transmit</text>
</a>
</g>
</g>
<!-- Node2 -->
<g id="Node000002" class="node">
<title>Node2</title>
<g id="a_Node000002"><a xlink:href="classAsyncFw_1_1DataStream.html#ae64c4b08a3259146d4476c0385352479" target="_top" xlink:title="Retrieves a reference to the active cumulative raw byte array built by the stream.">
<polygon fill="white" stroke="#666666" points="259.25,-100 143.5,-100 143.5,-68 259.25,-68 259.25,-100"/>
<text xml:space="preserve" text-anchor="start" x="151.5" y="-86.5" font-family="Helvetica,sans-Serif" font-size="10.00">AsyncFw::DataStream</text>
<text xml:space="preserve" text-anchor="middle" x="201.38" y="-74.5" font-family="Helvetica,sans-Serif" font-size="10.00">::array</text>
</a>
</g>
</g>
<!-- Node1&#45;&gt;Node2 -->
<g id="edge1_Node000001_Node000002" class="edge">
<title>Node1&#45;&gt;Node2</title>
<g id="a_edge1_Node000001_Node000002"><a xlink:title=" ">
<path fill="none" stroke="#63b8ff" d="M107.74,-62.37C115.68,-64.22 123.95,-66.16 132.16,-68.07"/>
<polygon fill="#63b8ff" stroke="#63b8ff" points="131.24,-71.45 141.78,-70.32 132.84,-64.64 131.24,-71.45"/>
</a>
</g>
</g>
<!-- Node3 -->
<g id="Node000003" class="node">
<title>Node3</title>
<g id="a_Node000003"><a xlink:href="classAsyncFw_1_1DataArray.html#a10279d86624995c981d2786aa43e6803" target="_top" xlink:title="Compresses the provided data view using the framework&#39;s default compression algorithm.">
<polygon fill="white" stroke="#666666" points="255.12,-32 147.62,-32 147.62,0 255.12,0 255.12,-32"/>
<text xml:space="preserve" text-anchor="start" x="155.62" y="-18.5" font-family="Helvetica,sans-Serif" font-size="10.00">AsyncFw::DataArray</text>
<text xml:space="preserve" text-anchor="middle" x="201.38" y="-6.5" font-family="Helvetica,sans-Serif" font-size="10.00">::compress</text>
</a>
</g>
</g>
<!-- Node1&#45;&gt;Node3 -->
<g id="edge2_Node000001_Node000003" class="edge">
<title>Node1&#45;&gt;Node3</title>
<g id="a_edge2_Node000001_Node000003"><a xlink:title=" ">
<path fill="none" stroke="#63b8ff" d="M107.74,-37.63C116.97,-35.47 126.67,-33.21 136.17,-30.99"/>
<polygon fill="#63b8ff" stroke="#63b8ff" points="136.77,-34.44 145.71,-28.76 135.18,-27.63 136.77,-34.44"/>
</a>
</g>
</g>
<!-- Node3&#45;&gt;Node3 -->
<g id="edge3_Node000003_Node000003" class="edge">
<title>Node3&#45;&gt;Node3</title>
<g id="a_edge3_Node000003_Node000003"><a xlink:title=" ">
<path fill="none" stroke="#63b8ff" d="M175.02,-32.44C170.1,-41.58 178.89,-50 201.38,-50 213.67,-50 221.87,-47.48 225.98,-43.71"/>
<polygon fill="#63b8ff" stroke="#63b8ff" points="229.42,-44.36 227.5,-33.94 222.5,-43.28 229.42,-44.36"/>
</a>
</g>
</g>
<!-- Node4 -->
<g id="Node000004" class="node">
<title>Node4</title>
<g id="a_Node000004"><a xlink:href="classAsyncFw_1_1DataArray.html#ab3ca8135417a38c8438a82f226b792ec" target="_top" xlink:title="Constructs a byte array from a standard string instance.">
<polygon fill="white" stroke="#666666" points="402.75,-32 295.25,-32 295.25,0 402.75,0 402.75,-32"/>
<text xml:space="preserve" text-anchor="start" x="303.25" y="-18.5" font-family="Helvetica,sans-Serif" font-size="10.00">AsyncFw::DataArray</text>
<text xml:space="preserve" text-anchor="middle" x="349" y="-6.5" font-family="Helvetica,sans-Serif" font-size="10.00">::DataArray</text>
</a>
</g>
</g>
<!-- Node3&#45;&gt;Node4 -->
<g id="edge4_Node000003_Node000004" class="edge">
<title>Node3&#45;&gt;Node4</title>
<g id="a_edge4_Node000003_Node000004"><a xlink:title=" ">
<path fill="none" stroke="#63b8ff" d="M255.36,-16C264.5,-16 274.08,-16 283.48,-16"/>
<polygon fill="#63b8ff" stroke="#63b8ff" points="283.3,-19.5 293.3,-16 283.3,-12.5 283.3,-19.5"/>
</a>
</g>
</g>
</g>
</svg>
