<?xml version="1.0" encoding="UTF-8" standalone="no"?>
<!DOCTYPE svg PUBLIC "-//W3C//DTD SVG 1.1//EN"
 "http://www.w3.org/Graphics/SVG/1.1/DTD/svg11.dtd">
<!-- Generated by graphviz version 14.1.3 (20260303.0454)
 -->
<!-- Title: AsyncFw::DataArrayAbstractTcp::transmit Pages: 1 -->
<svg width="336pt" height="58pt"
 viewBox="0.00 0.00 336.00 58.00" xmlns="http://www.w3.org/2000/svg" xmlns:xlink="http://www.w3.org/1999/xlink">
<g id="graph0" class="graph" transform="scale(1 1) rotate(0) translate(4 54)">
<title>AsyncFw::DataArrayAbstractTcp::transmit</title>
<!-- Node1 -->
<g id="Node000001" class="node">
<title>Node1</title>
<g id="a_Node000001"><a xlink:title="Asynchronously transmits a DataArray packet through a given socket context.">
<polygon fill="#999999" stroke="#666666" points="328.25,-32 184,-32 184,0 328.25,0 328.25,-32"/>
<text xml:space="preserve" text-anchor="start" x="192" y="-18.5" font-family="Helvetica,sans-Serif" font-size="10.00">AsyncFw::DataArrayAbstract</text>
<text xml:space="preserve" text-anchor="middle" x="256.12" y="-6.5" font-family="Helvetica,sans-Serif" font-size="10.00">Tcp::transmit</text>
</a>
</g>
</g>
<!-- Node1&#45;&gt;Node1 -->
<g id="edge2_Node000001_Node000001" class="edge">
<title>Node1&#45;&gt;Node1</title>
<g id="a_edge2_Node000001_Node000001"><a xlink:title=" ">
<path fill="none" stroke="#63b8ff" d="M286.48,-43.71C281.42,-47.48 271.3,-50 256.12,-50 228.38,-50 217.54,-41.58 223.61,-32.44"/>
<polygon fill="#63b8ff" stroke="#63b8ff" points="289.9,-44.41 288.35,-33.93 283.03,-43.09 289.9,-44.41"/>
</a>
</g>
</g>
<!-- Node2 -->
<g id="Node000002" class="node">
<title>Node2</title>
<g id="a_Node000002"><a xlink:href="classAsyncFw_1_1DataArrayTcpClient.html#a380c907a396d306611fe7dc21f35f74f" target="_top" xlink:title="Executes a synchronous request&#45;response data exchange over a specific socket.">
<polygon fill="white" stroke="#666666" points="148,-32 0,-32 0,0 148,0 148,-32"/>
<text xml:space="preserve" text-anchor="start" x="8" y="-18.5" font-family="Helvetica,sans-Serif" font-size="10.00">AsyncFw::DataArrayTcpClient</text>
<text xml:space="preserve" text-anchor="middle" x="74" y="-6.5" font-family="Helvetica,sans-Serif" font-size="10.00">::exchange</text>
</a>
</g>
</g>
<!-- Node1&#45;&gt;Node2 -->
<g id="edge1_Node000001_Node000002" class="edge">
<title>Node1&#45;&gt;Node2</title>
<g id="a_edge1_Node000001_Node000002"><a xlink:title=" ">
<path fill="none" stroke="#63b8ff" d="M172.43,-16C164.42,-16 156.34,-16 148.43,-16"/>
<polygon fill="#63b8ff" stroke="#63b8ff" points="172.16,-19.5 182.16,-16 172.16,-12.5 172.16,-19.5"/>
</a>
</g>
</g>
</g>
</svg>
