<?xml version="1.0" encoding="UTF-8" standalone="no"?>
<!DOCTYPE svg PUBLIC "-//W3C//DTD SVG 1.1//EN"
 "http://www.w3.org/Graphics/SVG/1.1/DTD/svg11.dtd">
<!-- Generated by graphviz version 12.2.1 (20241206.2353)
 -->
<!-- Title: AsyncFw::AbstractThread::AbstractTask Pages: 1 -->
<svg width="138pt" height="152pt"
 viewBox="0.00 0.00 138.00 152.00" xmlns="http://www.w3.org/2000/svg" xmlns:xlink="http://www.w3.org/1999/xlink">
<g id="graph0" class="graph" transform="scale(1 1) rotate(0) translate(4 148)">
<title>AsyncFw::AbstractThread::AbstractTask</title>
<!-- Node1 -->
<g id="Node000001" class="node">
<title>Node1</title>
<g id="a_Node000001"><a xlink:title="The AbstractTask class.">
<polygon fill="#999999" stroke="#666666" points="130,-144 0,-144 0,-112 130,-112 130,-144"/>
<text text-anchor="start" x="8" y="-130.5" font-family="Helvetica,sans-Serif" font-size="10.00">AsyncFw::AbstractThread</text>
<text text-anchor="middle" x="65" y="-118.5" font-family="Helvetica,sans-Serif" font-size="10.00">::AbstractTask</text>
</a>
</g>
</g>
<!-- Node2 -->
<g id="Node000002" class="node">
<title>Node2</title>
<g id="a_Node000002"><a xlink:href="classAsyncFw_1_1AbstractTask.html" target="_top" xlink:title="The AbstractTask class.">
<polygon fill="white" stroke="#666666" points="125.5,-76 4.5,-76 4.5,-56 125.5,-56 125.5,-76"/>
<text text-anchor="middle" x="65" y="-62.5" font-family="Helvetica,sans-Serif" font-size="10.00">AsyncFw::AbstractTask</text>
</a>
</g>
</g>
<!-- Node1&#45;&gt;Node2 -->
<g id="edge1_Node000001_Node000002" class="edge">
<title>Node1&#45;&gt;Node2</title>
<g id="a_edge1_Node000001_Node000002"><a xlink:title=" ">
<path fill="none" stroke="#63b8ff" d="M65,-100.08C65,-91.6 65,-82.8 65,-76.41"/>
<polygon fill="#63b8ff" stroke="#63b8ff" points="61.5,-100.03 65,-110.03 68.5,-100.03 61.5,-100.03"/>
</a>
</g>
</g>
<!-- Node3 -->
<g id="Node000003" class="node">
<title>Node3</title>
<g id="a_Node000003"><a xlink:href="classAsyncFw_1_1Task.html" target="_top" xlink:title="The Task class.">
<polygon fill="white" stroke="#666666" points="120.25,-20 9.75,-20 9.75,0 120.25,0 120.25,-20"/>
<text text-anchor="middle" x="65" y="-6.5" font-family="Helvetica,sans-Serif" font-size="10.00">AsyncFw::Task&lt; M &gt;</text>
</a>
</g>
</g>
<!-- Node2&#45;&gt;Node3 -->
<g id="edge2_Node000002_Node000003" class="edge">
<title>Node2&#45;&gt;Node3</title>
<g id="a_edge2_Node000002_Node000003"><a xlink:title=" ">
<path fill="none" stroke="#63b8ff" d="M65,-44.13C65,-35.9 65,-26.85 65,-20.3"/>
<polygon fill="#63b8ff" stroke="#63b8ff" points="61.5,-44.08 65,-54.08 68.5,-44.08 61.5,-44.08"/>
</a>
</g>
</g>
</g>
</svg>
