<?xml version="1.0" encoding="UTF-8" standalone="no"?>
<!DOCTYPE svg PUBLIC "-//W3C//DTD SVG 1.1//EN"
 "http://www.w3.org/Graphics/SVG/1.1/DTD/svg11.dtd">
<!-- Generated by graphviz version 12.2.1 (20241206.2353)
 -->
<!-- Title: AsyncFw::Rrd Pages: 1 -->
<svg width="408pt" height="269pt"
 viewBox="0.00 0.00 407.62 269.00" xmlns="http://www.w3.org/2000/svg" xmlns:xlink="http://www.w3.org/1999/xlink">
<g id="graph0" class="graph" transform="scale(1 1) rotate(0) translate(4 265)">
<title>AsyncFw::Rrd</title>
<!-- Node1 -->
<g id="Node000001" class="node">
<title>Node1</title>
<g id="a_Node000001"><a xlink:title="The Rrd class.">
<polygon fill="#999999" stroke="#666666" points="260.5,-20 181.5,-20 181.5,0 260.5,0 260.5,-20"/>
<text text-anchor="middle" x="221" y="-6.5" font-family="Helvetica,sans-Serif" font-size="10.00">AsyncFw::Rrd</text>
</a>
</g>
</g>
<!-- Node2 -->
<g id="Node000002" class="node">
<title>Node2</title>
<g id="a_Node000002"><a xlink:href="classAsyncFw_1_1FunctionConnector.html" target="_top" xlink:title="Provides a thread&#45;safe, publisher&#45;subscriber mechanism to establish sender&#45;to&#45;receivers connections.">
<polygon fill="white" stroke="#666666" points="293.88,-192 148.12,-192 148.12,-160 293.88,-160 293.88,-192"/>
<text text-anchor="start" x="156.12" y="-178.5" font-family="Helvetica,sans-Serif" font-size="10.00">AsyncFw::FunctionConnector</text>
<text text-anchor="middle" x="221" y="-166.5" font-family="Helvetica,sans-Serif" font-size="10.00">&lt; Args &gt;</text>
</a>
</g>
</g>
<!-- Node2&#45;&gt;Node1 -->
<g id="edge1_Node000001_Node000002" class="edge">
<title>Node2&#45;&gt;Node1</title>
<g id="a_edge1_Node000001_Node000002"><a xlink:title=" ">
<path fill="none" stroke="#9a32cd" stroke-dasharray="5,2" d="M221,-148.07C221,-110.66 221,-44.8 221,-20.42"/>
<polygon fill="#9a32cd" stroke="#9a32cd" points="217.5,-148.06 221,-158.06 224.5,-148.06 217.5,-148.06"/>
</a>
</g>
<text text-anchor="middle" x="239.75" y="-74.5" font-family="Helvetica,sans-Serif" font-size="10.00" fill="grey"> updated</text>
</g>
<!-- Node4 -->
<g id="Node000004" class="node">
<title>Node4</title>
<g id="a_Node000004"><a xlink:href="classAsyncFw_1_1Thread.html" target="_top" xlink:title="AsyncFw::Thread thread with sockets.">
<polygon fill="white" stroke="#666666" points="184.62,-88 91.38,-88 91.38,-68 184.62,-68 184.62,-88"/>
<text text-anchor="middle" x="138" y="-74.5" font-family="Helvetica,sans-Serif" font-size="10.00">AsyncFw::Thread</text>
</a>
</g>
</g>
<!-- Node2&#45;&gt;Node4 -->
<g id="edge5_Node000004_Node000002" class="edge">
<title>Node2&#45;&gt;Node4</title>
<g id="a_edge5_Node000004_Node000002"><a xlink:title=" ">
<path fill="none" stroke="#9a32cd" stroke-dasharray="5,2" d="M176.65,-153.21C172.12,-149.86 167.86,-146.12 164.25,-142 150.2,-125.96 142.93,-101.33 139.85,-88.12"/>
<polygon fill="#9a32cd" stroke="#9a32cd" points="174.7,-156.12 184.97,-158.72 178.56,-150.28 174.7,-156.12"/>
</a>
</g>
<text text-anchor="middle" x="185.62" y="-132.5" font-family="Helvetica,sans-Serif" font-size="10.00" fill="grey"> destroing</text>
<text text-anchor="middle" x="185.62" y="-120.5" font-family="Helvetica,sans-Serif" font-size="10.00" fill="grey">finished</text>
<text text-anchor="middle" x="185.62" y="-108.5" font-family="Helvetica,sans-Serif" font-size="10.00" fill="grey">started</text>
</g>
<!-- Node3 -->
<g id="Node000003" class="node">
<title>Node3</title>
<g id="a_Node000003"><a xlink:href="classAsyncFw_1_1AbstractFunctionConnector.html" target="_top" xlink:title="The AbstractFunctionConnector class provides the base functionality for FunctionConnector.">
<polygon fill="white" stroke="#666666" points="289.75,-261 152.25,-261 152.25,-229 289.75,-229 289.75,-261"/>
<text text-anchor="start" x="160.25" y="-247.5" font-family="Helvetica,sans-Serif" font-size="10.00">AsyncFw::AbstractFunction</text>
<text text-anchor="middle" x="221" y="-235.5" font-family="Helvetica,sans-Serif" font-size="10.00">Connector</text>
</a>
</g>
</g>
<!-- Node3&#45;&gt;Node2 -->
<g id="edge2_Node000002_Node000003" class="edge">
<title>Node3&#45;&gt;Node2</title>
<g id="a_edge2_Node000002_Node000003"><a xlink:title=" ">
<path fill="none" stroke="#63b8ff" d="M221,-217.35C221,-208.78 221,-199.59 221,-192.14"/>
<polygon fill="#63b8ff" stroke="#63b8ff" points="217.5,-217.28 221,-227.28 224.5,-217.28 217.5,-217.28"/>
</a>
</g>
</g>
<!-- Node4&#45;&gt;Node1 -->
<g id="edge3_Node000001_Node000004" class="edge">
<title>Node4&#45;&gt;Node1</title>
<g id="a_edge3_Node000001_Node000004"><a xlink:title=" ">
<path fill="none" stroke="#9a32cd" stroke-dasharray="5,2" d="M151.38,-58.91C157.14,-51.86 164.28,-44.03 171.75,-38 180.4,-31.01 191.11,-24.9 200.33,-20.26"/>
<polygon fill="#9a32cd" stroke="#9a32cd" points="148.76,-56.58 145.38,-66.62 154.28,-60.87 148.76,-56.58"/>
</a>
</g>
<text text-anchor="middle" x="189.38" y="-40.5" font-family="Helvetica,sans-Serif" font-size="10.00" fill="grey"> thread_</text>
</g>
<!-- Node5 -->
<g id="Node000005" class="node">
<title>Node5</title>
<g id="a_Node000005"><a xlink:href="classAsyncFw_1_1AbstractThread.html" target="_top" xlink:title="The AbstractThread class provides the base functionality for thread management.">
<polygon fill="white" stroke="#666666" points="130,-186 0,-186 0,-166 130,-166 130,-186"/>
<text text-anchor="middle" x="65" y="-172.5" font-family="Helvetica,sans-Serif" font-size="10.00">AsyncFw::AbstractThread</text>
</a>
</g>
</g>
<!-- Node5&#45;&gt;Node4 -->
<g id="edge4_Node000004_Node000005" class="edge">
<title>Node5&#45;&gt;Node4</title>
<g id="a_edge4_Node000004_Node000005"><a xlink:title=" ">
<path fill="none" stroke="#63b8ff" d="M78.79,-156.86C94.3,-136.47 118.89,-104.13 130.91,-88.32"/>
<polygon fill="#63b8ff" stroke="#63b8ff" points="76.18,-154.51 72.92,-164.59 81.75,-158.75 76.18,-154.51"/>
</a>
</g>
</g>
<!-- Node6 -->
<g id="Node000006" class="node">
<title>Node6</title>
<g id="a_Node000006"><a xlink:href="classAsyncFw_1_1DataArrayList.html" target="_top" xlink:title="The DataArrayList class.">
<polygon fill="white" stroke="#666666" points="399.62,-88 276.38,-88 276.38,-68 399.62,-68 399.62,-88"/>
<text text-anchor="middle" x="338" y="-74.5" font-family="Helvetica,sans-Serif" font-size="10.00">AsyncFw::DataArrayList</text>
</a>
</g>
</g>
<!-- Node6&#45;&gt;Node1 -->
<g id="edge6_Node000001_Node000006" class="edge">
<title>Node6&#45;&gt;Node1</title>
<g id="a_edge6_Node000001_Node000006"><a xlink:title=" ">
<path fill="none" stroke="#9a32cd" stroke-dasharray="5,2" d="M311.26,-61.91C288.64,-49.15 256.92,-31.26 237.73,-20.44"/>
<polygon fill="#9a32cd" stroke="#9a32cd" points="309.49,-64.94 319.92,-66.8 312.93,-58.84 309.49,-64.94"/>
</a>
</g>
<text text-anchor="middle" x="312.1" y="-40.5" font-family="Helvetica,sans-Serif" font-size="10.00" fill="grey"> dataBase</text>
</g>
</g>
</svg>
