<?xml version="1.0" encoding="UTF-8" standalone="no"?>
<!DOCTYPE svg PUBLIC "-//W3C//DTD SVG 1.1//EN"
 "http://www.w3.org/Graphics/SVG/1.1/DTD/svg11.dtd">
<!-- Generated by graphviz version 14.1.3 (20260303.0454)
 -->
<!-- Title: AsyncFw::AbstractThread::finishedEvent Pages: 1 -->
<svg width="841pt" height="115pt"
 viewBox="0.00 0.00 841.00 115.00" xmlns="http://www.w3.org/2000/svg" xmlns:xlink="http://www.w3.org/1999/xlink">
<g id="graph0" class="graph" transform="scale(1 1) rotate(0) translate(4 111)">
<title>AsyncFw::AbstractThread::finishedEvent</title>
<!-- Node1 -->
<g id="Node000001" class="node">
<title>Node1</title>
<g id="a_Node000001"><a xlink:title="This call from the thread when it finishing execution.">
<polygon fill="#999999" stroke="#666666" points="833,-57 703,-57 703,-25 833,-25 833,-57"/>
<text xml:space="preserve" text-anchor="start" x="711" y="-43.5" font-family="Helvetica,sans-Serif" font-size="10.00">AsyncFw::AbstractThread</text>
<text xml:space="preserve" text-anchor="middle" x="768" y="-31.5" font-family="Helvetica,sans-Serif" font-size="10.00">::finishedEvent</text>
</a>
</g>
</g>
<!-- Node2 -->
<g id="Node000002" class="node">
<title>Node2</title>
<g id="a_Node000002"><a xlink:href="classAsyncFw_1_1AbstractThread.html#a1abe0f5c637dcc6af5aff00c5291bd4f" target="_top" xlink:title="Run manage loop.">
<polygon fill="white" stroke="#666666" points="665.5,-82 535.5,-82 535.5,-50 665.5,-50 665.5,-82"/>
<text xml:space="preserve" text-anchor="start" x="543.5" y="-68.5" font-family="Helvetica,sans-Serif" font-size="10.00">AsyncFw::AbstractThread</text>
<text xml:space="preserve" text-anchor="middle" x="600.5" y="-56.5" font-family="Helvetica,sans-Serif" font-size="10.00">::exec</text>
</a>
</g>
</g>
<!-- Node1&#45;&gt;Node2 -->
<g id="edge1_Node000001_Node000002" class="edge">
<title>Node1&#45;&gt;Node2</title>
<g id="a_edge1_Node000001_Node000002"><a xlink:title=" ">
<path fill="none" stroke="#63b8ff" d="M691.38,-52.42C682.83,-53.71 674.17,-55.02 665.78,-56.29"/>
<polygon fill="#63b8ff" stroke="#63b8ff" points="691.68,-55.92 701.04,-50.96 690.63,-49 691.68,-55.92"/>
</a>
</g>
</g>
<!-- Node7 -->
<g id="Node000007" class="node">
<title>Node7</title>
<g id="a_Node000007"><a xlink:href="classAsyncFw_1_1Thread.html#ae9fc9cf8baddcc8dfa0e14784918c4a5" target="_top" xlink:title="Runs finished().">
<polygon fill="white" stroke="#666666" points="667,-32 534,-32 534,0 667,0 667,-32"/>
<text xml:space="preserve" text-anchor="start" x="542" y="-18.5" font-family="Helvetica,sans-Serif" font-size="10.00">AsyncFw::Thread::finished</text>
<text xml:space="preserve" text-anchor="middle" x="600.5" y="-6.5" font-family="Helvetica,sans-Serif" font-size="10.00">Event</text>
</a>
</g>
</g>
<!-- Node1&#45;&gt;Node7 -->
<g id="edge6_Node000001_Node000007" class="edge">
<title>Node1&#45;&gt;Node7</title>
<g id="a_edge6_Node000001_Node000007"><a xlink:title=" ">
<path fill="none" stroke="#63b8ff" d="M691.34,-29.57C683.36,-28.36 675.28,-27.15 667.42,-25.96"/>
<polygon fill="#63b8ff" stroke="#63b8ff" points="690.63,-33 701.04,-31.04 691.68,-26.08 690.63,-33"/>
</a>
</g>
</g>
<!-- Node3 -->
<g id="Node000003" class="node">
<title>Node3</title>
<g id="a_Node000003"><a xlink:href="classAsyncFw_1_1AbstractThread.html#afdaccb5da7d4bee5e9ff687f761bd21f" target="_top" xlink:title="Create a managed thread and run exec().">
<polygon fill="white" stroke="#666666" points="498,-107 368,-107 368,-75 498,-75 498,-107"/>
<text xml:space="preserve" text-anchor="start" x="376" y="-93.5" font-family="Helvetica,sans-Serif" font-size="10.00">AsyncFw::AbstractThread</text>
<text xml:space="preserve" text-anchor="middle" x="433" y="-81.5" font-family="Helvetica,sans-Serif" font-size="10.00">::start</text>
</a>
</g>
</g>
<!-- Node2&#45;&gt;Node3 -->
<g id="edge2_Node000002_Node000003" class="edge">
<title>Node2&#45;&gt;Node3</title>
<g id="a_edge2_Node000002_Node000003"><a xlink:title=" ">
<path fill="none" stroke="#63b8ff" d="M523.88,-77.42C515.33,-78.71 506.67,-80.02 498.28,-81.29"/>
<polygon fill="#63b8ff" stroke="#63b8ff" points="524.18,-80.92 533.54,-75.96 523.13,-74 524.18,-80.92"/>
</a>
</g>
</g>
<!-- Node6 -->
<g id="Node000006" class="node">
<title>Node6</title>
<g id="a_Node000006"><a xlink:href="classAsyncFw_1_1AbstractThread_1_1Waiter.html#ad2a62fc1276d8be1986a7e77f6dfb437" target="_top" xlink:title="Suspends the caller by running a controlled nested exec() loop until completed.">
<polygon fill="white" stroke="#666666" points="498,-57 368,-57 368,-25 498,-25 498,-57"/>
<text xml:space="preserve" text-anchor="start" x="376" y="-43.5" font-family="Helvetica,sans-Serif" font-size="10.00">AsyncFw::AbstractThread</text>
<text xml:space="preserve" text-anchor="middle" x="433" y="-31.5" font-family="Helvetica,sans-Serif" font-size="10.00">::Waiter::wait</text>
</a>
</g>
</g>
<!-- Node2&#45;&gt;Node6 -->
<g id="edge5_Node000002_Node000006" class="edge">
<title>Node2&#45;&gt;Node6</title>
<g id="a_edge5_Node000002_Node000006"><a xlink:title=" ">
<path fill="none" stroke="#63b8ff" d="M523.88,-54.58C515.33,-53.29 506.67,-51.98 498.28,-50.71"/>
<polygon fill="#63b8ff" stroke="#63b8ff" points="523.13,-58 533.54,-56.04 524.18,-51.08 523.13,-58"/>
</a>
</g>
</g>
<!-- Node4 -->
<g id="Node000004" class="node">
<title>Node4</title>
<g id="a_Node000004"><a xlink:href="classAsyncFw_1_1DataArrayTcpClient.html#af5306849ea109fb9e5bfba5360cfe57a" target="_top" xlink:title="Allocates and spawns a new worker thread within the client pool context.">
<polygon fill="white" stroke="#666666" points="332,-107 184,-107 184,-75 332,-75 332,-107"/>
<text xml:space="preserve" text-anchor="start" x="192" y="-93.5" font-family="Helvetica,sans-Serif" font-size="10.00">AsyncFw::DataArrayTcpClient</text>
<text xml:space="preserve" text-anchor="middle" x="258" y="-81.5" font-family="Helvetica,sans-Serif" font-size="10.00">::createThread</text>
</a>
</g>
</g>
<!-- Node3&#45;&gt;Node4 -->
<g id="edge3_Node000003_Node000004" class="edge">
<title>Node3&#45;&gt;Node4</title>
<g id="a_edge3_Node000003_Node000004"><a xlink:title=" ">
<path fill="none" stroke="#63b8ff" d="M356.08,-91C348.16,-91 340.11,-91 332.21,-91"/>
<polygon fill="#63b8ff" stroke="#63b8ff" points="356.07,-94.5 366.07,-91 356.07,-87.5 356.07,-94.5"/>
</a>
</g>
</g>
<!-- Node5 -->
<g id="Node000005" class="node">
<title>Node5</title>
<g id="a_Node000005"><a xlink:href="classAsyncFw_1_1DataArrayTcpClient.html#aa005c8c643454bd1ae4ae0c7fe4c1068" target="_top" xlink:title="Allocates a new socket instance and associates it with a specific worker thread.">
<polygon fill="white" stroke="#666666" points="148,-107 0,-107 0,-75 148,-75 148,-107"/>
<text xml:space="preserve" text-anchor="start" x="8" y="-93.5" font-family="Helvetica,sans-Serif" font-size="10.00">AsyncFw::DataArrayTcpClient</text>
<text xml:space="preserve" text-anchor="middle" x="74" y="-81.5" font-family="Helvetica,sans-Serif" font-size="10.00">::createSocket</text>
</a>
</g>
</g>
<!-- Node4&#45;&gt;Node5 -->
<g id="edge4_Node000004_Node000005" class="edge">
<title>Node4&#45;&gt;Node5</title>
<g id="a_edge4_Node000004_Node000005"><a xlink:title=" ">
<path fill="none" stroke="#63b8ff" d="M172.46,-91C164.42,-91 156.31,-91 148.39,-91"/>
<polygon fill="#63b8ff" stroke="#63b8ff" points="172.25,-94.5 182.25,-91 172.25,-87.5 172.25,-94.5"/>
</a>
</g>
</g>
</g>
</svg>
