<?xml version="1.0" encoding="UTF-8" standalone="no"?>
<!DOCTYPE svg PUBLIC "-//W3C//DTD SVG 1.1//EN"
 "http://www.w3.org/Graphics/SVG/1.1/DTD/svg11.dtd">
<!-- Generated by graphviz version 14.1.3 (20260303.0454)
 -->
<!-- Title: AsyncFw::HttpSocket::activateEvent Pages: 1 -->
<svg width="815pt" height="105pt"
 viewBox="0.00 0.00 815.00 105.00" xmlns="http://www.w3.org/2000/svg" xmlns:xlink="http://www.w3.org/1999/xlink">
<g id="graph0" class="graph" transform="scale(1 1) rotate(0) translate(4 100.74)">
<title>AsyncFw::HttpSocket::activateEvent</title>
<!-- Node1 -->
<g id="Node000001" class="node">
<title>Node1</title>
<g id="a_Node000001"><a xlink:title="Core internal event handler reacting to raw descriptor readiness signals.">
<polygon fill="#999999" stroke="#666666" points="112.75,-57 0,-57 0,-25 112.75,-25 112.75,-57"/>
<text xml:space="preserve" text-anchor="start" x="8" y="-43.5" font-family="Helvetica,sans-Serif" font-size="10.00">AsyncFw::HttpSocket</text>
<text xml:space="preserve" text-anchor="middle" x="56.38" y="-31.5" font-family="Helvetica,sans-Serif" font-size="10.00">::activateEvent</text>
</a>
</g>
</g>
<!-- Node2 -->
<g id="Node000002" class="node">
<title>Node2</title>
<g id="a_Node000002"><a xlink:href="classAsyncFw_1_1AbstractTlsSocket.html#a57ac6daff9926cf631abcd1e19073cc8" target="_top" xlink:title="Core internal event handler reacting to raw descriptor readiness signals.">
<polygon fill="white" stroke="#666666" points="293,-82 148.75,-82 148.75,-50 293,-50 293,-82"/>
<text xml:space="preserve" text-anchor="start" x="156.75" y="-68.5" font-family="Helvetica,sans-Serif" font-size="10.00">AsyncFw::AbstractTlsSocket</text>
<text xml:space="preserve" text-anchor="middle" x="220.88" y="-56.5" font-family="Helvetica,sans-Serif" font-size="10.00">::activateEvent</text>
</a>
</g>
</g>
<!-- Node1&#45;&gt;Node2 -->
<g id="edge1_Node000001_Node000002" class="edge">
<title>Node1&#45;&gt;Node2</title>
<g id="a_edge1_Node000001_Node000002"><a xlink:title=" ">
<path fill="none" stroke="#63b8ff" d="M112.84,-49.53C120.68,-50.74 128.88,-52 137.09,-53.26"/>
<polygon fill="#63b8ff" stroke="#63b8ff" points="136.37,-56.69 146.78,-54.76 137.43,-49.78 136.37,-56.69"/>
</a>
</g>
</g>
<!-- Node8 -->
<g id="Node000008" class="node">
<title>Node8</title>
<g id="a_Node000008"><a xlink:href="classAsyncFw_1_1HttpSocket.html#a96932e5f6b5f84c4f204b0e6e4ef8472" target="_top" xlink:title="Immediately releases OpenSSL session pointers and forcefully closes the system&#45;level descriptor.">
<polygon fill="white" stroke="#666666" points="277.25,-32 164.5,-32 164.5,0 277.25,0 277.25,-32"/>
<text xml:space="preserve" text-anchor="start" x="172.5" y="-18.5" font-family="Helvetica,sans-Serif" font-size="10.00">AsyncFw::HttpSocket</text>
<text xml:space="preserve" text-anchor="middle" x="220.88" y="-6.5" font-family="Helvetica,sans-Serif" font-size="10.00">::close</text>
</a>
</g>
</g>
<!-- Node1&#45;&gt;Node8 -->
<g id="edge9_Node000001_Node000008" class="edge">
<title>Node1&#45;&gt;Node8</title>
<g id="a_edge9_Node000001_Node000008"><a xlink:title=" ">
<path fill="none" stroke="#63b8ff" d="M112.84,-32.47C125.77,-30.48 139.67,-28.34 153.04,-26.28"/>
<polygon fill="#63b8ff" stroke="#63b8ff" points="153.26,-29.79 162.61,-24.81 152.19,-22.87 153.26,-29.79"/>
</a>
</g>
</g>
<!-- Node3 -->
<g id="Node000003" class="node">
<title>Node3</title>
<g id="a_Node000003"><a xlink:href="classAsyncFw_1_1AbstractSocket.html#aac7ad6c4f9815d9b8b0817d38864d06d" target="_top" xlink:title="Called when established connection.">
<polygon fill="white" stroke="#666666" points="640,-82 509.25,-82 509.25,-50 640,-50 640,-82"/>
<text xml:space="preserve" text-anchor="start" x="517.25" y="-68.5" font-family="Helvetica,sans-Serif" font-size="10.00">AsyncFw::AbstractSocket</text>
<text xml:space="preserve" text-anchor="middle" x="574.62" y="-56.5" font-family="Helvetica,sans-Serif" font-size="10.00">::activateEvent</text>
</a>
</g>
</g>
<!-- Node2&#45;&gt;Node3 -->
<g id="edge2_Node000002_Node000003" class="edge">
<title>Node2&#45;&gt;Node3</title>
<g id="a_edge2_Node000002_Node000003"><a xlink:title=" ">
<path fill="none" stroke="#63b8ff" d="M281.51,-82.47C296.86,-86 313.44,-89.21 329,-91 392.69,-98.33 409.62,-98.81 473.25,-91 484.21,-89.66 495.7,-87.51 506.83,-85.04"/>
<polygon fill="#63b8ff" stroke="#63b8ff" points="507.39,-88.5 516.33,-82.81 505.8,-81.68 507.39,-88.5"/>
</a>
</g>
</g>
<!-- Node5 -->
<g id="Node000005" class="node">
<title>Node5</title>
<g id="a_Node000005"><a xlink:href="classAsyncFw_1_1AbstractTlsSocket.html#ad26bb910e65bb758bfed6448e1af7186" target="_top" xlink:title="Intermediate signal hub executed immediately when a secure cryptographic tunnel has been fully establ...">
<polygon fill="white" stroke="#666666" points="473.25,-82 329,-82 329,-50 473.25,-50 473.25,-82"/>
<text xml:space="preserve" text-anchor="start" x="337" y="-68.5" font-family="Helvetica,sans-Serif" font-size="10.00">AsyncFw::AbstractTlsSocket</text>
<text xml:space="preserve" text-anchor="middle" x="401.12" y="-56.5" font-family="Helvetica,sans-Serif" font-size="10.00">::activateReady</text>
</a>
</g>
</g>
<!-- Node2&#45;&gt;Node5 -->
<g id="edge4_Node000002_Node000005" class="edge">
<title>Node2&#45;&gt;Node5</title>
<g id="a_edge4_Node000002_Node000005"><a xlink:title=" ">
<path fill="none" stroke="#63b8ff" d="M293.35,-66C301.25,-66 309.34,-66 317.36,-66"/>
<polygon fill="#63b8ff" stroke="#63b8ff" points="317.12,-69.5 327.12,-66 317.12,-62.5 317.12,-69.5"/>
</a>
</g>
</g>
<!-- Node6 -->
<g id="Node000006" class="node">
<title>Node6</title>
<g id="a_Node000006"><a xlink:href="classAsyncFw_1_1AbstractTlsSocket.html#a46dbd8e4895445214a4f46ee46433d6c" target="_top" xlink:title="Immediately releases OpenSSL session pointers and forcefully closes the system&#45;level descriptor.">
<polygon fill="white" stroke="#666666" points="473.25,-32 329,-32 329,0 473.25,0 473.25,-32"/>
<text xml:space="preserve" text-anchor="start" x="337" y="-18.5" font-family="Helvetica,sans-Serif" font-size="10.00">AsyncFw::AbstractTlsSocket</text>
<text xml:space="preserve" text-anchor="middle" x="401.12" y="-6.5" font-family="Helvetica,sans-Serif" font-size="10.00">::close</text>
</a>
</g>
</g>
<!-- Node2&#45;&gt;Node6 -->
<g id="edge6_Node000002_Node000006" class="edge">
<title>Node2&#45;&gt;Node6</title>
<g id="a_edge6_Node000002_Node000006"><a xlink:title=" ">
<path fill="none" stroke="#63b8ff" d="M280.24,-49.63C296.32,-45.12 313.91,-40.18 330.55,-35.52"/>
<polygon fill="#63b8ff" stroke="#63b8ff" points="331.18,-38.97 339.87,-32.9 329.29,-32.23 331.18,-38.97"/>
</a>
</g>
</g>
<!-- Node4 -->
<g id="Node000004" class="node">
<title>Node4</title>
<g id="a_Node000004"><a xlink:href="classAsyncFw_1_1AbstractSocket.html#a5db12267a6d2241e81f570463f2d7ef5" target="_top" xlink:title="Called when the connection state changes.">
<polygon fill="white" stroke="#666666" points="806.75,-57 676,-57 676,-25 806.75,-25 806.75,-57"/>
<text xml:space="preserve" text-anchor="start" x="684" y="-43.5" font-family="Helvetica,sans-Serif" font-size="10.00">AsyncFw::AbstractSocket</text>
<text xml:space="preserve" text-anchor="middle" x="741.38" y="-31.5" font-family="Helvetica,sans-Serif" font-size="10.00">::stateEvent</text>
</a>
</g>
</g>
<!-- Node3&#45;&gt;Node4 -->
<g id="edge3_Node000003_Node000004" class="edge">
<title>Node3&#45;&gt;Node4</title>
<g id="a_edge3_Node000003_Node000004"><a xlink:title=" ">
<path fill="none" stroke="#63b8ff" d="M640.27,-56.19C648.17,-54.99 656.3,-53.76 664.35,-52.54"/>
<polygon fill="#63b8ff" stroke="#63b8ff" points="664.79,-56.01 674.15,-51.05 663.74,-49.09 664.79,-56.01"/>
</a>
</g>
</g>
<!-- Node5&#45;&gt;Node3 -->
<g id="edge5_Node000005_Node000003" class="edge">
<title>Node5&#45;&gt;Node3</title>
<g id="a_edge5_Node000005_Node000003"><a xlink:title=" ">
<path fill="none" stroke="#63b8ff" d="M473.37,-66C481.37,-66 489.55,-66 497.62,-66"/>
<polygon fill="#63b8ff" stroke="#63b8ff" points="497.4,-69.5 507.4,-66 497.4,-62.5 497.4,-69.5"/>
</a>
</g>
</g>
<!-- Node7 -->
<g id="Node000007" class="node">
<title>Node7</title>
<g id="a_Node000007"><a xlink:href="classAsyncFw_1_1AbstractSocket.html#a77c0a9ea7c5061c406673bbe8b18d60d" target="_top" xlink:title="Closes the network connection and unsubscribes from thread polling events.">
<polygon fill="white" stroke="#666666" points="640,-32 509.25,-32 509.25,0 640,0 640,-32"/>
<text xml:space="preserve" text-anchor="start" x="517.25" y="-18.5" font-family="Helvetica,sans-Serif" font-size="10.00">AsyncFw::AbstractSocket</text>
<text xml:space="preserve" text-anchor="middle" x="574.62" y="-6.5" font-family="Helvetica,sans-Serif" font-size="10.00">::close</text>
</a>
</g>
</g>
<!-- Node6&#45;&gt;Node7 -->
<g id="edge7_Node000006_Node000007" class="edge">
<title>Node6&#45;&gt;Node7</title>
<g id="a_edge7_Node000006_Node000007"><a xlink:title=" ">
<path fill="none" stroke="#63b8ff" d="M473.37,-16C481.37,-16 489.55,-16 497.62,-16"/>
<polygon fill="#63b8ff" stroke="#63b8ff" points="497.4,-19.5 507.4,-16 497.4,-12.5 497.4,-19.5"/>
</a>
</g>
</g>
<!-- Node7&#45;&gt;Node4 -->
<g id="edge8_Node000007_Node000004" class="edge">
<title>Node7&#45;&gt;Node4</title>
<g id="a_edge8_Node000007_Node000004"><a xlink:title=" ">
<path fill="none" stroke="#63b8ff" d="M640.27,-25.81C648.17,-27.01 656.3,-28.24 664.35,-29.46"/>
<polygon fill="#63b8ff" stroke="#63b8ff" points="663.74,-32.91 674.15,-30.95 664.79,-25.99 663.74,-32.91"/>
</a>
</g>
</g>
<!-- Node8&#45;&gt;Node6 -->
<g id="edge10_Node000008_Node000006" class="edge">
<title>Node8&#45;&gt;Node6</title>
<g id="a_edge10_Node000008_Node000006"><a xlink:title=" ">
<path fill="none" stroke="#63b8ff" d="M277.3,-16C289.99,-16 303.76,-16 317.33,-16"/>
<polygon fill="#63b8ff" stroke="#63b8ff" points="317.14,-19.5 327.14,-16 317.14,-12.5 317.14,-19.5"/>
</a>
</g>
</g>
</g>
</svg>
