<?xml version="1.0" encoding="UTF-8" standalone="no"?>
<!DOCTYPE svg PUBLIC "-//W3C//DTD SVG 1.1//EN"
 "http://www.w3.org/Graphics/SVG/1.1/DTD/svg11.dtd">
<!-- Generated by graphviz version 12.2.1 (20241206.2353)
 -->
<!-- Title: AsyncFw::File::read Pages: 1 -->
<svg width="251pt" height="46pt"
 viewBox="0.00 0.00 250.75 46.00" xmlns="http://www.w3.org/2000/svg" xmlns:xlink="http://www.w3.org/1999/xlink">
<g id="graph0" class="graph" transform="scale(1 1) rotate(0) translate(4 42)">
<title>AsyncFw::File::read</title>
<!-- Node1 -->
<g id="Node000001" class="node">
<title>Node1</title>
<g id="a_Node000001"><a xlink:title="Reads data from the file into a DataArray container.">
<polygon fill="#999999" stroke="#666666" points="103.75,-20 0,-20 0,0 103.75,0 103.75,-20"/>
<text text-anchor="middle" x="51.88" y="-6.5" font-family="Helvetica,sans-Serif" font-size="10.00">AsyncFw::File::read</text>
</a>
</g>
</g>
<!-- Node1&#45;&gt;Node1 -->
<g id="edge1_Node000001_Node000001" class="edge">
<title>Node1&#45;&gt;Node1</title>
<g id="a_edge1_Node000001_Node000001"><a xlink:title=" ">
<path fill="none" stroke="#63b8ff" d="M29.73,-20.34C20.27,-28.98 27.65,-38 51.88,-38 65.12,-38 73.34,-35.3 76.51,-31.44"/>
<polygon fill="#63b8ff" stroke="#63b8ff" points="79.95,-30.81 74.35,-21.82 73.12,-32.34 79.95,-30.81"/>
</a>
</g>
</g>
<!-- Node2 -->
<g id="Node000002" class="node">
<title>Node2</title>
<g id="a_Node000002"><a xlink:href="classAsyncFw_1_1File.html#aaec950aa1cced82715667e8d0bd9664b" target="_top" xlink:title="Returns the current read position in the file (stream get).">
<polygon fill="white" stroke="#666666" points="242.75,-20 139.75,-20 139.75,0 242.75,0 242.75,-20"/>
<text text-anchor="middle" x="191.25" y="-6.5" font-family="Helvetica,sans-Serif" font-size="10.00">AsyncFw::File::tellg</text>
</a>
</g>
</g>
<!-- Node1&#45;&gt;Node2 -->
<g id="edge2_Node000001_Node000002" class="edge">
<title>Node1&#45;&gt;Node2</title>
<g id="a_edge2_Node000001_Node000002"><a xlink:title=" ">
<path fill="none" stroke="#63b8ff" d="M104.03,-10C111.91,-10 120.12,-10 128.21,-10"/>
<polygon fill="#63b8ff" stroke="#63b8ff" points="128,-13.5 138,-10 128,-6.5 128,-13.5"/>
</a>
</g>
</g>
</g>
</svg>
