<?xml version="1.0" encoding="UTF-8" standalone="no"?>
<!DOCTYPE svg PUBLIC "-//W3C//DTD SVG 1.1//EN"
 "http://www.w3.org/Graphics/SVG/1.1/DTD/svg11.dtd">
<!-- Generated by graphviz version 14.1.3 (20260303.0454)
 -->
<!-- Title: AsyncFw::AbstractSocket::read_available_fd Pages: 1 -->
<svg width="493pt" height="90pt"
 viewBox="0.00 0.00 493.00 90.00" xmlns="http://www.w3.org/2000/svg" xmlns:xlink="http://www.w3.org/1999/xlink">
<g id="graph0" class="graph" transform="scale(1 1) rotate(0) translate(4 86)">
<title>AsyncFw::AbstractSocket::read_available_fd</title>
<!-- Node1 -->
<g id="Node000001" class="node">
<title>Node1</title>
<g id="a_Node000001"><a xlink:title="Low&#45;level system call that checks whether a file descriptor contains data.">
<polygon fill="#999999" stroke="#666666" points="485.25,-57 354.5,-57 354.5,-25 485.25,-25 485.25,-57"/>
<text xml:space="preserve" text-anchor="start" x="362.5" y="-43.5" font-family="Helvetica,sans-Serif" font-size="10.00">AsyncFw::AbstractSocket</text>
<text xml:space="preserve" text-anchor="middle" x="419.88" y="-31.5" font-family="Helvetica,sans-Serif" font-size="10.00">::read_available_fd</text>
</a>
</g>
</g>
<!-- Node2 -->
<g id="Node000002" class="node">
<title>Node2</title>
<g id="a_Node000002"><a xlink:href="classAsyncFw_1_1AbstractSocket.html#a75415b9f0ecc82b703e49ad8abf1f3a8" target="_top" xlink:title="Returns the number of bytes of data pending to be read.">
<polygon fill="white" stroke="#666666" points="311.75,-82 181,-82 181,-50 311.75,-50 311.75,-82"/>
<text xml:space="preserve" text-anchor="start" x="189" y="-68.5" font-family="Helvetica,sans-Serif" font-size="10.00">AsyncFw::AbstractSocket</text>
<text xml:space="preserve" text-anchor="middle" x="246.38" y="-56.5" font-family="Helvetica,sans-Serif" font-size="10.00">::pendingRead</text>
</a>
</g>
</g>
<!-- Node1&#45;&gt;Node2 -->
<g id="edge1_Node000001_Node000002" class="edge">
<title>Node1&#45;&gt;Node2</title>
<g id="a_edge1_Node000001_Node000002"><a xlink:title=" ">
<path fill="none" stroke="#63b8ff" d="M342.94,-52.07C332.63,-53.57 322.11,-55.11 312.02,-56.58"/>
<polygon fill="#63b8ff" stroke="#63b8ff" points="343.15,-55.58 352.54,-50.67 342.14,-48.65 343.15,-55.58"/>
</a>
</g>
</g>
<!-- Node4 -->
<g id="Node000004" class="node">
<title>Node4</title>
<g id="a_Node000004"><a xlink:href="classAsyncFw_1_1AbstractTlsSocket.html#a7244e3b461e0012dab1d9c3b1c0db78e" target="_top" xlink:title="Calculates how many unread bytes are currently waiting within the active OpenSSL decrypted layer buff...">
<polygon fill="white" stroke="#666666" points="318.5,-32 174.25,-32 174.25,0 318.5,0 318.5,-32"/>
<text xml:space="preserve" text-anchor="start" x="182.25" y="-18.5" font-family="Helvetica,sans-Serif" font-size="10.00">AsyncFw::AbstractTlsSocket</text>
<text xml:space="preserve" text-anchor="middle" x="246.38" y="-6.5" font-family="Helvetica,sans-Serif" font-size="10.00">::read_available_fd</text>
</a>
</g>
</g>
<!-- Node1&#45;&gt;Node4 -->
<g id="edge3_Node000001_Node000004" class="edge">
<title>Node1&#45;&gt;Node4</title>
<g id="a_edge3_Node000001_Node000004"><a xlink:title=" ">
<path fill="none" stroke="#63b8ff" d="M342.87,-29.92C334.9,-28.76 326.82,-27.58 318.9,-26.43"/>
<polygon fill="#63b8ff" stroke="#63b8ff" points="342.14,-33.35 352.54,-31.33 343.15,-26.42 342.14,-33.35"/>
</a>
</g>
</g>
<!-- Node3 -->
<g id="Node000003" class="node">
<title>Node3</title>
<g id="a_Node000003"><a xlink:href="classAsyncFw_1_1DataArraySocket.html#a1a1f3404abcb93af27de1d7bc0a958b1" target="_top" xlink:title="Called when there is data to read.">
<polygon fill="white" stroke="#666666" points="138.25,-82 0,-82 0,-50 138.25,-50 138.25,-82"/>
<text xml:space="preserve" text-anchor="start" x="8" y="-68.5" font-family="Helvetica,sans-Serif" font-size="10.00">AsyncFw::DataArraySocket</text>
<text xml:space="preserve" text-anchor="middle" x="69.12" y="-56.5" font-family="Helvetica,sans-Serif" font-size="10.00">::readEvent</text>
</a>
</g>
</g>
<!-- Node2&#45;&gt;Node3 -->
<g id="edge2_Node000002_Node000003" class="edge">
<title>Node2&#45;&gt;Node3</title>
<g id="a_edge2_Node000002_Node000003"><a xlink:title=" ">
<path fill="none" stroke="#63b8ff" d="M169.27,-66C159.11,-66 148.75,-66 138.73,-66"/>
<polygon fill="#63b8ff" stroke="#63b8ff" points="169.1,-69.5 179.1,-66 169.1,-62.5 169.1,-69.5"/>
</a>
</g>
</g>
</g>
</svg>
