<?xml version="1.0" encoding="UTF-8" standalone="no"?>
<!DOCTYPE svg PUBLIC "-//W3C//DTD SVG 1.1//EN"
 "http://www.w3.org/Graphics/SVG/1.1/DTD/svg11.dtd">
<!-- Generated by graphviz version 12.2.1 (20241206.2353)
 -->
<!-- Title: AsyncFw::AbstractInstance Pages: 1 -->
<svg width="656pt" height="304pt"
 viewBox="0.00 0.00 656.25 304.00" xmlns="http://www.w3.org/2000/svg" xmlns:xlink="http://www.w3.org/1999/xlink">
<g id="graph0" class="graph" transform="scale(1 1) rotate(0) translate(4 300)">
<title>AsyncFw::AbstractInstance</title>
<!-- Node1 -->
<g id="Node000001" class="node">
<title>Node1</title>
<g id="a_Node000001"><a xlink:title="The AbstractInstance class.">
<polygon fill="#999999" stroke="#666666" points="137.5,-130 0,-130 0,-110 137.5,-110 137.5,-130"/>
<text text-anchor="middle" x="68.75" y="-116.5" font-family="Helvetica,sans-Serif" font-size="10.00">AsyncFw::AbstractInstance</text>
</a>
</g>
</g>
<!-- Node2 -->
<g id="Node000002" class="node">
<title>Node2</title>
<g id="a_Node000002"><a xlink:href="classAsyncFw_1_1Instance.html" target="_top" xlink:title=" ">
<polygon fill="white" stroke="#666666" points="621.62,-226 514.88,-226 514.88,-194 621.62,-194 621.62,-226"/>
<text text-anchor="start" x="522.88" y="-212.5" font-family="Helvetica,sans-Serif" font-size="10.00">AsyncFw::Instance&lt;</text>
<text text-anchor="middle" x="568.25" y="-200.5" font-family="Helvetica,sans-Serif" font-size="10.00"> Log &gt;</text>
</a>
</g>
</g>
<!-- Node1&#45;&gt;Node2 -->
<g id="edge1_Node000001_Node000002" class="edge">
<title>Node1&#45;&gt;Node2</title>
<g id="a_edge1_Node000001_Node000002"><a xlink:title=" ">
<path fill="none" stroke="#63b8ff" d="M92.95,-136.9C135.08,-166.42 228.04,-226.3 317.25,-248 383.32,-264.07 403.43,-260.62 470.25,-248 492.47,-243.8 516.11,-234.65 534.5,-226.37"/>
<polygon fill="#63b8ff" stroke="#63b8ff" points="95.25,-134.24 85.07,-131.3 91.19,-139.95 95.25,-134.24"/>
</a>
</g>
</g>
<!-- Node3 -->
<g id="Node000003" class="node">
<title>Node3</title>
<g id="a_Node000003"><a xlink:href="classAsyncFw_1_1Instance.html" target="_top" xlink:title=" ">
<polygon fill="white" stroke="#666666" points="648.25,-296 488.25,-296 488.25,-264 648.25,-264 648.25,-296"/>
<text text-anchor="start" x="496.25" y="-282.5" font-family="Helvetica,sans-Serif" font-size="10.00">AsyncFw::Instance&lt;</text>
<text text-anchor="middle" x="568.25" y="-270.5" font-family="Helvetica,sans-Serif" font-size="10.00"> AsyncFw::FileSystemWatcher &gt;</text>
</a>
</g>
</g>
<!-- Node1&#45;&gt;Node3 -->
<g id="edge2_Node000001_Node000003" class="edge">
<title>Node1&#45;&gt;Node3</title>
<g id="a_edge2_Node000001_Node000003"><a xlink:title=" ">
<path fill="none" stroke="#63b8ff" d="M82.93,-139.46C100.76,-164.27 134.94,-206.73 174.5,-230 271.22,-286.89 404.3,-291.56 488.03,-287.47"/>
<polygon fill="#63b8ff" stroke="#63b8ff" points="85.99,-137.73 77.38,-131.54 80.25,-141.74 85.99,-137.73"/>
</a>
</g>
</g>
<!-- Node4 -->
<g id="Node000004" class="node">
<title>Node4</title>
<g id="a_Node000004"><a xlink:href="classAsyncFw_1_1Instance.html" target="_top" xlink:title=" ">
<polygon fill="white" stroke="#666666" points="629.12,-107 507.38,-107 507.38,-75 629.12,-75 629.12,-107"/>
<text text-anchor="start" x="515.38" y="-93.5" font-family="Helvetica,sans-Serif" font-size="10.00">AsyncFw::Instance&lt;</text>
<text text-anchor="middle" x="568.25" y="-81.5" font-family="Helvetica,sans-Serif" font-size="10.00"> AsyncFw::HttpServer &gt;</text>
</a>
</g>
</g>
<!-- Node1&#45;&gt;Node4 -->
<g id="edge3_Node000001_Node000004" class="edge">
<title>Node1&#45;&gt;Node4</title>
<g id="a_edge3_Node000001_Node000004"><a xlink:title=" ">
<path fill="none" stroke="#63b8ff" d="M100.81,-104.7C116.83,-97.3 136.88,-88.79 155.5,-83 289.77,-41.27 332.32,-23.68 470.25,-51 493.3,-55.57 517.75,-65.69 536.34,-74.61"/>
<polygon fill="#63b8ff" stroke="#63b8ff" points="99.34,-101.52 91.79,-108.96 102.33,-107.86 99.34,-101.52"/>
</a>
</g>
</g>
<!-- Node5 -->
<g id="Node000005" class="node">
<title>Node5</title>
<g id="a_Node000005"><a xlink:href="classAsyncFw_1_1Instance.html" target="_top" xlink:title=" ">
<polygon fill="white" stroke="#666666" points="634.38,-32 502.12,-32 502.12,0 634.38,0 634.38,-32"/>
<text text-anchor="start" x="510.12" y="-18.5" font-family="Helvetica,sans-Serif" font-size="10.00">AsyncFw::Instance&lt;</text>
<text text-anchor="middle" x="568.25" y="-6.5" font-family="Helvetica,sans-Serif" font-size="10.00"> AsyncFw::MulticastDns &gt;</text>
</a>
</g>
</g>
<!-- Node1&#45;&gt;Node5 -->
<g id="edge4_Node000001_Node000005" class="edge">
<title>Node1&#45;&gt;Node5</title>
<g id="a_edge4_Node000001_Node000005"><a xlink:title=" ">
<path fill="none" stroke="#63b8ff" d="M86.66,-101.53C105.83,-82.02 139.03,-52.29 174.5,-39 283.72,1.91 421.97,-1.52 501.93,-8.34"/>
<polygon fill="#63b8ff" stroke="#63b8ff" points="84.31,-98.93 79.94,-108.58 89.37,-103.76 84.31,-98.93"/>
</a>
</g>
</g>
<!-- Node6 -->
<g id="Node000006" class="node">
<title>Node6</title>
<g id="a_Node000006"><a xlink:href="classAsyncFw_1_1Instance.html" target="_top" xlink:title=" ">
<polygon fill="white" stroke="#666666" points="630.25,-170 506.25,-170 506.25,-138 630.25,-138 630.25,-170"/>
<text text-anchor="start" x="514.25" y="-156.5" font-family="Helvetica,sans-Serif" font-size="10.00">AsyncFw::Instance&lt;</text>
<text text-anchor="middle" x="568.25" y="-144.5" font-family="Helvetica,sans-Serif" font-size="10.00"> AsyncFw::ThreadPool &gt;</text>
</a>
</g>
</g>
<!-- Node1&#45;&gt;Node6 -->
<g id="edge5_Node000001_Node000006" class="edge">
<title>Node1&#45;&gt;Node6</title>
<g id="a_edge5_Node000001_Node000006"><a xlink:title=" ">
<path fill="none" stroke="#63b8ff" d="M145.53,-108.06C226.79,-97.63 359.13,-87.47 470.25,-111 483.05,-113.71 511.49,-126.64 534.29,-137.62"/>
<polygon fill="#63b8ff" stroke="#63b8ff" points="145.36,-104.56 135.91,-109.34 146.28,-111.5 145.36,-104.56"/>
</a>
</g>
</g>
<!-- Node7 -->
<g id="Node000007" class="node">
<title>Node7</title>
<g id="a_Node000007"><a xlink:href="classAsyncFw_1_1Instance.html" target="_top" xlink:title="The Instance class.">
<polygon fill="white" stroke="#666666" points="299.25,-164 174.5,-164 174.5,-144 299.25,-144 299.25,-164"/>
<text text-anchor="middle" x="236.88" y="-150.5" font-family="Helvetica,sans-Serif" font-size="10.00">AsyncFw::Instance&lt; T &gt;</text>
</a>
</g>
</g>
<!-- Node1&#45;&gt;Node7 -->
<g id="edge6_Node000001_Node000007" class="edge">
<title>Node1&#45;&gt;Node7</title>
<g id="a_edge6_Node000001_Node000007"><a xlink:title=" ">
<path fill="none" stroke="#63b8ff" d="M132.15,-132.77C149.53,-136.33 168.2,-140.15 184.85,-143.56"/>
<polygon fill="#63b8ff" stroke="#63b8ff" points="132.93,-129.36 122.43,-130.78 131.53,-136.22 132.93,-129.36"/>
</a>
</g>
</g>
<!-- Node7&#45;&gt;Node2 -->
<g id="edge7_Node000007_Node000002" class="edge">
<title>Node7&#45;&gt;Node2</title>
<g id="a_edge7_Node000007_Node000002"><a xlink:title=" ">
<path fill="none" stroke="orange" stroke-dasharray="5,2" d="M299.15,-166.61C305.26,-167.79 311.37,-168.94 317.25,-170 385.16,-182.27 463.8,-194.54 514.47,-202.19"/>
<polygon fill="orange" stroke="orange" points="300.18,-163.24 289.69,-164.75 298.83,-170.11 300.18,-163.24"/>
</a>
</g>
<text text-anchor="middle" x="393.75" y="-197.2" font-family="Helvetica,sans-Serif" font-size="10.00" fill="grey"> &lt; Log &gt;</text>
</g>
<!-- Node7&#45;&gt;Node3 -->
<g id="edge8_Node000007_Node000003" class="edge">
<title>Node7&#45;&gt;Node3</title>
<g id="a_edge8_Node000007_Node000003"><a xlink:title=" ">
<path fill="none" stroke="orange" stroke-dasharray="5,2" d="M258.01,-171.54C273.34,-184.11 295.45,-200.58 317.25,-211 371.58,-236.98 437.38,-254.65 487.84,-265.6"/>
<polygon fill="orange" stroke="orange" points="260.47,-169.04 250.56,-165.29 255.97,-174.4 260.47,-169.04"/>
</a>
</g>
<text text-anchor="middle" x="393.75" y="-263.88" font-family="Helvetica,sans-Serif" font-size="10.00" fill="grey"> &lt; AsyncFw::FileSystemWatcher &gt;</text>
</g>
<!-- Node7&#45;&gt;Node4 -->
<g id="edge9_Node000007_Node000004" class="edge">
<title>Node7&#45;&gt;Node4</title>
<g id="a_edge9_Node000007_Node000004"><a xlink:title=" ">
<path fill="none" stroke="orange" stroke-dasharray="5,2" d="M300.16,-141.36C305.94,-140.22 311.7,-139.08 317.25,-138 382.06,-125.38 456.43,-111.47 507.1,-102.08"/>
<polygon fill="orange" stroke="orange" points="299.7,-137.89 290.58,-143.28 301.07,-144.75 299.7,-137.89"/>
</a>
</g>
<text text-anchor="middle" x="393.75" y="-140.5" font-family="Helvetica,sans-Serif" font-size="10.00" fill="grey"> &lt; AsyncFw::HttpServer &gt;</text>
</g>
<!-- Node7&#45;&gt;Node5 -->
<g id="edge10_Node000007_Node000005" class="edge">
<title>Node7&#45;&gt;Node5</title>
<g id="a_edge10_Node000007_Node000005"><a xlink:title=" ">
<path fill="none" stroke="orange" stroke-dasharray="5,2" d="M257.43,-136.15C272.75,-122.96 295.11,-105.38 317.25,-94 376.49,-63.55 449.8,-42.4 501.68,-29.89"/>
<polygon fill="orange" stroke="orange" points="255.18,-133.47 250,-142.7 259.81,-138.72 255.18,-133.47"/>
</a>
</g>
<text text-anchor="middle" x="393.75" y="-96.5" font-family="Helvetica,sans-Serif" font-size="10.00" fill="grey"> &lt; AsyncFw::MulticastDns &gt;</text>
</g>
<!-- Node7&#45;&gt;Node6 -->
<g id="edge11_Node000007_Node000006" class="edge">
<title>Node7&#45;&gt;Node6</title>
<g id="a_edge11_Node000007_Node000006"><a xlink:title=" ">
<path fill="none" stroke="orange" stroke-dasharray="5,2" d="M310.84,-154C369.42,-154 450.74,-154 505.99,-154"/>
<polygon fill="orange" stroke="orange" points="310.96,-150.5 300.96,-154 310.96,-157.5 310.96,-150.5"/>
</a>
</g>
<text text-anchor="middle" x="393.75" y="-156.5" font-family="Helvetica,sans-Serif" font-size="10.00" fill="grey"> &lt; AsyncFw::ThreadPool &gt;</text>
</g>
</g>
</svg>
