<?xml version="1.0" encoding="UTF-8" standalone="no"?>
<!DOCTYPE svg PUBLIC "-//W3C//DTD SVG 1.1//EN"
 "http://www.w3.org/Graphics/SVG/1.1/DTD/svg11.dtd">
<!-- Generated by graphviz version 12.2.1 (20241206.2353)
 -->
<!-- Title: AsyncFw::Log::output Pages: 1 -->
<svg width="621pt" height="253pt"
 viewBox="0.00 0.00 621.00 253.00" xmlns="http://www.w3.org/2000/svg" xmlns:xlink="http://www.w3.org/1999/xlink">
<g id="graph0" class="graph" transform="scale(1 1) rotate(0) translate(4 249)">
<title>AsyncFw::Log::output</title>
<!-- Node1 -->
<g id="Node000001" class="node">
<title>Node1</title>
<g id="a_Node000001"><a xlink:title="Persists log entries into the underlying Rrd buffer and manages automated disk flushing.">
<polygon fill="#999999" stroke="#666666" points="112,-114 0,-114 0,-94 112,-94 112,-114"/>
<text text-anchor="middle" x="56" y="-100.5" font-family="Helvetica,sans-Serif" font-size="10.00">AsyncFw::Log::output</text>
</a>
</g>
</g>
<!-- Node2 -->
<g id="Node000002" class="node">
<title>Node2</title>
<g id="a_Node000002"><a xlink:href="classAsyncFw_1_1Rrd.html#a4c33c8721d57d0b3666549a52bf2a696" target="_top" xlink:title="Ingests and commits a new item layout entry directly into the tail of the circular timeline framework...">
<polygon fill="white" stroke="#666666" points="275.38,-217 158.88,-217 158.88,-197 275.38,-197 275.38,-217"/>
<text text-anchor="middle" x="217.12" y="-203.5" font-family="Helvetica,sans-Serif" font-size="10.00">AsyncFw::Rrd::append</text>
</a>
</g>
</g>
<!-- Node1&#45;&gt;Node2 -->
<g id="edge1_Node000001_Node000002" class="edge">
<title>Node1&#45;&gt;Node2</title>
<g id="a_edge1_Node000001_Node000002"><a xlink:title=" ">
<path fill="none" stroke="#63b8ff" d="M67.4,-114.38C83.53,-130.02 116.03,-159.85 148,-179 156.36,-184.01 165.77,-188.51 174.88,-192.37"/>
<polygon fill="#63b8ff" stroke="#63b8ff" points="173.36,-195.53 183.94,-196.03 175.98,-189.04 173.36,-195.53"/>
</a>
</g>
</g>
<!-- Node6 -->
<g id="Node000006" class="node">
<title>Node6</title>
<g id="a_Node000006"><a xlink:href="classAsyncFw_1_1AbstractThread.html#a09cdd1972b9416a7ddb2a1921f36938c" target="_top" xlink:title="Returns a pointer to the AsyncFw::AbstractThread that manages the currently executing thread.">
<polygon fill="white" stroke="#666666" points="282.12,-170 152.12,-170 152.12,-138 282.12,-138 282.12,-170"/>
<text text-anchor="start" x="160.12" y="-156.5" font-family="Helvetica,sans-Serif" font-size="10.00">AsyncFw::AbstractThread</text>
<text text-anchor="middle" x="217.12" y="-144.5" font-family="Helvetica,sans-Serif" font-size="10.00">::current</text>
</a>
</g>
</g>
<!-- Node1&#45;&gt;Node6 -->
<g id="edge5_Node000001_Node000006" class="edge">
<title>Node1&#45;&gt;Node6</title>
<g id="a_edge5_Node000001_Node000006"><a xlink:title=" ">
<path fill="none" stroke="#63b8ff" d="M90.36,-114.48C108.44,-120.16 131.39,-127.38 152.73,-134.08"/>
<polygon fill="#63b8ff" stroke="#63b8ff" points="151.67,-137.42 162.26,-137.08 153.77,-130.74 151.67,-137.42"/>
</a>
</g>
</g>
<!-- Node8 -->
<g id="Node000008" class="node">
<title>Node8</title>
<g id="a_Node000008"><a xlink:href="classAsyncFw_1_1AbstractLog.html#af5285b3d69b6af192fb2656d44b2e122" target="_top" xlink:title="Routes an individual message directly to active outputs (like LogStream::console_output).">
<polygon fill="white" stroke="#666666" points="275,-120 159.25,-120 159.25,-88 275,-88 275,-120"/>
<text text-anchor="start" x="167.25" y="-106.5" font-family="Helvetica,sans-Serif" font-size="10.00">AsyncFw::AbstractLog</text>
<text text-anchor="middle" x="217.12" y="-94.5" font-family="Helvetica,sans-Serif" font-size="10.00">::output</text>
</a>
</g>
</g>
<!-- Node1&#45;&gt;Node8 -->
<g id="edge8_Node000001_Node000008" class="edge">
<title>Node1&#45;&gt;Node8</title>
<g id="a_edge8_Node000001_Node000008"><a xlink:title=" ">
<path fill="none" stroke="#63b8ff" d="M112.21,-104C123.64,-104 135.81,-104 147.64,-104"/>
<polygon fill="#63b8ff" stroke="#63b8ff" points="147.34,-107.5 157.34,-104 147.34,-100.5 147.34,-107.5"/>
</a>
</g>
</g>
<!-- Node9 -->
<g id="Node000009" class="node">
<title>Node9</title>
<g id="a_Node000009"><a xlink:href="classAsyncFw_1_1Log.html#a36128876c58bc05a4b8ec59144abdaa1" target="_top" xlink:title="Unrolls a Message structure into a flat serialized DataArray binary block suitable for Rrd storage.">
<polygon fill="white" stroke="#666666" points="286.25,-70 148,-70 148,-38 286.25,-38 286.25,-70"/>
<text text-anchor="start" x="156" y="-56.5" font-family="Helvetica,sans-Serif" font-size="10.00">AsyncFw::Log::rrdItemFrom</text>
<text text-anchor="middle" x="217.12" y="-44.5" font-family="Helvetica,sans-Serif" font-size="10.00">Message</text>
</a>
</g>
</g>
<!-- Node1&#45;&gt;Node9 -->
<g id="edge9_Node000001_Node000009" class="edge">
<title>Node1&#45;&gt;Node9</title>
<g id="a_edge9_Node000001_Node000009"><a xlink:title=" ">
<path fill="none" stroke="#63b8ff" d="M90.36,-93.52C108.44,-87.84 131.39,-80.62 152.73,-73.92"/>
<polygon fill="#63b8ff" stroke="#63b8ff" points="153.77,-77.26 162.26,-70.92 151.67,-70.58 153.77,-77.26"/>
</a>
</g>
</g>
<!-- Node12 -->
<g id="Node000012" class="node">
<title>Node12</title>
<g id="a_Node000012"><a xlink:href="classAsyncFw_1_1Log.html#af7b8fc20bdbe3dbf6f8e5b4fee3ada85" target="_top" xlink:title="Safe write transaction proxy that bypasses filesystem synchronization if the database is in read&#45;only...">
<polygon fill="white" stroke="#666666" points="270.12,-20 164.12,-20 164.12,0 270.12,0 270.12,-20"/>
<text text-anchor="middle" x="217.12" y="-6.5" font-family="Helvetica,sans-Serif" font-size="10.00">AsyncFw::Log::save</text>
</a>
</g>
</g>
<!-- Node1&#45;&gt;Node12 -->
<g id="edge12_Node000001_Node000012" class="edge">
<title>Node1&#45;&gt;Node12</title>
<g id="a_edge12_Node000001_Node000012"><a xlink:title=" ">
<path fill="none" stroke="#63b8ff" d="M66.62,-93.67C82.2,-77.54 114.6,-46.42 148,-29 151.21,-27.33 154.59,-25.78 158.05,-24.37"/>
<polygon fill="#63b8ff" stroke="#63b8ff" points="159,-27.75 167.18,-21.01 156.59,-21.18 159,-27.75"/>
</a>
</g>
</g>
<!-- Node3 -->
<g id="Node000003" class="node">
<title>Node3</title>
<g id="a_Node000003"><a xlink:href="classAsyncFw_1_1Rrd.html#a171ca62295eb74da3e222bb14e14dea8" target="_top" xlink:title="Slices historical time&#45;series data records from a given timestamp and extracts them into a provided d...">
<polygon fill="white" stroke="#666666" points="439.12,-226 335.38,-226 335.38,-206 439.12,-206 439.12,-226"/>
<text text-anchor="middle" x="387.25" y="-212.5" font-family="Helvetica,sans-Serif" font-size="10.00">AsyncFw::Rrd::read</text>
</a>
</g>
</g>
<!-- Node2&#45;&gt;Node3 -->
<g id="edge2_Node000002_Node000003" class="edge">
<title>Node2&#45;&gt;Node3</title>
<g id="a_edge2_Node000002_Node000003"><a xlink:title=" ">
<path fill="none" stroke="#63b8ff" d="M275.51,-210.07C291.05,-210.9 307.95,-211.81 323.75,-212.65"/>
<polygon fill="#63b8ff" stroke="#63b8ff" points="323.35,-216.14 333.52,-213.18 323.72,-209.15 323.35,-216.14"/>
</a>
</g>
</g>
<!-- Node4 -->
<g id="Node000004" class="node">
<title>Node4</title>
<g id="a_Node000004"><a xlink:href="classAsyncFw_1_1Rrd.html#a113f3548987e7b830295e91bc74e2b89" target="_top" xlink:title="Returns the absolute unique incremental primary master timeline database record tracking index offset...">
<polygon fill="white" stroke="#666666" points="613,-245 488.25,-245 488.25,-225 613,-225 613,-245"/>
<text text-anchor="middle" x="550.62" y="-231.5" font-family="Helvetica,sans-Serif" font-size="10.00">AsyncFw::Rrd::lastIndex</text>
</a>
</g>
</g>
<!-- Node3&#45;&gt;Node4 -->
<g id="edge3_Node000003_Node000004" class="edge">
<title>Node3&#45;&gt;Node4</title>
<g id="a_edge3_Node000003_Node000004"><a xlink:title=" ">
<path fill="none" stroke="#63b8ff" d="M439.31,-222.01C451.12,-223.4 463.91,-224.91 476.45,-226.38"/>
<polygon fill="#63b8ff" stroke="#63b8ff" points="476.02,-229.86 486.36,-227.55 476.84,-222.91 476.02,-229.86"/>
</a>
</g>
</g>
<!-- Node5 -->
<g id="Node000005" class="node">
<title>Node5</title>
<g id="a_Node000005"><a xlink:href="classAsyncFw_1_1Rrd.html#a330145de892c6f5e916d7dda15aeedfc" target="_top" xlink:title="Returns the absolute maximum capability size (total slots) configured for this circular ring buffer l...">
<polygon fill="white" stroke="#666666" points="602.12,-207 499.12,-207 499.12,-187 602.12,-187 602.12,-207"/>
<text text-anchor="middle" x="550.62" y="-193.5" font-family="Helvetica,sans-Serif" font-size="10.00">AsyncFw::Rrd::size</text>
</a>
</g>
</g>
<!-- Node3&#45;&gt;Node5 -->
<g id="edge4_Node000003_Node000005" class="edge">
<title>Node3&#45;&gt;Node5</title>
<g id="a_edge4_Node000003_Node000005"><a xlink:title=" ">
<path fill="none" stroke="#63b8ff" d="M439.31,-209.99C454.62,-208.19 471.58,-206.19 487.51,-204.31"/>
<polygon fill="#63b8ff" stroke="#63b8ff" points="487.87,-207.79 497.39,-203.15 487.05,-200.84 487.87,-207.79"/>
</a>
</g>
</g>
<!-- Node7 -->
<g id="Node000007" class="node">
<title>Node7</title>
<g id="a_Node000007"><a xlink:href="classAsyncFw_1_1AbstractThread.html#ac8be1c406c4235ff1dabc1cdb4ac04ba" target="_top" xlink:title="Constructs a thread.">
<polygon fill="white" stroke="#666666" points="452.25,-170 322.25,-170 322.25,-138 452.25,-138 452.25,-170"/>
<text text-anchor="start" x="330.25" y="-156.5" font-family="Helvetica,sans-Serif" font-size="10.00">AsyncFw::AbstractThread</text>
<text text-anchor="middle" x="387.25" y="-144.5" font-family="Helvetica,sans-Serif" font-size="10.00">::AbstractThread</text>
</a>
</g>
</g>
<!-- Node6&#45;&gt;Node7 -->
<g id="edge6_Node000006_Node000007" class="edge">
<title>Node6&#45;&gt;Node7</title>
<g id="a_edge6_Node000006_Node000007"><a xlink:title=" ">
<path fill="none" stroke="#63b8ff" d="M282.17,-154C291.4,-154 300.98,-154 310.42,-154"/>
<polygon fill="#63b8ff" stroke="#63b8ff" points="310.32,-157.5 320.32,-154 310.32,-150.5 310.32,-157.5"/>
</a>
</g>
</g>
<!-- Node7&#45;&gt;Node7 -->
<g id="edge7_Node000007_Node000007" class="edge">
<title>Node7&#45;&gt;Node7</title>
<g id="a_edge7_Node000007_Node000007"><a xlink:title=" ">
<path fill="none" stroke="#63b8ff" d="M358.08,-170.44C352.64,-179.58 362.36,-188 387.25,-188 400.86,-188 409.94,-185.48 414.48,-181.71"/>
<polygon fill="#63b8ff" stroke="#63b8ff" points="417.91,-182.38 416.16,-171.93 411.01,-181.19 417.91,-182.38"/>
</a>
</g>
</g>
<!-- Node10 -->
<g id="Node000010" class="node">
<title>Node10</title>
<g id="a_Node000010"><a xlink:href="classAsyncFw_1_1DataStream.html#ae64c4b08a3259146d4476c0385352479" target="_top" xlink:title="Retrieves a reference to the active cumulative raw byte array built by the stream.">
<polygon fill="white" stroke="#666666" points="445.12,-120 329.38,-120 329.38,-88 445.12,-88 445.12,-120"/>
<text text-anchor="start" x="337.38" y="-106.5" font-family="Helvetica,sans-Serif" font-size="10.00">AsyncFw::DataStream</text>
<text text-anchor="middle" x="387.25" y="-94.5" font-family="Helvetica,sans-Serif" font-size="10.00">::array</text>
</a>
</g>
</g>
<!-- Node9&#45;&gt;Node10 -->
<g id="edge10_Node000009_Node000010" class="edge">
<title>Node9&#45;&gt;Node10</title>
<g id="a_edge10_Node000009_Node000010"><a xlink:title=" ">
<path fill="none" stroke="#63b8ff" d="M273.18,-70.37C288.19,-74.84 304.62,-79.72 320.18,-84.35"/>
<polygon fill="#63b8ff" stroke="#63b8ff" points="318.75,-87.58 329.34,-87.07 320.75,-80.87 318.75,-87.58"/>
</a>
</g>
</g>
<!-- Node11 -->
<g id="Node000011" class="node">
<title>Node11</title>
<g id="a_Node000011"><a xlink:href="classAsyncFw_1_1DataStream.html#a58e67062bf6cd3f77a8203758b01eaf8" target="_top" xlink:title="Checks if the stream pipeline encountered a boundary check failure, bad memory, or malformed data pac...">
<polygon fill="white" stroke="#666666" points="445.12,-70 329.38,-70 329.38,-38 445.12,-38 445.12,-70"/>
<text text-anchor="start" x="337.38" y="-56.5" font-family="Helvetica,sans-Serif" font-size="10.00">AsyncFw::DataStream</text>
<text text-anchor="middle" x="387.25" y="-44.5" font-family="Helvetica,sans-Serif" font-size="10.00">::fail</text>
</a>
</g>
</g>
<!-- Node9&#45;&gt;Node11 -->
<g id="edge11_Node000009_Node000011" class="edge">
<title>Node9&#45;&gt;Node11</title>
<g id="a_edge11_Node000009_Node000011"><a xlink:title=" ">
<path fill="none" stroke="#63b8ff" d="M286.51,-54C296.75,-54 307.31,-54 317.55,-54"/>
<polygon fill="#63b8ff" stroke="#63b8ff" points="317.44,-57.5 327.44,-54 317.44,-50.5 317.44,-57.5"/>
</a>
</g>
</g>
<!-- Node13 -->
<g id="Node000013" class="node">
<title>Node13</title>
<g id="a_Node000013"><a xlink:href="classAsyncFw_1_1Rrd.html#a7f2590f1a87af46970c6e54eefb4c6f6" target="_top" xlink:title="Forces a synchronous flushing execution write path to save memory tables down to an explicit local fi...">
<polygon fill="white" stroke="#666666" points="440.25,-20 334.25,-20 334.25,0 440.25,0 440.25,-20"/>
<text text-anchor="middle" x="387.25" y="-6.5" font-family="Helvetica,sans-Serif" font-size="10.00">AsyncFw::Rrd::save</text>
</a>
</g>
</g>
<!-- Node12&#45;&gt;Node13 -->
<g id="edge13_Node000012_Node000013" class="edge">
<title>Node12&#45;&gt;Node13</title>
<g id="a_edge13_Node000012_Node000013"><a xlink:title=" ">
<path fill="none" stroke="#63b8ff" d="M270.4,-10C287,-10 305.55,-10 322.85,-10"/>
<polygon fill="#63b8ff" stroke="#63b8ff" points="322.49,-13.5 332.49,-10 322.49,-6.5 322.49,-13.5"/>
</a>
</g>
</g>
</g>
</svg>
