<?xml version="1.0" encoding="UTF-8" standalone="no"?>
<!DOCTYPE svg PUBLIC "-//W3C//DTD SVG 1.1//EN"
 "http://www.w3.org/Graphics/SVG/1.1/DTD/svg11.dtd">
<!-- Generated by graphviz version 14.1.3 (20260303.0454)
 -->
<!-- Title: AsyncFw::DataArrayAbstractTcp::Thread Pages: 1 -->
<svg width="312pt" height="301pt"
 viewBox="0.00 0.00 312.00 301.00" xmlns="http://www.w3.org/2000/svg" xmlns:xlink="http://www.w3.org/1999/xlink">
<g id="graph0" class="graph" transform="scale(1 1) rotate(0) translate(4 297)">
<title>AsyncFw::DataArrayAbstractTcp::Thread</title>
<!-- Node1 -->
<g id="Node000001" class="node">
<title>Node1</title>
<g id="a_Node000001"><a xlink:title=" ">
<polygon fill="#999999" stroke="#666666" points="245,-32 100.75,-32 100.75,0 245,0 245,-32"/>
<text xml:space="preserve" text-anchor="start" x="108.75" y="-18.5" font-family="Helvetica,sans-Serif" font-size="10.00">AsyncFw::DataArrayAbstract</text>
<text xml:space="preserve" text-anchor="middle" x="172.88" y="-6.5" font-family="Helvetica,sans-Serif" font-size="10.00">Tcp::Thread</text>
</a>
</g>
</g>
<!-- Node2 -->
<g id="Node000002" class="node">
<title>Node2</title>
<g id="a_Node000002"><a xlink:href="classAsyncFw_1_1AbstractThreadPool_1_1Thread.html" target="_top" xlink:title=" ">
<polygon fill="white" stroke="#666666" points="192.62,-101 43.12,-101 43.12,-69 192.62,-69 192.62,-101"/>
<text xml:space="preserve" text-anchor="start" x="51.12" y="-87.5" font-family="Helvetica,sans-Serif" font-size="10.00">AsyncFw::AbstractThreadPool</text>
<text xml:space="preserve" text-anchor="middle" x="117.88" y="-75.5" font-family="Helvetica,sans-Serif" font-size="10.00">::Thread</text>
</a>
</g>
</g>
<!-- Node2&#45;&gt;Node1 -->
<g id="edge1_Node000001_Node000002" class="edge">
<title>Node2&#45;&gt;Node1</title>
<g id="a_edge1_Node000001_Node000002"><a xlink:title=" ">
<path fill="none" stroke="#63b8ff" d="M137.59,-59.98C145.21,-50.7 153.7,-40.36 160.44,-32.14"/>
<polygon fill="#63b8ff" stroke="#63b8ff" points="134.96,-57.68 131.32,-67.63 140.37,-62.12 134.96,-57.68"/>
</a>
</g>
</g>
<!-- Node3 -->
<g id="Node000003" class="node">
<title>Node3</title>
<g id="a_Node000003"><a xlink:href="classAsyncFw_1_1Thread.html" target="_top" xlink:title="AsyncFw::Thread thread with sockets.">
<polygon fill="white" stroke="#666666" points="136.5,-175 43.25,-175 43.25,-155 136.5,-155 136.5,-175"/>
<text xml:space="preserve" text-anchor="middle" x="89.88" y="-161.5" font-family="Helvetica,sans-Serif" font-size="10.00">AsyncFw::Thread</text>
</a>
</g>
</g>
<!-- Node3&#45;&gt;Node2 -->
<g id="edge2_Node000002_Node000003" class="edge">
<title>Node3&#45;&gt;Node2</title>
<g id="a_edge2_Node000002_Node000003"><a xlink:title=" ">
<path fill="none" stroke="#63b8ff" d="M97.09,-143.91C101.84,-130.67 107.97,-113.59 112.34,-101.42"/>
<polygon fill="#63b8ff" stroke="#63b8ff" points="93.79,-142.73 93.71,-153.32 100.38,-145.09 93.79,-142.73"/>
</a>
</g>
</g>
<!-- Node4 -->
<g id="Node000004" class="node">
<title>Node4</title>
<g id="a_Node000004"><a xlink:href="classAsyncFw_1_1AbstractThread.html" target="_top" xlink:title="The AbstractThread class provides the base functionality for thread management.">
<polygon fill="white" stroke="#666666" points="293.88,-287 163.88,-287 163.88,-267 293.88,-267 293.88,-287"/>
<text xml:space="preserve" text-anchor="middle" x="228.88" y="-273.5" font-family="Helvetica,sans-Serif" font-size="10.00">AsyncFw::AbstractThread</text>
</a>
</g>
</g>
<!-- Node4&#45;&gt;Node3 -->
<g id="edge3_Node000003_Node000004" class="edge">
<title>Node4&#45;&gt;Node3</title>
<g id="a_edge3_Node000003_Node000004"><a xlink:title=" ">
<path fill="none" stroke="#63b8ff" d="M211.27,-258.69C192.98,-241.14 163.13,-213.68 134.88,-193 126.05,-186.54 115.61,-180.21 107.01,-175.3"/>
<polygon fill="#63b8ff" stroke="#63b8ff" points="208.79,-261.16 218.41,-265.61 213.66,-256.13 208.79,-261.16"/>
</a>
</g>
</g>
<!-- Node6 -->
<g id="Node000006" class="node">
<title>Node6</title>
<g id="a_Node000006"><a xlink:href="classAsyncFw_1_1AbstractThreadPool.html" target="_top" xlink:title="Abstract base class for creating and managing thread pools.">
<polygon fill="white" stroke="#666666" points="303.62,-175 154.12,-175 154.12,-155 303.62,-155 303.62,-175"/>
<text xml:space="preserve" text-anchor="middle" x="228.88" y="-161.5" font-family="Helvetica,sans-Serif" font-size="10.00">AsyncFw::AbstractThreadPool</text>
</a>
</g>
</g>
<!-- Node4&#45;&gt;Node6 -->
<g id="edge6_Node000006_Node000004" class="edge">
<title>Node4&#45;&gt;Node6</title>
<g id="a_edge6_Node000006_Node000004"><a xlink:title=" ">
<path fill="none" stroke="#9a32cd" stroke-dasharray="5,2" d="M228.88,-255.31C228.88,-231.36 228.88,-192.95 228.88,-175.35"/>
<polygon fill="#9a32cd" stroke="#9a32cd" points="225.38,-255.11 228.88,-265.11 232.38,-255.11 225.38,-255.11"/>
</a>
</g>
<text xml:space="preserve" text-anchor="start" x="231.88" y="-214.25" font-family="Helvetica,sans-Serif" font-size="10.00" fill="grey">thread_</text>
</g>
<!-- Node5 -->
<g id="Node000005" class="node">
<title>Node5</title>
<g id="a_Node000005"><a xlink:href="classAsyncFw_1_1FunctionConnector.html" target="_top" xlink:title="Provides a thread&#45;safe, publisher&#45;subscriber mechanism to establish sender&#45;to&#45;receivers connections.">
<polygon fill="white" stroke="#666666" points="145.75,-293 0,-293 0,-261 145.75,-261 145.75,-293"/>
<text xml:space="preserve" text-anchor="start" x="8" y="-279.5" font-family="Helvetica,sans-Serif" font-size="10.00">AsyncFw::FunctionConnector</text>
<text xml:space="preserve" text-anchor="middle" x="72.88" y="-267.5" font-family="Helvetica,sans-Serif" font-size="10.00">&lt; Args &gt;</text>
</a>
</g>
</g>
<!-- Node5&#45;&gt;Node3 -->
<g id="edge4_Node000003_Node000005" class="edge">
<title>Node5&#45;&gt;Node3</title>
<g id="a_edge4_Node000003_Node000005"><a xlink:title=" ">
<path fill="none" stroke="#9a32cd" stroke-dasharray="5,2" d="M76.96,-249.55C80.67,-225.58 85.92,-191.6 88.43,-175.35"/>
<polygon fill="#9a32cd" stroke="#9a32cd" points="73.54,-248.79 75.47,-259.21 80.46,-249.86 73.54,-248.79"/>
</a>
</g>
<text xml:space="preserve" text-anchor="start" x="88.32" y="-230.25" font-family="Helvetica,sans-Serif" font-size="10.00" fill="grey">destroing</text>
<text xml:space="preserve" text-anchor="start" x="88.32" y="-214.25" font-family="Helvetica,sans-Serif" font-size="10.00" fill="grey">finished</text>
<text xml:space="preserve" text-anchor="start" x="88.32" y="-198.25" font-family="Helvetica,sans-Serif" font-size="10.00" fill="grey">started</text>
</g>
<!-- Node6&#45;&gt;Node1 -->
<g id="edge7_Node000001_Node000006" class="edge">
<title>Node6&#45;&gt;Node1</title>
<g id="a_edge7_Node000001_Node000006"><a xlink:title=" ">
<path fill="none" stroke="#9a32cd" stroke-dasharray="5,2" d="M224.48,-143.4C219.97,-123.84 212.16,-93.82 201.88,-69 196.57,-56.2 188.88,-42.56 182.74,-32.45"/>
<polygon fill="#9a32cd" stroke="#9a32cd" points="221.05,-144.11 226.63,-153.11 227.88,-142.59 221.05,-144.11"/>
</a>
</g>
<text xml:space="preserve" text-anchor="start" x="215.96" y="-81.25" font-family="Helvetica,sans-Serif" font-size="10.00" fill="grey">pool</text>
</g>
<!-- Node6&#45;&gt;Node2 -->
<g id="edge5_Node000002_Node000006" class="edge">
<title>Node6&#45;&gt;Node2</title>
<g id="a_edge5_Node000002_Node000006"><a xlink:title=" ">
<path fill="none" stroke="#9a32cd" stroke-dasharray="5,2" d="M206.41,-148.22C186.99,-134.57 159.08,-114.96 139.82,-101.42"/>
<polygon fill="#9a32cd" stroke="#9a32cd" points="204.27,-150.99 214.47,-153.88 208.3,-145.26 204.27,-150.99"/>
</a>
</g>
<text xml:space="preserve" text-anchor="start" x="192.8" y="-124.25" font-family="Helvetica,sans-Serif" font-size="10.00" fill="grey">pool</text>
</g>
</g>
</svg>
