<?xml version="1.0" encoding="UTF-8" standalone="no"?>
<!DOCTYPE svg PUBLIC "-//W3C//DTD SVG 1.1//EN"
 "http://www.w3.org/Graphics/SVG/1.1/DTD/svg11.dtd">
<!-- Generated by graphviz version 12.2.1 (20241206.2353)
 -->
<!-- Title: AsyncFw::FileSystemWatcher Pages: 1 -->
<svg width="240pt" height="269pt"
 viewBox="0.00 0.00 240.25 269.00" xmlns="http://www.w3.org/2000/svg" xmlns:xlink="http://www.w3.org/1999/xlink">
<g id="graph0" class="graph" transform="scale(1 1) rotate(0) translate(4 265)">
<title>AsyncFw::FileSystemWatcher</title>
<!-- Node1 -->
<g id="Node000001" class="node">
<title>Node1</title>
<g id="a_Node000001"><a xlink:title="The FileSystemWatcher class.">
<polygon fill="#999999" stroke="#666666" points="148.75,-20 0,-20 0,0 148.75,0 148.75,-20"/>
<text text-anchor="middle" x="74.38" y="-6.5" font-family="Helvetica,sans-Serif" font-size="10.00">AsyncFw::FileSystemWatcher</text>
</a>
</g>
</g>
<!-- Node2 -->
<g id="Node000002" class="node">
<title>Node2</title>
<g id="a_Node000002"><a xlink:href="classAsyncFw_1_1FunctionConnector.html" target="_top" xlink:title=" ">
<polygon fill="white" stroke="#666666" points="147.25,-100 1.5,-100 1.5,-68 147.25,-68 147.25,-100"/>
<text text-anchor="start" x="9.5" y="-86.5" font-family="Helvetica,sans-Serif" font-size="10.00">AsyncFw::FunctionConnector</text>
<text text-anchor="middle" x="74.38" y="-74.5" font-family="Helvetica,sans-Serif" font-size="10.00">&lt; const std::string &amp;, int &gt;</text>
</a>
</g>
</g>
<!-- Node2&#45;&gt;Node1 -->
<g id="edge1_Node000001_Node000002" class="edge">
<title>Node2&#45;&gt;Node1</title>
<g id="a_edge1_Node000001_Node000002"><a xlink:title=" ">
<path fill="none" stroke="#9a32cd" stroke-dasharray="5,2" d="M74.38,-56.34C74.38,-43.7 74.38,-29.41 74.38,-20.31"/>
<polygon fill="#9a32cd" stroke="#9a32cd" points="70.88,-56.22 74.38,-66.22 77.88,-56.22 70.88,-56.22"/>
</a>
</g>
<text text-anchor="middle" x="87.88" y="-40.5" font-family="Helvetica,sans-Serif" font-size="10.00" fill="grey"> notify</text>
</g>
<!-- Node3 -->
<g id="Node000003" class="node">
<title>Node3</title>
<g id="a_Node000003"><a xlink:href="classAsyncFw_1_1AbstractFunctionConnector.html" target="_top" xlink:title="The AbstractFunctionConnector class provides the base functionality for FunctionConnector.">
<polygon fill="white" stroke="#666666" points="139.12,-261 1.62,-261 1.62,-229 139.12,-229 139.12,-261"/>
<text text-anchor="start" x="9.62" y="-247.5" font-family="Helvetica,sans-Serif" font-size="10.00">AsyncFw::AbstractFunction</text>
<text text-anchor="middle" x="70.38" y="-235.5" font-family="Helvetica,sans-Serif" font-size="10.00">Connector</text>
</a>
</g>
</g>
<!-- Node3&#45;&gt;Node2 -->
<g id="edge2_Node000002_Node000003" class="edge">
<title>Node3&#45;&gt;Node2</title>
<g id="a_edge2_Node000002_Node000003"><a xlink:title=" ">
<path fill="none" stroke="#63b8ff" d="M71.04,-217.57C71.88,-184.11 73.3,-127.57 73.99,-100.43"/>
<polygon fill="#63b8ff" stroke="#63b8ff" points="67.55,-217.16 70.8,-227.24 74.55,-217.33 67.55,-217.16"/>
</a>
</g>
</g>
<!-- Node4 -->
<g id="Node000004" class="node">
<title>Node4</title>
<g id="a_Node000004"><a xlink:href="classAsyncFw_1_1FunctionConnector.html" target="_top" xlink:title="Provides a thread&#45;safe, publisher&#45;subscriber mechanism to establish sender&#45;to&#45;receivers connections.">
<polygon fill="white" stroke="#666666" points="232.25,-192 86.5,-192 86.5,-160 232.25,-160 232.25,-192"/>
<text text-anchor="start" x="94.5" y="-178.5" font-family="Helvetica,sans-Serif" font-size="10.00">AsyncFw::FunctionConnector</text>
<text text-anchor="middle" x="159.38" y="-166.5" font-family="Helvetica,sans-Serif" font-size="10.00">&lt; Args &gt;</text>
</a>
</g>
</g>
<!-- Node3&#45;&gt;Node4 -->
<g id="edge4_Node000004_Node000003" class="edge">
<title>Node3&#45;&gt;Node4</title>
<g id="a_edge4_Node000004_Node000003"><a xlink:title=" ">
<path fill="none" stroke="#63b8ff" d="M99.54,-222.05C112.43,-212.34 127.27,-201.17 138.95,-192.38"/>
<polygon fill="#63b8ff" stroke="#63b8ff" points="97.66,-219.08 91.78,-227.89 101.87,-224.67 97.66,-219.08"/>
</a>
</g>
</g>
<!-- Node4&#45;&gt;Node2 -->
<g id="edge3_Node000002_Node000004" class="edge">
<title>Node4&#45;&gt;Node2</title>
<g id="a_edge3_Node000002_Node000004"><a xlink:title=" ">
<path fill="none" stroke="orange" stroke-dasharray="5,2" d="M137.45,-151.78C122.16,-135.6 102.2,-114.46 88.86,-100.34"/>
<polygon fill="orange" stroke="orange" points="134.51,-153.77 143.92,-158.63 139.59,-148.96 134.51,-153.77"/>
</a>
</g>
<text text-anchor="start" x="126.99" y="-132.5" font-family="Helvetica,sans-Serif" font-size="10.00" fill="grey"> &lt; const std::string</text>
<text text-anchor="middle" x="168.24" y="-120.5" font-family="Helvetica,sans-Serif" font-size="10.00" fill="grey"> &amp;, int &gt;</text>
</g>
</g>
</svg>
