<?xml version="1.0" encoding="UTF-8" standalone="no"?>
<!DOCTYPE svg PUBLIC "-//W3C//DTD SVG 1.1//EN"
 "http://www.w3.org/Graphics/SVG/1.1/DTD/svg11.dtd">
<!-- Generated by graphviz version 14.1.3 (20260303.0454)
 -->
<!-- Title: AsyncFw::DataArraySocket::transmit Pages: 1 -->
<svg width="501pt" height="90pt"
 viewBox="0.00 0.00 501.00 90.00" xmlns="http://www.w3.org/2000/svg" xmlns:xlink="http://www.w3.org/1999/xlink">
<g id="graph0" class="graph" transform="scale(1 1) rotate(0) translate(4 86)">
<title>AsyncFw::DataArraySocket::transmit</title>
<!-- Node1 -->
<g id="Node000001" class="node">
<title>Node1</title>
<g id="a_Node000001"><a xlink:title="Asynchronously transmits a data array through the socket.">
<polygon fill="#999999" stroke="#666666" points="138.25,-57 0,-57 0,-25 138.25,-25 138.25,-57"/>
<text xml:space="preserve" text-anchor="start" x="8" y="-43.5" font-family="Helvetica,sans-Serif" font-size="10.00">AsyncFw::DataArraySocket</text>
<text xml:space="preserve" text-anchor="middle" x="69.12" y="-31.5" font-family="Helvetica,sans-Serif" font-size="10.00">::transmit</text>
</a>
</g>
</g>
<!-- Node2 -->
<g id="Node000002" class="node">
<title>Node2</title>
<g id="a_Node000002"><a xlink:href="classAsyncFw_1_1DataArraySocket.html#a9942cbf100e7898ba95c8fb92e059ae8" target="_top" xlink:title="Disconnects the socket from the remote peer.">
<polygon fill="white" stroke="#666666" points="312.5,-82 174.25,-82 174.25,-50 312.5,-50 312.5,-82"/>
<text xml:space="preserve" text-anchor="start" x="182.25" y="-68.5" font-family="Helvetica,sans-Serif" font-size="10.00">AsyncFw::DataArraySocket</text>
<text xml:space="preserve" text-anchor="middle" x="243.38" y="-56.5" font-family="Helvetica,sans-Serif" font-size="10.00">::disconnect</text>
</a>
</g>
</g>
<!-- Node1&#45;&gt;Node2 -->
<g id="edge1_Node000001_Node000002" class="edge">
<title>Node1&#45;&gt;Node2</title>
<g id="a_edge1_Node000001_Node000002"><a xlink:title=" ">
<path fill="none" stroke="#63b8ff" d="M138.7,-50.95C146.54,-52.09 154.59,-53.26 162.56,-54.42"/>
<polygon fill="#63b8ff" stroke="#63b8ff" points="161.86,-57.85 172.26,-55.82 162.87,-50.92 161.86,-57.85"/>
</a>
</g>
</g>
<!-- Node4 -->
<g id="Node000004" class="node">
<title>Node4</title>
<g id="a_Node000004"><a xlink:href="classAsyncFw_1_1AbstractSocket.html#ac1b9b68ae7fe6c9312d9d713a7b444a9" target="_top" xlink:title="Return Thread that manages the socket.">
<polygon fill="white" stroke="#666666" points="308.75,-32 178,-32 178,0 308.75,0 308.75,-32"/>
<text xml:space="preserve" text-anchor="start" x="186" y="-18.5" font-family="Helvetica,sans-Serif" font-size="10.00">AsyncFw::AbstractSocket</text>
<text xml:space="preserve" text-anchor="middle" x="243.38" y="-6.5" font-family="Helvetica,sans-Serif" font-size="10.00">::thread</text>
</a>
</g>
</g>
<!-- Node1&#45;&gt;Node4 -->
<g id="edge3_Node000001_Node000004" class="edge">
<title>Node1&#45;&gt;Node4</title>
<g id="a_edge3_Node000001_Node000004"><a xlink:title=" ">
<path fill="none" stroke="#63b8ff" d="M138.7,-31.05C147.84,-29.72 157.25,-28.36 166.5,-27.01"/>
<polygon fill="#63b8ff" stroke="#63b8ff" points="166.79,-30.51 176.18,-25.61 165.78,-23.58 166.79,-30.51"/>
</a>
</g>
</g>
<!-- Node3 -->
<g id="Node000003" class="node">
<title>Node3</title>
<g id="a_Node000003"><a xlink:href="classAsyncFw_1_1AbstractTlsSocket.html#af52f94f709ab74eace61da79cbd8af7d" target="_top" xlink:title="Shuts down the active TLS session gracefully via SSL_shutdown() before terminating the network pipe.">
<polygon fill="white" stroke="#666666" points="492.75,-82 348.5,-82 348.5,-50 492.75,-50 492.75,-82"/>
<text xml:space="preserve" text-anchor="start" x="356.5" y="-68.5" font-family="Helvetica,sans-Serif" font-size="10.00">AsyncFw::AbstractTlsSocket</text>
<text xml:space="preserve" text-anchor="middle" x="420.62" y="-56.5" font-family="Helvetica,sans-Serif" font-size="10.00">::disconnect</text>
</a>
</g>
</g>
<!-- Node2&#45;&gt;Node3 -->
<g id="edge2_Node000002_Node000003" class="edge">
<title>Node2&#45;&gt;Node3</title>
<g id="a_edge2_Node000002_Node000003"><a xlink:title=" ">
<path fill="none" stroke="#63b8ff" d="M312.88,-66C320.78,-66 328.89,-66 336.95,-66"/>
<polygon fill="#63b8ff" stroke="#63b8ff" points="336.76,-69.5 346.76,-66 336.76,-62.5 336.76,-69.5"/>
</a>
</g>
</g>
</g>
</svg>
