<?xml version="1.0" encoding="UTF-8" standalone="no"?>
<!DOCTYPE svg PUBLIC "-//W3C//DTD SVG 1.1//EN"
 "http://www.w3.org/Graphics/SVG/1.1/DTD/svg11.dtd">
<!-- Generated by graphviz version 12.2.1 (20241206.2353)
 -->
<!-- Title: AsyncFw::ListenSocket Pages: 1 -->
<svg width="860pt" height="137pt"
 viewBox="0.00 0.00 860.00 137.00" xmlns="http://www.w3.org/2000/svg" xmlns:xlink="http://www.w3.org/1999/xlink">
<g id="graph0" class="graph" transform="scale(1 1) rotate(0) translate(4 133)">
<title>AsyncFw::ListenSocket</title>
<!-- Node1 -->
<g id="Node000001" class="node">
<title>Node1</title>
<g id="a_Node000001"><a xlink:title="The ListenSocket class.">
<polygon fill="#999999" stroke="#666666" points="852,-52 731.75,-52 731.75,-32 852,-32 852,-52"/>
<text text-anchor="middle" x="791.88" y="-38.5" font-family="Helvetica,sans-Serif" font-size="10.00">AsyncFw::ListenSocket</text>
</a>
</g>
</g>
<!-- Node2 -->
<g id="Node000002" class="node">
<title>Node2</title>
<g id="a_Node000002"><a xlink:href="classAsyncFw_1_1AbstractSocket.html" target="_top" xlink:title="Abstract base class providing core network socket functionality and OS descriptor abstraction.">
<polygon fill="white" stroke="#666666" points="694.75,-78 564,-78 564,-58 694.75,-58 694.75,-78"/>
<text text-anchor="middle" x="629.38" y="-64.5" font-family="Helvetica,sans-Serif" font-size="10.00">AsyncFw::AbstractSocket</text>
</a>
</g>
</g>
<!-- Node2&#45;&gt;Node1 -->
<g id="edge1_Node000001_Node000002" class="edge">
<title>Node2&#45;&gt;Node1</title>
<g id="a_edge1_Node000001_Node000002"><a xlink:title=" ">
<path fill="none" stroke="#8b1a1a" d="M705.92,-55.76C714.49,-54.37 723.13,-52.97 731.44,-51.63"/>
<polygon fill="#8b1a1a" stroke="#8b1a1a" points="705.54,-52.28 696.23,-57.33 706.66,-59.19 705.54,-52.28"/>
</a>
</g>
</g>
<!-- Node3 -->
<g id="Node000003" class="node">
<title>Node3</title>
<g id="a_Node000003"><a xlink:href="structAsyncFw_1_1AnyData.html" target="_top" xlink:title="A generic, type&#45;safe data container block wrapper utilizing std::any.">
<polygon fill="white" stroke="#666666" points="382.25,-116 280.75,-116 280.75,-96 382.25,-96 382.25,-116"/>
<text text-anchor="middle" x="331.5" y="-102.5" font-family="Helvetica,sans-Serif" font-size="10.00">AsyncFw::AnyData</text>
</a>
</g>
</g>
<!-- Node3&#45;&gt;Node2 -->
<g id="edge2_Node000002_Node000003" class="edge">
<title>Node3&#45;&gt;Node2</title>
<g id="a_edge2_Node000002_Node000003"><a xlink:title=" ">
<path fill="none" stroke="#63b8ff" d="M394.05,-101.12C436.8,-97.38 495.02,-91.56 546,-84 556.52,-82.44 567.74,-80.47 578.4,-78.45"/>
<polygon fill="#63b8ff" stroke="#63b8ff" points="393.87,-97.62 384.21,-101.97 394.47,-104.6 393.87,-97.62"/>
</a>
</g>
</g>
<!-- Node4 -->
<g id="Node000004" class="node">
<title>Node4</title>
<g id="a_Node000004"><a xlink:href="classAsyncFw_1_1Thread.html" target="_top" xlink:title="AsyncFw::Thread thread with sockets.">
<polygon fill="white" stroke="#666666" points="378.12,-78 284.88,-78 284.88,-58 378.12,-58 378.12,-78"/>
<text text-anchor="middle" x="331.5" y="-64.5" font-family="Helvetica,sans-Serif" font-size="10.00">AsyncFw::Thread</text>
</a>
</g>
</g>
<!-- Node4&#45;&gt;Node2 -->
<g id="edge3_Node000002_Node000004" class="edge">
<title>Node4&#45;&gt;Node2</title>
<g id="a_edge3_Node000002_Node000004"><a xlink:title=" ">
<path fill="none" stroke="#9a32cd" stroke-dasharray="5,2" d="M389.62,-68C439.45,-68 511.71,-68 563.66,-68"/>
<polygon fill="#9a32cd" stroke="#9a32cd" points="389.92,-64.5 379.92,-68 389.92,-71.5 389.92,-64.5"/>
</a>
</g>
<text text-anchor="middle" x="473.12" y="-70.5" font-family="Helvetica,sans-Serif" font-size="10.00" fill="grey"> thread_</text>
</g>
<!-- Node5 -->
<g id="Node000005" class="node">
<title>Node5</title>
<g id="a_Node000005"><a xlink:href="classAsyncFw_1_1AbstractThread.html" target="_top" xlink:title="The AbstractThread class provides the base functionality for thread management.">
<polygon fill="white" stroke="#666666" points="137.88,-129 7.88,-129 7.88,-109 137.88,-109 137.88,-129"/>
<text text-anchor="middle" x="72.88" y="-115.5" font-family="Helvetica,sans-Serif" font-size="10.00">AsyncFw::AbstractThread</text>
</a>
</g>
</g>
<!-- Node5&#45;&gt;Node4 -->
<g id="edge4_Node000004_Node000005" class="edge">
<title>Node5&#45;&gt;Node4</title>
<g id="a_edge4_Node000004_Node000005"><a xlink:title=" ">
<path fill="none" stroke="#63b8ff" d="M149.52,-122.42C185.08,-121.49 227.34,-116.65 262.75,-102 272.37,-98.02 271.76,-92.26 280.75,-87 286.25,-83.78 292.41,-80.91 298.46,-78.44"/>
<polygon fill="#63b8ff" stroke="#63b8ff" points="149.69,-118.91 139.74,-122.56 149.79,-125.91 149.69,-118.91"/>
</a>
</g>
</g>
<!-- Node6 -->
<g id="Node000006" class="node">
<title>Node6</title>
<g id="a_Node000006"><a xlink:href="classAsyncFw_1_1FunctionConnector.html" target="_top" xlink:title="Provides a thread&#45;safe, publisher&#45;subscriber mechanism to establish sender&#45;to&#45;receivers connections.">
<polygon fill="white" stroke="#666666" points="145.75,-61 0,-61 0,-29 145.75,-29 145.75,-61"/>
<text text-anchor="start" x="8" y="-47.5" font-family="Helvetica,sans-Serif" font-size="10.00">AsyncFw::FunctionConnector</text>
<text text-anchor="middle" x="72.88" y="-35.5" font-family="Helvetica,sans-Serif" font-size="10.00">&lt; Args &gt;</text>
</a>
</g>
</g>
<!-- Node6&#45;&gt;Node4 -->
<g id="edge5_Node000004_Node000006" class="edge">
<title>Node6&#45;&gt;Node4</title>
<g id="a_edge5_Node000004_Node000006"><a xlink:title=" ">
<path fill="none" stroke="#9a32cd" stroke-dasharray="5,2" d="M157.47,-52.49C199.75,-56.28 249.43,-60.73 284.69,-63.89"/>
<polygon fill="#9a32cd" stroke="#9a32cd" points="157.82,-49.01 147.55,-51.6 157.2,-55.98 157.82,-49.01"/>
</a>
</g>
<text text-anchor="middle" x="213.25" y="-88.33" font-family="Helvetica,sans-Serif" font-size="10.00" fill="grey"> destroing</text>
<text text-anchor="middle" x="213.25" y="-76.33" font-family="Helvetica,sans-Serif" font-size="10.00" fill="grey">finished</text>
<text text-anchor="middle" x="213.25" y="-64.33" font-family="Helvetica,sans-Serif" font-size="10.00" fill="grey">started</text>
</g>
<!-- Node7 -->
<g id="Node000007" class="node">
<title>Node7</title>
<g id="a_Node000007"><a xlink:href="classAsyncFw_1_1FunctionConnector.html" target="_top" xlink:title=" ">
<polygon fill="white" stroke="#666666" points="546,-44 400.25,-44 400.25,0 546,0 546,-44"/>
<text text-anchor="start" x="408.25" y="-30.5" font-family="Helvetica,sans-Serif" font-size="10.00">AsyncFw::FunctionConnector</text>
<text text-anchor="start" x="408.25" y="-18.5" font-family="Helvetica,sans-Serif" font-size="10.00">&lt; int, const std::string</text>
<text text-anchor="middle" x="473.12" y="-6.5" font-family="Helvetica,sans-Serif" font-size="10.00"> &amp;, bool * &gt;</text>
</a>
</g>
</g>
<!-- Node6&#45;&gt;Node7 -->
<g id="edge7_Node000007_Node000006" class="edge">
<title>Node6&#45;&gt;Node7</title>
<g id="a_edge7_Node000007_Node000006"><a xlink:title=" ">
<path fill="none" stroke="orange" stroke-dasharray="5,2" d="M151.4,-26.69C155.57,-26.04 159.7,-25.47 163.75,-25 244.2,-15.76 337.23,-16.39 399.89,-18.45"/>
<polygon fill="orange" stroke="orange" points="151.12,-23.19 141.85,-28.32 152.3,-30.08 151.12,-23.19"/>
</a>
</g>
<text text-anchor="start" x="163.75" y="-39.5" font-family="Helvetica,sans-Serif" font-size="10.00" fill="grey"> &lt; int, const std::string</text>
<text text-anchor="middle" x="213.25" y="-27.5" font-family="Helvetica,sans-Serif" font-size="10.00" fill="grey"> &amp;, bool * &gt;</text>
</g>
<!-- Node7&#45;&gt;Node1 -->
<g id="edge6_Node000001_Node000007" class="edge">
<title>Node7&#45;&gt;Node1</title>
<g id="a_edge6_Node000001_Node000007"><a xlink:title=" ">
<path fill="none" stroke="#9a32cd" stroke-dasharray="5,2" d="M557.81,-27.28C612.42,-30.73 682.42,-35.15 731.38,-38.24"/>
<polygon fill="#9a32cd" stroke="#9a32cd" points="558.11,-23.8 547.91,-26.66 557.67,-30.78 558.11,-23.8"/>
</a>
</g>
<text text-anchor="middle" x="629.38" y="-38.27" font-family="Helvetica,sans-Serif" font-size="10.00" fill="grey"> incoming</text>
</g>
</g>
</svg>
