<?xml version="1.0" encoding="UTF-8" standalone="no"?>
<!DOCTYPE svg PUBLIC "-//W3C//DTD SVG 1.1//EN"
 "http://www.w3.org/Graphics/SVG/1.1/DTD/svg11.dtd">
<!-- Generated by graphviz version 14.1.3 (20260303.0454)
 -->
<!-- Title: AsyncFw::AbstractInstance Pages: 1 -->
<svg width="659pt" height="378pt"
 viewBox="0.00 0.00 659.00 378.00" xmlns="http://www.w3.org/2000/svg" xmlns:xlink="http://www.w3.org/1999/xlink">
<g id="graph0" class="graph" transform="scale(1 1) rotate(0) translate(4 374.32)">
<title>AsyncFw::AbstractInstance</title>
<!-- Node1 -->
<g id="Node000001" class="node">
<title>Node1</title>
<g id="a_Node000001"><a xlink:title="Abstract base class for global default service providers and managed instances.">
<polygon fill="#999999" stroke="#666666" points="137.5,-200.26 0,-200.26 0,-180.26 137.5,-180.26 137.5,-200.26"/>
<text xml:space="preserve" text-anchor="middle" x="68.75" y="-186.76" font-family="Helvetica,sans-Serif" font-size="10.00">AsyncFw::AbstractInstance</text>
</a>
</g>
</g>
<!-- Node2 -->
<g id="Node000002" class="node">
<title>Node2</title>
<g id="a_Node000002"><a xlink:href="classAsyncFw_1_1Instance.html" target="_top" xlink:title=" ">
<polygon fill="white" stroke="#666666" points="624.62,-233.26 517.88,-233.26 517.88,-201.26 624.62,-201.26 624.62,-233.26"/>
<text xml:space="preserve" text-anchor="start" x="525.88" y="-219.76" font-family="Helvetica,sans-Serif" font-size="10.00">AsyncFw::Instance&lt;</text>
<text xml:space="preserve" text-anchor="middle" x="571.25" y="-207.76" font-family="Helvetica,sans-Serif" font-size="10.00"> Log &gt;</text>
</a>
</g>
</g>
<!-- Node1&#45;&gt;Node2 -->
<g id="edge1_Node000001_Node000002" class="edge">
<title>Node1&#45;&gt;Node2</title>
<g id="a_edge1_Node000001_Node000002"><a xlink:title=" ">
<path fill="none" stroke="#63b8ff" d="M103.47,-205.1C150.34,-224.83 238.3,-258.67 317.25,-271.26 385.72,-282.18 411.84,-303.44 473.25,-271.26 485.7,-264.74 480.09,-253.8 491.25,-245.26 499.11,-239.25 508.37,-234.46 517.73,-230.66"/>
<polygon fill="#63b8ff" stroke="#63b8ff" points="104.99,-201.94 94.41,-201.24 102.24,-208.38 104.99,-201.94"/>
</a>
</g>
</g>
<!-- Node3 -->
<g id="Node000003" class="node">
<title>Node3</title>
<g id="a_Node000003"><a xlink:href="classAsyncFw_1_1Instance.html" target="_top" xlink:title=" ">
<polygon fill="white" stroke="#666666" points="648.25,-286.26 494.25,-286.26 494.25,-254.26 648.25,-254.26 648.25,-286.26"/>
<text xml:space="preserve" text-anchor="start" x="502.25" y="-272.76" font-family="Helvetica,sans-Serif" font-size="10.00">AsyncFw::Instance&lt;</text>
<text xml:space="preserve" text-anchor="middle" x="571.25" y="-260.76" font-family="Helvetica,sans-Serif" font-size="10.00"> AsyncFw::ApplicationNotifier &gt;</text>
</a>
</g>
</g>
<!-- Node1&#45;&gt;Node3 -->
<g id="edge2_Node000001_Node000003" class="edge">
<title>Node1&#45;&gt;Node3</title>
<g id="a_edge2_Node000001_Node000003"><a xlink:title=" ">
<path fill="none" stroke="#63b8ff" d="M89.43,-207.74C129.06,-241.53 222.79,-314.51 317.25,-337.26 384.66,-353.5 415.03,-374.91 473.25,-337.26 489.62,-326.68 476.84,-310.39 491.25,-297.26 495.75,-293.16 500.9,-289.68 506.37,-286.73"/>
<polygon fill="#63b8ff" stroke="#63b8ff" points="91.96,-205.3 82.11,-201.4 87.38,-210.6 91.96,-205.3"/>
</a>
</g>
</g>
<!-- Node4 -->
<g id="Node000004" class="node">
<title>Node4</title>
<g id="a_Node000004"><a xlink:href="classAsyncFw_1_1Instance.html" target="_top" xlink:title=" ">
<polygon fill="white" stroke="#666666" points="651.25,-338.26 491.25,-338.26 491.25,-306.26 651.25,-306.26 651.25,-338.26"/>
<text xml:space="preserve" text-anchor="start" x="499.25" y="-324.76" font-family="Helvetica,sans-Serif" font-size="10.00">AsyncFw::Instance&lt;</text>
<text xml:space="preserve" text-anchor="middle" x="571.25" y="-312.76" font-family="Helvetica,sans-Serif" font-size="10.00"> AsyncFw::FileSystemWatcher &gt;</text>
</a>
</g>
</g>
<!-- Node1&#45;&gt;Node4 -->
<g id="edge3_Node000001_Node000004" class="edge">
<title>Node1&#45;&gt;Node4</title>
<g id="a_edge3_Node000001_Node000004"><a xlink:title=" ">
<path fill="none" stroke="#63b8ff" d="M81.2,-210.21C98.11,-237.96 132.38,-287.98 174.5,-316.26 229.73,-353.34 251.5,-351.14 317.25,-361.26 385.78,-371.81 405.18,-374.43 473.25,-361.26 495.88,-356.88 519.93,-347.25 538.42,-338.65"/>
<polygon fill="#63b8ff" stroke="#63b8ff" points="84.28,-208.55 76.17,-201.74 78.26,-212.13 84.28,-208.55"/>
</a>
</g>
</g>
<!-- Node5 -->
<g id="Node000005" class="node">
<title>Node5</title>
<g id="a_Node000005"><a xlink:href="classAsyncFw_1_1Instance.html" target="_top" xlink:title=" ">
<polygon fill="white" stroke="#666666" points="632.12,-182.26 510.38,-182.26 510.38,-150.26 632.12,-150.26 632.12,-182.26"/>
<text xml:space="preserve" text-anchor="start" x="518.38" y="-168.76" font-family="Helvetica,sans-Serif" font-size="10.00">AsyncFw::Instance&lt;</text>
<text xml:space="preserve" text-anchor="middle" x="571.25" y="-156.76" font-family="Helvetica,sans-Serif" font-size="10.00"> AsyncFw::HttpServer &gt;</text>
</a>
</g>
</g>
<!-- Node1&#45;&gt;Node5 -->
<g id="edge4_Node000001_Node000005" class="edge">
<title>Node1&#45;&gt;Node5</title>
<g id="a_edge4_Node000001_Node000005"><a xlink:title=" ">
<path fill="none" stroke="#63b8ff" d="M103.86,-175.45C150.84,-155.94 238.58,-122.66 317.25,-110.26 385.74,-99.47 412.66,-76.56 473.25,-110.26 486.51,-117.64 479.38,-129.81 491.25,-139.26 496.92,-143.77 503.39,-147.55 510.13,-150.72"/>
<polygon fill="#63b8ff" stroke="#63b8ff" points="102.63,-172.17 94.77,-179.27 105.35,-178.62 102.63,-172.17"/>
</a>
</g>
</g>
<!-- Node6 -->
<g id="Node000006" class="node">
<title>Node6</title>
<g id="a_Node000006"><a xlink:href="classAsyncFw_1_1Instance.html" target="_top" xlink:title=" ">
<polygon fill="white" stroke="#666666" points="637.38,-130.26 505.12,-130.26 505.12,-98.26 637.38,-98.26 637.38,-130.26"/>
<text xml:space="preserve" text-anchor="start" x="513.12" y="-116.76" font-family="Helvetica,sans-Serif" font-size="10.00">AsyncFw::Instance&lt;</text>
<text xml:space="preserve" text-anchor="middle" x="571.25" y="-104.76" font-family="Helvetica,sans-Serif" font-size="10.00"> AsyncFw::MulticastDns &gt;</text>
</a>
</g>
</g>
<!-- Node1&#45;&gt;Node6 -->
<g id="edge5_Node000001_Node000006" class="edge">
<title>Node1&#45;&gt;Node6</title>
<g id="a_edge5_Node000001_Node000006"><a xlink:title=" ">
<path fill="none" stroke="#63b8ff" d="M89.37,-172.55C128.9,-138.36 222.47,-64.82 317.25,-44.26 385.01,-29.56 407.28,-22.94 473.25,-44.26 490.15,-49.72 527.75,-79.12 550.86,-98.04"/>
<polygon fill="#63b8ff" stroke="#63b8ff" points="87.27,-169.73 82.07,-178.97 91.89,-174.99 87.27,-169.73"/>
</a>
</g>
</g>
<!-- Node7 -->
<g id="Node000007" class="node">
<title>Node7</title>
<g id="a_Node000007"><a xlink:href="classAsyncFw_1_1Instance.html" target="_top" xlink:title=" ">
<polygon fill="white" stroke="#666666" points="633.25,-44.26 509.25,-44.26 509.25,-12.26 633.25,-12.26 633.25,-44.26"/>
<text xml:space="preserve" text-anchor="start" x="517.25" y="-30.76" font-family="Helvetica,sans-Serif" font-size="10.00">AsyncFw::Instance&lt;</text>
<text xml:space="preserve" text-anchor="middle" x="571.25" y="-18.76" font-family="Helvetica,sans-Serif" font-size="10.00"> AsyncFw::ThreadPool &gt;</text>
</a>
</g>
</g>
<!-- Node1&#45;&gt;Node7 -->
<g id="edge6_Node000001_Node000007" class="edge">
<title>Node1&#45;&gt;Node7</title>
<g id="a_edge6_Node000001_Node000007"><a xlink:title=" ">
<path fill="none" stroke="#63b8ff" d="M78.22,-169.45C92.67,-136.9 125.36,-74.64 174.5,-45.26 278.39,16.84 426.49,1.59 508.9,-14.01"/>
<polygon fill="#63b8ff" stroke="#63b8ff" points="75.03,-168.02 74.32,-178.59 81.47,-170.77 75.03,-168.02"/>
</a>
</g>
</g>
<!-- Node8 -->
<g id="Node000008" class="node">
<title>Node8</title>
<g id="a_Node000008"><a xlink:href="classAsyncFw_1_1Instance.html" target="_top" xlink:title="A template&#45;based global registry wrapper for managing application&#45;wide default objects (Global Defaul...">
<polygon fill="white" stroke="#666666" points="299.25,-200.26 174.5,-200.26 174.5,-180.26 299.25,-180.26 299.25,-200.26"/>
<text xml:space="preserve" text-anchor="middle" x="236.88" y="-186.76" font-family="Helvetica,sans-Serif" font-size="10.00">AsyncFw::Instance&lt; T &gt;</text>
</a>
</g>
</g>
<!-- Node1&#45;&gt;Node8 -->
<g id="edge7_Node000001_Node000008" class="edge">
<title>Node1&#45;&gt;Node8</title>
<g id="a_edge7_Node000001_Node000008"><a xlink:title=" ">
<path fill="none" stroke="#63b8ff" d="M149.15,-190.26C157.52,-190.26 165.94,-190.26 174.07,-190.26"/>
<polygon fill="#63b8ff" stroke="#63b8ff" points="149.31,-186.76 139.31,-190.26 149.31,-193.76 149.31,-186.76"/>
</a>
</g>
</g>
<!-- Node8&#45;&gt;Node2 -->
<g id="edge8_Node000008_Node000002" class="edge">
<title>Node8&#45;&gt;Node2</title>
<g id="a_edge8_Node000008_Node000002"><a xlink:title=" ">
<path fill="none" stroke="orange" stroke-dasharray="5,2" d="M310.96,-196.2C373.45,-201.27 461.85,-208.46 517.6,-212.98"/>
<polygon fill="orange" stroke="orange" points="311.37,-192.72 301.12,-195.4 310.81,-199.7 311.37,-192.72"/>
</a>
</g>
<text xml:space="preserve" text-anchor="start" x="378.38" y="-214.53" font-family="Helvetica,sans-Serif" font-size="10.00" fill="grey">&lt; Log &gt;</text>
</g>
<!-- Node8&#45;&gt;Node3 -->
<g id="edge9_Node000008_Node000003" class="edge">
<title>Node8&#45;&gt;Node3</title>
<g id="a_edge9_Node000008_Node000003"><a xlink:title=" ">
<path fill="none" stroke="orange" stroke-dasharray="5,2" d="M264.2,-206.13C279.25,-214.52 298.75,-224.3 317.25,-230.26 374.92,-248.85 442.87,-258.98 493.82,-264.39"/>
<polygon fill="orange" stroke="orange" points="266.29,-203.29 255.87,-201.35 262.81,-209.36 266.29,-203.29"/>
</a>
</g>
<text xml:space="preserve" text-anchor="start" x="323.25" y="-267.17" font-family="Helvetica,sans-Serif" font-size="10.00" fill="grey">&lt; AsyncFw::ApplicationNotifier &gt;</text>
</g>
<!-- Node8&#45;&gt;Node4 -->
<g id="edge10_Node000008_Node000004" class="edge">
<title>Node8&#45;&gt;Node4</title>
<g id="a_edge10_Node000008_Node000004"><a xlink:title=" ">
<path fill="none" stroke="orange" stroke-dasharray="5,2" d="M248.94,-210.55C262.12,-232.6 286.3,-266.98 317.25,-284.26 370.18,-313.82 438.6,-322.66 490.93,-324.47"/>
<polygon fill="orange" stroke="orange" points="251.98,-208.82 243.97,-201.89 245.91,-212.31 251.98,-208.82"/>
</a>
</g>
<text xml:space="preserve" text-anchor="start" x="320.25" y="-328.55" font-family="Helvetica,sans-Serif" font-size="10.00" fill="grey">&lt; AsyncFw::FileSystemWatcher &gt;</text>
</g>
<!-- Node8&#45;&gt;Node5 -->
<g id="edge11_Node000008_Node000005" class="edge">
<title>Node8&#45;&gt;Node5</title>
<g id="a_edge11_Node000008_Node000005"><a xlink:title=" ">
<path fill="none" stroke="orange" stroke-dasharray="5,2" d="M285.34,-177.14C295.78,-174.75 306.83,-172.6 317.25,-171.26 382.72,-162.88 458.49,-162.61 509.92,-163.82"/>
<polygon fill="orange" stroke="orange" points="284.69,-173.7 275.79,-179.44 286.33,-180.5 284.69,-173.7"/>
</a>
</g>
<text xml:space="preserve" text-anchor="start" x="339.38" y="-176.51" font-family="Helvetica,sans-Serif" font-size="10.00" fill="grey">&lt; AsyncFw::HttpServer &gt;</text>
</g>
<!-- Node8&#45;&gt;Node6 -->
<g id="edge12_Node000008_Node000006" class="edge">
<title>Node8&#45;&gt;Node6</title>
<g id="a_edge12_Node000008_Node000006"><a xlink:title=" ">
<path fill="none" stroke="orange" stroke-dasharray="5,2" d="M259.78,-173C275,-161.97 296.26,-148.44 317.25,-141.26 378.58,-120.27 452.74,-114.48 504.86,-113.35"/>
<polygon fill="orange" stroke="orange" points="257.83,-170.08 251.92,-178.88 262.02,-175.69 257.83,-170.08"/>
</a>
</g>
<text xml:space="preserve" text-anchor="start" x="334.12" y="-146.51" font-family="Helvetica,sans-Serif" font-size="10.00" fill="grey">&lt; AsyncFw::MulticastDns &gt;</text>
</g>
<!-- Node8&#45;&gt;Node7 -->
<g id="edge13_Node000008_Node000007" class="edge">
<title>Node8&#45;&gt;Node7</title>
<g id="a_edge13_Node000008_Node000007"><a xlink:title=" ">
<path fill="none" stroke="orange" stroke-dasharray="5,2" d="M248.88,-169.99C262.13,-147.54 286.5,-111.92 317.25,-92.26 375.75,-54.86 454.87,-39.3 508.97,-32.84"/>
<polygon fill="orange" stroke="orange" points="245.94,-168.09 244.04,-178.51 252.02,-171.55 245.94,-168.09"/>
</a>
</g>
<text xml:space="preserve" text-anchor="start" x="338.25" y="-97.51" font-family="Helvetica,sans-Serif" font-size="10.00" fill="grey">&lt; AsyncFw::ThreadPool &gt;</text>
</g>
</g>
</svg>
