<?xml version="1.0" encoding="UTF-8" standalone="no"?>
<!DOCTYPE svg PUBLIC "-//W3C//DTD SVG 1.1//EN"
 "http://www.w3.org/Graphics/SVG/1.1/DTD/svg11.dtd">
<!-- Generated by graphviz version 14.1.3 (20260303.0454)
 -->
<!-- Title: AsyncFw::HttpServer Pages: 1 -->
<svg width="759pt" height="117pt"
 viewBox="0.00 0.00 759.00 117.00" xmlns="http://www.w3.org/2000/svg" xmlns:xlink="http://www.w3.org/1999/xlink">
<g id="graph0" class="graph" transform="scale(1 1) rotate(0) translate(4 112.54)">
<title>AsyncFw::HttpServer</title>
<!-- Node1 -->
<g id="Node000001" class="node">
<title>Node1</title>
<g id="a_Node000001"><a xlink:title="Asynchronous HTTP and WebSocket server.">
<polygon fill="#999999" stroke="#666666" points="750.75,-65 640.25,-65 640.25,-45 750.75,-45 750.75,-65"/>
<text xml:space="preserve" text-anchor="middle" x="695.5" y="-51.5" font-family="Helvetica,sans-Serif" font-size="10.00">AsyncFw::HttpServer</text>
</a>
</g>
</g>
<!-- Node2 -->
<g id="Node000002" class="node">
<title>Node2</title>
<g id="a_Node000002"><a xlink:href="classAsyncFw_1_1FunctionConnector.html" target="_top" xlink:title=" ">
<polygon fill="white" stroke="#666666" points="498.5,-106 352.75,-106 352.75,-62 498.5,-62 498.5,-106"/>
<text xml:space="preserve" text-anchor="start" x="360.75" y="-92.5" font-family="Helvetica,sans-Serif" font-size="10.00">AsyncFw::FunctionConnector</text>
<text xml:space="preserve" text-anchor="start" x="360.75" y="-80.5" font-family="Helvetica,sans-Serif" font-size="10.00">&lt; int, const std::string</text>
<text xml:space="preserve" text-anchor="middle" x="425.62" y="-68.5" font-family="Helvetica,sans-Serif" font-size="10.00"> &amp;, bool * &gt;</text>
</a>
</g>
</g>
<!-- Node2&#45;&gt;Node1 -->
<g id="edge1_Node000001_Node000002" class="edge">
<title>Node2&#45;&gt;Node1</title>
<g id="a_edge1_Node000001_Node000002"><a xlink:title=" ">
<path fill="none" stroke="#9a32cd" stroke-dasharray="5,2" d="M510.2,-74.95C552.55,-70.37 602.78,-64.93 640.09,-60.89"/>
<polygon fill="#9a32cd" stroke="#9a32cd" points="509.83,-71.47 500.27,-76.03 510.59,-78.43 509.83,-71.47"/>
</a>
</g>
<text xml:space="preserve" text-anchor="start" x="554.75" y="-78.2" font-family="Helvetica,sans-Serif" font-size="10.00" fill="grey">incoming</text>
</g>
<!-- Node3 -->
<g id="Node000003" class="node">
<title>Node3</title>
<g id="a_Node000003"><a xlink:href="classAsyncFw_1_1FunctionConnector.html" target="_top" xlink:title="Provides a thread&#45;safe, publisher&#45;subscriber mechanism to establish sender&#45;to&#45;receivers connections.">
<polygon fill="white" stroke="#666666" points="145.75,-68 0,-68 0,-36 145.75,-36 145.75,-68"/>
<text xml:space="preserve" text-anchor="start" x="8" y="-54.5" font-family="Helvetica,sans-Serif" font-size="10.00">AsyncFw::FunctionConnector</text>
<text xml:space="preserve" text-anchor="middle" x="72.88" y="-42.5" font-family="Helvetica,sans-Serif" font-size="10.00">&lt; Args &gt;</text>
</a>
</g>
</g>
<!-- Node3&#45;&gt;Node2 -->
<g id="edge2_Node000002_Node000003" class="edge">
<title>Node3&#45;&gt;Node2</title>
<g id="a_edge2_Node000002_Node000003"><a xlink:title=" ">
<path fill="none" stroke="orange" stroke-dasharray="5,2" d="M157.36,-59.62C216.77,-65.04 295.78,-72.25 352.47,-77.42"/>
<polygon fill="orange" stroke="orange" points="157.91,-56.15 147.63,-58.73 157.27,-63.12 157.91,-56.15"/>
</a>
</g>
<text xml:space="preserve" text-anchor="start" x="196.38" y="-95.79" font-family="Helvetica,sans-Serif" font-size="10.00" fill="grey">&lt; int, const std::string</text>
<text xml:space="preserve" text-anchor="start" x="196.38" y="-79.79" font-family="Helvetica,sans-Serif" font-size="10.00" fill="grey">   &amp;, bool * &gt;</text>
</g>
<!-- Node4 -->
<g id="Node000004" class="node">
<title>Node4</title>
<g id="a_Node000004"><a xlink:href="classAsyncFw_1_1FunctionConnector.html" target="_top" xlink:title=" ">
<polygon fill="white" stroke="#666666" points="508.25,-44 343,-44 343,0 508.25,0 508.25,-44"/>
<text xml:space="preserve" text-anchor="start" x="351" y="-30.5" font-family="Helvetica,sans-Serif" font-size="10.00">AsyncFw::FunctionConnector</text>
<text xml:space="preserve" text-anchor="start" x="351" y="-18.5" font-family="Helvetica,sans-Serif" font-size="10.00">&lt; const AsyncFw::HttpSocket</text>
<text xml:space="preserve" text-anchor="middle" x="425.62" y="-6.5" font-family="Helvetica,sans-Serif" font-size="10.00"> *, const AsyncFw::DataArray &amp; &gt;</text>
</a>
</g>
</g>
<!-- Node3&#45;&gt;Node4 -->
<g id="edge4_Node000004_Node000003" class="edge">
<title>Node3&#45;&gt;Node4</title>
<g id="a_edge4_Node000004_Node000003"><a xlink:title=" ">
<path fill="none" stroke="orange" stroke-dasharray="5,2" d="M132.77,-32.55C142.99,-29.87 153.6,-27.52 163.75,-26 223.11,-17.12 290.91,-16.36 342.51,-17.7"/>
<polygon fill="orange" stroke="orange" points="132.02,-29.12 123.32,-35.16 133.89,-35.87 132.02,-29.12"/>
</a>
</g>
<text xml:space="preserve" text-anchor="start" x="166.75" y="-47.25" font-family="Helvetica,sans-Serif" font-size="10.00" fill="grey">&lt; const AsyncFw::HttpSocket</text>
<text xml:space="preserve" text-anchor="start" x="166.75" y="-31.25" font-family="Helvetica,sans-Serif" font-size="10.00" fill="grey">   *, const AsyncFw::DataArray &amp; &gt;</text>
</g>
<!-- Node4&#45;&gt;Node1 -->
<g id="edge3_Node000001_Node000004" class="edge">
<title>Node4&#45;&gt;Node1</title>
<g id="a_edge3_Node000001_Node000004"><a xlink:title=" ">
<path fill="none" stroke="#9a32cd" stroke-dasharray="5,2" d="M519.94,-30.08C552.39,-33.28 588.99,-37.31 622.25,-42 628.06,-42.82 634.11,-43.76 640.13,-44.76"/>
<polygon fill="#9a32cd" stroke="#9a32cd" points="520.45,-26.61 510.15,-29.13 519.77,-33.58 520.45,-26.61"/>
</a>
</g>
<text xml:space="preserve" text-anchor="start" x="529.25" y="-47.25" font-family="Helvetica,sans-Serif" font-size="10.00" fill="grey">webSocketReceived</text>
</g>
</g>
</svg>
