<?xml version="1.0" encoding="UTF-8" standalone="no"?>
<!DOCTYPE svg PUBLIC "-//W3C//DTD SVG 1.1//EN"
 "http://www.w3.org/Graphics/SVG/1.1/DTD/svg11.dtd">
<!-- Generated by graphviz version 14.1.3 (20260303.0454)
 -->
<!-- Title: AsyncFw::AbstractSocket::destroy Pages: 1 -->
<svg width="804pt" height="178pt"
 viewBox="0.00 0.00 804.00 178.00" xmlns="http://www.w3.org/2000/svg" xmlns:xlink="http://www.w3.org/1999/xlink">
<g id="graph0" class="graph" transform="scale(1 1) rotate(0) translate(4 174)">
<title>AsyncFw::AbstractSocket::destroy</title>
<!-- Node1 -->
<g id="Node000001" class="node">
<title>Node1</title>
<g id="a_Node000001"><a xlink:title="Schedules the socket for deferred asynchronous destruction.">
<polygon fill="#999999" stroke="#666666" points="130.75,-109 0,-109 0,-77 130.75,-77 130.75,-109"/>
<text xml:space="preserve" text-anchor="start" x="8" y="-95.5" font-family="Helvetica,sans-Serif" font-size="10.00">AsyncFw::AbstractSocket</text>
<text xml:space="preserve" text-anchor="middle" x="65.38" y="-83.5" font-family="Helvetica,sans-Serif" font-size="10.00">::destroy</text>
</a>
</g>
</g>
<!-- Node2 -->
<g id="Node000002" class="node">
<title>Node2</title>
<g id="a_Node000002"><a xlink:href="classAsyncFw_1_1AbstractSocket.html#a77c0a9ea7c5061c406673bbe8b18d60d" target="_top" xlink:title="Closes the network connection and unsubscribes from thread polling events.">
<polygon fill="white" stroke="#666666" points="297.5,-161 166.75,-161 166.75,-129 297.5,-129 297.5,-161"/>
<text xml:space="preserve" text-anchor="start" x="174.75" y="-147.5" font-family="Helvetica,sans-Serif" font-size="10.00">AsyncFw::AbstractSocket</text>
<text xml:space="preserve" text-anchor="middle" x="232.12" y="-135.5" font-family="Helvetica,sans-Serif" font-size="10.00">::close</text>
</a>
</g>
</g>
<!-- Node1&#45;&gt;Node2 -->
<g id="edge1_Node000001_Node000002" class="edge">
<title>Node1&#45;&gt;Node2</title>
<g id="a_edge1_Node000001_Node000002"><a xlink:title=" ">
<path fill="none" stroke="#63b8ff" d="M118.5,-109.45C134.36,-114.46 151.94,-120.01 168.42,-125.21"/>
<polygon fill="#63b8ff" stroke="#63b8ff" points="167.02,-128.44 177.61,-128.11 169.13,-121.76 167.02,-128.44"/>
</a>
</g>
</g>
<!-- Node4 -->
<g id="Node000004" class="node">
<title>Node4</title>
<g id="a_Node000004"><a xlink:href="classAsyncFw_1_1Thread.html#a0a3bd6a54db28f73ff59cfea6a40b07a" target="_top" xlink:title="Returns a pointer to the AsyncFw::Thread that manages the currently executing thread.">
<polygon fill="white" stroke="#666666" points="296.75,-103 167.5,-103 167.5,-83 296.75,-83 296.75,-103"/>
<text xml:space="preserve" text-anchor="middle" x="232.12" y="-89.5" font-family="Helvetica,sans-Serif" font-size="10.00">AsyncFw::Thread::current</text>
</a>
</g>
</g>
<!-- Node1&#45;&gt;Node4 -->
<g id="edge3_Node000001_Node000004" class="edge">
<title>Node1&#45;&gt;Node4</title>
<g id="a_edge3_Node000001_Node000004"><a xlink:title=" ">
<path fill="none" stroke="#63b8ff" d="M131.02,-93C139.2,-93 147.62,-93 155.95,-93"/>
<polygon fill="#63b8ff" stroke="#63b8ff" points="155.7,-96.5 165.7,-93 155.7,-89.5 155.7,-96.5"/>
</a>
</g>
</g>
<!-- Node9 -->
<g id="Node000009" class="node">
<title>Node9</title>
<g id="a_Node000009"><a xlink:href="classAsyncFw_1_1AbstractThread.html#a786474d037b50053f1a97af7b67e6069" target="_top" xlink:title="Runs a function in a managed thread.">
<polygon fill="white" stroke="#666666" points="297.12,-54 167.12,-54 167.12,-22 297.12,-22 297.12,-54"/>
<text xml:space="preserve" text-anchor="start" x="175.12" y="-40.5" font-family="Helvetica,sans-Serif" font-size="10.00">AsyncFw::AbstractThread</text>
<text xml:space="preserve" text-anchor="middle" x="232.12" y="-28.5" font-family="Helvetica,sans-Serif" font-size="10.00">::invoke</text>
</a>
</g>
</g>
<!-- Node1&#45;&gt;Node9 -->
<g id="edge10_Node000001_Node000009" class="edge">
<title>Node1&#45;&gt;Node9</title>
<g id="a_edge10_Node000001_Node000009"><a xlink:title=" ">
<path fill="none" stroke="#63b8ff" d="M115.36,-76.65C132.8,-70.82 152.65,-64.2 170.92,-58.1"/>
<polygon fill="#63b8ff" stroke="#63b8ff" points="171.95,-61.45 180.32,-54.96 169.73,-54.81 171.95,-61.45"/>
</a>
</g>
</g>
<!-- Node3 -->
<g id="Node000003" class="node">
<title>Node3</title>
<g id="a_Node000003"><a xlink:href="classAsyncFw_1_1AbstractSocket.html#a5db12267a6d2241e81f570463f2d7ef5" target="_top" xlink:title="Called when the connection state changes.">
<polygon fill="white" stroke="#666666" points="464.25,-170 333.5,-170 333.5,-138 464.25,-138 464.25,-170"/>
<text xml:space="preserve" text-anchor="start" x="341.5" y="-156.5" font-family="Helvetica,sans-Serif" font-size="10.00">AsyncFw::AbstractSocket</text>
<text xml:space="preserve" text-anchor="middle" x="398.88" y="-144.5" font-family="Helvetica,sans-Serif" font-size="10.00">::stateEvent</text>
</a>
</g>
</g>
<!-- Node2&#45;&gt;Node3 -->
<g id="edge2_Node000002_Node000003" class="edge">
<title>Node2&#45;&gt;Node3</title>
<g id="a_edge2_Node000002_Node000003"><a xlink:title=" ">
<path fill="none" stroke="#63b8ff" d="M297.77,-148.53C305.67,-148.96 313.8,-149.41 321.85,-149.85"/>
<polygon fill="#63b8ff" stroke="#63b8ff" points="321.46,-153.33 331.64,-150.38 321.84,-146.34 321.46,-153.33"/>
</a>
</g>
</g>
<!-- Node5 -->
<g id="Node000005" class="node">
<title>Node5</title>
<g id="a_Node000005"><a xlink:href="classAsyncFw_1_1AbstractThread.html#af33c5949edb374d673a7a9ac0c81ec32" target="_top" xlink:title="Returns a pointer to the AsyncFw::AbstractThread that manages the currently executing thread.">
<polygon fill="white" stroke="#666666" points="463.88,-120 333.88,-120 333.88,-88 463.88,-88 463.88,-120"/>
<text xml:space="preserve" text-anchor="start" x="341.88" y="-106.5" font-family="Helvetica,sans-Serif" font-size="10.00">AsyncFw::AbstractThread</text>
<text xml:space="preserve" text-anchor="middle" x="398.88" y="-94.5" font-family="Helvetica,sans-Serif" font-size="10.00">::current</text>
</a>
</g>
</g>
<!-- Node4&#45;&gt;Node5 -->
<g id="edge4_Node000004_Node000005" class="edge">
<title>Node4&#45;&gt;Node5</title>
<g id="a_edge4_Node000004_Node000005"><a xlink:title=" ">
<path fill="none" stroke="#63b8ff" d="M296.82,-97.25C305.1,-97.81 313.65,-98.38 322.1,-98.94"/>
<polygon fill="#63b8ff" stroke="#63b8ff" points="321.81,-102.43 332.02,-99.6 322.28,-95.44 321.81,-102.43"/>
</a>
</g>
</g>
<!-- Node8 -->
<g id="Node000008" class="node">
<title>Node8</title>
<g id="a_Node000008"><a xlink:href="classAsyncFw_1_1Thread.html#afc5e422090767dd84020381fb9a4d490" target="_top" xlink:title="Constructs a thread.">
<polygon fill="white" stroke="#666666" points="463.5,-70 334.25,-70 334.25,-50 463.5,-50 463.5,-70"/>
<text xml:space="preserve" text-anchor="middle" x="398.88" y="-56.5" font-family="Helvetica,sans-Serif" font-size="10.00">AsyncFw::Thread::Thread</text>
</a>
</g>
</g>
<!-- Node4&#45;&gt;Node8 -->
<g id="edge7_Node000004_Node000008" class="edge">
<title>Node4&#45;&gt;Node8</title>
<g id="a_edge7_Node000004_Node000008"><a xlink:title=" ">
<path fill="none" stroke="#63b8ff" d="M285.25,-82.56C300.88,-79.43 318.19,-75.96 334.46,-72.7"/>
<polygon fill="#63b8ff" stroke="#63b8ff" points="334.92,-76.18 344.04,-70.78 333.54,-69.32 334.92,-76.18"/>
</a>
</g>
</g>
<!-- Node6 -->
<g id="Node000006" class="node">
<title>Node6</title>
<g id="a_Node000006"><a xlink:href="classAsyncFw_1_1AbstractThread.html#a8c9202c90ac101522f26c4260cb01b59" target="_top" xlink:title="Constructs a thread.">
<polygon fill="white" stroke="#666666" points="630.25,-120 500.25,-120 500.25,-88 630.25,-88 630.25,-120"/>
<text xml:space="preserve" text-anchor="start" x="508.25" y="-106.5" font-family="Helvetica,sans-Serif" font-size="10.00">AsyncFw::AbstractThread</text>
<text xml:space="preserve" text-anchor="middle" x="565.25" y="-94.5" font-family="Helvetica,sans-Serif" font-size="10.00">::AbstractThread</text>
</a>
</g>
</g>
<!-- Node5&#45;&gt;Node6 -->
<g id="edge5_Node000005_Node000006" class="edge">
<title>Node5&#45;&gt;Node6</title>
<g id="a_edge5_Node000005_Node000006"><a xlink:title=" ">
<path fill="none" stroke="#63b8ff" d="M464.37,-104C472.32,-104 480.49,-104 488.59,-104"/>
<polygon fill="#63b8ff" stroke="#63b8ff" points="488.43,-107.5 498.43,-104 488.43,-100.5 488.43,-107.5"/>
</a>
</g>
</g>
<!-- Node7 -->
<g id="Node000007" class="node">
<title>Node7</title>
<g id="a_Node000007"><a xlink:href="classAsyncFw_1_1AbstractThread.html#a0cd916251e061aaf3d456575ef052edd" target="_top" xlink:title="Returns name of managed thread.">
<polygon fill="white" stroke="#666666" points="796.25,-98 666.25,-98 666.25,-66 796.25,-66 796.25,-98"/>
<text xml:space="preserve" text-anchor="start" x="674.25" y="-84.5" font-family="Helvetica,sans-Serif" font-size="10.00">AsyncFw::AbstractThread</text>
<text xml:space="preserve" text-anchor="middle" x="731.25" y="-72.5" font-family="Helvetica,sans-Serif" font-size="10.00">::name</text>
</a>
</g>
</g>
<!-- Node6&#45;&gt;Node7 -->
<g id="edge6_Node000006_Node000007" class="edge">
<title>Node6&#45;&gt;Node7</title>
<g id="a_edge6_Node000006_Node000007"><a xlink:title=" ">
<path fill="none" stroke="#63b8ff" d="M630.6,-95.37C638.46,-94.31 646.56,-93.23 654.58,-92.15"/>
<polygon fill="#63b8ff" stroke="#63b8ff" points="654.87,-95.64 664.32,-90.84 653.94,-88.71 654.87,-95.64"/>
</a>
</g>
</g>
<!-- Node8&#45;&gt;Node6 -->
<g id="edge8_Node000008_Node000006" class="edge">
<title>Node8&#45;&gt;Node6</title>
<g id="a_edge8_Node000008_Node000006"><a xlink:title=" ">
<path fill="none" stroke="#63b8ff" d="M438.83,-70.43C454.71,-74.68 473.59,-79.73 491.83,-84.61"/>
<polygon fill="#63b8ff" stroke="#63b8ff" points="490.74,-87.94 501.3,-87.15 492.55,-81.18 490.74,-87.94"/>
</a>
</g>
</g>
<!-- Node8&#45;&gt;Node7 -->
<g id="edge9_Node000008_Node000007" class="edge">
<title>Node8&#45;&gt;Node7</title>
<g id="a_edge9_Node000008_Node000007"><a xlink:title=" ">
<path fill="none" stroke="#63b8ff" d="M463.97,-64.27C518.5,-67.9 596.92,-73.12 654.54,-76.96"/>
<polygon fill="#63b8ff" stroke="#63b8ff" points="654.05,-80.43 664.26,-77.61 654.52,-73.45 654.05,-80.43"/>
</a>
</g>
</g>
<!-- Node10 -->
<g id="Node000010" class="node">
<title>Node10</title>
<g id="a_Node000010"><a xlink:href="classAsyncFw_1_1AbstractThread.html#abe96e6b2a1de041f0d25390a6b77e50a" target="_top" xlink:title="Runs a task in a managed thread.">
<polygon fill="white" stroke="#666666" points="463.88,-32 333.88,-32 333.88,0 463.88,0 463.88,-32"/>
<text xml:space="preserve" text-anchor="start" x="341.88" y="-18.5" font-family="Helvetica,sans-Serif" font-size="10.00">AsyncFw::AbstractThread</text>
<text xml:space="preserve" text-anchor="middle" x="398.88" y="-6.5" font-family="Helvetica,sans-Serif" font-size="10.00">::invokeTask</text>
</a>
</g>
</g>
<!-- Node9&#45;&gt;Node10 -->
<g id="edge11_Node000009_Node000010" class="edge">
<title>Node9&#45;&gt;Node10</title>
<g id="a_edge11_Node000009_Node000010"><a xlink:title=" ">
<path fill="none" stroke="#63b8ff" d="M297.29,-29.43C305.49,-28.34 313.95,-27.21 322.3,-26.09"/>
<polygon fill="#63b8ff" stroke="#63b8ff" points="322.66,-29.57 332.11,-24.78 321.74,-22.64 322.66,-29.57"/>
</a>
</g>
</g>
</g>
</svg>
