<?xml version="1.0" encoding="UTF-8" standalone="no"?>
<!DOCTYPE svg PUBLIC "-//W3C//DTD SVG 1.1//EN"
 "http://www.w3.org/Graphics/SVG/1.1/DTD/svg11.dtd">
<!-- Generated by graphviz version 14.1.3 (20260303.0454)
 -->
<!-- Title: AsyncFw::DataStream::fail Pages: 1 -->
<svg width="489pt" height="116pt"
 viewBox="0.00 0.00 489.00 116.00" xmlns="http://www.w3.org/2000/svg" xmlns:xlink="http://www.w3.org/1999/xlink">
<g id="graph0" class="graph" transform="scale(1 1) rotate(0) translate(4 112)">
<title>AsyncFw::DataStream::fail</title>
<!-- Node1 -->
<g id="Node000001" class="node">
<title>Node1</title>
<g id="a_Node000001"><a xlink:title="Checks if the stream pipeline encountered a boundary check failure, bad memory, or malformed data pac...">
<polygon fill="#999999" stroke="#666666" points="480.75,-83 365,-83 365,-51 480.75,-51 480.75,-83"/>
<text xml:space="preserve" text-anchor="start" x="373" y="-69.5" font-family="Helvetica,sans-Serif" font-size="10.00">AsyncFw::DataStream</text>
<text xml:space="preserve" text-anchor="middle" x="422.88" y="-57.5" font-family="Helvetica,sans-Serif" font-size="10.00">::fail</text>
</a>
</g>
</g>
<!-- Node2 -->
<g id="Node000002" class="node">
<title>Node2</title>
<g id="a_Node000002"><a xlink:href="classAsyncFw_1_1Log.html#a9cca0424e45994e01dc6257a07b1246b" target="_top" xlink:title="Parses a serialized Rrd binary DataArray record back into a structured Message instance.">
<polygon fill="white" stroke="#666666" points="329,-108 181.75,-108 181.75,-76 329,-76 329,-108"/>
<text xml:space="preserve" text-anchor="start" x="189.75" y="-94.5" font-family="Helvetica,sans-Serif" font-size="10.00">AsyncFw::Log::messageFrom</text>
<text xml:space="preserve" text-anchor="middle" x="255.38" y="-82.5" font-family="Helvetica,sans-Serif" font-size="10.00">RrdItem</text>
</a>
</g>
</g>
<!-- Node1&#45;&gt;Node2 -->
<g id="edge1_Node000001_Node000002" class="edge">
<title>Node1&#45;&gt;Node2</title>
<g id="a_edge1_Node000001_Node000002"><a xlink:title=" ">
<path fill="none" stroke="#63b8ff" d="M353.67,-77.3C345.61,-78.52 337.35,-79.77 329.22,-81"/>
<polygon fill="#63b8ff" stroke="#63b8ff" points="354.06,-80.78 363.42,-75.83 353.01,-73.86 354.06,-80.78"/>
</a>
</g>
</g>
<!-- Node4 -->
<g id="Node000004" class="node">
<title>Node4</title>
<g id="a_Node000004"><a xlink:href="classAsyncFw_1_1Log.html#a36128876c58bc05a4b8ec59144abdaa1" target="_top" xlink:title="Unrolls a Message structure into a flat serialized DataArray binary block suitable for Rrd storage.">
<polygon fill="white" stroke="#666666" points="324.5,-58 186.25,-58 186.25,-26 324.5,-26 324.5,-58"/>
<text xml:space="preserve" text-anchor="start" x="194.25" y="-44.5" font-family="Helvetica,sans-Serif" font-size="10.00">AsyncFw::Log::rrdItemFrom</text>
<text xml:space="preserve" text-anchor="middle" x="255.38" y="-32.5" font-family="Helvetica,sans-Serif" font-size="10.00">Message</text>
</a>
</g>
</g>
<!-- Node1&#45;&gt;Node4 -->
<g id="edge3_Node000001_Node000004" class="edge">
<title>Node1&#45;&gt;Node4</title>
<g id="a_edge3_Node000001_Node000004"><a xlink:title=" ">
<path fill="none" stroke="#63b8ff" d="M353.84,-56.72C344.28,-55.28 334.44,-53.79 324.86,-52.34"/>
<polygon fill="#63b8ff" stroke="#63b8ff" points="353.01,-60.14 363.42,-58.17 354.06,-53.22 353.01,-60.14"/>
</a>
</g>
</g>
<!-- Node3 -->
<g id="Node000003" class="node">
<title>Node3</title>
<g id="a_Node000003"><a xlink:href="classAsyncFw_1_1Log.html#af85aba564a162221f53e80f010d7fbf3" target="_top" xlink:title="Fetches and decodes an archive log message from the circular history database at a given index.">
<polygon fill="white" stroke="#666666" points="144.62,-102 1.12,-102 1.12,-82 144.62,-82 144.62,-102"/>
<text xml:space="preserve" text-anchor="middle" x="72.88" y="-88.5" font-family="Helvetica,sans-Serif" font-size="10.00">AsyncFw::Log::readMessage</text>
</a>
</g>
</g>
<!-- Node2&#45;&gt;Node3 -->
<g id="edge2_Node000002_Node000003" class="edge">
<title>Node2&#45;&gt;Node3</title>
<g id="a_edge2_Node000002_Node000003"><a xlink:title=" ">
<path fill="none" stroke="#63b8ff" d="M170.1,-92C161.7,-92 153.23,-92 144.99,-92"/>
<polygon fill="#63b8ff" stroke="#63b8ff" points="169.97,-95.5 179.97,-92 169.97,-88.5 169.97,-95.5"/>
</a>
</g>
</g>
<!-- Node5 -->
<g id="Node000005" class="node">
<title>Node5</title>
<g id="a_Node000005"><a xlink:href="classAsyncFw_1_1Log.html#a6b0ce40bc2e34f4b435894701194dc26" target="_top" xlink:title="Persists log entries into the underlying Rrd buffer and manages automated disk flushing.">
<polygon fill="white" stroke="#666666" points="128.88,-58 16.87,-58 16.87,-38 128.88,-38 128.88,-58"/>
<text xml:space="preserve" text-anchor="middle" x="72.88" y="-44.5" font-family="Helvetica,sans-Serif" font-size="10.00">AsyncFw::Log::output</text>
</a>
</g>
</g>
<!-- Node4&#45;&gt;Node5 -->
<g id="edge4_Node000004_Node000005" class="edge">
<title>Node4&#45;&gt;Node5</title>
<g id="a_edge4_Node000004_Node000005"><a xlink:title=" ">
<path fill="none" stroke="#63b8ff" d="M174.77,-44.65C159.37,-45.16 143.55,-45.68 129.14,-46.16"/>
<polygon fill="#63b8ff" stroke="#63b8ff" points="174.49,-48.16 184.37,-44.33 174.25,-41.16 174.49,-48.16"/>
</a>
</g>
</g>
<!-- Node6 -->
<g id="Node000006" class="node">
<title>Node6</title>
<g id="a_Node000006"><a xlink:href="classAsyncFw_1_1Log.html#ab990350e0de8b9a9c6153f7c67b7a527" target="_top" xlink:title="Directly overwrites a circular log archive slot with a freshly serialized log entry structure.">
<polygon fill="white" stroke="#666666" points="145.75,-20 0,-20 0,0 145.75,0 145.75,-20"/>
<text xml:space="preserve" text-anchor="middle" x="72.88" y="-6.5" font-family="Helvetica,sans-Serif" font-size="10.00">AsyncFw::Log::writeMessage</text>
</a>
</g>
</g>
<!-- Node4&#45;&gt;Node6 -->
<g id="edge5_Node000004_Node000006" class="edge">
<title>Node4&#45;&gt;Node6</title>
<g id="a_edge5_Node000004_Node000006"><a xlink:title=" ">
<path fill="none" stroke="#63b8ff" d="M174.71,-27.88C160.65,-25.38 146.25,-22.83 132.89,-20.46"/>
<polygon fill="#63b8ff" stroke="#63b8ff" points="173.93,-31.29 184.39,-29.59 175.15,-24.4 173.93,-31.29"/>
</a>
</g>
</g>
</g>
</svg>
