<?xml version="1.0" encoding="UTF-8" standalone="no"?>
<!DOCTYPE svg PUBLIC "-//W3C//DTD SVG 1.1//EN"
 "http://www.w3.org/Graphics/SVG/1.1/DTD/svg11.dtd">
<!-- Generated by graphviz version 12.2.1 (20241206.2353)
 -->
<!-- Title: AsyncFw::Timer Pages: 1 -->
<svg width="174pt" height="188pt"
 viewBox="0.00 0.00 173.88 188.00" xmlns="http://www.w3.org/2000/svg" xmlns:xlink="http://www.w3.org/1999/xlink">
<g id="graph0" class="graph" transform="scale(1 1) rotate(0) translate(4 184)">
<title>AsyncFw::Timer</title>
<!-- Node1 -->
<g id="Node000001" class="node">
<title>Node1</title>
<g id="a_Node000001"><a xlink:title="The Timer class.">
<polygon fill="#999999" stroke="#666666" points="117.62,-20 29.62,-20 29.62,0 117.62,0 117.62,-20"/>
<text text-anchor="middle" x="73.62" y="-6.5" font-family="Helvetica,sans-Serif" font-size="10.00">AsyncFw::Timer</text>
</a>
</g>
</g>
<!-- Node2 -->
<g id="Node000002" class="node">
<title>Node2</title>
<g id="a_Node000002"><a xlink:href="classAsyncFw_1_1FunctionConnectorProtected.html" target="_top" xlink:title=" ">
<polygon fill="white" stroke="#666666" points="147.25,-100 0,-100 0,-68 147.25,-68 147.25,-100"/>
<text text-anchor="start" x="8" y="-86.5" font-family="Helvetica,sans-Serif" font-size="10.00">AsyncFw::FunctionConnector</text>
<text text-anchor="middle" x="73.62" y="-74.5" font-family="Helvetica,sans-Serif" font-size="10.00">Protected&lt; AsyncFw::Timer &gt;</text>
</a>
</g>
</g>
<!-- Node2&#45;&gt;Node1 -->
<g id="edge1_Node000001_Node000002" class="edge">
<title>Node2&#45;&gt;Node1</title>
<g id="a_edge1_Node000001_Node000002"><a xlink:title=" ">
<path fill="none" stroke="#9a32cd" stroke-dasharray="5,2" d="M73.62,-56.34C73.62,-43.7 73.62,-29.41 73.62,-20.31"/>
<polygon fill="#9a32cd" stroke="#9a32cd" points="70.13,-56.22 73.63,-66.22 77.13,-56.22 70.13,-56.22"/>
</a>
</g>
<text text-anchor="middle" x="91.25" y="-40.5" font-family="Helvetica,sans-Serif" font-size="10.00" fill="grey"> timeout</text>
</g>
<!-- Node3 -->
<g id="Node000003" class="node">
<title>Node3</title>
<g id="a_Node000003"><a xlink:href="classAsyncFw_1_1FunctionConnectorProtected.html" target="_top" xlink:title="Защищенный коннетор, отправитель может быть только один.">
<polygon fill="white" stroke="#666666" points="146.5,-180 0.75,-180 0.75,-148 146.5,-148 146.5,-180"/>
<text text-anchor="start" x="8.75" y="-166.5" font-family="Helvetica,sans-Serif" font-size="10.00">AsyncFw::FunctionConnector</text>
<text text-anchor="middle" x="73.62" y="-154.5" font-family="Helvetica,sans-Serif" font-size="10.00">Protected&lt; F &gt;</text>
</a>
</g>
</g>
<!-- Node3&#45;&gt;Node2 -->
<g id="edge2_Node000002_Node000003" class="edge">
<title>Node3&#45;&gt;Node2</title>
<g id="a_edge2_Node000002_Node000003"><a xlink:title=" ">
<path fill="none" stroke="orange" stroke-dasharray="5,2" d="M73.62,-136.37C73.62,-124.37 73.62,-110.63 73.62,-100.38"/>
<polygon fill="orange" stroke="orange" points="70.13,-136.08 73.63,-146.08 77.13,-136.08 70.13,-136.08"/>
</a>
</g>
<text text-anchor="middle" x="119.75" y="-120.5" font-family="Helvetica,sans-Serif" font-size="10.00" fill="grey"> &lt; AsyncFw::Timer &gt;</text>
</g>
</g>
</svg>
