<?xml version="1.0" encoding="UTF-8" standalone="no"?>
<!DOCTYPE svg PUBLIC "-//W3C//DTD SVG 1.1//EN"
 "http://www.w3.org/Graphics/SVG/1.1/DTD/svg11.dtd">
<!-- Generated by graphviz version 14.1.3 (20260303.0454)
 -->
<!-- Title: AsyncFw::DataStream::array Pages: 1 -->
<svg width="480pt" height="66pt"
 viewBox="0.00 0.00 480.00 66.00" xmlns="http://www.w3.org/2000/svg" xmlns:xlink="http://www.w3.org/1999/xlink">
<g id="graph0" class="graph" transform="scale(1 1) rotate(0) translate(4 62)">
<title>AsyncFw::DataStream::array</title>
<!-- Node1 -->
<g id="Node000001" class="node">
<title>Node1</title>
<g id="a_Node000001"><a xlink:title="Retrieves a reference to the active cumulative raw byte array built by the stream.">
<polygon fill="#999999" stroke="#666666" points="471.75,-45 356,-45 356,-13 471.75,-13 471.75,-45"/>
<text xml:space="preserve" text-anchor="start" x="364" y="-31.5" font-family="Helvetica,sans-Serif" font-size="10.00">AsyncFw::DataStream</text>
<text xml:space="preserve" text-anchor="middle" x="413.88" y="-19.5" font-family="Helvetica,sans-Serif" font-size="10.00">::array</text>
</a>
</g>
</g>
<!-- Node2 -->
<g id="Node000002" class="node">
<title>Node2</title>
<g id="a_Node000002"><a xlink:href="classAsyncFw_1_1Log.html#a36128876c58bc05a4b8ec59144abdaa1" target="_top" xlink:title="Unrolls a Message structure into a flat serialized DataArray binary block suitable for Rrd storage.">
<polygon fill="white" stroke="#666666" points="320,-45 181.75,-45 181.75,-13 320,-13 320,-45"/>
<text xml:space="preserve" text-anchor="start" x="189.75" y="-31.5" font-family="Helvetica,sans-Serif" font-size="10.00">AsyncFw::Log::rrdItemFrom</text>
<text xml:space="preserve" text-anchor="middle" x="250.88" y="-19.5" font-family="Helvetica,sans-Serif" font-size="10.00">Message</text>
</a>
</g>
</g>
<!-- Node1&#45;&gt;Node2 -->
<g id="edge1_Node000001_Node000002" class="edge">
<title>Node1&#45;&gt;Node2</title>
<g id="a_edge1_Node000001_Node000002"><a xlink:title=" ">
<path fill="none" stroke="#63b8ff" d="M344.27,-29C336.39,-29 328.36,-29 320.48,-29"/>
<polygon fill="#63b8ff" stroke="#63b8ff" points="344.15,-32.5 354.15,-29 344.15,-25.5 344.15,-32.5"/>
</a>
</g>
</g>
<!-- Node3 -->
<g id="Node000003" class="node">
<title>Node3</title>
<g id="a_Node000003"><a xlink:href="classAsyncFw_1_1Log.html#a6b0ce40bc2e34f4b435894701194dc26" target="_top" xlink:title="Persists log entries into the underlying Rrd buffer and manages automated disk flushing.">
<polygon fill="white" stroke="#666666" points="128.88,-58 16.87,-58 16.87,-38 128.88,-38 128.88,-58"/>
<text xml:space="preserve" text-anchor="middle" x="72.88" y="-44.5" font-family="Helvetica,sans-Serif" font-size="10.00">AsyncFw::Log::output</text>
</a>
</g>
</g>
<!-- Node2&#45;&gt;Node3 -->
<g id="edge2_Node000002_Node000003" class="edge">
<title>Node2&#45;&gt;Node3</title>
<g id="a_edge2_Node000002_Node000003"><a xlink:title=" ">
<path fill="none" stroke="#63b8ff" d="M170.28,-37.59C156.39,-39.09 142.23,-40.62 129.18,-42.03"/>
<polygon fill="#63b8ff" stroke="#63b8ff" points="170.25,-41.12 179.82,-36.56 169.5,-34.16 170.25,-41.12"/>
</a>
</g>
</g>
<!-- Node4 -->
<g id="Node000004" class="node">
<title>Node4</title>
<g id="a_Node000004"><a xlink:href="classAsyncFw_1_1Log.html#ab990350e0de8b9a9c6153f7c67b7a527" target="_top" xlink:title="Directly overwrites a circular log archive slot with a freshly serialized log entry structure.">
<polygon fill="white" stroke="#666666" points="145.75,-20 0,-20 0,0 145.75,0 145.75,-20"/>
<text xml:space="preserve" text-anchor="middle" x="72.88" y="-6.5" font-family="Helvetica,sans-Serif" font-size="10.00">AsyncFw::Log::writeMessage</text>
</a>
</g>
</g>
<!-- Node2&#45;&gt;Node4 -->
<g id="edge3_Node000002_Node000004" class="edge">
<title>Node2&#45;&gt;Node4</title>
<g id="a_edge3_Node000002_Node000004"><a xlink:title=" ">
<path fill="none" stroke="#63b8ff" d="M170.08,-20.39C162.06,-19.52 153.95,-18.64 146.02,-17.79"/>
<polygon fill="#63b8ff" stroke="#63b8ff" points="169.5,-23.84 179.82,-21.44 170.25,-16.88 169.5,-23.84"/>
</a>
</g>
</g>
</g>
</svg>
