<?xml version="1.0" encoding="UTF-8" standalone="no"?>
<!DOCTYPE svg PUBLIC "-//W3C//DTD SVG 1.1//EN"
 "http://www.w3.org/Graphics/SVG/1.1/DTD/svg11.dtd">
<!-- Generated by graphviz version 12.2.1 (20241206.2353)
 -->
<!-- Title: AsyncFw::AbstractLog Pages: 1 -->
<svg width="330pt" height="280pt"
 viewBox="0.00 0.00 329.50 280.00" xmlns="http://www.w3.org/2000/svg" xmlns:xlink="http://www.w3.org/1999/xlink">
<g id="graph0" class="graph" transform="scale(1 1) rotate(0) translate(4 276)">
<title>AsyncFw::AbstractLog</title>
<!-- Node1 -->
<g id="Node000001" class="node">
<title>Node1</title>
<g id="a_Node000001"><a xlink:title="The AbstractLog class provides the base functionality for logger.">
<polygon fill="#999999" stroke="#666666" points="170.88,-20 55.12,-20 55.12,0 170.88,0 170.88,-20"/>
<text text-anchor="middle" x="113" y="-6.5" font-family="Helvetica,sans-Serif" font-size="10.00">AsyncFw::AbstractLog</text>
</a>
</g>
</g>
<!-- Node2 -->
<g id="Node000002" class="node">
<title>Node2</title>
<g id="a_Node000002"><a xlink:href="classAsyncFw_1_1Thread.html" target="_top" xlink:title="AsyncFw::Thread thread with sockets.">
<polygon fill="white" stroke="#666666" points="159.62,-88 66.38,-88 66.38,-68 159.62,-68 159.62,-88"/>
<text text-anchor="middle" x="113" y="-74.5" font-family="Helvetica,sans-Serif" font-size="10.00">AsyncFw::Thread</text>
</a>
</g>
</g>
<!-- Node2&#45;&gt;Node1 -->
<g id="edge1_Node000001_Node000002" class="edge">
<title>Node2&#45;&gt;Node1</title>
<g id="a_edge1_Node000001_Node000002"><a xlink:title=" ">
<path fill="none" stroke="#9a32cd" stroke-dasharray="5,2" d="M113,-56.28C113,-44.27 113,-29.74 113,-20.44"/>
<polygon fill="#9a32cd" stroke="#9a32cd" points="109.5,-56.03 113,-66.03 116.5,-56.03 109.5,-56.03"/>
</a>
</g>
<text text-anchor="middle" x="130.62" y="-40.5" font-family="Helvetica,sans-Serif" font-size="10.00" fill="grey"> thread_</text>
</g>
<!-- Node3 -->
<g id="Node000003" class="node">
<title>Node3</title>
<g id="a_Node000003"><a xlink:href="classAsyncFw_1_1AbstractThread.html" target="_top" xlink:title="The AbstractThread class provides the base functionality for thread management.">
<polygon fill="white" stroke="#666666" points="130,-186 0,-186 0,-166 130,-166 130,-186"/>
<text text-anchor="middle" x="65" y="-172.5" font-family="Helvetica,sans-Serif" font-size="10.00">AsyncFw::AbstractThread</text>
</a>
</g>
</g>
<!-- Node3&#45;&gt;Node2 -->
<g id="edge2_Node000002_Node000003" class="edge">
<title>Node3&#45;&gt;Node2</title>
<g id="a_edge2_Node000002_Node000003"><a xlink:title=" ">
<path fill="none" stroke="#63b8ff" d="M74.63,-155.74C84.85,-135.3 100.58,-103.84 108.34,-88.32"/>
<polygon fill="#63b8ff" stroke="#63b8ff" points="71.62,-153.93 70.28,-164.44 77.88,-157.06 71.62,-153.93"/>
</a>
</g>
</g>
<!-- Node4 -->
<g id="Node000004" class="node">
<title>Node4</title>
<g id="a_Node000004"><a xlink:href="classAsyncFw_1_1FunctionConnectorProtected.html" target="_top" xlink:title=" ">
<polygon fill="white" stroke="#666666" points="300.25,-192 147.75,-192 147.75,-160 300.25,-160 300.25,-192"/>
<text text-anchor="start" x="155.75" y="-178.5" font-family="Helvetica,sans-Serif" font-size="10.00">AsyncFw::FunctionConnector</text>
<text text-anchor="middle" x="224" y="-166.5" font-family="Helvetica,sans-Serif" font-size="10.00">Protected&lt; AsyncFw::Thread &gt;</text>
</a>
</g>
</g>
<!-- Node4&#45;&gt;Node2 -->
<g id="edge3_Node000002_Node000004" class="edge">
<title>Node4&#45;&gt;Node2</title>
<g id="a_edge3_Node000002_Node000004"><a xlink:title=" ">
<path fill="none" stroke="#9a32cd" stroke-dasharray="5,2" d="M197.66,-152.22C174.08,-131.82 140.68,-102.94 123.74,-88.29"/>
<polygon fill="#9a32cd" stroke="#9a32cd" points="195.17,-154.69 205.02,-158.59 199.75,-149.4 195.17,-154.69"/>
</a>
</g>
<text text-anchor="middle" x="206.3" y="-132.5" font-family="Helvetica,sans-Serif" font-size="10.00" fill="grey"> destroing</text>
<text text-anchor="middle" x="206.3" y="-120.5" font-family="Helvetica,sans-Serif" font-size="10.00" fill="grey">finished</text>
<text text-anchor="middle" x="206.3" y="-108.5" font-family="Helvetica,sans-Serif" font-size="10.00" fill="grey">started</text>
</g>
<!-- Node5 -->
<g id="Node000005" class="node">
<title>Node5</title>
<g id="a_Node000005"><a xlink:href="classAsyncFw_1_1FunctionConnectorProtected.html" target="_top" xlink:title="Защищенный коннетор, отправитель может быть только один.">
<polygon fill="white" stroke="#666666" points="296.88,-272 151.12,-272 151.12,-240 296.88,-240 296.88,-272"/>
<text text-anchor="start" x="159.12" y="-258.5" font-family="Helvetica,sans-Serif" font-size="10.00">AsyncFw::FunctionConnector</text>
<text text-anchor="middle" x="224" y="-246.5" font-family="Helvetica,sans-Serif" font-size="10.00">Protected&lt; F &gt;</text>
</a>
</g>
</g>
<!-- Node5&#45;&gt;Node4 -->
<g id="edge4_Node000004_Node000005" class="edge">
<title>Node5&#45;&gt;Node4</title>
<g id="a_edge4_Node000004_Node000005"><a xlink:title=" ">
<path fill="none" stroke="orange" stroke-dasharray="5,2" d="M224,-228.37C224,-216.37 224,-202.63 224,-192.38"/>
<polygon fill="orange" stroke="orange" points="220.5,-228.08 224,-238.08 227.5,-228.08 220.5,-228.08"/>
</a>
</g>
<text text-anchor="middle" x="272.75" y="-212.5" font-family="Helvetica,sans-Serif" font-size="10.00" fill="grey"> &lt; AsyncFw::Thread &gt;</text>
</g>
</g>
</svg>
