<?xml version="1.0" encoding="UTF-8" standalone="no"?>
<!DOCTYPE svg PUBLIC "-//W3C//DTD SVG 1.1//EN"
 "http://www.w3.org/Graphics/SVG/1.1/DTD/svg11.dtd">
<!-- Generated by graphviz version 14.1.3 (20260303.0454)
 -->
<!-- Title: AsyncFw::FunctionConnector::connect Pages: 1 -->
<svg width="338pt" height="90pt"
 viewBox="0.00 0.00 338.00 90.00" xmlns="http://www.w3.org/2000/svg" xmlns:xlink="http://www.w3.org/1999/xlink">
<g id="graph0" class="graph" transform="scale(1 1) rotate(0) translate(4 86)">
<title>AsyncFw::FunctionConnector::connect</title>
<!-- Node1 -->
<g id="Node000001" class="node">
<title>Node1</title>
<g id="a_Node000001"><a xlink:title="Establishes a connection to a callable target.">
<polygon fill="#999999" stroke="#666666" points="329.75,-57 184,-57 184,-25 329.75,-25 329.75,-57"/>
<text xml:space="preserve" text-anchor="start" x="192" y="-43.5" font-family="Helvetica,sans-Serif" font-size="10.00">AsyncFw::FunctionConnector</text>
<text xml:space="preserve" text-anchor="middle" x="256.88" y="-31.5" font-family="Helvetica,sans-Serif" font-size="10.00">::connect</text>
</a>
</g>
</g>
<!-- Node2 -->
<g id="Node000002" class="node">
<title>Node2</title>
<g id="a_Node000002"><a xlink:href="classAsyncFw_1_1DataArrayTcpClient.html#a380c907a396d306611fe7dc21f35f74f" target="_top" xlink:title="Executes a synchronous request&#45;response data exchange over a specific socket.">
<polygon fill="white" stroke="#666666" points="148,-82 0,-82 0,-50 148,-50 148,-82"/>
<text xml:space="preserve" text-anchor="start" x="8" y="-68.5" font-family="Helvetica,sans-Serif" font-size="10.00">AsyncFw::DataArrayTcpClient</text>
<text xml:space="preserve" text-anchor="middle" x="74" y="-56.5" font-family="Helvetica,sans-Serif" font-size="10.00">::exchange</text>
</a>
</g>
</g>
<!-- Node1&#45;&gt;Node2 -->
<g id="edge1_Node000001_Node000002" class="edge">
<title>Node1&#45;&gt;Node2</title>
<g id="a_edge1_Node000001_Node000002"><a xlink:title=" ">
<path fill="none" stroke="#63b8ff" d="M172.35,-52.54C164.33,-53.65 156.24,-54.77 148.33,-55.86"/>
<polygon fill="#63b8ff" stroke="#63b8ff" points="172.68,-56.03 182.11,-51.2 171.72,-49.1 172.68,-56.03"/>
</a>
</g>
</g>
<!-- Node3 -->
<g id="Node000003" class="node">
<title>Node3</title>
<g id="a_Node000003"><a xlink:href="classAsyncFw_1_1RrdClient.html#a99c8606f7788c0ab1d468b61b4de9adf" target="_top" xlink:title="Constructs an RrdClient instance.">
<polygon fill="white" stroke="#666666" points="126.25,-32 21.75,-32 21.75,0 126.25,0 126.25,-32"/>
<text xml:space="preserve" text-anchor="start" x="29.75" y="-18.5" font-family="Helvetica,sans-Serif" font-size="10.00">AsyncFw::RrdClient</text>
<text xml:space="preserve" text-anchor="middle" x="74" y="-6.5" font-family="Helvetica,sans-Serif" font-size="10.00">::RrdClient</text>
</a>
</g>
</g>
<!-- Node1&#45;&gt;Node3 -->
<g id="edge2_Node000001_Node000003" class="edge">
<title>Node1&#45;&gt;Node3</title>
<g id="a_edge2_Node000001_Node000003"><a xlink:title=" ">
<path fill="none" stroke="#63b8ff" d="M172.32,-29.45C156.72,-27.29 140.84,-25.1 126.55,-23.13"/>
<polygon fill="#63b8ff" stroke="#63b8ff" points="171.72,-32.9 182.11,-30.8 172.68,-25.97 171.72,-32.9"/>
</a>
</g>
</g>
</g>
</svg>
