<?xml version="1.0" encoding="UTF-8" standalone="no"?>
<!DOCTYPE svg PUBLIC "-//W3C//DTD SVG 1.1//EN"
 "http://www.w3.org/Graphics/SVG/1.1/DTD/svg11.dtd">
<!-- Generated by graphviz version 14.1.3 (20260303.0454)
 -->
<!-- Title: AsyncFw::Timer::single Pages: 1 -->
<svg width="469pt" height="116pt"
 viewBox="0.00 0.00 469.00 116.00" xmlns="http://www.w3.org/2000/svg" xmlns:xlink="http://www.w3.org/1999/xlink">
<g id="graph0" class="graph" transform="scale(1 1) rotate(0) translate(4 112)">
<title>AsyncFw::Timer::single</title>
<!-- Node1 -->
<g id="Node000001" class="node">
<title>Node1</title>
<g id="a_Node000001"><a xlink:title="Starts a single shot timer with the specified timeout.">
<polygon fill="#999999" stroke="#666666" points="460.5,-70 341,-70 341,-50 460.5,-50 460.5,-70"/>
<text xml:space="preserve" text-anchor="middle" x="400.75" y="-56.5" font-family="Helvetica,sans-Serif" font-size="10.00">AsyncFw::Timer::single</text>
</a>
</g>
</g>
<!-- Node2 -->
<g id="Node000002" class="node">
<title>Node2</title>
<g id="a_Node000002"><a xlink:href="group__coroutine__api.html#ga37b3a970310b55e69ed1cb7aa9ab3646" target="_top" xlink:title="Non&#45;blocking coroutine sleep for the specified timeout interval.">
<polygon fill="white" stroke="#666666" points="299,-108 190,-108 190,-88 299,-88 299,-108"/>
<text xml:space="preserve" text-anchor="middle" x="244.5" y="-94.5" font-family="Helvetica,sans-Serif" font-size="10.00">AsyncFw::coTimeout</text>
</a>
</g>
</g>
<!-- Node1&#45;&gt;Node2 -->
<g id="edge1_Node000001_Node000002" class="edge">
<title>Node1&#45;&gt;Node2</title>
<g id="a_edge1_Node000001_Node000002"><a xlink:title=" ">
<path fill="none" stroke="#63b8ff" d="M346.24,-73.18C327.16,-77.88 305.94,-83.11 287.92,-87.55"/>
<polygon fill="#63b8ff" stroke="#63b8ff" points="346.85,-76.64 355.72,-70.85 345.18,-69.84 346.85,-76.64"/>
</a>
</g>
</g>
<!-- Node3 -->
<g id="Node000003" class="node">
<title>Node3</title>
<g id="a_Node000003"><a xlink:href="classAsyncFw_1_1Timer.html#a14d02d88bd3682afd7c8fd72cc670e46" target="_top" xlink:title="Starts or restarts a timer with the specified timeout. If the timer is already running,...">
<polygon fill="white" stroke="#666666" points="301.25,-70 187.75,-70 187.75,-50 301.25,-50 301.25,-70"/>
<text xml:space="preserve" text-anchor="middle" x="244.5" y="-56.5" font-family="Helvetica,sans-Serif" font-size="10.00">AsyncFw::Timer::start</text>
</a>
</g>
</g>
<!-- Node1&#45;&gt;Node3 -->
<g id="edge2_Node000001_Node000003" class="edge">
<title>Node1&#45;&gt;Node3</title>
<g id="a_edge2_Node000001_Node000003"><a xlink:title=" ">
<path fill="none" stroke="#63b8ff" d="M329.06,-60C319.9,-60 310.63,-60 301.75,-60"/>
<polygon fill="#63b8ff" stroke="#63b8ff" points="329.04,-63.5 339.04,-60 329.04,-56.5 329.04,-63.5"/>
</a>
</g>
</g>
<!-- Node6 -->
<g id="Node000006" class="node">
<title>Node6</title>
<g id="a_Node000006"><a xlink:href="classAsyncFw_1_1MulticastDns.html#a010507720899efd7b653d3e33bc64f0a" target="_top" xlink:title="Registers and publishes a new local service to the network loop.">
<polygon fill="white" stroke="#666666" points="305,-32 184,-32 184,0 305,0 305,-32"/>
<text xml:space="preserve" text-anchor="start" x="192" y="-18.5" font-family="Helvetica,sans-Serif" font-size="10.00">AsyncFw::MulticastDns</text>
<text xml:space="preserve" text-anchor="middle" x="244.5" y="-6.5" font-family="Helvetica,sans-Serif" font-size="10.00">::startService</text>
</a>
</g>
</g>
<!-- Node1&#45;&gt;Node6 -->
<g id="edge5_Node000001_Node000006" class="edge">
<title>Node1&#45;&gt;Node6</title>
<g id="a_edge5_Node000001_Node000006"><a xlink:title=" ">
<path fill="none" stroke="#63b8ff" d="M352.28,-46.46C336.77,-42.04 319.38,-37.07 303.2,-32.46"/>
<polygon fill="#63b8ff" stroke="#63b8ff" points="351.16,-49.78 361.74,-49.16 353.08,-43.05 351.16,-49.78"/>
</a>
</g>
</g>
<!-- Node4 -->
<g id="Node000004" class="node">
<title>Node4</title>
<g id="a_Node000004"><a xlink:href="classAsyncFw_1_1Timer.html#aad1874fc8c5f41c278e4e4de81609e54" target="_top" xlink:title="Asynchronously waits for the specified timeout interval.">
<polygon fill="white" stroke="#666666" points="143.88,-92 4.12,-92 4.12,-72 143.88,-72 143.88,-92"/>
<text xml:space="preserve" text-anchor="middle" x="74" y="-78.5" font-family="Helvetica,sans-Serif" font-size="10.00">AsyncFw::Timer::coTimeout</text>
</a>
</g>
</g>
<!-- Node3&#45;&gt;Node4 -->
<g id="edge3_Node000003_Node000004" class="edge">
<title>Node3&#45;&gt;Node4</title>
<g id="a_edge3_Node000003_Node000004"><a xlink:title=" ">
<path fill="none" stroke="#63b8ff" d="M176.2,-68.79C165.72,-70.16 154.88,-71.57 144.36,-72.94"/>
<polygon fill="#63b8ff" stroke="#63b8ff" points="176.43,-72.29 185.89,-67.52 175.52,-65.35 176.43,-72.29"/>
</a>
</g>
</g>
<!-- Node5 -->
<g id="Node000005" class="node">
<title>Node5</title>
<g id="a_Node000005"><a xlink:href="classAsyncFw_1_1DataArrayTcpClient.html#a380c907a396d306611fe7dc21f35f74f" target="_top" xlink:title="Executes a synchronous request&#45;response data exchange over a specific socket.">
<polygon fill="white" stroke="#666666" points="148,-54 0,-54 0,-22 148,-22 148,-54"/>
<text xml:space="preserve" text-anchor="start" x="8" y="-40.5" font-family="Helvetica,sans-Serif" font-size="10.00">AsyncFw::DataArrayTcpClient</text>
<text xml:space="preserve" text-anchor="middle" x="74" y="-28.5" font-family="Helvetica,sans-Serif" font-size="10.00">::exchange</text>
</a>
</g>
</g>
<!-- Node3&#45;&gt;Node5 -->
<g id="edge4_Node000003_Node000005" class="edge">
<title>Node3&#45;&gt;Node5</title>
<g id="a_edge4_Node000003_Node000005"><a xlink:title=" ">
<path fill="none" stroke="#63b8ff" d="M176.01,-51.19C166.88,-50 157.47,-48.77 148.25,-47.56"/>
<polygon fill="#63b8ff" stroke="#63b8ff" points="175.52,-54.65 185.89,-52.48 176.43,-47.71 175.52,-54.65"/>
</a>
</g>
</g>
</g>
</svg>
