<?xml version="1.0" encoding="UTF-8" standalone="no"?>
<!DOCTYPE svg PUBLIC "-//W3C//DTD SVG 1.1//EN"
 "http://www.w3.org/Graphics/SVG/1.1/DTD/svg11.dtd">
<!-- Generated by graphviz version 12.2.1 (20241206.2353)
 -->
<!-- Title: AsyncFw::Instance&lt; T &gt; Pages: 1 -->
<svg width="656pt" height="290pt"
 viewBox="0.00 0.00 656.25 290.00" xmlns="http://www.w3.org/2000/svg" xmlns:xlink="http://www.w3.org/1999/xlink">
<g id="graph0" class="graph" transform="scale(1 1) rotate(0) translate(4 286)">
<title>AsyncFw::Instance&lt; T &gt;</title>
<!-- Node1 -->
<g id="Node000001" class="node">
<title>Node1</title>
<g id="a_Node000001"><a xlink:title="The Instance class.">
<polygon fill="#999999" stroke="#666666" points="299.25,-151 174.5,-151 174.5,-131 299.25,-131 299.25,-151"/>
<text text-anchor="middle" x="236.88" y="-137.5" font-family="Helvetica,sans-Serif" font-size="10.00">AsyncFw::Instance&lt; T &gt;</text>
</a>
</g>
</g>
<!-- Node3 -->
<g id="Node000003" class="node">
<title>Node3</title>
<g id="a_Node000003"><a xlink:href="classAsyncFw_1_1Instance.html" target="_top" xlink:title=" ">
<polygon fill="white" stroke="#666666" points="621.62,-282 514.88,-282 514.88,-250 621.62,-250 621.62,-282"/>
<text text-anchor="start" x="522.88" y="-268.5" font-family="Helvetica,sans-Serif" font-size="10.00">AsyncFw::Instance&lt;</text>
<text text-anchor="middle" x="568.25" y="-256.5" font-family="Helvetica,sans-Serif" font-size="10.00"> Log &gt;</text>
</a>
</g>
</g>
<!-- Node1&#45;&gt;Node3 -->
<g id="edge2_Node000001_Node000003" class="edge">
<title>Node1&#45;&gt;Node3</title>
<g id="a_edge2_Node000001_Node000003"><a xlink:title=" ">
<path fill="none" stroke="orange" stroke-dasharray="5,2" d="M251.47,-160.4C265.65,-179.05 289.65,-206.5 317.25,-221 379.72,-253.82 461.76,-263.19 514.5,-265.61"/>
<polygon fill="orange" stroke="orange" points="254.44,-158.53 245.7,-152.53 248.8,-162.67 254.44,-158.53"/>
</a>
</g>
<text text-anchor="middle" x="393.75" y="-264.43" font-family="Helvetica,sans-Serif" font-size="10.00" fill="grey"> &lt; Log &gt;</text>
</g>
<!-- Node4 -->
<g id="Node000004" class="node">
<title>Node4</title>
<g id="a_Node000004"><a xlink:href="classAsyncFw_1_1Instance.html" target="_top" xlink:title=" ">
<polygon fill="white" stroke="#666666" points="645.25,-232 491.25,-232 491.25,-200 645.25,-200 645.25,-232"/>
<text text-anchor="start" x="499.25" y="-218.5" font-family="Helvetica,sans-Serif" font-size="10.00">AsyncFw::Instance&lt;</text>
<text text-anchor="middle" x="568.25" y="-206.5" font-family="Helvetica,sans-Serif" font-size="10.00"> AsyncFw::ApplicationNotifier &gt;</text>
</a>
</g>
</g>
<!-- Node1&#45;&gt;Node4 -->
<g id="edge3_Node000001_Node000004" class="edge">
<title>Node1&#45;&gt;Node4</title>
<g id="a_edge3_Node000001_Node000004"><a xlink:title=" ">
<path fill="none" stroke="orange" stroke-dasharray="5,2" d="M268.62,-156.23C283.08,-162.86 300.73,-170.19 317.25,-175 374.36,-191.65 440.91,-202.15 490.98,-208.35"/>
<polygon fill="orange" stroke="orange" points="270.17,-153.09 259.63,-152 267.19,-159.43 270.17,-153.09"/>
</a>
</g>
<text text-anchor="middle" x="393.75" y="-207.37" font-family="Helvetica,sans-Serif" font-size="10.00" fill="grey"> &lt; AsyncFw::ApplicationNotifier &gt;</text>
</g>
<!-- Node5 -->
<g id="Node000005" class="node">
<title>Node5</title>
<g id="a_Node000005"><a xlink:href="classAsyncFw_1_1Instance.html" target="_top" xlink:title=" ">
<polygon fill="white" stroke="#666666" points="648.25,-182 488.25,-182 488.25,-150 648.25,-150 648.25,-182"/>
<text text-anchor="start" x="496.25" y="-168.5" font-family="Helvetica,sans-Serif" font-size="10.00">AsyncFw::Instance&lt;</text>
<text text-anchor="middle" x="568.25" y="-156.5" font-family="Helvetica,sans-Serif" font-size="10.00"> AsyncFw::FileSystemWatcher &gt;</text>
</a>
</g>
</g>
<!-- Node1&#45;&gt;Node5 -->
<g id="edge4_Node000001_Node000005" class="edge">
<title>Node1&#45;&gt;Node5</title>
<g id="a_edge4_Node000001_Node000005"><a xlink:title=" ">
<path fill="none" stroke="orange" stroke-dasharray="5,2" d="M310.69,-146.53C363.17,-150.51 433.97,-155.88 487.9,-159.98"/>
<polygon fill="orange" stroke="orange" points="311.19,-143.05 300.95,-145.79 310.66,-150.03 311.19,-143.05"/>
</a>
</g>
<text text-anchor="middle" x="393.75" y="-161.11" font-family="Helvetica,sans-Serif" font-size="10.00" fill="grey"> &lt; AsyncFw::FileSystemWatcher &gt;</text>
</g>
<!-- Node6 -->
<g id="Node000006" class="node">
<title>Node6</title>
<g id="a_Node000006"><a xlink:href="classAsyncFw_1_1Instance.html" target="_top" xlink:title=" ">
<polygon fill="white" stroke="#666666" points="629.12,-132 507.38,-132 507.38,-100 629.12,-100 629.12,-132"/>
<text text-anchor="start" x="515.38" y="-118.5" font-family="Helvetica,sans-Serif" font-size="10.00">AsyncFw::Instance&lt;</text>
<text text-anchor="middle" x="568.25" y="-106.5" font-family="Helvetica,sans-Serif" font-size="10.00"> AsyncFw::HttpServer &gt;</text>
</a>
</g>
</g>
<!-- Node1&#45;&gt;Node6 -->
<g id="edge5_Node000001_Node000006" class="edge">
<title>Node1&#45;&gt;Node6</title>
<g id="a_edge5_Node000001_Node000006"><a xlink:title=" ">
<path fill="none" stroke="orange" stroke-dasharray="5,2" d="M310.63,-131.64C312.86,-131.42 315.07,-131.2 317.25,-131 381.98,-124.99 456.36,-120.88 507.05,-118.51"/>
<polygon fill="orange" stroke="orange" points="310.44,-128.14 300.87,-132.69 311.19,-135.1 310.44,-128.14"/>
</a>
</g>
<text text-anchor="middle" x="393.75" y="-133.5" font-family="Helvetica,sans-Serif" font-size="10.00" fill="grey"> &lt; AsyncFw::HttpServer &gt;</text>
</g>
<!-- Node7 -->
<g id="Node000007" class="node">
<title>Node7</title>
<g id="a_Node000007"><a xlink:href="classAsyncFw_1_1Instance.html" target="_top" xlink:title=" ">
<polygon fill="white" stroke="#666666" points="634.38,-82 502.12,-82 502.12,-50 634.38,-50 634.38,-82"/>
<text text-anchor="start" x="510.12" y="-68.5" font-family="Helvetica,sans-Serif" font-size="10.00">AsyncFw::Instance&lt;</text>
<text text-anchor="middle" x="568.25" y="-56.5" font-family="Helvetica,sans-Serif" font-size="10.00"> AsyncFw::MulticastDns &gt;</text>
</a>
</g>
</g>
<!-- Node1&#45;&gt;Node7 -->
<g id="edge6_Node000001_Node000007" class="edge">
<title>Node1&#45;&gt;Node7</title>
<g id="a_edge6_Node000001_Node000007"><a xlink:title=" ">
<path fill="none" stroke="orange" stroke-dasharray="5,2" d="M266.88,-125.55C281.6,-118.31 299.98,-110.16 317.25,-105 378.39,-86.74 450.63,-76.64 501.69,-71.33"/>
<polygon fill="orange" stroke="orange" points="265.58,-122.29 258.23,-129.92 268.73,-128.54 265.58,-122.29"/>
</a>
</g>
<text text-anchor="middle" x="393.75" y="-107.5" font-family="Helvetica,sans-Serif" font-size="10.00" fill="grey"> &lt; AsyncFw::MulticastDns &gt;</text>
</g>
<!-- Node8 -->
<g id="Node000008" class="node">
<title>Node8</title>
<g id="a_Node000008"><a xlink:href="classAsyncFw_1_1Instance.html" target="_top" xlink:title=" ">
<polygon fill="white" stroke="#666666" points="630.25,-32 506.25,-32 506.25,0 630.25,0 630.25,-32"/>
<text text-anchor="start" x="514.25" y="-18.5" font-family="Helvetica,sans-Serif" font-size="10.00">AsyncFw::Instance&lt;</text>
<text text-anchor="middle" x="568.25" y="-6.5" font-family="Helvetica,sans-Serif" font-size="10.00"> AsyncFw::ThreadPool &gt;</text>
</a>
</g>
</g>
<!-- Node1&#45;&gt;Node8 -->
<g id="edge7_Node000001_Node000008" class="edge">
<title>Node1&#45;&gt;Node8</title>
<g id="a_edge7_Node000001_Node000008"><a xlink:title=" ">
<path fill="none" stroke="orange" stroke-dasharray="5,2" d="M251.4,-121.34C265.53,-102.43 289.49,-74.62 317.25,-60 376.32,-28.88 453.03,-19.18 505.82,-16.45"/>
<polygon fill="orange" stroke="orange" points="248.66,-119.16 245.65,-129.31 254.34,-123.25 248.66,-119.16"/>
</a>
</g>
<text text-anchor="middle" x="393.75" y="-62.5" font-family="Helvetica,sans-Serif" font-size="10.00" fill="grey"> &lt; AsyncFw::ThreadPool &gt;</text>
</g>
<!-- Node2 -->
<g id="Node000002" class="node">
<title>Node2</title>
<g id="a_Node000002"><a xlink:href="classAsyncFw_1_1AbstractInstance.html" target="_top" xlink:title="The AbstractInstance class.">
<polygon fill="white" stroke="#666666" points="137.5,-151 0,-151 0,-131 137.5,-131 137.5,-151"/>
<text text-anchor="middle" x="68.75" y="-137.5" font-family="Helvetica,sans-Serif" font-size="10.00">AsyncFw::AbstractInstance</text>
</a>
</g>
</g>
<!-- Node2&#45;&gt;Node1 -->
<g id="edge1_Node000001_Node000002" class="edge">
<title>Node2&#45;&gt;Node1</title>
<g id="a_edge1_Node000001_Node000002"><a xlink:title=" ">
<path fill="none" stroke="#63b8ff" d="M149.15,-141C157.52,-141 165.94,-141 174.07,-141"/>
<polygon fill="#63b8ff" stroke="#63b8ff" points="149.31,-137.5 139.31,-141 149.31,-144.5 149.31,-137.5"/>
</a>
</g>
</g>
</g>
</svg>
