<?xml version="1.0" encoding="UTF-8" standalone="no"?>
<!DOCTYPE svg PUBLIC "-//W3C//DTD SVG 1.1//EN"
 "http://www.w3.org/Graphics/SVG/1.1/DTD/svg11.dtd">
<!-- Generated by graphviz version 14.1.3 (20260303.0454)
 -->
<!-- Title: AsyncFw::AbstractTlsSocket Pages: 1 -->
<svg width="278pt" height="264pt"
 viewBox="0.00 0.00 278.00 264.00" xmlns="http://www.w3.org/2000/svg" xmlns:xlink="http://www.w3.org/1999/xlink">
<g id="graph0" class="graph" transform="scale(1 1) rotate(0) translate(4 260)">
<title>AsyncFw::AbstractTlsSocket</title>
<!-- Node1 -->
<g id="Node000001" class="node">
<title>Node1</title>
<g id="a_Node000001"><a xlink:title="Abstract base class providing Transport Layer Security (TLS/SSL) encryption layers on top of standard...">
<polygon fill="#999999" stroke="#666666" points="213.25,-144 69,-144 69,-124 213.25,-124 213.25,-144"/>
<text xml:space="preserve" text-anchor="middle" x="141.12" y="-130.5" font-family="Helvetica,sans-Serif" font-size="10.00">AsyncFw::AbstractTlsSocket</text>
</a>
</g>
</g>
<!-- Node4 -->
<g id="Node000004" class="node">
<title>Node4</title>
<g id="a_Node000004"><a xlink:href="classAsyncFw_1_1DataArraySocket.html" target="_top" xlink:title="The DataArraySocket class.">
<polygon fill="white" stroke="#666666" points="138.25,-88 0,-88 0,-68 138.25,-68 138.25,-88"/>
<text xml:space="preserve" text-anchor="middle" x="69.12" y="-74.5" font-family="Helvetica,sans-Serif" font-size="10.00">AsyncFw::DataArraySocket</text>
</a>
</g>
</g>
<!-- Node1&#45;&gt;Node4 -->
<g id="edge3_Node000001_Node000004" class="edge">
<title>Node1&#45;&gt;Node4</title>
<g id="a_edge3_Node000001_Node000004"><a xlink:title=" ">
<path fill="none" stroke="#63b8ff" d="M119.73,-116.95C107.28,-107.61 92.01,-96.16 81.52,-88.3"/>
<polygon fill="#63b8ff" stroke="#63b8ff" points="117.27,-119.49 127.37,-122.69 121.47,-113.89 117.27,-119.49"/>
</a>
</g>
</g>
<!-- Node5 -->
<g id="Node000005" class="node">
<title>Node5</title>
<g id="a_Node000005"><a xlink:href="classAsyncFw_1_1HttpSocket.html" target="_top" xlink:title="The HttpSocket class.">
<polygon fill="white" stroke="#666666" points="269.5,-88 156.75,-88 156.75,-68 269.5,-68 269.5,-88"/>
<text xml:space="preserve" text-anchor="middle" x="213.12" y="-74.5" font-family="Helvetica,sans-Serif" font-size="10.00">AsyncFw::HttpSocket</text>
</a>
</g>
</g>
<!-- Node1&#45;&gt;Node5 -->
<g id="edge4_Node000001_Node000005" class="edge">
<title>Node1&#45;&gt;Node5</title>
<g id="a_edge4_Node000001_Node000005"><a xlink:title=" ">
<path fill="none" stroke="#63b8ff" d="M162.52,-116.95C174.97,-107.61 190.24,-96.16 200.73,-88.3"/>
<polygon fill="#63b8ff" stroke="#63b8ff" points="160.78,-113.89 154.88,-122.69 164.98,-119.49 160.78,-113.89"/>
</a>
</g>
</g>
<!-- Node2 -->
<g id="Node000002" class="node">
<title>Node2</title>
<g id="a_Node000002"><a xlink:href="classAsyncFw_1_1AbstractSocket.html" target="_top" xlink:title="Abstract base class providing core network socket functionality and OS descriptor abstraction.">
<polygon fill="white" stroke="#666666" points="206.5,-200 75.75,-200 75.75,-180 206.5,-180 206.5,-200"/>
<text xml:space="preserve" text-anchor="middle" x="141.12" y="-186.5" font-family="Helvetica,sans-Serif" font-size="10.00">AsyncFw::AbstractSocket</text>
</a>
</g>
</g>
<!-- Node2&#45;&gt;Node1 -->
<g id="edge1_Node000001_Node000002" class="edge">
<title>Node2&#45;&gt;Node1</title>
<g id="a_edge1_Node000001_Node000002"><a xlink:title=" ">
<path fill="none" stroke="#63b8ff" d="M141.12,-168.13C141.12,-159.9 141.12,-150.85 141.12,-144.3"/>
<polygon fill="#63b8ff" stroke="#63b8ff" points="137.63,-168.08 141.13,-178.08 144.63,-168.08 137.63,-168.08"/>
</a>
</g>
</g>
<!-- Node3 -->
<g id="Node000003" class="node">
<title>Node3</title>
<g id="a_Node000003"><a xlink:href="structAsyncFw_1_1AnyData.html" target="_top" xlink:title="A generic, type&#45;safe data container block wrapper utilizing std::any.">
<polygon fill="white" stroke="#666666" points="191.88,-256 90.38,-256 90.38,-236 191.88,-236 191.88,-256"/>
<text xml:space="preserve" text-anchor="middle" x="141.12" y="-242.5" font-family="Helvetica,sans-Serif" font-size="10.00">AsyncFw::AnyData</text>
</a>
</g>
</g>
<!-- Node3&#45;&gt;Node2 -->
<g id="edge2_Node000002_Node000003" class="edge">
<title>Node3&#45;&gt;Node2</title>
<g id="a_edge2_Node000002_Node000003"><a xlink:title=" ">
<path fill="none" stroke="#63b8ff" d="M141.12,-224.13C141.12,-215.9 141.12,-206.85 141.12,-200.3"/>
<polygon fill="#63b8ff" stroke="#63b8ff" points="137.63,-224.08 141.13,-234.08 144.63,-224.08 137.63,-224.08"/>
</a>
</g>
</g>
<!-- Node6 -->
<g id="Node000006" class="node">
<title>Node6</title>
<g id="a_Node000006"><a xlink:href="classAsyncFw_1_1HttpServer_1_1TcpSocket.html" target="_top" xlink:title=" ">
<polygon fill="white" stroke="#666666" points="268.38,-32 157.88,-32 157.88,0 268.38,0 268.38,-32"/>
<text xml:space="preserve" text-anchor="start" x="165.88" y="-18.5" font-family="Helvetica,sans-Serif" font-size="10.00">AsyncFw::HttpServer</text>
<text xml:space="preserve" text-anchor="middle" x="213.12" y="-6.5" font-family="Helvetica,sans-Serif" font-size="10.00">::TcpSocket</text>
</a>
</g>
</g>
<!-- Node5&#45;&gt;Node6 -->
<g id="edge5_Node000005_Node000006" class="edge">
<title>Node5&#45;&gt;Node6</title>
<g id="a_edge5_Node000005_Node000006"><a xlink:title=" ">
<path fill="none" stroke="#63b8ff" d="M213.12,-56.31C213.12,-48.37 213.12,-39.46 213.12,-32.14"/>
<polygon fill="#63b8ff" stroke="#63b8ff" points="209.63,-56.11 213.13,-66.11 216.63,-56.11 209.63,-56.11"/>
</a>
</g>
</g>
</g>
</svg>
