<?xml version="1.0" encoding="UTF-8" standalone="no"?>
<!DOCTYPE svg PUBLIC "-//W3C//DTD SVG 1.1//EN"
 "http://www.w3.org/Graphics/SVG/1.1/DTD/svg11.dtd">
<!-- Generated by graphviz version 14.1.3 (20260303.0454)
 -->
<!-- Title: AsyncFw::DataArrayAbstractTcp::disconnectFromHost Pages: 1 -->
<svg width="485pt" height="90pt"
 viewBox="0.00 0.00 485.00 90.00" xmlns="http://www.w3.org/2000/svg" xmlns:xlink="http://www.w3.org/1999/xlink">
<g id="graph0" class="graph" transform="scale(1 1) rotate(0) translate(4 86)">
<title>AsyncFw::DataArrayAbstractTcp::disconnectFromHost</title>
<!-- Node1 -->
<g id="Node000001" class="node">
<title>Node1</title>
<g id="a_Node000001"><a xlink:title="Signals a specific managed socket to disconnect from its remote peer.">
<polygon fill="#999999" stroke="#666666" points="144.25,-57 0,-57 0,-25 144.25,-25 144.25,-57"/>
<text xml:space="preserve" text-anchor="start" x="8" y="-43.5" font-family="Helvetica,sans-Serif" font-size="10.00">AsyncFw::DataArrayAbstract</text>
<text xml:space="preserve" text-anchor="middle" x="72.12" y="-31.5" font-family="Helvetica,sans-Serif" font-size="10.00">Tcp::disconnectFromHost</text>
</a>
</g>
</g>
<!-- Node2 -->
<g id="Node000002" class="node">
<title>Node2</title>
<g id="a_Node000002"><a xlink:href="classAsyncFw_1_1AbstractThread.html#a786474d037b50053f1a97af7b67e6069" target="_top" xlink:title="Runs a function in a managed thread.">
<polygon fill="white" stroke="#666666" points="310.62,-82 180.62,-82 180.62,-50 310.62,-50 310.62,-82"/>
<text xml:space="preserve" text-anchor="start" x="188.62" y="-68.5" font-family="Helvetica,sans-Serif" font-size="10.00">AsyncFw::AbstractThread</text>
<text xml:space="preserve" text-anchor="middle" x="245.62" y="-56.5" font-family="Helvetica,sans-Serif" font-size="10.00">::invoke</text>
</a>
</g>
</g>
<!-- Node1&#45;&gt;Node2 -->
<g id="edge1_Node000001_Node000002" class="edge">
<title>Node1&#45;&gt;Node2</title>
<g id="a_edge1_Node000001_Node000002"><a xlink:title=" ">
<path fill="none" stroke="#63b8ff" d="M144.37,-51.39C152.44,-52.56 160.68,-53.76 168.81,-54.95"/>
<polygon fill="#63b8ff" stroke="#63b8ff" points="168.28,-58.41 178.68,-56.39 169.29,-51.48 168.28,-58.41"/>
</a>
</g>
</g>
<!-- Node4 -->
<g id="Node000004" class="node">
<title>Node4</title>
<g id="a_Node000004"><a xlink:href="classAsyncFw_1_1AbstractSocket.html#ac1b9b68ae7fe6c9312d9d713a7b444a9" target="_top" xlink:title="Return Thread that manages the socket.">
<polygon fill="white" stroke="#666666" points="311,-32 180.25,-32 180.25,0 311,0 311,-32"/>
<text xml:space="preserve" text-anchor="start" x="188.25" y="-18.5" font-family="Helvetica,sans-Serif" font-size="10.00">AsyncFw::AbstractSocket</text>
<text xml:space="preserve" text-anchor="middle" x="245.62" y="-6.5" font-family="Helvetica,sans-Serif" font-size="10.00">::thread</text>
</a>
</g>
</g>
<!-- Node1&#45;&gt;Node4 -->
<g id="edge3_Node000001_Node000004" class="edge">
<title>Node1&#45;&gt;Node4</title>
<g id="a_edge3_Node000001_Node000004"><a xlink:title=" ">
<path fill="none" stroke="#63b8ff" d="M144.37,-30.61C152.37,-29.45 160.55,-28.26 168.62,-27.08"/>
<polygon fill="#63b8ff" stroke="#63b8ff" points="169.02,-30.56 178.41,-25.65 168.01,-23.63 169.02,-30.56"/>
</a>
</g>
</g>
<!-- Node3 -->
<g id="Node000003" class="node">
<title>Node3</title>
<g id="a_Node000003"><a xlink:href="classAsyncFw_1_1AbstractThread.html#abe96e6b2a1de041f0d25390a6b77e50a" target="_top" xlink:title="Runs a task in a managed thread.">
<polygon fill="white" stroke="#666666" points="477,-82 347,-82 347,-50 477,-50 477,-82"/>
<text xml:space="preserve" text-anchor="start" x="355" y="-68.5" font-family="Helvetica,sans-Serif" font-size="10.00">AsyncFw::AbstractThread</text>
<text xml:space="preserve" text-anchor="middle" x="412" y="-56.5" font-family="Helvetica,sans-Serif" font-size="10.00">::invokeTask</text>
</a>
</g>
</g>
<!-- Node2&#45;&gt;Node3 -->
<g id="edge2_Node000002_Node000003" class="edge">
<title>Node2&#45;&gt;Node3</title>
<g id="a_edge2_Node000002_Node000003"><a xlink:title=" ">
<path fill="none" stroke="#63b8ff" d="M311.12,-66C319.07,-66 327.24,-66 335.34,-66"/>
<polygon fill="#63b8ff" stroke="#63b8ff" points="335.18,-69.5 345.18,-66 335.18,-62.5 335.18,-69.5"/>
</a>
</g>
</g>
</g>
</svg>
