<?xml version="1.0" encoding="UTF-8" standalone="no"?>
<!DOCTYPE svg PUBLIC "-//W3C//DTD SVG 1.1//EN"
 "http://www.w3.org/Graphics/SVG/1.1/DTD/svg11.dtd">
<!-- Generated by graphviz version 12.2.1 (20241206.2353)
 -->
<!-- Title: AsyncFw::AbstractTask Pages: 1 -->
<svg width="258pt" height="96pt"
 viewBox="0.00 0.00 257.75 96.00" xmlns="http://www.w3.org/2000/svg" xmlns:xlink="http://www.w3.org/1999/xlink">
<g id="graph0" class="graph" transform="scale(1 1) rotate(0) translate(4 92)">
<title>AsyncFw::AbstractTask</title>
<!-- Node1 -->
<g id="Node000001" class="node">
<title>Node1</title>
<g id="a_Node000001"><a xlink:title="The AbstractTask class.">
<polygon fill="#999999" stroke="#666666" points="192.5,-20 71.5,-20 71.5,0 192.5,0 192.5,-20"/>
<text text-anchor="middle" x="132" y="-6.5" font-family="Helvetica,sans-Serif" font-size="10.00">AsyncFw::AbstractTask</text>
</a>
</g>
</g>
<!-- Node2 -->
<g id="Node000002" class="node">
<title>Node2</title>
<g id="a_Node000002"><a xlink:href="classAsyncFw_1_1AbstractThread_1_1AbstractTask.html" target="_top" xlink:title="The AbstractTask class.">
<polygon fill="white" stroke="#666666" points="130,-88 0,-88 0,-56 130,-56 130,-88"/>
<text text-anchor="start" x="8" y="-74.5" font-family="Helvetica,sans-Serif" font-size="10.00">AsyncFw::AbstractThread</text>
<text text-anchor="middle" x="65" y="-62.5" font-family="Helvetica,sans-Serif" font-size="10.00">::AbstractTask</text>
</a>
</g>
</g>
<!-- Node2&#45;&gt;Node1 -->
<g id="edge1_Node000001_Node000002" class="edge">
<title>Node2&#45;&gt;Node1</title>
<g id="a_edge1_Node000001_Node000002"><a xlink:title=" ">
<path fill="none" stroke="#63b8ff" d="M90.54,-48.13C101.29,-38.5 113.21,-27.83 121.49,-20.41"/>
<polygon fill="#63b8ff" stroke="#63b8ff" points="88.5,-45.26 83.38,-54.54 93.17,-50.47 88.5,-45.26"/>
</a>
</g>
</g>
<!-- Node3 -->
<g id="Node000003" class="node">
<title>Node3</title>
<g id="a_Node000003"><a xlink:href="structAsyncFw_1_1AnyData.html" target="_top" xlink:title="The AnyData class.">
<polygon fill="white" stroke="#666666" points="249.75,-82 148.25,-82 148.25,-62 249.75,-62 249.75,-82"/>
<text text-anchor="middle" x="199" y="-68.5" font-family="Helvetica,sans-Serif" font-size="10.00">AsyncFw::AnyData</text>
</a>
</g>
</g>
<!-- Node3&#45;&gt;Node1 -->
<g id="edge2_Node000001_Node000003" class="edge">
<title>Node3&#45;&gt;Node1</title>
<g id="a_edge2_Node000001_Node000003"><a xlink:title=" ">
<path fill="none" stroke="#63b8ff" d="M180.27,-54.22C167.93,-43.18 152.26,-29.14 142.18,-20.11"/>
<polygon fill="#63b8ff" stroke="#63b8ff" points="177.62,-56.55 187.4,-60.62 182.29,-51.34 177.62,-56.55"/>
</a>
</g>
</g>
</g>
</svg>
