<?xml version="1.0" encoding="UTF-8" standalone="no"?>
<!DOCTYPE svg PUBLIC "-//W3C//DTD SVG 1.1//EN"
 "http://www.w3.org/Graphics/SVG/1.1/DTD/svg11.dtd">
<!-- Generated by graphviz version 12.2.1 (20241206.2353)
 -->
<!-- Title: AsyncFw::DataArraySocket Pages: 1 -->
<svg width="1261pt" height="212pt"
 viewBox="0.00 0.00 1261.00 212.14" xmlns="http://www.w3.org/2000/svg" xmlns:xlink="http://www.w3.org/1999/xlink">
<g id="graph0" class="graph" transform="scale(1 1) rotate(0) translate(4 208.14)">
<title>AsyncFw::DataArraySocket</title>
<!-- Node1 -->
<g id="Node000001" class="node">
<title>Node1</title>
<g id="a_Node000001"><a xlink:title="The DataArraySocket class.">
<polygon fill="#999999" stroke="#666666" points="1253,-113.14 1114.75,-113.14 1114.75,-93.14 1253,-93.14 1253,-113.14"/>
<text text-anchor="middle" x="1183.88" y="-99.64" font-family="Helvetica,sans-Serif" font-size="10.00">AsyncFw::DataArraySocket</text>
</a>
</g>
</g>
<!-- Node2 -->
<g id="Node000002" class="node">
<title>Node2</title>
<g id="a_Node000002"><a xlink:href="classAsyncFw_1_1AbstractTlsSocket.html" target="_top" xlink:title="Abstract base class providing Transport Layer Security (TLS/SSL) encryption layers on top of standard...">
<polygon fill="white" stroke="#666666" points="1077.75,-154.14 933.5,-154.14 933.5,-134.14 1077.75,-134.14 1077.75,-154.14"/>
<text text-anchor="middle" x="1005.62" y="-140.64" font-family="Helvetica,sans-Serif" font-size="10.00">AsyncFw::AbstractTlsSocket</text>
</a>
</g>
</g>
<!-- Node2&#45;&gt;Node1 -->
<g id="edge1_Node000001_Node000002" class="edge">
<title>Node2&#45;&gt;Node1</title>
<g id="a_edge1_Node000001_Node000002"><a xlink:title=" ">
<path fill="none" stroke="#63b8ff" d="M1062.46,-131.16C1086.84,-125.49 1115.04,-118.92 1138.03,-113.58"/>
<polygon fill="#63b8ff" stroke="#63b8ff" points="1061.98,-127.67 1053.03,-133.35 1063.56,-134.49 1061.98,-127.67"/>
</a>
</g>
</g>
<!-- Node3 -->
<g id="Node000003" class="node">
<title>Node3</title>
<g id="a_Node000003"><a xlink:href="classAsyncFw_1_1AbstractSocket.html" target="_top" xlink:title="Abstract base class providing core network socket functionality and OS descriptor abstraction.">
<polygon fill="white" stroke="#666666" points="833.75,-157.14 703,-157.14 703,-137.14 833.75,-137.14 833.75,-157.14"/>
<text text-anchor="middle" x="768.38" y="-143.64" font-family="Helvetica,sans-Serif" font-size="10.00">AsyncFw::AbstractSocket</text>
</a>
</g>
</g>
<!-- Node3&#45;&gt;Node2 -->
<g id="edge2_Node000002_Node000003" class="edge">
<title>Node3&#45;&gt;Node2</title>
<g id="a_edge2_Node000002_Node000003"><a xlink:title=" ">
<path fill="none" stroke="#63b8ff" d="M845.39,-146.18C873.56,-145.82 905.39,-145.41 933.14,-145.06"/>
<polygon fill="#63b8ff" stroke="#63b8ff" points="845.44,-142.67 835.48,-146.3 845.53,-149.67 845.44,-142.67"/>
</a>
</g>
</g>
<!-- Node4 -->
<g id="Node000004" class="node">
<title>Node4</title>
<g id="a_Node000004"><a xlink:href="structAsyncFw_1_1AnyData.html" target="_top" xlink:title="The AnyData class.">
<polygon fill="white" stroke="#666666" points="609.62,-195.14 508.12,-195.14 508.12,-175.14 609.62,-175.14 609.62,-195.14"/>
<text text-anchor="middle" x="558.88" y="-181.64" font-family="Helvetica,sans-Serif" font-size="10.00">AsyncFw::AnyData</text>
</a>
</g>
</g>
<!-- Node4&#45;&gt;Node3 -->
<g id="edge3_Node000003_Node000004" class="edge">
<title>Node4&#45;&gt;Node3</title>
<g id="a_edge3_Node000003_Node000004"><a xlink:title=" ">
<path fill="none" stroke="#63b8ff" d="M621.17,-174.59C641.5,-171.03 664.24,-166.99 685,-163.14 694.45,-161.4 704.51,-159.48 714.23,-157.61"/>
<polygon fill="#63b8ff" stroke="#63b8ff" points="620.58,-171.14 611.33,-176.31 621.78,-178.04 620.58,-171.14"/>
</a>
</g>
</g>
<!-- Node5 -->
<g id="Node000005" class="node">
<title>Node5</title>
<g id="a_Node000005"><a xlink:href="classAsyncFw_1_1Thread.html" target="_top" xlink:title="AsyncFw::Thread thread with sockets.">
<polygon fill="white" stroke="#666666" points="605.5,-157.14 512.25,-157.14 512.25,-137.14 605.5,-137.14 605.5,-157.14"/>
<text text-anchor="middle" x="558.88" y="-143.64" font-family="Helvetica,sans-Serif" font-size="10.00">AsyncFw::Thread</text>
</a>
</g>
</g>
<!-- Node5&#45;&gt;Node3 -->
<g id="edge4_Node000003_Node000005" class="edge">
<title>Node5&#45;&gt;Node3</title>
<g id="a_edge4_Node000003_Node000005"><a xlink:title=" ">
<path fill="none" stroke="#9a32cd" stroke-dasharray="5,2" d="M617.31,-147.14C643.76,-147.14 675.27,-147.14 702.57,-147.14"/>
<polygon fill="#9a32cd" stroke="#9a32cd" points="617.44,-143.64 607.44,-147.14 617.44,-150.64 617.44,-143.64"/>
</a>
</g>
<text text-anchor="middle" x="667.38" y="-149.64" font-family="Helvetica,sans-Serif" font-size="10.00" fill="grey"> thread_</text>
</g>
<!-- Node6 -->
<g id="Node000006" class="node">
<title>Node6</title>
<g id="a_Node000006"><a xlink:href="classAsyncFw_1_1AbstractThread.html" target="_top" xlink:title="The AbstractThread class provides the base functionality for thread management.">
<polygon fill="white" stroke="#666666" points="312.38,-204.14 182.38,-204.14 182.38,-184.14 312.38,-184.14 312.38,-204.14"/>
<text text-anchor="middle" x="247.38" y="-190.64" font-family="Helvetica,sans-Serif" font-size="10.00">AsyncFw::AbstractThread</text>
</a>
</g>
</g>
<!-- Node6&#45;&gt;Node5 -->
<g id="edge5_Node000005_Node000006" class="edge">
<title>Node6&#45;&gt;Node5</title>
<g id="a_edge5_Node000005_Node000006"><a xlink:title=" ">
<path fill="none" stroke="#63b8ff" d="M323.83,-200.14C367.32,-200.98 422.25,-197.49 468,-180.14 477.48,-176.55 476.92,-170.64 486,-166.14 494.1,-162.14 503.14,-158.9 512.01,-156.31"/>
<polygon fill="#63b8ff" stroke="#63b8ff" points="324.07,-196.65 313.98,-199.87 323.87,-203.65 324.07,-196.65"/>
</a>
</g>
</g>
<!-- Node7 -->
<g id="Node000007" class="node">
<title>Node7</title>
<g id="a_Node000007"><a xlink:href="classAsyncFw_1_1FunctionConnector.html" target="_top" xlink:title="Provides a thread&#45;safe, publisher&#45;subscriber mechanism to establish sender&#45;to&#45;receivers connections.">
<polygon fill="white" stroke="#666666" points="320.25,-110.14 174.5,-110.14 174.5,-78.14 320.25,-78.14 320.25,-110.14"/>
<text text-anchor="start" x="182.5" y="-96.64" font-family="Helvetica,sans-Serif" font-size="10.00">AsyncFw::FunctionConnector</text>
<text text-anchor="middle" x="247.38" y="-84.64" font-family="Helvetica,sans-Serif" font-size="10.00">&lt; Args &gt;</text>
</a>
</g>
</g>
<!-- Node7&#45;&gt;Node5 -->
<g id="edge6_Node000005_Node000007" class="edge">
<title>Node7&#45;&gt;Node5</title>
<g id="a_edge6_Node000005_Node000007"><a xlink:title=" ">
<path fill="none" stroke="#9a32cd" stroke-dasharray="5,2" d="M323.18,-113.05C328.27,-114.15 333.33,-115.2 338.25,-116.14 397.81,-127.61 467.21,-136.7 511.8,-142"/>
<polygon fill="#9a32cd" stroke="#9a32cd" points="324.03,-109.65 313.51,-110.89 322.5,-116.49 324.03,-109.65"/>
</a>
</g>
<text text-anchor="middle" x="403.12" y="-162.35" font-family="Helvetica,sans-Serif" font-size="10.00" fill="grey"> destroing</text>
<text text-anchor="middle" x="403.12" y="-150.35" font-family="Helvetica,sans-Serif" font-size="10.00" fill="grey">finished</text>
<text text-anchor="middle" x="403.12" y="-138.35" font-family="Helvetica,sans-Serif" font-size="10.00" fill="grey">started</text>
</g>
<!-- Node9 -->
<g id="Node000009" class="node">
<title>Node9</title>
<g id="a_Node000009"><a xlink:href="classAsyncFw_1_1FunctionConnector.html" target="_top" xlink:title=" ">
<polygon fill="white" stroke="#666666" points="631.75,-119.14 486,-119.14 486,-87.14 631.75,-87.14 631.75,-119.14"/>
<text text-anchor="start" x="494" y="-105.64" font-family="Helvetica,sans-Serif" font-size="10.00">AsyncFw::FunctionConnector</text>
<text text-anchor="middle" x="558.88" y="-93.64" font-family="Helvetica,sans-Serif" font-size="10.00">&lt; AbstractSocket::State &gt;</text>
</a>
</g>
</g>
<!-- Node7&#45;&gt;Node9 -->
<g id="edge10_Node000009_Node000007" class="edge">
<title>Node7&#45;&gt;Node9</title>
<g id="a_edge10_Node000009_Node000007"><a xlink:title=" ">
<path fill="none" stroke="orange" stroke-dasharray="5,2" d="M331.86,-96.57C379.87,-97.97 439.59,-99.7 485.59,-101.04"/>
<polygon fill="orange" stroke="orange" points="332.16,-93.08 322.06,-96.29 331.96,-100.08 332.16,-93.08"/>
</a>
</g>
<text text-anchor="middle" x="403.12" y="-102.99" font-family="Helvetica,sans-Serif" font-size="10.00" fill="grey"> &lt; AbstractSocket::State &gt;</text>
</g>
<!-- Node10 -->
<g id="Node000010" class="node">
<title>Node10</title>
<g id="a_Node000010"><a xlink:href="classAsyncFw_1_1FunctionConnector.html" target="_top" xlink:title=" ">
<polygon fill="white" stroke="#666666" points="631.75,-69.14 486,-69.14 486,-25.14 631.75,-25.14 631.75,-69.14"/>
<text text-anchor="start" x="494" y="-55.64" font-family="Helvetica,sans-Serif" font-size="10.00">AsyncFw::FunctionConnector</text>
<text text-anchor="start" x="494" y="-43.64" font-family="Helvetica,sans-Serif" font-size="10.00">&lt; const AsyncFw::DataArray</text>
<text text-anchor="middle" x="558.88" y="-31.64" font-family="Helvetica,sans-Serif" font-size="10.00"> *, uint32_t &gt;</text>
</a>
</g>
</g>
<!-- Node7&#45;&gt;Node10 -->
<g id="edge13_Node000010_Node000007" class="edge">
<title>Node7&#45;&gt;Node10</title>
<g id="a_edge13_Node000010_Node000007"><a xlink:title=" ">
<path fill="none" stroke="orange" stroke-dasharray="5,2" d="M312.79,-74.8C321.3,-72.66 329.95,-70.7 338.25,-69.14 387.02,-59.99 442.65,-54.47 485.72,-51.24"/>
<polygon fill="orange" stroke="orange" points="311.98,-71.39 303.19,-77.3 313.75,-78.17 311.98,-71.39"/>
</a>
</g>
<text text-anchor="start" x="338.25" y="-83.64" font-family="Helvetica,sans-Serif" font-size="10.00" fill="grey"> &lt; const AsyncFw::DataArray</text>
<text text-anchor="middle" x="403.12" y="-71.64" font-family="Helvetica,sans-Serif" font-size="10.00" fill="grey"> *, uint32_t &gt;</text>
</g>
<!-- Node8 -->
<g id="Node000008" class="node">
<title>Node8</title>
<g id="a_Node000008"><a xlink:href="classAsyncFw_1_1AbstractFunctionConnector.html" target="_top" xlink:title="The AbstractFunctionConnector class provides the base functionality for FunctionConnector.">
<polygon fill="white" stroke="#666666" points="137.5,-44.14 0,-44.14 0,-12.14 137.5,-12.14 137.5,-44.14"/>
<text text-anchor="start" x="8" y="-30.64" font-family="Helvetica,sans-Serif" font-size="10.00">AsyncFw::AbstractFunction</text>
<text text-anchor="middle" x="68.75" y="-18.64" font-family="Helvetica,sans-Serif" font-size="10.00">Connector</text>
</a>
</g>
</g>
<!-- Node8&#45;&gt;Node7 -->
<g id="edge7_Node000007_Node000008" class="edge">
<title>Node8&#45;&gt;Node7</title>
<g id="a_edge7_Node000007_Node000008"><a xlink:title=" ">
<path fill="none" stroke="#63b8ff" d="M124.34,-48.54C149.46,-57.93 178.87,-68.92 202.52,-77.76"/>
<polygon fill="#63b8ff" stroke="#63b8ff" points="125.87,-45.38 115.28,-45.16 123.42,-51.94 125.87,-45.38"/>
</a>
</g>
</g>
<!-- Node8&#45;&gt;Node9 -->
<g id="edge9_Node000009_Node000008" class="edge">
<title>Node8&#45;&gt;Node9</title>
<g id="a_edge9_Node000009_Node000008"><a xlink:title=" ">
<path fill="none" stroke="#63b8ff" d="M149.29,-23.83C249.81,-19.81 415.99,-18.39 468,-49.14 481.06,-56.87 474.16,-68.66 486,-78.14 490.02,-81.36 494.49,-84.18 499.17,-86.65"/>
<polygon fill="#63b8ff" stroke="#63b8ff" points="149.33,-20.32 139.48,-24.24 149.62,-27.32 149.33,-20.32"/>
</a>
</g>
</g>
<!-- Node8&#45;&gt;Node10 -->
<g id="edge12_Node000010_Node000008" class="edge">
<title>Node8&#45;&gt;Node10</title>
<g id="a_edge12_Node000010_Node000008"><a xlink:title=" ">
<path fill="none" stroke="#63b8ff" d="M149.27,-14.71C151.37,-14.5 153.45,-14.31 155.5,-14.14 293.93,-2.92 331.26,10.17 468,-14.14 480.76,-16.41 494.09,-20.36 506.46,-24.76"/>
<polygon fill="#63b8ff" stroke="#63b8ff" points="149.01,-11.21 139.47,-15.82 149.8,-18.17 149.01,-11.21"/>
</a>
</g>
</g>
<!-- Node9&#45;&gt;Node1 -->
<g id="edge8_Node000001_Node000009" class="edge">
<title>Node9&#45;&gt;Node1</title>
<g id="a_edge8_Node000001_Node000009"><a xlink:title=" ">
<path fill="none" stroke="#9a32cd" stroke-dasharray="5,2" d="M643.27,-103.14C767.6,-103.14 999.2,-103.14 1114.3,-103.14"/>
<polygon fill="#9a32cd" stroke="#9a32cd" points="643.46,-99.64 633.46,-103.14 643.46,-106.64 643.46,-99.64"/>
</a>
</g>
<text text-anchor="middle" x="883.62" y="-105.64" font-family="Helvetica,sans-Serif" font-size="10.00" fill="grey"> stateChanged</text>
</g>
<!-- Node10&#45;&gt;Node1 -->
<g id="edge11_Node000001_Node000010" class="edge">
<title>Node10&#45;&gt;Node1</title>
<g id="a_edge11_Node000001_Node000010"><a xlink:title=" ">
<path fill="none" stroke="#9a32cd" stroke-dasharray="5,2" d="M643.27,-54.64C767.6,-65.82 999.2,-86.63 1114.3,-96.98"/>
<polygon fill="#9a32cd" stroke="#9a32cd" points="643.73,-51.17 633.46,-53.76 643.1,-58.14 643.73,-51.17"/>
</a>
</g>
<text text-anchor="middle" x="883.62" y="-81.51" font-family="Helvetica,sans-Serif" font-size="10.00" fill="grey"> received</text>
</g>
</g>
</svg>
