<?xml version="1.0" encoding="UTF-8" standalone="no"?>
<!DOCTYPE svg PUBLIC "-//W3C//DTD SVG 1.1//EN"
 "http://www.w3.org/Graphics/SVG/1.1/DTD/svg11.dtd">
<!-- Generated by graphviz version 14.1.3 (20260303.0454)
 -->
<!-- Title: AsyncFw::AbstractThread::invokeTask Pages: 1 -->
<svg width="970pt" height="590pt"
 viewBox="0.00 0.00 970.00 590.00" xmlns="http://www.w3.org/2000/svg" xmlns:xlink="http://www.w3.org/1999/xlink">
<g id="graph0" class="graph" transform="scale(1 1) rotate(0) translate(4 586)">
<title>AsyncFw::AbstractThread::invokeTask</title>
<!-- Node1 -->
<g id="Node000001" class="node">
<title>Node1</title>
<g id="a_Node000001"><a xlink:title="Runs a task in a managed thread.">
<polygon fill="#999999" stroke="#666666" points="962.25,-257 832.25,-257 832.25,-225 962.25,-225 962.25,-257"/>
<text xml:space="preserve" text-anchor="start" x="840.25" y="-243.5" font-family="Helvetica,sans-Serif" font-size="10.00">AsyncFw::AbstractThread</text>
<text xml:space="preserve" text-anchor="middle" x="897.25" y="-231.5" font-family="Helvetica,sans-Serif" font-size="10.00">::invokeTask</text>
</a>
</g>
</g>
<!-- Node2 -->
<g id="Node000002" class="node">
<title>Node2</title>
<g id="a_Node000002"><a xlink:href="classAsyncFw_1_1AbstractThread.html#a786474d037b50053f1a97af7b67e6069" target="_top" xlink:title="Runs a function in a managed thread.">
<polygon fill="white" stroke="#666666" points="796.25,-307 666.25,-307 666.25,-275 796.25,-275 796.25,-307"/>
<text xml:space="preserve" text-anchor="start" x="674.25" y="-293.5" font-family="Helvetica,sans-Serif" font-size="10.00">AsyncFw::AbstractThread</text>
<text xml:space="preserve" text-anchor="middle" x="731.25" y="-281.5" font-family="Helvetica,sans-Serif" font-size="10.00">::invoke</text>
</a>
</g>
</g>
<!-- Node1&#45;&gt;Node2 -->
<g id="edge1_Node000001_Node000002" class="edge">
<title>Node1&#45;&gt;Node2</title>
<g id="a_edge1_Node000001_Node000002"><a xlink:title=" ">
<path fill="none" stroke="#63b8ff" d="M831.78,-260.66C816.74,-265.24 800.88,-270.08 786.35,-274.51"/>
<polygon fill="#63b8ff" stroke="#63b8ff" points="832.56,-264.08 841.1,-257.81 830.52,-257.38 832.56,-264.08"/>
</a>
</g>
</g>
<!-- Node24 -->
<g id="Node000024" class="node">
<title>Node24</title>
<g id="a_Node000024"><a xlink:href="classAsyncFw_1_1AbstractThread.html#a499a70b1d68a82fcded917a331f4cdef" target="_top" xlink:title="Remove poll descriptor.">
<polygon fill="white" stroke="#666666" points="796.25,-257 666.25,-257 666.25,-225 796.25,-225 796.25,-257"/>
<text xml:space="preserve" text-anchor="start" x="674.25" y="-243.5" font-family="Helvetica,sans-Serif" font-size="10.00">AsyncFw::AbstractThread</text>
<text xml:space="preserve" text-anchor="middle" x="731.25" y="-231.5" font-family="Helvetica,sans-Serif" font-size="10.00">::removePollDescriptor</text>
</a>
</g>
</g>
<!-- Node1&#45;&gt;Node24 -->
<g id="edge23_Node000001_Node000024" class="edge">
<title>Node1&#45;&gt;Node24</title>
<g id="a_edge23_Node000001_Node000024"><a xlink:title=" ">
<path fill="none" stroke="#63b8ff" d="M820.66,-241C812.65,-241 804.55,-241 796.68,-241"/>
<polygon fill="#63b8ff" stroke="#63b8ff" points="820.39,-244.5 830.39,-241 820.39,-237.5 820.39,-244.5"/>
</a>
</g>
</g>
<!-- Node25 -->
<g id="Node000025" class="node">
<title>Node25</title>
<g id="a_Node000025"><a xlink:href="classAsyncFw_1_1AbstractThread.html#ae8fc0b3f68faed69e7f0b4e940ef12c0" target="_top" xlink:title="Remove timer.">
<polygon fill="white" stroke="#666666" points="796.25,-207 666.25,-207 666.25,-175 796.25,-175 796.25,-207"/>
<text xml:space="preserve" text-anchor="start" x="674.25" y="-193.5" font-family="Helvetica,sans-Serif" font-size="10.00">AsyncFw::AbstractThread</text>
<text xml:space="preserve" text-anchor="middle" x="731.25" y="-181.5" font-family="Helvetica,sans-Serif" font-size="10.00">::removeTimer</text>
</a>
</g>
</g>
<!-- Node1&#45;&gt;Node25 -->
<g id="edge24_Node000001_Node000025" class="edge">
<title>Node1&#45;&gt;Node25</title>
<g id="a_edge24_Node000001_Node000025"><a xlink:title=" ">
<path fill="none" stroke="#63b8ff" d="M831.78,-221.34C816.74,-216.76 800.88,-211.92 786.35,-207.49"/>
<polygon fill="#63b8ff" stroke="#63b8ff" points="830.52,-224.62 841.1,-224.19 832.56,-217.92 830.52,-224.62"/>
</a>
</g>
</g>
<!-- Node3 -->
<g id="Node000003" class="node">
<title>Node3</title>
<g id="a_Node000003"><a xlink:href="classAsyncFw_1_1ThreadPool.html#a0a35c4070964e69b187842b69b04d325" target="_top" xlink:title="Asynchronously invokes a function in the given thread&#39;s event loop.">
<polygon fill="white" stroke="#666666" points="612.62,-582 499.88,-582 499.88,-550 612.62,-550 612.62,-582"/>
<text xml:space="preserve" text-anchor="start" x="507.88" y="-568.5" font-family="Helvetica,sans-Serif" font-size="10.00">AsyncFw::ThreadPool</text>
<text xml:space="preserve" text-anchor="middle" x="556.25" y="-556.5" font-family="Helvetica,sans-Serif" font-size="10.00">::async</text>
</a>
</g>
</g>
<!-- Node2&#45;&gt;Node3 -->
<g id="edge2_Node000002_Node000003" class="edge">
<title>Node2&#45;&gt;Node3</title>
<g id="a_edge2_Node000002_Node000003"><a xlink:title=" ">
<path fill="none" stroke="#63b8ff" d="M726.78,-318.71C718.95,-369.8 695.2,-479.26 630.25,-541 625.2,-545.8 619.19,-549.68 612.82,-552.82"/>
<polygon fill="#63b8ff" stroke="#63b8ff" points="730.25,-319.22 728.2,-308.82 723.32,-318.23 730.25,-319.22"/>
</a>
</g>
</g>
<!-- Node5 -->
<g id="Node000005" class="node">
<title>Node5</title>
<g id="a_Node000005"><a xlink:href="classAsyncFw_1_1ThreadPool.html#a9919894e586310a7ea5b780845376e17" target="_top" xlink:title="Asynchronously invokes a void function in the target thread, and executes a result callback in the ca...">
<polygon fill="white" stroke="#666666" points="612.62,-532 499.88,-532 499.88,-500 612.62,-500 612.62,-532"/>
<text xml:space="preserve" text-anchor="start" x="507.88" y="-518.5" font-family="Helvetica,sans-Serif" font-size="10.00">AsyncFw::ThreadPool</text>
<text xml:space="preserve" text-anchor="middle" x="556.25" y="-506.5" font-family="Helvetica,sans-Serif" font-size="10.00">::async</text>
</a>
</g>
</g>
<!-- Node2&#45;&gt;Node5 -->
<g id="edge4_Node000002_Node000005" class="edge">
<title>Node2&#45;&gt;Node5</title>
<g id="a_edge4_Node000002_Node000005"><a xlink:title=" ">
<path fill="none" stroke="#63b8ff" d="M723.76,-318.28C712.21,-361.06 684.07,-443.93 630.25,-491 625.11,-495.5 619.12,-499.2 612.82,-502.23"/>
<polygon fill="#63b8ff" stroke="#63b8ff" points="727.1,-319.36 726.21,-308.8 720.32,-317.61 727.1,-319.36"/>
</a>
</g>
</g>
<!-- Node6 -->
<g id="Node000006" class="node">
<title>Node6</title>
<g id="a_Node000006"><a xlink:href="classAsyncFw_1_1DataArrayTcpClient.html#a39e5b88e09a327955fb47b64dc60f568" target="_top" xlink:title="Initiates a connection using a pre&#45;configured socket&#39;s internal host settings.">
<polygon fill="white" stroke="#666666" points="630.25,-482 482.25,-482 482.25,-450 630.25,-450 630.25,-482"/>
<text xml:space="preserve" text-anchor="start" x="490.25" y="-468.5" font-family="Helvetica,sans-Serif" font-size="10.00">AsyncFw::DataArrayTcpClient</text>
<text xml:space="preserve" text-anchor="middle" x="556.25" y="-456.5" font-family="Helvetica,sans-Serif" font-size="10.00">::connectToHost</text>
</a>
</g>
</g>
<!-- Node2&#45;&gt;Node6 -->
<g id="edge5_Node000002_Node000006" class="edge">
<title>Node2&#45;&gt;Node6</title>
<g id="a_edge5_Node000002_Node000006"><a xlink:title=" ">
<path fill="none" stroke="#63b8ff" d="M719.16,-317.43C703.87,-350.81 673.24,-407.88 630.25,-441 626,-444.27 621.3,-447.13 616.39,-449.62"/>
<polygon fill="#63b8ff" stroke="#63b8ff" points="722.28,-319.03 723.14,-308.47 715.89,-316.19 722.28,-319.03"/>
</a>
</g>
</g>
<!-- Node7 -->
<g id="Node000007" class="node">
<title>Node7</title>
<g id="a_Node000007"><a xlink:href="classAsyncFw_1_1DataArrayTcpClient.html#aa005c8c643454bd1ae4ae0c7fe4c1068" target="_top" xlink:title="Allocates a new socket instance and associates it with a specific worker thread.">
<polygon fill="white" stroke="#666666" points="630.25,-432 482.25,-432 482.25,-400 630.25,-400 630.25,-432"/>
<text xml:space="preserve" text-anchor="start" x="490.25" y="-418.5" font-family="Helvetica,sans-Serif" font-size="10.00">AsyncFw::DataArrayTcpClient</text>
<text xml:space="preserve" text-anchor="middle" x="556.25" y="-406.5" font-family="Helvetica,sans-Serif" font-size="10.00">::createSocket</text>
</a>
</g>
</g>
<!-- Node2&#45;&gt;Node7 -->
<g id="edge6_Node000002_Node000007" class="edge">
<title>Node2&#45;&gt;Node7</title>
<g id="a_edge6_Node000002_Node000007"><a xlink:title=" ">
<path fill="none" stroke="#63b8ff" d="M710.8,-316.15C692.27,-338.58 662.48,-370.9 630.25,-391 625.14,-394.19 619.56,-397.03 613.85,-399.55"/>
<polygon fill="#63b8ff" stroke="#63b8ff" points="713.28,-318.65 716.85,-308.67 707.84,-314.25 713.28,-318.65"/>
</a>
</g>
</g>
<!-- Node8 -->
<g id="Node000008" class="node">
<title>Node8</title>
<g id="a_Node000008"><a xlink:href="classAsyncFw_1_1AbstractSocket.html#a73a200f0008dbf9f820bdb2b8a0054cf" target="_top" xlink:title="Schedules the socket for deferred asynchronous destruction.">
<polygon fill="white" stroke="#666666" points="621.62,-382 490.88,-382 490.88,-350 621.62,-350 621.62,-382"/>
<text xml:space="preserve" text-anchor="start" x="498.88" y="-368.5" font-family="Helvetica,sans-Serif" font-size="10.00">AsyncFw::AbstractSocket</text>
<text xml:space="preserve" text-anchor="middle" x="556.25" y="-356.5" font-family="Helvetica,sans-Serif" font-size="10.00">::destroy</text>
</a>
</g>
</g>
<!-- Node2&#45;&gt;Node8 -->
<g id="edge7_Node000002_Node000008" class="edge">
<title>Node2&#45;&gt;Node8</title>
<g id="a_edge7_Node000002_Node000008"><a xlink:title=" ">
<path fill="none" stroke="#63b8ff" d="M689.96,-312.68C671.95,-321.97 650.3,-332.6 630.25,-341 623.21,-343.95 615.68,-346.83 608.24,-349.52"/>
<polygon fill="#63b8ff" stroke="#63b8ff" points="691.52,-315.82 698.77,-308.09 688.28,-309.61 691.52,-315.82"/>
</a>
</g>
</g>
<!-- Node12 -->
<g id="Node000012" class="node">
<title>Node12</title>
<g id="a_Node000012"><a xlink:href="classAsyncFw_1_1HttpServer_1_1Response.html#afa24643371f00fe11d7df0f9caae4134" target="_top" xlink:title="Destroys the response object and cleans up its allocated resources.">
<polygon fill="white" stroke="#666666" points="611.5,-332 501,-332 501,-300 611.5,-300 611.5,-332"/>
<text xml:space="preserve" text-anchor="start" x="509" y="-318.5" font-family="Helvetica,sans-Serif" font-size="10.00">AsyncFw::HttpServer</text>
<text xml:space="preserve" text-anchor="middle" x="556.25" y="-306.5" font-family="Helvetica,sans-Serif" font-size="10.00">::Response::destroy</text>
</a>
</g>
</g>
<!-- Node2&#45;&gt;Node12 -->
<g id="edge11_Node000002_Node000012" class="edge">
<title>Node2&#45;&gt;Node12</title>
<g id="a_edge11_Node000002_Node000012"><a xlink:title=" ">
<path fill="none" stroke="#63b8ff" d="M654.44,-301.96C640.09,-304.03 625.34,-306.16 611.8,-308.12"/>
<polygon fill="#63b8ff" stroke="#63b8ff" points="654.94,-305.42 664.33,-300.53 653.94,-298.49 654.94,-305.42"/>
</a>
</g>
</g>
<!-- Node16 -->
<g id="Node000016" class="node">
<title>Node16</title>
<g id="a_Node000016"><a xlink:href="classAsyncFw_1_1DataArrayTcpClient.html#afb856fb1b426dd583fc46062f347b3f9" target="_top" xlink:title="Safely shuts down, unregisters, and deletes a managed socket.">
<polygon fill="white" stroke="#666666" points="630.25,-282 482.25,-282 482.25,-250 630.25,-250 630.25,-282"/>
<text xml:space="preserve" text-anchor="start" x="490.25" y="-268.5" font-family="Helvetica,sans-Serif" font-size="10.00">AsyncFw::DataArrayTcpClient</text>
<text xml:space="preserve" text-anchor="middle" x="556.25" y="-256.5" font-family="Helvetica,sans-Serif" font-size="10.00">::destroySocket</text>
</a>
</g>
</g>
<!-- Node2&#45;&gt;Node16 -->
<g id="edge15_Node000002_Node000016" class="edge">
<title>Node2&#45;&gt;Node16</title>
<g id="a_edge15_Node000002_Node000016"><a xlink:title=" ">
<path fill="none" stroke="#63b8ff" d="M654.61,-280.07C646.59,-278.91 638.45,-277.73 630.46,-276.58"/>
<polygon fill="#63b8ff" stroke="#63b8ff" points="653.94,-283.51 664.33,-281.47 654.94,-276.58 653.94,-283.51"/>
</a>
</g>
</g>
<!-- Node17 -->
<g id="Node000017" class="node">
<title>Node17</title>
<g id="a_Node000017"><a xlink:href="classAsyncFw_1_1DataArrayAbstractTcp.html#aa9d59be7845d746853397e1905880434" target="_top" xlink:title="Signals a specific managed socket to disconnect from its remote peer.">
<polygon fill="white" stroke="#666666" points="628.38,-232 484.12,-232 484.12,-200 628.38,-200 628.38,-232"/>
<text xml:space="preserve" text-anchor="start" x="492.12" y="-218.5" font-family="Helvetica,sans-Serif" font-size="10.00">AsyncFw::DataArrayAbstract</text>
<text xml:space="preserve" text-anchor="middle" x="556.25" y="-206.5" font-family="Helvetica,sans-Serif" font-size="10.00">Tcp::disconnectFromHost</text>
</a>
</g>
</g>
<!-- Node2&#45;&gt;Node17 -->
<g id="edge16_Node000002_Node000017" class="edge">
<title>Node2&#45;&gt;Node17</title>
<g id="a_edge16_Node000002_Node000017"><a xlink:title=" ">
<path fill="none" stroke="#63b8ff" d="M673.93,-269.88C671.31,-268.62 668.74,-267.33 666.25,-266 649.06,-256.84 647.63,-249.8 630.25,-241 624.15,-237.92 617.59,-235.07 610.99,-232.48"/>
<polygon fill="#63b8ff" stroke="#63b8ff" points="672.28,-272.97 682.83,-273.9 675.16,-266.59 672.28,-272.97"/>
</a>
</g>
</g>
<!-- Node18 -->
<g id="Node000018" class="node">
<title>Node18</title>
<g id="a_Node000018"><a xlink:href="classAsyncFw_1_1HttpServer.html#ad7dae50cc3787112980fa7075a60f811" target="_top" xlink:title="Disconnects a specific client socket and clears it from the internally managed pool.">
<polygon fill="white" stroke="#666666" points="612.62,-182 499.88,-182 499.88,-150 612.62,-150 612.62,-182"/>
<text xml:space="preserve" text-anchor="start" x="507.88" y="-168.5" font-family="Helvetica,sans-Serif" font-size="10.00">AsyncFw::HttpServer</text>
<text xml:space="preserve" text-anchor="middle" x="556.25" y="-156.5" font-family="Helvetica,sans-Serif" font-size="10.00">::disconnectFromHost</text>
</a>
</g>
</g>
<!-- Node2&#45;&gt;Node18 -->
<g id="edge17_Node000002_Node000018" class="edge">
<title>Node2&#45;&gt;Node18</title>
<g id="a_edge17_Node000002_Node000018"><a xlink:title=" ">
<path fill="none" stroke="#63b8ff" d="M668.61,-268.07C667.8,-267.4 667.02,-266.71 666.25,-266 639.14,-240.86 657.89,-215.56 630.25,-191 625.14,-186.46 619.17,-182.74 612.89,-179.69"/>
<polygon fill="#63b8ff" stroke="#63b8ff" points="666.48,-270.85 676.68,-273.7 670.48,-265.11 666.48,-270.85"/>
</a>
</g>
</g>
<!-- Node21 -->
<g id="Node000021" class="node">
<title>Node21</title>
<g id="a_Node000021"><a xlink:href="classAsyncFw_1_1ThreadPool.html#a4e73e16c0af130d6311c29952b11f720" target="_top" xlink:title="Selects and returns the least loaded thread from the pool for task distribution.">
<polygon fill="white" stroke="#666666" points="612.62,-132 499.88,-132 499.88,-100 612.62,-100 612.62,-132"/>
<text xml:space="preserve" text-anchor="start" x="507.88" y="-118.5" font-family="Helvetica,sans-Serif" font-size="10.00">AsyncFw::ThreadPool</text>
<text xml:space="preserve" text-anchor="middle" x="556.25" y="-106.5" font-family="Helvetica,sans-Serif" font-size="10.00">::getThread</text>
</a>
</g>
</g>
<!-- Node2&#45;&gt;Node21 -->
<g id="edge20_Node000002_Node000021" class="edge">
<title>Node2&#45;&gt;Node21</title>
<g id="a_edge20_Node000002_Node000021"><a xlink:title=" ">
<path fill="none" stroke="#63b8ff" d="M667.68,-267.5C667.19,-267.01 666.71,-266.51 666.25,-266 627.29,-223.28 670.11,-182.88 630.25,-141 625.36,-135.86 619.36,-131.77 612.93,-128.53"/>
<polygon fill="#63b8ff" stroke="#63b8ff" points="665.26,-270.04 675.23,-273.62 669.67,-264.6 665.26,-270.04"/>
</a>
</g>
</g>
<!-- Node22 -->
<g id="Node000022" class="node">
<title>Node22</title>
<g id="a_Node000022"><a xlink:href="classAsyncFw_1_1DataArrayAbstractTcp_1_1Thread.html#aca7c5fcf08cc257de061af63342cd466" target="_top" xlink:title="Configures timeouts, buffer sizes, and signal bounds for a new socket context.">
<polygon fill="white" stroke="#666666" points="628.38,-82 484.12,-82 484.12,-50 628.38,-50 628.38,-82"/>
<text xml:space="preserve" text-anchor="start" x="492.12" y="-68.5" font-family="Helvetica,sans-Serif" font-size="10.00">AsyncFw::DataArrayAbstract</text>
<text xml:space="preserve" text-anchor="middle" x="556.25" y="-56.5" font-family="Helvetica,sans-Serif" font-size="10.00">Tcp::Thread::initSocket</text>
</a>
</g>
</g>
<!-- Node2&#45;&gt;Node22 -->
<g id="edge21_Node000002_Node000022" class="edge">
<title>Node2&#45;&gt;Node22</title>
<g id="a_edge21_Node000002_Node000022"><a xlink:title=" ">
<path fill="none" stroke="#63b8ff" d="M667.31,-267.21C666.95,-266.81 666.6,-266.41 666.25,-266 615.06,-205.3 682.72,-150.6 630.25,-91 627.33,-87.68 623.95,-84.8 620.27,-82.31"/>
<polygon fill="#63b8ff" stroke="#63b8ff" points="664.84,-269.7 674.68,-273.62 669.44,-264.42 664.84,-269.7"/>
</a>
</g>
</g>
<!-- Node23 -->
<g id="Node000023" class="node">
<title>Node23</title>
<g id="a_Node000023"><a xlink:href="classAsyncFw_1_1ThreadPool.html#add8ee85dd7581acb117a805ff5a8c18a" target="_top" xlink:title="Synchronously invokes a function in the given thread&#39;s event loop (blocks the caller).">
<polygon fill="white" stroke="#666666" points="612.62,-32 499.88,-32 499.88,0 612.62,0 612.62,-32"/>
<text xml:space="preserve" text-anchor="start" x="507.88" y="-18.5" font-family="Helvetica,sans-Serif" font-size="10.00">AsyncFw::ThreadPool</text>
<text xml:space="preserve" text-anchor="middle" x="556.25" y="-6.5" font-family="Helvetica,sans-Serif" font-size="10.00">::sync</text>
</a>
</g>
</g>
<!-- Node2&#45;&gt;Node23 -->
<g id="edge22_Node000002_Node000023" class="edge">
<title>Node2&#45;&gt;Node23</title>
<g id="a_edge22_Node000002_Node000023"><a xlink:title=" ">
<path fill="none" stroke="#63b8ff" d="M667,-266.9C666.75,-266.61 666.5,-266.3 666.25,-266 602.69,-187.16 695.47,-118.47 630.25,-41 625.5,-35.36 619.43,-31 612.81,-27.61"/>
<polygon fill="#63b8ff" stroke="#63b8ff" points="664.51,-269.37 674.25,-273.52 669.22,-264.2 664.51,-269.37"/>
</a>
</g>
</g>
<!-- Node4 -->
<g id="Node000004" class="node">
<title>Node4</title>
<g id="a_Node000004"><a xlink:href="classAsyncFw_1_1ThreadPool.html#a5af6a927b72eec19abb94ee2477d00b5" target="_top" xlink:title="Asynchronously invokes a function in the global pool, returning the result to a callback in the calle...">
<polygon fill="white" stroke="#666666" points="430.5,-582 317.75,-582 317.75,-550 430.5,-550 430.5,-582"/>
<text xml:space="preserve" text-anchor="start" x="325.75" y="-568.5" font-family="Helvetica,sans-Serif" font-size="10.00">AsyncFw::ThreadPool</text>
<text xml:space="preserve" text-anchor="middle" x="374.12" y="-556.5" font-family="Helvetica,sans-Serif" font-size="10.00">::async</text>
</a>
</g>
</g>
<!-- Node3&#45;&gt;Node4 -->
<g id="edge3_Node000003_Node000004" class="edge">
<title>Node3&#45;&gt;Node4</title>
<g id="a_edge3_Node000003_Node000004"><a xlink:title=" ">
<path fill="none" stroke="#63b8ff" d="M488.45,-566C469.47,-566 449.01,-566 430.76,-566"/>
<polygon fill="#63b8ff" stroke="#63b8ff" points="488.22,-569.5 498.22,-566 488.22,-562.5 488.22,-569.5"/>
</a>
</g>
</g>
<!-- Node9 -->
<g id="Node000009" class="node">
<title>Node9</title>
<g id="a_Node000009"><a xlink:href="classAsyncFw_1_1HttpSocket.html#a8268467d3581a4d393e9ccd288de32ff" target="_top" xlink:title="Schedules the socket for deferred asynchronous destruction.">
<polygon fill="white" stroke="#666666" points="430.5,-432 317.75,-432 317.75,-400 430.5,-400 430.5,-432"/>
<text xml:space="preserve" text-anchor="start" x="325.75" y="-418.5" font-family="Helvetica,sans-Serif" font-size="10.00">AsyncFw::HttpSocket</text>
<text xml:space="preserve" text-anchor="middle" x="374.12" y="-406.5" font-family="Helvetica,sans-Serif" font-size="10.00">::destroy</text>
</a>
</g>
</g>
<!-- Node8&#45;&gt;Node9 -->
<g id="edge8_Node000008_Node000009" class="edge">
<title>Node8&#45;&gt;Node9</title>
<g id="a_edge8_Node000008_Node000009"><a xlink:title=" ">
<path fill="none" stroke="#63b8ff" d="M484.98,-385.5C466.98,-390.5 447.87,-395.81 430.73,-400.57"/>
<polygon fill="#63b8ff" stroke="#63b8ff" points="485.86,-388.89 494.56,-382.85 483.99,-382.15 485.86,-388.89"/>
</a>
</g>
</g>
<!-- Node11 -->
<g id="Node000011" class="node">
<title>Node11</title>
<g id="a_Node000011"><a xlink:href="classAsyncFw_1_1DataArrayAbstractTcp_1_1Thread.html#ab6df6de1f9828a772e5968477ce5dffa" target="_top" xlink:title="Performs cleanup routines and safely removes a socket from the thread loop.">
<polygon fill="white" stroke="#666666" points="446.25,-382 302,-382 302,-350 446.25,-350 446.25,-382"/>
<text xml:space="preserve" text-anchor="start" x="310" y="-368.5" font-family="Helvetica,sans-Serif" font-size="10.00">AsyncFw::DataArrayAbstract</text>
<text xml:space="preserve" text-anchor="middle" x="374.12" y="-356.5" font-family="Helvetica,sans-Serif" font-size="10.00">Tcp::Thread::destroySocket</text>
</a>
</g>
</g>
<!-- Node8&#45;&gt;Node11 -->
<g id="edge10_Node000008_Node000011" class="edge">
<title>Node8&#45;&gt;Node11</title>
<g id="a_edge10_Node000008_Node000011"><a xlink:title=" ">
<path fill="none" stroke="#63b8ff" d="M478.98,-366C468.26,-366 457.27,-366 446.65,-366"/>
<polygon fill="#63b8ff" stroke="#63b8ff" points="478.96,-369.5 488.96,-366 478.96,-362.5 478.96,-369.5"/>
</a>
</g>
</g>
<!-- Node10 -->
<g id="Node000010" class="node">
<title>Node10</title>
<g id="a_Node000010"><a xlink:href="classAsyncFw_1_1HttpServer_1_1TcpSocket.html#a41557b69e30e25b97cbdda210afb7657" target="_top" xlink:title="Constructs a new TcpSocket associated with the parent server.">
<polygon fill="white" stroke="#666666" points="266,-432 146.5,-432 146.5,-400 266,-400 266,-432"/>
<text xml:space="preserve" text-anchor="start" x="154.5" y="-418.5" font-family="Helvetica,sans-Serif" font-size="10.00">AsyncFw::HttpServer</text>
<text xml:space="preserve" text-anchor="middle" x="206.25" y="-406.5" font-family="Helvetica,sans-Serif" font-size="10.00">::TcpSocket::TcpSocket</text>
</a>
</g>
</g>
<!-- Node9&#45;&gt;Node10 -->
<g id="edge9_Node000009_Node000010" class="edge">
<title>Node9&#45;&gt;Node10</title>
<g id="a_edge9_Node000009_Node000010"><a xlink:title=" ">
<path fill="none" stroke="#63b8ff" d="M306.09,-416C292.98,-416 279.32,-416 266.49,-416"/>
<polygon fill="#63b8ff" stroke="#63b8ff" points="305.92,-419.5 315.92,-416 305.92,-412.5 305.92,-419.5"/>
</a>
</g>
</g>
<!-- Node13 -->
<g id="Node000013" class="node">
<title>Node13</title>
<g id="a_Node000013"><a xlink:href="classAsyncFw_1_1HttpServer_1_1Response.html#a52925841696f5351ff43b46530c18390" target="_top" xlink:title="Finalizes and sends the response over the network via the associated socket.">
<polygon fill="white" stroke="#666666" points="429.38,-332 318.88,-332 318.88,-300 429.38,-300 429.38,-332"/>
<text xml:space="preserve" text-anchor="start" x="326.88" y="-318.5" font-family="Helvetica,sans-Serif" font-size="10.00">AsyncFw::HttpServer</text>
<text xml:space="preserve" text-anchor="middle" x="374.12" y="-306.5" font-family="Helvetica,sans-Serif" font-size="10.00">::Response::send</text>
</a>
</g>
</g>
<!-- Node12&#45;&gt;Node13 -->
<g id="edge12_Node000012_Node000013" class="edge">
<title>Node12&#45;&gt;Node13</title>
<g id="a_edge12_Node000012_Node000013"><a xlink:title=" ">
<path fill="none" stroke="#63b8ff" d="M489.41,-316C469.82,-316 448.58,-316 429.78,-316"/>
<polygon fill="#63b8ff" stroke="#63b8ff" points="489.2,-319.5 499.2,-316 489.2,-312.5 489.2,-319.5"/>
</a>
</g>
</g>
<!-- Node14 -->
<g id="Node000014" class="node">
<title>Node14</title>
<g id="a_Node000014"><a xlink:href="classAsyncFw_1_1HttpServer.html#a522928fa8bf3b13b706ac997d4f100dd" target="_top" xlink:title="Constructs the HTTP server instance.">
<polygon fill="white" stroke="#666666" points="261.5,-332 151,-332 151,-300 261.5,-300 261.5,-332"/>
<text xml:space="preserve" text-anchor="start" x="159" y="-318.5" font-family="Helvetica,sans-Serif" font-size="10.00">AsyncFw::HttpServer</text>
<text xml:space="preserve" text-anchor="middle" x="206.25" y="-306.5" font-family="Helvetica,sans-Serif" font-size="10.00">::HttpServer</text>
</a>
</g>
</g>
<!-- Node13&#45;&gt;Node14 -->
<g id="edge13_Node000013_Node000014" class="edge">
<title>Node13&#45;&gt;Node14</title>
<g id="a_edge13_Node000013_Node000014"><a xlink:title=" ">
<path fill="none" stroke="#63b8ff" d="M307.47,-316C292.4,-316 276.53,-316 261.97,-316"/>
<polygon fill="#63b8ff" stroke="#63b8ff" points="307.3,-319.5 317.3,-316 307.3,-312.5 307.3,-319.5"/>
</a>
</g>
</g>
<!-- Node15 -->
<g id="Node000015" class="node">
<title>Node15</title>
<g id="a_Node000015"><a xlink:href="classAsyncFw_1_1HttpServer.html#ad52f34791fe5848d9ba891b209fcdbe0" target="_top" xlink:title="Accessor to fetch the globally managed singleton instance reference of the active HttpServer.">
<polygon fill="white" stroke="#666666" points="110.5,-332 0,-332 0,-300 110.5,-300 110.5,-332"/>
<text xml:space="preserve" text-anchor="start" x="8" y="-318.5" font-family="Helvetica,sans-Serif" font-size="10.00">AsyncFw::HttpServer</text>
<text xml:space="preserve" text-anchor="middle" x="55.25" y="-306.5" font-family="Helvetica,sans-Serif" font-size="10.00">::instance</text>
</a>
</g>
</g>
<!-- Node14&#45;&gt;Node15 -->
<g id="edge14_Node000014_Node000015" class="edge">
<title>Node14&#45;&gt;Node15</title>
<g id="a_edge14_Node000014_Node000015"><a xlink:title=" ">
<path fill="none" stroke="#63b8ff" d="M139.2,-316C129.74,-316 120.09,-316 110.88,-316"/>
<polygon fill="#63b8ff" stroke="#63b8ff" points="139.1,-319.5 149.1,-316 139.1,-312.5 139.1,-319.5"/>
</a>
</g>
</g>
<!-- Node19 -->
<g id="Node000019" class="node">
<title>Node19</title>
<g id="a_Node000019"><a xlink:href="classAsyncFw_1_1HttpServer.html#ad3761260dfd18899afc22c6f4bc0c556" target="_top" xlink:title="Forcefully terminates all active socket connections currently retained by the server.">
<polygon fill="white" stroke="#666666" points="429.38,-207 318.88,-207 318.88,-175 429.38,-175 429.38,-207"/>
<text xml:space="preserve" text-anchor="start" x="326.88" y="-193.5" font-family="Helvetica,sans-Serif" font-size="10.00">AsyncFw::HttpServer</text>
<text xml:space="preserve" text-anchor="middle" x="374.12" y="-181.5" font-family="Helvetica,sans-Serif" font-size="10.00">::clearConnections</text>
</a>
</g>
</g>
<!-- Node18&#45;&gt;Node19 -->
<g id="edge18_Node000018_Node000019" class="edge">
<title>Node18&#45;&gt;Node19</title>
<g id="a_edge18_Node000018_Node000019"><a xlink:title=" ">
<path fill="none" stroke="#63b8ff" d="M488.56,-175.26C469.23,-177.94 448.35,-180.84 429.84,-183.41"/>
<polygon fill="#63b8ff" stroke="#63b8ff" points="488.81,-178.75 498.24,-173.91 487.85,-171.82 488.81,-178.75"/>
</a>
</g>
</g>
<!-- Node20 -->
<g id="Node000020" class="node">
<title>Node20</title>
<g id="a_Node000020"><a xlink:href="classAsyncFw_1_1HttpServer.html#ab3eeb1643d4482345afcd9f971c020ac" target="_top" xlink:title="Explicitly severs connections with active sockets holding custom user metadata matching data.">
<polygon fill="white" stroke="#666666" points="429.38,-157 318.88,-157 318.88,-125 429.38,-125 429.38,-157"/>
<text xml:space="preserve" text-anchor="start" x="326.88" y="-143.5" font-family="Helvetica,sans-Serif" font-size="10.00">AsyncFw::HttpServer</text>
<text xml:space="preserve" text-anchor="middle" x="374.12" y="-131.5" font-family="Helvetica,sans-Serif" font-size="10.00">::clearConnections</text>
</a>
</g>
</g>
<!-- Node18&#45;&gt;Node20 -->
<g id="edge19_Node000018_Node000020" class="edge">
<title>Node18&#45;&gt;Node20</title>
<g id="a_edge19_Node000018_Node000020"><a xlink:title=" ">
<path fill="none" stroke="#63b8ff" d="M488.56,-156.74C469.23,-154.06 448.35,-151.16 429.84,-148.59"/>
<polygon fill="#63b8ff" stroke="#63b8ff" points="487.85,-160.18 498.24,-158.09 488.81,-153.25 487.85,-160.18"/>
</a>
</g>
</g>
</g>
</svg>
