<?xml version="1.0" encoding="UTF-8" standalone="no"?>
<!DOCTYPE svg PUBLIC "-//W3C//DTD SVG 1.1//EN"
 "http://www.w3.org/Graphics/SVG/1.1/DTD/svg11.dtd">
<!-- Generated by graphviz version 12.2.1 (20241206.2353)
 -->
<!-- Title: AsyncFw::AbstractSocket::destroy Pages: 1 -->
<svg width="804pt" height="196pt"
 viewBox="0.00 0.00 804.25 196.00" xmlns="http://www.w3.org/2000/svg" xmlns:xlink="http://www.w3.org/1999/xlink">
<g id="graph0" class="graph" transform="scale(1 1) rotate(0) translate(4 192)">
<title>AsyncFw::AbstractSocket::destroy</title>
<!-- Node1 -->
<g id="Node000001" class="node">
<title>Node1</title>
<g id="a_Node000001"><a xlink:title="Schedules the socket for deferred asynchronous destruction.">
<polygon fill="#999999" stroke="#666666" points="130.75,-122 0,-122 0,-90 130.75,-90 130.75,-122"/>
<text text-anchor="start" x="8" y="-108.5" font-family="Helvetica,sans-Serif" font-size="10.00">AsyncFw::AbstractSocket</text>
<text text-anchor="middle" x="65.38" y="-96.5" font-family="Helvetica,sans-Serif" font-size="10.00">::destroy</text>
</a>
</g>
</g>
<!-- Node2 -->
<g id="Node000002" class="node">
<title>Node2</title>
<g id="a_Node000002"><a xlink:href="classAsyncFw_1_1AbstractSocket.html#a77c0a9ea7c5061c406673bbe8b18d60d" target="_top" xlink:title="Closes the network connection and unsubscribes from thread polling events.">
<polygon fill="white" stroke="#666666" points="297.5,-177 166.75,-177 166.75,-145 297.5,-145 297.5,-177"/>
<text text-anchor="start" x="174.75" y="-163.5" font-family="Helvetica,sans-Serif" font-size="10.00">AsyncFw::AbstractSocket</text>
<text text-anchor="middle" x="232.12" y="-151.5" font-family="Helvetica,sans-Serif" font-size="10.00">::close</text>
</a>
</g>
</g>
<!-- Node1&#45;&gt;Node2 -->
<g id="edge1_Node000001_Node000002" class="edge">
<title>Node1&#45;&gt;Node2</title>
<g id="a_edge1_Node000001_Node000002"><a xlink:title=" ">
<path fill="none" stroke="#63b8ff" d="M115.36,-122.35C132.8,-128.18 152.65,-134.8 170.92,-140.9"/>
<polygon fill="#63b8ff" stroke="#63b8ff" points="169.73,-144.19 180.32,-144.04 171.95,-137.55 169.73,-144.19"/>
</a>
</g>
</g>
<!-- Node4 -->
<g id="Node000004" class="node">
<title>Node4</title>
<g id="a_Node000004"><a xlink:href="classAsyncFw_1_1Thread.html#a0a3bd6a54db28f73ff59cfea6a40b07a" target="_top" xlink:title="Returns a pointer to the AsyncFw::Thread that manages the currently executing thread.">
<polygon fill="white" stroke="#666666" points="296.75,-116 167.5,-116 167.5,-96 296.75,-96 296.75,-116"/>
<text text-anchor="middle" x="232.12" y="-102.5" font-family="Helvetica,sans-Serif" font-size="10.00">AsyncFw::Thread::current</text>
</a>
</g>
</g>
<!-- Node1&#45;&gt;Node4 -->
<g id="edge3_Node000001_Node000004" class="edge">
<title>Node1&#45;&gt;Node4</title>
<g id="a_edge3_Node000001_Node000004"><a xlink:title=" ">
<path fill="none" stroke="#63b8ff" d="M131.02,-106C139.2,-106 147.62,-106 155.95,-106"/>
<polygon fill="#63b8ff" stroke="#63b8ff" points="155.7,-109.5 165.7,-106 155.7,-102.5 155.7,-109.5"/>
</a>
</g>
</g>
<!-- Node9 -->
<g id="Node000009" class="node">
<title>Node9</title>
<g id="a_Node000009"><a xlink:href="classAsyncFw_1_1AbstractThread.html#a786474d037b50053f1a97af7b67e6069" target="_top" xlink:title="Runs a function in a managed thread.">
<polygon fill="white" stroke="#666666" points="297.12,-63 167.12,-63 167.12,-31 297.12,-31 297.12,-63"/>
<text text-anchor="start" x="175.12" y="-49.5" font-family="Helvetica,sans-Serif" font-size="10.00">AsyncFw::AbstractThread</text>
<text text-anchor="middle" x="232.12" y="-37.5" font-family="Helvetica,sans-Serif" font-size="10.00">::invoke</text>
</a>
</g>
</g>
<!-- Node1&#45;&gt;Node9 -->
<g id="edge11_Node000001_Node000009" class="edge">
<title>Node1&#45;&gt;Node9</title>
<g id="a_edge11_Node000001_Node000009"><a xlink:title=" ">
<path fill="none" stroke="#63b8ff" d="M112.27,-89.57C131.56,-82.66 154.19,-74.55 174.5,-67.28"/>
<polygon fill="#63b8ff" stroke="#63b8ff" points="175.53,-70.63 183.77,-63.96 173.17,-64.04 175.53,-70.63"/>
</a>
</g>
</g>
<!-- Node3 -->
<g id="Node000003" class="node">
<title>Node3</title>
<g id="a_Node000003"><a xlink:href="classAsyncFw_1_1AbstractSocket.html#a5db12267a6d2241e81f570463f2d7ef5" target="_top" xlink:title="Called when the connection state changes.">
<polygon fill="white" stroke="#666666" points="464.25,-188 333.5,-188 333.5,-156 464.25,-156 464.25,-188"/>
<text text-anchor="start" x="341.5" y="-174.5" font-family="Helvetica,sans-Serif" font-size="10.00">AsyncFw::AbstractSocket</text>
<text text-anchor="middle" x="398.88" y="-162.5" font-family="Helvetica,sans-Serif" font-size="10.00">::stateEvent</text>
</a>
</g>
</g>
<!-- Node2&#45;&gt;Node3 -->
<g id="edge2_Node000002_Node000003" class="edge">
<title>Node2&#45;&gt;Node3</title>
<g id="a_edge2_Node000002_Node000003"><a xlink:title=" ">
<path fill="none" stroke="#63b8ff" d="M297.77,-165.32C305.67,-165.84 313.8,-166.39 321.85,-166.92"/>
<polygon fill="#63b8ff" stroke="#63b8ff" points="321.43,-170.4 331.64,-167.58 321.9,-163.42 321.43,-170.4"/>
</a>
</g>
</g>
<!-- Node5 -->
<g id="Node000005" class="node">
<title>Node5</title>
<g id="a_Node000005"><a xlink:href="classAsyncFw_1_1AbstractThread.html#af33c5949edb374d673a7a9ac0c81ec32" target="_top" xlink:title="Returns a pointer to the AsyncFw::AbstractThread that manages the currently executing thread.">
<polygon fill="white" stroke="#666666" points="463.88,-138 333.88,-138 333.88,-106 463.88,-106 463.88,-138"/>
<text text-anchor="start" x="341.88" y="-124.5" font-family="Helvetica,sans-Serif" font-size="10.00">AsyncFw::AbstractThread</text>
<text text-anchor="middle" x="398.88" y="-112.5" font-family="Helvetica,sans-Serif" font-size="10.00">::current</text>
</a>
</g>
</g>
<!-- Node4&#45;&gt;Node5 -->
<g id="edge4_Node000004_Node000005" class="edge">
<title>Node4&#45;&gt;Node5</title>
<g id="a_edge4_Node000004_Node000005"><a xlink:title=" ">
<path fill="none" stroke="#63b8ff" d="M296.82,-112.19C305.1,-112.99 313.65,-113.82 322.1,-114.64"/>
<polygon fill="#63b8ff" stroke="#63b8ff" points="321.73,-118.12 332.03,-115.6 322.41,-111.15 321.73,-118.12"/>
</a>
</g>
</g>
<!-- Node8 -->
<g id="Node000008" class="node">
<title>Node8</title>
<g id="a_Node000008"><a xlink:href="classAsyncFw_1_1Thread.html#afc5e422090767dd84020381fb9a4d490" target="_top" xlink:title="Constructs a thread.">
<polygon fill="white" stroke="#666666" points="463.5,-70 334.25,-70 334.25,-50 463.5,-50 463.5,-70"/>
<text text-anchor="middle" x="398.88" y="-56.5" font-family="Helvetica,sans-Serif" font-size="10.00">AsyncFw::Thread::Thread</text>
</a>
</g>
</g>
<!-- Node4&#45;&gt;Node8 -->
<g id="edge7_Node000004_Node000008" class="edge">
<title>Node4&#45;&gt;Node8</title>
<g id="a_edge7_Node000004_Node000008"><a xlink:title=" ">
<path fill="none" stroke="#63b8ff" d="M270.51,-95.56C293.91,-89.03 324.31,-80.54 349.53,-73.5"/>
<polygon fill="#63b8ff" stroke="#63b8ff" points="350.21,-76.94 358.9,-70.88 348.32,-70.2 350.21,-76.94"/>
</a>
</g>
</g>
<!-- Node6 -->
<g id="Node000006" class="node">
<title>Node6</title>
<g id="a_Node000006"><a xlink:href="classAsyncFw_1_1AbstractThread.html#a8c9202c90ac101522f26c4260cb01b59" target="_top" xlink:title="Constructs a thread.">
<polygon fill="white" stroke="#666666" points="630.25,-120 500.25,-120 500.25,-88 630.25,-88 630.25,-120"/>
<text text-anchor="start" x="508.25" y="-106.5" font-family="Helvetica,sans-Serif" font-size="10.00">AsyncFw::AbstractThread</text>
<text text-anchor="middle" x="565.25" y="-94.5" font-family="Helvetica,sans-Serif" font-size="10.00">::AbstractThread</text>
</a>
</g>
</g>
<!-- Node5&#45;&gt;Node6 -->
<g id="edge5_Node000005_Node000006" class="edge">
<title>Node5&#45;&gt;Node6</title>
<g id="a_edge5_Node000005_Node000006"><a xlink:title=" ">
<path fill="none" stroke="#63b8ff" d="M464.37,-114.94C472.32,-114.07 480.49,-113.17 488.59,-112.29"/>
<polygon fill="#63b8ff" stroke="#63b8ff" points="488.88,-115.77 498.44,-111.21 488.12,-108.82 488.88,-115.77"/>
</a>
</g>
</g>
<!-- Node7 -->
<g id="Node000007" class="node">
<title>Node7</title>
<g id="a_Node000007"><a xlink:href="classAsyncFw_1_1AbstractThread.html#a0cd916251e061aaf3d456575ef052edd" target="_top" xlink:title="Returns name of managed thread.">
<polygon fill="white" stroke="#666666" points="796.25,-98 666.25,-98 666.25,-66 796.25,-66 796.25,-98"/>
<text text-anchor="start" x="674.25" y="-84.5" font-family="Helvetica,sans-Serif" font-size="10.00">AsyncFw::AbstractThread</text>
<text text-anchor="middle" x="731.25" y="-72.5" font-family="Helvetica,sans-Serif" font-size="10.00">::name</text>
</a>
</g>
</g>
<!-- Node6&#45;&gt;Node7 -->
<g id="edge6_Node000006_Node000007" class="edge">
<title>Node6&#45;&gt;Node7</title>
<g id="a_edge6_Node000006_Node000007"><a xlink:title=" ">
<path fill="none" stroke="#63b8ff" d="M630.6,-95.37C638.46,-94.31 646.56,-93.23 654.58,-92.15"/>
<polygon fill="#63b8ff" stroke="#63b8ff" points="654.87,-95.64 664.32,-90.84 653.94,-88.71 654.87,-95.64"/>
</a>
</g>
</g>
<!-- Node8&#45;&gt;Node6 -->
<g id="edge8_Node000008_Node000006" class="edge">
<title>Node8&#45;&gt;Node6</title>
<g id="a_edge8_Node000008_Node000006"><a xlink:title=" ">
<path fill="none" stroke="#63b8ff" d="M438.83,-70.43C454.71,-74.68 473.59,-79.73 491.83,-84.61"/>
<polygon fill="#63b8ff" stroke="#63b8ff" points="490.74,-87.94 501.3,-87.15 492.55,-81.18 490.74,-87.94"/>
</a>
</g>
</g>
<!-- Node8&#45;&gt;Node7 -->
<g id="edge9_Node000008_Node000007" class="edge">
<title>Node8&#45;&gt;Node7</title>
<g id="a_edge9_Node000008_Node000007"><a xlink:title=" ">
<path fill="none" stroke="#63b8ff" d="M463.97,-64.27C518.5,-67.9 596.92,-73.12 654.54,-76.96"/>
<polygon fill="#63b8ff" stroke="#63b8ff" points="654.05,-80.43 664.26,-77.61 654.52,-73.45 654.05,-80.43"/>
</a>
</g>
</g>
<!-- Node8&#45;&gt;Node8 -->
<g id="edge10_Node000008_Node000008" class="edge">
<title>Node8&#45;&gt;Node8</title>
<g id="a_edge10_Node000008_Node000008"><a xlink:title=" ">
<path fill="none" stroke="#63b8ff" d="M372.44,-70.34C361.14,-78.98 369.95,-88 398.88,-88 414.69,-88 424.49,-85.3 428.28,-81.44"/>
<polygon fill="#63b8ff" stroke="#63b8ff" points="431.67,-80.56 425.7,-71.8 424.9,-82.37 431.67,-80.56"/>
</a>
</g>
</g>
<!-- Node10 -->
<g id="Node000010" class="node">
<title>Node10</title>
<g id="a_Node000010"><a xlink:href="classAsyncFw_1_1AbstractThread.html#abe96e6b2a1de041f0d25390a6b77e50a" target="_top" xlink:title="Runs a task in a managed thread.">
<polygon fill="white" stroke="#666666" points="463.88,-32 333.88,-32 333.88,0 463.88,0 463.88,-32"/>
<text text-anchor="start" x="341.88" y="-18.5" font-family="Helvetica,sans-Serif" font-size="10.00">AsyncFw::AbstractThread</text>
<text text-anchor="middle" x="398.88" y="-6.5" font-family="Helvetica,sans-Serif" font-size="10.00">::invokeTask</text>
</a>
</g>
</g>
<!-- Node9&#45;&gt;Node10 -->
<g id="edge12_Node000009_Node000010" class="edge">
<title>Node9&#45;&gt;Node10</title>
<g id="a_edge12_Node000009_Node000010"><a xlink:title=" ">
<path fill="none" stroke="#63b8ff" d="M297.29,-34.93C305.49,-33.38 313.95,-31.79 322.3,-30.22"/>
<polygon fill="#63b8ff" stroke="#63b8ff" points="322.94,-33.66 332.12,-28.37 321.65,-26.78 322.94,-33.66"/>
</a>
</g>
</g>
</g>
</svg>
