<?xml version="1.0" encoding="UTF-8" standalone="no"?>
<!DOCTYPE svg PUBLIC "-//W3C//DTD SVG 1.1//EN"
 "http://www.w3.org/Graphics/SVG/1.1/DTD/svg11.dtd">
<!-- Generated by graphviz version 12.2.1 (20241206.2353)
 -->
<!-- Title: AsyncFw::FunctionConnector&lt; Args &gt; Pages: 1 -->
<svg width="528pt" height="870pt"
 viewBox="0.00 0.00 527.50 870.21" xmlns="http://www.w3.org/2000/svg" xmlns:xlink="http://www.w3.org/1999/xlink">
<g id="graph0" class="graph" transform="scale(1 1) rotate(0) translate(4 866.21)">
<title>AsyncFw::FunctionConnector&lt; Args &gt;</title>
<!-- Node1 -->
<g id="Node000001" class="node">
<title>Node1</title>
<g id="a_Node000001"><a xlink:title="Provides a thread&#45;safe, publisher&#45;subscriber mechanism to establish sender&#45;to&#45;receivers connections.">
<polygon fill="#999999" stroke="#666666" points="145.75,-425.63 0,-425.63 0,-393.63 145.75,-393.63 145.75,-425.63"/>
<text text-anchor="start" x="8" y="-412.13" font-family="Helvetica,sans-Serif" font-size="10.00">AsyncFw::FunctionConnector</text>
<text text-anchor="middle" x="72.88" y="-400.13" font-family="Helvetica,sans-Serif" font-size="10.00">&lt; Args &gt;</text>
</a>
</g>
</g>
<!-- Node2 -->
<g id="Node000002" class="node">
<title>Node2</title>
<g id="a_Node000002"><a xlink:href="classAsyncFw_1_1FunctionConnector.html" target="_top" xlink:title=" ">
<polygon fill="white" stroke="#666666" points="497.75,-841.63 352,-841.63 352,-797.63 497.75,-797.63 497.75,-841.63"/>
<text text-anchor="start" x="360" y="-828.13" font-family="Helvetica,sans-Serif" font-size="10.00">AsyncFw::FunctionConnector</text>
<text text-anchor="start" x="360" y="-816.13" font-family="Helvetica,sans-Serif" font-size="10.00">&lt; int, const std::vector</text>
<text text-anchor="middle" x="424.88" y="-804.13" font-family="Helvetica,sans-Serif" font-size="10.00">&lt; std::string &gt; &amp; &gt;</text>
</a>
</g>
</g>
<!-- Node1&#45;&gt;Node2 -->
<g id="edge1_Node000001_Node000002" class="edge">
<title>Node1&#45;&gt;Node2</title>
<g id="a_edge1_Node000001_Node000002"><a xlink:title=" ">
<path fill="none" stroke="orange" stroke-dasharray="5,2" d="M76.1,-436.78C83.27,-516.91 108.57,-749.84 163.75,-797.63 214.62,-841.7 294.01,-842.04 351.7,-834.56"/>
<polygon fill="orange" stroke="orange" points="79.62,-436.86 75.27,-427.2 72.65,-437.46 79.62,-436.86"/>
</a>
</g>
<text text-anchor="start" x="187" y="-852.71" font-family="Helvetica,sans-Serif" font-size="10.00" fill="grey"> &lt; int, const std::vector</text>
<text text-anchor="middle" x="238" y="-840.71" font-family="Helvetica,sans-Serif" font-size="10.00" fill="grey">&lt; std::string &gt; &amp; &gt;</text>
</g>
<!-- Node3 -->
<g id="Node000003" class="node">
<title>Node3</title>
<g id="a_Node000003"><a xlink:href="classAsyncFw_1_1FunctionConnector.html" target="_top" xlink:title=" ">
<polygon fill="white" stroke="#666666" points="513.88,-779.63 335.88,-779.63 335.88,-735.63 513.88,-735.63 513.88,-779.63"/>
<text text-anchor="start" x="343.88" y="-766.13" font-family="Helvetica,sans-Serif" font-size="10.00">AsyncFw::FunctionConnector</text>
<text text-anchor="start" x="343.88" y="-754.13" font-family="Helvetica,sans-Serif" font-size="10.00">&lt; const AsyncFw::ApplicationNotifier</text>
<text text-anchor="middle" x="424.88" y="-742.13" font-family="Helvetica,sans-Serif" font-size="10.00">::Value &amp; &gt;</text>
</a>
</g>
</g>
<!-- Node1&#45;&gt;Node3 -->
<g id="edge2_Node000001_Node000003" class="edge">
<title>Node1&#45;&gt;Node3</title>
<g id="a_edge2_Node000001_Node000003"><a xlink:title=" ">
<path fill="none" stroke="orange" stroke-dasharray="5,2" d="M77.72,-437.26C88.08,-507.38 118.82,-689.4 163.75,-727.63 210.4,-767.33 280.01,-773.55 335.49,-770.54"/>
<polygon fill="orange" stroke="orange" points="81.19,-436.79 76.3,-427.39 74.26,-437.79 81.19,-436.79"/>
</a>
</g>
<text text-anchor="start" x="171.25" y="-785.67" font-family="Helvetica,sans-Serif" font-size="10.00" fill="grey"> &lt; const AsyncFw::Application</text>
<text text-anchor="middle" x="238" y="-773.67" font-family="Helvetica,sans-Serif" font-size="10.00" fill="grey">Notifier::Value &amp; &gt;</text>
</g>
<!-- Node4 -->
<g id="Node000004" class="node">
<title>Node4</title>
<g id="a_Node000004"><a xlink:href="classAsyncFw_1_1FunctionConnector.html" target="_top" xlink:title=" ">
<polygon fill="white" stroke="#666666" points="511.62,-717.63 338.12,-717.63 338.12,-661.63 511.62,-661.63 511.62,-717.63"/>
<text text-anchor="start" x="346.12" y="-704.13" font-family="Helvetica,sans-Serif" font-size="10.00">AsyncFw::FunctionConnector</text>
<text text-anchor="start" x="346.12" y="-692.13" font-family="Helvetica,sans-Serif" font-size="10.00">&lt; const AsyncFw::DataArraySocket</text>
<text text-anchor="start" x="346.12" y="-680.13" font-family="Helvetica,sans-Serif" font-size="10.00"> *, const AsyncFw::DataArray</text>
<text text-anchor="middle" x="424.88" y="-668.13" font-family="Helvetica,sans-Serif" font-size="10.00"> *, uint32_t &gt;</text>
</a>
</g>
</g>
<!-- Node1&#45;&gt;Node4 -->
<g id="edge3_Node000001_Node000004" class="edge">
<title>Node1&#45;&gt;Node4</title>
<g id="a_edge3_Node000001_Node000004"><a xlink:title=" ">
<path fill="none" stroke="orange" stroke-dasharray="5,2" d="M74.91,-437.4C78.48,-489.92 94.3,-603.44 163.75,-658.63 190.05,-679.54 272.64,-686.64 337.79,-688.91"/>
<polygon fill="orange" stroke="orange" points="78.41,-437.31 74.35,-427.52 71.42,-437.71 78.41,-437.31"/>
</a>
</g>
<text text-anchor="start" x="173.12" y="-714.22" font-family="Helvetica,sans-Serif" font-size="10.00" fill="grey"> &lt; const AsyncFw::DataArray</text>
<text text-anchor="start" x="173.12" y="-702.22" font-family="Helvetica,sans-Serif" font-size="10.00" fill="grey">Socket *, const AsyncFw</text>
<text text-anchor="middle" x="238" y="-690.22" font-family="Helvetica,sans-Serif" font-size="10.00" fill="grey">::DataArray *, uint32_t &gt;</text>
</g>
<!-- Node5 -->
<g id="Node000005" class="node">
<title>Node5</title>
<g id="a_Node000005"><a xlink:href="classAsyncFw_1_1FunctionConnector.html" target="_top" xlink:title=" ">
<polygon fill="white" stroke="#666666" points="497.75,-643.63 352,-643.63 352,-611.63 497.75,-611.63 497.75,-643.63"/>
<text text-anchor="start" x="360" y="-630.13" font-family="Helvetica,sans-Serif" font-size="10.00">AsyncFw::FunctionConnector</text>
<text text-anchor="middle" x="424.88" y="-618.13" font-family="Helvetica,sans-Serif" font-size="10.00">&lt; AbstractSocket::State &gt;</text>
</a>
</g>
</g>
<!-- Node1&#45;&gt;Node5 -->
<g id="edge4_Node000001_Node000005" class="edge">
<title>Node1&#45;&gt;Node5</title>
<g id="a_edge4_Node000001_Node000005"><a xlink:title=" ">
<path fill="none" stroke="orange" stroke-dasharray="5,2" d="M77.69,-437.24C85.36,-481.1 107.06,-565.79 163.75,-605.63 218.07,-643.81 295.41,-645.5 351.63,-639.96"/>
<polygon fill="orange" stroke="orange" points="81.17,-436.83 76.13,-427.52 74.26,-437.95 81.17,-436.83"/>
</a>
</g>
<text text-anchor="middle" x="238" y="-644.79" font-family="Helvetica,sans-Serif" font-size="10.00" fill="grey"> &lt; AbstractSocket::State &gt;</text>
</g>
<!-- Node6 -->
<g id="Node000006" class="node">
<title>Node6</title>
<g id="a_Node000006"><a xlink:href="classAsyncFw_1_1FunctionConnector.html" target="_top" xlink:title=" ">
<polygon fill="white" stroke="#666666" points="497.75,-593.63 352,-593.63 352,-549.63 497.75,-549.63 497.75,-593.63"/>
<text text-anchor="start" x="360" y="-580.13" font-family="Helvetica,sans-Serif" font-size="10.00">AsyncFw::FunctionConnector</text>
<text text-anchor="start" x="360" y="-568.13" font-family="Helvetica,sans-Serif" font-size="10.00">&lt; const AsyncFw::DataArray</text>
<text text-anchor="middle" x="424.88" y="-556.13" font-family="Helvetica,sans-Serif" font-size="10.00"> *, uint32_t &gt;</text>
</a>
</g>
</g>
<!-- Node1&#45;&gt;Node6 -->
<g id="edge5_Node000001_Node000006" class="edge">
<title>Node1&#45;&gt;Node6</title>
<g id="a_edge5_Node000001_Node000006"><a xlink:title=" ">
<path fill="none" stroke="orange" stroke-dasharray="5,2" d="M83.35,-436.46C96.18,-468.43 122.36,-520.64 163.75,-545.63 220.18,-579.71 296.32,-583.49 351.63,-580.38"/>
<polygon fill="orange" stroke="orange" points="86.76,-435.58 79.91,-427.49 80.22,-438.08 86.76,-435.58"/>
</a>
</g>
<text text-anchor="start" x="173.12" y="-595.67" font-family="Helvetica,sans-Serif" font-size="10.00" fill="grey"> &lt; const AsyncFw::DataArray</text>
<text text-anchor="middle" x="238" y="-583.67" font-family="Helvetica,sans-Serif" font-size="10.00" fill="grey"> *, uint32_t &gt;</text>
</g>
<!-- Node7 -->
<g id="Node000007" class="node">
<title>Node7</title>
<g id="a_Node000007"><a xlink:href="classAsyncFw_1_1FunctionConnector.html" target="_top" xlink:title=" ">
<polygon fill="white" stroke="#666666" points="519.5,-531.63 330.25,-531.63 330.25,-499.63 519.5,-499.63 519.5,-531.63"/>
<text text-anchor="start" x="338.25" y="-518.13" font-family="Helvetica,sans-Serif" font-size="10.00">AsyncFw::FunctionConnector</text>
<text text-anchor="middle" x="424.88" y="-506.13" font-family="Helvetica,sans-Serif" font-size="10.00">&lt; const AsyncFw::DataArraySocket * &gt;</text>
</a>
</g>
</g>
<!-- Node1&#45;&gt;Node7 -->
<g id="edge6_Node000001_Node000007" class="edge">
<title>Node1&#45;&gt;Node7</title>
<g id="a_edge6_Node000001_Node000007"><a xlink:title=" ">
<path fill="none" stroke="orange" stroke-dasharray="5,2" d="M95.02,-434.36C111.74,-452.11 136.7,-474.89 163.75,-486.63 215.75,-509.21 278.84,-516.67 329.86,-518.39"/>
<polygon fill="orange" stroke="orange" points="97.84,-432.27 88.52,-427.24 92.67,-436.99 97.84,-432.27"/>
</a>
</g>
<text text-anchor="start" x="173.12" y="-531.82" font-family="Helvetica,sans-Serif" font-size="10.00" fill="grey"> &lt; const AsyncFw::DataArray</text>
<text text-anchor="middle" x="238" y="-519.82" font-family="Helvetica,sans-Serif" font-size="10.00" fill="grey">Socket * &gt;</text>
</g>
<!-- Node8 -->
<g id="Node000008" class="node">
<title>Node8</title>
<g id="a_Node000008"><a xlink:href="classAsyncFw_1_1FunctionConnector.html" target="_top" xlink:title=" ">
<polygon fill="white" stroke="#666666" points="497.75,-481.63 352,-481.63 352,-449.63 497.75,-449.63 497.75,-481.63"/>
<text text-anchor="start" x="360" y="-468.13" font-family="Helvetica,sans-Serif" font-size="10.00">AsyncFw::FunctionConnector</text>
<text text-anchor="middle" x="424.88" y="-456.13" font-family="Helvetica,sans-Serif" font-size="10.00">&lt; const std::string &amp;, int &gt;</text>
</a>
</g>
</g>
<!-- Node1&#45;&gt;Node8 -->
<g id="edge7_Node000001_Node000008" class="edge">
<title>Node1&#45;&gt;Node8</title>
<g id="a_edge7_Node000001_Node000008"><a xlink:title=" ">
<path fill="none" stroke="orange" stroke-dasharray="5,2" d="M131.43,-429.38C142.08,-432.51 153.18,-435.44 163.75,-437.63 226.46,-450.65 299,-457.82 351.52,-461.64"/>
<polygon fill="orange" stroke="orange" points="132.57,-426.07 121.98,-426.5 130.53,-432.76 132.57,-426.07"/>
</a>
</g>
<text text-anchor="start" x="196.75" y="-472.82" font-family="Helvetica,sans-Serif" font-size="10.00" fill="grey"> &lt; const std::string</text>
<text text-anchor="middle" x="238" y="-460.82" font-family="Helvetica,sans-Serif" font-size="10.00" fill="grey"> &amp;, int &gt;</text>
</g>
<!-- Node9 -->
<g id="Node000009" class="node">
<title>Node9</title>
<g id="a_Node000009"><a xlink:href="classAsyncFw_1_1FunctionConnector.html" target="_top" xlink:title=" ">
<polygon fill="white" stroke="#666666" points="497.75,-431.63 352,-431.63 352,-387.63 497.75,-387.63 497.75,-431.63"/>
<text text-anchor="start" x="360" y="-418.13" font-family="Helvetica,sans-Serif" font-size="10.00">AsyncFw::FunctionConnector</text>
<text text-anchor="start" x="360" y="-406.13" font-family="Helvetica,sans-Serif" font-size="10.00">&lt; int, const std::string</text>
<text text-anchor="middle" x="424.88" y="-394.13" font-family="Helvetica,sans-Serif" font-size="10.00"> &amp;, bool * &gt;</text>
</a>
</g>
</g>
<!-- Node1&#45;&gt;Node9 -->
<g id="edge8_Node000001_Node000009" class="edge">
<title>Node1&#45;&gt;Node9</title>
<g id="a_edge8_Node000001_Node000009"><a xlink:title=" ">
<path fill="none" stroke="orange" stroke-dasharray="5,2" d="M157.16,-409.63C216.34,-409.63 295.03,-409.63 351.57,-409.63"/>
<polygon fill="orange" stroke="orange" points="157.48,-406.13 147.48,-409.63 157.48,-413.13 157.48,-406.13"/>
</a>
</g>
<text text-anchor="start" x="188.5" y="-424.13" font-family="Helvetica,sans-Serif" font-size="10.00" fill="grey"> &lt; int, const std::string</text>
<text text-anchor="middle" x="238" y="-412.13" font-family="Helvetica,sans-Serif" font-size="10.00" fill="grey"> &amp;, bool * &gt;</text>
</g>
<!-- Node10 -->
<g id="Node000010" class="node">
<title>Node10</title>
<g id="a_Node000010"><a xlink:href="classAsyncFw_1_1FunctionConnector.html" target="_top" xlink:title=" ">
<polygon fill="white" stroke="#666666" points="497.75,-369.63 352,-369.63 352,-325.63 497.75,-325.63 497.75,-369.63"/>
<text text-anchor="start" x="360" y="-356.13" font-family="Helvetica,sans-Serif" font-size="10.00">AsyncFw::FunctionConnector</text>
<text text-anchor="start" x="360" y="-344.13" font-family="Helvetica,sans-Serif" font-size="10.00">&lt; const AbstractSocket::</text>
<text text-anchor="middle" x="424.88" y="-332.13" font-family="Helvetica,sans-Serif" font-size="10.00">State &gt;</text>
</a>
</g>
</g>
<!-- Node1&#45;&gt;Node10 -->
<g id="edge9_Node000001_Node000010" class="edge">
<title>Node1&#45;&gt;Node10</title>
<g id="a_edge9_Node000001_Node000010"><a xlink:title=" ">
<path fill="none" stroke="orange" stroke-dasharray="5,2" d="M131.83,-389.98C142.37,-386.86 153.32,-383.92 163.75,-381.63 226.48,-367.87 299.02,-358.95 351.53,-353.72"/>
<polygon fill="orange" stroke="orange" points="131.03,-386.56 122.49,-392.83 133.08,-393.26 131.03,-386.56"/>
</a>
</g>
<text text-anchor="start" x="185.12" y="-396.13" font-family="Helvetica,sans-Serif" font-size="10.00" fill="grey"> &lt; const AbstractSocket</text>
<text text-anchor="middle" x="238" y="-384.13" font-family="Helvetica,sans-Serif" font-size="10.00" fill="grey">::State &gt;</text>
</g>
<!-- Node11 -->
<g id="Node000011" class="node">
<title>Node11</title>
<g id="a_Node000011"><a xlink:href="classAsyncFw_1_1FunctionConnector.html" target="_top" xlink:title=" ">
<polygon fill="white" stroke="#666666" points="505.62,-307.63 344.12,-307.63 344.12,-275.63 505.62,-275.63 505.62,-307.63"/>
<text text-anchor="start" x="352.12" y="-294.13" font-family="Helvetica,sans-Serif" font-size="10.00">AsyncFw::FunctionConnector</text>
<text text-anchor="middle" x="424.88" y="-282.13" font-family="Helvetica,sans-Serif" font-size="10.00">&lt; const AsyncFw::DataArray &amp; &gt;</text>
</a>
</g>
</g>
<!-- Node1&#45;&gt;Node11 -->
<g id="edge10_Node000001_Node000011" class="edge">
<title>Node1&#45;&gt;Node11</title>
<g id="a_edge10_Node000001_Node000011"><a xlink:title=" ">
<path fill="none" stroke="orange" stroke-dasharray="5,2" d="M98.81,-385.75C115.81,-370.81 139.55,-352.41 163.75,-341.63 220.89,-316.2 290.73,-303.68 343.65,-297.53"/>
<polygon fill="orange" stroke="orange" points="96.76,-382.88 91.69,-392.18 101.46,-388.07 96.76,-382.88"/>
</a>
</g>
<text text-anchor="middle" x="238" y="-344.13" font-family="Helvetica,sans-Serif" font-size="10.00" fill="grey"> &lt; const AsyncFw::DataArray &amp; &gt;</text>
</g>
<!-- Node12 -->
<g id="Node000012" class="node">
<title>Node12</title>
<g id="a_Node000012"><a xlink:href="classAsyncFw_1_1FunctionConnector.html" target="_top" xlink:title=" ">
<polygon fill="white" stroke="#666666" points="497.75,-257.63 352,-257.63 352,-225.63 497.75,-225.63 497.75,-257.63"/>
<text text-anchor="start" x="360" y="-244.13" font-family="Helvetica,sans-Serif" font-size="10.00">AsyncFw::FunctionConnector</text>
<text text-anchor="middle" x="424.88" y="-232.13" font-family="Helvetica,sans-Serif" font-size="10.00">&lt; int &gt;</text>
</a>
</g>
</g>
<!-- Node1&#45;&gt;Node12 -->
<g id="edge11_Node000001_Node000012" class="edge">
<title>Node1&#45;&gt;Node12</title>
<g id="a_edge11_Node000001_Node000012"><a xlink:title=" ">
<path fill="none" stroke="orange" stroke-dasharray="5,2" d="M85.61,-383.21C99.79,-354.53 126.49,-309.76 163.75,-286.63 220.31,-251.52 296.43,-241.77 351.7,-239.9"/>
<polygon fill="orange" stroke="orange" points="82.58,-381.43 81.44,-391.96 88.9,-384.44 82.58,-381.43"/>
</a>
</g>
<text text-anchor="middle" x="238" y="-289.13" font-family="Helvetica,sans-Serif" font-size="10.00" fill="grey"> &lt; int &gt;</text>
</g>
<!-- Node13 -->
<g id="Node000013" class="node">
<title>Node13</title>
<g id="a_Node000013"><a xlink:href="classAsyncFw_1_1FunctionConnector.html" target="_top" xlink:title=" ">
<polygon fill="white" stroke="#666666" points="503,-207.63 346.75,-207.63 346.75,-163.63 503,-163.63 503,-207.63"/>
<text text-anchor="start" x="354.75" y="-194.13" font-family="Helvetica,sans-Serif" font-size="10.00">AsyncFw::FunctionConnector</text>
<text text-anchor="start" x="354.75" y="-182.13" font-family="Helvetica,sans-Serif" font-size="10.00">&lt; const AsyncFw::MulticastDns</text>
<text text-anchor="middle" x="424.88" y="-170.13" font-family="Helvetica,sans-Serif" font-size="10.00">::Host &amp; &gt;</text>
</a>
</g>
</g>
<!-- Node1&#45;&gt;Node13 -->
<g id="edge12_Node000001_Node000013" class="edge">
<title>Node1&#45;&gt;Node13</title>
<g id="a_edge12_Node000001_Node000013"><a xlink:title=" ">
<path fill="none" stroke="orange" stroke-dasharray="5,2" d="M77.92,-382.01C85.88,-338.52 107.93,-254.9 163.75,-214.63 216.17,-176.81 290.65,-172.07 346.49,-175.32"/>
<polygon fill="orange" stroke="orange" points="74.51,-381.21 76.29,-391.65 81.41,-382.38 74.51,-381.21"/>
</a>
</g>
<text text-anchor="start" x="175.38" y="-229.13" font-family="Helvetica,sans-Serif" font-size="10.00" fill="grey"> &lt; const AsyncFw::Multicast</text>
<text text-anchor="middle" x="238" y="-217.13" font-family="Helvetica,sans-Serif" font-size="10.00" fill="grey">Dns::Host &amp; &gt;</text>
</g>
<!-- Node14 -->
<g id="Node000014" class="node">
<title>Node14</title>
<g id="a_Node000014"><a xlink:href="classAsyncFw_1_1FunctionConnector.html" target="_top" xlink:title=" ">
<polygon fill="white" stroke="#666666" points="501.5,-145.63 348.25,-145.63 348.25,-113.63 501.5,-113.63 501.5,-145.63"/>
<text text-anchor="start" x="356.25" y="-132.13" font-family="Helvetica,sans-Serif" font-size="10.00">AsyncFw::FunctionConnector</text>
<text text-anchor="middle" x="424.88" y="-120.13" font-family="Helvetica,sans-Serif" font-size="10.00">&lt; AbstractThread::PollEvents &gt;</text>
</a>
</g>
</g>
<!-- Node1&#45;&gt;Node14 -->
<g id="edge13_Node000001_Node000014" class="edge">
<title>Node1&#45;&gt;Node14</title>
<g id="a_edge13_Node000001_Node000014"><a xlink:title=" ">
<path fill="none" stroke="orange" stroke-dasharray="5,2" d="M74.77,-381.98C78.1,-329.14 93.5,-214.18 163.75,-158.63 215.17,-117.98 291.23,-113.93 347.84,-118.15"/>
<polygon fill="orange" stroke="orange" points="71.28,-381.75 74.26,-391.91 78.27,-382.11 71.28,-381.75"/>
</a>
</g>
<text text-anchor="middle" x="238" y="-161.13" font-family="Helvetica,sans-Serif" font-size="10.00" fill="grey"> &lt; AbstractThread::PollEvents &gt;</text>
</g>
<!-- Node15 -->
<g id="Node000015" class="node">
<title>Node15</title>
<g id="a_Node000015"><a xlink:href="classAsyncFw_1_1FunctionConnector.html" target="_top" xlink:title=" ">
<polygon fill="white" stroke="#666666" points="497.75,-95.63 352,-95.63 352,-63.63 497.75,-63.63 497.75,-95.63"/>
<text text-anchor="start" x="360" y="-82.13" font-family="Helvetica,sans-Serif" font-size="10.00">AsyncFw::FunctionConnector</text>
<text text-anchor="middle" x="424.88" y="-70.13" font-family="Helvetica,sans-Serif" font-size="10.00">&lt; State &gt;</text>
</a>
</g>
</g>
<!-- Node1&#45;&gt;Node15 -->
<g id="edge14_Node000001_Node000015" class="edge">
<title>Node1&#45;&gt;Node15</title>
<g id="a_edge14_Node000001_Node000015"><a xlink:title=" ">
<path fill="none" stroke="orange" stroke-dasharray="5,2" d="M77.84,-382.22C88.38,-313.51 119.33,-136.86 163.75,-100.63 215.63,-58.32 294.27,-57.86 351.5,-65.03"/>
<polygon fill="orange" stroke="orange" points="74.42,-381.47 76.39,-391.88 81.34,-382.51 74.42,-381.47"/>
</a>
</g>
<text text-anchor="middle" x="238" y="-103.13" font-family="Helvetica,sans-Serif" font-size="10.00" fill="grey"> &lt; State &gt;</text>
</g>
<!-- Node16 -->
<g id="Node000016" class="node">
<title>Node16</title>
<g id="a_Node000016"><a xlink:href="classAsyncFw_1_1FunctionConnector.html" target="_top" xlink:title=" ">
<polygon fill="white" stroke="#666666" points="497.75,-45.63 352,-45.63 352,-13.63 497.75,-13.63 497.75,-45.63"/>
<text text-anchor="start" x="360" y="-32.13" font-family="Helvetica,sans-Serif" font-size="10.00">AsyncFw::FunctionConnector</text>
<text text-anchor="middle" x="424.88" y="-20.13" font-family="Helvetica,sans-Serif" font-size="10.00">&lt; const std::string &amp;, bool &gt;</text>
</a>
</g>
</g>
<!-- Node1&#45;&gt;Node16 -->
<g id="edge15_Node000001_Node000016" class="edge">
<title>Node1&#45;&gt;Node16</title>
<g id="a_edge15_Node000001_Node000016"><a xlink:title=" ">
<path fill="none" stroke="orange" stroke-dasharray="5,2" d="M76.19,-382.13C83.45,-303.03 108.7,-77.77 163.75,-33.63 221.98,13.05 313.43,1.13 370.94,-13.18"/>
<polygon fill="orange" stroke="orange" points="72.71,-381.74 75.31,-392.01 79.68,-382.36 72.71,-381.74"/>
</a>
</g>
<text text-anchor="start" x="196.75" y="-48.13" font-family="Helvetica,sans-Serif" font-size="10.00" fill="grey"> &lt; const std::string</text>
<text text-anchor="middle" x="238" y="-36.13" font-family="Helvetica,sans-Serif" font-size="10.00" fill="grey"> &amp;, bool &gt;</text>
</g>
</g>
</svg>
