<?xml version="1.0" encoding="UTF-8" standalone="no"?>
<!DOCTYPE svg PUBLIC "-//W3C//DTD SVG 1.1//EN"
 "http://www.w3.org/Graphics/SVG/1.1/DTD/svg11.dtd">
<!-- Generated by graphviz version 14.1.3 (20260303.0454)
 -->
<!-- Title: AsyncFw::Timer::start Pages: 1 -->
<svg width="306pt" height="78pt"
 viewBox="0.00 0.00 306.00 78.00" xmlns="http://www.w3.org/2000/svg" xmlns:xlink="http://www.w3.org/1999/xlink">
<g id="graph0" class="graph" transform="scale(1 1) rotate(0) translate(4 74)">
<title>AsyncFw::Timer::start</title>
<!-- Node1 -->
<g id="Node000001" class="node">
<title>Node1</title>
<g id="a_Node000001"><a xlink:title="Starts or restarts a timer with the specified timeout. If the timer is already running,...">
<polygon fill="#999999" stroke="#666666" points="297.5,-48 184,-48 184,-28 297.5,-28 297.5,-48"/>
<text xml:space="preserve" text-anchor="middle" x="240.75" y="-34.5" font-family="Helvetica,sans-Serif" font-size="10.00">AsyncFw::Timer::start</text>
</a>
</g>
</g>
<!-- Node2 -->
<g id="Node000002" class="node">
<title>Node2</title>
<g id="a_Node000002"><a xlink:href="classAsyncFw_1_1Timer.html#aad1874fc8c5f41c278e4e4de81609e54" target="_top" xlink:title="Asynchronously waits for the specified timeout interval.">
<polygon fill="white" stroke="#666666" points="143.88,-70 4.12,-70 4.12,-50 143.88,-50 143.88,-70"/>
<text xml:space="preserve" text-anchor="middle" x="74" y="-56.5" font-family="Helvetica,sans-Serif" font-size="10.00">AsyncFw::Timer::coTimeout</text>
</a>
</g>
</g>
<!-- Node1&#45;&gt;Node2 -->
<g id="edge1_Node000001_Node000002" class="edge">
<title>Node1&#45;&gt;Node2</title>
<g id="a_edge1_Node000001_Node000002"><a xlink:title=" ">
<path fill="none" stroke="#63b8ff" d="M172.32,-47C163.01,-48.25 153.44,-49.53 144.1,-50.77"/>
<polygon fill="#63b8ff" stroke="#63b8ff" points="172.56,-50.5 182.01,-45.71 171.64,-43.56 172.56,-50.5"/>
</a>
</g>
</g>
<!-- Node3 -->
<g id="Node000003" class="node">
<title>Node3</title>
<g id="a_Node000003"><a xlink:href="classAsyncFw_1_1DataArrayTcpClient.html#a380c907a396d306611fe7dc21f35f74f" target="_top" xlink:title="Executes a synchronous request&#45;response data exchange over a specific socket.">
<polygon fill="white" stroke="#666666" points="148,-32 0,-32 0,0 148,0 148,-32"/>
<text xml:space="preserve" text-anchor="start" x="8" y="-18.5" font-family="Helvetica,sans-Serif" font-size="10.00">AsyncFw::DataArrayTcpClient</text>
<text xml:space="preserve" text-anchor="middle" x="74" y="-6.5" font-family="Helvetica,sans-Serif" font-size="10.00">::exchange</text>
</a>
</g>
</g>
<!-- Node1&#45;&gt;Node3 -->
<g id="edge2_Node000001_Node000003" class="edge">
<title>Node1&#45;&gt;Node3</title>
<g id="a_edge2_Node000001_Node000003"><a xlink:title=" ">
<path fill="none" stroke="#63b8ff" d="M172.21,-28.98C164.38,-27.94 156.37,-26.87 148.46,-25.81"/>
<polygon fill="#63b8ff" stroke="#63b8ff" points="171.64,-32.44 182.01,-30.29 172.56,-25.5 171.64,-32.44"/>
</a>
</g>
</g>
</g>
</svg>
