<?xml version="1.0" encoding="UTF-8" standalone="no"?>
<!DOCTYPE svg PUBLIC "-//W3C//DTD SVG 1.1//EN"
 "http://www.w3.org/Graphics/SVG/1.1/DTD/svg11.dtd">
<!-- Generated by graphviz version 14.1.3 (20260303.0454)
 -->
<!-- Title: AsyncFw::AbstractSocket::stateEvent Pages: 1 -->
<svg width="1169pt" height="428pt"
 viewBox="0.00 0.00 1169.00 428.00" xmlns="http://www.w3.org/2000/svg" xmlns:xlink="http://www.w3.org/1999/xlink">
<g id="graph0" class="graph" transform="scale(1 1) rotate(0) translate(4 424)">
<title>AsyncFw::AbstractSocket::stateEvent</title>
<!-- Node1 -->
<g id="Node000001" class="node">
<title>Node1</title>
<g id="a_Node000001"><a xlink:title="Called when the connection state changes.">
<polygon fill="#999999" stroke="#666666" points="1160.5,-246 1029.75,-246 1029.75,-214 1160.5,-214 1160.5,-246"/>
<text xml:space="preserve" text-anchor="start" x="1037.75" y="-232.5" font-family="Helvetica,sans-Serif" font-size="10.00">AsyncFw::AbstractSocket</text>
<text xml:space="preserve" text-anchor="middle" x="1095.12" y="-220.5" font-family="Helvetica,sans-Serif" font-size="10.00">::stateEvent</text>
</a>
</g>
</g>
<!-- Node2 -->
<g id="Node000002" class="node">
<title>Node2</title>
<g id="a_Node000002"><a xlink:href="classAsyncFw_1_1AbstractSocket.html#aac7ad6c4f9815d9b8b0817d38864d06d" target="_top" xlink:title="Called when established connection.">
<polygon fill="white" stroke="#666666" points="993.75,-390 863,-390 863,-358 993.75,-358 993.75,-390"/>
<text xml:space="preserve" text-anchor="start" x="871" y="-376.5" font-family="Helvetica,sans-Serif" font-size="10.00">AsyncFw::AbstractSocket</text>
<text xml:space="preserve" text-anchor="middle" x="928.38" y="-364.5" font-family="Helvetica,sans-Serif" font-size="10.00">::activateEvent</text>
</a>
</g>
</g>
<!-- Node1&#45;&gt;Node2 -->
<g id="edge1_Node000001_Node000002" class="edge">
<title>Node1&#45;&gt;Node2</title>
<g id="a_edge1_Node000001_Node000002"><a xlink:title=" ">
<path fill="none" stroke="#63b8ff" d="M1067.14,-253.58C1033.62,-282.88 977.3,-332.11 948.14,-357.6"/>
<polygon fill="#63b8ff" stroke="#63b8ff" points="1069.18,-256.45 1074.41,-247.23 1064.57,-251.18 1069.18,-256.45"/>
</a>
</g>
</g>
<!-- Node6 -->
<g id="Node000006" class="node">
<title>Node6</title>
<g id="a_Node000006"><a xlink:href="classAsyncFw_1_1AbstractSocket.html#a77c0a9ea7c5061c406673bbe8b18d60d" target="_top" xlink:title="Closes the network connection and unsubscribes from thread polling events.">
<polygon fill="white" stroke="#666666" points="993.75,-290 863,-290 863,-258 993.75,-258 993.75,-290"/>
<text xml:space="preserve" text-anchor="start" x="871" y="-276.5" font-family="Helvetica,sans-Serif" font-size="10.00">AsyncFw::AbstractSocket</text>
<text xml:space="preserve" text-anchor="middle" x="928.38" y="-264.5" font-family="Helvetica,sans-Serif" font-size="10.00">::close</text>
</a>
</g>
</g>
<!-- Node1&#45;&gt;Node6 -->
<g id="edge6_Node000001_Node000006" class="edge">
<title>Node1&#45;&gt;Node6</title>
<g id="a_edge6_Node000001_Node000006"><a xlink:title=" ">
<path fill="none" stroke="#63b8ff" d="M1021.77,-249.32C1011.52,-252.06 1001.07,-254.85 991.05,-257.53"/>
<polygon fill="#63b8ff" stroke="#63b8ff" points="1022.56,-252.74 1031.32,-246.77 1020.75,-245.97 1022.56,-252.74"/>
</a>
</g>
</g>
<!-- Node13 -->
<g id="Node000013" class="node">
<title>Node13</title>
<g id="a_Node000013"><a xlink:href="classAsyncFw_1_1AbstractSocket.html#a96c331ff22db7a34923c34f575075e6a" target="_top" xlink:title="Disconnects the socket from the remote host gracefully.">
<polygon fill="white" stroke="#666666" points="820.25,-240 689.5,-240 689.5,-208 820.25,-208 820.25,-240"/>
<text xml:space="preserve" text-anchor="start" x="697.5" y="-226.5" font-family="Helvetica,sans-Serif" font-size="10.00">AsyncFw::AbstractSocket</text>
<text xml:space="preserve" text-anchor="middle" x="754.88" y="-214.5" font-family="Helvetica,sans-Serif" font-size="10.00">::disconnect</text>
</a>
</g>
</g>
<!-- Node1&#45;&gt;Node13 -->
<g id="edge29_Node000001_Node000013" class="edge">
<title>Node1&#45;&gt;Node13</title>
<g id="a_edge29_Node000001_Node000013"><a xlink:title=" ">
<path fill="none" stroke="#63b8ff" d="M1018.1,-228.65C958.62,-227.6 876.81,-226.15 820.47,-225.15"/>
<polygon fill="#63b8ff" stroke="#63b8ff" points="1017.73,-232.15 1027.79,-228.82 1017.86,-225.15 1017.73,-232.15"/>
</a>
</g>
</g>
<!-- Node25 -->
<g id="Node000025" class="node">
<title>Node25</title>
<g id="a_Node000025"><a xlink:href="classAsyncFw_1_1AbstractSocket.html#a426c3b10de20344079571d6708f096ca" target="_top" xlink:title="Listen for incoming connections on address and port.">
<polygon fill="white" stroke="#666666" points="993.75,-184 863,-184 863,-152 993.75,-152 993.75,-184"/>
<text xml:space="preserve" text-anchor="start" x="871" y="-170.5" font-family="Helvetica,sans-Serif" font-size="10.00">AsyncFw::AbstractSocket</text>
<text xml:space="preserve" text-anchor="middle" x="928.38" y="-158.5" font-family="Helvetica,sans-Serif" font-size="10.00">::listen</text>
</a>
</g>
</g>
<!-- Node1&#45;&gt;Node25 -->
<g id="edge30_Node000001_Node000025" class="edge">
<title>Node1&#45;&gt;Node25</title>
<g id="a_edge30_Node000001_Node000025"><a xlink:title=" ">
<path fill="none" stroke="#63b8ff" d="M1039.71,-209.52C1018.05,-201.37 993.47,-192.12 973.01,-184.42"/>
<polygon fill="#63b8ff" stroke="#63b8ff" points="1038.4,-212.77 1048.99,-213.01 1040.86,-206.22 1038.4,-212.77"/>
</a>
</g>
</g>
<!-- Node27 -->
<g id="Node000027" class="node">
<title>Node27</title>
<g id="a_Node000027"><a xlink:href="classAsyncFw_1_1AbstractSocket.html#a0ffc2cb5dd293722a9336a528357f9c5" target="_top" xlink:title="Binds a raw native operating system socket file descriptor to this instance.">
<polygon fill="white" stroke="#666666" points="993.75,-134 863,-134 863,-102 993.75,-102 993.75,-134"/>
<text xml:space="preserve" text-anchor="start" x="871" y="-120.5" font-family="Helvetica,sans-Serif" font-size="10.00">AsyncFw::AbstractSocket</text>
<text xml:space="preserve" text-anchor="middle" x="928.38" y="-108.5" font-family="Helvetica,sans-Serif" font-size="10.00">::setDescriptor</text>
</a>
</g>
</g>
<!-- Node1&#45;&gt;Node27 -->
<g id="edge33_Node000001_Node000027" class="edge">
<title>Node1&#45;&gt;Node27</title>
<g id="a_edge33_Node000001_Node000027"><a xlink:title=" ">
<path fill="none" stroke="#63b8ff" d="M1070.91,-205.71C1051.66,-186.66 1022.83,-160.52 993.75,-143 988.51,-139.84 982.81,-136.95 977.03,-134.35"/>
<polygon fill="#63b8ff" stroke="#63b8ff" points="1068.2,-207.95 1077.73,-212.58 1073.16,-203.02 1068.2,-207.95"/>
</a>
</g>
</g>
<!-- Node3 -->
<g id="Node000003" class="node">
<title>Node3</title>
<g id="a_Node000003"><a xlink:href="classAsyncFw_1_1AbstractTlsSocket.html#a57ac6daff9926cf631abcd1e19073cc8" target="_top" xlink:title="Core internal event handler reacting to raw descriptor readiness signals.">
<polygon fill="white" stroke="#666666" points="646.75,-420 502.5,-420 502.5,-388 646.75,-388 646.75,-420"/>
<text xml:space="preserve" text-anchor="start" x="510.5" y="-406.5" font-family="Helvetica,sans-Serif" font-size="10.00">AsyncFw::AbstractTlsSocket</text>
<text xml:space="preserve" text-anchor="middle" x="574.62" y="-394.5" font-family="Helvetica,sans-Serif" font-size="10.00">::activateEvent</text>
</a>
</g>
</g>
<!-- Node2&#45;&gt;Node3 -->
<g id="edge2_Node000002_Node000003" class="edge">
<title>Node2&#45;&gt;Node3</title>
<g id="a_edge2_Node000002_Node000003"><a xlink:title=" ">
<path fill="none" stroke="#63b8ff" d="M859.6,-393.06C848.78,-395.47 837.64,-397.59 827,-399 766.75,-407 697.67,-407.78 647.19,-406.82"/>
<polygon fill="#63b8ff" stroke="#63b8ff" points="860.33,-396.49 869.27,-390.8 858.73,-389.67 860.33,-396.49"/>
</a>
</g>
</g>
<!-- Node5 -->
<g id="Node000005" class="node">
<title>Node5</title>
<g id="a_Node000005"><a xlink:href="classAsyncFw_1_1AbstractTlsSocket.html#ad26bb910e65bb758bfed6448e1af7186" target="_top" xlink:title="Intermediate signal hub executed immediately when a secure cryptographic tunnel is fully established.">
<polygon fill="white" stroke="#666666" points="827,-390 682.75,-390 682.75,-358 827,-358 827,-390"/>
<text xml:space="preserve" text-anchor="start" x="690.75" y="-376.5" font-family="Helvetica,sans-Serif" font-size="10.00">AsyncFw::AbstractTlsSocket</text>
<text xml:space="preserve" text-anchor="middle" x="754.88" y="-364.5" font-family="Helvetica,sans-Serif" font-size="10.00">::activateReady</text>
</a>
</g>
</g>
<!-- Node2&#45;&gt;Node5 -->
<g id="edge4_Node000002_Node000005" class="edge">
<title>Node2&#45;&gt;Node5</title>
<g id="a_edge4_Node000002_Node000005"><a xlink:title=" ">
<path fill="none" stroke="#63b8ff" d="M851.1,-374C843.22,-374 835.23,-374 827.4,-374"/>
<polygon fill="#63b8ff" stroke="#63b8ff" points="851.02,-377.5 861.02,-374 851.02,-370.5 851.02,-377.5"/>
</a>
</g>
</g>
<!-- Node4 -->
<g id="Node000004" class="node">
<title>Node4</title>
<g id="a_Node000004"><a xlink:href="classAsyncFw_1_1HttpSocket.html#ad51bb1bf5880c3037c7ad70231c0767d" target="_top" xlink:title="Core internal event handler reacting to raw descriptor readiness signals.">
<polygon fill="white" stroke="#666666" points="453.75,-395 341,-395 341,-363 453.75,-363 453.75,-395"/>
<text xml:space="preserve" text-anchor="start" x="349" y="-381.5" font-family="Helvetica,sans-Serif" font-size="10.00">AsyncFw::HttpSocket</text>
<text xml:space="preserve" text-anchor="middle" x="397.38" y="-369.5" font-family="Helvetica,sans-Serif" font-size="10.00">::activateEvent</text>
</a>
</g>
</g>
<!-- Node3&#45;&gt;Node4 -->
<g id="edge3_Node000003_Node000004" class="edge">
<title>Node3&#45;&gt;Node4</title>
<g id="a_edge3_Node000003_Node000004"><a xlink:title=" ">
<path fill="none" stroke="#63b8ff" d="M490.75,-392.18C478.33,-390.41 465.79,-388.62 454.12,-386.95"/>
<polygon fill="#63b8ff" stroke="#63b8ff" points="490.2,-395.63 500.59,-393.58 491.19,-388.7 490.2,-395.63"/>
</a>
</g>
</g>
<!-- Node5&#45;&gt;Node3 -->
<g id="edge5_Node000005_Node000003" class="edge">
<title>Node5&#45;&gt;Node3</title>
<g id="a_edge5_Node000005_Node000003"><a xlink:title=" ">
<path fill="none" stroke="#63b8ff" d="M671.13,-387.93C663.11,-389.28 655.02,-390.64 647.12,-391.97"/>
<polygon fill="#63b8ff" stroke="#63b8ff" points="671.63,-391.39 680.91,-386.28 670.47,-384.49 671.63,-391.39"/>
</a>
</g>
</g>
<!-- Node7 -->
<g id="Node000007" class="node">
<title>Node7</title>
<g id="a_Node000007"><a xlink:href="classAsyncFw_1_1AbstractTlsSocket.html#a46dbd8e4895445214a4f46ee46433d6c" target="_top" xlink:title="Immediately releases OpenSSL session pointers and forcefully closes the system&#45;level descriptor.">
<polygon fill="white" stroke="#666666" points="827,-340 682.75,-340 682.75,-308 827,-308 827,-340"/>
<text xml:space="preserve" text-anchor="start" x="690.75" y="-326.5" font-family="Helvetica,sans-Serif" font-size="10.00">AsyncFw::AbstractTlsSocket</text>
<text xml:space="preserve" text-anchor="middle" x="754.88" y="-314.5" font-family="Helvetica,sans-Serif" font-size="10.00">::close</text>
</a>
</g>
</g>
<!-- Node6&#45;&gt;Node7 -->
<g id="edge7_Node000006_Node000007" class="edge">
<title>Node6&#45;&gt;Node7</title>
<g id="a_edge7_Node000006_Node000007"><a xlink:title=" ">
<path fill="none" stroke="#63b8ff" d="M860.41,-293.52C844.55,-298.15 827.79,-303.03 812.45,-307.51"/>
<polygon fill="#63b8ff" stroke="#63b8ff" points="861.15,-296.95 869.77,-290.8 859.19,-290.23 861.15,-296.95"/>
</a>
</g>
</g>
<!-- Node10 -->
<g id="Node000010" class="node">
<title>Node10</title>
<g id="a_Node000010"><a xlink:href="classAsyncFw_1_1AbstractSocket.html#a73a200f0008dbf9f820bdb2b8a0054cf" target="_top" xlink:title="Schedules the socket for deferred asynchronous destruction.">
<polygon fill="white" stroke="#666666" points="820.25,-290 689.5,-290 689.5,-258 820.25,-258 820.25,-290"/>
<text xml:space="preserve" text-anchor="start" x="697.5" y="-276.5" font-family="Helvetica,sans-Serif" font-size="10.00">AsyncFw::AbstractSocket</text>
<text xml:space="preserve" text-anchor="middle" x="754.88" y="-264.5" font-family="Helvetica,sans-Serif" font-size="10.00">::destroy</text>
</a>
</g>
</g>
<!-- Node6&#45;&gt;Node10 -->
<g id="edge12_Node000006_Node000010" class="edge">
<title>Node6&#45;&gt;Node10</title>
<g id="a_edge12_Node000006_Node000010"><a xlink:title=" ">
<path fill="none" stroke="#63b8ff" d="M851.12,-274C840.9,-274 830.51,-274 820.52,-274"/>
<polygon fill="#63b8ff" stroke="#63b8ff" points="851.02,-277.5 861.02,-274 851.02,-270.5 851.02,-277.5"/>
</a>
</g>
</g>
<!-- Node6&#45;&gt;Node13 -->
<g id="edge16_Node000006_Node000013" class="edge">
<title>Node6&#45;&gt;Node13</title>
<g id="a_edge16_Node000006_Node000013"><a xlink:title=" ">
<path fill="none" stroke="#63b8ff" d="M860.41,-254.48C844.55,-249.85 827.79,-244.97 812.45,-240.49"/>
<polygon fill="#63b8ff" stroke="#63b8ff" points="859.19,-257.77 869.77,-257.2 861.15,-251.05 859.19,-257.77"/>
</a>
</g>
</g>
<!-- Node7&#45;&gt;Node3 -->
<g id="edge8_Node000007_Node000003" class="edge">
<title>Node7&#45;&gt;Node3</title>
<g id="a_edge8_Node000007_Node000003"><a xlink:title=" ">
<path fill="none" stroke="#63b8ff" d="M690.03,-345.15C687.54,-346.38 685.1,-347.66 682.75,-349 664.64,-359.28 664.86,-368.72 646.75,-379 641.17,-382.17 635.12,-385.04 628.99,-387.61"/>
<polygon fill="#63b8ff" stroke="#63b8ff" points="691.47,-348.34 699.13,-341.02 688.58,-341.97 691.47,-348.34"/>
</a>
</g>
</g>
<!-- Node8 -->
<g id="Node000008" class="node">
<title>Node8</title>
<g id="a_Node000008"><a xlink:href="classAsyncFw_1_1HttpSocket.html#a96932e5f6b5f84c4f204b0e6e4ef8472" target="_top" xlink:title="Immediately releases OpenSSL session pointers and forcefully closes the system&#45;level descriptor.">
<polygon fill="white" stroke="#666666" points="631,-370 518.25,-370 518.25,-338 631,-338 631,-370"/>
<text xml:space="preserve" text-anchor="start" x="526.25" y="-356.5" font-family="Helvetica,sans-Serif" font-size="10.00">AsyncFw::HttpSocket</text>
<text xml:space="preserve" text-anchor="middle" x="574.62" y="-344.5" font-family="Helvetica,sans-Serif" font-size="10.00">::close</text>
</a>
</g>
</g>
<!-- Node7&#45;&gt;Node8 -->
<g id="edge9_Node000007_Node000008" class="edge">
<title>Node7&#45;&gt;Node8</title>
<g id="a_edge9_Node000007_Node000008"><a xlink:title=" ">
<path fill="none" stroke="#63b8ff" d="M671.18,-337.92C657.73,-340.18 644.08,-342.48 631.48,-344.6"/>
<polygon fill="#63b8ff" stroke="#63b8ff" points="671.63,-341.39 680.91,-336.28 670.47,-334.49 671.63,-341.39"/>
</a>
</g>
</g>
<!-- Node9 -->
<g id="Node000009" class="node">
<title>Node9</title>
<g id="a_Node000009"><a xlink:href="classAsyncFw_1_1DataArrayAbstractTcp_1_1Thread.html#ab6df6de1f9828a772e5968477ce5dffa" target="_top" xlink:title="Performs cleanup routines and safely removes a socket from the thread loop.">
<polygon fill="white" stroke="#666666" points="646.75,-320 502.5,-320 502.5,-288 646.75,-288 646.75,-320"/>
<text xml:space="preserve" text-anchor="start" x="510.5" y="-306.5" font-family="Helvetica,sans-Serif" font-size="10.00">AsyncFw::DataArrayAbstract</text>
<text xml:space="preserve" text-anchor="middle" x="574.62" y="-294.5" font-family="Helvetica,sans-Serif" font-size="10.00">Tcp::Thread::destroySocket</text>
</a>
</g>
</g>
<!-- Node7&#45;&gt;Node9 -->
<g id="edge11_Node000007_Node000009" class="edge">
<title>Node7&#45;&gt;Node9</title>
<g id="a_edge11_Node000007_Node000009"><a xlink:title=" ">
<path fill="none" stroke="#63b8ff" d="M671.13,-314.72C663.11,-313.82 655.02,-312.91 647.12,-312.02"/>
<polygon fill="#63b8ff" stroke="#63b8ff" points="670.57,-318.17 680.9,-315.81 671.35,-311.22 670.57,-318.17"/>
</a>
</g>
</g>
<!-- Node8&#45;&gt;Node4 -->
<g id="edge10_Node000008_Node000004" class="edge">
<title>Node8&#45;&gt;Node4</title>
<g id="a_edge10_Node000008_Node000004"><a xlink:title=" ">
<path fill="none" stroke="#63b8ff" d="M506.92,-363.52C489.48,-366 470.86,-368.66 454.07,-371.06"/>
<polygon fill="#63b8ff" stroke="#63b8ff" points="507.27,-367 516.68,-362.12 506.28,-360.07 507.27,-367"/>
</a>
</g>
</g>
<!-- Node10&#45;&gt;Node9 -->
<g id="edge15_Node000010_Node000009" class="edge">
<title>Node10&#45;&gt;Node9</title>
<g id="a_edge15_Node000010_Node000009"><a xlink:title=" ">
<path fill="none" stroke="#63b8ff" d="M677.68,-286.82C667.52,-288.53 657.13,-290.28 647.06,-291.98"/>
<polygon fill="#63b8ff" stroke="#63b8ff" points="678.25,-290.28 687.53,-285.17 677.08,-283.38 678.25,-290.28"/>
</a>
</g>
</g>
<!-- Node11 -->
<g id="Node000011" class="node">
<title>Node11</title>
<g id="a_Node000011"><a xlink:href="classAsyncFw_1_1HttpSocket.html#a8268467d3581a4d393e9ccd288de32ff" target="_top" xlink:title="Schedules the socket for deferred asynchronous destruction.">
<polygon fill="white" stroke="#666666" points="631,-270 518.25,-270 518.25,-238 631,-238 631,-270"/>
<text xml:space="preserve" text-anchor="start" x="526.25" y="-256.5" font-family="Helvetica,sans-Serif" font-size="10.00">AsyncFw::HttpSocket</text>
<text xml:space="preserve" text-anchor="middle" x="574.62" y="-244.5" font-family="Helvetica,sans-Serif" font-size="10.00">::destroy</text>
</a>
</g>
</g>
<!-- Node10&#45;&gt;Node11 -->
<g id="edge13_Node000010_Node000011" class="edge">
<title>Node10&#45;&gt;Node11</title>
<g id="a_edge13_Node000010_Node000011"><a xlink:title=" ">
<path fill="none" stroke="#63b8ff" d="M677.78,-265.46C662.18,-263.71 646.04,-261.9 631.32,-260.25"/>
<polygon fill="#63b8ff" stroke="#63b8ff" points="677.19,-268.92 687.51,-266.55 677.97,-261.96 677.19,-268.92"/>
</a>
</g>
</g>
<!-- Node12 -->
<g id="Node000012" class="node">
<title>Node12</title>
<g id="a_Node000012"><a xlink:href="classAsyncFw_1_1HttpServer_1_1TcpSocket.html#a41557b69e30e25b97cbdda210afb7657" target="_top" xlink:title="Constructs a new TcpSocket associated with the parent server.">
<polygon fill="white" stroke="#666666" points="457.12,-270 337.62,-270 337.62,-238 457.12,-238 457.12,-270"/>
<text xml:space="preserve" text-anchor="start" x="345.62" y="-256.5" font-family="Helvetica,sans-Serif" font-size="10.00">AsyncFw::HttpServer</text>
<text xml:space="preserve" text-anchor="middle" x="397.38" y="-244.5" font-family="Helvetica,sans-Serif" font-size="10.00">::TcpSocket::TcpSocket</text>
</a>
</g>
</g>
<!-- Node11&#45;&gt;Node12 -->
<g id="edge14_Node000011_Node000012" class="edge">
<title>Node11&#45;&gt;Node12</title>
<g id="a_edge14_Node000011_Node000012"><a xlink:title=" ">
<path fill="none" stroke="#63b8ff" d="M507.06,-254C490.73,-254 473.35,-254 457.4,-254"/>
<polygon fill="#63b8ff" stroke="#63b8ff" points="506.66,-257.5 516.66,-254 506.66,-250.5 506.66,-257.5"/>
</a>
</g>
</g>
<!-- Node14 -->
<g id="Node000014" class="node">
<title>Node14</title>
<g id="a_Node000014"><a xlink:href="classAsyncFw_1_1AbstractTlsSocket.html#af52f94f709ab74eace61da79cbd8af7d" target="_top" xlink:title="Shuts down the active TLS session gracefully via SSL_shutdown() before terminating the network pipe.">
<polygon fill="white" stroke="#666666" points="646.75,-220 502.5,-220 502.5,-188 646.75,-188 646.75,-220"/>
<text xml:space="preserve" text-anchor="start" x="510.5" y="-206.5" font-family="Helvetica,sans-Serif" font-size="10.00">AsyncFw::AbstractTlsSocket</text>
<text xml:space="preserve" text-anchor="middle" x="574.62" y="-194.5" font-family="Helvetica,sans-Serif" font-size="10.00">::disconnect</text>
</a>
</g>
</g>
<!-- Node13&#45;&gt;Node14 -->
<g id="edge17_Node000013_Node000014" class="edge">
<title>Node13&#45;&gt;Node14</title>
<g id="a_edge17_Node000013_Node000014"><a xlink:title=" ">
<path fill="none" stroke="#63b8ff" d="M677.68,-215.45C667.52,-214.31 657.13,-213.15 647.06,-212.02"/>
<polygon fill="#63b8ff" stroke="#63b8ff" points="677.19,-218.92 687.51,-216.55 677.97,-211.96 677.19,-218.92"/>
</a>
</g>
</g>
<!-- Node15 -->
<g id="Node000015" class="node">
<title>Node15</title>
<g id="a_Node000015"><a xlink:href="classAsyncFw_1_1DataArraySocket.html#a9942cbf100e7898ba95c8fb92e059ae8" target="_top" xlink:title="Disconnects the socket from the remote peer.">
<polygon fill="white" stroke="#666666" points="466.5,-220 328.25,-220 328.25,-188 466.5,-188 466.5,-220"/>
<text xml:space="preserve" text-anchor="start" x="336.25" y="-206.5" font-family="Helvetica,sans-Serif" font-size="10.00">AsyncFw::DataArraySocket</text>
<text xml:space="preserve" text-anchor="middle" x="397.38" y="-194.5" font-family="Helvetica,sans-Serif" font-size="10.00">::disconnect</text>
</a>
</g>
</g>
<!-- Node14&#45;&gt;Node15 -->
<g id="edge18_Node000014_Node000015" class="edge">
<title>Node14&#45;&gt;Node15</title>
<g id="a_edge18_Node000014_Node000015"><a xlink:title=" ">
<path fill="none" stroke="#63b8ff" d="M490.81,-204C482.79,-204 474.71,-204 466.85,-204"/>
<polygon fill="#63b8ff" stroke="#63b8ff" points="490.58,-207.5 500.58,-204 490.58,-200.5 490.58,-207.5"/>
</a>
</g>
</g>
<!-- Node18 -->
<g id="Node000018" class="node">
<title>Node18</title>
<g id="a_Node000018"><a xlink:href="classAsyncFw_1_1HttpSocket.html#a33dadd18584b3b2b76a02dffa0a831fb" target="_top" xlink:title="Shuts down the active TLS session gracefully via SSL_shutdown() before terminating the network pipe.">
<polygon fill="white" stroke="#666666" points="453.75,-126 341,-126 341,-94 453.75,-94 453.75,-126"/>
<text xml:space="preserve" text-anchor="start" x="349" y="-112.5" font-family="Helvetica,sans-Serif" font-size="10.00">AsyncFw::HttpSocket</text>
<text xml:space="preserve" text-anchor="middle" x="397.38" y="-100.5" font-family="Helvetica,sans-Serif" font-size="10.00">::disconnect</text>
</a>
</g>
</g>
<!-- Node14&#45;&gt;Node18 -->
<g id="edge21_Node000014_Node000018" class="edge">
<title>Node14&#45;&gt;Node18</title>
<g id="a_edge21_Node000014_Node000018"><a xlink:title=" ">
<path fill="none" stroke="#63b8ff" d="M530.37,-182.45C521.14,-177.76 511.47,-172.77 502.5,-168 476.73,-154.31 447.76,-138.11 426.94,-126.31"/>
<polygon fill="#63b8ff" stroke="#63b8ff" points="528.7,-185.53 539.2,-186.92 531.86,-179.28 528.7,-185.53"/>
</a>
</g>
</g>
<!-- Node16 -->
<g id="Node000016" class="node">
<title>Node16</title>
<g id="a_Node000016"><a xlink:href="classAsyncFw_1_1DataArraySocket.html#a1a1f3404abcb93af27de1d7bc0a958b1" target="_top" xlink:title="Called when there is data to read.">
<polygon fill="white" stroke="#666666" points="292.25,-270 154,-270 154,-238 292.25,-238 292.25,-270"/>
<text xml:space="preserve" text-anchor="start" x="162" y="-256.5" font-family="Helvetica,sans-Serif" font-size="10.00">AsyncFw::DataArraySocket</text>
<text xml:space="preserve" text-anchor="middle" x="223.12" y="-244.5" font-family="Helvetica,sans-Serif" font-size="10.00">::readEvent</text>
</a>
</g>
</g>
<!-- Node15&#45;&gt;Node16 -->
<g id="edge19_Node000015_Node000016" class="edge">
<title>Node15&#45;&gt;Node16</title>
<g id="a_edge19_Node000015_Node000016"><a xlink:title=" ">
<path fill="none" stroke="#63b8ff" d="M329.12,-223.52C313.19,-228.15 296.36,-233.03 280.95,-237.51"/>
<polygon fill="#63b8ff" stroke="#63b8ff" points="329.89,-226.94 338.52,-220.79 327.94,-220.22 329.89,-226.94"/>
</a>
</g>
</g>
<!-- Node17 -->
<g id="Node000017" class="node">
<title>Node17</title>
<g id="a_Node000017"><a xlink:href="classAsyncFw_1_1DataArraySocket.html#ac7366a53ca9c5c43bc3c6bb88b539d53" target="_top" xlink:title="Asynchronously transmits a data array through the socket.">
<polygon fill="white" stroke="#666666" points="292.25,-220 154,-220 154,-188 292.25,-188 292.25,-220"/>
<text xml:space="preserve" text-anchor="start" x="162" y="-206.5" font-family="Helvetica,sans-Serif" font-size="10.00">AsyncFw::DataArraySocket</text>
<text xml:space="preserve" text-anchor="middle" x="223.12" y="-194.5" font-family="Helvetica,sans-Serif" font-size="10.00">::transmit</text>
</a>
</g>
</g>
<!-- Node15&#45;&gt;Node17 -->
<g id="edge20_Node000015_Node000017" class="edge">
<title>Node15&#45;&gt;Node17</title>
<g id="a_edge20_Node000015_Node000017"><a xlink:title=" ">
<path fill="none" stroke="#63b8ff" d="M316.33,-204C308.45,-204 300.5,-204 292.74,-204"/>
<polygon fill="#63b8ff" stroke="#63b8ff" points="316.29,-207.5 326.29,-204 316.29,-200.5 316.29,-207.5"/>
</a>
</g>
</g>
<!-- Node19 -->
<g id="Node000019" class="node">
<title>Node19</title>
<g id="a_Node000019"><a xlink:href="classAsyncFw_1_1HttpServer.html#ad7dae50cc3787112980fa7075a60f811" target="_top" xlink:title="Disconnects a specific client socket and clears it from the internally managed pool.">
<polygon fill="white" stroke="#666666" points="279.5,-170 166.75,-170 166.75,-138 279.5,-138 279.5,-170"/>
<text xml:space="preserve" text-anchor="start" x="174.75" y="-156.5" font-family="Helvetica,sans-Serif" font-size="10.00">AsyncFw::HttpServer</text>
<text xml:space="preserve" text-anchor="middle" x="223.12" y="-144.5" font-family="Helvetica,sans-Serif" font-size="10.00">::disconnectFromHost</text>
</a>
</g>
</g>
<!-- Node18&#45;&gt;Node19 -->
<g id="edge22_Node000018_Node000019" class="edge">
<title>Node18&#45;&gt;Node19</title>
<g id="a_edge22_Node000018_Node000019"><a xlink:title=" ">
<path fill="none" stroke="#63b8ff" d="M330.17,-126.91C313.53,-131.16 295.83,-135.68 279.77,-139.79"/>
<polygon fill="#63b8ff" stroke="#63b8ff" points="330.64,-130.4 339.46,-124.54 328.9,-123.62 330.64,-130.4"/>
</a>
</g>
</g>
<!-- Node22 -->
<g id="Node000022" class="node">
<title>Node22</title>
<g id="a_Node000022"><a xlink:href="classAsyncFw_1_1HttpServer_1_1TcpSocket.html#abb44001861ba7b24633b54ae90c2896c" target="_top" xlink:title="Triggered when new raw data is available in the socket for reading. &#160;&#160;Overrides the base behavior to ...">
<polygon fill="white" stroke="#666666" points="118,-101 0,-101 0,-69 118,-69 118,-101"/>
<text xml:space="preserve" text-anchor="start" x="8" y="-87.5" font-family="Helvetica,sans-Serif" font-size="10.00">AsyncFw::HttpServer</text>
<text xml:space="preserve" text-anchor="middle" x="59" y="-75.5" font-family="Helvetica,sans-Serif" font-size="10.00">::TcpSocket::readEvent</text>
</a>
</g>
</g>
<!-- Node18&#45;&gt;Node22 -->
<g id="edge25_Node000018_Node000022" class="edge">
<title>Node18&#45;&gt;Node22</title>
<g id="a_edge25_Node000018_Node000022"><a xlink:title=" ">
<path fill="none" stroke="#63b8ff" d="M329.67,-105.04C268.02,-100.46 177.32,-93.72 118.45,-89.34"/>
<polygon fill="#63b8ff" stroke="#63b8ff" points="329.09,-108.51 339.32,-105.76 329.61,-101.53 329.09,-108.51"/>
</a>
</g>
</g>
<!-- Node23 -->
<g id="Node000023" class="node">
<title>Node23</title>
<g id="a_Node000023"><a xlink:href="classAsyncFw_1_1HttpSocket.html#a7163448458d68f433dbdb214a6175be3" target="_top" xlink:title="Called when there is data to read.">
<polygon fill="white" stroke="#666666" points="279.5,-82 166.75,-82 166.75,-50 279.5,-50 279.5,-82"/>
<text xml:space="preserve" text-anchor="start" x="174.75" y="-68.5" font-family="Helvetica,sans-Serif" font-size="10.00">AsyncFw::HttpSocket</text>
<text xml:space="preserve" text-anchor="middle" x="223.12" y="-56.5" font-family="Helvetica,sans-Serif" font-size="10.00">::readEvent</text>
</a>
</g>
</g>
<!-- Node18&#45;&gt;Node23 -->
<g id="edge26_Node000018_Node000023" class="edge">
<title>Node18&#45;&gt;Node23</title>
<g id="a_edge26_Node000018_Node000023"><a xlink:title=" ">
<path fill="none" stroke="#63b8ff" d="M330.17,-93.09C313.53,-88.84 295.83,-84.32 279.77,-80.21"/>
<polygon fill="#63b8ff" stroke="#63b8ff" points="328.9,-96.38 339.46,-95.46 330.64,-89.6 328.9,-96.38"/>
</a>
</g>
</g>
<!-- Node24 -->
<g id="Node000024" class="node">
<title>Node24</title>
<g id="a_Node000024"><a xlink:href="classAsyncFw_1_1HttpSocket.html#ac276bcd3a5e86289eb37ea7fd062559b" target="_top" xlink:title="Called when writing to the socket is possible.">
<polygon fill="white" stroke="#666666" points="279.5,-32 166.75,-32 166.75,0 279.5,0 279.5,-32"/>
<text xml:space="preserve" text-anchor="start" x="174.75" y="-18.5" font-family="Helvetica,sans-Serif" font-size="10.00">AsyncFw::HttpSocket</text>
<text xml:space="preserve" text-anchor="middle" x="223.12" y="-6.5" font-family="Helvetica,sans-Serif" font-size="10.00">::writeEvent</text>
</a>
</g>
</g>
<!-- Node18&#45;&gt;Node24 -->
<g id="edge28_Node000018_Node000024" class="edge">
<title>Node18&#45;&gt;Node24</title>
<g id="a_edge28_Node000018_Node000024"><a xlink:title=" ">
<path fill="none" stroke="#63b8ff" d="M365.66,-86.88C345.52,-72.43 318.19,-54.13 292.25,-41 286.18,-37.93 279.64,-35.04 273.1,-32.39"/>
<polygon fill="#63b8ff" stroke="#63b8ff" points="363.57,-89.69 373.72,-92.74 367.69,-84.03 363.57,-89.69"/>
</a>
</g>
</g>
<!-- Node20 -->
<g id="Node000020" class="node">
<title>Node20</title>
<g id="a_Node000020"><a xlink:href="classAsyncFw_1_1HttpServer.html#ad3761260dfd18899afc22c6f4bc0c556" target="_top" xlink:title="Forcefully terminates all active socket connections currently retained by the server.">
<polygon fill="white" stroke="#666666" points="114.25,-210 3.75,-210 3.75,-178 114.25,-178 114.25,-210"/>
<text xml:space="preserve" text-anchor="start" x="11.75" y="-196.5" font-family="Helvetica,sans-Serif" font-size="10.00">AsyncFw::HttpServer</text>
<text xml:space="preserve" text-anchor="middle" x="59" y="-184.5" font-family="Helvetica,sans-Serif" font-size="10.00">::clearConnections</text>
</a>
</g>
</g>
<!-- Node19&#45;&gt;Node20 -->
<g id="edge23_Node000019_Node000020" class="edge">
<title>Node19&#45;&gt;Node20</title>
<g id="a_edge23_Node000019_Node000020"><a xlink:title=" ">
<path fill="none" stroke="#63b8ff" d="M155.54,-170.43C141.9,-173.79 127.69,-177.3 114.53,-180.55"/>
<polygon fill="#63b8ff" stroke="#63b8ff" points="155.99,-173.92 164.86,-168.13 154.31,-167.13 155.99,-173.92"/>
</a>
</g>
</g>
<!-- Node21 -->
<g id="Node000021" class="node">
<title>Node21</title>
<g id="a_Node000021"><a xlink:href="classAsyncFw_1_1HttpServer.html#ab3eeb1643d4482345afcd9f971c020ac" target="_top" xlink:title="Explicitly severs connections with active sockets holding custom user metadata matching data.">
<polygon fill="white" stroke="#666666" points="114.25,-160 3.75,-160 3.75,-128 114.25,-128 114.25,-160"/>
<text xml:space="preserve" text-anchor="start" x="11.75" y="-146.5" font-family="Helvetica,sans-Serif" font-size="10.00">AsyncFw::HttpServer</text>
<text xml:space="preserve" text-anchor="middle" x="59" y="-134.5" font-family="Helvetica,sans-Serif" font-size="10.00">::clearConnections</text>
</a>
</g>
</g>
<!-- Node19&#45;&gt;Node21 -->
<g id="edge24_Node000019_Node000021" class="edge">
<title>Node19&#45;&gt;Node21</title>
<g id="a_edge24_Node000019_Node000021"><a xlink:title=" ">
<path fill="none" stroke="#63b8ff" d="M155.14,-149.87C141.62,-149.03 127.56,-148.17 114.53,-147.36"/>
<polygon fill="#63b8ff" stroke="#63b8ff" points="154.62,-153.34 164.82,-150.47 155.05,-146.36 154.62,-153.34"/>
</a>
</g>
</g>
<!-- Node23&#45;&gt;Node22 -->
<g id="edge27_Node000023_Node000022" class="edge">
<title>Node23&#45;&gt;Node22</title>
<g id="a_edge27_Node000023_Node000022"><a xlink:title=" ">
<path fill="none" stroke="#63b8ff" d="M155.25,-73.84C143.02,-75.27 130.34,-76.76 118.38,-78.16"/>
<polygon fill="#63b8ff" stroke="#63b8ff" points="155.3,-77.36 164.83,-72.71 154.49,-70.4 155.3,-77.36"/>
</a>
</g>
</g>
<!-- Node25&#45;&gt;Node25 -->
<g id="edge31_Node000025_Node000025" class="edge">
<title>Node25&#45;&gt;Node25</title>
<g id="a_edge31_Node000025_Node000025"><a xlink:title=" ">
<path fill="none" stroke="#63b8ff" d="M956.16,-195.71C951.53,-199.48 942.27,-202 928.38,-202 902.97,-202 893.05,-193.58 898.61,-184.44"/>
<polygon fill="#63b8ff" stroke="#63b8ff" points="959.6,-196.39 957.88,-185.93 952.7,-195.18 959.6,-196.39"/>
</a>
</g>
</g>
<!-- Node26 -->
<g id="Node000026" class="node">
<title>Node26</title>
<g id="a_Node000026"><a xlink:href="classAsyncFw_1_1HttpServer.html#aa1ce738d4f20186506c1c4f4290a8a3d" target="_top" xlink:title="Binds to all available interfaces (0.0.0.0) and starts listening for incoming traffic on a specific T...">
<polygon fill="white" stroke="#666666" points="629.88,-159 519.38,-159 519.38,-127 629.88,-127 629.88,-159"/>
<text xml:space="preserve" text-anchor="start" x="527.38" y="-145.5" font-family="Helvetica,sans-Serif" font-size="10.00">AsyncFw::HttpServer</text>
<text xml:space="preserve" text-anchor="middle" x="574.62" y="-133.5" font-family="Helvetica,sans-Serif" font-size="10.00">::listen</text>
</a>
</g>
</g>
<!-- Node25&#45;&gt;Node26 -->
<g id="edge32_Node000025_Node000026" class="edge">
<title>Node25&#45;&gt;Node26</title>
<g id="a_edge32_Node000025_Node000026"><a xlink:title=" ">
<path fill="none" stroke="#63b8ff" d="M851.6,-162.61C784.96,-157.88 689.6,-151.1 630.21,-146.88"/>
<polygon fill="#63b8ff" stroke="#63b8ff" points="851.13,-166.09 861.35,-163.31 851.62,-159.11 851.13,-166.09"/>
</a>
</g>
</g>
<!-- Node28 -->
<g id="Node000028" class="node">
<title>Node28</title>
<g id="a_Node000028"><a xlink:href="classAsyncFw_1_1AbstractTlsSocket.html#a89721fd68ed3de138aa6167dd98ec5fa" target="_top" xlink:title="Binds a raw native operating system socket descriptor to this managed context.">
<polygon fill="white" stroke="#666666" points="827,-137 682.75,-137 682.75,-105 827,-105 827,-137"/>
<text xml:space="preserve" text-anchor="start" x="690.75" y="-123.5" font-family="Helvetica,sans-Serif" font-size="10.00">AsyncFw::AbstractTlsSocket</text>
<text xml:space="preserve" text-anchor="middle" x="754.88" y="-111.5" font-family="Helvetica,sans-Serif" font-size="10.00">::setDescriptor</text>
</a>
</g>
</g>
<!-- Node27&#45;&gt;Node28 -->
<g id="edge34_Node000027_Node000028" class="edge">
<title>Node27&#45;&gt;Node28</title>
<g id="a_edge34_Node000027_Node000028"><a xlink:title=" ">
<path fill="none" stroke="#63b8ff" d="M851.1,-119.33C843.22,-119.47 835.23,-119.61 827.4,-119.75"/>
<polygon fill="#63b8ff" stroke="#63b8ff" points="851.09,-122.84 861.02,-119.16 850.97,-115.84 851.09,-122.84"/>
</a>
</g>
</g>
<!-- Node28&#45;&gt;Node26 -->
<g id="edge35_Node000028_Node000026" class="edge">
<title>Node28&#45;&gt;Node26</title>
<g id="a_edge35_Node000028_Node000026"><a xlink:title=" ">
<path fill="none" stroke="#63b8ff" d="M671.33,-131.19C657.44,-132.9 643.33,-134.64 630.37,-136.24"/>
<polygon fill="#63b8ff" stroke="#63b8ff" points="671.4,-134.71 680.9,-130.01 670.55,-127.76 671.4,-134.71"/>
</a>
</g>
</g>
</g>
</svg>
