<?xml version="1.0" encoding="UTF-8" standalone="no"?>
<!DOCTYPE svg PUBLIC "-//W3C//DTD SVG 1.1//EN"
 "http://www.w3.org/Graphics/SVG/1.1/DTD/svg11.dtd">
<!-- Generated by graphviz version 12.2.1 (20241206.2353)
 -->
<!-- Title: AsyncFw::FunctionConnectorProtected&lt; F &gt; Pages: 1 -->
<svg width="561pt" height="629pt"
 viewBox="0.00 0.00 561.25 629.07" xmlns="http://www.w3.org/2000/svg" xmlns:xlink="http://www.w3.org/1999/xlink">
<g id="graph0" class="graph" transform="scale(1 1) rotate(0) translate(4 625.07)">
<title>AsyncFw::FunctionConnectorProtected&lt; F &gt;</title>
<!-- Node1 -->
<g id="Node000001" class="node">
<title>Node1</title>
<g id="a_Node000001"><a xlink:title="Защищенный коннетор, отправитель может быть только один.">
<polygon fill="#999999" stroke="#666666" points="145.75,-309.8 0,-309.8 0,-277.8 145.75,-277.8 145.75,-309.8"/>
<text text-anchor="start" x="8" y="-296.3" font-family="Helvetica,sans-Serif" font-size="10.00">AsyncFw::FunctionConnector</text>
<text text-anchor="middle" x="72.88" y="-284.3" font-family="Helvetica,sans-Serif" font-size="10.00">Protected&lt; F &gt;</text>
</a>
</g>
</g>
<!-- Node2 -->
<g id="Node000002" class="node">
<title>Node2</title>
<g id="a_Node000002"><a xlink:href="classAsyncFw_1_1FunctionConnectorProtected.html" target="_top" xlink:title=" ">
<polygon fill="white" stroke="#666666" points="531.5,-608.8 356.5,-608.8 356.5,-576.8 531.5,-576.8 531.5,-608.8"/>
<text text-anchor="start" x="364.5" y="-595.3" font-family="Helvetica,sans-Serif" font-size="10.00">AsyncFw::FunctionConnector</text>
<text text-anchor="middle" x="444" y="-583.3" font-family="Helvetica,sans-Serif" font-size="10.00">Protected&lt; AsyncFw::AddressInfo &gt;</text>
</a>
</g>
</g>
<!-- Node1&#45;&gt;Node2 -->
<g id="edge1_Node000001_Node000002" class="edge">
<title>Node1&#45;&gt;Node2</title>
<g id="a_edge1_Node000001_Node000002"><a xlink:title=" ">
<path fill="none" stroke="orange" stroke-dasharray="5,2" d="M73.82,-321.45C75.35,-377.63 87.53,-504.91 163.75,-565.8 217.12,-608.44 295.83,-612.46 356.09,-607.38"/>
<polygon fill="orange" stroke="orange" points="77.32,-321.44 73.65,-311.5 70.32,-321.56 77.32,-321.44"/>
</a>
</g>
<text text-anchor="middle" x="240.25" y="-611.57" font-family="Helvetica,sans-Serif" font-size="10.00" fill="grey"> &lt; AsyncFw::AddressInfo &gt;</text>
</g>
<!-- Node3 -->
<g id="Node000003" class="node">
<title>Node3</title>
<g id="a_Node000003"><a xlink:href="classAsyncFw_1_1FunctionConnectorProtected.html" target="_top" xlink:title=" ">
<polygon fill="white" stroke="#666666" points="553.25,-558.8 334.75,-558.8 334.75,-526.8 553.25,-526.8 553.25,-558.8"/>
<text text-anchor="start" x="342.75" y="-545.3" font-family="Helvetica,sans-Serif" font-size="10.00">AsyncFw::FunctionConnector</text>
<text text-anchor="middle" x="444" y="-533.3" font-family="Helvetica,sans-Serif" font-size="10.00">Protected&lt; AsyncFw::DataArrayAbstractTcp &gt;</text>
</a>
</g>
</g>
<!-- Node1&#45;&gt;Node3 -->
<g id="edge2_Node000001_Node000003" class="edge">
<title>Node1&#45;&gt;Node3</title>
<g id="a_edge2_Node000001_Node000003"><a xlink:title=" ">
<path fill="none" stroke="orange" stroke-dasharray="5,2" d="M77.01,-321.48C83.82,-367.61 104.47,-459.58 163.75,-504.8 190.25,-525.02 267.64,-534.48 334.25,-538.91"/>
<polygon fill="orange" stroke="orange" points="80.51,-321.22 75.7,-311.78 73.57,-322.16 80.51,-321.22"/>
</a>
</g>
<text text-anchor="start" x="170.5" y="-551.95" font-family="Helvetica,sans-Serif" font-size="10.00" fill="grey"> &lt; AsyncFw::DataArrayAbstract</text>
<text text-anchor="middle" x="240.25" y="-539.95" font-family="Helvetica,sans-Serif" font-size="10.00" fill="grey">Tcp &gt;</text>
</g>
<!-- Node4 -->
<g id="Node000004" class="node">
<title>Node4</title>
<g id="a_Node000004"><a xlink:href="classAsyncFw_1_1FunctionConnectorProtected.html" target="_top" xlink:title=" ">
<polygon fill="white" stroke="#666666" points="542.75,-508.8 345.25,-508.8 345.25,-476.8 542.75,-476.8 542.75,-508.8"/>
<text text-anchor="start" x="353.25" y="-495.3" font-family="Helvetica,sans-Serif" font-size="10.00">AsyncFw::FunctionConnector</text>
<text text-anchor="middle" x="444" y="-483.3" font-family="Helvetica,sans-Serif" font-size="10.00">Protected&lt; AsyncFw::DataArraySocket &gt;</text>
</a>
</g>
</g>
<!-- Node1&#45;&gt;Node4 -->
<g id="edge3_Node000001_Node000004" class="edge">
<title>Node1&#45;&gt;Node4</title>
<g id="a_edge3_Node000001_Node000004"><a xlink:title=" ">
<path fill="none" stroke="orange" stroke-dasharray="5,2" d="M83.2,-320.78C96.01,-353.61 122.29,-408.21 163.75,-436.8 216.56,-473.23 287.57,-487.11 344.77,-491.95"/>
<polygon fill="orange" stroke="orange" points="86.54,-319.71 79.76,-311.57 79.98,-322.16 86.54,-319.71"/>
</a>
</g>
<text text-anchor="middle" x="240.25" y="-491.1" font-family="Helvetica,sans-Serif" font-size="10.00" fill="grey"> &lt; AsyncFw::DataArraySocket &gt;</text>
</g>
<!-- Node5 -->
<g id="Node000005" class="node">
<title>Node5</title>
<g id="a_Node000005"><a xlink:href="classAsyncFw_1_1FunctionConnectorProtected.html" target="_top" xlink:title=" ">
<polygon fill="white" stroke="#666666" points="530.38,-458.8 357.62,-458.8 357.62,-414.8 530.38,-414.8 530.38,-458.8"/>
<text text-anchor="start" x="365.62" y="-445.3" font-family="Helvetica,sans-Serif" font-size="10.00">AsyncFw::FunctionConnector</text>
<text text-anchor="start" x="365.62" y="-433.3" font-family="Helvetica,sans-Serif" font-size="10.00">Protected&lt; AsyncFw::DataArrayTcp</text>
<text text-anchor="middle" x="444" y="-421.3" font-family="Helvetica,sans-Serif" font-size="10.00">Client &gt;</text>
</a>
</g>
</g>
<!-- Node1&#45;&gt;Node5 -->
<g id="edge4_Node000001_Node000005" class="edge">
<title>Node1&#45;&gt;Node5</title>
<g id="a_edge4_Node000001_Node000005"><a xlink:title=" ">
<path fill="none" stroke="orange" stroke-dasharray="5,2" d="M95.31,-318.28C112.18,-336.03 137.21,-359.21 163.75,-372.8 224.4,-403.85 300.11,-420 357.39,-428.3"/>
<polygon fill="orange" stroke="orange" points="98.1,-316.15 88.74,-311.18 92.96,-320.9 98.1,-316.15"/>
</a>
</g>
<text text-anchor="middle" x="240.25" y="-422.9" font-family="Helvetica,sans-Serif" font-size="10.00" fill="grey"> &lt; AsyncFw::DataArrayTcpClient &gt;</text>
</g>
<!-- Node6 -->
<g id="Node000006" class="node">
<title>Node6</title>
<g id="a_Node000006"><a xlink:href="classAsyncFw_1_1FunctionConnectorProtected.html" target="_top" xlink:title=" ">
<polygon fill="white" stroke="#666666" points="525.5,-396.8 362.5,-396.8 362.5,-352.8 525.5,-352.8 525.5,-396.8"/>
<text text-anchor="start" x="370.5" y="-383.3" font-family="Helvetica,sans-Serif" font-size="10.00">AsyncFw::FunctionConnector</text>
<text text-anchor="start" x="370.5" y="-371.3" font-family="Helvetica,sans-Serif" font-size="10.00">Protected&lt; AsyncFw::FileSystem</text>
<text text-anchor="middle" x="444" y="-359.3" font-family="Helvetica,sans-Serif" font-size="10.00">Watcher &gt;</text>
</a>
</g>
</g>
<!-- Node1&#45;&gt;Node6 -->
<g id="edge5_Node000001_Node000006" class="edge">
<title>Node1&#45;&gt;Node6</title>
<g id="a_edge5_Node000001_Node000006"><a xlink:title=" ">
<path fill="none" stroke="orange" stroke-dasharray="5,2" d="M126,-314.03C138.26,-318.32 151.36,-322.53 163.75,-325.8 229.67,-343.19 306,-356.1 362.18,-364.3"/>
<polygon fill="orange" stroke="orange" points="127.5,-310.85 116.91,-310.77 125.14,-317.44 127.5,-310.85"/>
</a>
</g>
<text text-anchor="middle" x="240.25" y="-359.43" font-family="Helvetica,sans-Serif" font-size="10.00" fill="grey"> &lt; AsyncFw::FileSystemWatcher &gt;</text>
</g>
<!-- Node7 -->
<g id="Node000007" class="node">
<title>Node7</title>
<g id="a_Node000007"><a xlink:href="classAsyncFw_1_1FunctionConnectorProtected.html" target="_top" xlink:title=" ">
<polygon fill="white" stroke="#666666" points="530,-334.8 358,-334.8 358,-302.8 530,-302.8 530,-334.8"/>
<text text-anchor="start" x="366" y="-321.3" font-family="Helvetica,sans-Serif" font-size="10.00">AsyncFw::FunctionConnector</text>
<text text-anchor="middle" x="444" y="-309.3" font-family="Helvetica,sans-Serif" font-size="10.00">Protected&lt; AsyncFw::HttpSocket &gt;</text>
</a>
</g>
</g>
<!-- Node1&#45;&gt;Node7 -->
<g id="edge6_Node000001_Node000007" class="edge">
<title>Node1&#45;&gt;Node7</title>
<g id="a_edge6_Node000001_Node000007"><a xlink:title=" ">
<path fill="none" stroke="orange" stroke-dasharray="5,2" d="M157.21,-299.44C216.99,-303.49 297.28,-308.93 357.53,-313.01"/>
<polygon fill="orange" stroke="orange" points="157.65,-295.97 147.43,-298.78 157.17,-302.95 157.65,-295.97"/>
</a>
</g>
<text text-anchor="middle" x="240.25" y="-312.5" font-family="Helvetica,sans-Serif" font-size="10.00" fill="grey"> &lt; AsyncFw::HttpSocket &gt;</text>
</g>
<!-- Node8 -->
<g id="Node000008" class="node">
<title>Node8</title>
<g id="a_Node000008"><a xlink:href="classAsyncFw_1_1FunctionConnectorProtected.html" target="_top" xlink:title=" ">
<polygon fill="white" stroke="#666666" points="533.75,-284.8 354.25,-284.8 354.25,-252.8 533.75,-252.8 533.75,-284.8"/>
<text text-anchor="start" x="362.25" y="-271.3" font-family="Helvetica,sans-Serif" font-size="10.00">AsyncFw::FunctionConnector</text>
<text text-anchor="middle" x="444" y="-259.3" font-family="Helvetica,sans-Serif" font-size="10.00">Protected&lt; AsyncFw::ListenSocket &gt;</text>
</a>
</g>
</g>
<!-- Node1&#45;&gt;Node8 -->
<g id="edge7_Node000001_Node000008" class="edge">
<title>Node1&#45;&gt;Node8</title>
<g id="a_edge7_Node000001_Node000008"><a xlink:title=" ">
<path fill="none" stroke="orange" stroke-dasharray="5,2" d="M157.17,-285.33C159.38,-285.15 161.58,-284.97 163.75,-284.8 227.29,-279.8 299.08,-275.72 353.96,-272.93"/>
<polygon fill="orange" stroke="orange" points="157.13,-281.82 147.47,-286.18 157.73,-288.8 157.13,-281.82"/>
</a>
</g>
<text text-anchor="middle" x="240.25" y="-287.3" font-family="Helvetica,sans-Serif" font-size="10.00" fill="grey"> &lt; AsyncFw::ListenSocket &gt;</text>
</g>
<!-- Node9 -->
<g id="Node000009" class="node">
<title>Node9</title>
<g id="a_Node000009"><a xlink:href="classAsyncFw_1_1FunctionConnectorProtected.html" target="_top" xlink:title=" ">
<polygon fill="white" stroke="#666666" points="529.25,-234.8 358.75,-234.8 358.75,-202.8 529.25,-202.8 529.25,-234.8"/>
<text text-anchor="start" x="366.75" y="-221.3" font-family="Helvetica,sans-Serif" font-size="10.00">AsyncFw::FunctionConnector</text>
<text text-anchor="middle" x="444" y="-209.3" font-family="Helvetica,sans-Serif" font-size="10.00">Protected&lt; AsyncFw::PollNotifier &gt;</text>
</a>
</g>
</g>
<!-- Node1&#45;&gt;Node9 -->
<g id="edge8_Node000001_Node000009" class="edge">
<title>Node1&#45;&gt;Node9</title>
<g id="a_edge8_Node000001_Node000009"><a xlink:title=" ">
<path fill="none" stroke="orange" stroke-dasharray="5,2" d="M120.97,-273.12C134.57,-267.8 149.56,-262.53 163.75,-258.8 227.94,-241.94 302.41,-231.73 358.3,-225.84"/>
<polygon fill="orange" stroke="orange" points="119.78,-269.83 111.81,-276.81 122.4,-276.32 119.78,-269.83"/>
</a>
</g>
<text text-anchor="middle" x="240.25" y="-261.3" font-family="Helvetica,sans-Serif" font-size="10.00" fill="grey"> &lt; AsyncFw::PollNotifier &gt;</text>
</g>
<!-- Node10 -->
<g id="Node000010" class="node">
<title>Node10</title>
<g id="a_Node000010"><a xlink:href="classAsyncFw_1_1FunctionConnectorProtected.html" target="_top" xlink:title=" ">
<polygon fill="white" stroke="#666666" points="516.88,-184.8 371.12,-184.8 371.12,-152.8 516.88,-152.8 516.88,-184.8"/>
<text text-anchor="start" x="379.12" y="-171.3" font-family="Helvetica,sans-Serif" font-size="10.00">AsyncFw::FunctionConnector</text>
<text text-anchor="middle" x="444" y="-159.3" font-family="Helvetica,sans-Serif" font-size="10.00">Protected&lt; AsyncFw::Rrd &gt;</text>
</a>
</g>
</g>
<!-- Node1&#45;&gt;Node10 -->
<g id="edge9_Node000001_Node000010" class="edge">
<title>Node1&#45;&gt;Node10</title>
<g id="a_edge9_Node000001_Node000010"><a xlink:title=" ">
<path fill="none" stroke="orange" stroke-dasharray="5,2" d="M94.77,-269.16C111.52,-251.12 136.64,-227.63 163.75,-214.8 229.36,-183.74 312.26,-173.21 370.63,-169.86"/>
<polygon fill="orange" stroke="orange" points="92.36,-266.61 88.26,-276.38 97.56,-271.3 92.36,-266.61"/>
</a>
</g>
<text text-anchor="middle" x="240.25" y="-217.3" font-family="Helvetica,sans-Serif" font-size="10.00" fill="grey"> &lt; AsyncFw::Rrd &gt;</text>
</g>
<!-- Node11 -->
<g id="Node000011" class="node">
<title>Node11</title>
<g id="a_Node000011"><a xlink:href="classAsyncFw_1_1FunctionConnectorProtected.html" target="_top" xlink:title=" ">
<polygon fill="white" stroke="#666666" points="540.12,-134.8 347.88,-134.8 347.88,-102.8 540.12,-102.8 540.12,-134.8"/>
<text text-anchor="start" x="355.88" y="-121.3" font-family="Helvetica,sans-Serif" font-size="10.00">AsyncFw::FunctionConnector</text>
<text text-anchor="middle" x="444" y="-109.3" font-family="Helvetica,sans-Serif" font-size="10.00">Protected&lt; AsyncFw::SystemProcess &gt;</text>
</a>
</g>
</g>
<!-- Node1&#45;&gt;Node11 -->
<g id="edge10_Node000001_Node000011" class="edge">
<title>Node1&#45;&gt;Node11</title>
<g id="a_edge10_Node000001_Node000011"><a xlink:title=" ">
<path fill="none" stroke="orange" stroke-dasharray="5,2" d="M84.04,-266.76C97.3,-235.5 123.66,-185.1 163.75,-159.8 218.14,-125.48 290.16,-115.57 347.44,-114.07"/>
<polygon fill="orange" stroke="orange" points="80.83,-265.35 80.31,-275.93 87.32,-267.99 80.83,-265.35"/>
</a>
</g>
<text text-anchor="middle" x="240.25" y="-162.3" font-family="Helvetica,sans-Serif" font-size="10.00" fill="grey"> &lt; AsyncFw::SystemProcess &gt;</text>
</g>
<!-- Node12 -->
<g id="Node000012" class="node">
<title>Node12</title>
<g id="a_Node000012"><a xlink:href="classAsyncFw_1_1FunctionConnectorProtected.html" target="_top" xlink:title=" ">
<polygon fill="white" stroke="#666666" points="520.25,-84.8 367.75,-84.8 367.75,-52.8 520.25,-52.8 520.25,-84.8"/>
<text text-anchor="start" x="375.75" y="-71.3" font-family="Helvetica,sans-Serif" font-size="10.00">AsyncFw::FunctionConnector</text>
<text text-anchor="middle" x="444" y="-59.3" font-family="Helvetica,sans-Serif" font-size="10.00">Protected&lt; AsyncFw::Thread &gt;</text>
</a>
</g>
</g>
<!-- Node1&#45;&gt;Node12 -->
<g id="edge11_Node000001_Node000012" class="edge">
<title>Node1&#45;&gt;Node12</title>
<g id="a_edge11_Node000001_Node000012"><a xlink:title=" ">
<path fill="none" stroke="orange" stroke-dasharray="5,2" d="M77.96,-266.31C85.98,-223.04 108.12,-139.83 163.75,-99.8 222.45,-57.56 306.81,-53.85 367.43,-58.2"/>
<polygon fill="orange" stroke="orange" points="74.56,-265.45 76.32,-275.9 81.46,-266.64 74.56,-265.45"/>
</a>
</g>
<text text-anchor="middle" x="240.25" y="-102.3" font-family="Helvetica,sans-Serif" font-size="10.00" fill="grey"> &lt; AsyncFw::Thread &gt;</text>
</g>
<!-- Node13 -->
<g id="Node000013" class="node">
<title>Node13</title>
<g id="a_Node000013"><a xlink:href="classAsyncFw_1_1FunctionConnectorProtected.html" target="_top" xlink:title=" ">
<polygon fill="white" stroke="#666666" points="517.62,-34.8 370.38,-34.8 370.38,-2.8 517.62,-2.8 517.62,-34.8"/>
<text text-anchor="start" x="378.38" y="-21.3" font-family="Helvetica,sans-Serif" font-size="10.00">AsyncFw::FunctionConnector</text>
<text text-anchor="middle" x="444" y="-9.3" font-family="Helvetica,sans-Serif" font-size="10.00">Protected&lt; AsyncFw::Timer &gt;</text>
</a>
</g>
</g>
<!-- Node1&#45;&gt;Node13 -->
<g id="edge12_Node000001_Node000013" class="edge">
<title>Node1&#45;&gt;Node13</title>
<g id="a_edge12_Node000001_Node000013"><a xlink:title=" ">
<path fill="none" stroke="orange" stroke-dasharray="5,2" d="M74.51,-266.06C77.39,-212.62 92.02,-95.79 163.75,-40.8 222.03,3.88 308.71,3.5 370.02,-4.32"/>
<polygon fill="orange" stroke="orange" points="71.03,-265.69 74.1,-275.83 78.02,-265.99 71.03,-265.69"/>
</a>
</g>
<text text-anchor="middle" x="240.25" y="-43.3" font-family="Helvetica,sans-Serif" font-size="10.00" fill="grey"> &lt; AsyncFw::Timer &gt;</text>
</g>
</g>
</svg>
