<?xml version="1.0" encoding="UTF-8" standalone="no"?>
<!DOCTYPE svg PUBLIC "-//W3C//DTD SVG 1.1//EN"
 "http://www.w3.org/Graphics/SVG/1.1/DTD/svg11.dtd">
<!-- Generated by graphviz version 12.2.1 (20241206.2353)
 -->
<!-- Title: AsyncFw::MainThread Pages: 1 -->
<svg width="302pt" height="189pt"
 viewBox="0.00 0.00 301.88 189.00" xmlns="http://www.w3.org/2000/svg" xmlns:xlink="http://www.w3.org/1999/xlink">
<g id="graph0" class="graph" transform="scale(1 1) rotate(0) translate(4 185)">
<title>AsyncFw::MainThread</title>
<!-- Node1 -->
<g id="Node000001" class="node">
<title>Node1</title>
<g id="a_Node000001"><a xlink:title="A static control interface managing the application&#39;s primary execution thread (Main Thread).">
<polygon fill="#999999" stroke="#666666" points="200.12,-20 85.88,-20 85.88,0 200.12,0 200.12,-20"/>
<text text-anchor="middle" x="143" y="-6.5" font-family="Helvetica,sans-Serif" font-size="10.00">AsyncFw::MainThread</text>
</a>
</g>
</g>
<!-- Node2 -->
<g id="Node000002" class="node">
<title>Node2</title>
<g id="a_Node000002"><a xlink:href="classAsyncFw_1_1Thread.html" target="_top" xlink:title="AsyncFw::Thread thread with sockets.">
<polygon fill="white" stroke="#666666" points="189.62,-77 96.38,-77 96.38,-57 189.62,-57 189.62,-77"/>
<text text-anchor="middle" x="143" y="-63.5" font-family="Helvetica,sans-Serif" font-size="10.00">AsyncFw::Thread</text>
</a>
</g>
</g>
<!-- Node2&#45;&gt;Node1 -->
<g id="edge1_Node000001_Node000002" class="edge">
<title>Node2&#45;&gt;Node1</title>
<g id="a_edge1_Node000001_Node000002"><a xlink:title=" ">
<path fill="none" stroke="#8b1a1a" d="M143,-45.69C143,-36.97 143,-27.22 143,-20.28"/>
<polygon fill="#8b1a1a" stroke="#8b1a1a" points="139.5,-45.4 143,-55.4 146.5,-45.4 139.5,-45.4"/>
</a>
</g>
</g>
<!-- Node3 -->
<g id="Node000003" class="node">
<title>Node3</title>
<g id="a_Node000003"><a xlink:href="classAsyncFw_1_1AbstractThread.html" target="_top" xlink:title="The AbstractThread class provides the base functionality for thread management.">
<polygon fill="white" stroke="#666666" points="130,-175 0,-175 0,-155 130,-155 130,-175"/>
<text text-anchor="middle" x="65" y="-161.5" font-family="Helvetica,sans-Serif" font-size="10.00">AsyncFw::AbstractThread</text>
</a>
</g>
</g>
<!-- Node3&#45;&gt;Node2 -->
<g id="edge2_Node000002_Node000003" class="edge">
<title>Node3&#45;&gt;Node2</title>
<g id="a_edge2_Node000002_Node000003"><a xlink:title=" ">
<path fill="none" stroke="#63b8ff" d="M79.73,-145.86C96.31,-125.47 122.59,-93.13 135.43,-77.32"/>
<polygon fill="#63b8ff" stroke="#63b8ff" points="77.02,-143.65 73.43,-153.62 82.46,-148.07 77.02,-143.65"/>
</a>
</g>
</g>
<!-- Node4 -->
<g id="Node000004" class="node">
<title>Node4</title>
<g id="a_Node000004"><a xlink:href="classAsyncFw_1_1FunctionConnector.html" target="_top" xlink:title="Provides a thread&#45;safe, publisher&#45;subscriber mechanism to establish sender&#45;to&#45;receivers connections.">
<polygon fill="white" stroke="#666666" points="293.88,-181 148.12,-181 148.12,-149 293.88,-149 293.88,-181"/>
<text text-anchor="start" x="156.12" y="-167.5" font-family="Helvetica,sans-Serif" font-size="10.00">AsyncFw::FunctionConnector</text>
<text text-anchor="middle" x="221" y="-155.5" font-family="Helvetica,sans-Serif" font-size="10.00">&lt; Args &gt;</text>
</a>
</g>
</g>
<!-- Node4&#45;&gt;Node2 -->
<g id="edge3_Node000002_Node000004" class="edge">
<title>Node4&#45;&gt;Node2</title>
<g id="a_edge3_Node000002_Node000004"><a xlink:title=" ">
<path fill="none" stroke="#9a32cd" stroke-dasharray="5,2" d="M201.39,-139.86C184.89,-119.56 162.19,-91.61 150.55,-77.29"/>
<polygon fill="#9a32cd" stroke="#9a32cd" points="198.49,-141.85 207.51,-147.4 203.92,-137.43 198.49,-141.85"/>
</a>
</g>
<text text-anchor="middle" x="214.92" y="-121.5" font-family="Helvetica,sans-Serif" font-size="10.00" fill="grey"> destroing</text>
<text text-anchor="middle" x="214.92" y="-109.5" font-family="Helvetica,sans-Serif" font-size="10.00" fill="grey">finished</text>
<text text-anchor="middle" x="214.92" y="-97.5" font-family="Helvetica,sans-Serif" font-size="10.00" fill="grey">started</text>
</g>
</g>
</svg>
