<?xml version="1.0" encoding="UTF-8" standalone="no"?>
<!DOCTYPE svg PUBLIC "-//W3C//DTD SVG 1.1//EN"
 "http://www.w3.org/Graphics/SVG/1.1/DTD/svg11.dtd">
<!-- Generated by graphviz version 12.2.1 (20241206.2353)
 -->
<!-- Title: AsyncFw::Rrd Pages: 1 -->
<svg width="904pt" height="122pt"
 viewBox="0.00 0.00 904.00 122.00" xmlns="http://www.w3.org/2000/svg" xmlns:xlink="http://www.w3.org/1999/xlink">
<g id="graph0" class="graph" transform="scale(1 1) rotate(0) translate(4 118)">
<title>AsyncFw::Rrd</title>
<!-- Node1 -->
<g id="Node000001" class="node">
<title>Node1</title>
<g id="a_Node000001"><a xlink:title="The Rrd class.">
<polygon fill="#999999" stroke="#666666" points="896,-62 817,-62 817,-42 896,-42 896,-62"/>
<text text-anchor="middle" x="856.5" y="-48.5" font-family="Helvetica,sans-Serif" font-size="10.00">AsyncFw::Rrd</text>
</a>
</g>
</g>
<!-- Node2 -->
<g id="Node000002" class="node">
<title>Node2</title>
<g id="a_Node000002"><a xlink:href="classAsyncFw_1_1FunctionConnectorProtected.html" target="_top" xlink:title=" ">
<polygon fill="white" stroke="#666666" points="595.5,-114 449.75,-114 449.75,-82 595.5,-82 595.5,-114"/>
<text text-anchor="start" x="457.75" y="-100.5" font-family="Helvetica,sans-Serif" font-size="10.00">AsyncFw::FunctionConnector</text>
<text text-anchor="middle" x="522.62" y="-88.5" font-family="Helvetica,sans-Serif" font-size="10.00">Protected&lt; AsyncFw::Rrd &gt;</text>
</a>
</g>
</g>
<!-- Node2&#45;&gt;Node1 -->
<g id="edge1_Node000001_Node000002" class="edge">
<title>Node2&#45;&gt;Node1</title>
<g id="a_edge1_Node000001_Node000002"><a xlink:title=" ">
<path fill="none" stroke="#9a32cd" stroke-dasharray="5,2" d="M607.15,-92.56C662.03,-88.08 735.21,-80.42 799,-68 806.51,-66.54 814.46,-64.56 821.96,-62.49"/>
<polygon fill="#9a32cd" stroke="#9a32cd" points="606.93,-89.06 597.24,-93.34 607.48,-96.04 606.93,-89.06"/>
</a>
</g>
<text text-anchor="middle" x="675.12" y="-94.32" font-family="Helvetica,sans-Serif" font-size="10.00" fill="grey"> updated</text>
</g>
<!-- Node3 -->
<g id="Node000003" class="node">
<title>Node3</title>
<g id="a_Node000003"><a xlink:href="classAsyncFw_1_1FunctionConnectorProtected.html" target="_top" xlink:title="Защищенный коннетор, отправитель может быть только один.">
<polygon fill="white" stroke="#666666" points="145.75,-92 0,-92 0,-60 145.75,-60 145.75,-92"/>
<text text-anchor="start" x="8" y="-78.5" font-family="Helvetica,sans-Serif" font-size="10.00">AsyncFw::FunctionConnector</text>
<text text-anchor="middle" x="72.88" y="-66.5" font-family="Helvetica,sans-Serif" font-size="10.00">Protected&lt; F &gt;</text>
</a>
</g>
</g>
<!-- Node3&#45;&gt;Node2 -->
<g id="edge2_Node000002_Node000003" class="edge">
<title>Node3&#45;&gt;Node2</title>
<g id="a_edge2_Node000002_Node000003"><a xlink:title=" ">
<path fill="none" stroke="orange" stroke-dasharray="5,2" d="M157.11,-80.09C241.16,-84.22 369.65,-90.53 449.49,-94.46"/>
<polygon fill="orange" stroke="orange" points="157.49,-76.6 147.33,-79.61 157.14,-83.6 157.49,-76.6"/>
</a>
</g>
<text text-anchor="middle" x="212.5" y="-87.62" font-family="Helvetica,sans-Serif" font-size="10.00" fill="grey"> &lt; AsyncFw::Rrd &gt;</text>
</g>
<!-- Node6 -->
<g id="Node000006" class="node">
<title>Node6</title>
<g id="a_Node000006"><a xlink:href="classAsyncFw_1_1FunctionConnectorProtected.html" target="_top" xlink:title=" ">
<polygon fill="white" stroke="#666666" points="431.75,-70 279.25,-70 279.25,-38 431.75,-38 431.75,-70"/>
<text text-anchor="start" x="287.25" y="-56.5" font-family="Helvetica,sans-Serif" font-size="10.00">AsyncFw::FunctionConnector</text>
<text text-anchor="middle" x="355.5" y="-44.5" font-family="Helvetica,sans-Serif" font-size="10.00">Protected&lt; AsyncFw::Thread &gt;</text>
</a>
</g>
</g>
<!-- Node3&#45;&gt;Node6 -->
<g id="edge6_Node000006_Node000003" class="edge">
<title>Node3&#45;&gt;Node6</title>
<g id="a_edge6_Node000006_Node000003"><a xlink:title=" ">
<path fill="none" stroke="orange" stroke-dasharray="5,2" d="M157.15,-64.64C159.37,-64.42 161.58,-64.2 163.75,-64 201.72,-60.48 244.07,-58.1 279.2,-56.55"/>
<polygon fill="orange" stroke="orange" points="157,-61.14 147.43,-65.7 157.75,-68.1 157,-61.14"/>
</a>
</g>
<text text-anchor="middle" x="212.5" y="-66.5" font-family="Helvetica,sans-Serif" font-size="10.00" fill="grey"> &lt; AsyncFw::Thread &gt;</text>
</g>
<!-- Node4 -->
<g id="Node000004" class="node">
<title>Node4</title>
<g id="a_Node000004"><a xlink:href="classAsyncFw_1_1Thread.html" target="_top" xlink:title="AsyncFw::Thread thread with sockets.">
<polygon fill="white" stroke="#666666" points="721.75,-62 628.5,-62 628.5,-42 721.75,-42 721.75,-62"/>
<text text-anchor="middle" x="675.12" y="-48.5" font-family="Helvetica,sans-Serif" font-size="10.00">AsyncFw::Thread</text>
</a>
</g>
</g>
<!-- Node4&#45;&gt;Node1 -->
<g id="edge3_Node000001_Node000004" class="edge">
<title>Node4&#45;&gt;Node1</title>
<g id="a_edge3_Node000001_Node000004"><a xlink:title=" ">
<path fill="none" stroke="#9a32cd" stroke-dasharray="5,2" d="M733.18,-52C760.36,-52 792.18,-52 816.54,-52"/>
<polygon fill="#9a32cd" stroke="#9a32cd" points="733.37,-48.5 723.37,-52 733.37,-55.5 733.37,-48.5"/>
</a>
</g>
<text text-anchor="middle" x="776.88" y="-54.5" font-family="Helvetica,sans-Serif" font-size="10.00" fill="grey"> thread_</text>
</g>
<!-- Node5 -->
<g id="Node000005" class="node">
<title>Node5</title>
<g id="a_Node000005"><a xlink:href="classAsyncFw_1_1AbstractThread.html" target="_top" xlink:title="The AbstractThread class provides the base functionality for thread management.">
<polygon fill="white" stroke="#666666" points="420.5,-20 290.5,-20 290.5,0 420.5,0 420.5,-20"/>
<text text-anchor="middle" x="355.5" y="-6.5" font-family="Helvetica,sans-Serif" font-size="10.00">AsyncFw::AbstractThread</text>
</a>
</g>
</g>
<!-- Node5&#45;&gt;Node4 -->
<g id="edge4_Node000004_Node000005" class="edge">
<title>Node5&#45;&gt;Node4</title>
<g id="a_edge4_Node000004_Node000005"><a xlink:title=" ">
<path fill="none" stroke="#63b8ff" d="M431.9,-19.97C493,-28.05 577.1,-39.17 628.43,-45.96"/>
<polygon fill="#63b8ff" stroke="#63b8ff" points="432.65,-16.54 422.28,-18.7 431.73,-23.48 432.65,-16.54"/>
</a>
</g>
</g>
<!-- Node6&#45;&gt;Node4 -->
<g id="edge5_Node000004_Node000006" class="edge">
<title>Node6&#45;&gt;Node4</title>
<g id="a_edge5_Node000004_Node000006"><a xlink:title=" ">
<path fill="none" stroke="#9a32cd" stroke-dasharray="5,2" d="M443.48,-49.19C445.59,-49.12 447.68,-49.06 449.75,-49 514.5,-47.27 530.73,-47.76 595.5,-49 606.15,-49.2 617.61,-49.56 628.4,-49.96"/>
<polygon fill="#9a32cd" stroke="#9a32cd" points="443.44,-45.68 433.58,-49.55 443.7,-52.68 443.44,-45.68"/>
</a>
</g>
<text text-anchor="middle" x="522.62" y="-63.5" font-family="Helvetica,sans-Serif" font-size="10.00" fill="grey"> finished</text>
<text text-anchor="middle" x="522.62" y="-51.5" font-family="Helvetica,sans-Serif" font-size="10.00" fill="grey">started</text>
</g>
<!-- Node7 -->
<g id="Node000007" class="node">
<title>Node7</title>
<g id="a_Node000007"><a xlink:href="classAsyncFw_1_1DataArrayList.html" target="_top" xlink:title="The DataArrayList class.">
<polygon fill="white" stroke="#666666" points="736.75,-24 613.5,-24 613.5,-4 736.75,-4 736.75,-24"/>
<text text-anchor="middle" x="675.12" y="-10.5" font-family="Helvetica,sans-Serif" font-size="10.00">AsyncFw::DataArrayList</text>
</a>
</g>
</g>
<!-- Node7&#45;&gt;Node1 -->
<g id="edge7_Node000001_Node000007" class="edge">
<title>Node7&#45;&gt;Node1</title>
<g id="a_edge7_Node000001_Node000007"><a xlink:title=" ">
<path fill="none" stroke="#9a32cd" stroke-dasharray="5,2" d="M747.89,-25.62C764.72,-28.68 782.54,-32.21 799,-36 806.05,-37.63 813.54,-39.58 820.68,-41.56"/>
<polygon fill="#9a32cd" stroke="#9a32cd" points="748.94,-22.25 738.48,-23.94 747.71,-29.14 748.94,-22.25"/>
</a>
</g>
<text text-anchor="middle" x="776.88" y="-38.5" font-family="Helvetica,sans-Serif" font-size="10.00" fill="grey"> dataBase</text>
</g>
</g>
</svg>
