<?xml version="1.0" encoding="UTF-8" standalone="no"?>
<!DOCTYPE svg PUBLIC "-//W3C//DTD SVG 1.1//EN"
 "http://www.w3.org/Graphics/SVG/1.1/DTD/svg11.dtd">
<!-- Generated by graphviz version 14.1.3 (20260303.0454)
 -->
<!-- Title: AsyncFw::AbstractSocket Pages: 1 -->
<svg width="325pt" height="220pt"
 viewBox="0.00 0.00 325.00 220.00" xmlns="http://www.w3.org/2000/svg" xmlns:xlink="http://www.w3.org/1999/xlink">
<g id="graph0" class="graph" transform="scale(1 1) rotate(0) translate(4 216)">
<title>AsyncFw::AbstractSocket</title>
<!-- Node1 -->
<g id="Node000001" class="node">
<title>Node1</title>
<g id="a_Node000001"><a xlink:title="Abstract base class providing core network socket functionality and OS descriptor abstraction.">
<polygon fill="#999999" stroke="#666666" points="132.12,-20 1.38,-20 1.38,0 132.12,0 132.12,-20"/>
<text xml:space="preserve" text-anchor="middle" x="66.75" y="-6.5" font-family="Helvetica,sans-Serif" font-size="10.00">AsyncFw::AbstractSocket</text>
</a>
</g>
</g>
<!-- Node2 -->
<g id="Node000002" class="node">
<title>Node2</title>
<g id="a_Node000002"><a xlink:href="structAsyncFw_1_1AnyData.html" target="_top" xlink:title="A generic, type&#45;safe data container block wrapper utilizing std::any.">
<polygon fill="white" stroke="#666666" points="101.5,-94 0,-94 0,-74 101.5,-74 101.5,-94"/>
<text xml:space="preserve" text-anchor="middle" x="50.75" y="-80.5" font-family="Helvetica,sans-Serif" font-size="10.00">AsyncFw::AnyData</text>
</a>
</g>
</g>
<!-- Node2&#45;&gt;Node1 -->
<g id="edge1_Node000001_Node000002" class="edge">
<title>Node2&#45;&gt;Node1</title>
<g id="a_edge1_Node000001_Node000002"><a xlink:title=" ">
<path fill="none" stroke="#63b8ff" d="M55.28,-62.6C58.38,-48.65 62.35,-30.82 64.71,-20.19"/>
<polygon fill="#63b8ff" stroke="#63b8ff" points="51.92,-61.59 53.17,-72.11 58.76,-63.11 51.92,-61.59"/>
</a>
</g>
</g>
<!-- Node3 -->
<g id="Node000003" class="node">
<title>Node3</title>
<g id="a_Node000003"><a xlink:href="classAsyncFw_1_1Thread.html" target="_top" xlink:title="AsyncFw::Thread thread with sockets.">
<polygon fill="white" stroke="#666666" points="212.38,-94 119.12,-94 119.12,-74 212.38,-74 212.38,-94"/>
<text xml:space="preserve" text-anchor="middle" x="165.75" y="-80.5" font-family="Helvetica,sans-Serif" font-size="10.00">AsyncFw::Thread</text>
</a>
</g>
</g>
<!-- Node3&#45;&gt;Node1 -->
<g id="edge2_Node000001_Node000003" class="edge">
<title>Node3&#45;&gt;Node1</title>
<g id="a_edge2_Node000001_Node000003"><a xlink:title=" ">
<path fill="none" stroke="#9a32cd" stroke-dasharray="5,2" d="M143.66,-66.94C124.01,-52.64 95.93,-32.22 79.7,-20.42"/>
<polygon fill="#9a32cd" stroke="#9a32cd" points="141.44,-69.65 151.58,-72.7 145.55,-63.98 141.44,-69.65"/>
</a>
</g>
<text xml:space="preserve" text-anchor="start" x="131.03" y="-43.25" font-family="Helvetica,sans-Serif" font-size="10.00" fill="grey">thread_</text>
</g>
<!-- Node4 -->
<g id="Node000004" class="node">
<title>Node4</title>
<g id="a_Node000004"><a xlink:href="classAsyncFw_1_1AbstractThread.html" target="_top" xlink:title="The AbstractThread class provides the base functionality for thread management.">
<polygon fill="white" stroke="#666666" points="152.75,-206 22.75,-206 22.75,-186 152.75,-186 152.75,-206"/>
<text xml:space="preserve" text-anchor="middle" x="87.75" y="-192.5" font-family="Helvetica,sans-Serif" font-size="10.00">AsyncFw::AbstractThread</text>
</a>
</g>
</g>
<!-- Node4&#45;&gt;Node3 -->
<g id="edge3_Node000003_Node000004" class="edge">
<title>Node4&#45;&gt;Node3</title>
<g id="a_edge3_Node000003_Node000004"><a xlink:title=" ">
<path fill="none" stroke="#63b8ff" d="M101.03,-176.27C117.89,-152.5 146.29,-112.44 159.12,-94.35"/>
<polygon fill="#63b8ff" stroke="#63b8ff" points="98.2,-174.2 95.28,-184.39 103.92,-178.25 98.2,-174.2"/>
</a>
</g>
</g>
<!-- Node5 -->
<g id="Node000005" class="node">
<title>Node5</title>
<g id="a_Node000005"><a xlink:href="classAsyncFw_1_1FunctionConnector.html" target="_top" xlink:title="Provides a thread&#45;safe, publisher&#45;subscriber mechanism to establish sender&#45;to&#45;receivers connections.">
<polygon fill="white" stroke="#666666" points="316.62,-212 170.88,-212 170.88,-180 316.62,-180 316.62,-212"/>
<text xml:space="preserve" text-anchor="start" x="178.88" y="-198.5" font-family="Helvetica,sans-Serif" font-size="10.00">AsyncFw::FunctionConnector</text>
<text xml:space="preserve" text-anchor="middle" x="243.75" y="-186.5" font-family="Helvetica,sans-Serif" font-size="10.00">&lt; Args &gt;</text>
</a>
</g>
</g>
<!-- Node5&#45;&gt;Node3 -->
<g id="edge4_Node000003_Node000005" class="edge">
<title>Node5&#45;&gt;Node3</title>
<g id="a_edge4_Node000003_Node000005"><a xlink:title=" ">
<path fill="none" stroke="#9a32cd" stroke-dasharray="5,2" d="M226.37,-170.49C209.32,-146.45 184.22,-111.04 172.38,-94.35"/>
<polygon fill="#9a32cd" stroke="#9a32cd" points="223.39,-172.34 232.03,-178.47 229.1,-168.29 223.39,-172.34"/>
</a>
</g>
<text xml:space="preserve" text-anchor="start" x="221.52" y="-149.25" font-family="Helvetica,sans-Serif" font-size="10.00" fill="grey">destroying</text>
<text xml:space="preserve" text-anchor="start" x="221.52" y="-133.25" font-family="Helvetica,sans-Serif" font-size="10.00" fill="grey">finished</text>
<text xml:space="preserve" text-anchor="start" x="221.52" y="-117.25" font-family="Helvetica,sans-Serif" font-size="10.00" fill="grey">started</text>
</g>
</g>
</svg>
