<?xml version="1.0" encoding="UTF-8" standalone="no"?>
<!DOCTYPE svg PUBLIC "-//W3C//DTD SVG 1.1//EN"
 "http://www.w3.org/Graphics/SVG/1.1/DTD/svg11.dtd">
<!-- Generated by graphviz version 12.2.1 (20241206.2353)
 -->
<!-- Title: AsyncFw::FunctionConnectorProtected&lt; F &gt; Pages: 1 -->
<svg width="561pt" height="683pt"
 viewBox="0.00 0.00 561.25 683.11" xmlns="http://www.w3.org/2000/svg" xmlns:xlink="http://www.w3.org/1999/xlink">
<g id="graph0" class="graph" transform="scale(1 1) rotate(0) translate(4 679.11)">
<title>AsyncFw::FunctionConnectorProtected&lt; F &gt;</title>
<!-- Node1 -->
<g id="Node000001" class="node">
<title>Node1</title>
<g id="a_Node000001"><a xlink:title="Защищенный коннетор, отправитель может быть только один.">
<polygon fill="#999999" stroke="#666666" points="145.75,-337.21 0,-337.21 0,-305.21 145.75,-305.21 145.75,-337.21"/>
<text text-anchor="start" x="8" y="-323.71" font-family="Helvetica,sans-Serif" font-size="10.00">AsyncFw::FunctionConnector</text>
<text text-anchor="middle" x="72.88" y="-311.71" font-family="Helvetica,sans-Serif" font-size="10.00">Protected&lt; F &gt;</text>
</a>
</g>
</g>
<!-- Node2 -->
<g id="Node000002" class="node">
<title>Node2</title>
<g id="a_Node000002"><a xlink:href="classAsyncFw_1_1FunctionConnectorProtected.html" target="_top" xlink:title=" ">
<polygon fill="white" stroke="#666666" points="531.5,-661.21 356.5,-661.21 356.5,-629.21 531.5,-629.21 531.5,-661.21"/>
<text text-anchor="start" x="364.5" y="-647.71" font-family="Helvetica,sans-Serif" font-size="10.00">AsyncFw::FunctionConnector</text>
<text text-anchor="middle" x="444" y="-635.71" font-family="Helvetica,sans-Serif" font-size="10.00">Protected&lt; AsyncFw::AddressInfo &gt;</text>
</a>
</g>
</g>
<!-- Node1&#45;&gt;Node2 -->
<g id="edge1_Node000001_Node000002" class="edge">
<title>Node1&#45;&gt;Node2</title>
<g id="a_edge1_Node000001_Node000002"><a xlink:title=" ">
<path fill="none" stroke="orange" stroke-dasharray="5,2" d="M78.14,-348.6C89.18,-415.67 120.84,-585.22 163.75,-620.21 216.75,-663.42 295.69,-666.73 356.13,-660.92"/>
<polygon fill="orange" stroke="orange" points="81.61,-348.13 76.56,-338.82 74.7,-349.25 81.61,-348.13"/>
</a>
</g>
<text text-anchor="middle" x="240.25" y="-665.61" font-family="Helvetica,sans-Serif" font-size="10.00" fill="grey"> &lt; AsyncFw::AddressInfo &gt;</text>
</g>
<!-- Node3 -->
<g id="Node000003" class="node">
<title>Node3</title>
<g id="a_Node000003"><a xlink:href="classAsyncFw_1_1FunctionConnectorProtected.html" target="_top" xlink:title=" ">
<polygon fill="white" stroke="#666666" points="553.25,-611.21 334.75,-611.21 334.75,-579.21 553.25,-579.21 553.25,-611.21"/>
<text text-anchor="start" x="342.75" y="-597.71" font-family="Helvetica,sans-Serif" font-size="10.00">AsyncFw::FunctionConnector</text>
<text text-anchor="middle" x="444" y="-585.71" font-family="Helvetica,sans-Serif" font-size="10.00">Protected&lt; AsyncFw::DataArrayAbstractTcp &gt;</text>
</a>
</g>
</g>
<!-- Node1&#45;&gt;Node3 -->
<g id="edge2_Node000001_Node000003" class="edge">
<title>Node1&#45;&gt;Node3</title>
<g id="a_edge2_Node000001_Node000003"><a xlink:title=" ">
<path fill="none" stroke="orange" stroke-dasharray="5,2" d="M75.35,-349.05C79.69,-400.14 96.73,-508.46 163.75,-561.21 189.94,-581.82 267.6,-590.12 334.38,-593.38"/>
<polygon fill="orange" stroke="orange" points="78.85,-348.87 74.63,-339.15 71.87,-349.38 78.85,-348.87"/>
</a>
</g>
<text text-anchor="start" x="170.5" y="-606.74" font-family="Helvetica,sans-Serif" font-size="10.00" fill="grey"> &lt; AsyncFw::DataArrayAbstract</text>
<text text-anchor="middle" x="240.25" y="-594.74" font-family="Helvetica,sans-Serif" font-size="10.00" fill="grey">Tcp &gt;</text>
</g>
<!-- Node4 -->
<g id="Node000004" class="node">
<title>Node4</title>
<g id="a_Node000004"><a xlink:href="classAsyncFw_1_1FunctionConnectorProtected.html" target="_top" xlink:title=" ">
<polygon fill="white" stroke="#666666" points="542.75,-561.21 345.25,-561.21 345.25,-529.21 542.75,-529.21 542.75,-561.21"/>
<text text-anchor="start" x="353.25" y="-547.71" font-family="Helvetica,sans-Serif" font-size="10.00">AsyncFw::FunctionConnector</text>
<text text-anchor="middle" x="444" y="-535.71" font-family="Helvetica,sans-Serif" font-size="10.00">Protected&lt; AsyncFw::DataArraySocket &gt;</text>
</a>
</g>
</g>
<!-- Node1&#45;&gt;Node4 -->
<g id="edge3_Node000001_Node000004" class="edge">
<title>Node1&#45;&gt;Node4</title>
<g id="a_edge3_Node000001_Node000004"><a xlink:title=" ">
<path fill="none" stroke="orange" stroke-dasharray="5,2" d="M80.07,-348.69C90.37,-387.63 114.9,-458.13 163.75,-494.21 215.48,-532.42 287.04,-544.92 344.76,-548"/>
<polygon fill="orange" stroke="orange" points="83.51,-348.01 77.69,-339.16 76.72,-349.71 83.51,-348.01"/>
</a>
</g>
<text text-anchor="middle" x="240.25" y="-547.91" font-family="Helvetica,sans-Serif" font-size="10.00" fill="grey"> &lt; AsyncFw::DataArraySocket &gt;</text>
</g>
<!-- Node5 -->
<g id="Node000005" class="node">
<title>Node5</title>
<g id="a_Node000005"><a xlink:href="classAsyncFw_1_1FunctionConnectorProtected.html" target="_top" xlink:title=" ">
<polygon fill="white" stroke="#666666" points="530.38,-511.21 357.62,-511.21 357.62,-467.21 530.38,-467.21 530.38,-511.21"/>
<text text-anchor="start" x="365.62" y="-497.71" font-family="Helvetica,sans-Serif" font-size="10.00">AsyncFw::FunctionConnector</text>
<text text-anchor="start" x="365.62" y="-485.71" font-family="Helvetica,sans-Serif" font-size="10.00">Protected&lt; AsyncFw::DataArrayTcp</text>
<text text-anchor="middle" x="444" y="-473.71" font-family="Helvetica,sans-Serif" font-size="10.00">Client &gt;</text>
</a>
</g>
</g>
<!-- Node1&#45;&gt;Node5 -->
<g id="edge4_Node000001_Node000005" class="edge">
<title>Node1&#45;&gt;Node5</title>
<g id="a_edge4_Node000001_Node000005"><a xlink:title=" ">
<path fill="none" stroke="orange" stroke-dasharray="5,2" d="M88.84,-347.08C104.4,-371.58 131.03,-407.46 163.75,-427.21 222.53,-462.68 299.27,-477.92 357.42,-484.44"/>
<polygon fill="orange" stroke="orange" points="91.88,-345.34 83.66,-338.65 85.92,-349 91.88,-345.34"/>
</a>
</g>
<text text-anchor="middle" x="240.25" y="-481.18" font-family="Helvetica,sans-Serif" font-size="10.00" fill="grey"> &lt; AsyncFw::DataArrayTcpClient &gt;</text>
</g>
<!-- Node6 -->
<g id="Node000006" class="node">
<title>Node6</title>
<g id="a_Node000006"><a xlink:href="classAsyncFw_1_1FunctionConnectorProtected.html" target="_top" xlink:title=" ">
<polygon fill="white" stroke="#666666" points="525.5,-449.21 362.5,-449.21 362.5,-405.21 525.5,-405.21 525.5,-449.21"/>
<text text-anchor="start" x="370.5" y="-435.71" font-family="Helvetica,sans-Serif" font-size="10.00">AsyncFw::FunctionConnector</text>
<text text-anchor="start" x="370.5" y="-423.71" font-family="Helvetica,sans-Serif" font-size="10.00">Protected&lt; AsyncFw::FileSystem</text>
<text text-anchor="middle" x="444" y="-411.71" font-family="Helvetica,sans-Serif" font-size="10.00">Watcher &gt;</text>
</a>
</g>
</g>
<!-- Node1&#45;&gt;Node6 -->
<g id="edge5_Node000001_Node000006" class="edge">
<title>Node1&#45;&gt;Node6</title>
<g id="a_edge5_Node000001_Node000006"><a xlink:title=" ">
<path fill="none" stroke="orange" stroke-dasharray="5,2" d="M106.87,-343.86C123.32,-354.21 143.89,-365.78 163.75,-373.21 228.27,-397.33 305.4,-411.2 362.23,-418.82"/>
<polygon fill="orange" stroke="orange" points="108.78,-340.93 98.48,-338.45 104.98,-346.81 108.78,-340.93"/>
</a>
</g>
<text text-anchor="middle" x="240.25" y="-413.84" font-family="Helvetica,sans-Serif" font-size="10.00" fill="grey"> &lt; AsyncFw::FileSystemWatcher &gt;</text>
</g>
<!-- Node7 -->
<g id="Node000007" class="node">
<title>Node7</title>
<g id="a_Node000007"><a xlink:href="classAsyncFw_1_1FunctionConnectorProtected.html" target="_top" xlink:title=" ">
<polygon fill="white" stroke="#666666" points="530,-387.21 358,-387.21 358,-355.21 530,-355.21 530,-387.21"/>
<text text-anchor="start" x="366" y="-373.71" font-family="Helvetica,sans-Serif" font-size="10.00">AsyncFw::FunctionConnector</text>
<text text-anchor="middle" x="444" y="-361.71" font-family="Helvetica,sans-Serif" font-size="10.00">Protected&lt; AsyncFw::HttpSocket &gt;</text>
</a>
</g>
</g>
<!-- Node1&#45;&gt;Node7 -->
<g id="edge6_Node000001_Node000007" class="edge">
<title>Node1&#45;&gt;Node7</title>
<g id="a_edge6_Node000001_Node000007"><a xlink:title=" ">
<path fill="none" stroke="orange" stroke-dasharray="5,2" d="M157.15,-336.2C159.37,-336.54 161.58,-336.88 163.75,-337.21 228.59,-346.92 302.22,-355.8 357.59,-362.04"/>
<polygon fill="orange" stroke="orange" points="157.85,-332.77 147.42,-334.63 156.74,-339.68 157.85,-332.77"/>
</a>
</g>
<text text-anchor="middle" x="240.25" y="-359.68" font-family="Helvetica,sans-Serif" font-size="10.00" fill="grey"> &lt; AsyncFw::HttpSocket &gt;</text>
</g>
<!-- Node8 -->
<g id="Node000008" class="node">
<title>Node8</title>
<g id="a_Node000008"><a xlink:href="classAsyncFw_1_1FunctionConnectorProtected.html" target="_top" xlink:title=" ">
<polygon fill="white" stroke="#666666" points="533.75,-337.21 354.25,-337.21 354.25,-305.21 533.75,-305.21 533.75,-337.21"/>
<text text-anchor="start" x="362.25" y="-323.71" font-family="Helvetica,sans-Serif" font-size="10.00">AsyncFw::FunctionConnector</text>
<text text-anchor="middle" x="444" y="-311.71" font-family="Helvetica,sans-Serif" font-size="10.00">Protected&lt; AsyncFw::ListenSocket &gt;</text>
</a>
</g>
</g>
<!-- Node1&#45;&gt;Node8 -->
<g id="edge7_Node000001_Node000008" class="edge">
<title>Node1&#45;&gt;Node8</title>
<g id="a_edge7_Node000001_Node000008"><a xlink:title=" ">
<path fill="none" stroke="orange" stroke-dasharray="5,2" d="M157.36,-321.21C215.91,-321.21 294.08,-321.21 353.84,-321.21"/>
<polygon fill="orange" stroke="orange" points="157.44,-317.71 147.44,-321.21 157.44,-324.71 157.44,-317.71"/>
</a>
</g>
<text text-anchor="middle" x="240.25" y="-323.71" font-family="Helvetica,sans-Serif" font-size="10.00" fill="grey"> &lt; AsyncFw::ListenSocket &gt;</text>
</g>
<!-- Node9 -->
<g id="Node000009" class="node">
<title>Node9</title>
<g id="a_Node000009"><a xlink:href="classAsyncFw_1_1FunctionConnectorProtected.html" target="_top" xlink:title=" ">
<polygon fill="white" stroke="#666666" points="534.12,-287.21 353.88,-287.21 353.88,-255.21 534.12,-255.21 534.12,-287.21"/>
<text text-anchor="start" x="361.88" y="-273.71" font-family="Helvetica,sans-Serif" font-size="10.00">AsyncFw::FunctionConnector</text>
<text text-anchor="middle" x="444" y="-261.71" font-family="Helvetica,sans-Serif" font-size="10.00">Protected&lt; AsyncFw::MulticastDns &gt;</text>
</a>
</g>
</g>
<!-- Node1&#45;&gt;Node9 -->
<g id="edge8_Node000001_Node000009" class="edge">
<title>Node1&#45;&gt;Node9</title>
<g id="a_edge8_Node000001_Node000009"><a xlink:title=" ">
<path fill="none" stroke="orange" stroke-dasharray="5,2" d="M157.15,-306.22C159.37,-305.87 161.58,-305.53 163.75,-305.21 227.02,-295.73 298.66,-287.05 353.54,-280.83"/>
<polygon fill="orange" stroke="orange" points="156.74,-302.74 147.42,-307.78 157.85,-309.65 156.74,-302.74"/>
</a>
</g>
<text text-anchor="middle" x="240.25" y="-307.71" font-family="Helvetica,sans-Serif" font-size="10.00" fill="grey"> &lt; AsyncFw::MulticastDns &gt;</text>
</g>
<!-- Node10 -->
<g id="Node000010" class="node">
<title>Node10</title>
<g id="a_Node000010"><a xlink:href="classAsyncFw_1_1FunctionConnectorProtected.html" target="_top" xlink:title=" ">
<polygon fill="white" stroke="#666666" points="529.25,-237.21 358.75,-237.21 358.75,-205.21 529.25,-205.21 529.25,-237.21"/>
<text text-anchor="start" x="366.75" y="-223.71" font-family="Helvetica,sans-Serif" font-size="10.00">AsyncFw::FunctionConnector</text>
<text text-anchor="middle" x="444" y="-211.71" font-family="Helvetica,sans-Serif" font-size="10.00">Protected&lt; AsyncFw::PollNotifier &gt;</text>
</a>
</g>
</g>
<!-- Node1&#45;&gt;Node10 -->
<g id="edge9_Node000001_Node000010" class="edge">
<title>Node1&#45;&gt;Node10</title>
<g id="a_edge9_Node000001_Node000010"><a xlink:title=" ">
<path fill="none" stroke="orange" stroke-dasharray="5,2" d="M105.99,-298.89C122.55,-288.37 143.49,-276.54 163.75,-269.21 226.89,-246.35 302.09,-234.22 358.53,-227.88"/>
<polygon fill="orange" stroke="orange" points="104.52,-295.67 98.05,-304.06 108.34,-301.53 104.52,-295.67"/>
</a>
</g>
<text text-anchor="middle" x="240.25" y="-271.71" font-family="Helvetica,sans-Serif" font-size="10.00" fill="grey"> &lt; AsyncFw::PollNotifier &gt;</text>
</g>
<!-- Node11 -->
<g id="Node000011" class="node">
<title>Node11</title>
<g id="a_Node000011"><a xlink:href="classAsyncFw_1_1FunctionConnectorProtected.html" target="_top" xlink:title=" ">
<polygon fill="white" stroke="#666666" points="516.88,-187.21 371.12,-187.21 371.12,-155.21 516.88,-155.21 516.88,-187.21"/>
<text text-anchor="start" x="379.12" y="-173.71" font-family="Helvetica,sans-Serif" font-size="10.00">AsyncFw::FunctionConnector</text>
<text text-anchor="middle" x="444" y="-161.71" font-family="Helvetica,sans-Serif" font-size="10.00">Protected&lt; AsyncFw::Rrd &gt;</text>
</a>
</g>
</g>
<!-- Node1&#45;&gt;Node11 -->
<g id="edge10_Node000001_Node000011" class="edge">
<title>Node1&#45;&gt;Node11</title>
<g id="a_edge10_Node000001_Node000011"><a xlink:title=" ">
<path fill="none" stroke="orange" stroke-dasharray="5,2" d="M89.06,-295.3C104.63,-271.24 131.13,-236.46 163.75,-218.21 227.57,-182.5 311.51,-172.42 370.63,-170.24"/>
<polygon fill="orange" stroke="orange" points="86.21,-293.26 83.88,-303.59 92.15,-296.97 86.21,-293.26"/>
</a>
</g>
<text text-anchor="middle" x="240.25" y="-220.71" font-family="Helvetica,sans-Serif" font-size="10.00" fill="grey"> &lt; AsyncFw::Rrd &gt;</text>
</g>
<!-- Node12 -->
<g id="Node000012" class="node">
<title>Node12</title>
<g id="a_Node000012"><a xlink:href="classAsyncFw_1_1FunctionConnectorProtected.html" target="_top" xlink:title=" ">
<polygon fill="white" stroke="#666666" points="540.12,-137.21 347.88,-137.21 347.88,-105.21 540.12,-105.21 540.12,-137.21"/>
<text text-anchor="start" x="355.88" y="-123.71" font-family="Helvetica,sans-Serif" font-size="10.00">AsyncFw::FunctionConnector</text>
<text text-anchor="middle" x="444" y="-111.71" font-family="Helvetica,sans-Serif" font-size="10.00">Protected&lt; AsyncFw::SystemProcess &gt;</text>
</a>
</g>
</g>
<!-- Node1&#45;&gt;Node12 -->
<g id="edge11_Node000001_Node000012" class="edge">
<title>Node1&#45;&gt;Node12</title>
<g id="a_edge11_Node000001_Node000012"><a xlink:title=" ">
<path fill="none" stroke="orange" stroke-dasharray="5,2" d="M80.64,-293.92C91.42,-256.61 116.32,-190.61 163.75,-158.21 217.05,-121.79 289.63,-113.1 347.44,-113.21"/>
<polygon fill="orange" stroke="orange" points="77.28,-292.92 78.02,-303.49 84.03,-294.77 77.28,-292.92"/>
</a>
</g>
<text text-anchor="middle" x="240.25" y="-160.71" font-family="Helvetica,sans-Serif" font-size="10.00" fill="grey"> &lt; AsyncFw::SystemProcess &gt;</text>
</g>
<!-- Node13 -->
<g id="Node000013" class="node">
<title>Node13</title>
<g id="a_Node000013"><a xlink:href="classAsyncFw_1_1FunctionConnectorProtected.html" target="_top" xlink:title=" ">
<polygon fill="white" stroke="#666666" points="520.25,-87.21 367.75,-87.21 367.75,-55.21 520.25,-55.21 520.25,-87.21"/>
<text text-anchor="start" x="375.75" y="-73.71" font-family="Helvetica,sans-Serif" font-size="10.00">AsyncFw::FunctionConnector</text>
<text text-anchor="middle" x="444" y="-61.71" font-family="Helvetica,sans-Serif" font-size="10.00">Protected&lt; AsyncFw::Thread &gt;</text>
</a>
</g>
</g>
<!-- Node1&#45;&gt;Node13 -->
<g id="edge12_Node000001_Node000013" class="edge">
<title>Node1&#45;&gt;Node13</title>
<g id="a_edge12_Node000001_Node000013"><a xlink:title=" ">
<path fill="none" stroke="orange" stroke-dasharray="5,2" d="M76.09,-293.47C81.59,-245.01 100.4,-145.58 163.75,-98.21 221.68,-54.89 306.37,-52.75 367.27,-58.58"/>
<polygon fill="orange" stroke="orange" points="72.61,-293.1 75.09,-303.4 79.58,-293.8 72.61,-293.1"/>
</a>
</g>
<text text-anchor="middle" x="240.25" y="-100.71" font-family="Helvetica,sans-Serif" font-size="10.00" fill="grey"> &lt; AsyncFw::Thread &gt;</text>
</g>
<!-- Node14 -->
<g id="Node000014" class="node">
<title>Node14</title>
<g id="a_Node000014"><a xlink:href="classAsyncFw_1_1FunctionConnectorProtected.html" target="_top" xlink:title=" ">
<polygon fill="white" stroke="#666666" points="517.62,-37.21 370.38,-37.21 370.38,-5.21 517.62,-5.21 517.62,-37.21"/>
<text text-anchor="start" x="378.38" y="-23.71" font-family="Helvetica,sans-Serif" font-size="10.00">AsyncFw::FunctionConnector</text>
<text text-anchor="middle" x="444" y="-11.71" font-family="Helvetica,sans-Serif" font-size="10.00">Protected&lt; AsyncFw::Timer &gt;</text>
</a>
</g>
</g>
<!-- Node1&#45;&gt;Node14 -->
<g id="edge13_Node000001_Node000014" class="edge">
<title>Node1&#45;&gt;Node14</title>
<g id="a_edge13_Node000001_Node000014"><a xlink:title=" ">
<path fill="none" stroke="orange" stroke-dasharray="5,2" d="M73.34,-293.26C73.91,-235.35 84.31,-102.45 163.75,-40.21 221.6,5.12 308.57,3.52 370.06,-5.38"/>
<polygon fill="orange" stroke="orange" points="69.84,-293.23 73.35,-303.23 76.84,-293.23 69.84,-293.23"/>
</a>
</g>
<text text-anchor="middle" x="240.25" y="-42.71" font-family="Helvetica,sans-Serif" font-size="10.00" fill="grey"> &lt; AsyncFw::Timer &gt;</text>
</g>
</g>
</svg>
