<?xml version="1.0" encoding="UTF-8" standalone="no"?>
<!DOCTYPE svg PUBLIC "-//W3C//DTD SVG 1.1//EN"
 "http://www.w3.org/Graphics/SVG/1.1/DTD/svg11.dtd">
<!-- Generated by graphviz version 12.2.1 (20241206.2353)
 -->
<!-- Title: AsyncFw::AbstractThreadPool Pages: 1 -->
<svg width="376pt" height="140pt"
 viewBox="0.00 0.00 376.38 140.00" xmlns="http://www.w3.org/2000/svg" xmlns:xlink="http://www.w3.org/1999/xlink">
<g id="graph0" class="graph" transform="scale(1 1) rotate(0) translate(4 136)">
<title>AsyncFw::AbstractThreadPool</title>
<!-- Node1 -->
<g id="Node000001" class="node">
<title>Node1</title>
<g id="a_Node000001"><a xlink:title="Абстрактный класс для создания пулов управления потоками.">
<polygon fill="#999999" stroke="#666666" points="309.75,-132 160.25,-132 160.25,-112 309.75,-112 309.75,-132"/>
<text text-anchor="middle" x="235" y="-118.5" font-family="Helvetica,sans-Serif" font-size="10.00">AsyncFw::AbstractThreadPool</text>
</a>
</g>
</g>
<!-- Node2 -->
<g id="Node000002" class="node">
<title>Node2</title>
<g id="a_Node000002"><a xlink:href="classAsyncFw_1_1DataArrayAbstractTcp.html" target="_top" xlink:title="The DataArrayAbstractTcp class.">
<polygon fill="white" stroke="#666666" points="237.62,-76 78.38,-76 78.38,-56 237.62,-56 237.62,-76"/>
<text text-anchor="middle" x="158" y="-62.5" font-family="Helvetica,sans-Serif" font-size="10.00">AsyncFw::DataArrayAbstractTcp</text>
</a>
</g>
</g>
<!-- Node1&#45;&gt;Node2 -->
<g id="edge1_Node000001_Node000002" class="edge">
<title>Node1&#45;&gt;Node2</title>
<g id="a_edge1_Node000001_Node000002"><a xlink:title=" ">
<path fill="none" stroke="#63b8ff" d="M212.18,-105C198.95,-95.72 182.74,-84.35 171.52,-76.48"/>
<polygon fill="#63b8ff" stroke="#63b8ff" points="210.15,-107.85 220.35,-110.72 214.17,-102.12 210.15,-107.85"/>
</a>
</g>
</g>
<!-- Node5 -->
<g id="Node000005" class="node">
<title>Node5</title>
<g id="a_Node000005"><a xlink:href="classAsyncFw_1_1ThreadPool.html" target="_top" xlink:title="Управляет набором многократно используемых рабочих потоков для параллельного выполнения задач,...">
<polygon fill="white" stroke="#666666" points="368.38,-76 255.62,-76 255.62,-56 368.38,-56 368.38,-76"/>
<text text-anchor="middle" x="312" y="-62.5" font-family="Helvetica,sans-Serif" font-size="10.00">AsyncFw::ThreadPool</text>
</a>
</g>
</g>
<!-- Node1&#45;&gt;Node5 -->
<g id="edge4_Node000001_Node000005" class="edge">
<title>Node1&#45;&gt;Node5</title>
<g id="a_edge4_Node000001_Node000005"><a xlink:title=" ">
<path fill="none" stroke="#63b8ff" d="M257.82,-105C271.05,-95.72 287.26,-84.35 298.48,-76.48"/>
<polygon fill="#63b8ff" stroke="#63b8ff" points="255.83,-102.12 249.65,-110.72 259.85,-107.85 255.83,-102.12"/>
</a>
</g>
</g>
<!-- Node3 -->
<g id="Node000003" class="node">
<title>Node3</title>
<g id="a_Node000003"><a xlink:href="classAsyncFw_1_1DataArrayTcpClient.html" target="_top" xlink:title="The DataArrayTcpClient class.">
<polygon fill="white" stroke="#666666" points="148,-20 0,-20 0,0 148,0 148,-20"/>
<text text-anchor="middle" x="74" y="-6.5" font-family="Helvetica,sans-Serif" font-size="10.00">AsyncFw::DataArrayTcpClient</text>
</a>
</g>
</g>
<!-- Node2&#45;&gt;Node3 -->
<g id="edge2_Node000002_Node000003" class="edge">
<title>Node2&#45;&gt;Node3</title>
<g id="a_edge2_Node000002_Node000003"><a xlink:title=" ">
<path fill="none" stroke="#63b8ff" d="M133.95,-49.54C119.37,-40.17 101.23,-28.51 88.75,-20.48"/>
<polygon fill="#63b8ff" stroke="#63b8ff" points="131.79,-52.31 142.1,-54.78 135.58,-46.42 131.79,-52.31"/>
</a>
</g>
</g>
<!-- Node4 -->
<g id="Node000004" class="node">
<title>Node4</title>
<g id="a_Node000004"><a xlink:href="classAsyncFw_1_1DataArrayTcpServer.html" target="_top" xlink:title="The DataArrayTcpServer class.">
<polygon fill="white" stroke="#666666" points="317.5,-20 166.5,-20 166.5,0 317.5,0 317.5,-20"/>
<text text-anchor="middle" x="242" y="-6.5" font-family="Helvetica,sans-Serif" font-size="10.00">AsyncFw::DataArrayTcpServer</text>
</a>
</g>
</g>
<!-- Node2&#45;&gt;Node4 -->
<g id="edge3_Node000002_Node000004" class="edge">
<title>Node2&#45;&gt;Node4</title>
<g id="a_edge3_Node000002_Node000004"><a xlink:title=" ">
<path fill="none" stroke="#63b8ff" d="M182.05,-49.54C196.63,-40.17 214.77,-28.51 227.25,-20.48"/>
<polygon fill="#63b8ff" stroke="#63b8ff" points="180.42,-46.42 173.9,-54.78 184.21,-52.31 180.42,-46.42"/>
</a>
</g>
</g>
</g>
</svg>
