<?xml version="1.0" encoding="UTF-8" standalone="no"?>
<!DOCTYPE svg PUBLIC "-//W3C//DTD SVG 1.1//EN"
 "http://www.w3.org/Graphics/SVG/1.1/DTD/svg11.dtd">
<!-- Generated by graphviz version 12.2.1 (20241206.2353)
 -->
<!-- Title: AsyncFw::Log Pages: 1 -->
<svg width="1057pt" height="156pt"
 viewBox="0.00 0.00 1056.75 156.00" xmlns="http://www.w3.org/2000/svg" xmlns:xlink="http://www.w3.org/1999/xlink">
<g id="graph0" class="graph" transform="scale(1 1) rotate(0) translate(4 152)">
<title>AsyncFw::Log</title>
<!-- Node1 -->
<g id="Node000001" class="node">
<title>Node1</title>
<g id="a_Node000001"><a xlink:title="The Log class.">
<polygon fill="#999999" stroke="#666666" points="1048.75,-76 969.75,-76 969.75,-56 1048.75,-56 1048.75,-76"/>
<text text-anchor="middle" x="1009.25" y="-62.5" font-family="Helvetica,sans-Serif" font-size="10.00">AsyncFw::Log</text>
</a>
</g>
</g>
<!-- Node2 -->
<g id="Node000002" class="node">
<title>Node2</title>
<g id="a_Node000002"><a xlink:href="classAsyncFw_1_1Rrd.html" target="_top" xlink:title="The Rrd class.">
<polygon fill="white" stroke="#666666" points="914.38,-102 835.38,-102 835.38,-82 914.38,-82 914.38,-102"/>
<text text-anchor="middle" x="874.88" y="-88.5" font-family="Helvetica,sans-Serif" font-size="10.00">AsyncFw::Rrd</text>
</a>
</g>
</g>
<!-- Node2&#45;&gt;Node1 -->
<g id="edge1_Node000001_Node000002" class="edge">
<title>Node2&#45;&gt;Node1</title>
<g id="a_edge1_Node000001_Node000002"><a xlink:title=" ">
<path fill="none" stroke="#63b8ff" d="M925.78,-82.2C940.19,-79.37 955.69,-76.32 969.33,-73.64"/>
<polygon fill="#63b8ff" stroke="#63b8ff" points="925.14,-78.76 916,-84.12 926.49,-85.63 925.14,-78.76"/>
</a>
</g>
</g>
<!-- Node3 -->
<g id="Node000003" class="node">
<title>Node3</title>
<g id="a_Node000003"><a xlink:href="classAsyncFw_1_1FunctionConnectorProtected.html" target="_top" xlink:title=" ">
<polygon fill="white" stroke="#666666" points="595.5,-114 449.75,-114 449.75,-82 595.5,-82 595.5,-114"/>
<text text-anchor="start" x="457.75" y="-100.5" font-family="Helvetica,sans-Serif" font-size="10.00">AsyncFw::FunctionConnector</text>
<text text-anchor="middle" x="522.62" y="-88.5" font-family="Helvetica,sans-Serif" font-size="10.00">Protected&lt; AsyncFw::Rrd &gt;</text>
</a>
</g>
</g>
<!-- Node3&#45;&gt;Node2 -->
<g id="edge2_Node000002_Node000003" class="edge">
<title>Node3&#45;&gt;Node2</title>
<g id="a_edge2_Node000002_Node000003"><a xlink:title=" ">
<path fill="none" stroke="#9a32cd" stroke-dasharray="5,2" d="M607.09,-96.57C679.2,-95.33 780.2,-93.6 834.92,-92.67"/>
<polygon fill="#9a32cd" stroke="#9a32cd" points="607.22,-93.07 597.29,-96.74 607.34,-100.07 607.22,-93.07"/>
</a>
</g>
<text text-anchor="middle" x="675.12" y="-98.87" font-family="Helvetica,sans-Serif" font-size="10.00" fill="grey"> updated</text>
</g>
<!-- Node4 -->
<g id="Node000004" class="node">
<title>Node4</title>
<g id="a_Node000004"><a xlink:href="classAsyncFw_1_1FunctionConnectorProtected.html" target="_top" xlink:title="Защищенный коннетор, отправитель может быть только один.">
<polygon fill="white" stroke="#666666" points="145.75,-73 0,-73 0,-41 145.75,-41 145.75,-73"/>
<text text-anchor="start" x="8" y="-59.5" font-family="Helvetica,sans-Serif" font-size="10.00">AsyncFw::FunctionConnector</text>
<text text-anchor="middle" x="72.88" y="-47.5" font-family="Helvetica,sans-Serif" font-size="10.00">Protected&lt; F &gt;</text>
</a>
</g>
</g>
<!-- Node4&#45;&gt;Node3 -->
<g id="edge3_Node000003_Node000004" class="edge">
<title>Node4&#45;&gt;Node3</title>
<g id="a_edge3_Node000003_Node000004"><a xlink:title=" ">
<path fill="none" stroke="orange" stroke-dasharray="5,2" d="M157.38,-66.49C194.65,-70.59 239.13,-75.28 279.25,-79 336.41,-84.3 401.24,-89.33 449.46,-92.88"/>
<polygon fill="orange" stroke="orange" points="157.89,-63.03 147.56,-65.41 157.12,-69.98 157.89,-63.03"/>
</a>
</g>
<text text-anchor="middle" x="212.5" y="-79.61" font-family="Helvetica,sans-Serif" font-size="10.00" fill="grey"> &lt; AsyncFw::Rrd &gt;</text>
</g>
<!-- Node7 -->
<g id="Node000007" class="node">
<title>Node7</title>
<g id="a_Node000007"><a xlink:href="classAsyncFw_1_1FunctionConnectorProtected.html" target="_top" xlink:title=" ">
<polygon fill="white" stroke="#666666" points="431.75,-32 279.25,-32 279.25,0 431.75,0 431.75,-32"/>
<text text-anchor="start" x="287.25" y="-18.5" font-family="Helvetica,sans-Serif" font-size="10.00">AsyncFw::FunctionConnector</text>
<text text-anchor="middle" x="355.5" y="-6.5" font-family="Helvetica,sans-Serif" font-size="10.00">Protected&lt; AsyncFw::Thread &gt;</text>
</a>
</g>
</g>
<!-- Node4&#45;&gt;Node7 -->
<g id="edge7_Node000007_Node000004" class="edge">
<title>Node4&#45;&gt;Node7</title>
<g id="a_edge7_Node000007_Node000004"><a xlink:title=" ">
<path fill="none" stroke="orange" stroke-dasharray="5,2" d="M157.36,-44.8C195.97,-39.16 241.48,-32.51 279.05,-27.02"/>
<polygon fill="orange" stroke="orange" points="157.03,-41.31 147.64,-46.22 158.04,-48.24 157.03,-41.31"/>
</a>
</g>
<text text-anchor="middle" x="212.5" y="-46.24" font-family="Helvetica,sans-Serif" font-size="10.00" fill="grey"> &lt; AsyncFw::Thread &gt;</text>
</g>
<!-- Node5 -->
<g id="Node000005" class="node">
<title>Node5</title>
<g id="a_Node000005"><a xlink:href="classAsyncFw_1_1Thread.html" target="_top" xlink:title="AsyncFw::Thread thread with sockets.">
<polygon fill="white" stroke="#666666" points="721.75,-54 628.5,-54 628.5,-34 721.75,-34 721.75,-54"/>
<text text-anchor="middle" x="675.12" y="-40.5" font-family="Helvetica,sans-Serif" font-size="10.00">AsyncFw::Thread</text>
</a>
</g>
</g>
<!-- Node5&#45;&gt;Node2 -->
<g id="edge4_Node000002_Node000005" class="edge">
<title>Node5&#45;&gt;Node2</title>
<g id="a_edge4_Node000002_Node000005"><a xlink:title=" ">
<path fill="none" stroke="#9a32cd" stroke-dasharray="5,2" d="M733.23,-56.55C753.98,-61.23 777.59,-66.7 799,-72 811.02,-74.97 824.07,-78.39 835.85,-81.55"/>
<polygon fill="#9a32cd" stroke="#9a32cd" points="734.03,-53.14 723.5,-54.37 732.49,-59.97 734.03,-53.14"/>
</a>
</g>
<text text-anchor="middle" x="776.88" y="-74.5" font-family="Helvetica,sans-Serif" font-size="10.00" fill="grey"> thread_</text>
</g>
<!-- Node9 -->
<g id="Node000009" class="node">
<title>Node9</title>
<g id="a_Node000009"><a xlink:href="classAsyncFw_1_1AbstractLog.html" target="_top" xlink:title="The AbstractLog class provides the base functionality for logger.">
<polygon fill="white" stroke="#666666" points="932.75,-58 817,-58 817,-38 932.75,-38 932.75,-58"/>
<text text-anchor="middle" x="874.88" y="-44.5" font-family="Helvetica,sans-Serif" font-size="10.00">AsyncFw::AbstractLog</text>
</a>
</g>
</g>
<!-- Node5&#45;&gt;Node9 -->
<g id="edge10_Node000009_Node000005" class="edge">
<title>Node5&#45;&gt;Node9</title>
<g id="a_edge10_Node000009_Node000005"><a xlink:title=" ">
<path fill="none" stroke="#9a32cd" stroke-dasharray="5,2" d="M733.7,-37.63C754.31,-36.17 777.7,-35.44 799,-37 804.77,-37.42 810.76,-38.02 816.74,-38.73"/>
<polygon fill="#9a32cd" stroke="#9a32cd" points="733.44,-34.14 723.75,-38.42 734,-41.12 733.44,-34.14"/>
</a>
</g>
<text text-anchor="middle" x="776.88" y="-39.5" font-family="Helvetica,sans-Serif" font-size="10.00" fill="grey"> thread_</text>
</g>
<!-- Node6 -->
<g id="Node000006" class="node">
<title>Node6</title>
<g id="a_Node000006"><a xlink:href="classAsyncFw_1_1AbstractThread.html" target="_top" xlink:title="The AbstractThread class provides the base functionality for thread management.">
<polygon fill="white" stroke="#666666" points="420.5,-70 290.5,-70 290.5,-50 420.5,-50 420.5,-70"/>
<text text-anchor="middle" x="355.5" y="-56.5" font-family="Helvetica,sans-Serif" font-size="10.00">AsyncFw::AbstractThread</text>
</a>
</g>
</g>
<!-- Node6&#45;&gt;Node5 -->
<g id="edge5_Node000005_Node000006" class="edge">
<title>Node6&#45;&gt;Node5</title>
<g id="a_edge5_Node000005_Node000006"><a xlink:title=" ">
<path fill="none" stroke="#63b8ff" d="M431.9,-56.2C493,-53.12 577.1,-48.89 628.43,-46.3"/>
<polygon fill="#63b8ff" stroke="#63b8ff" points="432.1,-52.69 422.29,-56.69 432.45,-59.68 432.1,-52.69"/>
</a>
</g>
</g>
<!-- Node7&#45;&gt;Node5 -->
<g id="edge6_Node000005_Node000007" class="edge">
<title>Node7&#45;&gt;Node5</title>
<g id="a_edge6_Node000005_Node000007"><a xlink:title=" ">
<path fill="none" stroke="#9a32cd" stroke-dasharray="5,2" d="M443.38,-11.65C488.94,-10.83 545.52,-12.11 595.5,-20 612.84,-22.74 631.67,-28.38 646.55,-33.51"/>
<polygon fill="#9a32cd" stroke="#9a32cd" points="443.48,-8.15 433.56,-11.87 443.64,-15.15 443.48,-8.15"/>
</a>
</g>
<text text-anchor="middle" x="522.62" y="-34.5" font-family="Helvetica,sans-Serif" font-size="10.00" fill="grey"> finished</text>
<text text-anchor="middle" x="522.62" y="-22.5" font-family="Helvetica,sans-Serif" font-size="10.00" fill="grey">started</text>
</g>
<!-- Node8 -->
<g id="Node000008" class="node">
<title>Node8</title>
<g id="a_Node000008"><a xlink:href="classAsyncFw_1_1DataArrayList.html" target="_top" xlink:title="The DataArrayList class.">
<polygon fill="white" stroke="#666666" points="736.75,-148 613.5,-148 613.5,-128 736.75,-128 736.75,-148"/>
<text text-anchor="middle" x="675.12" y="-134.5" font-family="Helvetica,sans-Serif" font-size="10.00">AsyncFw::DataArrayList</text>
</a>
</g>
</g>
<!-- Node8&#45;&gt;Node2 -->
<g id="edge8_Node000002_Node000008" class="edge">
<title>Node8&#45;&gt;Node2</title>
<g id="a_edge8_Node000002_Node000008"><a xlink:title=" ">
<path fill="none" stroke="#9a32cd" stroke-dasharray="5,2" d="M739.6,-125.23C758.74,-121.2 779.77,-116.6 799,-112 811.17,-109.09 824.38,-105.65 836.27,-102.46"/>
<polygon fill="#9a32cd" stroke="#9a32cd" points="739.13,-121.75 730.06,-127.22 740.56,-128.61 739.13,-121.75"/>
</a>
</g>
<text text-anchor="middle" x="776.88" y="-124.41" font-family="Helvetica,sans-Serif" font-size="10.00" fill="grey"> dataBase</text>
</g>
<!-- Node9&#45;&gt;Node1 -->
<g id="edge9_Node000001_Node000009" class="edge">
<title>Node9&#45;&gt;Node1</title>
<g id="a_edge9_Node000001_Node000009"><a xlink:title=" ">
<path fill="none" stroke="#63b8ff" d="M944.47,-57.33C953.09,-58.5 961.65,-59.66 969.57,-60.74"/>
<polygon fill="#63b8ff" stroke="#63b8ff" points="945.05,-53.87 934.67,-55.99 944.1,-60.81 945.05,-53.87"/>
</a>
</g>
</g>
</g>
</svg>
