<?xml version="1.0" encoding="UTF-8" standalone="no"?>
<!DOCTYPE svg PUBLIC "-//W3C//DTD SVG 1.1//EN"
 "http://www.w3.org/Graphics/SVG/1.1/DTD/svg11.dtd">
<!-- Generated by graphviz version 14.1.3 (20260303.0454)
 -->
<!-- Title: AsyncFw::AbstractSocket::write Pages: 1 -->
<svg width="635pt" height="140pt"
 viewBox="0.00 0.00 635.00 140.00" xmlns="http://www.w3.org/2000/svg" xmlns:xlink="http://www.w3.org/1999/xlink">
<g id="graph0" class="graph" transform="scale(1 1) rotate(0) translate(4 136)">
<title>AsyncFw::AbstractSocket::write</title>
<!-- Node1 -->
<g id="Node000001" class="node">
<title>Node1</title>
<g id="a_Node000001"><a xlink:title="Writes raw binary bytes out to the network socket layer.">
<polygon fill="#999999" stroke="#666666" points="626.5,-82 495.75,-82 495.75,-50 626.5,-50 626.5,-82"/>
<text xml:space="preserve" text-anchor="start" x="503.75" y="-68.5" font-family="Helvetica,sans-Serif" font-size="10.00">AsyncFw::AbstractSocket</text>
<text xml:space="preserve" text-anchor="middle" x="561.12" y="-56.5" font-family="Helvetica,sans-Serif" font-size="10.00">::write</text>
</a>
</g>
</g>
<!-- Node2 -->
<g id="Node000002" class="node">
<title>Node2</title>
<g id="a_Node000002"><a xlink:href="classAsyncFw_1_1AbstractSocket.html#a4ad7bcd91ec7a91270d83bf583d62be1" target="_top" xlink:title="Transmits a structural DataArray package out to the network layer.">
<polygon fill="white" stroke="#666666" points="459.75,-132 329,-132 329,-100 459.75,-100 459.75,-132"/>
<text xml:space="preserve" text-anchor="start" x="337" y="-118.5" font-family="Helvetica,sans-Serif" font-size="10.00">AsyncFw::AbstractSocket</text>
<text xml:space="preserve" text-anchor="middle" x="394.38" y="-106.5" font-family="Helvetica,sans-Serif" font-size="10.00">::write</text>
</a>
</g>
</g>
<!-- Node1&#45;&gt;Node2 -->
<g id="edge1_Node000001_Node000002" class="edge">
<title>Node1&#45;&gt;Node2</title>
<g id="a_edge1_Node000001_Node000002"><a xlink:title=" ">
<path fill="none" stroke="#63b8ff" d="M495.36,-85.66C480.26,-90.24 464.32,-95.08 449.72,-99.51"/>
<polygon fill="#63b8ff" stroke="#63b8ff" points="496.18,-89.06 504.73,-82.81 494.15,-82.37 496.18,-89.06"/>
</a>
</g>
</g>
<!-- Node3 -->
<g id="Node000003" class="node">
<title>Node3</title>
<g id="a_Node000003"><a xlink:href="classAsyncFw_1_1AbstractSocket.html#a4659df5988d2af771d4feee9edec55d8" target="_top" xlink:title="Low&#45;level native operating system write operation proxying requests directly up to the fd handle.">
<polygon fill="white" stroke="#666666" points="459.75,-82 329,-82 329,-50 459.75,-50 459.75,-82"/>
<text xml:space="preserve" text-anchor="start" x="337" y="-68.5" font-family="Helvetica,sans-Serif" font-size="10.00">AsyncFw::AbstractSocket</text>
<text xml:space="preserve" text-anchor="middle" x="394.38" y="-56.5" font-family="Helvetica,sans-Serif" font-size="10.00">::write_fd</text>
</a>
</g>
</g>
<!-- Node1&#45;&gt;Node3 -->
<g id="edge2_Node000001_Node000003" class="edge">
<title>Node1&#45;&gt;Node3</title>
<g id="a_edge2_Node000001_Node000003"><a xlink:title=" ">
<path fill="none" stroke="#63b8ff" d="M484.19,-59.27C476.14,-59.22 468.01,-59.26 460.1,-59.39"/>
<polygon fill="#63b8ff" stroke="#63b8ff" points="483.93,-62.77 493.97,-59.37 484.01,-55.77 483.93,-62.77"/>
</a>
</g>
</g>
<!-- Node7 -->
<g id="Node000007" class="node">
<title>Node7</title>
<g id="a_Node000007"><a xlink:href="classAsyncFw_1_1HttpSocket.html#ac276bcd3a5e86289eb37ea7fd062559b" target="_top" xlink:title="Called when writing to the socket is possible.">
<polygon fill="white" stroke="#666666" points="450.75,-32 338,-32 338,0 450.75,0 450.75,-32"/>
<text xml:space="preserve" text-anchor="start" x="346" y="-18.5" font-family="Helvetica,sans-Serif" font-size="10.00">AsyncFw::HttpSocket</text>
<text xml:space="preserve" text-anchor="middle" x="394.38" y="-6.5" font-family="Helvetica,sans-Serif" font-size="10.00">::writeEvent</text>
</a>
</g>
</g>
<!-- Node1&#45;&gt;Node7 -->
<g id="edge7_Node000001_Node000007" class="edge">
<title>Node1&#45;&gt;Node7</title>
<g id="a_edge7_Node000001_Node000007"><a xlink:title=" ">
<path fill="none" stroke="#63b8ff" d="M495.36,-46.34C480.26,-41.76 464.32,-36.92 449.72,-32.49"/>
<polygon fill="#63b8ff" stroke="#63b8ff" points="494.15,-49.63 504.73,-49.19 496.18,-42.94 494.15,-49.63"/>
</a>
</g>
</g>
<!-- Node3&#45;&gt;Node1 -->
<g id="edge5_Node000003_Node000001" class="edge">
<title>Node3&#45;&gt;Node1</title>
<g id="a_edge5_Node000003_Node000001"><a xlink:title=" ">
<path fill="none" stroke="#63b8ff" d="M471.4,-72.73C479.45,-72.78 487.58,-72.74 495.48,-72.61"/>
<polygon fill="#63b8ff" stroke="#63b8ff" points="471.65,-69.23 461.61,-72.63 471.57,-76.23 471.65,-69.23"/>
</a>
</g>
</g>
<!-- Node4 -->
<g id="Node000004" class="node">
<title>Node4</title>
<g id="a_Node000004"><a xlink:href="classAsyncFw_1_1AbstractTlsSocket.html#a57ac6daff9926cf631abcd1e19073cc8" target="_top" xlink:title="Core internal event handler reacting to raw descriptor readiness signals.">
<polygon fill="white" stroke="#666666" points="293,-107 148.75,-107 148.75,-75 293,-75 293,-107"/>
<text xml:space="preserve" text-anchor="start" x="156.75" y="-93.5" font-family="Helvetica,sans-Serif" font-size="10.00">AsyncFw::AbstractTlsSocket</text>
<text xml:space="preserve" text-anchor="middle" x="220.88" y="-81.5" font-family="Helvetica,sans-Serif" font-size="10.00">::activateEvent</text>
</a>
</g>
</g>
<!-- Node3&#45;&gt;Node4 -->
<g id="edge3_Node000003_Node000004" class="edge">
<title>Node3&#45;&gt;Node4</title>
<g id="a_edge3_Node000003_Node000004"><a xlink:title=" ">
<path fill="none" stroke="#63b8ff" d="M317.37,-77.08C309.4,-78.24 301.32,-79.42 293.4,-80.57"/>
<polygon fill="#63b8ff" stroke="#63b8ff" points="317.65,-80.58 327.04,-75.67 316.64,-73.65 317.65,-80.58"/>
</a>
</g>
</g>
<!-- Node6 -->
<g id="Node000006" class="node">
<title>Node6</title>
<g id="a_Node000006"><a xlink:href="classAsyncFw_1_1AbstractTlsSocket.html#a84a79c1f921e96efd6b4f47cd7cd91e0" target="_top" xlink:title="Low&#45;level encryption routing path proxying outgoing payload directly up to SSL_write().">
<polygon fill="white" stroke="#666666" points="293,-57 148.75,-57 148.75,-25 293,-25 293,-57"/>
<text xml:space="preserve" text-anchor="start" x="156.75" y="-43.5" font-family="Helvetica,sans-Serif" font-size="10.00">AsyncFw::AbstractTlsSocket</text>
<text xml:space="preserve" text-anchor="middle" x="220.88" y="-31.5" font-family="Helvetica,sans-Serif" font-size="10.00">::write_fd</text>
</a>
</g>
</g>
<!-- Node3&#45;&gt;Node6 -->
<g id="edge6_Node000003_Node000006" class="edge">
<title>Node3&#45;&gt;Node6</title>
<g id="a_edge6_Node000003_Node000006"><a xlink:title=" ">
<path fill="none" stroke="#63b8ff" d="M317.37,-54.92C309.4,-53.76 301.32,-52.58 293.4,-51.43"/>
<polygon fill="#63b8ff" stroke="#63b8ff" points="316.64,-58.35 327.04,-56.33 317.65,-51.42 316.64,-58.35"/>
</a>
</g>
</g>
<!-- Node5 -->
<g id="Node000005" class="node">
<title>Node5</title>
<g id="a_Node000005"><a xlink:href="classAsyncFw_1_1HttpSocket.html#ad51bb1bf5880c3037c7ad70231c0767d" target="_top" xlink:title="Core internal event handler reacting to raw descriptor readiness signals.">
<polygon fill="white" stroke="#666666" points="112.75,-107 0,-107 0,-75 112.75,-75 112.75,-107"/>
<text xml:space="preserve" text-anchor="start" x="8" y="-93.5" font-family="Helvetica,sans-Serif" font-size="10.00">AsyncFw::HttpSocket</text>
<text xml:space="preserve" text-anchor="middle" x="56.38" y="-81.5" font-family="Helvetica,sans-Serif" font-size="10.00">::activateEvent</text>
</a>
</g>
</g>
<!-- Node4&#45;&gt;Node5 -->
<g id="edge4_Node000004_Node000005" class="edge">
<title>Node4&#45;&gt;Node5</title>
<g id="a_edge4_Node000004_Node000005"><a xlink:title=" ">
<path fill="none" stroke="#63b8ff" d="M137.35,-91C129.09,-91 120.85,-91 112.96,-91"/>
<polygon fill="#63b8ff" stroke="#63b8ff" points="137.09,-94.5 147.09,-91 137.09,-87.5 137.09,-94.5"/>
</a>
</g>
</g>
</g>
</svg>
