<?xml version="1.0" encoding="UTF-8" standalone="no"?>
<!DOCTYPE svg PUBLIC "-//W3C//DTD SVG 1.1//EN"
 "http://www.w3.org/Graphics/SVG/1.1/DTD/svg11.dtd">
<!-- Generated by graphviz version 12.2.1 (20241206.2353)
 -->
<!-- Title: AsyncFw::AbstractThread::invoke Pages: 1 -->
<svg width="436pt" height="140pt"
 viewBox="0.00 0.00 435.50 140.00" xmlns="http://www.w3.org/2000/svg" xmlns:xlink="http://www.w3.org/1999/xlink">
<g id="graph0" class="graph" transform="scale(1 1) rotate(0) translate(4 136)">
<title>AsyncFw::AbstractThread::invoke</title>
<!-- Node1 -->
<g id="Node000001" class="node">
<title>Node1</title>
<g id="a_Node000001"><a xlink:title="Runs a function in a managed thread.">
<polygon fill="#999999" stroke="#666666" points="427.5,-82 297.5,-82 297.5,-50 427.5,-50 427.5,-82"/>
<text text-anchor="start" x="305.5" y="-68.5" font-family="Helvetica,sans-Serif" font-size="10.00">AsyncFw::AbstractThread</text>
<text text-anchor="middle" x="362.5" y="-56.5" font-family="Helvetica,sans-Serif" font-size="10.00">::invoke</text>
</a>
</g>
</g>
<!-- Node2 -->
<g id="Node000002" class="node">
<title>Node2</title>
<g id="a_Node000002"><a xlink:href="classAsyncFw_1_1ThreadPool.html#a0a35c4070964e69b187842b69b04d325" target="_top" xlink:title="Asynchronously invokes a function in the given thread&#39;s event loop.">
<polygon fill="white" stroke="#666666" points="261.5,-132 148.75,-132 148.75,-100 261.5,-100 261.5,-132"/>
<text text-anchor="start" x="156.75" y="-118.5" font-family="Helvetica,sans-Serif" font-size="10.00">AsyncFw::ThreadPool</text>
<text text-anchor="middle" x="205.12" y="-106.5" font-family="Helvetica,sans-Serif" font-size="10.00">::async</text>
</a>
</g>
</g>
<!-- Node1&#45;&gt;Node2 -->
<g id="edge1_Node000001_Node000002" class="edge">
<title>Node1&#45;&gt;Node2</title>
<g id="a_edge1_Node000001_Node000002"><a xlink:title=" ">
<path fill="none" stroke="#63b8ff" d="M300,-85.79C285.88,-90.33 271.02,-95.12 257.38,-99.51"/>
<polygon fill="#63b8ff" stroke="#63b8ff" points="300.74,-89.23 309.18,-82.84 298.59,-82.57 300.74,-89.23"/>
</a>
</g>
</g>
<!-- Node4 -->
<g id="Node000004" class="node">
<title>Node4</title>
<g id="a_Node000004"><a xlink:href="classAsyncFw_1_1ThreadPool.html#a9919894e586310a7ea5b780845376e17" target="_top" xlink:title="Asynchronously invokes a void function in the target thread, and executes a result callback in the ca...">
<polygon fill="white" stroke="#666666" points="261.5,-82 148.75,-82 148.75,-50 261.5,-50 261.5,-82"/>
<text text-anchor="start" x="156.75" y="-68.5" font-family="Helvetica,sans-Serif" font-size="10.00">AsyncFw::ThreadPool</text>
<text text-anchor="middle" x="205.12" y="-56.5" font-family="Helvetica,sans-Serif" font-size="10.00">::async</text>
</a>
</g>
</g>
<!-- Node1&#45;&gt;Node4 -->
<g id="edge3_Node000001_Node000004" class="edge">
<title>Node1&#45;&gt;Node4</title>
<g id="a_edge3_Node000001_Node000004"><a xlink:title=" ">
<path fill="none" stroke="#63b8ff" d="M285.9,-66C277.73,-66 269.52,-66 261.64,-66"/>
<polygon fill="#63b8ff" stroke="#63b8ff" points="285.89,-69.5 295.89,-66 285.89,-62.5 285.89,-69.5"/>
</a>
</g>
</g>
<!-- Node5 -->
<g id="Node000005" class="node">
<title>Node5</title>
<g id="a_Node000005"><a xlink:href="classAsyncFw_1_1ThreadPool.html#add8ee85dd7581acb117a805ff5a8c18a" target="_top" xlink:title="Synchronously invokes a function in the given thread&#39;s event loop (blocks the caller).">
<polygon fill="white" stroke="#666666" points="261.5,-32 148.75,-32 148.75,0 261.5,0 261.5,-32"/>
<text text-anchor="start" x="156.75" y="-18.5" font-family="Helvetica,sans-Serif" font-size="10.00">AsyncFw::ThreadPool</text>
<text text-anchor="middle" x="205.12" y="-6.5" font-family="Helvetica,sans-Serif" font-size="10.00">::sync</text>
</a>
</g>
</g>
<!-- Node1&#45;&gt;Node5 -->
<g id="edge4_Node000001_Node000005" class="edge">
<title>Node1&#45;&gt;Node5</title>
<g id="a_edge4_Node000001_Node000005"><a xlink:title=" ">
<path fill="none" stroke="#63b8ff" d="M300,-46.21C285.88,-41.67 271.02,-36.88 257.38,-32.49"/>
<polygon fill="#63b8ff" stroke="#63b8ff" points="298.59,-49.43 309.18,-49.16 300.74,-42.77 298.59,-49.43"/>
</a>
</g>
</g>
<!-- Node3 -->
<g id="Node000003" class="node">
<title>Node3</title>
<g id="a_Node000003"><a xlink:href="classAsyncFw_1_1ThreadPool.html#a5af6a927b72eec19abb94ee2477d00b5" target="_top" xlink:title="Asynchronously invokes a function in the global pool, returning the result to a callback in the calle...">
<polygon fill="white" stroke="#666666" points="112.75,-132 0,-132 0,-100 112.75,-100 112.75,-132"/>
<text text-anchor="start" x="8" y="-118.5" font-family="Helvetica,sans-Serif" font-size="10.00">AsyncFw::ThreadPool</text>
<text text-anchor="middle" x="56.38" y="-106.5" font-family="Helvetica,sans-Serif" font-size="10.00">::async</text>
</a>
</g>
</g>
<!-- Node2&#45;&gt;Node3 -->
<g id="edge2_Node000002_Node000003" class="edge">
<title>Node2&#45;&gt;Node3</title>
<g id="a_edge2_Node000002_Node000003"><a xlink:title=" ">
<path fill="none" stroke="#63b8ff" d="M137.26,-116C129.12,-116 120.88,-116 112.93,-116"/>
<polygon fill="#63b8ff" stroke="#63b8ff" points="137.13,-119.5 147.13,-116 137.13,-112.5 137.13,-119.5"/>
</a>
</g>
</g>
</g>
</svg>
