<?xml version="1.0" encoding="UTF-8" standalone="no"?>
<!DOCTYPE svg PUBLIC "-//W3C//DTD SVG 1.1//EN"
 "http://www.w3.org/Graphics/SVG/1.1/DTD/svg11.dtd">
<!-- Generated by graphviz version 12.2.1 (20241206.2353)
 -->
<!-- Title: AsyncFw::Instance&lt; T &gt; Pages: 1 -->
<svg width="656pt" height="240pt"
 viewBox="0.00 0.00 656.25 240.00" xmlns="http://www.w3.org/2000/svg" xmlns:xlink="http://www.w3.org/1999/xlink">
<g id="graph0" class="graph" transform="scale(1 1) rotate(0) translate(4 236)">
<title>AsyncFw::Instance&lt; T &gt;</title>
<!-- Node1 -->
<g id="Node000001" class="node">
<title>Node1</title>
<g id="a_Node000001"><a xlink:title="The Instance class.">
<polygon fill="#999999" stroke="#666666" points="299.25,-126 174.5,-126 174.5,-106 299.25,-106 299.25,-126"/>
<text text-anchor="middle" x="236.88" y="-112.5" font-family="Helvetica,sans-Serif" font-size="10.00">AsyncFw::Instance&lt; T &gt;</text>
</a>
</g>
</g>
<!-- Node3 -->
<g id="Node000003" class="node">
<title>Node3</title>
<g id="a_Node000003"><a xlink:href="classAsyncFw_1_1Instance.html" target="_top" xlink:title=" ">
<polygon fill="white" stroke="#666666" points="621.62,-232 514.88,-232 514.88,-200 621.62,-200 621.62,-232"/>
<text text-anchor="start" x="522.88" y="-218.5" font-family="Helvetica,sans-Serif" font-size="10.00">AsyncFw::Instance&lt;</text>
<text text-anchor="middle" x="568.25" y="-206.5" font-family="Helvetica,sans-Serif" font-size="10.00"> Log &gt;</text>
</a>
</g>
</g>
<!-- Node1&#45;&gt;Node3 -->
<g id="edge2_Node000001_Node000003" class="edge">
<title>Node1&#45;&gt;Node3</title>
<g id="a_edge2_Node000001_Node000003"><a xlink:title=" ">
<path fill="none" stroke="orange" stroke-dasharray="5,2" d="M258.18,-133.34C273.45,-145.46 295.42,-161.03 317.25,-170 382.16,-196.66 462.88,-207.95 514.73,-212.67"/>
<polygon fill="orange" stroke="orange" points="260.73,-130.9 250.77,-127.28 256.3,-136.32 260.73,-130.9"/>
</a>
</g>
<text text-anchor="middle" x="393.75" y="-210.02" font-family="Helvetica,sans-Serif" font-size="10.00" fill="grey"> &lt; Log &gt;</text>
</g>
<!-- Node4 -->
<g id="Node000004" class="node">
<title>Node4</title>
<g id="a_Node000004"><a xlink:href="classAsyncFw_1_1Instance.html" target="_top" xlink:title=" ">
<polygon fill="white" stroke="#666666" points="648.25,-182 488.25,-182 488.25,-150 648.25,-150 648.25,-182"/>
<text text-anchor="start" x="496.25" y="-168.5" font-family="Helvetica,sans-Serif" font-size="10.00">AsyncFw::Instance&lt;</text>
<text text-anchor="middle" x="568.25" y="-156.5" font-family="Helvetica,sans-Serif" font-size="10.00"> AsyncFw::FileSystemWatcher &gt;</text>
</a>
</g>
</g>
<!-- Node1&#45;&gt;Node4 -->
<g id="edge3_Node000001_Node000004" class="edge">
<title>Node1&#45;&gt;Node4</title>
<g id="a_edge3_Node000001_Node000004"><a xlink:title=" ">
<path fill="none" stroke="orange" stroke-dasharray="5,2" d="M298.58,-128.65C304.88,-129.84 311.19,-130.98 317.25,-132 374.16,-141.6 438.7,-150.32 487.96,-156.53"/>
<polygon fill="orange" stroke="orange" points="299.29,-125.22 288.81,-126.76 297.97,-132.09 299.29,-125.22"/>
</a>
</g>
<text text-anchor="middle" x="393.75" y="-156.17" font-family="Helvetica,sans-Serif" font-size="10.00" fill="grey"> &lt; AsyncFw::FileSystemWatcher &gt;</text>
</g>
<!-- Node5 -->
<g id="Node000005" class="node">
<title>Node5</title>
<g id="a_Node000005"><a xlink:href="classAsyncFw_1_1Instance.html" target="_top" xlink:title=" ">
<polygon fill="white" stroke="#666666" points="629.12,-132 507.38,-132 507.38,-100 629.12,-100 629.12,-132"/>
<text text-anchor="start" x="515.38" y="-118.5" font-family="Helvetica,sans-Serif" font-size="10.00">AsyncFw::Instance&lt;</text>
<text text-anchor="middle" x="568.25" y="-106.5" font-family="Helvetica,sans-Serif" font-size="10.00"> AsyncFw::HttpServer &gt;</text>
</a>
</g>
</g>
<!-- Node1&#45;&gt;Node5 -->
<g id="edge4_Node000001_Node000005" class="edge">
<title>Node1&#45;&gt;Node5</title>
<g id="a_edge4_Node000001_Node000005"><a xlink:title=" ">
<path fill="none" stroke="orange" stroke-dasharray="5,2" d="M310.91,-116C369.89,-116 451.86,-116 507.1,-116"/>
<polygon fill="orange" stroke="orange" points="310.96,-112.5 300.96,-116 310.96,-119.5 310.96,-112.5"/>
</a>
</g>
<text text-anchor="middle" x="393.75" y="-118.5" font-family="Helvetica,sans-Serif" font-size="10.00" fill="grey"> &lt; AsyncFw::HttpServer &gt;</text>
</g>
<!-- Node6 -->
<g id="Node000006" class="node">
<title>Node6</title>
<g id="a_Node000006"><a xlink:href="classAsyncFw_1_1Instance.html" target="_top" xlink:title=" ">
<polygon fill="white" stroke="#666666" points="634.38,-82 502.12,-82 502.12,-50 634.38,-50 634.38,-82"/>
<text text-anchor="start" x="510.12" y="-68.5" font-family="Helvetica,sans-Serif" font-size="10.00">AsyncFw::Instance&lt;</text>
<text text-anchor="middle" x="568.25" y="-56.5" font-family="Helvetica,sans-Serif" font-size="10.00"> AsyncFw::MulticastDns &gt;</text>
</a>
</g>
</g>
<!-- Node1&#45;&gt;Node6 -->
<g id="edge5_Node000001_Node000006" class="edge">
<title>Node1&#45;&gt;Node6</title>
<g id="a_edge5_Node000001_Node000006"><a xlink:title=" ">
<path fill="none" stroke="orange" stroke-dasharray="5,2" d="M298.58,-103.35C304.88,-102.16 311.19,-101.02 317.25,-100 379.66,-89.48 451.27,-80 501.81,-73.74"/>
<polygon fill="orange" stroke="orange" points="297.97,-99.91 288.81,-105.24 299.29,-106.78 297.97,-99.91"/>
</a>
</g>
<text text-anchor="middle" x="393.75" y="-102.5" font-family="Helvetica,sans-Serif" font-size="10.00" fill="grey"> &lt; AsyncFw::MulticastDns &gt;</text>
</g>
<!-- Node7 -->
<g id="Node000007" class="node">
<title>Node7</title>
<g id="a_Node000007"><a xlink:href="classAsyncFw_1_1Instance.html" target="_top" xlink:title=" ">
<polygon fill="white" stroke="#666666" points="630.25,-32 506.25,-32 506.25,0 630.25,0 630.25,-32"/>
<text text-anchor="start" x="514.25" y="-18.5" font-family="Helvetica,sans-Serif" font-size="10.00">AsyncFw::Instance&lt;</text>
<text text-anchor="middle" x="568.25" y="-6.5" font-family="Helvetica,sans-Serif" font-size="10.00"> AsyncFw::ThreadPool &gt;</text>
</a>
</g>
</g>
<!-- Node1&#45;&gt;Node7 -->
<g id="edge6_Node000001_Node000007" class="edge">
<title>Node1&#45;&gt;Node7</title>
<g id="a_edge6_Node000001_Node000007"><a xlink:title=" ">
<path fill="none" stroke="orange" stroke-dasharray="5,2" d="M258.18,-98.66C273.45,-86.54 295.42,-70.97 317.25,-62 378.59,-36.81 454.04,-25.34 505.91,-20.17"/>
<polygon fill="orange" stroke="orange" points="256.3,-95.68 250.77,-104.72 260.73,-101.1 256.3,-95.68"/>
</a>
</g>
<text text-anchor="middle" x="393.75" y="-64.5" font-family="Helvetica,sans-Serif" font-size="10.00" fill="grey"> &lt; AsyncFw::ThreadPool &gt;</text>
</g>
<!-- Node2 -->
<g id="Node000002" class="node">
<title>Node2</title>
<g id="a_Node000002"><a xlink:href="classAsyncFw_1_1AbstractInstance.html" target="_top" xlink:title="The AbstractInstance class.">
<polygon fill="white" stroke="#666666" points="137.5,-126 0,-126 0,-106 137.5,-106 137.5,-126"/>
<text text-anchor="middle" x="68.75" y="-112.5" font-family="Helvetica,sans-Serif" font-size="10.00">AsyncFw::AbstractInstance</text>
</a>
</g>
</g>
<!-- Node2&#45;&gt;Node1 -->
<g id="edge1_Node000001_Node000002" class="edge">
<title>Node2&#45;&gt;Node1</title>
<g id="a_edge1_Node000001_Node000002"><a xlink:title=" ">
<path fill="none" stroke="#63b8ff" d="M149.15,-116C157.52,-116 165.94,-116 174.07,-116"/>
<polygon fill="#63b8ff" stroke="#63b8ff" points="149.31,-112.5 139.31,-116 149.31,-119.5 149.31,-112.5"/>
</a>
</g>
</g>
</g>
</svg>
