<?xml version="1.0" encoding="UTF-8" standalone="no"?>
<!DOCTYPE svg PUBLIC "-//W3C//DTD SVG 1.1//EN"
 "http://www.w3.org/Graphics/SVG/1.1/DTD/svg11.dtd">
<!-- Generated by graphviz version 12.2.1 (20241206.2353)
 -->
<!-- Title: AsyncFw::DataArraySocket Pages: 1 -->
<svg width="1250pt" height="174pt"
 viewBox="0.00 0.00 1250.25 174.00" xmlns="http://www.w3.org/2000/svg" xmlns:xlink="http://www.w3.org/1999/xlink">
<g id="graph0" class="graph" transform="scale(1 1) rotate(0) translate(4 170)">
<title>AsyncFw::DataArraySocket</title>
<!-- Node1 -->
<g id="Node000001" class="node">
<title>Node1</title>
<g id="a_Node000001"><a xlink:title="The DataArraySocket class.">
<polygon fill="#999999" stroke="#666666" points="1242.25,-80 1104,-80 1104,-60 1242.25,-60 1242.25,-80"/>
<text text-anchor="middle" x="1173.12" y="-66.5" font-family="Helvetica,sans-Serif" font-size="10.00">AsyncFw::DataArraySocket</text>
</a>
</g>
</g>
<!-- Node2 -->
<g id="Node000002" class="node">
<title>Node2</title>
<g id="a_Node000002"><a xlink:href="classAsyncFw_1_1AbstractTlsSocket.html" target="_top" xlink:title="Abstract base class providing Transport Layer Security (TLS/SSL) encryption layers on top of standard...">
<polygon fill="white" stroke="#666666" points="1067,-118 922.75,-118 922.75,-98 1067,-98 1067,-118"/>
<text text-anchor="middle" x="994.88" y="-104.5" font-family="Helvetica,sans-Serif" font-size="10.00">AsyncFw::AbstractTlsSocket</text>
</a>
</g>
</g>
<!-- Node2&#45;&gt;Node1 -->
<g id="edge1_Node000001_Node000002" class="edge">
<title>Node2&#45;&gt;Node1</title>
<g id="a_edge1_Node000001_Node000002"><a xlink:title=" ">
<path fill="none" stroke="#63b8ff" d="M1055.49,-95.15C1077.68,-90.36 1102.58,-84.99 1123.66,-80.45"/>
<polygon fill="#63b8ff" stroke="#63b8ff" points="1055.02,-91.67 1045.98,-97.2 1056.5,-98.51 1055.02,-91.67"/>
</a>
</g>
</g>
<!-- Node3 -->
<g id="Node000003" class="node">
<title>Node3</title>
<g id="a_Node000003"><a xlink:href="classAsyncFw_1_1AbstractSocket.html" target="_top" xlink:title="Abstract base class providing core network socket functionality and OS descriptor abstraction.">
<polygon fill="white" stroke="#666666" points="741,-119 610.25,-119 610.25,-99 741,-99 741,-119"/>
<text text-anchor="middle" x="675.62" y="-105.5" font-family="Helvetica,sans-Serif" font-size="10.00">AsyncFw::AbstractSocket</text>
</a>
</g>
</g>
<!-- Node3&#45;&gt;Node2 -->
<g id="edge2_Node000002_Node000003" class="edge">
<title>Node3&#45;&gt;Node2</title>
<g id="a_edge2_Node000002_Node000003"><a xlink:title=" ">
<path fill="none" stroke="#63b8ff" d="M752.62,-108.76C804.18,-108.6 871.91,-108.38 922.48,-108.23"/>
<polygon fill="#63b8ff" stroke="#63b8ff" points="752.71,-105.26 742.72,-108.79 752.73,-112.26 752.71,-105.26"/>
</a>
</g>
</g>
<!-- Node4 -->
<g id="Node000004" class="node">
<title>Node4</title>
<g id="a_Node000004"><a xlink:href="structAsyncFw_1_1AnyData.html" target="_top" xlink:title="A generic, type&#45;safe data container block wrapper utilizing std::any.">
<polygon fill="white" stroke="#666666" points="414.38,-156 312.88,-156 312.88,-136 414.38,-136 414.38,-156"/>
<text text-anchor="middle" x="363.62" y="-142.5" font-family="Helvetica,sans-Serif" font-size="10.00">AsyncFw::AnyData</text>
</a>
</g>
</g>
<!-- Node4&#45;&gt;Node3 -->
<g id="edge3_Node000003_Node000004" class="edge">
<title>Node4&#45;&gt;Node3</title>
<g id="a_edge3_Node000003_Node000004"><a xlink:title=" ">
<path fill="none" stroke="#63b8ff" d="M425.79,-142.02C471.73,-138.63 536.11,-133.02 592.25,-125 602.92,-123.48 614.31,-121.49 625.1,-119.45"/>
<polygon fill="#63b8ff" stroke="#63b8ff" points="425.76,-138.51 416.03,-142.73 426.26,-145.5 425.76,-138.51"/>
</a>
</g>
</g>
<!-- Node5 -->
<g id="Node000005" class="node">
<title>Node5</title>
<g id="a_Node000005"><a xlink:href="classAsyncFw_1_1Thread.html" target="_top" xlink:title="AsyncFw::Thread thread with sockets.">
<polygon fill="white" stroke="#666666" points="410.25,-118 317,-118 317,-98 410.25,-98 410.25,-118"/>
<text text-anchor="middle" x="363.62" y="-104.5" font-family="Helvetica,sans-Serif" font-size="10.00">AsyncFw::Thread</text>
</a>
</g>
</g>
<!-- Node5&#45;&gt;Node3 -->
<g id="edge4_Node000003_Node000005" class="edge">
<title>Node5&#45;&gt;Node3</title>
<g id="a_edge4_Node000003_Node000005"><a xlink:title=" ">
<path fill="none" stroke="#9a32cd" stroke-dasharray="5,2" d="M421.99,-108.19C475.24,-108.36 554.44,-108.61 609.93,-108.79"/>
<polygon fill="#9a32cd" stroke="#9a32cd" points="422.23,-104.69 412.21,-108.15 422.2,-111.69 422.23,-104.69"/>
</a>
</g>
<text text-anchor="middle" x="519.38" y="-111.23" font-family="Helvetica,sans-Serif" font-size="10.00" fill="grey"> thread_</text>
</g>
<!-- Node6 -->
<g id="Node000006" class="node">
<title>Node6</title>
<g id="a_Node000006"><a xlink:href="classAsyncFw_1_1AbstractThread.html" target="_top" xlink:title="The AbstractThread class provides the base functionality for thread management.">
<polygon fill="white" stroke="#666666" points="137.88,-166 7.88,-166 7.88,-146 137.88,-146 137.88,-166"/>
<text text-anchor="middle" x="72.88" y="-152.5" font-family="Helvetica,sans-Serif" font-size="10.00">AsyncFw::AbstractThread</text>
</a>
</g>
</g>
<!-- Node6&#45;&gt;Node5 -->
<g id="edge5_Node000005_Node000006" class="edge">
<title>Node6&#45;&gt;Node5</title>
<g id="a_edge5_Node000005_Node000006"><a xlink:title=" ">
<path fill="none" stroke="#63b8ff" d="M149.57,-157.68C189.48,-156.52 238.74,-151.81 280.75,-138 289.66,-135.07 290.18,-130.81 298.75,-127 306.04,-123.75 314.04,-120.88 321.84,-118.41"/>
<polygon fill="#63b8ff" stroke="#63b8ff" points="149.75,-154.17 139.83,-157.89 149.9,-161.17 149.75,-154.17"/>
</a>
</g>
</g>
<!-- Node7 -->
<g id="Node000007" class="node">
<title>Node7</title>
<g id="a_Node000007"><a xlink:href="classAsyncFw_1_1FunctionConnector.html" target="_top" xlink:title="Provides a thread&#45;safe, publisher&#45;subscriber mechanism to establish sender&#45;to&#45;receivers connections.">
<polygon fill="white" stroke="#666666" points="145.75,-86 0,-86 0,-54 145.75,-54 145.75,-86"/>
<text text-anchor="start" x="8" y="-72.5" font-family="Helvetica,sans-Serif" font-size="10.00">AsyncFw::FunctionConnector</text>
<text text-anchor="middle" x="72.88" y="-60.5" font-family="Helvetica,sans-Serif" font-size="10.00">&lt; Args &gt;</text>
</a>
</g>
</g>
<!-- Node7&#45;&gt;Node5 -->
<g id="edge6_Node000005_Node000007" class="edge">
<title>Node7&#45;&gt;Node5</title>
<g id="a_edge6_Node000005_Node000007"><a xlink:title=" ">
<path fill="none" stroke="#9a32cd" stroke-dasharray="5,2" d="M157.17,-82.1C159.39,-82.41 161.58,-82.71 163.75,-83 216.17,-90.08 276.45,-97.57 316.78,-102.48"/>
<polygon fill="#9a32cd" stroke="#9a32cd" points="157.85,-78.66 147.47,-80.76 156.89,-85.6 157.85,-78.66"/>
</a>
</g>
<text text-anchor="middle" x="222.25" y="-124.08" font-family="Helvetica,sans-Serif" font-size="10.00" fill="grey"> destroing</text>
<text text-anchor="middle" x="222.25" y="-112.08" font-family="Helvetica,sans-Serif" font-size="10.00" fill="grey">finished</text>
<text text-anchor="middle" x="222.25" y="-100.08" font-family="Helvetica,sans-Serif" font-size="10.00" fill="grey">started</text>
</g>
<!-- Node8 -->
<g id="Node000008" class="node">
<title>Node8</title>
<g id="a_Node000008"><a xlink:href="classAsyncFw_1_1FunctionConnector.html" target="_top" xlink:title=" ">
<polygon fill="white" stroke="#666666" points="592.25,-86 446.5,-86 446.5,-54 592.25,-54 592.25,-86"/>
<text text-anchor="start" x="454.5" y="-72.5" font-family="Helvetica,sans-Serif" font-size="10.00">AsyncFw::FunctionConnector</text>
<text text-anchor="middle" x="519.38" y="-60.5" font-family="Helvetica,sans-Serif" font-size="10.00">&lt; AbstractSocket::State &gt;</text>
</a>
</g>
</g>
<!-- Node7&#45;&gt;Node8 -->
<g id="edge8_Node000008_Node000007" class="edge">
<title>Node7&#45;&gt;Node8</title>
<g id="a_edge8_Node000008_Node000007"><a xlink:title=" ">
<path fill="none" stroke="orange" stroke-dasharray="5,2" d="M157.45,-68.08C159.57,-68.05 161.67,-68.02 163.75,-68 261.48,-66.91 374.37,-67.94 446.04,-68.88"/>
<polygon fill="orange" stroke="orange" points="157.44,-64.58 147.5,-68.23 157.55,-71.58 157.44,-64.58"/>
</a>
</g>
<text text-anchor="middle" x="222.25" y="-70.5" font-family="Helvetica,sans-Serif" font-size="10.00" fill="grey"> &lt; AbstractSocket::State &gt;</text>
</g>
<!-- Node9 -->
<g id="Node000009" class="node">
<title>Node9</title>
<g id="a_Node000009"><a xlink:href="classAsyncFw_1_1FunctionConnector.html" target="_top" xlink:title=" ">
<polygon fill="white" stroke="#666666" points="904.75,-44 759,-44 759,0 904.75,0 904.75,-44"/>
<text text-anchor="start" x="767" y="-30.5" font-family="Helvetica,sans-Serif" font-size="10.00">AsyncFw::FunctionConnector</text>
<text text-anchor="start" x="767" y="-18.5" font-family="Helvetica,sans-Serif" font-size="10.00">&lt; const AsyncFw::DataArray</text>
<text text-anchor="middle" x="831.88" y="-6.5" font-family="Helvetica,sans-Serif" font-size="10.00"> *, uint32_t &gt;</text>
</a>
</g>
</g>
<!-- Node7&#45;&gt;Node9 -->
<g id="edge10_Node000009_Node000007" class="edge">
<title>Node7&#45;&gt;Node9</title>
<g id="a_edge10_Node000009_Node000007"><a xlink:title=" ">
<path fill="none" stroke="orange" stroke-dasharray="5,2" d="M157.45,-56.85C199.7,-50.71 251.83,-43.91 298.75,-40 462.95,-26.3 656.47,-22.95 758.88,-22.18"/>
<polygon fill="orange" stroke="orange" points="156.97,-53.38 147.59,-58.3 157.99,-60.31 156.97,-53.38"/>
</a>
</g>
<text text-anchor="start" x="298.75" y="-54.5" font-family="Helvetica,sans-Serif" font-size="10.00" fill="grey"> &lt; const AsyncFw::DataArray</text>
<text text-anchor="middle" x="363.62" y="-42.5" font-family="Helvetica,sans-Serif" font-size="10.00" fill="grey"> *, uint32_t &gt;</text>
</g>
<!-- Node8&#45;&gt;Node1 -->
<g id="edge7_Node000001_Node000008" class="edge">
<title>Node8&#45;&gt;Node1</title>
<g id="a_edge7_Node000001_Node000008"><a xlink:title=" ">
<path fill="none" stroke="#9a32cd" stroke-dasharray="5,2" d="M604.08,-70C734.35,-70 983.13,-70 1103.5,-70"/>
<polygon fill="#9a32cd" stroke="#9a32cd" points="604.13,-66.5 594.13,-70 604.13,-73.5 604.13,-66.5"/>
</a>
</g>
<text text-anchor="middle" x="831.88" y="-72.5" font-family="Helvetica,sans-Serif" font-size="10.00" fill="grey"> stateChanged</text>
</g>
<!-- Node9&#45;&gt;Node1 -->
<g id="edge9_Node000001_Node000009" class="edge">
<title>Node9&#45;&gt;Node1</title>
<g id="a_edge9_Node000001_Node000009"><a xlink:title=" ">
<path fill="none" stroke="#9a32cd" stroke-dasharray="5,2" d="M916.66,-26.84C961.47,-30.19 1017.48,-35.6 1067,-44 1089.98,-47.9 1115.37,-54.12 1135.43,-59.5"/>
<polygon fill="#9a32cd" stroke="#9a32cd" points="916.96,-23.35 906.73,-26.12 916.46,-30.33 916.96,-23.35"/>
</a>
</g>
<text text-anchor="middle" x="994.88" y="-46.5" font-family="Helvetica,sans-Serif" font-size="10.00" fill="grey"> received</text>
</g>
</g>
</svg>
