<?xml version="1.0" encoding="UTF-8" standalone="no"?>
<!DOCTYPE svg PUBLIC "-//W3C//DTD SVG 1.1//EN"
 "http://www.w3.org/Graphics/SVG/1.1/DTD/svg11.dtd">
<!-- Generated by graphviz version 12.2.1 (20241206.2353)
 -->
<!-- Title: AsyncFw::AbstractTlsSocket Pages: 1 -->
<svg width="382pt" height="337pt"
 viewBox="0.00 0.00 382.25 337.00" xmlns="http://www.w3.org/2000/svg" xmlns:xlink="http://www.w3.org/1999/xlink">
<g id="graph0" class="graph" transform="scale(1 1) rotate(0) translate(4 333)">
<title>AsyncFw::AbstractTlsSocket</title>
<!-- Node1 -->
<g id="Node000001" class="node">
<title>Node1</title>
<g id="a_Node000001"><a xlink:title="The AbstractTlsSocket class provides the base functionality for TLS encrypted socket.">
<polygon fill="#999999" stroke="#666666" points="159.88,-20 15.62,-20 15.62,0 159.88,0 159.88,-20"/>
<text text-anchor="middle" x="87.75" y="-6.5" font-family="Helvetica,sans-Serif" font-size="10.00">AsyncFw::AbstractTlsSocket</text>
</a>
</g>
</g>
<!-- Node2 -->
<g id="Node000002" class="node">
<title>Node2</title>
<g id="a_Node000002"><a xlink:href="classAsyncFw_1_1AbstractSocket.html" target="_top" xlink:title="The AbstractSocket class provides the base functionality for socket.">
<polygon fill="white" stroke="#666666" points="153.12,-77 22.38,-77 22.38,-57 153.12,-57 153.12,-77"/>
<text text-anchor="middle" x="87.75" y="-63.5" font-family="Helvetica,sans-Serif" font-size="10.00">AsyncFw::AbstractSocket</text>
</a>
</g>
</g>
<!-- Node2&#45;&gt;Node1 -->
<g id="edge1_Node000001_Node000002" class="edge">
<title>Node2&#45;&gt;Node1</title>
<g id="a_edge1_Node000001_Node000002"><a xlink:title=" ">
<path fill="none" stroke="#63b8ff" d="M87.75,-45.69C87.75,-36.97 87.75,-27.22 87.75,-20.28"/>
<polygon fill="#63b8ff" stroke="#63b8ff" points="84.25,-45.4 87.75,-55.4 91.25,-45.4 84.25,-45.4"/>
</a>
</g>
</g>
<!-- Node3 -->
<g id="Node000003" class="node">
<title>Node3</title>
<g id="a_Node000003"><a xlink:href="structAsyncFw_1_1AnyData.html" target="_top" xlink:title="The AnyData class.">
<polygon fill="white" stroke="#666666" points="101.5,-145 0,-145 0,-125 101.5,-125 101.5,-145"/>
<text text-anchor="middle" x="50.75" y="-131.5" font-family="Helvetica,sans-Serif" font-size="10.00">AsyncFw::AnyData</text>
</a>
</g>
</g>
<!-- Node3&#45;&gt;Node2 -->
<g id="edge2_Node000002_Node000003" class="edge">
<title>Node3&#45;&gt;Node2</title>
<g id="a_edge2_Node000002_Node000003"><a xlink:title=" ">
<path fill="none" stroke="#63b8ff" d="M61.53,-114.78C68.41,-102.51 77.02,-87.14 82.46,-77.44"/>
<polygon fill="#63b8ff" stroke="#63b8ff" points="58.63,-112.79 56.79,-123.22 64.73,-116.21 58.63,-112.79"/>
</a>
</g>
</g>
<!-- Node4 -->
<g id="Node000004" class="node">
<title>Node4</title>
<g id="a_Node000004"><a xlink:href="classAsyncFw_1_1Thread.html" target="_top" xlink:title="AsyncFw::Thread thread with sockets.">
<polygon fill="white" stroke="#666666" points="212.38,-145 119.12,-145 119.12,-125 212.38,-125 212.38,-145"/>
<text text-anchor="middle" x="165.75" y="-131.5" font-family="Helvetica,sans-Serif" font-size="10.00">AsyncFw::Thread</text>
</a>
</g>
</g>
<!-- Node4&#45;&gt;Node2 -->
<g id="edge3_Node000002_Node000004" class="edge">
<title>Node4&#45;&gt;Node2</title>
<g id="a_edge3_Node000002_Node000004"><a xlink:title=" ">
<path fill="none" stroke="#9a32cd" stroke-dasharray="5,2" d="M146.05,-117.33C131.13,-104.71 111.18,-87.82 98.9,-77.44"/>
<polygon fill="#9a32cd" stroke="#9a32cd" points="143.52,-119.78 153.42,-123.57 148.05,-114.43 143.52,-119.78"/>
</a>
</g>
<text text-anchor="middle" x="151.36" y="-97.5" font-family="Helvetica,sans-Serif" font-size="10.00" fill="grey"> thread_</text>
</g>
<!-- Node5 -->
<g id="Node000005" class="node">
<title>Node5</title>
<g id="a_Node000005"><a xlink:href="classAsyncFw_1_1AbstractThread.html" target="_top" xlink:title="The AbstractThread class provides the base functionality for thread management.">
<polygon fill="white" stroke="#666666" points="182.75,-243 52.75,-243 52.75,-223 182.75,-223 182.75,-243"/>
<text text-anchor="middle" x="117.75" y="-229.5" font-family="Helvetica,sans-Serif" font-size="10.00">AsyncFw::AbstractThread</text>
</a>
</g>
</g>
<!-- Node5&#45;&gt;Node4 -->
<g id="edge4_Node000004_Node000005" class="edge">
<title>Node5&#45;&gt;Node4</title>
<g id="a_edge4_Node000004_Node000005"><a xlink:title=" ">
<path fill="none" stroke="#63b8ff" d="M127.38,-212.74C137.6,-192.3 153.33,-160.84 161.09,-145.32"/>
<polygon fill="#63b8ff" stroke="#63b8ff" points="124.37,-210.93 123.03,-221.44 130.63,-214.06 124.37,-210.93"/>
</a>
</g>
</g>
<!-- Node6 -->
<g id="Node000006" class="node">
<title>Node6</title>
<g id="a_Node000006"><a xlink:href="classAsyncFw_1_1FunctionConnectorProtected.html" target="_top" xlink:title=" ">
<polygon fill="white" stroke="#666666" points="353,-249 200.5,-249 200.5,-217 353,-217 353,-249"/>
<text text-anchor="start" x="208.5" y="-235.5" font-family="Helvetica,sans-Serif" font-size="10.00">AsyncFw::FunctionConnector</text>
<text text-anchor="middle" x="276.75" y="-223.5" font-family="Helvetica,sans-Serif" font-size="10.00">Protected&lt; AsyncFw::Thread &gt;</text>
</a>
</g>
</g>
<!-- Node6&#45;&gt;Node4 -->
<g id="edge5_Node000004_Node000006" class="edge">
<title>Node6&#45;&gt;Node4</title>
<g id="a_edge5_Node000004_Node000006"><a xlink:title=" ">
<path fill="none" stroke="#9a32cd" stroke-dasharray="5,2" d="M250.41,-209.22C226.83,-188.82 193.43,-159.94 176.49,-145.29"/>
<polygon fill="#9a32cd" stroke="#9a32cd" points="247.92,-211.69 257.77,-215.59 252.5,-206.4 247.92,-211.69"/>
</a>
</g>
<text text-anchor="middle" x="259.05" y="-189.5" font-family="Helvetica,sans-Serif" font-size="10.00" fill="grey"> destroing</text>
<text text-anchor="middle" x="259.05" y="-177.5" font-family="Helvetica,sans-Serif" font-size="10.00" fill="grey">finished</text>
<text text-anchor="middle" x="259.05" y="-165.5" font-family="Helvetica,sans-Serif" font-size="10.00" fill="grey">started</text>
</g>
<!-- Node7 -->
<g id="Node000007" class="node">
<title>Node7</title>
<g id="a_Node000007"><a xlink:href="classAsyncFw_1_1FunctionConnectorProtected.html" target="_top" xlink:title="Защищенный коннетор, отправитель может быть только один.">
<polygon fill="white" stroke="#666666" points="349.62,-329 203.88,-329 203.88,-297 349.62,-297 349.62,-329"/>
<text text-anchor="start" x="211.88" y="-315.5" font-family="Helvetica,sans-Serif" font-size="10.00">AsyncFw::FunctionConnector</text>
<text text-anchor="middle" x="276.75" y="-303.5" font-family="Helvetica,sans-Serif" font-size="10.00">Protected&lt; F &gt;</text>
</a>
</g>
</g>
<!-- Node7&#45;&gt;Node6 -->
<g id="edge6_Node000006_Node000007" class="edge">
<title>Node7&#45;&gt;Node6</title>
<g id="a_edge6_Node000006_Node000007"><a xlink:title=" ">
<path fill="none" stroke="orange" stroke-dasharray="5,2" d="M276.75,-285.37C276.75,-273.37 276.75,-259.63 276.75,-249.38"/>
<polygon fill="orange" stroke="orange" points="273.25,-285.08 276.75,-295.08 280.25,-285.08 273.25,-285.08"/>
</a>
</g>
<text text-anchor="middle" x="325.5" y="-269.5" font-family="Helvetica,sans-Serif" font-size="10.00" fill="grey"> &lt; AsyncFw::Thread &gt;</text>
</g>
</g>
</svg>
