<?xml version="1.0" encoding="UTF-8" standalone="no"?>
<!DOCTYPE svg PUBLIC "-//W3C//DTD SVG 1.1//EN"
 "http://www.w3.org/Graphics/SVG/1.1/DTD/svg11.dtd">
<!-- Generated by graphviz version 12.2.1 (20241206.2353)
 -->
<!-- Title: AsyncFw::AbstractThreadPool::Thread Pages: 1 -->
<svg width="339pt" height="292pt"
 viewBox="0.00 0.00 339.25 292.00" xmlns="http://www.w3.org/2000/svg" xmlns:xlink="http://www.w3.org/1999/xlink">
<g id="graph0" class="graph" transform="scale(1 1) rotate(0) translate(4 288)">
<title>AsyncFw::AbstractThreadPool::Thread</title>
<!-- Node1 -->
<g id="Node000001" class="node">
<title>Node1</title>
<g id="a_Node000001"><a xlink:title=" ">
<polygon fill="#999999" stroke="#666666" points="218.5,-32 69,-32 69,0 218.5,0 218.5,-32"/>
<text text-anchor="start" x="77" y="-18.5" font-family="Helvetica,sans-Serif" font-size="10.00">AsyncFw::AbstractThreadPool</text>
<text text-anchor="middle" x="143.75" y="-6.5" font-family="Helvetica,sans-Serif" font-size="10.00">::Thread</text>
</a>
</g>
</g>
<!-- Node2 -->
<g id="Node000002" class="node">
<title>Node2</title>
<g id="a_Node000002"><a xlink:href="classAsyncFw_1_1Thread.html" target="_top" xlink:title="AsyncFw::Thread thread with sockets.">
<polygon fill="white" stroke="#666666" points="260.38,-100 167.12,-100 167.12,-80 260.38,-80 260.38,-100"/>
<text text-anchor="middle" x="213.75" y="-86.5" font-family="Helvetica,sans-Serif" font-size="10.00">AsyncFw::Thread</text>
</a>
</g>
</g>
<!-- Node2&#45;&gt;Node1 -->
<g id="edge1_Node000001_Node000002" class="edge">
<title>Node2&#45;&gt;Node1</title>
<g id="a_edge1_Node000001_Node000002"><a xlink:title=" ">
<path fill="none" stroke="#63b8ff" d="M196.91,-71.67C185.29,-59.73 169.99,-43.99 158.79,-32.47"/>
<polygon fill="#63b8ff" stroke="#63b8ff" points="194.06,-73.77 203.54,-78.5 199.08,-68.89 194.06,-73.77"/>
</a>
</g>
</g>
<!-- Node3 -->
<g id="Node000003" class="node">
<title>Node3</title>
<g id="a_Node000003"><a xlink:href="classAsyncFw_1_1AbstractThread.html" target="_top" xlink:title="The AbstractThread class provides the base functionality for thread management.">
<polygon fill="white" stroke="#666666" points="139.75,-198 9.75,-198 9.75,-178 139.75,-178 139.75,-198"/>
<text text-anchor="middle" x="74.75" y="-184.5" font-family="Helvetica,sans-Serif" font-size="10.00">AsyncFw::AbstractThread</text>
</a>
</g>
</g>
<!-- Node3&#45;&gt;Node2 -->
<g id="edge2_Node000002_Node000003" class="edge">
<title>Node3&#45;&gt;Node2</title>
<g id="a_edge2_Node000002_Node000003"><a xlink:title=" ">
<path fill="none" stroke="#63b8ff" d="M97.76,-171.11C127.02,-150.9 176.59,-116.66 200.32,-100.28"/>
<polygon fill="#63b8ff" stroke="#63b8ff" points="95.82,-168.2 89.58,-176.76 99.79,-173.96 95.82,-168.2"/>
</a>
</g>
</g>
<!-- Node6 -->
<g id="Node000006" class="node">
<title>Node6</title>
<g id="a_Node000006"><a xlink:href="classAsyncFw_1_1AbstractThreadPool.html" target="_top" xlink:title="Abstract base class for creating and managing thread pools.">
<polygon fill="white" stroke="#666666" points="149.5,-100 0,-100 0,-80 149.5,-80 149.5,-100"/>
<text text-anchor="middle" x="74.75" y="-86.5" font-family="Helvetica,sans-Serif" font-size="10.00">AsyncFw::AbstractThreadPool</text>
</a>
</g>
</g>
<!-- Node3&#45;&gt;Node6 -->
<g id="edge6_Node000006_Node000003" class="edge">
<title>Node3&#45;&gt;Node6</title>
<g id="a_edge6_Node000006_Node000003"><a xlink:title=" ">
<path fill="none" stroke="#9a32cd" stroke-dasharray="5,2" d="M74.75,-166.3C74.75,-145.85 74.75,-115.48 74.75,-100.32"/>
<polygon fill="#9a32cd" stroke="#9a32cd" points="71.25,-166.28 74.75,-176.28 78.25,-166.28 71.25,-166.28"/>
</a>
</g>
<text text-anchor="middle" x="92.38" y="-132.5" font-family="Helvetica,sans-Serif" font-size="10.00" fill="grey"> thread_</text>
</g>
<!-- Node4 -->
<g id="Node000004" class="node">
<title>Node4</title>
<g id="a_Node000004"><a xlink:href="classAsyncFw_1_1FunctionConnectorProtected.html" target="_top" xlink:title=" ">
<polygon fill="white" stroke="#666666" points="310,-204 157.5,-204 157.5,-172 310,-172 310,-204"/>
<text text-anchor="start" x="165.5" y="-190.5" font-family="Helvetica,sans-Serif" font-size="10.00">AsyncFw::FunctionConnector</text>
<text text-anchor="middle" x="233.75" y="-178.5" font-family="Helvetica,sans-Serif" font-size="10.00">Protected&lt; AsyncFw::Thread &gt;</text>
</a>
</g>
</g>
<!-- Node4&#45;&gt;Node2 -->
<g id="edge3_Node000002_Node000004" class="edge">
<title>Node4&#45;&gt;Node2</title>
<g id="a_edge3_Node000002_Node000004"><a xlink:title=" ">
<path fill="none" stroke="#9a32cd" stroke-dasharray="5,2" d="M228.2,-160.36C224.02,-140.31 218.55,-114.03 215.69,-100.29"/>
<polygon fill="#9a32cd" stroke="#9a32cd" points="224.76,-161.02 230.23,-170.09 231.61,-159.59 224.76,-161.02"/>
</a>
</g>
<text text-anchor="middle" x="248.09" y="-144.5" font-family="Helvetica,sans-Serif" font-size="10.00" fill="grey"> destroing</text>
<text text-anchor="middle" x="248.09" y="-132.5" font-family="Helvetica,sans-Serif" font-size="10.00" fill="grey">finished</text>
<text text-anchor="middle" x="248.09" y="-120.5" font-family="Helvetica,sans-Serif" font-size="10.00" fill="grey">started</text>
</g>
<!-- Node5 -->
<g id="Node000005" class="node">
<title>Node5</title>
<g id="a_Node000005"><a xlink:href="classAsyncFw_1_1FunctionConnectorProtected.html" target="_top" xlink:title="A protected connector where only a single designated sender can emit messages. &#160;&#160;Provides a sender&#45;to...">
<polygon fill="white" stroke="#666666" points="306.62,-284 160.88,-284 160.88,-252 306.62,-252 306.62,-284"/>
<text text-anchor="start" x="168.88" y="-270.5" font-family="Helvetica,sans-Serif" font-size="10.00">AsyncFw::FunctionConnector</text>
<text text-anchor="middle" x="233.75" y="-258.5" font-family="Helvetica,sans-Serif" font-size="10.00">Protected&lt; F &gt;</text>
</a>
</g>
</g>
<!-- Node5&#45;&gt;Node4 -->
<g id="edge4_Node000004_Node000005" class="edge">
<title>Node5&#45;&gt;Node4</title>
<g id="a_edge4_Node000004_Node000005"><a xlink:title=" ">
<path fill="none" stroke="orange" stroke-dasharray="5,2" d="M233.75,-240.37C233.75,-228.37 233.75,-214.63 233.75,-204.38"/>
<polygon fill="orange" stroke="orange" points="230.25,-240.08 233.75,-250.08 237.25,-240.08 230.25,-240.08"/>
</a>
</g>
<text text-anchor="middle" x="282.5" y="-224.5" font-family="Helvetica,sans-Serif" font-size="10.00" fill="grey"> &lt; AsyncFw::Thread &gt;</text>
</g>
<!-- Node6&#45;&gt;Node1 -->
<g id="edge5_Node000001_Node000006" class="edge">
<title>Node6&#45;&gt;Node1</title>
<g id="a_edge5_Node000001_Node000006"><a xlink:title=" ">
<path fill="none" stroke="#9a32cd" stroke-dasharray="5,2" d="M91.69,-71.33C103.09,-59.43 117.99,-43.88 128.92,-32.47"/>
<polygon fill="#9a32cd" stroke="#9a32cd" points="89.21,-68.85 84.82,-78.49 94.26,-73.7 89.21,-68.85"/>
</a>
</g>
<text text-anchor="middle" x="121.82" y="-52.5" font-family="Helvetica,sans-Serif" font-size="10.00" fill="grey"> pool</text>
</g>
</g>
</svg>
