<?xml version="1.0" encoding="UTF-8" standalone="no"?>
<!DOCTYPE svg PUBLIC "-//W3C//DTD SVG 1.1//EN"
 "http://www.w3.org/Graphics/SVG/1.1/DTD/svg11.dtd">
<!-- Generated by graphviz version 12.2.1 (20241206.2353)
 -->
<!-- Title: AsyncFw::DataArraySocket Pages: 1 -->
<svg width="1378pt" height="129pt"
 viewBox="0.00 0.00 1378.25 129.45" xmlns="http://www.w3.org/2000/svg" xmlns:xlink="http://www.w3.org/1999/xlink">
<g id="graph0" class="graph" transform="scale(1 1) rotate(0) translate(4 125.45)">
<title>AsyncFw::DataArraySocket</title>
<!-- Node1 -->
<g id="Node000001" class="node">
<title>Node1</title>
<g id="a_Node000001"><a xlink:title="The DataArraySocket class.">
<polygon fill="#999999" stroke="#666666" points="1370.25,-42 1232,-42 1232,-22 1370.25,-22 1370.25,-42"/>
<text text-anchor="middle" x="1301.12" y="-28.5" font-family="Helvetica,sans-Serif" font-size="10.00">AsyncFw::DataArraySocket</text>
</a>
</g>
</g>
<!-- Node2 -->
<g id="Node000002" class="node">
<title>Node2</title>
<g id="a_Node000002"><a xlink:href="classAsyncFw_1_1AbstractTlsSocket.html" target="_top" xlink:title="The AbstractTlsSocket class provides the base functionality for TLS encrypted socket.">
<polygon fill="white" stroke="#666666" points="1195,-67 1050.75,-67 1050.75,-47 1195,-47 1195,-67"/>
<text text-anchor="middle" x="1122.88" y="-53.5" font-family="Helvetica,sans-Serif" font-size="10.00">AsyncFw::AbstractTlsSocket</text>
</a>
</g>
</g>
<!-- Node2&#45;&gt;Node1 -->
<g id="edge1_Node000001_Node000002" class="edge">
<title>Node2&#45;&gt;Node1</title>
<g id="a_edge1_Node000001_Node000002"><a xlink:title=" ">
<path fill="none" stroke="#63b8ff" d="M1206.68,-45.25C1215.07,-44.07 1223.52,-42.87 1231.73,-41.7"/>
<polygon fill="#63b8ff" stroke="#63b8ff" points="1206.22,-41.79 1196.81,-46.66 1207.2,-48.72 1206.22,-41.79"/>
</a>
</g>
</g>
<!-- Node3 -->
<g id="Node000003" class="node">
<title>Node3</title>
<g id="a_Node000003"><a xlink:href="classAsyncFw_1_1AbstractSocket.html" target="_top" xlink:title="The AbstractSocket class provides the base functionality for socket.">
<polygon fill="white" stroke="#666666" points="1013.75,-78 883,-78 883,-58 1013.75,-58 1013.75,-78"/>
<text text-anchor="middle" x="948.38" y="-64.5" font-family="Helvetica,sans-Serif" font-size="10.00">AsyncFw::AbstractSocket</text>
</a>
</g>
</g>
<!-- Node3&#45;&gt;Node2 -->
<g id="edge2_Node000002_Node000003" class="edge">
<title>Node3&#45;&gt;Node2</title>
<g id="a_edge2_Node000002_Node000003"><a xlink:title=" ">
<path fill="none" stroke="#63b8ff" d="M1025.35,-63.16C1033.69,-62.62 1042.15,-62.08 1050.42,-61.56"/>
<polygon fill="#63b8ff" stroke="#63b8ff" points="1025.37,-59.65 1015.61,-63.78 1025.81,-66.63 1025.37,-59.65"/>
</a>
</g>
</g>
<!-- Node4 -->
<g id="Node000004" class="node">
<title>Node4</title>
<g id="a_Node000004"><a xlink:href="structAsyncFw_1_1AnyData.html" target="_top" xlink:title="The AnyData class.">
<polygon fill="white" stroke="#666666" points="811.75,-112 710.25,-112 710.25,-92 811.75,-92 811.75,-112"/>
<text text-anchor="middle" x="761" y="-98.5" font-family="Helvetica,sans-Serif" font-size="10.00">AsyncFw::AnyData</text>
</a>
</g>
</g>
<!-- Node4&#45;&gt;Node3 -->
<g id="edge3_Node000003_Node000004" class="edge">
<title>Node4&#45;&gt;Node3</title>
<g id="a_edge3_Node000003_Node000004"><a xlink:title=" ">
<path fill="none" stroke="#63b8ff" d="M823.2,-90.77C844.82,-86.81 869.03,-82.37 890.29,-78.47"/>
<polygon fill="#63b8ff" stroke="#63b8ff" points="822.86,-87.28 813.65,-92.53 824.12,-94.16 822.86,-87.28"/>
</a>
</g>
</g>
<!-- Node5 -->
<g id="Node000005" class="node">
<title>Node5</title>
<g id="a_Node000005"><a xlink:href="classAsyncFw_1_1Thread.html" target="_top" xlink:title="AsyncFw::Thread thread with sockets.">
<polygon fill="white" stroke="#666666" points="807.62,-74 714.38,-74 714.38,-54 807.62,-54 807.62,-74"/>
<text text-anchor="middle" x="761" y="-60.5" font-family="Helvetica,sans-Serif" font-size="10.00">AsyncFw::Thread</text>
</a>
</g>
</g>
<!-- Node5&#45;&gt;Node3 -->
<g id="edge4_Node000003_Node000005" class="edge">
<title>Node5&#45;&gt;Node3</title>
<g id="a_edge4_Node000003_Node000005"><a xlink:title=" ">
<path fill="none" stroke="#9a32cd" stroke-dasharray="5,2" d="M819.33,-65.24C839.45,-65.67 862.18,-66.16 882.85,-66.61"/>
<polygon fill="#9a32cd" stroke="#9a32cd" points="819.41,-61.74 809.34,-65.02 819.26,-68.74 819.41,-61.74"/>
</a>
</g>
<text text-anchor="middle" x="847.38" y="-68.62" font-family="Helvetica,sans-Serif" font-size="10.00" fill="grey"> thread_</text>
</g>
<!-- Node6 -->
<g id="Node000006" class="node">
<title>Node6</title>
<g id="a_Node000006"><a xlink:href="classAsyncFw_1_1AbstractThread.html" target="_top" xlink:title="The AbstractThread class provides the base functionality for thread management.">
<polygon fill="white" stroke="#666666" points="465.5,-121 335.5,-121 335.5,-101 465.5,-101 465.5,-121"/>
<text text-anchor="middle" x="400.5" y="-107.5" font-family="Helvetica,sans-Serif" font-size="10.00">AsyncFw::AbstractThread</text>
</a>
</g>
</g>
<!-- Node6&#45;&gt;Node5 -->
<g id="edge5_Node000005_Node000006" class="edge">
<title>Node6&#45;&gt;Node5</title>
<g id="a_edge5_Node000005_Node000006"><a xlink:title=" ">
<path fill="none" stroke="#63b8ff" d="M477.11,-119.59C537.3,-123.58 622.68,-122.76 692.25,-97 701.75,-93.48 701.42,-87.97 710.25,-83 715.89,-79.82 722.16,-76.96 728.31,-74.49"/>
<polygon fill="#63b8ff" stroke="#63b8ff" points="477.54,-116.11 467.31,-118.88 477.03,-123.1 477.54,-116.11"/>
</a>
</g>
</g>
<!-- Node7 -->
<g id="Node000007" class="node">
<title>Node7</title>
<g id="a_Node000007"><a xlink:href="classAsyncFw_1_1FunctionConnectorProtected.html" target="_top" xlink:title=" ">
<polygon fill="white" stroke="#666666" points="476.75,-76 324.25,-76 324.25,-44 476.75,-44 476.75,-76"/>
<text text-anchor="start" x="332.25" y="-62.5" font-family="Helvetica,sans-Serif" font-size="10.00">AsyncFw::FunctionConnector</text>
<text text-anchor="middle" x="400.5" y="-50.5" font-family="Helvetica,sans-Serif" font-size="10.00">Protected&lt; AsyncFw::Thread &gt;</text>
</a>
</g>
</g>
<!-- Node7&#45;&gt;Node5 -->
<g id="edge6_Node000005_Node000007" class="edge">
<title>Node7&#45;&gt;Node5</title>
<g id="a_edge6_Node000005_Node000007"><a xlink:title=" ">
<path fill="none" stroke="#9a32cd" stroke-dasharray="5,2" d="M488.4,-59.37C546.19,-59.18 623.77,-59.37 692.25,-61 699.31,-61.17 706.79,-61.42 714.09,-61.71"/>
<polygon fill="#9a32cd" stroke="#9a32cd" points="488.62,-55.87 478.63,-59.41 488.64,-62.87 488.62,-55.87"/>
</a>
</g>
<text text-anchor="middle" x="593.5" y="-87.5" font-family="Helvetica,sans-Serif" font-size="10.00" fill="grey"> destroing</text>
<text text-anchor="middle" x="593.5" y="-75.5" font-family="Helvetica,sans-Serif" font-size="10.00" fill="grey">finished</text>
<text text-anchor="middle" x="593.5" y="-63.5" font-family="Helvetica,sans-Serif" font-size="10.00" fill="grey">started</text>
</g>
<!-- Node8 -->
<g id="Node000008" class="node">
<title>Node8</title>
<g id="a_Node000008"><a xlink:href="classAsyncFw_1_1FunctionConnectorProtected.html" target="_top" xlink:title="Защищенный коннетор, отправитель может быть только один. &#160;&#160;Обеспечивает соединение отправитель &#45;&gt; пол...">
<polygon fill="white" stroke="#666666" points="145.75,-49 0,-49 0,-17 145.75,-17 145.75,-49"/>
<text text-anchor="start" x="8" y="-35.5" font-family="Helvetica,sans-Serif" font-size="10.00">AsyncFw::FunctionConnector</text>
<text text-anchor="middle" x="72.88" y="-23.5" font-family="Helvetica,sans-Serif" font-size="10.00">Protected&lt; F &gt;</text>
</a>
</g>
</g>
<!-- Node8&#45;&gt;Node7 -->
<g id="edge7_Node000007_Node000008" class="edge">
<title>Node8&#45;&gt;Node7</title>
<g id="a_edge7_Node000007_Node000008"><a xlink:title=" ">
<path fill="none" stroke="orange" stroke-dasharray="5,2" d="M157.53,-39.94C208.83,-44.19 273.98,-49.59 323.76,-53.72"/>
<polygon fill="orange" stroke="orange" points="157.91,-36.46 147.65,-39.12 157.33,-43.43 157.91,-36.46"/>
</a>
</g>
<text text-anchor="middle" x="235" y="-54.52" font-family="Helvetica,sans-Serif" font-size="10.00" fill="grey"> &lt; AsyncFw::Thread &gt;</text>
</g>
<!-- Node9 -->
<g id="Node000009" class="node">
<title>Node9</title>
<g id="a_Node000009"><a xlink:href="classAsyncFw_1_1FunctionConnectorProtected.html" target="_top" xlink:title=" ">
<polygon fill="white" stroke="#666666" points="692.25,-32 494.75,-32 494.75,0 692.25,0 692.25,-32"/>
<text text-anchor="start" x="502.75" y="-18.5" font-family="Helvetica,sans-Serif" font-size="10.00">AsyncFw::FunctionConnector</text>
<text text-anchor="middle" x="593.5" y="-6.5" font-family="Helvetica,sans-Serif" font-size="10.00">Protected&lt; AsyncFw::DataArraySocket &gt;</text>
</a>
</g>
</g>
<!-- Node8&#45;&gt;Node9 -->
<g id="edge9_Node000009_Node000008" class="edge">
<title>Node8&#45;&gt;Node9</title>
<g id="a_edge9_Node000009_Node000008"><a xlink:title=" ">
<path fill="none" stroke="orange" stroke-dasharray="5,2" d="M157.44,-25.37C159.56,-25.24 161.67,-25.11 163.75,-25 277.12,-18.77 407.57,-16.77 494.51,-16.17"/>
<polygon fill="orange" stroke="orange" points="157.2,-21.88 147.46,-26.05 157.68,-28.86 157.2,-21.88"/>
</a>
</g>
<text text-anchor="middle" x="235" y="-27.5" font-family="Helvetica,sans-Serif" font-size="10.00" fill="grey"> &lt; AsyncFw::DataArraySocket &gt;</text>
</g>
<!-- Node9&#45;&gt;Node1 -->
<g id="edge8_Node000001_Node000009" class="edge">
<title>Node9&#45;&gt;Node1</title>
<g id="a_edge8_Node000001_Node000009"><a xlink:title=" ">
<path fill="none" stroke="#9a32cd" stroke-dasharray="5,2" d="M703.96,-16C748.19,-16 799.71,-16 846.38,-16 846.38,-16 846.38,-16 1123.88,-16 1159.52,-16 1199.05,-19.29 1231.62,-22.88"/>
<polygon fill="#9a32cd" stroke="#9a32cd" points="704.1,-12.5 694.1,-16 704.1,-19.5 704.1,-12.5"/>
</a>
</g>
<text text-anchor="middle" x="948.38" y="-30.5" font-family="Helvetica,sans-Serif" font-size="10.00" fill="grey"> received</text>
<text text-anchor="middle" x="948.38" y="-18.5" font-family="Helvetica,sans-Serif" font-size="10.00" fill="grey">stateChanged</text>
</g>
</g>
</svg>
