<?xml version="1.0" encoding="UTF-8" standalone="no"?>
<!DOCTYPE svg PUBLIC "-//W3C//DTD SVG 1.1//EN"
 "http://www.w3.org/Graphics/SVG/1.1/DTD/svg11.dtd">
<!-- Generated by graphviz version 14.1.3 (20260303.0454)
 -->
<!-- Title: AsyncFw::ThreadPool Pages: 1 -->
<svg width="158pt" height="159pt"
 viewBox="0.00 0.00 158.00 159.00" xmlns="http://www.w3.org/2000/svg" xmlns:xlink="http://www.w3.org/1999/xlink">
<g id="graph0" class="graph" transform="scale(1 1) rotate(0) translate(4 155)">
<title>AsyncFw::ThreadPool</title>
<!-- Node1 -->
<g id="Node000001" class="node">
<title>Node1</title>
<g id="a_Node000001"><a xlink:title="Manages a set of reusable worker threads for concurrent task execution, eliminating the need to spawn...">
<polygon fill="#999999" stroke="#666666" points="131.12,-20 18.38,-20 18.38,0 131.12,0 131.12,-20"/>
<text xml:space="preserve" text-anchor="middle" x="74.75" y="-6.5" font-family="Helvetica,sans-Serif" font-size="10.00">AsyncFw::ThreadPool</text>
</a>
</g>
</g>
<!-- Node2 -->
<g id="Node000002" class="node">
<title>Node2</title>
<g id="a_Node000002"><a xlink:href="classAsyncFw_1_1AbstractThreadPool.html" target="_top" xlink:title="Abstract base class for creating and managing thread pools.">
<polygon fill="white" stroke="#666666" points="149.5,-77 0,-77 0,-57 149.5,-57 149.5,-77"/>
<text xml:space="preserve" text-anchor="middle" x="74.75" y="-63.5" font-family="Helvetica,sans-Serif" font-size="10.00">AsyncFw::AbstractThreadPool</text>
</a>
</g>
</g>
<!-- Node2&#45;&gt;Node1 -->
<g id="edge1_Node000001_Node000002" class="edge">
<title>Node2&#45;&gt;Node1</title>
<g id="a_edge1_Node000001_Node000002"><a xlink:title=" ">
<path fill="none" stroke="#63b8ff" d="M74.75,-45.69C74.75,-36.97 74.75,-27.22 74.75,-20.28"/>
<polygon fill="#63b8ff" stroke="#63b8ff" points="71.25,-45.4 74.75,-55.4 78.25,-45.4 71.25,-45.4"/>
</a>
</g>
</g>
<!-- Node3 -->
<g id="Node000003" class="node">
<title>Node3</title>
<g id="a_Node000003"><a xlink:href="classAsyncFw_1_1AbstractThread.html" target="_top" xlink:title="The AbstractThread class provides the base functionality for thread management.">
<polygon fill="white" stroke="#666666" points="139.75,-151 9.75,-151 9.75,-131 139.75,-131 139.75,-151"/>
<text xml:space="preserve" text-anchor="middle" x="74.75" y="-137.5" font-family="Helvetica,sans-Serif" font-size="10.00">AsyncFw::AbstractThread</text>
</a>
</g>
</g>
<!-- Node3&#45;&gt;Node2 -->
<g id="edge2_Node000002_Node000003" class="edge">
<title>Node3&#45;&gt;Node2</title>
<g id="a_edge2_Node000002_Node000003"><a xlink:title=" ">
<path fill="none" stroke="#9a32cd" stroke-dasharray="5,2" d="M74.75,-119.18C74.75,-105.29 74.75,-87.71 74.75,-77.19"/>
<polygon fill="#9a32cd" stroke="#9a32cd" points="71.25,-119.07 74.75,-129.07 78.25,-119.07 71.25,-119.07"/>
</a>
</g>
<text xml:space="preserve" text-anchor="start" x="77.75" y="-100.25" font-family="Helvetica,sans-Serif" font-size="10.00" fill="grey">thread_</text>
</g>
</g>
</svg>
