<?xml version="1.0" encoding="UTF-8" standalone="no"?>
<!DOCTYPE svg PUBLIC "-//W3C//DTD SVG 1.1//EN"
 "http://www.w3.org/Graphics/SVG/1.1/DTD/svg11.dtd">
<!-- Generated by graphviz version 14.1.3 (20260303.0454)
 -->
<!-- Title: AsyncFw::AbstractSocket::AbstractSocket Pages: 1 -->
<svg width="969pt" height="78pt"
 viewBox="0.00 0.00 969.00 78.00" xmlns="http://www.w3.org/2000/svg" xmlns:xlink="http://www.w3.org/1999/xlink">
<g id="graph0" class="graph" transform="scale(1 1) rotate(0) translate(4 74)">
<title>AsyncFw::AbstractSocket::AbstractSocket</title>
<!-- Node1 -->
<g id="Node000001" class="node">
<title>Node1</title>
<g id="a_Node000001"><a xlink:title="Constructs an AbstractSocket and binds it to the current thread context.">
<polygon fill="#999999" stroke="#666666" points="130.75,-48 0,-48 0,-16 130.75,-16 130.75,-48"/>
<text xml:space="preserve" text-anchor="start" x="8" y="-34.5" font-family="Helvetica,sans-Serif" font-size="10.00">AsyncFw::AbstractSocket</text>
<text xml:space="preserve" text-anchor="middle" x="65.38" y="-22.5" font-family="Helvetica,sans-Serif" font-size="10.00">::AbstractSocket</text>
</a>
</g>
</g>
<!-- Node2 -->
<g id="Node000002" class="node">
<title>Node2</title>
<g id="a_Node000002"><a xlink:href="classAsyncFw_1_1AbstractSocket.html#a94ae146fe8047af98d2dcfd14d20e261" target="_top" xlink:title="Constructs an AbstractSocket with default parameters (AF_INET, SOCK_STREAM, IPPROTO_TCP) and binds it...">
<polygon fill="white" stroke="#666666" points="297.5,-48 166.75,-48 166.75,-16 297.5,-16 297.5,-48"/>
<text xml:space="preserve" text-anchor="start" x="174.75" y="-34.5" font-family="Helvetica,sans-Serif" font-size="10.00">AsyncFw::AbstractSocket</text>
<text xml:space="preserve" text-anchor="middle" x="232.12" y="-22.5" font-family="Helvetica,sans-Serif" font-size="10.00">::AbstractSocket</text>
</a>
</g>
</g>
<!-- Node1&#45;&gt;Node2 -->
<g id="edge1_Node000001_Node000002" class="edge">
<title>Node1&#45;&gt;Node2</title>
<g id="a_edge1_Node000001_Node000002"><a xlink:title=" ">
<path fill="none" stroke="#63b8ff" d="M131.02,-32C138.92,-32 147.05,-32 155.1,-32"/>
<polygon fill="#63b8ff" stroke="#63b8ff" points="154.89,-35.5 164.89,-32 154.89,-28.5 154.89,-35.5"/>
</a>
</g>
</g>
<!-- Node3 -->
<g id="Node000003" class="node">
<title>Node3</title>
<g id="a_Node000003"><a xlink:href="classAsyncFw_1_1Thread.html#a0a3bd6a54db28f73ff59cfea6a40b07a" target="_top" xlink:title="Returns a pointer to the AsyncFw::Thread that manages the currently executing thread.">
<polygon fill="white" stroke="#666666" points="462.75,-42 333.5,-42 333.5,-22 462.75,-22 462.75,-42"/>
<text xml:space="preserve" text-anchor="middle" x="398.12" y="-28.5" font-family="Helvetica,sans-Serif" font-size="10.00">AsyncFw::Thread::current</text>
</a>
</g>
</g>
<!-- Node2&#45;&gt;Node3 -->
<g id="edge2_Node000002_Node000003" class="edge">
<title>Node2&#45;&gt;Node3</title>
<g id="a_edge2_Node000002_Node000003"><a xlink:title=" ">
<path fill="none" stroke="#63b8ff" d="M297.94,-32C305.7,-32 313.68,-32 321.57,-32"/>
<polygon fill="#63b8ff" stroke="#63b8ff" points="321.53,-35.5 331.53,-32 321.53,-28.5 321.53,-35.5"/>
</a>
</g>
</g>
<!-- Node4 -->
<g id="Node000004" class="node">
<title>Node4</title>
<g id="a_Node000004"><a xlink:href="classAsyncFw_1_1AbstractThread.html#af33c5949edb374d673a7a9ac0c81ec32" target="_top" xlink:title="Returns a pointer to the AsyncFw::AbstractThread that manages the currently executing thread.">
<polygon fill="white" stroke="#666666" points="628.75,-70 498.75,-70 498.75,-38 628.75,-38 628.75,-70"/>
<text xml:space="preserve" text-anchor="start" x="506.75" y="-56.5" font-family="Helvetica,sans-Serif" font-size="10.00">AsyncFw::AbstractThread</text>
<text xml:space="preserve" text-anchor="middle" x="563.75" y="-44.5" font-family="Helvetica,sans-Serif" font-size="10.00">::current</text>
</a>
</g>
</g>
<!-- Node3&#45;&gt;Node4 -->
<g id="edge3_Node000003_Node000004" class="edge">
<title>Node3&#45;&gt;Node4</title>
<g id="a_edge3_Node000003_Node000004"><a xlink:title=" ">
<path fill="none" stroke="#63b8ff" d="M462.86,-40.57C470.78,-41.63 478.95,-42.73 487.04,-43.82"/>
<polygon fill="#63b8ff" stroke="#63b8ff" points="486.51,-47.28 496.89,-45.14 487.44,-40.34 486.51,-47.28"/>
</a>
</g>
</g>
<!-- Node7 -->
<g id="Node000007" class="node">
<title>Node7</title>
<g id="a_Node000007"><a xlink:href="classAsyncFw_1_1Thread.html#afc5e422090767dd84020381fb9a4d490" target="_top" xlink:title="Constructs a thread.">
<polygon fill="white" stroke="#666666" points="628.38,-20 499.12,-20 499.12,0 628.38,0 628.38,-20"/>
<text xml:space="preserve" text-anchor="middle" x="563.75" y="-6.5" font-family="Helvetica,sans-Serif" font-size="10.00">AsyncFw::Thread::Thread</text>
</a>
</g>
</g>
<!-- Node3&#45;&gt;Node7 -->
<g id="edge6_Node000003_Node000007" class="edge">
<title>Node3&#45;&gt;Node7</title>
<g id="a_edge6_Node000003_Node000007"><a xlink:title=" ">
<path fill="none" stroke="#63b8ff" d="M462.86,-23.43C470.94,-22.34 479.27,-21.22 487.51,-20.12"/>
<polygon fill="#63b8ff" stroke="#63b8ff" points="487.71,-23.62 497.16,-18.82 486.78,-16.68 487.71,-23.62"/>
</a>
</g>
</g>
<!-- Node5 -->
<g id="Node000005" class="node">
<title>Node5</title>
<g id="a_Node000005"><a xlink:href="classAsyncFw_1_1AbstractThread.html#a8c9202c90ac101522f26c4260cb01b59" target="_top" xlink:title="Constructs a thread.">
<polygon fill="white" stroke="#666666" points="794.75,-70 664.75,-70 664.75,-38 794.75,-38 794.75,-70"/>
<text xml:space="preserve" text-anchor="start" x="672.75" y="-56.5" font-family="Helvetica,sans-Serif" font-size="10.00">AsyncFw::AbstractThread</text>
<text xml:space="preserve" text-anchor="middle" x="729.75" y="-44.5" font-family="Helvetica,sans-Serif" font-size="10.00">::AbstractThread</text>
</a>
</g>
</g>
<!-- Node4&#45;&gt;Node5 -->
<g id="edge4_Node000004_Node000005" class="edge">
<title>Node4&#45;&gt;Node5</title>
<g id="a_edge4_Node000004_Node000005"><a xlink:title=" ">
<path fill="none" stroke="#63b8ff" d="M629.1,-54C636.96,-54 645.06,-54 653.08,-54"/>
<polygon fill="#63b8ff" stroke="#63b8ff" points="652.81,-57.5 662.81,-54 652.81,-50.5 652.81,-57.5"/>
</a>
</g>
</g>
<!-- Node6 -->
<g id="Node000006" class="node">
<title>Node6</title>
<g id="a_Node000006"><a xlink:href="classAsyncFw_1_1AbstractThread.html#a0cd916251e061aaf3d456575ef052edd" target="_top" xlink:title="Returns name of managed thread.">
<polygon fill="white" stroke="#666666" points="960.75,-48 830.75,-48 830.75,-16 960.75,-16 960.75,-48"/>
<text xml:space="preserve" text-anchor="start" x="838.75" y="-34.5" font-family="Helvetica,sans-Serif" font-size="10.00">AsyncFw::AbstractThread</text>
<text xml:space="preserve" text-anchor="middle" x="895.75" y="-22.5" font-family="Helvetica,sans-Serif" font-size="10.00">::name</text>
</a>
</g>
</g>
<!-- Node5&#45;&gt;Node6 -->
<g id="edge5_Node000005_Node000006" class="edge">
<title>Node5&#45;&gt;Node6</title>
<g id="a_edge5_Node000005_Node000006"><a xlink:title=" ">
<path fill="none" stroke="#63b8ff" d="M795.1,-45.37C802.96,-44.31 811.06,-43.23 819.08,-42.15"/>
<polygon fill="#63b8ff" stroke="#63b8ff" points="819.37,-45.64 828.82,-40.84 818.44,-38.71 819.37,-45.64"/>
</a>
</g>
</g>
<!-- Node7&#45;&gt;Node5 -->
<g id="edge7_Node000007_Node000005" class="edge">
<title>Node7&#45;&gt;Node5</title>
<g id="a_edge7_Node000007_Node000005"><a xlink:title=" ">
<path fill="none" stroke="#63b8ff" d="M603.62,-20.43C619.46,-24.68 638.3,-29.73 656.49,-34.61"/>
<polygon fill="#63b8ff" stroke="#63b8ff" points="655.38,-37.94 665.94,-37.15 657.19,-31.18 655.38,-37.94"/>
</a>
</g>
</g>
<!-- Node7&#45;&gt;Node6 -->
<g id="edge8_Node000007_Node000006" class="edge">
<title>Node7&#45;&gt;Node6</title>
<g id="a_edge8_Node000007_Node000006"><a xlink:title=" ">
<path fill="none" stroke="#63b8ff" d="M628.77,-14.27C683.24,-17.9 761.57,-23.12 819.13,-26.96"/>
<polygon fill="#63b8ff" stroke="#63b8ff" points="818.63,-30.43 828.84,-27.61 819.09,-23.45 818.63,-30.43"/>
</a>
</g>
</g>
</g>
</svg>
