<?xml version="1.0" encoding="UTF-8" standalone="no"?>
<!DOCTYPE svg PUBLIC "-//W3C//DTD SVG 1.1//EN"
 "http://www.w3.org/Graphics/SVG/1.1/DTD/svg11.dtd">
<!-- Generated by graphviz version 12.2.1 (20241206.2353)
 -->
<!-- Title: AsyncFw::MulticastDns::sendQuery Pages: 1 -->
<svg width="286pt" height="58pt"
 viewBox="0.00 0.00 286.00 58.00" xmlns="http://www.w3.org/2000/svg" xmlns:xlink="http://www.w3.org/1999/xlink">
<g id="graph0" class="graph" transform="scale(1 1) rotate(0) translate(4 54)">
<title>AsyncFw::MulticastDns::sendQuery</title>
<!-- Node1 -->
<g id="Node000001" class="node">
<title>Node1</title>
<g id="a_Node000001"><a xlink:title="Broadcasts an immediate multicast query to discover hosts.">
<polygon fill="#999999" stroke="#666666" points="278,-32 157,-32 157,0 278,0 278,-32"/>
<text text-anchor="start" x="165" y="-18.5" font-family="Helvetica,sans-Serif" font-size="10.00">AsyncFw::MulticastDns</text>
<text text-anchor="middle" x="217.5" y="-6.5" font-family="Helvetica,sans-Serif" font-size="10.00">::sendQuery</text>
</a>
</g>
</g>
<!-- Node1&#45;&gt;Node1 -->
<g id="edge1_Node000001_Node000001" class="edge">
<title>Node1&#45;&gt;Node1</title>
<g id="a_edge1_Node000001_Node000001"><a xlink:title=" ">
<path fill="none" stroke="#63b8ff" d="M243.66,-43.71C239.3,-47.48 230.58,-50 217.5,-50 193.58,-50 184.24,-41.58 189.47,-32.44"/>
<polygon fill="#63b8ff" stroke="#63b8ff" points="247.1,-44.37 245.28,-33.94 240.19,-43.23 247.1,-44.37"/>
</a>
</g>
</g>
<!-- Node2 -->
<g id="Node000002" class="node">
<title>Node2</title>
<g id="a_Node000002"><a xlink:href="classAsyncFw_1_1MulticastDns.html#a25e8fbeb40f247abb9a34d2af3c7c716" target="_top" xlink:title="Starts the background cyclic network polling task for host discovery.">
<polygon fill="white" stroke="#666666" points="121,-32 0,-32 0,0 121,0 121,-32"/>
<text text-anchor="start" x="8" y="-18.5" font-family="Helvetica,sans-Serif" font-size="10.00">AsyncFw::MulticastDns</text>
<text text-anchor="middle" x="60.5" y="-6.5" font-family="Helvetica,sans-Serif" font-size="10.00">::startQuerier</text>
</a>
</g>
</g>
<!-- Node1&#45;&gt;Node2 -->
<g id="edge2_Node000001_Node000002" class="edge">
<title>Node1&#45;&gt;Node2</title>
<g id="a_edge2_Node000001_Node000002"><a xlink:title=" ">
<path fill="none" stroke="#63b8ff" d="M145.31,-16C137.27,-16 129.14,-16 121.27,-16"/>
<polygon fill="#63b8ff" stroke="#63b8ff" points="145.06,-19.5 155.06,-16 145.06,-12.5 145.06,-19.5"/>
</a>
</g>
</g>
</g>
</svg>
