<?xml version="1.0" encoding="UTF-8" standalone="no"?>
<!DOCTYPE svg PUBLIC "-//W3C//DTD SVG 1.1//EN"
 "http://www.w3.org/Graphics/SVG/1.1/DTD/svg11.dtd">
<!-- Generated by graphviz version 12.2.1 (20241206.2353)
 -->
<!-- Title: AsyncFw::AbstractThread Pages: 1 -->
<svg width="290pt" height="152pt"
 viewBox="0.00 0.00 289.88 152.00" xmlns="http://www.w3.org/2000/svg" xmlns:xlink="http://www.w3.org/1999/xlink">
<g id="graph0" class="graph" transform="scale(1 1) rotate(0) translate(4 148)">
<title>AsyncFw::AbstractThread</title>
<!-- Node1 -->
<g id="Node000001" class="node">
<title>Node1</title>
<g id="a_Node000001"><a xlink:title="The AbstractThread class provides the base functionality for thread management.">
<polygon fill="#999999" stroke="#666666" points="214.75,-144 84.75,-144 84.75,-124 214.75,-124 214.75,-144"/>
<text text-anchor="middle" x="149.75" y="-130.5" font-family="Helvetica,sans-Serif" font-size="10.00">AsyncFw::AbstractThread</text>
</a>
</g>
</g>
<!-- Node2 -->
<g id="Node000002" class="node">
<title>Node2</title>
<g id="a_Node000002"><a xlink:href="classAsyncFw_1_1Thread.html" target="_top" xlink:title="AsyncFw::Thread thread with sockets.">
<polygon fill="white" stroke="#666666" points="196.38,-88 103.12,-88 103.12,-68 196.38,-68 196.38,-88"/>
<text text-anchor="middle" x="149.75" y="-74.5" font-family="Helvetica,sans-Serif" font-size="10.00">AsyncFw::Thread</text>
</a>
</g>
</g>
<!-- Node1&#45;&gt;Node2 -->
<g id="edge1_Node000001_Node000002" class="edge">
<title>Node1&#45;&gt;Node2</title>
<g id="a_edge1_Node000001_Node000002"><a xlink:title=" ">
<path fill="none" stroke="#63b8ff" d="M149.75,-112.13C149.75,-103.9 149.75,-94.85 149.75,-88.3"/>
<polygon fill="#63b8ff" stroke="#63b8ff" points="146.25,-112.08 149.75,-122.08 153.25,-112.08 146.25,-112.08"/>
</a>
</g>
</g>
<!-- Node3 -->
<g id="Node000003" class="node">
<title>Node3</title>
<g id="a_Node000003"><a xlink:href="classAsyncFw_1_1AbstractThreadPool_1_1Thread.html" target="_top" xlink:title=" ">
<polygon fill="white" stroke="#666666" points="149.5,-32 0,-32 0,0 149.5,0 149.5,-32"/>
<text text-anchor="start" x="8" y="-18.5" font-family="Helvetica,sans-Serif" font-size="10.00">AsyncFw::AbstractThreadPool</text>
<text text-anchor="middle" x="74.75" y="-6.5" font-family="Helvetica,sans-Serif" font-size="10.00">::Thread</text>
</a>
</g>
</g>
<!-- Node2&#45;&gt;Node3 -->
<g id="edge2_Node000002_Node000003" class="edge">
<title>Node2&#45;&gt;Node3</title>
<g id="a_edge2_Node000002_Node000003"><a xlink:title=" ">
<path fill="none" stroke="#63b8ff" d="M129.14,-60.51C118.16,-51.72 104.73,-40.98 93.97,-32.37"/>
<polygon fill="#63b8ff" stroke="#63b8ff" points="126.85,-63.17 136.85,-66.68 131.23,-57.7 126.85,-63.17"/>
</a>
</g>
</g>
<!-- Node4 -->
<g id="Node000004" class="node">
<title>Node4</title>
<g id="a_Node000004"><a xlink:href="classAsyncFw_1_1MainThread.html" target="_top" xlink:title="The MainThread class.">
<polygon fill="white" stroke="#666666" points="281.88,-26 167.62,-26 167.62,-6 281.88,-6 281.88,-26"/>
<text text-anchor="middle" x="224.75" y="-12.5" font-family="Helvetica,sans-Serif" font-size="10.00">AsyncFw::MainThread</text>
</a>
</g>
</g>
<!-- Node2&#45;&gt;Node4 -->
<g id="edge3_Node000002_Node000004" class="edge">
<title>Node2&#45;&gt;Node4</title>
<g id="a_edge3_Node000002_Node000004"><a xlink:title=" ">
<path fill="none" stroke="#8b1a1a" d="M170.32,-60.55C184.19,-49.45 201.96,-35.23 213.36,-26.11"/>
<polygon fill="#8b1a1a" stroke="#8b1a1a" points="168.27,-57.7 162.65,-66.68 172.65,-63.17 168.27,-57.7"/>
</a>
</g>
</g>
</g>
</svg>
