<?xml version="1.0" encoding="UTF-8" standalone="no"?>
<!DOCTYPE svg PUBLIC "-//W3C//DTD SVG 1.1//EN"
 "http://www.w3.org/Graphics/SVG/1.1/DTD/svg11.dtd">
<!-- Generated by graphviz version 12.2.1 (20241206.2353)
 -->
<!-- Title: AsyncFw::ApplicationNotifier Pages: 1 -->
<svg width="286pt" height="281pt"
 viewBox="0.00 0.00 285.58 281.00" xmlns="http://www.w3.org/2000/svg" xmlns:xlink="http://www.w3.org/1999/xlink">
<g id="graph0" class="graph" transform="scale(1 1) rotate(0) translate(4 277)">
<title>AsyncFw::ApplicationNotifier</title>
<!-- Node1 -->
<g id="Node000001" class="node">
<title>Node1</title>
<g id="a_Node000001"><a xlink:title="The ApplicationNotifier class.">
<polygon fill="#999999" stroke="#666666" points="160.38,-20 17.62,-20 17.62,0 160.38,0 160.38,-20"/>
<text text-anchor="middle" x="89" y="-6.5" font-family="Helvetica,sans-Serif" font-size="10.00">AsyncFw::ApplicationNotifier</text>
</a>
</g>
</g>
<!-- Node2 -->
<g id="Node000002" class="node">
<title>Node2</title>
<g id="a_Node000002"><a xlink:href="classAsyncFw_1_1FunctionConnector.html" target="_top" xlink:title=" ">
<polygon fill="white" stroke="#666666" points="178,-112 0,-112 0,-68 178,-68 178,-112"/>
<text text-anchor="start" x="8" y="-98.5" font-family="Helvetica,sans-Serif" font-size="10.00">AsyncFw::FunctionConnector</text>
<text text-anchor="start" x="8" y="-86.5" font-family="Helvetica,sans-Serif" font-size="10.00">&lt; const AsyncFw::ApplicationNotifier</text>
<text text-anchor="middle" x="89" y="-74.5" font-family="Helvetica,sans-Serif" font-size="10.00">::Value &amp; &gt;</text>
</a>
</g>
</g>
<!-- Node2&#45;&gt;Node1 -->
<g id="edge1_Node000001_Node000002" class="edge">
<title>Node2&#45;&gt;Node1</title>
<g id="a_edge1_Node000001_Node000002"><a xlink:title=" ">
<path fill="none" stroke="#9a32cd" stroke-dasharray="5,2" d="M89,-56.57C89,-43.43 89,-29.28 89,-20.29"/>
<polygon fill="#9a32cd" stroke="#9a32cd" points="85.5,-56.17 89,-66.17 92.5,-56.17 85.5,-56.17"/>
</a>
</g>
<text text-anchor="middle" x="102.5" y="-40.5" font-family="Helvetica,sans-Serif" font-size="10.00" fill="grey"> notify</text>
</g>
<!-- Node3 -->
<g id="Node000003" class="node">
<title>Node3</title>
<g id="a_Node000003"><a xlink:href="classAsyncFw_1_1AbstractFunctionConnector.html" target="_top" xlink:title="The AbstractFunctionConnector class provides the base functionality for FunctionConnector.">
<polygon fill="white" stroke="#666666" points="153.75,-273 16.25,-273 16.25,-241 153.75,-241 153.75,-273"/>
<text text-anchor="start" x="24.25" y="-259.5" font-family="Helvetica,sans-Serif" font-size="10.00">AsyncFw::AbstractFunction</text>
<text text-anchor="middle" x="85" y="-247.5" font-family="Helvetica,sans-Serif" font-size="10.00">Connector</text>
</a>
</g>
</g>
<!-- Node3&#45;&gt;Node2 -->
<g id="edge2_Node000002_Node000003" class="edge">
<title>Node3&#45;&gt;Node2</title>
<g id="a_edge2_Node000002_Node000003"><a xlink:title=" ">
<path fill="none" stroke="#63b8ff" d="M85.64,-229.47C86.43,-196.91 87.76,-142.35 88.48,-112.36"/>
<polygon fill="#63b8ff" stroke="#63b8ff" points="82.15,-229.18 85.41,-239.26 89.15,-229.35 82.15,-229.18"/>
</a>
</g>
</g>
<!-- Node4 -->
<g id="Node000004" class="node">
<title>Node4</title>
<g id="a_Node000004"><a xlink:href="classAsyncFw_1_1FunctionConnector.html" target="_top" xlink:title="Provides a sender&#45;to&#45;receivers connection. Receivers can be invoked in their own threads (default beh...">
<polygon fill="white" stroke="#666666" points="246.88,-204 101.12,-204 101.12,-172 246.88,-172 246.88,-204"/>
<text text-anchor="start" x="109.12" y="-190.5" font-family="Helvetica,sans-Serif" font-size="10.00">AsyncFw::FunctionConnector</text>
<text text-anchor="middle" x="174" y="-178.5" font-family="Helvetica,sans-Serif" font-size="10.00">&lt; Args &gt;</text>
</a>
</g>
</g>
<!-- Node3&#45;&gt;Node4 -->
<g id="edge4_Node000004_Node000003" class="edge">
<title>Node3&#45;&gt;Node4</title>
<g id="a_edge4_Node000004_Node000003"><a xlink:title=" ">
<path fill="none" stroke="#63b8ff" d="M114.16,-234.05C127.05,-224.34 141.9,-213.17 153.58,-204.38"/>
<polygon fill="#63b8ff" stroke="#63b8ff" points="112.29,-231.08 106.4,-239.89 116.5,-236.67 112.29,-231.08"/>
</a>
</g>
</g>
<!-- Node4&#45;&gt;Node2 -->
<g id="edge3_Node000002_Node000004" class="edge">
<title>Node4&#45;&gt;Node2</title>
<g id="a_edge3_Node000002_Node000004"><a xlink:title=" ">
<path fill="none" stroke="orange" stroke-dasharray="5,2" d="M152.78,-163.03C139.03,-147.51 121.29,-127.47 108.01,-112.47"/>
<polygon fill="orange" stroke="orange" points="150.09,-165.28 159.34,-170.44 155.33,-160.64 150.09,-165.28"/>
</a>
</g>
<text text-anchor="start" x="144.08" y="-144.5" font-family="Helvetica,sans-Serif" font-size="10.00" fill="grey"> &lt; const AsyncFw::Application</text>
<text text-anchor="middle" x="210.83" y="-132.5" font-family="Helvetica,sans-Serif" font-size="10.00" fill="grey">Notifier::Value &amp; &gt;</text>
</g>
</g>
</svg>
