<?xml version="1.0" encoding="UTF-8" standalone="no"?>
<!DOCTYPE svg PUBLIC "-//W3C//DTD SVG 1.1//EN"
 "http://www.w3.org/Graphics/SVG/1.1/DTD/svg11.dtd">
<!-- Generated by graphviz version 12.2.1 (20241206.2353)
 -->
<!-- Title: AsyncFw::Thread::Thread Pages: 1 -->
<svg width="303pt" height="52pt"
 viewBox="0.00 0.00 302.50 52.00" xmlns="http://www.w3.org/2000/svg" xmlns:xlink="http://www.w3.org/1999/xlink">
<g id="graph0" class="graph" transform="scale(1 1) rotate(0) translate(4 48)">
<title>AsyncFw::Thread::Thread</title>
<!-- Node1 -->
<g id="Node000001" class="node">
<title>Node1</title>
<g id="a_Node000001"><a xlink:title="Constructs a thread.">
<polygon fill="#999999" stroke="#666666" points="294.5,-26 165.25,-26 165.25,-6 294.5,-6 294.5,-26"/>
<text text-anchor="middle" x="229.88" y="-12.5" font-family="Helvetica,sans-Serif" font-size="10.00">AsyncFw::Thread::Thread</text>
</a>
</g>
</g>
<!-- Node1&#45;&gt;Node1 -->
<g id="edge2_Node000001_Node000001" class="edge">
<title>Node1&#45;&gt;Node1</title>
<g id="a_edge2_Node000001_Node000001"><a xlink:title=" ">
<path fill="none" stroke="#63b8ff" d="M259.08,-37.44C255.32,-41.3 245.58,-44 229.88,-44 201.15,-44 192.4,-34.98 203.62,-26.34"/>
<polygon fill="#63b8ff" stroke="#63b8ff" points="262.47,-36.57 256.52,-27.8 255.71,-38.36 262.47,-36.57"/>
</a>
</g>
</g>
<!-- Node2 -->
<g id="Node000002" class="node">
<title>Node2</title>
<g id="a_Node000002"><a xlink:href="classAsyncFw_1_1Thread.html#a46662ffa7482f1c1e52b654c51639fd2" target="_top" xlink:title="Returns a pointer to the AsyncFw::Thread that manages the currently executing thread.">
<polygon fill="white" stroke="#666666" points="129.25,-32 0,-32 0,0 129.25,0 129.25,-32"/>
<text text-anchor="start" x="8" y="-18.5" font-family="Helvetica,sans-Serif" font-size="10.00">AsyncFw::Thread::current</text>
<text text-anchor="middle" x="64.62" y="-6.5" font-family="Helvetica,sans-Serif" font-size="10.00">Thread</text>
</a>
</g>
</g>
<!-- Node1&#45;&gt;Node2 -->
<g id="edge1_Node000001_Node000002" class="edge">
<title>Node1&#45;&gt;Node2</title>
<g id="a_edge1_Node000001_Node000002"><a xlink:title=" ">
<path fill="none" stroke="#63b8ff" d="M153.54,-16C145.5,-16 137.38,-16 129.49,-16"/>
<polygon fill="#63b8ff" stroke="#63b8ff" points="153.31,-19.5 163.31,-16 153.31,-12.5 153.31,-19.5"/>
</a>
</g>
</g>
</g>
</svg>
