<?xml version="1.0" encoding="UTF-8" standalone="no"?>
<!DOCTYPE svg PUBLIC "-//W3C//DTD SVG 1.1//EN"
 "http://www.w3.org/Graphics/SVG/1.1/DTD/svg11.dtd">
<!-- Generated by graphviz version 12.2.1 (20241206.2353)
 -->
<!-- Title: AsyncFw::PollNotifier Pages: 1 -->
<svg width="209pt" height="188pt"
 viewBox="0.00 0.00 208.75 188.00" xmlns="http://www.w3.org/2000/svg" xmlns:xlink="http://www.w3.org/1999/xlink">
<g id="graph0" class="graph" transform="scale(1 1) rotate(0) translate(4 184)">
<title>AsyncFw::PollNotifier</title>
<!-- Node1 -->
<g id="Node000001" class="node">
<title>Node1</title>
<g id="a_Node000001"><a xlink:title="The PollNotifier class Example:">
<polygon fill="#999999" stroke="#666666" points="140.88,-20 29.62,-20 29.62,0 140.88,0 140.88,-20"/>
<text text-anchor="middle" x="85.25" y="-6.5" font-family="Helvetica,sans-Serif" font-size="10.00">AsyncFw::PollNotifier</text>
</a>
</g>
</g>
<!-- Node2 -->
<g id="Node000002" class="node">
<title>Node2</title>
<g id="a_Node000002"><a xlink:href="classAsyncFw_1_1FunctionConnectorProtected.html" target="_top" xlink:title=" ">
<polygon fill="white" stroke="#666666" points="170.5,-100 0,-100 0,-68 170.5,-68 170.5,-100"/>
<text text-anchor="start" x="8" y="-86.5" font-family="Helvetica,sans-Serif" font-size="10.00">AsyncFw::FunctionConnector</text>
<text text-anchor="middle" x="85.25" y="-74.5" font-family="Helvetica,sans-Serif" font-size="10.00">Protected&lt; AsyncFw::PollNotifier &gt;</text>
</a>
</g>
</g>
<!-- Node2&#45;&gt;Node1 -->
<g id="edge1_Node000001_Node000002" class="edge">
<title>Node2&#45;&gt;Node1</title>
<g id="a_edge1_Node000001_Node000002"><a xlink:title=" ">
<path fill="none" stroke="#9a32cd" stroke-dasharray="5,2" d="M85.25,-56.34C85.25,-43.7 85.25,-29.41 85.25,-20.31"/>
<polygon fill="#9a32cd" stroke="#9a32cd" points="81.75,-56.22 85.25,-66.22 88.75,-56.22 81.75,-56.22"/>
</a>
</g>
<text text-anchor="middle" x="98.75" y="-40.5" font-family="Helvetica,sans-Serif" font-size="10.00" fill="grey"> notify</text>
</g>
<!-- Node3 -->
<g id="Node000003" class="node">
<title>Node3</title>
<g id="a_Node000003"><a xlink:href="classAsyncFw_1_1FunctionConnectorProtected.html" target="_top" xlink:title="Защищенный коннетор, отправитель может быть только один.">
<polygon fill="white" stroke="#666666" points="158.12,-180 12.38,-180 12.38,-148 158.12,-148 158.12,-180"/>
<text text-anchor="start" x="20.38" y="-166.5" font-family="Helvetica,sans-Serif" font-size="10.00">AsyncFw::FunctionConnector</text>
<text text-anchor="middle" x="85.25" y="-154.5" font-family="Helvetica,sans-Serif" font-size="10.00">Protected&lt; F &gt;</text>
</a>
</g>
</g>
<!-- Node3&#45;&gt;Node2 -->
<g id="edge2_Node000002_Node000003" class="edge">
<title>Node3&#45;&gt;Node2</title>
<g id="a_edge2_Node000002_Node000003"><a xlink:title=" ">
<path fill="none" stroke="orange" stroke-dasharray="5,2" d="M85.25,-136.37C85.25,-124.37 85.25,-110.63 85.25,-100.38"/>
<polygon fill="orange" stroke="orange" points="81.75,-136.08 85.25,-146.08 88.75,-136.08 81.75,-136.08"/>
</a>
</g>
<text text-anchor="middle" x="143" y="-120.5" font-family="Helvetica,sans-Serif" font-size="10.00" fill="grey"> &lt; AsyncFw::PollNotifier &gt;</text>
</g>
</g>
</svg>
