<?xml version="1.0" encoding="UTF-8" standalone="no"?>
<!DOCTYPE svg PUBLIC "-//W3C//DTD SVG 1.1//EN"
 "http://www.w3.org/Graphics/SVG/1.1/DTD/svg11.dtd">
<!-- Generated by graphviz version 12.2.1 (20241206.2353)
 -->
<!-- Title: AsyncFw::AbstractInstance Pages: 1 -->
<svg width="656pt" height="170pt"
 viewBox="0.00 0.00 656.25 170.00" xmlns="http://www.w3.org/2000/svg" xmlns:xlink="http://www.w3.org/1999/xlink">
<g id="graph0" class="graph" transform="scale(1 1) rotate(0) translate(4 166)">
<title>AsyncFw::AbstractInstance</title>
<!-- Node1 -->
<g id="Node000001" class="node">
<title>Node1</title>
<g id="a_Node000001"><a xlink:title="The AbstractInstance class.">
<polygon fill="#999999" stroke="#666666" points="137.5,-64 0,-64 0,-44 137.5,-44 137.5,-64"/>
<text text-anchor="middle" x="68.75" y="-50.5" font-family="Helvetica,sans-Serif" font-size="10.00">AsyncFw::AbstractInstance</text>
</a>
</g>
</g>
<!-- Node2 -->
<g id="Node000002" class="node">
<title>Node2</title>
<g id="a_Node000002"><a xlink:href="classAsyncFw_1_1Instance.html" target="_top" xlink:title=" ">
<polygon fill="white" stroke="#666666" points="621.62,-162 514.88,-162 514.88,-130 621.62,-130 621.62,-162"/>
<text text-anchor="start" x="522.88" y="-148.5" font-family="Helvetica,sans-Serif" font-size="10.00">AsyncFw::Instance&lt;</text>
<text text-anchor="middle" x="568.25" y="-136.5" font-family="Helvetica,sans-Serif" font-size="10.00"> Log &gt;</text>
</a>
</g>
</g>
<!-- Node1&#45;&gt;Node2 -->
<g id="edge1_Node000001_Node000002" class="edge">
<title>Node1&#45;&gt;Node2</title>
<g id="a_edge1_Node000001_Node000002"><a xlink:title=" ">
<path fill="none" stroke="#63b8ff" d="M97.41,-69.93C118.13,-81.39 147.45,-96.59 174.5,-107 235.88,-130.63 252.06,-137.26 317.25,-146 385,-155.09 464.02,-152.99 514.79,-150.04"/>
<polygon fill="#63b8ff" stroke="#63b8ff" points="99.17,-66.91 88.73,-65.07 95.74,-73.01 99.17,-66.91"/>
</a>
</g>
</g>
<!-- Node3 -->
<g id="Node000003" class="node">
<title>Node3</title>
<g id="a_Node000003"><a xlink:href="classAsyncFw_1_1Instance.html" target="_top" xlink:title=" ">
<polygon fill="white" stroke="#666666" points="648.25,-102 488.25,-102 488.25,-70 648.25,-70 648.25,-102"/>
<text text-anchor="start" x="496.25" y="-88.5" font-family="Helvetica,sans-Serif" font-size="10.00">AsyncFw::Instance&lt;</text>
<text text-anchor="middle" x="568.25" y="-76.5" font-family="Helvetica,sans-Serif" font-size="10.00"> AsyncFw::FileSystemWatcher &gt;</text>
</a>
</g>
</g>
<!-- Node1&#45;&gt;Node3 -->
<g id="edge2_Node000001_Node000003" class="edge">
<title>Node1&#45;&gt;Node3</title>
<g id="a_edge2_Node000001_Node000003"><a xlink:title=" ">
<path fill="none" stroke="#63b8ff" d="M147.96,-42.13C229.35,-32.13 360.07,-22.67 470.25,-45 493.72,-49.76 518.57,-60.38 537.24,-69.62"/>
<polygon fill="#63b8ff" stroke="#63b8ff" points="147.79,-38.63 138.31,-43.36 148.67,-45.57 147.79,-38.63"/>
</a>
</g>
</g>
<!-- Node4 -->
<g id="Node000004" class="node">
<title>Node4</title>
<g id="a_Node000004"><a xlink:href="classAsyncFw_1_1Instance.html" target="_top" xlink:title=" ">
<polygon fill="white" stroke="#666666" points="630.25,-32 506.25,-32 506.25,0 630.25,0 630.25,-32"/>
<text text-anchor="start" x="514.25" y="-18.5" font-family="Helvetica,sans-Serif" font-size="10.00">AsyncFw::Instance&lt;</text>
<text text-anchor="middle" x="568.25" y="-6.5" font-family="Helvetica,sans-Serif" font-size="10.00"> AsyncFw::ThreadPool &gt;</text>
</a>
</g>
</g>
<!-- Node1&#45;&gt;Node4 -->
<g id="edge3_Node000001_Node000004" class="edge">
<title>Node1&#45;&gt;Node4</title>
<g id="a_edge3_Node000001_Node000004"><a xlink:title=" ">
<path fill="none" stroke="#63b8ff" d="M113.23,-40.46C131.9,-35.26 154.08,-29.88 174.5,-27 290.84,-10.59 428.43,-11.28 506.01,-13.49"/>
<polygon fill="#63b8ff" stroke="#63b8ff" points="112.5,-37.03 103.85,-43.15 114.43,-43.76 112.5,-37.03"/>
</a>
</g>
</g>
<!-- Node5 -->
<g id="Node000005" class="node">
<title>Node5</title>
<g id="a_Node000005"><a xlink:href="classAsyncFw_1_1Instance.html" target="_top" xlink:title="The Instance class.">
<polygon fill="white" stroke="#666666" points="299.25,-98 174.5,-98 174.5,-78 299.25,-78 299.25,-98"/>
<text text-anchor="middle" x="236.88" y="-84.5" font-family="Helvetica,sans-Serif" font-size="10.00">AsyncFw::Instance&lt; T &gt;</text>
</a>
</g>
</g>
<!-- Node1&#45;&gt;Node5 -->
<g id="edge4_Node000001_Node000005" class="edge">
<title>Node1&#45;&gt;Node5</title>
<g id="a_edge4_Node000001_Node000005"><a xlink:title=" ">
<path fill="none" stroke="#63b8ff" d="M132.15,-66.77C149.53,-70.33 168.2,-74.15 184.85,-77.56"/>
<polygon fill="#63b8ff" stroke="#63b8ff" points="132.93,-63.36 122.43,-64.78 131.53,-70.22 132.93,-63.36"/>
</a>
</g>
</g>
<!-- Node5&#45;&gt;Node2 -->
<g id="edge5_Node000005_Node000002" class="edge">
<title>Node5&#45;&gt;Node2</title>
<g id="a_edge5_Node000005_Node000002"><a xlink:title=" ">
<path fill="none" stroke="orange" stroke-dasharray="5,2" d="M299.88,-100.7C305.74,-101.84 311.61,-102.96 317.25,-104 385.2,-116.55 463.83,-129.51 514.49,-137.65"/>
<polygon fill="orange" stroke="orange" points="300.61,-97.28 290.13,-98.78 299.26,-104.15 300.61,-97.28"/>
</a>
</g>
<text text-anchor="middle" x="393.75" y="-132.21" font-family="Helvetica,sans-Serif" font-size="10.00" fill="grey"> &lt; Log &gt;</text>
</g>
<!-- Node5&#45;&gt;Node3 -->
<g id="edge6_Node000005_Node000003" class="edge">
<title>Node5&#45;&gt;Node3</title>
<g id="a_edge6_Node000005_Node000003"><a xlink:title=" ">
<path fill="none" stroke="orange" stroke-dasharray="5,2" d="M310.69,-87.56C363.17,-87.24 433.97,-86.81 487.9,-86.48"/>
<polygon fill="orange" stroke="orange" points="310.93,-84.06 300.96,-87.62 310.98,-91.06 310.93,-84.06"/>
</a>
</g>
<text text-anchor="middle" x="393.75" y="-90.02" font-family="Helvetica,sans-Serif" font-size="10.00" fill="grey"> &lt; AsyncFw::FileSystemWatcher &gt;</text>
</g>
<!-- Node5&#45;&gt;Node4 -->
<g id="edge7_Node000005_Node000004" class="edge">
<title>Node5&#45;&gt;Node4</title>
<g id="a_edge7_Node000005_Node000004"><a xlink:title=" ">
<path fill="none" stroke="orange" stroke-dasharray="5,2" d="M296.76,-75.13C355.7,-62.24 446,-42.5 505.83,-29.43"/>
<polygon fill="orange" stroke="orange" points="296.27,-71.65 287.25,-77.21 297.76,-78.49 296.27,-71.65"/>
</a>
</g>
<text text-anchor="middle" x="393.75" y="-73.1" font-family="Helvetica,sans-Serif" font-size="10.00" fill="grey"> &lt; AsyncFw::ThreadPool &gt;</text>
</g>
</g>
</svg>
