<?xml version="1.0" encoding="UTF-8" standalone="no"?>
<!DOCTYPE svg PUBLIC "-//W3C//DTD SVG 1.1//EN"
 "http://www.w3.org/Graphics/SVG/1.1/DTD/svg11.dtd">
<!-- Generated by graphviz version 12.2.1 (20241206.2353)
 -->
<!-- Title: AsyncFw::AbstractFunctionConnector Pages: 1 -->
<svg width="239pt" height="189pt"
 viewBox="0.00 0.00 238.75 189.00" xmlns="http://www.w3.org/2000/svg" xmlns:xlink="http://www.w3.org/1999/xlink">
<g id="graph0" class="graph" transform="scale(1 1) rotate(0) translate(4 185)">
<title>AsyncFw::AbstractFunctionConnector</title>
<!-- Node1 -->
<g id="Node000001" class="node">
<title>Node1</title>
<g id="a_Node000001"><a xlink:title="The AbstractFunctionConnector class.">
<polygon fill="#999999" stroke="#666666" points="137.62,-181 0.12,-181 0.12,-149 137.62,-149 137.62,-181"/>
<text text-anchor="start" x="8.12" y="-167.5" font-family="Helvetica,sans-Serif" font-size="10.00">AsyncFw::AbstractFunction</text>
<text text-anchor="middle" x="68.88" y="-155.5" font-family="Helvetica,sans-Serif" font-size="10.00">Connector</text>
</a>
</g>
</g>
<!-- Node2 -->
<g id="Node000002" class="node">
<title>Node2</title>
<g id="a_Node000002"><a xlink:href="classAsyncFw_1_1FunctionConnector.html" target="_top" xlink:title=" ">
<polygon fill="white" stroke="#666666" points="145.75,-32 0,-32 0,0 145.75,0 145.75,-32"/>
<text text-anchor="start" x="8" y="-18.5" font-family="Helvetica,sans-Serif" font-size="10.00">AsyncFw::FunctionConnector</text>
<text text-anchor="middle" x="72.88" y="-6.5" font-family="Helvetica,sans-Serif" font-size="10.00">&lt; Args... &gt;</text>
</a>
</g>
</g>
<!-- Node1&#45;&gt;Node2 -->
<g id="edge1_Node000001_Node000002" class="edge">
<title>Node1&#45;&gt;Node2</title>
<g id="a_edge1_Node000001_Node000002"><a xlink:title=" ">
<path fill="none" stroke="#63b8ff" d="M69.6,-137.4C70.44,-106.65 71.78,-57.1 72.46,-32.25"/>
<polygon fill="#63b8ff" stroke="#63b8ff" points="66.11,-136.94 69.34,-147.03 73.11,-137.13 66.11,-136.94"/>
</a>
</g>
</g>
<!-- Node3 -->
<g id="Node000003" class="node">
<title>Node3</title>
<g id="a_Node000003"><a xlink:href="classAsyncFw_1_1FunctionConnector.html" target="_top" xlink:title="Обеспечивает соединение отправитель &#45;&gt; получатели. Получатели могут быть вызваны в своих потоках (по ...">
<polygon fill="white" stroke="#666666" points="230.75,-112 85,-112 85,-80 230.75,-80 230.75,-112"/>
<text text-anchor="start" x="93" y="-98.5" font-family="Helvetica,sans-Serif" font-size="10.00">AsyncFw::FunctionConnector</text>
<text text-anchor="middle" x="157.88" y="-86.5" font-family="Helvetica,sans-Serif" font-size="10.00">&lt; Args &gt;</text>
</a>
</g>
</g>
<!-- Node1&#45;&gt;Node3 -->
<g id="edge2_Node000001_Node000003" class="edge">
<title>Node1&#45;&gt;Node3</title>
<g id="a_edge2_Node000001_Node000003"><a xlink:title=" ">
<path fill="none" stroke="#63b8ff" d="M98.04,-142.05C110.93,-132.34 125.77,-121.17 137.45,-112.38"/>
<polygon fill="#63b8ff" stroke="#63b8ff" points="96.16,-139.08 90.28,-147.89 100.37,-144.67 96.16,-139.08"/>
</a>
</g>
</g>
<!-- Node3&#45;&gt;Node2 -->
<g id="edge3_Node000003_Node000002" class="edge">
<title>Node3&#45;&gt;Node2</title>
<g id="a_edge3_Node000003_Node000002"><a xlink:title=" ">
<path fill="none" stroke="orange" stroke-dasharray="5,2" d="M132.87,-72.05C118.94,-59.27 101.97,-43.69 89.63,-32.38"/>
<polygon fill="orange" stroke="orange" points="130.23,-74.38 139.97,-78.57 134.97,-69.23 130.23,-74.38"/>
</a>
</g>
<text text-anchor="middle" x="145.21" y="-52.5" font-family="Helvetica,sans-Serif" font-size="10.00" fill="grey"> &lt; Args... &gt;</text>
</g>
</g>
</svg>
