<?xml version="1.0" encoding="UTF-8" standalone="no"?>
<!DOCTYPE svg PUBLIC "-//W3C//DTD SVG 1.1//EN"
 "http://www.w3.org/Graphics/SVG/1.1/DTD/svg11.dtd">
<!-- Generated by graphviz version 14.1.3 (20260303.0454)
 -->
<!-- Title: AsyncFw::Rrd::read Pages: 1 -->
<svg width="273pt" height="66pt"
 viewBox="0.00 0.00 273.00 66.00" xmlns="http://www.w3.org/2000/svg" xmlns:xlink="http://www.w3.org/1999/xlink">
<g id="graph0" class="graph" transform="scale(1 1) rotate(0) translate(4 62)">
<title>AsyncFw::Rrd::read</title>
<!-- Node1 -->
<g id="Node000001" class="node">
<title>Node1</title>
<g id="a_Node000001"><a xlink:title="Slices historical time&#45;series data records from a given timestamp and extracts them into a provided d...">
<polygon fill="#999999" stroke="#666666" points="103.75,-39 0,-39 0,-19 103.75,-19 103.75,-39"/>
<text xml:space="preserve" text-anchor="middle" x="51.88" y="-25.5" font-family="Helvetica,sans-Serif" font-size="10.00">AsyncFw::Rrd::read</text>
</a>
</g>
</g>
<!-- Node2 -->
<g id="Node000002" class="node">
<title>Node2</title>
<g id="a_Node000002"><a xlink:href="classAsyncFw_1_1Rrd.html#a113f3548987e7b830295e91bc74e2b89" target="_top" xlink:title="Returns the absolute unique incremental primary master timeline database record tracking index offset...">
<polygon fill="white" stroke="#666666" points="264.5,-58 139.75,-58 139.75,-38 264.5,-38 264.5,-58"/>
<text xml:space="preserve" text-anchor="middle" x="202.12" y="-44.5" font-family="Helvetica,sans-Serif" font-size="10.00">AsyncFw::Rrd::lastIndex</text>
</a>
</g>
</g>
<!-- Node1&#45;&gt;Node2 -->
<g id="edge1_Node000001_Node000002" class="edge">
<title>Node1&#45;&gt;Node2</title>
<g id="a_edge1_Node000001_Node000002"><a xlink:title=" ">
<path fill="none" stroke="#63b8ff" d="M103.89,-35.54C111.64,-36.53 119.75,-37.57 127.85,-38.61"/>
<polygon fill="#63b8ff" stroke="#63b8ff" points="127.4,-42.08 137.76,-39.88 128.28,-35.14 127.4,-42.08"/>
</a>
</g>
</g>
<!-- Node3 -->
<g id="Node000003" class="node">
<title>Node3</title>
<g id="a_Node000003"><a xlink:href="classAsyncFw_1_1Rrd.html#a330145de892c6f5e916d7dda15aeedfc" target="_top" xlink:title="Returns the absolute maximum capability size (total slots) configured for this circular ring buffer l...">
<polygon fill="white" stroke="#666666" points="253.62,-20 150.62,-20 150.62,0 253.62,0 253.62,-20"/>
<text xml:space="preserve" text-anchor="middle" x="202.12" y="-6.5" font-family="Helvetica,sans-Serif" font-size="10.00">AsyncFw::Rrd::size</text>
</a>
</g>
</g>
<!-- Node1&#45;&gt;Node3 -->
<g id="edge2_Node000001_Node000003" class="edge">
<title>Node1&#45;&gt;Node3</title>
<g id="a_edge2_Node000001_Node000003"><a xlink:title=" ">
<path fill="none" stroke="#63b8ff" d="M103.89,-22.46C115.26,-21.01 127.42,-19.45 139.17,-17.94"/>
<polygon fill="#63b8ff" stroke="#63b8ff" points="139.29,-21.45 148.76,-16.71 138.4,-14.51 139.29,-21.45"/>
</a>
</g>
</g>
</g>
</svg>
