<?xml version="1.0" encoding="UTF-8" standalone="no"?>
<!DOCTYPE svg PUBLIC "-//W3C//DTD SVG 1.1//EN"
 "http://www.w3.org/Graphics/SVG/1.1/DTD/svg11.dtd">
<!-- Generated by graphviz version 14.1.3 (20260303.0454)
 -->
<!-- Title: AsyncFw::DataArrayTcpClient::Thread Pages: 1 -->
<svg width="312pt" height="370pt"
 viewBox="0.00 0.00 312.00 370.00" xmlns="http://www.w3.org/2000/svg" xmlns:xlink="http://www.w3.org/1999/xlink">
<g id="graph0" class="graph" transform="scale(1 1) rotate(0) translate(4 366)">
<title>AsyncFw::DataArrayTcpClient::Thread</title>
<!-- Node1 -->
<g id="Node000001" class="node">
<title>Node1</title>
<g id="a_Node000001"><a xlink:title=" ">
<polygon fill="#999999" stroke="#666666" points="246.88,-32 98.88,-32 98.88,0 246.88,0 246.88,-32"/>
<text xml:space="preserve" text-anchor="start" x="106.88" y="-18.5" font-family="Helvetica,sans-Serif" font-size="10.00">AsyncFw::DataArrayTcpClient</text>
<text xml:space="preserve" text-anchor="middle" x="172.88" y="-6.5" font-family="Helvetica,sans-Serif" font-size="10.00">::Thread</text>
</a>
</g>
</g>
<!-- Node2 -->
<g id="Node000002" class="node">
<title>Node2</title>
<g id="a_Node000002"><a xlink:href="classAsyncFw_1_1DataArrayAbstractTcp_1_1Thread.html" target="_top" xlink:title=" ">
<polygon fill="white" stroke="#666666" points="245,-101 100.75,-101 100.75,-69 245,-69 245,-101"/>
<text xml:space="preserve" text-anchor="start" x="108.75" y="-87.5" font-family="Helvetica,sans-Serif" font-size="10.00">AsyncFw::DataArrayAbstract</text>
<text xml:space="preserve" text-anchor="middle" x="172.88" y="-75.5" font-family="Helvetica,sans-Serif" font-size="10.00">Tcp::Thread</text>
</a>
</g>
</g>
<!-- Node2&#45;&gt;Node1 -->
<g id="edge1_Node000001_Node000002" class="edge">
<title>Node2&#45;&gt;Node1</title>
<g id="a_edge1_Node000001_Node000002"><a xlink:title=" ">
<path fill="none" stroke="#63b8ff" d="M172.88,-57.35C172.88,-48.78 172.88,-39.59 172.88,-32.14"/>
<polygon fill="#63b8ff" stroke="#63b8ff" points="169.38,-57.28 172.88,-67.28 176.38,-57.28 169.38,-57.28"/>
</a>
</g>
</g>
<!-- Node3 -->
<g id="Node000003" class="node">
<title>Node3</title>
<g id="a_Node000003"><a xlink:href="classAsyncFw_1_1AbstractThreadPool_1_1Thread.html" target="_top" xlink:title=" ">
<polygon fill="white" stroke="#666666" points="192.62,-170 43.12,-170 43.12,-138 192.62,-138 192.62,-170"/>
<text xml:space="preserve" text-anchor="start" x="51.12" y="-156.5" font-family="Helvetica,sans-Serif" font-size="10.00">AsyncFw::AbstractThreadPool</text>
<text xml:space="preserve" text-anchor="middle" x="117.88" y="-144.5" font-family="Helvetica,sans-Serif" font-size="10.00">::Thread</text>
</a>
</g>
</g>
<!-- Node3&#45;&gt;Node2 -->
<g id="edge2_Node000002_Node000003" class="edge">
<title>Node3&#45;&gt;Node2</title>
<g id="a_edge2_Node000002_Node000003"><a xlink:title=" ">
<path fill="none" stroke="#63b8ff" d="M137.59,-128.98C145.21,-119.7 153.7,-109.36 160.44,-101.14"/>
<polygon fill="#63b8ff" stroke="#63b8ff" points="134.96,-126.68 131.32,-136.63 140.37,-131.12 134.96,-126.68"/>
</a>
</g>
</g>
<!-- Node4 -->
<g id="Node000004" class="node">
<title>Node4</title>
<g id="a_Node000004"><a xlink:href="classAsyncFw_1_1Thread.html" target="_top" xlink:title="AsyncFw::Thread thread with sockets.">
<polygon fill="white" stroke="#666666" points="136.5,-244 43.25,-244 43.25,-224 136.5,-224 136.5,-244"/>
<text xml:space="preserve" text-anchor="middle" x="89.88" y="-230.5" font-family="Helvetica,sans-Serif" font-size="10.00">AsyncFw::Thread</text>
</a>
</g>
</g>
<!-- Node4&#45;&gt;Node3 -->
<g id="edge3_Node000003_Node000004" class="edge">
<title>Node4&#45;&gt;Node3</title>
<g id="a_edge3_Node000003_Node000004"><a xlink:title=" ">
<path fill="none" stroke="#63b8ff" d="M97.09,-212.91C101.84,-199.67 107.97,-182.59 112.34,-170.42"/>
<polygon fill="#63b8ff" stroke="#63b8ff" points="93.79,-211.73 93.71,-222.32 100.38,-214.09 93.79,-211.73"/>
</a>
</g>
</g>
<!-- Node5 -->
<g id="Node000005" class="node">
<title>Node5</title>
<g id="a_Node000005"><a xlink:href="classAsyncFw_1_1AbstractThread.html" target="_top" xlink:title="The AbstractThread class provides the base functionality for thread management.">
<polygon fill="white" stroke="#666666" points="293.88,-356 163.88,-356 163.88,-336 293.88,-336 293.88,-356"/>
<text xml:space="preserve" text-anchor="middle" x="228.88" y="-342.5" font-family="Helvetica,sans-Serif" font-size="10.00">AsyncFw::AbstractThread</text>
</a>
</g>
</g>
<!-- Node5&#45;&gt;Node4 -->
<g id="edge4_Node000004_Node000005" class="edge">
<title>Node5&#45;&gt;Node4</title>
<g id="a_edge4_Node000004_Node000005"><a xlink:title=" ">
<path fill="none" stroke="#63b8ff" d="M212.6,-327.37C195.56,-309.54 167.49,-281.84 139.88,-262 130.58,-255.32 119.44,-249.15 110.04,-244.4"/>
<polygon fill="#63b8ff" stroke="#63b8ff" points="210,-329.72 219.4,-334.6 215.1,-324.92 210,-329.72"/>
</a>
</g>
</g>
<!-- Node7 -->
<g id="Node000007" class="node">
<title>Node7</title>
<g id="a_Node000007"><a xlink:href="classAsyncFw_1_1AbstractThreadPool.html" target="_top" xlink:title="Abstract base class for creating and managing thread pools.">
<polygon fill="white" stroke="#666666" points="303.62,-244 154.12,-244 154.12,-224 303.62,-224 303.62,-244"/>
<text xml:space="preserve" text-anchor="middle" x="228.88" y="-230.5" font-family="Helvetica,sans-Serif" font-size="10.00">AsyncFw::AbstractThreadPool</text>
</a>
</g>
</g>
<!-- Node5&#45;&gt;Node7 -->
<g id="edge7_Node000007_Node000005" class="edge">
<title>Node5&#45;&gt;Node7</title>
<g id="a_edge7_Node000007_Node000005"><a xlink:title=" ">
<path fill="none" stroke="#9a32cd" stroke-dasharray="5,2" d="M228.88,-324.31C228.88,-300.36 228.88,-261.95 228.88,-244.35"/>
<polygon fill="#9a32cd" stroke="#9a32cd" points="225.38,-324.11 228.88,-334.11 232.38,-324.11 225.38,-324.11"/>
</a>
</g>
<text xml:space="preserve" text-anchor="start" x="231.88" y="-283.25" font-family="Helvetica,sans-Serif" font-size="10.00" fill="grey">thread_</text>
</g>
<!-- Node6 -->
<g id="Node000006" class="node">
<title>Node6</title>
<g id="a_Node000006"><a xlink:href="classAsyncFw_1_1FunctionConnector.html" target="_top" xlink:title="Provides a thread&#45;safe, publisher&#45;subscriber mechanism to establish sender&#45;to&#45;receivers connections.">
<polygon fill="white" stroke="#666666" points="145.75,-362 0,-362 0,-330 145.75,-330 145.75,-362"/>
<text xml:space="preserve" text-anchor="start" x="8" y="-348.5" font-family="Helvetica,sans-Serif" font-size="10.00">AsyncFw::FunctionConnector</text>
<text xml:space="preserve" text-anchor="middle" x="72.88" y="-336.5" font-family="Helvetica,sans-Serif" font-size="10.00">&lt; Args &gt;</text>
</a>
</g>
</g>
<!-- Node6&#45;&gt;Node4 -->
<g id="edge5_Node000004_Node000006" class="edge">
<title>Node6&#45;&gt;Node4</title>
<g id="a_edge5_Node000004_Node000006"><a xlink:title=" ">
<path fill="none" stroke="#9a32cd" stroke-dasharray="5,2" d="M76.96,-318.55C80.67,-294.58 85.92,-260.6 88.43,-244.35"/>
<polygon fill="#9a32cd" stroke="#9a32cd" points="73.54,-317.79 75.47,-328.21 80.46,-318.86 73.54,-317.79"/>
</a>
</g>
<text xml:space="preserve" text-anchor="start" x="88.32" y="-299.25" font-family="Helvetica,sans-Serif" font-size="10.00" fill="grey">destroying</text>
<text xml:space="preserve" text-anchor="start" x="88.32" y="-283.25" font-family="Helvetica,sans-Serif" font-size="10.00" fill="grey">finished</text>
<text xml:space="preserve" text-anchor="start" x="88.32" y="-267.25" font-family="Helvetica,sans-Serif" font-size="10.00" fill="grey">started</text>
</g>
<!-- Node7&#45;&gt;Node2 -->
<g id="edge8_Node000002_Node000007" class="edge">
<title>Node7&#45;&gt;Node2</title>
<g id="a_edge8_Node000002_Node000007"><a xlink:title=" ">
<path fill="none" stroke="#9a32cd" stroke-dasharray="5,2" d="M224.48,-212.4C219.97,-192.84 212.16,-162.82 201.88,-138 196.57,-125.2 188.88,-111.56 182.74,-101.45"/>
<polygon fill="#9a32cd" stroke="#9a32cd" points="221.05,-213.11 226.63,-222.11 227.88,-211.59 221.05,-213.11"/>
</a>
</g>
<text xml:space="preserve" text-anchor="start" x="215.96" y="-150.25" font-family="Helvetica,sans-Serif" font-size="10.00" fill="grey">pool</text>
</g>
<!-- Node7&#45;&gt;Node3 -->
<g id="edge6_Node000003_Node000007" class="edge">
<title>Node7&#45;&gt;Node3</title>
<g id="a_edge6_Node000003_Node000007"><a xlink:title=" ">
<path fill="none" stroke="#9a32cd" stroke-dasharray="5,2" d="M206.41,-217.22C186.99,-203.57 159.08,-183.96 139.82,-170.42"/>
<polygon fill="#9a32cd" stroke="#9a32cd" points="204.27,-219.99 214.47,-222.88 208.3,-214.26 204.27,-219.99"/>
</a>
</g>
<text xml:space="preserve" text-anchor="start" x="192.8" y="-193.25" font-family="Helvetica,sans-Serif" font-size="10.00" fill="grey">pool</text>
</g>
</g>
</svg>
