<?xml version="1.0" encoding="UTF-8" standalone="no"?>
<!DOCTYPE svg PUBLIC "-//W3C//DTD SVG 1.1//EN"
 "http://www.w3.org/Graphics/SVG/1.1/DTD/svg11.dtd">
<!-- Generated by graphviz version 14.1.3 (20260303.0454)
 -->
<!-- Title: AsyncFw::DataArrayTcpClient::createThread Pages: 1 -->
<svg width="674pt" height="140pt"
 viewBox="0.00 0.00 674.00 140.00" xmlns="http://www.w3.org/2000/svg" xmlns:xlink="http://www.w3.org/1999/xlink">
<g id="graph0" class="graph" transform="scale(1 1) rotate(0) translate(4 136)">
<title>AsyncFw::DataArrayTcpClient::createThread</title>
<!-- Node1 -->
<g id="Node000001" class="node">
<title>Node1</title>
<g id="a_Node000001"><a xlink:title="Allocates and spawns a new worker thread within the client pool context.">
<polygon fill="#999999" stroke="#666666" points="148,-107 0,-107 0,-75 148,-75 148,-107"/>
<text xml:space="preserve" text-anchor="start" x="8" y="-93.5" font-family="Helvetica,sans-Serif" font-size="10.00">AsyncFw::DataArrayTcpClient</text>
<text xml:space="preserve" text-anchor="middle" x="74" y="-81.5" font-family="Helvetica,sans-Serif" font-size="10.00">::createThread</text>
</a>
</g>
</g>
<!-- Node2 -->
<g id="Node000002" class="node">
<title>Node2</title>
<g id="a_Node000002"><a xlink:href="classAsyncFw_1_1AbstractThreadPool.html#ac312e723c2e0fa3e4cc18e518853bdf2" target="_top" xlink:title="Returns the identifier name of the thread pool.">
<polygon fill="white" stroke="#666666" points="333.5,-132 184,-132 184,-100 333.5,-100 333.5,-132"/>
<text xml:space="preserve" text-anchor="start" x="192" y="-118.5" font-family="Helvetica,sans-Serif" font-size="10.00">AsyncFw::AbstractThreadPool</text>
<text xml:space="preserve" text-anchor="middle" x="258.75" y="-106.5" font-family="Helvetica,sans-Serif" font-size="10.00">::name</text>
</a>
</g>
</g>
<!-- Node1&#45;&gt;Node2 -->
<g id="edge1_Node000001_Node000002" class="edge">
<title>Node1&#45;&gt;Node2</title>
<g id="a_edge1_Node000001_Node000002"><a xlink:title=" ">
<path fill="none" stroke="#63b8ff" d="M148.28,-101.02C156.18,-102.1 164.26,-103.21 172.28,-104.31"/>
<polygon fill="#63b8ff" stroke="#63b8ff" points="171.68,-107.76 182.06,-105.65 172.63,-100.82 171.68,-107.76"/>
</a>
</g>
</g>
<!-- Node3 -->
<g id="Node000003" class="node">
<title>Node3</title>
<g id="a_Node000003"><a xlink:href="classAsyncFw_1_1AbstractThread.html#afdaccb5da7d4bee5e9ff687f761bd21f" target="_top" xlink:title="Create a managed thread and run exec().">
<polygon fill="white" stroke="#666666" points="323.75,-82 193.75,-82 193.75,-50 323.75,-50 323.75,-82"/>
<text xml:space="preserve" text-anchor="start" x="201.75" y="-68.5" font-family="Helvetica,sans-Serif" font-size="10.00">AsyncFw::AbstractThread</text>
<text xml:space="preserve" text-anchor="middle" x="258.75" y="-56.5" font-family="Helvetica,sans-Serif" font-size="10.00">::start</text>
</a>
</g>
</g>
<!-- Node1&#45;&gt;Node3 -->
<g id="edge2_Node000001_Node000003" class="edge">
<title>Node1&#45;&gt;Node3</title>
<g id="a_edge2_Node000001_Node000003"><a xlink:title=" ">
<path fill="none" stroke="#63b8ff" d="M148.28,-80.98C159.45,-79.45 171,-77.87 182.22,-76.33"/>
<polygon fill="#63b8ff" stroke="#63b8ff" points="182.37,-79.85 191.8,-75.02 181.42,-72.91 182.37,-79.85"/>
</a>
</g>
</g>
<!-- Node4 -->
<g id="Node000004" class="node">
<title>Node4</title>
<g id="a_Node000004"><a xlink:href="classAsyncFw_1_1AbstractThread.html#a1abe0f5c637dcc6af5aff00c5291bd4f" target="_top" xlink:title="Run manage loop.">
<polygon fill="white" stroke="#666666" points="499.5,-82 369.5,-82 369.5,-50 499.5,-50 499.5,-82"/>
<text xml:space="preserve" text-anchor="start" x="377.5" y="-68.5" font-family="Helvetica,sans-Serif" font-size="10.00">AsyncFw::AbstractThread</text>
<text xml:space="preserve" text-anchor="middle" x="434.5" y="-56.5" font-family="Helvetica,sans-Serif" font-size="10.00">::exec</text>
</a>
</g>
</g>
<!-- Node3&#45;&gt;Node4 -->
<g id="edge3_Node000003_Node000004" class="edge">
<title>Node3&#45;&gt;Node4</title>
<g id="a_edge3_Node000003_Node000004"><a xlink:title=" ">
<path fill="none" stroke="#63b8ff" d="M323.95,-66C335.05,-66 346.67,-66 358.03,-66"/>
<polygon fill="#63b8ff" stroke="#63b8ff" points="357.76,-69.5 367.76,-66 357.76,-62.5 357.76,-69.5"/>
</a>
</g>
</g>
<!-- Node5 -->
<g id="Node000005" class="node">
<title>Node5</title>
<g id="a_Node000005"><a xlink:href="classAsyncFw_1_1AbstractThread.html#ad43b7b79e541bd1d6cce20f0231cc64d" target="_top" xlink:title="This call from the thread when it finishing execution.">
<polygon fill="white" stroke="#666666" points="665.5,-132 535.5,-132 535.5,-100 665.5,-100 665.5,-132"/>
<text xml:space="preserve" text-anchor="start" x="543.5" y="-118.5" font-family="Helvetica,sans-Serif" font-size="10.00">AsyncFw::AbstractThread</text>
<text xml:space="preserve" text-anchor="middle" x="600.5" y="-106.5" font-family="Helvetica,sans-Serif" font-size="10.00">::finishedEvent</text>
</a>
</g>
</g>
<!-- Node4&#45;&gt;Node5 -->
<g id="edge4_Node000004_Node000005" class="edge">
<title>Node4&#45;&gt;Node5</title>
<g id="a_edge4_Node000004_Node000005"><a xlink:title=" ">
<path fill="none" stroke="#63b8ff" d="M489.2,-82.37C503.71,-86.8 519.56,-91.63 534.61,-96.22"/>
<polygon fill="#63b8ff" stroke="#63b8ff" points="533.37,-99.5 543.95,-99.06 535.41,-92.8 533.37,-99.5"/>
</a>
</g>
</g>
<!-- Node6 -->
<g id="Node000006" class="node">
<title>Node6</title>
<g id="a_Node000006"><a xlink:href="classAsyncFw_1_1AbstractThread.html#a0cd916251e061aaf3d456575ef052edd" target="_top" xlink:title="Returns name of managed thread.">
<polygon fill="white" stroke="#666666" points="665.5,-82 535.5,-82 535.5,-50 665.5,-50 665.5,-82"/>
<text xml:space="preserve" text-anchor="start" x="543.5" y="-68.5" font-family="Helvetica,sans-Serif" font-size="10.00">AsyncFw::AbstractThread</text>
<text xml:space="preserve" text-anchor="middle" x="600.5" y="-56.5" font-family="Helvetica,sans-Serif" font-size="10.00">::name</text>
</a>
</g>
</g>
<!-- Node4&#45;&gt;Node6 -->
<g id="edge5_Node000004_Node000006" class="edge">
<title>Node4&#45;&gt;Node6</title>
<g id="a_edge5_Node000004_Node000006"><a xlink:title=" ">
<path fill="none" stroke="#63b8ff" d="M499.85,-66C507.71,-66 515.81,-66 523.83,-66"/>
<polygon fill="#63b8ff" stroke="#63b8ff" points="523.56,-69.5 533.56,-66 523.56,-62.5 523.56,-69.5"/>
</a>
</g>
</g>
<!-- Node7 -->
<g id="Node000007" class="node">
<title>Node7</title>
<g id="a_Node000007"><a xlink:href="classAsyncFw_1_1AbstractThread.html#a9b9db94ad8c90eafe1ef34a076af8498" target="_top" xlink:title="This call from thread when it starts executing.">
<polygon fill="white" stroke="#666666" points="665.5,-32 535.5,-32 535.5,0 665.5,0 665.5,-32"/>
<text xml:space="preserve" text-anchor="start" x="543.5" y="-18.5" font-family="Helvetica,sans-Serif" font-size="10.00">AsyncFw::AbstractThread</text>
<text xml:space="preserve" text-anchor="middle" x="600.5" y="-6.5" font-family="Helvetica,sans-Serif" font-size="10.00">::startedEvent</text>
</a>
</g>
</g>
<!-- Node4&#45;&gt;Node7 -->
<g id="edge6_Node000004_Node000007" class="edge">
<title>Node4&#45;&gt;Node7</title>
<g id="a_edge6_Node000004_Node000007"><a xlink:title=" ">
<path fill="none" stroke="#63b8ff" d="M489.2,-49.63C503.71,-45.2 519.56,-40.37 534.61,-35.78"/>
<polygon fill="#63b8ff" stroke="#63b8ff" points="535.41,-39.2 543.95,-32.94 533.37,-32.5 535.41,-39.2"/>
</a>
</g>
</g>
</g>
</svg>
