<?xml version="1.0" encoding="UTF-8" standalone="no"?>
<!DOCTYPE svg PUBLIC "-//W3C//DTD SVG 1.1//EN"
 "http://www.w3.org/Graphics/SVG/1.1/DTD/svg11.dtd">
<!-- Generated by graphviz version 12.2.1 (20241206.2353)
 -->
<!-- Title: AsyncFw::HttpSocket Pages: 1 -->
<svg width="1270pt" height="273pt"
 viewBox="0.00 0.00 1270.00 272.53" xmlns="http://www.w3.org/2000/svg" xmlns:xlink="http://www.w3.org/1999/xlink">
<g id="graph0" class="graph" transform="scale(1 1) rotate(0) translate(4 268.53)">
<title>AsyncFw::HttpSocket</title>
<!-- Node1 -->
<g id="Node000001" class="node">
<title>Node1</title>
<g id="a_Node000001"><a xlink:title="The HttpSocket class.">
<polygon fill="#999999" stroke="#666666" points="1262,-121 1149.25,-121 1149.25,-101 1262,-101 1262,-121"/>
<text text-anchor="middle" x="1205.62" y="-107.5" font-family="Helvetica,sans-Serif" font-size="10.00">AsyncFw::HttpSocket</text>
</a>
</g>
</g>
<!-- Node2 -->
<g id="Node000002" class="node">
<title>Node2</title>
<g id="a_Node000002"><a xlink:href="classAsyncFw_1_1AbstractTlsSocket.html" target="_top" xlink:title="Abstract base class providing Transport Layer Security (TLS/SSL) encryption layers on top of standard...">
<polygon fill="white" stroke="#666666" points="1112.25,-160 968,-160 968,-140 1112.25,-140 1112.25,-160"/>
<text text-anchor="middle" x="1040.12" y="-146.5" font-family="Helvetica,sans-Serif" font-size="10.00">AsyncFw::AbstractTlsSocket</text>
</a>
</g>
</g>
<!-- Node2&#45;&gt;Node1 -->
<g id="edge1_Node000001_Node000002" class="edge">
<title>Node2&#45;&gt;Node1</title>
<g id="a_edge1_Node000001_Node000002"><a xlink:title=" ">
<path fill="none" stroke="#63b8ff" d="M1096,-136.91C1117.05,-131.89 1140.79,-126.23 1160.69,-121.48"/>
<polygon fill="#63b8ff" stroke="#63b8ff" points="1095.33,-133.47 1086.41,-139.2 1096.95,-140.28 1095.33,-133.47"/>
</a>
</g>
</g>
<!-- Node3 -->
<g id="Node000003" class="node">
<title>Node3</title>
<g id="a_Node000003"><a xlink:href="classAsyncFw_1_1AbstractSocket.html" target="_top" xlink:title="Abstract base class providing core network socket functionality and OS descriptor abstraction.">
<polygon fill="white" stroke="#666666" points="868.25,-161 737.5,-161 737.5,-141 868.25,-141 868.25,-161"/>
<text text-anchor="middle" x="802.88" y="-147.5" font-family="Helvetica,sans-Serif" font-size="10.00">AsyncFw::AbstractSocket</text>
</a>
</g>
</g>
<!-- Node3&#45;&gt;Node2 -->
<g id="edge2_Node000002_Node000003" class="edge">
<title>Node3&#45;&gt;Node2</title>
<g id="a_edge2_Node000002_Node000003"><a xlink:title=" ">
<path fill="none" stroke="#63b8ff" d="M879.89,-150.68C908.06,-150.56 939.89,-150.42 967.64,-150.3"/>
<polygon fill="#63b8ff" stroke="#63b8ff" points="879.97,-147.18 869.98,-150.72 880,-154.18 879.97,-147.18"/>
</a>
</g>
</g>
<!-- Node4 -->
<g id="Node000004" class="node">
<title>Node4</title>
<g id="a_Node000004"><a xlink:href="structAsyncFw_1_1AnyData.html" target="_top" xlink:title="The AnyData class.">
<polygon fill="white" stroke="#666666" points="636.25,-197 534.75,-197 534.75,-177 636.25,-177 636.25,-197"/>
<text text-anchor="middle" x="585.5" y="-183.5" font-family="Helvetica,sans-Serif" font-size="10.00">AsyncFw::AnyData</text>
</a>
</g>
</g>
<!-- Node4&#45;&gt;Node3 -->
<g id="edge3_Node000003_Node000004" class="edge">
<title>Node4&#45;&gt;Node3</title>
<g id="a_edge3_Node000003_Node000004"><a xlink:title=" ">
<path fill="none" stroke="#63b8ff" d="M647.6,-177.66C670.21,-174.12 696.04,-169.99 719.5,-166 727.96,-164.56 736.89,-162.99 745.63,-161.42"/>
<polygon fill="#63b8ff" stroke="#63b8ff" points="647.28,-174.17 637.94,-179.17 648.35,-181.09 647.28,-174.17"/>
</a>
</g>
</g>
<!-- Node5 -->
<g id="Node000005" class="node">
<title>Node5</title>
<g id="a_Node000005"><a xlink:href="classAsyncFw_1_1Thread.html" target="_top" xlink:title="AsyncFw::Thread thread with sockets.">
<polygon fill="white" stroke="#666666" points="632.12,-159 538.88,-159 538.88,-139 632.12,-139 632.12,-159"/>
<text text-anchor="middle" x="585.5" y="-145.5" font-family="Helvetica,sans-Serif" font-size="10.00">AsyncFw::Thread</text>
</a>
</g>
</g>
<!-- Node5&#45;&gt;Node3 -->
<g id="edge4_Node000003_Node000005" class="edge">
<title>Node5&#45;&gt;Node3</title>
<g id="a_edge4_Node000003_Node000005"><a xlink:title=" ">
<path fill="none" stroke="#9a32cd" stroke-dasharray="5,2" d="M643.93,-149.53C672.66,-149.8 707.55,-150.12 737.21,-150.4"/>
<polygon fill="#9a32cd" stroke="#9a32cd" points="643.98,-146.03 633.95,-149.44 643.92,-153.03 643.98,-146.03"/>
</a>
</g>
<text text-anchor="middle" x="701.88" y="-152.68" font-family="Helvetica,sans-Serif" font-size="10.00" fill="grey"> thread_</text>
</g>
<!-- Node6 -->
<g id="Node000006" class="node">
<title>Node6</title>
<g id="a_Node000006"><a xlink:href="classAsyncFw_1_1AbstractThread.html" target="_top" xlink:title="The AbstractThread class provides the base functionality for thread management.">
<polygon fill="white" stroke="#666666" points="312.38,-205 182.38,-205 182.38,-185 312.38,-185 312.38,-205"/>
<text text-anchor="middle" x="247.38" y="-191.5" font-family="Helvetica,sans-Serif" font-size="10.00">AsyncFw::AbstractThread</text>
</a>
</g>
</g>
<!-- Node6&#45;&gt;Node5 -->
<g id="edge5_Node000005_Node000006" class="edge">
<title>Node6&#45;&gt;Node5</title>
<g id="a_edge5_Node000005_Node000006"><a xlink:title=" ">
<path fill="none" stroke="#63b8ff" d="M324.06,-200.14C371.9,-201.01 434.37,-197.67 486.75,-180 495.86,-176.93 495.94,-171.84 504.75,-168 515.32,-163.39 527.18,-159.8 538.47,-157.04"/>
<polygon fill="#63b8ff" stroke="#63b8ff" points="324.44,-196.65 314.36,-199.9 324.26,-203.65 324.44,-196.65"/>
</a>
</g>
</g>
<!-- Node7 -->
<g id="Node000007" class="node">
<title>Node7</title>
<g id="a_Node000007"><a xlink:href="classAsyncFw_1_1FunctionConnector.html" target="_top" xlink:title="Provides a sender&#45;to&#45;receivers connection. Receivers can be invoked in their own threads (default beh...">
<polygon fill="white" stroke="#666666" points="320.25,-120 174.5,-120 174.5,-88 320.25,-88 320.25,-120"/>
<text text-anchor="start" x="182.5" y="-106.5" font-family="Helvetica,sans-Serif" font-size="10.00">AsyncFw::FunctionConnector</text>
<text text-anchor="middle" x="247.38" y="-94.5" font-family="Helvetica,sans-Serif" font-size="10.00">&lt; Args &gt;</text>
</a>
</g>
</g>
<!-- Node7&#45;&gt;Node1 -->
<g id="edge14_Node000001_Node000007" class="edge">
<title>Node7&#45;&gt;Node1</title>
<g id="a_edge14_Node000001_Node000007"><a xlink:title=" ">
<path fill="none" stroke="#9a32cd" stroke-dasharray="5,2" d="M331.98,-106.71C399.98,-108.68 498.43,-111 584.5,-111 584.5,-111 584.5,-111 1041.12,-111 1077.03,-111 1117.38,-111 1149,-111"/>
<polygon fill="#9a32cd" stroke="#9a32cd" points="332.1,-103.21 322,-106.41 331.9,-110.21 332.1,-103.21"/>
</a>
</g>
<text text-anchor="middle" x="802.88" y="-113.5" font-family="Helvetica,sans-Serif" font-size="10.00" fill="grey"> writeContent</text>
</g>
<!-- Node7&#45;&gt;Node5 -->
<g id="edge6_Node000005_Node000007" class="edge">
<title>Node7&#45;&gt;Node5</title>
<g id="a_edge6_Node000005_Node000007"><a xlink:title=" ">
<path fill="none" stroke="#9a32cd" stroke-dasharray="5,2" d="M331.63,-120.94C333.86,-121.31 336.07,-121.66 338.25,-122 407.74,-132.75 488.91,-140.78 538.5,-145.18"/>
<polygon fill="#9a32cd" stroke="#9a32cd" points="332.33,-117.51 321.88,-119.26 331.14,-124.41 332.33,-117.51"/>
</a>
</g>
<text text-anchor="middle" x="412.5" y="-166.55" font-family="Helvetica,sans-Serif" font-size="10.00" fill="grey"> destroing</text>
<text text-anchor="middle" x="412.5" y="-154.55" font-family="Helvetica,sans-Serif" font-size="10.00" fill="grey">finished</text>
<text text-anchor="middle" x="412.5" y="-142.55" font-family="Helvetica,sans-Serif" font-size="10.00" fill="grey">started</text>
</g>
<!-- Node9 -->
<g id="Node000009" class="node">
<title>Node9</title>
<g id="a_Node000009"><a xlink:href="classAsyncFw_1_1FunctionConnector.html" target="_top" xlink:title=" ">
<polygon fill="white" stroke="#666666" points="658.38,-259 512.62,-259 512.62,-215 658.38,-215 658.38,-259"/>
<text text-anchor="start" x="520.62" y="-245.5" font-family="Helvetica,sans-Serif" font-size="10.00">AsyncFw::FunctionConnector</text>
<text text-anchor="start" x="520.62" y="-233.5" font-family="Helvetica,sans-Serif" font-size="10.00">&lt; const AbstractSocket::</text>
<text text-anchor="middle" x="585.5" y="-221.5" font-family="Helvetica,sans-Serif" font-size="10.00">State &gt;</text>
</a>
</g>
</g>
<!-- Node7&#45;&gt;Node9 -->
<g id="edge10_Node000009_Node000007" class="edge">
<title>Node7&#45;&gt;Node9</title>
<g id="a_edge10_Node000009_Node000007"><a xlink:title=" ">
<path fill="none" stroke="orange" stroke-dasharray="5,2" d="M270.61,-128.13C287.57,-145.1 312.35,-167.01 338.25,-180 393.07,-207.48 461.42,-221.95 512.2,-229.42"/>
<polygon fill="orange" stroke="orange" points="273.48,-126.06 264,-121.34 268.47,-130.95 273.48,-126.06"/>
</a>
</g>
<text text-anchor="start" x="359.62" y="-238.74" font-family="Helvetica,sans-Serif" font-size="10.00" fill="grey"> &lt; const AbstractSocket</text>
<text text-anchor="middle" x="412.5" y="-226.74" font-family="Helvetica,sans-Serif" font-size="10.00" fill="grey">::State &gt;</text>
</g>
<!-- Node10 -->
<g id="Node000010" class="node">
<title>Node10</title>
<g id="a_Node000010"><a xlink:href="classAsyncFw_1_1FunctionConnector.html" target="_top" xlink:title=" ">
<polygon fill="white" stroke="#666666" points="666.25,-82 504.75,-82 504.75,-50 666.25,-50 666.25,-82"/>
<text text-anchor="start" x="512.75" y="-68.5" font-family="Helvetica,sans-Serif" font-size="10.00">AsyncFw::FunctionConnector</text>
<text text-anchor="middle" x="585.5" y="-56.5" font-family="Helvetica,sans-Serif" font-size="10.00">&lt; const AsyncFw::DataArray &amp; &gt;</text>
</a>
</g>
</g>
<!-- Node7&#45;&gt;Node10 -->
<g id="edge13_Node000010_Node000007" class="edge">
<title>Node7&#45;&gt;Node10</title>
<g id="a_edge13_Node000010_Node000007"><a xlink:title=" ">
<path fill="none" stroke="orange" stroke-dasharray="5,2" d="M331.61,-86.01C333.84,-85.65 336.06,-85.31 338.25,-85 393.43,-77.07 456.07,-72.3 504.36,-69.52"/>
<polygon fill="orange" stroke="orange" points="331.1,-82.54 321.83,-87.66 332.27,-89.44 331.1,-82.54"/>
</a>
</g>
<text text-anchor="middle" x="412.5" y="-87.5" font-family="Helvetica,sans-Serif" font-size="10.00" fill="grey"> &lt; const AsyncFw::DataArray &amp; &gt;</text>
</g>
<!-- Node11 -->
<g id="Node000011" class="node">
<title>Node11</title>
<g id="a_Node000011"><a xlink:href="classAsyncFw_1_1FunctionConnector.html" target="_top" xlink:title=" ">
<polygon fill="white" stroke="#666666" points="658.38,-32 512.62,-32 512.62,0 658.38,0 658.38,-32"/>
<text text-anchor="start" x="520.62" y="-18.5" font-family="Helvetica,sans-Serif" font-size="10.00">AsyncFw::FunctionConnector</text>
<text text-anchor="middle" x="585.5" y="-6.5" font-family="Helvetica,sans-Serif" font-size="10.00">&lt; int &gt;</text>
</a>
</g>
</g>
<!-- Node7&#45;&gt;Node11 -->
<g id="edge17_Node000011_Node000007" class="edge">
<title>Node7&#45;&gt;Node11</title>
<g id="a_edge17_Node000011_Node000007"><a xlink:title=" ">
<path fill="none" stroke="orange" stroke-dasharray="5,2" d="M282.48,-81.8C298.76,-72.16 318.88,-61.59 338.25,-55 395,-35.68 462.42,-25.85 512.36,-20.9"/>
<polygon fill="orange" stroke="orange" points="280.9,-78.67 274.17,-86.85 284.54,-84.65 280.9,-78.67"/>
</a>
</g>
<text text-anchor="middle" x="412.5" y="-57.5" font-family="Helvetica,sans-Serif" font-size="10.00" fill="grey"> &lt; int &gt;</text>
</g>
<!-- Node8 -->
<g id="Node000008" class="node">
<title>Node8</title>
<g id="a_Node000008"><a xlink:href="classAsyncFw_1_1AbstractFunctionConnector.html" target="_top" xlink:title="The AbstractFunctionConnector class provides the base functionality for FunctionConnector.">
<polygon fill="white" stroke="#666666" points="137.5,-97 0,-97 0,-65 137.5,-65 137.5,-97"/>
<text text-anchor="start" x="8" y="-83.5" font-family="Helvetica,sans-Serif" font-size="10.00">AsyncFw::AbstractFunction</text>
<text text-anchor="middle" x="68.75" y="-71.5" font-family="Helvetica,sans-Serif" font-size="10.00">Connector</text>
</a>
</g>
</g>
<!-- Node8&#45;&gt;Node7 -->
<g id="edge7_Node000007_Node000008" class="edge">
<title>Node8&#45;&gt;Node7</title>
<g id="a_edge7_Node000007_Node000008"><a xlink:title=" ">
<path fill="none" stroke="#63b8ff" d="M149.12,-91.33C157.5,-92.43 165.98,-93.53 174.27,-94.61"/>
<polygon fill="#63b8ff" stroke="#63b8ff" points="149.65,-87.88 139.29,-90.05 148.75,-94.82 149.65,-87.88"/>
</a>
</g>
</g>
<!-- Node8&#45;&gt;Node9 -->
<g id="edge9_Node000009_Node000008" class="edge">
<title>Node8&#45;&gt;Node9</title>
<g id="a_edge9_Node000009_Node000008"><a xlink:title=" ">
<path fill="none" stroke="#63b8ff" d="M83.27,-107.38C100.32,-137.9 132.55,-187.36 174.5,-214 277.11,-279.17 424.91,-267.73 512.18,-252.82"/>
<polygon fill="#63b8ff" stroke="#63b8ff" points="86.45,-105.89 78.61,-98.77 80.3,-109.23 86.45,-105.89"/>
</a>
</g>
</g>
<!-- Node8&#45;&gt;Node10 -->
<g id="edge12_Node000010_Node000008" class="edge">
<title>Node8&#45;&gt;Node10</title>
<g id="a_edge12_Node000010_Node000008"><a xlink:title=" ">
<path fill="none" stroke="#63b8ff" d="M149.3,-75.85C202.71,-72.64 274.68,-68.79 338.25,-67 393.7,-65.44 456.2,-65.21 504.36,-65.35"/>
<polygon fill="#63b8ff" stroke="#63b8ff" points="149.14,-72.35 139.37,-76.45 149.56,-79.34 149.14,-72.35"/>
</a>
</g>
</g>
<!-- Node8&#45;&gt;Node11 -->
<g id="edge16_Node000011_Node000008" class="edge">
<title>Node8&#45;&gt;Node11</title>
<g id="a_edge16_Node000011_Node000008"><a xlink:title=" ">
<path fill="none" stroke="#63b8ff" d="M137.03,-61.63C190.93,-47.12 268.76,-28.37 338.25,-20 396.51,-12.99 463.08,-12.34 512.31,-13.26"/>
<polygon fill="#63b8ff" stroke="#63b8ff" points="136.43,-58.17 127.7,-64.17 138.27,-64.92 136.43,-58.17"/>
</a>
</g>
</g>
<!-- Node9&#45;&gt;Node1 -->
<g id="edge8_Node000001_Node000009" class="edge">
<title>Node9&#45;&gt;Node1</title>
<g id="a_edge8_Node000001_Node000009"><a xlink:title=" ">
<path fill="none" stroke="#9a32cd" stroke-dasharray="5,2" d="M669.74,-237.14C775.61,-234.9 962.64,-222.7 1112.25,-169 1143.44,-157.8 1175.15,-134.81 1192.1,-121.38"/>
<polygon fill="#9a32cd" stroke="#9a32cd" points="669.94,-233.64 660.01,-237.32 670.07,-240.64 669.94,-233.64"/>
</a>
</g>
<text text-anchor="middle" x="918.12" y="-222.83" font-family="Helvetica,sans-Serif" font-size="10.00" fill="grey"> stateChanged</text>
</g>
<!-- Node10&#45;&gt;Node1 -->
<g id="edge11_Node000001_Node000010" class="edge">
<title>Node10&#45;&gt;Node1</title>
<g id="a_edge11_Node000001_Node000010"><a xlink:title=" ">
<path fill="none" stroke="#9a32cd" stroke-dasharray="5,2" d="M677.89,-67.27C786.41,-69.69 972.67,-76.7 1131.25,-97 1138.71,-97.96 1146.56,-99.2 1154.23,-100.54"/>
<polygon fill="#9a32cd" stroke="#9a32cd" points="678.26,-63.78 668.18,-67.07 678.11,-70.78 678.26,-63.78"/>
</a>
</g>
<text text-anchor="middle" x="918.12" y="-81.87" font-family="Helvetica,sans-Serif" font-size="10.00" fill="grey"> received</text>
</g>
<!-- Node11&#45;&gt;Node1 -->
<g id="edge15_Node000001_Node000011" class="edge">
<title>Node11&#45;&gt;Node1</title>
<g id="a_edge15_Node000001_Node000011"><a xlink:title=" ">
<path fill="none" stroke="#9a32cd" stroke-dasharray="5,2" d="M670.3,-19.6C774.95,-25.48 958.9,-40.43 1112.25,-77 1136.35,-82.75 1162.79,-92.89 1181.18,-100.61"/>
<polygon fill="#9a32cd" stroke="#9a32cd" points="670.56,-16.1 660.38,-19.05 670.18,-23.09 670.56,-16.1"/>
</a>
</g>
<text text-anchor="middle" x="918.12" y="-48.9" font-family="Helvetica,sans-Serif" font-size="10.00" fill="grey"> progress</text>
</g>
</g>
</svg>
