<?xml version="1.0" encoding="UTF-8" standalone="no"?>
<!DOCTYPE svg PUBLIC "-//W3C//DTD SVG 1.1//EN"
 "http://www.w3.org/Graphics/SVG/1.1/DTD/svg11.dtd">
<!-- Generated by graphviz version 12.2.1 (20241206.2353)
 -->
<!-- Title: AsyncFw::MulticastDns Pages: 1 -->
<svg width="266pt" height="305pt"
 viewBox="0.00 0.00 266.45 305.00" xmlns="http://www.w3.org/2000/svg" xmlns:xlink="http://www.w3.org/1999/xlink">
<g id="graph0" class="graph" transform="scale(1 1) rotate(0) translate(4 301)">
<title>AsyncFw::MulticastDns</title>
<!-- Node1 -->
<g id="Node000001" class="node">
<title>Node1</title>
<g id="a_Node000001"><a xlink:title="Asynchronous mDNS/DNS&#45;SD service responder and discovery browser.">
<polygon fill="#999999" stroke="#666666" points="138.62,-20 17.62,-20 17.62,0 138.62,0 138.62,-20"/>
<text text-anchor="middle" x="78.12" y="-6.5" font-family="Helvetica,sans-Serif" font-size="10.00">AsyncFw::MulticastDns</text>
</a>
</g>
</g>
<!-- Node2 -->
<g id="Node000002" class="node">
<title>Node2</title>
<g id="a_Node000002"><a xlink:href="classAsyncFw_1_1FunctionConnector.html" target="_top" xlink:title=" ">
<polygon fill="white" stroke="#666666" points="156.25,-136 0,-136 0,-92 156.25,-92 156.25,-136"/>
<text text-anchor="start" x="8" y="-122.5" font-family="Helvetica,sans-Serif" font-size="10.00">AsyncFw::FunctionConnector</text>
<text text-anchor="start" x="8" y="-110.5" font-family="Helvetica,sans-Serif" font-size="10.00">&lt; const AsyncFw::MulticastDns</text>
<text text-anchor="middle" x="78.12" y="-98.5" font-family="Helvetica,sans-Serif" font-size="10.00">::Host &amp; &gt;</text>
</a>
</g>
</g>
<!-- Node2&#45;&gt;Node1 -->
<g id="edge1_Node000001_Node000002" class="edge">
<title>Node2&#45;&gt;Node1</title>
<g id="a_edge1_Node000001_Node000002"><a xlink:title=" ">
<path fill="none" stroke="#9a32cd" stroke-dasharray="5,2" d="M78.12,-80.56C78.12,-59.69 78.12,-34.01 78.12,-20.44"/>
<polygon fill="#9a32cd" stroke="#9a32cd" points="74.63,-80.35 78.13,-90.35 81.63,-80.35 74.63,-80.35"/>
</a>
</g>
<text text-anchor="middle" x="108.5" y="-64.5" font-family="Helvetica,sans-Serif" font-size="10.00" fill="grey"> hostAdded</text>
<text text-anchor="middle" x="108.5" y="-52.5" font-family="Helvetica,sans-Serif" font-size="10.00" fill="grey">hostChanged</text>
<text text-anchor="middle" x="108.5" y="-40.5" font-family="Helvetica,sans-Serif" font-size="10.00" fill="grey">hostRemoved</text>
</g>
<!-- Node3 -->
<g id="Node000003" class="node">
<title>Node3</title>
<g id="a_Node000003"><a xlink:href="classAsyncFw_1_1AbstractFunctionConnector.html" target="_top" xlink:title="The AbstractFunctionConnector class provides the base functionality for FunctionConnector.">
<polygon fill="white" stroke="#666666" points="142.88,-297 5.38,-297 5.38,-265 142.88,-265 142.88,-297"/>
<text text-anchor="start" x="13.38" y="-283.5" font-family="Helvetica,sans-Serif" font-size="10.00">AsyncFw::AbstractFunction</text>
<text text-anchor="middle" x="74.12" y="-271.5" font-family="Helvetica,sans-Serif" font-size="10.00">Connector</text>
</a>
</g>
</g>
<!-- Node3&#45;&gt;Node2 -->
<g id="edge2_Node000002_Node000003" class="edge">
<title>Node3&#45;&gt;Node2</title>
<g id="a_edge2_Node000002_Node000003"><a xlink:title=" ">
<path fill="none" stroke="#63b8ff" d="M74.77,-253.47C75.56,-220.91 76.88,-166.35 77.61,-136.36"/>
<polygon fill="#63b8ff" stroke="#63b8ff" points="71.27,-253.18 74.53,-263.26 78.27,-253.35 71.27,-253.18"/>
</a>
</g>
</g>
<!-- Node4 -->
<g id="Node000004" class="node">
<title>Node4</title>
<g id="a_Node000004"><a xlink:href="classAsyncFw_1_1FunctionConnector.html" target="_top" xlink:title="Provides a thread&#45;safe, publisher&#45;subscriber mechanism to establish sender&#45;to&#45;receivers connections.">
<polygon fill="white" stroke="#666666" points="236,-228 90.25,-228 90.25,-196 236,-196 236,-228"/>
<text text-anchor="start" x="98.25" y="-214.5" font-family="Helvetica,sans-Serif" font-size="10.00">AsyncFw::FunctionConnector</text>
<text text-anchor="middle" x="163.12" y="-202.5" font-family="Helvetica,sans-Serif" font-size="10.00">&lt; Args &gt;</text>
</a>
</g>
</g>
<!-- Node3&#45;&gt;Node4 -->
<g id="edge4_Node000004_Node000003" class="edge">
<title>Node3&#45;&gt;Node4</title>
<g id="a_edge4_Node000004_Node000003"><a xlink:title=" ">
<path fill="none" stroke="#63b8ff" d="M103.29,-258.05C116.18,-248.34 131.02,-237.17 142.7,-228.38"/>
<polygon fill="#63b8ff" stroke="#63b8ff" points="101.41,-255.08 95.53,-263.89 105.62,-260.67 101.41,-255.08"/>
</a>
</g>
</g>
<!-- Node4&#45;&gt;Node2 -->
<g id="edge3_Node000002_Node000004" class="edge">
<title>Node4&#45;&gt;Node2</title>
<g id="a_edge3_Node000002_Node000004"><a xlink:title=" ">
<path fill="none" stroke="orange" stroke-dasharray="5,2" d="M141.9,-187.03C128.16,-171.51 110.41,-151.47 97.13,-136.47"/>
<polygon fill="orange" stroke="orange" points="139.22,-189.28 148.46,-194.44 144.46,-184.64 139.22,-189.28"/>
</a>
</g>
<text text-anchor="start" x="133.2" y="-168.5" font-family="Helvetica,sans-Serif" font-size="10.00" fill="grey"> &lt; const AsyncFw::Multicast</text>
<text text-anchor="middle" x="195.83" y="-156.5" font-family="Helvetica,sans-Serif" font-size="10.00" fill="grey">Dns::Host &amp; &gt;</text>
</g>
</g>
</svg>
