<?xml version="1.0" encoding="UTF-8" standalone="no"?>
<!DOCTYPE svg PUBLIC "-//W3C//DTD SVG 1.1//EN"
 "http://www.w3.org/Graphics/SVG/1.1/DTD/svg11.dtd">
<!-- Generated by graphviz version 12.2.1 (20241206.2353)
 -->
<!-- Title: AsyncFw::AbstractFunctionConnector Pages: 1 -->
<svg width="702pt" height="1116pt"
 viewBox="0.00 0.00 702.00 1116.34" xmlns="http://www.w3.org/2000/svg" xmlns:xlink="http://www.w3.org/1999/xlink">
<g id="graph0" class="graph" transform="scale(1 1) rotate(0) translate(4 1112.34)">
<title>AsyncFw::AbstractFunctionConnector</title>
<!-- Node1 -->
<g id="Node000001" class="node">
<title>Node1</title>
<g id="a_Node000001"><a xlink:title="The AbstractFunctionConnector class provides the base functionality for FunctionConnector.">
<polygon fill="#999999" stroke="#666666" points="137.5,-574.69 0,-574.69 0,-542.69 137.5,-542.69 137.5,-574.69"/>
<text text-anchor="start" x="8" y="-561.19" font-family="Helvetica,sans-Serif" font-size="10.00">AsyncFw::AbstractFunction</text>
<text text-anchor="middle" x="68.75" y="-549.19" font-family="Helvetica,sans-Serif" font-size="10.00">Connector</text>
</a>
</g>
</g>
<!-- Node2 -->
<g id="Node000002" class="node">
<title>Node2</title>
<g id="a_Node000002"><a xlink:href="classAsyncFw_1_1FunctionConnector.html" target="_top" xlink:title=" ">
<polygon fill="white" stroke="#666666" points="672.25,-898.69 526.5,-898.69 526.5,-866.69 672.25,-866.69 672.25,-898.69"/>
<text text-anchor="start" x="534.5" y="-885.19" font-family="Helvetica,sans-Serif" font-size="10.00">AsyncFw::FunctionConnector</text>
<text text-anchor="middle" x="599.38" y="-873.19" font-family="Helvetica,sans-Serif" font-size="10.00">&lt; Args... &gt;</text>
</a>
</g>
</g>
<!-- Node1&#45;&gt;Node2 -->
<g id="edge1_Node000001_Node000002" class="edge">
<title>Node1&#45;&gt;Node2</title>
<g id="a_edge1_Node000001_Node000002"><a xlink:title=" ">
<path fill="none" stroke="#63b8ff" d="M74.98,-586.19C85.76,-636.6 114.64,-745.05 174.5,-814.69 269.3,-925 342.55,-931.73 486.75,-912.69 492.52,-911.93 515.98,-905.7 539.91,-899.11"/>
<polygon fill="#63b8ff" stroke="#63b8ff" points="78.42,-585.53 72.98,-576.44 71.56,-586.93 78.42,-585.53"/>
</a>
</g>
</g>
<!-- Node3 -->
<g id="Node000003" class="node">
<title>Node3</title>
<g id="a_Node000003"><a xlink:href="classAsyncFw_1_1FunctionConnector.html" target="_top" xlink:title=" ">
<polygon fill="white" stroke="#666666" points="672.25,-646.69 526.5,-646.69 526.5,-602.69 672.25,-602.69 672.25,-646.69"/>
<text text-anchor="start" x="534.5" y="-633.19" font-family="Helvetica,sans-Serif" font-size="10.00">AsyncFw::FunctionConnector</text>
<text text-anchor="start" x="534.5" y="-621.19" font-family="Helvetica,sans-Serif" font-size="10.00">&lt; int, const std::vector</text>
<text text-anchor="middle" x="599.38" y="-609.19" font-family="Helvetica,sans-Serif" font-size="10.00">&lt; std::string &gt; &amp; &gt;</text>
</a>
</g>
</g>
<!-- Node1&#45;&gt;Node3 -->
<g id="edge2_Node000001_Node000003" class="edge">
<title>Node1&#45;&gt;Node3</title>
<g id="a_edge2_Node000001_Node000003"><a xlink:title=" ">
<path fill="none" stroke="#63b8ff" d="M116.5,-579.53C169.16,-601.78 257.9,-635.58 338.25,-648.69 403.39,-659.32 421.12,-655.67 486.75,-648.69 499.56,-647.33 513.06,-645.11 526.08,-642.56"/>
<polygon fill="#63b8ff" stroke="#63b8ff" points="118.1,-576.41 107.53,-575.71 115.35,-582.85 118.1,-576.41"/>
</a>
</g>
</g>
<!-- Node4 -->
<g id="Node000004" class="node">
<title>Node4</title>
<g id="a_Node000004"><a xlink:href="classAsyncFw_1_1FunctionConnector.html" target="_top" xlink:title=" ">
<polygon fill="white" stroke="#666666" points="688.38,-1012.69 510.38,-1012.69 510.38,-968.69 688.38,-968.69 688.38,-1012.69"/>
<text text-anchor="start" x="518.38" y="-999.19" font-family="Helvetica,sans-Serif" font-size="10.00">AsyncFw::FunctionConnector</text>
<text text-anchor="start" x="518.38" y="-987.19" font-family="Helvetica,sans-Serif" font-size="10.00">&lt; const AsyncFw::ApplicationNotifier</text>
<text text-anchor="middle" x="599.38" y="-975.19" font-family="Helvetica,sans-Serif" font-size="10.00">::Value &amp; &gt;</text>
</a>
</g>
</g>
<!-- Node1&#45;&gt;Node4 -->
<g id="edge3_Node000001_Node000004" class="edge">
<title>Node1&#45;&gt;Node4</title>
<g id="a_edge3_Node000001_Node000004"><a xlink:title=" ">
<path fill="none" stroke="#63b8ff" d="M71.29,-585.93C76.22,-652.4 96.25,-825.98 174.5,-942.69 225.64,-1018.96 251.31,-1039.12 338.25,-1068.69 400.73,-1089.95 432.37,-1106.1 486.75,-1068.69 505.18,-1056.02 488.57,-1037.14 504.75,-1021.69 508.09,-1018.5 511.77,-1015.63 515.68,-1013.07"/>
<polygon fill="#63b8ff" stroke="#63b8ff" points="74.81,-586.06 70.64,-576.32 67.82,-586.53 74.81,-586.06"/>
</a>
</g>
</g>
<!-- Node5 -->
<g id="Node000005" class="node">
<title>Node5</title>
<g id="a_Node000005"><a xlink:href="classAsyncFw_1_1FunctionConnector.html" target="_top" xlink:title=" ">
<polygon fill="white" stroke="#666666" points="686.12,-1086.69 512.62,-1086.69 512.62,-1030.69 686.12,-1030.69 686.12,-1086.69"/>
<text text-anchor="start" x="520.62" y="-1073.19" font-family="Helvetica,sans-Serif" font-size="10.00">AsyncFw::FunctionConnector</text>
<text text-anchor="start" x="520.62" y="-1061.19" font-family="Helvetica,sans-Serif" font-size="10.00">&lt; const AsyncFw::DataArraySocket</text>
<text text-anchor="start" x="520.62" y="-1049.19" font-family="Helvetica,sans-Serif" font-size="10.00"> *, const AsyncFw::DataArray</text>
<text text-anchor="middle" x="599.38" y="-1037.19" font-family="Helvetica,sans-Serif" font-size="10.00"> *, uint32_t &gt;</text>
</a>
</g>
</g>
<!-- Node1&#45;&gt;Node5 -->
<g id="edge4_Node000001_Node000005" class="edge">
<title>Node1&#45;&gt;Node5</title>
<g id="a_edge4_Node000001_Node000005"><a xlink:title=" ">
<path fill="none" stroke="#63b8ff" d="M72.87,-586.22C83.36,-674.5 119.77,-948.74 174.5,-1016.69 264.16,-1128.01 345.46,-1115.32 486.75,-1093.69 496.89,-1092.14 507.37,-1089.84 517.67,-1087.14"/>
<polygon fill="#63b8ff" stroke="#63b8ff" points="76.38,-586.07 71.74,-576.54 69.43,-586.88 76.38,-586.07"/>
</a>
</g>
</g>
<!-- Node6 -->
<g id="Node000006" class="node">
<title>Node6</title>
<g id="a_Node000006"><a xlink:href="classAsyncFw_1_1FunctionConnector.html" target="_top" xlink:title=" ">
<polygon fill="white" stroke="#666666" points="672.25,-949.69 526.5,-949.69 526.5,-917.69 672.25,-917.69 672.25,-949.69"/>
<text text-anchor="start" x="534.5" y="-936.19" font-family="Helvetica,sans-Serif" font-size="10.00">AsyncFw::FunctionConnector</text>
<text text-anchor="middle" x="599.38" y="-924.19" font-family="Helvetica,sans-Serif" font-size="10.00">&lt; AbstractSocket::State &gt;</text>
</a>
</g>
</g>
<!-- Node1&#45;&gt;Node6 -->
<g id="edge5_Node000001_Node000006" class="edge">
<title>Node1&#45;&gt;Node6</title>
<g id="a_edge5_Node000001_Node000006"><a xlink:title=" ">
<path fill="none" stroke="#63b8ff" d="M72.58,-586.48C79.85,-645.83 103.9,-787.03 174.5,-878.69 227.4,-947.38 255.11,-960.13 338.25,-984.69 401.55,-1003.39 428.01,-1014.78 486.75,-984.69 498.94,-978.45 493.52,-967.52 504.75,-959.69 511.25,-955.16 518.53,-951.41 526.06,-948.32"/>
<polygon fill="#63b8ff" stroke="#63b8ff" points="76.06,-586.14 71.44,-576.6 69.11,-586.94 76.06,-586.14"/>
</a>
</g>
</g>
<!-- Node7 -->
<g id="Node000007" class="node">
<title>Node7</title>
<g id="a_Node000007"><a xlink:href="classAsyncFw_1_1FunctionConnector.html" target="_top" xlink:title=" ">
<polygon fill="white" stroke="#666666" points="672.25,-729.69 526.5,-729.69 526.5,-685.69 672.25,-685.69 672.25,-729.69"/>
<text text-anchor="start" x="534.5" y="-716.19" font-family="Helvetica,sans-Serif" font-size="10.00">AsyncFw::FunctionConnector</text>
<text text-anchor="start" x="534.5" y="-704.19" font-family="Helvetica,sans-Serif" font-size="10.00">&lt; const AsyncFw::DataArray</text>
<text text-anchor="middle" x="599.38" y="-692.19" font-family="Helvetica,sans-Serif" font-size="10.00"> *, uint32_t &gt;</text>
</a>
</g>
</g>
<!-- Node1&#45;&gt;Node7 -->
<g id="edge6_Node000001_Node000007" class="edge">
<title>Node1&#45;&gt;Node7</title>
<g id="a_edge6_Node000001_Node000007"><a xlink:title=" ">
<path fill="none" stroke="#63b8ff" d="M96.09,-582.43C141.49,-621.41 239.17,-697.02 338.25,-720.69 400.48,-735.56 473.39,-730.02 526.16,-722.09"/>
<polygon fill="#63b8ff" stroke="#63b8ff" points="98.45,-579.84 88.61,-575.92 93.86,-585.12 98.45,-579.84"/>
</a>
</g>
</g>
<!-- Node8 -->
<g id="Node000008" class="node">
<title>Node8</title>
<g id="a_Node000008"><a xlink:href="classAsyncFw_1_1FunctionConnector.html" target="_top" xlink:title=" ">
<polygon fill="white" stroke="#666666" points="694,-790.69 504.75,-790.69 504.75,-758.69 694,-758.69 694,-790.69"/>
<text text-anchor="start" x="512.75" y="-777.19" font-family="Helvetica,sans-Serif" font-size="10.00">AsyncFw::FunctionConnector</text>
<text text-anchor="middle" x="599.38" y="-765.19" font-family="Helvetica,sans-Serif" font-size="10.00">&lt; const AsyncFw::DataArraySocket * &gt;</text>
</a>
</g>
</g>
<!-- Node1&#45;&gt;Node8 -->
<g id="edge7_Node000001_Node000008" class="edge">
<title>Node1&#45;&gt;Node8</title>
<g id="a_edge7_Node000001_Node000008"><a xlink:title=" ">
<path fill="none" stroke="#63b8ff" d="M85.42,-584.21C104.08,-613.18 137.43,-660.7 174.5,-693.69 238.02,-750.24 256.33,-769.85 338.25,-792.69 402.9,-810.71 479.9,-801.83 533.28,-791.15"/>
<polygon fill="#63b8ff" stroke="#63b8ff" points="88.57,-582.64 80.26,-576.07 82.65,-586.39 88.57,-582.64"/>
</a>
</g>
</g>
<!-- Node9 -->
<g id="Node000009" class="node">
<title>Node9</title>
<g id="a_Node000009"><a xlink:href="classAsyncFw_1_1FunctionConnector.html" target="_top" xlink:title=" ">
<polygon fill="white" stroke="#666666" points="672.25,-845.69 526.5,-845.69 526.5,-813.69 672.25,-813.69 672.25,-845.69"/>
<text text-anchor="start" x="534.5" y="-832.19" font-family="Helvetica,sans-Serif" font-size="10.00">AsyncFw::FunctionConnector</text>
<text text-anchor="middle" x="599.38" y="-820.19" font-family="Helvetica,sans-Serif" font-size="10.00">&lt; const std::string &amp;, int &gt;</text>
</a>
</g>
</g>
<!-- Node1&#45;&gt;Node9 -->
<g id="edge8_Node000001_Node000009" class="edge">
<title>Node1&#45;&gt;Node9</title>
<g id="a_edge8_Node000001_Node000009"><a xlink:title=" ">
<path fill="none" stroke="#63b8ff" d="M78.81,-585.63C93.57,-626.26 126.07,-703.86 174.5,-754.69 233,-816.1 256.5,-830.1 338.25,-852.69 406.31,-871.5 487.84,-858.91 541.26,-846.16"/>
<polygon fill="#63b8ff" stroke="#63b8ff" points="82.18,-584.66 75.55,-576.4 75.58,-587 82.18,-584.66"/>
</a>
</g>
</g>
<!-- Node10 -->
<g id="Node000010" class="node">
<title>Node10</title>
<g id="a_Node000010"><a xlink:href="classAsyncFw_1_1FunctionConnector.html" target="_top" xlink:title=" ">
<polygon fill="white" stroke="#666666" points="672.25,-187.69 526.5,-187.69 526.5,-143.69 672.25,-143.69 672.25,-187.69"/>
<text text-anchor="start" x="534.5" y="-174.19" font-family="Helvetica,sans-Serif" font-size="10.00">AsyncFw::FunctionConnector</text>
<text text-anchor="start" x="534.5" y="-162.19" font-family="Helvetica,sans-Serif" font-size="10.00">&lt; int, const std::string</text>
<text text-anchor="middle" x="599.38" y="-150.19" font-family="Helvetica,sans-Serif" font-size="10.00"> &amp;, bool * &gt;</text>
</a>
</g>
</g>
<!-- Node1&#45;&gt;Node10 -->
<g id="edge9_Node000001_Node000010" class="edge">
<title>Node1&#45;&gt;Node10</title>
<g id="a_edge9_Node000001_Node000010"><a xlink:title=" ">
<path fill="none" stroke="#63b8ff" d="M68.87,-531.09C68.08,-459.12 75.69,-263.4 174.5,-148.69 267.26,-41.01 353.11,-31.31 486.75,-79.69 496.54,-83.24 496.6,-88.21 504.75,-94.69 525.67,-111.32 549.69,-129.53 568.17,-143.34"/>
<polygon fill="#63b8ff" stroke="#63b8ff" points="65.37,-530.85 69.05,-540.78 72.37,-530.72 65.37,-530.85"/>
</a>
</g>
</g>
<!-- Node11 -->
<g id="Node000011" class="node">
<title>Node11</title>
<g id="a_Node000011"><a xlink:href="classAsyncFw_1_1FunctionConnector.html" target="_top" xlink:title=" ">
<polygon fill="white" stroke="#666666" points="672.25,-454.69 526.5,-454.69 526.5,-410.69 672.25,-410.69 672.25,-454.69"/>
<text text-anchor="start" x="534.5" y="-441.19" font-family="Helvetica,sans-Serif" font-size="10.00">AsyncFw::FunctionConnector</text>
<text text-anchor="start" x="534.5" y="-429.19" font-family="Helvetica,sans-Serif" font-size="10.00">&lt; const AbstractSocket::</text>
<text text-anchor="middle" x="599.38" y="-417.19" font-family="Helvetica,sans-Serif" font-size="10.00">State &gt;</text>
</a>
</g>
</g>
<!-- Node1&#45;&gt;Node11 -->
<g id="edge10_Node000001_Node000011" class="edge">
<title>Node1&#45;&gt;Node11</title>
<g id="a_edge10_Node000001_Node000011"><a xlink:title=" ">
<path fill="none" stroke="#63b8ff" d="M84.65,-532.67C102.6,-503.35 135.29,-455.98 174.5,-426.69 237.36,-379.73 261.22,-375.63 338.25,-360.69 403.04,-348.13 427.42,-331.78 486.75,-360.69 498.42,-366.38 494.78,-375.38 504.75,-383.69 517.16,-394.02 532.1,-403.04 546.36,-410.43"/>
<polygon fill="#63b8ff" stroke="#63b8ff" points="81.84,-530.55 79.7,-540.93 87.84,-534.15 81.84,-530.55"/>
</a>
</g>
</g>
<!-- Node12 -->
<g id="Node000012" class="node">
<title>Node12</title>
<g id="a_Node000012"><a xlink:href="classAsyncFw_1_1FunctionConnector.html" target="_top" xlink:title=" ">
<polygon fill="white" stroke="#666666" points="680.12,-505.69 518.62,-505.69 518.62,-473.69 680.12,-473.69 680.12,-505.69"/>
<text text-anchor="start" x="526.62" y="-492.19" font-family="Helvetica,sans-Serif" font-size="10.00">AsyncFw::FunctionConnector</text>
<text text-anchor="middle" x="599.38" y="-480.19" font-family="Helvetica,sans-Serif" font-size="10.00">&lt; const AsyncFw::DataArray &amp; &gt;</text>
</a>
</g>
</g>
<!-- Node1&#45;&gt;Node12 -->
<g id="edge11_Node000001_Node000012" class="edge">
<title>Node1&#45;&gt;Node12</title>
<g id="a_edge11_Node000001_Node000012"><a xlink:title=" ">
<path fill="none" stroke="#63b8ff" d="M91.68,-533.87C111.36,-513.13 142.06,-484.35 174.5,-467.69 241.05,-433.51 263.95,-437.42 338.25,-428.69 403.8,-420.99 430.41,-394.31 486.75,-428.69 501.68,-437.8 491.19,-452.65 504.75,-463.69 509.33,-467.42 514.41,-470.61 519.76,-473.35"/>
<polygon fill="#63b8ff" stroke="#63b8ff" points="89.22,-531.38 84.98,-541.09 94.35,-536.14 89.22,-531.38"/>
</a>
</g>
</g>
<!-- Node13 -->
<g id="Node000013" class="node">
<title>Node13</title>
<g id="a_Node000013"><a xlink:href="classAsyncFw_1_1FunctionConnector.html" target="_top" xlink:title=" ">
<polygon fill="white" stroke="#666666" points="672.25,-248.69 526.5,-248.69 526.5,-216.69 672.25,-216.69 672.25,-248.69"/>
<text text-anchor="start" x="534.5" y="-235.19" font-family="Helvetica,sans-Serif" font-size="10.00">AsyncFw::FunctionConnector</text>
<text text-anchor="middle" x="599.38" y="-223.19" font-family="Helvetica,sans-Serif" font-size="10.00">&lt; int &gt;</text>
</a>
</g>
</g>
<!-- Node1&#45;&gt;Node13 -->
<g id="edge12_Node000001_Node000013" class="edge">
<title>Node1&#45;&gt;Node13</title>
<g id="a_edge12_Node000001_Node000013"><a xlink:title=" ">
<path fill="none" stroke="#63b8ff" d="M70.63,-531.24C74.1,-468.17 91.12,-311.3 174.5,-219.69 222.3,-167.18 427.94,-111.88 486.75,-151.69 504.59,-163.77 489.42,-181.56 504.75,-196.69 513.06,-204.89 523.43,-211.26 534.21,-216.2"/>
<polygon fill="#63b8ff" stroke="#63b8ff" points="67.14,-530.89 70.17,-541.05 74.14,-531.22 67.14,-530.89"/>
</a>
</g>
</g>
<!-- Node14 -->
<g id="Node000014" class="node">
<title>Node14</title>
<g id="a_Node000014"><a xlink:href="classAsyncFw_1_1FunctionConnector.html" target="_top" xlink:title=" ">
<polygon fill="white" stroke="#666666" points="677.5,-85.69 521.25,-85.69 521.25,-41.69 677.5,-41.69 677.5,-85.69"/>
<text text-anchor="start" x="529.25" y="-72.19" font-family="Helvetica,sans-Serif" font-size="10.00">AsyncFw::FunctionConnector</text>
<text text-anchor="start" x="529.25" y="-60.19" font-family="Helvetica,sans-Serif" font-size="10.00">&lt; const AsyncFw::MulticastDns</text>
<text text-anchor="middle" x="599.38" y="-48.19" font-family="Helvetica,sans-Serif" font-size="10.00">::Host &amp; &gt;</text>
</a>
</g>
</g>
<!-- Node1&#45;&gt;Node14 -->
<g id="edge13_Node000001_Node000014" class="edge">
<title>Node1&#45;&gt;Node14</title>
<g id="a_edge13_Node000001_Node000014"><a xlink:title=" ">
<path fill="none" stroke="#63b8ff" d="M71.09,-530.92C76.38,-433.97 99.41,-113.03 174.5,-50.69 279.44,36.43 454.46,-9.35 543.19,-41.3"/>
<polygon fill="#63b8ff" stroke="#63b8ff" points="67.6,-530.66 70.57,-540.83 74.59,-531.03 67.6,-530.66"/>
</a>
</g>
</g>
<!-- Node15 -->
<g id="Node000015" class="node">
<title>Node15</title>
<g id="a_Node000015"><a xlink:href="classAsyncFw_1_1FunctionConnector.html" target="_top" xlink:title=" ">
<polygon fill="white" stroke="#666666" points="676,-374.69 522.75,-374.69 522.75,-342.69 676,-342.69 676,-374.69"/>
<text text-anchor="start" x="530.75" y="-361.19" font-family="Helvetica,sans-Serif" font-size="10.00">AsyncFw::FunctionConnector</text>
<text text-anchor="middle" x="599.38" y="-349.19" font-family="Helvetica,sans-Serif" font-size="10.00">&lt; AbstractThread::PollEvents &gt;</text>
</a>
</g>
</g>
<!-- Node1&#45;&gt;Node15 -->
<g id="edge14_Node000001_Node000015" class="edge">
<title>Node1&#45;&gt;Node15</title>
<g id="a_edge14_Node000001_Node000015"><a xlink:title=" ">
<path fill="none" stroke="#63b8ff" d="M77.88,-531.44C91.58,-489.71 122.92,-409.65 174.5,-360.69 232.69,-305.45 259.9,-301.99 338.25,-284.69 402.7,-270.46 430,-251 486.75,-284.69 501.12,-293.22 492.44,-306.4 504.75,-317.69 516.13,-328.13 530.59,-336.2 544.72,-342.32"/>
<polygon fill="#63b8ff" stroke="#63b8ff" points="74.56,-530.34 74.87,-540.94 81.23,-532.46 74.56,-530.34"/>
</a>
</g>
</g>
<!-- Node16 -->
<g id="Node000016" class="node">
<title>Node16</title>
<g id="a_Node000016"><a xlink:href="classAsyncFw_1_1FunctionConnector.html" target="_top" xlink:title=" ">
<polygon fill="white" stroke="#666666" points="672.25,-556.69 526.5,-556.69 526.5,-524.69 672.25,-524.69 672.25,-556.69"/>
<text text-anchor="start" x="534.5" y="-543.19" font-family="Helvetica,sans-Serif" font-size="10.00">AsyncFw::FunctionConnector</text>
<text text-anchor="middle" x="599.38" y="-531.19" font-family="Helvetica,sans-Serif" font-size="10.00">&lt; State &gt;</text>
</a>
</g>
</g>
<!-- Node1&#45;&gt;Node16 -->
<g id="edge15_Node000001_Node000016" class="edge">
<title>Node1&#45;&gt;Node16</title>
<g id="a_edge15_Node000001_Node000016"><a xlink:title=" ">
<path fill="none" stroke="#63b8ff" d="M110.81,-537.2C188.23,-499.83 359.44,-432.36 486.75,-492.69 498.17,-498.1 494.17,-507.79 504.75,-514.69 511.39,-519.02 518.75,-522.64 526.34,-525.66"/>
<polygon fill="#63b8ff" stroke="#63b8ff" points="109.31,-534.04 101.88,-541.59 112.4,-540.32 109.31,-534.04"/>
</a>
</g>
</g>
<!-- Node17 -->
<g id="Node000017" class="node">
<title>Node17</title>
<g id="a_Node000017"><a xlink:href="classAsyncFw_1_1FunctionConnector.html" target="_top" xlink:title=" ">
<polygon fill="white" stroke="#666666" points="672.25,-308.69 526.5,-308.69 526.5,-276.69 672.25,-276.69 672.25,-308.69"/>
<text text-anchor="start" x="534.5" y="-295.19" font-family="Helvetica,sans-Serif" font-size="10.00">AsyncFw::FunctionConnector</text>
<text text-anchor="middle" x="599.38" y="-283.19" font-family="Helvetica,sans-Serif" font-size="10.00">&lt; const std::string &amp;, bool &gt;</text>
</a>
</g>
</g>
<!-- Node1&#45;&gt;Node17 -->
<g id="edge16_Node000001_Node000017" class="edge">
<title>Node1&#45;&gt;Node17</title>
<g id="a_edge16_Node000001_Node000017"><a xlink:title=" ">
<path fill="none" stroke="#63b8ff" d="M72.77,-531.15C80.17,-476.7 104.06,-354.53 174.5,-284.69 224.71,-234.91 426.18,-187.22 486.75,-223.69 501.4,-232.51 491.9,-246.41 504.75,-257.69 513.61,-265.48 524.38,-271.6 535.4,-276.39"/>
<polygon fill="#63b8ff" stroke="#63b8ff" points="69.34,-530.43 71.55,-540.79 76.28,-531.31 69.34,-530.43"/>
</a>
</g>
</g>
<!-- Node18 -->
<g id="Node000018" class="node">
<title>Node18</title>
<g id="a_Node000018"><a xlink:href="classAsyncFw_1_1FunctionConnector.html" target="_top" xlink:title="Provides a sender&#45;to&#45;receivers connection. Receivers can be invoked in their own threads (default beh...">
<polygon fill="white" stroke="#666666" points="320.25,-574.69 174.5,-574.69 174.5,-542.69 320.25,-542.69 320.25,-574.69"/>
<text text-anchor="start" x="182.5" y="-561.19" font-family="Helvetica,sans-Serif" font-size="10.00">AsyncFw::FunctionConnector</text>
<text text-anchor="middle" x="247.38" y="-549.19" font-family="Helvetica,sans-Serif" font-size="10.00">&lt; Args &gt;</text>
</a>
</g>
</g>
<!-- Node1&#45;&gt;Node18 -->
<g id="edge17_Node000001_Node000018" class="edge">
<title>Node1&#45;&gt;Node18</title>
<g id="a_edge17_Node000001_Node000018"><a xlink:title=" ">
<path fill="none" stroke="#63b8ff" d="M149.12,-558.69C157.5,-558.69 165.98,-558.69 174.27,-558.69"/>
<polygon fill="#63b8ff" stroke="#63b8ff" points="149.3,-555.19 139.3,-558.69 149.3,-562.19 149.3,-555.19"/>
</a>
</g>
</g>
<!-- Node18&#45;&gt;Node2 -->
<g id="edge18_Node000018_Node000002" class="edge">
<title>Node18&#45;&gt;Node2</title>
<g id="a_edge18_Node000018_Node000002"><a xlink:title=" ">
<path fill="none" stroke="orange" stroke-dasharray="5,2" d="M249.68,-586.36C253.72,-639.38 270.29,-755.54 338.25,-817.69 365.51,-842.63 458.99,-861.63 526.08,-872.47"/>
<polygon fill="orange" stroke="orange" points="253.17,-586.15 249.03,-576.4 246.19,-586.61 253.17,-586.15"/>
</a>
</g>
<text text-anchor="middle" x="412.5" y="-867.77" font-family="Helvetica,sans-Serif" font-size="10.00" fill="grey"> &lt; Args... &gt;</text>
</g>
<!-- Node18&#45;&gt;Node3 -->
<g id="edge19_Node000018_Node000003" class="edge">
<title>Node18&#45;&gt;Node3</title>
<g id="a_edge19_Node000018_Node000003"><a xlink:title=" ">
<path fill="none" stroke="orange" stroke-dasharray="5,2" d="M331.98,-558.87C378.18,-560.58 436.27,-565.39 486.75,-577.69 509.73,-583.29 534.07,-593.05 554.14,-602.22"/>
<polygon fill="orange" stroke="orange" points="332.13,-555.37 322.02,-558.55 331.9,-562.37 332.13,-555.37"/>
</a>
</g>
<text text-anchor="start" x="361.5" y="-592.19" font-family="Helvetica,sans-Serif" font-size="10.00" fill="grey"> &lt; int, const std::vector</text>
<text text-anchor="middle" x="412.5" y="-580.19" font-family="Helvetica,sans-Serif" font-size="10.00" fill="grey">&lt; std::string &gt; &amp; &gt;</text>
</g>
<!-- Node18&#45;&gt;Node4 -->
<g id="edge20_Node000018_Node000004" class="edge">
<title>Node18&#45;&gt;Node4</title>
<g id="a_edge20_Node000018_Node000004"><a xlink:title=" ">
<path fill="none" stroke="orange" stroke-dasharray="5,2" d="M251.14,-586.39C259.58,-665.07 287.51,-887.39 338.25,-936.69 362.52,-960.28 444.45,-974.57 509.95,-982.47"/>
<polygon fill="orange" stroke="orange" points="254.64,-586.13 250.12,-576.55 247.67,-586.86 254.64,-586.13"/>
</a>
</g>
<text text-anchor="start" x="345.75" y="-993.62" font-family="Helvetica,sans-Serif" font-size="10.00" fill="grey"> &lt; const AsyncFw::Application</text>
<text text-anchor="middle" x="412.5" y="-981.62" font-family="Helvetica,sans-Serif" font-size="10.00" fill="grey">Notifier::Value &amp; &gt;</text>
</g>
<!-- Node18&#45;&gt;Node5 -->
<g id="edge21_Node000018_Node000005" class="edge">
<title>Node18&#45;&gt;Node5</title>
<g id="a_edge21_Node000018_Node000005"><a xlink:title=" ">
<path fill="none" stroke="orange" stroke-dasharray="5,2" d="M250.01,-586.41C255.8,-674.66 278.29,-946.77 338.25,-1006.69 383.21,-1051.62 455.28,-1063.22 512.18,-1064.37"/>
<polygon fill="orange" stroke="orange" points="253.51,-586.27 249.39,-576.51 246.52,-586.71 253.51,-586.27"/>
</a>
</g>
<text text-anchor="start" x="347.62" y="-1089.61" font-family="Helvetica,sans-Serif" font-size="10.00" fill="grey"> &lt; const AsyncFw::DataArray</text>
<text text-anchor="start" x="347.62" y="-1077.61" font-family="Helvetica,sans-Serif" font-size="10.00" fill="grey">Socket *, const AsyncFw</text>
<text text-anchor="middle" x="412.5" y="-1065.61" font-family="Helvetica,sans-Serif" font-size="10.00" fill="grey">::DataArray *, uint32_t &gt;</text>
</g>
<!-- Node18&#45;&gt;Node6 -->
<g id="edge22_Node000018_Node000006" class="edge">
<title>Node18&#45;&gt;Node6</title>
<g id="a_edge22_Node000018_Node000006"><a xlink:title=" ">
<path fill="none" stroke="orange" stroke-dasharray="5,2" d="M252.43,-586.15C263.29,-655.9 295.13,-837.19 338.25,-877.69 365.02,-902.84 458.88,-918.35 526.17,-926.49"/>
<polygon fill="orange" stroke="orange" points="255.9,-585.71 250.93,-576.35 248.99,-586.76 255.9,-585.71"/>
</a>
</g>
<text text-anchor="middle" x="412.5" y="-923.37" font-family="Helvetica,sans-Serif" font-size="10.00" fill="grey"> &lt; AbstractSocket::State &gt;</text>
</g>
<!-- Node18&#45;&gt;Node7 -->
<g id="edge23_Node000018_Node000007" class="edge">
<title>Node18&#45;&gt;Node7</title>
<g id="a_edge23_Node000018_Node000007"><a xlink:title=" ">
<path fill="none" stroke="orange" stroke-dasharray="5,2" d="M289.95,-580.01C304.98,-587.33 322.19,-595.29 338.25,-601.69 402.68,-627.38 422.75,-622.94 486.75,-649.69 511.43,-660.01 538.05,-673.73 559.11,-685.24"/>
<polygon fill="orange" stroke="orange" points="291.82,-577.03 281.3,-575.74 288.72,-583.3 291.82,-577.03"/>
</a>
</g>
<text text-anchor="start" x="347.62" y="-664.19" font-family="Helvetica,sans-Serif" font-size="10.00" fill="grey"> &lt; const AsyncFw::DataArray</text>
<text text-anchor="middle" x="412.5" y="-652.19" font-family="Helvetica,sans-Serif" font-size="10.00" fill="grey"> *, uint32_t &gt;</text>
</g>
<!-- Node18&#45;&gt;Node8 -->
<g id="edge24_Node000018_Node000008" class="edge">
<title>Node18&#45;&gt;Node8</title>
<g id="a_edge24_Node000018_Node000008"><a xlink:title=" ">
<path fill="none" stroke="orange" stroke-dasharray="5,2" d="M262.55,-584.87C277.94,-610.94 304.85,-650.34 338.25,-673.69 395.1,-713.43 427.07,-686.34 486.75,-721.69 496.22,-727.3 495.44,-732.83 504.75,-738.69 517.13,-746.49 531.46,-753.04 545.14,-758.33"/>
<polygon fill="orange" stroke="orange" points="265.62,-583.18 257.61,-576.25 259.54,-586.66 265.62,-583.18"/>
</a>
</g>
<text text-anchor="start" x="347.62" y="-736.19" font-family="Helvetica,sans-Serif" font-size="10.00" fill="grey"> &lt; const AsyncFw::DataArray</text>
<text text-anchor="middle" x="412.5" y="-724.19" font-family="Helvetica,sans-Serif" font-size="10.00" fill="grey">Socket * &gt;</text>
</g>
<!-- Node18&#45;&gt;Node9 -->
<g id="edge25_Node000018_Node000009" class="edge">
<title>Node18&#45;&gt;Node9</title>
<g id="a_edge25_Node000018_Node000009"><a xlink:title=" ">
<path fill="none" stroke="orange" stroke-dasharray="5,2" d="M254.32,-586.27C264.49,-626.93 289.09,-702.77 338.25,-745.69 390.5,-791.31 420.85,-772.06 486.75,-793.69 494.76,-796.32 496.73,-797.07 504.75,-799.69 518.38,-804.15 533.14,-808.91 546.83,-813.29"/>
<polygon fill="orange" stroke="orange" points="257.73,-585.49 252.02,-576.56 250.92,-587.1 257.73,-585.49"/>
</a>
</g>
<text text-anchor="start" x="371.25" y="-808.19" font-family="Helvetica,sans-Serif" font-size="10.00" fill="grey"> &lt; const std::string</text>
<text text-anchor="middle" x="412.5" y="-796.19" font-family="Helvetica,sans-Serif" font-size="10.00" fill="grey"> &amp;, int &gt;</text>
</g>
<!-- Node18&#45;&gt;Node10 -->
<g id="edge26_Node000018_Node000010" class="edge">
<title>Node18&#45;&gt;Node10</title>
<g id="a_edge26_Node000018_Node000010"><a xlink:title=" ">
<path fill="none" stroke="orange" stroke-dasharray="5,2" d="M251.18,-531.43C259.64,-455.03 287.44,-241.53 338.25,-196.69 388.89,-152 468.31,-148.73 526.08,-153.86"/>
<polygon fill="orange" stroke="orange" points="247.75,-530.64 250.15,-540.96 254.71,-531.39 247.75,-530.64"/>
</a>
</g>
<text text-anchor="start" x="363" y="-211.19" font-family="Helvetica,sans-Serif" font-size="10.00" fill="grey"> &lt; int, const std::string</text>
<text text-anchor="middle" x="412.5" y="-199.19" font-family="Helvetica,sans-Serif" font-size="10.00" fill="grey"> &amp;, bool * &gt;</text>
</g>
<!-- Node18&#45;&gt;Node11 -->
<g id="edge27_Node000018_Node000011" class="edge">
<title>Node18&#45;&gt;Node11</title>
<g id="a_edge27_Node000018_Node000011"><a xlink:title=" ">
<path fill="none" stroke="orange" stroke-dasharray="5,2" d="M266.02,-533.5C282.23,-512.48 308.25,-483.62 338.25,-468.69 396.92,-439.49 471.72,-431.73 526.04,-430.54"/>
<polygon fill="orange" stroke="orange" points="263.36,-531.21 260.19,-541.32 268.97,-535.4 263.36,-531.21"/>
</a>
</g>
<text text-anchor="start" x="359.62" y="-483.19" font-family="Helvetica,sans-Serif" font-size="10.00" fill="grey"> &lt; const AbstractSocket</text>
<text text-anchor="middle" x="412.5" y="-471.19" font-family="Helvetica,sans-Serif" font-size="10.00" fill="grey">::State &gt;</text>
</g>
<!-- Node18&#45;&gt;Node12 -->
<g id="edge28_Node000018_Node000012" class="edge">
<title>Node18&#45;&gt;Node12</title>
<g id="a_edge28_Node000018_Node000012"><a xlink:title=" ">
<path fill="none" stroke="orange" stroke-dasharray="5,2" d="M292.72,-537.68C306.98,-531.67 323.03,-525.68 338.25,-521.69 397.45,-506.17 466.24,-498.12 518.21,-493.98"/>
<polygon fill="orange" stroke="orange" points="291.37,-534.45 283.59,-541.64 294.16,-540.87 291.37,-534.45"/>
</a>
</g>
<text text-anchor="middle" x="412.5" y="-524.19" font-family="Helvetica,sans-Serif" font-size="10.00" fill="grey"> &lt; const AsyncFw::DataArray &amp; &gt;</text>
</g>
<!-- Node18&#45;&gt;Node13 -->
<g id="edge29_Node000018_Node000013" class="edge">
<title>Node18&#45;&gt;Node13</title>
<g id="a_edge29_Node000018_Node000013"><a xlink:title=" ">
<path fill="none" stroke="orange" stroke-dasharray="5,2" d="M248.1,-530.8C249.17,-472.9 260.44,-339.5 338.25,-272.69 389.64,-228.57 468.75,-222.13 526.23,-224.53"/>
<polygon fill="orange" stroke="orange" points="244.6,-530.73 248.02,-540.76 251.6,-530.79 244.6,-530.73"/>
</a>
</g>
<text text-anchor="middle" x="412.5" y="-275.19" font-family="Helvetica,sans-Serif" font-size="10.00" fill="grey"> &lt; int &gt;</text>
</g>
<!-- Node18&#45;&gt;Node14 -->
<g id="edge30_Node000018_Node000014" class="edge">
<title>Node18&#45;&gt;Node14</title>
<g id="a_edge30_Node000018_Node000014"><a xlink:title=" ">
<path fill="none" stroke="orange" stroke-dasharray="5,2" d="M250.27,-531C256.74,-444.62 280.84,-182.43 338.25,-123.69 385.3,-75.55 462.7,-62.72 520.86,-60.63"/>
<polygon fill="orange" stroke="orange" points="246.78,-530.68 249.55,-540.91 253.76,-531.19 246.78,-530.68"/>
</a>
</g>
<text text-anchor="start" x="349.88" y="-138.19" font-family="Helvetica,sans-Serif" font-size="10.00" fill="grey"> &lt; const AsyncFw::Multicast</text>
<text text-anchor="middle" x="412.5" y="-126.19" font-family="Helvetica,sans-Serif" font-size="10.00" fill="grey">Dns::Host &amp; &gt;</text>
</g>
<!-- Node18&#45;&gt;Node15 -->
<g id="edge31_Node000018_Node000015" class="edge">
<title>Node18&#45;&gt;Node15</title>
<g id="a_edge31_Node000018_Node000015"><a xlink:title=" ">
<path fill="none" stroke="orange" stroke-dasharray="5,2" d="M257.85,-532.04C270.82,-499.58 297.26,-445.52 338.25,-416.69 392.28,-378.69 466.93,-365.04 522.41,-360.39"/>
<polygon fill="orange" stroke="orange" points="254.68,-530.54 254.37,-541.13 261.22,-533.05 254.68,-530.54"/>
</a>
</g>
<text text-anchor="middle" x="412.5" y="-419.19" font-family="Helvetica,sans-Serif" font-size="10.00" fill="grey"> &lt; AbstractThread::PollEvents &gt;</text>
</g>
<!-- Node18&#45;&gt;Node16 -->
<g id="edge32_Node000018_Node000016" class="edge">
<title>Node18&#45;&gt;Node16</title>
<g id="a_edge32_Node000018_Node000016"><a xlink:title=" ">
<path fill="none" stroke="orange" stroke-dasharray="5,2" d="M331.61,-543.37C333.84,-543.12 336.06,-542.89 338.25,-542.69 401.55,-536.86 473.87,-536.83 526.17,-537.99"/>
<polygon fill="orange" stroke="orange" points="331.33,-539.88 321.84,-544.59 332.2,-546.82 331.33,-539.88"/>
</a>
</g>
<text text-anchor="middle" x="412.5" y="-545.19" font-family="Helvetica,sans-Serif" font-size="10.00" fill="grey"> &lt; State &gt;</text>
</g>
<!-- Node18&#45;&gt;Node17 -->
<g id="edge33_Node000018_Node000017" class="edge">
<title>Node18&#45;&gt;Node17</title>
<g id="a_edge33_Node000018_Node000017"><a xlink:title=" ">
<path fill="none" stroke="orange" stroke-dasharray="5,2" d="M251.03,-531.18C257.19,-483.51 276.97,-385.93 338.25,-336.69 390.92,-294.38 469.25,-286.22 526.18,-286.9"/>
<polygon fill="orange" stroke="orange" points="247.57,-530.59 249.89,-540.93 254.53,-531.4 247.57,-530.59"/>
</a>
</g>
<text text-anchor="start" x="371.25" y="-351.19" font-family="Helvetica,sans-Serif" font-size="10.00" fill="grey"> &lt; const std::string</text>
<text text-anchor="middle" x="412.5" y="-339.19" font-family="Helvetica,sans-Serif" font-size="10.00" fill="grey"> &amp;, bool &gt;</text>
</g>
</g>
</svg>
