<?xml version="1.0" encoding="UTF-8" standalone="no"?>
<!DOCTYPE svg PUBLIC "-//W3C//DTD SVG 1.1//EN"
 "http://www.w3.org/Graphics/SVG/1.1/DTD/svg11.dtd">
<!-- Generated by graphviz version 14.1.3 (20260303.0454)
 -->
<!-- Title: AsyncFw::AbstractSocket::read_fd Pages: 1 -->
<svg width="647pt" height="178pt"
 viewBox="0.00 0.00 647.00 178.00" xmlns="http://www.w3.org/2000/svg" xmlns:xlink="http://www.w3.org/1999/xlink">
<g id="graph0" class="graph" transform="scale(1 1) rotate(0) translate(4 174)">
<title>AsyncFw::AbstractSocket::read_fd</title>
<!-- Node1 -->
<g id="Node000001" class="node">
<title>Node1</title>
<g id="a_Node000001"><a xlink:title="Low&#45;level native operating system read operation proxying requests directly down to the fd handle.">
<polygon fill="#999999" stroke="#666666" points="639.25,-120 508.5,-120 508.5,-88 639.25,-88 639.25,-120"/>
<text xml:space="preserve" text-anchor="start" x="516.5" y="-106.5" font-family="Helvetica,sans-Serif" font-size="10.00">AsyncFw::AbstractSocket</text>
<text xml:space="preserve" text-anchor="middle" x="573.88" y="-94.5" font-family="Helvetica,sans-Serif" font-size="10.00">::read_fd</text>
</a>
</g>
</g>
<!-- Node2 -->
<g id="Node000002" class="node">
<title>Node2</title>
<g id="a_Node000002"><a xlink:href="classAsyncFw_1_1AbstractSocket.html#a3f4a74f0ab83d096bd37118bb28d8654" target="_top" xlink:title="Non&#45;destructively inspects the internal unread data buffer without consuming it.">
<polygon fill="white" stroke="#666666" points="465.75,-170 335,-170 335,-138 465.75,-138 465.75,-170"/>
<text xml:space="preserve" text-anchor="start" x="343" y="-156.5" font-family="Helvetica,sans-Serif" font-size="10.00">AsyncFw::AbstractSocket</text>
<text xml:space="preserve" text-anchor="middle" x="400.38" y="-144.5" font-family="Helvetica,sans-Serif" font-size="10.00">::peek</text>
</a>
</g>
</g>
<!-- Node1&#45;&gt;Node2 -->
<g id="edge1_Node000001_Node000002" class="edge">
<title>Node1&#45;&gt;Node2</title>
<g id="a_edge1_Node000001_Node000002"><a xlink:title=" ">
<path fill="none" stroke="#63b8ff" d="M505.91,-123.52C490.05,-128.15 473.29,-133.03 457.95,-137.51"/>
<polygon fill="#63b8ff" stroke="#63b8ff" points="506.65,-126.95 515.27,-120.8 504.69,-120.23 506.65,-126.95"/>
</a>
</g>
</g>
<!-- Node5 -->
<g id="Node000005" class="node">
<title>Node5</title>
<g id="a_Node000005"><a xlink:href="classAsyncFw_1_1AbstractSocket.html#a374dd4ce66bfcc8a6dcf40b4ba552828" target="_top" xlink:title="Reads incoming data into a raw byte buffer up to a specified maximum size.">
<polygon fill="white" stroke="#666666" points="465.75,-120 335,-120 335,-88 465.75,-88 465.75,-120"/>
<text xml:space="preserve" text-anchor="start" x="343" y="-106.5" font-family="Helvetica,sans-Serif" font-size="10.00">AsyncFw::AbstractSocket</text>
<text xml:space="preserve" text-anchor="middle" x="400.38" y="-94.5" font-family="Helvetica,sans-Serif" font-size="10.00">::read</text>
</a>
</g>
</g>
<!-- Node1&#45;&gt;Node5 -->
<g id="edge4_Node000001_Node000005" class="edge">
<title>Node1&#45;&gt;Node5</title>
<g id="a_edge4_Node000001_Node000005"><a xlink:title=" ">
<path fill="none" stroke="#63b8ff" d="M496.62,-104C486.4,-104 476.01,-104 466.02,-104"/>
<polygon fill="#63b8ff" stroke="#63b8ff" points="496.52,-107.5 506.52,-104 496.52,-100.5 496.52,-107.5"/>
</a>
</g>
</g>
<!-- Node8 -->
<g id="Node000008" class="node">
<title>Node8</title>
<g id="a_Node000008"><a xlink:href="classAsyncFw_1_1AbstractTlsSocket.html#a8c0f2e296d83c3004bd02dd6c2925bf1" target="_top" xlink:title="Low&#45;level decryption routing path proxying requests down to SSL_read().">
<polygon fill="white" stroke="#666666" points="472.5,-70 328.25,-70 328.25,-38 472.5,-38 472.5,-70"/>
<text xml:space="preserve" text-anchor="start" x="336.25" y="-56.5" font-family="Helvetica,sans-Serif" font-size="10.00">AsyncFw::AbstractTlsSocket</text>
<text xml:space="preserve" text-anchor="middle" x="400.38" y="-44.5" font-family="Helvetica,sans-Serif" font-size="10.00">::read_fd</text>
</a>
</g>
</g>
<!-- Node1&#45;&gt;Node8 -->
<g id="edge9_Node000001_Node000008" class="edge">
<title>Node1&#45;&gt;Node8</title>
<g id="a_edge9_Node000001_Node000008"><a xlink:title=" ">
<path fill="none" stroke="#63b8ff" d="M505.91,-84.48C490.05,-79.85 473.29,-74.97 457.95,-70.49"/>
<polygon fill="#63b8ff" stroke="#63b8ff" points="504.69,-87.77 515.27,-87.2 506.65,-81.05 504.69,-87.77"/>
</a>
</g>
</g>
<!-- Node3 -->
<g id="Node000003" class="node">
<title>Node3</title>
<g id="a_Node000003"><a xlink:href="classAsyncFw_1_1HttpSocket.html#a7163448458d68f433dbdb214a6175be3" target="_top" xlink:title="Called when there is data to read.">
<polygon fill="white" stroke="#666666" points="279.5,-170 166.75,-170 166.75,-138 279.5,-138 279.5,-170"/>
<text xml:space="preserve" text-anchor="start" x="174.75" y="-156.5" font-family="Helvetica,sans-Serif" font-size="10.00">AsyncFw::HttpSocket</text>
<text xml:space="preserve" text-anchor="middle" x="223.12" y="-144.5" font-family="Helvetica,sans-Serif" font-size="10.00">::readEvent</text>
</a>
</g>
</g>
<!-- Node2&#45;&gt;Node3 -->
<g id="edge2_Node000002_Node000003" class="edge">
<title>Node2&#45;&gt;Node3</title>
<g id="a_edge2_Node000002_Node000003"><a xlink:title=" ">
<path fill="none" stroke="#63b8ff" d="M323.11,-154C308.61,-154 293.69,-154 279.97,-154"/>
<polygon fill="#63b8ff" stroke="#63b8ff" points="323.1,-157.5 333.1,-154 323.1,-150.5 323.1,-157.5"/>
</a>
</g>
</g>
<!-- Node4 -->
<g id="Node000004" class="node">
<title>Node4</title>
<g id="a_Node000004"><a xlink:href="classAsyncFw_1_1HttpServer_1_1TcpSocket.html#abb44001861ba7b24633b54ae90c2896c" target="_top" xlink:title="Triggered when new raw data is available in the socket for reading. &#160;&#160;Overrides the base behavior to ...">
<polygon fill="white" stroke="#666666" points="118,-148 0,-148 0,-116 118,-116 118,-148"/>
<text xml:space="preserve" text-anchor="start" x="8" y="-134.5" font-family="Helvetica,sans-Serif" font-size="10.00">AsyncFw::HttpServer</text>
<text xml:space="preserve" text-anchor="middle" x="59" y="-122.5" font-family="Helvetica,sans-Serif" font-size="10.00">::TcpSocket::readEvent</text>
</a>
</g>
</g>
<!-- Node3&#45;&gt;Node4 -->
<g id="edge3_Node000003_Node000004" class="edge">
<title>Node3&#45;&gt;Node4</title>
<g id="a_edge3_Node000003_Node000004"><a xlink:title=" ">
<path fill="none" stroke="#63b8ff" d="M155.25,-144.93C143.02,-143.27 130.34,-141.55 118.38,-139.92"/>
<polygon fill="#63b8ff" stroke="#63b8ff" points="154.45,-148.35 164.83,-146.23 155.39,-141.41 154.45,-148.35"/>
</a>
</g>
</g>
<!-- Node5&#45;&gt;Node3 -->
<g id="edge8_Node000005_Node000003" class="edge">
<title>Node5&#45;&gt;Node3</title>
<g id="a_edge8_Node000005_Node000003"><a xlink:title=" ">
<path fill="none" stroke="#63b8ff" d="M331.03,-123.5C314.08,-128.34 296.11,-133.46 279.85,-138.1"/>
<polygon fill="#63b8ff" stroke="#63b8ff" points="331.88,-126.9 340.54,-120.79 329.96,-120.17 331.88,-126.9"/>
</a>
</g>
</g>
<!-- Node5&#45;&gt;Node4 -->
<g id="edge7_Node000005_Node000004" class="edge">
<title>Node5&#45;&gt;Node4</title>
<g id="a_edge7_Node000005_Node000004"><a xlink:title=" ">
<path fill="none" stroke="#63b8ff" d="M323.46,-110.26C261.47,-115.38 175.14,-122.5 118.44,-127.18"/>
<polygon fill="#63b8ff" stroke="#63b8ff" points="323.56,-113.77 333.23,-109.46 322.98,-106.79 323.56,-113.77"/>
</a>
</g>
</g>
<!-- Node6 -->
<g id="Node000006" class="node">
<title>Node6</title>
<g id="a_Node000006"><a xlink:href="classAsyncFw_1_1AbstractSocket.html#a4eea287aa9c8a3cafc2ea92ca72d85bc" target="_top" xlink:title="Reads a chunk of incoming data and extracts it into a returned DataArray object.">
<polygon fill="white" stroke="#666666" points="288.5,-82 157.75,-82 157.75,-50 288.5,-50 288.5,-82"/>
<text xml:space="preserve" text-anchor="start" x="165.75" y="-68.5" font-family="Helvetica,sans-Serif" font-size="10.00">AsyncFw::AbstractSocket</text>
<text xml:space="preserve" text-anchor="middle" x="223.12" y="-56.5" font-family="Helvetica,sans-Serif" font-size="10.00">::read</text>
</a>
</g>
</g>
<!-- Node5&#45;&gt;Node6 -->
<g id="edge5_Node000005_Node000006" class="edge">
<title>Node5&#45;&gt;Node6</title>
<g id="a_edge5_Node000005_Node000006"><a xlink:title=" ">
<path fill="none" stroke="#63b8ff" d="M323.64,-87.58C312.07,-85.07 300.22,-82.5 288.91,-80.05"/>
<polygon fill="#63b8ff" stroke="#63b8ff" points="322.62,-90.94 333.14,-89.64 324.11,-84.1 322.62,-90.94"/>
</a>
</g>
</g>
<!-- Node7 -->
<g id="Node000007" class="node">
<title>Node7</title>
<g id="a_Node000007"><a xlink:href="classAsyncFw_1_1DataArraySocket.html#a1a1f3404abcb93af27de1d7bc0a958b1" target="_top" xlink:title="Called when there is data to read.">
<polygon fill="white" stroke="#666666" points="292.25,-32 154,-32 154,0 292.25,0 292.25,-32"/>
<text xml:space="preserve" text-anchor="start" x="162" y="-18.5" font-family="Helvetica,sans-Serif" font-size="10.00">AsyncFw::DataArraySocket</text>
<text xml:space="preserve" text-anchor="middle" x="223.12" y="-6.5" font-family="Helvetica,sans-Serif" font-size="10.00">::readEvent</text>
</a>
</g>
</g>
<!-- Node5&#45;&gt;Node7 -->
<g id="edge6_Node000005_Node000007" class="edge">
<title>Node5&#45;&gt;Node7</title>
<g id="a_edge6_Node000005_Node000007"><a xlink:title=" ">
<path fill="none" stroke="#63b8ff" d="M333.99,-82.46C332.02,-81.35 330.1,-80.2 328.25,-79 308.73,-66.34 311.68,-53.79 292.25,-41 287.41,-37.81 282.11,-34.97 276.67,-32.44"/>
<polygon fill="#63b8ff" stroke="#63b8ff" points="332.29,-85.52 342.79,-86.89 335.44,-79.27 332.29,-85.52"/>
</a>
</g>
</g>
</g>
</svg>
