<?xml version="1.0" encoding="UTF-8" standalone="no"?>
<!DOCTYPE svg PUBLIC "-//W3C//DTD SVG 1.1//EN"
 "http://www.w3.org/Graphics/SVG/1.1/DTD/svg11.dtd">
<!-- Generated by graphviz version 12.2.1 (20241206.2353)
 -->
<!-- Title: AsyncFw::AbstractSocket::listen Pages: 1 -->
<svg width="306pt" height="140pt"
 viewBox="0.00 0.00 305.50 140.00" xmlns="http://www.w3.org/2000/svg" xmlns:xlink="http://www.w3.org/1999/xlink">
<g id="graph0" class="graph" transform="scale(1 1) rotate(0) translate(4 136)">
<title>AsyncFw::AbstractSocket::listen</title>
<!-- Node1 -->
<g id="Node000001" class="node">
<title>Node1</title>
<g id="a_Node000001"><a xlink:title="Listen for incoming connections on address and port.">
<polygon fill="#999999" stroke="#666666" points="130.75,-82 0,-82 0,-50 130.75,-50 130.75,-82"/>
<text text-anchor="start" x="8" y="-68.5" font-family="Helvetica,sans-Serif" font-size="10.00">AsyncFw::AbstractSocket</text>
<text text-anchor="middle" x="65.38" y="-56.5" font-family="Helvetica,sans-Serif" font-size="10.00">::listen</text>
</a>
</g>
</g>
<!-- Node1&#45;&gt;Node1 -->
<g id="edge2_Node000001_Node000001" class="edge">
<title>Node1&#45;&gt;Node1</title>
<g id="a_edge2_Node000001_Node000001"><a xlink:title=" ">
<path fill="none" stroke="#63b8ff" d="M35.61,-82.44C30.05,-91.58 39.97,-100 65.38,-100 79.27,-100 88.53,-97.48 93.16,-93.71"/>
<polygon fill="#63b8ff" stroke="#63b8ff" points="96.6,-94.39 94.88,-83.93 89.7,-93.18 96.6,-94.39"/>
</a>
</g>
</g>
<!-- Node2 -->
<g id="Node000002" class="node">
<title>Node2</title>
<g id="a_Node000002"><a xlink:href="classAsyncFw_1_1AbstractSocket.html#a3dd69e137ca3cf50f90607c17bbdc312" target="_top" xlink:title="Return address.">
<polygon fill="white" stroke="#666666" points="297.5,-132 166.75,-132 166.75,-100 297.5,-100 297.5,-132"/>
<text text-anchor="start" x="174.75" y="-118.5" font-family="Helvetica,sans-Serif" font-size="10.00">AsyncFw::AbstractSocket</text>
<text text-anchor="middle" x="232.12" y="-106.5" font-family="Helvetica,sans-Serif" font-size="10.00">::address</text>
</a>
</g>
</g>
<!-- Node1&#45;&gt;Node2 -->
<g id="edge1_Node000001_Node000002" class="edge">
<title>Node1&#45;&gt;Node2</title>
<g id="a_edge1_Node000001_Node000002"><a xlink:title=" ">
<path fill="none" stroke="#63b8ff" d="M120.32,-82.37C134.89,-86.8 150.82,-91.63 165.94,-96.22"/>
<polygon fill="#63b8ff" stroke="#63b8ff" points="164.74,-99.51 175.33,-99.07 166.78,-92.81 164.74,-99.51"/>
</a>
</g>
</g>
<!-- Node3 -->
<g id="Node000003" class="node">
<title>Node3</title>
<g id="a_Node000003"><a xlink:href="classAsyncFw_1_1AbstractSocket.html#aa29d033332c09e341d159b2189c774e9" target="_top" xlink:title="Return port.">
<polygon fill="white" stroke="#666666" points="297.5,-82 166.75,-82 166.75,-50 297.5,-50 297.5,-82"/>
<text text-anchor="start" x="174.75" y="-68.5" font-family="Helvetica,sans-Serif" font-size="10.00">AsyncFw::AbstractSocket</text>
<text text-anchor="middle" x="232.12" y="-56.5" font-family="Helvetica,sans-Serif" font-size="10.00">::port</text>
</a>
</g>
</g>
<!-- Node1&#45;&gt;Node3 -->
<g id="edge3_Node000001_Node000003" class="edge">
<title>Node1&#45;&gt;Node3</title>
<g id="a_edge3_Node000001_Node000003"><a xlink:title=" ">
<path fill="none" stroke="#63b8ff" d="M131.02,-66C138.92,-66 147.05,-66 155.1,-66"/>
<polygon fill="#63b8ff" stroke="#63b8ff" points="154.89,-69.5 164.89,-66 154.89,-62.5 154.89,-69.5"/>
</a>
</g>
</g>
<!-- Node4 -->
<g id="Node000004" class="node">
<title>Node4</title>
<g id="a_Node000004"><a xlink:href="classAsyncFw_1_1AbstractSocket.html#a5db12267a6d2241e81f570463f2d7ef5" target="_top" xlink:title="Called when the connection state changes.">
<polygon fill="white" stroke="#666666" points="297.5,-32 166.75,-32 166.75,0 297.5,0 297.5,-32"/>
<text text-anchor="start" x="174.75" y="-18.5" font-family="Helvetica,sans-Serif" font-size="10.00">AsyncFw::AbstractSocket</text>
<text text-anchor="middle" x="232.12" y="-6.5" font-family="Helvetica,sans-Serif" font-size="10.00">::stateEvent</text>
</a>
</g>
</g>
<!-- Node1&#45;&gt;Node4 -->
<g id="edge4_Node000001_Node000004" class="edge">
<title>Node1&#45;&gt;Node4</title>
<g id="a_edge4_Node000001_Node000004"><a xlink:title=" ">
<path fill="none" stroke="#63b8ff" d="M120.32,-49.63C134.89,-45.2 150.82,-40.37 165.94,-35.78"/>
<polygon fill="#63b8ff" stroke="#63b8ff" points="166.78,-39.19 175.33,-32.93 164.74,-32.49 166.78,-39.19"/>
</a>
</g>
</g>
</g>
</svg>
