<?xml version="1.0" encoding="UTF-8" standalone="no"?>
<!DOCTYPE svg PUBLIC "-//W3C//DTD SVG 1.1//EN"
 "http://www.w3.org/Graphics/SVG/1.1/DTD/svg11.dtd">
<!-- Generated by graphviz version 14.1.3 (20260303.0454)
 -->
<!-- Title: AsyncFw::MainThread Pages: 1 -->
<svg width="302pt" height="203pt"
 viewBox="0.00 0.00 302.00 203.00" xmlns="http://www.w3.org/2000/svg" xmlns:xlink="http://www.w3.org/1999/xlink">
<g id="graph0" class="graph" transform="scale(1 1) rotate(0) translate(4 199)">
<title>AsyncFw::MainThread</title>
<!-- Node1 -->
<g id="Node000001" class="node">
<title>Node1</title>
<g id="a_Node000001"><a xlink:title="A static control interface managing the application&#39;s primary execution thread (Main Thread).">
<polygon fill="#999999" stroke="#666666" points="200.12,-20 85.88,-20 85.88,0 200.12,0 200.12,-20"/>
<text xml:space="preserve" text-anchor="middle" x="143" y="-6.5" font-family="Helvetica,sans-Serif" font-size="10.00">AsyncFw::MainThread</text>
</a>
</g>
</g>
<!-- Node2 -->
<g id="Node000002" class="node">
<title>Node2</title>
<g id="a_Node000002"><a xlink:href="classAsyncFw_1_1Thread.html" target="_top" xlink:title="AsyncFw::Thread thread with sockets.">
<polygon fill="white" stroke="#666666" points="189.62,-77 96.38,-77 96.38,-57 189.62,-57 189.62,-77"/>
<text xml:space="preserve" text-anchor="middle" x="143" y="-63.5" font-family="Helvetica,sans-Serif" font-size="10.00">AsyncFw::Thread</text>
</a>
</g>
</g>
<!-- Node2&#45;&gt;Node1 -->
<g id="edge1_Node000001_Node000002" class="edge">
<title>Node2&#45;&gt;Node1</title>
<g id="a_edge1_Node000001_Node000002"><a xlink:title=" ">
<path fill="none" stroke="#8b1a1a" d="M143,-45.69C143,-36.97 143,-27.22 143,-20.28"/>
<polygon fill="#8b1a1a" stroke="#8b1a1a" points="139.5,-45.4 143,-55.4 146.5,-45.4 139.5,-45.4"/>
</a>
</g>
</g>
<!-- Node3 -->
<g id="Node000003" class="node">
<title>Node3</title>
<g id="a_Node000003"><a xlink:href="classAsyncFw_1_1AbstractThread.html" target="_top" xlink:title="The AbstractThread class provides the base functionality for thread management.">
<polygon fill="white" stroke="#666666" points="130,-189 0,-189 0,-169 130,-169 130,-189"/>
<text xml:space="preserve" text-anchor="middle" x="65" y="-175.5" font-family="Helvetica,sans-Serif" font-size="10.00">AsyncFw::AbstractThread</text>
</a>
</g>
</g>
<!-- Node3&#45;&gt;Node2 -->
<g id="edge2_Node000002_Node000003" class="edge">
<title>Node3&#45;&gt;Node2</title>
<g id="a_edge2_Node000002_Node000003"><a xlink:title=" ">
<path fill="none" stroke="#63b8ff" d="M78.28,-159.27C95.14,-135.5 123.54,-95.44 136.37,-77.35"/>
<polygon fill="#63b8ff" stroke="#63b8ff" points="75.45,-157.2 72.53,-167.39 81.17,-161.25 75.45,-157.2"/>
</a>
</g>
</g>
<!-- Node4 -->
<g id="Node000004" class="node">
<title>Node4</title>
<g id="a_Node000004"><a xlink:href="classAsyncFw_1_1FunctionConnector.html" target="_top" xlink:title="Provides a thread&#45;safe, publisher&#45;subscriber mechanism to establish sender&#45;to&#45;receivers connections.">
<polygon fill="white" stroke="#666666" points="293.88,-195 148.12,-195 148.12,-163 293.88,-163 293.88,-195"/>
<text xml:space="preserve" text-anchor="start" x="156.12" y="-181.5" font-family="Helvetica,sans-Serif" font-size="10.00">AsyncFw::FunctionConnector</text>
<text xml:space="preserve" text-anchor="middle" x="221" y="-169.5" font-family="Helvetica,sans-Serif" font-size="10.00">&lt; Args &gt;</text>
</a>
</g>
</g>
<!-- Node4&#45;&gt;Node2 -->
<g id="edge3_Node000002_Node000004" class="edge">
<title>Node4&#45;&gt;Node2</title>
<g id="a_edge3_Node000002_Node000004"><a xlink:title=" ">
<path fill="none" stroke="#9a32cd" stroke-dasharray="5,2" d="M203.62,-153.49C186.57,-129.45 161.47,-94.04 149.63,-77.35"/>
<polygon fill="#9a32cd" stroke="#9a32cd" points="200.64,-155.34 209.28,-161.47 206.35,-151.29 200.64,-155.34"/>
</a>
</g>
<text xml:space="preserve" text-anchor="start" x="198.77" y="-132.25" font-family="Helvetica,sans-Serif" font-size="10.00" fill="grey">destroing</text>
<text xml:space="preserve" text-anchor="start" x="198.77" y="-116.25" font-family="Helvetica,sans-Serif" font-size="10.00" fill="grey">finished</text>
<text xml:space="preserve" text-anchor="start" x="198.77" y="-100.25" font-family="Helvetica,sans-Serif" font-size="10.00" fill="grey">started</text>
</g>
</g>
</svg>
