<?xml version="1.0" encoding="UTF-8" standalone="no"?>
<!DOCTYPE svg PUBLIC "-//W3C//DTD SVG 1.1//EN"
 "http://www.w3.org/Graphics/SVG/1.1/DTD/svg11.dtd">
<!-- Generated by graphviz version 12.2.1 (20241206.2353)
 -->
<!-- Title: AsyncFw::Rrd Pages: 1 -->
<svg width="371pt" height="200pt"
 viewBox="0.00 0.00 370.50 200.00" xmlns="http://www.w3.org/2000/svg" xmlns:xlink="http://www.w3.org/1999/xlink">
<g id="graph0" class="graph" transform="scale(1 1) rotate(0) translate(4 196)">
<title>AsyncFw::Rrd</title>
<!-- Node1 -->
<g id="Node000001" class="node">
<title>Node1</title>
<g id="a_Node000001"><a xlink:title="A high&#45;performance circular database engine (Round&#45;Robin Database) for time&#45;series and structural dat...">
<polygon fill="#999999" stroke="#666666" points="214.38,-20 135.38,-20 135.38,0 214.38,0 214.38,-20"/>
<text text-anchor="middle" x="174.88" y="-6.5" font-family="Helvetica,sans-Serif" font-size="10.00">AsyncFw::Rrd</text>
</a>
</g>
</g>
<!-- Node2 -->
<g id="Node000002" class="node">
<title>Node2</title>
<g id="a_Node000002"><a xlink:href="classAsyncFw_1_1FunctionConnector.html" target="_top" xlink:title="Provides a thread&#45;safe, publisher&#45;subscriber mechanism to establish sender&#45;to&#45;receivers connections.">
<polygon fill="white" stroke="#666666" points="145.75,-192 0,-192 0,-160 145.75,-160 145.75,-192"/>
<text text-anchor="start" x="8" y="-178.5" font-family="Helvetica,sans-Serif" font-size="10.00">AsyncFw::FunctionConnector</text>
<text text-anchor="middle" x="72.88" y="-166.5" font-family="Helvetica,sans-Serif" font-size="10.00">&lt; Args &gt;</text>
</a>
</g>
</g>
<!-- Node2&#45;&gt;Node1 -->
<g id="edge1_Node000001_Node000002" class="edge">
<title>Node2&#45;&gt;Node1</title>
<g id="a_edge1_Node000001_Node000002"><a xlink:title=" ">
<path fill="none" stroke="#9a32cd" stroke-dasharray="5,2" d="M68.62,-148.58C66.32,-125.58 66.48,-92.22 81.38,-68 95.91,-44.36 124.28,-29.14 145.97,-20.43"/>
<polygon fill="#9a32cd" stroke="#9a32cd" points="65.13,-148.87 69.84,-158.36 72.08,-148 65.13,-148.87"/>
</a>
</g>
<text text-anchor="middle" x="100.12" y="-74.5" font-family="Helvetica,sans-Serif" font-size="10.00" fill="grey"> updated</text>
</g>
<!-- Node3 -->
<g id="Node000003" class="node">
<title>Node3</title>
<g id="a_Node000003"><a xlink:href="classAsyncFw_1_1Thread.html" target="_top" xlink:title="AsyncFw::Thread thread with sockets.">
<polygon fill="white" stroke="#666666" points="221.5,-88 128.25,-88 128.25,-68 221.5,-68 221.5,-88"/>
<text text-anchor="middle" x="174.88" y="-74.5" font-family="Helvetica,sans-Serif" font-size="10.00">AsyncFw::Thread</text>
</a>
</g>
</g>
<!-- Node2&#45;&gt;Node3 -->
<g id="edge4_Node000003_Node000002" class="edge">
<title>Node2&#45;&gt;Node3</title>
<g id="a_edge4_Node000003_Node000002"><a xlink:title=" ">
<path fill="none" stroke="#9a32cd" stroke-dasharray="5,2" d="M96.23,-151.82C110.01,-138.29 127.88,-120.98 144.12,-106 150.6,-100.03 158.02,-93.51 163.94,-88.37"/>
<polygon fill="#9a32cd" stroke="#9a32cd" points="93.98,-149.13 89.31,-158.64 98.89,-154.11 93.98,-149.13"/>
</a>
</g>
<text text-anchor="middle" x="165.5" y="-132.5" font-family="Helvetica,sans-Serif" font-size="10.00" fill="grey"> destroing</text>
<text text-anchor="middle" x="165.5" y="-120.5" font-family="Helvetica,sans-Serif" font-size="10.00" fill="grey">finished</text>
<text text-anchor="middle" x="165.5" y="-108.5" font-family="Helvetica,sans-Serif" font-size="10.00" fill="grey">started</text>
</g>
<!-- Node3&#45;&gt;Node1 -->
<g id="edge2_Node000001_Node000003" class="edge">
<title>Node3&#45;&gt;Node1</title>
<g id="a_edge2_Node000001_Node000003"><a xlink:title=" ">
<path fill="none" stroke="#9a32cd" stroke-dasharray="5,2" d="M174.88,-56.28C174.88,-44.27 174.88,-29.74 174.88,-20.44"/>
<polygon fill="#9a32cd" stroke="#9a32cd" points="171.38,-56.03 174.88,-66.03 178.38,-56.03 171.38,-56.03"/>
</a>
</g>
<text text-anchor="middle" x="192.5" y="-40.5" font-family="Helvetica,sans-Serif" font-size="10.00" fill="grey"> thread_</text>
</g>
<!-- Node4 -->
<g id="Node000004" class="node">
<title>Node4</title>
<g id="a_Node000004"><a xlink:href="classAsyncFw_1_1AbstractThread.html" target="_top" xlink:title="The AbstractThread class provides the base functionality for thread management.">
<polygon fill="white" stroke="#666666" points="293.88,-186 163.88,-186 163.88,-166 293.88,-166 293.88,-186"/>
<text text-anchor="middle" x="228.88" y="-172.5" font-family="Helvetica,sans-Serif" font-size="10.00">AsyncFw::AbstractThread</text>
</a>
</g>
</g>
<!-- Node4&#45;&gt;Node3 -->
<g id="edge3_Node000003_Node000004" class="edge">
<title>Node4&#45;&gt;Node3</title>
<g id="a_edge3_Node000003_Node000004"><a xlink:title=" ">
<path fill="none" stroke="#63b8ff" d="M218.2,-156.02C206.71,-135.59 188.89,-103.91 180.12,-88.32"/>
<polygon fill="#63b8ff" stroke="#63b8ff" points="215,-157.48 222.96,-164.48 221.1,-154.04 215,-157.48"/>
</a>
</g>
</g>
<!-- Node5 -->
<g id="Node000005" class="node">
<title>Node5</title>
<g id="a_Node000005"><a xlink:href="classAsyncFw_1_1DataArrayList.html" target="_top" xlink:title="A specialized container aggregating multiple DataArray instances.">
<polygon fill="white" stroke="#666666" points="362.5,-88 239.25,-88 239.25,-68 362.5,-68 362.5,-88"/>
<text text-anchor="middle" x="300.88" y="-74.5" font-family="Helvetica,sans-Serif" font-size="10.00">AsyncFw::DataArrayList</text>
</a>
</g>
</g>
<!-- Node5&#45;&gt;Node1 -->
<g id="edge5_Node000001_Node000005" class="edge">
<title>Node5&#45;&gt;Node1</title>
<g id="a_edge5_Node000001_Node000005"><a xlink:title=" ">
<path fill="none" stroke="#9a32cd" stroke-dasharray="5,2" d="M272.74,-62.26C248.33,-49.48 213.74,-31.36 192.89,-20.44"/>
<polygon fill="#9a32cd" stroke="#9a32cd" points="271,-65.3 281.48,-66.84 274.25,-59.1 271,-65.3"/>
</a>
</g>
<text text-anchor="middle" x="271.29" y="-40.5" font-family="Helvetica,sans-Serif" font-size="10.00" fill="grey"> dataBase</text>
</g>
</g>
</svg>
