<?xml version="1.0" encoding="UTF-8" standalone="no"?>
<!DOCTYPE svg PUBLIC "-//W3C//DTD SVG 1.1//EN"
 "http://www.w3.org/Graphics/SVG/1.1/DTD/svg11.dtd">
<!-- Generated by graphviz version 14.1.3 (20260303.0454)
 -->
<!-- Title: AsyncFw::DataArrayTcpClient Pages: 1 -->
<svg width="1066pt" height="192pt"
 viewBox="0.00 0.00 1066.00 192.00" xmlns="http://www.w3.org/2000/svg" xmlns:xlink="http://www.w3.org/1999/xlink">
<g id="graph0" class="graph" transform="scale(1 1) rotate(0) translate(4 188)">
<title>AsyncFw::DataArrayTcpClient</title>
<!-- Node1 -->
<g id="Node000001" class="node">
<title>Node1</title>
<g id="a_Node000001"><a xlink:title="An asynchronous TCP client class managing outgoing server connections and synchronous exchanges....">
<polygon fill="#999999" stroke="#666666" points="1057.5,-55 909.5,-55 909.5,-35 1057.5,-35 1057.5,-55"/>
<text xml:space="preserve" text-anchor="middle" x="983.5" y="-41.5" font-family="Helvetica,sans-Serif" font-size="10.00">AsyncFw::DataArrayTcpClient</text>
</a>
</g>
</g>
<!-- Node2 -->
<g id="Node000002" class="node">
<title>Node2</title>
<g id="a_Node000002"><a xlink:href="classAsyncFw_1_1DataArrayAbstractTcp.html" target="_top" xlink:title="Abstract base class implementing a multi&#45;threaded TCP pool for socket and packet management.">
<polygon fill="white" stroke="#666666" points="872.5,-97 713.25,-97 713.25,-77 872.5,-77 872.5,-97"/>
<text xml:space="preserve" text-anchor="middle" x="792.88" y="-83.5" font-family="Helvetica,sans-Serif" font-size="10.00">AsyncFw::DataArrayAbstractTcp</text>
</a>
</g>
</g>
<!-- Node2&#45;&gt;Node1 -->
<g id="edge1_Node000001_Node000002" class="edge">
<title>Node2&#45;&gt;Node1</title>
<g id="a_edge1_Node000001_Node000002"><a xlink:title=" ">
<path fill="none" stroke="#63b8ff" d="M852.17,-74.02C879,-68.05 910.4,-61.05 935.66,-55.43"/>
<polygon fill="#63b8ff" stroke="#63b8ff" points="851.46,-70.59 842.46,-76.18 852.99,-77.42 851.46,-70.59"/>
</a>
</g>
</g>
<!-- Node3 -->
<g id="Node000003" class="node">
<title>Node3</title>
<g id="a_Node000003"><a xlink:href="classAsyncFw_1_1AbstractThreadPool.html" target="_top" xlink:title="Abstract base class for creating and managing thread pools.">
<polygon fill="white" stroke="#666666" points="476,-176 326.5,-176 326.5,-156 476,-156 476,-176"/>
<text xml:space="preserve" text-anchor="middle" x="401.25" y="-162.5" font-family="Helvetica,sans-Serif" font-size="10.00">AsyncFw::AbstractThreadPool</text>
</a>
</g>
</g>
<!-- Node3&#45;&gt;Node2 -->
<g id="edge2_Node000002_Node000003" class="edge">
<title>Node3&#45;&gt;Node2</title>
<g id="a_edge2_Node000002_Node000003"><a xlink:title=" ">
<path fill="none" stroke="#63b8ff" d="M487.54,-159.97C546.6,-154.44 626.61,-144.23 695.25,-126 722,-118.89 751.29,-106.35 770.53,-97.41"/>
<polygon fill="#63b8ff" stroke="#63b8ff" points="487.55,-156.46 477.9,-160.85 488.18,-163.43 487.55,-156.46"/>
</a>
</g>
</g>
<!-- Node4 -->
<g id="Node000004" class="node">
<title>Node4</title>
<g id="a_Node000004"><a xlink:href="classAsyncFw_1_1AbstractThread.html" target="_top" xlink:title="The AbstractThread class provides the base functionality for thread management.">
<polygon fill="white" stroke="#666666" points="137.88,-176 7.88,-176 7.88,-156 137.88,-156 137.88,-176"/>
<text xml:space="preserve" text-anchor="middle" x="72.88" y="-162.5" font-family="Helvetica,sans-Serif" font-size="10.00">AsyncFw::AbstractThread</text>
</a>
</g>
</g>
<!-- Node4&#45;&gt;Node3 -->
<g id="edge3_Node000003_Node000004" class="edge">
<title>Node4&#45;&gt;Node3</title>
<g id="a_edge3_Node000003_Node000004"><a xlink:title=" ">
<path fill="none" stroke="#9a32cd" stroke-dasharray="5,2" d="M149.75,-166C202.88,-166 273.49,-166 326.21,-166"/>
<polygon fill="#9a32cd" stroke="#9a32cd" points="149.87,-162.5 139.87,-166 149.87,-169.5 149.87,-162.5"/>
</a>
</g>
<text xml:space="preserve" text-anchor="start" x="214" y="-171.25" font-family="Helvetica,sans-Serif" font-size="10.00" fill="grey">thread_</text>
</g>
<!-- Node5 -->
<g id="Node000005" class="node">
<title>Node5</title>
<g id="a_Node000005"><a xlink:href="classAsyncFw_1_1FunctionConnector.html" target="_top" xlink:title=" ">
<polygon fill="white" stroke="#666666" points="488,-138 314.5,-138 314.5,-82 488,-82 488,-138"/>
<text xml:space="preserve" text-anchor="start" x="322.5" y="-124.5" font-family="Helvetica,sans-Serif" font-size="10.00">AsyncFw::FunctionConnector</text>
<text xml:space="preserve" text-anchor="start" x="322.5" y="-112.5" font-family="Helvetica,sans-Serif" font-size="10.00">&lt; const AsyncFw::DataArraySocket</text>
<text xml:space="preserve" text-anchor="start" x="322.5" y="-100.5" font-family="Helvetica,sans-Serif" font-size="10.00"> *, const AsyncFw::DataArray</text>
<text xml:space="preserve" text-anchor="middle" x="401.25" y="-88.5" font-family="Helvetica,sans-Serif" font-size="10.00"> *, uint32_t &gt;</text>
</a>
</g>
</g>
<!-- Node5&#45;&gt;Node2 -->
<g id="edge4_Node000002_Node000005" class="edge">
<title>Node5&#45;&gt;Node2</title>
<g id="a_edge4_Node000002_Node000005"><a xlink:title=" ">
<path fill="none" stroke="#9a32cd" stroke-dasharray="5,2" d="M499.47,-104.26C565.39,-100.37 651.42,-95.29 713.06,-91.65"/>
<polygon fill="#9a32cd" stroke="#9a32cd" points="499.52,-100.75 489.75,-104.83 499.94,-107.74 499.52,-100.75"/>
</a>
</g>
<text xml:space="preserve" text-anchor="start" x="582.25" y="-109.08" font-family="Helvetica,sans-Serif" font-size="10.00" fill="grey">received</text>
</g>
<!-- Node6 -->
<g id="Node000006" class="node">
<title>Node6</title>
<g id="a_Node000006"><a xlink:href="classAsyncFw_1_1FunctionConnector.html" target="_top" xlink:title="Provides a thread&#45;safe, publisher&#45;subscriber mechanism to establish sender&#45;to&#45;receivers connections.">
<polygon fill="white" stroke="#666666" points="145.75,-61 0,-61 0,-29 145.75,-29 145.75,-61"/>
<text xml:space="preserve" text-anchor="start" x="8" y="-47.5" font-family="Helvetica,sans-Serif" font-size="10.00">AsyncFw::FunctionConnector</text>
<text xml:space="preserve" text-anchor="middle" x="72.88" y="-35.5" font-family="Helvetica,sans-Serif" font-size="10.00">&lt; Args &gt;</text>
</a>
</g>
</g>
<!-- Node6&#45;&gt;Node5 -->
<g id="edge5_Node000005_Node000006" class="edge">
<title>Node6&#45;&gt;Node5</title>
<g id="a_edge5_Node000005_Node000006"><a xlink:title=" ">
<path fill="none" stroke="orange" stroke-dasharray="5,2" d="M156.92,-61.54C205.06,-71.13 265.58,-83.18 314.22,-92.87"/>
<polygon fill="orange" stroke="orange" points="157.88,-58.16 147.39,-59.64 156.51,-65.03 157.88,-58.16"/>
</a>
</g>
<text xml:space="preserve" text-anchor="start" x="166.75" y="-126.23" font-family="Helvetica,sans-Serif" font-size="10.00" fill="grey">&lt; const AsyncFw::DataArray</text>
<text xml:space="preserve" text-anchor="start" x="166.75" y="-110.23" font-family="Helvetica,sans-Serif" font-size="10.00" fill="grey">  Socket *, const AsyncFw</text>
<text xml:space="preserve" text-anchor="start" x="166.75" y="-94.23" font-family="Helvetica,sans-Serif" font-size="10.00" fill="grey">  ::DataArray *, uint32_t &gt;</text>
</g>
<!-- Node8 -->
<g id="Node000008" class="node">
<title>Node8</title>
<g id="a_Node000008"><a xlink:href="classAsyncFw_1_1FunctionConnector.html" target="_top" xlink:title=" ">
<polygon fill="white" stroke="#666666" points="695.25,-32 506,-32 506,0 695.25,0 695.25,-32"/>
<text xml:space="preserve" text-anchor="start" x="514" y="-18.5" font-family="Helvetica,sans-Serif" font-size="10.00">AsyncFw::FunctionConnector</text>
<text xml:space="preserve" text-anchor="middle" x="600.62" y="-6.5" font-family="Helvetica,sans-Serif" font-size="10.00">&lt; const AsyncFw::DataArraySocket * &gt;</text>
</a>
</g>
</g>
<!-- Node6&#45;&gt;Node8 -->
<g id="edge8_Node000008_Node000006" class="edge">
<title>Node6&#45;&gt;Node8</title>
<g id="a_edge8_Node000008_Node000006"><a xlink:title=" ">
<path fill="none" stroke="orange" stroke-dasharray="5,2" d="M157.09,-26.85C159.33,-26.54 161.55,-26.26 163.75,-26 281.04,-12.38 417.24,-11.64 505.75,-13.15"/>
<polygon fill="orange" stroke="orange" points="156.65,-23.37 147.29,-28.34 157.7,-30.29 156.65,-23.37"/>
</a>
</g>
<text xml:space="preserve" text-anchor="start" x="166.75" y="-47.25" font-family="Helvetica,sans-Serif" font-size="10.00" fill="grey">&lt; const AsyncFw::DataArray</text>
<text xml:space="preserve" text-anchor="start" x="166.75" y="-31.25" font-family="Helvetica,sans-Serif" font-size="10.00" fill="grey">  Socket * &gt;</text>
</g>
<!-- Node7 -->
<g id="Node000007" class="node">
<title>Node7</title>
<g id="a_Node000007"><a xlink:href="classAsyncFw_1_1TlsContext.html" target="_top" xlink:title="Manages cryptographic configurations, security profiles, credentials, and certificates for TLS sessio...">
<polygon fill="white" stroke="#666666" points="456.88,-64 345.62,-64 345.62,-44 456.88,-44 456.88,-64"/>
<text xml:space="preserve" text-anchor="middle" x="401.25" y="-50.5" font-family="Helvetica,sans-Serif" font-size="10.00">AsyncFw::TlsContext</text>
</a>
</g>
</g>
<!-- Node7&#45;&gt;Node2 -->
<g id="edge6_Node000002_Node000007" class="edge">
<title>Node7&#45;&gt;Node2</title>
<g id="a_edge6_Node000002_Node000007"><a xlink:title=" ">
<path fill="none" stroke="#9a32cd" stroke-dasharray="5,2" d="M468.69,-55.84C528.19,-57.97 617.75,-62.36 695.25,-71 708.09,-72.43 721.83,-74.42 734.79,-76.52"/>
<polygon fill="#9a32cd" stroke="#9a32cd" points="468.84,-52.35 458.72,-55.5 468.59,-59.34 468.84,-52.35"/>
</a>
</g>
<text xml:space="preserve" text-anchor="start" x="578.12" y="-76.25" font-family="Helvetica,sans-Serif" font-size="10.00" fill="grey">tlsContext</text>
</g>
<!-- Node8&#45;&gt;Node1 -->
<g id="edge7_Node000001_Node000008" class="edge">
<title>Node8&#45;&gt;Node1</title>
<g id="a_edge7_Node000001_Node000008"><a xlink:title=" ">
<path fill="none" stroke="#9a32cd" stroke-dasharray="5,2" d="M706.69,-24C771.03,-28.9 851.77,-35.05 909.23,-39.42"/>
<polygon fill="#9a32cd" stroke="#9a32cd" points="707.03,-20.52 696.79,-23.25 706.5,-27.5 707.03,-20.52"/>
</a>
</g>
<text xml:space="preserve" text-anchor="start" x="738.12" y="-41.87" font-family="Helvetica,sans-Serif" font-size="10.00" fill="grey">connectionStateChanged</text>
</g>
</g>
</svg>
