<?xml version="1.0" encoding="UTF-8" standalone="no"?>
<!DOCTYPE svg PUBLIC "-//W3C//DTD SVG 1.1//EN"
 "http://www.w3.org/Graphics/SVG/1.1/DTD/svg11.dtd">
<!-- Generated by graphviz version 12.2.1 (20241206.2353)
 -->
<!-- Title: AsyncFw::AbstractThread::AbstractThread Pages: 1 -->
<svg width="980pt" height="404pt"
 viewBox="0.00 0.00 980.00 404.00" xmlns="http://www.w3.org/2000/svg" xmlns:xlink="http://www.w3.org/1999/xlink">
<g id="graph0" class="graph" transform="scale(1 1) rotate(0) translate(4 400)">
<title>AsyncFw::AbstractThread::AbstractThread</title>
<!-- Node1 -->
<g id="Node000001" class="node">
<title>Node1</title>
<g id="a_Node000001"><a xlink:title="Constructs a thread.">
<polygon fill="#999999" stroke="#666666" points="972,-242 842,-242 842,-210 972,-210 972,-242"/>
<text text-anchor="start" x="850" y="-228.5" font-family="Helvetica,sans-Serif" font-size="10.00">AsyncFw::AbstractThread</text>
<text text-anchor="middle" x="907" y="-216.5" font-family="Helvetica,sans-Serif" font-size="10.00">::AbstractThread</text>
</a>
</g>
</g>
<!-- Node1&#45;&gt;Node1 -->
<g id="edge1_Node000001_Node000001" class="edge">
<title>Node1&#45;&gt;Node1</title>
<g id="a_edge1_Node000001_Node000001"><a xlink:title=" ">
<path fill="none" stroke="#63b8ff" d="M934.66,-253.71C930.05,-257.48 920.83,-260 907,-260 881.71,-260 871.83,-251.58 877.36,-242.44"/>
<polygon fill="#63b8ff" stroke="#63b8ff" points="938.1,-254.39 936.37,-243.93 931.2,-253.18 938.1,-254.39"/>
</a>
</g>
</g>
<!-- Node2 -->
<g id="Node000002" class="node">
<title>Node2</title>
<g id="a_Node000002"><a xlink:href="classAsyncFw_1_1AbstractThread.html#a09cdd1972b9416a7ddb2a1921f36938c" target="_top" xlink:title="Returns a pointer to the AsyncFw::AbstractThread that manages the currently executing thread.">
<polygon fill="white" stroke="#666666" points="806,-220 676,-220 676,-188 806,-188 806,-220"/>
<text text-anchor="start" x="684" y="-206.5" font-family="Helvetica,sans-Serif" font-size="10.00">AsyncFw::AbstractThread</text>
<text text-anchor="middle" x="741" y="-194.5" font-family="Helvetica,sans-Serif" font-size="10.00">::current</text>
</a>
</g>
</g>
<!-- Node1&#45;&gt;Node2 -->
<g id="edge2_Node000001_Node000002" class="edge">
<title>Node1&#45;&gt;Node2</title>
<g id="a_edge2_Node000001_Node000002"><a xlink:title=" ">
<path fill="none" stroke="#63b8ff" d="M830.41,-215.86C822.4,-214.78 814.3,-213.7 806.43,-212.64"/>
<polygon fill="#63b8ff" stroke="#63b8ff" points="829.78,-219.31 840.15,-217.17 830.71,-212.37 829.78,-219.31"/>
</a>
</g>
</g>
<!-- Node22 -->
<g id="Node000022" class="node">
<title>Node22</title>
<g id="a_Node000022"><a xlink:href="classAsyncFw_1_1Thread.html#afc5e422090767dd84020381fb9a4d490" target="_top" xlink:title="Constructs a thread.">
<polygon fill="white" stroke="#666666" points="805.62,-295 676.38,-295 676.38,-275 805.62,-275 805.62,-295"/>
<text text-anchor="middle" x="741" y="-281.5" font-family="Helvetica,sans-Serif" font-size="10.00">AsyncFw::Thread::Thread</text>
</a>
</g>
</g>
<!-- Node1&#45;&gt;Node22 -->
<g id="edge22_Node000001_Node000022" class="edge">
<title>Node1&#45;&gt;Node22</title>
<g id="a_edge22_Node000001_Node000022"><a xlink:title=" ">
<path fill="none" stroke="#63b8ff" d="M849.63,-246.28C823.14,-255.81 792.68,-266.77 770.94,-274.59"/>
<polygon fill="#63b8ff" stroke="#63b8ff" points="850.67,-249.63 858.89,-242.95 848.3,-243.04 850.67,-249.63"/>
</a>
</g>
</g>
<!-- Node3 -->
<g id="Node000003" class="node">
<title>Node3</title>
<g id="a_Node000003"><a xlink:href="classAsyncFw_1_1ThreadPool.html#a9919894e586310a7ea5b780845376e17" target="_top" xlink:title="Asynchronously invokes a void function in the target thread, and executes a result callback in the ca...">
<polygon fill="white" stroke="#666666" points="622,-295 509.25,-295 509.25,-263 622,-263 622,-295"/>
<text text-anchor="start" x="517.25" y="-281.5" font-family="Helvetica,sans-Serif" font-size="10.00">AsyncFw::ThreadPool</text>
<text text-anchor="middle" x="565.62" y="-269.5" font-family="Helvetica,sans-Serif" font-size="10.00">::async</text>
</a>
</g>
</g>
<!-- Node2&#45;&gt;Node3 -->
<g id="edge3_Node000002_Node000003" class="edge">
<title>Node2&#45;&gt;Node3</title>
<g id="a_edge3_Node000002_Node000003"><a xlink:title=" ">
<path fill="none" stroke="#63b8ff" d="M699.72,-225.7C681.71,-234.99 660.06,-245.61 640,-254 632.92,-256.96 625.36,-259.84 617.88,-262.53"/>
<polygon fill="#63b8ff" stroke="#63b8ff" points="701.27,-228.84 708.52,-221.11 698.04,-222.63 701.27,-228.84"/>
</a>
</g>
</g>
<!-- Node4 -->
<g id="Node000004" class="node">
<title>Node4</title>
<g id="a_Node000004"><a xlink:href="classAsyncFw_1_1Thread.html#a0a3bd6a54db28f73ff59cfea6a40b07a" target="_top" xlink:title="Returns a pointer to the AsyncFw::Thread that manages the currently executing thread.">
<polygon fill="white" stroke="#666666" points="630.25,-333 501,-333 501,-313 630.25,-313 630.25,-333"/>
<text text-anchor="middle" x="565.62" y="-319.5" font-family="Helvetica,sans-Serif" font-size="10.00">AsyncFw::Thread::current</text>
</a>
</g>
</g>
<!-- Node2&#45;&gt;Node4 -->
<g id="edge4_Node000002_Node000004" class="edge">
<title>Node2&#45;&gt;Node4</title>
<g id="a_edge4_Node000002_Node000004"><a xlink:title=" ">
<path fill="none" stroke="#63b8ff" d="M714.55,-228.17C702.71,-239.54 688.52,-253.34 676,-266 659.64,-282.54 660.04,-292.18 640,-304 634.22,-307.41 627.83,-310.21 621.3,-312.52"/>
<polygon fill="#63b8ff" stroke="#63b8ff" points="716.79,-230.87 721.6,-221.43 711.95,-225.81 716.79,-230.87"/>
</a>
</g>
</g>
<!-- Node13 -->
<g id="Node000013" class="node">
<title>Node13</title>
<g id="a_Node000013"><a xlink:href="classAsyncFw_1_1FileSystemWatcher.html#acd061a60fbaea1bb3c7d020e0da99039" target="_top" xlink:title="Constructs a FileSystemWatcher and optionally starts monitoring given paths.">
<polygon fill="white" stroke="#666666" points="640,-245 491.25,-245 491.25,-213 640,-213 640,-245"/>
<text text-anchor="start" x="499.25" y="-231.5" font-family="Helvetica,sans-Serif" font-size="10.00">AsyncFw::FileSystemWatcher</text>
<text text-anchor="middle" x="565.62" y="-219.5" font-family="Helvetica,sans-Serif" font-size="10.00">::FileSystemWatcher</text>
</a>
</g>
</g>
<!-- Node2&#45;&gt;Node13 -->
<g id="edge13_Node000002_Node000013" class="edge">
<title>Node2&#45;&gt;Node13</title>
<g id="a_edge13_Node000002_Node000013"><a xlink:title=" ">
<path fill="none" stroke="#63b8ff" d="M664.66,-214.86C656.61,-216.03 648.42,-217.21 640.38,-218.36"/>
<polygon fill="#63b8ff" stroke="#63b8ff" points="665.04,-218.35 674.44,-213.45 664.04,-211.42 665.04,-218.35"/>
</a>
</g>
</g>
<!-- Node15 -->
<g id="Node000015" class="node">
<title>Node15</title>
<g id="a_Node000015"><a xlink:href="classAsyncFw_1_1MulticastDns.html#ab9bfb41e98cd4ecf1cc63f8acd023afd" target="_top" xlink:title="Initializes the mDNS node with a specific target service type (e.g., &quot;_http._tcp&quot;).">
<polygon fill="white" stroke="#666666" points="626.12,-195 505.12,-195 505.12,-163 626.12,-163 626.12,-195"/>
<text text-anchor="start" x="513.12" y="-181.5" font-family="Helvetica,sans-Serif" font-size="10.00">AsyncFw::MulticastDns</text>
<text text-anchor="middle" x="565.62" y="-169.5" font-family="Helvetica,sans-Serif" font-size="10.00">::MulticastDns</text>
</a>
</g>
</g>
<!-- Node2&#45;&gt;Node15 -->
<g id="edge15_Node000002_Node000015" class="edge">
<title>Node2&#45;&gt;Node15</title>
<g id="a_edge15_Node000002_Node000015"><a xlink:title=" ">
<path fill="none" stroke="#63b8ff" d="M664.77,-193.15C651.94,-191.3 638.77,-189.4 626.4,-187.62"/>
<polygon fill="#63b8ff" stroke="#63b8ff" points="664.04,-196.58 674.44,-194.55 665.04,-189.65 664.04,-196.58"/>
</a>
</g>
</g>
<!-- Node17 -->
<g id="Node000017" class="node">
<title>Node17</title>
<g id="a_Node000017"><a xlink:href="classAsyncFw_1_1Log.html#a6b0ce40bc2e34f4b435894701194dc26" target="_top" xlink:title="Persists log entries into the underlying Rrd buffer and manages automated disk flushing.">
<polygon fill="white" stroke="#666666" points="621.62,-145 509.62,-145 509.62,-125 621.62,-125 621.62,-145"/>
<text text-anchor="middle" x="565.62" y="-131.5" font-family="Helvetica,sans-Serif" font-size="10.00">AsyncFw::Log::output</text>
</a>
</g>
</g>
<!-- Node2&#45;&gt;Node17 -->
<g id="edge17_Node000002_Node000017" class="edge">
<title>Node2&#45;&gt;Node17</title>
<g id="a_edge17_Node000002_Node000017"><a xlink:title=" ">
<path fill="none" stroke="#63b8ff" d="M701.46,-182.35C683.23,-172.73 660.91,-161.84 640,-154 631.37,-150.77 621.98,-147.88 612.88,-145.4"/>
<polygon fill="#63b8ff" stroke="#63b8ff" points="699.61,-185.32 710.07,-186.97 702.91,-179.16 699.61,-185.32"/>
</a>
</g>
</g>
<!-- Node18 -->
<g id="Node000018" class="node">
<title>Node18</title>
<g id="a_Node000018"><a xlink:href="classAsyncFw_1_1SystemProcess.html#acf60a585a89304fdb3580e9add06d155" target="_top" xlink:title="Constructs a new SystemProcess manager.">
<polygon fill="white" stroke="#666666" points="632.12,-107 499.12,-107 499.12,-75 632.12,-75 632.12,-107"/>
<text text-anchor="start" x="507.12" y="-93.5" font-family="Helvetica,sans-Serif" font-size="10.00">AsyncFw::SystemProcess</text>
<text text-anchor="middle" x="565.62" y="-81.5" font-family="Helvetica,sans-Serif" font-size="10.00">::SystemProcess</text>
</a>
</g>
</g>
<!-- Node2&#45;&gt;Node18 -->
<g id="edge18_Node000002_Node000018" class="edge">
<title>Node2&#45;&gt;Node18</title>
<g id="a_edge18_Node000002_Node000018"><a xlink:title=" ">
<path fill="none" stroke="#63b8ff" d="M717.47,-179.42C698.45,-159.92 669.63,-133.17 640,-116 634.53,-112.83 628.59,-109.98 622.54,-107.44"/>
<polygon fill="#63b8ff" stroke="#63b8ff" points="714.76,-181.65 724.2,-186.46 719.82,-176.81 714.76,-181.65"/>
</a>
</g>
</g>
<!-- Node19 -->
<g id="Node000019" class="node">
<title>Node19</title>
<g id="a_Node000019"><a xlink:href="classAsyncFw_1_1AbstractThread_1_1Holder.html#a795fc5bb1d23123fc892b8d414c56083" target="_top" xlink:title="Runs nested exec() and wait for it completed.">
<polygon fill="white" stroke="#666666" points="630.62,-57 500.62,-57 500.62,-25 630.62,-25 630.62,-57"/>
<text text-anchor="start" x="508.62" y="-43.5" font-family="Helvetica,sans-Serif" font-size="10.00">AsyncFw::AbstractThread</text>
<text text-anchor="middle" x="565.62" y="-31.5" font-family="Helvetica,sans-Serif" font-size="10.00">::Holder::wait</text>
</a>
</g>
</g>
<!-- Node2&#45;&gt;Node19 -->
<g id="edge19_Node000002_Node000019" class="edge">
<title>Node2&#45;&gt;Node19</title>
<g id="a_edge19_Node000002_Node000019"><a xlink:title=" ">
<path fill="none" stroke="#63b8ff" d="M727.41,-177.84C711.27,-146.91 680.45,-95.87 640,-66 635.56,-62.72 630.66,-59.85 625.56,-57.35"/>
<polygon fill="#63b8ff" stroke="#63b8ff" points="724.17,-179.19 731.82,-186.52 730.42,-176.02 724.17,-179.19"/>
</a>
</g>
</g>
<!-- Node5 -->
<g id="Node000005" class="node">
<title>Node5</title>
<g id="a_Node000005"><a xlink:href="classAsyncFw_1_1AbstractSocket.html#a73a200f0008dbf9f820bdb2b8a0054cf" target="_top" xlink:title="Schedules the socket for deferred asynchronous destruction.">
<polygon fill="white" stroke="#666666" points="446.25,-377 315.5,-377 315.5,-345 446.25,-345 446.25,-377"/>
<text text-anchor="start" x="323.5" y="-363.5" font-family="Helvetica,sans-Serif" font-size="10.00">AsyncFw::AbstractSocket</text>
<text text-anchor="middle" x="380.88" y="-351.5" font-family="Helvetica,sans-Serif" font-size="10.00">::destroy</text>
</a>
</g>
</g>
<!-- Node4&#45;&gt;Node5 -->
<g id="edge5_Node000004_Node000005" class="edge">
<title>Node4&#45;&gt;Node5</title>
<g id="a_edge5_Node000004_Node000005"><a xlink:title=" ">
<path fill="none" stroke="#63b8ff" d="M503.13,-335.79C484.92,-339.57 464.94,-343.73 446.54,-347.55"/>
<polygon fill="#63b8ff" stroke="#63b8ff" points="503.64,-339.25 512.72,-333.79 502.22,-332.4 503.64,-339.25"/>
</a>
</g>
</g>
<!-- Node7 -->
<g id="Node000007" class="node">
<title>Node7</title>
<g id="a_Node000007"><a xlink:href="classAsyncFw_1_1Rrd.html#a2fd20dd3470a11ef179577c565c333f1" target="_top" xlink:title="Constructs a persistent circular archive database bounded by a specific array size,...">
<polygon fill="white" stroke="#666666" points="431.25,-308 330.5,-308 330.5,-288 431.25,-288 431.25,-308"/>
<text text-anchor="middle" x="380.88" y="-294.5" font-family="Helvetica,sans-Serif" font-size="10.00">AsyncFw::Rrd::Rrd</text>
</a>
</g>
</g>
<!-- Node4&#45;&gt;Node7 -->
<g id="edge7_Node000004_Node000007" class="edge">
<title>Node4&#45;&gt;Node7</title>
<g id="a_edge7_Node000004_Node000007"><a xlink:title=" ">
<path fill="none" stroke="#63b8ff" d="M489.39,-312.71C469.92,-310.04 449.45,-307.24 431.65,-304.81"/>
<polygon fill="#63b8ff" stroke="#63b8ff" points="488.83,-316.16 499.21,-314.05 489.78,-309.23 488.83,-316.16"/>
</a>
</g>
</g>
<!-- Node6 -->
<g id="Node000006" class="node">
<title>Node6</title>
<g id="a_Node000006"><a xlink:href="classAsyncFw_1_1HttpSocket.html#a8268467d3581a4d393e9ccd288de32ff" target="_top" xlink:title="Schedules the socket for deferred asynchronous destruction.">
<polygon fill="white" stroke="#666666" points="270.5,-396 157.75,-396 157.75,-364 270.5,-364 270.5,-396"/>
<text text-anchor="start" x="165.75" y="-382.5" font-family="Helvetica,sans-Serif" font-size="10.00">AsyncFw::HttpSocket</text>
<text text-anchor="middle" x="214.12" y="-370.5" font-family="Helvetica,sans-Serif" font-size="10.00">::destroy</text>
</a>
</g>
</g>
<!-- Node5&#45;&gt;Node6 -->
<g id="edge6_Node000005_Node000006" class="edge">
<title>Node5&#45;&gt;Node6</title>
<g id="a_edge6_Node000005_Node000006"><a xlink:title=" ">
<path fill="none" stroke="#63b8ff" d="M304.1,-369.74C292.87,-371.03 281.49,-372.35 270.77,-373.58"/>
<polygon fill="#63b8ff" stroke="#63b8ff" points="304.2,-373.25 313.73,-368.63 303.4,-366.3 304.2,-373.25"/>
</a>
</g>
</g>
<!-- Node8 -->
<g id="Node000008" class="node">
<title>Node8</title>
<g id="a_Node000008"><a xlink:href="classAsyncFw_1_1Log.html#a832d13f4e9231eee37d8decb5b9b96d7" target="_top" xlink:title="Constructs a persistent log system with a specific circular database size and file name context.">
<polygon fill="white" stroke="#666666" points="264.5,-346 163.75,-346 163.75,-326 264.5,-326 264.5,-346"/>
<text text-anchor="middle" x="214.12" y="-332.5" font-family="Helvetica,sans-Serif" font-size="10.00">AsyncFw::Log::Log</text>
</a>
</g>
</g>
<!-- Node7&#45;&gt;Node8 -->
<g id="edge8_Node000007_Node000008" class="edge">
<title>Node7&#45;&gt;Node8</title>
<g id="a_edge8_Node000007_Node000008"><a xlink:title=" ">
<path fill="none" stroke="#63b8ff" d="M323.3,-311.05C302.77,-315.78 279.86,-321.07 260.43,-325.55"/>
<polygon fill="#63b8ff" stroke="#63b8ff" points="323.99,-314.48 332.95,-308.82 322.41,-307.66 323.99,-314.48"/>
</a>
</g>
</g>
<!-- Node10 -->
<g id="Node000010" class="node">
<title>Node10</title>
<g id="a_Node000010"><a xlink:href="classAsyncFw_1_1Rrd.html#aa54ae298c96e9efe88b644931b12f734" target="_top" xlink:title="Constructs an in&#45;memory anonymous circular database with a default tracking interval.">
<polygon fill="white" stroke="#666666" points="264.5,-308 163.75,-308 163.75,-288 264.5,-288 264.5,-308"/>
<text text-anchor="middle" x="214.12" y="-294.5" font-family="Helvetica,sans-Serif" font-size="10.00">AsyncFw::Rrd::Rrd</text>
</a>
</g>
</g>
<!-- Node7&#45;&gt;Node10 -->
<g id="edge10_Node000007_Node000010" class="edge">
<title>Node7&#45;&gt;Node10</title>
<g id="a_edge10_Node000007_Node000010"><a xlink:title=" ">
<path fill="none" stroke="#63b8ff" d="M318.97,-298C301.13,-298 281.85,-298 264.81,-298"/>
<polygon fill="#63b8ff" stroke="#63b8ff" points="318.93,-301.5 328.93,-298 318.93,-294.5 318.93,-301.5"/>
</a>
</g>
</g>
<!-- Node11 -->
<g id="Node000011" class="node">
<title>Node11</title>
<g id="a_Node000011"><a xlink:href="classAsyncFw_1_1Rrd.html#aaea6a63444ab427f801be34f26d930d5" target="_top" xlink:title="Constructs a persistent circular archive database with a default tracking interval.">
<polygon fill="white" stroke="#666666" points="264.5,-270 163.75,-270 163.75,-250 264.5,-250 264.5,-270"/>
<text text-anchor="middle" x="214.12" y="-256.5" font-family="Helvetica,sans-Serif" font-size="10.00">AsyncFw::Rrd::Rrd</text>
</a>
</g>
</g>
<!-- Node7&#45;&gt;Node11 -->
<g id="edge11_Node000007_Node000011" class="edge">
<title>Node7&#45;&gt;Node11</title>
<g id="a_edge11_Node000007_Node000011"><a xlink:title=" ">
<path fill="none" stroke="#63b8ff" d="M323.3,-284.95C302.77,-280.22 279.86,-274.93 260.43,-270.45"/>
<polygon fill="#63b8ff" stroke="#63b8ff" points="322.41,-288.34 332.95,-287.18 323.99,-281.52 322.41,-288.34"/>
</a>
</g>
</g>
<!-- Node12 -->
<g id="Node000012" class="node">
<title>Node12</title>
<g id="a_Node000012"><a xlink:href="classAsyncFw_1_1Rrd.html#a98c7829cc6177c80245cf95095deb3ba" target="_top" xlink:title="Constructs an in&#45;memory anonymous circular database with a specific collection interval.">
<polygon fill="white" stroke="#666666" points="264.5,-232 163.75,-232 163.75,-212 264.5,-212 264.5,-232"/>
<text text-anchor="middle" x="214.12" y="-218.5" font-family="Helvetica,sans-Serif" font-size="10.00">AsyncFw::Rrd::Rrd</text>
</a>
</g>
</g>
<!-- Node7&#45;&gt;Node12 -->
<g id="edge12_Node000007_Node000012" class="edge">
<title>Node7&#45;&gt;Node12</title>
<g id="a_edge12_Node000007_Node000012"><a xlink:title=" ">
<path fill="none" stroke="#63b8ff" d="M352.22,-282.11C330.43,-269.96 299.08,-253.27 270.5,-241 263.4,-237.95 255.64,-235.04 248.23,-232.45"/>
<polygon fill="#63b8ff" stroke="#63b8ff" points="350.34,-285.07 360.77,-286.93 353.77,-278.97 350.34,-285.07"/>
</a>
</g>
</g>
<!-- Node9 -->
<g id="Node000009" class="node">
<title>Node9</title>
<g id="a_Node000009"><a xlink:href="classAsyncFw_1_1Log.html#a00e9a20e7303e9a24403046af176b6b2" target="_top" xlink:title="Global service locator shortcut to fetch the current engine&#45;wide default log pointer.">
<polygon fill="white" stroke="#666666" points="121.75,-346 0,-346 0,-326 121.75,-326 121.75,-346"/>
<text text-anchor="middle" x="60.88" y="-332.5" font-family="Helvetica,sans-Serif" font-size="10.00">AsyncFw::Log::instance</text>
</a>
</g>
</g>
<!-- Node8&#45;&gt;Node9 -->
<g id="edge9_Node000008_Node000009" class="edge">
<title>Node8&#45;&gt;Node9</title>
<g id="a_edge9_Node000008_Node000009"><a xlink:title=" ">
<path fill="none" stroke="#63b8ff" d="M152.16,-336C142.24,-336 131.97,-336 122.07,-336"/>
<polygon fill="#63b8ff" stroke="#63b8ff" points="152.09,-339.5 162.09,-336 152.09,-332.5 152.09,-339.5"/>
</a>
</g>
</g>
<!-- Node14 -->
<g id="Node000014" class="node">
<title>Node14</title>
<g id="a_Node000014"><a xlink:href="classAsyncFw_1_1FileSystemWatcher.html#a16b4210d215a3b340c98f650d2071114" target="_top" xlink:title="Retrieves the global instance pointer of the active FileSystemWatcher.">
<polygon fill="white" stroke="#666666" points="455.25,-245 306.5,-245 306.5,-213 455.25,-213 455.25,-245"/>
<text text-anchor="start" x="314.5" y="-231.5" font-family="Helvetica,sans-Serif" font-size="10.00">AsyncFw::FileSystemWatcher</text>
<text text-anchor="middle" x="380.88" y="-219.5" font-family="Helvetica,sans-Serif" font-size="10.00">::instance</text>
</a>
</g>
</g>
<!-- Node13&#45;&gt;Node14 -->
<g id="edge14_Node000013_Node000014" class="edge">
<title>Node13&#45;&gt;Node14</title>
<g id="a_edge14_Node000013_Node000014"><a xlink:title=" ">
<path fill="none" stroke="#63b8ff" d="M479.31,-229C471.41,-229 463.44,-229 455.66,-229"/>
<polygon fill="#63b8ff" stroke="#63b8ff" points="479.31,-232.5 489.31,-229 479.31,-225.5 479.31,-232.5"/>
</a>
</g>
</g>
<!-- Node16 -->
<g id="Node000016" class="node">
<title>Node16</title>
<g id="a_Node000016"><a xlink:href="classAsyncFw_1_1MulticastDns.html#a61341fa78536e7a787bbbce75116ef3e" target="_top" xlink:title="Returns the global default instance pointer.">
<polygon fill="white" stroke="#666666" points="441.38,-195 320.38,-195 320.38,-163 441.38,-163 441.38,-195"/>
<text text-anchor="start" x="328.38" y="-181.5" font-family="Helvetica,sans-Serif" font-size="10.00">AsyncFw::MulticastDns</text>
<text text-anchor="middle" x="380.88" y="-169.5" font-family="Helvetica,sans-Serif" font-size="10.00">::instance</text>
</a>
</g>
</g>
<!-- Node15&#45;&gt;Node16 -->
<g id="edge16_Node000015_Node000016" class="edge">
<title>Node15&#45;&gt;Node16</title>
<g id="a_edge16_Node000015_Node000016"><a xlink:title=" ">
<path fill="none" stroke="#63b8ff" d="M493.7,-179C476.57,-179 458.42,-179 441.85,-179"/>
<polygon fill="#63b8ff" stroke="#63b8ff" points="493.27,-182.5 503.27,-179 493.27,-175.5 493.27,-182.5"/>
</a>
</g>
</g>
<!-- Node20 -->
<g id="Node000020" class="node">
<title>Node20</title>
<g id="a_Node000020"><a xlink:href="structAsyncFw_1_1CoroutineTask.html#a820a0a3410c4a14a71ad3599f46c1bb0" target="_top" xlink:title="Runs nested Thread::exec() and wait for task finished.">
<polygon fill="white" stroke="#666666" points="444,-82 317.75,-82 317.75,-50 444,-50 444,-82"/>
<text text-anchor="start" x="325.75" y="-68.5" font-family="Helvetica,sans-Serif" font-size="10.00">AsyncFw::CoroutineTask</text>
<text text-anchor="middle" x="380.88" y="-56.5" font-family="Helvetica,sans-Serif" font-size="10.00">::wait</text>
</a>
</g>
</g>
<!-- Node19&#45;&gt;Node20 -->
<g id="edge20_Node000019_Node000020" class="edge">
<title>Node19&#45;&gt;Node20</title>
<g id="a_edge20_Node000019_Node000020"><a xlink:title=" ">
<path fill="none" stroke="#63b8ff" d="M489.01,-51.34C474.2,-53.37 458.82,-55.47 444.5,-57.43"/>
<polygon fill="#63b8ff" stroke="#63b8ff" points="489.26,-54.84 498.69,-50.02 488.31,-47.91 489.26,-54.84"/>
</a>
</g>
</g>
<!-- Node21 -->
<g id="Node000021" class="node">
<title>Node21</title>
<g id="a_Node000021"><a xlink:href="classAsyncFw_1_1SystemProcess.html#a98555529994f67d993e103999604f1ed" target="_top" xlink:title="Blocks current execution frame until process finishes. Spins a nested Event Loop, allowing other thre...">
<polygon fill="white" stroke="#666666" points="447.38,-32 314.38,-32 314.38,0 447.38,0 447.38,-32"/>
<text text-anchor="start" x="322.38" y="-18.5" font-family="Helvetica,sans-Serif" font-size="10.00">AsyncFw::SystemProcess</text>
<text text-anchor="middle" x="380.88" y="-6.5" font-family="Helvetica,sans-Serif" font-size="10.00">::wait</text>
</a>
</g>
</g>
<!-- Node19&#45;&gt;Node21 -->
<g id="edge21_Node000019_Node000021" class="edge">
<title>Node19&#45;&gt;Node21</title>
<g id="a_edge21_Node000019_Node000021"><a xlink:title=" ">
<path fill="none" stroke="#63b8ff" d="M488.83,-30.63C475.13,-28.76 460.95,-26.82 447.58,-24.99"/>
<polygon fill="#63b8ff" stroke="#63b8ff" points="488.31,-34.09 498.69,-31.98 489.26,-27.16 488.31,-34.09"/>
</a>
</g>
</g>
<!-- Node22&#45;&gt;Node4 -->
<g id="edge23_Node000022_Node000004" class="edge">
<title>Node22&#45;&gt;Node4</title>
<g id="a_edge23_Node000022_Node000004"><a xlink:title=" ">
<path fill="none" stroke="#63b8ff" d="M681.06,-297.92C659.3,-302.69 634.94,-308.03 614.3,-312.55"/>
<polygon fill="#63b8ff" stroke="#63b8ff" points="681.67,-301.37 690.69,-295.81 680.17,-294.53 681.67,-301.37"/>
</a>
</g>
</g>
<!-- Node22&#45;&gt;Node22 -->
<g id="edge24_Node000022_Node000022" class="edge">
<title>Node22&#45;&gt;Node22</title>
<g id="a_edge24_Node000022_Node000022"><a xlink:title=" ">
<path fill="none" stroke="#63b8ff" d="M770.34,-306.44C766.56,-310.3 756.78,-313 741,-313 712.14,-313 703.35,-303.98 714.62,-295.34"/>
<polygon fill="#63b8ff" stroke="#63b8ff" points="773.73,-305.56 767.77,-296.8 766.96,-307.37 773.73,-305.56"/>
</a>
</g>
</g>
</g>
</svg>
