<?xml version="1.0" encoding="UTF-8" standalone="no"?>
<!DOCTYPE svg PUBLIC "-//W3C//DTD SVG 1.1//EN"
 "http://www.w3.org/Graphics/SVG/1.1/DTD/svg11.dtd">
<!-- Generated by graphviz version 12.2.1 (20241206.2353)
 -->
<!-- Title: AsyncFw::Timer::single Pages: 1 -->
<svg width="460pt" height="116pt"
 viewBox="0.00 0.00 460.25 116.00" xmlns="http://www.w3.org/2000/svg" xmlns:xlink="http://www.w3.org/1999/xlink">
<g id="graph0" class="graph" transform="scale(1 1) rotate(0) translate(4 112)">
<title>AsyncFw::Timer::single</title>
<!-- Node1 -->
<g id="Node000001" class="node">
<title>Node1</title>
<g id="a_Node000001"><a xlink:title="Starts a single shot timer with the specified timeout.">
<polygon fill="#999999" stroke="#666666" points="452.25,-70 332.75,-70 332.75,-50 452.25,-50 452.25,-70"/>
<text text-anchor="middle" x="392.5" y="-56.5" font-family="Helvetica,sans-Serif" font-size="10.00">AsyncFw::Timer::single</text>
</a>
</g>
</g>
<!-- Node2 -->
<g id="Node000002" class="node">
<title>Node2</title>
<g id="a_Node000002"><a xlink:href="group__coroutine__api.html#ga37b3a970310b55e69ed1cb7aa9ab3646" target="_top" xlink:title="Non&#45;blocking coroutine sleep for the specified timeout interval.">
<polygon fill="white" stroke="#666666" points="290.75,-108 181.75,-108 181.75,-88 290.75,-88 290.75,-108"/>
<text text-anchor="middle" x="236.25" y="-94.5" font-family="Helvetica,sans-Serif" font-size="10.00">AsyncFw::coTimeout</text>
</a>
</g>
</g>
<!-- Node1&#45;&gt;Node2 -->
<g id="edge1_Node000001_Node000002" class="edge">
<title>Node1&#45;&gt;Node2</title>
<g id="a_edge1_Node000001_Node000002"><a xlink:title=" ">
<path fill="none" stroke="#63b8ff" d="M337.99,-73.18C318.91,-77.88 297.69,-83.11 279.67,-87.55"/>
<polygon fill="#63b8ff" stroke="#63b8ff" points="338.6,-76.64 347.47,-70.85 336.93,-69.84 338.6,-76.64"/>
</a>
</g>
</g>
<!-- Node3 -->
<g id="Node000003" class="node">
<title>Node3</title>
<g id="a_Node000003"><a xlink:href="classAsyncFw_1_1Timer.html#a14d02d88bd3682afd7c8fd72cc670e46" target="_top" xlink:title="Starts or restarts a timer with the specified timeout. If the timer is already running,...">
<polygon fill="white" stroke="#666666" points="293,-70 179.5,-70 179.5,-50 293,-50 293,-70"/>
<text text-anchor="middle" x="236.25" y="-56.5" font-family="Helvetica,sans-Serif" font-size="10.00">AsyncFw::Timer::start</text>
</a>
</g>
</g>
<!-- Node1&#45;&gt;Node3 -->
<g id="edge2_Node000001_Node000003" class="edge">
<title>Node1&#45;&gt;Node3</title>
<g id="a_edge2_Node000001_Node000003"><a xlink:title=" ">
<path fill="none" stroke="#63b8ff" d="M320.81,-60C311.65,-60 302.38,-60 293.5,-60"/>
<polygon fill="#63b8ff" stroke="#63b8ff" points="320.79,-63.5 330.79,-60 320.79,-56.5 320.79,-63.5"/>
</a>
</g>
</g>
<!-- Node5 -->
<g id="Node000005" class="node">
<title>Node5</title>
<g id="a_Node000005"><a xlink:href="classAsyncFw_1_1MulticastDns.html#a010507720899efd7b653d3e33bc64f0a" target="_top" xlink:title="Registers and publishes a new local service to the network loop.">
<polygon fill="white" stroke="#666666" points="296.75,-32 175.75,-32 175.75,0 296.75,0 296.75,-32"/>
<text text-anchor="start" x="183.75" y="-18.5" font-family="Helvetica,sans-Serif" font-size="10.00">AsyncFw::MulticastDns</text>
<text text-anchor="middle" x="236.25" y="-6.5" font-family="Helvetica,sans-Serif" font-size="10.00">::startService</text>
</a>
</g>
</g>
<!-- Node1&#45;&gt;Node5 -->
<g id="edge4_Node000001_Node000005" class="edge">
<title>Node1&#45;&gt;Node5</title>
<g id="a_edge4_Node000001_Node000005"><a xlink:title=" ">
<path fill="none" stroke="#63b8ff" d="M344.03,-46.46C328.52,-42.04 311.13,-37.07 294.95,-32.46"/>
<polygon fill="#63b8ff" stroke="#63b8ff" points="342.91,-49.78 353.49,-49.16 344.83,-43.05 342.91,-49.78"/>
</a>
</g>
</g>
<!-- Node4 -->
<g id="Node000004" class="node">
<title>Node4</title>
<g id="a_Node000004"><a xlink:href="classAsyncFw_1_1Timer.html#aad1874fc8c5f41c278e4e4de81609e54" target="_top" xlink:title="Asynchronously waits for the specified timeout interval.">
<polygon fill="white" stroke="#666666" points="139.75,-70 0,-70 0,-50 139.75,-50 139.75,-70"/>
<text text-anchor="middle" x="69.88" y="-56.5" font-family="Helvetica,sans-Serif" font-size="10.00">AsyncFw::Timer::coTimeout</text>
</a>
</g>
</g>
<!-- Node3&#45;&gt;Node4 -->
<g id="edge3_Node000003_Node000004" class="edge">
<title>Node3&#45;&gt;Node4</title>
<g id="a_edge3_Node000003_Node000004"><a xlink:title=" ">
<path fill="none" stroke="#63b8ff" d="M167.75,-60C158.63,-60 149.26,-60 140.11,-60"/>
<polygon fill="#63b8ff" stroke="#63b8ff" points="167.63,-63.5 177.63,-60 167.63,-56.5 167.63,-63.5"/>
</a>
</g>
</g>
</g>
</svg>
