<?xml version="1.0" encoding="UTF-8" standalone="no"?>
<!DOCTYPE svg PUBLIC "-//W3C//DTD SVG 1.1//EN"
 "http://www.w3.org/Graphics/SVG/1.1/DTD/svg11.dtd">
<!-- Generated by graphviz version 12.2.1 (20241206.2353)
 -->
<!-- Title: AsyncFw::Log Pages: 1 -->
<svg width="1057pt" height="159pt"
 viewBox="0.00 0.00 1056.75 159.00" xmlns="http://www.w3.org/2000/svg" xmlns:xlink="http://www.w3.org/1999/xlink">
<g id="graph0" class="graph" transform="scale(1 1) rotate(0) translate(4 155)">
<title>AsyncFw::Log</title>
<!-- Node1 -->
<g id="Node000001" class="node">
<title>Node1</title>
<g id="a_Node000001"><a xlink:title="The Log class.">
<polygon fill="#999999" stroke="#666666" points="1048.75,-79 969.75,-79 969.75,-59 1048.75,-59 1048.75,-79"/>
<text text-anchor="middle" x="1009.25" y="-65.5" font-family="Helvetica,sans-Serif" font-size="10.00">AsyncFw::Log</text>
</a>
</g>
</g>
<!-- Node2 -->
<g id="Node000002" class="node">
<title>Node2</title>
<g id="a_Node000002"><a xlink:href="classAsyncFw_1_1Rrd.html" target="_top" xlink:title="The Rrd class.">
<polygon fill="white" stroke="#666666" points="914.38,-105 835.38,-105 835.38,-85 914.38,-85 914.38,-105"/>
<text text-anchor="middle" x="874.88" y="-91.5" font-family="Helvetica,sans-Serif" font-size="10.00">AsyncFw::Rrd</text>
</a>
</g>
</g>
<!-- Node2&#45;&gt;Node1 -->
<g id="edge1_Node000001_Node000002" class="edge">
<title>Node2&#45;&gt;Node1</title>
<g id="a_edge1_Node000001_Node000002"><a xlink:title=" ">
<path fill="none" stroke="#63b8ff" d="M925.78,-85.2C940.19,-82.37 955.69,-79.32 969.33,-76.64"/>
<polygon fill="#63b8ff" stroke="#63b8ff" points="925.14,-81.76 916,-87.12 926.49,-88.63 925.14,-81.76"/>
</a>
</g>
</g>
<!-- Node3 -->
<g id="Node000003" class="node">
<title>Node3</title>
<g id="a_Node000003"><a xlink:href="classAsyncFw_1_1FunctionConnectorProtected.html" target="_top" xlink:title=" ">
<polygon fill="white" stroke="#666666" points="595.5,-117 449.75,-117 449.75,-85 595.5,-85 595.5,-117"/>
<text text-anchor="start" x="457.75" y="-103.5" font-family="Helvetica,sans-Serif" font-size="10.00">AsyncFw::FunctionConnector</text>
<text text-anchor="middle" x="522.62" y="-91.5" font-family="Helvetica,sans-Serif" font-size="10.00">Protected&lt; AsyncFw::Rrd &gt;</text>
</a>
</g>
</g>
<!-- Node3&#45;&gt;Node2 -->
<g id="edge2_Node000002_Node000003" class="edge">
<title>Node3&#45;&gt;Node2</title>
<g id="a_edge2_Node000002_Node000003"><a xlink:title=" ">
<path fill="none" stroke="#9a32cd" stroke-dasharray="5,2" d="M607.09,-99.57C679.2,-98.33 780.2,-96.6 834.92,-95.67"/>
<polygon fill="#9a32cd" stroke="#9a32cd" points="607.22,-96.07 597.29,-99.74 607.34,-103.07 607.22,-96.07"/>
</a>
</g>
<text text-anchor="middle" x="675.12" y="-101.87" font-family="Helvetica,sans-Serif" font-size="10.00" fill="grey"> updated</text>
</g>
<!-- Node4 -->
<g id="Node000004" class="node">
<title>Node4</title>
<g id="a_Node000004"><a xlink:href="classAsyncFw_1_1FunctionConnectorProtected.html" target="_top" xlink:title="Защищенный коннетор, отправитель может быть только один. &#160;&#160;Обеспечивает соединение отправитель &#45;&gt; пол...">
<polygon fill="white" stroke="#666666" points="145.75,-76 0,-76 0,-44 145.75,-44 145.75,-76"/>
<text text-anchor="start" x="8" y="-62.5" font-family="Helvetica,sans-Serif" font-size="10.00">AsyncFw::FunctionConnector</text>
<text text-anchor="middle" x="72.88" y="-50.5" font-family="Helvetica,sans-Serif" font-size="10.00">Protected&lt; F &gt;</text>
</a>
</g>
</g>
<!-- Node4&#45;&gt;Node3 -->
<g id="edge3_Node000003_Node000004" class="edge">
<title>Node4&#45;&gt;Node3</title>
<g id="a_edge3_Node000003_Node000004"><a xlink:title=" ">
<path fill="none" stroke="orange" stroke-dasharray="5,2" d="M157.38,-69.49C194.65,-73.59 239.13,-78.28 279.25,-82 336.41,-87.3 401.24,-92.33 449.46,-95.88"/>
<polygon fill="orange" stroke="orange" points="157.89,-66.03 147.56,-68.41 157.12,-72.98 157.89,-66.03"/>
</a>
</g>
<text text-anchor="middle" x="212.5" y="-82.61" font-family="Helvetica,sans-Serif" font-size="10.00" fill="grey"> &lt; AsyncFw::Rrd &gt;</text>
</g>
<!-- Node7 -->
<g id="Node000007" class="node">
<title>Node7</title>
<g id="a_Node000007"><a xlink:href="classAsyncFw_1_1FunctionConnectorProtected.html" target="_top" xlink:title=" ">
<polygon fill="white" stroke="#666666" points="431.75,-32 279.25,-32 279.25,0 431.75,0 431.75,-32"/>
<text text-anchor="start" x="287.25" y="-18.5" font-family="Helvetica,sans-Serif" font-size="10.00">AsyncFw::FunctionConnector</text>
<text text-anchor="middle" x="355.5" y="-6.5" font-family="Helvetica,sans-Serif" font-size="10.00">Protected&lt; AsyncFw::Thread &gt;</text>
</a>
</g>
</g>
<!-- Node4&#45;&gt;Node7 -->
<g id="edge7_Node000007_Node000004" class="edge">
<title>Node4&#45;&gt;Node7</title>
<g id="a_edge7_Node000007_Node000004"><a xlink:title=" ">
<path fill="none" stroke="orange" stroke-dasharray="5,2" d="M157.36,-46.91C195.97,-40.86 241.48,-33.72 279.05,-27.83"/>
<polygon fill="orange" stroke="orange" points="156.98,-43.43 147.64,-48.43 158.06,-50.34 156.98,-43.43"/>
</a>
</g>
<text text-anchor="middle" x="212.5" y="-48.27" font-family="Helvetica,sans-Serif" font-size="10.00" fill="grey"> &lt; AsyncFw::Thread &gt;</text>
</g>
<!-- Node5 -->
<g id="Node000005" class="node">
<title>Node5</title>
<g id="a_Node000005"><a xlink:href="classAsyncFw_1_1Thread.html" target="_top" xlink:title="AsyncFw::Thread thread with sockets.">
<polygon fill="white" stroke="#666666" points="721.75,-57 628.5,-57 628.5,-37 721.75,-37 721.75,-57"/>
<text text-anchor="middle" x="675.12" y="-43.5" font-family="Helvetica,sans-Serif" font-size="10.00">AsyncFw::Thread</text>
</a>
</g>
</g>
<!-- Node5&#45;&gt;Node2 -->
<g id="edge4_Node000002_Node000005" class="edge">
<title>Node5&#45;&gt;Node2</title>
<g id="a_edge4_Node000002_Node000005"><a xlink:title=" ">
<path fill="none" stroke="#9a32cd" stroke-dasharray="5,2" d="M733.23,-59.55C753.98,-64.23 777.59,-69.7 799,-75 811.02,-77.97 824.07,-81.39 835.85,-84.55"/>
<polygon fill="#9a32cd" stroke="#9a32cd" points="734.03,-56.14 723.5,-57.37 732.49,-62.97 734.03,-56.14"/>
</a>
</g>
<text text-anchor="middle" x="776.88" y="-77.5" font-family="Helvetica,sans-Serif" font-size="10.00" fill="grey"> thread_</text>
</g>
<!-- Node9 -->
<g id="Node000009" class="node">
<title>Node9</title>
<g id="a_Node000009"><a xlink:href="classAsyncFw_1_1AbstractLog.html" target="_top" xlink:title="The AbstractLog class provides the base functionality for logger.">
<polygon fill="white" stroke="#666666" points="932.75,-61 817,-61 817,-41 932.75,-41 932.75,-61"/>
<text text-anchor="middle" x="874.88" y="-47.5" font-family="Helvetica,sans-Serif" font-size="10.00">AsyncFw::AbstractLog</text>
</a>
</g>
</g>
<!-- Node5&#45;&gt;Node9 -->
<g id="edge10_Node000009_Node000005" class="edge">
<title>Node5&#45;&gt;Node9</title>
<g id="a_edge10_Node000009_Node000005"><a xlink:title=" ">
<path fill="none" stroke="#9a32cd" stroke-dasharray="5,2" d="M733.7,-40.63C754.31,-39.17 777.7,-38.44 799,-40 804.77,-40.42 810.76,-41.02 816.74,-41.73"/>
<polygon fill="#9a32cd" stroke="#9a32cd" points="733.44,-37.14 723.75,-41.42 734,-44.12 733.44,-37.14"/>
</a>
</g>
<text text-anchor="middle" x="776.88" y="-42.5" font-family="Helvetica,sans-Serif" font-size="10.00" fill="grey"> thread_</text>
</g>
<!-- Node6 -->
<g id="Node000006" class="node">
<title>Node6</title>
<g id="a_Node000006"><a xlink:href="classAsyncFw_1_1AbstractThread.html" target="_top" xlink:title="The AbstractThread class provides the base functionality for thread management.">
<polygon fill="white" stroke="#666666" points="420.5,-73 290.5,-73 290.5,-53 420.5,-53 420.5,-73"/>
<text text-anchor="middle" x="355.5" y="-59.5" font-family="Helvetica,sans-Serif" font-size="10.00">AsyncFw::AbstractThread</text>
</a>
</g>
</g>
<!-- Node6&#45;&gt;Node5 -->
<g id="edge5_Node000005_Node000006" class="edge">
<title>Node6&#45;&gt;Node5</title>
<g id="a_edge5_Node000005_Node000006"><a xlink:title=" ">
<path fill="none" stroke="#63b8ff" d="M431.9,-59.2C493,-56.12 577.1,-51.89 628.43,-49.3"/>
<polygon fill="#63b8ff" stroke="#63b8ff" points="432.1,-55.69 422.29,-59.69 432.45,-62.68 432.1,-55.69"/>
</a>
</g>
</g>
<!-- Node7&#45;&gt;Node5 -->
<g id="edge6_Node000005_Node000007" class="edge">
<title>Node7&#45;&gt;Node5</title>
<g id="a_edge6_Node000005_Node000007"><a xlink:title=" ">
<path fill="none" stroke="#9a32cd" stroke-dasharray="5,2" d="M443.57,-4.47C489.29,-0.84 545.97,-0.2 595.5,-11 617.94,-15.89 641.64,-27.8 657.08,-36.58"/>
<polygon fill="#9a32cd" stroke="#9a32cd" points="443.36,-0.98 433.7,-5.32 443.96,-7.95 443.36,-0.98"/>
</a>
</g>
<text text-anchor="middle" x="522.62" y="-37.5" font-family="Helvetica,sans-Serif" font-size="10.00" fill="grey"> destroing</text>
<text text-anchor="middle" x="522.62" y="-25.5" font-family="Helvetica,sans-Serif" font-size="10.00" fill="grey">finished</text>
<text text-anchor="middle" x="522.62" y="-13.5" font-family="Helvetica,sans-Serif" font-size="10.00" fill="grey">started</text>
</g>
<!-- Node8 -->
<g id="Node000008" class="node">
<title>Node8</title>
<g id="a_Node000008"><a xlink:href="classAsyncFw_1_1DataArrayList.html" target="_top" xlink:title="The DataArrayList class.">
<polygon fill="white" stroke="#666666" points="736.75,-151 613.5,-151 613.5,-131 736.75,-131 736.75,-151"/>
<text text-anchor="middle" x="675.12" y="-137.5" font-family="Helvetica,sans-Serif" font-size="10.00">AsyncFw::DataArrayList</text>
</a>
</g>
</g>
<!-- Node8&#45;&gt;Node2 -->
<g id="edge8_Node000002_Node000008" class="edge">
<title>Node8&#45;&gt;Node2</title>
<g id="a_edge8_Node000002_Node000008"><a xlink:title=" ">
<path fill="none" stroke="#9a32cd" stroke-dasharray="5,2" d="M739.6,-128.23C758.74,-124.2 779.77,-119.6 799,-115 811.17,-112.09 824.38,-108.65 836.27,-105.46"/>
<polygon fill="#9a32cd" stroke="#9a32cd" points="739.13,-124.75 730.06,-130.22 740.56,-131.61 739.13,-124.75"/>
</a>
</g>
<text text-anchor="middle" x="776.88" y="-127.41" font-family="Helvetica,sans-Serif" font-size="10.00" fill="grey"> dataBase</text>
</g>
<!-- Node9&#45;&gt;Node1 -->
<g id="edge9_Node000001_Node000009" class="edge">
<title>Node9&#45;&gt;Node1</title>
<g id="a_edge9_Node000001_Node000009"><a xlink:title=" ">
<path fill="none" stroke="#63b8ff" d="M944.47,-60.33C953.09,-61.5 961.65,-62.66 969.57,-63.74"/>
<polygon fill="#63b8ff" stroke="#63b8ff" points="945.05,-56.87 934.67,-58.99 944.1,-63.81 945.05,-56.87"/>
</a>
</g>
</g>
</g>
</svg>
