<?xml version="1.0" encoding="UTF-8" standalone="no"?>
<!DOCTYPE svg PUBLIC "-//W3C//DTD SVG 1.1//EN"
 "http://www.w3.org/Graphics/SVG/1.1/DTD/svg11.dtd">
<!-- Generated by graphviz version 12.2.1 (20241206.2353)
 -->
<!-- Title: AsyncFw::FunctionConnectorProtected&lt; F &gt; Pages: 1 -->
<svg width="535pt" height="561pt"
 viewBox="0.00 0.00 535.00 561.46" xmlns="http://www.w3.org/2000/svg" xmlns:xlink="http://www.w3.org/1999/xlink">
<g id="graph0" class="graph" transform="scale(1 1) rotate(0) translate(4 557.46)">
<title>AsyncFw::FunctionConnectorProtected&lt; F &gt;</title>
<!-- Node1 -->
<g id="Node000001" class="node">
<title>Node1</title>
<g id="a_Node000001"><a xlink:title="Защищенный коннетор, отправитель может быть только один.">
<polygon fill="#999999" stroke="#666666" points="145.75,-282 0,-282 0,-250 145.75,-250 145.75,-282"/>
<text text-anchor="start" x="8" y="-268.5" font-family="Helvetica,sans-Serif" font-size="10.00">AsyncFw::FunctionConnector</text>
<text text-anchor="middle" x="72.88" y="-256.5" font-family="Helvetica,sans-Serif" font-size="10.00">Protected&lt; F &gt;</text>
</a>
</g>
</g>
<!-- Node2 -->
<g id="Node000002" class="node">
<title>Node2</title>
<g id="a_Node000002"><a xlink:href="classAsyncFw_1_1FunctionConnectorProtected.html" target="_top" xlink:title=" ">
<polygon fill="white" stroke="#666666" points="518.38,-544 343.38,-544 343.38,-512 518.38,-512 518.38,-544"/>
<text text-anchor="start" x="351.38" y="-530.5" font-family="Helvetica,sans-Serif" font-size="10.00">AsyncFw::FunctionConnector</text>
<text text-anchor="middle" x="430.88" y="-518.5" font-family="Helvetica,sans-Serif" font-size="10.00">Protected&lt; AsyncFw::AddressInfo &gt;</text>
</a>
</g>
</g>
<!-- Node1&#45;&gt;Node2 -->
<g id="edge1_Node000001_Node000002" class="edge">
<title>Node1&#45;&gt;Node2</title>
<g id="a_edge1_Node000001_Node000002"><a xlink:title=" ">
<path fill="none" stroke="orange" stroke-dasharray="5,2" d="M75.54,-293.63C80.19,-343.79 97.72,-449.34 163.75,-500 214.06,-538.6 286.38,-544 342.94,-540.63"/>
<polygon fill="orange" stroke="orange" points="79.05,-293.6 74.76,-283.92 72.08,-294.17 79.05,-293.6"/>
</a>
</g>
<text text-anchor="middle" x="240.25" y="-543.96" font-family="Helvetica,sans-Serif" font-size="10.00" fill="grey"> &lt; AsyncFw::AddressInfo &gt;</text>
</g>
<!-- Node3 -->
<g id="Node000003" class="node">
<title>Node3</title>
<g id="a_Node000003"><a xlink:href="classAsyncFw_1_1FunctionConnectorProtected.html" target="_top" xlink:title=" ">
<polygon fill="white" stroke="#666666" points="516.88,-494 344.88,-494 344.88,-462 516.88,-462 516.88,-494"/>
<text text-anchor="start" x="352.88" y="-480.5" font-family="Helvetica,sans-Serif" font-size="10.00">AsyncFw::FunctionConnector</text>
<text text-anchor="middle" x="430.88" y="-468.5" font-family="Helvetica,sans-Serif" font-size="10.00">Protected&lt; DataArrayAbstractTcp &gt;</text>
</a>
</g>
</g>
<!-- Node1&#45;&gt;Node3 -->
<g id="edge2_Node000001_Node000003" class="edge">
<title>Node1&#45;&gt;Node3</title>
<g id="a_edge2_Node000001_Node000003"><a xlink:title=" ">
<path fill="none" stroke="orange" stroke-dasharray="5,2" d="M79.76,-293.6C89.73,-333.01 113.9,-404.57 163.75,-440 215.87,-477.04 288.42,-485.32 344.61,-485.01"/>
<polygon fill="orange" stroke="orange" points="83.19,-292.86 77.47,-283.95 76.38,-294.48 83.19,-292.86"/>
</a>
</g>
<text text-anchor="middle" x="240.25" y="-486.75" font-family="Helvetica,sans-Serif" font-size="10.00" fill="grey"> &lt; DataArrayAbstractTcp &gt;</text>
</g>
<!-- Node4 -->
<g id="Node000004" class="node">
<title>Node4</title>
<g id="a_Node000004"><a xlink:href="classAsyncFw_1_1FunctionConnectorProtected.html" target="_top" xlink:title=" ">
<polygon fill="white" stroke="#666666" points="506.38,-444 355.38,-444 355.38,-412 506.38,-412 506.38,-444"/>
<text text-anchor="start" x="363.38" y="-430.5" font-family="Helvetica,sans-Serif" font-size="10.00">AsyncFw::FunctionConnector</text>
<text text-anchor="middle" x="430.88" y="-418.5" font-family="Helvetica,sans-Serif" font-size="10.00">Protected&lt; DataArraySocket &gt;</text>
</a>
</g>
</g>
<!-- Node1&#45;&gt;Node4 -->
<g id="edge3_Node000001_Node000004" class="edge">
<title>Node1&#45;&gt;Node4</title>
<g id="a_edge3_Node000001_Node000004"><a xlink:title=" ">
<path fill="none" stroke="orange" stroke-dasharray="5,2" d="M87.64,-292.37C102.71,-318.46 129.36,-357.38 163.75,-378 221.81,-412.81 298.75,-424.28 354.97,-427.65"/>
<polygon fill="orange" stroke="orange" points="90.75,-290.76 82.82,-283.73 84.63,-294.17 90.75,-290.76"/>
</a>
</g>
<text text-anchor="middle" x="240.25" y="-426.64" font-family="Helvetica,sans-Serif" font-size="10.00" fill="grey"> &lt; DataArraySocket &gt;</text>
</g>
<!-- Node5 -->
<g id="Node000005" class="node">
<title>Node5</title>
<g id="a_Node000005"><a xlink:href="classAsyncFw_1_1FunctionConnectorProtected.html" target="_top" xlink:title=" ">
<polygon fill="white" stroke="#666666" points="511.25,-394 350.5,-394 350.5,-362 511.25,-362 511.25,-394"/>
<text text-anchor="start" x="358.5" y="-380.5" font-family="Helvetica,sans-Serif" font-size="10.00">AsyncFw::FunctionConnector</text>
<text text-anchor="middle" x="430.88" y="-368.5" font-family="Helvetica,sans-Serif" font-size="10.00">Protected&lt; DataArrayTcpClient &gt;</text>
</a>
</g>
</g>
<!-- Node1&#45;&gt;Node5 -->
<g id="edge4_Node000001_Node000005" class="edge">
<title>Node1&#45;&gt;Node5</title>
<g id="a_edge4_Node000001_Node000005"><a xlink:title=" ">
<path fill="none" stroke="orange" stroke-dasharray="5,2" d="M104.92,-288.61C121.63,-299.83 143.02,-312.72 163.75,-321 223.97,-345.06 296.12,-359.7 350.09,-368.11"/>
<polygon fill="orange" stroke="orange" points="107.13,-285.89 96.91,-283.11 103.16,-291.66 107.13,-285.89"/>
</a>
</g>
<text text-anchor="middle" x="240.25" y="-364.24" font-family="Helvetica,sans-Serif" font-size="10.00" fill="grey"> &lt; DataArrayTcpClient &gt;</text>
</g>
<!-- Node6 -->
<g id="Node000006" class="node">
<title>Node6</title>
<g id="a_Node000006"><a xlink:href="classAsyncFw_1_1FunctionConnectorProtected.html" target="_top" xlink:title=" ">
<polygon fill="white" stroke="#666666" points="512.38,-344 349.38,-344 349.38,-300 512.38,-300 512.38,-344"/>
<text text-anchor="start" x="357.38" y="-330.5" font-family="Helvetica,sans-Serif" font-size="10.00">AsyncFw::FunctionConnector</text>
<text text-anchor="start" x="357.38" y="-318.5" font-family="Helvetica,sans-Serif" font-size="10.00">Protected&lt; AsyncFw::FileSystem</text>
<text text-anchor="middle" x="430.88" y="-306.5" font-family="Helvetica,sans-Serif" font-size="10.00">Watcher &gt;</text>
</a>
</g>
</g>
<!-- Node1&#45;&gt;Node6 -->
<g id="edge5_Node000001_Node000006" class="edge">
<title>Node1&#45;&gt;Node6</title>
<g id="a_edge5_Node000001_Node000006"><a xlink:title=" ">
<path fill="none" stroke="orange" stroke-dasharray="5,2" d="M157.16,-280.91C159.38,-281.28 161.58,-281.64 163.75,-282 225.88,-292.2 296.33,-302.74 349.14,-310.44"/>
<polygon fill="orange" stroke="orange" points="157.89,-277.48 147.45,-279.26 156.72,-284.38 157.89,-277.48"/>
</a>
</g>
<text text-anchor="middle" x="240.25" y="-307.95" font-family="Helvetica,sans-Serif" font-size="10.00" fill="grey"> &lt; AsyncFw::FileSystemWatcher &gt;</text>
</g>
<!-- Node7 -->
<g id="Node000007" class="node">
<title>Node7</title>
<g id="a_Node000007"><a xlink:href="classAsyncFw_1_1FunctionConnectorProtected.html" target="_top" xlink:title=" ">
<polygon fill="white" stroke="#666666" points="516.88,-282 344.88,-282 344.88,-250 516.88,-250 516.88,-282"/>
<text text-anchor="start" x="352.88" y="-268.5" font-family="Helvetica,sans-Serif" font-size="10.00">AsyncFw::FunctionConnector</text>
<text text-anchor="middle" x="430.88" y="-256.5" font-family="Helvetica,sans-Serif" font-size="10.00">Protected&lt; AsyncFw::HttpSocket &gt;</text>
</a>
</g>
</g>
<!-- Node1&#45;&gt;Node7 -->
<g id="edge6_Node000001_Node000007" class="edge">
<title>Node1&#45;&gt;Node7</title>
<g id="a_edge6_Node000001_Node000007"><a xlink:title=" ">
<path fill="none" stroke="orange" stroke-dasharray="5,2" d="M157.29,-266C213.61,-266 287.73,-266 344.46,-266"/>
<polygon fill="orange" stroke="orange" points="157.43,-262.5 147.43,-266 157.43,-269.5 157.43,-262.5"/>
</a>
</g>
<text text-anchor="middle" x="240.25" y="-268.5" font-family="Helvetica,sans-Serif" font-size="10.00" fill="grey"> &lt; AsyncFw::HttpSocket &gt;</text>
</g>
<!-- Node8 -->
<g id="Node000008" class="node">
<title>Node8</title>
<g id="a_Node000008"><a xlink:href="classAsyncFw_1_1FunctionConnectorProtected.html" target="_top" xlink:title=" ">
<polygon fill="white" stroke="#666666" points="520.62,-232 341.12,-232 341.12,-200 520.62,-200 520.62,-232"/>
<text text-anchor="start" x="349.12" y="-218.5" font-family="Helvetica,sans-Serif" font-size="10.00">AsyncFw::FunctionConnector</text>
<text text-anchor="middle" x="430.88" y="-206.5" font-family="Helvetica,sans-Serif" font-size="10.00">Protected&lt; AsyncFw::ListenSocket &gt;</text>
</a>
</g>
</g>
<!-- Node1&#45;&gt;Node8 -->
<g id="edge7_Node000001_Node000008" class="edge">
<title>Node1&#45;&gt;Node8</title>
<g id="a_edge7_Node000001_Node000008"><a xlink:title=" ">
<path fill="none" stroke="orange" stroke-dasharray="5,2" d="M157.15,-251.03C159.37,-250.68 161.58,-250.33 163.75,-250 222.57,-241.01 288.96,-232.53 340.71,-226.28"/>
<polygon fill="orange" stroke="orange" points="156.74,-247.55 147.43,-252.61 157.86,-254.46 156.74,-247.55"/>
</a>
</g>
<text text-anchor="middle" x="240.25" y="-252.5" font-family="Helvetica,sans-Serif" font-size="10.00" fill="grey"> &lt; AsyncFw::ListenSocket &gt;</text>
</g>
<!-- Node9 -->
<g id="Node000009" class="node">
<title>Node9</title>
<g id="a_Node000009"><a xlink:href="classAsyncFw_1_1FunctionConnectorProtected.html" target="_top" xlink:title=" ">
<polygon fill="white" stroke="#666666" points="516.12,-182 345.62,-182 345.62,-150 516.12,-150 516.12,-182"/>
<text text-anchor="start" x="353.62" y="-168.5" font-family="Helvetica,sans-Serif" font-size="10.00">AsyncFw::FunctionConnector</text>
<text text-anchor="middle" x="430.88" y="-156.5" font-family="Helvetica,sans-Serif" font-size="10.00">Protected&lt; AsyncFw::PollNotifier &gt;</text>
</a>
</g>
</g>
<!-- Node1&#45;&gt;Node9 -->
<g id="edge8_Node000001_Node000009" class="edge">
<title>Node1&#45;&gt;Node9</title>
<g id="a_edge8_Node000001_Node000009"><a xlink:title=" ">
<path fill="none" stroke="orange" stroke-dasharray="5,2" d="M105.6,-243.5C122.21,-232.72 143.3,-220.55 163.75,-213 222.28,-191.38 291.83,-179.54 345.14,-173.15"/>
<polygon fill="orange" stroke="orange" points="104.03,-240.34 97.64,-248.79 107.9,-246.17 104.03,-240.34"/>
</a>
</g>
<text text-anchor="middle" x="240.25" y="-215.5" font-family="Helvetica,sans-Serif" font-size="10.00" fill="grey"> &lt; AsyncFw::PollNotifier &gt;</text>
</g>
<!-- Node10 -->
<g id="Node000010" class="node">
<title>Node10</title>
<g id="a_Node000010"><a xlink:href="classAsyncFw_1_1FunctionConnectorProtected.html" target="_top" xlink:title=" ">
<polygon fill="white" stroke="#666666" points="503.75,-132 358,-132 358,-100 503.75,-100 503.75,-132"/>
<text text-anchor="start" x="366" y="-118.5" font-family="Helvetica,sans-Serif" font-size="10.00">AsyncFw::FunctionConnector</text>
<text text-anchor="middle" x="430.88" y="-106.5" font-family="Helvetica,sans-Serif" font-size="10.00">Protected&lt; AsyncFw::Rrd &gt;</text>
</a>
</g>
</g>
<!-- Node1&#45;&gt;Node10 -->
<g id="edge9_Node000001_Node000010" class="edge">
<title>Node1&#45;&gt;Node10</title>
<g id="a_edge9_Node000001_Node000010"><a xlink:title=" ">
<path fill="none" stroke="orange" stroke-dasharray="5,2" d="M88.69,-240.01C104.13,-215.47 130.68,-179.72 163.75,-161 223.28,-127.29 301.47,-117.4 357.67,-115.12"/>
<polygon fill="orange" stroke="orange" points="85.75,-238.1 83.55,-248.46 91.74,-241.73 85.75,-238.1"/>
</a>
</g>
<text text-anchor="middle" x="240.25" y="-163.5" font-family="Helvetica,sans-Serif" font-size="10.00" fill="grey"> &lt; AsyncFw::Rrd &gt;</text>
</g>
<!-- Node11 -->
<g id="Node000011" class="node">
<title>Node11</title>
<g id="a_Node000011"><a xlink:href="classAsyncFw_1_1FunctionConnectorProtected.html" target="_top" xlink:title=" ">
<polygon fill="white" stroke="#666666" points="527,-82 334.75,-82 334.75,-50 527,-50 527,-82"/>
<text text-anchor="start" x="342.75" y="-68.5" font-family="Helvetica,sans-Serif" font-size="10.00">AsyncFw::FunctionConnector</text>
<text text-anchor="middle" x="430.88" y="-56.5" font-family="Helvetica,sans-Serif" font-size="10.00">Protected&lt; AsyncFw::SystemProcess &gt;</text>
</a>
</g>
</g>
<!-- Node1&#45;&gt;Node11 -->
<g id="edge10_Node000001_Node000011" class="edge">
<title>Node1&#45;&gt;Node11</title>
<g id="a_edge10_Node000001_Node000011"><a xlink:title=" ">
<path fill="none" stroke="orange" stroke-dasharray="5,2" d="M80.6,-238.57C91.34,-201.05 116.18,-134.68 163.75,-102 213.13,-68.07 279.99,-59.14 334.34,-58.65"/>
<polygon fill="orange" stroke="orange" points="77.23,-237.63 77.99,-248.19 83.98,-239.46 77.23,-237.63"/>
</a>
</g>
<text text-anchor="middle" x="240.25" y="-104.5" font-family="Helvetica,sans-Serif" font-size="10.00" fill="grey"> &lt; AsyncFw::SystemProcess &gt;</text>
</g>
<!-- Node12 -->
<g id="Node000012" class="node">
<title>Node12</title>
<g id="a_Node000012"><a xlink:href="classAsyncFw_1_1FunctionConnectorProtected.html" target="_top" xlink:title=" ">
<polygon fill="white" stroke="#666666" points="504.5,-32 357.25,-32 357.25,0 504.5,0 504.5,-32"/>
<text text-anchor="start" x="365.25" y="-18.5" font-family="Helvetica,sans-Serif" font-size="10.00">AsyncFw::FunctionConnector</text>
<text text-anchor="middle" x="430.88" y="-6.5" font-family="Helvetica,sans-Serif" font-size="10.00">Protected&lt; AsyncFw::Timer &gt;</text>
</a>
</g>
</g>
<!-- Node1&#45;&gt;Node12 -->
<g id="edge11_Node000001_Node000012" class="edge">
<title>Node1&#45;&gt;Node12</title>
<g id="a_edge11_Node000001_Node000012"><a xlink:title=" ">
<path fill="none" stroke="orange" stroke-dasharray="5,2" d="M76.12,-238.3C81.65,-189.88 100.51,-90.52 163.75,-43 218.6,-1.78 298.79,0.85 356.79,-4.29"/>
<polygon fill="orange" stroke="orange" points="72.64,-237.91 75.11,-248.21 79.6,-238.61 72.64,-237.91"/>
</a>
</g>
<text text-anchor="middle" x="240.25" y="-45.5" font-family="Helvetica,sans-Serif" font-size="10.00" fill="grey"> &lt; AsyncFw::Timer &gt;</text>
</g>
</g>
</svg>
