<?xml version="1.0" encoding="UTF-8" standalone="no"?>
<!DOCTYPE svg PUBLIC "-//W3C//DTD SVG 1.1//EN"
 "http://www.w3.org/Graphics/SVG/1.1/DTD/svg11.dtd">
<!-- Generated by graphviz version 12.2.1 (20241206.2353)
 -->
<!-- Title: AsyncFw::ListenSocket Pages: 1 -->
<svg width="859pt" height="116pt"
 viewBox="0.00 0.00 859.00 116.00" xmlns="http://www.w3.org/2000/svg" xmlns:xlink="http://www.w3.org/1999/xlink">
<g id="graph0" class="graph" transform="scale(1 1) rotate(0) translate(4 112)">
<title>AsyncFw::ListenSocket</title>
<!-- Node1 -->
<g id="Node000001" class="node">
<title>Node1</title>
<g id="a_Node000001"><a xlink:title="The ListenSocket class.">
<polygon fill="#999999" stroke="#666666" points="851,-47 730.75,-47 730.75,-27 851,-27 851,-47"/>
<text text-anchor="middle" x="790.88" y="-33.5" font-family="Helvetica,sans-Serif" font-size="10.00">AsyncFw::ListenSocket</text>
</a>
</g>
</g>
<!-- Node2 -->
<g id="Node000002" class="node">
<title>Node2</title>
<g id="a_Node000002"><a xlink:href="classAsyncFw_1_1AbstractSocket.html" target="_top" xlink:title="The AbstractSocket class provides the base functionality for socket.">
<polygon fill="white" stroke="#666666" points="628.38,-70 497.62,-70 497.62,-50 628.38,-50 628.38,-70"/>
<text text-anchor="middle" x="563" y="-56.5" font-family="Helvetica,sans-Serif" font-size="10.00">AsyncFw::AbstractSocket</text>
</a>
</g>
</g>
<!-- Node2&#45;&gt;Node1 -->
<g id="edge1_Node000001_Node000002" class="edge">
<title>Node2&#45;&gt;Node1</title>
<g id="a_edge1_Node000001_Node000002"><a xlink:title=" ">
<path fill="none" stroke="#63b8ff" d="M639.85,-52.28C669.42,-49.27 702.8,-45.87 730.55,-43.04"/>
<polygon fill="#63b8ff" stroke="#63b8ff" points="639.83,-48.76 630.23,-53.26 640.54,-55.72 639.83,-48.76"/>
</a>
</g>
</g>
<!-- Node3 -->
<g id="Node000003" class="node">
<title>Node3</title>
<g id="a_Node000003"><a xlink:href="structAsyncFw_1_1AnyData.html" target="_top" xlink:title="The AnyData class.">
<polygon fill="white" stroke="#666666" points="290.62,-108 189.12,-108 189.12,-88 290.62,-88 290.62,-108"/>
<text text-anchor="middle" x="239.88" y="-94.5" font-family="Helvetica,sans-Serif" font-size="10.00">AsyncFw::AnyData</text>
</a>
</g>
</g>
<!-- Node3&#45;&gt;Node2 -->
<g id="edge2_Node000002_Node000003" class="edge">
<title>Node3&#45;&gt;Node2</title>
<g id="a_edge2_Node000002_Node000003"><a xlink:title=" ">
<path fill="none" stroke="#63b8ff" d="M302.16,-92.47C345.08,-88.42 403.74,-82.5 455.25,-76 468.82,-74.29 483.33,-72.25 497.15,-70.21"/>
<polygon fill="#63b8ff" stroke="#63b8ff" points="301.9,-88.98 292.27,-93.4 302.55,-95.95 301.9,-88.98"/>
</a>
</g>
</g>
<!-- Node4 -->
<g id="Node000004" class="node">
<title>Node4</title>
<g id="a_Node000004"><a xlink:href="classAsyncFw_1_1Thread.html" target="_top" xlink:title="AsyncFw::Thread thread with sockets.">
<polygon fill="white" stroke="#666666" points="286.5,-70 193.25,-70 193.25,-50 286.5,-50 286.5,-70"/>
<text text-anchor="middle" x="239.88" y="-56.5" font-family="Helvetica,sans-Serif" font-size="10.00">AsyncFw::Thread</text>
</a>
</g>
</g>
<!-- Node4&#45;&gt;Node2 -->
<g id="edge3_Node000002_Node000004" class="edge">
<title>Node4&#45;&gt;Node2</title>
<g id="a_edge3_Node000002_Node000004"><a xlink:title=" ">
<path fill="none" stroke="#9a32cd" stroke-dasharray="5,2" d="M298.35,-60C354.22,-60 438.95,-60 497.19,-60"/>
<polygon fill="#9a32cd" stroke="#9a32cd" points="298.4,-56.5 288.4,-60 298.4,-63.5 298.4,-56.5"/>
</a>
</g>
<text text-anchor="middle" x="393" y="-62.5" font-family="Helvetica,sans-Serif" font-size="10.00" fill="grey"> thread_</text>
</g>
<!-- Node5 -->
<g id="Node000005" class="node">
<title>Node5</title>
<g id="a_Node000005"><a xlink:href="classAsyncFw_1_1AbstractThread.html" target="_top" xlink:title="The AbstractThread class provides the base functionality for thread management.">
<polygon fill="white" stroke="#666666" points="130,-70 0,-70 0,-50 130,-50 130,-70"/>
<text text-anchor="middle" x="65" y="-56.5" font-family="Helvetica,sans-Serif" font-size="10.00">AsyncFw::AbstractThread</text>
</a>
</g>
</g>
<!-- Node5&#45;&gt;Node4 -->
<g id="edge4_Node000004_Node000005" class="edge">
<title>Node5&#45;&gt;Node4</title>
<g id="a_edge4_Node000004_Node000005"><a xlink:title=" ">
<path fill="none" stroke="#63b8ff" d="M141.7,-60C159.1,-60 177.1,-60 192.8,-60"/>
<polygon fill="#63b8ff" stroke="#63b8ff" points="141.89,-56.5 131.89,-60 141.89,-63.5 141.89,-56.5"/>
</a>
</g>
</g>
<!-- Node6 -->
<g id="Node000006" class="node">
<title>Node6</title>
<g id="a_Node000006"><a xlink:href="classAsyncFw_1_1FunctionConnectorProtected.html" target="_top" xlink:title=" ">
<polygon fill="white" stroke="#666666" points="652.75,-32 473.25,-32 473.25,0 652.75,0 652.75,-32"/>
<text text-anchor="start" x="481.25" y="-18.5" font-family="Helvetica,sans-Serif" font-size="10.00">AsyncFw::FunctionConnector</text>
<text text-anchor="middle" x="563" y="-6.5" font-family="Helvetica,sans-Serif" font-size="10.00">Protected&lt; AsyncFw::ListenSocket &gt;</text>
</a>
</g>
</g>
<!-- Node6&#45;&gt;Node1 -->
<g id="edge5_Node000001_Node000006" class="edge">
<title>Node6&#45;&gt;Node1</title>
<g id="a_edge5_Node000001_Node000006"><a xlink:title=" ">
<path fill="none" stroke="#9a32cd" stroke-dasharray="5,2" d="M664.09,-24.52C680.36,-25.97 697.02,-27.5 712.75,-29 718.51,-29.55 724.51,-30.14 730.51,-30.74"/>
<polygon fill="#9a32cd" stroke="#9a32cd" points="664.68,-21.06 654.41,-23.67 664.06,-28.04 664.68,-21.06"/>
</a>
</g>
<text text-anchor="middle" x="691.75" y="-31.5" font-family="Helvetica,sans-Serif" font-size="10.00" fill="grey"> incoming</text>
</g>
<!-- Node7 -->
<g id="Node000007" class="node">
<title>Node7</title>
<g id="a_Node000007"><a xlink:href="classAsyncFw_1_1FunctionConnectorProtected.html" target="_top" xlink:title="Защищенный коннетор, отправитель может быть только один.">
<polygon fill="white" stroke="#666666" points="312.75,-32 167,-32 167,0 312.75,0 312.75,-32"/>
<text text-anchor="start" x="175" y="-18.5" font-family="Helvetica,sans-Serif" font-size="10.00">AsyncFw::FunctionConnector</text>
<text text-anchor="middle" x="239.88" y="-6.5" font-family="Helvetica,sans-Serif" font-size="10.00">Protected&lt; F &gt;</text>
</a>
</g>
</g>
<!-- Node7&#45;&gt;Node6 -->
<g id="edge6_Node000006_Node000007" class="edge">
<title>Node7&#45;&gt;Node6</title>
<g id="a_edge6_Node000006_Node000007"><a xlink:title=" ">
<path fill="none" stroke="orange" stroke-dasharray="5,2" d="M324.3,-16C369.94,-16 426.49,-16 472.98,-16"/>
<polygon fill="orange" stroke="orange" points="324.46,-12.5 314.46,-16 324.46,-19.5 324.46,-12.5"/>
</a>
</g>
<text text-anchor="middle" x="393" y="-18.5" font-family="Helvetica,sans-Serif" font-size="10.00" fill="grey"> &lt; AsyncFw::ListenSocket &gt;</text>
</g>
</g>
</svg>
