<?xml version="1.0" encoding="UTF-8" standalone="no"?>
<!DOCTYPE svg PUBLIC "-//W3C//DTD SVG 1.1//EN"
 "http://www.w3.org/Graphics/SVG/1.1/DTD/svg11.dtd">
<!-- Generated by graphviz version 14.1.3 (20260303.0454)
 -->
<!-- Title: AsyncFw::AbstractSocket::write_fd Pages: 1 -->
<svg width="486pt" height="140pt"
 viewBox="0.00 0.00 486.00 140.00" xmlns="http://www.w3.org/2000/svg" xmlns:xlink="http://www.w3.org/1999/xlink">
<g id="graph0" class="graph" transform="scale(1 1) rotate(0) translate(4 136)">
<title>AsyncFw::AbstractSocket::write_fd</title>
<!-- Node1 -->
<g id="Node000001" class="node">
<title>Node1</title>
<g id="a_Node000001"><a xlink:title="Low&#45;level native operating system write operation proxying requests directly up to the fd handle.">
<polygon fill="#999999" stroke="#666666" points="477.75,-82 347,-82 347,-50 477.75,-50 477.75,-82"/>
<text xml:space="preserve" text-anchor="start" x="355" y="-68.5" font-family="Helvetica,sans-Serif" font-size="10.00">AsyncFw::AbstractSocket</text>
<text xml:space="preserve" text-anchor="middle" x="412.38" y="-56.5" font-family="Helvetica,sans-Serif" font-size="10.00">::write_fd</text>
</a>
</g>
</g>
<!-- Node2 -->
<g id="Node000002" class="node">
<title>Node2</title>
<g id="a_Node000002"><a xlink:href="classAsyncFw_1_1AbstractTlsSocket.html#a57ac6daff9926cf631abcd1e19073cc8" target="_top" xlink:title="Core internal event handler reacting to raw descriptor readiness signals.">
<polygon fill="white" stroke="#666666" points="311,-132 166.75,-132 166.75,-100 311,-100 311,-132"/>
<text xml:space="preserve" text-anchor="start" x="174.75" y="-118.5" font-family="Helvetica,sans-Serif" font-size="10.00">AsyncFw::AbstractTlsSocket</text>
<text xml:space="preserve" text-anchor="middle" x="238.88" y="-106.5" font-family="Helvetica,sans-Serif" font-size="10.00">::activateEvent</text>
</a>
</g>
</g>
<!-- Node1&#45;&gt;Node2 -->
<g id="edge1_Node000001_Node000002" class="edge">
<title>Node1&#45;&gt;Node2</title>
<g id="a_edge1_Node000001_Node000002"><a xlink:title=" ">
<path fill="none" stroke="#63b8ff" d="M344.41,-85.52C328.55,-90.15 311.79,-95.03 296.45,-99.51"/>
<polygon fill="#63b8ff" stroke="#63b8ff" points="345.15,-88.95 353.77,-82.8 343.19,-82.23 345.15,-88.95"/>
</a>
</g>
</g>
<!-- Node4 -->
<g id="Node000004" class="node">
<title>Node4</title>
<g id="a_Node000004"><a xlink:href="classAsyncFw_1_1AbstractSocket.html#a6b5bfbc488d553dca8a2d01b6b415482" target="_top" xlink:title="Writes raw binary bytes out to the network socket layer.">
<polygon fill="white" stroke="#666666" points="304.25,-82 173.5,-82 173.5,-50 304.25,-50 304.25,-82"/>
<text xml:space="preserve" text-anchor="start" x="181.5" y="-68.5" font-family="Helvetica,sans-Serif" font-size="10.00">AsyncFw::AbstractSocket</text>
<text xml:space="preserve" text-anchor="middle" x="238.88" y="-56.5" font-family="Helvetica,sans-Serif" font-size="10.00">::write</text>
</a>
</g>
</g>
<!-- Node1&#45;&gt;Node4 -->
<g id="edge3_Node000001_Node000004" class="edge">
<title>Node1&#45;&gt;Node4</title>
<g id="a_edge3_Node000001_Node000004"><a xlink:title=" ">
<path fill="none" stroke="#63b8ff" d="M335.12,-59.29C324.9,-59.21 314.51,-59.26 304.52,-59.44"/>
<polygon fill="#63b8ff" stroke="#63b8ff" points="334.98,-62.79 345.02,-59.41 335.07,-55.79 334.98,-62.79"/>
</a>
</g>
</g>
<!-- Node7 -->
<g id="Node000007" class="node">
<title>Node7</title>
<g id="a_Node000007"><a xlink:href="classAsyncFw_1_1AbstractTlsSocket.html#a84a79c1f921e96efd6b4f47cd7cd91e0" target="_top" xlink:title="Low&#45;level encryption routing path proxying outgoing payload directly up to SSL_write().">
<polygon fill="white" stroke="#666666" points="311,-32 166.75,-32 166.75,0 311,0 311,-32"/>
<text xml:space="preserve" text-anchor="start" x="174.75" y="-18.5" font-family="Helvetica,sans-Serif" font-size="10.00">AsyncFw::AbstractTlsSocket</text>
<text xml:space="preserve" text-anchor="middle" x="238.88" y="-6.5" font-family="Helvetica,sans-Serif" font-size="10.00">::write_fd</text>
</a>
</g>
</g>
<!-- Node1&#45;&gt;Node7 -->
<g id="edge7_Node000001_Node000007" class="edge">
<title>Node1&#45;&gt;Node7</title>
<g id="a_edge7_Node000001_Node000007"><a xlink:title=" ">
<path fill="none" stroke="#63b8ff" d="M344.41,-46.48C328.55,-41.85 311.79,-36.97 296.45,-32.49"/>
<polygon fill="#63b8ff" stroke="#63b8ff" points="343.19,-49.77 353.77,-49.2 345.15,-43.05 343.19,-49.77"/>
</a>
</g>
</g>
<!-- Node3 -->
<g id="Node000003" class="node">
<title>Node3</title>
<g id="a_Node000003"><a xlink:href="classAsyncFw_1_1HttpSocket.html#ad51bb1bf5880c3037c7ad70231c0767d" target="_top" xlink:title="Core internal event handler reacting to raw descriptor readiness signals.">
<polygon fill="white" stroke="#666666" points="121.75,-132 9,-132 9,-100 121.75,-100 121.75,-132"/>
<text xml:space="preserve" text-anchor="start" x="17" y="-118.5" font-family="Helvetica,sans-Serif" font-size="10.00">AsyncFw::HttpSocket</text>
<text xml:space="preserve" text-anchor="middle" x="65.38" y="-106.5" font-family="Helvetica,sans-Serif" font-size="10.00">::activateEvent</text>
</a>
</g>
</g>
<!-- Node2&#45;&gt;Node3 -->
<g id="edge2_Node000002_Node000003" class="edge">
<title>Node2&#45;&gt;Node3</title>
<g id="a_edge2_Node000002_Node000003"><a xlink:title=" ">
<path fill="none" stroke="#63b8ff" d="M155.44,-116C144.19,-116 132.86,-116 122.24,-116"/>
<polygon fill="#63b8ff" stroke="#63b8ff" points="155.12,-119.5 165.12,-116 155.12,-112.5 155.12,-119.5"/>
</a>
</g>
</g>
<!-- Node4&#45;&gt;Node1 -->
<g id="edge5_Node000004_Node000001" class="edge">
<title>Node4&#45;&gt;Node1</title>
<g id="a_edge5_Node000004_Node000001"><a xlink:title=" ">
<path fill="none" stroke="#63b8ff" d="M315.94,-72.71C326.15,-72.79 336.55,-72.75 346.54,-72.57"/>
<polygon fill="#63b8ff" stroke="#63b8ff" points="316.08,-69.21 306.03,-72.58 315.99,-76.21 316.08,-69.21"/>
</a>
</g>
</g>
<!-- Node5 -->
<g id="Node000005" class="node">
<title>Node5</title>
<g id="a_Node000005"><a xlink:href="classAsyncFw_1_1AbstractSocket.html#a4ad7bcd91ec7a91270d83bf583d62be1" target="_top" xlink:title="Transmits a structural DataArray package out to the network layer.">
<polygon fill="white" stroke="#666666" points="130.75,-82 0,-82 0,-50 130.75,-50 130.75,-82"/>
<text xml:space="preserve" text-anchor="start" x="8" y="-68.5" font-family="Helvetica,sans-Serif" font-size="10.00">AsyncFw::AbstractSocket</text>
<text xml:space="preserve" text-anchor="middle" x="65.38" y="-56.5" font-family="Helvetica,sans-Serif" font-size="10.00">::write</text>
</a>
</g>
</g>
<!-- Node4&#45;&gt;Node5 -->
<g id="edge4_Node000004_Node000005" class="edge">
<title>Node4&#45;&gt;Node5</title>
<g id="a_edge4_Node000004_Node000005"><a xlink:title=" ">
<path fill="none" stroke="#63b8ff" d="M161.62,-66C151.4,-66 141.01,-66 131.02,-66"/>
<polygon fill="#63b8ff" stroke="#63b8ff" points="161.52,-69.5 171.52,-66 161.52,-62.5 161.52,-69.5"/>
</a>
</g>
</g>
<!-- Node6 -->
<g id="Node000006" class="node">
<title>Node6</title>
<g id="a_Node000006"><a xlink:href="classAsyncFw_1_1HttpSocket.html#ac276bcd3a5e86289eb37ea7fd062559b" target="_top" xlink:title="Called when writing to the socket is possible.">
<polygon fill="white" stroke="#666666" points="121.75,-32 9,-32 9,0 121.75,0 121.75,-32"/>
<text xml:space="preserve" text-anchor="start" x="17" y="-18.5" font-family="Helvetica,sans-Serif" font-size="10.00">AsyncFw::HttpSocket</text>
<text xml:space="preserve" text-anchor="middle" x="65.38" y="-6.5" font-family="Helvetica,sans-Serif" font-size="10.00">::writeEvent</text>
</a>
</g>
</g>
<!-- Node4&#45;&gt;Node6 -->
<g id="edge6_Node000004_Node000006" class="edge">
<title>Node4&#45;&gt;Node6</title>
<g id="a_edge6_Node000004_Node000006"><a xlink:title=" ">
<path fill="none" stroke="#63b8ff" d="M170.74,-46.43C154.63,-41.73 137.6,-36.76 122.07,-32.24"/>
<polygon fill="#63b8ff" stroke="#63b8ff" points="169.69,-49.77 180.27,-49.2 171.65,-43.05 169.69,-49.77"/>
</a>
</g>
</g>
</g>
</svg>
