<?xml version="1.0" encoding="UTF-8" standalone="no"?>
<!DOCTYPE svg PUBLIC "-//W3C//DTD SVG 1.1//EN"
 "http://www.w3.org/Graphics/SVG/1.1/DTD/svg11.dtd">
<!-- Generated by graphviz version 12.2.1 (20241206.2353)
 -->
<!-- Title: AsyncFw::Thread::Thread Pages: 1 -->
<svg width="469pt" height="52pt"
 viewBox="0.00 0.00 469.25 52.00" xmlns="http://www.w3.org/2000/svg" xmlns:xlink="http://www.w3.org/1999/xlink">
<g id="graph0" class="graph" transform="scale(1 1) rotate(0) translate(4 48)">
<title>AsyncFw::Thread::Thread</title>
<!-- Node1 -->
<g id="Node000001" class="node">
<title>Node1</title>
<g id="a_Node000001"><a xlink:title="Constructs a thread.">
<polygon fill="#999999" stroke="#666666" points="461.25,-26 332,-26 332,-6 461.25,-6 461.25,-26"/>
<text text-anchor="middle" x="396.62" y="-12.5" font-family="Helvetica,sans-Serif" font-size="10.00">AsyncFw::Thread::Thread</text>
</a>
</g>
</g>
<!-- Node1&#45;&gt;Node1 -->
<g id="edge3_Node000001_Node000001" class="edge">
<title>Node1&#45;&gt;Node1</title>
<g id="a_edge3_Node000001_Node000001"><a xlink:title=" ">
<path fill="none" stroke="#63b8ff" d="M425.83,-37.44C422.07,-41.3 412.33,-44 396.62,-44 367.9,-44 359.15,-34.98 370.37,-26.34"/>
<polygon fill="#63b8ff" stroke="#63b8ff" points="429.22,-36.57 423.27,-27.8 422.46,-38.36 429.22,-36.57"/>
</a>
</g>
</g>
<!-- Node2 -->
<g id="Node000002" class="node">
<title>Node2</title>
<g id="a_Node000002"><a xlink:href="classAsyncFw_1_1Thread.html#a0a3bd6a54db28f73ff59cfea6a40b07a" target="_top" xlink:title="Returns a pointer to the AsyncFw::Thread that manages the currently executing thread.">
<polygon fill="white" stroke="#666666" points="296,-26 166.75,-26 166.75,-6 296,-6 296,-26"/>
<text text-anchor="middle" x="231.38" y="-12.5" font-family="Helvetica,sans-Serif" font-size="10.00">AsyncFw::Thread::current</text>
</a>
</g>
</g>
<!-- Node1&#45;&gt;Node2 -->
<g id="edge1_Node000001_Node000002" class="edge">
<title>Node1&#45;&gt;Node2</title>
<g id="a_edge1_Node000001_Node000002"><a xlink:title=" ">
<path fill="none" stroke="#63b8ff" d="M320.29,-16C312.25,-16 304.13,-16 296.24,-16"/>
<polygon fill="#63b8ff" stroke="#63b8ff" points="320.06,-19.5 330.06,-16 320.06,-12.5 320.06,-19.5"/>
</a>
</g>
</g>
<!-- Node3 -->
<g id="Node000003" class="node">
<title>Node3</title>
<g id="a_Node000003"><a xlink:href="classAsyncFw_1_1AbstractSocket.html#a73a200f0008dbf9f820bdb2b8a0054cf" target="_top" xlink:title="Schedules the socket for deferred asynchronous destruction.">
<polygon fill="white" stroke="#666666" points="130.75,-32 0,-32 0,0 130.75,0 130.75,-32"/>
<text text-anchor="start" x="8" y="-18.5" font-family="Helvetica,sans-Serif" font-size="10.00">AsyncFw::AbstractSocket</text>
<text text-anchor="middle" x="65.38" y="-6.5" font-family="Helvetica,sans-Serif" font-size="10.00">::destroy</text>
</a>
</g>
</g>
<!-- Node2&#45;&gt;Node3 -->
<g id="edge2_Node000002_Node000003" class="edge">
<title>Node2&#45;&gt;Node3</title>
<g id="a_edge2_Node000002_Node000003"><a xlink:title=" ">
<path fill="none" stroke="#63b8ff" d="M155.23,-16C147.19,-16 139.06,-16 131.16,-16"/>
<polygon fill="#63b8ff" stroke="#63b8ff" points="154.99,-19.5 164.99,-16 154.99,-12.5 154.99,-19.5"/>
</a>
</g>
</g>
</g>
</svg>
