<?xml version="1.0" encoding="UTF-8" standalone="no"?>
<!DOCTYPE svg PUBLIC "-//W3C//DTD SVG 1.1//EN"
 "http://www.w3.org/Graphics/SVG/1.1/DTD/svg11.dtd">
<!-- Generated by graphviz version 12.2.1 (20241206.2353)
 -->
<!-- Title: AsyncFw::ListenSocket Pages: 1 -->
<svg width="1150pt" height="119pt"
 viewBox="0.00 0.00 1149.75 119.00" xmlns="http://www.w3.org/2000/svg" xmlns:xlink="http://www.w3.org/1999/xlink">
<g id="graph0" class="graph" transform="scale(1 1) rotate(0) translate(4 115)">
<title>AsyncFw::ListenSocket</title>
<!-- Node1 -->
<g id="Node000001" class="node">
<title>Node1</title>
<g id="a_Node000001"><a xlink:title="The ListenSocket class.">
<polygon fill="#999999" stroke="#666666" points="1141.75,-44 1021.5,-44 1021.5,-24 1141.75,-24 1141.75,-44"/>
<text text-anchor="middle" x="1081.62" y="-30.5" font-family="Helvetica,sans-Serif" font-size="10.00">AsyncFw::ListenSocket</text>
</a>
</g>
</g>
<!-- Node2 -->
<g id="Node000002" class="node">
<title>Node2</title>
<g id="a_Node000002"><a xlink:href="classAsyncFw_1_1AbstractSocket.html" target="_top" xlink:title="The AbstractSocket class provides the base functionality for socket.">
<polygon fill="white" stroke="#666666" points="984.5,-67 853.75,-67 853.75,-47 984.5,-47 984.5,-67"/>
<text text-anchor="middle" x="919.12" y="-53.5" font-family="Helvetica,sans-Serif" font-size="10.00">AsyncFw::AbstractSocket</text>
</a>
</g>
</g>
<!-- Node2&#45;&gt;Node1 -->
<g id="edge1_Node000001_Node000002" class="edge">
<title>Node2&#45;&gt;Node1</title>
<g id="a_edge1_Node000001_Node000002"><a xlink:title=" ">
<path fill="none" stroke="#8b1a1a" d="M996.22,-46.1C1004.55,-44.9 1012.93,-43.7 1021.01,-42.54"/>
<polygon fill="#8b1a1a" stroke="#8b1a1a" points="995.84,-42.61 986.44,-47.5 996.84,-49.54 995.84,-42.61"/>
</a>
</g>
</g>
<!-- Node3 -->
<g id="Node000003" class="node">
<title>Node3</title>
<g id="a_Node000003"><a xlink:href="structAsyncFw_1_1AnyData.html" target="_top" xlink:title="The AnyData class.">
<polygon fill="white" stroke="#666666" points="775.75,-105 674.25,-105 674.25,-85 775.75,-85 775.75,-105"/>
<text text-anchor="middle" x="725" y="-91.5" font-family="Helvetica,sans-Serif" font-size="10.00">AsyncFw::AnyData</text>
</a>
</g>
</g>
<!-- Node3&#45;&gt;Node2 -->
<g id="edge2_Node000002_Node000003" class="edge">
<title>Node3&#45;&gt;Node2</title>
<g id="a_edge2_Node000002_Node000003"><a xlink:title=" ">
<path fill="none" stroke="#63b8ff" d="M787.44,-82.85C812.46,-77.9 841.09,-72.24 865.17,-67.47"/>
<polygon fill="#63b8ff" stroke="#63b8ff" points="786.84,-79.4 777.71,-84.77 788.2,-86.27 786.84,-79.4"/>
</a>
</g>
</g>
<!-- Node4 -->
<g id="Node000004" class="node">
<title>Node4</title>
<g id="a_Node000004"><a xlink:href="classAsyncFw_1_1Thread.html" target="_top" xlink:title="AsyncFw::Thread thread with sockets.">
<polygon fill="white" stroke="#666666" points="771.62,-67 678.38,-67 678.38,-47 771.62,-47 771.62,-67"/>
<text text-anchor="middle" x="725" y="-53.5" font-family="Helvetica,sans-Serif" font-size="10.00">AsyncFw::Thread</text>
</a>
</g>
</g>
<!-- Node4&#45;&gt;Node2 -->
<g id="edge3_Node000002_Node000004" class="edge">
<title>Node4&#45;&gt;Node2</title>
<g id="a_edge3_Node000002_Node000004"><a xlink:title=" ">
<path fill="none" stroke="#9a32cd" stroke-dasharray="5,2" d="M783.26,-57C805.39,-57 830.82,-57 853.59,-57"/>
<polygon fill="#9a32cd" stroke="#9a32cd" points="783.53,-53.5 773.53,-57 783.53,-60.5 783.53,-53.5"/>
</a>
</g>
<text text-anchor="middle" x="814.75" y="-59.5" font-family="Helvetica,sans-Serif" font-size="10.00" fill="grey"> thread_</text>
</g>
<!-- Node5 -->
<g id="Node000005" class="node">
<title>Node5</title>
<g id="a_Node000005"><a xlink:href="classAsyncFw_1_1AbstractThread.html" target="_top" xlink:title="The AbstractThread class provides the base functionality for thread management.">
<polygon fill="white" stroke="#666666" points="447.5,-111 317.5,-111 317.5,-91 447.5,-91 447.5,-111"/>
<text text-anchor="middle" x="382.5" y="-97.5" font-family="Helvetica,sans-Serif" font-size="10.00">AsyncFw::AbstractThread</text>
</a>
</g>
</g>
<!-- Node5&#45;&gt;Node4 -->
<g id="edge4_Node000004_Node000005" class="edge">
<title>Node5&#45;&gt;Node4</title>
<g id="a_edge4_Node000004_Node000005"><a xlink:title=" ">
<path fill="none" stroke="#63b8ff" d="M459.26,-104.66C514.73,-105.4 591.33,-102.35 656.25,-85 664.89,-82.69 666.06,-79.6 674.25,-76 680.94,-73.06 688.23,-70.13 695.13,-67.47"/>
<polygon fill="#63b8ff" stroke="#63b8ff" points="459.33,-101.16 449.27,-104.47 459.21,-108.16 459.33,-101.16"/>
</a>
</g>
</g>
<!-- Node6 -->
<g id="Node000006" class="node">
<title>Node6</title>
<g id="a_Node000006"><a xlink:href="classAsyncFw_1_1FunctionConnectorProtected.html" target="_top" xlink:title=" ">
<polygon fill="white" stroke="#666666" points="458.75,-73 306.25,-73 306.25,-41 458.75,-41 458.75,-73"/>
<text text-anchor="start" x="314.25" y="-59.5" font-family="Helvetica,sans-Serif" font-size="10.00">AsyncFw::FunctionConnector</text>
<text text-anchor="middle" x="382.5" y="-47.5" font-family="Helvetica,sans-Serif" font-size="10.00">Protected&lt; AsyncFw::Thread &gt;</text>
</a>
</g>
</g>
<!-- Node6&#45;&gt;Node4 -->
<g id="edge5_Node000004_Node000006" class="edge">
<title>Node6&#45;&gt;Node4</title>
<g id="a_edge5_Node000004_Node000006"><a xlink:title=" ">
<path fill="none" stroke="#9a32cd" stroke-dasharray="5,2" d="M470.31,-57C536.42,-57 624.84,-57 677.93,-57"/>
<polygon fill="#9a32cd" stroke="#9a32cd" points="470.58,-53.5 460.58,-57 470.58,-60.5 470.58,-53.5"/>
</a>
</g>
<text text-anchor="middle" x="566.5" y="-71.5" font-family="Helvetica,sans-Serif" font-size="10.00" fill="grey"> finished</text>
<text text-anchor="middle" x="566.5" y="-59.5" font-family="Helvetica,sans-Serif" font-size="10.00" fill="grey">started</text>
</g>
<!-- Node7 -->
<g id="Node000007" class="node">
<title>Node7</title>
<g id="a_Node000007"><a xlink:href="classAsyncFw_1_1FunctionConnectorProtected.html" target="_top" xlink:title="Защищенный коннетор, отправитель может быть только один.">
<polygon fill="white" stroke="#666666" points="145.75,-46 0,-46 0,-14 145.75,-14 145.75,-46"/>
<text text-anchor="start" x="8" y="-32.5" font-family="Helvetica,sans-Serif" font-size="10.00">AsyncFw::FunctionConnector</text>
<text text-anchor="middle" x="72.88" y="-20.5" font-family="Helvetica,sans-Serif" font-size="10.00">Protected&lt; F &gt;</text>
</a>
</g>
</g>
<!-- Node7&#45;&gt;Node6 -->
<g id="edge6_Node000006_Node000007" class="edge">
<title>Node7&#45;&gt;Node6</title>
<g id="a_edge6_Node000006_Node000007"><a xlink:title=" ">
<path fill="none" stroke="orange" stroke-dasharray="5,2" d="M157.22,-37.32C203.55,-41.38 260.76,-46.4 305.81,-50.36"/>
<polygon fill="orange" stroke="orange" points="157.77,-33.85 147.51,-36.46 157.16,-40.82 157.77,-33.85"/>
</a>
</g>
<text text-anchor="middle" x="226" y="-50.77" font-family="Helvetica,sans-Serif" font-size="10.00" fill="grey"> &lt; AsyncFw::Thread &gt;</text>
</g>
<!-- Node8 -->
<g id="Node000008" class="node">
<title>Node8</title>
<g id="a_Node000008"><a xlink:href="classAsyncFw_1_1FunctionConnectorProtected.html" target="_top" xlink:title=" ">
<polygon fill="white" stroke="#666666" points="656.25,-32 476.75,-32 476.75,0 656.25,0 656.25,-32"/>
<text text-anchor="start" x="484.75" y="-18.5" font-family="Helvetica,sans-Serif" font-size="10.00">AsyncFw::FunctionConnector</text>
<text text-anchor="middle" x="566.5" y="-6.5" font-family="Helvetica,sans-Serif" font-size="10.00">Protected&lt; AsyncFw::ListenSocket &gt;</text>
</a>
</g>
</g>
<!-- Node7&#45;&gt;Node8 -->
<g id="edge8_Node000008_Node000007" class="edge">
<title>Node7&#45;&gt;Node8</title>
<g id="a_edge8_Node000008_Node000007"><a xlink:title=" ">
<path fill="none" stroke="orange" stroke-dasharray="5,2" d="M157.44,-22.35C159.56,-22.23 161.67,-22.11 163.75,-22 271.2,-16.42 395.02,-15.39 476.48,-15.45"/>
<polygon fill="orange" stroke="orange" points="157.21,-18.86 147.46,-23.01 157.67,-25.85 157.21,-18.86"/>
</a>
</g>
<text text-anchor="middle" x="226" y="-24.5" font-family="Helvetica,sans-Serif" font-size="10.00" fill="grey"> &lt; AsyncFw::ListenSocket &gt;</text>
</g>
<!-- Node8&#45;&gt;Node1 -->
<g id="edge7_Node000001_Node000008" class="edge">
<title>Node8&#45;&gt;Node1</title>
<g id="a_edge7_Node000001_Node000008"><a xlink:title=" ">
<path fill="none" stroke="#9a32cd" stroke-dasharray="5,2" d="M667.84,-19.52C772.92,-23.21 934.46,-28.87 1021,-31.91"/>
<polygon fill="#9a32cd" stroke="#9a32cd" points="668.22,-16.03 658.1,-19.18 667.97,-23.03 668.22,-16.03"/>
</a>
</g>
<text text-anchor="middle" x="814.75" y="-27.75" font-family="Helvetica,sans-Serif" font-size="10.00" fill="grey"> incoming</text>
</g>
</g>
</svg>
