<?xml version="1.0" encoding="UTF-8" standalone="no"?>
<!DOCTYPE svg PUBLIC "-//W3C//DTD SVG 1.1//EN"
 "http://www.w3.org/Graphics/SVG/1.1/DTD/svg11.dtd">
<!-- Generated by graphviz version 14.1.3 (20260303.0454)
 -->
<!-- Title: AsyncFw::AbstractSocket::stateEvent Pages: 1 -->
<svg width="822pt" height="188pt"
 viewBox="0.00 0.00 822.00 188.00" xmlns="http://www.w3.org/2000/svg" xmlns:xlink="http://www.w3.org/1999/xlink">
<g id="graph0" class="graph" transform="scale(1 1) rotate(0) translate(4 184)">
<title>AsyncFw::AbstractSocket::stateEvent</title>
<!-- Node1 -->
<g id="Node000001" class="node">
<title>Node1</title>
<g id="a_Node000001"><a xlink:title="Called when the connection state changes.">
<polygon fill="#999999" stroke="#666666" points="813.5,-119 682.75,-119 682.75,-87 813.5,-87 813.5,-119"/>
<text xml:space="preserve" text-anchor="start" x="690.75" y="-105.5" font-family="Helvetica,sans-Serif" font-size="10.00">AsyncFw::AbstractSocket</text>
<text xml:space="preserve" text-anchor="middle" x="748.12" y="-93.5" font-family="Helvetica,sans-Serif" font-size="10.00">::stateEvent</text>
</a>
</g>
</g>
<!-- Node2 -->
<g id="Node000002" class="node">
<title>Node2</title>
<g id="a_Node000002"><a xlink:href="classAsyncFw_1_1AbstractSocket.html#aac7ad6c4f9815d9b8b0817d38864d06d" target="_top" xlink:title="Called when established connection.">
<polygon fill="white" stroke="#666666" points="646.75,-172 516,-172 516,-140 646.75,-140 646.75,-172"/>
<text xml:space="preserve" text-anchor="start" x="524" y="-158.5" font-family="Helvetica,sans-Serif" font-size="10.00">AsyncFw::AbstractSocket</text>
<text xml:space="preserve" text-anchor="middle" x="581.38" y="-146.5" font-family="Helvetica,sans-Serif" font-size="10.00">::activateEvent</text>
</a>
</g>
</g>
<!-- Node1&#45;&gt;Node2 -->
<g id="edge1_Node000001_Node000002" class="edge">
<title>Node1&#45;&gt;Node2</title>
<g id="a_edge1_Node000001_Node000002"><a xlink:title=" ">
<path fill="none" stroke="#63b8ff" d="M684.97,-123C668.01,-128.45 649.84,-134.3 633.57,-139.53"/>
<polygon fill="#63b8ff" stroke="#63b8ff" points="686.01,-126.34 694.46,-119.94 683.87,-119.67 686.01,-126.34"/>
</a>
</g>
</g>
<!-- Node5 -->
<g id="Node000005" class="node">
<title>Node5</title>
<g id="a_Node000005"><a xlink:href="classAsyncFw_1_1AbstractSocket.html#a77c0a9ea7c5061c406673bbe8b18d60d" target="_top" xlink:title="Closes the network connection and unsubscribes from thread polling events.">
<polygon fill="white" stroke="#666666" points="646.75,-119 516,-119 516,-87 646.75,-87 646.75,-119"/>
<text xml:space="preserve" text-anchor="start" x="524" y="-105.5" font-family="Helvetica,sans-Serif" font-size="10.00">AsyncFw::AbstractSocket</text>
<text xml:space="preserve" text-anchor="middle" x="581.38" y="-93.5" font-family="Helvetica,sans-Serif" font-size="10.00">::close</text>
</a>
</g>
</g>
<!-- Node1&#45;&gt;Node5 -->
<g id="edge4_Node000001_Node000005" class="edge">
<title>Node1&#45;&gt;Node5</title>
<g id="a_edge4_Node000001_Node000005"><a xlink:title=" ">
<path fill="none" stroke="#63b8ff" d="M671.19,-103C663.14,-103 655.01,-103 647.1,-103"/>
<polygon fill="#63b8ff" stroke="#63b8ff" points="670.97,-106.5 680.97,-103 670.97,-99.5 670.97,-106.5"/>
</a>
</g>
</g>
<!-- Node11 -->
<g id="Node000011" class="node">
<title>Node11</title>
<g id="a_Node000011"><a xlink:href="classAsyncFw_1_1AbstractSocket.html#a426c3b10de20344079571d6708f096ca" target="_top" xlink:title="Listen for incoming connections on address and port.">
<polygon fill="white" stroke="#666666" points="646.75,-45 516,-45 516,-13 646.75,-13 646.75,-45"/>
<text xml:space="preserve" text-anchor="start" x="524" y="-31.5" font-family="Helvetica,sans-Serif" font-size="10.00">AsyncFw::AbstractSocket</text>
<text xml:space="preserve" text-anchor="middle" x="581.38" y="-19.5" font-family="Helvetica,sans-Serif" font-size="10.00">::listen</text>
</a>
</g>
</g>
<!-- Node1&#45;&gt;Node11 -->
<g id="edge12_Node000001_Node000011" class="edge">
<title>Node1&#45;&gt;Node11</title>
<g id="a_edge12_Node000001_Node000011"><a xlink:title=" ">
<path fill="none" stroke="#63b8ff" d="M700.25,-81.94C674.41,-70.34 642.81,-56.15 618.84,-45.38"/>
<polygon fill="#63b8ff" stroke="#63b8ff" points="698.62,-85.05 709.18,-85.96 701.49,-78.67 698.62,-85.05"/>
</a>
</g>
</g>
<!-- Node3 -->
<g id="Node000003" class="node">
<title>Node3</title>
<g id="a_Node000003"><a xlink:href="classAsyncFw_1_1AbstractTlsSocket.html#a57ac6daff9926cf631abcd1e19073cc8" target="_top" xlink:title="Called when established connection.">
<polygon fill="white" stroke="#666666" points="299.75,-180 155.5,-180 155.5,-148 299.75,-148 299.75,-180"/>
<text xml:space="preserve" text-anchor="start" x="163.5" y="-166.5" font-family="Helvetica,sans-Serif" font-size="10.00">AsyncFw::AbstractTlsSocket</text>
<text xml:space="preserve" text-anchor="middle" x="227.62" y="-154.5" font-family="Helvetica,sans-Serif" font-size="10.00">::activateEvent</text>
</a>
</g>
</g>
<!-- Node2&#45;&gt;Node3 -->
<g id="edge2_Node000002_Node000003" class="edge">
<title>Node2&#45;&gt;Node3</title>
<g id="a_edge2_Node000002_Node000003"><a xlink:title=" ">
<path fill="none" stroke="#63b8ff" d="M504.44,-157.73C443.79,-159.11 359.41,-161.03 299.99,-162.38"/>
<polygon fill="#63b8ff" stroke="#63b8ff" points="504.43,-161.23 514.35,-157.5 504.27,-154.23 504.43,-161.23"/>
</a>
</g>
</g>
<!-- Node4 -->
<g id="Node000004" class="node">
<title>Node4</title>
<g id="a_Node000004"><a xlink:href="classAsyncFw_1_1HttpSocket.html#ad51bb1bf5880c3037c7ad70231c0767d" target="_top" xlink:title="Called when established connection.">
<polygon fill="white" stroke="#666666" points="116.12,-155 3.38,-155 3.38,-123 116.12,-123 116.12,-155"/>
<text xml:space="preserve" text-anchor="start" x="11.38" y="-141.5" font-family="Helvetica,sans-Serif" font-size="10.00">AsyncFw::HttpSocket</text>
<text xml:space="preserve" text-anchor="middle" x="59.75" y="-129.5" font-family="Helvetica,sans-Serif" font-size="10.00">::activateEvent</text>
</a>
</g>
</g>
<!-- Node3&#45;&gt;Node4 -->
<g id="edge3_Node000003_Node000004" class="edge">
<title>Node3&#45;&gt;Node4</title>
<g id="a_edge3_Node000003_Node000004"><a xlink:title=" ">
<path fill="none" stroke="#63b8ff" d="M143.98,-151.54C134.66,-150.14 125.33,-148.73 116.47,-147.4"/>
<polygon fill="#63b8ff" stroke="#63b8ff" points="143.41,-155 153.82,-153.03 144.45,-148.08 143.41,-155"/>
</a>
</g>
</g>
<!-- Node6 -->
<g id="Node000006" class="node">
<title>Node6</title>
<g id="a_Node000006"><a xlink:href="classAsyncFw_1_1AbstractTlsSocket.html#a46dbd8e4895445214a4f46ee46433d6c" target="_top" xlink:title="Closes the network connection and unsubscribes from thread polling events.">
<polygon fill="white" stroke="#666666" points="480,-132 335.75,-132 335.75,-100 480,-100 480,-132"/>
<text xml:space="preserve" text-anchor="start" x="343.75" y="-118.5" font-family="Helvetica,sans-Serif" font-size="10.00">AsyncFw::AbstractTlsSocket</text>
<text xml:space="preserve" text-anchor="middle" x="407.88" y="-106.5" font-family="Helvetica,sans-Serif" font-size="10.00">::close</text>
</a>
</g>
</g>
<!-- Node5&#45;&gt;Node6 -->
<g id="edge5_Node000005_Node000006" class="edge">
<title>Node5&#45;&gt;Node6</title>
<g id="a_edge5_Node000005_Node000006"><a xlink:title=" ">
<path fill="none" stroke="#63b8ff" d="M504.1,-108.78C496.22,-109.38 488.23,-109.98 480.4,-110.58"/>
<polygon fill="#63b8ff" stroke="#63b8ff" points="504.32,-112.28 514.03,-108.03 503.79,-105.3 504.32,-112.28"/>
</a>
</g>
</g>
<!-- Node8 -->
<g id="Node000008" class="node">
<title>Node8</title>
<g id="a_Node000008"><a xlink:href="classAsyncFw_1_1AbstractSocket.html#a73a200f0008dbf9f820bdb2b8a0054cf" target="_top" xlink:title="Schedules the socket for deferred asynchronous destruction.">
<polygon fill="white" stroke="#666666" points="473.25,-82 342.5,-82 342.5,-50 473.25,-50 473.25,-82"/>
<text xml:space="preserve" text-anchor="start" x="350.5" y="-68.5" font-family="Helvetica,sans-Serif" font-size="10.00">AsyncFw::AbstractSocket</text>
<text xml:space="preserve" text-anchor="middle" x="407.88" y="-56.5" font-family="Helvetica,sans-Serif" font-size="10.00">::destroy</text>
</a>
</g>
</g>
<!-- Node5&#45;&gt;Node8 -->
<g id="edge9_Node000005_Node000008" class="edge">
<title>Node5&#45;&gt;Node8</title>
<g id="a_edge9_Node000005_Node000008"><a xlink:title=" ">
<path fill="none" stroke="#63b8ff" d="M504.44,-86.62C494.13,-84.39 483.61,-82.12 473.52,-79.95"/>
<polygon fill="#63b8ff" stroke="#63b8ff" points="503.55,-90 514.06,-88.69 505.02,-83.16 503.55,-90"/>
</a>
</g>
</g>
<!-- Node6&#45;&gt;Node3 -->
<g id="edge6_Node000006_Node000003" class="edge">
<title>Node6&#45;&gt;Node3</title>
<g id="a_edge6_Node000006_Node000003"><a xlink:title=" ">
<path fill="none" stroke="#63b8ff" d="M335.22,-135.3C320.17,-139.35 304.43,-143.59 289.8,-147.53"/>
<polygon fill="#63b8ff" stroke="#63b8ff" points="335.82,-138.76 344.57,-132.78 334,-132 335.82,-138.76"/>
</a>
</g>
</g>
<!-- Node7 -->
<g id="Node000007" class="node">
<title>Node7</title>
<g id="a_Node000007"><a xlink:href="classAsyncFw_1_1HttpSocket.html#a96932e5f6b5f84c4f204b0e6e4ef8472" target="_top" xlink:title="Closes the network connection and unsubscribes from thread polling events.">
<polygon fill="white" stroke="#666666" points="284,-130 171.25,-130 171.25,-98 284,-98 284,-130"/>
<text xml:space="preserve" text-anchor="start" x="179.25" y="-116.5" font-family="Helvetica,sans-Serif" font-size="10.00">AsyncFw::HttpSocket</text>
<text xml:space="preserve" text-anchor="middle" x="227.62" y="-104.5" font-family="Helvetica,sans-Serif" font-size="10.00">::close</text>
</a>
</g>
</g>
<!-- Node6&#45;&gt;Node7 -->
<g id="edge7_Node000006_Node000007" class="edge">
<title>Node6&#45;&gt;Node7</title>
<g id="a_edge7_Node000006_Node000007"><a xlink:title=" ">
<path fill="none" stroke="#63b8ff" d="M324.18,-115.07C310.73,-114.92 297.08,-114.77 284.48,-114.63"/>
<polygon fill="#63b8ff" stroke="#63b8ff" points="323.85,-118.57 333.89,-115.18 323.93,-111.57 323.85,-118.57"/>
</a>
</g>
</g>
<!-- Node7&#45;&gt;Node4 -->
<g id="edge8_Node000007_Node000004" class="edge">
<title>Node7&#45;&gt;Node4</title>
<g id="a_edge8_Node000007_Node000004"><a xlink:title=" ">
<path fill="none" stroke="#63b8ff" d="M159.64,-124.1C145.35,-126.25 130.4,-128.5 116.58,-130.59"/>
<polygon fill="#63b8ff" stroke="#63b8ff" points="160.07,-127.57 169.43,-122.62 159.02,-120.65 160.07,-127.57"/>
</a>
</g>
</g>
<!-- Node9 -->
<g id="Node000009" class="node">
<title>Node9</title>
<g id="a_Node000009"><a xlink:href="classAsyncFw_1_1HttpSocket.html#a8268467d3581a4d393e9ccd288de32ff" target="_top" xlink:title="Schedules the socket for deferred asynchronous destruction.">
<polygon fill="white" stroke="#666666" points="284,-80 171.25,-80 171.25,-48 284,-48 284,-80"/>
<text xml:space="preserve" text-anchor="start" x="179.25" y="-66.5" font-family="Helvetica,sans-Serif" font-size="10.00">AsyncFw::HttpSocket</text>
<text xml:space="preserve" text-anchor="middle" x="227.62" y="-54.5" font-family="Helvetica,sans-Serif" font-size="10.00">::destroy</text>
</a>
</g>
</g>
<!-- Node8&#45;&gt;Node9 -->
<g id="edge10_Node000008_Node000009" class="edge">
<title>Node8&#45;&gt;Node9</title>
<g id="a_edge10_Node000008_Node000009"><a xlink:title=" ">
<path fill="none" stroke="#63b8ff" d="M330.78,-65.15C315.18,-64.97 299.04,-64.79 284.32,-64.62"/>
<polygon fill="#63b8ff" stroke="#63b8ff" points="330.47,-68.64 340.5,-65.26 330.54,-61.64 330.47,-68.64"/>
</a>
</g>
</g>
<!-- Node10 -->
<g id="Node000010" class="node">
<title>Node10</title>
<g id="a_Node000010"><a xlink:href="classAsyncFw_1_1HttpServer_1_1TcpSocket.html#a41557b69e30e25b97cbdda210afb7657" target="_top" xlink:title="Constructs a new TcpSocket associated with the parent server.">
<polygon fill="white" stroke="#666666" points="119.5,-80 0,-80 0,-48 119.5,-48 119.5,-80"/>
<text xml:space="preserve" text-anchor="start" x="8" y="-66.5" font-family="Helvetica,sans-Serif" font-size="10.00">AsyncFw::HttpServer</text>
<text xml:space="preserve" text-anchor="middle" x="59.75" y="-54.5" font-family="Helvetica,sans-Serif" font-size="10.00">::TcpSocket::TcpSocket</text>
</a>
</g>
</g>
<!-- Node9&#45;&gt;Node10 -->
<g id="edge11_Node000009_Node000010" class="edge">
<title>Node9&#45;&gt;Node10</title>
<g id="a_edge11_Node000009_Node000010"><a xlink:title=" ">
<path fill="none" stroke="#63b8ff" d="M159.59,-64C146.48,-64 132.82,-64 119.99,-64"/>
<polygon fill="#63b8ff" stroke="#63b8ff" points="159.42,-67.5 169.42,-64 159.42,-60.5 159.42,-67.5"/>
</a>
</g>
</g>
<!-- Node11&#45;&gt;Node11 -->
<g id="edge13_Node000011_Node000011" class="edge">
<title>Node11&#45;&gt;Node11</title>
<g id="a_edge13_Node000011_Node000011"><a xlink:title=" ">
<path fill="none" stroke="#63b8ff" d="M609.16,-56.71C604.53,-60.48 595.27,-63 581.38,-63 555.97,-63 546.05,-54.58 551.61,-45.44"/>
<polygon fill="#63b8ff" stroke="#63b8ff" points="612.6,-57.39 610.88,-46.93 605.7,-56.18 612.6,-57.39"/>
</a>
</g>
</g>
<!-- Node12 -->
<g id="Node000012" class="node">
<title>Node12</title>
<g id="a_Node000012"><a xlink:href="classAsyncFw_1_1HttpServer.html#aa1ce738d4f20186506c1c4f4290a8a3d" target="_top" xlink:title="Binds to all available interfaces (0.0.0.0) and starts listening for incoming traffic on a specific T...">
<polygon fill="white" stroke="#666666" points="463.12,-32 352.62,-32 352.62,0 463.12,0 463.12,-32"/>
<text xml:space="preserve" text-anchor="start" x="360.62" y="-18.5" font-family="Helvetica,sans-Serif" font-size="10.00">AsyncFw::HttpServer</text>
<text xml:space="preserve" text-anchor="middle" x="407.88" y="-6.5" font-family="Helvetica,sans-Serif" font-size="10.00">::listen</text>
</a>
</g>
</g>
<!-- Node11&#45;&gt;Node12 -->
<g id="edge14_Node000011_Node000012" class="edge">
<title>Node11&#45;&gt;Node12</title>
<g id="a_edge14_Node000011_Node000012"><a xlink:title=" ">
<path fill="none" stroke="#63b8ff" d="M504.13,-23.22C490.42,-22.18 476.39,-21.12 463.45,-20.14"/>
<polygon fill="#63b8ff" stroke="#63b8ff" points="503.79,-26.7 514.03,-23.97 504.32,-19.72 503.79,-26.7"/>
</a>
</g>
</g>
</g>
</svg>
