<?xml version="1.0" encoding="UTF-8" standalone="no"?>
<!DOCTYPE svg PUBLIC "-//W3C//DTD SVG 1.1//EN"
 "http://www.w3.org/Graphics/SVG/1.1/DTD/svg11.dtd">
<!-- Generated by graphviz version 12.2.1 (20241206.2353)
 -->
<!-- Title: AsyncFw::HttpSocket Pages: 1 -->
<svg width="1302pt" height="127pt"
 viewBox="0.00 0.00 1301.75 127.00" xmlns="http://www.w3.org/2000/svg" xmlns:xlink="http://www.w3.org/1999/xlink">
<g id="graph0" class="graph" transform="scale(1 1) rotate(0) translate(4 123)">
<title>AsyncFw::HttpSocket</title>
<!-- Node1 -->
<g id="Node000001" class="node">
<title>Node1</title>
<g id="a_Node000001"><a xlink:title="The HttpSocket class.">
<polygon fill="#999999" stroke="#666666" points="1293.75,-44 1181,-44 1181,-24 1293.75,-24 1293.75,-44"/>
<text text-anchor="middle" x="1237.38" y="-30.5" font-family="Helvetica,sans-Serif" font-size="10.00">AsyncFw::HttpSocket</text>
</a>
</g>
</g>
<!-- Node2 -->
<g id="Node000002" class="node">
<title>Node2</title>
<g id="a_Node000002"><a xlink:href="classAsyncFw_1_1AbstractTlsSocket.html" target="_top" xlink:title="The AbstractTlsSocket class provides the base functionality for TLS encrypted socket.">
<polygon fill="white" stroke="#666666" points="1144,-73 999.75,-73 999.75,-53 1144,-53 1144,-73"/>
<text text-anchor="middle" x="1071.88" y="-59.5" font-family="Helvetica,sans-Serif" font-size="10.00">AsyncFw::AbstractTlsSocket</text>
</a>
</g>
</g>
<!-- Node2&#45;&gt;Node1 -->
<g id="edge1_Node000001_Node000002" class="edge">
<title>Node2&#45;&gt;Node1</title>
<g id="a_edge1_Node000001_Node000002"><a xlink:title=" ">
<path fill="none" stroke="#63b8ff" d="M1142.88,-50.58C1155.52,-48.34 1168.54,-46.03 1180.71,-43.87"/>
<polygon fill="#63b8ff" stroke="#63b8ff" points="1142.63,-47.07 1133.39,-52.27 1143.85,-53.97 1142.63,-47.07"/>
</a>
</g>
</g>
<!-- Node3 -->
<g id="Node000003" class="node">
<title>Node3</title>
<g id="a_Node000003"><a xlink:href="classAsyncFw_1_1AbstractSocket.html" target="_top" xlink:title="The AbstractSocket class provides the base functionality for socket.">
<polygon fill="white" stroke="#666666" points="962.75,-102 832,-102 832,-82 962.75,-82 962.75,-102"/>
<text text-anchor="middle" x="897.38" y="-88.5" font-family="Helvetica,sans-Serif" font-size="10.00">AsyncFw::AbstractSocket</text>
</a>
</g>
</g>
<!-- Node3&#45;&gt;Node2 -->
<g id="edge2_Node000002_Node000003" class="edge">
<title>Node3&#45;&gt;Node2</title>
<g id="a_edge2_Node000002_Node000003"><a xlink:title=" ">
<path fill="none" stroke="#63b8ff" d="M971.8,-79.66C984.09,-77.59 996.72,-75.47 1008.69,-73.45"/>
<polygon fill="#63b8ff" stroke="#63b8ff" points="971.43,-76.17 962.14,-81.28 972.59,-83.07 971.43,-76.17"/>
</a>
</g>
</g>
<!-- Node4 -->
<g id="Node000004" class="node">
<title>Node4</title>
<g id="a_Node000004"><a xlink:href="structAsyncFw_1_1AnyData.html" target="_top" xlink:title="The AnyData class.">
<polygon fill="white" stroke="#666666" points="760.75,-119 659.25,-119 659.25,-99 760.75,-99 760.75,-119"/>
<text text-anchor="middle" x="710" y="-105.5" font-family="Helvetica,sans-Serif" font-size="10.00">AsyncFw::AnyData</text>
</a>
</g>
</g>
<!-- Node4&#45;&gt;Node3 -->
<g id="edge3_Node000003_Node000004" class="edge">
<title>Node4&#45;&gt;Node3</title>
<g id="a_edge3_Node000003_Node000004"><a xlink:title=" ">
<path fill="none" stroke="#63b8ff" d="M772.38,-103.37C791.36,-101.63 812.32,-99.71 831.52,-97.95"/>
<polygon fill="#63b8ff" stroke="#63b8ff" points="772.31,-99.86 762.67,-104.26 772.95,-106.83 772.31,-99.86"/>
</a>
</g>
</g>
<!-- Node5 -->
<g id="Node000005" class="node">
<title>Node5</title>
<g id="a_Node000005"><a xlink:href="classAsyncFw_1_1Thread.html" target="_top" xlink:title="AsyncFw::Thread thread with sockets.">
<polygon fill="white" stroke="#666666" points="756.62,-81 663.38,-81 663.38,-61 756.62,-61 756.62,-81"/>
<text text-anchor="middle" x="710" y="-67.5" font-family="Helvetica,sans-Serif" font-size="10.00">AsyncFw::Thread</text>
</a>
</g>
</g>
<!-- Node5&#45;&gt;Node3 -->
<g id="edge4_Node000003_Node000005" class="edge">
<title>Node5&#45;&gt;Node3</title>
<g id="a_edge4_Node000003_Node000005"><a xlink:title=" ">
<path fill="none" stroke="#9a32cd" stroke-dasharray="5,2" d="M768.05,-77.46C788.24,-79.75 811.08,-82.34 831.85,-84.69"/>
<polygon fill="#9a32cd" stroke="#9a32cd" points="768.66,-74.01 758.33,-76.36 767.87,-80.96 768.66,-74.01"/>
</a>
</g>
<text text-anchor="middle" x="796.38" y="-84.63" font-family="Helvetica,sans-Serif" font-size="10.00" fill="grey"> thread_</text>
</g>
<!-- Node6 -->
<g id="Node000006" class="node">
<title>Node6</title>
<g id="a_Node000006"><a xlink:href="classAsyncFw_1_1AbstractThread.html" target="_top" xlink:title="The AbstractThread class provides the base functionality for thread management.">
<polygon fill="white" stroke="#666666" points="440,-114 310,-114 310,-94 440,-94 440,-114"/>
<text text-anchor="middle" x="375" y="-100.5" font-family="Helvetica,sans-Serif" font-size="10.00">AsyncFw::AbstractThread</text>
</a>
</g>
</g>
<!-- Node6&#45;&gt;Node5 -->
<g id="edge5_Node000005_Node000006" class="edge">
<title>Node6&#45;&gt;Node5</title>
<g id="a_edge5_Node000005_Node000006"><a xlink:title=" ">
<path fill="none" stroke="#63b8ff" d="M451.88,-104.42C505.19,-103.64 577.98,-100.41 641.25,-90 653.18,-88.04 666.02,-84.75 677.27,-81.46"/>
<polygon fill="#63b8ff" stroke="#63b8ff" points="451.95,-100.92 441.99,-104.54 452.03,-107.92 451.95,-100.92"/>
</a>
</g>
</g>
<!-- Node7 -->
<g id="Node000007" class="node">
<title>Node7</title>
<g id="a_Node000007"><a xlink:href="classAsyncFw_1_1FunctionConnectorProtected.html" target="_top" xlink:title=" ">
<polygon fill="white" stroke="#666666" points="451.25,-76 298.75,-76 298.75,-44 451.25,-44 451.25,-76"/>
<text text-anchor="start" x="306.75" y="-62.5" font-family="Helvetica,sans-Serif" font-size="10.00">AsyncFw::FunctionConnector</text>
<text text-anchor="middle" x="375" y="-50.5" font-family="Helvetica,sans-Serif" font-size="10.00">Protected&lt; AsyncFw::Thread &gt;</text>
</a>
</g>
</g>
<!-- Node7&#45;&gt;Node5 -->
<g id="edge6_Node000005_Node000007" class="edge">
<title>Node7&#45;&gt;Node5</title>
<g id="a_edge6_Node000005_Node000007"><a xlink:title=" ">
<path fill="none" stroke="#9a32cd" stroke-dasharray="5,2" d="M462.98,-60.85C514.77,-61.63 581.79,-63.14 641.25,-66 648.32,-66.34 655.79,-66.8 663.1,-67.29"/>
<polygon fill="#9a32cd" stroke="#9a32cd" points="463.06,-57.35 453.01,-60.71 462.96,-64.35 463.06,-57.35"/>
</a>
</g>
<text text-anchor="middle" x="555.25" y="-80.5" font-family="Helvetica,sans-Serif" font-size="10.00" fill="grey"> finished</text>
<text text-anchor="middle" x="555.25" y="-68.5" font-family="Helvetica,sans-Serif" font-size="10.00" fill="grey">started</text>
</g>
<!-- Node8 -->
<g id="Node000008" class="node">
<title>Node8</title>
<g id="a_Node000008"><a xlink:href="classAsyncFw_1_1FunctionConnectorProtected.html" target="_top" xlink:title="Защищенный коннетор, отправитель может быть только один.">
<polygon fill="white" stroke="#666666" points="145.75,-49 0,-49 0,-17 145.75,-17 145.75,-49"/>
<text text-anchor="start" x="8" y="-35.5" font-family="Helvetica,sans-Serif" font-size="10.00">AsyncFw::FunctionConnector</text>
<text text-anchor="middle" x="72.88" y="-23.5" font-family="Helvetica,sans-Serif" font-size="10.00">Protected&lt; F &gt;</text>
</a>
</g>
</g>
<!-- Node8&#45;&gt;Node7 -->
<g id="edge7_Node000007_Node000008" class="edge">
<title>Node8&#45;&gt;Node7</title>
<g id="a_edge7_Node000007_Node000008"><a xlink:title=" ">
<path fill="none" stroke="orange" stroke-dasharray="5,2" d="M157.45,-40.52C201.65,-44.5 255.49,-49.34 298.43,-53.2"/>
<polygon fill="orange" stroke="orange" points="157.93,-37.05 147.65,-39.64 157.3,-44.02 157.93,-37.05"/>
</a>
</g>
<text text-anchor="middle" x="222.25" y="-53.77" font-family="Helvetica,sans-Serif" font-size="10.00" fill="grey"> &lt; AsyncFw::Thread &gt;</text>
</g>
<!-- Node9 -->
<g id="Node000009" class="node">
<title>Node9</title>
<g id="a_Node000009"><a xlink:href="classAsyncFw_1_1FunctionConnectorProtected.html" target="_top" xlink:title=" ">
<polygon fill="white" stroke="#666666" points="641.25,-32 469.25,-32 469.25,0 641.25,0 641.25,-32"/>
<text text-anchor="start" x="477.25" y="-18.5" font-family="Helvetica,sans-Serif" font-size="10.00">AsyncFw::FunctionConnector</text>
<text text-anchor="middle" x="555.25" y="-6.5" font-family="Helvetica,sans-Serif" font-size="10.00">Protected&lt; AsyncFw::HttpSocket &gt;</text>
</a>
</g>
</g>
<!-- Node8&#45;&gt;Node9 -->
<g id="edge9_Node000009_Node000008" class="edge">
<title>Node8&#45;&gt;Node9</title>
<g id="a_edge9_Node000009_Node000008"><a xlink:title=" ">
<path fill="none" stroke="orange" stroke-dasharray="5,2" d="M157.44,-26.34C159.57,-26.22 161.67,-26.11 163.75,-26 268.73,-20.57 389.74,-18.05 468.88,-16.91"/>
<polygon fill="orange" stroke="orange" points="157.24,-22.85 147.47,-26.96 157.67,-29.84 157.24,-22.85"/>
</a>
</g>
<text text-anchor="middle" x="222.25" y="-28.5" font-family="Helvetica,sans-Serif" font-size="10.00" fill="grey"> &lt; AsyncFw::HttpSocket &gt;</text>
</g>
<!-- Node9&#45;&gt;Node1 -->
<g id="edge8_Node000001_Node000009" class="edge">
<title>Node9&#45;&gt;Node1</title>
<g id="a_edge8_Node000001_Node000009"><a xlink:title=" ">
<path fill="none" stroke="#9a32cd" stroke-dasharray="5,2" d="M653.19,-16C696.67,-16 748.6,-16 795.38,-16 795.38,-16 795.38,-16 1072.88,-16 1108.86,-16 1149.03,-20.36 1180.55,-24.79"/>
<polygon fill="#9a32cd" stroke="#9a32cd" points="653.26,-12.5 643.26,-16 653.26,-19.5 653.26,-12.5"/>
</a>
</g>
<text text-anchor="middle" x="897.38" y="-54.5" font-family="Helvetica,sans-Serif" font-size="10.00" fill="grey"> progress</text>
<text text-anchor="middle" x="897.38" y="-42.5" font-family="Helvetica,sans-Serif" font-size="10.00" fill="grey">received</text>
<text text-anchor="middle" x="897.38" y="-30.5" font-family="Helvetica,sans-Serif" font-size="10.00" fill="grey">stateChanged</text>
<text text-anchor="middle" x="897.38" y="-18.5" font-family="Helvetica,sans-Serif" font-size="10.00" fill="grey">writeContent</text>
</g>
</g>
</svg>
