<?xml version="1.0" encoding="UTF-8" standalone="no"?>
<!DOCTYPE svg PUBLIC "-//W3C//DTD SVG 1.1//EN"
 "http://www.w3.org/Graphics/SVG/1.1/DTD/svg11.dtd">
<!-- Generated by graphviz version 12.2.1 (20241206.2353)
 -->
<!-- Title: AsyncFw::Log Pages: 1 -->
<svg width="345pt" height="326pt"
 viewBox="0.00 0.00 344.88 326.00" xmlns="http://www.w3.org/2000/svg" xmlns:xlink="http://www.w3.org/1999/xlink">
<g id="graph0" class="graph" transform="scale(1 1) rotate(0) translate(4 322)">
<title>AsyncFw::Log</title>
<!-- Node1 -->
<g id="Node000001" class="node">
<title>Node1</title>
<g id="a_Node000001"><a xlink:title="The Log class.">
<polygon fill="#999999" stroke="#666666" points="247.38,-20 168.38,-20 168.38,0 247.38,0 247.38,-20"/>
<text text-anchor="middle" x="207.88" y="-6.5" font-family="Helvetica,sans-Serif" font-size="10.00">AsyncFw::Log</text>
</a>
</g>
</g>
<!-- Node2 -->
<g id="Node000002" class="node">
<title>Node2</title>
<g id="a_Node000002"><a xlink:href="classAsyncFw_1_1Rrd.html" target="_top" xlink:title="The Rrd class.">
<polygon fill="white" stroke="#666666" points="190.38,-77 111.38,-77 111.38,-57 190.38,-57 190.38,-77"/>
<text text-anchor="middle" x="150.88" y="-63.5" font-family="Helvetica,sans-Serif" font-size="10.00">AsyncFw::Rrd</text>
</a>
</g>
</g>
<!-- Node2&#45;&gt;Node1 -->
<g id="edge1_Node000001_Node000002" class="edge">
<title>Node2&#45;&gt;Node1</title>
<g id="a_edge1_Node000001_Node000002"><a xlink:title=" ">
<path fill="none" stroke="#63b8ff" d="M168.82,-48.68C178.61,-39.24 190.32,-27.94 198.35,-20.19"/>
<polygon fill="#63b8ff" stroke="#63b8ff" points="166.4,-46.16 161.63,-55.62 171.26,-51.19 166.4,-46.16"/>
</a>
</g>
</g>
<!-- Node3 -->
<g id="Node000003" class="node">
<title>Node3</title>
<g id="a_Node000003"><a xlink:href="classAsyncFw_1_1FunctionConnector.html" target="_top" xlink:title="Provides a thread&#45;safe, publisher&#45;subscriber mechanism to establish sender&#45;to&#45;receivers connections.">
<polygon fill="white" stroke="#666666" points="145.75,-249 0,-249 0,-217 145.75,-217 145.75,-249"/>
<text text-anchor="start" x="8" y="-235.5" font-family="Helvetica,sans-Serif" font-size="10.00">AsyncFw::FunctionConnector</text>
<text text-anchor="middle" x="72.88" y="-223.5" font-family="Helvetica,sans-Serif" font-size="10.00">&lt; Args &gt;</text>
</a>
</g>
</g>
<!-- Node3&#45;&gt;Node2 -->
<g id="edge2_Node000002_Node000003" class="edge">
<title>Node3&#45;&gt;Node2</title>
<g id="a_edge2_Node000002_Node000003"><a xlink:title=" ">
<path fill="none" stroke="#9a32cd" stroke-dasharray="5,2" d="M53.24,-207.26C37.83,-184.62 21.44,-150.83 37.38,-125 53.35,-99.1 85.08,-84.56 110.94,-76.66"/>
<polygon fill="#9a32cd" stroke="#9a32cd" points="50.33,-209.21 59.02,-215.28 56.01,-205.12 50.33,-209.21"/>
</a>
</g>
<text text-anchor="middle" x="56.12" y="-131.5" font-family="Helvetica,sans-Serif" font-size="10.00" fill="grey"> updated</text>
</g>
<!-- Node5 -->
<g id="Node000005" class="node">
<title>Node5</title>
<g id="a_Node000005"><a xlink:href="classAsyncFw_1_1Thread.html" target="_top" xlink:title="AsyncFw::Thread thread with sockets.">
<polygon fill="white" stroke="#666666" points="318.5,-145 225.25,-145 225.25,-125 318.5,-125 318.5,-145"/>
<text text-anchor="middle" x="271.88" y="-131.5" font-family="Helvetica,sans-Serif" font-size="10.00">AsyncFw::Thread</text>
</a>
</g>
</g>
<!-- Node3&#45;&gt;Node5 -->
<g id="edge6_Node000005_Node000003" class="edge">
<title>Node3&#45;&gt;Node5</title>
<g id="a_edge6_Node000005_Node000003"><a xlink:title=" ">
<path fill="none" stroke="#9a32cd" stroke-dasharray="5,2" d="M115.12,-211.62C157.44,-191.21 220.69,-160.69 252.35,-145.42"/>
<polygon fill="#9a32cd" stroke="#9a32cd" points="113.7,-208.42 106.21,-215.92 116.74,-214.73 113.7,-208.42"/>
</a>
</g>
<text text-anchor="middle" x="234.45" y="-189.5" font-family="Helvetica,sans-Serif" font-size="10.00" fill="grey"> destroing</text>
<text text-anchor="middle" x="234.45" y="-177.5" font-family="Helvetica,sans-Serif" font-size="10.00" fill="grey">finished</text>
<text text-anchor="middle" x="234.45" y="-165.5" font-family="Helvetica,sans-Serif" font-size="10.00" fill="grey">started</text>
</g>
<!-- Node4 -->
<g id="Node000004" class="node">
<title>Node4</title>
<g id="a_Node000004"><a xlink:href="classAsyncFw_1_1AbstractFunctionConnector.html" target="_top" xlink:title="The AbstractFunctionConnector class provides the base functionality for FunctionConnector.">
<polygon fill="white" stroke="#666666" points="141.62,-318 4.12,-318 4.12,-286 141.62,-286 141.62,-318"/>
<text text-anchor="start" x="12.12" y="-304.5" font-family="Helvetica,sans-Serif" font-size="10.00">AsyncFw::AbstractFunction</text>
<text text-anchor="middle" x="72.88" y="-292.5" font-family="Helvetica,sans-Serif" font-size="10.00">Connector</text>
</a>
</g>
</g>
<!-- Node4&#45;&gt;Node3 -->
<g id="edge3_Node000003_Node000004" class="edge">
<title>Node4&#45;&gt;Node3</title>
<g id="a_edge3_Node000003_Node000004"><a xlink:title=" ">
<path fill="none" stroke="#63b8ff" d="M72.88,-274.35C72.88,-265.78 72.88,-256.59 72.88,-249.14"/>
<polygon fill="#63b8ff" stroke="#63b8ff" points="69.38,-274.28 72.88,-284.28 76.38,-274.28 69.38,-274.28"/>
</a>
</g>
</g>
<!-- Node5&#45;&gt;Node2 -->
<g id="edge4_Node000002_Node000005" class="edge">
<title>Node5&#45;&gt;Node2</title>
<g id="a_edge4_Node000002_Node000005"><a xlink:title=" ">
<path fill="none" stroke="#9a32cd" stroke-dasharray="5,2" d="M244.54,-119.09C221.12,-106.32 188.11,-88.31 168.18,-77.44"/>
<polygon fill="#9a32cd" stroke="#9a32cd" points="242.75,-122.1 253.21,-123.82 246.11,-115.96 242.75,-122.1"/>
</a>
</g>
<text text-anchor="middle" x="239.84" y="-97.5" font-family="Helvetica,sans-Serif" font-size="10.00" fill="grey"> thread_</text>
</g>
<!-- Node8 -->
<g id="Node000008" class="node">
<title>Node8</title>
<g id="a_Node000008"><a xlink:href="classAsyncFw_1_1AbstractLog.html" target="_top" xlink:title="The AbstractLog class provides the base functionality for logger.">
<polygon fill="white" stroke="#666666" points="325.75,-77 210,-77 210,-57 325.75,-57 325.75,-77"/>
<text text-anchor="middle" x="267.88" y="-63.5" font-family="Helvetica,sans-Serif" font-size="10.00">AsyncFw::AbstractLog</text>
</a>
</g>
</g>
<!-- Node5&#45;&gt;Node8 -->
<g id="edge9_Node000008_Node000005" class="edge">
<title>Node5&#45;&gt;Node8</title>
<g id="a_edge9_Node000008_Node000005"><a xlink:title=" ">
<path fill="none" stroke="#9a32cd" stroke-dasharray="5,2" d="M270.62,-113.28C269.89,-101.27 269.01,-86.74 268.45,-77.44"/>
<polygon fill="#9a32cd" stroke="#9a32cd" points="267.11,-113.26 271.21,-123.03 274.1,-112.84 267.11,-113.26"/>
</a>
</g>
<text text-anchor="middle" x="287.86" y="-97.5" font-family="Helvetica,sans-Serif" font-size="10.00" fill="grey"> thread_</text>
</g>
<!-- Node6 -->
<g id="Node000006" class="node">
<title>Node6</title>
<g id="a_Node000006"><a xlink:href="classAsyncFw_1_1AbstractThread.html" target="_top" xlink:title="The AbstractThread class provides the base functionality for thread management.">
<polygon fill="white" stroke="#666666" points="336.88,-243 206.88,-243 206.88,-223 336.88,-223 336.88,-243"/>
<text text-anchor="middle" x="271.88" y="-229.5" font-family="Helvetica,sans-Serif" font-size="10.00">AsyncFw::AbstractThread</text>
</a>
</g>
</g>
<!-- Node6&#45;&gt;Node5 -->
<g id="edge5_Node000005_Node000006" class="edge">
<title>Node6&#45;&gt;Node5</title>
<g id="a_edge5_Node000005_Node000006"><a xlink:title=" ">
<path fill="none" stroke="#63b8ff" d="M271.88,-211.3C271.88,-190.85 271.88,-160.48 271.88,-145.32"/>
<polygon fill="#63b8ff" stroke="#63b8ff" points="268.38,-211.28 271.88,-221.28 275.38,-211.28 268.38,-211.28"/>
</a>
</g>
</g>
<!-- Node7 -->
<g id="Node000007" class="node">
<title>Node7</title>
<g id="a_Node000007"><a xlink:href="classAsyncFw_1_1DataArrayList.html" target="_top" xlink:title="The DataArrayList class.">
<polygon fill="white" stroke="#666666" points="207.5,-145 84.25,-145 84.25,-125 207.5,-125 207.5,-145"/>
<text text-anchor="middle" x="145.88" y="-131.5" font-family="Helvetica,sans-Serif" font-size="10.00">AsyncFw::DataArrayList</text>
</a>
</g>
</g>
<!-- Node7&#45;&gt;Node2 -->
<g id="edge7_Node000002_Node000007" class="edge">
<title>Node7&#45;&gt;Node2</title>
<g id="a_edge7_Node000002_Node000007"><a xlink:title=" ">
<path fill="none" stroke="#9a32cd" stroke-dasharray="5,2" d="M145.74,-113.54C145.85,-107.56 146.1,-101.01 146.62,-95 147.14,-89.14 148.15,-82.62 149.06,-77.46"/>
<polygon fill="#9a32cd" stroke="#9a32cd" points="142.24,-113.15 145.7,-123.17 149.24,-113.18 142.24,-113.15"/>
</a>
</g>
<text text-anchor="middle" x="168.75" y="-97.5" font-family="Helvetica,sans-Serif" font-size="10.00" fill="grey"> dataBase</text>
</g>
<!-- Node8&#45;&gt;Node1 -->
<g id="edge8_Node000001_Node000008" class="edge">
<title>Node8&#45;&gt;Node1</title>
<g id="a_edge8_Node000001_Node000008"><a xlink:title=" ">
<path fill="none" stroke="#63b8ff" d="M249.3,-48.97C238.94,-39.47 226.44,-28.02 217.9,-20.19"/>
<polygon fill="#63b8ff" stroke="#63b8ff" points="246.84,-51.47 256.58,-55.65 251.57,-46.31 246.84,-51.47"/>
</a>
</g>
</g>
</g>
</svg>
