<?xml version="1.0" encoding="UTF-8" standalone="no"?>
<!DOCTYPE svg PUBLIC "-//W3C//DTD SVG 1.1//EN"
 "http://www.w3.org/Graphics/SVG/1.1/DTD/svg11.dtd">
<!-- Generated by graphviz version 14.1.3 (20260303.0454)
 -->
<!-- Title: AsyncFw::AbstractSocket::stateEvent Pages: 1 -->
<svg width="1169pt" height="428pt"
 viewBox="0.00 0.00 1169.00 428.00" xmlns="http://www.w3.org/2000/svg" xmlns:xlink="http://www.w3.org/1999/xlink">
<g id="graph0" class="graph" transform="scale(1 1) rotate(0) translate(4 424)">
<title>AsyncFw::AbstractSocket::stateEvent</title>
<!-- Node1 -->
<g id="Node000001" class="node">
<title>Node1</title>
<g id="a_Node000001"><a xlink:title="Called when the connection state changes.">
<polygon fill="#999999" stroke="#666666" points="1160.5,-197 1029.75,-197 1029.75,-165 1160.5,-165 1160.5,-197"/>
<text xml:space="preserve" text-anchor="start" x="1037.75" y="-183.5" font-family="Helvetica,sans-Serif" font-size="10.00">AsyncFw::AbstractSocket</text>
<text xml:space="preserve" text-anchor="middle" x="1095.12" y="-171.5" font-family="Helvetica,sans-Serif" font-size="10.00">::stateEvent</text>
</a>
</g>
</g>
<!-- Node2 -->
<g id="Node000002" class="node">
<title>Node2</title>
<g id="a_Node000002"><a xlink:href="classAsyncFw_1_1AbstractSocket.html#aac7ad6c4f9815d9b8b0817d38864d06d" target="_top" xlink:title="Called when established connection.">
<polygon fill="white" stroke="#666666" points="993.75,-376 863,-376 863,-344 993.75,-344 993.75,-376"/>
<text xml:space="preserve" text-anchor="start" x="871" y="-362.5" font-family="Helvetica,sans-Serif" font-size="10.00">AsyncFw::AbstractSocket</text>
<text xml:space="preserve" text-anchor="middle" x="928.38" y="-350.5" font-family="Helvetica,sans-Serif" font-size="10.00">::activateEvent</text>
</a>
</g>
</g>
<!-- Node1&#45;&gt;Node2 -->
<g id="edge1_Node000001_Node000002" class="edge">
<title>Node1&#45;&gt;Node2</title>
<g id="a_edge1_Node000001_Node000002"><a xlink:title=" ">
<path fill="none" stroke="#63b8ff" d="M1071.61,-205.47C1037.44,-242.59 973.4,-312.16 944.37,-343.71"/>
<polygon fill="#63b8ff" stroke="#63b8ff" points="1073.99,-208.04 1078.19,-198.31 1068.84,-203.3 1073.99,-208.04"/>
</a>
</g>
</g>
<!-- Node6 -->
<g id="Node000006" class="node">
<title>Node6</title>
<g id="a_Node000006"><a xlink:href="classAsyncFw_1_1AbstractSocket.html#a77c0a9ea7c5061c406673bbe8b18d60d" target="_top" xlink:title="Closes the network connection and unsubscribes from thread polling events.">
<polygon fill="white" stroke="#666666" points="993.75,-272 863,-272 863,-240 993.75,-240 993.75,-272"/>
<text xml:space="preserve" text-anchor="start" x="871" y="-258.5" font-family="Helvetica,sans-Serif" font-size="10.00">AsyncFw::AbstractSocket</text>
<text xml:space="preserve" text-anchor="middle" x="928.38" y="-246.5" font-family="Helvetica,sans-Serif" font-size="10.00">::close</text>
</a>
</g>
</g>
<!-- Node1&#45;&gt;Node6 -->
<g id="edge6_Node000001_Node000006" class="edge">
<title>Node1&#45;&gt;Node6</title>
<g id="a_edge6_Node000001_Node000006"><a xlink:title=" ">
<path fill="none" stroke="#63b8ff" d="M1047.58,-202.19C1021.54,-214.04 989.57,-228.6 965.45,-239.58"/>
<polygon fill="#63b8ff" stroke="#63b8ff" points="1048.94,-205.41 1056.59,-198.09 1046.04,-199.04 1048.94,-205.41"/>
</a>
</g>
</g>
<!-- Node13 -->
<g id="Node000013" class="node">
<title>Node13</title>
<g id="a_Node000013"><a xlink:href="classAsyncFw_1_1AbstractSocket.html#a96c331ff22db7a34923c34f575075e6a" target="_top" xlink:title="Disconnects the socket from the remote host gracefully.">
<polygon fill="white" stroke="#666666" points="820.25,-222 689.5,-222 689.5,-190 820.25,-190 820.25,-222"/>
<text xml:space="preserve" text-anchor="start" x="697.5" y="-208.5" font-family="Helvetica,sans-Serif" font-size="10.00">AsyncFw::AbstractSocket</text>
<text xml:space="preserve" text-anchor="middle" x="754.88" y="-196.5" font-family="Helvetica,sans-Serif" font-size="10.00">::disconnect</text>
</a>
</g>
</g>
<!-- Node1&#45;&gt;Node13 -->
<g id="edge31_Node000001_Node000013" class="edge">
<title>Node1&#45;&gt;Node13</title>
<g id="a_edge31_Node000001_Node000013"><a xlink:title=" ">
<path fill="none" stroke="#63b8ff" d="M1018.2,-190.6C1009.96,-191.49 1001.68,-192.31 993.75,-193 935.24,-198.09 868.45,-201.53 820.57,-203.59"/>
<polygon fill="#63b8ff" stroke="#63b8ff" points="1018.34,-194.11 1027.89,-189.53 1017.57,-187.15 1018.34,-194.11"/>
</a>
</g>
</g>
<!-- Node25 -->
<g id="Node000025" class="node">
<title>Node25</title>
<g id="a_Node000025"><a xlink:href="classAsyncFw_1_1AbstractSocket.html#ac4b8765d203b4d4bc77d9d6e00d5dd85" target="_top" xlink:title="Initiates an asynchronous connection to a remote host.">
<polygon fill="white" stroke="#666666" points="993.75,-166 863,-166 863,-134 993.75,-134 993.75,-166"/>
<text xml:space="preserve" text-anchor="start" x="871" y="-152.5" font-family="Helvetica,sans-Serif" font-size="10.00">AsyncFw::AbstractSocket</text>
<text xml:space="preserve" text-anchor="middle" x="928.38" y="-140.5" font-family="Helvetica,sans-Serif" font-size="10.00">::connect</text>
</a>
</g>
</g>
<!-- Node1&#45;&gt;Node25 -->
<g id="edge28_Node000001_Node000025" class="edge">
<title>Node1&#45;&gt;Node25</title>
<g id="a_edge28_Node000001_Node000025"><a xlink:title=" ">
<path fill="none" stroke="#63b8ff" d="M1018.19,-166.71C1010.14,-165.2 1002.01,-163.67 994.1,-162.18"/>
<polygon fill="#63b8ff" stroke="#63b8ff" points="1017.52,-170.15 1028,-168.56 1018.82,-163.27 1017.52,-170.15"/>
</a>
</g>
</g>
<!-- Node27 -->
<g id="Node000027" class="node">
<title>Node27</title>
<g id="a_Node000027"><a xlink:href="classAsyncFw_1_1AbstractSocket.html#a426c3b10de20344079571d6708f096ca" target="_top" xlink:title="Listen for incoming connections on address and port.">
<polygon fill="white" stroke="#666666" points="993.75,-98 863,-98 863,-66 993.75,-66 993.75,-98"/>
<text xml:space="preserve" text-anchor="start" x="871" y="-84.5" font-family="Helvetica,sans-Serif" font-size="10.00">AsyncFw::AbstractSocket</text>
<text xml:space="preserve" text-anchor="middle" x="928.38" y="-72.5" font-family="Helvetica,sans-Serif" font-size="10.00">::listen</text>
</a>
</g>
</g>
<!-- Node1&#45;&gt;Node27 -->
<g id="edge32_Node000001_Node000027" class="edge">
<title>Node1&#45;&gt;Node27</title>
<g id="a_edge32_Node000001_Node000027"><a xlink:title=" ">
<path fill="none" stroke="#63b8ff" d="M1057.08,-158.74C1026.59,-140.42 984.06,-114.86 956.62,-98.37"/>
<polygon fill="#63b8ff" stroke="#63b8ff" points="1055.25,-161.72 1065.62,-163.87 1058.85,-155.72 1055.25,-161.72"/>
</a>
</g>
</g>
<!-- Node29 -->
<g id="Node000029" class="node">
<title>Node29</title>
<g id="a_Node000029"><a xlink:href="classAsyncFw_1_1AbstractSocket.html#a0ffc2cb5dd293722a9336a528357f9c5" target="_top" xlink:title="Binds a raw native operating system socket file descriptor to this instance.">
<polygon fill="white" stroke="#666666" points="993.75,-48 863,-48 863,-16 993.75,-16 993.75,-48"/>
<text xml:space="preserve" text-anchor="start" x="871" y="-34.5" font-family="Helvetica,sans-Serif" font-size="10.00">AsyncFw::AbstractSocket</text>
<text xml:space="preserve" text-anchor="middle" x="928.38" y="-22.5" font-family="Helvetica,sans-Serif" font-size="10.00">::setDescriptor</text>
</a>
</g>
</g>
<!-- Node1&#45;&gt;Node29 -->
<g id="edge35_Node000001_Node000029" class="edge">
<title>Node1&#45;&gt;Node29</title>
<g id="a_edge35_Node000001_Node000029"><a xlink:title=" ">
<path fill="none" stroke="#63b8ff" d="M1078.78,-154.86C1061.33,-127.16 1030.45,-83.78 993.75,-57 989.39,-53.82 984.58,-50.99 979.6,-48.47"/>
<polygon fill="#63b8ff" stroke="#63b8ff" points="1075.79,-156.67 1084,-163.36 1081.75,-153 1075.79,-156.67"/>
</a>
</g>
</g>
<!-- Node3 -->
<g id="Node000003" class="node">
<title>Node3</title>
<g id="a_Node000003"><a xlink:href="classAsyncFw_1_1AbstractTlsSocket.html#a57ac6daff9926cf631abcd1e19073cc8" target="_top" xlink:title="Core internal event handler reacting to raw descriptor readiness signals.">
<polygon fill="white" stroke="#666666" points="646.75,-420 502.5,-420 502.5,-388 646.75,-388 646.75,-420"/>
<text xml:space="preserve" text-anchor="start" x="510.5" y="-406.5" font-family="Helvetica,sans-Serif" font-size="10.00">AsyncFw::AbstractTlsSocket</text>
<text xml:space="preserve" text-anchor="middle" x="574.62" y="-394.5" font-family="Helvetica,sans-Serif" font-size="10.00">::activateEvent</text>
</a>
</g>
</g>
<!-- Node2&#45;&gt;Node3 -->
<g id="edge2_Node000002_Node000003" class="edge">
<title>Node2&#45;&gt;Node3</title>
<g id="a_edge2_Node000002_Node000003"><a xlink:title=" ">
<path fill="none" stroke="#63b8ff" d="M857.06,-379.1C847.03,-381.36 836.79,-383.42 827,-385 766.83,-394.7 697.74,-399.47 647.24,-401.8"/>
<polygon fill="#63b8ff" stroke="#63b8ff" points="857.86,-382.51 866.8,-376.82 856.26,-375.69 857.86,-382.51"/>
</a>
</g>
</g>
<!-- Node5 -->
<g id="Node000005" class="node">
<title>Node5</title>
<g id="a_Node000005"><a xlink:href="classAsyncFw_1_1AbstractTlsSocket.html#ad26bb910e65bb758bfed6448e1af7186" target="_top" xlink:title="Intermediate signal hub executed immediately when a secure cryptographic tunnel is fully established.">
<polygon fill="white" stroke="#666666" points="827,-376 682.75,-376 682.75,-344 827,-344 827,-376"/>
<text xml:space="preserve" text-anchor="start" x="690.75" y="-362.5" font-family="Helvetica,sans-Serif" font-size="10.00">AsyncFw::AbstractTlsSocket</text>
<text xml:space="preserve" text-anchor="middle" x="754.88" y="-350.5" font-family="Helvetica,sans-Serif" font-size="10.00">::activateReady</text>
</a>
</g>
</g>
<!-- Node2&#45;&gt;Node5 -->
<g id="edge4_Node000002_Node000005" class="edge">
<title>Node2&#45;&gt;Node5</title>
<g id="a_edge4_Node000002_Node000005"><a xlink:title=" ">
<path fill="none" stroke="#63b8ff" d="M851.1,-360C843.22,-360 835.23,-360 827.4,-360"/>
<polygon fill="#63b8ff" stroke="#63b8ff" points="851.02,-363.5 861.02,-360 851.02,-356.5 851.02,-363.5"/>
</a>
</g>
</g>
<!-- Node4 -->
<g id="Node000004" class="node">
<title>Node4</title>
<g id="a_Node000004"><a xlink:href="classAsyncFw_1_1HttpSocket.html#ad51bb1bf5880c3037c7ad70231c0767d" target="_top" xlink:title="Core internal event handler reacting to raw descriptor readiness signals.">
<polygon fill="white" stroke="#666666" points="453.75,-395 341,-395 341,-363 453.75,-363 453.75,-395"/>
<text xml:space="preserve" text-anchor="start" x="349" y="-381.5" font-family="Helvetica,sans-Serif" font-size="10.00">AsyncFw::HttpSocket</text>
<text xml:space="preserve" text-anchor="middle" x="397.38" y="-369.5" font-family="Helvetica,sans-Serif" font-size="10.00">::activateEvent</text>
</a>
</g>
</g>
<!-- Node3&#45;&gt;Node4 -->
<g id="edge3_Node000003_Node000004" class="edge">
<title>Node3&#45;&gt;Node4</title>
<g id="a_edge3_Node000003_Node000004"><a xlink:title=" ">
<path fill="none" stroke="#63b8ff" d="M490.75,-392.18C478.33,-390.41 465.79,-388.62 454.12,-386.95"/>
<polygon fill="#63b8ff" stroke="#63b8ff" points="490.2,-395.63 500.59,-393.58 491.19,-388.7 490.2,-395.63"/>
</a>
</g>
</g>
<!-- Node5&#45;&gt;Node3 -->
<g id="edge5_Node000005_Node000003" class="edge">
<title>Node5&#45;&gt;Node3</title>
<g id="a_edge5_Node000005_Node000003"><a xlink:title=" ">
<path fill="none" stroke="#63b8ff" d="M676.14,-379.19C664.92,-381.96 653.45,-384.79 642.47,-387.5"/>
<polygon fill="#63b8ff" stroke="#63b8ff" points="676.91,-382.6 685.78,-376.81 675.23,-375.81 676.91,-382.6"/>
</a>
</g>
</g>
<!-- Node7 -->
<g id="Node000007" class="node">
<title>Node7</title>
<g id="a_Node000007"><a xlink:href="classAsyncFw_1_1AbstractTlsSocket.html#a46dbd8e4895445214a4f46ee46433d6c" target="_top" xlink:title="Immediately releases OpenSSL session pointers and forcefully closes the system&#45;level descriptor.">
<polygon fill="white" stroke="#666666" points="827,-325 682.75,-325 682.75,-293 827,-293 827,-325"/>
<text xml:space="preserve" text-anchor="start" x="690.75" y="-311.5" font-family="Helvetica,sans-Serif" font-size="10.00">AsyncFw::AbstractTlsSocket</text>
<text xml:space="preserve" text-anchor="middle" x="754.88" y="-299.5" font-family="Helvetica,sans-Serif" font-size="10.00">::close</text>
</a>
</g>
</g>
<!-- Node6&#45;&gt;Node7 -->
<g id="edge7_Node000006_Node000007" class="edge">
<title>Node6&#45;&gt;Node7</title>
<g id="a_edge7_Node000006_Node000007"><a xlink:title=" ">
<path fill="none" stroke="#63b8ff" d="M863.17,-275.84C845.38,-281.34 826.26,-287.25 809.17,-292.53"/>
<polygon fill="#63b8ff" stroke="#63b8ff" points="864.08,-279.22 872.61,-272.93 862.02,-272.53 864.08,-279.22"/>
</a>
</g>
</g>
<!-- Node10 -->
<g id="Node000010" class="node">
<title>Node10</title>
<g id="a_Node000010"><a xlink:href="classAsyncFw_1_1AbstractSocket.html#a73a200f0008dbf9f820bdb2b8a0054cf" target="_top" xlink:title="Schedules the socket for deferred asynchronous destruction.">
<polygon fill="white" stroke="#666666" points="820.25,-272 689.5,-272 689.5,-240 820.25,-240 820.25,-272"/>
<text xml:space="preserve" text-anchor="start" x="697.5" y="-258.5" font-family="Helvetica,sans-Serif" font-size="10.00">AsyncFw::AbstractSocket</text>
<text xml:space="preserve" text-anchor="middle" x="754.88" y="-246.5" font-family="Helvetica,sans-Serif" font-size="10.00">::destroy</text>
</a>
</g>
</g>
<!-- Node6&#45;&gt;Node10 -->
<g id="edge12_Node000006_Node000010" class="edge">
<title>Node6&#45;&gt;Node10</title>
<g id="a_edge12_Node000006_Node000010"><a xlink:title=" ">
<path fill="none" stroke="#63b8ff" d="M851.12,-256C840.9,-256 830.51,-256 820.52,-256"/>
<polygon fill="#63b8ff" stroke="#63b8ff" points="851.02,-259.5 861.02,-256 851.02,-252.5 851.02,-259.5"/>
</a>
</g>
</g>
<!-- Node6&#45;&gt;Node13 -->
<g id="edge15_Node000006_Node000013" class="edge">
<title>Node6&#45;&gt;Node13</title>
<g id="a_edge15_Node000006_Node000013"><a xlink:title=" ">
<path fill="none" stroke="#63b8ff" d="M860.41,-236.48C844.55,-231.85 827.79,-226.97 812.45,-222.49"/>
<polygon fill="#63b8ff" stroke="#63b8ff" points="859.19,-239.77 869.77,-239.2 861.15,-233.05 859.19,-239.77"/>
</a>
</g>
</g>
<!-- Node7&#45;&gt;Node3 -->
<g id="edge8_Node000007_Node000003" class="edge">
<title>Node7&#45;&gt;Node3</title>
<g id="a_edge8_Node000007_Node000003"><a xlink:title=" ">
<path fill="none" stroke="#63b8ff" d="M689.54,-330.61C687.19,-332 684.92,-333.46 682.75,-335 662.15,-349.64 667.44,-364.49 646.75,-379 642.14,-382.23 637.08,-385.08 631.83,-387.59"/>
<polygon fill="#63b8ff" stroke="#63b8ff" points="690.95,-333.83 698.16,-326.07 687.68,-327.63 690.95,-333.83"/>
</a>
</g>
</g>
<!-- Node8 -->
<g id="Node000008" class="node">
<title>Node8</title>
<g id="a_Node000008"><a xlink:href="classAsyncFw_1_1HttpSocket.html#a96932e5f6b5f84c4f204b0e6e4ef8472" target="_top" xlink:title="Immediately releases OpenSSL session pointers and forcefully closes the system&#45;level descriptor.">
<polygon fill="white" stroke="#666666" points="631,-370 518.25,-370 518.25,-338 631,-338 631,-370"/>
<text xml:space="preserve" text-anchor="start" x="526.25" y="-356.5" font-family="Helvetica,sans-Serif" font-size="10.00">AsyncFw::HttpSocket</text>
<text xml:space="preserve" text-anchor="middle" x="574.62" y="-344.5" font-family="Helvetica,sans-Serif" font-size="10.00">::close</text>
</a>
</g>
</g>
<!-- Node7&#45;&gt;Node8 -->
<g id="edge9_Node000007_Node000008" class="edge">
<title>Node7&#45;&gt;Node8</title>
<g id="a_edge9_Node000007_Node000008"><a xlink:title=" ">
<path fill="none" stroke="#63b8ff" d="M677.6,-328.26C662.11,-332.17 646.08,-336.21 631.45,-339.91"/>
<polygon fill="#63b8ff" stroke="#63b8ff" points="678.46,-331.65 687.3,-325.81 676.75,-324.86 678.46,-331.65"/>
</a>
</g>
</g>
<!-- Node9 -->
<g id="Node000009" class="node">
<title>Node9</title>
<g id="a_Node000009"><a xlink:href="classAsyncFw_1_1DataArrayAbstractTcp_1_1Thread.html#ab6df6de1f9828a772e5968477ce5dffa" target="_top" xlink:title="Performs cleanup routines and safely removes a socket from the thread loop.">
<polygon fill="white" stroke="#666666" points="646.75,-320 502.5,-320 502.5,-288 646.75,-288 646.75,-320"/>
<text xml:space="preserve" text-anchor="start" x="510.5" y="-306.5" font-family="Helvetica,sans-Serif" font-size="10.00">AsyncFw::DataArrayAbstract</text>
<text xml:space="preserve" text-anchor="middle" x="574.62" y="-294.5" font-family="Helvetica,sans-Serif" font-size="10.00">Tcp::Thread::destroySocket</text>
</a>
</g>
</g>
<!-- Node7&#45;&gt;Node9 -->
<g id="edge11_Node000007_Node000009" class="edge">
<title>Node7&#45;&gt;Node9</title>
<g id="a_edge11_Node000007_Node000009"><a xlink:title=" ">
<path fill="none" stroke="#63b8ff" d="M671.13,-306.68C663.11,-306.45 655.02,-306.23 647.12,-306.01"/>
<polygon fill="#63b8ff" stroke="#63b8ff" points="670.79,-310.17 680.89,-306.95 670.99,-303.17 670.79,-310.17"/>
</a>
</g>
</g>
<!-- Node8&#45;&gt;Node4 -->
<g id="edge10_Node000008_Node000004" class="edge">
<title>Node8&#45;&gt;Node4</title>
<g id="a_edge10_Node000008_Node000004"><a xlink:title=" ">
<path fill="none" stroke="#63b8ff" d="M506.92,-363.52C489.48,-366 470.86,-368.66 454.07,-371.06"/>
<polygon fill="#63b8ff" stroke="#63b8ff" points="507.27,-367 516.68,-362.12 506.28,-360.07 507.27,-367"/>
</a>
</g>
</g>
<!-- Node11 -->
<g id="Node000011" class="node">
<title>Node11</title>
<g id="a_Node000011"><a xlink:href="classAsyncFw_1_1HttpSocket.html#a8268467d3581a4d393e9ccd288de32ff" target="_top" xlink:title="Schedules the socket for deferred asynchronous destruction.">
<polygon fill="white" stroke="#666666" points="631,-270 518.25,-270 518.25,-238 631,-238 631,-270"/>
<text xml:space="preserve" text-anchor="start" x="526.25" y="-256.5" font-family="Helvetica,sans-Serif" font-size="10.00">AsyncFw::HttpSocket</text>
<text xml:space="preserve" text-anchor="middle" x="574.62" y="-244.5" font-family="Helvetica,sans-Serif" font-size="10.00">::destroy</text>
</a>
</g>
</g>
<!-- Node10&#45;&gt;Node11 -->
<g id="edge13_Node000010_Node000011" class="edge">
<title>Node10&#45;&gt;Node11</title>
<g id="a_edge13_Node000010_Node000011"><a xlink:title=" ">
<path fill="none" stroke="#63b8ff" d="M677.78,-255.15C662.18,-254.97 646.04,-254.79 631.32,-254.62"/>
<polygon fill="#63b8ff" stroke="#63b8ff" points="677.47,-258.64 687.5,-255.26 677.54,-251.64 677.47,-258.64"/>
</a>
</g>
</g>
<!-- Node12 -->
<g id="Node000012" class="node">
<title>Node12</title>
<g id="a_Node000012"><a xlink:href="classAsyncFw_1_1HttpServer_1_1TcpSocket.html#a41557b69e30e25b97cbdda210afb7657" target="_top" xlink:title="Constructs a new TcpSocket associated with the parent server.">
<polygon fill="white" stroke="#666666" points="457.12,-270 337.62,-270 337.62,-238 457.12,-238 457.12,-270"/>
<text xml:space="preserve" text-anchor="start" x="345.62" y="-256.5" font-family="Helvetica,sans-Serif" font-size="10.00">AsyncFw::HttpServer</text>
<text xml:space="preserve" text-anchor="middle" x="397.38" y="-244.5" font-family="Helvetica,sans-Serif" font-size="10.00">::TcpSocket::TcpSocket</text>
</a>
</g>
</g>
<!-- Node11&#45;&gt;Node12 -->
<g id="edge14_Node000011_Node000012" class="edge">
<title>Node11&#45;&gt;Node12</title>
<g id="a_edge14_Node000011_Node000012"><a xlink:title=" ">
<path fill="none" stroke="#63b8ff" d="M507.06,-254C490.73,-254 473.35,-254 457.4,-254"/>
<polygon fill="#63b8ff" stroke="#63b8ff" points="506.66,-257.5 516.66,-254 506.66,-250.5 506.66,-257.5"/>
</a>
</g>
</g>
<!-- Node14 -->
<g id="Node000014" class="node">
<title>Node14</title>
<g id="a_Node000014"><a xlink:href="classAsyncFw_1_1AbstractTlsSocket.html#af52f94f709ab74eace61da79cbd8af7d" target="_top" xlink:title="Shuts down the active TLS session gracefully via SSL_shutdown() before terminating the network pipe.">
<polygon fill="white" stroke="#666666" points="646.75,-220 502.5,-220 502.5,-188 646.75,-188 646.75,-220"/>
<text xml:space="preserve" text-anchor="start" x="510.5" y="-206.5" font-family="Helvetica,sans-Serif" font-size="10.00">AsyncFw::AbstractTlsSocket</text>
<text xml:space="preserve" text-anchor="middle" x="574.62" y="-194.5" font-family="Helvetica,sans-Serif" font-size="10.00">::disconnect</text>
</a>
</g>
</g>
<!-- Node13&#45;&gt;Node14 -->
<g id="edge16_Node000013_Node000014" class="edge">
<title>Node13&#45;&gt;Node14</title>
<g id="a_edge16_Node000013_Node000014"><a xlink:title=" ">
<path fill="none" stroke="#63b8ff" d="M677.68,-205.15C667.52,-205.03 657.13,-204.91 647.06,-204.8"/>
<polygon fill="#63b8ff" stroke="#63b8ff" points="677.47,-208.64 687.5,-205.26 677.54,-201.64 677.47,-208.64"/>
</a>
</g>
</g>
<!-- Node15 -->
<g id="Node000015" class="node">
<title>Node15</title>
<g id="a_Node000015"><a xlink:href="classAsyncFw_1_1DataArraySocket.html#a9942cbf100e7898ba95c8fb92e059ae8" target="_top" xlink:title="Disconnects the socket from the remote peer.">
<polygon fill="white" stroke="#666666" points="466.5,-220 328.25,-220 328.25,-188 466.5,-188 466.5,-220"/>
<text xml:space="preserve" text-anchor="start" x="336.25" y="-206.5" font-family="Helvetica,sans-Serif" font-size="10.00">AsyncFw::DataArraySocket</text>
<text xml:space="preserve" text-anchor="middle" x="397.38" y="-194.5" font-family="Helvetica,sans-Serif" font-size="10.00">::disconnect</text>
</a>
</g>
</g>
<!-- Node14&#45;&gt;Node15 -->
<g id="edge17_Node000014_Node000015" class="edge">
<title>Node14&#45;&gt;Node15</title>
<g id="a_edge17_Node000014_Node000015"><a xlink:title=" ">
<path fill="none" stroke="#63b8ff" d="M490.81,-204C482.79,-204 474.71,-204 466.85,-204"/>
<polygon fill="#63b8ff" stroke="#63b8ff" points="490.58,-207.5 500.58,-204 490.58,-200.5 490.58,-207.5"/>
</a>
</g>
</g>
<!-- Node18 -->
<g id="Node000018" class="node">
<title>Node18</title>
<g id="a_Node000018"><a xlink:href="classAsyncFw_1_1HttpSocket.html#a33dadd18584b3b2b76a02dffa0a831fb" target="_top" xlink:title="Shuts down the active TLS session gracefully via SSL_shutdown() before terminating the network pipe.">
<polygon fill="white" stroke="#666666" points="453.75,-126 341,-126 341,-94 453.75,-94 453.75,-126"/>
<text xml:space="preserve" text-anchor="start" x="349" y="-112.5" font-family="Helvetica,sans-Serif" font-size="10.00">AsyncFw::HttpSocket</text>
<text xml:space="preserve" text-anchor="middle" x="397.38" y="-100.5" font-family="Helvetica,sans-Serif" font-size="10.00">::disconnect</text>
</a>
</g>
</g>
<!-- Node14&#45;&gt;Node18 -->
<g id="edge20_Node000014_Node000018" class="edge">
<title>Node14&#45;&gt;Node18</title>
<g id="a_edge20_Node000014_Node000018"><a xlink:title=" ">
<path fill="none" stroke="#63b8ff" d="M533.22,-182.33C501.41,-165.27 457.76,-141.85 428.84,-126.34"/>
<polygon fill="#63b8ff" stroke="#63b8ff" points="531.3,-185.27 541.76,-186.91 534.61,-179.1 531.3,-185.27"/>
</a>
</g>
</g>
<!-- Node16 -->
<g id="Node000016" class="node">
<title>Node16</title>
<g id="a_Node000016"><a xlink:href="classAsyncFw_1_1DataArraySocket.html#a1a1f3404abcb93af27de1d7bc0a958b1" target="_top" xlink:title="Called when there is data to read.">
<polygon fill="white" stroke="#666666" points="292.25,-270 154,-270 154,-238 292.25,-238 292.25,-270"/>
<text xml:space="preserve" text-anchor="start" x="162" y="-256.5" font-family="Helvetica,sans-Serif" font-size="10.00">AsyncFw::DataArraySocket</text>
<text xml:space="preserve" text-anchor="middle" x="223.12" y="-244.5" font-family="Helvetica,sans-Serif" font-size="10.00">::readEvent</text>
</a>
</g>
</g>
<!-- Node15&#45;&gt;Node16 -->
<g id="edge18_Node000015_Node000016" class="edge">
<title>Node15&#45;&gt;Node16</title>
<g id="a_edge18_Node000015_Node000016"><a xlink:title=" ">
<path fill="none" stroke="#63b8ff" d="M329.12,-223.52C313.19,-228.15 296.36,-233.03 280.95,-237.51"/>
<polygon fill="#63b8ff" stroke="#63b8ff" points="329.89,-226.94 338.52,-220.79 327.94,-220.22 329.89,-226.94"/>
</a>
</g>
</g>
<!-- Node17 -->
<g id="Node000017" class="node">
<title>Node17</title>
<g id="a_Node000017"><a xlink:href="classAsyncFw_1_1DataArraySocket.html#ac7366a53ca9c5c43bc3c6bb88b539d53" target="_top" xlink:title="Asynchronously transmits a data array through the socket.">
<polygon fill="white" stroke="#666666" points="292.25,-220 154,-220 154,-188 292.25,-188 292.25,-220"/>
<text xml:space="preserve" text-anchor="start" x="162" y="-206.5" font-family="Helvetica,sans-Serif" font-size="10.00">AsyncFw::DataArraySocket</text>
<text xml:space="preserve" text-anchor="middle" x="223.12" y="-194.5" font-family="Helvetica,sans-Serif" font-size="10.00">::transmit</text>
</a>
</g>
</g>
<!-- Node15&#45;&gt;Node17 -->
<g id="edge19_Node000015_Node000017" class="edge">
<title>Node15&#45;&gt;Node17</title>
<g id="a_edge19_Node000015_Node000017"><a xlink:title=" ">
<path fill="none" stroke="#63b8ff" d="M316.33,-204C308.45,-204 300.5,-204 292.74,-204"/>
<polygon fill="#63b8ff" stroke="#63b8ff" points="316.29,-207.5 326.29,-204 316.29,-200.5 316.29,-207.5"/>
</a>
</g>
</g>
<!-- Node19 -->
<g id="Node000019" class="node">
<title>Node19</title>
<g id="a_Node000019"><a xlink:href="classAsyncFw_1_1HttpServer.html#ad7dae50cc3787112980fa7075a60f811" target="_top" xlink:title="Disconnects a specific client socket and clears it from the internally managed pool.">
<polygon fill="white" stroke="#666666" points="279.5,-170 166.75,-170 166.75,-138 279.5,-138 279.5,-170"/>
<text xml:space="preserve" text-anchor="start" x="174.75" y="-156.5" font-family="Helvetica,sans-Serif" font-size="10.00">AsyncFw::HttpServer</text>
<text xml:space="preserve" text-anchor="middle" x="223.12" y="-144.5" font-family="Helvetica,sans-Serif" font-size="10.00">::disconnectFromHost</text>
</a>
</g>
</g>
<!-- Node18&#45;&gt;Node19 -->
<g id="edge21_Node000018_Node000019" class="edge">
<title>Node18&#45;&gt;Node19</title>
<g id="a_edge21_Node000018_Node000019"><a xlink:title=" ">
<path fill="none" stroke="#63b8ff" d="M330.17,-126.91C313.53,-131.16 295.83,-135.68 279.77,-139.79"/>
<polygon fill="#63b8ff" stroke="#63b8ff" points="330.64,-130.4 339.46,-124.54 328.9,-123.62 330.64,-130.4"/>
</a>
</g>
</g>
<!-- Node22 -->
<g id="Node000022" class="node">
<title>Node22</title>
<g id="a_Node000022"><a xlink:href="classAsyncFw_1_1HttpServer_1_1TcpSocket.html#abb44001861ba7b24633b54ae90c2896c" target="_top" xlink:title="Triggered when new raw data is available in the socket for reading. &#160;&#160;Overrides the base behavior to ...">
<polygon fill="white" stroke="#666666" points="118,-101 0,-101 0,-69 118,-69 118,-101"/>
<text xml:space="preserve" text-anchor="start" x="8" y="-87.5" font-family="Helvetica,sans-Serif" font-size="10.00">AsyncFw::HttpServer</text>
<text xml:space="preserve" text-anchor="middle" x="59" y="-75.5" font-family="Helvetica,sans-Serif" font-size="10.00">::TcpSocket::readEvent</text>
</a>
</g>
</g>
<!-- Node18&#45;&gt;Node22 -->
<g id="edge24_Node000018_Node000022" class="edge">
<title>Node18&#45;&gt;Node22</title>
<g id="a_edge24_Node000018_Node000022"><a xlink:title=" ">
<path fill="none" stroke="#63b8ff" d="M329.67,-105.04C268.02,-100.46 177.32,-93.72 118.45,-89.34"/>
<polygon fill="#63b8ff" stroke="#63b8ff" points="329.09,-108.51 339.32,-105.76 329.61,-101.53 329.09,-108.51"/>
</a>
</g>
</g>
<!-- Node23 -->
<g id="Node000023" class="node">
<title>Node23</title>
<g id="a_Node000023"><a xlink:href="classAsyncFw_1_1HttpSocket.html#a7163448458d68f433dbdb214a6175be3" target="_top" xlink:title="Called when there is data to read.">
<polygon fill="white" stroke="#666666" points="279.5,-82 166.75,-82 166.75,-50 279.5,-50 279.5,-82"/>
<text xml:space="preserve" text-anchor="start" x="174.75" y="-68.5" font-family="Helvetica,sans-Serif" font-size="10.00">AsyncFw::HttpSocket</text>
<text xml:space="preserve" text-anchor="middle" x="223.12" y="-56.5" font-family="Helvetica,sans-Serif" font-size="10.00">::readEvent</text>
</a>
</g>
</g>
<!-- Node18&#45;&gt;Node23 -->
<g id="edge25_Node000018_Node000023" class="edge">
<title>Node18&#45;&gt;Node23</title>
<g id="a_edge25_Node000018_Node000023"><a xlink:title=" ">
<path fill="none" stroke="#63b8ff" d="M330.17,-93.09C313.53,-88.84 295.83,-84.32 279.77,-80.21"/>
<polygon fill="#63b8ff" stroke="#63b8ff" points="328.9,-96.38 339.46,-95.46 330.64,-89.6 328.9,-96.38"/>
</a>
</g>
</g>
<!-- Node24 -->
<g id="Node000024" class="node">
<title>Node24</title>
<g id="a_Node000024"><a xlink:href="classAsyncFw_1_1HttpSocket.html#ac276bcd3a5e86289eb37ea7fd062559b" target="_top" xlink:title="Called when writing to the socket is possible.">
<polygon fill="white" stroke="#666666" points="279.5,-32 166.75,-32 166.75,0 279.5,0 279.5,-32"/>
<text xml:space="preserve" text-anchor="start" x="174.75" y="-18.5" font-family="Helvetica,sans-Serif" font-size="10.00">AsyncFw::HttpSocket</text>
<text xml:space="preserve" text-anchor="middle" x="223.12" y="-6.5" font-family="Helvetica,sans-Serif" font-size="10.00">::writeEvent</text>
</a>
</g>
</g>
<!-- Node18&#45;&gt;Node24 -->
<g id="edge27_Node000018_Node000024" class="edge">
<title>Node18&#45;&gt;Node24</title>
<g id="a_edge27_Node000018_Node000024"><a xlink:title=" ">
<path fill="none" stroke="#63b8ff" d="M365.66,-86.88C345.52,-72.43 318.19,-54.13 292.25,-41 286.18,-37.93 279.64,-35.04 273.1,-32.39"/>
<polygon fill="#63b8ff" stroke="#63b8ff" points="363.57,-89.69 373.72,-92.74 367.69,-84.03 363.57,-89.69"/>
</a>
</g>
</g>
<!-- Node20 -->
<g id="Node000020" class="node">
<title>Node20</title>
<g id="a_Node000020"><a xlink:href="classAsyncFw_1_1HttpServer.html#ad3761260dfd18899afc22c6f4bc0c556" target="_top" xlink:title="Forcefully terminates all active socket connections currently retained by the server.">
<polygon fill="white" stroke="#666666" points="114.25,-210 3.75,-210 3.75,-178 114.25,-178 114.25,-210"/>
<text xml:space="preserve" text-anchor="start" x="11.75" y="-196.5" font-family="Helvetica,sans-Serif" font-size="10.00">AsyncFw::HttpServer</text>
<text xml:space="preserve" text-anchor="middle" x="59" y="-184.5" font-family="Helvetica,sans-Serif" font-size="10.00">::clearConnections</text>
</a>
</g>
</g>
<!-- Node19&#45;&gt;Node20 -->
<g id="edge22_Node000019_Node000020" class="edge">
<title>Node19&#45;&gt;Node20</title>
<g id="a_edge22_Node000019_Node000020"><a xlink:title=" ">
<path fill="none" stroke="#63b8ff" d="M155.54,-170.43C141.9,-173.79 127.69,-177.3 114.53,-180.55"/>
<polygon fill="#63b8ff" stroke="#63b8ff" points="155.99,-173.92 164.86,-168.13 154.31,-167.13 155.99,-173.92"/>
</a>
</g>
</g>
<!-- Node21 -->
<g id="Node000021" class="node">
<title>Node21</title>
<g id="a_Node000021"><a xlink:href="classAsyncFw_1_1HttpServer.html#ab3eeb1643d4482345afcd9f971c020ac" target="_top" xlink:title="Explicitly severs connections with active sockets holding custom user metadata matching data.">
<polygon fill="white" stroke="#666666" points="114.25,-160 3.75,-160 3.75,-128 114.25,-128 114.25,-160"/>
<text xml:space="preserve" text-anchor="start" x="11.75" y="-146.5" font-family="Helvetica,sans-Serif" font-size="10.00">AsyncFw::HttpServer</text>
<text xml:space="preserve" text-anchor="middle" x="59" y="-134.5" font-family="Helvetica,sans-Serif" font-size="10.00">::clearConnections</text>
</a>
</g>
</g>
<!-- Node19&#45;&gt;Node21 -->
<g id="edge23_Node000019_Node000021" class="edge">
<title>Node19&#45;&gt;Node21</title>
<g id="a_edge23_Node000019_Node000021"><a xlink:title=" ">
<path fill="none" stroke="#63b8ff" d="M155.14,-149.87C141.62,-149.03 127.56,-148.17 114.53,-147.36"/>
<polygon fill="#63b8ff" stroke="#63b8ff" points="154.62,-153.34 164.82,-150.47 155.05,-146.36 154.62,-153.34"/>
</a>
</g>
</g>
<!-- Node23&#45;&gt;Node22 -->
<g id="edge26_Node000023_Node000022" class="edge">
<title>Node23&#45;&gt;Node22</title>
<g id="a_edge26_Node000023_Node000022"><a xlink:title=" ">
<path fill="none" stroke="#63b8ff" d="M155.25,-73.84C143.02,-75.27 130.34,-76.76 118.38,-78.16"/>
<polygon fill="#63b8ff" stroke="#63b8ff" points="155.3,-77.36 164.83,-72.71 154.49,-70.4 155.3,-77.36"/>
</a>
</g>
</g>
<!-- Node25&#45;&gt;Node25 -->
<g id="edge29_Node000025_Node000025" class="edge">
<title>Node25&#45;&gt;Node25</title>
<g id="a_edge29_Node000025_Node000025"><a xlink:title=" ">
<path fill="none" stroke="#63b8ff" d="M956.16,-177.71C951.53,-181.48 942.27,-184 928.38,-184 902.97,-184 893.05,-175.58 898.61,-166.44"/>
<polygon fill="#63b8ff" stroke="#63b8ff" points="959.6,-178.39 957.88,-167.93 952.7,-177.18 959.6,-178.39"/>
</a>
</g>
</g>
<!-- Node26 -->
<g id="Node000026" class="node">
<title>Node26</title>
<g id="a_Node000026"><a xlink:href="classAsyncFw_1_1AbstractTlsSocket.html#a2d9c3d5d540b82fb516f5c56def48a02" target="_top" xlink:title="Initiates an outbound client TCP connection, automatically determining the TLS role.">
<polygon fill="white" stroke="#666666" points="827,-166 682.75,-166 682.75,-134 827,-134 827,-166"/>
<text xml:space="preserve" text-anchor="start" x="690.75" y="-152.5" font-family="Helvetica,sans-Serif" font-size="10.00">AsyncFw::AbstractTlsSocket</text>
<text xml:space="preserve" text-anchor="middle" x="754.88" y="-140.5" font-family="Helvetica,sans-Serif" font-size="10.00">::connect</text>
</a>
</g>
</g>
<!-- Node25&#45;&gt;Node26 -->
<g id="edge30_Node000025_Node000026" class="edge">
<title>Node25&#45;&gt;Node26</title>
<g id="a_edge30_Node000025_Node000026"><a xlink:title=" ">
<path fill="none" stroke="#63b8ff" d="M851.1,-150C843.22,-150 835.23,-150 827.4,-150"/>
<polygon fill="#63b8ff" stroke="#63b8ff" points="851.02,-153.5 861.02,-150 851.02,-146.5 851.02,-153.5"/>
</a>
</g>
</g>
<!-- Node27&#45;&gt;Node27 -->
<g id="edge33_Node000027_Node000027" class="edge">
<title>Node27&#45;&gt;Node27</title>
<g id="a_edge33_Node000027_Node000027"><a xlink:title=" ">
<path fill="none" stroke="#63b8ff" d="M956.16,-109.71C951.53,-113.48 942.27,-116 928.38,-116 902.97,-116 893.05,-107.58 898.61,-98.44"/>
<polygon fill="#63b8ff" stroke="#63b8ff" points="959.6,-110.39 957.88,-99.93 952.7,-109.18 959.6,-110.39"/>
</a>
</g>
</g>
<!-- Node28 -->
<g id="Node000028" class="node">
<title>Node28</title>
<g id="a_Node000028"><a xlink:href="classAsyncFw_1_1HttpServer.html#aa1ce738d4f20186506c1c4f4290a8a3d" target="_top" xlink:title="Binds to all available interfaces (0.0.0.0) and starts listening for incoming traffic on a specific T...">
<polygon fill="white" stroke="#666666" points="629.88,-73 519.38,-73 519.38,-41 629.88,-41 629.88,-73"/>
<text xml:space="preserve" text-anchor="start" x="527.38" y="-59.5" font-family="Helvetica,sans-Serif" font-size="10.00">AsyncFw::HttpServer</text>
<text xml:space="preserve" text-anchor="middle" x="574.62" y="-47.5" font-family="Helvetica,sans-Serif" font-size="10.00">::listen</text>
</a>
</g>
</g>
<!-- Node27&#45;&gt;Node28 -->
<g id="edge34_Node000027_Node000028" class="edge">
<title>Node27&#45;&gt;Node28</title>
<g id="a_edge34_Node000027_Node000028"><a xlink:title=" ">
<path fill="none" stroke="#63b8ff" d="M851.6,-76.61C784.96,-71.88 689.6,-65.1 630.21,-60.88"/>
<polygon fill="#63b8ff" stroke="#63b8ff" points="851.13,-80.09 861.35,-77.31 851.62,-73.11 851.13,-80.09"/>
</a>
</g>
</g>
<!-- Node30 -->
<g id="Node000030" class="node">
<title>Node30</title>
<g id="a_Node000030"><a xlink:href="classAsyncFw_1_1AbstractTlsSocket.html#a89721fd68ed3de138aa6167dd98ec5fa" target="_top" xlink:title="Binds a raw native operating system socket descriptor to this managed context.">
<polygon fill="white" stroke="#666666" points="827,-50 682.75,-50 682.75,-18 827,-18 827,-50"/>
<text xml:space="preserve" text-anchor="start" x="690.75" y="-36.5" font-family="Helvetica,sans-Serif" font-size="10.00">AsyncFw::AbstractTlsSocket</text>
<text xml:space="preserve" text-anchor="middle" x="754.88" y="-24.5" font-family="Helvetica,sans-Serif" font-size="10.00">::setDescriptor</text>
</a>
</g>
</g>
<!-- Node29&#45;&gt;Node30 -->
<g id="edge36_Node000029_Node000030" class="edge">
<title>Node29&#45;&gt;Node30</title>
<g id="a_edge36_Node000029_Node000030"><a xlink:title=" ">
<path fill="none" stroke="#63b8ff" d="M851.1,-32.89C843.22,-32.98 835.23,-33.07 827.4,-33.17"/>
<polygon fill="#63b8ff" stroke="#63b8ff" points="851.07,-36.39 861.02,-32.77 850.98,-29.39 851.07,-36.39"/>
</a>
</g>
</g>
<!-- Node30&#45;&gt;Node28 -->
<g id="edge37_Node000030_Node000028" class="edge">
<title>Node30&#45;&gt;Node28</title>
<g id="a_edge37_Node000030_Node000028"><a xlink:title=" ">
<path fill="none" stroke="#63b8ff" d="M671.33,-44.65C657.44,-46.44 643.33,-48.26 630.37,-49.94"/>
<polygon fill="#63b8ff" stroke="#63b8ff" points="671.43,-48.17 680.9,-43.42 670.53,-41.22 671.43,-48.17"/>
</a>
</g>
</g>
</g>
</svg>
