<?xml version="1.0" encoding="UTF-8" standalone="no"?>
<!DOCTYPE svg PUBLIC "-//W3C//DTD SVG 1.1//EN"
 "http://www.w3.org/Graphics/SVG/1.1/DTD/svg11.dtd">
<!-- Generated by graphviz version 12.2.1 (20241206.2353)
 -->
<!-- Title: AsyncFw::PollNotifier Pages: 1 -->
<svg width="225pt" height="188pt"
 viewBox="0.00 0.00 224.88 188.00" xmlns="http://www.w3.org/2000/svg" xmlns:xlink="http://www.w3.org/1999/xlink">
<g id="graph0" class="graph" transform="scale(1 1) rotate(0) translate(4 184)">
<title>AsyncFw::PollNotifier</title>
<!-- Node1 -->
<g id="Node000001" class="node">
<title>Node1</title>
<g id="a_Node000001"><a xlink:title="The PollNotifier class Example:">
<polygon fill="#999999" stroke="#666666" points="132.25,-20 21,-20 21,0 132.25,0 132.25,-20"/>
<text text-anchor="middle" x="76.62" y="-6.5" font-family="Helvetica,sans-Serif" font-size="10.00">AsyncFw::PollNotifier</text>
</a>
</g>
</g>
<!-- Node2 -->
<g id="Node000002" class="node">
<title>Node2</title>
<g id="a_Node000002"><a xlink:href="classAsyncFw_1_1FunctionConnector.html" target="_top" xlink:title=" ">
<polygon fill="white" stroke="#666666" points="153.25,-100 0,-100 0,-68 153.25,-68 153.25,-100"/>
<text text-anchor="start" x="8" y="-86.5" font-family="Helvetica,sans-Serif" font-size="10.00">AsyncFw::FunctionConnector</text>
<text text-anchor="middle" x="76.62" y="-74.5" font-family="Helvetica,sans-Serif" font-size="10.00">&lt; AbstractThread::PollEvents &gt;</text>
</a>
</g>
</g>
<!-- Node2&#45;&gt;Node1 -->
<g id="edge1_Node000001_Node000002" class="edge">
<title>Node2&#45;&gt;Node1</title>
<g id="a_edge1_Node000001_Node000002"><a xlink:title=" ">
<path fill="none" stroke="#9a32cd" stroke-dasharray="5,2" d="M76.62,-56.34C76.62,-43.7 76.62,-29.41 76.62,-20.31"/>
<polygon fill="#9a32cd" stroke="#9a32cd" points="73.13,-56.22 76.63,-66.22 80.13,-56.22 73.13,-56.22"/>
</a>
</g>
<text text-anchor="middle" x="90.12" y="-40.5" font-family="Helvetica,sans-Serif" font-size="10.00" fill="grey"> notify</text>
</g>
<!-- Node3 -->
<g id="Node000003" class="node">
<title>Node3</title>
<g id="a_Node000003"><a xlink:href="classAsyncFw_1_1FunctionConnector.html" target="_top" xlink:title="Provides a thread&#45;safe, publisher&#45;subscriber mechanism to establish sender&#45;to&#45;receivers connections.">
<polygon fill="white" stroke="#666666" points="149.5,-180 3.75,-180 3.75,-148 149.5,-148 149.5,-180"/>
<text text-anchor="start" x="11.75" y="-166.5" font-family="Helvetica,sans-Serif" font-size="10.00">AsyncFw::FunctionConnector</text>
<text text-anchor="middle" x="76.62" y="-154.5" font-family="Helvetica,sans-Serif" font-size="10.00">&lt; Args &gt;</text>
</a>
</g>
</g>
<!-- Node3&#45;&gt;Node2 -->
<g id="edge2_Node000002_Node000003" class="edge">
<title>Node3&#45;&gt;Node2</title>
<g id="a_edge2_Node000002_Node000003"><a xlink:title=" ">
<path fill="none" stroke="orange" stroke-dasharray="5,2" d="M76.62,-136.37C76.62,-124.37 76.62,-110.63 76.62,-100.38"/>
<polygon fill="orange" stroke="orange" points="73.13,-136.08 76.63,-146.08 80.13,-136.08 73.13,-136.08"/>
</a>
</g>
<text text-anchor="middle" x="146.75" y="-120.5" font-family="Helvetica,sans-Serif" font-size="10.00" fill="grey"> &lt; AbstractThread::PollEvents &gt;</text>
</g>
</g>
</svg>
