<?xml version="1.0" encoding="UTF-8" standalone="no"?>
<!DOCTYPE svg PUBLIC "-//W3C//DTD SVG 1.1//EN"
 "http://www.w3.org/Graphics/SVG/1.1/DTD/svg11.dtd">
<!-- Generated by graphviz version 14.1.3 (20260303.0454)
 -->
<!-- Title: AsyncFw::HttpSocket::readEvent Pages: 1 -->
<svg width="450pt" height="90pt"
 viewBox="0.00 0.00 450.00 90.00" xmlns="http://www.w3.org/2000/svg" xmlns:xlink="http://www.w3.org/1999/xlink">
<g id="graph0" class="graph" transform="scale(1 1) rotate(0) translate(4 86)">
<title>AsyncFw::HttpSocket::readEvent</title>
<!-- Node1 -->
<g id="Node000001" class="node">
<title>Node1</title>
<g id="a_Node000001"><a xlink:title="Called when there is data to read.">
<polygon fill="#999999" stroke="#666666" points="112.75,-57 0,-57 0,-25 112.75,-25 112.75,-57"/>
<text xml:space="preserve" text-anchor="start" x="8" y="-43.5" font-family="Helvetica,sans-Serif" font-size="10.00">AsyncFw::HttpSocket</text>
<text xml:space="preserve" text-anchor="middle" x="56.38" y="-31.5" font-family="Helvetica,sans-Serif" font-size="10.00">::readEvent</text>
</a>
</g>
</g>
<!-- Node2 -->
<g id="Node000002" class="node">
<title>Node2</title>
<g id="a_Node000002"><a xlink:href="classAsyncFw_1_1HttpSocket.html#a33dadd18584b3b2b76a02dffa0a831fb" target="_top" xlink:title="Shuts down the active TLS session gracefully via SSL_shutdown() before terminating the network pipe.">
<polygon fill="white" stroke="#666666" points="261.5,-82 148.75,-82 148.75,-50 261.5,-50 261.5,-82"/>
<text xml:space="preserve" text-anchor="start" x="156.75" y="-68.5" font-family="Helvetica,sans-Serif" font-size="10.00">AsyncFw::HttpSocket</text>
<text xml:space="preserve" text-anchor="middle" x="205.12" y="-56.5" font-family="Helvetica,sans-Serif" font-size="10.00">::disconnect</text>
</a>
</g>
</g>
<!-- Node1&#45;&gt;Node2 -->
<g id="edge1_Node000001_Node000002" class="edge">
<title>Node1&#45;&gt;Node2</title>
<g id="a_edge1_Node000001_Node000002"><a xlink:title=" ">
<path fill="none" stroke="#63b8ff" d="M112.85,-50.45C120.89,-51.82 129.23,-53.24 137.46,-54.64"/>
<polygon fill="#63b8ff" stroke="#63b8ff" points="136.63,-58.05 147.07,-56.28 137.8,-51.15 136.63,-58.05"/>
</a>
</g>
</g>
<!-- Node4 -->
<g id="Node000004" class="node">
<title>Node4</title>
<g id="a_Node000004"><a xlink:href="classAsyncFw_1_1DataArray.html#a5406261e5730adfa64e4d0bbd0083e31" target="_top" xlink:title="Creates a lightweight, non&#45;allocating view slicing a sub&#45;region of this byte array.">
<polygon fill="white" stroke="#666666" points="258.88,-32 151.38,-32 151.38,0 258.88,0 258.88,-32"/>
<text xml:space="preserve" text-anchor="start" x="159.38" y="-18.5" font-family="Helvetica,sans-Serif" font-size="10.00">AsyncFw::DataArray</text>
<text xml:space="preserve" text-anchor="middle" x="205.12" y="-6.5" font-family="Helvetica,sans-Serif" font-size="10.00">::view</text>
</a>
</g>
</g>
<!-- Node1&#45;&gt;Node4 -->
<g id="edge3_Node000001_Node000004" class="edge">
<title>Node1&#45;&gt;Node4</title>
<g id="a_edge3_Node000001_Node000004"><a xlink:title=" ">
<path fill="none" stroke="#63b8ff" d="M112.85,-31.55C121.64,-30.05 130.8,-28.49 139.77,-26.96"/>
<polygon fill="#63b8ff" stroke="#63b8ff" points="140.23,-30.44 149.5,-25.31 139.05,-23.53 140.23,-30.44"/>
</a>
</g>
</g>
<!-- Node3 -->
<g id="Node000003" class="node">
<title>Node3</title>
<g id="a_Node000003"><a xlink:href="classAsyncFw_1_1AbstractTlsSocket.html#af52f94f709ab74eace61da79cbd8af7d" target="_top" xlink:title="Shuts down the active TLS session gracefully via SSL_shutdown() before terminating the network pipe.">
<polygon fill="white" stroke="#666666" points="441.75,-82 297.5,-82 297.5,-50 441.75,-50 441.75,-82"/>
<text xml:space="preserve" text-anchor="start" x="305.5" y="-68.5" font-family="Helvetica,sans-Serif" font-size="10.00">AsyncFw::AbstractTlsSocket</text>
<text xml:space="preserve" text-anchor="middle" x="369.62" y="-56.5" font-family="Helvetica,sans-Serif" font-size="10.00">::disconnect</text>
</a>
</g>
</g>
<!-- Node2&#45;&gt;Node3 -->
<g id="edge2_Node000002_Node000003" class="edge">
<title>Node2&#45;&gt;Node3</title>
<g id="a_edge2_Node000002_Node000003"><a xlink:title=" ">
<path fill="none" stroke="#63b8ff" d="M261.59,-66C269.34,-66 277.44,-66 285.56,-66"/>
<polygon fill="#63b8ff" stroke="#63b8ff" points="285.52,-69.5 295.52,-66 285.52,-62.5 285.52,-69.5"/>
</a>
</g>
</g>
</g>
</svg>
