<?xml version="1.0" encoding="UTF-8" standalone="no"?>
<!DOCTYPE svg PUBLIC "-//W3C//DTD SVG 1.1//EN"
 "http://www.w3.org/Graphics/SVG/1.1/DTD/svg11.dtd">
<!-- Generated by graphviz version 14.1.3 (20260303.0454)
 -->
<!-- Title: AsyncFw::AbstractSocket::close Pages: 1 -->
<svg width="1002pt" height="428pt"
 viewBox="0.00 0.00 1002.00 428.00" xmlns="http://www.w3.org/2000/svg" xmlns:xlink="http://www.w3.org/1999/xlink">
<g id="graph0" class="graph" transform="scale(1 1) rotate(0) translate(4 424)">
<title>AsyncFw::AbstractSocket::close</title>
<!-- Node1 -->
<g id="Node000001" class="node">
<title>Node1</title>
<g id="a_Node000001"><a xlink:title="Closes the network connection and unsubscribes from thread polling events.">
<polygon fill="#999999" stroke="#666666" points="993.75,-307 863,-307 863,-275 993.75,-275 993.75,-307"/>
<text xml:space="preserve" text-anchor="start" x="871" y="-293.5" font-family="Helvetica,sans-Serif" font-size="10.00">AsyncFw::AbstractSocket</text>
<text xml:space="preserve" text-anchor="middle" x="928.38" y="-281.5" font-family="Helvetica,sans-Serif" font-size="10.00">::close</text>
</a>
</g>
</g>
<!-- Node2 -->
<g id="Node000002" class="node">
<title>Node2</title>
<g id="a_Node000002"><a xlink:href="classAsyncFw_1_1AbstractTlsSocket.html#a46dbd8e4895445214a4f46ee46433d6c" target="_top" xlink:title="Immediately releases OpenSSL session pointers and forcefully closes the system&#45;level descriptor.">
<polygon fill="white" stroke="#666666" points="827,-363 682.75,-363 682.75,-331 827,-331 827,-363"/>
<text xml:space="preserve" text-anchor="start" x="690.75" y="-349.5" font-family="Helvetica,sans-Serif" font-size="10.00">AsyncFw::AbstractTlsSocket</text>
<text xml:space="preserve" text-anchor="middle" x="754.88" y="-337.5" font-family="Helvetica,sans-Serif" font-size="10.00">::close</text>
</a>
</g>
</g>
<!-- Node1&#45;&gt;Node2 -->
<g id="edge1_Node000001_Node000002" class="edge">
<title>Node1&#45;&gt;Node2</title>
<g id="a_edge1_Node000001_Node000002"><a xlink:title=" ">
<path fill="none" stroke="#63b8ff" d="M865.9,-311.07C846.37,-317.45 825,-324.43 806.34,-330.52"/>
<polygon fill="#63b8ff" stroke="#63b8ff" points="866.99,-314.4 875.41,-307.97 864.82,-307.75 866.99,-314.4"/>
</a>
</g>
</g>
<!-- Node7 -->
<g id="Node000007" class="node">
<title>Node7</title>
<g id="a_Node000007"><a xlink:href="classAsyncFw_1_1AbstractSocket.html#a73a200f0008dbf9f820bdb2b8a0054cf" target="_top" xlink:title="Schedules the socket for deferred asynchronous destruction.">
<polygon fill="white" stroke="#666666" points="820.25,-307 689.5,-307 689.5,-275 820.25,-275 820.25,-307"/>
<text xml:space="preserve" text-anchor="start" x="697.5" y="-293.5" font-family="Helvetica,sans-Serif" font-size="10.00">AsyncFw::AbstractSocket</text>
<text xml:space="preserve" text-anchor="middle" x="754.88" y="-281.5" font-family="Helvetica,sans-Serif" font-size="10.00">::destroy</text>
</a>
</g>
</g>
<!-- Node1&#45;&gt;Node7 -->
<g id="edge7_Node000001_Node000007" class="edge">
<title>Node1&#45;&gt;Node7</title>
<g id="a_edge7_Node000001_Node000007"><a xlink:title=" ">
<path fill="none" stroke="#63b8ff" d="M851.12,-291C840.9,-291 830.51,-291 820.52,-291"/>
<polygon fill="#63b8ff" stroke="#63b8ff" points="851.02,-294.5 861.02,-291 851.02,-287.5 851.02,-294.5"/>
</a>
</g>
</g>
<!-- Node10 -->
<g id="Node000010" class="node">
<title>Node10</title>
<g id="a_Node000010"><a xlink:href="classAsyncFw_1_1AbstractSocket.html#a96c331ff22db7a34923c34f575075e6a" target="_top" xlink:title="Disconnects the socket from the remote host gracefully.">
<polygon fill="white" stroke="#666666" points="820.25,-245 689.5,-245 689.5,-213 820.25,-213 820.25,-245"/>
<text xml:space="preserve" text-anchor="start" x="697.5" y="-231.5" font-family="Helvetica,sans-Serif" font-size="10.00">AsyncFw::AbstractSocket</text>
<text xml:space="preserve" text-anchor="middle" x="754.88" y="-219.5" font-family="Helvetica,sans-Serif" font-size="10.00">::disconnect</text>
</a>
</g>
</g>
<!-- Node1&#45;&gt;Node10 -->
<g id="edge11_Node000001_Node000010" class="edge">
<title>Node1&#45;&gt;Node10</title>
<g id="a_edge11_Node000001_Node000010"><a xlink:title=" ">
<path fill="none" stroke="#63b8ff" d="M871.04,-270.64C848.42,-262.46 822.69,-253.16 801.3,-245.42"/>
<polygon fill="#63b8ff" stroke="#63b8ff" points="869.85,-273.92 880.44,-274.03 872.23,-267.34 869.85,-273.92"/>
</a>
</g>
</g>
<!-- Node3 -->
<g id="Node000003" class="node">
<title>Node3</title>
<g id="a_Node000003"><a xlink:href="classAsyncFw_1_1AbstractTlsSocket.html#a57ac6daff9926cf631abcd1e19073cc8" target="_top" xlink:title="Core internal event handler reacting to raw descriptor readiness signals.">
<polygon fill="white" stroke="#666666" points="646.75,-420 502.5,-420 502.5,-388 646.75,-388 646.75,-420"/>
<text xml:space="preserve" text-anchor="start" x="510.5" y="-406.5" font-family="Helvetica,sans-Serif" font-size="10.00">AsyncFw::AbstractTlsSocket</text>
<text xml:space="preserve" text-anchor="middle" x="574.62" y="-394.5" font-family="Helvetica,sans-Serif" font-size="10.00">::activateEvent</text>
</a>
</g>
</g>
<!-- Node2&#45;&gt;Node3 -->
<g id="edge2_Node000002_Node000003" class="edge">
<title>Node2&#45;&gt;Node3</title>
<g id="a_edge2_Node000002_Node000003"><a xlink:title=" ">
<path fill="none" stroke="#63b8ff" d="M691.53,-366.94C670.46,-373.67 647.19,-381.11 627.07,-387.55"/>
<polygon fill="#63b8ff" stroke="#63b8ff" points="692.42,-370.33 700.88,-363.95 690.29,-363.66 692.42,-370.33"/>
</a>
</g>
</g>
<!-- Node5 -->
<g id="Node000005" class="node">
<title>Node5</title>
<g id="a_Node000005"><a xlink:href="classAsyncFw_1_1HttpSocket.html#a96932e5f6b5f84c4f204b0e6e4ef8472" target="_top" xlink:title="Immediately releases OpenSSL session pointers and forcefully closes the system&#45;level descriptor.">
<polygon fill="white" stroke="#666666" points="631,-370 518.25,-370 518.25,-338 631,-338 631,-370"/>
<text xml:space="preserve" text-anchor="start" x="526.25" y="-356.5" font-family="Helvetica,sans-Serif" font-size="10.00">AsyncFw::HttpSocket</text>
<text xml:space="preserve" text-anchor="middle" x="574.62" y="-344.5" font-family="Helvetica,sans-Serif" font-size="10.00">::close</text>
</a>
</g>
</g>
<!-- Node2&#45;&gt;Node5 -->
<g id="edge4_Node000002_Node000005" class="edge">
<title>Node2&#45;&gt;Node5</title>
<g id="a_edge4_Node000002_Node000005"><a xlink:title=" ">
<path fill="none" stroke="#63b8ff" d="M671.18,-350.25C657.73,-350.78 644.08,-351.31 631.48,-351.81"/>
<polygon fill="#63b8ff" stroke="#63b8ff" points="671.03,-353.76 680.89,-349.87 670.76,-346.76 671.03,-353.76"/>
</a>
</g>
</g>
<!-- Node6 -->
<g id="Node000006" class="node">
<title>Node6</title>
<g id="a_Node000006"><a xlink:href="classAsyncFw_1_1DataArrayAbstractTcp_1_1Thread.html#ab6df6de1f9828a772e5968477ce5dffa" target="_top" xlink:title="Performs cleanup routines and safely removes a socket from the thread loop.">
<polygon fill="white" stroke="#666666" points="646.75,-320 502.5,-320 502.5,-288 646.75,-288 646.75,-320"/>
<text xml:space="preserve" text-anchor="start" x="510.5" y="-306.5" font-family="Helvetica,sans-Serif" font-size="10.00">AsyncFw::DataArrayAbstract</text>
<text xml:space="preserve" text-anchor="middle" x="574.62" y="-294.5" font-family="Helvetica,sans-Serif" font-size="10.00">Tcp::Thread::destroySocket</text>
</a>
</g>
</g>
<!-- Node2&#45;&gt;Node6 -->
<g id="edge6_Node000002_Node000006" class="edge">
<title>Node2&#45;&gt;Node6</title>
<g id="a_edge6_Node000002_Node000006"><a xlink:title=" ">
<path fill="none" stroke="#63b8ff" d="M674.64,-327.88C664.33,-325.4 653.84,-322.87 643.74,-320.43"/>
<polygon fill="#63b8ff" stroke="#63b8ff" points="673.71,-331.26 684.25,-330.2 675.35,-324.46 673.71,-331.26"/>
</a>
</g>
</g>
<!-- Node4 -->
<g id="Node000004" class="node">
<title>Node4</title>
<g id="a_Node000004"><a xlink:href="classAsyncFw_1_1HttpSocket.html#ad51bb1bf5880c3037c7ad70231c0767d" target="_top" xlink:title="Core internal event handler reacting to raw descriptor readiness signals.">
<polygon fill="white" stroke="#666666" points="453.75,-395 341,-395 341,-363 453.75,-363 453.75,-395"/>
<text xml:space="preserve" text-anchor="start" x="349" y="-381.5" font-family="Helvetica,sans-Serif" font-size="10.00">AsyncFw::HttpSocket</text>
<text xml:space="preserve" text-anchor="middle" x="397.38" y="-369.5" font-family="Helvetica,sans-Serif" font-size="10.00">::activateEvent</text>
</a>
</g>
</g>
<!-- Node3&#45;&gt;Node4 -->
<g id="edge3_Node000003_Node000004" class="edge">
<title>Node3&#45;&gt;Node4</title>
<g id="a_edge3_Node000003_Node000004"><a xlink:title=" ">
<path fill="none" stroke="#63b8ff" d="M490.75,-392.18C478.33,-390.41 465.79,-388.62 454.12,-386.95"/>
<polygon fill="#63b8ff" stroke="#63b8ff" points="490.2,-395.63 500.59,-393.58 491.19,-388.7 490.2,-395.63"/>
</a>
</g>
</g>
<!-- Node5&#45;&gt;Node4 -->
<g id="edge5_Node000005_Node000004" class="edge">
<title>Node5&#45;&gt;Node4</title>
<g id="a_edge5_Node000005_Node000004"><a xlink:title=" ">
<path fill="none" stroke="#63b8ff" d="M506.92,-363.52C489.48,-366 470.86,-368.66 454.07,-371.06"/>
<polygon fill="#63b8ff" stroke="#63b8ff" points="507.27,-367 516.68,-362.12 506.28,-360.07 507.27,-367"/>
</a>
</g>
</g>
<!-- Node7&#45;&gt;Node6 -->
<g id="edge10_Node000007_Node000006" class="edge">
<title>Node7&#45;&gt;Node6</title>
<g id="a_edge10_Node000007_Node000006"><a xlink:title=" ">
<path fill="none" stroke="#63b8ff" d="M677.68,-296.56C667.52,-297.3 657.13,-298.06 647.06,-298.79"/>
<polygon fill="#63b8ff" stroke="#63b8ff" points="677.79,-300.06 687.51,-295.84 677.28,-293.08 677.79,-300.06"/>
</a>
</g>
</g>
<!-- Node8 -->
<g id="Node000008" class="node">
<title>Node8</title>
<g id="a_Node000008"><a xlink:href="classAsyncFw_1_1HttpSocket.html#a8268467d3581a4d393e9ccd288de32ff" target="_top" xlink:title="Schedules the socket for deferred asynchronous destruction.">
<polygon fill="white" stroke="#666666" points="631,-270 518.25,-270 518.25,-238 631,-238 631,-270"/>
<text xml:space="preserve" text-anchor="start" x="526.25" y="-256.5" font-family="Helvetica,sans-Serif" font-size="10.00">AsyncFw::HttpSocket</text>
<text xml:space="preserve" text-anchor="middle" x="574.62" y="-244.5" font-family="Helvetica,sans-Serif" font-size="10.00">::destroy</text>
</a>
</g>
</g>
<!-- Node7&#45;&gt;Node8 -->
<g id="edge8_Node000007_Node000008" class="edge">
<title>Node7&#45;&gt;Node8</title>
<g id="a_edge8_Node000007_Node000008"><a xlink:title=" ">
<path fill="none" stroke="#63b8ff" d="M677.78,-275.21C662.18,-271.97 646.04,-268.62 631.32,-265.56"/>
<polygon fill="#63b8ff" stroke="#63b8ff" points="677.03,-278.62 687.54,-277.23 678.46,-271.77 677.03,-278.62"/>
</a>
</g>
</g>
<!-- Node9 -->
<g id="Node000009" class="node">
<title>Node9</title>
<g id="a_Node000009"><a xlink:href="classAsyncFw_1_1HttpServer_1_1TcpSocket.html#a41557b69e30e25b97cbdda210afb7657" target="_top" xlink:title="Constructs a new TcpSocket associated with the parent server.">
<polygon fill="white" stroke="#666666" points="457.12,-270 337.62,-270 337.62,-238 457.12,-238 457.12,-270"/>
<text xml:space="preserve" text-anchor="start" x="345.62" y="-256.5" font-family="Helvetica,sans-Serif" font-size="10.00">AsyncFw::HttpServer</text>
<text xml:space="preserve" text-anchor="middle" x="397.38" y="-244.5" font-family="Helvetica,sans-Serif" font-size="10.00">::TcpSocket::TcpSocket</text>
</a>
</g>
</g>
<!-- Node8&#45;&gt;Node9 -->
<g id="edge9_Node000008_Node000009" class="edge">
<title>Node8&#45;&gt;Node9</title>
<g id="a_edge9_Node000008_Node000009"><a xlink:title=" ">
<path fill="none" stroke="#63b8ff" d="M507.06,-254C490.73,-254 473.35,-254 457.4,-254"/>
<polygon fill="#63b8ff" stroke="#63b8ff" points="506.66,-257.5 516.66,-254 506.66,-250.5 506.66,-257.5"/>
</a>
</g>
</g>
<!-- Node11 -->
<g id="Node000011" class="node">
<title>Node11</title>
<g id="a_Node000011"><a xlink:href="classAsyncFw_1_1AbstractTlsSocket.html#af52f94f709ab74eace61da79cbd8af7d" target="_top" xlink:title="Shuts down the active TLS session gracefully via SSL_shutdown() before terminating the network pipe.">
<polygon fill="white" stroke="#666666" points="646.75,-220 502.5,-220 502.5,-188 646.75,-188 646.75,-220"/>
<text xml:space="preserve" text-anchor="start" x="510.5" y="-206.5" font-family="Helvetica,sans-Serif" font-size="10.00">AsyncFw::AbstractTlsSocket</text>
<text xml:space="preserve" text-anchor="middle" x="574.62" y="-194.5" font-family="Helvetica,sans-Serif" font-size="10.00">::disconnect</text>
</a>
</g>
</g>
<!-- Node10&#45;&gt;Node11 -->
<g id="edge12_Node000010_Node000011" class="edge">
<title>Node10&#45;&gt;Node11</title>
<g id="a_edge12_Node000010_Node000011"><a xlink:title=" ">
<path fill="none" stroke="#63b8ff" d="M677.68,-218.31C667.52,-216.89 657.13,-215.43 647.06,-214.02"/>
<polygon fill="#63b8ff" stroke="#63b8ff" points="677.13,-221.77 687.52,-219.69 678.1,-214.84 677.13,-221.77"/>
</a>
</g>
</g>
<!-- Node12 -->
<g id="Node000012" class="node">
<title>Node12</title>
<g id="a_Node000012"><a xlink:href="classAsyncFw_1_1DataArraySocket.html#a9942cbf100e7898ba95c8fb92e059ae8" target="_top" xlink:title="Disconnects the socket from the remote peer.">
<polygon fill="white" stroke="#666666" points="466.5,-220 328.25,-220 328.25,-188 466.5,-188 466.5,-220"/>
<text xml:space="preserve" text-anchor="start" x="336.25" y="-206.5" font-family="Helvetica,sans-Serif" font-size="10.00">AsyncFw::DataArraySocket</text>
<text xml:space="preserve" text-anchor="middle" x="397.38" y="-194.5" font-family="Helvetica,sans-Serif" font-size="10.00">::disconnect</text>
</a>
</g>
</g>
<!-- Node11&#45;&gt;Node12 -->
<g id="edge13_Node000011_Node000012" class="edge">
<title>Node11&#45;&gt;Node12</title>
<g id="a_edge13_Node000011_Node000012"><a xlink:title=" ">
<path fill="none" stroke="#63b8ff" d="M490.81,-204C482.79,-204 474.71,-204 466.85,-204"/>
<polygon fill="#63b8ff" stroke="#63b8ff" points="490.58,-207.5 500.58,-204 490.58,-200.5 490.58,-207.5"/>
</a>
</g>
</g>
<!-- Node15 -->
<g id="Node000015" class="node">
<title>Node15</title>
<g id="a_Node000015"><a xlink:href="classAsyncFw_1_1HttpSocket.html#a33dadd18584b3b2b76a02dffa0a831fb" target="_top" xlink:title="Shuts down the active TLS session gracefully via SSL_shutdown() before terminating the network pipe.">
<polygon fill="white" stroke="#666666" points="453.75,-126 341,-126 341,-94 453.75,-94 453.75,-126"/>
<text xml:space="preserve" text-anchor="start" x="349" y="-112.5" font-family="Helvetica,sans-Serif" font-size="10.00">AsyncFw::HttpSocket</text>
<text xml:space="preserve" text-anchor="middle" x="397.38" y="-100.5" font-family="Helvetica,sans-Serif" font-size="10.00">::disconnect</text>
</a>
</g>
</g>
<!-- Node11&#45;&gt;Node15 -->
<g id="edge16_Node000011_Node000015" class="edge">
<title>Node11&#45;&gt;Node15</title>
<g id="a_edge16_Node000011_Node000015"><a xlink:title=" ">
<path fill="none" stroke="#63b8ff" d="M533.22,-182.33C501.41,-165.27 457.76,-141.85 428.84,-126.34"/>
<polygon fill="#63b8ff" stroke="#63b8ff" points="531.3,-185.27 541.76,-186.91 534.61,-179.1 531.3,-185.27"/>
</a>
</g>
</g>
<!-- Node13 -->
<g id="Node000013" class="node">
<title>Node13</title>
<g id="a_Node000013"><a xlink:href="classAsyncFw_1_1DataArraySocket.html#a1a1f3404abcb93af27de1d7bc0a958b1" target="_top" xlink:title="Called when there is data to read.">
<polygon fill="white" stroke="#666666" points="292.25,-270 154,-270 154,-238 292.25,-238 292.25,-270"/>
<text xml:space="preserve" text-anchor="start" x="162" y="-256.5" font-family="Helvetica,sans-Serif" font-size="10.00">AsyncFw::DataArraySocket</text>
<text xml:space="preserve" text-anchor="middle" x="223.12" y="-244.5" font-family="Helvetica,sans-Serif" font-size="10.00">::readEvent</text>
</a>
</g>
</g>
<!-- Node12&#45;&gt;Node13 -->
<g id="edge14_Node000012_Node000013" class="edge">
<title>Node12&#45;&gt;Node13</title>
<g id="a_edge14_Node000012_Node000013"><a xlink:title=" ">
<path fill="none" stroke="#63b8ff" d="M329.12,-223.52C313.19,-228.15 296.36,-233.03 280.95,-237.51"/>
<polygon fill="#63b8ff" stroke="#63b8ff" points="329.89,-226.94 338.52,-220.79 327.94,-220.22 329.89,-226.94"/>
</a>
</g>
</g>
<!-- Node14 -->
<g id="Node000014" class="node">
<title>Node14</title>
<g id="a_Node000014"><a xlink:href="classAsyncFw_1_1DataArraySocket.html#ac7366a53ca9c5c43bc3c6bb88b539d53" target="_top" xlink:title="Asynchronously transmits a data array through the socket.">
<polygon fill="white" stroke="#666666" points="292.25,-220 154,-220 154,-188 292.25,-188 292.25,-220"/>
<text xml:space="preserve" text-anchor="start" x="162" y="-206.5" font-family="Helvetica,sans-Serif" font-size="10.00">AsyncFw::DataArraySocket</text>
<text xml:space="preserve" text-anchor="middle" x="223.12" y="-194.5" font-family="Helvetica,sans-Serif" font-size="10.00">::transmit</text>
</a>
</g>
</g>
<!-- Node12&#45;&gt;Node14 -->
<g id="edge15_Node000012_Node000014" class="edge">
<title>Node12&#45;&gt;Node14</title>
<g id="a_edge15_Node000012_Node000014"><a xlink:title=" ">
<path fill="none" stroke="#63b8ff" d="M316.33,-204C308.45,-204 300.5,-204 292.74,-204"/>
<polygon fill="#63b8ff" stroke="#63b8ff" points="316.29,-207.5 326.29,-204 316.29,-200.5 316.29,-207.5"/>
</a>
</g>
</g>
<!-- Node16 -->
<g id="Node000016" class="node">
<title>Node16</title>
<g id="a_Node000016"><a xlink:href="classAsyncFw_1_1HttpServer.html#ad7dae50cc3787112980fa7075a60f811" target="_top" xlink:title="Disconnects a specific client socket and clears it from the internally managed pool.">
<polygon fill="white" stroke="#666666" points="279.5,-170 166.75,-170 166.75,-138 279.5,-138 279.5,-170"/>
<text xml:space="preserve" text-anchor="start" x="174.75" y="-156.5" font-family="Helvetica,sans-Serif" font-size="10.00">AsyncFw::HttpServer</text>
<text xml:space="preserve" text-anchor="middle" x="223.12" y="-144.5" font-family="Helvetica,sans-Serif" font-size="10.00">::disconnectFromHost</text>
</a>
</g>
</g>
<!-- Node15&#45;&gt;Node16 -->
<g id="edge17_Node000015_Node000016" class="edge">
<title>Node15&#45;&gt;Node16</title>
<g id="a_edge17_Node000015_Node000016"><a xlink:title=" ">
<path fill="none" stroke="#63b8ff" d="M330.17,-126.91C313.53,-131.16 295.83,-135.68 279.77,-139.79"/>
<polygon fill="#63b8ff" stroke="#63b8ff" points="330.64,-130.4 339.46,-124.54 328.9,-123.62 330.64,-130.4"/>
</a>
</g>
</g>
<!-- Node19 -->
<g id="Node000019" class="node">
<title>Node19</title>
<g id="a_Node000019"><a xlink:href="classAsyncFw_1_1HttpServer_1_1TcpSocket.html#abb44001861ba7b24633b54ae90c2896c" target="_top" xlink:title="Triggered when new raw data is available in the socket for reading. &#160;&#160;Overrides the base behavior to ...">
<polygon fill="white" stroke="#666666" points="118,-101 0,-101 0,-69 118,-69 118,-101"/>
<text xml:space="preserve" text-anchor="start" x="8" y="-87.5" font-family="Helvetica,sans-Serif" font-size="10.00">AsyncFw::HttpServer</text>
<text xml:space="preserve" text-anchor="middle" x="59" y="-75.5" font-family="Helvetica,sans-Serif" font-size="10.00">::TcpSocket::readEvent</text>
</a>
</g>
</g>
<!-- Node15&#45;&gt;Node19 -->
<g id="edge20_Node000015_Node000019" class="edge">
<title>Node15&#45;&gt;Node19</title>
<g id="a_edge20_Node000015_Node000019"><a xlink:title=" ">
<path fill="none" stroke="#63b8ff" d="M329.67,-105.04C268.02,-100.46 177.32,-93.72 118.45,-89.34"/>
<polygon fill="#63b8ff" stroke="#63b8ff" points="329.09,-108.51 339.32,-105.76 329.61,-101.53 329.09,-108.51"/>
</a>
</g>
</g>
<!-- Node20 -->
<g id="Node000020" class="node">
<title>Node20</title>
<g id="a_Node000020"><a xlink:href="classAsyncFw_1_1HttpSocket.html#a7163448458d68f433dbdb214a6175be3" target="_top" xlink:title="Called when there is data to read.">
<polygon fill="white" stroke="#666666" points="279.5,-82 166.75,-82 166.75,-50 279.5,-50 279.5,-82"/>
<text xml:space="preserve" text-anchor="start" x="174.75" y="-68.5" font-family="Helvetica,sans-Serif" font-size="10.00">AsyncFw::HttpSocket</text>
<text xml:space="preserve" text-anchor="middle" x="223.12" y="-56.5" font-family="Helvetica,sans-Serif" font-size="10.00">::readEvent</text>
</a>
</g>
</g>
<!-- Node15&#45;&gt;Node20 -->
<g id="edge21_Node000015_Node000020" class="edge">
<title>Node15&#45;&gt;Node20</title>
<g id="a_edge21_Node000015_Node000020"><a xlink:title=" ">
<path fill="none" stroke="#63b8ff" d="M330.17,-93.09C313.53,-88.84 295.83,-84.32 279.77,-80.21"/>
<polygon fill="#63b8ff" stroke="#63b8ff" points="328.9,-96.38 339.46,-95.46 330.64,-89.6 328.9,-96.38"/>
</a>
</g>
</g>
<!-- Node21 -->
<g id="Node000021" class="node">
<title>Node21</title>
<g id="a_Node000021"><a xlink:href="classAsyncFw_1_1HttpSocket.html#ac276bcd3a5e86289eb37ea7fd062559b" target="_top" xlink:title="Called when writing to the socket is possible.">
<polygon fill="white" stroke="#666666" points="279.5,-32 166.75,-32 166.75,0 279.5,0 279.5,-32"/>
<text xml:space="preserve" text-anchor="start" x="174.75" y="-18.5" font-family="Helvetica,sans-Serif" font-size="10.00">AsyncFw::HttpSocket</text>
<text xml:space="preserve" text-anchor="middle" x="223.12" y="-6.5" font-family="Helvetica,sans-Serif" font-size="10.00">::writeEvent</text>
</a>
</g>
</g>
<!-- Node15&#45;&gt;Node21 -->
<g id="edge23_Node000015_Node000021" class="edge">
<title>Node15&#45;&gt;Node21</title>
<g id="a_edge23_Node000015_Node000021"><a xlink:title=" ">
<path fill="none" stroke="#63b8ff" d="M365.66,-86.88C345.52,-72.43 318.19,-54.13 292.25,-41 286.18,-37.93 279.64,-35.04 273.1,-32.39"/>
<polygon fill="#63b8ff" stroke="#63b8ff" points="363.57,-89.69 373.72,-92.74 367.69,-84.03 363.57,-89.69"/>
</a>
</g>
</g>
<!-- Node17 -->
<g id="Node000017" class="node">
<title>Node17</title>
<g id="a_Node000017"><a xlink:href="classAsyncFw_1_1HttpServer.html#ad3761260dfd18899afc22c6f4bc0c556" target="_top" xlink:title="Forcefully terminates all active socket connections currently retained by the server.">
<polygon fill="white" stroke="#666666" points="114.25,-210 3.75,-210 3.75,-178 114.25,-178 114.25,-210"/>
<text xml:space="preserve" text-anchor="start" x="11.75" y="-196.5" font-family="Helvetica,sans-Serif" font-size="10.00">AsyncFw::HttpServer</text>
<text xml:space="preserve" text-anchor="middle" x="59" y="-184.5" font-family="Helvetica,sans-Serif" font-size="10.00">::clearConnections</text>
</a>
</g>
</g>
<!-- Node16&#45;&gt;Node17 -->
<g id="edge18_Node000016_Node000017" class="edge">
<title>Node16&#45;&gt;Node17</title>
<g id="a_edge18_Node000016_Node000017"><a xlink:title=" ">
<path fill="none" stroke="#63b8ff" d="M155.54,-170.43C141.9,-173.79 127.69,-177.3 114.53,-180.55"/>
<polygon fill="#63b8ff" stroke="#63b8ff" points="155.99,-173.92 164.86,-168.13 154.31,-167.13 155.99,-173.92"/>
</a>
</g>
</g>
<!-- Node18 -->
<g id="Node000018" class="node">
<title>Node18</title>
<g id="a_Node000018"><a xlink:href="classAsyncFw_1_1HttpServer.html#ab3eeb1643d4482345afcd9f971c020ac" target="_top" xlink:title="Explicitly severs connections with active sockets holding custom user metadata matching data.">
<polygon fill="white" stroke="#666666" points="114.25,-160 3.75,-160 3.75,-128 114.25,-128 114.25,-160"/>
<text xml:space="preserve" text-anchor="start" x="11.75" y="-146.5" font-family="Helvetica,sans-Serif" font-size="10.00">AsyncFw::HttpServer</text>
<text xml:space="preserve" text-anchor="middle" x="59" y="-134.5" font-family="Helvetica,sans-Serif" font-size="10.00">::clearConnections</text>
</a>
</g>
</g>
<!-- Node16&#45;&gt;Node18 -->
<g id="edge19_Node000016_Node000018" class="edge">
<title>Node16&#45;&gt;Node18</title>
<g id="a_edge19_Node000016_Node000018"><a xlink:title=" ">
<path fill="none" stroke="#63b8ff" d="M155.14,-149.87C141.62,-149.03 127.56,-148.17 114.53,-147.36"/>
<polygon fill="#63b8ff" stroke="#63b8ff" points="154.62,-153.34 164.82,-150.47 155.05,-146.36 154.62,-153.34"/>
</a>
</g>
</g>
<!-- Node20&#45;&gt;Node19 -->
<g id="edge22_Node000020_Node000019" class="edge">
<title>Node20&#45;&gt;Node19</title>
<g id="a_edge22_Node000020_Node000019"><a xlink:title=" ">
<path fill="none" stroke="#63b8ff" d="M155.25,-73.84C143.02,-75.27 130.34,-76.76 118.38,-78.16"/>
<polygon fill="#63b8ff" stroke="#63b8ff" points="155.3,-77.36 164.83,-72.71 154.49,-70.4 155.3,-77.36"/>
</a>
</g>
</g>
</g>
</svg>
