<?xml version="1.0" encoding="UTF-8" standalone="no"?>
<!DOCTYPE svg PUBLIC "-//W3C//DTD SVG 1.1//EN"
 "http://www.w3.org/Graphics/SVG/1.1/DTD/svg11.dtd">
<!-- Generated by graphviz version 12.2.1 (20241206.2353)
 -->
<!-- Title: AsyncFw::FileSystemWatcher::FileSystemWatcher Pages: 1 -->
<svg width="508pt" height="108pt"
 viewBox="0.00 0.00 507.50 108.00" xmlns="http://www.w3.org/2000/svg" xmlns:xlink="http://www.w3.org/1999/xlink">
<g id="graph0" class="graph" transform="scale(1 1) rotate(0) translate(4 104)">
<title>AsyncFw::FileSystemWatcher::FileSystemWatcher</title>
<!-- Node1 -->
<g id="Node000001" class="node">
<title>Node1</title>
<g id="a_Node000001"><a xlink:title="Constructs a FileSystemWatcher and optionally starts monitoring given paths.">
<polygon fill="#999999" stroke="#666666" points="148.75,-57 0,-57 0,-25 148.75,-25 148.75,-57"/>
<text text-anchor="start" x="8" y="-43.5" font-family="Helvetica,sans-Serif" font-size="10.00">AsyncFw::FileSystemWatcher</text>
<text text-anchor="middle" x="74.38" y="-31.5" font-family="Helvetica,sans-Serif" font-size="10.00">::FileSystemWatcher</text>
</a>
</g>
</g>
<!-- Node2 -->
<g id="Node000002" class="node">
<title>Node2</title>
<g id="a_Node000002"><a xlink:href="classAsyncFw_1_1AbstractThread.html#a09cdd1972b9416a7ddb2a1921f36938c" target="_top" xlink:title="Returns a pointer to the AsyncFw::AbstractThread that manages the currently executing thread.">
<polygon fill="white" stroke="#666666" points="324.12,-82 194.12,-82 194.12,-50 324.12,-50 324.12,-82"/>
<text text-anchor="start" x="202.12" y="-68.5" font-family="Helvetica,sans-Serif" font-size="10.00">AsyncFw::AbstractThread</text>
<text text-anchor="middle" x="259.12" y="-56.5" font-family="Helvetica,sans-Serif" font-size="10.00">::current</text>
</a>
</g>
</g>
<!-- Node1&#45;&gt;Node2 -->
<g id="edge1_Node000001_Node000002" class="edge">
<title>Node1&#45;&gt;Node2</title>
<g id="a_edge1_Node000001_Node000002"><a xlink:title=" ">
<path fill="none" stroke="#63b8ff" d="M149.18,-51.1C160.13,-52.6 171.44,-54.14 182.43,-55.65"/>
<polygon fill="#63b8ff" stroke="#63b8ff" points="181.87,-59.1 192.25,-56.99 182.81,-52.16 181.87,-59.1"/>
</a>
</g>
</g>
<!-- Node4 -->
<g id="Node000004" class="node">
<title>Node4</title>
<g id="a_Node000004"><a xlink:href="classAsyncFw_1_1FileSystemWatcher.html#ab174c18c8399c50a7818c456e2a51551" target="_top" xlink:title="Obtains a list of all currently registered file paths.">
<polygon fill="white" stroke="#666666" points="333.5,-32 184.75,-32 184.75,0 333.5,0 333.5,-32"/>
<text text-anchor="start" x="192.75" y="-18.5" font-family="Helvetica,sans-Serif" font-size="10.00">AsyncFw::FileSystemWatcher</text>
<text text-anchor="middle" x="259.12" y="-6.5" font-family="Helvetica,sans-Serif" font-size="10.00">::paths</text>
</a>
</g>
</g>
<!-- Node1&#45;&gt;Node4 -->
<g id="edge4_Node000001_Node000004" class="edge">
<title>Node1&#45;&gt;Node4</title>
<g id="a_edge4_Node000001_Node000004"><a xlink:title=" ">
<path fill="none" stroke="#63b8ff" d="M149.18,-30.9C157.06,-29.83 165.12,-28.72 173.11,-27.63"/>
<polygon fill="#63b8ff" stroke="#63b8ff" points="173.41,-31.12 182.84,-26.3 172.46,-24.19 173.41,-31.12"/>
</a>
</g>
</g>
<!-- Node3 -->
<g id="Node000003" class="node">
<title>Node3</title>
<g id="a_Node000003"><a xlink:href="classAsyncFw_1_1AbstractThread.html#ac8be1c406c4235ff1dabc1cdb4ac04ba" target="_top" xlink:title="Constructs a thread.">
<polygon fill="white" stroke="#666666" points="499.5,-82 369.5,-82 369.5,-50 499.5,-50 499.5,-82"/>
<text text-anchor="start" x="377.5" y="-68.5" font-family="Helvetica,sans-Serif" font-size="10.00">AsyncFw::AbstractThread</text>
<text text-anchor="middle" x="434.5" y="-56.5" font-family="Helvetica,sans-Serif" font-size="10.00">::AbstractThread</text>
</a>
</g>
</g>
<!-- Node2&#45;&gt;Node3 -->
<g id="edge2_Node000002_Node000003" class="edge">
<title>Node2&#45;&gt;Node3</title>
<g id="a_edge2_Node000002_Node000003"><a xlink:title=" ">
<path fill="none" stroke="#63b8ff" d="M324.19,-66C335.07,-66 346.47,-66 357.62,-66"/>
<polygon fill="#63b8ff" stroke="#63b8ff" points="357.61,-69.5 367.61,-66 357.61,-62.5 357.61,-69.5"/>
</a>
</g>
</g>
<!-- Node3&#45;&gt;Node3 -->
<g id="edge3_Node000003_Node000003" class="edge">
<title>Node3&#45;&gt;Node3</title>
<g id="a_edge3_Node000003_Node000003"><a xlink:title=" ">
<path fill="none" stroke="#63b8ff" d="M403.19,-82.44C397.35,-91.58 407.78,-100 434.5,-100 449.11,-100 458.85,-97.48 463.73,-93.71"/>
<polygon fill="#63b8ff" stroke="#63b8ff" points="467.16,-94.4 465.53,-83.93 460.27,-93.13 467.16,-94.4"/>
</a>
</g>
</g>
</g>
</svg>
