<?xml version="1.0" encoding="UTF-8" standalone="no"?>
<!DOCTYPE svg PUBLIC "-//W3C//DTD SVG 1.1//EN"
 "http://www.w3.org/Graphics/SVG/1.1/DTD/svg11.dtd">
<!-- Generated by graphviz version 14.1.3 (20260303.0454)
 -->
<!-- Title: AsyncFw::AbstractThread::AbstractThread Pages: 1 -->
<svg width="980pt" height="380pt"
 viewBox="0.00 0.00 980.00 380.00" xmlns="http://www.w3.org/2000/svg" xmlns:xlink="http://www.w3.org/1999/xlink">
<g id="graph0" class="graph" transform="scale(1 1) rotate(0) translate(4 376)">
<title>AsyncFw::AbstractThread::AbstractThread</title>
<!-- Node1 -->
<g id="Node000001" class="node">
<title>Node1</title>
<g id="a_Node000001"><a xlink:title="Constructs a thread.">
<polygon fill="#999999" stroke="#666666" points="972,-192 842,-192 842,-160 972,-160 972,-192"/>
<text xml:space="preserve" text-anchor="start" x="850" y="-178.5" font-family="Helvetica,sans-Serif" font-size="10.00">AsyncFw::AbstractThread</text>
<text xml:space="preserve" text-anchor="middle" x="907" y="-166.5" font-family="Helvetica,sans-Serif" font-size="10.00">::AbstractThread</text>
</a>
</g>
</g>
<!-- Node2 -->
<g id="Node000002" class="node">
<title>Node2</title>
<g id="a_Node000002"><a xlink:href="classAsyncFw_1_1AbstractThread_1_1Waiter.html#af91079f02392dbcccd1ef5f99acb53f7" target="_top" xlink:title="Signals task completion and initiates a safe exit sequence from the sub&#45;loop.">
<polygon fill="white" stroke="#666666" points="806,-258 676,-258 676,-226 806,-226 806,-258"/>
<text xml:space="preserve" text-anchor="start" x="684" y="-244.5" font-family="Helvetica,sans-Serif" font-size="10.00">AsyncFw::AbstractThread</text>
<text xml:space="preserve" text-anchor="middle" x="741" y="-232.5" font-family="Helvetica,sans-Serif" font-size="10.00">::Waiter::complete</text>
</a>
</g>
</g>
<!-- Node1&#45;&gt;Node2 -->
<g id="edge1_Node000001_Node000002" class="edge">
<title>Node1&#45;&gt;Node2</title>
<g id="a_edge1_Node000001_Node000002"><a xlink:title=" ">
<path fill="none" stroke="#63b8ff" d="M856.39,-196.53C840.33,-203.12 822.43,-210.42 806,-217 799.02,-219.79 791.6,-222.72 784.38,-225.56"/>
<polygon fill="#63b8ff" stroke="#63b8ff" points="857.32,-199.93 865.24,-192.89 854.66,-193.46 857.32,-199.93"/>
</a>
</g>
</g>
<!-- Node3 -->
<g id="Node000003" class="node">
<title>Node3</title>
<g id="a_Node000003"><a xlink:href="classAsyncFw_1_1AbstractThread.html#af33c5949edb374d673a7a9ac0c81ec32" target="_top" xlink:title="Returns a pointer to the AsyncFw::AbstractThread that manages the currently executing thread.">
<polygon fill="white" stroke="#666666" points="806,-170 676,-170 676,-138 806,-138 806,-170"/>
<text xml:space="preserve" text-anchor="start" x="684" y="-156.5" font-family="Helvetica,sans-Serif" font-size="10.00">AsyncFw::AbstractThread</text>
<text xml:space="preserve" text-anchor="middle" x="741" y="-144.5" font-family="Helvetica,sans-Serif" font-size="10.00">::current</text>
</a>
</g>
</g>
<!-- Node1&#45;&gt;Node3 -->
<g id="edge2_Node000001_Node000003" class="edge">
<title>Node1&#45;&gt;Node3</title>
<g id="a_edge2_Node000001_Node000003"><a xlink:title=" ">
<path fill="none" stroke="#63b8ff" d="M830.41,-165.86C822.4,-164.78 814.3,-163.7 806.43,-162.64"/>
<polygon fill="#63b8ff" stroke="#63b8ff" points="829.78,-169.31 840.15,-167.17 830.71,-162.37 829.78,-169.31"/>
</a>
</g>
</g>
<!-- Node20 -->
<g id="Node000020" class="node">
<title>Node20</title>
<g id="a_Node000020"><a xlink:href="classAsyncFw_1_1AbstractThread_1_1Waiter.html#ad2a62fc1276d8be1986a7e77f6dfb437" target="_top" xlink:title="Suspends the caller by running a controlled nested exec() loop until completed.">
<polygon fill="white" stroke="#666666" points="630.62,-32 500.62,-32 500.62,0 630.62,0 630.62,-32"/>
<text xml:space="preserve" text-anchor="start" x="508.62" y="-18.5" font-family="Helvetica,sans-Serif" font-size="10.00">AsyncFw::AbstractThread</text>
<text xml:space="preserve" text-anchor="middle" x="565.62" y="-6.5" font-family="Helvetica,sans-Serif" font-size="10.00">::Waiter::wait</text>
</a>
</g>
</g>
<!-- Node1&#45;&gt;Node20 -->
<g id="edge22_Node000001_Node000020" class="edge">
<title>Node1&#45;&gt;Node20</title>
<g id="a_edge22_Node000001_Node000020"><a xlink:title=" ">
<path fill="none" stroke="#63b8ff" d="M867.18,-154.1C816.09,-125.8 723.04,-76.01 640,-41 632.93,-38.02 625.37,-35.13 617.89,-32.43"/>
<polygon fill="#63b8ff" stroke="#63b8ff" points="865.36,-157.09 875.8,-158.9 868.76,-150.98 865.36,-157.09"/>
</a>
</g>
</g>
<!-- Node21 -->
<g id="Node000021" class="node">
<title>Node21</title>
<g id="a_Node000021"><a xlink:href="classAsyncFw_1_1Thread.html#afc5e422090767dd84020381fb9a4d490" target="_top" xlink:title="Constructs a thread.">
<polygon fill="white" stroke="#666666" points="805.62,-208 676.38,-208 676.38,-188 805.62,-188 805.62,-208"/>
<text xml:space="preserve" text-anchor="middle" x="741" y="-194.5" font-family="Helvetica,sans-Serif" font-size="10.00">AsyncFw::Thread::Thread</text>
</a>
</g>
</g>
<!-- Node1&#45;&gt;Node21 -->
<g id="edge20_Node000001_Node000021" class="edge">
<title>Node1&#45;&gt;Node21</title>
<g id="a_edge20_Node000001_Node000021"><a xlink:title=" ">
<path fill="none" stroke="#63b8ff" d="M830.52,-186.13C822.28,-187.23 813.96,-188.35 805.89,-189.43"/>
<polygon fill="#63b8ff" stroke="#63b8ff" points="830.71,-189.63 840.15,-184.83 829.78,-182.69 830.71,-189.63"/>
</a>
</g>
</g>
<!-- Node4 -->
<g id="Node000004" class="node">
<title>Node4</title>
<g id="a_Node000004"><a xlink:href="classAsyncFw_1_1ThreadPool.html#a9919894e586310a7ea5b780845376e17" target="_top" xlink:title="Asynchronously invokes a void function in the target thread, and executes a result callback in the ca...">
<polygon fill="white" stroke="#666666" points="622,-270 509.25,-270 509.25,-238 622,-238 622,-270"/>
<text xml:space="preserve" text-anchor="start" x="517.25" y="-256.5" font-family="Helvetica,sans-Serif" font-size="10.00">AsyncFw::ThreadPool</text>
<text xml:space="preserve" text-anchor="middle" x="565.62" y="-244.5" font-family="Helvetica,sans-Serif" font-size="10.00">::async</text>
</a>
</g>
</g>
<!-- Node3&#45;&gt;Node4 -->
<g id="edge3_Node000003_Node000004" class="edge">
<title>Node3&#45;&gt;Node4</title>
<g id="a_edge3_Node000003_Node000004"><a xlink:title=" ">
<path fill="none" stroke="#63b8ff" d="M680.02,-176.09C678.64,-177.03 677.3,-177.99 676,-179 654.36,-195.78 662,-212.7 640,-229 634.59,-233.01 628.5,-236.4 622.19,-239.27"/>
<polygon fill="#63b8ff" stroke="#63b8ff" points="681.45,-179.31 688.25,-171.19 677.87,-173.3 681.45,-179.31"/>
</a>
</g>
</g>
<!-- Node5 -->
<g id="Node000005" class="node">
<title>Node5</title>
<g id="a_Node000005"><a xlink:href="classAsyncFw_1_1Thread.html#a0a3bd6a54db28f73ff59cfea6a40b07a" target="_top" xlink:title="Returns a pointer to the AsyncFw::Thread that manages the currently executing thread.">
<polygon fill="white" stroke="#666666" points="630.25,-308 501,-308 501,-288 630.25,-288 630.25,-308"/>
<text xml:space="preserve" text-anchor="middle" x="565.62" y="-294.5" font-family="Helvetica,sans-Serif" font-size="10.00">AsyncFw::Thread::current</text>
</a>
</g>
</g>
<!-- Node3&#45;&gt;Node5 -->
<g id="edge4_Node000003_Node000005" class="edge">
<title>Node3&#45;&gt;Node5</title>
<g id="a_edge4_Node000003_Node000005"><a xlink:title=" ">
<path fill="none" stroke="#63b8ff" d="M677.83,-177.22C677.2,-177.8 676.59,-178.39 676,-179 643.05,-212.85 674.9,-247.17 640,-279 636.21,-282.46 631.87,-285.3 627.24,-287.64"/>
<polygon fill="#63b8ff" stroke="#63b8ff" points="679.67,-180.22 685.49,-171.36 675.42,-174.65 679.67,-180.22"/>
</a>
</g>
</g>
<!-- Node14 -->
<g id="Node000014" class="node">
<title>Node14</title>
<g id="a_Node000014"><a xlink:href="classAsyncFw_1_1FileSystemWatcher.html#acd061a60fbaea1bb3c7d020e0da99039" target="_top" xlink:title="Constructs a FileSystemWatcher and optionally starts monitoring given paths.">
<polygon fill="white" stroke="#666666" points="640,-220 491.25,-220 491.25,-188 640,-188 640,-220"/>
<text xml:space="preserve" text-anchor="start" x="499.25" y="-206.5" font-family="Helvetica,sans-Serif" font-size="10.00">AsyncFw::FileSystemWatcher</text>
<text xml:space="preserve" text-anchor="middle" x="565.62" y="-194.5" font-family="Helvetica,sans-Serif" font-size="10.00">::FileSystemWatcher</text>
</a>
</g>
</g>
<!-- Node3&#45;&gt;Node14 -->
<g id="edge13_Node000003_Node000014" class="edge">
<title>Node3&#45;&gt;Node14</title>
<g id="a_edge13_Node000003_Node000014"><a xlink:title=" ">
<path fill="none" stroke="#63b8ff" d="M672.31,-173.52C656.27,-178.15 639.33,-183.03 623.82,-187.51"/>
<polygon fill="#63b8ff" stroke="#63b8ff" points="673.14,-176.93 681.78,-170.79 671.2,-170.2 673.14,-176.93"/>
</a>
</g>
</g>
<!-- Node16 -->
<g id="Node000016" class="node">
<title>Node16</title>
<g id="a_Node000016"><a xlink:href="classAsyncFw_1_1MulticastDns.html#ab9bfb41e98cd4ecf1cc63f8acd023afd" target="_top" xlink:title="Initializes the mDNS node with a specific target service type (e.g., &quot;_http._tcp&quot;).">
<polygon fill="white" stroke="#666666" points="626.12,-170 505.12,-170 505.12,-138 626.12,-138 626.12,-170"/>
<text xml:space="preserve" text-anchor="start" x="513.12" y="-156.5" font-family="Helvetica,sans-Serif" font-size="10.00">AsyncFw::MulticastDns</text>
<text xml:space="preserve" text-anchor="middle" x="565.62" y="-144.5" font-family="Helvetica,sans-Serif" font-size="10.00">::MulticastDns</text>
</a>
</g>
</g>
<!-- Node3&#45;&gt;Node16 -->
<g id="edge15_Node000003_Node000016" class="edge">
<title>Node3&#45;&gt;Node16</title>
<g id="a_edge15_Node000003_Node000016"><a xlink:title=" ">
<path fill="none" stroke="#63b8ff" d="M664.77,-154C651.94,-154 638.77,-154 626.4,-154"/>
<polygon fill="#63b8ff" stroke="#63b8ff" points="664.42,-157.5 674.42,-154 664.42,-150.5 664.42,-157.5"/>
</a>
</g>
</g>
<!-- Node18 -->
<g id="Node000018" class="node">
<title>Node18</title>
<g id="a_Node000018"><a xlink:href="classAsyncFw_1_1Log.html#a6b0ce40bc2e34f4b435894701194dc26" target="_top" xlink:title="Persists log entries into the underlying Rrd buffer and manages automated disk flushing.">
<polygon fill="white" stroke="#666666" points="621.62,-120 509.62,-120 509.62,-100 621.62,-100 621.62,-120"/>
<text xml:space="preserve" text-anchor="middle" x="565.62" y="-106.5" font-family="Helvetica,sans-Serif" font-size="10.00">AsyncFw::Log::output</text>
</a>
</g>
</g>
<!-- Node3&#45;&gt;Node18 -->
<g id="edge17_Node000003_Node000018" class="edge">
<title>Node3&#45;&gt;Node18</title>
<g id="a_edge17_Node000003_Node000018"><a xlink:title=" ">
<path fill="none" stroke="#63b8ff" d="M664.85,-134.93C645.28,-129.96 624.91,-124.79 607.83,-120.46"/>
<polygon fill="#63b8ff" stroke="#63b8ff" points="663.91,-138.3 674.47,-137.37 665.64,-131.52 663.91,-138.3"/>
</a>
</g>
</g>
<!-- Node19 -->
<g id="Node000019" class="node">
<title>Node19</title>
<g id="a_Node000019"><a xlink:href="classAsyncFw_1_1SystemProcess.html#acf60a585a89304fdb3580e9add06d155" target="_top" xlink:title="Constructs a new SystemProcess manager.">
<polygon fill="white" stroke="#666666" points="632.12,-82 499.12,-82 499.12,-50 632.12,-50 632.12,-82"/>
<text xml:space="preserve" text-anchor="start" x="507.12" y="-68.5" font-family="Helvetica,sans-Serif" font-size="10.00">AsyncFw::SystemProcess</text>
<text xml:space="preserve" text-anchor="middle" x="565.62" y="-56.5" font-family="Helvetica,sans-Serif" font-size="10.00">::SystemProcess</text>
</a>
</g>
</g>
<!-- Node3&#45;&gt;Node19 -->
<g id="edge18_Node000003_Node000019" class="edge">
<title>Node3&#45;&gt;Node19</title>
<g id="a_edge18_Node000003_Node000019"><a xlink:title=" ">
<path fill="none" stroke="#63b8ff" d="M708.04,-131.16C688.93,-118.21 663.81,-102.36 640,-91 633.56,-87.93 626.65,-85.06 619.72,-82.43"/>
<polygon fill="#63b8ff" stroke="#63b8ff" points="705.98,-133.99 716.2,-136.78 709.94,-128.22 705.98,-133.99"/>
</a>
</g>
</g>
<!-- Node3&#45;&gt;Node20 -->
<g id="edge19_Node000003_Node000020" class="edge">
<title>Node3&#45;&gt;Node20</title>
<g id="a_edge19_Node000003_Node000020"><a xlink:title=" ">
<path fill="none" stroke="#63b8ff" d="M719.05,-128.99C692.64,-97.68 649.53,-47.34 640,-41 635.18,-37.79 629.91,-34.96 624.48,-32.46"/>
<polygon fill="#63b8ff" stroke="#63b8ff" points="716.25,-131.09 725.36,-136.49 721.6,-126.59 716.25,-131.09"/>
</a>
</g>
</g>
<!-- Node6 -->
<g id="Node000006" class="node">
<title>Node6</title>
<g id="a_Node000006"><a xlink:href="classAsyncFw_1_1AbstractSocket.html#a73a200f0008dbf9f820bdb2b8a0054cf" target="_top" xlink:title="Schedules the socket for deferred asynchronous destruction.">
<polygon fill="white" stroke="#666666" points="446.25,-337 315.5,-337 315.5,-305 446.25,-305 446.25,-337"/>
<text xml:space="preserve" text-anchor="start" x="323.5" y="-323.5" font-family="Helvetica,sans-Serif" font-size="10.00">AsyncFw::AbstractSocket</text>
<text xml:space="preserve" text-anchor="middle" x="380.88" y="-311.5" font-family="Helvetica,sans-Serif" font-size="10.00">::destroy</text>
</a>
</g>
</g>
<!-- Node5&#45;&gt;Node6 -->
<g id="edge5_Node000005_Node000006" class="edge">
<title>Node5&#45;&gt;Node6</title>
<g id="a_edge5_Node000005_Node000006"><a xlink:title=" ">
<path fill="none" stroke="#63b8ff" d="M489.46,-307.46C475.27,-309.25 460.53,-311.1 446.68,-312.84"/>
<polygon fill="#63b8ff" stroke="#63b8ff" points="489.72,-310.95 499.21,-306.23 488.85,-304.01 489.72,-310.95"/>
</a>
</g>
</g>
<!-- Node8 -->
<g id="Node000008" class="node">
<title>Node8</title>
<g id="a_Node000008"><a xlink:href="classAsyncFw_1_1Rrd.html#a2fd20dd3470a11ef179577c565c333f1" target="_top" xlink:title="Constructs a persistent circular archive database with physical disk backing.">
<polygon fill="white" stroke="#666666" points="431.25,-284 330.5,-284 330.5,-264 431.25,-264 431.25,-284"/>
<text xml:space="preserve" text-anchor="middle" x="380.88" y="-270.5" font-family="Helvetica,sans-Serif" font-size="10.00">AsyncFw::Rrd::Rrd</text>
</a>
</g>
</g>
<!-- Node5&#45;&gt;Node8 -->
<g id="edge7_Node000005_Node000008" class="edge">
<title>Node5&#45;&gt;Node8</title>
<g id="a_edge7_Node000005_Node000008"><a xlink:title=" ">
<path fill="none" stroke="#63b8ff" d="M489.39,-288.12C469.92,-285.56 449.45,-282.87 431.65,-280.54"/>
<polygon fill="#63b8ff" stroke="#63b8ff" points="488.84,-291.58 499.21,-289.41 489.75,-284.64 488.84,-291.58"/>
</a>
</g>
</g>
<!-- Node7 -->
<g id="Node000007" class="node">
<title>Node7</title>
<g id="a_Node000007"><a xlink:href="classAsyncFw_1_1HttpSocket.html#a8268467d3581a4d393e9ccd288de32ff" target="_top" xlink:title="Schedules the socket for deferred asynchronous destruction.">
<polygon fill="white" stroke="#666666" points="270.5,-372 157.75,-372 157.75,-340 270.5,-340 270.5,-372"/>
<text xml:space="preserve" text-anchor="start" x="165.75" y="-358.5" font-family="Helvetica,sans-Serif" font-size="10.00">AsyncFw::HttpSocket</text>
<text xml:space="preserve" text-anchor="middle" x="214.12" y="-346.5" font-family="Helvetica,sans-Serif" font-size="10.00">::destroy</text>
</a>
</g>
</g>
<!-- Node6&#45;&gt;Node7 -->
<g id="edge6_Node000006_Node000007" class="edge">
<title>Node6&#45;&gt;Node7</title>
<g id="a_edge6_Node000006_Node000007"><a xlink:title=" ">
<path fill="none" stroke="#63b8ff" d="M304.1,-337.1C292.87,-339.48 281.49,-341.9 270.77,-344.18"/>
<polygon fill="#63b8ff" stroke="#63b8ff" points="304.7,-340.55 313.75,-335.05 303.24,-333.7 304.7,-340.55"/>
</a>
</g>
</g>
<!-- Node9 -->
<g id="Node000009" class="node">
<title>Node9</title>
<g id="a_Node000009"><a xlink:href="classAsyncFw_1_1Log.html#a832d13f4e9231eee37d8decb5b9b96d7" target="_top" xlink:title="Constructs a persistent log system with a specific circular database size and file name context.">
<polygon fill="white" stroke="#666666" points="264.5,-322 163.75,-322 163.75,-302 264.5,-302 264.5,-322"/>
<text xml:space="preserve" text-anchor="middle" x="214.12" y="-308.5" font-family="Helvetica,sans-Serif" font-size="10.00">AsyncFw::Log::Log</text>
</a>
</g>
</g>
<!-- Node8&#45;&gt;Node9 -->
<g id="edge8_Node000008_Node000009" class="edge">
<title>Node8&#45;&gt;Node9</title>
<g id="a_edge8_Node000008_Node000009"><a xlink:title=" ">
<path fill="none" stroke="#63b8ff" d="M323.3,-287.05C302.77,-291.78 279.86,-297.07 260.43,-301.55"/>
<polygon fill="#63b8ff" stroke="#63b8ff" points="323.99,-290.48 332.95,-284.82 322.41,-283.66 323.99,-290.48"/>
</a>
</g>
</g>
<!-- Node11 -->
<g id="Node000011" class="node">
<title>Node11</title>
<g id="a_Node000011"><a xlink:href="classAsyncFw_1_1Rrd.html#aa54ae298c96e9efe88b644931b12f734" target="_top" xlink:title="Constructs a minimal in&#45;memory anonymous circular database with default system tracking intervals.">
<polygon fill="white" stroke="#666666" points="264.5,-284 163.75,-284 163.75,-264 264.5,-264 264.5,-284"/>
<text xml:space="preserve" text-anchor="middle" x="214.12" y="-270.5" font-family="Helvetica,sans-Serif" font-size="10.00">AsyncFw::Rrd::Rrd</text>
</a>
</g>
</g>
<!-- Node8&#45;&gt;Node11 -->
<g id="edge10_Node000008_Node000011" class="edge">
<title>Node8&#45;&gt;Node11</title>
<g id="a_edge10_Node000008_Node000011"><a xlink:title=" ">
<path fill="none" stroke="#63b8ff" d="M318.97,-274C301.13,-274 281.85,-274 264.81,-274"/>
<polygon fill="#63b8ff" stroke="#63b8ff" points="318.93,-277.5 328.93,-274 318.93,-270.5 318.93,-277.5"/>
</a>
</g>
</g>
<!-- Node12 -->
<g id="Node000012" class="node">
<title>Node12</title>
<g id="a_Node000012"><a xlink:href="classAsyncFw_1_1Rrd.html#aaea6a63444ab427f801be34f26d930d5" target="_top" xlink:title="Constructs a persistent circular archive database using default system tracking intervals.">
<polygon fill="white" stroke="#666666" points="264.5,-246 163.75,-246 163.75,-226 264.5,-226 264.5,-246"/>
<text xml:space="preserve" text-anchor="middle" x="214.12" y="-232.5" font-family="Helvetica,sans-Serif" font-size="10.00">AsyncFw::Rrd::Rrd</text>
</a>
</g>
</g>
<!-- Node8&#45;&gt;Node12 -->
<g id="edge11_Node000008_Node000012" class="edge">
<title>Node8&#45;&gt;Node12</title>
<g id="a_edge11_Node000008_Node000012"><a xlink:title=" ">
<path fill="none" stroke="#63b8ff" d="M323.3,-260.95C302.77,-256.22 279.86,-250.93 260.43,-246.45"/>
<polygon fill="#63b8ff" stroke="#63b8ff" points="322.41,-264.34 332.95,-263.18 323.99,-257.52 322.41,-264.34"/>
</a>
</g>
</g>
<!-- Node13 -->
<g id="Node000013" class="node">
<title>Node13</title>
<g id="a_Node000013"><a xlink:href="classAsyncFw_1_1Rrd.html#a98c7829cc6177c80245cf95095deb3ba" target="_top" xlink:title="Constructs an in&#45;memory anonymous circular database without file serialization.">
<polygon fill="white" stroke="#666666" points="264.5,-208 163.75,-208 163.75,-188 264.5,-188 264.5,-208"/>
<text xml:space="preserve" text-anchor="middle" x="214.12" y="-194.5" font-family="Helvetica,sans-Serif" font-size="10.00">AsyncFw::Rrd::Rrd</text>
</a>
</g>
</g>
<!-- Node8&#45;&gt;Node13 -->
<g id="edge12_Node000008_Node000013" class="edge">
<title>Node8&#45;&gt;Node13</title>
<g id="a_edge12_Node000008_Node000013"><a xlink:title=" ">
<path fill="none" stroke="#63b8ff" d="M352.22,-258.11C330.43,-245.96 299.08,-229.27 270.5,-217 263.4,-213.95 255.64,-211.04 248.23,-208.45"/>
<polygon fill="#63b8ff" stroke="#63b8ff" points="350.34,-261.07 360.77,-262.93 353.77,-254.97 350.34,-261.07"/>
</a>
</g>
</g>
<!-- Node10 -->
<g id="Node000010" class="node">
<title>Node10</title>
<g id="a_Node000010"><a xlink:href="classAsyncFw_1_1Log.html#a00e9a20e7303e9a24403046af176b6b2" target="_top" xlink:title="Global service locator shortcut to fetch the current engine&#45;wide default log pointer.">
<polygon fill="white" stroke="#666666" points="121.75,-322 0,-322 0,-302 121.75,-302 121.75,-322"/>
<text xml:space="preserve" text-anchor="middle" x="60.88" y="-308.5" font-family="Helvetica,sans-Serif" font-size="10.00">AsyncFw::Log::instance</text>
</a>
</g>
</g>
<!-- Node9&#45;&gt;Node10 -->
<g id="edge9_Node000009_Node000010" class="edge">
<title>Node9&#45;&gt;Node10</title>
<g id="a_edge9_Node000009_Node000010"><a xlink:title=" ">
<path fill="none" stroke="#63b8ff" d="M152.16,-312C142.24,-312 131.97,-312 122.07,-312"/>
<polygon fill="#63b8ff" stroke="#63b8ff" points="152.09,-315.5 162.09,-312 152.09,-308.5 152.09,-315.5"/>
</a>
</g>
</g>
<!-- Node15 -->
<g id="Node000015" class="node">
<title>Node15</title>
<g id="a_Node000015"><a xlink:href="classAsyncFw_1_1FileSystemWatcher.html#a16b4210d215a3b340c98f650d2071114" target="_top" xlink:title="Retrieves the global instance pointer of the active FileSystemWatcher.">
<polygon fill="white" stroke="#666666" points="455.25,-220 306.5,-220 306.5,-188 455.25,-188 455.25,-220"/>
<text xml:space="preserve" text-anchor="start" x="314.5" y="-206.5" font-family="Helvetica,sans-Serif" font-size="10.00">AsyncFw::FileSystemWatcher</text>
<text xml:space="preserve" text-anchor="middle" x="380.88" y="-194.5" font-family="Helvetica,sans-Serif" font-size="10.00">::instance</text>
</a>
</g>
</g>
<!-- Node14&#45;&gt;Node15 -->
<g id="edge14_Node000014_Node000015" class="edge">
<title>Node14&#45;&gt;Node15</title>
<g id="a_edge14_Node000014_Node000015"><a xlink:title=" ">
<path fill="none" stroke="#63b8ff" d="M479.31,-204C471.41,-204 463.44,-204 455.66,-204"/>
<polygon fill="#63b8ff" stroke="#63b8ff" points="479.31,-207.5 489.31,-204 479.31,-200.5 479.31,-207.5"/>
</a>
</g>
</g>
<!-- Node17 -->
<g id="Node000017" class="node">
<title>Node17</title>
<g id="a_Node000017"><a xlink:href="classAsyncFw_1_1MulticastDns.html#a61341fa78536e7a787bbbce75116ef3e" target="_top" xlink:title="Returns the global default instance pointer.">
<polygon fill="white" stroke="#666666" points="441.38,-170 320.38,-170 320.38,-138 441.38,-138 441.38,-170"/>
<text xml:space="preserve" text-anchor="start" x="328.38" y="-156.5" font-family="Helvetica,sans-Serif" font-size="10.00">AsyncFw::MulticastDns</text>
<text xml:space="preserve" text-anchor="middle" x="380.88" y="-144.5" font-family="Helvetica,sans-Serif" font-size="10.00">::instance</text>
</a>
</g>
</g>
<!-- Node16&#45;&gt;Node17 -->
<g id="edge16_Node000016_Node000017" class="edge">
<title>Node16&#45;&gt;Node17</title>
<g id="a_edge16_Node000016_Node000017"><a xlink:title=" ">
<path fill="none" stroke="#63b8ff" d="M493.7,-154C476.57,-154 458.42,-154 441.85,-154"/>
<polygon fill="#63b8ff" stroke="#63b8ff" points="493.27,-157.5 503.27,-154 493.27,-150.5 493.27,-157.5"/>
</a>
</g>
</g>
<!-- Node21&#45;&gt;Node5 -->
<g id="edge21_Node000021_Node000005" class="edge">
<title>Node21&#45;&gt;Node5</title>
<g id="a_edge21_Node000021_Node000005"><a xlink:title=" ">
<path fill="none" stroke="#63b8ff" d="M680.71,-213.67C679.08,-214.71 677.5,-215.82 676,-217 650.96,-236.7 665.38,-259.74 640,-279 635.49,-282.42 630.43,-285.23 625.12,-287.53"/>
<polygon fill="#63b8ff" stroke="#63b8ff" points="682.04,-216.93 689.23,-209.14 678.76,-210.74 682.04,-216.93"/>
</a>
</g>
</g>
</g>
</svg>
