<?xml version="1.0" encoding="UTF-8" standalone="no"?>
<!DOCTYPE svg PUBLIC "-//W3C//DTD SVG 1.1//EN"
 "http://www.w3.org/Graphics/SVG/1.1/DTD/svg11.dtd">
<!-- Generated by graphviz version 14.1.3 (20260303.0454)
 -->
<!-- Title: AsyncFw::DataArraySocket Pages: 1 -->
<svg width="1256pt" height="200pt"
 viewBox="0.00 0.00 1256.00 200.00" xmlns="http://www.w3.org/2000/svg" xmlns:xlink="http://www.w3.org/1999/xlink">
<g id="graph0" class="graph" transform="scale(1 1) rotate(0) translate(4 196)">
<title>AsyncFw::DataArraySocket</title>
<!-- Node1 -->
<g id="Node000001" class="node">
<title>Node1</title>
<g id="a_Node000001"><a xlink:title="An asynchronous socket class for transmitting data arrays (DataArray) with TLS support....">
<polygon fill="#999999" stroke="#666666" points="1248.25,-86 1110,-86 1110,-66 1248.25,-66 1248.25,-86"/>
<text xml:space="preserve" text-anchor="middle" x="1179.12" y="-72.5" font-family="Helvetica,sans-Serif" font-size="10.00">AsyncFw::DataArraySocket</text>
</a>
</g>
</g>
<!-- Node2 -->
<g id="Node000002" class="node">
<title>Node2</title>
<g id="a_Node000002"><a xlink:href="classAsyncFw_1_1AbstractTlsSocket.html" target="_top" xlink:title="Abstract base class providing Transport Layer Security (TLS/SSL) encryption layers on top of standard...">
<polygon fill="white" stroke="#666666" points="1073,-125 928.75,-125 928.75,-105 1073,-105 1073,-125"/>
<text xml:space="preserve" text-anchor="middle" x="1000.88" y="-111.5" font-family="Helvetica,sans-Serif" font-size="10.00">AsyncFw::AbstractTlsSocket</text>
</a>
</g>
</g>
<!-- Node2&#45;&gt;Node1 -->
<g id="edge1_Node000001_Node000002" class="edge">
<title>Node2&#45;&gt;Node1</title>
<g id="a_edge1_Node000001_Node000002"><a xlink:title=" ">
<path fill="none" stroke="#63b8ff" d="M1060.09,-102.12C1083.02,-97.05 1109.01,-91.29 1130.76,-86.48"/>
<polygon fill="#63b8ff" stroke="#63b8ff" points="1059.59,-98.64 1050.58,-104.22 1061.1,-105.48 1059.59,-98.64"/>
</a>
</g>
</g>
<!-- Node3 -->
<g id="Node000003" class="node">
<title>Node3</title>
<g id="a_Node000003"><a xlink:href="classAsyncFw_1_1AbstractSocket.html" target="_top" xlink:title="Abstract base class providing core network socket functionality and OS descriptor abstraction.">
<polygon fill="white" stroke="#666666" points="747,-127 616.25,-127 616.25,-107 747,-107 747,-127"/>
<text xml:space="preserve" text-anchor="middle" x="681.62" y="-113.5" font-family="Helvetica,sans-Serif" font-size="10.00">AsyncFw::AbstractSocket</text>
</a>
</g>
</g>
<!-- Node3&#45;&gt;Node2 -->
<g id="edge2_Node000002_Node000003" class="edge">
<title>Node3&#45;&gt;Node2</title>
<g id="a_edge2_Node000002_Node000003"><a xlink:title=" ">
<path fill="none" stroke="#63b8ff" d="M758.62,-116.52C810.18,-116.2 877.91,-115.77 928.48,-115.45"/>
<polygon fill="#63b8ff" stroke="#63b8ff" points="758.7,-113.02 748.72,-116.58 758.74,-120.02 758.7,-113.02"/>
</a>
</g>
</g>
<!-- Node4 -->
<g id="Node000004" class="node">
<title>Node4</title>
<g id="a_Node000004"><a xlink:href="structAsyncFw_1_1AnyData.html" target="_top" xlink:title="A generic, type&#45;safe data container block wrapper utilizing std::any.">
<polygon fill="white" stroke="#666666" points="418.88,-165 317.38,-165 317.38,-145 418.88,-145 418.88,-165"/>
<text xml:space="preserve" text-anchor="middle" x="368.12" y="-151.5" font-family="Helvetica,sans-Serif" font-size="10.00">AsyncFw::AnyData</text>
</a>
</g>
</g>
<!-- Node4&#45;&gt;Node3 -->
<g id="edge3_Node000003_Node000004" class="edge">
<title>Node4&#45;&gt;Node3</title>
<g id="a_edge3_Node000003_Node000004"><a xlink:title=" ">
<path fill="none" stroke="#63b8ff" d="M430.42,-153.9C476.78,-152.3 541.87,-148.41 598.25,-139 614.6,-136.27 632.41,-131.72 647.28,-127.46"/>
<polygon fill="#63b8ff" stroke="#63b8ff" points="430.46,-150.39 420.57,-154.21 430.68,-157.39 430.46,-150.39"/>
</a>
</g>
</g>
<!-- Node5 -->
<g id="Node000005" class="node">
<title>Node5</title>
<g id="a_Node000005"><a xlink:href="classAsyncFw_1_1Thread.html" target="_top" xlink:title="AsyncFw::Thread thread with sockets.">
<polygon fill="white" stroke="#666666" points="414.75,-127 321.5,-127 321.5,-107 414.75,-107 414.75,-127"/>
<text xml:space="preserve" text-anchor="middle" x="368.12" y="-113.5" font-family="Helvetica,sans-Serif" font-size="10.00">AsyncFw::Thread</text>
</a>
</g>
</g>
<!-- Node5&#45;&gt;Node3 -->
<g id="edge4_Node000003_Node000005" class="edge">
<title>Node5&#45;&gt;Node3</title>
<g id="a_edge4_Node000003_Node000005"><a xlink:title=" ">
<path fill="none" stroke="#9a32cd" stroke-dasharray="5,2" d="M426.43,-117C480,-117 559.88,-117 615.76,-117"/>
<polygon fill="#9a32cd" stroke="#9a32cd" points="426.6,-113.5 416.6,-117 426.6,-120.5 426.6,-113.5"/>
</a>
</g>
<text xml:space="preserve" text-anchor="start" x="509.25" y="-122.25" font-family="Helvetica,sans-Serif" font-size="10.00" fill="grey">thread_</text>
</g>
<!-- Node6 -->
<g id="Node000006" class="node">
<title>Node6</title>
<g id="a_Node000006"><a xlink:href="classAsyncFw_1_1AbstractThread.html" target="_top" xlink:title="The AbstractThread class provides the base functionality for thread management.">
<polygon fill="white" stroke="#666666" points="137.88,-192 7.88,-192 7.88,-172 137.88,-172 137.88,-192"/>
<text xml:space="preserve" text-anchor="middle" x="72.88" y="-178.5" font-family="Helvetica,sans-Serif" font-size="10.00">AsyncFw::AbstractThread</text>
</a>
</g>
</g>
<!-- Node6&#45;&gt;Node5 -->
<g id="edge5_Node000005_Node000006" class="edge">
<title>Node6&#45;&gt;Node5</title>
<g id="a_edge5_Node000005_Node000006"><a xlink:title=" ">
<path fill="none" stroke="#63b8ff" d="M149.3,-190.47C191.58,-191.64 243.71,-186.81 283.75,-163 296.15,-155.63 290.12,-144.53 301.75,-136 307.56,-131.74 314.32,-128.43 321.24,-125.86"/>
<polygon fill="#63b8ff" stroke="#63b8ff" points="149.58,-186.98 139.44,-190.07 149.29,-193.98 149.58,-186.98"/>
</a>
</g>
</g>
<!-- Node7 -->
<g id="Node000007" class="node">
<title>Node7</title>
<g id="a_Node000007"><a xlink:href="classAsyncFw_1_1FunctionConnector.html" target="_top" xlink:title="Provides a thread&#45;safe, publisher&#45;subscriber mechanism to establish sender&#45;to&#45;receivers connections.">
<polygon fill="white" stroke="#666666" points="145.75,-92 0,-92 0,-60 145.75,-60 145.75,-92"/>
<text xml:space="preserve" text-anchor="start" x="8" y="-78.5" font-family="Helvetica,sans-Serif" font-size="10.00">AsyncFw::FunctionConnector</text>
<text xml:space="preserve" text-anchor="middle" x="72.88" y="-66.5" font-family="Helvetica,sans-Serif" font-size="10.00">&lt; Args &gt;</text>
</a>
</g>
</g>
<!-- Node7&#45;&gt;Node5 -->
<g id="edge6_Node000005_Node000007" class="edge">
<title>Node7&#45;&gt;Node5</title>
<g id="a_edge6_Node000005_Node000007"><a xlink:title=" ">
<path fill="none" stroke="#9a32cd" stroke-dasharray="5,2" d="M157.12,-93.9C159.35,-94.29 161.56,-94.65 163.75,-95 217.58,-103.58 279.98,-109.78 321.31,-113.37"/>
<polygon fill="#9a32cd" stroke="#9a32cd" points="157.82,-90.47 147.36,-92.15 156.58,-97.36 157.82,-90.47"/>
</a>
</g>
<text xml:space="preserve" text-anchor="start" x="203.88" y="-146.7" font-family="Helvetica,sans-Serif" font-size="10.00" fill="grey">destroing</text>
<text xml:space="preserve" text-anchor="start" x="203.88" y="-130.7" font-family="Helvetica,sans-Serif" font-size="10.00" fill="grey">finished</text>
<text xml:space="preserve" text-anchor="start" x="203.88" y="-114.7" font-family="Helvetica,sans-Serif" font-size="10.00" fill="grey">started</text>
</g>
<!-- Node8 -->
<g id="Node000008" class="node">
<title>Node8</title>
<g id="a_Node000008"><a xlink:href="classAsyncFw_1_1FunctionConnector.html" target="_top" xlink:title=" ">
<polygon fill="white" stroke="#666666" points="598.25,-92 452.5,-92 452.5,-60 598.25,-60 598.25,-92"/>
<text xml:space="preserve" text-anchor="start" x="460.5" y="-78.5" font-family="Helvetica,sans-Serif" font-size="10.00">AsyncFw::FunctionConnector</text>
<text xml:space="preserve" text-anchor="middle" x="525.38" y="-66.5" font-family="Helvetica,sans-Serif" font-size="10.00">&lt; AbstractSocket::State &gt;</text>
</a>
</g>
</g>
<!-- Node7&#45;&gt;Node8 -->
<g id="edge8_Node000008_Node000007" class="edge">
<title>Node7&#45;&gt;Node8</title>
<g id="a_edge8_Node000008_Node000007"><a xlink:title=" ">
<path fill="none" stroke="orange" stroke-dasharray="5,2" d="M157.45,-73.12C159.57,-73.07 161.67,-73.03 163.75,-73 263.76,-71.33 379.38,-72.91 452.19,-74.34"/>
<polygon fill="orange" stroke="orange" points="157.41,-69.62 147.49,-73.35 157.57,-76.61 157.41,-69.62"/>
</a>
</g>
<text xml:space="preserve" text-anchor="start" x="166.75" y="-78.25" font-family="Helvetica,sans-Serif" font-size="10.00" fill="grey">&lt; AbstractSocket::State &gt;</text>
</g>
<!-- Node9 -->
<g id="Node000009" class="node">
<title>Node9</title>
<g id="a_Node000009"><a xlink:href="classAsyncFw_1_1FunctionConnector.html" target="_top" xlink:title=" ">
<polygon fill="white" stroke="#666666" points="910.75,-44 765,-44 765,0 910.75,0 910.75,-44"/>
<text xml:space="preserve" text-anchor="start" x="773" y="-30.5" font-family="Helvetica,sans-Serif" font-size="10.00">AsyncFw::FunctionConnector</text>
<text xml:space="preserve" text-anchor="start" x="773" y="-18.5" font-family="Helvetica,sans-Serif" font-size="10.00">&lt; const AsyncFw::DataArray</text>
<text xml:space="preserve" text-anchor="middle" x="837.88" y="-6.5" font-family="Helvetica,sans-Serif" font-size="10.00"> *, uint32_t &gt;</text>
</a>
</g>
</g>
<!-- Node7&#45;&gt;Node9 -->
<g id="edge10_Node000009_Node000007" class="edge">
<title>Node7&#45;&gt;Node9</title>
<g id="a_edge10_Node000009_Node000007"><a xlink:title=" ">
<path fill="none" stroke="orange" stroke-dasharray="5,2" d="M157.3,-57.32C200.23,-48.55 253.54,-38.95 301.75,-34 466.76,-17.05 661.82,-17.91 764.81,-19.97"/>
<polygon fill="orange" stroke="orange" points="156.62,-53.88 147.54,-59.34 158.04,-60.74 156.62,-53.88"/>
</a>
</g>
<text xml:space="preserve" text-anchor="start" x="304.75" y="-55.25" font-family="Helvetica,sans-Serif" font-size="10.00" fill="grey">&lt; const AsyncFw::DataArray</text>
<text xml:space="preserve" text-anchor="start" x="304.75" y="-39.25" font-family="Helvetica,sans-Serif" font-size="10.00" fill="grey">   *, uint32_t &gt;</text>
</g>
<!-- Node8&#45;&gt;Node1 -->
<g id="edge7_Node000001_Node000008" class="edge">
<title>Node8&#45;&gt;Node1</title>
<g id="a_edge7_Node000001_Node000008"><a xlink:title=" ">
<path fill="none" stroke="#9a32cd" stroke-dasharray="5,2" d="M610.08,-76C740.35,-76 989.13,-76 1109.5,-76"/>
<polygon fill="#9a32cd" stroke="#9a32cd" points="610.13,-72.5 600.13,-76 610.13,-79.5 610.13,-72.5"/>
</a>
</g>
<text xml:space="preserve" text-anchor="start" x="807.5" y="-81.25" font-family="Helvetica,sans-Serif" font-size="10.00" fill="grey">stateChanged</text>
</g>
<!-- Node9&#45;&gt;Node1 -->
<g id="edge9_Node000001_Node000009" class="edge">
<title>Node9&#45;&gt;Node1</title>
<g id="a_edge9_Node000001_Node000009"><a xlink:title=" ">
<path fill="none" stroke="#9a32cd" stroke-dasharray="5,2" d="M922.6,-25.76C967.51,-28.81 1023.62,-34.27 1073,-44 1099.39,-49.2 1128.6,-58.38 1149.52,-65.58"/>
<polygon fill="#9a32cd" stroke="#9a32cd" points="922.86,-22.27 912.65,-25.12 922.41,-29.26 922.86,-22.27"/>
</a>
</g>
<text xml:space="preserve" text-anchor="start" x="982.5" y="-49.25" font-family="Helvetica,sans-Serif" font-size="10.00" fill="grey">received</text>
</g>
</g>
</svg>
