<?xml version="1.0" encoding="UTF-8" standalone="no"?>
<!DOCTYPE svg PUBLIC "-//W3C//DTD SVG 1.1//EN"
 "http://www.w3.org/Graphics/SVG/1.1/DTD/svg11.dtd">
<!-- Generated by graphviz version 14.1.3 (20260303.0454)
 -->
<!-- Title: AsyncFw::AbstractTlsSocket::close Pages: 1 -->
<svg width="481pt" height="140pt"
 viewBox="0.00 0.00 481.00 140.00" xmlns="http://www.w3.org/2000/svg" xmlns:xlink="http://www.w3.org/1999/xlink">
<g id="graph0" class="graph" transform="scale(1 1) rotate(0) translate(4 136)">
<title>AsyncFw::AbstractTlsSocket::close</title>
<!-- Node1 -->
<g id="Node000001" class="node">
<title>Node1</title>
<g id="a_Node000001"><a xlink:title="Immediately releases OpenSSL session pointers and forcefully closes the system&#45;level descriptor.">
<polygon fill="#999999" stroke="#666666" points="473.25,-82 329,-82 329,-50 473.25,-50 473.25,-82"/>
<text xml:space="preserve" text-anchor="start" x="337" y="-68.5" font-family="Helvetica,sans-Serif" font-size="10.00">AsyncFw::AbstractTlsSocket</text>
<text xml:space="preserve" text-anchor="middle" x="401.12" y="-56.5" font-family="Helvetica,sans-Serif" font-size="10.00">::close</text>
</a>
</g>
</g>
<!-- Node2 -->
<g id="Node000002" class="node">
<title>Node2</title>
<g id="a_Node000002"><a xlink:href="classAsyncFw_1_1AbstractTlsSocket.html#a57ac6daff9926cf631abcd1e19073cc8" target="_top" xlink:title="Core internal event handler reacting to raw descriptor readiness signals.">
<polygon fill="white" stroke="#666666" points="293,-132 148.75,-132 148.75,-100 293,-100 293,-132"/>
<text xml:space="preserve" text-anchor="start" x="156.75" y="-118.5" font-family="Helvetica,sans-Serif" font-size="10.00">AsyncFw::AbstractTlsSocket</text>
<text xml:space="preserve" text-anchor="middle" x="220.88" y="-106.5" font-family="Helvetica,sans-Serif" font-size="10.00">::activateEvent</text>
</a>
</g>
</g>
<!-- Node1&#45;&gt;Node2 -->
<g id="edge1_Node000001_Node000002" class="edge">
<title>Node1&#45;&gt;Node2</title>
<g id="a_edge1_Node000001_Node000002"><a xlink:title=" ">
<path fill="none" stroke="#63b8ff" d="M331,-85.39C314.38,-90.05 296.78,-94.99 280.68,-99.51"/>
<polygon fill="#63b8ff" stroke="#63b8ff" points="331.62,-88.85 340.3,-82.78 329.73,-82.11 331.62,-88.85"/>
</a>
</g>
</g>
<!-- Node4 -->
<g id="Node000004" class="node">
<title>Node4</title>
<g id="a_Node000004"><a xlink:href="classAsyncFw_1_1HttpSocket.html#a96932e5f6b5f84c4f204b0e6e4ef8472" target="_top" xlink:title="Immediately releases OpenSSL session pointers and forcefully closes the system&#45;level descriptor.">
<polygon fill="white" stroke="#666666" points="277.25,-82 164.5,-82 164.5,-50 277.25,-50 277.25,-82"/>
<text xml:space="preserve" text-anchor="start" x="172.5" y="-68.5" font-family="Helvetica,sans-Serif" font-size="10.00">AsyncFw::HttpSocket</text>
<text xml:space="preserve" text-anchor="middle" x="220.88" y="-56.5" font-family="Helvetica,sans-Serif" font-size="10.00">::close</text>
</a>
</g>
</g>
<!-- Node1&#45;&gt;Node4 -->
<g id="edge3_Node000001_Node000004" class="edge">
<title>Node1&#45;&gt;Node4</title>
<g id="a_edge3_Node000001_Node000004"><a xlink:title=" ">
<path fill="none" stroke="#63b8ff" d="M317.43,-66C303.98,-66 290.33,-66 277.73,-66"/>
<polygon fill="#63b8ff" stroke="#63b8ff" points="317.14,-69.5 327.14,-66 317.14,-62.5 317.14,-69.5"/>
</a>
</g>
</g>
<!-- Node5 -->
<g id="Node000005" class="node">
<title>Node5</title>
<g id="a_Node000005"><a xlink:href="classAsyncFw_1_1DataArrayAbstractTcp_1_1Thread.html#ab6df6de1f9828a772e5968477ce5dffa" target="_top" xlink:title="Performs cleanup routines and safely removes a socket from the thread loop.">
<polygon fill="white" stroke="#666666" points="293,-32 148.75,-32 148.75,0 293,0 293,-32"/>
<text xml:space="preserve" text-anchor="start" x="156.75" y="-18.5" font-family="Helvetica,sans-Serif" font-size="10.00">AsyncFw::DataArrayAbstract</text>
<text xml:space="preserve" text-anchor="middle" x="220.88" y="-6.5" font-family="Helvetica,sans-Serif" font-size="10.00">Tcp::Thread::destroySocket</text>
</a>
</g>
</g>
<!-- Node1&#45;&gt;Node5 -->
<g id="edge5_Node000001_Node000005" class="edge">
<title>Node1&#45;&gt;Node5</title>
<g id="a_edge5_Node000001_Node000005"><a xlink:title=" ">
<path fill="none" stroke="#63b8ff" d="M331,-46.61C314.38,-41.95 296.78,-37.01 280.68,-32.49"/>
<polygon fill="#63b8ff" stroke="#63b8ff" points="329.73,-49.89 340.3,-49.22 331.62,-43.15 329.73,-49.89"/>
</a>
</g>
</g>
<!-- Node3 -->
<g id="Node000003" class="node">
<title>Node3</title>
<g id="a_Node000003"><a xlink:href="classAsyncFw_1_1HttpSocket.html#ad51bb1bf5880c3037c7ad70231c0767d" target="_top" xlink:title="Core internal event handler reacting to raw descriptor readiness signals.">
<polygon fill="white" stroke="#666666" points="112.75,-107 0,-107 0,-75 112.75,-75 112.75,-107"/>
<text xml:space="preserve" text-anchor="start" x="8" y="-93.5" font-family="Helvetica,sans-Serif" font-size="10.00">AsyncFw::HttpSocket</text>
<text xml:space="preserve" text-anchor="middle" x="56.38" y="-81.5" font-family="Helvetica,sans-Serif" font-size="10.00">::activateEvent</text>
</a>
</g>
</g>
<!-- Node2&#45;&gt;Node3 -->
<g id="edge2_Node000002_Node000003" class="edge">
<title>Node2&#45;&gt;Node3</title>
<g id="a_edge2_Node000002_Node000003"><a xlink:title=" ">
<path fill="none" stroke="#63b8ff" d="M137.35,-103.3C129.09,-102.03 120.85,-100.76 112.96,-99.55"/>
<polygon fill="#63b8ff" stroke="#63b8ff" points="136.69,-106.74 147.1,-104.8 137.75,-99.82 136.69,-106.74"/>
</a>
</g>
</g>
<!-- Node4&#45;&gt;Node3 -->
<g id="edge4_Node000004_Node000003" class="edge">
<title>Node4&#45;&gt;Node3</title>
<g id="a_edge4_Node000004_Node000003"><a xlink:title=" ">
<path fill="none" stroke="#63b8ff" d="M153.35,-76.23C139.99,-78.29 126.09,-80.43 113.15,-82.42"/>
<polygon fill="#63b8ff" stroke="#63b8ff" points="153.56,-79.74 162.91,-74.76 152.49,-72.83 153.56,-79.74"/>
</a>
</g>
</g>
</g>
</svg>
