<?xml version="1.0" encoding="UTF-8" standalone="no"?>
<!DOCTYPE svg PUBLIC "-//W3C//DTD SVG 1.1//EN"
 "http://www.w3.org/Graphics/SVG/1.1/DTD/svg11.dtd">
<!-- Generated by graphviz version 12.2.1 (20241206.2353)
 -->
<!-- Title: AsyncFw::HttpSocket Pages: 1 -->
<svg width="1028pt" height="113pt"
 viewBox="0.00 0.00 1028.00 113.00" xmlns="http://www.w3.org/2000/svg" xmlns:xlink="http://www.w3.org/1999/xlink">
<g id="graph0" class="graph" transform="scale(1 1) rotate(0) translate(4 109)">
<title>AsyncFw::HttpSocket</title>
<!-- Node1 -->
<g id="Node000001" class="node">
<title>Node1</title>
<g id="a_Node000001"><a xlink:title="The HttpSocket class.">
<polygon fill="#999999" stroke="#666666" points="1020,-57 907.25,-57 907.25,-37 1020,-37 1020,-57"/>
<text text-anchor="middle" x="963.62" y="-43.5" font-family="Helvetica,sans-Serif" font-size="10.00">AsyncFw::HttpSocket</text>
</a>
</g>
</g>
<!-- Node2 -->
<g id="Node000002" class="node">
<title>Node2</title>
<g id="a_Node000002"><a xlink:href="classAsyncFw_1_1AbstractTlsSocket.html" target="_top" xlink:title="The AbstractTlsSocket class provides the base functionality for TLS encrypted socket.">
<polygon fill="white" stroke="#666666" points="796.62,-89 652.38,-89 652.38,-69 796.62,-69 796.62,-89"/>
<text text-anchor="middle" x="724.5" y="-75.5" font-family="Helvetica,sans-Serif" font-size="10.00">AsyncFw::AbstractTlsSocket</text>
</a>
</g>
</g>
<!-- Node2&#45;&gt;Node1 -->
<g id="edge1_Node000001_Node000002" class="edge">
<title>Node2&#45;&gt;Node1</title>
<g id="a_edge1_Node000001_Node000002"><a xlink:title=" ">
<path fill="none" stroke="#63b8ff" d="M808.1,-74.45C834.17,-72.34 863.01,-69.31 889.25,-65 900.9,-63.09 913.43,-60.29 924.77,-57.47"/>
<polygon fill="#63b8ff" stroke="#63b8ff" points="807.94,-70.95 798.24,-75.21 808.48,-77.93 807.94,-70.95"/>
</a>
</g>
</g>
<!-- Node3 -->
<g id="Node000003" class="node">
<title>Node3</title>
<g id="a_Node000003"><a xlink:href="classAsyncFw_1_1AbstractSocket.html" target="_top" xlink:title="The AbstractSocket class provides the base functionality for socket.">
<polygon fill="white" stroke="#666666" points="478,-89 347.25,-89 347.25,-69 478,-69 478,-89"/>
<text text-anchor="middle" x="412.62" y="-75.5" font-family="Helvetica,sans-Serif" font-size="10.00">AsyncFw::AbstractSocket</text>
</a>
</g>
</g>
<!-- Node3&#45;&gt;Node2 -->
<g id="edge2_Node000002_Node000003" class="edge">
<title>Node3&#45;&gt;Node2</title>
<g id="a_edge2_Node000002_Node000003"><a xlink:title=" ">
<path fill="none" stroke="#63b8ff" d="M489.5,-79C539.04,-79 603.32,-79 651.97,-79"/>
<polygon fill="#63b8ff" stroke="#63b8ff" points="489.72,-75.5 479.72,-79 489.72,-82.5 489.72,-75.5"/>
</a>
</g>
</g>
<!-- Node4 -->
<g id="Node000004" class="node">
<title>Node4</title>
<g id="a_Node000004"><a xlink:href="structAsyncFw_1_1AnyData.html" target="_top" xlink:title="The AnyData class.">
<polygon fill="white" stroke="#666666" points="268.5,-105 167,-105 167,-85 268.5,-85 268.5,-105"/>
<text text-anchor="middle" x="217.75" y="-91.5" font-family="Helvetica,sans-Serif" font-size="10.00">AsyncFw::AnyData</text>
</a>
</g>
</g>
<!-- Node4&#45;&gt;Node3 -->
<g id="edge3_Node000003_Node000004" class="edge">
<title>Node4&#45;&gt;Node3</title>
<g id="a_edge3_Node000003_Node000004"><a xlink:title=" ">
<path fill="none" stroke="#63b8ff" d="M280.4,-89.89C301.58,-88.13 325.36,-86.16 346.79,-84.38"/>
<polygon fill="#63b8ff" stroke="#63b8ff" points="280.11,-86.4 270.43,-90.71 280.69,-93.37 280.11,-86.4"/>
</a>
</g>
</g>
<!-- Node5 -->
<g id="Node000005" class="node">
<title>Node5</title>
<g id="a_Node000005"><a xlink:href="classAsyncFw_1_1Thread.html" target="_top" xlink:title="AsyncFw::Thread thread with sockets.">
<polygon fill="white" stroke="#666666" points="264.38,-67 171.12,-67 171.12,-47 264.38,-47 264.38,-67"/>
<text text-anchor="middle" x="217.75" y="-53.5" font-family="Helvetica,sans-Serif" font-size="10.00">AsyncFw::Thread</text>
</a>
</g>
</g>
<!-- Node5&#45;&gt;Node3 -->
<g id="edge4_Node000003_Node000005" class="edge">
<title>Node5&#45;&gt;Node3</title>
<g id="a_edge4_Node000003_Node000005"><a xlink:title=" ">
<path fill="none" stroke="#9a32cd" stroke-dasharray="5,2" d="M275.8,-63.51C298.13,-66.05 323.88,-68.99 346.9,-71.62"/>
<polygon fill="#9a32cd" stroke="#9a32cd" points="276.29,-60.04 265.96,-62.39 275.5,-67 276.29,-60.04"/>
</a>
</g>
<text text-anchor="middle" x="304.12" y="-71.16" font-family="Helvetica,sans-Serif" font-size="10.00" fill="grey"> thread_</text>
</g>
<!-- Node6 -->
<g id="Node000006" class="node">
<title>Node6</title>
<g id="a_Node000006"><a xlink:href="classAsyncFw_1_1AbstractThread.html" target="_top" xlink:title="The AbstractThread class provides the base functionality for thread management.">
<polygon fill="white" stroke="#666666" points="130,-67 0,-67 0,-47 130,-47 130,-67"/>
<text text-anchor="middle" x="65" y="-53.5" font-family="Helvetica,sans-Serif" font-size="10.00">AsyncFw::AbstractThread</text>
</a>
</g>
</g>
<!-- Node6&#45;&gt;Node5 -->
<g id="edge5_Node000005_Node000006" class="edge">
<title>Node6&#45;&gt;Node5</title>
<g id="a_edge5_Node000005_Node000006"><a xlink:title=" ">
<path fill="none" stroke="#63b8ff" d="M141.6,-57C151.58,-57 161.56,-57 170.82,-57"/>
<polygon fill="#63b8ff" stroke="#63b8ff" points="141.88,-53.5 131.88,-57 141.88,-60.5 141.88,-53.5"/>
</a>
</g>
</g>
<!-- Node7 -->
<g id="Node000007" class="node">
<title>Node7</title>
<g id="a_Node000007"><a xlink:href="classAsyncFw_1_1FunctionConnectorProtected.html" target="_top" xlink:title=" ">
<polygon fill="white" stroke="#666666" points="810.5,-32 638.5,-32 638.5,0 810.5,0 810.5,-32"/>
<text text-anchor="start" x="646.5" y="-18.5" font-family="Helvetica,sans-Serif" font-size="10.00">AsyncFw::FunctionConnector</text>
<text text-anchor="middle" x="724.5" y="-6.5" font-family="Helvetica,sans-Serif" font-size="10.00">Protected&lt; AsyncFw::HttpSocket &gt;</text>
</a>
</g>
</g>
<!-- Node7&#45;&gt;Node1 -->
<g id="edge6_Node000001_Node000007" class="edge">
<title>Node7&#45;&gt;Node1</title>
<g id="a_edge6_Node000001_Node000007"><a xlink:title=" ">
<path fill="none" stroke="#9a32cd" stroke-dasharray="5,2" d="M822.18,-10.49C844.38,-10.91 867.76,-12.71 889.25,-17 908.28,-20.8 928.61,-29.52 943.03,-36.58"/>
<polygon fill="#9a32cd" stroke="#9a32cd" points="822.23,-6.99 812.2,-10.41 822.17,-13.99 822.23,-6.99"/>
</a>
</g>
<text text-anchor="middle" x="858.88" y="-55.5" font-family="Helvetica,sans-Serif" font-size="10.00" fill="grey"> progress</text>
<text text-anchor="middle" x="858.88" y="-43.5" font-family="Helvetica,sans-Serif" font-size="10.00" fill="grey">received</text>
<text text-anchor="middle" x="858.88" y="-31.5" font-family="Helvetica,sans-Serif" font-size="10.00" fill="grey">stateChanged</text>
<text text-anchor="middle" x="858.88" y="-19.5" font-family="Helvetica,sans-Serif" font-size="10.00" fill="grey">writeContent</text>
</g>
<!-- Node8 -->
<g id="Node000008" class="node">
<title>Node8</title>
<g id="a_Node000008"><a xlink:href="classAsyncFw_1_1FunctionConnectorProtected.html" target="_top" xlink:title="Защищенный коннетор, отправитель может быть только один.">
<polygon fill="white" stroke="#666666" points="485.5,-32 339.75,-32 339.75,0 485.5,0 485.5,-32"/>
<text text-anchor="start" x="347.75" y="-18.5" font-family="Helvetica,sans-Serif" font-size="10.00">AsyncFw::FunctionConnector</text>
<text text-anchor="middle" x="412.62" y="-6.5" font-family="Helvetica,sans-Serif" font-size="10.00">Protected&lt; F &gt;</text>
</a>
</g>
</g>
<!-- Node8&#45;&gt;Node7 -->
<g id="edge7_Node000007_Node000008" class="edge">
<title>Node8&#45;&gt;Node7</title>
<g id="a_edge7_Node000007_Node000008"><a xlink:title=" ">
<path fill="none" stroke="orange" stroke-dasharray="5,2" d="M497.34,-16C541,-16 594.3,-16 638.19,-16"/>
<polygon fill="orange" stroke="orange" points="497.4,-12.5 487.4,-16 497.4,-19.5 497.4,-12.5"/>
</a>
</g>
<text text-anchor="middle" x="562" y="-18.5" font-family="Helvetica,sans-Serif" font-size="10.00" fill="grey"> &lt; AsyncFw::HttpSocket &gt;</text>
</g>
</g>
</svg>
