<?xml version="1.0" encoding="UTF-8" standalone="no"?>
<!DOCTYPE svg PUBLIC "-//W3C//DTD SVG 1.1//EN"
 "http://www.w3.org/Graphics/SVG/1.1/DTD/svg11.dtd">
<!-- Generated by graphviz version 14.1.3 (20260303.0454)
 -->
<!-- Title: AsyncFw::AbstractThread::removeTimer Pages: 1 -->
<svg width="318pt" height="78pt"
 viewBox="0.00 0.00 318.00 78.00" xmlns="http://www.w3.org/2000/svg" xmlns:xlink="http://www.w3.org/1999/xlink">
<g id="graph0" class="graph" transform="scale(1 1) rotate(0) translate(4 74)">
<title>AsyncFw::AbstractThread::removeTimer</title>
<!-- Node1 -->
<g id="Node000001" class="node">
<title>Node1</title>
<g id="a_Node000001"><a xlink:title="Remove timer.">
<polygon fill="#999999" stroke="#666666" points="130,-54 0,-54 0,-22 130,-22 130,-54"/>
<text xml:space="preserve" text-anchor="start" x="8" y="-40.5" font-family="Helvetica,sans-Serif" font-size="10.00">AsyncFw::AbstractThread</text>
<text xml:space="preserve" text-anchor="middle" x="65" y="-28.5" font-family="Helvetica,sans-Serif" font-size="10.00">::removeTimer</text>
</a>
</g>
</g>
<!-- Node2 -->
<g id="Node000002" class="node">
<title>Node2</title>
<g id="a_Node000002"><a xlink:href="classAsyncFw_1_1AbstractThread.html#a41d1cf92e033bcc11e2394cb949e031a" target="_top" xlink:title="Returns unique identifier of managed thread.">
<polygon fill="white" stroke="#666666" points="309.5,-70 166,-70 166,-50 309.5,-50 309.5,-70"/>
<text xml:space="preserve" text-anchor="middle" x="237.75" y="-56.5" font-family="Helvetica,sans-Serif" font-size="10.00">AsyncFw::AbstractThread::id</text>
</a>
</g>
</g>
<!-- Node1&#45;&gt;Node2 -->
<g id="edge1_Node000001_Node000002" class="edge">
<title>Node1&#45;&gt;Node2</title>
<g id="a_edge1_Node000001_Node000002"><a xlink:title=" ">
<path fill="none" stroke="#63b8ff" d="M130.07,-46.25C138.07,-47.29 146.34,-48.35 154.57,-49.41"/>
<polygon fill="#63b8ff" stroke="#63b8ff" points="153.87,-52.85 164.23,-50.66 154.76,-45.91 153.87,-52.85"/>
</a>
</g>
</g>
<!-- Node3 -->
<g id="Node000003" class="node">
<title>Node3</title>
<g id="a_Node000003"><a xlink:href="classAsyncFw_1_1AbstractThread.html#abe96e6b2a1de041f0d25390a6b77e50a" target="_top" xlink:title="Runs a task in a managed thread.">
<polygon fill="white" stroke="#666666" points="302.75,-32 172.75,-32 172.75,0 302.75,0 302.75,-32"/>
<text xml:space="preserve" text-anchor="start" x="180.75" y="-18.5" font-family="Helvetica,sans-Serif" font-size="10.00">AsyncFw::AbstractThread</text>
<text xml:space="preserve" text-anchor="middle" x="237.75" y="-6.5" font-family="Helvetica,sans-Serif" font-size="10.00">::invokeTask</text>
</a>
</g>
</g>
<!-- Node1&#45;&gt;Node3 -->
<g id="edge2_Node000001_Node000003" class="edge">
<title>Node1&#45;&gt;Node3</title>
<g id="a_edge2_Node000001_Node000003"><a xlink:title=" ">
<path fill="none" stroke="#63b8ff" d="M130.07,-29.75C140.21,-28.44 150.79,-27.08 161.17,-25.74"/>
<polygon fill="#63b8ff" stroke="#63b8ff" points="161.35,-29.24 170.82,-24.49 160.46,-22.3 161.35,-29.24"/>
</a>
</g>
</g>
</g>
</svg>
