<?xml version="1.0" encoding="UTF-8" standalone="no"?>
<!DOCTYPE svg PUBLIC "-//W3C//DTD SVG 1.1//EN"
 "http://www.w3.org/Graphics/SVG/1.1/DTD/svg11.dtd">
<!-- Generated by graphviz version 12.2.1 (20241206.2353)
 -->
<!-- Title: main/Coroutine.h Pages: 1 -->
<svg width="220pt" height="84pt"
 viewBox="0.00 0.00 220.38 84.00" xmlns="http://www.w3.org/2000/svg" xmlns:xlink="http://www.w3.org/1999/xlink">
<g id="graph0" class="graph" transform="scale(1 1) rotate(0) translate(4 80)">
<title>main/Coroutine.h</title>
<!-- Node1 -->
<g id="Node000001" class="node">
<title>Node1</title>
<g id="a_Node000001"><a xlink:title="The CoroutineTask, CoroutineAwait, CoroutineInvokeAwait structs.">
<polygon fill="#999999" stroke="#666666" points="163.38,-76 73.12,-76 73.12,-56 163.38,-56 163.38,-76"/>
<text text-anchor="middle" x="118.25" y="-62.5" font-family="Helvetica,sans-Serif" font-size="10.00">main/Coroutine.h</text>
</a>
</g>
</g>
<!-- Node2 -->
<g id="Node000002" class="node">
<title>Node2</title>
<g id="a_Node000002"><a xlink:href="AddressResolver_8h.html" target="_top" xlink:title="The AddressResolver class.">
<polygon fill="white" stroke="#666666" points="122.5,-20 0,-20 0,0 122.5,0 122.5,-20"/>
<text text-anchor="middle" x="61.25" y="-6.5" font-family="Helvetica,sans-Serif" font-size="10.00">main/AddressResolver.h</text>
</a>
</g>
</g>
<!-- Node1&#45;&gt;Node2 -->
<g id="edge1_Node000001_Node000002" class="edge">
<title>Node1&#45;&gt;Node2</title>
<g id="a_edge1_Node000001_Node000002"><a xlink:title=" ">
<path fill="none" stroke="#63b8ff" d="M100.14,-47.85C90.51,-38.72 79.04,-27.86 71.06,-20.3"/>
<polygon fill="#63b8ff" stroke="#63b8ff" points="97.56,-50.22 107.22,-54.55 102.37,-45.13 97.56,-50.22"/>
</a>
</g>
</g>
<!-- Node3 -->
<g id="Node000003" class="node">
<title>Node3</title>
<g id="a_Node000003"><a xlink:href="Timer_8h.html" target="_top" xlink:title="The Timer class.">
<polygon fill="white" stroke="#666666" points="212.38,-20 140.12,-20 140.12,0 212.38,0 212.38,-20"/>
<text text-anchor="middle" x="176.25" y="-6.5" font-family="Helvetica,sans-Serif" font-size="10.00">main/Timer.h</text>
</a>
</g>
</g>
<!-- Node1&#45;&gt;Node3 -->
<g id="edge2_Node000001_Node000003" class="edge">
<title>Node1&#45;&gt;Node3</title>
<g id="a_edge2_Node000001_Node000003"><a xlink:title=" ">
<path fill="none" stroke="#63b8ff" d="M136.67,-47.85C146.48,-38.72 158.15,-27.86 166.26,-20.3"/>
<polygon fill="#63b8ff" stroke="#63b8ff" points="134.39,-45.19 129.46,-54.56 139.16,-50.31 134.39,-45.19"/>
</a>
</g>
</g>
</g>
</svg>
