<?xml version="1.0" encoding="UTF-8" standalone="no"?>
<!DOCTYPE svg PUBLIC "-//W3C//DTD SVG 1.1//EN"
 "http://www.w3.org/Graphics/SVG/1.1/DTD/svg11.dtd">
<!-- Generated by graphviz version 14.1.3 (20260303.0454)
 -->
<!-- Title: main/Coroutine.h Pages: 1 -->
<svg width="365pt" height="308pt"
 viewBox="0.00 0.00 365.00 308.00" xmlns="http://www.w3.org/2000/svg" xmlns:xlink="http://www.w3.org/1999/xlink">
<g id="graph0" class="graph" transform="scale(1 1) rotate(0) translate(4 304)">
<title>main/Coroutine.h</title>
<!-- Node1 -->
<g id="Node000001" class="node">
<title>Node1</title>
<g id="a_Node000001"><a xlink:title="The CoroutineTask, CoroutineAwait, CoroutineInvokeAwait structs.">
<polygon fill="#999999" stroke="#666666" points="166,-300 75.75,-300 75.75,-280 166,-280 166,-300"/>
<text xml:space="preserve" text-anchor="middle" x="120.88" y="-286.5" font-family="Helvetica,sans-Serif" font-size="10.00">main/Coroutine.h</text>
</a>
</g>
</g>
<!-- Node2 -->
<g id="Node000002" class="node">
<title>Node2</title>
<g id="a_Node000002"><a xlink:title=" ">
<polygon fill="#e0e0e0" stroke="#999999" points="55.75,-244 0,-244 0,-224 55.75,-224 55.75,-244"/>
<text xml:space="preserve" text-anchor="middle" x="27.88" y="-230.5" font-family="Helvetica,sans-Serif" font-size="10.00">coroutine</text>
</a>
</g>
</g>
<!-- Node1&#45;&gt;Node2 -->
<g id="edge1_Node000001_Node000002" class="edge">
<title>Node1&#45;&gt;Node2</title>
<g id="a_edge1_Node000001_Node000002"><a xlink:title=" ">
<path fill="none" stroke="#63b8ff" d="M104.68,-279.59C90.63,-271.44 70.04,-259.48 53.72,-250"/>
<polygon fill="#63b8ff" stroke="#63b8ff" points="55.92,-247.23 45.51,-245.24 52.4,-253.29 55.92,-247.23"/>
</a>
</g>
</g>
<!-- Node3 -->
<g id="Node000003" class="node">
<title>Node3</title>
<g id="a_Node000003"><a xlink:href="AnyData_8h.html" target="_top" xlink:title="The AnyData class.">
<polygon fill="white" stroke="#666666" points="167.5,-244 74.25,-244 74.25,-224 167.5,-224 167.5,-244"/>
<text xml:space="preserve" text-anchor="middle" x="120.88" y="-230.5" font-family="Helvetica,sans-Serif" font-size="10.00">../core/AnyData.h</text>
</a>
</g>
</g>
<!-- Node1&#45;&gt;Node3 -->
<g id="edge2_Node000001_Node000003" class="edge">
<title>Node1&#45;&gt;Node3</title>
<g id="a_edge2_Node000001_Node000003"><a xlink:title=" ">
<path fill="none" stroke="#63b8ff" d="M120.88,-279.59C120.88,-273.01 120.88,-263.96 120.88,-255.73"/>
<polygon fill="#63b8ff" stroke="#63b8ff" points="124.38,-255.81 120.88,-245.81 117.38,-255.81 124.38,-255.81"/>
</a>
</g>
</g>
<!-- Node5 -->
<g id="Node000005" class="node">
<title>Node5</title>
<g id="a_Node000005"><a xlink:href="ThreadPool_8h.html" target="_top" xlink:title="The AbstractThreadPool and ThreadPool classes.">
<polygon fill="white" stroke="#666666" points="259.75,-244 186,-244 186,-224 259.75,-224 259.75,-244"/>
<text xml:space="preserve" text-anchor="middle" x="222.88" y="-230.5" font-family="Helvetica,sans-Serif" font-size="10.00">ThreadPool.h</text>
</a>
</g>
</g>
<!-- Node1&#45;&gt;Node5 -->
<g id="edge4_Node000001_Node000005" class="edge">
<title>Node1&#45;&gt;Node5</title>
<g id="a_edge4_Node000001_Node000005"><a xlink:title=" ">
<path fill="none" stroke="#63b8ff" d="M138.64,-279.59C154.2,-271.36 177.06,-259.26 195.04,-249.74"/>
<polygon fill="#63b8ff" stroke="#63b8ff" points="196.43,-252.96 203.63,-245.19 193.16,-246.77 196.43,-252.96"/>
</a>
</g>
</g>
<!-- Node4 -->
<g id="Node000004" class="node">
<title>Node4</title>
<g id="a_Node000004"><a xlink:title=" ">
<polygon fill="#e0e0e0" stroke="#999999" points="136.75,-188 105,-188 105,-168 136.75,-168 136.75,-188"/>
<text xml:space="preserve" text-anchor="middle" x="120.88" y="-174.5" font-family="Helvetica,sans-Serif" font-size="10.00">any</text>
</a>
</g>
</g>
<!-- Node3&#45;&gt;Node4 -->
<g id="edge3_Node000003_Node000004" class="edge">
<title>Node3&#45;&gt;Node4</title>
<g id="a_edge3_Node000003_Node000004"><a xlink:title=" ">
<path fill="none" stroke="#63b8ff" d="M120.88,-223.59C120.88,-217.01 120.88,-207.96 120.88,-199.73"/>
<polygon fill="#63b8ff" stroke="#63b8ff" points="124.38,-199.81 120.88,-189.81 117.38,-199.81 124.38,-199.81"/>
</a>
</g>
</g>
<!-- Node6 -->
<g id="Node000006" class="node">
<title>Node6</title>
<g id="a_Node000006"><a xlink:href="Thread_8h.html" target="_top" xlink:title="The Thread class.">
<polygon fill="white" stroke="#666666" points="252.38,-188 167.38,-188 167.38,-168 252.38,-168 252.38,-188"/>
<text xml:space="preserve" text-anchor="middle" x="209.88" y="-174.5" font-family="Helvetica,sans-Serif" font-size="10.00">../core/Thread.h</text>
</a>
</g>
</g>
<!-- Node5&#45;&gt;Node6 -->
<g id="edge5_Node000005_Node000006" class="edge">
<title>Node5&#45;&gt;Node6</title>
<g id="a_edge5_Node000005_Node000006"><a xlink:title=" ">
<path fill="none" stroke="#63b8ff" d="M220.61,-223.59C219.01,-216.93 216.8,-207.75 214.8,-199.44"/>
<polygon fill="#63b8ff" stroke="#63b8ff" points="218.21,-198.67 212.47,-189.77 211.41,-200.31 218.21,-198.67"/>
</a>
</g>
</g>
<!-- Node13 -->
<g id="Node000013" class="node">
<title>Node13</title>
<g id="a_Node000013"><a xlink:href="Instance_8h.html" target="_top" xlink:title="The AbstractInstance and Instance classes.">
<polygon fill="white" stroke="#666666" points="331.75,-188 270,-188 270,-168 331.75,-168 331.75,-188"/>
<text xml:space="preserve" text-anchor="middle" x="300.88" y="-174.5" font-family="Helvetica,sans-Serif" font-size="10.00">Instance.h</text>
</a>
</g>
</g>
<!-- Node5&#45;&gt;Node13 -->
<g id="edge12_Node000005_Node000013" class="edge">
<title>Node5&#45;&gt;Node13</title>
<g id="a_edge12_Node000005_Node000013"><a xlink:title=" ">
<path fill="none" stroke="#63b8ff" d="M236.46,-223.59C247.91,-215.67 264.54,-204.16 278.03,-194.82"/>
<polygon fill="#63b8ff" stroke="#63b8ff" points="279.71,-197.91 285.94,-189.34 275.72,-192.16 279.71,-197.91"/>
</a>
</g>
</g>
<!-- Node7 -->
<g id="Node000007" class="node">
<title>Node7</title>
<g id="a_Node000007"><a xlink:href="FunctionConnector_8h.html" target="_top" xlink:title="The AbstractFunctionConnector, FunctionConnector, FunctionConnectorProtected, FunctionConnectionGuard...">
<polygon fill="white" stroke="#666666" points="262.88,-132 156.88,-132 156.88,-112 262.88,-112 262.88,-132"/>
<text xml:space="preserve" text-anchor="middle" x="209.88" y="-118.5" font-family="Helvetica,sans-Serif" font-size="10.00">FunctionConnector.h</text>
</a>
</g>
</g>
<!-- Node6&#45;&gt;Node7 -->
<g id="edge6_Node000006_Node000007" class="edge">
<title>Node6&#45;&gt;Node7</title>
<g id="a_edge6_Node000006_Node000007"><a xlink:title=" ">
<path fill="none" stroke="#63b8ff" d="M209.88,-167.59C209.88,-161.01 209.88,-151.96 209.88,-143.73"/>
<polygon fill="#63b8ff" stroke="#63b8ff" points="213.38,-143.81 209.88,-133.81 206.38,-143.81 213.38,-143.81"/>
</a>
</g>
</g>
<!-- Node8 -->
<g id="Node000008" class="node">
<title>Node8</title>
<g id="a_Node000008"><a xlink:href="AbstractThread_8h.html" target="_top" xlink:title="The AbstractThread class.">
<polygon fill="white" stroke="#666666" points="255.38,-76 164.38,-76 164.38,-56 255.38,-56 255.38,-76"/>
<text xml:space="preserve" text-anchor="middle" x="209.88" y="-62.5" font-family="Helvetica,sans-Serif" font-size="10.00">AbstractThread.h</text>
</a>
</g>
</g>
<!-- Node7&#45;&gt;Node8 -->
<g id="edge7_Node000007_Node000008" class="edge">
<title>Node7&#45;&gt;Node8</title>
<g id="a_edge7_Node000007_Node000008"><a xlink:title=" ">
<path fill="none" stroke="#63b8ff" d="M209.88,-111.59C209.88,-105.01 209.88,-95.96 209.88,-87.73"/>
<polygon fill="#63b8ff" stroke="#63b8ff" points="213.38,-87.81 209.88,-77.81 206.38,-87.81 213.38,-87.81"/>
</a>
</g>
</g>
<!-- Node9 -->
<g id="Node000009" class="node">
<title>Node9</title>
<g id="a_Node000009"><a xlink:title=" ">
<polygon fill="#e0e0e0" stroke="#999999" points="140.38,-20 97.38,-20 97.38,0 140.38,0 140.38,-20"/>
<text xml:space="preserve" text-anchor="middle" x="118.88" y="-6.5" font-family="Helvetica,sans-Serif" font-size="10.00">thread</text>
</a>
</g>
</g>
<!-- Node8&#45;&gt;Node9 -->
<g id="edge8_Node000008_Node000009" class="edge">
<title>Node8&#45;&gt;Node9</title>
<g id="a_edge8_Node000008_Node000009"><a xlink:title=" ">
<path fill="none" stroke="#63b8ff" d="M194.02,-55.59C180.41,-47.51 160.51,-35.71 144.61,-26.27"/>
<polygon fill="#63b8ff" stroke="#63b8ff" points="146.54,-23.35 136.15,-21.25 142.97,-29.37 146.54,-23.35"/>
</a>
</g>
</g>
<!-- Node10 -->
<g id="Node000010" class="node">
<title>Node10</title>
<g id="a_Node000010"><a xlink:title=" ">
<polygon fill="#e0e0e0" stroke="#999999" points="201.38,-20 158.38,-20 158.38,0 201.38,0 201.38,-20"/>
<text xml:space="preserve" text-anchor="middle" x="179.88" y="-6.5" font-family="Helvetica,sans-Serif" font-size="10.00">mutex</text>
</a>
</g>
</g>
<!-- Node8&#45;&gt;Node10 -->
<g id="edge9_Node000008_Node000010" class="edge">
<title>Node8&#45;&gt;Node10</title>
<g id="a_edge9_Node000008_Node000010"><a xlink:title=" ">
<path fill="none" stroke="#63b8ff" d="M204.65,-55.59C200.78,-48.63 195.37,-38.89 190.59,-30.29"/>
<polygon fill="#63b8ff" stroke="#63b8ff" points="193.69,-28.66 185.78,-21.62 187.57,-32.06 193.69,-28.66"/>
</a>
</g>
</g>
<!-- Node11 -->
<g id="Node000011" class="node">
<title>Node11</title>
<g id="a_Node000011"><a xlink:title=" ">
<polygon fill="#e0e0e0" stroke="#999999" points="262.38,-20 219.38,-20 219.38,0 262.38,0 262.38,-20"/>
<text xml:space="preserve" text-anchor="middle" x="240.88" y="-6.5" font-family="Helvetica,sans-Serif" font-size="10.00">vector</text>
</a>
</g>
</g>
<!-- Node8&#45;&gt;Node11 -->
<g id="edge10_Node000008_Node000011" class="edge">
<title>Node8&#45;&gt;Node11</title>
<g id="a_edge10_Node000008_Node000011"><a xlink:title=" ">
<path fill="none" stroke="#63b8ff" d="M215.27,-55.59C219.32,-48.55 224.99,-38.67 229.97,-30"/>
<polygon fill="#63b8ff" stroke="#63b8ff" points="232.84,-32.03 234.78,-21.61 226.77,-28.54 232.84,-32.03"/>
</a>
</g>
</g>
<!-- Node12 -->
<g id="Node000012" class="node">
<title>Node12</title>
<g id="a_Node000012"><a xlink:href="invocable_8hpp_source.html" target="_top" xlink:title=" ">
<polygon fill="white" stroke="#666666" points="356.88,-20 280.88,-20 280.88,0 356.88,0 356.88,-20"/>
<text xml:space="preserve" text-anchor="middle" x="318.88" y="-6.5" font-family="Helvetica,sans-Serif" font-size="10.00">invocable.hpp</text>
</a>
</g>
</g>
<!-- Node8&#45;&gt;Node12 -->
<g id="edge11_Node000008_Node000012" class="edge">
<title>Node8&#45;&gt;Node12</title>
<g id="a_edge11_Node000008_Node000012"><a xlink:title=" ">
<path fill="none" stroke="#63b8ff" d="M228.86,-55.59C245.64,-47.28 270.37,-35.03 289.66,-25.47"/>
<polygon fill="#63b8ff" stroke="#63b8ff" points="290.98,-28.73 298.38,-21.15 287.87,-22.45 290.98,-28.73"/>
</a>
</g>
</g>
<!-- Node14 -->
<g id="Node000014" class="node">
<title>Node14</title>
<g id="a_Node000014"><a xlink:title=" ">
<polygon fill="#e0e0e0" stroke="#999999" points="320.88,-132 280.88,-132 280.88,-112 320.88,-112 320.88,-132"/>
<text xml:space="preserve" text-anchor="middle" x="300.88" y="-118.5" font-family="Helvetica,sans-Serif" font-size="10.00">string</text>
</a>
</g>
</g>
<!-- Node13&#45;&gt;Node14 -->
<g id="edge13_Node000013_Node000014" class="edge">
<title>Node13&#45;&gt;Node14</title>
<g id="a_edge13_Node000013_Node000014"><a xlink:title=" ">
<path fill="none" stroke="#63b8ff" d="M300.88,-167.59C300.88,-161.01 300.88,-151.96 300.88,-143.73"/>
<polygon fill="#63b8ff" stroke="#63b8ff" points="304.38,-143.81 300.88,-133.81 297.38,-143.81 304.38,-143.81"/>
</a>
</g>
</g>
</g>
</svg>
