<?xml version="1.0" encoding="UTF-8" standalone="no"?>
<!DOCTYPE svg PUBLIC "-//W3C//DTD SVG 1.1//EN"
 "http://www.w3.org/Graphics/SVG/1.1/DTD/svg11.dtd">
<!-- Generated by graphviz version 14.1.3 (20260303.0454)
 -->
<!-- Title: main/DataArrayTcpServer.h Pages: 1 -->
<svg width="512pt" height="364pt"
 viewBox="0.00 0.00 512.00 364.00" xmlns="http://www.w3.org/2000/svg" xmlns:xlink="http://www.w3.org/1999/xlink">
<g id="graph0" class="graph" transform="scale(1 1) rotate(0) translate(4 360)">
<title>main/DataArrayTcpServer.h</title>
<!-- Node1 -->
<g id="Node000001" class="node">
<title>Node1</title>
<g id="a_Node000001"><a xlink:title="The DataArrayTcpServer class.">
<polygon fill="#999999" stroke="#666666" points="281.62,-356 146.38,-356 146.38,-336 281.62,-336 281.62,-356"/>
<text xml:space="preserve" text-anchor="middle" x="214" y="-342.5" font-family="Helvetica,sans-Serif" font-size="10.00">main/DataArrayTcpServer.h</text>
</a>
</g>
</g>
<!-- Node2 -->
<g id="Node000002" class="node">
<title>Node2</title>
<g id="a_Node000002"><a xlink:href="ListenSocket_8h.html" target="_top" xlink:title="The ListenSocket class.">
<polygon fill="white" stroke="#666666" points="321.62,-244 240.38,-244 240.38,-224 321.62,-224 321.62,-244"/>
<text xml:space="preserve" text-anchor="middle" x="281" y="-230.5" font-family="Helvetica,sans-Serif" font-size="10.00">ListenSocket.h</text>
</a>
</g>
</g>
<!-- Node1&#45;&gt;Node2 -->
<g id="edge1_Node000001_Node000002" class="edge">
<title>Node1&#45;&gt;Node2</title>
<g id="a_edge1_Node000001_Node000002"><a xlink:title=" ">
<path fill="none" stroke="#63b8ff" d="M219.71,-335.62C230.69,-317.6 254.92,-277.81 269.41,-254.02"/>
<polygon fill="#63b8ff" stroke="#63b8ff" points="272.3,-256.01 274.51,-245.65 266.32,-252.37 272.3,-256.01"/>
</a>
</g>
</g>
<!-- Node14 -->
<g id="Node000014" class="node">
<title>Node14</title>
<g id="a_Node000014"><a xlink:href="DataArrayAbstractTcp_8h.html" target="_top" xlink:title="The DataArrayAbstractTcp class.">
<polygon fill="white" stroke="#666666" points="230.12,-300 109.88,-300 109.88,-280 230.12,-280 230.12,-300"/>
<text xml:space="preserve" text-anchor="middle" x="170" y="-286.5" font-family="Helvetica,sans-Serif" font-size="10.00">DataArrayAbstractTcp.h</text>
</a>
</g>
</g>
<!-- Node1&#45;&gt;Node14 -->
<g id="edge13_Node000001_Node000014" class="edge">
<title>Node1&#45;&gt;Node14</title>
<g id="a_edge13_Node000001_Node000014"><a xlink:title=" ">
<path fill="none" stroke="#63b8ff" d="M206.34,-335.59C200.41,-328.32 192.01,-318.02 184.79,-309.15"/>
<polygon fill="#63b8ff" stroke="#63b8ff" points="187.56,-307.01 178.53,-301.47 182.14,-311.43 187.56,-307.01"/>
</a>
</g>
</g>
<!-- Node3 -->
<g id="Node000003" class="node">
<title>Node3</title>
<g id="a_Node000003"><a xlink:href="AbstractSocket_8h.html" target="_top" xlink:title="The AbstractSocket class.">
<polygon fill="white" stroke="#666666" points="504.25,-188 381.75,-188 381.75,-168 504.25,-168 504.25,-188"/>
<text xml:space="preserve" text-anchor="middle" x="443" y="-174.5" font-family="Helvetica,sans-Serif" font-size="10.00">../core/AbstractSocket.h</text>
</a>
</g>
</g>
<!-- Node2&#45;&gt;Node3 -->
<g id="edge2_Node000002_Node000003" class="edge">
<title>Node2&#45;&gt;Node3</title>
<g id="a_edge2_Node000002_Node000003"><a xlink:title=" ">
<path fill="none" stroke="#63b8ff" d="M309.22,-223.59C335.42,-214.86 374.68,-201.77 403.9,-192.03"/>
<polygon fill="#63b8ff" stroke="#63b8ff" points="404.75,-195.44 413.13,-188.96 402.53,-188.8 404.75,-195.44"/>
</a>
</g>
</g>
<!-- Node8 -->
<g id="Node000008" class="node">
<title>Node8</title>
<g id="a_Node000008"><a xlink:href="FunctionConnector_8h.html" target="_top" xlink:title="The AbstractFunctionConnector, FunctionConnector, FunctionConnectorProtected, FunctionConnectionGuard...">
<polygon fill="white" stroke="#666666" points="155.38,-132 18.62,-132 18.62,-112 155.38,-112 155.38,-132"/>
<text xml:space="preserve" text-anchor="middle" x="87" y="-118.5" font-family="Helvetica,sans-Serif" font-size="10.00">../core/FunctionConnector.h</text>
</a>
</g>
</g>
<!-- Node2&#45;&gt;Node8 -->
<g id="edge7_Node000002_Node000008" class="edge">
<title>Node2&#45;&gt;Node8</title>
<g id="a_edge7_Node000002_Node000008"><a xlink:title=" ">
<path fill="none" stroke="#63b8ff" d="M252.73,-223.64C230.15,-215.62 198.08,-203.01 172,-188 147.55,-173.93 122.19,-153.67 105.61,-139.53"/>
<polygon fill="#63b8ff" stroke="#63b8ff" points="108.35,-137.27 98.51,-133.37 103.77,-142.56 108.35,-137.27"/>
</a>
</g>
</g>
<!-- Node4 -->
<g id="Node000004" class="node">
<title>Node4</title>
<g id="a_Node000004"><a xlink:title=" ">
<polygon fill="#e0e0e0" stroke="#999999" points="394.62,-132 349.38,-132 349.38,-112 394.62,-112 394.62,-132"/>
<text xml:space="preserve" text-anchor="middle" x="372" y="-118.5" font-family="Helvetica,sans-Serif" font-size="10.00">cstdint</text>
</a>
</g>
</g>
<!-- Node3&#45;&gt;Node4 -->
<g id="edge3_Node000003_Node000004" class="edge">
<title>Node3&#45;&gt;Node4</title>
<g id="a_edge3_Node000003_Node000004"><a xlink:title=" ">
<path fill="none" stroke="#63b8ff" d="M430.63,-167.59C420.35,-159.77 405.48,-148.46 393.29,-139.19"/>
<polygon fill="#63b8ff" stroke="#63b8ff" points="395.51,-136.48 385.43,-133.21 391.27,-142.05 395.51,-136.48"/>
</a>
</g>
</g>
<!-- Node5 -->
<g id="Node000005" class="node">
<title>Node5</title>
<g id="a_Node000005"><a xlink:title=" ">
<polygon fill="#e0e0e0" stroke="#999999" points="331,-132 291,-132 291,-112 331,-112 331,-132"/>
<text xml:space="preserve" text-anchor="middle" x="311" y="-118.5" font-family="Helvetica,sans-Serif" font-size="10.00">string</text>
</a>
</g>
</g>
<!-- Node3&#45;&gt;Node5 -->
<g id="edge4_Node000003_Node000005" class="edge">
<title>Node3&#45;&gt;Node5</title>
<g id="a_edge4_Node000003_Node000005"><a xlink:title=" ">
<path fill="none" stroke="#63b8ff" d="M420.01,-167.59C398.33,-158.72 365.68,-145.37 341.76,-135.59"/>
<polygon fill="#63b8ff" stroke="#63b8ff" points="343.12,-132.36 332.54,-131.81 340.47,-138.84 343.12,-132.36"/>
</a>
</g>
</g>
<!-- Node6 -->
<g id="Node000006" class="node">
<title>Node6</title>
<g id="a_Node000006"><a xlink:href="AnyData_8h.html" target="_top" xlink:title="The AnyData class.">
<polygon fill="white" stroke="#666666" points="475.25,-132 412.75,-132 412.75,-112 475.25,-112 475.25,-132"/>
<text xml:space="preserve" text-anchor="middle" x="444" y="-118.5" font-family="Helvetica,sans-Serif" font-size="10.00">AnyData.h</text>
</a>
</g>
</g>
<!-- Node3&#45;&gt;Node6 -->
<g id="edge5_Node000003_Node000006" class="edge">
<title>Node3&#45;&gt;Node6</title>
<g id="a_edge5_Node000003_Node000006"><a xlink:title=" ">
<path fill="none" stroke="#63b8ff" d="M443.17,-167.59C443.3,-161.01 443.46,-151.96 443.62,-143.73"/>
<polygon fill="#63b8ff" stroke="#63b8ff" points="447.11,-143.87 443.8,-133.81 440.12,-143.75 447.11,-143.87"/>
</a>
</g>
</g>
<!-- Node7 -->
<g id="Node000007" class="node">
<title>Node7</title>
<g id="a_Node000007"><a xlink:title=" ">
<polygon fill="#e0e0e0" stroke="#999999" points="459.88,-76 428.12,-76 428.12,-56 459.88,-56 459.88,-76"/>
<text xml:space="preserve" text-anchor="middle" x="444" y="-62.5" font-family="Helvetica,sans-Serif" font-size="10.00">any</text>
</a>
</g>
</g>
<!-- Node6&#45;&gt;Node7 -->
<g id="edge6_Node000006_Node000007" class="edge">
<title>Node6&#45;&gt;Node7</title>
<g id="a_edge6_Node000006_Node000007"><a xlink:title=" ">
<path fill="none" stroke="#63b8ff" d="M444,-111.59C444,-105.01 444,-95.96 444,-87.73"/>
<polygon fill="#63b8ff" stroke="#63b8ff" points="447.5,-87.81 444,-77.81 440.5,-87.81 447.5,-87.81"/>
</a>
</g>
</g>
<!-- Node9 -->
<g id="Node000009" class="node">
<title>Node9</title>
<g id="a_Node000009"><a xlink:href="AbstractThread_8h.html" target="_top" xlink:title="The AbstractThread class.">
<polygon fill="white" stroke="#666666" points="161.5,-76 70.5,-76 70.5,-56 161.5,-56 161.5,-76"/>
<text xml:space="preserve" text-anchor="middle" x="116" y="-62.5" font-family="Helvetica,sans-Serif" font-size="10.00">AbstractThread.h</text>
</a>
</g>
</g>
<!-- Node8&#45;&gt;Node9 -->
<g id="edge8_Node000008_Node000009" class="edge">
<title>Node8&#45;&gt;Node9</title>
<g id="a_edge8_Node000008_Node000009"><a xlink:title=" ">
<path fill="none" stroke="#63b8ff" d="M92.05,-111.59C95.79,-104.63 101.02,-94.89 105.64,-86.29"/>
<polygon fill="#63b8ff" stroke="#63b8ff" points="108.64,-88.1 110.29,-77.63 102.48,-84.79 108.64,-88.1"/>
</a>
</g>
</g>
<!-- Node10 -->
<g id="Node000010" class="node">
<title>Node10</title>
<g id="a_Node000010"><a xlink:title=" ">
<polygon fill="#e0e0e0" stroke="#999999" points="137.5,-20 94.5,-20 94.5,0 137.5,0 137.5,-20"/>
<text xml:space="preserve" text-anchor="middle" x="116" y="-6.5" font-family="Helvetica,sans-Serif" font-size="10.00">thread</text>
</a>
</g>
</g>
<!-- Node9&#45;&gt;Node10 -->
<g id="edge9_Node000009_Node000010" class="edge">
<title>Node9&#45;&gt;Node10</title>
<g id="a_edge9_Node000009_Node000010"><a xlink:title=" ">
<path fill="none" stroke="#63b8ff" d="M116,-55.59C116,-49.01 116,-39.96 116,-31.73"/>
<polygon fill="#63b8ff" stroke="#63b8ff" points="119.5,-31.81 116,-21.81 112.5,-31.81 119.5,-31.81"/>
</a>
</g>
</g>
<!-- Node11 -->
<g id="Node000011" class="node">
<title>Node11</title>
<g id="a_Node000011"><a xlink:title=" ">
<polygon fill="#e0e0e0" stroke="#999999" points="198.5,-20 155.5,-20 155.5,0 198.5,0 198.5,-20"/>
<text xml:space="preserve" text-anchor="middle" x="177" y="-6.5" font-family="Helvetica,sans-Serif" font-size="10.00">mutex</text>
</a>
</g>
</g>
<!-- Node9&#45;&gt;Node11 -->
<g id="edge10_Node000009_Node000011" class="edge">
<title>Node9&#45;&gt;Node11</title>
<g id="a_edge10_Node000009_Node000011"><a xlink:title=" ">
<path fill="none" stroke="#63b8ff" d="M126.63,-55.59C135.28,-47.93 147.73,-36.91 158.08,-27.75"/>
<polygon fill="#63b8ff" stroke="#63b8ff" points="160.2,-30.55 165.36,-21.3 155.56,-25.31 160.2,-30.55"/>
</a>
</g>
</g>
<!-- Node12 -->
<g id="Node000012" class="node">
<title>Node12</title>
<g id="a_Node000012"><a xlink:title=" ">
<polygon fill="#e0e0e0" stroke="#999999" points="273.5,-20 230.5,-20 230.5,0 273.5,0 273.5,-20"/>
<text xml:space="preserve" text-anchor="middle" x="252" y="-6.5" font-family="Helvetica,sans-Serif" font-size="10.00">vector</text>
</a>
</g>
</g>
<!-- Node9&#45;&gt;Node12 -->
<g id="edge11_Node000009_Node000012" class="edge">
<title>Node9&#45;&gt;Node12</title>
<g id="a_edge11_Node000009_Node000012"><a xlink:title=" ">
<path fill="none" stroke="#63b8ff" d="M139.69,-55.59C161.86,-46.79 195.17,-33.56 219.76,-23.8"/>
<polygon fill="#63b8ff" stroke="#63b8ff" points="220.97,-27.09 228.97,-20.14 218.38,-20.58 220.97,-27.09"/>
</a>
</g>
</g>
<!-- Node13 -->
<g id="Node000013" class="node">
<title>Node13</title>
<g id="a_Node000013"><a xlink:href="invocable_8hpp_source.html" target="_top" xlink:title=" ">
<polygon fill="white" stroke="#666666" points="76,-20 0,-20 0,0 76,0 76,-20"/>
<text xml:space="preserve" text-anchor="middle" x="38" y="-6.5" font-family="Helvetica,sans-Serif" font-size="10.00">invocable.hpp</text>
</a>
</g>
</g>
<!-- Node9&#45;&gt;Node13 -->
<g id="edge12_Node000009_Node000013" class="edge">
<title>Node9&#45;&gt;Node13</title>
<g id="a_edge12_Node000009_Node000013"><a xlink:title=" ">
<path fill="none" stroke="#63b8ff" d="M102.41,-55.59C90.96,-47.67 74.34,-36.16 60.84,-26.82"/>
<polygon fill="#63b8ff" stroke="#63b8ff" points="63.15,-24.16 52.94,-21.34 59.17,-29.91 63.15,-24.16"/>
</a>
</g>
</g>
<!-- Node14&#45;&gt;Node8 -->
<g id="edge14_Node000014_Node000008" class="edge">
<title>Node14&#45;&gt;Node8</title>
<g id="a_edge14_Node000014_Node000008"><a xlink:title=" ">
<path fill="none" stroke="#63b8ff" d="M144.56,-279.6C110.88,-265.57 53.08,-235.6 30,-188 20.56,-168.54 39.81,-150.39 58.44,-138.25"/>
<polygon fill="#63b8ff" stroke="#63b8ff" points="60.22,-141.26 66.96,-133.09 56.59,-135.27 60.22,-141.26"/>
</a>
</g>
</g>
<!-- Node15 -->
<g id="Node000015" class="node">
<title>Node15</title>
<g id="a_Node000015"><a xlink:href="TlsContext_8h.html" target="_top" xlink:title="The TlsContext class.">
<polygon fill="white" stroke="#666666" points="363.5,-188 260.5,-188 260.5,-168 363.5,-168 363.5,-188"/>
<text xml:space="preserve" text-anchor="middle" x="312" y="-174.5" font-family="Helvetica,sans-Serif" font-size="10.00">../core/TlsContext.h</text>
</a>
</g>
</g>
<!-- Node14&#45;&gt;Node15 -->
<g id="edge15_Node000014_Node000015" class="edge">
<title>Node14&#45;&gt;Node15</title>
<g id="a_edge15_Node000014_Node000015"><a xlink:title=" ">
<path fill="none" stroke="#63b8ff" d="M177.13,-279.74C187.8,-266.3 209.03,-241.13 231,-224 246.26,-212.11 265.05,-201.46 280.7,-193.51"/>
<polygon fill="#63b8ff" stroke="#63b8ff" points="282.16,-196.69 289.58,-189.12 279.07,-190.41 282.16,-196.69"/>
</a>
</g>
</g>
<!-- Node16 -->
<g id="Node000016" class="node">
<title>Node16</title>
<g id="a_Node000016"><a xlink:href="ThreadPool_8h.html" target="_top" xlink:title="The AbstractThreadPool and ThreadPool classes.">
<polygon fill="white" stroke="#666666" points="183.88,-244 110.12,-244 110.12,-224 183.88,-224 183.88,-244"/>
<text xml:space="preserve" text-anchor="middle" x="147" y="-230.5" font-family="Helvetica,sans-Serif" font-size="10.00">ThreadPool.h</text>
</a>
</g>
</g>
<!-- Node14&#45;&gt;Node16 -->
<g id="edge19_Node000014_Node000016" class="edge">
<title>Node14&#45;&gt;Node16</title>
<g id="a_edge19_Node000014_Node000016"><a xlink:title=" ">
<path fill="none" stroke="#63b8ff" d="M165.99,-279.59C163.09,-272.78 159.06,-263.32 155.46,-254.86"/>
<polygon fill="#63b8ff" stroke="#63b8ff" points="158.69,-253.52 151.55,-245.69 152.25,-256.26 158.69,-253.52"/>
</a>
</g>
</g>
<!-- Node15&#45;&gt;Node4 -->
<g id="edge18_Node000015_Node000004" class="edge">
<title>Node15&#45;&gt;Node4</title>
<g id="a_edge18_Node000015_Node000004"><a xlink:title=" ">
<path fill="none" stroke="#63b8ff" d="M322.45,-167.59C330.97,-159.93 343.21,-148.91 353.39,-139.75"/>
<polygon fill="#63b8ff" stroke="#63b8ff" points="355.45,-142.6 360.54,-133.31 350.77,-137.4 355.45,-142.6"/>
</a>
</g>
</g>
<!-- Node15&#45;&gt;Node5 -->
<g id="edge16_Node000015_Node000005" class="edge">
<title>Node15&#45;&gt;Node5</title>
<g id="a_edge16_Node000015_Node000005"><a xlink:title=" ">
<path fill="none" stroke="#63b8ff" d="M311.83,-167.59C311.7,-161.01 311.54,-151.96 311.38,-143.73"/>
<polygon fill="#63b8ff" stroke="#63b8ff" points="314.88,-143.75 311.2,-133.81 307.89,-143.87 314.88,-143.75"/>
</a>
</g>
</g>
<!-- Node15&#45;&gt;Node12 -->
<g id="edge17_Node000015_Node000012" class="edge">
<title>Node15&#45;&gt;Node12</title>
<g id="a_edge17_Node000015_Node000012"><a xlink:title=" ">
<path fill="none" stroke="#63b8ff" d="M304.29,-167.56C297.51,-158.83 287.84,-145.23 282,-132 267.2,-98.44 258.84,-56.29 254.89,-31.63"/>
<polygon fill="#63b8ff" stroke="#63b8ff" points="258.39,-31.33 253.44,-21.96 251.46,-32.37 258.39,-31.33"/>
</a>
</g>
</g>
<!-- Node17 -->
<g id="Node000017" class="node">
<title>Node17</title>
<g id="a_Node000017"><a xlink:href="Thread_8h.html" target="_top" xlink:title="The Thread class.">
<polygon fill="white" stroke="#666666" points="124.5,-188 39.5,-188 39.5,-168 124.5,-168 124.5,-188"/>
<text xml:space="preserve" text-anchor="middle" x="82" y="-174.5" font-family="Helvetica,sans-Serif" font-size="10.00">../core/Thread.h</text>
</a>
</g>
</g>
<!-- Node16&#45;&gt;Node17 -->
<g id="edge20_Node000016_Node000017" class="edge">
<title>Node16&#45;&gt;Node17</title>
<g id="a_edge20_Node000016_Node000017"><a xlink:title=" ">
<path fill="none" stroke="#63b8ff" d="M135.68,-223.59C126.36,-215.85 112.92,-204.69 101.82,-195.47"/>
<polygon fill="#63b8ff" stroke="#63b8ff" points="104.29,-192.96 94.36,-189.27 99.81,-198.35 104.29,-192.96"/>
</a>
</g>
</g>
<!-- Node18 -->
<g id="Node000018" class="node">
<title>Node18</title>
<g id="a_Node000018"><a xlink:href="Instance_8h.html" target="_top" xlink:title="The AbstractInstance and Instance classes.">
<polygon fill="white" stroke="#666666" points="242.88,-188 181.12,-188 181.12,-168 242.88,-168 242.88,-188"/>
<text xml:space="preserve" text-anchor="middle" x="212" y="-174.5" font-family="Helvetica,sans-Serif" font-size="10.00">Instance.h</text>
</a>
</g>
</g>
<!-- Node16&#45;&gt;Node18 -->
<g id="edge22_Node000016_Node000018" class="edge">
<title>Node16&#45;&gt;Node18</title>
<g id="a_edge22_Node000016_Node000018"><a xlink:title=" ">
<path fill="none" stroke="#63b8ff" d="M158.32,-223.59C167.64,-215.85 181.08,-204.69 192.18,-195.47"/>
<polygon fill="#63b8ff" stroke="#63b8ff" points="194.19,-198.35 199.64,-189.27 189.71,-192.96 194.19,-198.35"/>
</a>
</g>
</g>
<!-- Node17&#45;&gt;Node8 -->
<g id="edge21_Node000017_Node000008" class="edge">
<title>Node17&#45;&gt;Node8</title>
<g id="a_edge21_Node000017_Node000008"><a xlink:title=" ">
<path fill="none" stroke="#63b8ff" d="M82.87,-167.59C83.48,-161.01 84.32,-151.96 85.08,-143.73"/>
<polygon fill="#63b8ff" stroke="#63b8ff" points="88.56,-144.09 86,-133.81 81.59,-143.44 88.56,-144.09"/>
</a>
</g>
</g>
<!-- Node18&#45;&gt;Node5 -->
<g id="edge23_Node000018_Node000005" class="edge">
<title>Node18&#45;&gt;Node5</title>
<g id="a_edge23_Node000018_Node000005"><a xlink:title=" ">
<path fill="none" stroke="#63b8ff" d="M229.24,-167.59C244.34,-159.36 266.53,-147.26 283.98,-137.74"/>
<polygon fill="#63b8ff" stroke="#63b8ff" points="285.19,-141.07 292.29,-133.2 281.84,-134.92 285.19,-141.07"/>
</a>
</g>
</g>
</g>
</svg>
