<?xml version="1.0" encoding="UTF-8" standalone="no"?>
<!DOCTYPE svg PUBLIC "-//W3C//DTD SVG 1.1//EN"
 "http://www.w3.org/Graphics/SVG/1.1/DTD/svg11.dtd">
<!-- Generated by graphviz version 12.2.1 (20241206.2353)
 -->
<!-- Title: main/DataArrayTcpServer.h Pages: 1 -->
<svg width="484pt" height="364pt"
 viewBox="0.00 0.00 484.04 364.00" xmlns="http://www.w3.org/2000/svg" xmlns:xlink="http://www.w3.org/1999/xlink">
<g id="graph0" class="graph" transform="scale(1 1) rotate(0) translate(4 360)">
<title>main/DataArrayTcpServer.h</title>
<!-- Node1 -->
<g id="Node000001" class="node">
<title>Node1</title>
<g id="a_Node000001"><a xlink:title="The DataArrayTcpServer class.">
<polygon fill="#999999" stroke="#666666" points="307.12,-356 171.88,-356 171.88,-336 307.12,-336 307.12,-356"/>
<text text-anchor="middle" x="239.5" y="-342.5" font-family="Helvetica,sans-Serif" font-size="10.00">main/DataArrayTcpServer.h</text>
</a>
</g>
</g>
<!-- Node2 -->
<g id="Node000002" class="node">
<title>Node2</title>
<g id="a_Node000002"><a xlink:href="TlsContext_8h.html" target="_top" xlink:title="The TlsContext class.">
<polygon fill="white" stroke="#666666" points="103,-188 0,-188 0,-168 103,-168 103,-188"/>
<text text-anchor="middle" x="51.5" y="-174.5" font-family="Helvetica,sans-Serif" font-size="10.00">../core/TlsContext.h</text>
</a>
</g>
</g>
<!-- Node1&#45;&gt;Node2 -->
<g id="edge1_Node000001_Node000002" class="edge">
<title>Node1&#45;&gt;Node2</title>
<g id="a_edge1_Node000001_Node000002"><a xlink:title=" ">
<path fill="none" stroke="#63b8ff" d="M228.85,-335.6C198.22,-308.55 109.55,-230.26 70.43,-195.71"/>
<polygon fill="#63b8ff" stroke="#63b8ff" points="72.98,-193.29 63.16,-189.3 68.34,-198.54 72.98,-193.29"/>
</a>
</g>
</g>
<!-- Node6 -->
<g id="Node000006" class="node">
<title>Node6</title>
<g id="a_Node000006"><a xlink:href="ListenSocket_8h.html" target="_top" xlink:title="The ListenSocket class.">
<polygon fill="white" stroke="#666666" points="280.12,-244 198.88,-244 198.88,-224 280.12,-224 280.12,-244"/>
<text text-anchor="middle" x="239.5" y="-230.5" font-family="Helvetica,sans-Serif" font-size="10.00">ListenSocket.h</text>
</a>
</g>
</g>
<!-- Node1&#45;&gt;Node6 -->
<g id="edge5_Node000001_Node000006" class="edge">
<title>Node1&#45;&gt;Node6</title>
<g id="a_edge5_Node000001_Node000006"><a xlink:title=" ">
<path fill="none" stroke="#63b8ff" d="M239.5,-335.62C239.5,-318.01 239.5,-279.59 239.5,-255.65"/>
<polygon fill="#63b8ff" stroke="#63b8ff" points="243,-255.87 239.5,-245.87 236,-255.87 243,-255.87"/>
</a>
</g>
</g>
<!-- Node15 -->
<g id="Node000015" class="node">
<title>Node15</title>
<g id="a_Node000015"><a xlink:href="DataArrayAbstractTcp_8h.html" target="_top" xlink:title="The DataArrayAbstractTcp class.">
<polygon fill="white" stroke="#666666" points="421.62,-300 301.38,-300 301.38,-280 421.62,-280 421.62,-300"/>
<text text-anchor="middle" x="361.5" y="-286.5" font-family="Helvetica,sans-Serif" font-size="10.00">DataArrayAbstractTcp.h</text>
</a>
</g>
</g>
<!-- Node1&#45;&gt;Node15 -->
<g id="edge17_Node000001_Node000015" class="edge">
<title>Node1&#45;&gt;Node15</title>
<g id="a_edge17_Node000001_Node000015"><a xlink:title=" ">
<path fill="none" stroke="#63b8ff" d="M260.75,-335.59C279.79,-327.17 307.98,-314.69 329.7,-305.07"/>
<polygon fill="#63b8ff" stroke="#63b8ff" points="330.97,-308.34 338.7,-301.09 328.14,-301.94 330.97,-308.34"/>
</a>
</g>
</g>
<!-- Node3 -->
<g id="Node000003" class="node">
<title>Node3</title>
<g id="a_Node000003"><a xlink:title=" ">
<polygon fill="#e0e0e0" stroke="#999999" points="270.5,-132 230.5,-132 230.5,-112 270.5,-112 270.5,-132"/>
<text text-anchor="middle" x="250.5" y="-118.5" font-family="Helvetica,sans-Serif" font-size="10.00">string</text>
</a>
</g>
</g>
<!-- Node2&#45;&gt;Node3 -->
<g id="edge2_Node000002_Node000003" class="edge">
<title>Node2&#45;&gt;Node3</title>
<g id="a_edge2_Node000002_Node000003"><a xlink:title=" ">
<path fill="none" stroke="#63b8ff" d="M89.1,-167.53C121.27,-159.32 169.07,-146.88 219.19,-132.58"/>
<polygon fill="#63b8ff" stroke="#63b8ff" points="220.15,-135.94 228.8,-129.82 218.22,-129.22 220.15,-135.94"/>
</a>
</g>
</g>
<!-- Node4 -->
<g id="Node000004" class="node">
<title>Node4</title>
<g id="a_Node000004"><a xlink:title=" ">
<polygon fill="#e0e0e0" stroke="#999999" points="183,-20 140,-20 140,0 183,0 183,-20"/>
<text text-anchor="middle" x="161.5" y="-6.5" font-family="Helvetica,sans-Serif" font-size="10.00">vector</text>
</a>
</g>
</g>
<!-- Node2&#45;&gt;Node4 -->
<g id="edge3_Node000002_Node000004" class="edge">
<title>Node2&#45;&gt;Node4</title>
<g id="a_edge3_Node000002_Node000004"><a xlink:title=" ">
<path fill="none" stroke="#63b8ff" d="M54,-167.74C57.75,-154.72 65.56,-130.53 76.5,-112 95.51,-79.8 124.82,-47.62 143.57,-28.51"/>
<polygon fill="#63b8ff" stroke="#63b8ff" points="145.95,-31.09 150.54,-21.54 140.99,-26.14 145.95,-31.09"/>
</a>
</g>
</g>
<!-- Node5 -->
<g id="Node000005" class="node">
<title>Node5</title>
<g id="a_Node000005"><a xlink:title=" ">
<polygon fill="#e0e0e0" stroke="#999999" points="131.12,-132 85.88,-132 85.88,-112 131.12,-112 131.12,-132"/>
<text text-anchor="middle" x="108.5" y="-118.5" font-family="Helvetica,sans-Serif" font-size="10.00">cstdint</text>
</a>
</g>
</g>
<!-- Node2&#45;&gt;Node5 -->
<g id="edge4_Node000002_Node000005" class="edge">
<title>Node2&#45;&gt;Node5</title>
<g id="a_edge4_Node000002_Node000005"><a xlink:title=" ">
<path fill="none" stroke="#63b8ff" d="M61.43,-167.59C69.44,-160.01 80.92,-149.13 90.53,-140.02"/>
<polygon fill="#63b8ff" stroke="#63b8ff" points="92.73,-142.76 97.59,-133.34 87.92,-137.68 92.73,-142.76"/>
</a>
</g>
</g>
<!-- Node7 -->
<g id="Node000007" class="node">
<title>Node7</title>
<g id="a_Node000007"><a xlink:href="AbstractSocket_8h.html" target="_top" xlink:title="The AbstractSocket class.">
<polygon fill="white" stroke="#666666" points="243.75,-188 121.25,-188 121.25,-168 243.75,-168 243.75,-188"/>
<text text-anchor="middle" x="182.5" y="-174.5" font-family="Helvetica,sans-Serif" font-size="10.00">../core/AbstractSocket.h</text>
</a>
</g>
</g>
<!-- Node6&#45;&gt;Node7 -->
<g id="edge6_Node000006_Node000007" class="edge">
<title>Node6&#45;&gt;Node7</title>
<g id="a_edge6_Node000006_Node000007"><a xlink:title=" ">
<path fill="none" stroke="#63b8ff" d="M229.57,-223.59C221.56,-216.01 210.08,-205.13 200.47,-196.02"/>
<polygon fill="#63b8ff" stroke="#63b8ff" points="203.08,-193.68 193.41,-189.34 198.27,-198.76 203.08,-193.68"/>
</a>
</g>
</g>
<!-- Node10 -->
<g id="Node000010" class="node">
<title>Node10</title>
<g id="a_Node000010"><a xlink:href="FunctionConnector_8h.html" target="_top" xlink:title="The AbstractFunctionConnector, FunctionConnector, FunctionConnectorProtected and FunctionConnectionGu...">
<polygon fill="white" stroke="#666666" points="456.88,-132 320.12,-132 320.12,-112 456.88,-112 456.88,-132"/>
<text text-anchor="middle" x="388.5" y="-118.5" font-family="Helvetica,sans-Serif" font-size="10.00">../core/FunctionConnector.h</text>
</a>
</g>
</g>
<!-- Node6&#45;&gt;Node10 -->
<g id="edge11_Node000006_Node000010" class="edge">
<title>Node6&#45;&gt;Node10</title>
<g id="a_edge11_Node000006_Node000010"><a xlink:title=" ">
<path fill="none" stroke="#63b8ff" d="M244.68,-223.9C252.87,-210.2 270.01,-184.17 290.5,-168 307.7,-154.43 329.66,-143.86 348.42,-136.39"/>
<polygon fill="#63b8ff" stroke="#63b8ff" points="349.53,-139.71 357.63,-132.88 347.04,-133.17 349.53,-139.71"/>
</a>
</g>
</g>
<!-- Node7&#45;&gt;Node3 -->
<g id="edge8_Node000007_Node000003" class="edge">
<title>Node7&#45;&gt;Node3</title>
<g id="a_edge8_Node000007_Node000003"><a xlink:title=" ">
<path fill="none" stroke="#63b8ff" d="M194.34,-167.59C204.19,-159.77 218.43,-148.46 230.11,-139.19"/>
<polygon fill="#63b8ff" stroke="#63b8ff" points="231.95,-142.2 237.61,-133.24 227.6,-136.72 231.95,-142.2"/>
</a>
</g>
</g>
<!-- Node7&#45;&gt;Node5 -->
<g id="edge7_Node000007_Node000005" class="edge">
<title>Node7&#45;&gt;Node5</title>
<g id="a_edge7_Node000007_Node000005"><a xlink:title=" ">
<path fill="none" stroke="#63b8ff" d="M169.61,-167.59C158.79,-159.7 143.09,-148.24 130.31,-138.92"/>
<polygon fill="#63b8ff" stroke="#63b8ff" points="132.61,-136.26 122.46,-133.19 128.48,-141.91 132.61,-136.26"/>
</a>
</g>
</g>
<!-- Node8 -->
<g id="Node000008" class="node">
<title>Node8</title>
<g id="a_Node000008"><a xlink:href="AnyData_8h.html" target="_top" xlink:title="The AnyData class.">
<polygon fill="white" stroke="#666666" points="212.75,-132 150.25,-132 150.25,-112 212.75,-112 212.75,-132"/>
<text text-anchor="middle" x="181.5" y="-118.5" font-family="Helvetica,sans-Serif" font-size="10.00">AnyData.h</text>
</a>
</g>
</g>
<!-- Node7&#45;&gt;Node8 -->
<g id="edge9_Node000007_Node000008" class="edge">
<title>Node7&#45;&gt;Node8</title>
<g id="a_edge9_Node000007_Node000008"><a xlink:title=" ">
<path fill="none" stroke="#63b8ff" d="M182.33,-167.59C182.2,-161.01 182.04,-151.96 181.88,-143.73"/>
<polygon fill="#63b8ff" stroke="#63b8ff" points="185.38,-143.75 181.7,-133.81 178.39,-143.87 185.38,-143.75"/>
</a>
</g>
</g>
<!-- Node9 -->
<g id="Node000009" class="node">
<title>Node9</title>
<g id="a_Node000009"><a xlink:title=" ">
<polygon fill="#e0e0e0" stroke="#999999" points="197.38,-76 165.62,-76 165.62,-56 197.38,-56 197.38,-76"/>
<text text-anchor="middle" x="181.5" y="-62.5" font-family="Helvetica,sans-Serif" font-size="10.00">any</text>
</a>
</g>
</g>
<!-- Node8&#45;&gt;Node9 -->
<g id="edge10_Node000008_Node000009" class="edge">
<title>Node8&#45;&gt;Node9</title>
<g id="a_edge10_Node000008_Node000009"><a xlink:title=" ">
<path fill="none" stroke="#63b8ff" d="M181.5,-111.59C181.5,-105.01 181.5,-95.96 181.5,-87.73"/>
<polygon fill="#63b8ff" stroke="#63b8ff" points="185,-87.81 181.5,-77.81 178,-87.81 185,-87.81"/>
</a>
</g>
</g>
<!-- Node11 -->
<g id="Node000011" class="node">
<title>Node11</title>
<g id="a_Node000011"><a xlink:href="AbstractThread_8h.html" target="_top" xlink:title="The AbstractThread class.">
<polygon fill="white" stroke="#666666" points="370,-76 279,-76 279,-56 370,-56 370,-76"/>
<text text-anchor="middle" x="324.5" y="-62.5" font-family="Helvetica,sans-Serif" font-size="10.00">AbstractThread.h</text>
</a>
</g>
</g>
<!-- Node10&#45;&gt;Node11 -->
<g id="edge12_Node000010_Node000011" class="edge">
<title>Node10&#45;&gt;Node11</title>
<g id="a_edge12_Node000010_Node000011"><a xlink:title=" ">
<path fill="none" stroke="#63b8ff" d="M377.35,-111.59C368.17,-103.85 354.95,-92.69 344.02,-83.47"/>
<polygon fill="#63b8ff" stroke="#63b8ff" points="346.58,-81.05 336.68,-77.27 342.06,-86.4 346.58,-81.05"/>
</a>
</g>
</g>
<!-- Node11&#45;&gt;Node4 -->
<g id="edge15_Node000011_Node000004" class="edge">
<title>Node11&#45;&gt;Node4</title>
<g id="a_edge15_Node000011_Node000004"><a xlink:title=" ">
<path fill="none" stroke="#63b8ff" d="M296.11,-55.59C267.64,-46.16 223.85,-31.66 194.01,-21.77"/>
<polygon fill="#63b8ff" stroke="#63b8ff" points="195.34,-18.53 184.75,-18.7 193.14,-25.17 195.34,-18.53"/>
</a>
</g>
</g>
<!-- Node12 -->
<g id="Node000012" class="node">
<title>Node12</title>
<g id="a_Node000012"><a xlink:title=" ">
<polygon fill="#e0e0e0" stroke="#999999" points="285,-20 242,-20 242,0 285,0 285,-20"/>
<text text-anchor="middle" x="263.5" y="-6.5" font-family="Helvetica,sans-Serif" font-size="10.00">thread</text>
</a>
</g>
</g>
<!-- Node11&#45;&gt;Node12 -->
<g id="edge13_Node000011_Node000012" class="edge">
<title>Node11&#45;&gt;Node12</title>
<g id="a_edge13_Node000011_Node000012"><a xlink:title=" ">
<path fill="none" stroke="#63b8ff" d="M313.87,-55.59C305.22,-47.93 292.77,-36.91 282.42,-27.75"/>
<polygon fill="#63b8ff" stroke="#63b8ff" points="284.94,-25.31 275.14,-21.3 280.3,-30.55 284.94,-25.31"/>
</a>
</g>
</g>
<!-- Node13 -->
<g id="Node000013" class="node">
<title>Node13</title>
<g id="a_Node000013"><a xlink:title=" ">
<polygon fill="#e0e0e0" stroke="#999999" points="346,-20 303,-20 303,0 346,0 346,-20"/>
<text text-anchor="middle" x="324.5" y="-6.5" font-family="Helvetica,sans-Serif" font-size="10.00">mutex</text>
</a>
</g>
</g>
<!-- Node11&#45;&gt;Node13 -->
<g id="edge14_Node000011_Node000013" class="edge">
<title>Node11&#45;&gt;Node13</title>
<g id="a_edge14_Node000011_Node000013"><a xlink:title=" ">
<path fill="none" stroke="#63b8ff" d="M324.5,-55.59C324.5,-49.01 324.5,-39.96 324.5,-31.73"/>
<polygon fill="#63b8ff" stroke="#63b8ff" points="328,-31.81 324.5,-21.81 321,-31.81 328,-31.81"/>
</a>
</g>
</g>
<!-- Node14 -->
<g id="Node000014" class="node">
<title>Node14</title>
<g id="a_Node000014"><a xlink:href="invocable_8hpp_source.html" target="_top" xlink:title=" ">
<polygon fill="white" stroke="#666666" points="440.5,-20 364.5,-20 364.5,0 440.5,0 440.5,-20"/>
<text text-anchor="middle" x="402.5" y="-6.5" font-family="Helvetica,sans-Serif" font-size="10.00">invocable.hpp</text>
</a>
</g>
</g>
<!-- Node11&#45;&gt;Node14 -->
<g id="edge16_Node000011_Node000014" class="edge">
<title>Node11&#45;&gt;Node14</title>
<g id="a_edge16_Node000011_Node000014"><a xlink:title=" ">
<path fill="none" stroke="#63b8ff" d="M338.09,-55.59C349.54,-47.67 366.16,-36.16 379.66,-26.82"/>
<polygon fill="#63b8ff" stroke="#63b8ff" points="381.33,-29.91 387.56,-21.34 377.35,-24.16 381.33,-29.91"/>
</a>
</g>
</g>
<!-- Node15&#45;&gt;Node10 -->
<g id="edge18_Node000015_Node000010" class="edge">
<title>Node15&#45;&gt;Node10</title>
<g id="a_edge18_Node000015_Node000010"><a xlink:title=" ">
<path fill="none" stroke="#63b8ff" d="M378.88,-279.73C405.16,-264.58 454.03,-231.78 473.5,-188 483.98,-164.43 458.08,-147.3 432.19,-136.57"/>
<polygon fill="#63b8ff" stroke="#63b8ff" points="433.58,-133.35 422.99,-133.04 431.07,-139.89 433.58,-133.35"/>
</a>
</g>
</g>
<!-- Node16 -->
<g id="Node000016" class="node">
<title>Node16</title>
<g id="a_Node000016"><a xlink:href="ThreadPool_8h.html" target="_top" xlink:title="The AbstractThreadPool and ThreadPool classes.">
<polygon fill="white" stroke="#666666" points="398.38,-244 324.62,-244 324.62,-224 398.38,-224 398.38,-244"/>
<text text-anchor="middle" x="361.5" y="-230.5" font-family="Helvetica,sans-Serif" font-size="10.00">ThreadPool.h</text>
</a>
</g>
</g>
<!-- Node15&#45;&gt;Node16 -->
<g id="edge19_Node000015_Node000016" class="edge">
<title>Node15&#45;&gt;Node16</title>
<g id="a_edge19_Node000015_Node000016"><a xlink:title=" ">
<path fill="none" stroke="#63b8ff" d="M361.5,-279.59C361.5,-273.01 361.5,-263.96 361.5,-255.73"/>
<polygon fill="#63b8ff" stroke="#63b8ff" points="365,-255.81 361.5,-245.81 358,-255.81 365,-255.81"/>
</a>
</g>
</g>
<!-- Node17 -->
<g id="Node000017" class="node">
<title>Node17</title>
<g id="a_Node000017"><a xlink:href="Thread_8h.html" target="_top" xlink:title="The Thread class.">
<polygon fill="white" stroke="#666666" points="464,-188 379,-188 379,-168 464,-168 464,-188"/>
<text text-anchor="middle" x="421.5" y="-174.5" font-family="Helvetica,sans-Serif" font-size="10.00">../core/Thread.h</text>
</a>
</g>
</g>
<!-- Node16&#45;&gt;Node17 -->
<g id="edge20_Node000016_Node000017" class="edge">
<title>Node16&#45;&gt;Node17</title>
<g id="a_edge20_Node000016_Node000017"><a xlink:title=" ">
<path fill="none" stroke="#63b8ff" d="M371.95,-223.59C380.47,-215.93 392.71,-204.91 402.89,-195.75"/>
<polygon fill="#63b8ff" stroke="#63b8ff" points="404.95,-198.6 410.04,-189.31 400.27,-193.4 404.95,-198.6"/>
</a>
</g>
</g>
<!-- Node18 -->
<g id="Node000018" class="node">
<title>Node18</title>
<g id="a_Node000018"><a xlink:href="Instance_8h.html" target="_top" xlink:title="The AbstractInstance and Instance classes.">
<polygon fill="white" stroke="#666666" points="361.38,-188 299.62,-188 299.62,-168 361.38,-168 361.38,-188"/>
<text text-anchor="middle" x="330.5" y="-174.5" font-family="Helvetica,sans-Serif" font-size="10.00">Instance.h</text>
</a>
</g>
</g>
<!-- Node16&#45;&gt;Node18 -->
<g id="edge22_Node000016_Node000018" class="edge">
<title>Node16&#45;&gt;Node18</title>
<g id="a_edge22_Node000016_Node000018"><a xlink:title=" ">
<path fill="none" stroke="#63b8ff" d="M356.1,-223.59C352.06,-216.55 346.38,-206.67 341.41,-198"/>
<polygon fill="#63b8ff" stroke="#63b8ff" points="344.61,-196.54 336.59,-189.61 338.53,-200.03 344.61,-196.54"/>
</a>
</g>
</g>
<!-- Node17&#45;&gt;Node10 -->
<g id="edge21_Node000017_Node000010" class="edge">
<title>Node17&#45;&gt;Node10</title>
<g id="a_edge21_Node000017_Node000010"><a xlink:title=" ">
<path fill="none" stroke="#63b8ff" d="M415.75,-167.59C411.45,-160.55 405.41,-150.67 400.11,-142"/>
<polygon fill="#63b8ff" stroke="#63b8ff" points="403.17,-140.3 394.97,-133.59 397.2,-143.95 403.17,-140.3"/>
</a>
</g>
</g>
<!-- Node18&#45;&gt;Node3 -->
<g id="edge23_Node000018_Node000003" class="edge">
<title>Node18&#45;&gt;Node3</title>
<g id="a_edge23_Node000018_Node000003"><a xlink:title=" ">
<path fill="none" stroke="#63b8ff" d="M316.57,-167.59C304.82,-159.67 287.77,-148.16 273.93,-138.82"/>
<polygon fill="#63b8ff" stroke="#63b8ff" points="276.04,-136.02 265.8,-133.33 272.13,-141.82 276.04,-136.02"/>
</a>
</g>
</g>
</g>
</svg>
