<?xml version="1.0" encoding="UTF-8" standalone="no"?>
<!DOCTYPE svg PUBLIC "-//W3C//DTD SVG 1.1//EN"
 "http://www.w3.org/Graphics/SVG/1.1/DTD/svg11.dtd">
<!-- Generated by graphviz version 14.1.3 (20260303.0454)
 -->
<!-- Title: main/DataArrayAbstractTcp.h Pages: 1 -->
<svg width="285pt" height="308pt"
 viewBox="0.00 0.00 285.00 308.00" xmlns="http://www.w3.org/2000/svg" xmlns:xlink="http://www.w3.org/1999/xlink">
<g id="graph0" class="graph" transform="scale(1 1) rotate(0) translate(4 304)">
<title>main/DataArrayAbstractTcp.h</title>
<!-- Node1 -->
<g id="Node000001" class="node">
<title>Node1</title>
<g id="a_Node000001"><a xlink:title="The DataArrayAbstractTcp class.">
<polygon fill="#999999" stroke="#666666" points="191.62,-300 47.38,-300 47.38,-280 191.62,-280 191.62,-300"/>
<text xml:space="preserve" text-anchor="middle" x="119.5" y="-286.5" font-family="Helvetica,sans-Serif" font-size="10.00">main/DataArrayAbstractTcp.h</text>
</a>
</g>
</g>
<!-- Node2 -->
<g id="Node000002" class="node">
<title>Node2</title>
<g id="a_Node000002"><a xlink:href="FunctionConnector_8h.html" target="_top" xlink:title="The AbstractFunctionConnector, FunctionConnector, FunctionConnectorProtected, FunctionConnectionGuard...">
<polygon fill="white" stroke="#666666" points="180.88,-132 44.12,-132 44.12,-112 180.88,-112 180.88,-132"/>
<text xml:space="preserve" text-anchor="middle" x="112.5" y="-118.5" font-family="Helvetica,sans-Serif" font-size="10.00">../core/FunctionConnector.h</text>
</a>
</g>
</g>
<!-- Node1&#45;&gt;Node2 -->
<g id="edge1_Node000001_Node000002" class="edge">
<title>Node1&#45;&gt;Node2</title>
<g id="a_edge1_Node000001_Node000002"><a xlink:title=" ">
<path fill="none" stroke="#63b8ff" d="M116.77,-279.61C111.2,-259.3 99.37,-209.75 103.5,-168 104.3,-159.88 105.91,-151.05 107.54,-143.38"/>
<polygon fill="#63b8ff" stroke="#63b8ff" points="110.93,-144.23 109.76,-133.7 104.11,-142.67 110.93,-144.23"/>
</a>
</g>
</g>
<!-- Node8 -->
<g id="Node000008" class="node">
<title>Node8</title>
<g id="a_Node000008"><a xlink:href="ThreadPool_8h.html" target="_top" xlink:title="The AbstractThreadPool and ThreadPool classes.">
<polygon fill="white" stroke="#666666" points="192.38,-244 118.62,-244 118.62,-224 192.38,-224 192.38,-244"/>
<text xml:space="preserve" text-anchor="middle" x="155.5" y="-230.5" font-family="Helvetica,sans-Serif" font-size="10.00">ThreadPool.h</text>
</a>
</g>
</g>
<!-- Node1&#45;&gt;Node8 -->
<g id="edge7_Node000001_Node000008" class="edge">
<title>Node1&#45;&gt;Node8</title>
<g id="a_edge7_Node000001_Node000008"><a xlink:title=" ">
<path fill="none" stroke="#63b8ff" d="M125.77,-279.59C130.52,-272.47 137.2,-262.45 143.02,-253.72"/>
<polygon fill="#63b8ff" stroke="#63b8ff" points="145.83,-255.82 148.46,-245.56 140,-251.94 145.83,-255.82"/>
</a>
</g>
</g>
<!-- Node3 -->
<g id="Node000003" class="node">
<title>Node3</title>
<g id="a_Node000003"><a xlink:href="AbstractThread_8h.html" target="_top" xlink:title="The AbstractThread class.">
<polygon fill="white" stroke="#666666" points="158,-76 67,-76 67,-56 158,-56 158,-76"/>
<text xml:space="preserve" text-anchor="middle" x="112.5" y="-62.5" font-family="Helvetica,sans-Serif" font-size="10.00">AbstractThread.h</text>
</a>
</g>
</g>
<!-- Node2&#45;&gt;Node3 -->
<g id="edge2_Node000002_Node000003" class="edge">
<title>Node2&#45;&gt;Node3</title>
<g id="a_edge2_Node000002_Node000003"><a xlink:title=" ">
<path fill="none" stroke="#63b8ff" d="M112.5,-111.59C112.5,-105.01 112.5,-95.96 112.5,-87.73"/>
<polygon fill="#63b8ff" stroke="#63b8ff" points="116,-87.81 112.5,-77.81 109,-87.81 116,-87.81"/>
</a>
</g>
</g>
<!-- Node4 -->
<g id="Node000004" class="node">
<title>Node4</title>
<g id="a_Node000004"><a xlink:title=" ">
<polygon fill="#e0e0e0" stroke="#999999" points="43,-20 0,-20 0,0 43,0 43,-20"/>
<text xml:space="preserve" text-anchor="middle" x="21.5" y="-6.5" font-family="Helvetica,sans-Serif" font-size="10.00">thread</text>
</a>
</g>
</g>
<!-- Node3&#45;&gt;Node4 -->
<g id="edge3_Node000003_Node000004" class="edge">
<title>Node3&#45;&gt;Node4</title>
<g id="a_edge3_Node000003_Node000004"><a xlink:title=" ">
<path fill="none" stroke="#63b8ff" d="M96.65,-55.59C83.03,-47.51 63.14,-35.71 47.24,-26.27"/>
<polygon fill="#63b8ff" stroke="#63b8ff" points="49.16,-23.35 38.78,-21.25 45.59,-29.37 49.16,-23.35"/>
</a>
</g>
</g>
<!-- Node5 -->
<g id="Node000005" class="node">
<title>Node5</title>
<g id="a_Node000005"><a xlink:title=" ">
<polygon fill="#e0e0e0" stroke="#999999" points="104,-20 61,-20 61,0 104,0 104,-20"/>
<text xml:space="preserve" text-anchor="middle" x="82.5" y="-6.5" font-family="Helvetica,sans-Serif" font-size="10.00">mutex</text>
</a>
</g>
</g>
<!-- Node3&#45;&gt;Node5 -->
<g id="edge4_Node000003_Node000005" class="edge">
<title>Node3&#45;&gt;Node5</title>
<g id="a_edge4_Node000003_Node000005"><a xlink:title=" ">
<path fill="none" stroke="#63b8ff" d="M107.27,-55.59C103.4,-48.63 97.99,-38.89 93.22,-30.29"/>
<polygon fill="#63b8ff" stroke="#63b8ff" points="96.32,-28.66 88.4,-21.62 90.2,-32.06 96.32,-28.66"/>
</a>
</g>
</g>
<!-- Node6 -->
<g id="Node000006" class="node">
<title>Node6</title>
<g id="a_Node000006"><a xlink:title=" ">
<polygon fill="#e0e0e0" stroke="#999999" points="165,-20 122,-20 122,0 165,0 165,-20"/>
<text xml:space="preserve" text-anchor="middle" x="143.5" y="-6.5" font-family="Helvetica,sans-Serif" font-size="10.00">vector</text>
</a>
</g>
</g>
<!-- Node3&#45;&gt;Node6 -->
<g id="edge5_Node000003_Node000006" class="edge">
<title>Node3&#45;&gt;Node6</title>
<g id="a_edge5_Node000003_Node000006"><a xlink:title=" ">
<path fill="none" stroke="#63b8ff" d="M117.9,-55.59C121.94,-48.55 127.62,-38.67 132.59,-30"/>
<polygon fill="#63b8ff" stroke="#63b8ff" points="135.47,-32.03 137.41,-21.61 129.39,-28.54 135.47,-32.03"/>
</a>
</g>
</g>
<!-- Node7 -->
<g id="Node000007" class="node">
<title>Node7</title>
<g id="a_Node000007"><a xlink:href="invocable_8hpp_source.html" target="_top" xlink:title=" ">
<polygon fill="white" stroke="#666666" points="259.5,-20 183.5,-20 183.5,0 259.5,0 259.5,-20"/>
<text xml:space="preserve" text-anchor="middle" x="221.5" y="-6.5" font-family="Helvetica,sans-Serif" font-size="10.00">invocable.hpp</text>
</a>
</g>
</g>
<!-- Node3&#45;&gt;Node7 -->
<g id="edge6_Node000003_Node000007" class="edge">
<title>Node3&#45;&gt;Node7</title>
<g id="a_edge6_Node000003_Node000007"><a xlink:title=" ">
<path fill="none" stroke="#63b8ff" d="M131.49,-55.59C148.26,-47.28 172.99,-35.03 192.29,-25.47"/>
<polygon fill="#63b8ff" stroke="#63b8ff" points="193.6,-28.73 201.01,-21.15 190.49,-22.45 193.6,-28.73"/>
</a>
</g>
</g>
<!-- Node9 -->
<g id="Node000009" class="node">
<title>Node9</title>
<g id="a_Node000009"><a xlink:href="Thread_8h.html" target="_top" xlink:title="The Thread class.">
<polygon fill="white" stroke="#666666" points="198,-188 113,-188 113,-168 198,-168 198,-188"/>
<text xml:space="preserve" text-anchor="middle" x="155.5" y="-174.5" font-family="Helvetica,sans-Serif" font-size="10.00">../core/Thread.h</text>
</a>
</g>
</g>
<!-- Node8&#45;&gt;Node9 -->
<g id="edge8_Node000008_Node000009" class="edge">
<title>Node8&#45;&gt;Node9</title>
<g id="a_edge8_Node000008_Node000009"><a xlink:title=" ">
<path fill="none" stroke="#63b8ff" d="M155.5,-223.59C155.5,-217.01 155.5,-207.96 155.5,-199.73"/>
<polygon fill="#63b8ff" stroke="#63b8ff" points="159,-199.81 155.5,-189.81 152,-199.81 159,-199.81"/>
</a>
</g>
</g>
<!-- Node10 -->
<g id="Node000010" class="node">
<title>Node10</title>
<g id="a_Node000010"><a xlink:href="Instance_8h.html" target="_top" xlink:title="The AbstractInstance and Instance classes.">
<polygon fill="white" stroke="#666666" points="277.38,-188 215.62,-188 215.62,-168 277.38,-168 277.38,-188"/>
<text xml:space="preserve" text-anchor="middle" x="246.5" y="-174.5" font-family="Helvetica,sans-Serif" font-size="10.00">Instance.h</text>
</a>
</g>
</g>
<!-- Node8&#45;&gt;Node10 -->
<g id="edge10_Node000008_Node000010" class="edge">
<title>Node8&#45;&gt;Node10</title>
<g id="a_edge10_Node000008_Node000010"><a xlink:title=" ">
<path fill="none" stroke="#63b8ff" d="M171.35,-223.59C184.97,-215.51 204.86,-203.71 220.76,-194.27"/>
<polygon fill="#63b8ff" stroke="#63b8ff" points="222.41,-197.37 229.22,-189.25 218.84,-191.35 222.41,-197.37"/>
</a>
</g>
</g>
<!-- Node9&#45;&gt;Node2 -->
<g id="edge9_Node000009_Node000002" class="edge">
<title>Node9&#45;&gt;Node2</title>
<g id="a_edge9_Node000009_Node000002"><a xlink:title=" ">
<path fill="none" stroke="#63b8ff" d="M148.01,-167.59C142.21,-160.32 134.01,-150.02 126.95,-141.15"/>
<polygon fill="#63b8ff" stroke="#63b8ff" points="129.81,-139.12 120.85,-133.48 124.34,-143.49 129.81,-139.12"/>
</a>
</g>
</g>
<!-- Node11 -->
<g id="Node000011" class="node">
<title>Node11</title>
<g id="a_Node000011"><a xlink:title=" ">
<polygon fill="#e0e0e0" stroke="#999999" points="266.5,-132 226.5,-132 226.5,-112 266.5,-112 266.5,-132"/>
<text xml:space="preserve" text-anchor="middle" x="246.5" y="-118.5" font-family="Helvetica,sans-Serif" font-size="10.00">string</text>
</a>
</g>
</g>
<!-- Node10&#45;&gt;Node11 -->
<g id="edge11_Node000010_Node000011" class="edge">
<title>Node10&#45;&gt;Node11</title>
<g id="a_edge11_Node000010_Node000011"><a xlink:title=" ">
<path fill="none" stroke="#63b8ff" d="M246.5,-167.59C246.5,-161.01 246.5,-151.96 246.5,-143.73"/>
<polygon fill="#63b8ff" stroke="#63b8ff" points="250,-143.81 246.5,-133.81 243,-143.81 250,-143.81"/>
</a>
</g>
</g>
</g>
</svg>
