<?xml version="1.0" encoding="UTF-8" standalone="no"?>
<!DOCTYPE svg PUBLIC "-//W3C//DTD SVG 1.1//EN"
 "http://www.w3.org/Graphics/SVG/1.1/DTD/svg11.dtd">
<!-- Generated by graphviz version 14.1.3 (20260303.0454)
 -->
<!-- Title: core/DataArray.h Pages: 1 -->
<svg width="188pt" height="140pt"
 viewBox="0.00 0.00 188.00 140.00" xmlns="http://www.w3.org/2000/svg" xmlns:xlink="http://www.w3.org/1999/xlink">
<g id="graph0" class="graph" transform="scale(1 1) rotate(0) translate(4 136)">
<title>core/DataArray.h</title>
<!-- Node1 -->
<g id="Node000001" class="node">
<title>Node1</title>
<g id="a_Node000001"><a xlink:title="The DataArray, DataArrayView, DataArrayList and DataStream classes.">
<polygon fill="#999999" stroke="#666666" points="142.25,-132 53.5,-132 53.5,-112 142.25,-112 142.25,-132"/>
<text xml:space="preserve" text-anchor="middle" x="97.88" y="-118.5" font-family="Helvetica,sans-Serif" font-size="10.00">core/DataArray.h</text>
</a>
</g>
</g>
<!-- Node2 -->
<g id="Node000002" class="node">
<title>Node2</title>
<g id="a_Node000002"><a xlink:href="HttpSocket_8h.html" target="_top" xlink:title="The HttpSocket class.">
<polygon fill="white" stroke="#666666" points="97.75,-76 0,-76 0,-56 97.75,-56 97.75,-76"/>
<text xml:space="preserve" text-anchor="middle" x="48.88" y="-62.5" font-family="Helvetica,sans-Serif" font-size="10.00">main/HttpSocket.h</text>
</a>
</g>
</g>
<!-- Node1&#45;&gt;Node2 -->
<g id="edge1_Node000001_Node000002" class="edge">
<title>Node1&#45;&gt;Node2</title>
<g id="a_edge1_Node000001_Node000002"><a xlink:title=" ">
<path fill="none" stroke="#63b8ff" d="M81.8,-103.29C73.63,-94.28 64.03,-83.7 57.31,-76.3"/>
<polygon fill="#63b8ff" stroke="#63b8ff" points="79.01,-105.42 88.32,-110.47 84.19,-100.72 79.01,-105.42"/>
</a>
</g>
</g>
<!-- Node4 -->
<g id="Node000004" class="node">
<title>Node4</title>
<g id="a_Node000004"><a xlink:href="Rrd_8h.html" target="_top" xlink:title="The Rrd class.">
<polygon fill="white" stroke="#666666" points="179.88,-76 115.88,-76 115.88,-56 179.88,-56 179.88,-76"/>
<text xml:space="preserve" text-anchor="middle" x="147.88" y="-62.5" font-family="Helvetica,sans-Serif" font-size="10.00">main/Rrd.h</text>
</a>
</g>
</g>
<!-- Node1&#45;&gt;Node4 -->
<g id="edge3_Node000001_Node000004" class="edge">
<title>Node1&#45;&gt;Node4</title>
<g id="a_edge3_Node000001_Node000004"><a xlink:title=" ">
<path fill="none" stroke="#63b8ff" d="M114.28,-103.29C122.62,-94.28 132.41,-83.7 139.27,-76.3"/>
<polygon fill="#63b8ff" stroke="#63b8ff" points="111.84,-100.77 107.61,-110.48 116.97,-105.52 111.84,-100.77"/>
</a>
</g>
</g>
<!-- Node3 -->
<g id="Node000003" class="node">
<title>Node3</title>
<g id="a_Node000003"><a xlink:href="HttpServer_8h.html" target="_top" xlink:title="The HttpServer class.">
<polygon fill="white" stroke="#666666" points="96.25,-20 1.5,-20 1.5,0 96.25,0 96.25,-20"/>
<text xml:space="preserve" text-anchor="middle" x="48.88" y="-6.5" font-family="Helvetica,sans-Serif" font-size="10.00">main/HttpServer.h</text>
</a>
</g>
</g>
<!-- Node2&#45;&gt;Node3 -->
<g id="edge2_Node000002_Node000003" class="edge">
<title>Node2&#45;&gt;Node3</title>
<g id="a_edge2_Node000002_Node000003"><a xlink:title=" ">
<path fill="none" stroke="#63b8ff" d="M48.88,-44.13C48.88,-35.9 48.88,-26.85 48.88,-20.3"/>
<polygon fill="#63b8ff" stroke="#63b8ff" points="45.38,-44.08 48.88,-54.08 52.38,-44.08 45.38,-44.08"/>
</a>
</g>
</g>
<!-- Node5 -->
<g id="Node000005" class="node">
<title>Node5</title>
<g id="a_Node000005"><a xlink:href="Log_8h.html" target="_top" xlink:title="The AbstractLog and Log classes.">
<polygon fill="white" stroke="#666666" points="179.88,-20 115.88,-20 115.88,0 179.88,0 179.88,-20"/>
<text xml:space="preserve" text-anchor="middle" x="147.88" y="-6.5" font-family="Helvetica,sans-Serif" font-size="10.00">main/Log.h</text>
</a>
</g>
</g>
<!-- Node4&#45;&gt;Node5 -->
<g id="edge4_Node000004_Node000005" class="edge">
<title>Node4&#45;&gt;Node5</title>
<g id="a_edge4_Node000004_Node000005"><a xlink:title=" ">
<path fill="none" stroke="#63b8ff" d="M147.88,-44.13C147.88,-35.9 147.88,-26.85 147.88,-20.3"/>
<polygon fill="#63b8ff" stroke="#63b8ff" points="144.38,-44.08 147.88,-54.08 151.38,-44.08 144.38,-44.08"/>
</a>
</g>
</g>
</g>
</svg>
