<?xml version="1.0" encoding="UTF-8" standalone="no"?>
<!DOCTYPE svg PUBLIC "-//W3C//DTD SVG 1.1//EN"
 "http://www.w3.org/Graphics/SVG/1.1/DTD/svg11.dtd">
<!-- Generated by graphviz version 14.1.3 (20260303.0454)
 -->
<!-- Title: main/DataArrayAbstractTcp.h Pages: 1 -->
<svg width="338pt" height="308pt"
 viewBox="0.00 0.00 338.00 308.00" xmlns="http://www.w3.org/2000/svg" xmlns:xlink="http://www.w3.org/1999/xlink">
<g id="graph0" class="graph" transform="scale(1 1) rotate(0) translate(4 304)">
<title>main/DataArrayAbstractTcp.h</title>
<!-- Node1 -->
<g id="Node000001" class="node">
<title>Node1</title>
<g id="a_Node000001"><a xlink:title="The DataArrayAbstractTcp class.">
<polygon fill="#999999" stroke="#666666" points="268.62,-300 124.38,-300 124.38,-280 268.62,-280 268.62,-300"/>
<text xml:space="preserve" text-anchor="middle" x="196.5" y="-286.5" font-family="Helvetica,sans-Serif" font-size="10.00">main/DataArrayAbstractTcp.h</text>
</a>
</g>
</g>
<!-- Node2 -->
<g id="Node000002" class="node">
<title>Node2</title>
<g id="a_Node000002"><a xlink:href="FunctionConnector_8h.html" target="_top" xlink:title="The AbstractFunctionConnector, FunctionConnector, FunctionConnectorProtected, FunctionConnectionGuard...">
<polygon fill="white" stroke="#666666" points="318.88,-132 182.12,-132 182.12,-112 318.88,-112 318.88,-132"/>
<text xml:space="preserve" text-anchor="middle" x="250.5" y="-118.5" font-family="Helvetica,sans-Serif" font-size="10.00">../core/FunctionConnector.h</text>
</a>
</g>
</g>
<!-- Node1&#45;&gt;Node2 -->
<g id="edge1_Node000001_Node000002" class="edge">
<title>Node1&#45;&gt;Node2</title>
<g id="a_edge1_Node000001_Node000002"><a xlink:title=" ">
<path fill="none" stroke="#63b8ff" d="M211.12,-279.71C234.16,-264.08 277.98,-230.07 294.5,-188 301.59,-169.93 287.17,-151.85 272.98,-139.36"/>
<polygon fill="#63b8ff" stroke="#63b8ff" points="275.51,-136.9 265.54,-133.31 271.09,-142.34 275.51,-136.9"/>
</a>
</g>
</g>
<!-- Node8 -->
<g id="Node000008" class="node">
<title>Node8</title>
<g id="a_Node000008"><a xlink:href="TlsContext_8h.html" target="_top" xlink:title="The TlsContext class.">
<polygon fill="white" stroke="#666666" points="103,-188 0,-188 0,-168 103,-168 103,-188"/>
<text xml:space="preserve" text-anchor="middle" x="51.5" y="-174.5" font-family="Helvetica,sans-Serif" font-size="10.00">../core/TlsContext.h</text>
</a>
</g>
</g>
<!-- Node1&#45;&gt;Node8 -->
<g id="edge7_Node000001_Node000008" class="edge">
<title>Node1&#45;&gt;Node8</title>
<g id="a_edge7_Node000001_Node000008"><a xlink:title=" ">
<path fill="none" stroke="#63b8ff" d="M184.14,-279.62C159.42,-260.87 103.63,-218.55 72.87,-195.21"/>
<polygon fill="#63b8ff" stroke="#63b8ff" points="75.12,-192.53 65.04,-189.27 70.89,-198.1 75.12,-192.53"/>
</a>
</g>
</g>
<!-- Node11 -->
<g id="Node000011" class="node">
<title>Node11</title>
<g id="a_Node000011"><a xlink:href="ThreadPool_8h.html" target="_top" xlink:title="The AbstractThreadPool and ThreadPool classes.">
<polygon fill="white" stroke="#666666" points="233.38,-244 159.62,-244 159.62,-224 233.38,-224 233.38,-244"/>
<text xml:space="preserve" text-anchor="middle" x="196.5" y="-230.5" font-family="Helvetica,sans-Serif" font-size="10.00">ThreadPool.h</text>
</a>
</g>
</g>
<!-- Node1&#45;&gt;Node11 -->
<g id="edge11_Node000001_Node000011" class="edge">
<title>Node1&#45;&gt;Node11</title>
<g id="a_edge11_Node000001_Node000011"><a xlink:title=" ">
<path fill="none" stroke="#63b8ff" d="M196.5,-279.59C196.5,-273.01 196.5,-263.96 196.5,-255.73"/>
<polygon fill="#63b8ff" stroke="#63b8ff" points="200,-255.81 196.5,-245.81 193,-255.81 200,-255.81"/>
</a>
</g>
</g>
<!-- Node3 -->
<g id="Node000003" class="node">
<title>Node3</title>
<g id="a_Node000003"><a xlink:href="AbstractThread_8h.html" target="_top" xlink:title="The AbstractThread class.">
<polygon fill="white" stroke="#666666" points="276,-76 185,-76 185,-56 276,-56 276,-76"/>
<text xml:space="preserve" text-anchor="middle" x="230.5" y="-62.5" font-family="Helvetica,sans-Serif" font-size="10.00">AbstractThread.h</text>
</a>
</g>
</g>
<!-- Node2&#45;&gt;Node3 -->
<g id="edge2_Node000002_Node000003" class="edge">
<title>Node2&#45;&gt;Node3</title>
<g id="a_edge2_Node000002_Node000003"><a xlink:title=" ">
<path fill="none" stroke="#63b8ff" d="M247.02,-111.59C244.49,-104.78 240.99,-95.32 237.86,-86.86"/>
<polygon fill="#63b8ff" stroke="#63b8ff" points="241.22,-85.88 234.47,-77.72 234.66,-88.31 241.22,-85.88"/>
</a>
</g>
</g>
<!-- Node4 -->
<g id="Node000004" class="node">
<title>Node4</title>
<g id="a_Node000004"><a xlink:title=" ">
<polygon fill="#e0e0e0" stroke="#999999" points="330,-20 287,-20 287,0 330,0 330,-20"/>
<text xml:space="preserve" text-anchor="middle" x="308.5" y="-6.5" font-family="Helvetica,sans-Serif" font-size="10.00">thread</text>
</a>
</g>
</g>
<!-- Node3&#45;&gt;Node4 -->
<g id="edge3_Node000003_Node000004" class="edge">
<title>Node3&#45;&gt;Node4</title>
<g id="a_edge3_Node000003_Node000004"><a xlink:title=" ">
<path fill="none" stroke="#63b8ff" d="M244.09,-55.59C255.54,-47.67 272.16,-36.16 285.66,-26.82"/>
<polygon fill="#63b8ff" stroke="#63b8ff" points="287.33,-29.91 293.56,-21.34 283.35,-24.16 287.33,-29.91"/>
</a>
</g>
</g>
<!-- Node5 -->
<g id="Node000005" class="node">
<title>Node5</title>
<g id="a_Node000005"><a xlink:title=" ">
<polygon fill="#e0e0e0" stroke="#999999" points="174,-20 131,-20 131,0 174,0 174,-20"/>
<text xml:space="preserve" text-anchor="middle" x="152.5" y="-6.5" font-family="Helvetica,sans-Serif" font-size="10.00">mutex</text>
</a>
</g>
</g>
<!-- Node3&#45;&gt;Node5 -->
<g id="edge4_Node000003_Node000005" class="edge">
<title>Node3&#45;&gt;Node5</title>
<g id="a_edge4_Node000003_Node000005"><a xlink:title=" ">
<path fill="none" stroke="#63b8ff" d="M216.91,-55.59C205.46,-47.67 188.84,-36.16 175.34,-26.82"/>
<polygon fill="#63b8ff" stroke="#63b8ff" points="177.65,-24.16 167.44,-21.34 173.67,-29.91 177.65,-24.16"/>
</a>
</g>
</g>
<!-- Node6 -->
<g id="Node000006" class="node">
<title>Node6</title>
<g id="a_Node000006"><a xlink:title=" ">
<polygon fill="#e0e0e0" stroke="#999999" points="93,-20 50,-20 50,0 93,0 93,-20"/>
<text xml:space="preserve" text-anchor="middle" x="71.5" y="-6.5" font-family="Helvetica,sans-Serif" font-size="10.00">vector</text>
</a>
</g>
</g>
<!-- Node3&#45;&gt;Node6 -->
<g id="edge5_Node000003_Node000006" class="edge">
<title>Node3&#45;&gt;Node6</title>
<g id="a_edge5_Node000003_Node000006"><a xlink:title=" ">
<path fill="none" stroke="#63b8ff" d="M202.8,-55.59C175.31,-46.26 133.18,-31.95 104.09,-22.07"/>
<polygon fill="#63b8ff" stroke="#63b8ff" points="105.29,-18.78 94.7,-18.88 103.04,-25.41 105.29,-18.78"/>
</a>
</g>
</g>
<!-- Node7 -->
<g id="Node000007" class="node">
<title>Node7</title>
<g id="a_Node000007"><a xlink:href="invocable_8hpp_source.html" target="_top" xlink:title=" ">
<polygon fill="white" stroke="#666666" points="268.5,-20 192.5,-20 192.5,0 268.5,0 268.5,-20"/>
<text xml:space="preserve" text-anchor="middle" x="230.5" y="-6.5" font-family="Helvetica,sans-Serif" font-size="10.00">invocable.hpp</text>
</a>
</g>
</g>
<!-- Node3&#45;&gt;Node7 -->
<g id="edge6_Node000003_Node000007" class="edge">
<title>Node3&#45;&gt;Node7</title>
<g id="a_edge6_Node000003_Node000007"><a xlink:title=" ">
<path fill="none" stroke="#63b8ff" d="M230.5,-55.59C230.5,-49.01 230.5,-39.96 230.5,-31.73"/>
<polygon fill="#63b8ff" stroke="#63b8ff" points="234,-31.81 230.5,-21.81 227,-31.81 234,-31.81"/>
</a>
</g>
</g>
<!-- Node8&#45;&gt;Node6 -->
<g id="edge9_Node000008_Node000006" class="edge">
<title>Node8&#45;&gt;Node6</title>
<g id="a_edge9_Node000008_Node000006"><a xlink:title=" ">
<path fill="none" stroke="#63b8ff" d="M50.93,-167.72C50.29,-155.08 49.56,-131.77 51.5,-112 54.27,-83.71 61.32,-51.6 66.26,-31.33"/>
<polygon fill="#63b8ff" stroke="#63b8ff" points="69.6,-32.4 68.63,-21.84 62.81,-30.69 69.6,-32.4"/>
</a>
</g>
</g>
<!-- Node9 -->
<g id="Node000009" class="node">
<title>Node9</title>
<g id="a_Node000009"><a xlink:title=" ">
<polygon fill="#e0e0e0" stroke="#999999" points="164.5,-132 124.5,-132 124.5,-112 164.5,-112 164.5,-132"/>
<text xml:space="preserve" text-anchor="middle" x="144.5" y="-118.5" font-family="Helvetica,sans-Serif" font-size="10.00">string</text>
</a>
</g>
</g>
<!-- Node8&#45;&gt;Node9 -->
<g id="edge8_Node000008_Node000009" class="edge">
<title>Node8&#45;&gt;Node9</title>
<g id="a_edge8_Node000008_Node000009"><a xlink:title=" ">
<path fill="none" stroke="#63b8ff" d="M67.7,-167.59C81.75,-159.44 102.33,-147.48 118.66,-138"/>
<polygon fill="#63b8ff" stroke="#63b8ff" points="119.97,-141.29 126.87,-133.24 116.46,-135.23 119.97,-141.29"/>
</a>
</g>
</g>
<!-- Node10 -->
<g id="Node000010" class="node">
<title>Node10</title>
<g id="a_Node000010"><a xlink:title=" ">
<polygon fill="#e0e0e0" stroke="#999999" points="106.12,-132 60.88,-132 60.88,-112 106.12,-112 106.12,-132"/>
<text xml:space="preserve" text-anchor="middle" x="83.5" y="-118.5" font-family="Helvetica,sans-Serif" font-size="10.00">cstdint</text>
</a>
</g>
</g>
<!-- Node8&#45;&gt;Node10 -->
<g id="edge10_Node000008_Node000010" class="edge">
<title>Node8&#45;&gt;Node10</title>
<g id="a_edge10_Node000008_Node000010"><a xlink:title=" ">
<path fill="none" stroke="#63b8ff" d="M57.07,-167.59C61.25,-160.55 67.1,-150.67 72.24,-142"/>
<polygon fill="#63b8ff" stroke="#63b8ff" points="75.13,-143.99 77.22,-133.6 69.11,-140.42 75.13,-143.99"/>
</a>
</g>
</g>
<!-- Node12 -->
<g id="Node000012" class="node">
<title>Node12</title>
<g id="a_Node000012"><a xlink:href="Thread_8h.html" target="_top" xlink:title="The Thread class.">
<polygon fill="white" stroke="#666666" points="285,-188 200,-188 200,-168 285,-168 285,-188"/>
<text xml:space="preserve" text-anchor="middle" x="242.5" y="-174.5" font-family="Helvetica,sans-Serif" font-size="10.00">../core/Thread.h</text>
</a>
</g>
</g>
<!-- Node11&#45;&gt;Node12 -->
<g id="edge12_Node000011_Node000012" class="edge">
<title>Node11&#45;&gt;Node12</title>
<g id="a_edge12_Node000011_Node000012"><a xlink:title=" ">
<path fill="none" stroke="#63b8ff" d="M204.51,-223.59C210.78,-216.24 219.67,-205.8 227.28,-196.87"/>
<polygon fill="#63b8ff" stroke="#63b8ff" points="229.78,-199.33 233.6,-189.45 224.45,-194.79 229.78,-199.33"/>
</a>
</g>
</g>
<!-- Node13 -->
<g id="Node000013" class="node">
<title>Node13</title>
<g id="a_Node000013"><a xlink:href="Instance_8h.html" target="_top" xlink:title="The AbstractInstance and Instance classes.">
<polygon fill="white" stroke="#666666" points="182.38,-188 120.62,-188 120.62,-168 182.38,-168 182.38,-188"/>
<text xml:space="preserve" text-anchor="middle" x="151.5" y="-174.5" font-family="Helvetica,sans-Serif" font-size="10.00">Instance.h</text>
</a>
</g>
</g>
<!-- Node11&#45;&gt;Node13 -->
<g id="edge14_Node000011_Node000013" class="edge">
<title>Node11&#45;&gt;Node13</title>
<g id="a_edge14_Node000011_Node000013"><a xlink:title=" ">
<path fill="none" stroke="#63b8ff" d="M188.66,-223.59C182.53,-216.24 173.83,-205.8 166.39,-196.87"/>
<polygon fill="#63b8ff" stroke="#63b8ff" points="169.31,-194.9 160.22,-189.46 163.93,-199.38 169.31,-194.9"/>
</a>
</g>
</g>
<!-- Node12&#45;&gt;Node2 -->
<g id="edge13_Node000012_Node000002" class="edge">
<title>Node12&#45;&gt;Node2</title>
<g id="a_edge13_Node000012_Node000002"><a xlink:title=" ">
<path fill="none" stroke="#63b8ff" d="M243.89,-167.59C244.88,-160.93 246.24,-151.75 247.47,-143.44"/>
<polygon fill="#63b8ff" stroke="#63b8ff" points="250.9,-144.2 248.9,-133.8 243.97,-143.17 250.9,-144.2"/>
</a>
</g>
</g>
<!-- Node13&#45;&gt;Node9 -->
<g id="edge15_Node000013_Node000009" class="edge">
<title>Node13&#45;&gt;Node9</title>
<g id="a_edge15_Node000013_Node000009"><a xlink:title=" ">
<path fill="none" stroke="#63b8ff" d="M150.28,-167.59C149.42,-160.93 148.23,-151.75 147.15,-143.44"/>
<polygon fill="#63b8ff" stroke="#63b8ff" points="150.66,-143.27 145.9,-133.8 143.71,-144.17 150.66,-143.27"/>
</a>
</g>
</g>
</g>
</svg>
