<?xml version="1.0" encoding="UTF-8" standalone="no"?>
<!DOCTYPE svg PUBLIC "-//W3C//DTD SVG 1.1//EN"
 "http://www.w3.org/Graphics/SVG/1.1/DTD/svg11.dtd">
<!-- Generated by graphviz version 14.1.3 (20260303.0454)
 -->
<!-- Title: main/DataArraySocket.h Pages: 1 -->
<svg width="502pt" height="252pt"
 viewBox="0.00 0.00 502.00 252.00" xmlns="http://www.w3.org/2000/svg" xmlns:xlink="http://www.w3.org/1999/xlink">
<g id="graph0" class="graph" transform="scale(1 1) rotate(0) translate(4 248)">
<title>main/DataArraySocket.h</title>
<!-- Node1 -->
<g id="Node000001" class="node">
<title>Node1</title>
<g id="a_Node000001"><a xlink:title="The DataArraySocket class.">
<polygon fill="#999999" stroke="#666666" points="189.75,-244 66.5,-244 66.5,-224 189.75,-224 189.75,-244"/>
<text xml:space="preserve" text-anchor="middle" x="128.12" y="-230.5" font-family="Helvetica,sans-Serif" font-size="10.00">main/DataArraySocket.h</text>
</a>
</g>
</g>
<!-- Node2 -->
<g id="Node000002" class="node">
<title>Node2</title>
<g id="a_Node000002"><a xlink:title=" ">
<polygon fill="#e0e0e0" stroke="#999999" points="42.25,-188 0,-188 0,-168 42.25,-168 42.25,-188"/>
<text xml:space="preserve" text-anchor="middle" x="21.12" y="-174.5" font-family="Helvetica,sans-Serif" font-size="10.00">deque</text>
</a>
</g>
</g>
<!-- Node1&#45;&gt;Node2 -->
<g id="edge1_Node000001_Node000002" class="edge">
<title>Node1&#45;&gt;Node2</title>
<g id="a_edge1_Node000001_Node000002"><a xlink:title=" ">
<path fill="none" stroke="#63b8ff" d="M109.49,-223.59C93.09,-215.32 68.97,-203.14 50.06,-193.6"/>
<polygon fill="#63b8ff" stroke="#63b8ff" points="51.76,-190.54 41.26,-189.16 48.61,-196.79 51.76,-190.54"/>
</a>
</g>
</g>
<!-- Node3 -->
<g id="Node000003" class="node">
<title>Node3</title>
<g id="a_Node000003"><a xlink:href="AbstractTlsSocket_8h.html" target="_top" xlink:title="The AbstractTlsSocket class.">
<polygon fill="white" stroke="#666666" points="196.12,-188 60.12,-188 60.12,-168 196.12,-168 196.12,-188"/>
<text xml:space="preserve" text-anchor="middle" x="128.12" y="-174.5" font-family="Helvetica,sans-Serif" font-size="10.00">../core/AbstractTlsSocket.h</text>
</a>
</g>
</g>
<!-- Node1&#45;&gt;Node3 -->
<g id="edge2_Node000001_Node000003" class="edge">
<title>Node1&#45;&gt;Node3</title>
<g id="a_edge2_Node000001_Node000003"><a xlink:title=" ">
<path fill="none" stroke="#63b8ff" d="M128.12,-223.59C128.12,-217.01 128.12,-207.96 128.12,-199.73"/>
<polygon fill="#63b8ff" stroke="#63b8ff" points="131.63,-199.81 128.13,-189.81 124.63,-199.81 131.63,-199.81"/>
</a>
</g>
</g>
<!-- Node9 -->
<g id="Node000009" class="node">
<title>Node9</title>
<g id="a_Node000009"><a xlink:href="FunctionConnector_8h.html" target="_top" xlink:title="The AbstractFunctionConnector, FunctionConnector, FunctionConnectorProtected, FunctionConnectionGuard...">
<polygon fill="white" stroke="#666666" points="373.5,-188 236.75,-188 236.75,-168 373.5,-168 373.5,-188"/>
<text xml:space="preserve" text-anchor="middle" x="305.12" y="-174.5" font-family="Helvetica,sans-Serif" font-size="10.00">../core/FunctionConnector.h</text>
</a>
</g>
</g>
<!-- Node1&#45;&gt;Node9 -->
<g id="edge8_Node000001_Node000009" class="edge">
<title>Node1&#45;&gt;Node9</title>
<g id="a_edge8_Node000001_Node000009"><a xlink:title=" ">
<path fill="none" stroke="#63b8ff" d="M158.96,-223.59C187.84,-214.78 231.24,-201.54 263.25,-191.78"/>
<polygon fill="#63b8ff" stroke="#63b8ff" points="264.06,-195.19 272.61,-188.92 262.02,-188.49 264.06,-195.19"/>
</a>
</g>
</g>
<!-- Node4 -->
<g id="Node000004" class="node">
<title>Node4</title>
<g id="a_Node000004"><a xlink:href="AbstractSocket_8h.html" target="_top" xlink:title="The AbstractSocket class.">
<polygon fill="white" stroke="#666666" points="168,-132 76.25,-132 76.25,-112 168,-112 168,-132"/>
<text xml:space="preserve" text-anchor="middle" x="122.12" y="-118.5" font-family="Helvetica,sans-Serif" font-size="10.00">AbstractSocket.h</text>
</a>
</g>
</g>
<!-- Node3&#45;&gt;Node4 -->
<g id="edge3_Node000003_Node000004" class="edge">
<title>Node3&#45;&gt;Node4</title>
<g id="a_edge3_Node000003_Node000004"><a xlink:title=" ">
<path fill="none" stroke="#63b8ff" d="M127.08,-167.59C126.35,-161.01 125.34,-151.96 124.43,-143.73"/>
<polygon fill="#63b8ff" stroke="#63b8ff" points="127.91,-143.35 123.33,-133.8 120.95,-144.13 127.91,-143.35"/>
</a>
</g>
</g>
<!-- Node5 -->
<g id="Node000005" class="node">
<title>Node5</title>
<g id="a_Node000005"><a xlink:title=" ">
<polygon fill="#e0e0e0" stroke="#999999" points="77.75,-76 32.5,-76 32.5,-56 77.75,-56 77.75,-76"/>
<text xml:space="preserve" text-anchor="middle" x="55.12" y="-62.5" font-family="Helvetica,sans-Serif" font-size="10.00">cstdint</text>
</a>
</g>
</g>
<!-- Node4&#45;&gt;Node5 -->
<g id="edge4_Node000004_Node000005" class="edge">
<title>Node4&#45;&gt;Node5</title>
<g id="a_edge4_Node000004_Node000005"><a xlink:title=" ">
<path fill="none" stroke="#63b8ff" d="M110.45,-111.59C100.85,-103.85 87,-92.69 75.56,-83.47"/>
<polygon fill="#63b8ff" stroke="#63b8ff" points="77.82,-80.8 67.84,-77.25 73.43,-86.25 77.82,-80.8"/>
</a>
</g>
</g>
<!-- Node6 -->
<g id="Node000006" class="node">
<title>Node6</title>
<g id="a_Node000006"><a xlink:title=" ">
<polygon fill="#e0e0e0" stroke="#999999" points="136.12,-76 96.12,-76 96.12,-56 136.12,-56 136.12,-76"/>
<text xml:space="preserve" text-anchor="middle" x="116.12" y="-62.5" font-family="Helvetica,sans-Serif" font-size="10.00">string</text>
</a>
</g>
</g>
<!-- Node4&#45;&gt;Node6 -->
<g id="edge5_Node000004_Node000006" class="edge">
<title>Node4&#45;&gt;Node6</title>
<g id="a_edge5_Node000004_Node000006"><a xlink:title=" ">
<path fill="none" stroke="#63b8ff" d="M121.08,-111.59C120.35,-105.01 119.34,-95.96 118.43,-87.73"/>
<polygon fill="#63b8ff" stroke="#63b8ff" points="121.91,-87.35 117.33,-77.8 114.95,-88.13 121.91,-87.35"/>
</a>
</g>
</g>
<!-- Node7 -->
<g id="Node000007" class="node">
<title>Node7</title>
<g id="a_Node000007"><a xlink:href="AnyData_8h.html" target="_top" xlink:title="The AnyData class.">
<polygon fill="white" stroke="#666666" points="216.38,-76 153.88,-76 153.88,-56 216.38,-56 216.38,-76"/>
<text xml:space="preserve" text-anchor="middle" x="185.12" y="-62.5" font-family="Helvetica,sans-Serif" font-size="10.00">AnyData.h</text>
</a>
</g>
</g>
<!-- Node4&#45;&gt;Node7 -->
<g id="edge6_Node000004_Node000007" class="edge">
<title>Node4&#45;&gt;Node7</title>
<g id="a_edge6_Node000004_Node000007"><a xlink:title=" ">
<path fill="none" stroke="#63b8ff" d="M133.1,-111.59C142.04,-103.93 154.9,-92.91 165.59,-83.75"/>
<polygon fill="#63b8ff" stroke="#63b8ff" points="167.81,-86.45 173.13,-77.28 163.26,-81.13 167.81,-86.45"/>
</a>
</g>
</g>
<!-- Node8 -->
<g id="Node000008" class="node">
<title>Node8</title>
<g id="a_Node000008"><a xlink:title=" ">
<polygon fill="#e0e0e0" stroke="#999999" points="201,-20 169.25,-20 169.25,0 201,0 201,-20"/>
<text xml:space="preserve" text-anchor="middle" x="185.12" y="-6.5" font-family="Helvetica,sans-Serif" font-size="10.00">any</text>
</a>
</g>
</g>
<!-- Node7&#45;&gt;Node8 -->
<g id="edge7_Node000007_Node000008" class="edge">
<title>Node7&#45;&gt;Node8</title>
<g id="a_edge7_Node000007_Node000008"><a xlink:title=" ">
<path fill="none" stroke="#63b8ff" d="M185.12,-55.59C185.12,-49.01 185.12,-39.96 185.12,-31.73"/>
<polygon fill="#63b8ff" stroke="#63b8ff" points="188.63,-31.81 185.13,-21.81 181.63,-31.81 188.63,-31.81"/>
</a>
</g>
</g>
<!-- Node10 -->
<g id="Node000010" class="node">
<title>Node10</title>
<g id="a_Node000010"><a xlink:href="AbstractThread_8h.html" target="_top" xlink:title="The AbstractThread class.">
<polygon fill="white" stroke="#666666" points="362.62,-132 271.62,-132 271.62,-112 362.62,-112 362.62,-132"/>
<text xml:space="preserve" text-anchor="middle" x="317.12" y="-118.5" font-family="Helvetica,sans-Serif" font-size="10.00">AbstractThread.h</text>
</a>
</g>
</g>
<!-- Node9&#45;&gt;Node10 -->
<g id="edge9_Node000009_Node000010" class="edge">
<title>Node9&#45;&gt;Node10</title>
<g id="a_edge9_Node000009_Node000010"><a xlink:title=" ">
<path fill="none" stroke="#63b8ff" d="M307.22,-167.59C308.7,-160.93 310.74,-151.75 312.58,-143.44"/>
<polygon fill="#63b8ff" stroke="#63b8ff" points="315.98,-144.3 314.73,-133.78 309.14,-142.78 315.98,-144.3"/>
</a>
</g>
</g>
<!-- Node11 -->
<g id="Node000011" class="node">
<title>Node11</title>
<g id="a_Node000011"><a xlink:title=" ">
<polygon fill="#e0e0e0" stroke="#999999" points="277.62,-76 234.62,-76 234.62,-56 277.62,-56 277.62,-76"/>
<text xml:space="preserve" text-anchor="middle" x="256.12" y="-62.5" font-family="Helvetica,sans-Serif" font-size="10.00">thread</text>
</a>
</g>
</g>
<!-- Node10&#45;&gt;Node11 -->
<g id="edge10_Node000010_Node000011" class="edge">
<title>Node10&#45;&gt;Node11</title>
<g id="a_edge10_Node000010_Node000011"><a xlink:title=" ">
<path fill="none" stroke="#63b8ff" d="M306.5,-111.59C297.84,-103.93 285.39,-92.91 275.04,-83.75"/>
<polygon fill="#63b8ff" stroke="#63b8ff" points="277.57,-81.31 267.76,-77.3 272.93,-86.55 277.57,-81.31"/>
</a>
</g>
</g>
<!-- Node12 -->
<g id="Node000012" class="node">
<title>Node12</title>
<g id="a_Node000012"><a xlink:title=" ">
<polygon fill="#e0e0e0" stroke="#999999" points="338.62,-76 295.62,-76 295.62,-56 338.62,-56 338.62,-76"/>
<text xml:space="preserve" text-anchor="middle" x="317.12" y="-62.5" font-family="Helvetica,sans-Serif" font-size="10.00">mutex</text>
</a>
</g>
</g>
<!-- Node10&#45;&gt;Node12 -->
<g id="edge11_Node000010_Node000012" class="edge">
<title>Node10&#45;&gt;Node12</title>
<g id="a_edge11_Node000010_Node000012"><a xlink:title=" ">
<path fill="none" stroke="#63b8ff" d="M317.12,-111.59C317.12,-105.01 317.12,-95.96 317.12,-87.73"/>
<polygon fill="#63b8ff" stroke="#63b8ff" points="320.63,-87.81 317.13,-77.81 313.63,-87.81 320.63,-87.81"/>
</a>
</g>
</g>
<!-- Node13 -->
<g id="Node000013" class="node">
<title>Node13</title>
<g id="a_Node000013"><a xlink:title=" ">
<polygon fill="#e0e0e0" stroke="#999999" points="399.62,-76 356.62,-76 356.62,-56 399.62,-56 399.62,-76"/>
<text xml:space="preserve" text-anchor="middle" x="378.12" y="-62.5" font-family="Helvetica,sans-Serif" font-size="10.00">vector</text>
</a>
</g>
</g>
<!-- Node10&#45;&gt;Node13 -->
<g id="edge12_Node000010_Node000013" class="edge">
<title>Node10&#45;&gt;Node13</title>
<g id="a_edge12_Node000010_Node000013"><a xlink:title=" ">
<path fill="none" stroke="#63b8ff" d="M327.75,-111.59C336.41,-103.93 348.86,-92.91 359.21,-83.75"/>
<polygon fill="#63b8ff" stroke="#63b8ff" points="361.32,-86.55 366.49,-77.3 356.68,-81.31 361.32,-86.55"/>
</a>
</g>
</g>
<!-- Node14 -->
<g id="Node000014" class="node">
<title>Node14</title>
<g id="a_Node000014"><a xlink:href="invocable_8hpp_source.html" target="_top" xlink:title=" ">
<polygon fill="white" stroke="#666666" points="494.12,-76 418.12,-76 418.12,-56 494.12,-56 494.12,-76"/>
<text xml:space="preserve" text-anchor="middle" x="456.12" y="-62.5" font-family="Helvetica,sans-Serif" font-size="10.00">invocable.hpp</text>
</a>
</g>
</g>
<!-- Node10&#45;&gt;Node14 -->
<g id="edge13_Node000010_Node000014" class="edge">
<title>Node10&#45;&gt;Node14</title>
<g id="a_edge13_Node000010_Node000014"><a xlink:title=" ">
<path fill="none" stroke="#63b8ff" d="M341.34,-111.59C363.43,-103.01 396.32,-90.23 421.25,-80.55"/>
<polygon fill="#63b8ff" stroke="#63b8ff" points="422.26,-83.91 430.31,-77.03 419.72,-77.39 422.26,-83.91"/>
</a>
</g>
</g>
</g>
</svg>
