<?xml version="1.0" encoding="UTF-8" standalone="no"?>
<!DOCTYPE svg PUBLIC "-//W3C//DTD SVG 1.1//EN"
 "http://www.w3.org/Graphics/SVG/1.1/DTD/svg11.dtd">
<!-- Generated by graphviz version 12.2.1 (20241206.2353)
 -->
<!-- Title: main/File.h Pages: 1 -->
<svg width="94pt" height="84pt"
 viewBox="0.00 0.00 94.03 84.00" xmlns="http://www.w3.org/2000/svg" xmlns:xlink="http://www.w3.org/1999/xlink">
<g id="graph0" class="graph" transform="scale(1 1) rotate(0) translate(4 80)">
<title>main/File.h</title>
<!-- Node1 -->
<g id="Node000001" class="node">
<title>Node1</title>
<g id="a_Node000001"><a xlink:title="Definition of the File class for file system operations.">
<polygon fill="#999999" stroke="#666666" points="72.4,-76 8.4,-76 8.4,-56 72.4,-56 72.4,-76"/>
<text text-anchor="middle" x="40.4" y="-62.5" font-family="Helvetica,sans-Serif" font-size="10.00">main/File.h</text>
</a>
</g>
</g>
<!-- Node2 -->
<g id="Node000002" class="node">
<title>Node2</title>
<g id="a_Node000002"><a xlink:title=" ">
<polygon fill="#e0e0e0" stroke="#999999" points="28.8,-20 0,-20 0,0 28.8,0 28.8,-20"/>
<text text-anchor="middle" x="14.4" y="-6.5" font-family="Helvetica,sans-Serif" font-size="10.00">ios</text>
</a>
</g>
</g>
<!-- Node1&#45;&gt;Node2 -->
<g id="edge1_Node000001_Node000002" class="edge">
<title>Node1&#45;&gt;Node2</title>
<g id="a_edge1_Node000001_Node000002"><a xlink:title=" ">
<path fill="none" stroke="#63b8ff" d="M35.87,-55.59C32.55,-48.7 27.93,-39.1 23.82,-30.57"/>
<polygon fill="#63b8ff" stroke="#63b8ff" points="27.03,-29.15 19.53,-21.66 20.72,-32.19 27.03,-29.15"/>
</a>
</g>
</g>
<!-- Node3 -->
<g id="Node000003" class="node">
<title>Node3</title>
<g id="a_Node000003"><a xlink:title=" ">
<polygon fill="#e0e0e0" stroke="#999999" points="86.03,-20 46.78,-20 46.78,0 86.03,0 86.03,-20"/>
<text text-anchor="middle" x="66.4" y="-6.5" font-family="Helvetica,sans-Serif" font-size="10.00">limits</text>
</a>
</g>
</g>
<!-- Node1&#45;&gt;Node3 -->
<g id="edge2_Node000001_Node000003" class="edge">
<title>Node1&#45;&gt;Node3</title>
<g id="a_edge2_Node000001_Node000003"><a xlink:title=" ">
<path fill="none" stroke="#63b8ff" d="M44.93,-55.59C48.25,-48.7 52.87,-39.1 56.98,-30.57"/>
<polygon fill="#63b8ff" stroke="#63b8ff" points="60.08,-32.19 61.27,-21.66 53.77,-29.15 60.08,-32.19"/>
</a>
</g>
</g>
</g>
</svg>
