<?xml version="1.0" encoding="UTF-8" standalone="no"?>
<!DOCTYPE svg PUBLIC "-//W3C//DTD SVG 1.1//EN"
 "http://www.w3.org/Graphics/SVG/1.1/DTD/svg11.dtd">
<!-- Generated by graphviz version 12.2.1 (20241206.2353)
 -->
<!-- Title: main/File.h Pages: 1 -->
<svg width="100pt" height="84pt"
 viewBox="0.00 0.00 100.03 84.00" xmlns="http://www.w3.org/2000/svg" xmlns:xlink="http://www.w3.org/1999/xlink">
<g id="graph0" class="graph" transform="scale(1 1) rotate(0) translate(4 80)">
<title>main/File.h</title>
<!-- Node1 -->
<g id="Node000001" class="node">
<title>Node1</title>
<g id="a_Node000001"><a xlink:title="Definition of the File class for file system operations.">
<polygon fill="#999999" stroke="#666666" points="73.4,-76 9.4,-76 9.4,-56 73.4,-56 73.4,-76"/>
<text text-anchor="middle" x="41.4" y="-62.5" font-family="Helvetica,sans-Serif" font-size="10.00">main/File.h</text>
</a>
</g>
</g>
<!-- Node2 -->
<g id="Node000002" class="node">
<title>Node2</title>
<g id="a_Node000002"><a xlink:title=" ">
<polygon fill="#e0e0e0" stroke="#999999" points="28.8,-20 0,-20 0,0 28.8,0 28.8,-20"/>
<text text-anchor="middle" x="14.4" y="-6.5" font-family="Helvetica,sans-Serif" font-size="10.00">ios</text>
</a>
</g>
</g>
<!-- Node1&#45;&gt;Node2 -->
<g id="edge1_Node000001_Node000002" class="edge">
<title>Node1&#45;&gt;Node2</title>
<g id="a_edge1_Node000001_Node000002"><a xlink:title=" ">
<path fill="none" stroke="#63b8ff" d="M36.7,-55.59C33.25,-48.7 28.45,-39.1 24.19,-30.57"/>
<polygon fill="#63b8ff" stroke="#63b8ff" points="27.33,-29.03 19.73,-21.65 21.07,-32.16 27.33,-29.03"/>
</a>
</g>
</g>
<!-- Node3 -->
<g id="Node000003" class="node">
<title>Node3</title>
<g id="a_Node000003"><a xlink:title=" ">
<polygon fill="#e0e0e0" stroke="#999999" points="92.03,-20 46.78,-20 46.78,0 92.03,0 92.03,-20"/>
<text text-anchor="middle" x="69.4" y="-6.5" font-family="Helvetica,sans-Serif" font-size="10.00">cstdint</text>
</a>
</g>
</g>
<!-- Node1&#45;&gt;Node3 -->
<g id="edge2_Node000001_Node000003" class="edge">
<title>Node1&#45;&gt;Node3</title>
<g id="a_edge2_Node000001_Node000003"><a xlink:title=" ">
<path fill="none" stroke="#63b8ff" d="M46.28,-55.59C49.89,-48.63 54.94,-38.89 59.4,-30.29"/>
<polygon fill="#63b8ff" stroke="#63b8ff" points="62.39,-32.13 63.88,-21.64 56.17,-28.91 62.39,-32.13"/>
</a>
</g>
</g>
</g>
</svg>
