<?xml version="1.0" encoding="UTF-8" standalone="no"?>
<!DOCTYPE svg PUBLIC "-//W3C//DTD SVG 1.1//EN"
 "http://www.w3.org/Graphics/SVG/1.1/DTD/svg11.dtd">
<!-- Generated by graphviz version 12.2.1 (20241206.2353)
 -->
<!-- Title: main/FileSystemWatcher.h Pages: 1 -->
<svg width="356pt" height="196pt"
 viewBox="0.00 0.00 355.50 196.00" xmlns="http://www.w3.org/2000/svg" xmlns:xlink="http://www.w3.org/1999/xlink">
<g id="graph0" class="graph" transform="scale(1 1) rotate(0) translate(4 192)">
<title>main/FileSystemWatcher.h</title>
<!-- Node1 -->
<g id="Node000001" class="node">
<title>Node1</title>
<g id="a_Node000001"><a xlink:title="The FileSystemWatcher class.">
<polygon fill="#999999" stroke="#666666" points="133,-188 0,-188 0,-168 133,-168 133,-188"/>
<text text-anchor="middle" x="66.5" y="-174.5" font-family="Helvetica,sans-Serif" font-size="10.00">main/FileSystemWatcher.h</text>
</a>
</g>
</g>
<!-- Node2 -->
<g id="Node000002" class="node">
<title>Node2</title>
<g id="a_Node000002"><a xlink:title=" ">
<polygon fill="#e0e0e0" stroke="#999999" points="49.5,-76 9.5,-76 9.5,-56 49.5,-56 49.5,-76"/>
<text text-anchor="middle" x="29.5" y="-62.5" font-family="Helvetica,sans-Serif" font-size="10.00">string</text>
</a>
</g>
</g>
<!-- Node1&#45;&gt;Node2 -->
<g id="edge1_Node000001_Node000002" class="edge">
<title>Node1&#45;&gt;Node2</title>
<g id="a_edge1_Node000001_Node000002"><a xlink:title=" ">
<path fill="none" stroke="#63b8ff" d="M47.35,-167.52C34.32,-159.9 18.1,-147.86 10.5,-132 3.36,-117.11 9.78,-98.99 17.02,-85.67"/>
<polygon fill="#63b8ff" stroke="#63b8ff" points="19.8,-87.83 21.98,-77.47 13.81,-84.21 19.8,-87.83"/>
</a>
</g>
</g>
<!-- Node3 -->
<g id="Node000003" class="node">
<title>Node3</title>
<g id="a_Node000003"><a xlink:href="FunctionConnector_8h.html" target="_top" xlink:title="The AbstractFunctionConnector, FunctionConnector, FunctionConnectorProtected, FunctionConnectionGuard...">
<polygon fill="white" stroke="#666666" points="268.88,-132 132.12,-132 132.12,-112 268.88,-112 268.88,-132"/>
<text text-anchor="middle" x="200.5" y="-118.5" font-family="Helvetica,sans-Serif" font-size="10.00">../core/FunctionConnector.h</text>
</a>
</g>
</g>
<!-- Node1&#45;&gt;Node3 -->
<g id="edge2_Node000001_Node000003" class="edge">
<title>Node1&#45;&gt;Node3</title>
<g id="a_edge2_Node000001_Node000003"><a xlink:title=" ">
<path fill="none" stroke="#63b8ff" d="M89.84,-167.59C111.04,-159.05 142.57,-146.35 166.55,-136.68"/>
<polygon fill="#63b8ff" stroke="#63b8ff" points="167.61,-140.03 175.57,-133.05 164.99,-133.54 167.61,-140.03"/>
</a>
</g>
</g>
<!-- Node9 -->
<g id="Node000009" class="node">
<title>Node9</title>
<g id="a_Node000009"><a xlink:href="Instance_8h.html" target="_top" xlink:title="The AbstractInstance and Instance classes.">
<polygon fill="white" stroke="#666666" points="113.88,-132 19.12,-132 19.12,-112 113.88,-112 113.88,-132"/>
<text text-anchor="middle" x="66.5" y="-118.5" font-family="Helvetica,sans-Serif" font-size="10.00">../main/Instance.h</text>
</a>
</g>
</g>
<!-- Node1&#45;&gt;Node9 -->
<g id="edge8_Node000001_Node000009" class="edge">
<title>Node1&#45;&gt;Node9</title>
<g id="a_edge8_Node000001_Node000009"><a xlink:title=" ">
<path fill="none" stroke="#63b8ff" d="M66.5,-167.59C66.5,-161.01 66.5,-151.96 66.5,-143.73"/>
<polygon fill="#63b8ff" stroke="#63b8ff" points="70,-143.81 66.5,-133.81 63,-143.81 70,-143.81"/>
</a>
</g>
</g>
<!-- Node4 -->
<g id="Node000004" class="node">
<title>Node4</title>
<g id="a_Node000004"><a xlink:href="AbstractThread_8h.html" target="_top" xlink:title="The AbstractThread class.">
<polygon fill="white" stroke="#666666" points="246,-76 155,-76 155,-56 246,-56 246,-76"/>
<text text-anchor="middle" x="200.5" y="-62.5" font-family="Helvetica,sans-Serif" font-size="10.00">AbstractThread.h</text>
</a>
</g>
</g>
<!-- Node3&#45;&gt;Node4 -->
<g id="edge3_Node000003_Node000004" class="edge">
<title>Node3&#45;&gt;Node4</title>
<g id="a_edge3_Node000003_Node000004"><a xlink:title=" ">
<path fill="none" stroke="#63b8ff" d="M200.5,-111.59C200.5,-105.01 200.5,-95.96 200.5,-87.73"/>
<polygon fill="#63b8ff" stroke="#63b8ff" points="204,-87.81 200.5,-77.81 197,-87.81 204,-87.81"/>
</a>
</g>
</g>
<!-- Node5 -->
<g id="Node000005" class="node">
<title>Node5</title>
<g id="a_Node000005"><a xlink:title=" ">
<polygon fill="#e0e0e0" stroke="#999999" points="131,-20 88,-20 88,0 131,0 131,-20"/>
<text text-anchor="middle" x="109.5" y="-6.5" font-family="Helvetica,sans-Serif" font-size="10.00">thread</text>
</a>
</g>
</g>
<!-- Node4&#45;&gt;Node5 -->
<g id="edge4_Node000004_Node000005" class="edge">
<title>Node4&#45;&gt;Node5</title>
<g id="a_edge4_Node000004_Node000005"><a xlink:title=" ">
<path fill="none" stroke="#63b8ff" d="M184.65,-55.59C171.03,-47.51 151.14,-35.71 135.24,-26.27"/>
<polygon fill="#63b8ff" stroke="#63b8ff" points="137.16,-23.35 126.78,-21.25 133.59,-29.37 137.16,-23.35"/>
</a>
</g>
</g>
<!-- Node6 -->
<g id="Node000006" class="node">
<title>Node6</title>
<g id="a_Node000006"><a xlink:title=" ">
<polygon fill="#e0e0e0" stroke="#999999" points="192,-20 149,-20 149,0 192,0 192,-20"/>
<text text-anchor="middle" x="170.5" y="-6.5" font-family="Helvetica,sans-Serif" font-size="10.00">mutex</text>
</a>
</g>
</g>
<!-- Node4&#45;&gt;Node6 -->
<g id="edge5_Node000004_Node000006" class="edge">
<title>Node4&#45;&gt;Node6</title>
<g id="a_edge5_Node000004_Node000006"><a xlink:title=" ">
<path fill="none" stroke="#63b8ff" d="M195.27,-55.59C191.4,-48.63 185.99,-38.89 181.22,-30.29"/>
<polygon fill="#63b8ff" stroke="#63b8ff" points="184.32,-28.66 176.4,-21.62 178.2,-32.06 184.32,-28.66"/>
</a>
</g>
</g>
<!-- Node7 -->
<g id="Node000007" class="node">
<title>Node7</title>
<g id="a_Node000007"><a xlink:title=" ">
<polygon fill="#e0e0e0" stroke="#999999" points="253,-20 210,-20 210,0 253,0 253,-20"/>
<text text-anchor="middle" x="231.5" y="-6.5" font-family="Helvetica,sans-Serif" font-size="10.00">vector</text>
</a>
</g>
</g>
<!-- Node4&#45;&gt;Node7 -->
<g id="edge6_Node000004_Node000007" class="edge">
<title>Node4&#45;&gt;Node7</title>
<g id="a_edge6_Node000004_Node000007"><a xlink:title=" ">
<path fill="none" stroke="#63b8ff" d="M205.9,-55.59C209.94,-48.55 215.62,-38.67 220.59,-30"/>
<polygon fill="#63b8ff" stroke="#63b8ff" points="223.47,-32.03 225.41,-21.61 217.39,-28.54 223.47,-32.03"/>
</a>
</g>
</g>
<!-- Node8 -->
<g id="Node000008" class="node">
<title>Node8</title>
<g id="a_Node000008"><a xlink:href="invocable_8hpp_source.html" target="_top" xlink:title=" ">
<polygon fill="white" stroke="#666666" points="347.5,-20 271.5,-20 271.5,0 347.5,0 347.5,-20"/>
<text text-anchor="middle" x="309.5" y="-6.5" font-family="Helvetica,sans-Serif" font-size="10.00">invocable.hpp</text>
</a>
</g>
</g>
<!-- Node4&#45;&gt;Node8 -->
<g id="edge7_Node000004_Node000008" class="edge">
<title>Node4&#45;&gt;Node8</title>
<g id="a_edge7_Node000004_Node000008"><a xlink:title=" ">
<path fill="none" stroke="#63b8ff" d="M219.49,-55.59C236.26,-47.28 260.99,-35.03 280.29,-25.47"/>
<polygon fill="#63b8ff" stroke="#63b8ff" points="281.6,-28.73 289.01,-21.15 278.49,-22.45 281.6,-28.73"/>
</a>
</g>
</g>
<!-- Node9&#45;&gt;Node2 -->
<g id="edge9_Node000009_Node000002" class="edge">
<title>Node9&#45;&gt;Node2</title>
<g id="a_edge9_Node000009_Node000002"><a xlink:title=" ">
<path fill="none" stroke="#63b8ff" d="M60.06,-111.59C55.17,-104.47 48.31,-94.45 42.32,-85.72"/>
<polygon fill="#63b8ff" stroke="#63b8ff" points="45.27,-83.82 36.73,-77.55 39.49,-87.77 45.27,-83.82"/>
</a>
</g>
</g>
</g>
</svg>
