<?xml version="1.0" encoding="UTF-8" standalone="no"?>
<!DOCTYPE svg PUBLIC "-//W3C//DTD SVG 1.1//EN"
 "http://www.w3.org/Graphics/SVG/1.1/DTD/svg11.dtd">
<!-- Generated by graphviz version 14.1.3 (20260303.0454)
 -->
<!-- Title: core/FunctionConnector.h Pages: 1 -->
<svg width="1593pt" height="252pt"
 viewBox="0.00 0.00 1593.00 252.00" xmlns="http://www.w3.org/2000/svg" xmlns:xlink="http://www.w3.org/1999/xlink">
<g id="graph0" class="graph" transform="scale(1 1) rotate(0) translate(4 248)">
<title>core/FunctionConnector.h</title>
<!-- Node1 -->
<g id="Node000001" class="node">
<title>Node1</title>
<g id="a_Node000001"><a xlink:title="The AbstractFunctionConnector, FunctionConnector, FunctionConnectorProtected, FunctionConnectionGuard...">
<polygon fill="#999999" stroke="#666666" points="793.12,-244 665.38,-244 665.38,-224 793.12,-224 793.12,-244"/>
<text xml:space="preserve" text-anchor="middle" x="729.25" y="-230.5" font-family="Helvetica,sans-Serif" font-size="10.00">core/FunctionConnector.h</text>
</a>
</g>
</g>
<!-- Node2 -->
<g id="Node000002" class="node">
<title>Node2</title>
<g id="a_Node000002"><a xlink:href="Thread_8h.html" target="_top" xlink:title="The Thread class.">
<polygon fill="white" stroke="#666666" points="233.25,-188 157.25,-188 157.25,-168 233.25,-168 233.25,-188"/>
<text xml:space="preserve" text-anchor="middle" x="195.25" y="-174.5" font-family="Helvetica,sans-Serif" font-size="10.00">core/Thread.h</text>
</a>
</g>
</g>
<!-- Node1&#45;&gt;Node2 -->
<g id="edge1_Node000001_Node000002" class="edge">
<title>Node1&#45;&gt;Node2</title>
<g id="a_edge1_Node000001_Node000002"><a xlink:title=" ">
<path fill="none" stroke="#63b8ff" d="M653.88,-226.89C560.78,-219.09 397.63,-204.6 258.25,-188 250.24,-187.05 241.68,-185.9 233.53,-184.76"/>
<polygon fill="#63b8ff" stroke="#63b8ff" points="653.39,-230.36 663.65,-227.7 653.97,-223.39 653.39,-230.36"/>
</a>
</g>
</g>
<!-- Node6 -->
<g id="Node000006" class="node">
<title>Node6</title>
<g id="a_Node000006"><a xlink:href="AddressResolver_8h.html" target="_top" xlink:title="The AddressResolver class.">
<polygon fill="white" stroke="#666666" points="122.5,-20 0,-20 0,0 122.5,0 122.5,-20"/>
<text xml:space="preserve" text-anchor="middle" x="61.25" y="-6.5" font-family="Helvetica,sans-Serif" font-size="10.00">main/AddressResolver.h</text>
</a>
</g>
</g>
<!-- Node1&#45;&gt;Node6 -->
<g id="edge10_Node000001_Node000006" class="edge">
<title>Node1&#45;&gt;Node6</title>
<g id="a_edge10_Node000001_Node000006"><a xlink:title=" ">
<path fill="none" stroke="#63b8ff" d="M653.9,-230.27C519.1,-224.87 241.99,-211.28 148.25,-188 87.59,-172.93 53.54,-184.26 19.25,-132 -5.15,-94.82 34.21,-41.88 52.6,-20.5"/>
<polygon fill="#63b8ff" stroke="#63b8ff" points="653.67,-233.76 663.8,-230.66 653.95,-226.77 653.67,-233.76"/>
</a>
</g>
</g>
<!-- Node7 -->
<g id="Node000007" class="node">
<title>Node7</title>
<g id="a_Node000007"><a xlink:href="Timer_8h.html" target="_top" xlink:title="The Timer class.">
<polygon fill="white" stroke="#666666" points="252.38,-20 180.12,-20 180.12,0 252.38,0 252.38,-20"/>
<text xml:space="preserve" text-anchor="middle" x="216.25" y="-6.5" font-family="Helvetica,sans-Serif" font-size="10.00">main/Timer.h</text>
</a>
</g>
</g>
<!-- Node1&#45;&gt;Node7 -->
<g id="edge26_Node000001_Node000007" class="edge">
<title>Node1&#45;&gt;Node7</title>
<g id="a_edge26_Node000001_Node000007"><a xlink:title=" ">
<path fill="none" stroke="#63b8ff" d="M653.7,-231.58C555.77,-228.51 391.47,-218.78 340.25,-188 279.18,-151.29 290.55,-114.07 249.25,-56 240.38,-43.53 229.89,-29.31 223.16,-20.25"/>
<polygon fill="#63b8ff" stroke="#63b8ff" points="653.4,-235.07 663.5,-231.87 653.6,-228.08 653.4,-235.07"/>
</a>
</g>
</g>
<!-- Node8 -->
<g id="Node000008" class="node">
<title>Node8</title>
<g id="a_Node000008"><a xlink:href="DataArrayAbstractTcp_8h.html" target="_top" xlink:title="The DataArrayAbstractTcp class.">
<polygon fill="white" stroke="#666666" points="442.38,-76 298.12,-76 298.12,-56 442.38,-56 442.38,-76"/>
<text xml:space="preserve" text-anchor="middle" x="370.25" y="-62.5" font-family="Helvetica,sans-Serif" font-size="10.00">main/DataArrayAbstractTcp.h</text>
</a>
</g>
</g>
<!-- Node1&#45;&gt;Node8 -->
<g id="edge12_Node000001_Node000008" class="edge">
<title>Node1&#45;&gt;Node8</title>
<g id="a_edge12_Node000001_Node000008"><a xlink:title=" ">
<path fill="none" stroke="#63b8ff" d="M653.65,-229.22C549.85,-223.25 373.75,-209.98 354.25,-188 325.7,-155.82 352.49,-98.59 364.81,-76.27"/>
<polygon fill="#63b8ff" stroke="#63b8ff" points="653.32,-232.71 663.5,-229.78 653.71,-225.72 653.32,-232.71"/>
</a>
</g>
</g>
<!-- Node11 -->
<g id="Node000011" class="node">
<title>Node11</title>
<g id="a_Node000011"><a xlink:href="ApplicationNotifier_8h.html" target="_top" xlink:title="The ApplicationNotifier class.">
<polygon fill="white" stroke="#666666" points="503.75,-188 376.75,-188 376.75,-168 503.75,-168 503.75,-188"/>
<text xml:space="preserve" text-anchor="middle" x="440.25" y="-174.5" font-family="Helvetica,sans-Serif" font-size="10.00">main/ApplicationNotifier.h</text>
</a>
</g>
</g>
<!-- Node1&#45;&gt;Node11 -->
<g id="edge11_Node000001_Node000011" class="edge">
<title>Node1&#45;&gt;Node11</title>
<g id="a_edge11_Node000001_Node000011"><a xlink:title=" ">
<path fill="none" stroke="#63b8ff" d="M667.36,-221.44C614.71,-211.6 540.01,-197.64 490.86,-188.46"/>
<polygon fill="#63b8ff" stroke="#63b8ff" points="666.62,-224.86 677.09,-223.25 667.9,-217.98 666.62,-224.86"/>
</a>
</g>
</g>
<!-- Node12 -->
<g id="Node000012" class="node">
<title>Node12</title>
<g id="a_Node000012"><a xlink:href="DataArraySocket_8h.html" target="_top" xlink:title="The DataArraySocket class.">
<polygon fill="white" stroke="#666666" points="644.88,-188 521.62,-188 521.62,-168 644.88,-168 644.88,-188"/>
<text xml:space="preserve" text-anchor="middle" x="583.25" y="-174.5" font-family="Helvetica,sans-Serif" font-size="10.00">main/DataArraySocket.h</text>
</a>
</g>
</g>
<!-- Node1&#45;&gt;Node12 -->
<g id="edge13_Node000001_Node000012" class="edge">
<title>Node1&#45;&gt;Node12</title>
<g id="a_edge13_Node000001_Node000012"><a xlink:title=" ">
<path fill="none" stroke="#63b8ff" d="M693.19,-219.66C667.02,-209.98 632.25,-197.12 608.88,-188.48"/>
<polygon fill="#63b8ff" stroke="#63b8ff" points="691.81,-222.88 702.4,-223.07 694.23,-216.32 691.81,-222.88"/>
</a>
</g>
</g>
<!-- Node13 -->
<g id="Node000013" class="node">
<title>Node13</title>
<g id="a_Node000013"><a xlink:href="FileSystemWatcher_8h.html" target="_top" xlink:title="The FileSystemWatcher class.">
<polygon fill="white" stroke="#666666" points="795.75,-188 662.75,-188 662.75,-168 795.75,-168 795.75,-188"/>
<text xml:space="preserve" text-anchor="middle" x="729.25" y="-174.5" font-family="Helvetica,sans-Serif" font-size="10.00">main/FileSystemWatcher.h</text>
</a>
</g>
</g>
<!-- Node1&#45;&gt;Node13 -->
<g id="edge14_Node000001_Node000013" class="edge">
<title>Node1&#45;&gt;Node13</title>
<g id="a_edge14_Node000001_Node000013"><a xlink:title=" ">
<path fill="none" stroke="#63b8ff" d="M729.25,-212.13C729.25,-203.9 729.25,-194.85 729.25,-188.3"/>
<polygon fill="#63b8ff" stroke="#63b8ff" points="725.75,-212.08 729.25,-222.08 732.75,-212.08 725.75,-212.08"/>
</a>
</g>
</g>
<!-- Node14 -->
<g id="Node000014" class="node">
<title>Node14</title>
<g id="a_Node000014"><a xlink:href="HttpSocket_8h.html" target="_top" xlink:title="The HttpSocket class.">
<polygon fill="white" stroke="#666666" points="911.12,-188 813.38,-188 813.38,-168 911.12,-168 911.12,-188"/>
<text xml:space="preserve" text-anchor="middle" x="862.25" y="-174.5" font-family="Helvetica,sans-Serif" font-size="10.00">main/HttpSocket.h</text>
</a>
</g>
</g>
<!-- Node1&#45;&gt;Node14 -->
<g id="edge15_Node000001_Node000014" class="edge">
<title>Node1&#45;&gt;Node14</title>
<g id="a_edge15_Node000001_Node000014"><a xlink:title=" ">
<path fill="none" stroke="#63b8ff" d="M763.06,-219.27C786.79,-209.64 817.9,-197.01 838.9,-188.48"/>
<polygon fill="#63b8ff" stroke="#63b8ff" points="761.77,-216.02 753.82,-223.02 764.4,-222.51 761.77,-216.02"/>
</a>
</g>
</g>
<!-- Node16 -->
<g id="Node000016" class="node">
<title>Node16</title>
<g id="a_Node000016"><a xlink:href="ListenSocket_8h.html" target="_top" xlink:title="The ListenSocket class.">
<polygon fill="white" stroke="#666666" points="565.88,-76 460.62,-76 460.62,-56 565.88,-56 565.88,-76"/>
<text xml:space="preserve" text-anchor="middle" x="513.25" y="-62.5" font-family="Helvetica,sans-Serif" font-size="10.00">main/ListenSocket.h</text>
</a>
</g>
</g>
<!-- Node1&#45;&gt;Node16 -->
<g id="edge17_Node000001_Node000016" class="edge">
<title>Node1&#45;&gt;Node16</title>
<g id="a_edge17_Node000001_Node000016"><a xlink:title=" ">
<path fill="none" stroke="#63b8ff" d="M653.93,-228.88C553.43,-222.61 385.9,-209.11 367.25,-188 324.97,-140.14 430.61,-95.33 484.27,-76.43"/>
<polygon fill="#63b8ff" stroke="#63b8ff" points="653.53,-232.37 663.72,-229.48 653.96,-225.38 653.53,-232.37"/>
</a>
</g>
</g>
<!-- Node17 -->
<g id="Node000017" class="node">
<title>Node17</title>
<g id="a_Node000017"><a xlink:href="MulticastDns_8h.html" target="_top" xlink:title="The MulticastDns class.">
<polygon fill="white" stroke="#666666" points="1035.25,-188 929.25,-188 929.25,-168 1035.25,-168 1035.25,-188"/>
<text xml:space="preserve" text-anchor="middle" x="982.25" y="-174.5" font-family="Helvetica,sans-Serif" font-size="10.00">main/MulticastDns.h</text>
</a>
</g>
</g>
<!-- Node1&#45;&gt;Node17 -->
<g id="edge19_Node000001_Node000017" class="edge">
<title>Node1&#45;&gt;Node17</title>
<g id="a_edge19_Node000001_Node000017"><a xlink:title=" ">
<path fill="none" stroke="#63b8ff" d="M784.59,-221.19C830.62,-211.36 895.28,-197.56 937.94,-188.46"/>
<polygon fill="#63b8ff" stroke="#63b8ff" points="784.14,-217.71 775.09,-223.22 785.6,-224.55 784.14,-217.71"/>
</a>
</g>
</g>
<!-- Node18 -->
<g id="Node000018" class="node">
<title>Node18</title>
<g id="a_Node000018"><a xlink:href="PollNotifier_8h.html" target="_top" xlink:title="The PollNotifier class.">
<polygon fill="white" stroke="#666666" points="1149,-188 1053.5,-188 1053.5,-168 1149,-168 1149,-188"/>
<text xml:space="preserve" text-anchor="middle" x="1101.25" y="-174.5" font-family="Helvetica,sans-Serif" font-size="10.00">main/PollNotifier.h</text>
</a>
</g>
</g>
<!-- Node1&#45;&gt;Node18 -->
<g id="edge20_Node000001_Node000018" class="edge">
<title>Node1&#45;&gt;Node18</title>
<g id="a_edge20_Node000001_Node000018"><a xlink:title=" ">
<path fill="none" stroke="#63b8ff" d="M804.71,-222.54C868.55,-213.61 962.44,-200.3 1044.25,-188 1047.12,-187.57 1050.08,-187.12 1053.06,-186.66"/>
<polygon fill="#63b8ff" stroke="#63b8ff" points="804.46,-219.04 795.04,-223.89 805.43,-225.97 804.46,-219.04"/>
</a>
</g>
</g>
<!-- Node19 -->
<g id="Node000019" class="node">
<title>Node19</title>
<g id="a_Node000019"><a xlink:href="Rrd_8h.html" target="_top" xlink:title="The Rrd class.">
<polygon fill="white" stroke="#666666" points="1231.25,-188 1167.25,-188 1167.25,-168 1231.25,-168 1231.25,-188"/>
<text xml:space="preserve" text-anchor="middle" x="1199.25" y="-174.5" font-family="Helvetica,sans-Serif" font-size="10.00">main/Rrd.h</text>
</a>
</g>
</g>
<!-- Node1&#45;&gt;Node19 -->
<g id="edge21_Node000001_Node000019" class="edge">
<title>Node1&#45;&gt;Node19</title>
<g id="a_edge21_Node000001_Node000019"><a xlink:title=" ">
<path fill="none" stroke="#63b8ff" d="M804.98,-227.63C890.97,-220.93 1035.27,-207.88 1158.25,-188 1161.13,-187.53 1164.11,-187 1167.09,-186.42"/>
<polygon fill="#63b8ff" stroke="#63b8ff" points="804.72,-224.14 795.01,-228.39 805.25,-231.11 804.72,-224.14"/>
</a>
</g>
</g>
<!-- Node21 -->
<g id="Node000021" class="node">
<title>Node21</title>
<g id="a_Node000021"><a xlink:href="RrdClient_8h.html" target="_top" xlink:title="The RrdClient class.">
<polygon fill="white" stroke="#666666" points="1339,-188 1249.5,-188 1249.5,-168 1339,-168 1339,-188"/>
<text xml:space="preserve" text-anchor="middle" x="1294.25" y="-174.5" font-family="Helvetica,sans-Serif" font-size="10.00">main/RrdClient.h</text>
</a>
</g>
</g>
<!-- Node1&#45;&gt;Node21 -->
<g id="edge23_Node000001_Node000021" class="edge">
<title>Node1&#45;&gt;Node21</title>
<g id="a_edge23_Node000001_Node000021"><a xlink:title=" ">
<path fill="none" stroke="#63b8ff" d="M805.03,-228.16C904.98,-221.37 1086.22,-207.59 1240.25,-188 1243.17,-187.63 1246.18,-187.21 1249.21,-186.77"/>
<polygon fill="#63b8ff" stroke="#63b8ff" points="804.8,-224.67 795.06,-228.84 805.28,-231.66 804.8,-224.67"/>
</a>
</g>
</g>
<!-- Node22 -->
<g id="Node000022" class="node">
<title>Node22</title>
<g id="a_Node000022"><a xlink:href="RrdServer_8h.html" target="_top" xlink:title="The RrdServer class.">
<polygon fill="white" stroke="#666666" points="1449.12,-188 1357.38,-188 1357.38,-168 1449.12,-168 1449.12,-188"/>
<text xml:space="preserve" text-anchor="middle" x="1403.25" y="-174.5" font-family="Helvetica,sans-Serif" font-size="10.00">main/RrdServer.h</text>
</a>
</g>
</g>
<!-- Node1&#45;&gt;Node22 -->
<g id="edge24_Node000001_Node000022" class="edge">
<title>Node1&#45;&gt;Node22</title>
<g id="a_edge24_Node000001_Node000022"><a xlink:title=" ">
<path fill="none" stroke="#63b8ff" d="M804.88,-229.69C921.72,-224.08 1153.04,-211.02 1348.25,-188 1351.13,-187.66 1354.1,-187.28 1357.08,-186.86"/>
<polygon fill="#63b8ff" stroke="#63b8ff" points="804.92,-226.18 795.1,-230.15 805.26,-233.18 804.92,-226.18"/>
</a>
</g>
</g>
<!-- Node23 -->
<g id="Node000023" class="node">
<title>Node23</title>
<g id="a_Node000023"><a xlink:href="SystemProcess_8h.html" target="_top" xlink:title="The SystemProcess class.">
<polygon fill="white" stroke="#666666" points="1585.25,-188 1467.25,-188 1467.25,-168 1585.25,-168 1585.25,-188"/>
<text xml:space="preserve" text-anchor="middle" x="1526.25" y="-174.5" font-family="Helvetica,sans-Serif" font-size="10.00">main/SystemProcess.h</text>
</a>
</g>
</g>
<!-- Node1&#45;&gt;Node23 -->
<g id="edge25_Node000001_Node000023" class="edge">
<title>Node1&#45;&gt;Node23</title>
<g id="a_edge25_Node000001_Node000023"><a xlink:title=" ">
<path fill="none" stroke="#63b8ff" d="M804.42,-230.1C936.79,-224.59 1220.03,-211.09 1458.25,-188 1461.09,-187.72 1464,-187.42 1466.94,-187.1"/>
<polygon fill="#63b8ff" stroke="#63b8ff" points="804.6,-226.59 794.75,-230.49 804.89,-233.58 804.6,-226.59"/>
</a>
</g>
</g>
<!-- Node3 -->
<g id="Node000003" class="node">
<title>Node3</title>
<g id="a_Node000003"><a xlink:href="MainThread_8h.html" target="_top" xlink:title="The MainThread class.">
<polygon fill="white" stroke="#666666" points="127.88,-132 28.62,-132 28.62,-112 127.88,-112 127.88,-132"/>
<text xml:space="preserve" text-anchor="middle" x="78.25" y="-118.5" font-family="Helvetica,sans-Serif" font-size="10.00">main/MainThread.h</text>
</a>
</g>
</g>
<!-- Node2&#45;&gt;Node3 -->
<g id="edge2_Node000002_Node000003" class="edge">
<title>Node2&#45;&gt;Node3</title>
<g id="a_edge2_Node000002_Node000003"><a xlink:title=" ">
<path fill="none" stroke="#63b8ff" d="M164.65,-162.88C143.89,-153.3 117.01,-140.89 98.79,-132.48"/>
<polygon fill="#63b8ff" stroke="#63b8ff" points="162.95,-165.95 173.5,-166.96 165.88,-159.59 162.95,-165.95"/>
</a>
</g>
</g>
<!-- Node4 -->
<g id="Node000004" class="node">
<title>Node4</title>
<g id="a_Node000004"><a xlink:href="ThreadPool_8h.html" target="_top" xlink:title="The AbstractThreadPool and ThreadPool classes.">
<polygon fill="white" stroke="#666666" points="244.12,-132 146.38,-132 146.38,-112 244.12,-112 244.12,-132"/>
<text xml:space="preserve" text-anchor="middle" x="195.25" y="-118.5" font-family="Helvetica,sans-Serif" font-size="10.00">main/ThreadPool.h</text>
</a>
</g>
</g>
<!-- Node2&#45;&gt;Node4 -->
<g id="edge3_Node000002_Node000004" class="edge">
<title>Node2&#45;&gt;Node4</title>
<g id="a_edge3_Node000002_Node000004"><a xlink:title=" ">
<path fill="none" stroke="#63b8ff" d="M195.25,-156.13C195.25,-147.9 195.25,-138.85 195.25,-132.3"/>
<polygon fill="#63b8ff" stroke="#63b8ff" points="191.75,-156.08 195.25,-166.08 198.75,-156.08 191.75,-156.08"/>
</a>
</g>
</g>
<!-- Node5 -->
<g id="Node000005" class="node">
<title>Node5</title>
<g id="a_Node000005"><a xlink:href="Coroutine_8h.html" target="_top" xlink:title="The CoroutineTask, CoroutineAwait, CoroutineInvokeAwait structs.">
<polygon fill="white" stroke="#666666" points="240.38,-76 150.12,-76 150.12,-56 240.38,-56 240.38,-76"/>
<text xml:space="preserve" text-anchor="middle" x="195.25" y="-62.5" font-family="Helvetica,sans-Serif" font-size="10.00">main/Coroutine.h</text>
</a>
</g>
</g>
<!-- Node4&#45;&gt;Node5 -->
<g id="edge4_Node000004_Node000005" class="edge">
<title>Node4&#45;&gt;Node5</title>
<g id="a_edge4_Node000004_Node000005"><a xlink:title=" ">
<path fill="none" stroke="#63b8ff" d="M195.25,-100.13C195.25,-91.9 195.25,-82.85 195.25,-76.3"/>
<polygon fill="#63b8ff" stroke="#63b8ff" points="191.75,-100.08 195.25,-110.08 198.75,-100.08 191.75,-100.08"/>
</a>
</g>
</g>
<!-- Node4&#45;&gt;Node8 -->
<g id="edge7_Node000004_Node000008" class="edge">
<title>Node4&#45;&gt;Node8</title>
<g id="a_edge7_Node000004_Node000008"><a xlink:title=" ">
<path fill="none" stroke="#63b8ff" d="M236.39,-108.31C267.98,-98.56 310.89,-85.32 339.53,-76.48"/>
<polygon fill="#63b8ff" stroke="#63b8ff" points="235.7,-104.85 227.18,-111.15 237.77,-111.54 235.7,-104.85"/>
</a>
</g>
</g>
<!-- Node5&#45;&gt;Node6 -->
<g id="edge5_Node000005_Node000006" class="edge">
<title>Node5&#45;&gt;Node6</title>
<g id="a_edge5_Node000005_Node000006"><a xlink:title=" ">
<path fill="none" stroke="#63b8ff" d="M161.51,-51.4C137.56,-41.75 106.03,-29.05 84.77,-20.48"/>
<polygon fill="#63b8ff" stroke="#63b8ff" points="159.92,-54.54 170.51,-55.03 162.54,-48.04 159.92,-54.54"/>
</a>
</g>
</g>
<!-- Node5&#45;&gt;Node7 -->
<g id="edge6_Node000005_Node000007" class="edge">
<title>Node5&#45;&gt;Node7</title>
<g id="a_edge6_Node000005_Node000007"><a xlink:title=" ">
<path fill="none" stroke="#63b8ff" d="M203.03,-45C206.32,-36.54 210,-27.08 212.63,-20.3"/>
<polygon fill="#63b8ff" stroke="#63b8ff" points="199.82,-43.59 199.46,-54.18 206.34,-46.13 199.82,-43.59"/>
</a>
</g>
</g>
<!-- Node9 -->
<g id="Node000009" class="node">
<title>Node9</title>
<g id="a_Node000009"><a xlink:href="DataArrayTcpClient_8h.html" target="_top" xlink:title="The DataArrayTcpClient class.">
<polygon fill="white" stroke="#666666" points="427.75,-20 294.75,-20 294.75,0 427.75,0 427.75,-20"/>
<text xml:space="preserve" text-anchor="middle" x="361.25" y="-6.5" font-family="Helvetica,sans-Serif" font-size="10.00">main/DataArrayTcpClient.h</text>
</a>
</g>
</g>
<!-- Node8&#45;&gt;Node9 -->
<g id="edge8_Node000008_Node000009" class="edge">
<title>Node8&#45;&gt;Node9</title>
<g id="a_edge8_Node000008_Node000009"><a xlink:title=" ">
<path fill="none" stroke="#63b8ff" d="M366.82,-44.43C365.43,-36.11 363.91,-26.93 362.8,-20.3"/>
<polygon fill="#63b8ff" stroke="#63b8ff" points="363.34,-44.81 368.43,-54.1 370.24,-43.66 363.34,-44.81"/>
</a>
</g>
</g>
<!-- Node10 -->
<g id="Node000010" class="node">
<title>Node10</title>
<g id="a_Node000010"><a xlink:href="DataArrayTcpServer_8h.html" target="_top" xlink:title="The DataArrayTcpServer class.">
<polygon fill="white" stroke="#666666" points="580.88,-20 445.62,-20 445.62,0 580.88,0 580.88,-20"/>
<text xml:space="preserve" text-anchor="middle" x="513.25" y="-6.5" font-family="Helvetica,sans-Serif" font-size="10.00">main/DataArrayTcpServer.h</text>
</a>
</g>
</g>
<!-- Node8&#45;&gt;Node10 -->
<g id="edge9_Node000008_Node000010" class="edge">
<title>Node8&#45;&gt;Node10</title>
<g id="a_edge9_Node000008_Node000010"><a xlink:title=" ">
<path fill="none" stroke="#63b8ff" d="M405.91,-51.53C431.51,-41.87 465.36,-29.08 488.15,-20.48"/>
<polygon fill="#63b8ff" stroke="#63b8ff" points="404.69,-48.25 396.57,-55.06 407.17,-54.8 404.69,-48.25"/>
</a>
</g>
</g>
<!-- Node15 -->
<g id="Node000015" class="node">
<title>Node15</title>
<g id="a_Node000015"><a xlink:href="HttpServer_8h.html" target="_top" xlink:title="The HttpServer class.">
<polygon fill="white" stroke="#666666" points="909.62,-132 814.88,-132 814.88,-112 909.62,-112 909.62,-132"/>
<text xml:space="preserve" text-anchor="middle" x="862.25" y="-118.5" font-family="Helvetica,sans-Serif" font-size="10.00">main/HttpServer.h</text>
</a>
</g>
</g>
<!-- Node14&#45;&gt;Node15 -->
<g id="edge16_Node000014_Node000015" class="edge">
<title>Node14&#45;&gt;Node15</title>
<g id="a_edge16_Node000014_Node000015"><a xlink:title=" ">
<path fill="none" stroke="#63b8ff" d="M862.25,-156.13C862.25,-147.9 862.25,-138.85 862.25,-132.3"/>
<polygon fill="#63b8ff" stroke="#63b8ff" points="858.75,-156.08 862.25,-166.08 865.75,-156.08 858.75,-156.08"/>
</a>
</g>
</g>
<!-- Node16&#45;&gt;Node10 -->
<g id="edge18_Node000016_Node000010" class="edge">
<title>Node16&#45;&gt;Node10</title>
<g id="a_edge18_Node000016_Node000010"><a xlink:title=" ">
<path fill="none" stroke="#63b8ff" d="M513.25,-44.13C513.25,-35.9 513.25,-26.85 513.25,-20.3"/>
<polygon fill="#63b8ff" stroke="#63b8ff" points="509.75,-44.08 513.25,-54.08 516.75,-44.08 509.75,-44.08"/>
</a>
</g>
</g>
<!-- Node20 -->
<g id="Node000020" class="node">
<title>Node20</title>
<g id="a_Node000020"><a xlink:href="Log_8h.html" target="_top" xlink:title="The AbstractLog and Log classes.">
<polygon fill="white" stroke="#666666" points="1231.25,-132 1167.25,-132 1167.25,-112 1231.25,-112 1231.25,-132"/>
<text xml:space="preserve" text-anchor="middle" x="1199.25" y="-118.5" font-family="Helvetica,sans-Serif" font-size="10.00">main/Log.h</text>
</a>
</g>
</g>
<!-- Node19&#45;&gt;Node20 -->
<g id="edge22_Node000019_Node000020" class="edge">
<title>Node19&#45;&gt;Node20</title>
<g id="a_edge22_Node000019_Node000020"><a xlink:title=" ">
<path fill="none" stroke="#63b8ff" d="M1199.25,-156.13C1199.25,-147.9 1199.25,-138.85 1199.25,-132.3"/>
<polygon fill="#63b8ff" stroke="#63b8ff" points="1195.75,-156.08 1199.25,-166.08 1202.75,-156.08 1195.75,-156.08"/>
</a>
</g>
</g>
</g>
</svg>
