<?xml version="1.0" encoding="UTF-8" standalone="no"?>
<!DOCTYPE svg PUBLIC "-//W3C//DTD SVG 1.1//EN"
 "http://www.w3.org/Graphics/SVG/1.1/DTD/svg11.dtd">
<!-- Generated by graphviz version 12.2.1 (20241206.2353)
 -->
<!-- Title: main/HttpServer.h Pages: 1 -->
<svg width="686pt" height="308pt"
 viewBox="0.00 0.00 685.88 308.00" xmlns="http://www.w3.org/2000/svg" xmlns:xlink="http://www.w3.org/1999/xlink">
<g id="graph0" class="graph" transform="scale(1 1) rotate(0) translate(4 304)">
<title>main/HttpServer.h</title>
<!-- Node1 -->
<g id="Node000001" class="node">
<title>Node1</title>
<g id="a_Node000001"><a xlink:title="The HttpServer class.">
<polygon fill="#999999" stroke="#666666" points="179.75,-300 85,-300 85,-280 179.75,-280 179.75,-300"/>
<text text-anchor="middle" x="132.38" y="-286.5" font-family="Helvetica,sans-Serif" font-size="10.00">main/HttpServer.h</text>
</a>
</g>
</g>
<!-- Node2 -->
<g id="Node000002" class="node">
<title>Node2</title>
<g id="a_Node000002"><a xlink:title=" ">
<polygon fill="#e0e0e0" stroke="#999999" points="34.75,-244 0,-244 0,-224 34.75,-224 34.75,-244"/>
<text text-anchor="middle" x="17.38" y="-230.5" font-family="Helvetica,sans-Serif" font-size="10.00">map</text>
</a>
</g>
</g>
<!-- Node1&#45;&gt;Node2 -->
<g id="edge1_Node000001_Node000002" class="edge">
<title>Node1&#45;&gt;Node2</title>
<g id="a_edge1_Node000001_Node000002"><a xlink:title=" ">
<path fill="none" stroke="#63b8ff" d="M112.34,-279.59C93.8,-270.89 66.04,-257.85 45.32,-248.12"/>
<polygon fill="#63b8ff" stroke="#63b8ff" points="46.83,-244.96 36.29,-243.88 43.85,-251.3 46.83,-244.96"/>
</a>
</g>
</g>
<!-- Node3 -->
<g id="Node000003" class="node">
<title>Node3</title>
<g id="a_Node000003"><a xlink:title=" ">
<polygon fill="#e0e0e0" stroke="#999999" points="104,-244 52.75,-244 52.75,-224 104,-224 104,-244"/>
<text text-anchor="middle" x="78.38" y="-230.5" font-family="Helvetica,sans-Serif" font-size="10.00">memory</text>
</a>
</g>
</g>
<!-- Node1&#45;&gt;Node3 -->
<g id="edge2_Node000001_Node000003" class="edge">
<title>Node1&#45;&gt;Node3</title>
<g id="a_edge2_Node000001_Node000003"><a xlink:title=" ">
<path fill="none" stroke="#63b8ff" d="M122.97,-279.59C115.46,-272.08 104.73,-261.35 95.68,-252.3"/>
<polygon fill="#63b8ff" stroke="#63b8ff" points="98.29,-249.96 88.74,-245.37 93.34,-254.91 98.29,-249.96"/>
</a>
</g>
</g>
<!-- Node4 -->
<g id="Node000004" class="node">
<title>Node4</title>
<g id="a_Node000004"><a xlink:href="TlsContext_8h.html" target="_top" xlink:title="The TlsContext class.">
<polygon fill="white" stroke="#666666" points="282.88,-132 179.88,-132 179.88,-112 282.88,-112 282.88,-132"/>
<text text-anchor="middle" x="231.38" y="-118.5" font-family="Helvetica,sans-Serif" font-size="10.00">../core/TlsContext.h</text>
</a>
</g>
</g>
<!-- Node1&#45;&gt;Node4 -->
<g id="edge3_Node000001_Node000004" class="edge">
<title>Node1&#45;&gt;Node4</title>
<g id="a_edge3_Node000001_Node000004"><a xlink:title=" ">
<path fill="none" stroke="#63b8ff" d="M135.62,-279.68C143.19,-258.67 163.32,-206.45 189.38,-168 196.16,-158 205.14,-148.05 213.06,-140.06"/>
<polygon fill="#63b8ff" stroke="#63b8ff" points="215.27,-142.79 220,-133.31 210.39,-137.77 215.27,-142.79"/>
</a>
</g>
</g>
<!-- Node8 -->
<g id="Node000008" class="node">
<title>Node8</title>
<g id="a_Node000008"><a xlink:href="HttpSocket_8h.html" target="_top" xlink:title="The HttpSocket class.">
<polygon fill="white" stroke="#666666" points="409.25,-244 335.5,-244 335.5,-224 409.25,-224 409.25,-244"/>
<text text-anchor="middle" x="372.38" y="-230.5" font-family="Helvetica,sans-Serif" font-size="10.00">HttpSocket.h</text>
</a>
</g>
</g>
<!-- Node1&#45;&gt;Node8 -->
<g id="edge7_Node000001_Node000008" class="edge">
<title>Node1&#45;&gt;Node8</title>
<g id="a_edge7_Node000001_Node000008"><a xlink:title=" ">
<path fill="none" stroke="#63b8ff" d="M174.45,-279.53C216.25,-270.13 280.28,-255.72 324.12,-245.86"/>
<polygon fill="#63b8ff" stroke="#63b8ff" points="324.62,-249.33 333.6,-243.72 323.08,-242.5 324.62,-249.33"/>
</a>
</g>
</g>
<!-- Node22 -->
<g id="Node000022" class="node">
<title>Node22</title>
<g id="a_Node000022"><a xlink:href="Instance_8h.html" target="_top" xlink:title="The AbstractInstance and Instance classes.">
<polygon fill="white" stroke="#666666" points="108.25,-188 46.5,-188 46.5,-168 108.25,-168 108.25,-188"/>
<text text-anchor="middle" x="77.38" y="-174.5" font-family="Helvetica,sans-Serif" font-size="10.00">Instance.h</text>
</a>
</g>
</g>
<!-- Node1&#45;&gt;Node22 -->
<g id="edge27_Node000001_Node000022" class="edge">
<title>Node1&#45;&gt;Node22</title>
<g id="a_edge27_Node000001_Node000022"><a xlink:title=" ">
<path fill="none" stroke="#63b8ff" d="M130.85,-279.75C128.44,-266.74 123.03,-242.57 113.38,-224 108.27,-214.18 100.84,-204.43 94.07,-196.54"/>
<polygon fill="#63b8ff" stroke="#63b8ff" points="96.89,-194.44 87.59,-189.35 91.68,-199.13 96.89,-194.44"/>
</a>
</g>
</g>
<!-- Node5 -->
<g id="Node000005" class="node">
<title>Node5</title>
<g id="a_Node000005"><a xlink:title=" ">
<polygon fill="#e0e0e0" stroke="#999999" points="197.38,-76 157.38,-76 157.38,-56 197.38,-56 197.38,-76"/>
<text text-anchor="middle" x="177.38" y="-62.5" font-family="Helvetica,sans-Serif" font-size="10.00">string</text>
</a>
</g>
</g>
<!-- Node4&#45;&gt;Node5 -->
<g id="edge4_Node000004_Node000005" class="edge">
<title>Node4&#45;&gt;Node5</title>
<g id="a_edge4_Node000004_Node000005"><a xlink:title=" ">
<path fill="none" stroke="#63b8ff" d="M221.97,-111.59C214.46,-104.08 203.73,-93.35 194.68,-84.3"/>
<polygon fill="#63b8ff" stroke="#63b8ff" points="197.29,-81.96 187.74,-77.37 192.34,-86.91 197.29,-81.96"/>
</a>
</g>
</g>
<!-- Node6 -->
<g id="Node000006" class="node">
<title>Node6</title>
<g id="a_Node000006"><a xlink:title=" ">
<polygon fill="#e0e0e0" stroke="#999999" points="460.88,-76 417.88,-76 417.88,-56 460.88,-56 460.88,-76"/>
<text text-anchor="middle" x="439.38" y="-62.5" font-family="Helvetica,sans-Serif" font-size="10.00">vector</text>
</a>
</g>
</g>
<!-- Node4&#45;&gt;Node6 -->
<g id="edge5_Node000004_Node000006" class="edge">
<title>Node4&#45;&gt;Node6</title>
<g id="a_edge5_Node000004_Node000006"><a xlink:title=" ">
<path fill="none" stroke="#63b8ff" d="M267.61,-111.59C306.84,-101.41 368.88,-85.3 406.68,-75.49"/>
<polygon fill="#63b8ff" stroke="#63b8ff" points="407.32,-78.94 416.12,-73.04 405.56,-72.16 407.32,-78.94"/>
</a>
</g>
</g>
<!-- Node7 -->
<g id="Node000007" class="node">
<title>Node7</title>
<g id="a_Node000007"><a xlink:title=" ">
<polygon fill="#e0e0e0" stroke="#999999" points="261,-76 215.75,-76 215.75,-56 261,-56 261,-76"/>
<text text-anchor="middle" x="238.38" y="-62.5" font-family="Helvetica,sans-Serif" font-size="10.00">cstdint</text>
</a>
</g>
</g>
<!-- Node4&#45;&gt;Node7 -->
<g id="edge6_Node000004_Node000007" class="edge">
<title>Node4&#45;&gt;Node7</title>
<g id="a_edge6_Node000004_Node000007"><a xlink:title=" ">
<path fill="none" stroke="#63b8ff" d="M232.59,-111.59C233.46,-104.93 234.65,-95.75 235.73,-87.44"/>
<polygon fill="#63b8ff" stroke="#63b8ff" points="239.16,-88.17 236.98,-77.8 232.22,-87.27 239.16,-88.17"/>
</a>
</g>
</g>
<!-- Node9 -->
<g id="Node000009" class="node">
<title>Node9</title>
<g id="a_Node000009"><a xlink:href="FunctionConnector_8h.html" target="_top" xlink:title="The AbstractFunctionConnector, FunctionConnector, FunctionConnectorProtected, FunctionConnectionGuard...">
<polygon fill="white" stroke="#666666" points="616.75,-188 480,-188 480,-168 616.75,-168 616.75,-188"/>
<text text-anchor="middle" x="548.38" y="-174.5" font-family="Helvetica,sans-Serif" font-size="10.00">../core/FunctionConnector.h</text>
</a>
</g>
</g>
<!-- Node8&#45;&gt;Node9 -->
<g id="edge8_Node000008_Node000009" class="edge">
<title>Node8&#45;&gt;Node9</title>
<g id="a_edge8_Node000008_Node000009"><a xlink:title=" ">
<path fill="none" stroke="#63b8ff" d="M403.03,-223.59C431.75,-214.78 474.91,-201.54 506.74,-191.78"/>
<polygon fill="#63b8ff" stroke="#63b8ff" points="507.5,-195.2 516.03,-188.92 505.45,-188.51 507.5,-195.2"/>
</a>
</g>
</g>
<!-- Node14 -->
<g id="Node000014" class="node">
<title>Node14</title>
<g id="a_Node000014"><a xlink:href="DataArray_8h.html" target="_top" xlink:title="The DataArray, DataArrayView, DataArrayList and DataStream classes.">
<polygon fill="white" stroke="#666666" points="502.25,-132 404.5,-132 404.5,-112 502.25,-112 502.25,-132"/>
<text text-anchor="middle" x="453.38" y="-118.5" font-family="Helvetica,sans-Serif" font-size="10.00">../core/DataArray.h</text>
</a>
</g>
</g>
<!-- Node8&#45;&gt;Node14 -->
<g id="edge14_Node000008_Node000014" class="edge">
<title>Node8&#45;&gt;Node14</title>
<g id="a_edge14_Node000008_Node000014"><a xlink:title=" ">
<path fill="none" stroke="#63b8ff" d="M379.28,-223.62C392.67,-205.44 422.38,-165.09 439.84,-141.38"/>
<polygon fill="#63b8ff" stroke="#63b8ff" points="442.48,-143.7 445.59,-133.57 436.84,-139.55 442.48,-143.7"/>
</a>
</g>
</g>
<!-- Node15 -->
<g id="Node000015" class="node">
<title>Node15</title>
<g id="a_Node000015"><a xlink:href="AbstractTlsSocket_8h.html" target="_top" xlink:title="The AbstractTlsSocket class.">
<polygon fill="white" stroke="#666666" points="334.38,-188 198.38,-188 198.38,-168 334.38,-168 334.38,-188"/>
<text text-anchor="middle" x="266.38" y="-174.5" font-family="Helvetica,sans-Serif" font-size="10.00">../core/AbstractTlsSocket.h</text>
</a>
</g>
</g>
<!-- Node8&#45;&gt;Node15 -->
<g id="edge18_Node000008_Node000015" class="edge">
<title>Node8&#45;&gt;Node15</title>
<g id="a_edge18_Node000008_Node000015"><a xlink:title=" ">
<path fill="none" stroke="#63b8ff" d="M353.91,-223.59C337.67,-215.32 313.77,-203.14 295.04,-193.6"/>
<polygon fill="#63b8ff" stroke="#63b8ff" points="296.83,-190.59 286.33,-189.17 293.65,-196.82 296.83,-190.59"/>
</a>
</g>
</g>
<!-- Node19 -->
<g id="Node000019" class="node">
<title>Node19</title>
<g id="a_Node000019"><a xlink:href="File_8h.html" target="_top" xlink:title="Definition of the File class for file system operations.">
<polygon fill="white" stroke="#666666" points="392.38,-188 352.38,-188 352.38,-168 392.38,-168 392.38,-188"/>
<text text-anchor="middle" x="372.38" y="-174.5" font-family="Helvetica,sans-Serif" font-size="10.00">File.h</text>
</a>
</g>
</g>
<!-- Node8&#45;&gt;Node19 -->
<g id="edge24_Node000008_Node000019" class="edge">
<title>Node8&#45;&gt;Node19</title>
<g id="a_edge24_Node000008_Node000019"><a xlink:title=" ">
<path fill="none" stroke="#63b8ff" d="M372.38,-223.59C372.38,-217.01 372.38,-207.96 372.38,-199.73"/>
<polygon fill="#63b8ff" stroke="#63b8ff" points="375.88,-199.81 372.38,-189.81 368.88,-199.81 375.88,-199.81"/>
</a>
</g>
</g>
<!-- Node10 -->
<g id="Node000010" class="node">
<title>Node10</title>
<g id="a_Node000010"><a xlink:href="AbstractThread_8h.html" target="_top" xlink:title="The AbstractThread class.">
<polygon fill="white" stroke="#666666" points="610.88,-132 519.88,-132 519.88,-112 610.88,-112 610.88,-132"/>
<text text-anchor="middle" x="565.38" y="-118.5" font-family="Helvetica,sans-Serif" font-size="10.00">AbstractThread.h</text>
</a>
</g>
</g>
<!-- Node9&#45;&gt;Node10 -->
<g id="edge9_Node000009_Node000010" class="edge">
<title>Node9&#45;&gt;Node10</title>
<g id="a_edge9_Node000009_Node000010"><a xlink:title=" ">
<path fill="none" stroke="#63b8ff" d="M551.34,-167.59C553.46,-160.86 556.39,-151.53 559.03,-143.15"/>
<polygon fill="#63b8ff" stroke="#63b8ff" points="562.33,-144.33 561.99,-133.74 555.65,-142.23 562.33,-144.33"/>
</a>
</g>
</g>
<!-- Node10&#45;&gt;Node6 -->
<g id="edge12_Node000010_Node000006" class="edge">
<title>Node10&#45;&gt;Node6</title>
<g id="a_edge12_Node000010_Node000006"><a xlink:title=" ">
<path fill="none" stroke="#63b8ff" d="M543.43,-111.59C523.55,-103.08 494.02,-90.42 471.5,-80.77"/>
<polygon fill="#63b8ff" stroke="#63b8ff" points="473.03,-77.62 462.46,-76.89 470.27,-84.05 473.03,-77.62"/>
</a>
</g>
</g>
<!-- Node11 -->
<g id="Node000011" class="node">
<title>Node11</title>
<g id="a_Node000011"><a xlink:title=" ">
<polygon fill="#e0e0e0" stroke="#999999" points="677.88,-76 634.88,-76 634.88,-56 677.88,-56 677.88,-76"/>
<text text-anchor="middle" x="656.38" y="-62.5" font-family="Helvetica,sans-Serif" font-size="10.00">thread</text>
</a>
</g>
</g>
<!-- Node10&#45;&gt;Node11 -->
<g id="edge10_Node000010_Node000011" class="edge">
<title>Node10&#45;&gt;Node11</title>
<g id="a_edge10_Node000010_Node000011"><a xlink:title=" ">
<path fill="none" stroke="#63b8ff" d="M581.23,-111.59C594.84,-103.51 614.74,-91.71 630.64,-82.27"/>
<polygon fill="#63b8ff" stroke="#63b8ff" points="632.28,-85.37 639.1,-77.25 628.71,-79.35 632.28,-85.37"/>
</a>
</g>
</g>
<!-- Node12 -->
<g id="Node000012" class="node">
<title>Node12</title>
<g id="a_Node000012"><a xlink:title=" ">
<polygon fill="#e0e0e0" stroke="#999999" points="521.88,-76 478.88,-76 478.88,-56 521.88,-56 521.88,-76"/>
<text text-anchor="middle" x="500.38" y="-62.5" font-family="Helvetica,sans-Serif" font-size="10.00">mutex</text>
</a>
</g>
</g>
<!-- Node10&#45;&gt;Node12 -->
<g id="edge11_Node000010_Node000012" class="edge">
<title>Node10&#45;&gt;Node12</title>
<g id="a_edge11_Node000010_Node000012"><a xlink:title=" ">
<path fill="none" stroke="#63b8ff" d="M554.05,-111.59C544.73,-103.85 531.3,-92.69 520.2,-83.47"/>
<polygon fill="#63b8ff" stroke="#63b8ff" points="522.66,-80.96 512.73,-77.27 518.19,-86.35 522.66,-80.96"/>
</a>
</g>
</g>
<!-- Node13 -->
<g id="Node000013" class="node">
<title>Node13</title>
<g id="a_Node000013"><a xlink:href="invocable_8hpp_source.html" target="_top" xlink:title=" ">
<polygon fill="white" stroke="#666666" points="616.38,-76 540.38,-76 540.38,-56 616.38,-56 616.38,-76"/>
<text text-anchor="middle" x="578.38" y="-62.5" font-family="Helvetica,sans-Serif" font-size="10.00">invocable.hpp</text>
</a>
</g>
</g>
<!-- Node10&#45;&gt;Node13 -->
<g id="edge13_Node000010_Node000013" class="edge">
<title>Node10&#45;&gt;Node13</title>
<g id="a_edge13_Node000010_Node000013"><a xlink:title=" ">
<path fill="none" stroke="#63b8ff" d="M567.64,-111.59C569.24,-104.93 571.45,-95.75 573.45,-87.44"/>
<polygon fill="#63b8ff" stroke="#63b8ff" points="576.84,-88.31 575.78,-77.77 570.04,-86.67 576.84,-88.31"/>
</a>
</g>
</g>
<!-- Node14&#45;&gt;Node5 -->
<g id="edge17_Node000014_Node000005" class="edge">
<title>Node14&#45;&gt;Node5</title>
<g id="a_edge17_Node000014_Node000005"><a xlink:title=" ">
<path fill="none" stroke="#63b8ff" d="M404.13,-112.75C347.73,-103.19 257.7,-87.54 208.56,-76.24"/>
<polygon fill="#63b8ff" stroke="#63b8ff" points="209.58,-72.88 199.04,-73.96 207.95,-79.69 209.58,-72.88"/>
</a>
</g>
</g>
<!-- Node14&#45;&gt;Node6 -->
<g id="edge15_Node000014_Node000006" class="edge">
<title>Node14&#45;&gt;Node6</title>
<g id="a_edge15_Node000014_Node000006"><a xlink:title=" ">
<path fill="none" stroke="#63b8ff" d="M450.94,-111.59C449.21,-104.93 446.83,-95.75 444.67,-87.44"/>
<polygon fill="#63b8ff" stroke="#63b8ff" points="448.06,-86.56 442.17,-77.76 441.29,-88.32 448.06,-86.56"/>
</a>
</g>
</g>
<!-- Node14&#45;&gt;Node7 -->
<g id="edge16_Node000014_Node000007" class="edge">
<title>Node14&#45;&gt;Node7</title>
<g id="a_edge16_Node000014_Node000007"><a xlink:title=" ">
<path fill="none" stroke="#63b8ff" d="M415.92,-111.59C375.5,-101.44 311.66,-85.41 272.55,-75.58"/>
<polygon fill="#63b8ff" stroke="#63b8ff" points="273.52,-72.22 262.97,-73.18 271.81,-79.01 273.52,-72.22"/>
</a>
</g>
</g>
<!-- Node16 -->
<g id="Node000016" class="node">
<title>Node16</title>
<g id="a_Node000016"><a xlink:href="AbstractSocket_8h.html" target="_top" xlink:title="The AbstractSocket class.">
<polygon fill="white" stroke="#666666" points="162.25,-132 70.5,-132 70.5,-112 162.25,-112 162.25,-132"/>
<text text-anchor="middle" x="116.38" y="-118.5" font-family="Helvetica,sans-Serif" font-size="10.00">AbstractSocket.h</text>
</a>
</g>
</g>
<!-- Node15&#45;&gt;Node16 -->
<g id="edge19_Node000015_Node000016" class="edge">
<title>Node15&#45;&gt;Node16</title>
<g id="a_edge19_Node000015_Node000016"><a xlink:title=" ">
<path fill="none" stroke="#63b8ff" d="M240.25,-167.59C216.2,-158.94 180.27,-146 153.29,-136.29"/>
<polygon fill="#63b8ff" stroke="#63b8ff" points="154.73,-133.09 144.13,-132.99 152.35,-139.67 154.73,-133.09"/>
</a>
</g>
</g>
<!-- Node16&#45;&gt;Node5 -->
<g id="edge21_Node000016_Node000005" class="edge">
<title>Node16&#45;&gt;Node5</title>
<g id="a_edge21_Node000016_Node000005"><a xlink:title=" ">
<path fill="none" stroke="#63b8ff" d="M127,-111.59C135.66,-103.93 148.11,-92.91 158.46,-83.75"/>
<polygon fill="#63b8ff" stroke="#63b8ff" points="160.57,-86.55 165.74,-77.3 155.93,-81.31 160.57,-86.55"/>
</a>
</g>
</g>
<!-- Node16&#45;&gt;Node7 -->
<g id="edge20_Node000016_Node000007" class="edge">
<title>Node16&#45;&gt;Node7</title>
<g id="a_edge20_Node000016_Node000007"><a xlink:title=" ">
<path fill="none" stroke="#63b8ff" d="M137.63,-111.59C156.66,-103.17 184.85,-90.69 206.58,-81.07"/>
<polygon fill="#63b8ff" stroke="#63b8ff" points="207.85,-84.34 215.57,-77.09 205.01,-77.94 207.85,-84.34"/>
</a>
</g>
</g>
<!-- Node17 -->
<g id="Node000017" class="node">
<title>Node17</title>
<g id="a_Node000017"><a xlink:href="AnyData_8h.html" target="_top" xlink:title="The AnyData class.">
<polygon fill="white" stroke="#666666" points="139.62,-76 77.12,-76 77.12,-56 139.62,-56 139.62,-76"/>
<text text-anchor="middle" x="108.38" y="-62.5" font-family="Helvetica,sans-Serif" font-size="10.00">AnyData.h</text>
</a>
</g>
</g>
<!-- Node16&#45;&gt;Node17 -->
<g id="edge22_Node000016_Node000017" class="edge">
<title>Node16&#45;&gt;Node17</title>
<g id="a_edge22_Node000016_Node000017"><a xlink:title=" ">
<path fill="none" stroke="#63b8ff" d="M114.98,-111.59C113.99,-104.93 112.63,-95.75 111.4,-87.44"/>
<polygon fill="#63b8ff" stroke="#63b8ff" points="114.9,-87.17 109.97,-77.8 107.98,-88.2 114.9,-87.17"/>
</a>
</g>
</g>
<!-- Node18 -->
<g id="Node000018" class="node">
<title>Node18</title>
<g id="a_Node000018"><a xlink:title=" ">
<polygon fill="#e0e0e0" stroke="#999999" points="124.25,-20 92.5,-20 92.5,0 124.25,0 124.25,-20"/>
<text text-anchor="middle" x="108.38" y="-6.5" font-family="Helvetica,sans-Serif" font-size="10.00">any</text>
</a>
</g>
</g>
<!-- Node17&#45;&gt;Node18 -->
<g id="edge23_Node000017_Node000018" class="edge">
<title>Node17&#45;&gt;Node18</title>
<g id="a_edge23_Node000017_Node000018"><a xlink:title=" ">
<path fill="none" stroke="#63b8ff" d="M108.38,-55.59C108.38,-49.01 108.38,-39.96 108.38,-31.73"/>
<polygon fill="#63b8ff" stroke="#63b8ff" points="111.88,-31.81 108.38,-21.81 104.88,-31.81 111.88,-31.81"/>
</a>
</g>
</g>
<!-- Node20 -->
<g id="Node000020" class="node">
<title>Node20</title>
<g id="a_Node000020"><a xlink:title=" ">
<polygon fill="#e0e0e0" stroke="#999999" points="386.77,-132 357.98,-132 357.98,-112 386.77,-112 386.77,-132"/>
<text text-anchor="middle" x="372.38" y="-118.5" font-family="Helvetica,sans-Serif" font-size="10.00">ios</text>
</a>
</g>
</g>
<!-- Node19&#45;&gt;Node20 -->
<g id="edge25_Node000019_Node000020" class="edge">
<title>Node19&#45;&gt;Node20</title>
<g id="a_edge25_Node000019_Node000020"><a xlink:title=" ">
<path fill="none" stroke="#63b8ff" d="M372.38,-167.59C372.38,-161.01 372.38,-151.96 372.38,-143.73"/>
<polygon fill="#63b8ff" stroke="#63b8ff" points="375.88,-143.81 372.38,-133.81 368.88,-143.81 375.88,-143.81"/>
</a>
</g>
</g>
<!-- Node21 -->
<g id="Node000021" class="node">
<title>Node21</title>
<g id="a_Node000021"><a xlink:title=" ">
<polygon fill="#e0e0e0" stroke="#999999" points="340,-132 300.75,-132 300.75,-112 340,-112 340,-132"/>
<text text-anchor="middle" x="320.38" y="-118.5" font-family="Helvetica,sans-Serif" font-size="10.00">limits</text>
</a>
</g>
</g>
<!-- Node19&#45;&gt;Node21 -->
<g id="edge26_Node000019_Node000021" class="edge">
<title>Node19&#45;&gt;Node21</title>
<g id="a_edge26_Node000019_Node000021"><a xlink:title=" ">
<path fill="none" stroke="#63b8ff" d="M363.32,-167.59C356.16,-160.16 345.97,-149.58 337.31,-140.58"/>
<polygon fill="#63b8ff" stroke="#63b8ff" points="339.84,-138.16 330.38,-133.39 334.79,-143.02 339.84,-138.16"/>
</a>
</g>
</g>
<!-- Node22&#45;&gt;Node5 -->
<g id="edge28_Node000022_Node000005" class="edge">
<title>Node22&#45;&gt;Node5</title>
<g id="a_edge28_Node000022_Node000005"><a xlink:title=" ">
<path fill="none" stroke="#63b8ff" d="M70.86,-167.78C62.27,-154.38 49.56,-129.26 61.38,-112 66.44,-104.61 113.67,-87.89 146.28,-77.04"/>
<polygon fill="#63b8ff" stroke="#63b8ff" points="147.27,-80.4 155.68,-73.95 145.09,-73.75 147.27,-80.4"/>
</a>
</g>
</g>
</g>
</svg>
