<?xml version="1.0" encoding="UTF-8" standalone="no"?>
<!DOCTYPE svg PUBLIC "-//W3C//DTD SVG 1.1//EN"
 "http://www.w3.org/Graphics/SVG/1.1/DTD/svg11.dtd">
<!-- Generated by graphviz version 12.2.1 (20241206.2353)
 -->
<!-- Title: main/HttpServer.h Pages: 1 -->
<svg width="588pt" height="308pt"
 viewBox="0.00 0.00 588.38 308.00" xmlns="http://www.w3.org/2000/svg" xmlns:xlink="http://www.w3.org/1999/xlink">
<g id="graph0" class="graph" transform="scale(1 1) rotate(0) translate(4 304)">
<title>main/HttpServer.h</title>
<!-- Node1 -->
<g id="Node000001" class="node">
<title>Node1</title>
<g id="a_Node000001"><a xlink:title="The HttpServer class.">
<polygon fill="#999999" stroke="#666666" points="357.88,-300 263.12,-300 263.12,-280 357.88,-280 357.88,-300"/>
<text text-anchor="middle" x="310.5" y="-286.5" font-family="Helvetica,sans-Serif" font-size="10.00">main/HttpServer.h</text>
</a>
</g>
</g>
<!-- Node2 -->
<g id="Node000002" class="node">
<title>Node2</title>
<g id="a_Node000002"><a xlink:title=" ">
<polygon fill="#e0e0e0" stroke="#999999" points="185.88,-244 151.12,-244 151.12,-224 185.88,-224 185.88,-244"/>
<text text-anchor="middle" x="168.5" y="-230.5" font-family="Helvetica,sans-Serif" font-size="10.00">map</text>
</a>
</g>
</g>
<!-- Node1&#45;&gt;Node2 -->
<g id="edge1_Node000001_Node000002" class="edge">
<title>Node1&#45;&gt;Node2</title>
<g id="a_edge1_Node000001_Node000002"><a xlink:title=" ">
<path fill="none" stroke="#63b8ff" d="M285.77,-279.59C260.99,-270.17 222.89,-255.68 196.89,-245.8"/>
<polygon fill="#63b8ff" stroke="#63b8ff" points="198.23,-242.56 187.64,-242.28 195.74,-249.1 198.23,-242.56"/>
</a>
</g>
</g>
<!-- Node3 -->
<g id="Node000003" class="node">
<title>Node3</title>
<g id="a_Node000003"><a xlink:title=" ">
<polygon fill="#e0e0e0" stroke="#999999" points="255.12,-244 203.88,-244 203.88,-224 255.12,-224 255.12,-244"/>
<text text-anchor="middle" x="229.5" y="-230.5" font-family="Helvetica,sans-Serif" font-size="10.00">memory</text>
</a>
</g>
</g>
<!-- Node1&#45;&gt;Node3 -->
<g id="edge2_Node000001_Node000003" class="edge">
<title>Node1&#45;&gt;Node3</title>
<g id="a_edge2_Node000001_Node000003"><a xlink:title=" ">
<path fill="none" stroke="#63b8ff" d="M296.39,-279.59C284.5,-271.67 267.23,-260.16 253.22,-250.82"/>
<polygon fill="#63b8ff" stroke="#63b8ff" points="255.24,-247.95 244.98,-245.32 251.36,-253.78 255.24,-247.95"/>
</a>
</g>
</g>
<!-- Node4 -->
<g id="Node000004" class="node">
<title>Node4</title>
<g id="a_Node000004"><a xlink:href="TlsContext_8h.html" target="_top" xlink:title="The TlsContext class.">
<polygon fill="white" stroke="#666666" points="449,-132 346,-132 346,-112 449,-112 449,-132"/>
<text text-anchor="middle" x="397.5" y="-118.5" font-family="Helvetica,sans-Serif" font-size="10.00">../core/TlsContext.h</text>
</a>
</g>
</g>
<!-- Node1&#45;&gt;Node4 -->
<g id="edge3_Node000001_Node000004" class="edge">
<title>Node1&#45;&gt;Node4</title>
<g id="a_edge3_Node000001_Node000004"><a xlink:title=" ">
<path fill="none" stroke="#63b8ff" d="M331.29,-279.56C360.85,-264.84 413.86,-233.32 435.5,-188 443.54,-171.16 430.8,-152.9 417.96,-140.03"/>
<polygon fill="#63b8ff" stroke="#63b8ff" points="420.55,-137.66 410.83,-133.44 415.8,-142.8 420.55,-137.66"/>
</a>
</g>
</g>
<!-- Node8 -->
<g id="Node000008" class="node">
<title>Node8</title>
<g id="a_Node000008"><a xlink:href="HttpSocket_8h.html" target="_top" xlink:title="The HttpSocket class.">
<polygon fill="white" stroke="#666666" points="347.38,-244 273.62,-244 273.62,-224 347.38,-224 347.38,-244"/>
<text text-anchor="middle" x="310.5" y="-230.5" font-family="Helvetica,sans-Serif" font-size="10.00">HttpSocket.h</text>
</a>
</g>
</g>
<!-- Node1&#45;&gt;Node8 -->
<g id="edge7_Node000001_Node000008" class="edge">
<title>Node1&#45;&gt;Node8</title>
<g id="a_edge7_Node000001_Node000008"><a xlink:title=" ">
<path fill="none" stroke="#63b8ff" d="M310.5,-279.59C310.5,-273.01 310.5,-263.96 310.5,-255.73"/>
<polygon fill="#63b8ff" stroke="#63b8ff" points="314,-255.81 310.5,-245.81 307,-255.81 314,-255.81"/>
</a>
</g>
</g>
<!-- Node21 -->
<g id="Node000021" class="node">
<title>Node21</title>
<g id="a_Node000021"><a xlink:href="Instance_8h.html" target="_top" xlink:title="The AbstractInstance and Instance classes.">
<polygon fill="white" stroke="#666666" points="580.38,-188 518.62,-188 518.62,-168 580.38,-168 580.38,-188"/>
<text text-anchor="middle" x="549.5" y="-174.5" font-family="Helvetica,sans-Serif" font-size="10.00">Instance.h</text>
</a>
</g>
</g>
<!-- Node1&#45;&gt;Node21 -->
<g id="edge27_Node000001_Node000021" class="edge">
<title>Node1&#45;&gt;Node21</title>
<g id="a_edge27_Node000001_Node000021"><a xlink:title=" ">
<path fill="none" stroke="#63b8ff" d="M358.32,-280.57C390.66,-273.65 433.66,-262 468.5,-244 492.87,-231.41 516.88,-210.83 532.36,-196.2"/>
<polygon fill="#63b8ff" stroke="#63b8ff" points="534.59,-198.91 539.33,-189.43 529.72,-193.88 534.59,-198.91"/>
</a>
</g>
</g>
<!-- Node5 -->
<g id="Node000005" class="node">
<title>Node5</title>
<g id="a_Node000005"><a xlink:title=" ">
<polygon fill="#e0e0e0" stroke="#999999" points="453.5,-76 413.5,-76 413.5,-56 453.5,-56 453.5,-76"/>
<text text-anchor="middle" x="433.5" y="-62.5" font-family="Helvetica,sans-Serif" font-size="10.00">string</text>
</a>
</g>
</g>
<!-- Node4&#45;&gt;Node5 -->
<g id="edge4_Node000004_Node000005" class="edge">
<title>Node4&#45;&gt;Node5</title>
<g id="a_edge4_Node000004_Node000005"><a xlink:title=" ">
<path fill="none" stroke="#63b8ff" d="M403.77,-111.59C408.52,-104.47 415.2,-94.45 421.02,-85.72"/>
<polygon fill="#63b8ff" stroke="#63b8ff" points="423.83,-87.82 426.46,-77.56 418,-83.94 423.83,-87.82"/>
</a>
</g>
</g>
<!-- Node6 -->
<g id="Node000006" class="node">
<title>Node6</title>
<g id="a_Node000006"><a xlink:title=" ">
<polygon fill="#e0e0e0" stroke="#999999" points="301,-76 258,-76 258,-56 301,-56 301,-76"/>
<text text-anchor="middle" x="279.5" y="-62.5" font-family="Helvetica,sans-Serif" font-size="10.00">vector</text>
</a>
</g>
</g>
<!-- Node4&#45;&gt;Node6 -->
<g id="edge5_Node000004_Node000006" class="edge">
<title>Node4&#45;&gt;Node6</title>
<g id="a_edge5_Node000004_Node000006"><a xlink:title=" ">
<path fill="none" stroke="#63b8ff" d="M376.95,-111.59C358.62,-103.21 331.51,-90.8 310.54,-81.21"/>
<polygon fill="#63b8ff" stroke="#63b8ff" points="312.14,-78.09 301.59,-77.11 309.23,-84.45 312.14,-78.09"/>
</a>
</g>
</g>
<!-- Node7 -->
<g id="Node000007" class="node">
<title>Node7</title>
<g id="a_Node000007"><a xlink:title=" ">
<polygon fill="#e0e0e0" stroke="#999999" points="375.12,-76 329.88,-76 329.88,-56 375.12,-56 375.12,-76"/>
<text text-anchor="middle" x="352.5" y="-62.5" font-family="Helvetica,sans-Serif" font-size="10.00">cstdint</text>
</a>
</g>
</g>
<!-- Node4&#45;&gt;Node7 -->
<g id="edge6_Node000004_Node000007" class="edge">
<title>Node4&#45;&gt;Node7</title>
<g id="a_edge6_Node000004_Node000007"><a xlink:title=" ">
<path fill="none" stroke="#63b8ff" d="M389.66,-111.59C383.53,-104.24 374.83,-93.8 367.39,-84.87"/>
<polygon fill="#63b8ff" stroke="#63b8ff" points="370.31,-82.9 361.22,-77.46 364.93,-87.38 370.31,-82.9"/>
</a>
</g>
</g>
<!-- Node9 -->
<g id="Node000009" class="node">
<title>Node9</title>
<g id="a_Node000009"><a xlink:href="FunctionConnector_8h.html" target="_top" xlink:title="The AbstractFunctionConnector, FunctionConnector, FunctionConnectorProtected and FunctionConnectionGu...">
<polygon fill="white" stroke="#666666" points="155.88,-188 19.12,-188 19.12,-168 155.88,-168 155.88,-188"/>
<text text-anchor="middle" x="87.5" y="-174.5" font-family="Helvetica,sans-Serif" font-size="10.00">../core/FunctionConnector.h</text>
</a>
</g>
</g>
<!-- Node8&#45;&gt;Node9 -->
<g id="edge8_Node000008_Node000009" class="edge">
<title>Node8&#45;&gt;Node9</title>
<g id="a_edge8_Node000008_Node000009"><a xlink:title=" ">
<path fill="none" stroke="#63b8ff" d="M273.17,-223.96C236,-214.96 178.7,-201.08 137.58,-191.13"/>
<polygon fill="#63b8ff" stroke="#63b8ff" points="138.46,-187.74 127.92,-188.79 136.81,-194.54 138.46,-187.74"/>
</a>
</g>
</g>
<!-- Node14 -->
<g id="Node000014" class="node">
<title>Node14</title>
<g id="a_Node000014"><a xlink:href="DataArray_8h.html" target="_top" xlink:title="The DataArray, DataArrayView, DataArrayList and DataStream classes.">
<polygon fill="white" stroke="#666666" points="328.38,-132 230.62,-132 230.62,-112 328.38,-112 328.38,-132"/>
<text text-anchor="middle" x="279.5" y="-118.5" font-family="Helvetica,sans-Serif" font-size="10.00">../core/DataArray.h</text>
</a>
</g>
</g>
<!-- Node8&#45;&gt;Node14 -->
<g id="edge14_Node000008_Node000014" class="edge">
<title>Node8&#45;&gt;Node14</title>
<g id="a_edge14_Node000008_Node000014"><a xlink:title=" ">
<path fill="none" stroke="#63b8ff" d="M302.38,-223.77C295.38,-215.18 285.75,-201.67 281.5,-188 277.02,-173.61 276.67,-156.55 277.36,-143.52"/>
<polygon fill="#63b8ff" stroke="#63b8ff" points="280.85,-143.84 278.16,-133.59 273.87,-143.28 280.85,-143.84"/>
</a>
</g>
</g>
<!-- Node15 -->
<g id="Node000015" class="node">
<title>Node15</title>
<g id="a_Node000015"><a xlink:href="AbstractTlsSocket_8h.html" target="_top" xlink:title="The AbstractTlsSocket class.">
<polygon fill="white" stroke="#666666" points="426.5,-188 290.5,-188 290.5,-168 426.5,-168 426.5,-188"/>
<text text-anchor="middle" x="358.5" y="-174.5" font-family="Helvetica,sans-Serif" font-size="10.00">../core/AbstractTlsSocket.h</text>
</a>
</g>
</g>
<!-- Node8&#45;&gt;Node15 -->
<g id="edge18_Node000008_Node000015" class="edge">
<title>Node8&#45;&gt;Node15</title>
<g id="a_edge18_Node000008_Node000015"><a xlink:title=" ">
<path fill="none" stroke="#63b8ff" d="M318.86,-223.59C325.4,-216.24 334.68,-205.8 342.62,-196.87"/>
<polygon fill="#63b8ff" stroke="#63b8ff" points="345.2,-199.23 349.23,-189.43 339.97,-194.58 345.2,-199.23"/>
</a>
</g>
</g>
<!-- Node19 -->
<g id="Node000019" class="node">
<title>Node19</title>
<g id="a_Node000019"><a xlink:href="File_8h.html" target="_top" xlink:title="The File class.">
<polygon fill="white" stroke="#666666" points="218.5,-188 178.5,-188 178.5,-168 218.5,-168 218.5,-188"/>
<text text-anchor="middle" x="198.5" y="-174.5" font-family="Helvetica,sans-Serif" font-size="10.00">File.h</text>
</a>
</g>
</g>
<!-- Node8&#45;&gt;Node19 -->
<g id="edge24_Node000008_Node000019" class="edge">
<title>Node8&#45;&gt;Node19</title>
<g id="a_edge24_Node000008_Node000019"><a xlink:title=" ">
<path fill="none" stroke="#63b8ff" d="M290.99,-223.59C273.75,-215.28 248.34,-203.03 228.51,-193.47"/>
<polygon fill="#63b8ff" stroke="#63b8ff" points="230.05,-190.33 219.52,-189.14 227.01,-196.63 230.05,-190.33"/>
</a>
</g>
</g>
<!-- Node10 -->
<g id="Node000010" class="node">
<title>Node10</title>
<g id="a_Node000010"><a xlink:href="AbstractThread_8h.html" target="_top" xlink:title="The AbstractThread class.">
<polygon fill="white" stroke="#666666" points="128,-132 37,-132 37,-112 128,-112 128,-132"/>
<text text-anchor="middle" x="82.5" y="-118.5" font-family="Helvetica,sans-Serif" font-size="10.00">AbstractThread.h</text>
</a>
</g>
</g>
<!-- Node9&#45;&gt;Node10 -->
<g id="edge9_Node000009_Node000010" class="edge">
<title>Node9&#45;&gt;Node10</title>
<g id="a_edge9_Node000009_Node000010"><a xlink:title=" ">
<path fill="none" stroke="#63b8ff" d="M86.63,-167.59C86.02,-161.01 85.18,-151.96 84.42,-143.73"/>
<polygon fill="#63b8ff" stroke="#63b8ff" points="87.91,-143.44 83.5,-133.81 80.94,-144.09 87.91,-143.44"/>
</a>
</g>
</g>
<!-- Node10&#45;&gt;Node6 -->
<g id="edge12_Node000010_Node000006" class="edge">
<title>Node10&#45;&gt;Node6</title>
<g id="a_edge12_Node000010_Node000006"><a xlink:title=" ">
<path fill="none" stroke="#63b8ff" d="M116.81,-111.59C153.42,-101.56 210.97,-85.78 246.91,-75.93"/>
<polygon fill="#63b8ff" stroke="#63b8ff" points="247.58,-79.38 256.3,-73.36 245.73,-72.63 247.58,-79.38"/>
</a>
</g>
</g>
<!-- Node11 -->
<g id="Node000011" class="node">
<title>Node11</title>
<g id="a_Node000011"><a xlink:title=" ">
<polygon fill="#e0e0e0" stroke="#999999" points="43,-76 0,-76 0,-56 43,-56 43,-76"/>
<text text-anchor="middle" x="21.5" y="-62.5" font-family="Helvetica,sans-Serif" font-size="10.00">thread</text>
</a>
</g>
</g>
<!-- Node10&#45;&gt;Node11 -->
<g id="edge10_Node000010_Node000011" class="edge">
<title>Node10&#45;&gt;Node11</title>
<g id="a_edge10_Node000010_Node000011"><a xlink:title=" ">
<path fill="none" stroke="#63b8ff" d="M71.87,-111.59C63.22,-103.93 50.77,-92.91 40.42,-83.75"/>
<polygon fill="#63b8ff" stroke="#63b8ff" points="42.94,-81.31 33.14,-77.3 38.3,-86.55 42.94,-81.31"/>
</a>
</g>
</g>
<!-- Node12 -->
<g id="Node000012" class="node">
<title>Node12</title>
<g id="a_Node000012"><a xlink:title=" ">
<polygon fill="#e0e0e0" stroke="#999999" points="104,-76 61,-76 61,-56 104,-56 104,-76"/>
<text text-anchor="middle" x="82.5" y="-62.5" font-family="Helvetica,sans-Serif" font-size="10.00">mutex</text>
</a>
</g>
</g>
<!-- Node10&#45;&gt;Node12 -->
<g id="edge11_Node000010_Node000012" class="edge">
<title>Node10&#45;&gt;Node12</title>
<g id="a_edge11_Node000010_Node000012"><a xlink:title=" ">
<path fill="none" stroke="#63b8ff" d="M82.5,-111.59C82.5,-105.01 82.5,-95.96 82.5,-87.73"/>
<polygon fill="#63b8ff" stroke="#63b8ff" points="86,-87.81 82.5,-77.81 79,-87.81 86,-87.81"/>
</a>
</g>
</g>
<!-- Node13 -->
<g id="Node000013" class="node">
<title>Node13</title>
<g id="a_Node000013"><a xlink:href="invocable_8hpp_source.html" target="_top" xlink:title=" ">
<polygon fill="white" stroke="#666666" points="198.5,-76 122.5,-76 122.5,-56 198.5,-56 198.5,-76"/>
<text text-anchor="middle" x="160.5" y="-62.5" font-family="Helvetica,sans-Serif" font-size="10.00">invocable.hpp</text>
</a>
</g>
</g>
<!-- Node10&#45;&gt;Node13 -->
<g id="edge13_Node000010_Node000013" class="edge">
<title>Node10&#45;&gt;Node13</title>
<g id="a_edge13_Node000010_Node000013"><a xlink:title=" ">
<path fill="none" stroke="#63b8ff" d="M96.09,-111.59C107.54,-103.67 124.16,-92.16 137.66,-82.82"/>
<polygon fill="#63b8ff" stroke="#63b8ff" points="139.33,-85.91 145.56,-77.34 135.35,-80.16 139.33,-85.91"/>
</a>
</g>
</g>
<!-- Node14&#45;&gt;Node5 -->
<g id="edge17_Node000014_Node000005" class="edge">
<title>Node14&#45;&gt;Node5</title>
<g id="a_edge17_Node000014_Node000005"><a xlink:title=" ">
<path fill="none" stroke="#63b8ff" d="M306.32,-111.59C333.14,-102.19 374.33,-87.75 402.52,-77.86"/>
<polygon fill="#63b8ff" stroke="#63b8ff" points="403.65,-81.18 411.93,-74.56 401.33,-74.57 403.65,-81.18"/>
</a>
</g>
</g>
<!-- Node14&#45;&gt;Node6 -->
<g id="edge15_Node000014_Node000006" class="edge">
<title>Node14&#45;&gt;Node6</title>
<g id="a_edge15_Node000014_Node000006"><a xlink:title=" ">
<path fill="none" stroke="#63b8ff" d="M279.5,-111.59C279.5,-105.01 279.5,-95.96 279.5,-87.73"/>
<polygon fill="#63b8ff" stroke="#63b8ff" points="283,-87.81 279.5,-77.81 276,-87.81 283,-87.81"/>
</a>
</g>
</g>
<!-- Node14&#45;&gt;Node7 -->
<g id="edge16_Node000014_Node000007" class="edge">
<title>Node14&#45;&gt;Node7</title>
<g id="a_edge16_Node000014_Node000007"><a xlink:title=" ">
<path fill="none" stroke="#63b8ff" d="M292.22,-111.59C302.89,-103.7 318.38,-92.24 330.98,-82.92"/>
<polygon fill="#63b8ff" stroke="#63b8ff" points="332.76,-85.96 338.71,-77.2 328.59,-80.33 332.76,-85.96"/>
</a>
</g>
</g>
<!-- Node16 -->
<g id="Node000016" class="node">
<title>Node16</title>
<g id="a_Node000016"><a xlink:href="AbstractSocket_8h.html" target="_top" xlink:title="The AbstractSocket class.">
<polygon fill="white" stroke="#666666" points="558.38,-132 466.62,-132 466.62,-112 558.38,-112 558.38,-132"/>
<text text-anchor="middle" x="512.5" y="-118.5" font-family="Helvetica,sans-Serif" font-size="10.00">AbstractSocket.h</text>
</a>
</g>
</g>
<!-- Node15&#45;&gt;Node16 -->
<g id="edge19_Node000015_Node000016" class="edge">
<title>Node15&#45;&gt;Node16</title>
<g id="a_edge19_Node000015_Node000016"><a xlink:title=" ">
<path fill="none" stroke="#63b8ff" d="M385.32,-167.59C410.13,-158.9 447.23,-145.89 474.97,-136.16"/>
<polygon fill="#63b8ff" stroke="#63b8ff" points="475.76,-139.59 484.04,-132.98 473.44,-132.99 475.76,-139.59"/>
</a>
</g>
</g>
<!-- Node16&#45;&gt;Node5 -->
<g id="edge21_Node000016_Node000005" class="edge">
<title>Node16&#45;&gt;Node5</title>
<g id="a_edge21_Node000016_Node000005"><a xlink:title=" ">
<path fill="none" stroke="#63b8ff" d="M498.74,-111.59C487.14,-103.67 470.3,-92.16 456.64,-82.82"/>
<polygon fill="#63b8ff" stroke="#63b8ff" points="458.85,-80.09 448.62,-77.33 454.9,-85.87 458.85,-80.09"/>
</a>
</g>
</g>
<!-- Node16&#45;&gt;Node7 -->
<g id="edge20_Node000016_Node000007" class="edge">
<title>Node16&#45;&gt;Node7</title>
<g id="a_edge20_Node000016_Node000007"><a xlink:title=" ">
<path fill="none" stroke="#63b8ff" d="M484.63,-111.59C457.16,-102.32 415.17,-88.15 385.92,-78.28"/>
<polygon fill="#63b8ff" stroke="#63b8ff" points="387.42,-75.09 376.83,-75.21 385.18,-81.72 387.42,-75.09"/>
</a>
</g>
</g>
<!-- Node17 -->
<g id="Node000017" class="node">
<title>Node17</title>
<g id="a_Node000017"><a xlink:href="AnyData_8h.html" target="_top" xlink:title="The AnyData class.">
<polygon fill="white" stroke="#666666" points="543.75,-76 481.25,-76 481.25,-56 543.75,-56 543.75,-76"/>
<text text-anchor="middle" x="512.5" y="-62.5" font-family="Helvetica,sans-Serif" font-size="10.00">AnyData.h</text>
</a>
</g>
</g>
<!-- Node16&#45;&gt;Node17 -->
<g id="edge22_Node000016_Node000017" class="edge">
<title>Node16&#45;&gt;Node17</title>
<g id="a_edge22_Node000016_Node000017"><a xlink:title=" ">
<path fill="none" stroke="#63b8ff" d="M512.5,-111.59C512.5,-105.01 512.5,-95.96 512.5,-87.73"/>
<polygon fill="#63b8ff" stroke="#63b8ff" points="516,-87.81 512.5,-77.81 509,-87.81 516,-87.81"/>
</a>
</g>
</g>
<!-- Node18 -->
<g id="Node000018" class="node">
<title>Node18</title>
<g id="a_Node000018"><a xlink:title=" ">
<polygon fill="#e0e0e0" stroke="#999999" points="528.38,-20 496.62,-20 496.62,0 528.38,0 528.38,-20"/>
<text text-anchor="middle" x="512.5" y="-6.5" font-family="Helvetica,sans-Serif" font-size="10.00">any</text>
</a>
</g>
</g>
<!-- Node17&#45;&gt;Node18 -->
<g id="edge23_Node000017_Node000018" class="edge">
<title>Node17&#45;&gt;Node18</title>
<g id="a_edge23_Node000017_Node000018"><a xlink:title=" ">
<path fill="none" stroke="#63b8ff" d="M512.5,-55.59C512.5,-49.01 512.5,-39.96 512.5,-31.73"/>
<polygon fill="#63b8ff" stroke="#63b8ff" points="516,-31.81 512.5,-21.81 509,-31.81 516,-31.81"/>
</a>
</g>
</g>
<!-- Node19&#45;&gt;Node7 -->
<g id="edge26_Node000019_Node000007" class="edge">
<title>Node19&#45;&gt;Node7</title>
<g id="a_edge26_Node000019_Node000007"><a xlink:title=" ">
<path fill="none" stroke="#63b8ff" d="M190.13,-167.71C179.02,-154.23 162.27,-129.01 175.5,-112 179.95,-106.28 268.26,-85.79 318.42,-74.54"/>
<polygon fill="#63b8ff" stroke="#63b8ff" points="318.92,-78.01 327.92,-72.42 317.39,-71.18 318.92,-78.01"/>
</a>
</g>
</g>
<!-- Node20 -->
<g id="Node000020" class="node">
<title>Node20</title>
<g id="a_Node000020"><a xlink:title=" ">
<polygon fill="#e0e0e0" stroke="#999999" points="212.9,-132 184.1,-132 184.1,-112 212.9,-112 212.9,-132"/>
<text text-anchor="middle" x="198.5" y="-118.5" font-family="Helvetica,sans-Serif" font-size="10.00">ios</text>
</a>
</g>
</g>
<!-- Node19&#45;&gt;Node20 -->
<g id="edge25_Node000019_Node000020" class="edge">
<title>Node19&#45;&gt;Node20</title>
<g id="a_edge25_Node000019_Node000020"><a xlink:title=" ">
<path fill="none" stroke="#63b8ff" d="M198.5,-167.59C198.5,-161.01 198.5,-151.96 198.5,-143.73"/>
<polygon fill="#63b8ff" stroke="#63b8ff" points="202,-143.81 198.5,-133.81 195,-143.81 202,-143.81"/>
</a>
</g>
</g>
<!-- Node21&#45;&gt;Node5 -->
<g id="edge28_Node000021_Node000005" class="edge">
<title>Node21&#45;&gt;Node5</title>
<g id="a_edge28_Node000021_Node000005"><a xlink:title=" ">
<path fill="none" stroke="#63b8ff" d="M556.57,-167.74C565.91,-154.3 579.8,-129.11 567.5,-112 561.32,-103.4 502.53,-85.93 464.9,-75.47"/>
<polygon fill="#63b8ff" stroke="#63b8ff" points="466.02,-72.15 455.45,-72.87 464.16,-78.9 466.02,-72.15"/>
</a>
</g>
</g>
</g>
</svg>
