<?xml version="1.0" encoding="UTF-8" standalone="no"?>
<!DOCTYPE svg PUBLIC "-//W3C//DTD SVG 1.1//EN"
 "http://www.w3.org/Graphics/SVG/1.1/DTD/svg11.dtd">
<!-- Generated by graphviz version 14.1.3 (20260303.0454)
 -->
<!-- Title: main/HttpSocket.h Pages: 1 -->
<svg width="534pt" height="252pt"
 viewBox="0.00 0.00 534.00 252.00" xmlns="http://www.w3.org/2000/svg" xmlns:xlink="http://www.w3.org/1999/xlink">
<g id="graph0" class="graph" transform="scale(1 1) rotate(0) translate(4 248)">
<title>main/HttpSocket.h</title>
<!-- Node1 -->
<g id="Node000001" class="node">
<title>Node1</title>
<g id="a_Node000001"><a xlink:title="The HttpSocket class.">
<polygon fill="#999999" stroke="#666666" points="356.38,-244 258.62,-244 258.62,-224 356.38,-224 356.38,-244"/>
<text xml:space="preserve" text-anchor="middle" x="307.5" y="-230.5" font-family="Helvetica,sans-Serif" font-size="10.00">main/HttpSocket.h</text>
</a>
</g>
</g>
<!-- Node2 -->
<g id="Node000002" class="node">
<title>Node2</title>
<g id="a_Node000002"><a xlink:href="FunctionConnector_8h.html" target="_top" xlink:title="The AbstractFunctionConnector, FunctionConnector, FunctionConnectorProtected, FunctionConnectionGuard...">
<polygon fill="white" stroke="#666666" points="223.88,-188 87.12,-188 87.12,-168 223.88,-168 223.88,-188"/>
<text xml:space="preserve" text-anchor="middle" x="155.5" y="-174.5" font-family="Helvetica,sans-Serif" font-size="10.00">../core/FunctionConnector.h</text>
</a>
</g>
</g>
<!-- Node1&#45;&gt;Node2 -->
<g id="edge1_Node000001_Node000002" class="edge">
<title>Node1&#45;&gt;Node2</title>
<g id="a_edge1_Node000001_Node000002"><a xlink:title=" ">
<path fill="none" stroke="#63b8ff" d="M281.02,-223.59C256.65,-214.94 220.25,-202 192.91,-192.29"/>
<polygon fill="#63b8ff" stroke="#63b8ff" points="194.2,-189.04 183.61,-188.99 191.86,-195.63 194.2,-189.04"/>
</a>
</g>
</g>
<!-- Node8 -->
<g id="Node000008" class="node">
<title>Node8</title>
<g id="a_Node000008"><a xlink:href="DataArray_8h.html" target="_top" xlink:title="The DataArray, DataArrayView, DataArrayList and DataStream classes.">
<polygon fill="white" stroke="#666666" points="308.38,-132 210.62,-132 210.62,-112 308.38,-112 308.38,-132"/>
<text xml:space="preserve" text-anchor="middle" x="259.5" y="-118.5" font-family="Helvetica,sans-Serif" font-size="10.00">../core/DataArray.h</text>
</a>
</g>
</g>
<!-- Node1&#45;&gt;Node8 -->
<g id="edge7_Node000001_Node000008" class="edge">
<title>Node1&#45;&gt;Node8</title>
<g id="a_edge7_Node000001_Node000008"><a xlink:title=" ">
<path fill="none" stroke="#63b8ff" d="M300.44,-223.8C293.97,-215.01 284.52,-201.19 278.5,-188 271.91,-173.57 266.99,-156.3 263.81,-143.19"/>
<polygon fill="#63b8ff" stroke="#63b8ff" points="267.26,-142.58 261.63,-133.6 260.43,-144.13 267.26,-142.58"/>
</a>
</g>
</g>
<!-- Node11 -->
<g id="Node000011" class="node">
<title>Node11</title>
<g id="a_Node000011"><a xlink:href="AbstractTlsSocket_8h.html" target="_top" xlink:title="The AbstractTlsSocket class.">
<polygon fill="white" stroke="#666666" points="423.5,-188 287.5,-188 287.5,-168 423.5,-168 423.5,-188"/>
<text xml:space="preserve" text-anchor="middle" x="355.5" y="-174.5" font-family="Helvetica,sans-Serif" font-size="10.00">../core/AbstractTlsSocket.h</text>
</a>
</g>
</g>
<!-- Node1&#45;&gt;Node11 -->
<g id="edge11_Node000001_Node000011" class="edge">
<title>Node1&#45;&gt;Node11</title>
<g id="a_edge11_Node000001_Node000011"><a xlink:title=" ">
<path fill="none" stroke="#63b8ff" d="M315.86,-223.59C322.4,-216.24 331.68,-205.8 339.62,-196.87"/>
<polygon fill="#63b8ff" stroke="#63b8ff" points="342.2,-199.23 346.23,-189.43 336.97,-194.58 342.2,-199.23"/>
</a>
</g>
</g>
<!-- Node15 -->
<g id="Node000015" class="node">
<title>Node15</title>
<g id="a_Node000015"><a xlink:href="File_8h.html" target="_top" xlink:title="Definition of the File class for file system operations.">
<polygon fill="white" stroke="#666666" points="481.5,-188 441.5,-188 441.5,-168 481.5,-168 481.5,-188"/>
<text xml:space="preserve" text-anchor="middle" x="461.5" y="-174.5" font-family="Helvetica,sans-Serif" font-size="10.00">File.h</text>
</a>
</g>
</g>
<!-- Node1&#45;&gt;Node15 -->
<g id="edge17_Node000001_Node000015" class="edge">
<title>Node1&#45;&gt;Node15</title>
<g id="a_edge17_Node000001_Node000015"><a xlink:title=" ">
<path fill="none" stroke="#63b8ff" d="M334.32,-223.59C361.14,-214.19 402.33,-199.75 430.52,-189.86"/>
<polygon fill="#63b8ff" stroke="#63b8ff" points="431.65,-193.18 439.93,-186.56 429.33,-186.57 431.65,-193.18"/>
</a>
</g>
</g>
<!-- Node3 -->
<g id="Node000003" class="node">
<title>Node3</title>
<g id="a_Node000003"><a xlink:href="AbstractThread_8h.html" target="_top" xlink:title="The AbstractThread class.">
<polygon fill="white" stroke="#666666" points="193,-132 102,-132 102,-112 193,-112 193,-132"/>
<text xml:space="preserve" text-anchor="middle" x="147.5" y="-118.5" font-family="Helvetica,sans-Serif" font-size="10.00">AbstractThread.h</text>
</a>
</g>
</g>
<!-- Node2&#45;&gt;Node3 -->
<g id="edge2_Node000002_Node000003" class="edge">
<title>Node2&#45;&gt;Node3</title>
<g id="a_edge2_Node000002_Node000003"><a xlink:title=" ">
<path fill="none" stroke="#63b8ff" d="M154.11,-167.59C153.12,-160.93 151.76,-151.75 150.53,-143.44"/>
<polygon fill="#63b8ff" stroke="#63b8ff" points="154.03,-143.17 149.1,-133.8 147.1,-144.2 154.03,-143.17"/>
</a>
</g>
</g>
<!-- Node4 -->
<g id="Node000004" class="node">
<title>Node4</title>
<g id="a_Node000004"><a xlink:title=" ">
<polygon fill="#e0e0e0" stroke="#999999" points="43,-76 0,-76 0,-56 43,-56 43,-76"/>
<text xml:space="preserve" text-anchor="middle" x="21.5" y="-62.5" font-family="Helvetica,sans-Serif" font-size="10.00">thread</text>
</a>
</g>
</g>
<!-- Node3&#45;&gt;Node4 -->
<g id="edge3_Node000003_Node000004" class="edge">
<title>Node3&#45;&gt;Node4</title>
<g id="a_edge3_Node000003_Node000004"><a xlink:title=" ">
<path fill="none" stroke="#63b8ff" d="M125.55,-111.59C105.68,-103.08 76.15,-90.42 53.62,-80.77"/>
<polygon fill="#63b8ff" stroke="#63b8ff" points="55.16,-77.62 44.59,-76.89 52.4,-84.05 55.16,-77.62"/>
</a>
</g>
</g>
<!-- Node5 -->
<g id="Node000005" class="node">
<title>Node5</title>
<g id="a_Node000005"><a xlink:title=" ">
<polygon fill="#e0e0e0" stroke="#999999" points="104,-76 61,-76 61,-56 104,-56 104,-76"/>
<text xml:space="preserve" text-anchor="middle" x="82.5" y="-62.5" font-family="Helvetica,sans-Serif" font-size="10.00">mutex</text>
</a>
</g>
</g>
<!-- Node3&#45;&gt;Node5 -->
<g id="edge4_Node000003_Node000005" class="edge">
<title>Node3&#45;&gt;Node5</title>
<g id="a_edge4_Node000003_Node000005"><a xlink:title=" ">
<path fill="none" stroke="#63b8ff" d="M136.18,-111.59C126.86,-103.85 113.42,-92.69 102.32,-83.47"/>
<polygon fill="#63b8ff" stroke="#63b8ff" points="104.79,-80.96 94.86,-77.27 100.31,-86.35 104.79,-80.96"/>
</a>
</g>
</g>
<!-- Node6 -->
<g id="Node000006" class="node">
<title>Node6</title>
<g id="a_Node000006"><a xlink:title=" ">
<polygon fill="#e0e0e0" stroke="#999999" points="260,-76 217,-76 217,-56 260,-56 260,-76"/>
<text xml:space="preserve" text-anchor="middle" x="238.5" y="-62.5" font-family="Helvetica,sans-Serif" font-size="10.00">vector</text>
</a>
</g>
</g>
<!-- Node3&#45;&gt;Node6 -->
<g id="edge5_Node000003_Node000006" class="edge">
<title>Node3&#45;&gt;Node6</title>
<g id="a_edge5_Node000003_Node000006"><a xlink:title=" ">
<path fill="none" stroke="#63b8ff" d="M163.35,-111.59C176.97,-103.51 196.86,-91.71 212.76,-82.27"/>
<polygon fill="#63b8ff" stroke="#63b8ff" points="214.41,-85.37 221.22,-77.25 210.84,-79.35 214.41,-85.37"/>
</a>
</g>
</g>
<!-- Node7 -->
<g id="Node000007" class="node">
<title>Node7</title>
<g id="a_Node000007"><a xlink:href="invocable_8hpp_source.html" target="_top" xlink:title=" ">
<polygon fill="white" stroke="#666666" points="198.5,-76 122.5,-76 122.5,-56 198.5,-56 198.5,-76"/>
<text xml:space="preserve" text-anchor="middle" x="160.5" y="-62.5" font-family="Helvetica,sans-Serif" font-size="10.00">invocable.hpp</text>
</a>
</g>
</g>
<!-- Node3&#45;&gt;Node7 -->
<g id="edge6_Node000003_Node000007" class="edge">
<title>Node3&#45;&gt;Node7</title>
<g id="a_edge6_Node000003_Node000007"><a xlink:title=" ">
<path fill="none" stroke="#63b8ff" d="M149.76,-111.59C151.37,-104.93 153.58,-95.75 155.58,-87.44"/>
<polygon fill="#63b8ff" stroke="#63b8ff" points="158.97,-88.31 157.91,-77.77 152.16,-86.67 158.97,-88.31"/>
</a>
</g>
</g>
<!-- Node8&#45;&gt;Node6 -->
<g id="edge8_Node000008_Node000006" class="edge">
<title>Node8&#45;&gt;Node6</title>
<g id="a_edge8_Node000008_Node000006"><a xlink:title=" ">
<path fill="none" stroke="#63b8ff" d="M255.84,-111.59C253.19,-104.78 249.51,-95.32 246.22,-86.86"/>
<polygon fill="#63b8ff" stroke="#63b8ff" points="249.55,-85.76 242.66,-77.71 243.03,-88.3 249.55,-85.76"/>
</a>
</g>
</g>
<!-- Node9 -->
<g id="Node000009" class="node">
<title>Node9</title>
<g id="a_Node000009"><a xlink:title=" ">
<polygon fill="#e0e0e0" stroke="#999999" points="382.12,-76 336.88,-76 336.88,-56 382.12,-56 382.12,-76"/>
<text xml:space="preserve" text-anchor="middle" x="359.5" y="-62.5" font-family="Helvetica,sans-Serif" font-size="10.00">cstdint</text>
</a>
</g>
</g>
<!-- Node8&#45;&gt;Node9 -->
<g id="edge9_Node000008_Node000009" class="edge">
<title>Node8&#45;&gt;Node9</title>
<g id="a_edge9_Node000008_Node000009"><a xlink:title=" ">
<path fill="none" stroke="#63b8ff" d="M276.92,-111.59C292.17,-103.36 314.58,-91.26 332.21,-81.74"/>
<polygon fill="#63b8ff" stroke="#63b8ff" points="333.48,-85.03 340.61,-77.2 330.15,-78.87 333.48,-85.03"/>
</a>
</g>
</g>
<!-- Node10 -->
<g id="Node000010" class="node">
<title>Node10</title>
<g id="a_Node000010"><a xlink:title=" ">
<polygon fill="#e0e0e0" stroke="#999999" points="318.5,-76 278.5,-76 278.5,-56 318.5,-56 318.5,-76"/>
<text xml:space="preserve" text-anchor="middle" x="298.5" y="-62.5" font-family="Helvetica,sans-Serif" font-size="10.00">string</text>
</a>
</g>
</g>
<!-- Node8&#45;&gt;Node10 -->
<g id="edge10_Node000008_Node000010" class="edge">
<title>Node8&#45;&gt;Node10</title>
<g id="a_edge10_Node000008_Node000010"><a xlink:title=" ">
<path fill="none" stroke="#63b8ff" d="M266.29,-111.59C271.49,-104.39 278.83,-94.23 285.19,-85.43"/>
<polygon fill="#63b8ff" stroke="#63b8ff" points="287.88,-87.68 290.9,-77.53 282.21,-83.58 287.88,-87.68"/>
</a>
</g>
</g>
<!-- Node12 -->
<g id="Node000012" class="node">
<title>Node12</title>
<g id="a_Node000012"><a xlink:href="AbstractSocket_8h.html" target="_top" xlink:title="The AbstractSocket class.">
<polygon fill="white" stroke="#666666" points="418.38,-132 326.62,-132 326.62,-112 418.38,-112 418.38,-132"/>
<text xml:space="preserve" text-anchor="middle" x="372.5" y="-118.5" font-family="Helvetica,sans-Serif" font-size="10.00">AbstractSocket.h</text>
</a>
</g>
</g>
<!-- Node11&#45;&gt;Node12 -->
<g id="edge12_Node000011_Node000012" class="edge">
<title>Node11&#45;&gt;Node12</title>
<g id="a_edge12_Node000011_Node000012"><a xlink:title=" ">
<path fill="none" stroke="#63b8ff" d="M358.46,-167.59C360.58,-160.86 363.52,-151.53 366.16,-143.15"/>
<polygon fill="#63b8ff" stroke="#63b8ff" points="369.45,-144.33 369.12,-133.74 362.78,-142.23 369.45,-144.33"/>
</a>
</g>
</g>
<!-- Node12&#45;&gt;Node9 -->
<g id="edge13_Node000012_Node000009" class="edge">
<title>Node12&#45;&gt;Node9</title>
<g id="a_edge13_Node000012_Node000009"><a xlink:title=" ">
<path fill="none" stroke="#63b8ff" d="M370.24,-111.59C368.63,-104.93 366.42,-95.75 364.42,-87.44"/>
<polygon fill="#63b8ff" stroke="#63b8ff" points="367.84,-86.67 362.09,-77.77 361.03,-88.31 367.84,-86.67"/>
</a>
</g>
</g>
<!-- Node12&#45;&gt;Node10 -->
<g id="edge14_Node000012_Node000010" class="edge">
<title>Node12&#45;&gt;Node10</title>
<g id="a_edge14_Node000012_Node000010"><a xlink:title=" ">
<path fill="none" stroke="#63b8ff" d="M359.61,-111.59C348.79,-103.7 333.09,-92.24 320.31,-82.92"/>
<polygon fill="#63b8ff" stroke="#63b8ff" points="322.61,-80.26 312.46,-77.19 318.48,-85.91 322.61,-80.26"/>
</a>
</g>
</g>
<!-- Node13 -->
<g id="Node000013" class="node">
<title>Node13</title>
<g id="a_Node000013"><a xlink:href="AnyData_8h.html" target="_top" xlink:title="The AnyData class.">
<polygon fill="white" stroke="#666666" points="462.75,-76 400.25,-76 400.25,-56 462.75,-56 462.75,-76"/>
<text xml:space="preserve" text-anchor="middle" x="431.5" y="-62.5" font-family="Helvetica,sans-Serif" font-size="10.00">AnyData.h</text>
</a>
</g>
</g>
<!-- Node12&#45;&gt;Node13 -->
<g id="edge15_Node000012_Node000013" class="edge">
<title>Node12&#45;&gt;Node13</title>
<g id="a_edge15_Node000012_Node000013"><a xlink:title=" ">
<path fill="none" stroke="#63b8ff" d="M382.78,-111.59C391.07,-104.01 402.95,-93.13 412.9,-84.02"/>
<polygon fill="#63b8ff" stroke="#63b8ff" points="415.21,-86.65 420.22,-77.32 410.48,-81.49 415.21,-86.65"/>
</a>
</g>
</g>
<!-- Node14 -->
<g id="Node000014" class="node">
<title>Node14</title>
<g id="a_Node000014"><a xlink:title=" ">
<polygon fill="#e0e0e0" stroke="#999999" points="447.38,-20 415.62,-20 415.62,0 447.38,0 447.38,-20"/>
<text xml:space="preserve" text-anchor="middle" x="431.5" y="-6.5" font-family="Helvetica,sans-Serif" font-size="10.00">any</text>
</a>
</g>
</g>
<!-- Node13&#45;&gt;Node14 -->
<g id="edge16_Node000013_Node000014" class="edge">
<title>Node13&#45;&gt;Node14</title>
<g id="a_edge16_Node000013_Node000014"><a xlink:title=" ">
<path fill="none" stroke="#63b8ff" d="M431.5,-55.59C431.5,-49.01 431.5,-39.96 431.5,-31.73"/>
<polygon fill="#63b8ff" stroke="#63b8ff" points="435,-31.81 431.5,-21.81 428,-31.81 435,-31.81"/>
</a>
</g>
</g>
<!-- Node16 -->
<g id="Node000016" class="node">
<title>Node16</title>
<g id="a_Node000016"><a xlink:title=" ">
<polygon fill="#e0e0e0" stroke="#999999" points="525.9,-132 497.1,-132 497.1,-112 525.9,-112 525.9,-132"/>
<text xml:space="preserve" text-anchor="middle" x="511.5" y="-118.5" font-family="Helvetica,sans-Serif" font-size="10.00">ios</text>
</a>
</g>
</g>
<!-- Node15&#45;&gt;Node16 -->
<g id="edge18_Node000015_Node000016" class="edge">
<title>Node15&#45;&gt;Node16</title>
<g id="a_edge18_Node000015_Node000016"><a xlink:title=" ">
<path fill="none" stroke="#63b8ff" d="M470.21,-167.59C477.09,-160.16 486.89,-149.58 495.22,-140.58"/>
<polygon fill="#63b8ff" stroke="#63b8ff" points="497.64,-143.12 501.86,-133.41 492.5,-138.37 497.64,-143.12"/>
</a>
</g>
</g>
<!-- Node17 -->
<g id="Node000017" class="node">
<title>Node17</title>
<g id="a_Node000017"><a xlink:title=" ">
<polygon fill="#e0e0e0" stroke="#999999" points="479.12,-132 439.88,-132 439.88,-112 479.12,-112 479.12,-132"/>
<text xml:space="preserve" text-anchor="middle" x="459.5" y="-118.5" font-family="Helvetica,sans-Serif" font-size="10.00">limits</text>
</a>
</g>
</g>
<!-- Node15&#45;&gt;Node17 -->
<g id="edge19_Node000015_Node000017" class="edge">
<title>Node15&#45;&gt;Node17</title>
<g id="a_edge19_Node000015_Node000017"><a xlink:title=" ">
<path fill="none" stroke="#63b8ff" d="M461.15,-167.59C460.91,-161.01 460.57,-151.96 460.27,-143.73"/>
<polygon fill="#63b8ff" stroke="#63b8ff" points="463.77,-143.67 459.9,-133.81 456.77,-143.93 463.77,-143.67"/>
</a>
</g>
</g>
</g>
</svg>
