<?xml version="1.0" encoding="UTF-8" standalone="no"?>
<!DOCTYPE svg PUBLIC "-//W3C//DTD SVG 1.1//EN"
 "http://www.w3.org/Graphics/SVG/1.1/DTD/svg11.dtd">
<!-- Generated by graphviz version 12.2.1 (20241206.2353)
 -->
<!-- Title: main/HttpSocket.h Pages: 1 -->
<svg width="485pt" height="252pt"
 viewBox="0.00 0.00 484.50 252.00" xmlns="http://www.w3.org/2000/svg" xmlns:xlink="http://www.w3.org/1999/xlink">
<g id="graph0" class="graph" transform="scale(1 1) rotate(0) translate(4 248)">
<title>main/HttpSocket.h</title>
<!-- Node1 -->
<g id="Node000001" class="node">
<title>Node1</title>
<g id="a_Node000001"><a xlink:title="The HttpSocket class.">
<polygon fill="#999999" stroke="#666666" points="351.38,-244 253.62,-244 253.62,-224 351.38,-224 351.38,-244"/>
<text text-anchor="middle" x="302.5" y="-230.5" font-family="Helvetica,sans-Serif" font-size="10.00">main/HttpSocket.h</text>
</a>
</g>
</g>
<!-- Node2 -->
<g id="Node000002" class="node">
<title>Node2</title>
<g id="a_Node000002"><a xlink:href="FunctionConnector_8h.html" target="_top" xlink:title="The AbstractFunctionConnector, FunctionConnector, FunctionConnectorProtected and FunctionConnectionGu...">
<polygon fill="white" stroke="#666666" points="218.88,-188 82.12,-188 82.12,-168 218.88,-168 218.88,-188"/>
<text text-anchor="middle" x="150.5" y="-174.5" font-family="Helvetica,sans-Serif" font-size="10.00">../core/FunctionConnector.h</text>
</a>
</g>
</g>
<!-- Node1&#45;&gt;Node2 -->
<g id="edge1_Node000001_Node000002" class="edge">
<title>Node1&#45;&gt;Node2</title>
<g id="a_edge1_Node000001_Node000002"><a xlink:title=" ">
<path fill="none" stroke="#63b8ff" d="M276.02,-223.59C251.65,-214.94 215.25,-202 187.91,-192.29"/>
<polygon fill="#63b8ff" stroke="#63b8ff" points="189.2,-189.04 178.61,-188.99 186.86,-195.63 189.2,-189.04"/>
</a>
</g>
</g>
<!-- Node8 -->
<g id="Node000008" class="node">
<title>Node8</title>
<g id="a_Node000008"><a xlink:href="DataArray_8h.html" target="_top" xlink:title="The DataArray, DataArrayView, DataArrayList and DataStream classes.">
<polygon fill="white" stroke="#666666" points="303.38,-132 205.62,-132 205.62,-112 303.38,-112 303.38,-132"/>
<text text-anchor="middle" x="254.5" y="-118.5" font-family="Helvetica,sans-Serif" font-size="10.00">../core/DataArray.h</text>
</a>
</g>
</g>
<!-- Node1&#45;&gt;Node8 -->
<g id="edge7_Node000001_Node000008" class="edge">
<title>Node1&#45;&gt;Node8</title>
<g id="a_edge7_Node000001_Node000008"><a xlink:title=" ">
<path fill="none" stroke="#63b8ff" d="M295.44,-223.8C288.97,-215.01 279.52,-201.19 273.5,-188 266.91,-173.57 261.99,-156.3 258.81,-143.19"/>
<polygon fill="#63b8ff" stroke="#63b8ff" points="262.26,-142.58 256.63,-133.6 255.43,-144.13 262.26,-142.58"/>
</a>
</g>
</g>
<!-- Node11 -->
<g id="Node000011" class="node">
<title>Node11</title>
<g id="a_Node000011"><a xlink:href="AbstractTlsSocket_8h.html" target="_top" xlink:title="The AbstractTlsSocket class.">
<polygon fill="white" stroke="#666666" points="418.5,-188 282.5,-188 282.5,-168 418.5,-168 418.5,-188"/>
<text text-anchor="middle" x="350.5" y="-174.5" font-family="Helvetica,sans-Serif" font-size="10.00">../core/AbstractTlsSocket.h</text>
</a>
</g>
</g>
<!-- Node1&#45;&gt;Node11 -->
<g id="edge11_Node000001_Node000011" class="edge">
<title>Node1&#45;&gt;Node11</title>
<g id="a_edge11_Node000001_Node000011"><a xlink:title=" ">
<path fill="none" stroke="#63b8ff" d="M310.86,-223.59C317.4,-216.24 326.68,-205.8 334.62,-196.87"/>
<polygon fill="#63b8ff" stroke="#63b8ff" points="337.2,-199.23 341.23,-189.43 331.97,-194.58 337.2,-199.23"/>
</a>
</g>
</g>
<!-- Node15 -->
<g id="Node000015" class="node">
<title>Node15</title>
<g id="a_Node000015"><a xlink:href="File_8h.html" target="_top" xlink:title="The File class.">
<polygon fill="white" stroke="#666666" points="476.5,-188 436.5,-188 436.5,-168 476.5,-168 476.5,-188"/>
<text text-anchor="middle" x="456.5" y="-174.5" font-family="Helvetica,sans-Serif" font-size="10.00">File.h</text>
</a>
</g>
</g>
<!-- Node1&#45;&gt;Node15 -->
<g id="edge17_Node000001_Node000015" class="edge">
<title>Node1&#45;&gt;Node15</title>
<g id="a_edge17_Node000001_Node000015"><a xlink:title=" ">
<path fill="none" stroke="#63b8ff" d="M329.32,-223.59C356.14,-214.19 397.33,-199.75 425.52,-189.86"/>
<polygon fill="#63b8ff" stroke="#63b8ff" points="426.65,-193.18 434.93,-186.56 424.33,-186.57 426.65,-193.18"/>
</a>
</g>
</g>
<!-- Node3 -->
<g id="Node000003" class="node">
<title>Node3</title>
<g id="a_Node000003"><a xlink:href="AbstractThread_8h.html" target="_top" xlink:title="The AbstractThread class.">
<polygon fill="white" stroke="#666666" points="188,-132 97,-132 97,-112 188,-112 188,-132"/>
<text text-anchor="middle" x="142.5" y="-118.5" font-family="Helvetica,sans-Serif" font-size="10.00">AbstractThread.h</text>
</a>
</g>
</g>
<!-- Node2&#45;&gt;Node3 -->
<g id="edge2_Node000002_Node000003" class="edge">
<title>Node2&#45;&gt;Node3</title>
<g id="a_edge2_Node000002_Node000003"><a xlink:title=" ">
<path fill="none" stroke="#63b8ff" d="M149.11,-167.59C148.12,-160.93 146.76,-151.75 145.53,-143.44"/>
<polygon fill="#63b8ff" stroke="#63b8ff" points="149.03,-143.17 144.1,-133.8 142.1,-144.2 149.03,-143.17"/>
</a>
</g>
</g>
<!-- Node4 -->
<g id="Node000004" class="node">
<title>Node4</title>
<g id="a_Node000004"><a xlink:title=" ">
<polygon fill="#e0e0e0" stroke="#999999" points="43,-76 0,-76 0,-56 43,-56 43,-76"/>
<text text-anchor="middle" x="21.5" y="-62.5" font-family="Helvetica,sans-Serif" font-size="10.00">thread</text>
</a>
</g>
</g>
<!-- Node3&#45;&gt;Node4 -->
<g id="edge3_Node000003_Node000004" class="edge">
<title>Node3&#45;&gt;Node4</title>
<g id="a_edge3_Node000003_Node000004"><a xlink:title=" ">
<path fill="none" stroke="#63b8ff" d="M121.42,-111.59C102.54,-103.17 74.58,-90.69 53.04,-81.07"/>
<polygon fill="#63b8ff" stroke="#63b8ff" points="54.68,-77.98 44.12,-77.1 51.83,-84.37 54.68,-77.98"/>
</a>
</g>
</g>
<!-- Node5 -->
<g id="Node000005" class="node">
<title>Node5</title>
<g id="a_Node000005"><a xlink:title=" ">
<polygon fill="#e0e0e0" stroke="#999999" points="104,-76 61,-76 61,-56 104,-56 104,-76"/>
<text text-anchor="middle" x="82.5" y="-62.5" font-family="Helvetica,sans-Serif" font-size="10.00">mutex</text>
</a>
</g>
</g>
<!-- Node3&#45;&gt;Node5 -->
<g id="edge4_Node000003_Node000005" class="edge">
<title>Node3&#45;&gt;Node5</title>
<g id="a_edge4_Node000003_Node000005"><a xlink:title=" ">
<path fill="none" stroke="#63b8ff" d="M132.05,-111.59C123.53,-103.93 111.29,-92.91 101.11,-83.75"/>
<polygon fill="#63b8ff" stroke="#63b8ff" points="103.73,-81.4 93.96,-77.31 99.05,-86.6 103.73,-81.4"/>
</a>
</g>
</g>
<!-- Node6 -->
<g id="Node000006" class="node">
<title>Node6</title>
<g id="a_Node000006"><a xlink:title=" ">
<polygon fill="#e0e0e0" stroke="#999999" points="260,-76 217,-76 217,-56 260,-56 260,-76"/>
<text text-anchor="middle" x="238.5" y="-62.5" font-family="Helvetica,sans-Serif" font-size="10.00">vector</text>
</a>
</g>
</g>
<!-- Node3&#45;&gt;Node6 -->
<g id="edge5_Node000003_Node000006" class="edge">
<title>Node3&#45;&gt;Node6</title>
<g id="a_edge5_Node000003_Node000006"><a xlink:title=" ">
<path fill="none" stroke="#63b8ff" d="M159.22,-111.59C173.72,-103.44 194.97,-91.48 211.82,-82"/>
<polygon fill="#63b8ff" stroke="#63b8ff" points="213.33,-85.17 220.33,-77.22 209.9,-79.07 213.33,-85.17"/>
</a>
</g>
</g>
<!-- Node7 -->
<g id="Node000007" class="node">
<title>Node7</title>
<g id="a_Node000007"><a xlink:href="invocable_8hpp_source.html" target="_top" xlink:title=" ">
<polygon fill="white" stroke="#666666" points="198.5,-76 122.5,-76 122.5,-56 198.5,-56 198.5,-76"/>
<text text-anchor="middle" x="160.5" y="-62.5" font-family="Helvetica,sans-Serif" font-size="10.00">invocable.hpp</text>
</a>
</g>
</g>
<!-- Node3&#45;&gt;Node7 -->
<g id="edge6_Node000003_Node000007" class="edge">
<title>Node3&#45;&gt;Node7</title>
<g id="a_edge6_Node000003_Node000007"><a xlink:title=" ">
<path fill="none" stroke="#63b8ff" d="M145.64,-111.59C147.88,-104.86 150.99,-95.53 153.78,-87.15"/>
<polygon fill="#63b8ff" stroke="#63b8ff" points="157.08,-88.33 156.92,-77.73 150.44,-86.11 157.08,-88.33"/>
</a>
</g>
</g>
<!-- Node8&#45;&gt;Node6 -->
<g id="edge8_Node000008_Node000006" class="edge">
<title>Node8&#45;&gt;Node6</title>
<g id="a_edge8_Node000008_Node000006"><a xlink:title=" ">
<path fill="none" stroke="#63b8ff" d="M251.71,-111.59C249.72,-104.86 246.95,-95.53 244.47,-87.15"/>
<polygon fill="#63b8ff" stroke="#63b8ff" points="247.88,-86.34 241.69,-77.75 241.17,-88.33 247.88,-86.34"/>
</a>
</g>
</g>
<!-- Node9 -->
<g id="Node000009" class="node">
<title>Node9</title>
<g id="a_Node000009"><a xlink:title=" ">
<polygon fill="#e0e0e0" stroke="#999999" points="462.12,-76 416.88,-76 416.88,-56 462.12,-56 462.12,-76"/>
<text text-anchor="middle" x="439.5" y="-62.5" font-family="Helvetica,sans-Serif" font-size="10.00">cstdint</text>
</a>
</g>
</g>
<!-- Node8&#45;&gt;Node9 -->
<g id="edge9_Node000008_Node000009" class="edge">
<title>Node8&#45;&gt;Node9</title>
<g id="a_edge9_Node000008_Node000009"><a xlink:title=" ">
<path fill="none" stroke="#63b8ff" d="M286.72,-111.59C320.02,-101.87 371.78,-86.77 405.66,-76.88"/>
<polygon fill="#63b8ff" stroke="#63b8ff" points="406.34,-80.33 414.96,-74.16 404.38,-73.61 406.34,-80.33"/>
</a>
</g>
</g>
<!-- Node10 -->
<g id="Node000010" class="node">
<title>Node10</title>
<g id="a_Node000010"><a xlink:title=" ">
<polygon fill="#e0e0e0" stroke="#999999" points="318.5,-76 278.5,-76 278.5,-56 318.5,-56 318.5,-76"/>
<text text-anchor="middle" x="298.5" y="-62.5" font-family="Helvetica,sans-Serif" font-size="10.00">string</text>
</a>
</g>
</g>
<!-- Node8&#45;&gt;Node10 -->
<g id="edge10_Node000008_Node000010" class="edge">
<title>Node8&#45;&gt;Node10</title>
<g id="a_edge10_Node000008_Node000010"><a xlink:title=" ">
<path fill="none" stroke="#63b8ff" d="M262.16,-111.59C268.09,-104.32 276.49,-94.02 283.71,-85.15"/>
<polygon fill="#63b8ff" stroke="#63b8ff" points="286.36,-87.43 289.97,-77.47 280.94,-83.01 286.36,-87.43"/>
</a>
</g>
</g>
<!-- Node12 -->
<g id="Node000012" class="node">
<title>Node12</title>
<g id="a_Node000012"><a xlink:href="AbstractSocket_8h.html" target="_top" xlink:title="The AbstractSocket class.">
<polygon fill="white" stroke="#666666" points="413.38,-132 321.62,-132 321.62,-112 413.38,-112 413.38,-132"/>
<text text-anchor="middle" x="367.5" y="-118.5" font-family="Helvetica,sans-Serif" font-size="10.00">AbstractSocket.h</text>
</a>
</g>
</g>
<!-- Node11&#45;&gt;Node12 -->
<g id="edge12_Node000011_Node000012" class="edge">
<title>Node11&#45;&gt;Node12</title>
<g id="a_edge12_Node000011_Node000012"><a xlink:title=" ">
<path fill="none" stroke="#63b8ff" d="M353.46,-167.59C355.58,-160.86 358.52,-151.53 361.16,-143.15"/>
<polygon fill="#63b8ff" stroke="#63b8ff" points="364.45,-144.33 364.12,-133.74 357.78,-142.23 364.45,-144.33"/>
</a>
</g>
</g>
<!-- Node12&#45;&gt;Node9 -->
<g id="edge13_Node000012_Node000009" class="edge">
<title>Node12&#45;&gt;Node9</title>
<g id="a_edge13_Node000012_Node000009"><a xlink:title=" ">
<path fill="none" stroke="#63b8ff" d="M380.04,-111.59C390.47,-103.77 405.55,-92.46 417.91,-83.19"/>
<polygon fill="#63b8ff" stroke="#63b8ff" points="419.99,-86.01 425.89,-77.21 415.79,-80.41 419.99,-86.01"/>
</a>
</g>
</g>
<!-- Node12&#45;&gt;Node10 -->
<g id="edge14_Node000012_Node000010" class="edge">
<title>Node12&#45;&gt;Node10</title>
<g id="a_edge14_Node000012_Node000010"><a xlink:title=" ">
<path fill="none" stroke="#63b8ff" d="M355.48,-111.59C345.49,-103.77 331.04,-92.46 319.19,-83.19"/>
<polygon fill="#63b8ff" stroke="#63b8ff" points="321.61,-80.64 311.57,-77.23 317.29,-86.15 321.61,-80.64"/>
</a>
</g>
</g>
<!-- Node13 -->
<g id="Node000013" class="node">
<title>Node13</title>
<g id="a_Node000013"><a xlink:href="AnyData_8h.html" target="_top" xlink:title="The AnyData class.">
<polygon fill="white" stroke="#666666" points="398.75,-76 336.25,-76 336.25,-56 398.75,-56 398.75,-76"/>
<text text-anchor="middle" x="367.5" y="-62.5" font-family="Helvetica,sans-Serif" font-size="10.00">AnyData.h</text>
</a>
</g>
</g>
<!-- Node12&#45;&gt;Node13 -->
<g id="edge15_Node000012_Node000013" class="edge">
<title>Node12&#45;&gt;Node13</title>
<g id="a_edge15_Node000012_Node000013"><a xlink:title=" ">
<path fill="none" stroke="#63b8ff" d="M367.5,-111.59C367.5,-105.01 367.5,-95.96 367.5,-87.73"/>
<polygon fill="#63b8ff" stroke="#63b8ff" points="371,-87.81 367.5,-77.81 364,-87.81 371,-87.81"/>
</a>
</g>
</g>
<!-- Node14 -->
<g id="Node000014" class="node">
<title>Node14</title>
<g id="a_Node000014"><a xlink:title=" ">
<polygon fill="#e0e0e0" stroke="#999999" points="383.38,-20 351.62,-20 351.62,0 383.38,0 383.38,-20"/>
<text text-anchor="middle" x="367.5" y="-6.5" font-family="Helvetica,sans-Serif" font-size="10.00">any</text>
</a>
</g>
</g>
<!-- Node13&#45;&gt;Node14 -->
<g id="edge16_Node000013_Node000014" class="edge">
<title>Node13&#45;&gt;Node14</title>
<g id="a_edge16_Node000013_Node000014"><a xlink:title=" ">
<path fill="none" stroke="#63b8ff" d="M367.5,-55.59C367.5,-49.01 367.5,-39.96 367.5,-31.73"/>
<polygon fill="#63b8ff" stroke="#63b8ff" points="371,-31.81 367.5,-21.81 364,-31.81 371,-31.81"/>
</a>
</g>
</g>
<!-- Node15&#45;&gt;Node9 -->
<g id="edge19_Node000015_Node000009" class="edge">
<title>Node15&#45;&gt;Node9</title>
<g id="a_edge19_Node000015_Node000009"><a xlink:title=" ">
<path fill="none" stroke="#63b8ff" d="M460.95,-167.6C466.39,-154.83 474.2,-131.38 468.5,-112 465.69,-102.45 460.16,-93.02 454.67,-85.27"/>
<polygon fill="#63b8ff" stroke="#63b8ff" points="457.5,-83.21 448.64,-77.4 451.94,-87.47 457.5,-83.21"/>
</a>
</g>
</g>
<!-- Node16 -->
<g id="Node000016" class="node">
<title>Node16</title>
<g id="a_Node000016"><a xlink:title=" ">
<polygon fill="#e0e0e0" stroke="#999999" points="459.9,-132 431.1,-132 431.1,-112 459.9,-112 459.9,-132"/>
<text text-anchor="middle" x="445.5" y="-118.5" font-family="Helvetica,sans-Serif" font-size="10.00">ios</text>
</a>
</g>
</g>
<!-- Node15&#45;&gt;Node16 -->
<g id="edge18_Node000015_Node000016" class="edge">
<title>Node15&#45;&gt;Node16</title>
<g id="a_edge18_Node000015_Node000016"><a xlink:title=" ">
<path fill="none" stroke="#63b8ff" d="M454.58,-167.59C453.23,-160.93 451.36,-151.75 449.66,-143.44"/>
<polygon fill="#63b8ff" stroke="#63b8ff" points="453.12,-142.88 447.7,-133.78 446.26,-144.28 453.12,-142.88"/>
</a>
</g>
</g>
</g>
</svg>
