<?xml version="1.0" encoding="UTF-8" standalone="no"?>
<!DOCTYPE svg PUBLIC "-//W3C//DTD SVG 1.1//EN"
 "http://www.w3.org/Graphics/SVG/1.1/DTD/svg11.dtd">
<!-- Generated by graphviz version 12.2.1 (20241206.2353)
 -->
<!-- Title: Graphical Class Hierarchy Pages: 1 -->
<svg width="342pt" height="278pt"
 viewBox="0.00 0.00 341.50 278.00" xmlns="http://www.w3.org/2000/svg" xmlns:xlink="http://www.w3.org/1999/xlink">
<g id="graph0" class="graph" transform="scale(1 1) rotate(0) translate(4 274)">
<title>Graphical Class Hierarchy</title>
<!-- Node0 -->
<g id="Node000000" class="node">
<title>Node0</title>
<g id="a_Node000000"><a xlink:href="classAsyncFw_1_1AbstractInstance.html" target="_top" xlink:title="The AbstractInstance class.">
<polygon fill="white" stroke="#666666" points="137.5,-139 0,-139 0,-119 137.5,-119 137.5,-139"/>
<text text-anchor="middle" x="68.75" y="-125.5" font-family="Helvetica,sans-Serif" font-size="10.00">AsyncFw::AbstractInstance</text>
</a>
</g>
</g>
<!-- Node1 -->
<g id="Node000001" class="node">
<title>Node1</title>
<g id="a_Node000001"><a xlink:href="classAsyncFw_1_1Instance.html" target="_top" xlink:title=" ">
<polygon fill="white" stroke="#666666" points="306.88,-270 200.12,-270 200.12,-238 306.88,-238 306.88,-270"/>
<text text-anchor="start" x="208.12" y="-256.5" font-family="Helvetica,sans-Serif" font-size="10.00">AsyncFw::Instance&lt;</text>
<text text-anchor="middle" x="253.5" y="-244.5" font-family="Helvetica,sans-Serif" font-size="10.00"> Log &gt;</text>
</a>
</g>
</g>
<!-- Node0&#45;&gt;Node1 -->
<g id="edge3_Node000000_Node000001" class="edge">
<title>Node0&#45;&gt;Node1</title>
<g id="a_edge3_Node000000_Node000001"><a xlink:title=" ">
<path fill="none" stroke="#63b8ff" d="M84.97,-148.31C103.59,-170.73 137.17,-207.38 173.5,-229 181.66,-233.85 190.86,-237.87 200.03,-241.15"/>
<polygon fill="#63b8ff" stroke="#63b8ff" points="87.7,-146.12 78.67,-140.56 82.26,-150.53 87.7,-146.12"/>
</a>
</g>
</g>
<!-- Node2 -->
<g id="Node000002" class="node">
<title>Node2</title>
<g id="a_Node000002"><a xlink:href="classAsyncFw_1_1Instance.html" target="_top" xlink:title=" ">
<polygon fill="white" stroke="#666666" points="333.5,-220 173.5,-220 173.5,-188 333.5,-188 333.5,-220"/>
<text text-anchor="start" x="181.5" y="-206.5" font-family="Helvetica,sans-Serif" font-size="10.00">AsyncFw::Instance&lt;</text>
<text text-anchor="middle" x="253.5" y="-194.5" font-family="Helvetica,sans-Serif" font-size="10.00"> AsyncFw::FileSystemWatcher &gt;</text>
</a>
</g>
</g>
<!-- Node0&#45;&gt;Node2 -->
<g id="edge4_Node000000_Node000002" class="edge">
<title>Node0&#45;&gt;Node2</title>
<g id="a_edge4_Node000000_Node000002"><a xlink:title=" ">
<path fill="none" stroke="#63b8ff" d="M99.23,-144.6C119.73,-155.1 147.86,-168.83 173.5,-179 180.99,-181.97 188.98,-184.84 196.9,-187.51"/>
<polygon fill="#63b8ff" stroke="#63b8ff" points="101.1,-141.62 90.61,-140.14 97.88,-147.84 101.1,-141.62"/>
</a>
</g>
</g>
<!-- Node3 -->
<g id="Node000003" class="node">
<title>Node3</title>
<g id="a_Node000003"><a xlink:href="classAsyncFw_1_1Instance.html" target="_top" xlink:title=" ">
<polygon fill="white" stroke="#666666" points="314.38,-170 192.62,-170 192.62,-138 314.38,-138 314.38,-170"/>
<text text-anchor="start" x="200.62" y="-156.5" font-family="Helvetica,sans-Serif" font-size="10.00">AsyncFw::Instance&lt;</text>
<text text-anchor="middle" x="253.5" y="-144.5" font-family="Helvetica,sans-Serif" font-size="10.00"> AsyncFw::HttpServer &gt;</text>
</a>
</g>
</g>
<!-- Node0&#45;&gt;Node3 -->
<g id="edge5_Node000000_Node000003" class="edge">
<title>Node0&#45;&gt;Node3</title>
<g id="a_edge5_Node000000_Node000003"><a xlink:title=" ">
<path fill="none" stroke="#63b8ff" d="M148.82,-139.82C163.36,-141.81 178.33,-143.85 192.22,-145.75"/>
<polygon fill="#63b8ff" stroke="#63b8ff" points="149.68,-136.4 139.3,-138.51 148.73,-143.34 149.68,-136.4"/>
</a>
</g>
</g>
<!-- Node4 -->
<g id="Node000004" class="node">
<title>Node4</title>
<g id="a_Node000004"><a xlink:href="classAsyncFw_1_1Instance.html" target="_top" xlink:title=" ">
<polygon fill="white" stroke="#666666" points="319.62,-120 187.38,-120 187.38,-88 319.62,-88 319.62,-120"/>
<text text-anchor="start" x="195.38" y="-106.5" font-family="Helvetica,sans-Serif" font-size="10.00">AsyncFw::Instance&lt;</text>
<text text-anchor="middle" x="253.5" y="-94.5" font-family="Helvetica,sans-Serif" font-size="10.00"> AsyncFw::MulticastDns &gt;</text>
</a>
</g>
</g>
<!-- Node0&#45;&gt;Node4 -->
<g id="edge6_Node000000_Node000004" class="edge">
<title>Node0&#45;&gt;Node4</title>
<g id="a_edge6_Node000000_Node000004"><a xlink:title=" ">
<path fill="none" stroke="#63b8ff" d="M148.9,-118.17C161.66,-116.43 174.74,-114.64 187.12,-112.94"/>
<polygon fill="#63b8ff" stroke="#63b8ff" points="148.73,-114.66 139.3,-119.49 149.68,-121.6 148.73,-114.66"/>
</a>
</g>
</g>
<!-- Node5 -->
<g id="Node000005" class="node">
<title>Node5</title>
<g id="a_Node000005"><a xlink:href="classAsyncFw_1_1Instance.html" target="_top" xlink:title=" ">
<polygon fill="white" stroke="#666666" points="315.5,-70 191.5,-70 191.5,-38 315.5,-38 315.5,-70"/>
<text text-anchor="start" x="199.5" y="-56.5" font-family="Helvetica,sans-Serif" font-size="10.00">AsyncFw::Instance&lt;</text>
<text text-anchor="middle" x="253.5" y="-44.5" font-family="Helvetica,sans-Serif" font-size="10.00"> AsyncFw::ThreadPool &gt;</text>
</a>
</g>
</g>
<!-- Node0&#45;&gt;Node5 -->
<g id="edge7_Node000000_Node000005" class="edge">
<title>Node0&#45;&gt;Node5</title>
<g id="a_edge7_Node000000_Node000005"><a xlink:title=" ">
<path fill="none" stroke="#63b8ff" d="M99.23,-113.4C119.73,-102.9 147.86,-89.17 173.5,-79 180.99,-76.03 188.98,-73.16 196.9,-70.49"/>
<polygon fill="#63b8ff" stroke="#63b8ff" points="97.88,-110.16 90.61,-117.86 101.1,-116.38 97.88,-110.16"/>
</a>
</g>
</g>
<!-- Node6 -->
<g id="Node000006" class="node">
<title>Node6</title>
<g id="a_Node000006"><a xlink:href="classAsyncFw_1_1Instance.html" target="_top" xlink:title="The Instance class.">
<polygon fill="white" stroke="#666666" points="315.88,-20 191.12,-20 191.12,0 315.88,0 315.88,-20"/>
<text text-anchor="middle" x="253.5" y="-6.5" font-family="Helvetica,sans-Serif" font-size="10.00">AsyncFw::Instance&lt; T &gt;</text>
</a>
</g>
</g>
<!-- Node0&#45;&gt;Node6 -->
<g id="edge8_Node000000_Node000006" class="edge">
<title>Node0&#45;&gt;Node6</title>
<g id="a_edge8_Node000000_Node000006"><a xlink:title=" ">
<path fill="none" stroke="#63b8ff" d="M84.18,-109.9C102.45,-87.11 136.07,-49.52 173.5,-29 179.81,-25.54 186.74,-22.71 193.79,-20.38"/>
<polygon fill="#63b8ff" stroke="#63b8ff" points="81.66,-107.44 78.26,-117.47 87.18,-111.75 81.66,-107.44"/>
</a>
</g>
</g>
</g>
</svg>
