<?xml version="1.0" encoding="UTF-8" standalone="no"?>
<!DOCTYPE svg PUBLIC "-//W3C//DTD SVG 1.1//EN"
 "http://www.w3.org/Graphics/SVG/1.1/DTD/svg11.dtd">
<!-- Generated by graphviz version 12.2.1 (20241206.2353)
 -->
<!-- Title: Graphical Class Hierarchy Pages: 1 -->
<svg width="631pt" height="173pt"
 viewBox="0.00 0.00 630.75 173.00" xmlns="http://www.w3.org/2000/svg" xmlns:xlink="http://www.w3.org/1999/xlink">
<g id="graph0" class="graph" transform="scale(1 1) rotate(0) translate(4 169)">
<title>Graphical Class Hierarchy</title>
<!-- Node0 -->
<g id="Node000000" class="node">
<title>Node0</title>
<g id="a_Node000000"><a xlink:href="structAsyncFw_1_1AnyData.html" target="_top" xlink:title="The AnyData class.">
<polygon fill="white" stroke="#666666" points="101.5,-70 0,-70 0,-50 101.5,-50 101.5,-70"/>
<text text-anchor="middle" x="50.75" y="-56.5" font-family="Helvetica,sans-Serif" font-size="10.00">AsyncFw::AnyData</text>
</a>
</g>
</g>
<!-- Node1 -->
<g id="Node000001" class="node">
<title>Node1</title>
<g id="a_Node000001"><a xlink:href="classAsyncFw_1_1AbstractSocket.html" target="_top" xlink:title="The AbstractSocket class provides the base functionality for socket.">
<polygon fill="white" stroke="#666666" points="268.25,-108 137.5,-108 137.5,-88 268.25,-88 268.25,-108"/>
<text text-anchor="middle" x="202.88" y="-94.5" font-family="Helvetica,sans-Serif" font-size="10.00">AsyncFw::AbstractSocket</text>
</a>
</g>
</g>
<!-- Node0&#45;&gt;Node1 -->
<g id="edge19_Node000000_Node000001" class="edge">
<title>Node0&#45;&gt;Node1</title>
<g id="a_edge19_Node000000_Node000001"><a xlink:title=" ">
<path fill="none" stroke="#63b8ff" d="M104.09,-73.25C122.59,-77.93 143.13,-83.13 160.59,-87.55"/>
<polygon fill="#63b8ff" stroke="#63b8ff" points="105.19,-69.92 94.64,-70.86 103.47,-76.7 105.19,-69.92"/>
</a>
</g>
</g>
<!-- Node6 -->
<g id="Node000006" class="node">
<title>Node6</title>
<g id="a_Node000006"><a xlink:href="classAsyncFw_1_1AbstractTask.html" target="_top" xlink:title="The AbstractTask class.">
<polygon fill="white" stroke="#666666" points="263.38,-70 142.38,-70 142.38,-50 263.38,-50 263.38,-70"/>
<text text-anchor="middle" x="202.88" y="-56.5" font-family="Helvetica,sans-Serif" font-size="10.00">AsyncFw::AbstractTask</text>
</a>
</g>
</g>
<!-- Node0&#45;&gt;Node6 -->
<g id="edge24_Node000000_Node000006" class="edge">
<title>Node0&#45;&gt;Node6</title>
<g id="a_edge24_Node000000_Node000006"><a xlink:title=" ">
<path fill="none" stroke="#63b8ff" d="M113.14,-60C122.65,-60 132.46,-60 141.94,-60"/>
<polygon fill="#63b8ff" stroke="#63b8ff" points="113.25,-56.5 103.25,-60 113.25,-63.5 113.25,-56.5"/>
</a>
</g>
</g>
<!-- Node8 -->
<g id="Node000008" class="node">
<title>Node8</title>
<g id="a_Node000008"><a xlink:href="structAsyncFw_1_1CoroutineTask_1_1promise__type.html" target="_top" xlink:title="The CoroutineTask::promise_type struct.">
<polygon fill="white" stroke="#666666" points="266,-32 139.75,-32 139.75,0 266,0 266,-32"/>
<text text-anchor="start" x="147.75" y="-18.5" font-family="Helvetica,sans-Serif" font-size="10.00">AsyncFw::CoroutineTask</text>
<text text-anchor="middle" x="202.88" y="-6.5" font-family="Helvetica,sans-Serif" font-size="10.00">::promise_type</text>
</a>
</g>
</g>
<!-- Node0&#45;&gt;Node8 -->
<g id="edge26_Node000000_Node000008" class="edge">
<title>Node0&#45;&gt;Node8</title>
<g id="a_edge26_Node000000_Node000008"><a xlink:title=" ">
<path fill="none" stroke="#63b8ff" d="M97.95,-46.46C113.04,-42.04 129.98,-37.07 145.72,-32.46"/>
<polygon fill="#63b8ff" stroke="#63b8ff" points="97.39,-42.98 88.78,-49.15 99.36,-49.69 97.39,-42.98"/>
</a>
</g>
</g>
<!-- Node2 -->
<g id="Node000002" class="node">
<title>Node2</title>
<g id="a_Node000002"><a xlink:href="classAsyncFw_1_1AbstractTlsSocket.html" target="_top" xlink:title="The AbstractTlsSocket class provides the base functionality for TLS encrypted socket.">
<polygon fill="white" stroke="#666666" points="448.5,-146 304.25,-146 304.25,-126 448.5,-126 448.5,-146"/>
<text text-anchor="middle" x="376.38" y="-132.5" font-family="Helvetica,sans-Serif" font-size="10.00">AsyncFw::AbstractTlsSocket</text>
</a>
</g>
</g>
<!-- Node1&#45;&gt;Node2 -->
<g id="edge20_Node000001_Node000002" class="edge">
<title>Node1&#45;&gt;Node2</title>
<g id="a_edge20_Node000001_Node000002"><a xlink:title=" ">
<path fill="none" stroke="#63b8ff" d="M262.18,-110.92C283.7,-115.69 307.8,-121.03 328.21,-125.55"/>
<polygon fill="#63b8ff" stroke="#63b8ff" points="263.19,-107.56 252.67,-108.81 261.68,-114.39 263.19,-107.56"/>
</a>
</g>
</g>
<!-- Node5 -->
<g id="Node000005" class="node">
<title>Node5</title>
<g id="a_Node000005"><a xlink:href="classAsyncFw_1_1ListenSocket.html" target="_top" xlink:title="The ListenSocket class.">
<polygon fill="white" stroke="#666666" points="436.5,-108 316.25,-108 316.25,-88 436.5,-88 436.5,-108"/>
<text text-anchor="middle" x="376.38" y="-94.5" font-family="Helvetica,sans-Serif" font-size="10.00">AsyncFw::ListenSocket</text>
</a>
</g>
</g>
<!-- Node1&#45;&gt;Node5 -->
<g id="edge23_Node000001_Node000005" class="edge">
<title>Node1&#45;&gt;Node5</title>
<g id="a_edge23_Node000001_Node000005"><a xlink:title=" ">
<path fill="none" stroke="#8b1a1a" d="M280.08,-98C292.06,-98 304.28,-98 315.81,-98"/>
<polygon fill="#8b1a1a" stroke="#8b1a1a" points="280.23,-94.5 270.23,-98 280.23,-101.5 280.23,-94.5"/>
</a>
</g>
</g>
<!-- Node3 -->
<g id="Node000003" class="node">
<title>Node3</title>
<g id="a_Node000003"><a xlink:href="classAsyncFw_1_1DataArraySocket.html" target="_top" xlink:title="The DataArraySocket class.">
<polygon fill="white" stroke="#666666" points="622.75,-165 484.5,-165 484.5,-145 622.75,-145 622.75,-165"/>
<text text-anchor="middle" x="553.62" y="-151.5" font-family="Helvetica,sans-Serif" font-size="10.00">AsyncFw::DataArraySocket</text>
</a>
</g>
</g>
<!-- Node2&#45;&gt;Node3 -->
<g id="edge21_Node000002_Node000003" class="edge">
<title>Node2&#45;&gt;Node3</title>
<g id="a_edge21_Node000002_Node000003"><a xlink:title=" ">
<path fill="none" stroke="#63b8ff" d="M460.19,-144.98C468.21,-145.85 476.29,-146.72 484.15,-147.58"/>
<polygon fill="#63b8ff" stroke="#63b8ff" points="460.73,-141.52 450.41,-143.92 459.98,-148.48 460.73,-141.52"/>
</a>
</g>
</g>
<!-- Node4 -->
<g id="Node000004" class="node">
<title>Node4</title>
<g id="a_Node000004"><a xlink:href="classAsyncFw_1_1HttpSocket.html" target="_top" xlink:title="The HttpSocket class.">
<polygon fill="white" stroke="#666666" points="610,-127 497.25,-127 497.25,-107 610,-107 610,-127"/>
<text text-anchor="middle" x="553.62" y="-113.5" font-family="Helvetica,sans-Serif" font-size="10.00">AsyncFw::HttpSocket</text>
</a>
</g>
</g>
<!-- Node2&#45;&gt;Node4 -->
<g id="edge22_Node000002_Node000004" class="edge">
<title>Node2&#45;&gt;Node4</title>
<g id="a_edge22_Node000002_Node000004"><a xlink:title=" ">
<path fill="none" stroke="#63b8ff" d="M460.25,-127.02C472.67,-125.67 485.21,-124.31 496.88,-123.04"/>
<polygon fill="#63b8ff" stroke="#63b8ff" points="459.98,-123.52 450.41,-128.08 460.73,-130.48 459.98,-123.52"/>
</a>
</g>
</g>
<!-- Node7 -->
<g id="Node000007" class="node">
<title>Node7</title>
<g id="a_Node000007"><a xlink:href="classAsyncFw_1_1Task.html" target="_top" xlink:title="The Task class.">
<polygon fill="white" stroke="#666666" points="431.62,-70 321.12,-70 321.12,-50 431.62,-50 431.62,-70"/>
<text text-anchor="middle" x="376.38" y="-56.5" font-family="Helvetica,sans-Serif" font-size="10.00">AsyncFw::Task&lt; M &gt;</text>
</a>
</g>
</g>
<!-- Node6&#45;&gt;Node7 -->
<g id="edge25_Node000006_Node000007" class="edge">
<title>Node6&#45;&gt;Node7</title>
<g id="a_edge25_Node000006_Node000007"><a xlink:title=" ">
<path fill="none" stroke="#63b8ff" d="M275.35,-60C290.57,-60 306.41,-60 320.88,-60"/>
<polygon fill="#63b8ff" stroke="#63b8ff" points="275.37,-56.5 265.37,-60 275.37,-63.5 275.37,-56.5"/>
</a>
</g>
</g>
</g>
</svg>
