<?xml version="1.0" encoding="UTF-8" standalone="no"?>
<!DOCTYPE svg PUBLIC "-//W3C//DTD SVG 1.1//EN"
 "http://www.w3.org/Graphics/SVG/1.1/DTD/svg11.dtd">
<!-- Generated by graphviz version 12.2.1 (20241206.2353)
 -->
<!-- Title: Graphical Class Hierarchy Pages: 1 -->
<svg width="360pt" height="152pt"
 viewBox="0.00 0.00 359.50 152.00" xmlns="http://www.w3.org/2000/svg" xmlns:xlink="http://www.w3.org/1999/xlink">
<g id="graph0" class="graph" transform="scale(1 1) rotate(0) translate(4 148)">
<title>Graphical Class Hierarchy</title>
<!-- Node0 -->
<g id="Node000000" class="node">
<title>Node0</title>
<g id="a_Node000000"><a xlink:href="classAsyncFw_1_1AbstractFunctionConnector.html" target="_top" xlink:title="The AbstractFunctionConnector class provides the base functionality for FunctionConnector.">
<polygon fill="white" stroke="#666666" points="137.5,-88 0,-88 0,-56 137.5,-56 137.5,-88"/>
<text text-anchor="start" x="8" y="-74.5" font-family="Helvetica,sans-Serif" font-size="10.00">AsyncFw::AbstractFunction</text>
<text text-anchor="middle" x="68.75" y="-62.5" font-family="Helvetica,sans-Serif" font-size="10.00">Connector</text>
</a>
</g>
</g>
<!-- Node1 -->
<g id="Node000001" class="node">
<title>Node1</title>
<g id="a_Node000001"><a xlink:href="classAsyncFw_1_1FunctionConnector.html" target="_top" xlink:title=" ">
<polygon fill="white" stroke="#666666" points="335.38,-144 189.62,-144 189.62,-112 335.38,-112 335.38,-144"/>
<text text-anchor="start" x="197.62" y="-130.5" font-family="Helvetica,sans-Serif" font-size="10.00">AsyncFw::FunctionConnector</text>
<text text-anchor="middle" x="262.5" y="-118.5" font-family="Helvetica,sans-Serif" font-size="10.00">&lt; Args... &gt;</text>
</a>
</g>
</g>
<!-- Node0&#45;&gt;Node1 -->
<g id="edge1_Node000000_Node000001" class="edge">
<title>Node0&#45;&gt;Node1</title>
<g id="a_edge1_Node000000_Node000001"><a xlink:title=" ">
<path fill="none" stroke="#63b8ff" d="M135.32,-91.74C147.98,-95.51 161.15,-99.4 173.5,-103 183.11,-105.8 193.31,-108.74 203.25,-111.57"/>
<polygon fill="#63b8ff" stroke="#63b8ff" points="136.39,-88.41 125.81,-88.9 134.39,-95.11 136.39,-88.41"/>
</a>
</g>
</g>
<!-- Node2 -->
<g id="Node000002" class="node">
<title>Node2</title>
<g id="a_Node000002"><a xlink:href="classAsyncFw_1_1FunctionConnector.html" target="_top" xlink:title=" ">
<polygon fill="white" stroke="#666666" points="351.5,-94 173.5,-94 173.5,-50 351.5,-50 351.5,-94"/>
<text text-anchor="start" x="181.5" y="-80.5" font-family="Helvetica,sans-Serif" font-size="10.00">AsyncFw::FunctionConnector</text>
<text text-anchor="start" x="181.5" y="-68.5" font-family="Helvetica,sans-Serif" font-size="10.00">&lt; const AsyncFw::ApplicationNotifier</text>
<text text-anchor="middle" x="262.5" y="-56.5" font-family="Helvetica,sans-Serif" font-size="10.00">::Value &amp; &gt;</text>
</a>
</g>
</g>
<!-- Node0&#45;&gt;Node2 -->
<g id="edge2_Node000000_Node000002" class="edge">
<title>Node0&#45;&gt;Node2</title>
<g id="a_edge2_Node000000_Node000002"><a xlink:title=" ">
<path fill="none" stroke="#63b8ff" d="M149.29,-72C157.15,-72 165.17,-72 173.12,-72"/>
<polygon fill="#63b8ff" stroke="#63b8ff" points="149.41,-68.5 139.41,-72 149.41,-75.5 149.41,-68.5"/>
</a>
</g>
</g>
<!-- Node3 -->
<g id="Node000003" class="node">
<title>Node3</title>
<g id="a_Node000003"><a xlink:href="classAsyncFw_1_1FunctionConnector.html" target="_top" xlink:title="Provides a sender&#45;to&#45;receivers connection. Receivers can be invoked in their own threads (default beh...">
<polygon fill="white" stroke="#666666" points="335.38,-32 189.62,-32 189.62,0 335.38,0 335.38,-32"/>
<text text-anchor="start" x="197.62" y="-18.5" font-family="Helvetica,sans-Serif" font-size="10.00">AsyncFw::FunctionConnector</text>
<text text-anchor="middle" x="262.5" y="-6.5" font-family="Helvetica,sans-Serif" font-size="10.00">&lt; Args &gt;</text>
</a>
</g>
</g>
<!-- Node0&#45;&gt;Node3 -->
<g id="edge3_Node000000_Node000003" class="edge">
<title>Node0&#45;&gt;Node3</title>
<g id="a_edge3_Node000000_Node000003"><a xlink:title=" ">
<path fill="none" stroke="#63b8ff" d="M135.32,-52.26C147.98,-48.49 161.15,-44.6 173.5,-41 183.11,-38.2 193.31,-35.26 203.25,-32.43"/>
<polygon fill="#63b8ff" stroke="#63b8ff" points="134.39,-48.89 125.81,-55.1 136.39,-55.59 134.39,-48.89"/>
</a>
</g>
</g>
</g>
</svg>
