<?xml version="1.0" encoding="UTF-8" standalone="no"?>
<!DOCTYPE svg PUBLIC "-//W3C//DTD SVG 1.1//EN"
 "http://www.w3.org/Graphics/SVG/1.1/DTD/svg11.dtd">
<!-- Generated by graphviz version 12.2.1 (20241206.2353)
 -->
<!-- Title: Graphical Class Hierarchy Pages: 1 -->
<svg width="342pt" height="178pt"
 viewBox="0.00 0.00 341.50 178.00" xmlns="http://www.w3.org/2000/svg" xmlns:xlink="http://www.w3.org/1999/xlink">
<g id="graph0" class="graph" transform="scale(1 1) rotate(0) translate(4 174)">
<title>Graphical Class Hierarchy</title>
<!-- Node0 -->
<g id="Node000000" class="node">
<title>Node0</title>
<g id="a_Node000000"><a xlink:href="classAsyncFw_1_1AbstractInstance.html" target="_top" xlink:title="The AbstractInstance class.">
<polygon fill="white" stroke="#666666" points="137.5,-89 0,-89 0,-69 137.5,-69 137.5,-89"/>
<text text-anchor="middle" x="68.75" y="-75.5" font-family="Helvetica,sans-Serif" font-size="10.00">AsyncFw::AbstractInstance</text>
</a>
</g>
</g>
<!-- Node1 -->
<g id="Node000001" class="node">
<title>Node1</title>
<g id="a_Node000001"><a xlink:href="classAsyncFw_1_1Instance.html" target="_top" xlink:title=" ">
<polygon fill="white" stroke="#666666" points="306.88,-170 200.12,-170 200.12,-138 306.88,-138 306.88,-170"/>
<text text-anchor="start" x="208.12" y="-156.5" font-family="Helvetica,sans-Serif" font-size="10.00">AsyncFw::Instance&lt;</text>
<text text-anchor="middle" x="253.5" y="-144.5" font-family="Helvetica,sans-Serif" font-size="10.00"> Log &gt;</text>
</a>
</g>
</g>
<!-- Node0&#45;&gt;Node1 -->
<g id="edge3_Node000000_Node000001" class="edge">
<title>Node0&#45;&gt;Node1</title>
<g id="a_edge3_Node000000_Node000001"><a xlink:title=" ">
<path fill="none" stroke="#63b8ff" d="M99.23,-94.6C119.73,-105.1 147.86,-118.83 173.5,-129 181.92,-132.34 190.99,-135.55 199.86,-138.5"/>
<polygon fill="#63b8ff" stroke="#63b8ff" points="101.1,-91.62 90.61,-90.14 97.88,-97.84 101.1,-91.62"/>
</a>
</g>
</g>
<!-- Node2 -->
<g id="Node000002" class="node">
<title>Node2</title>
<g id="a_Node000002"><a xlink:href="classAsyncFw_1_1Instance.html" target="_top" xlink:title=" ">
<polygon fill="white" stroke="#666666" points="333.5,-120 173.5,-120 173.5,-88 333.5,-88 333.5,-120"/>
<text text-anchor="start" x="181.5" y="-106.5" font-family="Helvetica,sans-Serif" font-size="10.00">AsyncFw::Instance&lt;</text>
<text text-anchor="middle" x="253.5" y="-94.5" font-family="Helvetica,sans-Serif" font-size="10.00"> AsyncFw::FileSystemWatcher &gt;</text>
</a>
</g>
</g>
<!-- Node0&#45;&gt;Node2 -->
<g id="edge4_Node000000_Node000002" class="edge">
<title>Node0&#45;&gt;Node2</title>
<g id="a_edge4_Node000000_Node000002"><a xlink:title=" ">
<path fill="none" stroke="#63b8ff" d="M149.05,-89.85C157.09,-90.95 165.26,-92.07 173.3,-93.17"/>
<polygon fill="#63b8ff" stroke="#63b8ff" points="149.68,-86.4 139.3,-88.51 148.73,-93.34 149.68,-86.4"/>
</a>
</g>
</g>
<!-- Node3 -->
<g id="Node000003" class="node">
<title>Node3</title>
<g id="a_Node000003"><a xlink:href="classAsyncFw_1_1Instance.html" target="_top" xlink:title=" ">
<polygon fill="white" stroke="#666666" points="315.5,-70 191.5,-70 191.5,-38 315.5,-38 315.5,-70"/>
<text text-anchor="start" x="199.5" y="-56.5" font-family="Helvetica,sans-Serif" font-size="10.00">AsyncFw::Instance&lt;</text>
<text text-anchor="middle" x="253.5" y="-44.5" font-family="Helvetica,sans-Serif" font-size="10.00"> AsyncFw::ThreadPool &gt;</text>
</a>
</g>
</g>
<!-- Node0&#45;&gt;Node3 -->
<g id="edge5_Node000000_Node000003" class="edge">
<title>Node0&#45;&gt;Node3</title>
<g id="a_edge5_Node000000_Node000003"><a xlink:title=" ">
<path fill="none" stroke="#63b8ff" d="M148.98,-68.16C163.06,-66.24 177.53,-64.26 191.03,-62.41"/>
<polygon fill="#63b8ff" stroke="#63b8ff" points="148.73,-64.66 139.3,-69.49 149.68,-71.6 148.73,-64.66"/>
</a>
</g>
</g>
<!-- Node4 -->
<g id="Node000004" class="node">
<title>Node4</title>
<g id="a_Node000004"><a xlink:href="classAsyncFw_1_1Instance.html" target="_top" xlink:title="The Instance class.">
<polygon fill="white" stroke="#666666" points="315.88,-20 191.12,-20 191.12,0 315.88,0 315.88,-20"/>
<text text-anchor="middle" x="253.5" y="-6.5" font-family="Helvetica,sans-Serif" font-size="10.00">AsyncFw::Instance&lt; T &gt;</text>
</a>
</g>
</g>
<!-- Node0&#45;&gt;Node4 -->
<g id="edge6_Node000000_Node000004" class="edge">
<title>Node0&#45;&gt;Node4</title>
<g id="a_edge6_Node000000_Node000004"><a xlink:title=" ">
<path fill="none" stroke="#63b8ff" d="M98.26,-63.22C118.72,-52.41 147.2,-38.38 173.5,-29 182.54,-25.78 192.34,-22.93 201.88,-20.48"/>
<polygon fill="#63b8ff" stroke="#63b8ff" points="96.84,-60.01 89.68,-67.82 100.15,-66.18 96.84,-60.01"/>
</a>
</g>
</g>
</g>
</svg>
