<?xml version="1.0" encoding="UTF-8" standalone="no"?>
<!DOCTYPE svg PUBLIC "-//W3C//DTD SVG 1.1//EN"
 "http://www.w3.org/Graphics/SVG/1.1/DTD/svg11.dtd">
<!-- Generated by graphviz version 14.1.3 (20260303.0454)
 -->
<!-- Title: Graphical Class Hierarchy Pages: 1 -->
<svg width="817pt" height="78pt"
 viewBox="0.00 0.00 817.00 78.00" xmlns="http://www.w3.org/2000/svg" xmlns:xlink="http://www.w3.org/1999/xlink">
<g id="graph0" class="graph" transform="scale(1 1) rotate(0) translate(4 74)">
<title>Graphical Class Hierarchy</title>
<!-- Node0 -->
<g id="Node000000" class="node">
<title>Node0</title>
<g id="a_Node000000"><a xlink:href="classAsyncFw_1_1AbstractThread.html" target="_top" xlink:title="The AbstractThread class provides the base functionality for thread management.">
<polygon fill="white" stroke="#666666" points="130,-42 0,-42 0,-22 130,-22 130,-42"/>
<text xml:space="preserve" text-anchor="middle" x="65" y="-28.5" font-family="Helvetica,sans-Serif" font-size="10.00">AsyncFw::AbstractThread</text>
</a>
</g>
</g>
<!-- Node1 -->
<g id="Node000001" class="node">
<title>Node1</title>
<g id="a_Node000001"><a xlink:href="classAsyncFw_1_1Thread.html" target="_top" xlink:title="AsyncFw::Thread thread with sockets.">
<polygon fill="white" stroke="#666666" points="259.25,-42 166,-42 166,-22 259.25,-22 259.25,-42"/>
<text xml:space="preserve" text-anchor="middle" x="212.62" y="-28.5" font-family="Helvetica,sans-Serif" font-size="10.00">AsyncFw::Thread</text>
</a>
</g>
</g>
<!-- Node0&#45;&gt;Node1 -->
<g id="edge10_Node000000_Node000001" class="edge">
<title>Node0&#45;&gt;Node1</title>
<g id="a_edge10_Node000000_Node000001"><a xlink:title=" ">
<path fill="none" stroke="#63b8ff" d="M141.77,-32C149.89,-32 157.97,-32 165.59,-32"/>
<polygon fill="#63b8ff" stroke="#63b8ff" points="141.81,-28.5 131.81,-32 141.81,-35.5 141.81,-28.5"/>
</a>
</g>
</g>
<!-- Node2 -->
<g id="Node000002" class="node">
<title>Node2</title>
<g id="a_Node000002"><a xlink:href="classAsyncFw_1_1AbstractThreadPool_1_1Thread.html" target="_top" xlink:title=" ">
<polygon fill="white" stroke="#666666" points="444.75,-70 295.25,-70 295.25,-38 444.75,-38 444.75,-70"/>
<text xml:space="preserve" text-anchor="start" x="303.25" y="-56.5" font-family="Helvetica,sans-Serif" font-size="10.00">AsyncFw::AbstractThreadPool</text>
<text xml:space="preserve" text-anchor="middle" x="370" y="-44.5" font-family="Helvetica,sans-Serif" font-size="10.00">::Thread</text>
</a>
</g>
</g>
<!-- Node1&#45;&gt;Node2 -->
<g id="edge11_Node000001_Node000002" class="edge">
<title>Node1&#45;&gt;Node2</title>
<g id="a_edge11_Node000001_Node000002"><a xlink:title=" ">
<path fill="none" stroke="#63b8ff" d="M270.72,-40.08C278.62,-41.2 286.83,-42.37 294.99,-43.52"/>
<polygon fill="#63b8ff" stroke="#63b8ff" points="271.29,-36.63 260.9,-38.69 270.31,-43.56 271.29,-36.63"/>
</a>
</g>
</g>
<!-- Node5 -->
<g id="Node000005" class="node">
<title>Node5</title>
<g id="a_Node000005"><a xlink:href="classAsyncFw_1_1MainThread.html" target="_top" xlink:title="A static control interface managing the application&#39;s primary execution thread (Main Thread).">
<polygon fill="white" stroke="#666666" points="427.12,-20 312.88,-20 312.88,0 427.12,0 427.12,-20"/>
<text xml:space="preserve" text-anchor="middle" x="370" y="-6.5" font-family="Helvetica,sans-Serif" font-size="10.00">AsyncFw::MainThread</text>
</a>
</g>
</g>
<!-- Node1&#45;&gt;Node5 -->
<g id="edge14_Node000001_Node000005" class="edge">
<title>Node1&#45;&gt;Node5</title>
<g id="a_edge14_Node000001_Node000005"><a xlink:title=" ">
<path fill="none" stroke="#8b1a1a" d="M270.63,-23.93C284.3,-21.99 298.89,-19.93 312.54,-18"/>
<polygon fill="#8b1a1a" stroke="#8b1a1a" points="270.31,-20.44 260.9,-25.31 271.29,-27.37 270.31,-20.44"/>
</a>
</g>
</g>
<!-- Node3 -->
<g id="Node000003" class="node">
<title>Node3</title>
<g id="a_Node000003"><a xlink:href="classAsyncFw_1_1DataArrayAbstractTcp_1_1Thread.html" target="_top" xlink:title=" ">
<polygon fill="white" stroke="#666666" points="625,-70 480.75,-70 480.75,-38 625,-38 625,-70"/>
<text xml:space="preserve" text-anchor="start" x="488.75" y="-56.5" font-family="Helvetica,sans-Serif" font-size="10.00">AsyncFw::DataArrayAbstract</text>
<text xml:space="preserve" text-anchor="middle" x="552.88" y="-44.5" font-family="Helvetica,sans-Serif" font-size="10.00">Tcp::Thread</text>
</a>
</g>
</g>
<!-- Node2&#45;&gt;Node3 -->
<g id="edge12_Node000002_Node000003" class="edge">
<title>Node2&#45;&gt;Node3</title>
<g id="a_edge12_Node000002_Node000003"><a xlink:title=" ">
<path fill="none" stroke="#63b8ff" d="M456.43,-54C464.49,-54 472.61,-54 480.53,-54"/>
<polygon fill="#63b8ff" stroke="#63b8ff" points="456.6,-50.5 446.6,-54 456.6,-57.5 456.6,-50.5"/>
</a>
</g>
</g>
<!-- Node4 -->
<g id="Node000004" class="node">
<title>Node4</title>
<g id="a_Node000004"><a xlink:href="classAsyncFw_1_1DataArrayTcpClient_1_1Thread.html" target="_top" xlink:title=" ">
<polygon fill="white" stroke="#666666" points="809,-70 661,-70 661,-38 809,-38 809,-70"/>
<text xml:space="preserve" text-anchor="start" x="669" y="-56.5" font-family="Helvetica,sans-Serif" font-size="10.00">AsyncFw::DataArrayTcpClient</text>
<text xml:space="preserve" text-anchor="middle" x="735" y="-44.5" font-family="Helvetica,sans-Serif" font-size="10.00">::Thread</text>
</a>
</g>
</g>
<!-- Node3&#45;&gt;Node4 -->
<g id="edge13_Node000003_Node000004" class="edge">
<title>Node3&#45;&gt;Node4</title>
<g id="a_edge13_Node000003_Node000004"><a xlink:title=" ">
<path fill="none" stroke="#63b8ff" d="M636.57,-54C644.58,-54 652.66,-54 660.57,-54"/>
<polygon fill="#63b8ff" stroke="#63b8ff" points="636.84,-50.5 626.84,-54 636.84,-57.5 636.84,-50.5"/>
</a>
</g>
</g>
</g>
</svg>
