<?xml version="1.0" encoding="UTF-8" standalone="no"?>
<!DOCTYPE svg PUBLIC "-//W3C//DTD SVG 1.1//EN"
 "http://www.w3.org/Graphics/SVG/1.1/DTD/svg11.dtd">
<!-- Generated by graphviz version 12.2.1 (20241206.2353)
 -->
<!-- Title: Graphical Class Hierarchy Pages: 1 -->
<svg width="239pt" height="66pt"
 viewBox="0.00 0.00 238.75 66.00" xmlns="http://www.w3.org/2000/svg" xmlns:xlink="http://www.w3.org/1999/xlink">
<g id="graph0" class="graph" transform="scale(1 1) rotate(0) translate(4 62)">
<title>Graphical Class Hierarchy</title>
<!-- Node0 -->
<g id="Node000000" class="node">
<title>Node0</title>
<g id="a_Node000000"><a xlink:href="classAsyncFw_1_1AbstractLog.html" target="_top" xlink:title="The AbstractLog class provides the base functionality for logger.">
<polygon fill="white" stroke="#666666" points="115.75,-58 0,-58 0,-38 115.75,-38 115.75,-58"/>
<text text-anchor="middle" x="57.88" y="-44.5" font-family="Helvetica,sans-Serif" font-size="10.00">AsyncFw::AbstractLog</text>
</a>
</g>
</g>
<!-- Node1 -->
<g id="Node000001" class="node">
<title>Node1</title>
<g id="a_Node000001"><a xlink:href="classAsyncFw_1_1Log.html" target="_top" xlink:title="The Log class.">
<polygon fill="white" stroke="#666666" points="230.75,-39 151.75,-39 151.75,-19 230.75,-19 230.75,-39"/>
<text text-anchor="middle" x="191.25" y="-25.5" font-family="Helvetica,sans-Serif" font-size="10.00">AsyncFw::Log</text>
</a>
</g>
</g>
<!-- Node0&#45;&gt;Node1 -->
<g id="edge7_Node000000_Node000001" class="edge">
<title>Node0&#45;&gt;Node1</title>
<g id="a_edge7_Node000000_Node000001"><a xlink:title=" ">
<path fill="none" stroke="#63b8ff" d="M127.33,-38.1C135.56,-36.91 143.73,-35.73 151.33,-34.63"/>
<polygon fill="#63b8ff" stroke="#63b8ff" points="127.01,-34.61 117.61,-39.5 128.01,-41.54 127.01,-34.61"/>
</a>
</g>
</g>
<!-- Node2 -->
<g id="Node000002" class="node">
<title>Node2</title>
<g id="a_Node000002"><a xlink:href="classAsyncFw_1_1Rrd.html" target="_top" xlink:title="The Rrd class.">
<polygon fill="white" stroke="#666666" points="97.38,-20 18.38,-20 18.38,0 97.38,0 97.38,-20"/>
<text text-anchor="middle" x="57.88" y="-6.5" font-family="Helvetica,sans-Serif" font-size="10.00">AsyncFw::Rrd</text>
</a>
</g>
</g>
<!-- Node2&#45;&gt;Node1 -->
<g id="edge8_Node000002_Node000001" class="edge">
<title>Node2&#45;&gt;Node1</title>
<g id="a_edge8_Node000002_Node000001"><a xlink:title=" ">
<path fill="none" stroke="#63b8ff" d="M108.64,-17.2C122.78,-19.24 137.97,-21.44 151.37,-23.38"/>
<polygon fill="#63b8ff" stroke="#63b8ff" points="109.48,-13.78 99.08,-15.81 108.48,-20.71 109.48,-13.78"/>
</a>
</g>
</g>
</g>
</svg>
