<?xml version="1.0" encoding="UTF-8" standalone="no"?>
<!DOCTYPE svg PUBLIC "-//W3C//DTD SVG 1.1//EN"
 "http://www.w3.org/Graphics/SVG/1.1/DTD/svg11.dtd">
<!-- Generated by graphviz version 12.2.1 (20241206.2353)
 -->
<!-- Title: Graphical Class Hierarchy Pages: 1 -->
<svg width="540pt" height="85pt"
 viewBox="0.00 0.00 539.75 85.00" xmlns="http://www.w3.org/2000/svg" xmlns:xlink="http://www.w3.org/1999/xlink">
<g id="graph0" class="graph" transform="scale(1 1) rotate(0) translate(4 81)">
<title>Graphical Class Hierarchy</title>
<!-- Node0 -->
<g id="Node000000" class="node">
<title>Node0</title>
<g id="a_Node000000"><a xlink:href="classAsyncFw_1_1AbstractThreadPool.html" target="_top" xlink:title="Абстрактный класс для создания пулов управления потоками.">
<polygon fill="white" stroke="#666666" points="149.5,-39 0,-39 0,-19 149.5,-19 149.5,-39"/>
<text text-anchor="middle" x="74.75" y="-25.5" font-family="Helvetica,sans-Serif" font-size="10.00">AsyncFw::AbstractThreadPool</text>
</a>
</g>
</g>
<!-- Node1 -->
<g id="Node000001" class="node">
<title>Node1</title>
<g id="a_Node000001"><a xlink:href="classAsyncFw_1_1DataArrayAbstractTcp.html" target="_top" xlink:title="The DataArrayAbstractTcp class.">
<polygon fill="white" stroke="#666666" points="344.75,-58 185.5,-58 185.5,-38 344.75,-38 344.75,-58"/>
<text text-anchor="middle" x="265.12" y="-44.5" font-family="Helvetica,sans-Serif" font-size="10.00">AsyncFw::DataArrayAbstractTcp</text>
</a>
</g>
</g>
<!-- Node0&#45;&gt;Node1 -->
<g id="edge13_Node000000_Node000001" class="edge">
<title>Node0&#45;&gt;Node1</title>
<g id="a_edge13_Node000000_Node000001"><a xlink:title=" ">
<path fill="none" stroke="#63b8ff" d="M161.12,-37.61C169.09,-38.41 177.14,-39.23 185.05,-40.02"/>
<polygon fill="#63b8ff" stroke="#63b8ff" points="161.74,-34.16 151.44,-36.63 161.03,-41.12 161.74,-34.16"/>
</a>
</g>
</g>
<!-- Node4 -->
<g id="Node000004" class="node">
<title>Node4</title>
<g id="a_Node000004"><a xlink:href="classAsyncFw_1_1ThreadPool.html" target="_top" xlink:title="Управляет набором многократно используемых рабочих потоков для параллельного выполнения задач,...">
<polygon fill="white" stroke="#666666" points="321.5,-20 208.75,-20 208.75,0 321.5,0 321.5,-20"/>
<text text-anchor="middle" x="265.12" y="-6.5" font-family="Helvetica,sans-Serif" font-size="10.00">AsyncFw::ThreadPool</text>
</a>
</g>
</g>
<!-- Node0&#45;&gt;Node4 -->
<g id="edge16_Node000000_Node000004" class="edge">
<title>Node0&#45;&gt;Node4</title>
<g id="a_edge16_Node000000_Node000004"><a xlink:title=" ">
<path fill="none" stroke="#63b8ff" d="M160.98,-20.4C177.05,-18.78 193.48,-17.13 208.36,-15.62"/>
<polygon fill="#63b8ff" stroke="#63b8ff" points="161.03,-16.88 151.44,-21.37 161.74,-23.84 161.03,-16.88"/>
</a>
</g>
</g>
<!-- Node2 -->
<g id="Node000002" class="node">
<title>Node2</title>
<g id="a_Node000002"><a xlink:href="classAsyncFw_1_1DataArrayTcpClient.html" target="_top" xlink:title="The DataArrayTcpClient class.">
<polygon fill="white" stroke="#666666" points="530.25,-77 382.25,-77 382.25,-57 530.25,-57 530.25,-77"/>
<text text-anchor="middle" x="456.25" y="-63.5" font-family="Helvetica,sans-Serif" font-size="10.00">AsyncFw::DataArrayTcpClient</text>
</a>
</g>
</g>
<!-- Node1&#45;&gt;Node2 -->
<g id="edge14_Node000001_Node000002" class="edge">
<title>Node1&#45;&gt;Node2</title>
<g id="a_edge14_Node000001_Node000002"><a xlink:title=" ">
<path fill="none" stroke="#63b8ff" d="M356.41,-57.07C364.95,-57.93 373.54,-58.79 381.89,-59.63"/>
<polygon fill="#63b8ff" stroke="#63b8ff" points="357.04,-53.62 346.74,-56.1 356.34,-60.58 357.04,-53.62"/>
</a>
</g>
</g>
<!-- Node3 -->
<g id="Node000003" class="node">
<title>Node3</title>
<g id="a_Node000003"><a xlink:href="classAsyncFw_1_1DataArrayTcpServer.html" target="_top" xlink:title="The DataArrayTcpServer class.">
<polygon fill="white" stroke="#666666" points="531.75,-39 380.75,-39 380.75,-19 531.75,-19 531.75,-39"/>
<text text-anchor="middle" x="456.25" y="-25.5" font-family="Helvetica,sans-Serif" font-size="10.00">AsyncFw::DataArrayTcpServer</text>
</a>
</g>
</g>
<!-- Node1&#45;&gt;Node3 -->
<g id="edge15_Node000001_Node000003" class="edge">
<title>Node1&#45;&gt;Node3</title>
<g id="a_edge15_Node000001_Node000003"><a xlink:title=" ">
<path fill="none" stroke="#63b8ff" d="M356.5,-38.92C364.5,-38.12 372.54,-37.31 380.39,-36.52"/>
<polygon fill="#63b8ff" stroke="#63b8ff" points="356.34,-35.42 346.74,-39.9 357.04,-42.38 356.34,-35.42"/>
</a>
</g>
</g>
</g>
</svg>
