<?xml version="1.0" encoding="UTF-8" standalone="no"?>
<!DOCTYPE svg PUBLIC "-//W3C//DTD SVG 1.1//EN"
 "http://www.w3.org/Graphics/SVG/1.1/DTD/svg11.dtd">
<!-- Generated by graphviz version 12.2.1 (20241206.2353)
 -->
<!-- Title: Graphical Class Hierarchy Pages: 1 -->
<svg width="342pt" height="328pt"
 viewBox="0.00 0.00 341.50 328.00" xmlns="http://www.w3.org/2000/svg" xmlns:xlink="http://www.w3.org/1999/xlink">
<g id="graph0" class="graph" transform="scale(1 1) rotate(0) translate(4 324)">
<title>Graphical Class Hierarchy</title>
<!-- Node0 -->
<g id="Node000000" class="node">
<title>Node0</title>
<g id="a_Node000000"><a xlink:href="classAsyncFw_1_1AbstractInstance.html" target="_top" xlink:title="The AbstractInstance class.">
<polygon fill="white" stroke="#666666" points="137.5,-164 0,-164 0,-144 137.5,-144 137.5,-164"/>
<text text-anchor="middle" x="68.75" y="-150.5" font-family="Helvetica,sans-Serif" font-size="10.00">AsyncFw::AbstractInstance</text>
</a>
</g>
</g>
<!-- Node1 -->
<g id="Node000001" class="node">
<title>Node1</title>
<g id="a_Node000001"><a xlink:href="classAsyncFw_1_1Instance.html" target="_top" xlink:title=" ">
<polygon fill="white" stroke="#666666" points="306.88,-320 200.12,-320 200.12,-288 306.88,-288 306.88,-320"/>
<text text-anchor="start" x="208.12" y="-306.5" font-family="Helvetica,sans-Serif" font-size="10.00">AsyncFw::Instance&lt;</text>
<text text-anchor="middle" x="253.5" y="-294.5" font-family="Helvetica,sans-Serif" font-size="10.00"> Log &gt;</text>
</a>
</g>
</g>
<!-- Node0&#45;&gt;Node1 -->
<g id="edge4_Node000000_Node000001" class="edge">
<title>Node0&#45;&gt;Node1</title>
<g id="a_edge4_Node000000_Node000001"><a xlink:title=" ">
<path fill="none" stroke="#63b8ff" d="M81.33,-174.2C98.17,-201.8 131.98,-251.06 173.5,-279 181.5,-284.38 190.72,-288.66 199.98,-292.04"/>
<polygon fill="#63b8ff" stroke="#63b8ff" points="84.43,-172.56 76.32,-165.75 78.41,-176.14 84.43,-172.56"/>
</a>
</g>
</g>
<!-- Node2 -->
<g id="Node000002" class="node">
<title>Node2</title>
<g id="a_Node000002"><a xlink:href="classAsyncFw_1_1Instance.html" target="_top" xlink:title=" ">
<polygon fill="white" stroke="#666666" points="330.5,-270 176.5,-270 176.5,-238 330.5,-238 330.5,-270"/>
<text text-anchor="start" x="184.5" y="-256.5" font-family="Helvetica,sans-Serif" font-size="10.00">AsyncFw::Instance&lt;</text>
<text text-anchor="middle" x="253.5" y="-244.5" font-family="Helvetica,sans-Serif" font-size="10.00"> AsyncFw::ApplicationNotifier &gt;</text>
</a>
</g>
</g>
<!-- Node0&#45;&gt;Node2 -->
<g id="edge5_Node000000_Node000002" class="edge">
<title>Node0&#45;&gt;Node2</title>
<g id="a_edge5_Node000000_Node000002"><a xlink:title=" ">
<path fill="none" stroke="#63b8ff" d="M89.94,-171.62C109.97,-188.35 142.13,-213.22 173.5,-229 179.8,-232.17 186.58,-235.04 193.43,-237.61"/>
<polygon fill="#63b8ff" stroke="#63b8ff" points="92.43,-169.14 82.54,-165.34 87.89,-174.48 92.43,-169.14"/>
</a>
</g>
</g>
<!-- Node3 -->
<g id="Node000003" class="node">
<title>Node3</title>
<g id="a_Node000003"><a xlink:href="classAsyncFw_1_1Instance.html" target="_top" xlink:title=" ">
<polygon fill="white" stroke="#666666" points="333.5,-220 173.5,-220 173.5,-188 333.5,-188 333.5,-220"/>
<text text-anchor="start" x="181.5" y="-206.5" font-family="Helvetica,sans-Serif" font-size="10.00">AsyncFw::Instance&lt;</text>
<text text-anchor="middle" x="253.5" y="-194.5" font-family="Helvetica,sans-Serif" font-size="10.00"> AsyncFw::FileSystemWatcher &gt;</text>
</a>
</g>
</g>
<!-- Node0&#45;&gt;Node3 -->
<g id="edge6_Node000000_Node000003" class="edge">
<title>Node0&#45;&gt;Node3</title>
<g id="a_edge6_Node000000_Node000003"><a xlink:title=" ">
<path fill="none" stroke="#63b8ff" d="M119.08,-167.5C141.64,-173.67 168.56,-181.03 192.3,-187.53"/>
<polygon fill="#63b8ff" stroke="#63b8ff" points="120.09,-164.14 109.52,-164.88 118.24,-170.9 120.09,-164.14"/>
</a>
</g>
</g>
<!-- Node4 -->
<g id="Node000004" class="node">
<title>Node4</title>
<g id="a_Node000004"><a xlink:href="classAsyncFw_1_1Instance.html" target="_top" xlink:title=" ">
<polygon fill="white" stroke="#666666" points="314.38,-170 192.62,-170 192.62,-138 314.38,-138 314.38,-170"/>
<text text-anchor="start" x="200.62" y="-156.5" font-family="Helvetica,sans-Serif" font-size="10.00">AsyncFw::Instance&lt;</text>
<text text-anchor="middle" x="253.5" y="-144.5" font-family="Helvetica,sans-Serif" font-size="10.00"> AsyncFw::HttpServer &gt;</text>
</a>
</g>
</g>
<!-- Node0&#45;&gt;Node4 -->
<g id="edge7_Node000000_Node000004" class="edge">
<title>Node0&#45;&gt;Node4</title>
<g id="a_edge7_Node000000_Node000004"><a xlink:title=" ">
<path fill="none" stroke="#63b8ff" d="M149.24,-154C163.66,-154 178.47,-154 192.22,-154"/>
<polygon fill="#63b8ff" stroke="#63b8ff" points="149.31,-150.5 139.31,-154 149.31,-157.5 149.31,-150.5"/>
</a>
</g>
</g>
<!-- Node5 -->
<g id="Node000005" class="node">
<title>Node5</title>
<g id="a_Node000005"><a xlink:href="classAsyncFw_1_1Instance.html" target="_top" xlink:title=" ">
<polygon fill="white" stroke="#666666" points="319.62,-120 187.38,-120 187.38,-88 319.62,-88 319.62,-120"/>
<text text-anchor="start" x="195.38" y="-106.5" font-family="Helvetica,sans-Serif" font-size="10.00">AsyncFw::Instance&lt;</text>
<text text-anchor="middle" x="253.5" y="-94.5" font-family="Helvetica,sans-Serif" font-size="10.00"> AsyncFw::MulticastDns &gt;</text>
</a>
</g>
</g>
<!-- Node0&#45;&gt;Node5 -->
<g id="edge8_Node000000_Node000005" class="edge">
<title>Node0&#45;&gt;Node5</title>
<g id="a_edge8_Node000000_Node000005"><a xlink:title=" ">
<path fill="none" stroke="#63b8ff" d="M119.08,-140.5C141.64,-134.33 168.56,-126.97 192.3,-120.47"/>
<polygon fill="#63b8ff" stroke="#63b8ff" points="118.24,-137.1 109.52,-143.12 120.09,-143.86 118.24,-137.1"/>
</a>
</g>
</g>
<!-- Node6 -->
<g id="Node000006" class="node">
<title>Node6</title>
<g id="a_Node000006"><a xlink:href="classAsyncFw_1_1Instance.html" target="_top" xlink:title=" ">
<polygon fill="white" stroke="#666666" points="315.5,-70 191.5,-70 191.5,-38 315.5,-38 315.5,-70"/>
<text text-anchor="start" x="199.5" y="-56.5" font-family="Helvetica,sans-Serif" font-size="10.00">AsyncFw::Instance&lt;</text>
<text text-anchor="middle" x="253.5" y="-44.5" font-family="Helvetica,sans-Serif" font-size="10.00"> AsyncFw::ThreadPool &gt;</text>
</a>
</g>
</g>
<!-- Node0&#45;&gt;Node6 -->
<g id="edge9_Node000000_Node000006" class="edge">
<title>Node0&#45;&gt;Node6</title>
<g id="a_edge9_Node000000_Node000006"><a xlink:title=" ">
<path fill="none" stroke="#63b8ff" d="M89.94,-136.38C109.97,-119.65 142.13,-94.78 173.5,-79 179.8,-75.83 186.58,-72.96 193.43,-70.39"/>
<polygon fill="#63b8ff" stroke="#63b8ff" points="87.89,-133.52 82.54,-142.66 92.43,-138.86 87.89,-133.52"/>
</a>
</g>
</g>
<!-- Node7 -->
<g id="Node000007" class="node">
<title>Node7</title>
<g id="a_Node000007"><a xlink:href="classAsyncFw_1_1Instance.html" target="_top" xlink:title="The Instance class.">
<polygon fill="white" stroke="#666666" points="315.88,-20 191.12,-20 191.12,0 315.88,0 315.88,-20"/>
<text text-anchor="middle" x="253.5" y="-6.5" font-family="Helvetica,sans-Serif" font-size="10.00">AsyncFw::Instance&lt; T &gt;</text>
</a>
</g>
</g>
<!-- Node0&#45;&gt;Node7 -->
<g id="edge10_Node000000_Node000007" class="edge">
<title>Node0&#45;&gt;Node7</title>
<g id="a_edge10_Node000000_Node000007"><a xlink:title=" ">
<path fill="none" stroke="#63b8ff" d="M80.82,-133.8C97.25,-105.79 130.81,-55.59 173.5,-29 179.01,-25.57 185.09,-22.76 191.35,-20.45"/>
<polygon fill="#63b8ff" stroke="#63b8ff" points="77.85,-131.94 75.95,-142.37 83.93,-135.41 77.85,-131.94"/>
</a>
</g>
</g>
</g>
</svg>
