<?xml version="1.0" encoding="UTF-8" standalone="no"?>
<!DOCTYPE svg PUBLIC "-//W3C//DTD SVG 1.1//EN"
 "http://www.w3.org/Graphics/SVG/1.1/DTD/svg11.dtd">
<!-- Generated by graphviz version 12.2.1 (20241206.2353)
 -->
<!-- Title: Graphical Class Hierarchy Pages: 1 -->
<svg width="634pt" height="127pt"
 viewBox="0.00 0.00 633.75 127.00" xmlns="http://www.w3.org/2000/svg" xmlns:xlink="http://www.w3.org/1999/xlink">
<g id="graph0" class="graph" transform="scale(1 1) rotate(0) translate(4 123)">
<title>Graphical Class Hierarchy</title>
<!-- Node0 -->
<g id="Node000000" class="node">
<title>Node0</title>
<g id="a_Node000000"><a xlink:href="classAsyncFw_1_1AbstractThread_1_1AbstractTask.html" target="_top" xlink:title="The AbstractTask class.">
<polygon fill="white" stroke="#666666" points="130,-119 0,-119 0,-87 130,-87 130,-119"/>
<text text-anchor="start" x="8" y="-105.5" font-family="Helvetica,sans-Serif" font-size="10.00">AsyncFw::AbstractThread</text>
<text text-anchor="middle" x="65" y="-93.5" font-family="Helvetica,sans-Serif" font-size="10.00">::AbstractTask</text>
</a>
</g>
</g>
<!-- Node1 -->
<g id="Node000001" class="node">
<title>Node1</title>
<g id="a_Node000001"><a xlink:href="classAsyncFw_1_1AbstractTask.html" target="_top" xlink:title="The AbstractTask class.">
<polygon fill="white" stroke="#666666" points="291.88,-112 170.88,-112 170.88,-92 291.88,-92 291.88,-112"/>
<text text-anchor="middle" x="231.38" y="-98.5" font-family="Helvetica,sans-Serif" font-size="10.00">AsyncFw::AbstractTask</text>
</a>
</g>
</g>
<!-- Node0&#45;&gt;Node1 -->
<g id="edge11_Node000000_Node000001" class="edge">
<title>Node0&#45;&gt;Node1</title>
<g id="a_edge11_Node000000_Node000001"><a xlink:title=" ">
<path fill="none" stroke="#63b8ff" d="M141.77,-102.54C151.45,-102.48 161.25,-102.42 170.62,-102.36"/>
<polygon fill="#63b8ff" stroke="#63b8ff" points="141.99,-99.04 132.01,-102.6 142.03,-106.04 141.99,-99.04"/>
</a>
</g>
</g>
<!-- Node2 -->
<g id="Node000002" class="node">
<title>Node2</title>
<g id="a_Node000002"><a xlink:href="classAsyncFw_1_1Task.html" target="_top" xlink:title="The Task class.">
<polygon fill="white" stroke="#666666" points="460.12,-112 349.62,-112 349.62,-92 460.12,-92 460.12,-112"/>
<text text-anchor="middle" x="404.88" y="-98.5" font-family="Helvetica,sans-Serif" font-size="10.00">AsyncFw::Task&lt; M &gt;</text>
</a>
</g>
</g>
<!-- Node1&#45;&gt;Node2 -->
<g id="edge12_Node000001_Node000002" class="edge">
<title>Node1&#45;&gt;Node2</title>
<g id="a_edge12_Node000001_Node000002"><a xlink:title=" ">
<path fill="none" stroke="#63b8ff" d="M303.85,-102C319.07,-102 334.91,-102 349.38,-102"/>
<polygon fill="#63b8ff" stroke="#63b8ff" points="303.87,-98.5 293.87,-102 303.87,-105.5 303.87,-98.5"/>
</a>
</g>
</g>
<!-- Node3 -->
<g id="Node000003" class="node">
<title>Node3</title>
<g id="a_Node000003"><a xlink:href="structAsyncFw_1_1AnyData.html" target="_top" xlink:title="The AnyData class.">
<polygon fill="white" stroke="#666666" points="115.75,-69 14.25,-69 14.25,-49 115.75,-49 115.75,-69"/>
<text text-anchor="middle" x="65" y="-55.5" font-family="Helvetica,sans-Serif" font-size="10.00">AsyncFw::AnyData</text>
</a>
</g>
</g>
<!-- Node3&#45;&gt;Node1 -->
<g id="edge17_Node000003_Node000001" class="edge">
<title>Node3&#45;&gt;Node1</title>
<g id="a_edge17_Node000003_Node000001"><a xlink:title=" ">
<path fill="none" stroke="#63b8ff" d="M116.7,-72.26C140.39,-78.46 168.2,-85.74 190.38,-91.54"/>
<polygon fill="#63b8ff" stroke="#63b8ff" points="117.82,-68.94 107.25,-69.79 116.04,-75.71 117.82,-68.94"/>
</a>
</g>
</g>
<!-- Node4 -->
<g id="Node000004" class="node">
<title>Node4</title>
<g id="a_Node000004"><a xlink:href="classAsyncFw_1_1AbstractSocket.html" target="_top" xlink:title="The AbstractSocket class provides the base functionality for socket.">
<polygon fill="white" stroke="#666666" points="296.75,-70 166,-70 166,-50 296.75,-50 296.75,-70"/>
<text text-anchor="middle" x="231.38" y="-56.5" font-family="Helvetica,sans-Serif" font-size="10.00">AsyncFw::AbstractSocket</text>
</a>
</g>
</g>
<!-- Node3&#45;&gt;Node4 -->
<g id="edge13_Node000003_Node000004" class="edge">
<title>Node3&#45;&gt;Node4</title>
<g id="a_edge13_Node000003_Node000004"><a xlink:title=" ">
<path fill="none" stroke="#63b8ff" d="M127.43,-59.37C139.89,-59.45 153.03,-59.53 165.61,-59.61"/>
<polygon fill="#63b8ff" stroke="#63b8ff" points="127.75,-55.88 117.72,-59.31 127.7,-62.88 127.75,-55.88"/>
</a>
</g>
</g>
<!-- Node8 -->
<g id="Node000008" class="node">
<title>Node8</title>
<g id="a_Node000008"><a xlink:href="structAsyncFw_1_1CoroutineTask_1_1promise__type.html" target="_top" xlink:title="The CoroutineTask::promise_type struct.">
<polygon fill="white" stroke="#666666" points="294.5,-32 168.25,-32 168.25,0 294.5,0 294.5,-32"/>
<text text-anchor="start" x="176.25" y="-18.5" font-family="Helvetica,sans-Serif" font-size="10.00">AsyncFw::CoroutineTask</text>
<text text-anchor="middle" x="231.38" y="-6.5" font-family="Helvetica,sans-Serif" font-size="10.00">::promise_type</text>
</a>
</g>
</g>
<!-- Node3&#45;&gt;Node8 -->
<g id="edge18_Node000003_Node000008" class="edge">
<title>Node3&#45;&gt;Node8</title>
<g id="a_edge18_Node000003_Node000008"><a xlink:title=" ">
<path fill="none" stroke="#63b8ff" d="M116.65,-45.75C132.83,-41.52 150.94,-36.78 167.87,-32.35"/>
<polygon fill="#63b8ff" stroke="#63b8ff" points="116.04,-42.29 107.25,-48.21 117.82,-49.06 116.04,-42.29"/>
</a>
</g>
</g>
<!-- Node5 -->
<g id="Node000005" class="node">
<title>Node5</title>
<g id="a_Node000005"><a xlink:href="classAsyncFw_1_1AbstractTlsSocket.html" target="_top" xlink:title="The AbstractTlsSocket class provides the base functionality for TLS encrypted socket.">
<polygon fill="white" stroke="#666666" points="477,-73 332.75,-73 332.75,-53 477,-53 477,-73"/>
<text text-anchor="middle" x="404.88" y="-59.5" font-family="Helvetica,sans-Serif" font-size="10.00">AsyncFw::AbstractTlsSocket</text>
</a>
</g>
</g>
<!-- Node4&#45;&gt;Node5 -->
<g id="edge14_Node000004_Node000005" class="edge">
<title>Node4&#45;&gt;Node5</title>
<g id="a_edge14_Node000004_Node000005"><a xlink:title=" ">
<path fill="none" stroke="#63b8ff" d="M308.65,-61.33C316.53,-61.47 324.52,-61.61 332.35,-61.75"/>
<polygon fill="#63b8ff" stroke="#63b8ff" points="308.78,-57.84 298.73,-61.16 308.66,-64.84 308.78,-57.84"/>
</a>
</g>
</g>
<!-- Node7 -->
<g id="Node000007" class="node">
<title>Node7</title>
<g id="a_Node000007"><a xlink:href="classAsyncFw_1_1ListenSocket.html" target="_top" xlink:title="The ListenSocket class.">
<polygon fill="white" stroke="#666666" points="465,-35 344.75,-35 344.75,-15 465,-15 465,-35"/>
<text text-anchor="middle" x="404.88" y="-21.5" font-family="Helvetica,sans-Serif" font-size="10.00">AsyncFw::ListenSocket</text>
</a>
</g>
</g>
<!-- Node4&#45;&gt;Node7 -->
<g id="edge16_Node000004_Node000007" class="edge">
<title>Node4&#45;&gt;Node7</title>
<g id="a_edge16_Node000004_Node000007"><a xlink:title=" ">
<path fill="none" stroke="#8b1a1a" d="M294.63,-47.29C313.63,-43.42 334.3,-39.2 352.49,-35.49"/>
<polygon fill="#8b1a1a" stroke="#8b1a1a" points="293.95,-43.86 284.85,-49.29 295.35,-50.72 293.95,-43.86"/>
</a>
</g>
</g>
<!-- Node6 -->
<g id="Node000006" class="node">
<title>Node6</title>
<g id="a_Node000006"><a xlink:href="classAsyncFw_1_1HttpSocket.html" target="_top" xlink:title="The HttpSocket class.">
<polygon fill="white" stroke="#666666" points="625.75,-73 513,-73 513,-53 625.75,-53 625.75,-73"/>
<text text-anchor="middle" x="569.38" y="-59.5" font-family="Helvetica,sans-Serif" font-size="10.00">AsyncFw::HttpSocket</text>
</a>
</g>
</g>
<!-- Node5&#45;&gt;Node6 -->
<g id="edge15_Node000005_Node000006" class="edge">
<title>Node5&#45;&gt;Node6</title>
<g id="a_edge15_Node000005_Node000006"><a xlink:title=" ">
<path fill="none" stroke="#63b8ff" d="M488.4,-63C496.66,-63 504.9,-63 512.79,-63"/>
<polygon fill="#63b8ff" stroke="#63b8ff" points="488.66,-59.5 478.66,-63 488.66,-66.5 488.66,-59.5"/>
</a>
</g>
</g>
</g>
</svg>
