<?xml version="1.0" encoding="UTF-8" standalone="no"?>
<!DOCTYPE svg PUBLIC "-//W3C//DTD SVG 1.1//EN"
 "http://www.w3.org/Graphics/SVG/1.1/DTD/svg11.dtd">
<!-- Generated by graphviz version 12.2.1 (20241206.2353)
 -->
<!-- Title: Graphical Class Hierarchy Pages: 1 -->
<svg width="643pt" height="223pt"
 viewBox="0.00 0.00 642.75 223.00" xmlns="http://www.w3.org/2000/svg" xmlns:xlink="http://www.w3.org/1999/xlink">
<g id="graph0" class="graph" transform="scale(1 1) rotate(0) translate(4 219)">
<title>Graphical Class Hierarchy</title>
<!-- Node0 -->
<g id="Node000000" class="node">
<title>Node0</title>
<g id="a_Node000000"><a xlink:href="structAsyncFw_1_1AnyData.html" target="_top" xlink:title="A generic, type&#45;safe data container block wrapper utilizing std::any.">
<polygon fill="white" stroke="#666666" points="101.5,-98 0,-98 0,-78 101.5,-78 101.5,-98"/>
<text text-anchor="middle" x="50.75" y="-84.5" font-family="Helvetica,sans-Serif" font-size="10.00">AsyncFw::AnyData</text>
</a>
</g>
</g>
<!-- Node1 -->
<g id="Node000001" class="node">
<title>Node1</title>
<g id="a_Node000001"><a xlink:href="classAsyncFw_1_1AbstractSocket.html" target="_top" xlink:title="Abstract base class providing core network socket functionality and OS descriptor abstraction.">
<polygon fill="white" stroke="#666666" points="274.25,-158 143.5,-158 143.5,-138 274.25,-138 274.25,-158"/>
<text text-anchor="middle" x="208.88" y="-144.5" font-family="Helvetica,sans-Serif" font-size="10.00">AsyncFw::AbstractSocket</text>
</a>
</g>
</g>
<!-- Node0&#45;&gt;Node1 -->
<g id="edge17_Node000000_Node000001" class="edge">
<title>Node0&#45;&gt;Node1</title>
<g id="a_edge17_Node000000_Node000001"><a xlink:title=" ">
<path fill="none" stroke="#63b8ff" d="M81.06,-103.65C97.37,-111.94 118.21,-121.85 137.5,-129 146.04,-132.17 155.35,-135.05 164.31,-137.57"/>
<polygon fill="#63b8ff" stroke="#63b8ff" points="82.9,-100.66 72.41,-99.18 79.68,-106.88 82.9,-100.66"/>
</a>
</g>
</g>
<!-- Node6 -->
<g id="Node000006" class="node">
<title>Node6</title>
<g id="a_Node000006"><a xlink:href="classAsyncFw_1_1AbstractTask.html" target="_top" xlink:title="Base polymorphic class for tasks with dynamic runtime data encapsulation.">
<polygon fill="white" stroke="#666666" points="269.38,-120 148.38,-120 148.38,-100 269.38,-100 269.38,-120"/>
<text text-anchor="middle" x="208.88" y="-106.5" font-family="Helvetica,sans-Serif" font-size="10.00">AsyncFw::AbstractTask</text>
</a>
</g>
</g>
<!-- Node0&#45;&gt;Node6 -->
<g id="edge22_Node000000_Node000006" class="edge">
<title>Node0&#45;&gt;Node6</title>
<g id="a_edge22_Node000000_Node000006"><a xlink:title=" ">
<path fill="none" stroke="#63b8ff" d="M112.94,-96.62C124.52,-98.25 136.62,-99.96 148.15,-101.58"/>
<polygon fill="#63b8ff" stroke="#63b8ff" points="113.47,-93.16 103.08,-95.23 112.49,-100.09 113.47,-93.16"/>
</a>
</g>
</g>
<!-- Node8 -->
<g id="Node000008" class="node">
<title>Node8</title>
<g id="a_Node000008"><a xlink:href="structAsyncFw_1_1ApplicationNotifier_1_1Value.html" target="_top" xlink:title="The Value struct.">
<polygon fill="white" stroke="#666666" points="280.25,-82 137.5,-82 137.5,-50 280.25,-50 280.25,-82"/>
<text text-anchor="start" x="145.5" y="-68.5" font-family="Helvetica,sans-Serif" font-size="10.00">AsyncFw::ApplicationNotifier</text>
<text text-anchor="middle" x="208.88" y="-56.5" font-family="Helvetica,sans-Serif" font-size="10.00">::Value</text>
</a>
</g>
</g>
<!-- Node0&#45;&gt;Node8 -->
<g id="edge24_Node000000_Node000008" class="edge">
<title>Node0&#45;&gt;Node8</title>
<g id="a_edge24_Node000000_Node000008"><a xlink:title=" ">
<path fill="none" stroke="#63b8ff" d="M112.71,-79.41C120.74,-78.28 129.01,-77.11 137.18,-75.96"/>
<polygon fill="#63b8ff" stroke="#63b8ff" points="112.49,-75.91 103.08,-80.77 113.47,-82.84 112.49,-75.91"/>
</a>
</g>
</g>
<!-- Node9 -->
<g id="Node000009" class="node">
<title>Node9</title>
<g id="a_Node000009"><a xlink:href="structAsyncFw_1_1CoroutineTask_1_1promise__type.html" target="_top" xlink:title="The promise type object required by the C++20 coroutine standard.">
<polygon fill="white" stroke="#666666" points="272,-32 145.75,-32 145.75,0 272,0 272,-32"/>
<text text-anchor="start" x="153.75" y="-18.5" font-family="Helvetica,sans-Serif" font-size="10.00">AsyncFw::CoroutineTask</text>
<text text-anchor="middle" x="208.88" y="-6.5" font-family="Helvetica,sans-Serif" font-size="10.00">::promise_type</text>
</a>
</g>
</g>
<!-- Node0&#45;&gt;Node9 -->
<g id="edge25_Node000000_Node000009" class="edge">
<title>Node0&#45;&gt;Node9</title>
<g id="a_edge25_Node000000_Node000009"><a xlink:title=" ">
<path fill="none" stroke="#63b8ff" d="M78.35,-71.98C95,-62.31 117.1,-50.14 137.5,-41 144.13,-38.03 151.22,-35.16 158.26,-32.5"/>
<polygon fill="#63b8ff" stroke="#63b8ff" points="76.9,-68.77 70.05,-76.86 80.44,-74.81 76.9,-68.77"/>
</a>
</g>
</g>
<!-- Node2 -->
<g id="Node000002" class="node">
<title>Node2</title>
<g id="a_Node000002"><a xlink:href="classAsyncFw_1_1AbstractTlsSocket.html" target="_top" xlink:title="Abstract base class providing Transport Layer Security (TLS/SSL) encryption layers on top of standard...">
<polygon fill="white" stroke="#666666" points="460.5,-196 316.25,-196 316.25,-176 460.5,-176 460.5,-196"/>
<text text-anchor="middle" x="388.38" y="-182.5" font-family="Helvetica,sans-Serif" font-size="10.00">AsyncFw::AbstractTlsSocket</text>
</a>
</g>
</g>
<!-- Node1&#45;&gt;Node2 -->
<g id="edge18_Node000001_Node000002" class="edge">
<title>Node1&#45;&gt;Node2</title>
<g id="a_edge18_Node000001_Node000002"><a xlink:title=" ">
<path fill="none" stroke="#63b8ff" d="M269.91,-160.85C292.26,-165.64 317.34,-171.01 338.56,-175.55"/>
<polygon fill="#63b8ff" stroke="#63b8ff" points="270.84,-157.47 260.33,-158.8 269.37,-164.32 270.84,-157.47"/>
</a>
</g>
</g>
<!-- Node5 -->
<g id="Node000005" class="node">
<title>Node5</title>
<g id="a_Node000005"><a xlink:href="classAsyncFw_1_1ListenSocket.html" target="_top" xlink:title="Server&#45;side socket wrapper specialized for listening and accepting incoming network connections.">
<polygon fill="white" stroke="#666666" points="448.5,-158 328.25,-158 328.25,-138 448.5,-138 448.5,-158"/>
<text text-anchor="middle" x="388.38" y="-144.5" font-family="Helvetica,sans-Serif" font-size="10.00">AsyncFw::ListenSocket</text>
</a>
</g>
</g>
<!-- Node1&#45;&gt;Node5 -->
<g id="edge21_Node000001_Node000005" class="edge">
<title>Node1&#45;&gt;Node5</title>
<g id="a_edge21_Node000001_Node000005"><a xlink:title=" ">
<path fill="none" stroke="#8b1a1a" d="M285.89,-148C299.98,-148 314.51,-148 328.02,-148"/>
<polygon fill="#8b1a1a" stroke="#8b1a1a" points="286.22,-144.5 276.22,-148 286.22,-151.5 286.22,-144.5"/>
</a>
</g>
</g>
<!-- Node3 -->
<g id="Node000003" class="node">
<title>Node3</title>
<g id="a_Node000003"><a xlink:href="classAsyncFw_1_1DataArraySocket.html" target="_top" xlink:title="The DataArraySocket class.">
<polygon fill="white" stroke="#666666" points="634.75,-215 496.5,-215 496.5,-195 634.75,-195 634.75,-215"/>
<text text-anchor="middle" x="565.62" y="-201.5" font-family="Helvetica,sans-Serif" font-size="10.00">AsyncFw::DataArraySocket</text>
</a>
</g>
</g>
<!-- Node2&#45;&gt;Node3 -->
<g id="edge19_Node000002_Node000003" class="edge">
<title>Node2&#45;&gt;Node3</title>
<g id="a_edge19_Node000002_Node000003"><a xlink:title=" ">
<path fill="none" stroke="#63b8ff" d="M472.19,-194.98C480.21,-195.85 488.29,-196.72 496.15,-197.58"/>
<polygon fill="#63b8ff" stroke="#63b8ff" points="472.73,-191.52 462.41,-193.92 471.98,-198.48 472.73,-191.52"/>
</a>
</g>
</g>
<!-- Node4 -->
<g id="Node000004" class="node">
<title>Node4</title>
<g id="a_Node000004"><a xlink:href="classAsyncFw_1_1HttpSocket.html" target="_top" xlink:title="The HttpSocket class.">
<polygon fill="white" stroke="#666666" points="622,-177 509.25,-177 509.25,-157 622,-157 622,-177"/>
<text text-anchor="middle" x="565.62" y="-163.5" font-family="Helvetica,sans-Serif" font-size="10.00">AsyncFw::HttpSocket</text>
</a>
</g>
</g>
<!-- Node2&#45;&gt;Node4 -->
<g id="edge20_Node000002_Node000004" class="edge">
<title>Node2&#45;&gt;Node4</title>
<g id="a_edge20_Node000002_Node000004"><a xlink:title=" ">
<path fill="none" stroke="#63b8ff" d="M472.25,-177.02C484.67,-175.67 497.21,-174.31 508.88,-173.04"/>
<polygon fill="#63b8ff" stroke="#63b8ff" points="471.98,-173.52 462.41,-178.08 472.73,-180.48 471.98,-173.52"/>
</a>
</g>
</g>
<!-- Node7 -->
<g id="Node000007" class="node">
<title>Node7</title>
<g id="a_Node000007"><a xlink:href="classAsyncFw_1_1Task.html" target="_top" xlink:title="A template container to execute custom callable payloads with dynamic data binding.">
<polygon fill="white" stroke="#666666" points="442.5,-120 334.25,-120 334.25,-100 442.5,-100 442.5,-120"/>
<text text-anchor="middle" x="388.38" y="-106.5" font-family="Helvetica,sans-Serif" font-size="10.00">AsyncFw::Task&lt; F &gt;</text>
</a>
</g>
</g>
<!-- Node6&#45;&gt;Node7 -->
<g id="edge23_Node000006_Node000007" class="edge">
<title>Node6&#45;&gt;Node7</title>
<g id="a_edge23_Node000006_Node000007"><a xlink:title=" ">
<path fill="none" stroke="#63b8ff" d="M280.91,-110C298.59,-110 317.23,-110 333.9,-110"/>
<polygon fill="#63b8ff" stroke="#63b8ff" points="280.99,-106.5 270.99,-110 280.99,-113.5 280.99,-106.5"/>
</a>
</g>
</g>
</g>
</svg>
