<?xml version="1.0" encoding="UTF-8" standalone="no"?>
<!DOCTYPE svg PUBLIC "-//W3C//DTD SVG 1.1//EN"
 "http://www.w3.org/Graphics/SVG/1.1/DTD/svg11.dtd">
<!-- Generated by graphviz version 12.2.1 (20241206.2353)
 -->
<!-- Title: Graphical Class Hierarchy Pages: 1 -->
<svg width="371pt" height="936pt"
 viewBox="0.00 0.00 370.75 936.00" xmlns="http://www.w3.org/2000/svg" xmlns:xlink="http://www.w3.org/1999/xlink">
<g id="graph0" class="graph" transform="scale(1 1) rotate(0) translate(4 932)">
<title>Graphical Class Hierarchy</title>
<!-- Node0 -->
<g id="Node000000" class="node">
<title>Node0</title>
<g id="a_Node000000"><a xlink:href="classAsyncFw_1_1AbstractFunctionConnector.html" target="_top" xlink:title="The AbstractFunctionConnector class provides the base functionality for FunctionConnector.">
<polygon fill="white" stroke="#666666" points="137.5,-462 0,-462 0,-430 137.5,-430 137.5,-462"/>
<text text-anchor="start" x="8" y="-448.5" font-family="Helvetica,sans-Serif" font-size="10.00">AsyncFw::AbstractFunction</text>
<text text-anchor="middle" x="68.75" y="-436.5" font-family="Helvetica,sans-Serif" font-size="10.00">Connector</text>
</a>
</g>
</g>
<!-- Node1 -->
<g id="Node000001" class="node">
<title>Node1</title>
<g id="a_Node000001"><a xlink:href="classAsyncFw_1_1FunctionConnector.html" target="_top" xlink:title=" ">
<polygon fill="white" stroke="#666666" points="341,-928 195.25,-928 195.25,-896 341,-896 341,-928"/>
<text text-anchor="start" x="203.25" y="-914.5" font-family="Helvetica,sans-Serif" font-size="10.00">AsyncFw::FunctionConnector</text>
<text text-anchor="middle" x="268.12" y="-902.5" font-family="Helvetica,sans-Serif" font-size="10.00">&lt; Args... &gt;</text>
</a>
</g>
</g>
<!-- Node0&#45;&gt;Node1 -->
<g id="edge1_Node000000_Node000001" class="edge">
<title>Node0&#45;&gt;Node1</title>
<g id="a_edge1_Node000000_Node000001"><a xlink:title=" ">
<path fill="none" stroke="#63b8ff" d="M72.58,-473.76C82,-560.91 115.09,-826.82 173.5,-887 179.59,-893.28 187.07,-898.04 195.13,-901.63"/>
<polygon fill="#63b8ff" stroke="#63b8ff" points="76.08,-473.55 71.54,-463.97 69.11,-474.29 76.08,-473.55"/>
</a>
</g>
</g>
<!-- Node2 -->
<g id="Node000002" class="node">
<title>Node2</title>
<g id="a_Node000002"><a xlink:href="classAsyncFw_1_1FunctionConnector.html" target="_top" xlink:title=" ">
<polygon fill="white" stroke="#666666" points="341,-878 195.25,-878 195.25,-834 341,-834 341,-878"/>
<text text-anchor="start" x="203.25" y="-864.5" font-family="Helvetica,sans-Serif" font-size="10.00">AsyncFw::FunctionConnector</text>
<text text-anchor="start" x="203.25" y="-852.5" font-family="Helvetica,sans-Serif" font-size="10.00">&lt; int, const std::vector</text>
<text text-anchor="middle" x="268.12" y="-840.5" font-family="Helvetica,sans-Serif" font-size="10.00">&lt; std::string &gt; &amp; &gt;</text>
</a>
</g>
</g>
<!-- Node0&#45;&gt;Node2 -->
<g id="edge2_Node000000_Node000002" class="edge">
<title>Node0&#45;&gt;Node2</title>
<g id="a_edge2_Node000000_Node000002"><a xlink:title=" ">
<path fill="none" stroke="#63b8ff" d="M69,-473.35C68.64,-542.06 77.38,-723.69 173.5,-825 179.63,-831.46 187.13,-836.57 195.19,-840.62"/>
<polygon fill="#63b8ff" stroke="#63b8ff" points="72.49,-473.79 69.13,-463.74 65.49,-473.7 72.49,-473.79"/>
</a>
</g>
</g>
<!-- Node3 -->
<g id="Node000003" class="node">
<title>Node3</title>
<g id="a_Node000003"><a xlink:href="classAsyncFw_1_1FunctionConnector.html" target="_top" xlink:title=" ">
<polygon fill="white" stroke="#666666" points="357.12,-816 179.12,-816 179.12,-772 357.12,-772 357.12,-816"/>
<text text-anchor="start" x="187.12" y="-802.5" font-family="Helvetica,sans-Serif" font-size="10.00">AsyncFw::FunctionConnector</text>
<text text-anchor="start" x="187.12" y="-790.5" font-family="Helvetica,sans-Serif" font-size="10.00">&lt; const AsyncFw::ApplicationNotifier</text>
<text text-anchor="middle" x="268.12" y="-778.5" font-family="Helvetica,sans-Serif" font-size="10.00">::Value &amp; &gt;</text>
</a>
</g>
</g>
<!-- Node0&#45;&gt;Node3 -->
<g id="edge3_Node000000_Node000003" class="edge">
<title>Node0&#45;&gt;Node3</title>
<g id="a_edge3_Node000000_Node000003"><a xlink:title=" ">
<path fill="none" stroke="#63b8ff" d="M70.78,-473.76C74.54,-534.7 92.05,-681.26 173.5,-763 176.64,-766.15 180.11,-768.99 183.81,-771.53"/>
<polygon fill="#63b8ff" stroke="#63b8ff" points="74.28,-473.74 70.26,-463.94 67.29,-474.11 74.28,-473.74"/>
</a>
</g>
</g>
<!-- Node4 -->
<g id="Node000004" class="node">
<title>Node4</title>
<g id="a_Node000004"><a xlink:href="classAsyncFw_1_1FunctionConnector.html" target="_top" xlink:title=" ">
<polygon fill="white" stroke="#666666" points="354.88,-754 181.38,-754 181.38,-698 354.88,-698 354.88,-754"/>
<text text-anchor="start" x="189.38" y="-740.5" font-family="Helvetica,sans-Serif" font-size="10.00">AsyncFw::FunctionConnector</text>
<text text-anchor="start" x="189.38" y="-728.5" font-family="Helvetica,sans-Serif" font-size="10.00">&lt; const AsyncFw::DataArraySocket</text>
<text text-anchor="start" x="189.38" y="-716.5" font-family="Helvetica,sans-Serif" font-size="10.00"> *, const AsyncFw::DataArray</text>
<text text-anchor="middle" x="268.12" y="-704.5" font-family="Helvetica,sans-Serif" font-size="10.00"> *, uint32_t &gt;</text>
</a>
</g>
</g>
<!-- Node0&#45;&gt;Node4 -->
<g id="edge4_Node000000_Node000004" class="edge">
<title>Node0&#45;&gt;Node4</title>
<g id="a_edge4_Node000000_Node000004"><a xlink:title=" ">
<path fill="none" stroke="#63b8ff" d="M74.31,-473.4C83.93,-522.95 110.79,-627.97 173.5,-689 176.76,-692.17 180.32,-695.08 184.09,-697.74"/>
<polygon fill="#63b8ff" stroke="#63b8ff" points="77.8,-473.02 72.55,-463.82 70.91,-474.29 77.8,-473.02"/>
</a>
</g>
</g>
<!-- Node5 -->
<g id="Node000005" class="node">
<title>Node5</title>
<g id="a_Node000005"><a xlink:href="classAsyncFw_1_1FunctionConnector.html" target="_top" xlink:title=" ">
<polygon fill="white" stroke="#666666" points="341,-680 195.25,-680 195.25,-648 341,-648 341,-680"/>
<text text-anchor="start" x="203.25" y="-666.5" font-family="Helvetica,sans-Serif" font-size="10.00">AsyncFw::FunctionConnector</text>
<text text-anchor="middle" x="268.12" y="-654.5" font-family="Helvetica,sans-Serif" font-size="10.00">&lt; AbstractSocket::State &gt;</text>
</a>
</g>
</g>
<!-- Node0&#45;&gt;Node5 -->
<g id="edge5_Node000000_Node000005" class="edge">
<title>Node0&#45;&gt;Node5</title>
<g id="a_edge5_Node000000_Node000005"><a xlink:title=" ">
<path fill="none" stroke="#63b8ff" d="M76.86,-473.36C89.24,-515.45 118.8,-595.73 173.5,-639 179.97,-644.11 187.39,-648.19 195.16,-651.43"/>
<polygon fill="#63b8ff" stroke="#63b8ff" points="80.24,-472.46 74.16,-463.79 73.51,-474.36 80.24,-472.46"/>
</a>
</g>
</g>
<!-- Node6 -->
<g id="Node000006" class="node">
<title>Node6</title>
<g id="a_Node000006"><a xlink:href="classAsyncFw_1_1FunctionConnector.html" target="_top" xlink:title=" ">
<polygon fill="white" stroke="#666666" points="341,-630 195.25,-630 195.25,-586 341,-586 341,-630"/>
<text text-anchor="start" x="203.25" y="-616.5" font-family="Helvetica,sans-Serif" font-size="10.00">AsyncFw::FunctionConnector</text>
<text text-anchor="start" x="203.25" y="-604.5" font-family="Helvetica,sans-Serif" font-size="10.00">&lt; const AsyncFw::DataArray</text>
<text text-anchor="middle" x="268.12" y="-592.5" font-family="Helvetica,sans-Serif" font-size="10.00"> *, uint32_t &gt;</text>
</a>
</g>
</g>
<!-- Node0&#45;&gt;Node6 -->
<g id="edge6_Node000000_Node000006" class="edge">
<title>Node0&#45;&gt;Node6</title>
<g id="a_edge6_Node000000_Node000006"><a xlink:title=" ">
<path fill="none" stroke="#63b8ff" d="M83.89,-471.8C101.29,-501.28 133.52,-549.04 173.5,-577 180.09,-581.61 187.42,-585.58 194.99,-588.97"/>
<polygon fill="#63b8ff" stroke="#63b8ff" points="87.14,-470.43 79.12,-463.51 81.07,-473.93 87.14,-470.43"/>
</a>
</g>
</g>
<!-- Node7 -->
<g id="Node000007" class="node">
<title>Node7</title>
<g id="a_Node000007"><a xlink:href="classAsyncFw_1_1FunctionConnector.html" target="_top" xlink:title=" ">
<polygon fill="white" stroke="#666666" points="362.75,-568 173.5,-568 173.5,-536 362.75,-536 362.75,-568"/>
<text text-anchor="start" x="181.5" y="-554.5" font-family="Helvetica,sans-Serif" font-size="10.00">AsyncFw::FunctionConnector</text>
<text text-anchor="middle" x="268.12" y="-542.5" font-family="Helvetica,sans-Serif" font-size="10.00">&lt; const AsyncFw::DataArraySocket * &gt;</text>
</a>
</g>
</g>
<!-- Node0&#45;&gt;Node7 -->
<g id="edge7_Node000000_Node000007" class="edge">
<title>Node0&#45;&gt;Node7</title>
<g id="a_edge7_Node000000_Node000007"><a xlink:title=" ">
<path fill="none" stroke="#63b8ff" d="M94.7,-470.22C114.57,-488.27 143.87,-512.25 173.5,-527 179.98,-530.22 186.92,-533.07 193.99,-535.57"/>
<polygon fill="#63b8ff" stroke="#63b8ff" points="97.08,-467.66 87.37,-463.43 92.32,-472.79 97.08,-467.66"/>
</a>
</g>
</g>
<!-- Node8 -->
<g id="Node000008" class="node">
<title>Node8</title>
<g id="a_Node000008"><a xlink:href="classAsyncFw_1_1FunctionConnector.html" target="_top" xlink:title=" ">
<polygon fill="white" stroke="#666666" points="341,-518 195.25,-518 195.25,-486 341,-486 341,-518"/>
<text text-anchor="start" x="203.25" y="-504.5" font-family="Helvetica,sans-Serif" font-size="10.00">AsyncFw::FunctionConnector</text>
<text text-anchor="middle" x="268.12" y="-492.5" font-family="Helvetica,sans-Serif" font-size="10.00">&lt; const std::string &amp;, int &gt;</text>
</a>
</g>
</g>
<!-- Node0&#45;&gt;Node8 -->
<g id="edge8_Node000000_Node000008" class="edge">
<title>Node0&#45;&gt;Node8</title>
<g id="a_edge8_Node000000_Node000008"><a xlink:title=" ">
<path fill="none" stroke="#63b8ff" d="M134.46,-465.65C147.37,-469.49 160.85,-473.42 173.5,-477 183.46,-479.82 194.03,-482.72 204.36,-485.51"/>
<polygon fill="#63b8ff" stroke="#63b8ff" points="135.81,-462.41 125.23,-462.9 133.81,-469.11 135.81,-462.41"/>
</a>
</g>
</g>
<!-- Node9 -->
<g id="Node000009" class="node">
<title>Node9</title>
<g id="a_Node000009"><a xlink:href="classAsyncFw_1_1FunctionConnector.html" target="_top" xlink:title=" ">
<polygon fill="white" stroke="#666666" points="341,-468 195.25,-468 195.25,-424 341,-424 341,-468"/>
<text text-anchor="start" x="203.25" y="-454.5" font-family="Helvetica,sans-Serif" font-size="10.00">AsyncFw::FunctionConnector</text>
<text text-anchor="start" x="203.25" y="-442.5" font-family="Helvetica,sans-Serif" font-size="10.00">&lt; int, const std::string</text>
<text text-anchor="middle" x="268.12" y="-430.5" font-family="Helvetica,sans-Serif" font-size="10.00"> &amp;, bool * &gt;</text>
</a>
</g>
</g>
<!-- Node0&#45;&gt;Node9 -->
<g id="edge9_Node000000_Node000009" class="edge">
<title>Node0&#45;&gt;Node9</title>
<g id="a_edge9_Node000000_Node000009"><a xlink:title=" ">
<path fill="none" stroke="#63b8ff" d="M149.32,-446C164.39,-446 180.07,-446 194.89,-446"/>
<polygon fill="#63b8ff" stroke="#63b8ff" points="149.47,-442.5 139.47,-446 149.47,-449.5 149.47,-442.5"/>
</a>
</g>
</g>
<!-- Node10 -->
<g id="Node000010" class="node">
<title>Node10</title>
<g id="a_Node000010"><a xlink:href="classAsyncFw_1_1FunctionConnector.html" target="_top" xlink:title=" ">
<polygon fill="white" stroke="#666666" points="341,-406 195.25,-406 195.25,-362 341,-362 341,-406"/>
<text text-anchor="start" x="203.25" y="-392.5" font-family="Helvetica,sans-Serif" font-size="10.00">AsyncFw::FunctionConnector</text>
<text text-anchor="start" x="203.25" y="-380.5" font-family="Helvetica,sans-Serif" font-size="10.00">&lt; const AbstractSocket::</text>
<text text-anchor="middle" x="268.12" y="-368.5" font-family="Helvetica,sans-Serif" font-size="10.00">State &gt;</text>
</a>
</g>
</g>
<!-- Node0&#45;&gt;Node10 -->
<g id="edge10_Node000000_Node000010" class="edge">
<title>Node0&#45;&gt;Node10</title>
<g id="a_edge10_Node000000_Node000010"><a xlink:title=" ">
<path fill="none" stroke="#63b8ff" d="M132.95,-426.15C152.89,-419.88 175.07,-412.92 195.55,-406.48"/>
<polygon fill="#63b8ff" stroke="#63b8ff" points="132.06,-422.76 123.57,-429.09 134.16,-429.44 132.06,-422.76"/>
</a>
</g>
</g>
<!-- Node11 -->
<g id="Node000011" class="node">
<title>Node11</title>
<g id="a_Node000011"><a xlink:href="classAsyncFw_1_1FunctionConnector.html" target="_top" xlink:title=" ">
<polygon fill="white" stroke="#666666" points="348.88,-344 187.38,-344 187.38,-312 348.88,-312 348.88,-344"/>
<text text-anchor="start" x="195.38" y="-330.5" font-family="Helvetica,sans-Serif" font-size="10.00">AsyncFw::FunctionConnector</text>
<text text-anchor="middle" x="268.12" y="-318.5" font-family="Helvetica,sans-Serif" font-size="10.00">&lt; const AsyncFw::DataArray &amp; &gt;</text>
</a>
</g>
</g>
<!-- Node0&#45;&gt;Node11 -->
<g id="edge11_Node000000_Node000011" class="edge">
<title>Node0&#45;&gt;Node11</title>
<g id="a_edge11_Node000000_Node000011"><a xlink:title=" ">
<path fill="none" stroke="#63b8ff" d="M91.1,-421.19C110.55,-400.1 141.11,-370.52 173.5,-353 179.57,-349.72 186.09,-346.85 192.77,-344.34"/>
<polygon fill="#63b8ff" stroke="#63b8ff" points="88.58,-418.76 84.48,-428.53 93.78,-423.44 88.58,-418.76"/>
</a>
</g>
</g>
<!-- Node12 -->
<g id="Node000012" class="node">
<title>Node12</title>
<g id="a_Node000012"><a xlink:href="classAsyncFw_1_1FunctionConnector.html" target="_top" xlink:title=" ">
<polygon fill="white" stroke="#666666" points="341,-294 195.25,-294 195.25,-262 341,-262 341,-294"/>
<text text-anchor="start" x="203.25" y="-280.5" font-family="Helvetica,sans-Serif" font-size="10.00">AsyncFw::FunctionConnector</text>
<text text-anchor="middle" x="268.12" y="-268.5" font-family="Helvetica,sans-Serif" font-size="10.00">&lt; int &gt;</text>
</a>
</g>
</g>
<!-- Node0&#45;&gt;Node12 -->
<g id="edge12_Node000000_Node000012" class="edge">
<title>Node0&#45;&gt;Node12</title>
<g id="a_edge12_Node000000_Node000012"><a xlink:title=" ">
<path fill="none" stroke="#63b8ff" d="M81.75,-419.85C97.95,-387.48 129.89,-332.96 173.5,-303 180.02,-298.52 187.3,-294.85 194.84,-291.83"/>
<polygon fill="#63b8ff" stroke="#63b8ff" points="78.74,-418.02 77.52,-428.55 85.04,-421.08 78.74,-418.02"/>
</a>
</g>
</g>
<!-- Node13 -->
<g id="Node000013" class="node">
<title>Node13</title>
<g id="a_Node000013"><a xlink:href="classAsyncFw_1_1FunctionConnector.html" target="_top" xlink:title=" ">
<polygon fill="white" stroke="#666666" points="346.25,-244 190,-244 190,-200 346.25,-200 346.25,-244"/>
<text text-anchor="start" x="198" y="-230.5" font-family="Helvetica,sans-Serif" font-size="10.00">AsyncFw::FunctionConnector</text>
<text text-anchor="start" x="198" y="-218.5" font-family="Helvetica,sans-Serif" font-size="10.00">&lt; const AsyncFw::MulticastDns</text>
<text text-anchor="middle" x="268.12" y="-206.5" font-family="Helvetica,sans-Serif" font-size="10.00">::Host &amp; &gt;</text>
</a>
</g>
</g>
<!-- Node0&#45;&gt;Node13 -->
<g id="edge13_Node000000_Node000013" class="edge">
<title>Node0&#45;&gt;Node13</title>
<g id="a_edge13_Node000000_Node000013"><a xlink:title=" ">
<path fill="none" stroke="#63b8ff" d="M77.27,-418.71C90.12,-377.05 120.23,-297.75 173.5,-253 178.48,-248.82 184.05,-245.19 189.91,-242.05"/>
<polygon fill="#63b8ff" stroke="#63b8ff" points="73.95,-417.6 74.46,-428.19 80.66,-419.59 73.95,-417.6"/>
</a>
</g>
</g>
<!-- Node14 -->
<g id="Node000014" class="node">
<title>Node14</title>
<g id="a_Node000014"><a xlink:href="classAsyncFw_1_1FunctionConnector.html" target="_top" xlink:title=" ">
<polygon fill="white" stroke="#666666" points="344.75,-182 191.5,-182 191.5,-150 344.75,-150 344.75,-182"/>
<text text-anchor="start" x="199.5" y="-168.5" font-family="Helvetica,sans-Serif" font-size="10.00">AsyncFw::FunctionConnector</text>
<text text-anchor="middle" x="268.12" y="-156.5" font-family="Helvetica,sans-Serif" font-size="10.00">&lt; AbstractThread::PollEvents &gt;</text>
</a>
</g>
</g>
<!-- Node0&#45;&gt;Node14 -->
<g id="edge14_Node000000_Node000014" class="edge">
<title>Node0&#45;&gt;Node14</title>
<g id="a_edge14_Node000000_Node000014"><a xlink:title=" ">
<path fill="none" stroke="#63b8ff" d="M72.93,-418.38C80.47,-365.99 104.3,-252.02 173.5,-191 178.8,-186.33 184.88,-182.51 191.34,-179.4"/>
<polygon fill="#63b8ff" stroke="#63b8ff" points="69.47,-417.85 71.62,-428.23 76.41,-418.78 69.47,-417.85"/>
</a>
</g>
</g>
<!-- Node15 -->
<g id="Node000015" class="node">
<title>Node15</title>
<g id="a_Node000015"><a xlink:href="classAsyncFw_1_1FunctionConnector.html" target="_top" xlink:title=" ">
<polygon fill="white" stroke="#666666" points="341,-132 195.25,-132 195.25,-100 341,-100 341,-132"/>
<text text-anchor="start" x="203.25" y="-118.5" font-family="Helvetica,sans-Serif" font-size="10.00">AsyncFw::FunctionConnector</text>
<text text-anchor="middle" x="268.12" y="-106.5" font-family="Helvetica,sans-Serif" font-size="10.00">&lt; State &gt;</text>
</a>
</g>
</g>
<!-- Node0&#45;&gt;Node15 -->
<g id="edge15_Node000000_Node000015" class="edge">
<title>Node0&#45;&gt;Node15</title>
<g id="a_edge15_Node000000_Node000015"><a xlink:title=" ">
<path fill="none" stroke="#63b8ff" d="M70.83,-418.13C74.72,-358.28 92.46,-216.79 173.5,-141 179.64,-135.25 186.96,-130.8 194.75,-127.35"/>
<polygon fill="#63b8ff" stroke="#63b8ff" points="67.34,-417.92 70.28,-428.09 74.33,-418.3 67.34,-417.92"/>
</a>
</g>
</g>
<!-- Node16 -->
<g id="Node000016" class="node">
<title>Node16</title>
<g id="a_Node000016"><a xlink:href="classAsyncFw_1_1FunctionConnector.html" target="_top" xlink:title=" ">
<polygon fill="white" stroke="#666666" points="341,-82 195.25,-82 195.25,-50 341,-50 341,-82"/>
<text text-anchor="start" x="203.25" y="-68.5" font-family="Helvetica,sans-Serif" font-size="10.00">AsyncFw::FunctionConnector</text>
<text text-anchor="middle" x="268.12" y="-56.5" font-family="Helvetica,sans-Serif" font-size="10.00">&lt; const std::string &amp;, bool &gt;</text>
</a>
</g>
</g>
<!-- Node0&#45;&gt;Node16 -->
<g id="edge16_Node000000_Node000016" class="edge">
<title>Node0&#45;&gt;Node16</title>
<g id="a_edge16_Node000000_Node000016"><a xlink:title=" ">
<path fill="none" stroke="#63b8ff" d="M69.26,-418.7C69.62,-352.51 80.1,-182.24 173.5,-91 179.64,-85 187.05,-80.41 194.97,-76.88"/>
<polygon fill="#63b8ff" stroke="#63b8ff" points="65.76,-418.3 69.29,-428.29 72.76,-418.28 65.76,-418.3"/>
</a>
</g>
</g>
<!-- Node17 -->
<g id="Node000017" class="node">
<title>Node17</title>
<g id="a_Node000017"><a xlink:href="classAsyncFw_1_1FunctionConnector.html" target="_top" xlink:title="Provides a sender&#45;to&#45;receivers connection. Receivers can be invoked in their own threads (default beh...">
<polygon fill="white" stroke="#666666" points="341,-32 195.25,-32 195.25,0 341,0 341,-32"/>
<text text-anchor="start" x="203.25" y="-18.5" font-family="Helvetica,sans-Serif" font-size="10.00">AsyncFw::FunctionConnector</text>
<text text-anchor="middle" x="268.12" y="-6.5" font-family="Helvetica,sans-Serif" font-size="10.00">&lt; Args &gt;</text>
</a>
</g>
</g>
<!-- Node0&#45;&gt;Node17 -->
<g id="edge17_Node000000_Node000017" class="edge">
<title>Node0&#45;&gt;Node17</title>
<g id="a_edge17_Node000000_Node000017"><a xlink:title=" ">
<path fill="none" stroke="#63b8ff" d="M73.15,-418.64C83.87,-336.71 119.47,-95.58 173.5,-41 179.54,-34.9 186.88,-30.24 194.78,-26.69"/>
<polygon fill="#63b8ff" stroke="#63b8ff" points="69.69,-418.09 71.89,-428.46 76.63,-418.98 69.69,-418.09"/>
</a>
</g>
</g>
</g>
</svg>
