<?xml version="1.0" encoding="UTF-8" standalone="no"?>
<!DOCTYPE svg PUBLIC "-//W3C//DTD SVG 1.1//EN"
 "http://www.w3.org/Graphics/SVG/1.1/DTD/svg11.dtd">
<!-- Generated by graphviz version 14.1.3 (20260303.0454)
 -->
<!-- Title: main/Instance.h Pages: 1 -->
<svg width="1073pt" height="196pt"
 viewBox="0.00 0.00 1073.00 196.00" xmlns="http://www.w3.org/2000/svg" xmlns:xlink="http://www.w3.org/1999/xlink">
<g id="graph0" class="graph" transform="scale(1 1) rotate(0) translate(4 192)">
<title>main/Instance.h</title>
<!-- Node1 -->
<g id="Node000001" class="node">
<title>Node1</title>
<g id="a_Node000001"><a xlink:title="The AbstractInstance and Instance classes.">
<polygon fill="#999999" stroke="#666666" points="483.38,-188 397.62,-188 397.62,-168 483.38,-168 483.38,-188"/>
<text xml:space="preserve" text-anchor="middle" x="440.5" y="-174.5" font-family="Helvetica,sans-Serif" font-size="10.00">main/Instance.h</text>
</a>
</g>
</g>
<!-- Node2 -->
<g id="Node000002" class="node">
<title>Node2</title>
<g id="a_Node000002"><a xlink:href="ApplicationNotifier_8h.html" target="_top" xlink:title="The ApplicationNotifier class.">
<polygon fill="white" stroke="#666666" points="127,-132 0,-132 0,-112 127,-112 127,-132"/>
<text xml:space="preserve" text-anchor="middle" x="63.5" y="-118.5" font-family="Helvetica,sans-Serif" font-size="10.00">main/ApplicationNotifier.h</text>
</a>
</g>
</g>
<!-- Node1&#45;&gt;Node2 -->
<g id="edge1_Node000001_Node000002" class="edge">
<title>Node1&#45;&gt;Node2</title>
<g id="a_edge1_Node000001_Node000002"><a xlink:title=" ">
<path fill="none" stroke="#63b8ff" d="M385.86,-169.17C317.27,-159.35 199.84,-142.53 127.24,-132.13"/>
<polygon fill="#63b8ff" stroke="#63b8ff" points="385.36,-172.64 395.76,-170.59 386.35,-165.71 385.36,-172.64"/>
</a>
</g>
</g>
<!-- Node3 -->
<g id="Node000003" class="node">
<title>Node3</title>
<g id="a_Node000003"><a xlink:href="FileSystemWatcher_8h.html" target="_top" xlink:title="The FileSystemWatcher class.">
<polygon fill="white" stroke="#666666" points="278,-132 145,-132 145,-112 278,-112 278,-132"/>
<text xml:space="preserve" text-anchor="middle" x="211.5" y="-118.5" font-family="Helvetica,sans-Serif" font-size="10.00">main/FileSystemWatcher.h</text>
</a>
</g>
</g>
<!-- Node1&#45;&gt;Node3 -->
<g id="edge2_Node000001_Node000003" class="edge">
<title>Node1&#45;&gt;Node3</title>
<g id="a_edge2_Node000001_Node000003"><a xlink:title=" ">
<path fill="none" stroke="#63b8ff" d="M389.35,-164.94C347.76,-155.13 289.89,-141.49 251.6,-132.46"/>
<polygon fill="#63b8ff" stroke="#63b8ff" points="388.34,-168.3 398.88,-167.18 389.95,-161.48 388.34,-168.3"/>
</a>
</g>
</g>
<!-- Node4 -->
<g id="Node000004" class="node">
<title>Node4</title>
<g id="a_Node000004"><a xlink:href="HttpServer_8h.html" target="_top" xlink:title="The HttpServer class.">
<polygon fill="white" stroke="#666666" points="390.88,-132 296.12,-132 296.12,-112 390.88,-112 390.88,-132"/>
<text xml:space="preserve" text-anchor="middle" x="343.5" y="-118.5" font-family="Helvetica,sans-Serif" font-size="10.00">main/HttpServer.h</text>
</a>
</g>
</g>
<!-- Node1&#45;&gt;Node4 -->
<g id="edge3_Node000001_Node000004" class="edge">
<title>Node1&#45;&gt;Node4</title>
<g id="a_edge3_Node000001_Node000004"><a xlink:title=" ">
<path fill="none" stroke="#63b8ff" d="M413.7,-162.08C396.7,-152.62 375.22,-140.66 360.53,-132.48"/>
<polygon fill="#63b8ff" stroke="#63b8ff" points="411.84,-165.05 422.28,-166.86 415.25,-158.94 411.84,-165.05"/>
</a>
</g>
</g>
<!-- Node5 -->
<g id="Node000005" class="node">
<title>Node5</title>
<g id="a_Node000005"><a xlink:href="Log_8h.html" target="_top" xlink:title="The AbstractLog and Log classes.">
<polygon fill="white" stroke="#666666" points="472.5,-132 408.5,-132 408.5,-112 472.5,-112 472.5,-132"/>
<text xml:space="preserve" text-anchor="middle" x="440.5" y="-118.5" font-family="Helvetica,sans-Serif" font-size="10.00">main/Log.h</text>
</a>
</g>
</g>
<!-- Node1&#45;&gt;Node5 -->
<g id="edge4_Node000001_Node000005" class="edge">
<title>Node1&#45;&gt;Node5</title>
<g id="a_edge4_Node000001_Node000005"><a xlink:title=" ">
<path fill="none" stroke="#63b8ff" d="M440.5,-156.13C440.5,-147.9 440.5,-138.85 440.5,-132.3"/>
<polygon fill="#63b8ff" stroke="#63b8ff" points="437,-156.08 440.5,-166.08 444,-156.08 437,-156.08"/>
</a>
</g>
</g>
<!-- Node6 -->
<g id="Node000006" class="node">
<title>Node6</title>
<g id="a_Node000006"><a xlink:href="MainThread_8h.html" target="_top" xlink:title="The MainThread class.">
<polygon fill="white" stroke="#666666" points="590.12,-132 490.88,-132 490.88,-112 590.12,-112 590.12,-132"/>
<text xml:space="preserve" text-anchor="middle" x="540.5" y="-118.5" font-family="Helvetica,sans-Serif" font-size="10.00">main/MainThread.h</text>
</a>
</g>
</g>
<!-- Node1&#45;&gt;Node6 -->
<g id="edge5_Node000001_Node000006" class="edge">
<title>Node1&#45;&gt;Node6</title>
<g id="a_edge5_Node000001_Node000006"><a xlink:title=" ">
<path fill="none" stroke="#63b8ff" d="M467.63,-162.35C485.24,-152.84 507.65,-140.74 522.95,-132.48"/>
<polygon fill="#63b8ff" stroke="#63b8ff" points="466.39,-159.04 459.25,-166.87 469.71,-165.2 466.39,-159.04"/>
</a>
</g>
</g>
<!-- Node7 -->
<g id="Node000007" class="node">
<title>Node7</title>
<g id="a_Node000007"><a xlink:href="MulticastDns_8h.html" target="_top" xlink:title="The MulticastDns class.">
<polygon fill="white" stroke="#666666" points="714.5,-132 608.5,-132 608.5,-112 714.5,-112 714.5,-132"/>
<text xml:space="preserve" text-anchor="middle" x="661.5" y="-118.5" font-family="Helvetica,sans-Serif" font-size="10.00">main/MulticastDns.h</text>
</a>
</g>
</g>
<!-- Node1&#45;&gt;Node7 -->
<g id="edge6_Node000001_Node000007" class="edge">
<title>Node1&#45;&gt;Node7</title>
<g id="a_edge6_Node000001_Node000007"><a xlink:title=" ">
<path fill="none" stroke="#63b8ff" d="M490.38,-164.81C530.48,-155.01 586,-141.45 622.8,-132.46"/>
<polygon fill="#63b8ff" stroke="#63b8ff" points="489.6,-161.4 480.72,-167.17 491.26,-168.2 489.6,-161.4"/>
</a>
</g>
</g>
<!-- Node8 -->
<g id="Node000008" class="node">
<title>Node8</title>
<g id="a_Node000008"><a xlink:href="ThreadPool_8h.html" target="_top" xlink:title="The AbstractThreadPool and ThreadPool classes.">
<polygon fill="white" stroke="#666666" points="830.38,-132 732.62,-132 732.62,-112 830.38,-112 830.38,-132"/>
<text xml:space="preserve" text-anchor="middle" x="781.5" y="-118.5" font-family="Helvetica,sans-Serif" font-size="10.00">main/ThreadPool.h</text>
</a>
</g>
</g>
<!-- Node1&#45;&gt;Node8 -->
<g id="edge7_Node000001_Node000008" class="edge">
<title>Node1&#45;&gt;Node8</title>
<g id="a_edge7_Node000001_Node000008"><a xlink:title=" ">
<path fill="none" stroke="#63b8ff" d="M494.99,-168.37C560.46,-158 669.33,-140.76 732.33,-130.79"/>
<polygon fill="#63b8ff" stroke="#63b8ff" points="494.51,-164.9 485.18,-169.92 495.61,-171.82 494.51,-164.9"/>
</a>
</g>
</g>
<!-- Node9 -->
<g id="Node000009" class="node">
<title>Node9</title>
<g id="a_Node000009"><a xlink:href="Coroutine_8h.html" target="_top" xlink:title="The CoroutineTask, CoroutineAwait, CoroutineInvokeAwait structs.">
<polygon fill="white" stroke="#666666" points="758.62,-76 668.38,-76 668.38,-56 758.62,-56 758.62,-76"/>
<text xml:space="preserve" text-anchor="middle" x="713.5" y="-62.5" font-family="Helvetica,sans-Serif" font-size="10.00">main/Coroutine.h</text>
</a>
</g>
</g>
<!-- Node8&#45;&gt;Node9 -->
<g id="edge8_Node000008_Node000009" class="edge">
<title>Node8&#45;&gt;Node9</title>
<g id="a_edge8_Node000008_Node000009"><a xlink:title=" ">
<path fill="none" stroke="#63b8ff" d="M760.95,-104.68C749.25,-95.39 735.02,-84.09 725.21,-76.3"/>
<polygon fill="#63b8ff" stroke="#63b8ff" points="758.46,-107.17 768.47,-110.65 762.82,-101.69 758.46,-107.17"/>
</a>
</g>
</g>
<!-- Node12 -->
<g id="Node000012" class="node">
<title>Node12</title>
<g id="a_Node000012"><a xlink:href="DataArrayAbstractTcp_8h.html" target="_top" xlink:title="The DataArrayAbstractTcp class.">
<polygon fill="white" stroke="#666666" points="920.62,-76 776.38,-76 776.38,-56 920.62,-56 920.62,-76"/>
<text xml:space="preserve" text-anchor="middle" x="848.5" y="-62.5" font-family="Helvetica,sans-Serif" font-size="10.00">main/DataArrayAbstractTcp.h</text>
</a>
</g>
</g>
<!-- Node8&#45;&gt;Node12 -->
<g id="edge11_Node000008_Node000012" class="edge">
<title>Node8&#45;&gt;Node12</title>
<g id="a_edge11_Node000008_Node000012"><a xlink:title=" ">
<path fill="none" stroke="#63b8ff" d="M802.09,-104.4C813.55,-95.17 827.4,-84.01 836.96,-76.3"/>
<polygon fill="#63b8ff" stroke="#63b8ff" points="799.94,-101.64 794.35,-110.64 804.33,-107.09 799.94,-101.64"/>
</a>
</g>
</g>
<!-- Node10 -->
<g id="Node000010" class="node">
<title>Node10</title>
<g id="a_Node000010"><a xlink:href="AddressResolver_8h.html" target="_top" xlink:title="The AddressResolver class.">
<polygon fill="white" stroke="#666666" points="663.75,-20 541.25,-20 541.25,0 663.75,0 663.75,-20"/>
<text xml:space="preserve" text-anchor="middle" x="602.5" y="-6.5" font-family="Helvetica,sans-Serif" font-size="10.00">main/AddressResolver.h</text>
</a>
</g>
</g>
<!-- Node9&#45;&gt;Node10 -->
<g id="edge9_Node000009_Node000010" class="edge">
<title>Node9&#45;&gt;Node10</title>
<g id="a_edge9_Node000009_Node000010"><a xlink:title=" ">
<path fill="none" stroke="#63b8ff" d="M683.93,-50.61C664.31,-41.07 639.12,-28.81 621.99,-20.48"/>
<polygon fill="#63b8ff" stroke="#63b8ff" points="682.28,-53.7 692.8,-54.93 685.34,-47.41 682.28,-53.7"/>
</a>
</g>
</g>
<!-- Node11 -->
<g id="Node000011" class="node">
<title>Node11</title>
<g id="a_Node000011"><a xlink:href="Timer_8h.html" target="_top" xlink:title="The Timer class.">
<polygon fill="white" stroke="#666666" points="753.62,-20 681.38,-20 681.38,0 753.62,0 753.62,-20"/>
<text xml:space="preserve" text-anchor="middle" x="717.5" y="-6.5" font-family="Helvetica,sans-Serif" font-size="10.00">main/Timer.h</text>
</a>
</g>
</g>
<!-- Node9&#45;&gt;Node11 -->
<g id="edge10_Node000009_Node000011" class="edge">
<title>Node9&#45;&gt;Node11</title>
<g id="a_edge10_Node000009_Node000011"><a xlink:title=" ">
<path fill="none" stroke="#63b8ff" d="M715.05,-44.13C715.66,-35.9 716.33,-26.85 716.81,-20.3"/>
<polygon fill="#63b8ff" stroke="#63b8ff" points="711.56,-43.85 714.31,-54.08 718.54,-44.37 711.56,-43.85"/>
</a>
</g>
</g>
<!-- Node13 -->
<g id="Node000013" class="node">
<title>Node13</title>
<g id="a_Node000013"><a xlink:href="DataArrayTcpClient_8h.html" target="_top" xlink:title="The DataArrayTcpClient class.">
<polygon fill="white" stroke="#666666" points="912,-20 779,-20 779,0 912,0 912,-20"/>
<text xml:space="preserve" text-anchor="middle" x="845.5" y="-6.5" font-family="Helvetica,sans-Serif" font-size="10.00">main/DataArrayTcpClient.h</text>
</a>
</g>
</g>
<!-- Node12&#45;&gt;Node13 -->
<g id="edge12_Node000012_Node000013" class="edge">
<title>Node12&#45;&gt;Node13</title>
<g id="a_edge12_Node000012_Node000013"><a xlink:title=" ">
<path fill="none" stroke="#63b8ff" d="M847.34,-44.13C846.88,-35.9 846.38,-26.85 846.02,-20.3"/>
<polygon fill="#63b8ff" stroke="#63b8ff" points="843.84,-44.29 847.89,-54.08 850.83,-43.9 843.84,-44.29"/>
</a>
</g>
</g>
<!-- Node14 -->
<g id="Node000014" class="node">
<title>Node14</title>
<g id="a_Node000014"><a xlink:href="DataArrayTcpServer_8h.html" target="_top" xlink:title="The DataArrayTcpServer class.">
<polygon fill="white" stroke="#666666" points="1065.12,-20 929.88,-20 929.88,0 1065.12,0 1065.12,-20"/>
<text xml:space="preserve" text-anchor="middle" x="997.5" y="-6.5" font-family="Helvetica,sans-Serif" font-size="10.00">main/DataArrayTcpServer.h</text>
</a>
</g>
</g>
<!-- Node12&#45;&gt;Node14 -->
<g id="edge13_Node000012_Node000014" class="edge">
<title>Node12&#45;&gt;Node14</title>
<g id="a_edge13_Node000012_Node000014"><a xlink:title=" ">
<path fill="none" stroke="#63b8ff" d="M884.95,-51.79C911.69,-42.1 947.39,-29.16 971.34,-20.48"/>
<polygon fill="#63b8ff" stroke="#63b8ff" points="884.09,-48.38 875.88,-55.08 886.47,-54.96 884.09,-48.38"/>
</a>
</g>
</g>
</g>
</svg>
