<?xml version="1.0" encoding="UTF-8" standalone="no"?>
<!DOCTYPE svg PUBLIC "-//W3C//DTD SVG 1.1//EN"
 "http://www.w3.org/Graphics/SVG/1.1/DTD/svg11.dtd">
<!-- Generated by graphviz version 14.1.3 (20260303.0454)
 -->
<!-- Title: main/ListenSocket.h Pages: 1 -->
<svg width="443pt" height="196pt"
 viewBox="0.00 0.00 443.00 196.00" xmlns="http://www.w3.org/2000/svg" xmlns:xlink="http://www.w3.org/1999/xlink">
<g id="graph0" class="graph" transform="scale(1 1) rotate(0) translate(4 192)">
<title>main/ListenSocket.h</title>
<!-- Node1 -->
<g id="Node000001" class="node">
<title>Node1</title>
<g id="a_Node000001"><a xlink:title="The ListenSocket class.">
<polygon fill="#999999" stroke="#666666" points="223.25,-188 118,-188 118,-168 223.25,-168 223.25,-188"/>
<text xml:space="preserve" text-anchor="middle" x="170.62" y="-174.5" font-family="Helvetica,sans-Serif" font-size="10.00">main/ListenSocket.h</text>
</a>
</g>
</g>
<!-- Node2 -->
<g id="Node000002" class="node">
<title>Node2</title>
<g id="a_Node000002"><a xlink:href="AbstractSocket_8h.html" target="_top" xlink:title="The AbstractSocket class.">
<polygon fill="white" stroke="#666666" points="157.88,-132 35.38,-132 35.38,-112 157.88,-112 157.88,-132"/>
<text xml:space="preserve" text-anchor="middle" x="96.62" y="-118.5" font-family="Helvetica,sans-Serif" font-size="10.00">../core/AbstractSocket.h</text>
</a>
</g>
</g>
<!-- Node1&#45;&gt;Node2 -->
<g id="edge1_Node000001_Node000002" class="edge">
<title>Node1&#45;&gt;Node2</title>
<g id="a_edge1_Node000001_Node000002"><a xlink:title=" ">
<path fill="none" stroke="#63b8ff" d="M157.74,-167.59C146.91,-159.7 131.21,-148.24 118.44,-138.92"/>
<polygon fill="#63b8ff" stroke="#63b8ff" points="120.73,-136.26 110.59,-133.19 116.6,-141.91 120.73,-136.26"/>
</a>
</g>
</g>
<!-- Node7 -->
<g id="Node000007" class="node">
<title>Node7</title>
<g id="a_Node000007"><a xlink:href="FunctionConnector_8h.html" target="_top" xlink:title="The AbstractFunctionConnector, FunctionConnector, FunctionConnectorProtected, FunctionConnectionGuard...">
<polygon fill="white" stroke="#666666" points="319,-132 182.25,-132 182.25,-112 319,-112 319,-132"/>
<text xml:space="preserve" text-anchor="middle" x="250.62" y="-118.5" font-family="Helvetica,sans-Serif" font-size="10.00">../core/FunctionConnector.h</text>
</a>
</g>
</g>
<!-- Node1&#45;&gt;Node7 -->
<g id="edge6_Node000001_Node000007" class="edge">
<title>Node1&#45;&gt;Node7</title>
<g id="a_edge6_Node000001_Node000007"><a xlink:title=" ">
<path fill="none" stroke="#63b8ff" d="M184.56,-167.59C196.3,-159.67 213.36,-148.16 227.19,-138.82"/>
<polygon fill="#63b8ff" stroke="#63b8ff" points="229,-141.82 235.33,-133.33 225.08,-136.02 229,-141.82"/>
</a>
</g>
</g>
<!-- Node3 -->
<g id="Node000003" class="node">
<title>Node3</title>
<g id="a_Node000003"><a xlink:title=" ">
<polygon fill="#e0e0e0" stroke="#999999" points="45.25,-76 0,-76 0,-56 45.25,-56 45.25,-76"/>
<text xml:space="preserve" text-anchor="middle" x="22.62" y="-62.5" font-family="Helvetica,sans-Serif" font-size="10.00">cstdint</text>
</a>
</g>
</g>
<!-- Node2&#45;&gt;Node3 -->
<g id="edge2_Node000002_Node000003" class="edge">
<title>Node2&#45;&gt;Node3</title>
<g id="a_edge2_Node000002_Node000003"><a xlink:title=" ">
<path fill="none" stroke="#63b8ff" d="M83.74,-111.59C72.91,-103.7 57.21,-92.24 44.44,-82.92"/>
<polygon fill="#63b8ff" stroke="#63b8ff" points="46.73,-80.26 36.59,-77.19 42.6,-85.91 46.73,-80.26"/>
</a>
</g>
</g>
<!-- Node4 -->
<g id="Node000004" class="node">
<title>Node4</title>
<g id="a_Node000004"><a xlink:title=" ">
<polygon fill="#e0e0e0" stroke="#999999" points="103.62,-76 63.62,-76 63.62,-56 103.62,-56 103.62,-76"/>
<text xml:space="preserve" text-anchor="middle" x="83.62" y="-62.5" font-family="Helvetica,sans-Serif" font-size="10.00">string</text>
</a>
</g>
</g>
<!-- Node2&#45;&gt;Node4 -->
<g id="edge3_Node000002_Node000004" class="edge">
<title>Node2&#45;&gt;Node4</title>
<g id="a_edge3_Node000002_Node000004"><a xlink:title=" ">
<path fill="none" stroke="#63b8ff" d="M94.36,-111.59C92.76,-104.93 90.55,-95.75 88.55,-87.44"/>
<polygon fill="#63b8ff" stroke="#63b8ff" points="91.96,-86.67 86.22,-77.77 85.16,-88.31 91.96,-86.67"/>
</a>
</g>
</g>
<!-- Node5 -->
<g id="Node000005" class="node">
<title>Node5</title>
<g id="a_Node000005"><a xlink:href="AnyData_8h.html" target="_top" xlink:title="The AnyData class.">
<polygon fill="white" stroke="#666666" points="183.88,-76 121.38,-76 121.38,-56 183.88,-56 183.88,-76"/>
<text xml:space="preserve" text-anchor="middle" x="152.62" y="-62.5" font-family="Helvetica,sans-Serif" font-size="10.00">AnyData.h</text>
</a>
</g>
</g>
<!-- Node2&#45;&gt;Node5 -->
<g id="edge4_Node000002_Node000005" class="edge">
<title>Node2&#45;&gt;Node5</title>
<g id="a_edge4_Node000002_Node000005"><a xlink:title=" ">
<path fill="none" stroke="#63b8ff" d="M106.38,-111.59C114.25,-104.01 125.52,-93.13 134.97,-84.02"/>
<polygon fill="#63b8ff" stroke="#63b8ff" points="137.12,-86.81 141.89,-77.35 132.26,-81.77 137.12,-86.81"/>
</a>
</g>
</g>
<!-- Node6 -->
<g id="Node000006" class="node">
<title>Node6</title>
<g id="a_Node000006"><a xlink:title=" ">
<polygon fill="#e0e0e0" stroke="#999999" points="157.5,-20 125.75,-20 125.75,0 157.5,0 157.5,-20"/>
<text xml:space="preserve" text-anchor="middle" x="141.62" y="-6.5" font-family="Helvetica,sans-Serif" font-size="10.00">any</text>
</a>
</g>
</g>
<!-- Node5&#45;&gt;Node6 -->
<g id="edge5_Node000005_Node000006" class="edge">
<title>Node5&#45;&gt;Node6</title>
<g id="a_edge5_Node000005_Node000006"><a xlink:title=" ">
<path fill="none" stroke="#63b8ff" d="M150.71,-55.59C149.35,-48.93 147.48,-39.75 145.79,-31.44"/>
<polygon fill="#63b8ff" stroke="#63b8ff" points="149.25,-30.88 143.82,-21.78 142.39,-32.28 149.25,-30.88"/>
</a>
</g>
</g>
<!-- Node8 -->
<g id="Node000008" class="node">
<title>Node8</title>
<g id="a_Node000008"><a xlink:href="AbstractThread_8h.html" target="_top" xlink:title="The AbstractThread class.">
<polygon fill="white" stroke="#666666" points="303.12,-76 212.12,-76 212.12,-56 303.12,-56 303.12,-76"/>
<text xml:space="preserve" text-anchor="middle" x="257.62" y="-62.5" font-family="Helvetica,sans-Serif" font-size="10.00">AbstractThread.h</text>
</a>
</g>
</g>
<!-- Node7&#45;&gt;Node8 -->
<g id="edge7_Node000007_Node000008" class="edge">
<title>Node7&#45;&gt;Node8</title>
<g id="a_edge7_Node000007_Node000008"><a xlink:title=" ">
<path fill="none" stroke="#63b8ff" d="M251.84,-111.59C252.71,-104.93 253.9,-95.75 254.98,-87.44"/>
<polygon fill="#63b8ff" stroke="#63b8ff" points="258.41,-88.17 256.23,-77.8 251.47,-87.27 258.41,-88.17"/>
</a>
</g>
</g>
<!-- Node9 -->
<g id="Node000009" class="node">
<title>Node9</title>
<g id="a_Node000009"><a xlink:title=" ">
<polygon fill="#e0e0e0" stroke="#999999" points="218.12,-20 175.12,-20 175.12,0 218.12,0 218.12,-20"/>
<text xml:space="preserve" text-anchor="middle" x="196.62" y="-6.5" font-family="Helvetica,sans-Serif" font-size="10.00">thread</text>
</a>
</g>
</g>
<!-- Node8&#45;&gt;Node9 -->
<g id="edge8_Node000008_Node000009" class="edge">
<title>Node8&#45;&gt;Node9</title>
<g id="a_edge8_Node000008_Node000009"><a xlink:title=" ">
<path fill="none" stroke="#63b8ff" d="M247,-55.59C238.34,-47.93 225.89,-36.91 215.54,-27.75"/>
<polygon fill="#63b8ff" stroke="#63b8ff" points="218.07,-25.31 208.26,-21.3 213.43,-30.55 218.07,-25.31"/>
</a>
</g>
</g>
<!-- Node10 -->
<g id="Node000010" class="node">
<title>Node10</title>
<g id="a_Node000010"><a xlink:title=" ">
<polygon fill="#e0e0e0" stroke="#999999" points="279.12,-20 236.12,-20 236.12,0 279.12,0 279.12,-20"/>
<text xml:space="preserve" text-anchor="middle" x="257.62" y="-6.5" font-family="Helvetica,sans-Serif" font-size="10.00">mutex</text>
</a>
</g>
</g>
<!-- Node8&#45;&gt;Node10 -->
<g id="edge9_Node000008_Node000010" class="edge">
<title>Node8&#45;&gt;Node10</title>
<g id="a_edge9_Node000008_Node000010"><a xlink:title=" ">
<path fill="none" stroke="#63b8ff" d="M257.62,-55.59C257.62,-49.01 257.62,-39.96 257.62,-31.73"/>
<polygon fill="#63b8ff" stroke="#63b8ff" points="261.13,-31.81 257.63,-21.81 254.13,-31.81 261.13,-31.81"/>
</a>
</g>
</g>
<!-- Node11 -->
<g id="Node000011" class="node">
<title>Node11</title>
<g id="a_Node000011"><a xlink:title=" ">
<polygon fill="#e0e0e0" stroke="#999999" points="340.12,-20 297.12,-20 297.12,0 340.12,0 340.12,-20"/>
<text xml:space="preserve" text-anchor="middle" x="318.62" y="-6.5" font-family="Helvetica,sans-Serif" font-size="10.00">vector</text>
</a>
</g>
</g>
<!-- Node8&#45;&gt;Node11 -->
<g id="edge10_Node000008_Node000011" class="edge">
<title>Node8&#45;&gt;Node11</title>
<g id="a_edge10_Node000008_Node000011"><a xlink:title=" ">
<path fill="none" stroke="#63b8ff" d="M268.25,-55.59C276.91,-47.93 289.36,-36.91 299.71,-27.75"/>
<polygon fill="#63b8ff" stroke="#63b8ff" points="301.82,-30.55 306.99,-21.3 297.18,-25.31 301.82,-30.55"/>
</a>
</g>
</g>
<!-- Node12 -->
<g id="Node000012" class="node">
<title>Node12</title>
<g id="a_Node000012"><a xlink:href="invocable_8hpp_source.html" target="_top" xlink:title=" ">
<polygon fill="white" stroke="#666666" points="434.62,-20 358.62,-20 358.62,0 434.62,0 434.62,-20"/>
<text xml:space="preserve" text-anchor="middle" x="396.62" y="-6.5" font-family="Helvetica,sans-Serif" font-size="10.00">invocable.hpp</text>
</a>
</g>
</g>
<!-- Node8&#45;&gt;Node12 -->
<g id="edge11_Node000008_Node000012" class="edge">
<title>Node8&#45;&gt;Node12</title>
<g id="a_edge11_Node000008_Node000012"><a xlink:title=" ">
<path fill="none" stroke="#63b8ff" d="M281.84,-55.59C303.93,-47.01 336.82,-34.23 361.75,-24.55"/>
<polygon fill="#63b8ff" stroke="#63b8ff" points="362.76,-27.91 370.81,-21.03 360.22,-21.39 362.76,-27.91"/>
</a>
</g>
</g>
</g>
</svg>
