<?xml version="1.0" encoding="UTF-8" standalone="no"?>
<!DOCTYPE svg PUBLIC "-//W3C//DTD SVG 1.1//EN"
 "http://www.w3.org/Graphics/SVG/1.1/DTD/svg11.dtd">
<!-- Generated by graphviz version 12.2.1 (20241206.2353)
 -->
<!-- Title: main/Log.h Pages: 1 -->
<svg width="524pt" height="252pt"
 viewBox="0.00 0.00 524.12 252.00" xmlns="http://www.w3.org/2000/svg" xmlns:xlink="http://www.w3.org/1999/xlink">
<g id="graph0" class="graph" transform="scale(1 1) rotate(0) translate(4 248)">
<title>main/Log.h</title>
<!-- Node1 -->
<g id="Node000001" class="node">
<title>Node1</title>
<g id="a_Node000001"><a xlink:title="The AbstractLog and Log classes.">
<polygon fill="#999999" stroke="#666666" points="200.62,-244 136.62,-244 136.62,-224 200.62,-224 200.62,-244"/>
<text text-anchor="middle" x="168.62" y="-230.5" font-family="Helvetica,sans-Serif" font-size="10.00">main/Log.h</text>
</a>
</g>
</g>
<!-- Node2 -->
<g id="Node000002" class="node">
<title>Node2</title>
<g id="a_Node000002"><a xlink:title=" ">
<polygon fill="#e0e0e0" stroke="#999999" points="111.75,-188 69.5,-188 69.5,-168 111.75,-168 111.75,-188"/>
<text text-anchor="middle" x="90.62" y="-174.5" font-family="Helvetica,sans-Serif" font-size="10.00">queue</text>
</a>
</g>
</g>
<!-- Node1&#45;&gt;Node2 -->
<g id="edge1_Node000001_Node000002" class="edge">
<title>Node1&#45;&gt;Node2</title>
<g id="a_edge1_Node000001_Node000002"><a xlink:title=" ">
<path fill="none" stroke="#63b8ff" d="M155.04,-223.59C143.59,-215.67 126.96,-204.16 113.47,-194.82"/>
<polygon fill="#63b8ff" stroke="#63b8ff" points="115.78,-192.16 105.56,-189.34 111.79,-197.91 115.78,-192.16"/>
</a>
</g>
</g>
<!-- Node3 -->
<g id="Node000003" class="node">
<title>Node3</title>
<g id="a_Node000003"><a xlink:href="LogStream_8h.html" target="_top" xlink:title="The LogStream class.">
<polygon fill="white" stroke="#666666" points="170.75,-132 68.5,-132 68.5,-112 170.75,-112 170.75,-132"/>
<text text-anchor="middle" x="119.62" y="-118.5" font-family="Helvetica,sans-Serif" font-size="10.00">../core/LogStream.h</text>
</a>
</g>
</g>
<!-- Node1&#45;&gt;Node3 -->
<g id="edge2_Node000001_Node000003" class="edge">
<title>Node1&#45;&gt;Node3</title>
<g id="a_edge2_Node000001_Node000003"><a xlink:title=" ">
<path fill="none" stroke="#63b8ff" d="M164.45,-223.62C156.49,-205.76 139.01,-166.53 128.39,-142.67"/>
<polygon fill="#63b8ff" stroke="#63b8ff" points="131.67,-141.45 124.41,-133.74 125.28,-144.3 131.67,-141.45"/>
</a>
</g>
</g>
<!-- Node8 -->
<g id="Node000008" class="node">
<title>Node8</title>
<g id="a_Node000008"><a xlink:href="Rrd_8h.html" target="_top" xlink:title="The Rrd class.">
<polygon fill="white" stroke="#666666" points="295.62,-188 255.62,-188 255.62,-168 295.62,-168 295.62,-188"/>
<text text-anchor="middle" x="275.62" y="-174.5" font-family="Helvetica,sans-Serif" font-size="10.00">Rrd.h</text>
</a>
</g>
</g>
<!-- Node1&#45;&gt;Node8 -->
<g id="edge7_Node000001_Node000008" class="edge">
<title>Node1&#45;&gt;Node8</title>
<g id="a_edge7_Node000001_Node000008"><a xlink:title=" ">
<path fill="none" stroke="#63b8ff" d="M187.26,-223.59C203.66,-215.32 227.78,-203.14 246.69,-193.6"/>
<polygon fill="#63b8ff" stroke="#63b8ff" points="248.14,-196.79 255.49,-189.16 244.99,-190.54 248.14,-196.79"/>
</a>
</g>
</g>
<!-- Node16 -->
<g id="Node000016" class="node">
<title>Node16</title>
<g id="a_Node000016"><a xlink:href="Instance_8h.html" target="_top" xlink:title="The AbstractInstance and Instance classes.">
<polygon fill="white" stroke="#666666" points="229.5,-188 167.75,-188 167.75,-168 229.5,-168 229.5,-188"/>
<text text-anchor="middle" x="198.62" y="-174.5" font-family="Helvetica,sans-Serif" font-size="10.00">Instance.h</text>
</a>
</g>
</g>
<!-- Node1&#45;&gt;Node16 -->
<g id="edge18_Node000001_Node000016" class="edge">
<title>Node1&#45;&gt;Node16</title>
<g id="a_edge18_Node000001_Node000016"><a xlink:title=" ">
<path fill="none" stroke="#63b8ff" d="M173.85,-223.59C177.72,-216.63 183.13,-206.89 187.91,-198.29"/>
<polygon fill="#63b8ff" stroke="#63b8ff" points="190.93,-200.06 192.72,-189.62 184.81,-196.66 190.93,-200.06"/>
</a>
</g>
</g>
<!-- Node4 -->
<g id="Node000004" class="node">
<title>Node4</title>
<g id="a_Node000004"><a xlink:title=" ">
<polygon fill="#e0e0e0" stroke="#999999" points="51.25,-76 0,-76 0,-56 51.25,-56 51.25,-76"/>
<text text-anchor="middle" x="25.62" y="-62.5" font-family="Helvetica,sans-Serif" font-size="10.00">sstream</text>
</a>
</g>
</g>
<!-- Node3&#45;&gt;Node4 -->
<g id="edge3_Node000003_Node000004" class="edge">
<title>Node3&#45;&gt;Node4</title>
<g id="a_edge3_Node000003_Node000004"><a xlink:title=" ">
<path fill="none" stroke="#63b8ff" d="M103.25,-111.59C89.05,-103.44 68.24,-91.48 51.74,-82"/>
<polygon fill="#63b8ff" stroke="#63b8ff" points="53.85,-79.18 43.44,-77.23 50.37,-85.25 53.85,-79.18"/>
</a>
</g>
</g>
<!-- Node5 -->
<g id="Node000005" class="node">
<title>Node5</title>
<g id="a_Node000005"><a xlink:title=" ">
<polygon fill="#e0e0e0" stroke="#999999" points="299.12,-20 256.12,-20 256.12,0 299.12,0 299.12,-20"/>
<text text-anchor="middle" x="277.62" y="-6.5" font-family="Helvetica,sans-Serif" font-size="10.00">vector</text>
</a>
</g>
</g>
<!-- Node3&#45;&gt;Node5 -->
<g id="edge4_Node000003_Node000005" class="edge">
<title>Node3&#45;&gt;Node5</title>
<g id="a_edge4_Node000003_Node000005"><a xlink:title=" ">
<path fill="none" stroke="#63b8ff" d="M123.22,-111.71C129.05,-97.76 141.86,-71.41 160.62,-56 185.02,-35.97 219.32,-24.19 244.48,-17.74"/>
<polygon fill="#63b8ff" stroke="#63b8ff" points="245.28,-21.15 254.2,-15.42 243.66,-14.34 245.28,-21.15"/>
</a>
</g>
</g>
<!-- Node6 -->
<g id="Node000006" class="node">
<title>Node6</title>
<g id="a_Node000006"><a xlink:title=" ">
<polygon fill="#e0e0e0" stroke="#999999" points="113.5,-76 69.75,-76 69.75,-56 113.5,-56 113.5,-76"/>
<text text-anchor="middle" x="91.62" y="-62.5" font-family="Helvetica,sans-Serif" font-size="10.00">format</text>
</a>
</g>
</g>
<!-- Node3&#45;&gt;Node6 -->
<g id="edge5_Node000003_Node000006" class="edge">
<title>Node3&#45;&gt;Node6</title>
<g id="a_edge5_Node000003_Node000006"><a xlink:title=" ">
<path fill="none" stroke="#63b8ff" d="M114.75,-111.59C111.13,-104.63 106.08,-94.89 101.63,-86.29"/>
<polygon fill="#63b8ff" stroke="#63b8ff" points="104.85,-84.91 97.14,-77.64 98.64,-88.13 104.85,-84.91"/>
</a>
</g>
</g>
<!-- Node7 -->
<g id="Node000007" class="node">
<title>Node7</title>
<g id="a_Node000007"><a xlink:title=" ">
<polygon fill="#e0e0e0" stroke="#999999" points="215.25,-76 170,-76 170,-56 215.25,-56 215.25,-76"/>
<text text-anchor="middle" x="192.62" y="-62.5" font-family="Helvetica,sans-Serif" font-size="10.00">cstdint</text>
</a>
</g>
</g>
<!-- Node3&#45;&gt;Node7 -->
<g id="edge6_Node000003_Node000007" class="edge">
<title>Node3&#45;&gt;Node7</title>
<g id="a_edge6_Node000003_Node000007"><a xlink:title=" ">
<path fill="none" stroke="#63b8ff" d="M132.34,-111.59C143.02,-103.7 158.5,-92.24 171.11,-82.92"/>
<polygon fill="#63b8ff" stroke="#63b8ff" points="172.88,-85.96 178.84,-77.2 168.72,-80.33 172.88,-85.96"/>
</a>
</g>
</g>
<!-- Node9 -->
<g id="Node000009" class="node">
<title>Node9</title>
<g id="a_Node000009"><a xlink:href="FunctionConnector_8h.html" target="_top" xlink:title="The AbstractFunctionConnector, FunctionConnector, FunctionConnectorProtected and FunctionConnectionGu...">
<polygon fill="white" stroke="#666666" points="479,-132 342.25,-132 342.25,-112 479,-112 479,-132"/>
<text text-anchor="middle" x="410.62" y="-118.5" font-family="Helvetica,sans-Serif" font-size="10.00">../core/FunctionConnector.h</text>
</a>
</g>
</g>
<!-- Node8&#45;&gt;Node9 -->
<g id="edge8_Node000008_Node000009" class="edge">
<title>Node8&#45;&gt;Node9</title>
<g id="a_edge8_Node000008_Node000009"><a xlink:title=" ">
<path fill="none" stroke="#63b8ff" d="M295.84,-168.92C317.11,-160.41 350.97,-146.86 376.42,-136.68"/>
<polygon fill="#63b8ff" stroke="#63b8ff" points="377.7,-139.94 385.69,-132.97 375.1,-133.44 377.7,-139.94"/>
</a>
</g>
</g>
<!-- Node14 -->
<g id="Node000014" class="node">
<title>Node14</title>
<g id="a_Node000014"><a xlink:href="DataArray_8h.html" target="_top" xlink:title="The DataArray, DataArrayView, DataArrayList and DataStream classes.">
<polygon fill="white" stroke="#666666" points="324.5,-132 226.75,-132 226.75,-112 324.5,-112 324.5,-132"/>
<text text-anchor="middle" x="275.62" y="-118.5" font-family="Helvetica,sans-Serif" font-size="10.00">../core/DataArray.h</text>
</a>
</g>
</g>
<!-- Node8&#45;&gt;Node14 -->
<g id="edge14_Node000008_Node000014" class="edge">
<title>Node8&#45;&gt;Node14</title>
<g id="a_edge14_Node000008_Node000014"><a xlink:title=" ">
<path fill="none" stroke="#63b8ff" d="M275.62,-167.59C275.62,-161.01 275.62,-151.96 275.62,-143.73"/>
<polygon fill="#63b8ff" stroke="#63b8ff" points="279.13,-143.81 275.63,-133.81 272.13,-143.81 279.13,-143.81"/>
</a>
</g>
</g>
<!-- Node10 -->
<g id="Node000010" class="node">
<title>Node10</title>
<g id="a_Node000010"><a xlink:href="AbstractThread_8h.html" target="_top" xlink:title="The AbstractThread class.">
<polygon fill="white" stroke="#666666" points="456.12,-76 365.12,-76 365.12,-56 456.12,-56 456.12,-76"/>
<text text-anchor="middle" x="410.62" y="-62.5" font-family="Helvetica,sans-Serif" font-size="10.00">AbstractThread.h</text>
</a>
</g>
</g>
<!-- Node9&#45;&gt;Node10 -->
<g id="edge9_Node000009_Node000010" class="edge">
<title>Node9&#45;&gt;Node10</title>
<g id="a_edge9_Node000009_Node000010"><a xlink:title=" ">
<path fill="none" stroke="#63b8ff" d="M410.62,-111.59C410.62,-105.01 410.62,-95.96 410.62,-87.73"/>
<polygon fill="#63b8ff" stroke="#63b8ff" points="414.13,-87.81 410.63,-77.81 407.13,-87.81 414.13,-87.81"/>
</a>
</g>
</g>
<!-- Node10&#45;&gt;Node5 -->
<g id="edge12_Node000010_Node000005" class="edge">
<title>Node10&#45;&gt;Node5</title>
<g id="a_edge12_Node000010_Node000005"><a xlink:title=" ">
<path fill="none" stroke="#63b8ff" d="M387.46,-55.59C365.9,-46.84 333.59,-33.72 309.58,-23.97"/>
<polygon fill="#63b8ff" stroke="#63b8ff" points="311.19,-20.85 300.61,-20.33 308.56,-27.34 311.19,-20.85"/>
</a>
</g>
</g>
<!-- Node11 -->
<g id="Node000011" class="node">
<title>Node11</title>
<g id="a_Node000011"><a xlink:title=" ">
<polygon fill="#e0e0e0" stroke="#999999" points="455.12,-20 412.12,-20 412.12,0 455.12,0 455.12,-20"/>
<text text-anchor="middle" x="433.62" y="-6.5" font-family="Helvetica,sans-Serif" font-size="10.00">thread</text>
</a>
</g>
</g>
<!-- Node10&#45;&gt;Node11 -->
<g id="edge10_Node000010_Node000011" class="edge">
<title>Node10&#45;&gt;Node11</title>
<g id="a_edge10_Node000010_Node000011"><a xlink:title=" ">
<path fill="none" stroke="#63b8ff" d="M414.63,-55.59C417.53,-48.78 421.56,-39.32 425.17,-30.86"/>
<polygon fill="#63b8ff" stroke="#63b8ff" points="428.37,-32.26 429.07,-21.69 421.93,-29.52 428.37,-32.26"/>
</a>
</g>
</g>
<!-- Node12 -->
<g id="Node000012" class="node">
<title>Node12</title>
<g id="a_Node000012"><a xlink:title=" ">
<polygon fill="#e0e0e0" stroke="#999999" points="516.12,-20 473.12,-20 473.12,0 516.12,0 516.12,-20"/>
<text text-anchor="middle" x="494.62" y="-6.5" font-family="Helvetica,sans-Serif" font-size="10.00">mutex</text>
</a>
</g>
</g>
<!-- Node10&#45;&gt;Node12 -->
<g id="edge11_Node000010_Node000012" class="edge">
<title>Node10&#45;&gt;Node12</title>
<g id="a_edge11_Node000010_Node000012"><a xlink:title=" ">
<path fill="none" stroke="#63b8ff" d="M425.26,-55.59C437.71,-47.59 455.84,-35.93 470.45,-26.54"/>
<polygon fill="#63b8ff" stroke="#63b8ff" points="472.09,-29.65 478.61,-21.3 468.3,-23.76 472.09,-29.65"/>
</a>
</g>
</g>
<!-- Node13 -->
<g id="Node000013" class="node">
<title>Node13</title>
<g id="a_Node000013"><a xlink:href="invocable_8hpp_source.html" target="_top" xlink:title=" ">
<polygon fill="white" stroke="#666666" points="393.62,-20 317.62,-20 317.62,0 393.62,0 393.62,-20"/>
<text text-anchor="middle" x="355.62" y="-6.5" font-family="Helvetica,sans-Serif" font-size="10.00">invocable.hpp</text>
</a>
</g>
</g>
<!-- Node10&#45;&gt;Node13 -->
<g id="edge13_Node000010_Node000013" class="edge">
<title>Node10&#45;&gt;Node13</title>
<g id="a_edge13_Node000010_Node000013"><a xlink:title=" ">
<path fill="none" stroke="#63b8ff" d="M401.04,-55.59C393.39,-48.08 382.47,-37.35 373.25,-28.3"/>
<polygon fill="#63b8ff" stroke="#63b8ff" points="375.76,-25.87 366.18,-21.36 370.86,-30.86 375.76,-25.87"/>
</a>
</g>
</g>
<!-- Node14&#45;&gt;Node5 -->
<g id="edge15_Node000014_Node000005" class="edge">
<title>Node14&#45;&gt;Node5</title>
<g id="a_edge15_Node000014_Node000005"><a xlink:title=" ">
<path fill="none" stroke="#63b8ff" d="M277.49,-111.74C279.22,-102.68 281.66,-88.46 282.62,-76 283.78,-61.1 282.41,-44.29 280.82,-31.49"/>
<polygon fill="#63b8ff" stroke="#63b8ff" points="284.31,-31.17 279.45,-21.76 277.38,-32.15 284.31,-31.17"/>
</a>
</g>
</g>
<!-- Node14&#45;&gt;Node7 -->
<g id="edge16_Node000014_Node000007" class="edge">
<title>Node14&#45;&gt;Node7</title>
<g id="a_edge16_Node000014_Node000007"><a xlink:title=" ">
<path fill="none" stroke="#63b8ff" d="M261.17,-111.59C248.87,-103.59 230.95,-91.93 216.52,-82.54"/>
<polygon fill="#63b8ff" stroke="#63b8ff" points="218.75,-79.82 208.46,-77.3 214.94,-85.69 218.75,-79.82"/>
</a>
</g>
</g>
<!-- Node15 -->
<g id="Node000015" class="node">
<title>Node15</title>
<g id="a_Node000015"><a xlink:title=" ">
<polygon fill="#e0e0e0" stroke="#999999" points="273.62,-76 233.62,-76 233.62,-56 273.62,-56 273.62,-76"/>
<text text-anchor="middle" x="253.62" y="-62.5" font-family="Helvetica,sans-Serif" font-size="10.00">string</text>
</a>
</g>
</g>
<!-- Node14&#45;&gt;Node15 -->
<g id="edge17_Node000014_Node000015" class="edge">
<title>Node14&#45;&gt;Node15</title>
<g id="a_edge17_Node000014_Node000015"><a xlink:title=" ">
<path fill="none" stroke="#63b8ff" d="M271.79,-111.59C269.02,-104.78 265.16,-95.32 261.72,-86.86"/>
<polygon fill="#63b8ff" stroke="#63b8ff" points="265,-85.64 257.98,-77.7 258.52,-88.28 265,-85.64"/>
</a>
</g>
</g>
<!-- Node16&#45;&gt;Node15 -->
<g id="edge19_Node000016_Node000015" class="edge">
<title>Node16&#45;&gt;Node15</title>
<g id="a_edge19_Node000016_Node000015"><a xlink:title=" ">
<path fill="none" stroke="#63b8ff" d="M200.15,-167.75C202.56,-154.74 207.97,-130.57 217.62,-112 222.73,-102.18 230.16,-92.43 236.93,-84.54"/>
<polygon fill="#63b8ff" stroke="#63b8ff" points="239.32,-87.13 243.41,-77.35 234.11,-82.44 239.32,-87.13"/>
</a>
</g>
</g>
</g>
</svg>
