<?xml version="1.0" encoding="UTF-8" standalone="no"?>
<!DOCTYPE svg PUBLIC "-//W3C//DTD SVG 1.1//EN"
 "http://www.w3.org/Graphics/SVG/1.1/DTD/svg11.dtd">
<!-- Generated by graphviz version 14.1.3 (20260303.0454)
 -->
<!-- Title: main/Rrd.h Pages: 1 -->
<svg width="379pt" height="196pt"
 viewBox="0.00 0.00 379.00 196.00" xmlns="http://www.w3.org/2000/svg" xmlns:xlink="http://www.w3.org/1999/xlink">
<g id="graph0" class="graph" transform="scale(1 1) rotate(0) translate(4 192)">
<title>main/Rrd.h</title>
<!-- Node1 -->
<g id="Node000001" class="node">
<title>Node1</title>
<g id="a_Node000001"><a xlink:title="The Rrd class.">
<polygon fill="#999999" stroke="#666666" points="253.5,-188 189.5,-188 189.5,-168 253.5,-168 253.5,-188"/>
<text xml:space="preserve" text-anchor="middle" x="221.5" y="-174.5" font-family="Helvetica,sans-Serif" font-size="10.00">main/Rrd.h</text>
</a>
</g>
</g>
<!-- Node2 -->
<g id="Node000002" class="node">
<title>Node2</title>
<g id="a_Node000002"><a xlink:href="FunctionConnector_8h.html" target="_top" xlink:title="The AbstractFunctionConnector, FunctionConnector, FunctionConnectorProtected, FunctionConnectionGuard...">
<polygon fill="white" stroke="#666666" points="222.88,-132 86.12,-132 86.12,-112 222.88,-112 222.88,-132"/>
<text xml:space="preserve" text-anchor="middle" x="154.5" y="-118.5" font-family="Helvetica,sans-Serif" font-size="10.00">../core/FunctionConnector.h</text>
</a>
</g>
</g>
<!-- Node1&#45;&gt;Node2 -->
<g id="edge1_Node000001_Node000002" class="edge">
<title>Node1&#45;&gt;Node2</title>
<g id="a_edge1_Node000001_Node000002"><a xlink:title=" ">
<path fill="none" stroke="#63b8ff" d="M209.83,-167.59C200.22,-159.85 186.37,-148.69 174.93,-139.47"/>
<polygon fill="#63b8ff" stroke="#63b8ff" points="177.2,-136.8 167.22,-133.25 172.8,-142.25 177.2,-136.8"/>
</a>
</g>
</g>
<!-- Node8 -->
<g id="Node000008" class="node">
<title>Node8</title>
<g id="a_Node000008"><a xlink:href="DataArray_8h.html" target="_top" xlink:title="The DataArray, DataArrayView, DataArrayList and DataStream classes.">
<polygon fill="white" stroke="#666666" points="338.38,-132 240.62,-132 240.62,-112 338.38,-112 338.38,-132"/>
<text xml:space="preserve" text-anchor="middle" x="289.5" y="-118.5" font-family="Helvetica,sans-Serif" font-size="10.00">../core/DataArray.h</text>
</a>
</g>
</g>
<!-- Node1&#45;&gt;Node8 -->
<g id="edge7_Node000001_Node000008" class="edge">
<title>Node1&#45;&gt;Node8</title>
<g id="a_edge7_Node000001_Node000008"><a xlink:title=" ">
<path fill="none" stroke="#63b8ff" d="M233.34,-167.59C243.19,-159.77 257.43,-148.46 269.11,-139.19"/>
<polygon fill="#63b8ff" stroke="#63b8ff" points="270.95,-142.2 276.61,-133.24 266.6,-136.72 270.95,-142.2"/>
</a>
</g>
</g>
<!-- Node3 -->
<g id="Node000003" class="node">
<title>Node3</title>
<g id="a_Node000003"><a xlink:href="AbstractThread_8h.html" target="_top" xlink:title="The AbstractThread class.">
<polygon fill="white" stroke="#666666" points="200,-76 109,-76 109,-56 200,-56 200,-76"/>
<text xml:space="preserve" text-anchor="middle" x="154.5" y="-62.5" font-family="Helvetica,sans-Serif" font-size="10.00">AbstractThread.h</text>
</a>
</g>
</g>
<!-- Node2&#45;&gt;Node3 -->
<g id="edge2_Node000002_Node000003" class="edge">
<title>Node2&#45;&gt;Node3</title>
<g id="a_edge2_Node000002_Node000003"><a xlink:title=" ">
<path fill="none" stroke="#63b8ff" d="M154.5,-111.59C154.5,-105.01 154.5,-95.96 154.5,-87.73"/>
<polygon fill="#63b8ff" stroke="#63b8ff" points="158,-87.81 154.5,-77.81 151,-87.81 158,-87.81"/>
</a>
</g>
</g>
<!-- Node4 -->
<g id="Node000004" class="node">
<title>Node4</title>
<g id="a_Node000004"><a xlink:title=" ">
<polygon fill="#e0e0e0" stroke="#999999" points="43,-20 0,-20 0,0 43,0 43,-20"/>
<text xml:space="preserve" text-anchor="middle" x="21.5" y="-6.5" font-family="Helvetica,sans-Serif" font-size="10.00">thread</text>
</a>
</g>
</g>
<!-- Node3&#45;&gt;Node4 -->
<g id="edge3_Node000003_Node000004" class="edge">
<title>Node3&#45;&gt;Node4</title>
<g id="a_edge3_Node000003_Node000004"><a xlink:title=" ">
<path fill="none" stroke="#63b8ff" d="M131.33,-55.59C109.78,-46.84 77.46,-33.72 53.46,-23.97"/>
<polygon fill="#63b8ff" stroke="#63b8ff" points="55.07,-20.85 44.48,-20.33 52.43,-27.34 55.07,-20.85"/>
</a>
</g>
</g>
<!-- Node5 -->
<g id="Node000005" class="node">
<title>Node5</title>
<g id="a_Node000005"><a xlink:title=" ">
<polygon fill="#e0e0e0" stroke="#999999" points="104,-20 61,-20 61,0 104,0 104,-20"/>
<text xml:space="preserve" text-anchor="middle" x="82.5" y="-6.5" font-family="Helvetica,sans-Serif" font-size="10.00">mutex</text>
</a>
</g>
</g>
<!-- Node3&#45;&gt;Node5 -->
<g id="edge4_Node000003_Node000005" class="edge">
<title>Node3&#45;&gt;Node5</title>
<g id="a_edge4_Node000003_Node000005"><a xlink:title=" ">
<path fill="none" stroke="#63b8ff" d="M141.96,-55.59C131.53,-47.77 116.45,-36.46 104.09,-27.19"/>
<polygon fill="#63b8ff" stroke="#63b8ff" points="106.21,-24.41 96.11,-21.21 102.01,-30.01 106.21,-24.41"/>
</a>
</g>
</g>
<!-- Node6 -->
<g id="Node000006" class="node">
<title>Node6</title>
<g id="a_Node000006"><a xlink:title=" ">
<polygon fill="#e0e0e0" stroke="#999999" points="260,-20 217,-20 217,0 260,0 260,-20"/>
<text xml:space="preserve" text-anchor="middle" x="238.5" y="-6.5" font-family="Helvetica,sans-Serif" font-size="10.00">vector</text>
</a>
</g>
</g>
<!-- Node3&#45;&gt;Node6 -->
<g id="edge5_Node000003_Node000006" class="edge">
<title>Node3&#45;&gt;Node6</title>
<g id="a_edge5_Node000003_Node000006"><a xlink:title=" ">
<path fill="none" stroke="#63b8ff" d="M169.13,-55.59C181.58,-47.59 199.72,-35.93 214.32,-26.54"/>
<polygon fill="#63b8ff" stroke="#63b8ff" points="215.96,-29.65 222.48,-21.3 212.18,-23.76 215.96,-29.65"/>
</a>
</g>
</g>
<!-- Node7 -->
<g id="Node000007" class="node">
<title>Node7</title>
<g id="a_Node000007"><a xlink:href="invocable_8hpp_source.html" target="_top" xlink:title=" ">
<polygon fill="white" stroke="#666666" points="198.5,-20 122.5,-20 122.5,0 198.5,0 198.5,-20"/>
<text xml:space="preserve" text-anchor="middle" x="160.5" y="-6.5" font-family="Helvetica,sans-Serif" font-size="10.00">invocable.hpp</text>
</a>
</g>
</g>
<!-- Node3&#45;&gt;Node7 -->
<g id="edge6_Node000003_Node000007" class="edge">
<title>Node3&#45;&gt;Node7</title>
<g id="a_edge6_Node000003_Node000007"><a xlink:title=" ">
<path fill="none" stroke="#63b8ff" d="M155.55,-55.59C156.28,-49.01 157.28,-39.96 158.2,-31.73"/>
<polygon fill="#63b8ff" stroke="#63b8ff" points="161.67,-32.13 159.3,-21.8 154.72,-31.35 161.67,-32.13"/>
</a>
</g>
</g>
<!-- Node8&#45;&gt;Node6 -->
<g id="edge8_Node000008_Node000006" class="edge">
<title>Node8&#45;&gt;Node6</title>
<g id="a_edge8_Node000008_Node000006"><a xlink:title=" ">
<path fill="none" stroke="#63b8ff" d="M281.37,-111.59C274.21,-102.87 263.94,-89.29 257.5,-76 250.58,-61.73 245.68,-44.45 242.59,-31.3"/>
<polygon fill="#63b8ff" stroke="#63b8ff" points="246.04,-30.69 240.5,-21.66 239.2,-32.17 246.04,-30.69"/>
</a>
</g>
</g>
<!-- Node9 -->
<g id="Node000009" class="node">
<title>Node9</title>
<g id="a_Node000009"><a xlink:title=" ">
<polygon fill="#e0e0e0" stroke="#999999" points="312.12,-76 266.88,-76 266.88,-56 312.12,-56 312.12,-76"/>
<text xml:space="preserve" text-anchor="middle" x="289.5" y="-62.5" font-family="Helvetica,sans-Serif" font-size="10.00">cstdint</text>
</a>
</g>
</g>
<!-- Node8&#45;&gt;Node9 -->
<g id="edge9_Node000008_Node000009" class="edge">
<title>Node8&#45;&gt;Node9</title>
<g id="a_edge9_Node000008_Node000009"><a xlink:title=" ">
<path fill="none" stroke="#63b8ff" d="M289.5,-111.59C289.5,-105.01 289.5,-95.96 289.5,-87.73"/>
<polygon fill="#63b8ff" stroke="#63b8ff" points="293,-87.81 289.5,-77.81 286,-87.81 293,-87.81"/>
</a>
</g>
</g>
<!-- Node10 -->
<g id="Node000010" class="node">
<title>Node10</title>
<g id="a_Node000010"><a xlink:title=" ">
<polygon fill="#e0e0e0" stroke="#999999" points="370.5,-76 330.5,-76 330.5,-56 370.5,-56 370.5,-76"/>
<text xml:space="preserve" text-anchor="middle" x="350.5" y="-62.5" font-family="Helvetica,sans-Serif" font-size="10.00">string</text>
</a>
</g>
</g>
<!-- Node8&#45;&gt;Node10 -->
<g id="edge10_Node000008_Node000010" class="edge">
<title>Node8&#45;&gt;Node10</title>
<g id="a_edge10_Node000008_Node000010"><a xlink:title=" ">
<path fill="none" stroke="#63b8ff" d="M300.13,-111.59C308.78,-103.93 321.23,-92.91 331.58,-83.75"/>
<polygon fill="#63b8ff" stroke="#63b8ff" points="333.7,-86.55 338.86,-77.3 329.06,-81.31 333.7,-86.55"/>
</a>
</g>
</g>
</g>
</svg>
