<?xml version="1.0" encoding="UTF-8" standalone="no"?>
<!DOCTYPE svg PUBLIC "-//W3C//DTD SVG 1.1//EN"
 "http://www.w3.org/Graphics/SVG/1.1/DTD/svg11.dtd">
<!-- Generated by graphviz version 12.2.1 (20241206.2353)
 -->
<!-- Title: main/RrdServer.h Pages: 1 -->
<svg width="268pt" height="196pt"
 viewBox="0.00 0.00 267.50 196.00" xmlns="http://www.w3.org/2000/svg" xmlns:xlink="http://www.w3.org/1999/xlink">
<g id="graph0" class="graph" transform="scale(1 1) rotate(0) translate(4 192)">
<title>main/RrdServer.h</title>
<!-- Node1 -->
<g id="Node000001" class="node">
<title>Node1</title>
<g id="a_Node000001"><a xlink:title="The RrdServer class.">
<polygon fill="#999999" stroke="#666666" points="158.38,-188 66.62,-188 66.62,-168 158.38,-168 158.38,-188"/>
<text text-anchor="middle" x="112.5" y="-174.5" font-family="Helvetica,sans-Serif" font-size="10.00">main/RrdServer.h</text>
</a>
</g>
</g>
<!-- Node2 -->
<g id="Node000002" class="node">
<title>Node2</title>
<g id="a_Node000002"><a xlink:href="FunctionConnector_8h.html" target="_top" xlink:title="The AbstractFunctionConnector, FunctionConnector, FunctionConnectorProtected, FunctionConnectionGuard...">
<polygon fill="white" stroke="#666666" points="180.88,-132 44.12,-132 44.12,-112 180.88,-112 180.88,-132"/>
<text text-anchor="middle" x="112.5" y="-118.5" font-family="Helvetica,sans-Serif" font-size="10.00">../core/FunctionConnector.h</text>
</a>
</g>
</g>
<!-- Node1&#45;&gt;Node2 -->
<g id="edge1_Node000001_Node000002" class="edge">
<title>Node1&#45;&gt;Node2</title>
<g id="a_edge1_Node000001_Node000002"><a xlink:title=" ">
<path fill="none" stroke="#63b8ff" d="M112.5,-167.59C112.5,-161.01 112.5,-151.96 112.5,-143.73"/>
<polygon fill="#63b8ff" stroke="#63b8ff" points="116,-143.81 112.5,-133.81 109,-143.81 116,-143.81"/>
</a>
</g>
</g>
<!-- Node3 -->
<g id="Node000003" class="node">
<title>Node3</title>
<g id="a_Node000003"><a xlink:href="AbstractThread_8h.html" target="_top" xlink:title="The AbstractThread class.">
<polygon fill="white" stroke="#666666" points="158,-76 67,-76 67,-56 158,-56 158,-76"/>
<text text-anchor="middle" x="112.5" y="-62.5" font-family="Helvetica,sans-Serif" font-size="10.00">AbstractThread.h</text>
</a>
</g>
</g>
<!-- Node2&#45;&gt;Node3 -->
<g id="edge2_Node000002_Node000003" class="edge">
<title>Node2&#45;&gt;Node3</title>
<g id="a_edge2_Node000002_Node000003"><a xlink:title=" ">
<path fill="none" stroke="#63b8ff" d="M112.5,-111.59C112.5,-105.01 112.5,-95.96 112.5,-87.73"/>
<polygon fill="#63b8ff" stroke="#63b8ff" points="116,-87.81 112.5,-77.81 109,-87.81 116,-87.81"/>
</a>
</g>
</g>
<!-- Node4 -->
<g id="Node000004" class="node">
<title>Node4</title>
<g id="a_Node000004"><a xlink:title=" ">
<polygon fill="#e0e0e0" stroke="#999999" points="43,-20 0,-20 0,0 43,0 43,-20"/>
<text text-anchor="middle" x="21.5" y="-6.5" font-family="Helvetica,sans-Serif" font-size="10.00">thread</text>
</a>
</g>
</g>
<!-- Node3&#45;&gt;Node4 -->
<g id="edge3_Node000003_Node000004" class="edge">
<title>Node3&#45;&gt;Node4</title>
<g id="a_edge3_Node000003_Node000004"><a xlink:title=" ">
<path fill="none" stroke="#63b8ff" d="M96.65,-55.59C83.03,-47.51 63.14,-35.71 47.24,-26.27"/>
<polygon fill="#63b8ff" stroke="#63b8ff" points="49.16,-23.35 38.78,-21.25 45.59,-29.37 49.16,-23.35"/>
</a>
</g>
</g>
<!-- Node5 -->
<g id="Node000005" class="node">
<title>Node5</title>
<g id="a_Node000005"><a xlink:title=" ">
<polygon fill="#e0e0e0" stroke="#999999" points="104,-20 61,-20 61,0 104,0 104,-20"/>
<text text-anchor="middle" x="82.5" y="-6.5" font-family="Helvetica,sans-Serif" font-size="10.00">mutex</text>
</a>
</g>
</g>
<!-- Node3&#45;&gt;Node5 -->
<g id="edge4_Node000003_Node000005" class="edge">
<title>Node3&#45;&gt;Node5</title>
<g id="a_edge4_Node000003_Node000005"><a xlink:title=" ">
<path fill="none" stroke="#63b8ff" d="M107.27,-55.59C103.4,-48.63 97.99,-38.89 93.22,-30.29"/>
<polygon fill="#63b8ff" stroke="#63b8ff" points="96.32,-28.66 88.4,-21.62 90.2,-32.06 96.32,-28.66"/>
</a>
</g>
</g>
<!-- Node6 -->
<g id="Node000006" class="node">
<title>Node6</title>
<g id="a_Node000006"><a xlink:title=" ">
<polygon fill="#e0e0e0" stroke="#999999" points="165,-20 122,-20 122,0 165,0 165,-20"/>
<text text-anchor="middle" x="143.5" y="-6.5" font-family="Helvetica,sans-Serif" font-size="10.00">vector</text>
</a>
</g>
</g>
<!-- Node3&#45;&gt;Node6 -->
<g id="edge5_Node000003_Node000006" class="edge">
<title>Node3&#45;&gt;Node6</title>
<g id="a_edge5_Node000003_Node000006"><a xlink:title=" ">
<path fill="none" stroke="#63b8ff" d="M117.9,-55.59C121.94,-48.55 127.62,-38.67 132.59,-30"/>
<polygon fill="#63b8ff" stroke="#63b8ff" points="135.47,-32.03 137.41,-21.61 129.39,-28.54 135.47,-32.03"/>
</a>
</g>
</g>
<!-- Node7 -->
<g id="Node000007" class="node">
<title>Node7</title>
<g id="a_Node000007"><a xlink:href="invocable_8hpp_source.html" target="_top" xlink:title=" ">
<polygon fill="white" stroke="#666666" points="259.5,-20 183.5,-20 183.5,0 259.5,0 259.5,-20"/>
<text text-anchor="middle" x="221.5" y="-6.5" font-family="Helvetica,sans-Serif" font-size="10.00">invocable.hpp</text>
</a>
</g>
</g>
<!-- Node3&#45;&gt;Node7 -->
<g id="edge6_Node000003_Node000007" class="edge">
<title>Node3&#45;&gt;Node7</title>
<g id="a_edge6_Node000003_Node000007"><a xlink:title=" ">
<path fill="none" stroke="#63b8ff" d="M131.49,-55.59C148.26,-47.28 172.99,-35.03 192.29,-25.47"/>
<polygon fill="#63b8ff" stroke="#63b8ff" points="193.6,-28.73 201.01,-21.15 190.49,-22.45 193.6,-28.73"/>
</a>
</g>
</g>
</g>
</svg>
