<?xml version="1.0" encoding="UTF-8" standalone="no"?>
<!DOCTYPE svg PUBLIC "-//W3C//DTD SVG 1.1//EN"
 "http://www.w3.org/Graphics/SVG/1.1/DTD/svg11.dtd">
<!-- Generated by graphviz version 14.1.3 (20260303.0454)
 -->
<!-- Title: AsyncFw::AnyData::data Pages: 1 -->
<svg width="825pt" height="295pt"
 viewBox="0.00 0.00 825.00 295.00" xmlns="http://www.w3.org/2000/svg" xmlns:xlink="http://www.w3.org/1999/xlink">
<g id="graph0" class="graph" transform="scale(1 1) rotate(0) translate(4 291)">
<title>AsyncFw::AnyData::data</title>
<!-- Node1 -->
<g id="Node000001" class="node">
<title>Node1</title>
<g id="a_Node000001"><a xlink:title="Type&#45;safely extracts and returns the stored data value.">
<polygon fill="#999999" stroke="#666666" points="816.5,-146 690.25,-146 690.25,-126 816.5,-126 816.5,-146"/>
<text xml:space="preserve" text-anchor="middle" x="753.38" y="-132.5" font-family="Helvetica,sans-Serif" font-size="10.00">AsyncFw::AnyData::data</text>
</a>
</g>
</g>
<!-- Node2 -->
<g id="Node000002" class="node">
<title>Node2</title>
<g id="a_Node000002"><a xlink:href="structAsyncFw_1_1AnyData.html#a667ea182dec03e9ca81e86cdc7db8842" target="_top" xlink:title="Constructs an AnyData storage shell with an optional initial type&#45;safe payload.">
<polygon fill="white" stroke="#666666" points="654.25,-272 508.5,-272 508.5,-252 654.25,-252 654.25,-272"/>
<text xml:space="preserve" text-anchor="middle" x="581.38" y="-258.5" font-family="Helvetica,sans-Serif" font-size="10.00">AsyncFw::AnyData::AnyData</text>
</a>
</g>
</g>
<!-- Node1&#45;&gt;Node2 -->
<g id="edge1_Node000001_Node000002" class="edge">
<title>Node1&#45;&gt;Node2</title>
<g id="a_edge1_Node000001_Node000002"><a xlink:title=" ">
<path fill="none" stroke="#63b8ff" d="M739.71,-155.6C723.03,-179.81 691.44,-220.53 654.25,-243 648.62,-246.4 642.37,-249.21 635.99,-251.51"/>
<polygon fill="#63b8ff" stroke="#63b8ff" points="742.41,-157.85 745.07,-147.6 736.6,-153.96 742.41,-157.85"/>
</a>
</g>
</g>
<!-- Node3 -->
<g id="Node000003" class="node">
<title>Node3</title>
<g id="a_Node000003"><a xlink:href="classAsyncFw_1_1AbstractSocket.html#a25efdce1c4a0dedf15e57cb0af971d86" target="_top" xlink:title="Low&#45;level native operating system read operation proxying requests directly down to the fd handle.">
<polygon fill="white" stroke="#666666" points="646.75,-234 516,-234 516,-202 646.75,-202 646.75,-234"/>
<text xml:space="preserve" text-anchor="start" x="524" y="-220.5" font-family="Helvetica,sans-Serif" font-size="10.00">AsyncFw::AbstractSocket</text>
<text xml:space="preserve" text-anchor="middle" x="581.38" y="-208.5" font-family="Helvetica,sans-Serif" font-size="10.00">::read_fd</text>
</a>
</g>
</g>
<!-- Node1&#45;&gt;Node3 -->
<g id="edge2_Node000001_Node000003" class="edge">
<title>Node1&#45;&gt;Node3</title>
<g id="a_edge2_Node000001_Node000003"><a xlink:title=" ">
<path fill="none" stroke="#63b8ff" d="M723.83,-152.02C704.43,-162.68 678.08,-176.74 654.25,-188 644.47,-192.62 633.78,-197.28 623.71,-201.51"/>
<polygon fill="#63b8ff" stroke="#63b8ff" points="725.45,-155.13 732.5,-147.22 722.06,-149 725.45,-155.13"/>
</a>
</g>
</g>
<!-- Node10 -->
<g id="Node000010" class="node">
<title>Node10</title>
<g id="a_Node000010"><a xlink:href="classAsyncFw_1_1AbstractTlsSocket.html#a8c0f2e296d83c3004bd02dd6c2925bf1" target="_top" xlink:title="Low&#45;level decryption routing path proxying requests down to SSL_read().">
<polygon fill="white" stroke="#666666" points="472.5,-187 328.25,-187 328.25,-155 472.5,-155 472.5,-187"/>
<text xml:space="preserve" text-anchor="start" x="336.25" y="-173.5" font-family="Helvetica,sans-Serif" font-size="10.00">AsyncFw::AbstractTlsSocket</text>
<text xml:space="preserve" text-anchor="middle" x="400.38" y="-161.5" font-family="Helvetica,sans-Serif" font-size="10.00">::read_fd</text>
</a>
</g>
</g>
<!-- Node1&#45;&gt;Node10 -->
<g id="edge12_Node000001_Node000010" class="edge">
<title>Node1&#45;&gt;Node10</title>
<g id="a_edge12_Node000001_Node000010"><a xlink:title=" ">
<path fill="none" stroke="#63b8ff" d="M693.95,-148.58C680.93,-151.03 667.16,-153.35 654.25,-155 593.27,-162.8 523.51,-166.85 472.73,-168.92"/>
<polygon fill="#63b8ff" stroke="#63b8ff" points="694.52,-152.04 703.67,-146.7 693.19,-145.17 694.52,-152.04"/>
</a>
</g>
</g>
<!-- Node11 -->
<g id="Node000011" class="node">
<title>Node11</title>
<g id="a_Node000011"><a xlink:href="structAsyncFw_1_1AnyData.html#af4204174192d3b8c2f83dda18366a953" target="_top" xlink:title="Overwrites or assigns a new type&#45;safe payload inside the storage box.">
<polygon fill="white" stroke="#666666" points="652.38,-146 510.38,-146 510.38,-126 652.38,-126 652.38,-146"/>
<text xml:space="preserve" text-anchor="middle" x="581.38" y="-132.5" font-family="Helvetica,sans-Serif" font-size="10.00">AsyncFw::AnyData::setData</text>
</a>
</g>
</g>
<!-- Node1&#45;&gt;Node11 -->
<g id="edge13_Node000001_Node000011" class="edge">
<title>Node1&#45;&gt;Node11</title>
<g id="a_edge13_Node000001_Node000011"><a xlink:title=" ">
<path fill="none" stroke="#63b8ff" d="M678.8,-136C670.15,-136 661.35,-136 652.75,-136"/>
<polygon fill="#63b8ff" stroke="#63b8ff" points="678.53,-139.5 688.53,-136 678.53,-132.5 678.53,-139.5"/>
</a>
</g>
</g>
<!-- Node12 -->
<g id="Node000012" class="node">
<title>Node12</title>
<g id="a_Node000012"><a xlink:href="classAsyncFw_1_1AbstractSocket.html#a6b5bfbc488d553dca8a2d01b6b415482" target="_top" xlink:title="Writes raw binary bytes out to the network socket layer.">
<polygon fill="white" stroke="#666666" points="465.75,-92 335,-92 335,-60 465.75,-60 465.75,-92"/>
<text xml:space="preserve" text-anchor="start" x="343" y="-78.5" font-family="Helvetica,sans-Serif" font-size="10.00">AsyncFw::AbstractSocket</text>
<text xml:space="preserve" text-anchor="middle" x="400.38" y="-66.5" font-family="Helvetica,sans-Serif" font-size="10.00">::write</text>
</a>
</g>
</g>
<!-- Node1&#45;&gt;Node12 -->
<g id="edge14_Node000001_Node000012" class="edge">
<title>Node1&#45;&gt;Node12</title>
<g id="a_edge14_Node000001_Node000012"><a xlink:title=" ">
<path fill="none" stroke="#63b8ff" d="M688.69,-123.38C677.24,-121.19 665.4,-118.98 654.25,-117 590.43,-105.65 517.31,-93.93 466.17,-85.95"/>
<polygon fill="#63b8ff" stroke="#63b8ff" points="688.01,-126.81 698.49,-125.26 689.33,-119.93 688.01,-126.81"/>
</a>
</g>
</g>
<!-- Node15 -->
<g id="Node000015" class="node">
<title>Node15</title>
<g id="a_Node000015"><a xlink:href="classAsyncFw_1_1AbstractSocket.html#a4659df5988d2af771d4feee9edec55d8" target="_top" xlink:title="Low&#45;level native operating system write operation proxying requests directly up to the fd handle.">
<polygon fill="white" stroke="#666666" points="646.75,-70 516,-70 516,-38 646.75,-38 646.75,-70"/>
<text xml:space="preserve" text-anchor="start" x="524" y="-56.5" font-family="Helvetica,sans-Serif" font-size="10.00">AsyncFw::AbstractSocket</text>
<text xml:space="preserve" text-anchor="middle" x="581.38" y="-44.5" font-family="Helvetica,sans-Serif" font-size="10.00">::write_fd</text>
</a>
</g>
</g>
<!-- Node1&#45;&gt;Node15 -->
<g id="edge17_Node000001_Node000015" class="edge">
<title>Node1&#45;&gt;Node15</title>
<g id="a_edge17_Node000001_Node000015"><a xlink:title=" ">
<path fill="none" stroke="#63b8ff" d="M723.83,-119.98C704.43,-109.32 678.08,-95.26 654.25,-84 644.47,-79.38 633.78,-74.72 623.71,-70.49"/>
<polygon fill="#63b8ff" stroke="#63b8ff" points="722.06,-123 732.5,-124.78 725.45,-116.87 722.06,-123"/>
</a>
</g>
</g>
<!-- Node16 -->
<g id="Node000016" class="node">
<title>Node16</title>
<g id="a_Node000016"><a xlink:href="classAsyncFw_1_1AbstractTlsSocket.html#a84a79c1f921e96efd6b4f47cd7cd91e0" target="_top" xlink:title="Low&#45;level encryption routing path proxying outgoing payload directly up to SSL_write().">
<polygon fill="white" stroke="#666666" points="472.5,-32 328.25,-32 328.25,0 472.5,0 472.5,-32"/>
<text xml:space="preserve" text-anchor="start" x="336.25" y="-18.5" font-family="Helvetica,sans-Serif" font-size="10.00">AsyncFw::AbstractTlsSocket</text>
<text xml:space="preserve" text-anchor="middle" x="400.38" y="-6.5" font-family="Helvetica,sans-Serif" font-size="10.00">::write_fd</text>
</a>
</g>
</g>
<!-- Node1&#45;&gt;Node16 -->
<g id="edge20_Node000001_Node000016" class="edge">
<title>Node1&#45;&gt;Node16</title>
<g id="a_edge20_Node000001_Node000016"><a xlink:title=" ">
<path fill="none" stroke="#63b8ff" d="M740.87,-115.9C725.05,-90.46 693.96,-47.69 654.25,-29 597.57,-2.32 525.64,-1.31 473,-5.67"/>
<polygon fill="#63b8ff" stroke="#63b8ff" points="737.78,-117.55 745.92,-124.33 743.78,-113.95 737.78,-117.55"/>
</a>
</g>
</g>
<!-- Node4 -->
<g id="Node000004" class="node">
<title>Node4</title>
<g id="a_Node000004"><a xlink:href="classAsyncFw_1_1AbstractSocket.html#a3f4a74f0ab83d096bd37118bb28d8654" target="_top" xlink:title="Non&#45;destructively inspects the internal unread data buffer without consuming it.">
<polygon fill="white" stroke="#666666" points="465.75,-287 335,-287 335,-255 465.75,-255 465.75,-287"/>
<text xml:space="preserve" text-anchor="start" x="343" y="-273.5" font-family="Helvetica,sans-Serif" font-size="10.00">AsyncFw::AbstractSocket</text>
<text xml:space="preserve" text-anchor="middle" x="400.38" y="-261.5" font-family="Helvetica,sans-Serif" font-size="10.00">::peek</text>
</a>
</g>
</g>
<!-- Node3&#45;&gt;Node4 -->
<g id="edge3_Node000003_Node000004" class="edge">
<title>Node3&#45;&gt;Node4</title>
<g id="a_edge3_Node000003_Node000004"><a xlink:title=" ">
<path fill="none" stroke="#63b8ff" d="M513.89,-237.69C495.17,-243.23 475.01,-249.2 457,-254.53"/>
<polygon fill="#63b8ff" stroke="#63b8ff" points="514.67,-241.1 523.27,-234.91 512.69,-234.39 514.67,-241.1"/>
</a>
</g>
</g>
<!-- Node7 -->
<g id="Node000007" class="node">
<title>Node7</title>
<g id="a_Node000007"><a xlink:href="classAsyncFw_1_1AbstractSocket.html#a374dd4ce66bfcc8a6dcf40b4ba552828" target="_top" xlink:title="Reads incoming data into a raw byte buffer up to a specified maximum size.">
<polygon fill="white" stroke="#666666" points="465.75,-237 335,-237 335,-205 465.75,-205 465.75,-237"/>
<text xml:space="preserve" text-anchor="start" x="343" y="-223.5" font-family="Helvetica,sans-Serif" font-size="10.00">AsyncFw::AbstractSocket</text>
<text xml:space="preserve" text-anchor="middle" x="400.38" y="-211.5" font-family="Helvetica,sans-Serif" font-size="10.00">::read</text>
</a>
</g>
</g>
<!-- Node3&#45;&gt;Node7 -->
<g id="edge6_Node000003_Node000007" class="edge">
<title>Node3&#45;&gt;Node7</title>
<g id="a_edge6_Node000003_Node000007"><a xlink:title=" ">
<path fill="none" stroke="#63b8ff" d="M504.25,-219.28C491.59,-219.49 478.56,-219.71 466.2,-219.91"/>
<polygon fill="#63b8ff" stroke="#63b8ff" points="504.3,-222.78 514.24,-219.11 504.18,-215.78 504.3,-222.78"/>
</a>
</g>
</g>
<!-- Node3&#45;&gt;Node10 -->
<g id="edge11_Node000003_Node000010" class="edge">
<title>Node3&#45;&gt;Node10</title>
<g id="a_edge11_Node000003_Node000010"><a xlink:title=" ">
<path fill="none" stroke="#63b8ff" d="M506.98,-198.73C492.69,-194.98 477.84,-191.08 463.95,-187.43"/>
<polygon fill="#63b8ff" stroke="#63b8ff" points="505.74,-202.02 516.31,-201.18 507.52,-195.25 505.74,-202.02"/>
</a>
</g>
</g>
<!-- Node5 -->
<g id="Node000005" class="node">
<title>Node5</title>
<g id="a_Node000005"><a xlink:href="classAsyncFw_1_1HttpSocket.html#a7163448458d68f433dbdb214a6175be3" target="_top" xlink:title="Called when there is data to read.">
<polygon fill="white" stroke="#666666" points="279.5,-287 166.75,-287 166.75,-255 279.5,-255 279.5,-287"/>
<text xml:space="preserve" text-anchor="start" x="174.75" y="-273.5" font-family="Helvetica,sans-Serif" font-size="10.00">AsyncFw::HttpSocket</text>
<text xml:space="preserve" text-anchor="middle" x="223.12" y="-261.5" font-family="Helvetica,sans-Serif" font-size="10.00">::readEvent</text>
</a>
</g>
</g>
<!-- Node4&#45;&gt;Node5 -->
<g id="edge4_Node000004_Node000005" class="edge">
<title>Node4&#45;&gt;Node5</title>
<g id="a_edge4_Node000004_Node000005"><a xlink:title=" ">
<path fill="none" stroke="#63b8ff" d="M323.11,-271C308.61,-271 293.69,-271 279.97,-271"/>
<polygon fill="#63b8ff" stroke="#63b8ff" points="323.1,-274.5 333.1,-271 323.1,-267.5 323.1,-274.5"/>
</a>
</g>
</g>
<!-- Node6 -->
<g id="Node000006" class="node">
<title>Node6</title>
<g id="a_Node000006"><a xlink:href="classAsyncFw_1_1HttpServer_1_1TcpSocket.html#abb44001861ba7b24633b54ae90c2896c" target="_top" xlink:title="Triggered when new raw data is available in the socket for reading. &#160;&#160;Overrides the base behavior to ...">
<polygon fill="white" stroke="#666666" points="118,-265 0,-265 0,-233 118,-233 118,-265"/>
<text xml:space="preserve" text-anchor="start" x="8" y="-251.5" font-family="Helvetica,sans-Serif" font-size="10.00">AsyncFw::HttpServer</text>
<text xml:space="preserve" text-anchor="middle" x="59" y="-239.5" font-family="Helvetica,sans-Serif" font-size="10.00">::TcpSocket::readEvent</text>
</a>
</g>
</g>
<!-- Node5&#45;&gt;Node6 -->
<g id="edge5_Node000005_Node000006" class="edge">
<title>Node5&#45;&gt;Node6</title>
<g id="a_edge5_Node000005_Node000006"><a xlink:title=" ">
<path fill="none" stroke="#63b8ff" d="M155.25,-261.93C143.02,-260.27 130.34,-258.55 118.38,-256.92"/>
<polygon fill="#63b8ff" stroke="#63b8ff" points="154.45,-265.35 164.83,-263.23 155.39,-258.41 154.45,-265.35"/>
</a>
</g>
</g>
<!-- Node7&#45;&gt;Node5 -->
<g id="edge10_Node000007_Node000005" class="edge">
<title>Node7&#45;&gt;Node5</title>
<g id="a_edge10_Node000007_Node000005"><a xlink:title=" ">
<path fill="none" stroke="#63b8ff" d="M331.03,-240.5C314.08,-245.34 296.11,-250.46 279.85,-255.1"/>
<polygon fill="#63b8ff" stroke="#63b8ff" points="331.88,-243.9 340.54,-237.79 329.96,-237.17 331.88,-243.9"/>
</a>
</g>
</g>
<!-- Node7&#45;&gt;Node6 -->
<g id="edge9_Node000007_Node000006" class="edge">
<title>Node7&#45;&gt;Node6</title>
<g id="a_edge9_Node000007_Node000006"><a xlink:title=" ">
<path fill="none" stroke="#63b8ff" d="M323.46,-227.26C261.47,-232.38 175.14,-239.5 118.44,-244.18"/>
<polygon fill="#63b8ff" stroke="#63b8ff" points="323.56,-230.77 333.23,-226.46 322.98,-223.79 323.56,-230.77"/>
</a>
</g>
</g>
<!-- Node8 -->
<g id="Node000008" class="node">
<title>Node8</title>
<g id="a_Node000008"><a xlink:href="classAsyncFw_1_1AbstractSocket.html#a4eea287aa9c8a3cafc2ea92ca72d85bc" target="_top" xlink:title="Reads a chunk of incoming data and extracts it into a returned DataArray object.">
<polygon fill="white" stroke="#666666" points="288.5,-199 157.75,-199 157.75,-167 288.5,-167 288.5,-199"/>
<text xml:space="preserve" text-anchor="start" x="165.75" y="-185.5" font-family="Helvetica,sans-Serif" font-size="10.00">AsyncFw::AbstractSocket</text>
<text xml:space="preserve" text-anchor="middle" x="223.12" y="-173.5" font-family="Helvetica,sans-Serif" font-size="10.00">::read</text>
</a>
</g>
</g>
<!-- Node7&#45;&gt;Node8 -->
<g id="edge7_Node000007_Node000008" class="edge">
<title>Node7&#45;&gt;Node8</title>
<g id="a_edge7_Node000007_Node000008"><a xlink:title=" ">
<path fill="none" stroke="#63b8ff" d="M323.64,-204.58C312.07,-202.07 300.22,-199.5 288.91,-197.05"/>
<polygon fill="#63b8ff" stroke="#63b8ff" points="322.62,-207.94 333.14,-206.64 324.11,-201.1 322.62,-207.94"/>
</a>
</g>
</g>
<!-- Node9 -->
<g id="Node000009" class="node">
<title>Node9</title>
<g id="a_Node000009"><a xlink:href="classAsyncFw_1_1DataArraySocket.html#a1a1f3404abcb93af27de1d7bc0a958b1" target="_top" xlink:title="Called when there is data to read.">
<polygon fill="white" stroke="#666666" points="292.25,-149 154,-149 154,-117 292.25,-117 292.25,-149"/>
<text xml:space="preserve" text-anchor="start" x="162" y="-135.5" font-family="Helvetica,sans-Serif" font-size="10.00">AsyncFw::DataArraySocket</text>
<text xml:space="preserve" text-anchor="middle" x="223.12" y="-123.5" font-family="Helvetica,sans-Serif" font-size="10.00">::readEvent</text>
</a>
</g>
</g>
<!-- Node7&#45;&gt;Node9 -->
<g id="edge8_Node000007_Node000009" class="edge">
<title>Node7&#45;&gt;Node9</title>
<g id="a_edge8_Node000007_Node000009"><a xlink:title=" ">
<path fill="none" stroke="#63b8ff" d="M333.99,-199.46C332.02,-198.35 330.1,-197.2 328.25,-196 308.73,-183.34 311.68,-170.79 292.25,-158 287.41,-154.81 282.11,-151.97 276.67,-149.44"/>
<polygon fill="#63b8ff" stroke="#63b8ff" points="332.29,-202.52 342.79,-203.89 335.44,-196.27 332.29,-202.52"/>
</a>
</g>
</g>
<!-- Node13 -->
<g id="Node000013" class="node">
<title>Node13</title>
<g id="a_Node000013"><a xlink:href="classAsyncFw_1_1AbstractSocket.html#a4ad7bcd91ec7a91270d83bf583d62be1" target="_top" xlink:title="Transmits a structural DataArray package out to the network layer.">
<polygon fill="white" stroke="#666666" points="288.5,-97 157.75,-97 157.75,-65 288.5,-65 288.5,-97"/>
<text xml:space="preserve" text-anchor="start" x="165.75" y="-83.5" font-family="Helvetica,sans-Serif" font-size="10.00">AsyncFw::AbstractSocket</text>
<text xml:space="preserve" text-anchor="middle" x="223.12" y="-71.5" font-family="Helvetica,sans-Serif" font-size="10.00">::write</text>
</a>
</g>
</g>
<!-- Node12&#45;&gt;Node13 -->
<g id="edge15_Node000012_Node000013" class="edge">
<title>Node12&#45;&gt;Node13</title>
<g id="a_edge15_Node000012_Node000013"><a xlink:title=" ">
<path fill="none" stroke="#63b8ff" d="M323.28,-78.17C311.82,-78.5 300.1,-78.83 288.91,-79.15"/>
<polygon fill="#63b8ff" stroke="#63b8ff" points="323.21,-81.67 333.1,-77.89 323.01,-74.68 323.21,-81.67"/>
</a>
</g>
</g>
<!-- Node14 -->
<g id="Node000014" class="node">
<title>Node14</title>
<g id="a_Node000014"><a xlink:href="classAsyncFw_1_1HttpSocket.html#ac276bcd3a5e86289eb37ea7fd062559b" target="_top" xlink:title="Called when writing to the socket is possible.">
<polygon fill="white" stroke="#666666" points="279.5,-47 166.75,-47 166.75,-15 279.5,-15 279.5,-47"/>
<text xml:space="preserve" text-anchor="start" x="174.75" y="-33.5" font-family="Helvetica,sans-Serif" font-size="10.00">AsyncFw::HttpSocket</text>
<text xml:space="preserve" text-anchor="middle" x="223.12" y="-21.5" font-family="Helvetica,sans-Serif" font-size="10.00">::writeEvent</text>
</a>
</g>
</g>
<!-- Node12&#45;&gt;Node14 -->
<g id="edge16_Node000012_Node000014" class="edge">
<title>Node12&#45;&gt;Node14</title>
<g id="a_edge16_Node000012_Node000014"><a xlink:title=" ">
<path fill="none" stroke="#63b8ff" d="M324.74,-56.84C309.65,-52.96 294.03,-48.95 279.74,-45.28"/>
<polygon fill="#63b8ff" stroke="#63b8ff" points="323.59,-60.15 334.14,-59.25 325.33,-53.37 323.59,-60.15"/>
</a>
</g>
</g>
<!-- Node15&#45;&gt;Node12 -->
<g id="edge18_Node000015_Node000012" class="edge">
<title>Node15&#45;&gt;Node12</title>
<g id="a_edge18_Node000015_Node000012"><a xlink:title=" ">
<path fill="none" stroke="#63b8ff" d="M504.64,-63.31C491.85,-64.88 478.68,-66.5 466.2,-68.03"/>
<polygon fill="#63b8ff" stroke="#63b8ff" points="504.75,-66.82 514.25,-62.13 503.9,-59.87 504.75,-66.82"/>
</a>
</g>
</g>
<!-- Node15&#45;&gt;Node16 -->
<g id="edge19_Node000015_Node000016" class="edge">
<title>Node15&#45;&gt;Node16</title>
<g id="a_edge19_Node000015_Node000016"><a xlink:title=" ">
<path fill="none" stroke="#63b8ff" d="M504.5,-37.89C494.02,-35.67 483.28,-33.39 472.88,-31.18"/>
<polygon fill="#63b8ff" stroke="#63b8ff" points="503.76,-41.31 514.27,-39.97 505.22,-34.47 503.76,-41.31"/>
</a>
</g>
</g>
</g>
</svg>
