<?xml version="1.0" encoding="UTF-8" standalone="no"?>
<!DOCTYPE svg PUBLIC "-//W3C//DTD SVG 1.1//EN"
 "http://www.w3.org/Graphics/SVG/1.1/DTD/svg11.dtd">
<!-- Generated by graphviz version 14.1.3 (20260303.0454)
 -->
<!-- Title: AsyncFw::AnyData::data Pages: 1 -->
<svg width="825pt" height="278pt"
 viewBox="0.00 0.00 825.00 278.00" xmlns="http://www.w3.org/2000/svg" xmlns:xlink="http://www.w3.org/1999/xlink">
<g id="graph0" class="graph" transform="scale(1 1) rotate(0) translate(4 274)">
<title>AsyncFw::AnyData::data</title>
<!-- Node1 -->
<g id="Node000001" class="node">
<title>Node1</title>
<g id="a_Node000001"><a xlink:title="Type&#45;safely extracts and returns the stored data value.">
<polygon fill="#999999" stroke="#666666" points="816.5,-137 690.25,-137 690.25,-117 816.5,-117 816.5,-137"/>
<text xml:space="preserve" text-anchor="middle" x="753.38" y="-123.5" font-family="Helvetica,sans-Serif" font-size="10.00">AsyncFw::AnyData::data</text>
</a>
</g>
</g>
<!-- Node2 -->
<g id="Node000002" class="node">
<title>Node2</title>
<g id="a_Node000002"><a xlink:href="structAsyncFw_1_1AnyData.html#a667ea182dec03e9ca81e86cdc7db8842" target="_top" xlink:title="Constructs an AnyData storage shell with an optional initial type&#45;safe payload.">
<polygon fill="white" stroke="#666666" points="654.25,-244 508.5,-244 508.5,-224 654.25,-224 654.25,-244"/>
<text xml:space="preserve" text-anchor="middle" x="581.38" y="-230.5" font-family="Helvetica,sans-Serif" font-size="10.00">AsyncFw::AnyData::AnyData</text>
</a>
</g>
</g>
<!-- Node1&#45;&gt;Node2 -->
<g id="edge1_Node000001_Node000002" class="edge">
<title>Node1&#45;&gt;Node2</title>
<g id="a_edge1_Node000001_Node000002"><a xlink:title=" ">
<path fill="none" stroke="#63b8ff" d="M736.27,-146.01C718.27,-166.07 687.28,-197.18 654.25,-215 647.89,-218.43 640.87,-221.27 633.79,-223.61"/>
<polygon fill="#63b8ff" stroke="#63b8ff" points="738.85,-148.38 742.8,-138.55 733.58,-143.77 738.85,-148.38"/>
</a>
</g>
</g>
<!-- Node3 -->
<g id="Node000003" class="node">
<title>Node3</title>
<g id="a_Node000003"><a xlink:href="classAsyncFw_1_1AbstractSocket.html#a25efdce1c4a0dedf15e57cb0af971d86" target="_top" xlink:title="Low&#45;level native operating system read operation proxying requests directly down to the fd handle.">
<polygon fill="white" stroke="#666666" points="646.75,-206 516,-206 516,-174 646.75,-174 646.75,-206"/>
<text xml:space="preserve" text-anchor="start" x="524" y="-192.5" font-family="Helvetica,sans-Serif" font-size="10.00">AsyncFw::AbstractSocket</text>
<text xml:space="preserve" text-anchor="middle" x="581.38" y="-180.5" font-family="Helvetica,sans-Serif" font-size="10.00">::read_fd</text>
</a>
</g>
</g>
<!-- Node1&#45;&gt;Node3 -->
<g id="edge2_Node000001_Node000003" class="edge">
<title>Node1&#45;&gt;Node3</title>
<g id="a_edge2_Node000001_Node000003"><a xlink:title=" ">
<path fill="none" stroke="#63b8ff" d="M713.77,-141.31C687.91,-150.89 653.78,-163.54 626.79,-173.54"/>
<polygon fill="#63b8ff" stroke="#63b8ff" points="714.72,-144.69 722.88,-137.93 712.29,-138.12 714.72,-144.69"/>
</a>
</g>
</g>
<!-- Node10 -->
<g id="Node000010" class="node">
<title>Node10</title>
<g id="a_Node000010"><a xlink:href="classAsyncFw_1_1AbstractTlsSocket.html#a8c0f2e296d83c3004bd02dd6c2925bf1" target="_top" xlink:title="Low&#45;level decryption routing path proxying requests down to SSL_read().">
<polygon fill="white" stroke="#666666" points="472.5,-162 328.25,-162 328.25,-130 472.5,-130 472.5,-162"/>
<text xml:space="preserve" text-anchor="start" x="336.25" y="-148.5" font-family="Helvetica,sans-Serif" font-size="10.00">AsyncFw::AbstractTlsSocket</text>
<text xml:space="preserve" text-anchor="middle" x="400.38" y="-136.5" font-family="Helvetica,sans-Serif" font-size="10.00">::read_fd</text>
</a>
</g>
</g>
<!-- Node1&#45;&gt;Node10 -->
<g id="edge12_Node000001_Node000010" class="edge">
<title>Node1&#45;&gt;Node10</title>
<g id="a_edge12_Node000001_Node000010"><a xlink:title=" ">
<path fill="none" stroke="#63b8ff" d="M678.64,-130.99C618.06,-134.27 532.76,-138.89 472.81,-142.13"/>
<polygon fill="#63b8ff" stroke="#63b8ff" points="678.72,-134.49 688.52,-130.46 678.34,-127.5 678.72,-134.49"/>
</a>
</g>
</g>
<!-- Node11 -->
<g id="Node000011" class="node">
<title>Node11</title>
<g id="a_Node000011"><a xlink:href="structAsyncFw_1_1AnyData.html#af4204174192d3b8c2f83dda18366a953" target="_top" xlink:title="Overwrites or assigns a new type&#45;safe payload inside the storage box.">
<polygon fill="white" stroke="#666666" points="652.38,-118 510.38,-118 510.38,-98 652.38,-98 652.38,-118"/>
<text xml:space="preserve" text-anchor="middle" x="581.38" y="-104.5" font-family="Helvetica,sans-Serif" font-size="10.00">AsyncFw::AnyData::setData</text>
</a>
</g>
</g>
<!-- Node1&#45;&gt;Node11 -->
<g id="edge13_Node000001_Node000011" class="edge">
<title>Node1&#45;&gt;Node11</title>
<g id="a_edge13_Node000001_Node000011"><a xlink:title=" ">
<path fill="none" stroke="#63b8ff" d="M678.8,-118.78C670.15,-117.81 661.35,-116.83 652.75,-115.87"/>
<polygon fill="#63b8ff" stroke="#63b8ff" points="678.21,-122.23 688.53,-119.86 678.99,-115.28 678.21,-122.23"/>
</a>
</g>
</g>
<!-- Node12 -->
<g id="Node000012" class="node">
<title>Node12</title>
<g id="a_Node000012"><a xlink:href="classAsyncFw_1_1AbstractSocket.html#a4659df5988d2af771d4feee9edec55d8" target="_top" xlink:title="Low&#45;level native operating system write operation proxying requests directly up to the fd handle.">
<polygon fill="white" stroke="#666666" points="646.75,-80 516,-80 516,-48 646.75,-48 646.75,-80"/>
<text xml:space="preserve" text-anchor="start" x="524" y="-66.5" font-family="Helvetica,sans-Serif" font-size="10.00">AsyncFw::AbstractSocket</text>
<text xml:space="preserve" text-anchor="middle" x="581.38" y="-54.5" font-family="Helvetica,sans-Serif" font-size="10.00">::write_fd</text>
</a>
</g>
</g>
<!-- Node1&#45;&gt;Node12 -->
<g id="edge14_Node000001_Node000012" class="edge">
<title>Node1&#45;&gt;Node12</title>
<g id="a_edge14_Node000001_Node000012"><a xlink:title=" ">
<path fill="none" stroke="#63b8ff" d="M715.67,-112.44C697.29,-105.23 674.65,-96.5 654.25,-89 646.56,-86.18 638.38,-83.25 630.4,-80.44"/>
<polygon fill="#63b8ff" stroke="#63b8ff" points="714.23,-115.63 724.82,-116.04 716.8,-109.12 714.23,-115.63"/>
</a>
</g>
</g>
<!-- Node16 -->
<g id="Node000016" class="node">
<title>Node16</title>
<g id="a_Node000016"><a xlink:href="classAsyncFw_1_1AbstractTlsSocket.html#a84a79c1f921e96efd6b4f47cd7cd91e0" target="_top" xlink:title="Low&#45;level encryption routing path proxying outgoing payload directly up to SSL_write().">
<polygon fill="white" stroke="#666666" points="472.5,-32 328.25,-32 328.25,0 472.5,0 472.5,-32"/>
<text xml:space="preserve" text-anchor="start" x="336.25" y="-18.5" font-family="Helvetica,sans-Serif" font-size="10.00">AsyncFw::AbstractTlsSocket</text>
<text xml:space="preserve" text-anchor="middle" x="400.38" y="-6.5" font-family="Helvetica,sans-Serif" font-size="10.00">::write_fd</text>
</a>
</g>
</g>
<!-- Node1&#45;&gt;Node16 -->
<g id="edge19_Node000001_Node000016" class="edge">
<title>Node1&#45;&gt;Node16</title>
<g id="a_edge19_Node000001_Node000016"><a xlink:title=" ">
<path fill="none" stroke="#63b8ff" d="M737.59,-107.83C720.18,-86.87 689.18,-54.22 654.25,-39 596.76,-13.95 525.08,-9.64 472.73,-10.75"/>
<polygon fill="#63b8ff" stroke="#63b8ff" points="734.65,-109.76 743.65,-115.36 740.1,-105.38 734.65,-109.76"/>
</a>
</g>
</g>
<!-- Node4 -->
<g id="Node000004" class="node">
<title>Node4</title>
<g id="a_Node000004"><a xlink:href="classAsyncFw_1_1AbstractSocket.html#a3f4a74f0ab83d096bd37118bb28d8654" target="_top" xlink:title="Non&#45;destructively inspects the internal unread data buffer without consuming it.">
<polygon fill="white" stroke="#666666" points="465.75,-266 335,-266 335,-234 465.75,-234 465.75,-266"/>
<text xml:space="preserve" text-anchor="start" x="343" y="-252.5" font-family="Helvetica,sans-Serif" font-size="10.00">AsyncFw::AbstractSocket</text>
<text xml:space="preserve" text-anchor="middle" x="400.38" y="-240.5" font-family="Helvetica,sans-Serif" font-size="10.00">::peek</text>
</a>
</g>
</g>
<!-- Node3&#45;&gt;Node4 -->
<g id="edge3_Node000003_Node000004" class="edge">
<title>Node3&#45;&gt;Node4</title>
<g id="a_edge3_Node000003_Node000004"><a xlink:title=" ">
<path fill="none" stroke="#63b8ff" d="M520.56,-210.05C497.81,-217.67 472.19,-226.26 450.54,-233.52"/>
<polygon fill="#63b8ff" stroke="#63b8ff" points="521.66,-213.37 530.03,-206.88 519.43,-206.74 521.66,-213.37"/>
</a>
</g>
</g>
<!-- Node7 -->
<g id="Node000007" class="node">
<title>Node7</title>
<g id="a_Node000007"><a xlink:href="classAsyncFw_1_1AbstractSocket.html#a374dd4ce66bfcc8a6dcf40b4ba552828" target="_top" xlink:title="Reads incoming data into a raw byte buffer up to a specified maximum size.">
<polygon fill="white" stroke="#666666" points="465.75,-212 335,-212 335,-180 465.75,-180 465.75,-212"/>
<text xml:space="preserve" text-anchor="start" x="343" y="-198.5" font-family="Helvetica,sans-Serif" font-size="10.00">AsyncFw::AbstractSocket</text>
<text xml:space="preserve" text-anchor="middle" x="400.38" y="-186.5" font-family="Helvetica,sans-Serif" font-size="10.00">::read</text>
</a>
</g>
</g>
<!-- Node3&#45;&gt;Node7 -->
<g id="edge6_Node000003_Node000007" class="edge">
<title>Node3&#45;&gt;Node7</title>
<g id="a_edge6_Node000003_Node000007"><a xlink:title=" ">
<path fill="none" stroke="#63b8ff" d="M504.25,-192.55C491.59,-192.98 478.56,-193.41 466.2,-193.83"/>
<polygon fill="#63b8ff" stroke="#63b8ff" points="504.36,-196.05 514.24,-192.22 504.13,-189.05 504.36,-196.05"/>
</a>
</g>
</g>
<!-- Node3&#45;&gt;Node10 -->
<g id="edge11_Node000003_Node000010" class="edge">
<title>Node3&#45;&gt;Node10</title>
<g id="a_edge11_Node000003_Node000010"><a xlink:title=" ">
<path fill="none" stroke="#63b8ff" d="M504.76,-171.41C492.65,-168.44 480.2,-165.38 468.31,-162.45"/>
<polygon fill="#63b8ff" stroke="#63b8ff" points="503.74,-174.77 514.28,-173.75 505.41,-167.97 503.74,-174.77"/>
</a>
</g>
</g>
<!-- Node5 -->
<g id="Node000005" class="node">
<title>Node5</title>
<g id="a_Node000005"><a xlink:href="classAsyncFw_1_1HttpSocket.html#a7163448458d68f433dbdb214a6175be3" target="_top" xlink:title="Called when there is data to read.">
<polygon fill="white" stroke="#666666" points="279.5,-270 166.75,-270 166.75,-238 279.5,-238 279.5,-270"/>
<text xml:space="preserve" text-anchor="start" x="174.75" y="-256.5" font-family="Helvetica,sans-Serif" font-size="10.00">AsyncFw::HttpSocket</text>
<text xml:space="preserve" text-anchor="middle" x="223.12" y="-244.5" font-family="Helvetica,sans-Serif" font-size="10.00">::readEvent</text>
</a>
</g>
</g>
<!-- Node4&#45;&gt;Node5 -->
<g id="edge4_Node000004_Node000005" class="edge">
<title>Node4&#45;&gt;Node5</title>
<g id="a_edge4_Node000004_Node000005"><a xlink:title=" ">
<path fill="none" stroke="#63b8ff" d="M323.11,-251.74C308.61,-252.07 293.69,-252.41 279.97,-252.73"/>
<polygon fill="#63b8ff" stroke="#63b8ff" points="323.19,-255.24 333.1,-251.51 323.03,-248.24 323.19,-255.24"/>
</a>
</g>
</g>
<!-- Node6 -->
<g id="Node000006" class="node">
<title>Node6</title>
<g id="a_Node000006"><a xlink:href="classAsyncFw_1_1HttpServer_1_1TcpSocket.html#abb44001861ba7b24633b54ae90c2896c" target="_top" xlink:title="Triggered when new raw data is available in the socket for reading. &#160;&#160;Overrides the base behavior to ...">
<polygon fill="white" stroke="#666666" points="118,-248 0,-248 0,-216 118,-216 118,-248"/>
<text xml:space="preserve" text-anchor="start" x="8" y="-234.5" font-family="Helvetica,sans-Serif" font-size="10.00">AsyncFw::HttpServer</text>
<text xml:space="preserve" text-anchor="middle" x="59" y="-222.5" font-family="Helvetica,sans-Serif" font-size="10.00">::TcpSocket::readEvent</text>
</a>
</g>
</g>
<!-- Node5&#45;&gt;Node6 -->
<g id="edge5_Node000005_Node000006" class="edge">
<title>Node5&#45;&gt;Node6</title>
<g id="a_edge5_Node000005_Node000006"><a xlink:title=" ">
<path fill="none" stroke="#63b8ff" d="M155.25,-244.93C143.02,-243.27 130.34,-241.55 118.38,-239.92"/>
<polygon fill="#63b8ff" stroke="#63b8ff" points="154.45,-248.35 164.83,-246.23 155.39,-241.41 154.45,-248.35"/>
</a>
</g>
</g>
<!-- Node7&#45;&gt;Node5 -->
<g id="edge10_Node000007_Node000005" class="edge">
<title>Node7&#45;&gt;Node5</title>
<g id="a_edge10_Node000007_Node000005"><a xlink:title=" ">
<path fill="none" stroke="#63b8ff" d="M338.76,-216.06C317.52,-223.09 293.93,-230.9 273.7,-237.59"/>
<polygon fill="#63b8ff" stroke="#63b8ff" points="339.79,-219.41 348.19,-212.94 337.59,-212.76 339.79,-219.41"/>
</a>
</g>
</g>
<!-- Node7&#45;&gt;Node6 -->
<g id="edge9_Node000007_Node000006" class="edge">
<title>Node7&#45;&gt;Node6</title>
<g id="a_edge9_Node000007_Node000006"><a xlink:title=" ">
<path fill="none" stroke="#63b8ff" d="M323.46,-204.05C261.47,-210.63 175.14,-219.79 118.44,-225.8"/>
<polygon fill="#63b8ff" stroke="#63b8ff" points="323.66,-207.55 333.24,-203.02 322.92,-200.59 323.66,-207.55"/>
</a>
</g>
</g>
<!-- Node8 -->
<g id="Node000008" class="node">
<title>Node8</title>
<g id="a_Node000008"><a xlink:href="classAsyncFw_1_1AbstractSocket.html#a4eea287aa9c8a3cafc2ea92ca72d85bc" target="_top" xlink:title="Reads a chunk of incoming data and extracts it into a returned DataArray object.">
<polygon fill="white" stroke="#666666" points="288.5,-182 157.75,-182 157.75,-150 288.5,-150 288.5,-182"/>
<text xml:space="preserve" text-anchor="start" x="165.75" y="-168.5" font-family="Helvetica,sans-Serif" font-size="10.00">AsyncFw::AbstractSocket</text>
<text xml:space="preserve" text-anchor="middle" x="223.12" y="-156.5" font-family="Helvetica,sans-Serif" font-size="10.00">::read</text>
</a>
</g>
</g>
<!-- Node7&#45;&gt;Node8 -->
<g id="edge7_Node000007_Node000008" class="edge">
<title>Node7&#45;&gt;Node8</title>
<g id="a_edge7_Node000007_Node000008"><a xlink:title=" ">
<path fill="none" stroke="#63b8ff" d="M323.28,-182.97C311.82,-181.01 300.1,-179.01 288.91,-177.09"/>
<polygon fill="#63b8ff" stroke="#63b8ff" points="322.68,-186.42 333.12,-184.66 323.86,-179.52 322.68,-186.42"/>
</a>
</g>
</g>
<!-- Node9 -->
<g id="Node000009" class="node">
<title>Node9</title>
<g id="a_Node000009"><a xlink:href="classAsyncFw_1_1DataArraySocket.html#a1a1f3404abcb93af27de1d7bc0a958b1" target="_top" xlink:title="Called when there is data to read.">
<polygon fill="white" stroke="#666666" points="292.25,-132 154,-132 154,-100 292.25,-100 292.25,-132"/>
<text xml:space="preserve" text-anchor="start" x="162" y="-118.5" font-family="Helvetica,sans-Serif" font-size="10.00">AsyncFw::DataArraySocket</text>
<text xml:space="preserve" text-anchor="middle" x="223.12" y="-106.5" font-family="Helvetica,sans-Serif" font-size="10.00">::readEvent</text>
</a>
</g>
</g>
<!-- Node7&#45;&gt;Node9 -->
<g id="edge8_Node000007_Node000009" class="edge">
<title>Node7&#45;&gt;Node9</title>
<g id="a_edge8_Node000007_Node000009"><a xlink:title=" ">
<path fill="none" stroke="#63b8ff" d="M335.53,-174.85C333.04,-173.62 330.6,-172.34 328.25,-171 310.14,-160.72 310.29,-151.41 292.25,-141 286.79,-137.85 280.87,-134.98 274.87,-132.4"/>
<polygon fill="#63b8ff" stroke="#63b8ff" points="334.08,-178.03 344.63,-178.98 336.97,-171.66 334.08,-178.03"/>
</a>
</g>
</g>
<!-- Node13 -->
<g id="Node000013" class="node">
<title>Node13</title>
<g id="a_Node000013"><a xlink:href="classAsyncFw_1_1AbstractSocket.html#a6b5bfbc488d553dca8a2d01b6b415482" target="_top" xlink:title="Writes raw binary bytes out to the network socket layer.">
<polygon fill="white" stroke="#666666" points="465.75,-82 335,-82 335,-50 465.75,-50 465.75,-82"/>
<text xml:space="preserve" text-anchor="start" x="343" y="-68.5" font-family="Helvetica,sans-Serif" font-size="10.00">AsyncFw::AbstractSocket</text>
<text xml:space="preserve" text-anchor="middle" x="400.38" y="-56.5" font-family="Helvetica,sans-Serif" font-size="10.00">::write</text>
</a>
</g>
</g>
<!-- Node12&#45;&gt;Node13 -->
<g id="edge15_Node000012_Node000013" class="edge">
<title>Node12&#45;&gt;Node13</title>
<g id="a_edge15_Node000012_Node000013"><a xlink:title=" ">
<path fill="none" stroke="#63b8ff" d="M504.25,-64.85C491.59,-64.99 478.56,-65.14 466.2,-65.28"/>
<polygon fill="#63b8ff" stroke="#63b8ff" points="504.28,-68.35 514.24,-64.74 504.2,-61.35 504.28,-68.35"/>
</a>
</g>
</g>
<!-- Node12&#45;&gt;Node16 -->
<g id="edge18_Node000012_Node000016" class="edge">
<title>Node12&#45;&gt;Node16</title>
<g id="a_edge18_Node000012_Node000016"><a xlink:title=" ">
<path fill="none" stroke="#63b8ff" d="M508.18,-44.64C493.08,-40.59 477.3,-36.36 462.65,-32.43"/>
<polygon fill="#63b8ff" stroke="#63b8ff" points="507,-47.95 517.56,-47.16 508.81,-41.19 507,-47.95"/>
</a>
</g>
</g>
<!-- Node14 -->
<g id="Node000014" class="node">
<title>Node14</title>
<g id="a_Node000014"><a xlink:href="classAsyncFw_1_1AbstractSocket.html#a4ad7bcd91ec7a91270d83bf583d62be1" target="_top" xlink:title="Transmits a structural DataArray package out to the network layer.">
<polygon fill="white" stroke="#666666" points="288.5,-82 157.75,-82 157.75,-50 288.5,-50 288.5,-82"/>
<text xml:space="preserve" text-anchor="start" x="165.75" y="-68.5" font-family="Helvetica,sans-Serif" font-size="10.00">AsyncFw::AbstractSocket</text>
<text xml:space="preserve" text-anchor="middle" x="223.12" y="-56.5" font-family="Helvetica,sans-Serif" font-size="10.00">::write</text>
</a>
</g>
</g>
<!-- Node13&#45;&gt;Node14 -->
<g id="edge16_Node000013_Node000014" class="edge">
<title>Node13&#45;&gt;Node14</title>
<g id="a_edge16_Node000013_Node000014"><a xlink:title=" ">
<path fill="none" stroke="#63b8ff" d="M323.28,-66C311.82,-66 300.1,-66 288.91,-66"/>
<polygon fill="#63b8ff" stroke="#63b8ff" points="323.1,-69.5 333.1,-66 323.1,-62.5 323.1,-69.5"/>
</a>
</g>
</g>
<!-- Node15 -->
<g id="Node000015" class="node">
<title>Node15</title>
<g id="a_Node000015"><a xlink:href="classAsyncFw_1_1HttpSocket.html#ac276bcd3a5e86289eb37ea7fd062559b" target="_top" xlink:title="Called when writing to the socket is possible.">
<polygon fill="white" stroke="#666666" points="279.5,-32 166.75,-32 166.75,0 279.5,0 279.5,-32"/>
<text xml:space="preserve" text-anchor="start" x="174.75" y="-18.5" font-family="Helvetica,sans-Serif" font-size="10.00">AsyncFw::HttpSocket</text>
<text xml:space="preserve" text-anchor="middle" x="223.12" y="-6.5" font-family="Helvetica,sans-Serif" font-size="10.00">::writeEvent</text>
</a>
</g>
</g>
<!-- Node13&#45;&gt;Node15 -->
<g id="edge17_Node000013_Node000015" class="edge">
<title>Node13&#45;&gt;Node15</title>
<g id="a_edge17_Node000013_Node000015"><a xlink:title=" ">
<path fill="none" stroke="#63b8ff" d="M331.03,-46.5C314.08,-41.66 296.11,-36.54 279.85,-31.9"/>
<polygon fill="#63b8ff" stroke="#63b8ff" points="329.96,-49.83 340.54,-49.21 331.88,-43.1 329.96,-49.83"/>
</a>
</g>
</g>
</g>
</svg>
