<?xml version="1.0" encoding="UTF-8" standalone="no"?>
<!DOCTYPE svg PUBLIC "-//W3C//DTD SVG 1.1//EN"
 "http://www.w3.org/Graphics/SVG/1.1/DTD/svg11.dtd">
<!-- Generated by graphviz version 14.1.3 (20260303.0454)
 -->
<!-- Title: AsyncFw::AnyData::data Pages: 1 -->
<svg width="831pt" height="361pt"
 viewBox="0.00 0.00 831.00 361.00" xmlns="http://www.w3.org/2000/svg" xmlns:xlink="http://www.w3.org/1999/xlink">
<g id="graph0" class="graph" transform="scale(1 1) rotate(0) translate(4 357.28)">
<title>AsyncFw::AnyData::data</title>
<!-- Node1 -->
<g id="Node000001" class="node">
<title>Node1</title>
<g id="a_Node000001"><a xlink:title="Type&#45;safely extracts and returns the stored data value.">
<polygon fill="#999999" stroke="#666666" points="822.5,-157.28 696.25,-157.28 696.25,-137.28 822.5,-137.28 822.5,-157.28"/>
<text xml:space="preserve" text-anchor="middle" x="759.38" y="-143.78" font-family="Helvetica,sans-Serif" font-size="10.00">AsyncFw::AnyData::data</text>
</a>
</g>
</g>
<!-- Node2 -->
<g id="Node000002" class="node">
<title>Node2</title>
<g id="a_Node000002"><a xlink:href="structAsyncFw_1_1AnyData.html#a667ea182dec03e9ca81e86cdc7db8842" target="_top" xlink:title="Constructs an AnyData storage shell with an optional initial type&#45;safe payload.">
<polygon fill="white" stroke="#666666" points="660.25,-294.28 514.5,-294.28 514.5,-274.28 660.25,-274.28 660.25,-294.28"/>
<text xml:space="preserve" text-anchor="middle" x="587.38" y="-280.78" font-family="Helvetica,sans-Serif" font-size="10.00">AsyncFw::AnyData::AnyData</text>
</a>
</g>
</g>
<!-- Node1&#45;&gt;Node2 -->
<g id="edge1_Node000001_Node000002" class="edge">
<title>Node1&#45;&gt;Node2</title>
<g id="a_edge1_Node000001_Node000002"><a xlink:title=" ">
<path fill="none" stroke="#63b8ff" d="M747.14,-167.36C731.26,-193.86 699.74,-240.09 660.25,-265.28 654.81,-268.75 648.75,-271.59 642.53,-273.91"/>
<polygon fill="#63b8ff" stroke="#63b8ff" points="750.03,-169.35 752.03,-158.94 743.98,-165.83 750.03,-169.35"/>
</a>
</g>
</g>
<!-- Node3 -->
<g id="Node000003" class="node">
<title>Node3</title>
<g id="a_Node000003"><a xlink:href="classAsyncFw_1_1AbstractSocket.html#a25efdce1c4a0dedf15e57cb0af971d86" target="_top" xlink:title="Low&#45;level native operating system read operation proxying requests directly down to the fd handle.">
<polygon fill="white" stroke="#666666" points="652.75,-256.28 522,-256.28 522,-224.28 652.75,-224.28 652.75,-256.28"/>
<text xml:space="preserve" text-anchor="start" x="530" y="-242.78" font-family="Helvetica,sans-Serif" font-size="10.00">AsyncFw::AbstractSocket</text>
<text xml:space="preserve" text-anchor="middle" x="587.38" y="-230.78" font-family="Helvetica,sans-Serif" font-size="10.00">::read_fd</text>
</a>
</g>
</g>
<!-- Node1&#45;&gt;Node3 -->
<g id="edge2_Node000001_Node000003" class="edge">
<title>Node1&#45;&gt;Node3</title>
<g id="a_edge2_Node000001_Node000003"><a xlink:title=" ">
<path fill="none" stroke="#63b8ff" d="M733.77,-163.89C714.25,-176.74 686.06,-194.6 660.25,-208.28 649.99,-213.72 638.62,-219.07 628.01,-223.8"/>
<polygon fill="#63b8ff" stroke="#63b8ff" points="735.47,-166.96 741.87,-158.51 731.6,-161.13 735.47,-166.96"/>
</a>
</g>
</g>
<!-- Node12 -->
<g id="Node000012" class="node">
<title>Node12</title>
<g id="a_Node000012"><a xlink:href="classAsyncFw_1_1AbstractTlsSocket.html#a8c0f2e296d83c3004bd02dd6c2925bf1" target="_top" xlink:title="Low&#45;level decryption routing path proxying requests down to SSL_read().">
<polygon fill="white" stroke="#666666" points="478.5,-215.28 334.25,-215.28 334.25,-183.28 478.5,-183.28 478.5,-215.28"/>
<text xml:space="preserve" text-anchor="start" x="342.25" y="-201.78" font-family="Helvetica,sans-Serif" font-size="10.00">AsyncFw::AbstractTlsSocket</text>
<text xml:space="preserve" text-anchor="middle" x="406.38" y="-189.78" font-family="Helvetica,sans-Serif" font-size="10.00">::read_fd</text>
</a>
</g>
</g>
<!-- Node1&#45;&gt;Node12 -->
<g id="edge14_Node000001_Node000012" class="edge">
<title>Node1&#45;&gt;Node12</title>
<g id="a_edge14_Node000001_Node000012"><a xlink:title=" ">
<path fill="none" stroke="#63b8ff" d="M696.29,-159.9C684.35,-162.16 671.93,-164.39 660.25,-166.28 599.28,-176.15 529.67,-185.06 478.94,-191.13"/>
<polygon fill="#63b8ff" stroke="#63b8ff" points="696.91,-163.35 706.07,-158.02 695.59,-156.47 696.91,-163.35"/>
</a>
</g>
</g>
<!-- Node13 -->
<g id="Node000013" class="node">
<title>Node13</title>
<g id="a_Node000013"><a xlink:href="structAsyncFw_1_1AnyData.html#af4204174192d3b8c2f83dda18366a953" target="_top" xlink:title="Overwrites or assigns a new type&#45;safe payload inside the storage box.">
<polygon fill="white" stroke="#666666" points="658.38,-157.28 516.38,-157.28 516.38,-137.28 658.38,-137.28 658.38,-157.28"/>
<text xml:space="preserve" text-anchor="middle" x="587.38" y="-143.78" font-family="Helvetica,sans-Serif" font-size="10.00">AsyncFw::AnyData::setData</text>
</a>
</g>
</g>
<!-- Node1&#45;&gt;Node13 -->
<g id="edge15_Node000001_Node000013" class="edge">
<title>Node1&#45;&gt;Node13</title>
<g id="a_edge15_Node000001_Node000013"><a xlink:title=" ">
<path fill="none" stroke="#63b8ff" d="M684.8,-147.28C676.15,-147.28 667.35,-147.28 658.75,-147.28"/>
<polygon fill="#63b8ff" stroke="#63b8ff" points="684.53,-150.78 694.53,-147.28 684.53,-143.78 684.53,-150.78"/>
</a>
</g>
</g>
<!-- Node14 -->
<g id="Node000014" class="node">
<title>Node14</title>
<g id="a_Node000014"><a xlink:href="classAsyncFw_1_1AbstractSocket.html#a6b5bfbc488d553dca8a2d01b6b415482" target="_top" xlink:title="Writes raw binary bytes out to the network socket layer.">
<polygon fill="white" stroke="#666666" points="652.75,-115.28 522,-115.28 522,-83.28 652.75,-83.28 652.75,-115.28"/>
<text xml:space="preserve" text-anchor="start" x="530" y="-101.78" font-family="Helvetica,sans-Serif" font-size="10.00">AsyncFw::AbstractSocket</text>
<text xml:space="preserve" text-anchor="middle" x="587.38" y="-89.78" font-family="Helvetica,sans-Serif" font-size="10.00">::write</text>
</a>
</g>
</g>
<!-- Node1&#45;&gt;Node14 -->
<g id="edge16_Node000001_Node000014" class="edge">
<title>Node1&#45;&gt;Node14</title>
<g id="a_edge16_Node000001_Node000014"><a xlink:title=" ">
<path fill="none" stroke="#63b8ff" d="M710.53,-133.77C690.66,-128.16 667.43,-121.6 646.58,-115.72"/>
<polygon fill="#63b8ff" stroke="#63b8ff" points="709.46,-137.1 720.03,-136.45 711.36,-130.37 709.46,-137.1"/>
</a>
</g>
</g>
<!-- Node16 -->
<g id="Node000016" class="node">
<title>Node16</title>
<g id="a_Node000016"><a xlink:href="classAsyncFw_1_1AbstractSocket.html#a4659df5988d2af771d4feee9edec55d8" target="_top" xlink:title="Low&#45;level native operating system write operation proxying requests directly up to the fd handle.">
<polygon fill="white" stroke="#666666" points="471.75,-65.28 341,-65.28 341,-33.28 471.75,-33.28 471.75,-65.28"/>
<text xml:space="preserve" text-anchor="start" x="349" y="-51.78" font-family="Helvetica,sans-Serif" font-size="10.00">AsyncFw::AbstractSocket</text>
<text xml:space="preserve" text-anchor="middle" x="406.38" y="-39.78" font-family="Helvetica,sans-Serif" font-size="10.00">::write_fd</text>
</a>
</g>
</g>
<!-- Node1&#45;&gt;Node16 -->
<g id="edge23_Node000001_Node000016" class="edge">
<title>Node1&#45;&gt;Node16</title>
<g id="a_edge23_Node000001_Node000016"><a xlink:title=" ">
<path fill="none" stroke="#63b8ff" d="M740.34,-129.02C721.96,-111.67 691.73,-86.46 660.25,-74.28 599.46,-50.77 524.61,-46.07 472.17,-46.3"/>
<polygon fill="#63b8ff" stroke="#63b8ff" points="737.67,-131.31 747.29,-135.76 742.55,-126.29 737.67,-131.31"/>
</a>
</g>
</g>
<!-- Node17 -->
<g id="Node000017" class="node">
<title>Node17</title>
<g id="a_Node000017"><a xlink:href="classAsyncFw_1_1AbstractTlsSocket.html#a84a79c1f921e96efd6b4f47cd7cd91e0" target="_top" xlink:title="Low&#45;level encryption routing path proxying outgoing payload directly up to SSL_write().">
<polygon fill="white" stroke="#666666" points="298.25,-43.28 154,-43.28 154,-11.28 298.25,-11.28 298.25,-43.28"/>
<text xml:space="preserve" text-anchor="start" x="162" y="-29.78" font-family="Helvetica,sans-Serif" font-size="10.00">AsyncFw::AbstractTlsSocket</text>
<text xml:space="preserve" text-anchor="middle" x="226.12" y="-17.78" font-family="Helvetica,sans-Serif" font-size="10.00">::write_fd</text>
</a>
</g>
</g>
<!-- Node1&#45;&gt;Node17 -->
<g id="edge24_Node000001_Node000017" class="edge">
<title>Node1&#45;&gt;Node17</title>
<g id="a_edge24_Node000001_Node000017"><a xlink:title=" ">
<path fill="none" stroke="#63b8ff" d="M746.11,-127.35C729.83,-102.87 698.63,-62.26 660.25,-43.28 544.07,14.18 388.15,1.56 298.56,-12.85"/>
<polygon fill="#63b8ff" stroke="#63b8ff" points="743.16,-129.24 751.51,-135.77 749.05,-125.46 743.16,-129.24"/>
</a>
</g>
</g>
<!-- Node4 -->
<g id="Node000004" class="node">
<title>Node4</title>
<g id="a_Node000004"><a xlink:href="classAsyncFw_1_1AbstractTlsSocket.html#a57ac6daff9926cf631abcd1e19073cc8" target="_top" xlink:title="Core internal event handler reacting to raw descriptor readiness signals.">
<polygon fill="white" stroke="#666666" points="298.25,-129.28 154,-129.28 154,-97.28 298.25,-97.28 298.25,-129.28"/>
<text xml:space="preserve" text-anchor="start" x="162" y="-115.78" font-family="Helvetica,sans-Serif" font-size="10.00">AsyncFw::AbstractTlsSocket</text>
<text xml:space="preserve" text-anchor="middle" x="226.12" y="-103.78" font-family="Helvetica,sans-Serif" font-size="10.00">::activateEvent</text>
</a>
</g>
</g>
<!-- Node3&#45;&gt;Node4 -->
<g id="edge3_Node000003_Node000004" class="edge">
<title>Node3&#45;&gt;Node4</title>
<g id="a_edge3_Node000003_Node000004"><a xlink:title=" ">
<path fill="none" stroke="#63b8ff" d="M510.27,-251.77C457.63,-255.97 387.71,-253.84 334.25,-224.28 310.29,-211.03 316.77,-194.45 298.25,-174.28 283.06,-157.75 263.58,-141.31 248.85,-129.68"/>
<polygon fill="#63b8ff" stroke="#63b8ff" points="510.42,-255.27 520.06,-250.89 509.79,-248.3 510.42,-255.27"/>
</a>
</g>
</g>
<!-- Node6 -->
<g id="Node000006" class="node">
<title>Node6</title>
<g id="a_Node000006"><a xlink:href="classAsyncFw_1_1AbstractSocket.html#a3f4a74f0ab83d096bd37118bb28d8654" target="_top" xlink:title="Non&#45;destructively inspects the internal unread data buffer without consuming it.">
<polygon fill="white" stroke="#666666" points="471.75,-353.28 341,-353.28 341,-321.28 471.75,-321.28 471.75,-353.28"/>
<text xml:space="preserve" text-anchor="start" x="349" y="-339.78" font-family="Helvetica,sans-Serif" font-size="10.00">AsyncFw::AbstractSocket</text>
<text xml:space="preserve" text-anchor="middle" x="406.38" y="-327.78" font-family="Helvetica,sans-Serif" font-size="10.00">::peek</text>
</a>
</g>
</g>
<!-- Node3&#45;&gt;Node6 -->
<g id="edge5_Node000003_Node000006" class="edge">
<title>Node3&#45;&gt;Node6</title>
<g id="a_edge5_Node000003_Node000006"><a xlink:title=" ">
<path fill="none" stroke="#63b8ff" d="M519.29,-262.07C517.65,-263.09 516.05,-264.16 514.5,-265.28 493.18,-280.7 499.8,-296.83 478.5,-312.28 474.05,-315.51 469.15,-318.35 464.06,-320.85"/>
<polygon fill="#63b8ff" stroke="#63b8ff" points="520.7,-265.29 527.77,-257.4 517.32,-259.15 520.7,-265.29"/>
</a>
</g>
</g>
<!-- Node9 -->
<g id="Node000009" class="node">
<title>Node9</title>
<g id="a_Node000009"><a xlink:href="classAsyncFw_1_1AbstractSocket.html#a374dd4ce66bfcc8a6dcf40b4ba552828" target="_top" xlink:title="Reads incoming data into a raw byte buffer up to a specified maximum size.">
<polygon fill="white" stroke="#666666" points="471.75,-303.28 341,-303.28 341,-271.28 471.75,-271.28 471.75,-303.28"/>
<text xml:space="preserve" text-anchor="start" x="349" y="-289.78" font-family="Helvetica,sans-Serif" font-size="10.00">AsyncFw::AbstractSocket</text>
<text xml:space="preserve" text-anchor="middle" x="406.38" y="-277.78" font-family="Helvetica,sans-Serif" font-size="10.00">::read</text>
</a>
</g>
</g>
<!-- Node3&#45;&gt;Node9 -->
<g id="edge8_Node000003_Node000009" class="edge">
<title>Node3&#45;&gt;Node9</title>
<g id="a_edge8_Node000003_Node000009"><a xlink:title=" ">
<path fill="none" stroke="#63b8ff" d="M512.98,-259.55C498.69,-263.3 483.84,-267.2 469.95,-270.85"/>
<polygon fill="#63b8ff" stroke="#63b8ff" points="513.52,-263.03 522.31,-257.1 511.74,-256.26 513.52,-263.03"/>
</a>
</g>
</g>
<!-- Node3&#45;&gt;Node12 -->
<g id="edge13_Node000003_Node000012" class="edge">
<title>Node3&#45;&gt;Node12</title>
<g id="a_edge13_Node000003_Node000012"><a xlink:title=" ">
<path fill="none" stroke="#63b8ff" d="M510.84,-222.98C500.25,-220.55 489.39,-218.07 478.88,-215.66"/>
<polygon fill="#63b8ff" stroke="#63b8ff" points="509.75,-226.32 520.28,-225.14 511.31,-219.5 509.75,-226.32"/>
</a>
</g>
</g>
<!-- Node5 -->
<g id="Node000005" class="node">
<title>Node5</title>
<g id="a_Node000005"><a xlink:href="classAsyncFw_1_1HttpSocket.html#ad51bb1bf5880c3037c7ad70231c0767d" target="_top" xlink:title="Core internal event handler reacting to raw descriptor readiness signals.">
<polygon fill="white" stroke="#666666" points="115.38,-129.28 2.62,-129.28 2.62,-97.28 115.38,-97.28 115.38,-129.28"/>
<text xml:space="preserve" text-anchor="start" x="10.62" y="-115.78" font-family="Helvetica,sans-Serif" font-size="10.00">AsyncFw::HttpSocket</text>
<text xml:space="preserve" text-anchor="middle" x="59" y="-103.78" font-family="Helvetica,sans-Serif" font-size="10.00">::activateEvent</text>
</a>
</g>
</g>
<!-- Node4&#45;&gt;Node5 -->
<g id="edge4_Node000004_Node000005" class="edge">
<title>Node4&#45;&gt;Node5</title>
<g id="a_edge4_Node000004_Node000005"><a xlink:title=" ">
<path fill="none" stroke="#63b8ff" d="M142.26,-113.28C133.24,-113.28 124.23,-113.28 115.65,-113.28"/>
<polygon fill="#63b8ff" stroke="#63b8ff" points="142.15,-116.78 152.15,-113.28 142.15,-109.78 142.15,-116.78"/>
</a>
</g>
</g>
<!-- Node7 -->
<g id="Node000007" class="node">
<title>Node7</title>
<g id="a_Node000007"><a xlink:href="classAsyncFw_1_1HttpSocket.html#a7163448458d68f433dbdb214a6175be3" target="_top" xlink:title="Called when there is data to read.">
<polygon fill="white" stroke="#666666" points="282.5,-353.28 169.75,-353.28 169.75,-321.28 282.5,-321.28 282.5,-353.28"/>
<text xml:space="preserve" text-anchor="start" x="177.75" y="-339.78" font-family="Helvetica,sans-Serif" font-size="10.00">AsyncFw::HttpSocket</text>
<text xml:space="preserve" text-anchor="middle" x="226.12" y="-327.78" font-family="Helvetica,sans-Serif" font-size="10.00">::readEvent</text>
</a>
</g>
</g>
<!-- Node6&#45;&gt;Node7 -->
<g id="edge6_Node000006_Node000007" class="edge">
<title>Node6&#45;&gt;Node7</title>
<g id="a_edge6_Node000006_Node000007"><a xlink:title=" ">
<path fill="none" stroke="#63b8ff" d="M329.28,-337.28C313.68,-337.28 297.54,-337.28 282.82,-337.28"/>
<polygon fill="#63b8ff" stroke="#63b8ff" points="329,-340.78 339,-337.28 329,-333.78 329,-340.78"/>
</a>
</g>
</g>
<!-- Node8 -->
<g id="Node000008" class="node">
<title>Node8</title>
<g id="a_Node000008"><a xlink:href="classAsyncFw_1_1HttpServer_1_1TcpSocket.html#abb44001861ba7b24633b54ae90c2896c" target="_top" xlink:title="Triggered when new raw data is available in the socket for reading. &#160;&#160;Overrides the base behavior to ...">
<polygon fill="white" stroke="#666666" points="118,-331.28 0,-331.28 0,-299.28 118,-299.28 118,-331.28"/>
<text xml:space="preserve" text-anchor="start" x="8" y="-317.78" font-family="Helvetica,sans-Serif" font-size="10.00">AsyncFw::HttpServer</text>
<text xml:space="preserve" text-anchor="middle" x="59" y="-305.78" font-family="Helvetica,sans-Serif" font-size="10.00">::TcpSocket::readEvent</text>
</a>
</g>
</g>
<!-- Node7&#45;&gt;Node8 -->
<g id="edge7_Node000007_Node000008" class="edge">
<title>Node7&#45;&gt;Node8</title>
<g id="a_edge7_Node000007_Node000008"><a xlink:title=" ">
<path fill="none" stroke="#63b8ff" d="M158.66,-328.42C145.34,-326.65 131.43,-324.8 118.41,-323.06"/>
<polygon fill="#63b8ff" stroke="#63b8ff" points="157.81,-331.84 168.18,-329.69 158.73,-324.9 157.81,-331.84"/>
</a>
</g>
</g>
<!-- Node9&#45;&gt;Node7 -->
<g id="edge12_Node000009_Node000007" class="edge">
<title>Node9&#45;&gt;Node7</title>
<g id="a_edge12_Node000009_Node000007"><a xlink:title=" ">
<path fill="none" stroke="#63b8ff" d="M336.19,-306.69C318.53,-311.64 299.78,-316.9 282.89,-321.64"/>
<polygon fill="#63b8ff" stroke="#63b8ff" points="336.87,-310.13 345.55,-304.06 334.98,-303.39 336.87,-310.13"/>
</a>
</g>
</g>
<!-- Node9&#45;&gt;Node8 -->
<g id="edge11_Node000009_Node000008" class="edge">
<title>Node9&#45;&gt;Node8</title>
<g id="a_edge11_Node000009_Node000008"><a xlink:title=" ">
<path fill="none" stroke="#63b8ff" d="M329.66,-293.42C266.12,-298.57 176.64,-305.82 118.49,-310.54"/>
<polygon fill="#63b8ff" stroke="#63b8ff" points="329.62,-296.93 339.31,-292.64 329.06,-289.96 329.62,-296.93"/>
</a>
</g>
</g>
<!-- Node10 -->
<g id="Node000010" class="node">
<title>Node10</title>
<g id="a_Node000010"><a xlink:href="classAsyncFw_1_1AbstractSocket.html#a4eea287aa9c8a3cafc2ea92ca72d85bc" target="_top" xlink:title="Reads a chunk of incoming data and extracts it into a returned DataArray object.">
<polygon fill="white" stroke="#666666" points="291.5,-265.28 160.75,-265.28 160.75,-233.28 291.5,-233.28 291.5,-265.28"/>
<text xml:space="preserve" text-anchor="start" x="168.75" y="-251.78" font-family="Helvetica,sans-Serif" font-size="10.00">AsyncFw::AbstractSocket</text>
<text xml:space="preserve" text-anchor="middle" x="226.12" y="-239.78" font-family="Helvetica,sans-Serif" font-size="10.00">::read</text>
</a>
</g>
</g>
<!-- Node9&#45;&gt;Node10 -->
<g id="edge9_Node000009_Node000010" class="edge">
<title>Node9&#45;&gt;Node10</title>
<g id="a_edge9_Node000009_Node000010"><a xlink:title=" ">
<path fill="none" stroke="#63b8ff" d="M329.62,-271.13C317.08,-268.46 304.17,-265.71 291.93,-263.1"/>
<polygon fill="#63b8ff" stroke="#63b8ff" points="328.53,-274.48 339.04,-273.14 329.99,-267.63 328.53,-274.48"/>
</a>
</g>
</g>
<!-- Node11 -->
<g id="Node000011" class="node">
<title>Node11</title>
<g id="a_Node000011"><a xlink:href="classAsyncFw_1_1DataArraySocket.html#a1a1f3404abcb93af27de1d7bc0a958b1" target="_top" xlink:title="Called when there is data to read.">
<polygon fill="white" stroke="#666666" points="295.25,-215.28 157,-215.28 157,-183.28 295.25,-183.28 295.25,-215.28"/>
<text xml:space="preserve" text-anchor="start" x="165" y="-201.78" font-family="Helvetica,sans-Serif" font-size="10.00">AsyncFw::DataArraySocket</text>
<text xml:space="preserve" text-anchor="middle" x="226.12" y="-189.78" font-family="Helvetica,sans-Serif" font-size="10.00">::readEvent</text>
</a>
</g>
</g>
<!-- Node9&#45;&gt;Node11 -->
<g id="edge10_Node000009_Node000011" class="edge">
<title>Node9&#45;&gt;Node11</title>
<g id="a_edge10_Node000009_Node000011"><a xlink:title=" ">
<path fill="none" stroke="#63b8ff" d="M349.54,-265.93C344.24,-263.26 339.06,-260.37 334.25,-257.28 315.98,-245.56 316.87,-235.44 298.25,-224.28 292.97,-221.12 287.24,-218.27 281.39,-215.74"/>
<polygon fill="#63b8ff" stroke="#63b8ff" points="347.9,-269.03 358.43,-270.16 350.9,-262.71 347.9,-269.03"/>
</a>
</g>
</g>
<!-- Node15 -->
<g id="Node000015" class="node">
<title>Node15</title>
<g id="a_Node000015"><a xlink:href="classAsyncFw_1_1AbstractSocket.html#a4ad7bcd91ec7a91270d83bf583d62be1" target="_top" xlink:title="Transmits a structural DataArray package out to the network layer.">
<polygon fill="white" stroke="#666666" points="471.75,-165.28 341,-165.28 341,-133.28 471.75,-133.28 471.75,-165.28"/>
<text xml:space="preserve" text-anchor="start" x="349" y="-151.78" font-family="Helvetica,sans-Serif" font-size="10.00">AsyncFw::AbstractSocket</text>
<text xml:space="preserve" text-anchor="middle" x="406.38" y="-139.78" font-family="Helvetica,sans-Serif" font-size="10.00">::write</text>
</a>
</g>
</g>
<!-- Node14&#45;&gt;Node15 -->
<g id="edge17_Node000014_Node000015" class="edge">
<title>Node14&#45;&gt;Node15</title>
<g id="a_edge17_Node000014_Node000015"><a xlink:title=" ">
<path fill="none" stroke="#63b8ff" d="M516.96,-118.67C500.27,-123.33 482.59,-128.27 466.42,-132.79"/>
<polygon fill="#63b8ff" stroke="#63b8ff" points="517.62,-122.12 526.31,-116.06 515.73,-115.38 517.62,-122.12"/>
</a>
</g>
</g>
<!-- Node14&#45;&gt;Node16 -->
<g id="edge18_Node000014_Node000016" class="edge">
<title>Node14&#45;&gt;Node16</title>
<g id="a_edge18_Node000014_Node000016"><a xlink:title=" ">
<path fill="none" stroke="#63b8ff" d="M537.2,-79.44C517.11,-73.14 493.58,-66.43 472.12,-60.85"/>
<polygon fill="#63b8ff" stroke="#63b8ff" points="535.94,-82.72 546.53,-82.43 538.08,-76.05 535.94,-82.72"/>
</a>
</g>
</g>
<!-- Node18 -->
<g id="Node000018" class="node">
<title>Node18</title>
<g id="a_Node000018"><a xlink:href="classAsyncFw_1_1HttpSocket.html#ac276bcd3a5e86289eb37ea7fd062559b" target="_top" xlink:title="Called when writing to the socket is possible.">
<polygon fill="white" stroke="#666666" points="462.75,-115.28 350,-115.28 350,-83.28 462.75,-83.28 462.75,-115.28"/>
<text xml:space="preserve" text-anchor="start" x="358" y="-101.78" font-family="Helvetica,sans-Serif" font-size="10.00">AsyncFw::HttpSocket</text>
<text xml:space="preserve" text-anchor="middle" x="406.38" y="-89.78" font-family="Helvetica,sans-Serif" font-size="10.00">::writeEvent</text>
</a>
</g>
</g>
<!-- Node14&#45;&gt;Node18 -->
<g id="edge22_Node000014_Node000018" class="edge">
<title>Node14&#45;&gt;Node18</title>
<g id="a_edge22_Node000014_Node000018"><a xlink:title=" ">
<path fill="none" stroke="#63b8ff" d="M510.33,-99.28C494.45,-99.28 478,-99.28 463.03,-99.28"/>
<polygon fill="#63b8ff" stroke="#63b8ff" points="510.24,-102.78 520.24,-99.28 510.24,-95.78 510.24,-102.78"/>
</a>
</g>
</g>
<!-- Node16&#45;&gt;Node4 -->
<g id="edge19_Node000016_Node000004" class="edge">
<title>Node16&#45;&gt;Node4</title>
<g id="a_edge19_Node000016_Node000004"><a xlink:title=" ">
<path fill="none" stroke="#63b8ff" d="M347.69,-69.5C343.14,-71.11 338.62,-72.72 334.25,-74.28 313.75,-81.61 291.09,-89.85 271.91,-96.85"/>
<polygon fill="#63b8ff" stroke="#63b8ff" points="348.6,-72.88 356.86,-66.25 346.27,-66.29 348.6,-72.88"/>
</a>
</g>
</g>
<!-- Node16&#45;&gt;Node14 -->
<g id="edge20_Node000016_Node000014" class="edge">
<title>Node16&#45;&gt;Node14</title>
<g id="a_edge20_Node000016_Node000014"><a xlink:title=" ">
<path fill="none" stroke="#63b8ff" d="M456.88,-69.22C476.94,-75.51 500.37,-82.19 521.75,-87.74"/>
<polygon fill="#63b8ff" stroke="#63b8ff" points="458.15,-65.95 447.56,-66.24 456.02,-72.62 458.15,-65.95"/>
</a>
</g>
</g>
<!-- Node16&#45;&gt;Node17 -->
<g id="edge21_Node000016_Node000017" class="edge">
<title>Node16&#45;&gt;Node17</title>
<g id="a_edge21_Node000016_Node000017"><a xlink:title=" ">
<path fill="none" stroke="#63b8ff" d="M329.18,-39.88C319.02,-38.62 308.63,-37.34 298.56,-36.1"/>
<polygon fill="#63b8ff" stroke="#63b8ff" points="328.66,-43.34 339.02,-41.09 329.52,-36.39 328.66,-43.34"/>
</a>
</g>
</g>
</g>
</svg>
