<?xml version="1.0" encoding="UTF-8" standalone="no"?>
<!DOCTYPE svg PUBLIC "-//W3C//DTD SVG 1.1//EN"
 "http://www.w3.org/Graphics/SVG/1.1/DTD/svg11.dtd">
<!-- Generated by graphviz version 12.2.1 (20241206.2353)
 -->
<!-- Title: AsyncFw::AnyData Pages: 1 -->
<svg width="642pt" height="208pt"
 viewBox="0.00 0.00 642.25 208.00" xmlns="http://www.w3.org/2000/svg" xmlns:xlink="http://www.w3.org/1999/xlink">
<g id="graph0" class="graph" transform="scale(1 1) rotate(0) translate(4 204)">
<title>AsyncFw::AnyData</title>
<!-- Node1 -->
<g id="Node000001" class="node">
<title>Node1</title>
<g id="a_Node000001"><a xlink:title="The AnyData class.">
<polygon fill="#999999" stroke="#666666" points="479.88,-200 378.38,-200 378.38,-180 479.88,-180 479.88,-200"/>
<text text-anchor="middle" x="429.12" y="-186.5" font-family="Helvetica,sans-Serif" font-size="10.00">AsyncFw::AnyData</text>
</a>
</g>
</g>
<!-- Node2 -->
<g id="Node000002" class="node">
<title>Node2</title>
<g id="a_Node000002"><a xlink:href="classAsyncFw_1_1AbstractSocket.html" target="_top" xlink:title="The AbstractSocket class provides the base functionality for socket.">
<polygon fill="white" stroke="#666666" points="350.5,-138 219.75,-138 219.75,-118 350.5,-118 350.5,-138"/>
<text text-anchor="middle" x="285.12" y="-124.5" font-family="Helvetica,sans-Serif" font-size="10.00">AsyncFw::AbstractSocket</text>
</a>
</g>
</g>
<!-- Node1&#45;&gt;Node2 -->
<g id="edge1_Node000001_Node000002" class="edge">
<title>Node1&#45;&gt;Node2</title>
<g id="a_edge1_Node000001_Node000002"><a xlink:title=" ">
<path fill="none" stroke="#63b8ff" d="M396.07,-175.23C368.91,-163.91 331.18,-148.19 307.47,-138.31"/>
<polygon fill="#63b8ff" stroke="#63b8ff" points="394.65,-178.43 405.23,-179.04 397.34,-171.97 394.65,-178.43"/>
</a>
</g>
</g>
<!-- Node7 -->
<g id="Node000007" class="node">
<title>Node7</title>
<g id="a_Node000007"><a xlink:href="classAsyncFw_1_1AbstractTask.html" target="_top" xlink:title="The AbstractTask class.">
<polygon fill="white" stroke="#666666" points="489.62,-138 368.62,-138 368.62,-118 489.62,-118 489.62,-138"/>
<text text-anchor="middle" x="429.12" y="-124.5" font-family="Helvetica,sans-Serif" font-size="10.00">AsyncFw::AbstractTask</text>
</a>
</g>
</g>
<!-- Node1&#45;&gt;Node7 -->
<g id="edge6_Node000001_Node000007" class="edge">
<title>Node1&#45;&gt;Node7</title>
<g id="a_edge6_Node000001_Node000007"><a xlink:title=" ">
<path fill="none" stroke="#63b8ff" d="M429.12,-168.25C429.12,-157.97 429.12,-146.09 429.12,-138.11"/>
<polygon fill="#63b8ff" stroke="#63b8ff" points="425.63,-168.11 429.13,-178.11 432.63,-168.11 425.63,-168.11"/>
</a>
</g>
</g>
<!-- Node9 -->
<g id="Node000009" class="node">
<title>Node9</title>
<g id="a_Node000009"><a xlink:href="structAsyncFw_1_1CoroutineTask_1_1promise__type.html" target="_top" xlink:title="The CoroutineTask::promise_type struct.">
<polygon fill="white" stroke="#666666" points="634.25,-144 508,-144 508,-112 634.25,-112 634.25,-144"/>
<text text-anchor="start" x="516" y="-130.5" font-family="Helvetica,sans-Serif" font-size="10.00">AsyncFw::CoroutineTask</text>
<text text-anchor="middle" x="571.12" y="-118.5" font-family="Helvetica,sans-Serif" font-size="10.00">::promise_type</text>
</a>
</g>
</g>
<!-- Node1&#45;&gt;Node9 -->
<g id="edge8_Node000001_Node000009" class="edge">
<title>Node1&#45;&gt;Node9</title>
<g id="a_edge8_Node000001_Node000009"><a xlink:title=" ">
<path fill="none" stroke="#63b8ff" d="M461.66,-175.25C483.37,-166.08 511.95,-154 534.46,-144.49"/>
<polygon fill="#63b8ff" stroke="#63b8ff" points="460.56,-171.92 452.71,-179.04 463.28,-178.37 460.56,-171.92"/>
</a>
</g>
</g>
<!-- Node3 -->
<g id="Node000003" class="node">
<title>Node3</title>
<g id="a_Node000003"><a xlink:href="classAsyncFw_1_1AbstractTlsSocket.html" target="_top" xlink:title="The AbstractTlsSocket class provides the base functionality for TLS encrypted socket.">
<polygon fill="white" stroke="#666666" points="213.25,-76 69,-76 69,-56 213.25,-56 213.25,-76"/>
<text text-anchor="middle" x="141.12" y="-62.5" font-family="Helvetica,sans-Serif" font-size="10.00">AsyncFw::AbstractTlsSocket</text>
</a>
</g>
</g>
<!-- Node2&#45;&gt;Node3 -->
<g id="edge2_Node000002_Node000003" class="edge">
<title>Node2&#45;&gt;Node3</title>
<g id="a_edge2_Node000002_Node000003"><a xlink:title=" ">
<path fill="none" stroke="#63b8ff" d="M252.07,-113.23C224.91,-101.91 187.18,-86.19 163.47,-76.31"/>
<polygon fill="#63b8ff" stroke="#63b8ff" points="250.65,-116.43 261.23,-117.04 253.34,-109.97 250.65,-116.43"/>
</a>
</g>
</g>
<!-- Node6 -->
<g id="Node000006" class="node">
<title>Node6</title>
<g id="a_Node000006"><a xlink:href="classAsyncFw_1_1ListenSocket.html" target="_top" xlink:title="The ListenSocket class.">
<polygon fill="white" stroke="#666666" points="351.25,-76 231,-76 231,-56 351.25,-56 351.25,-76"/>
<text text-anchor="middle" x="291.12" y="-62.5" font-family="Helvetica,sans-Serif" font-size="10.00">AsyncFw::ListenSocket</text>
</a>
</g>
</g>
<!-- Node2&#45;&gt;Node6 -->
<g id="edge5_Node000002_Node000006" class="edge">
<title>Node2&#45;&gt;Node6</title>
<g id="a_edge5_Node000002_Node000006"><a xlink:title=" ">
<path fill="none" stroke="#8b1a1a" d="M287.2,-106.25C288.23,-95.97 289.42,-84.09 290.21,-76.11"/>
<polygon fill="#8b1a1a" stroke="#8b1a1a" points="283.73,-105.82 286.21,-116.12 290.69,-106.52 283.73,-105.82"/>
</a>
</g>
</g>
<!-- Node4 -->
<g id="Node000004" class="node">
<title>Node4</title>
<g id="a_Node000004"><a xlink:href="classAsyncFw_1_1DataArraySocket.html" target="_top" xlink:title="The DataArraySocket class.">
<polygon fill="white" stroke="#666666" points="138.25,-20 0,-20 0,0 138.25,0 138.25,-20"/>
<text text-anchor="middle" x="69.12" y="-6.5" font-family="Helvetica,sans-Serif" font-size="10.00">AsyncFw::DataArraySocket</text>
</a>
</g>
</g>
<!-- Node3&#45;&gt;Node4 -->
<g id="edge3_Node000003_Node000004" class="edge">
<title>Node3&#45;&gt;Node4</title>
<g id="a_edge3_Node000003_Node000004"><a xlink:title=" ">
<path fill="none" stroke="#63b8ff" d="M119.73,-48.95C107.28,-39.61 92.01,-28.16 81.52,-20.3"/>
<polygon fill="#63b8ff" stroke="#63b8ff" points="117.27,-51.49 127.37,-54.69 121.47,-45.89 117.27,-51.49"/>
</a>
</g>
</g>
<!-- Node5 -->
<g id="Node000005" class="node">
<title>Node5</title>
<g id="a_Node000005"><a xlink:href="classAsyncFw_1_1HttpSocket.html" target="_top" xlink:title="The HttpSocket class.">
<polygon fill="white" stroke="#666666" points="269.5,-20 156.75,-20 156.75,0 269.5,0 269.5,-20"/>
<text text-anchor="middle" x="213.12" y="-6.5" font-family="Helvetica,sans-Serif" font-size="10.00">AsyncFw::HttpSocket</text>
</a>
</g>
</g>
<!-- Node3&#45;&gt;Node5 -->
<g id="edge4_Node000003_Node000005" class="edge">
<title>Node3&#45;&gt;Node5</title>
<g id="a_edge4_Node000003_Node000005"><a xlink:title=" ">
<path fill="none" stroke="#63b8ff" d="M162.52,-48.95C174.97,-39.61 190.24,-28.16 200.73,-20.3"/>
<polygon fill="#63b8ff" stroke="#63b8ff" points="160.78,-45.89 154.88,-54.69 164.98,-51.49 160.78,-45.89"/>
</a>
</g>
</g>
<!-- Node8 -->
<g id="Node000008" class="node">
<title>Node8</title>
<g id="a_Node000008"><a xlink:href="classAsyncFw_1_1Task.html" target="_top" xlink:title="The Task class.">
<polygon fill="white" stroke="#666666" points="484.38,-76 373.88,-76 373.88,-56 484.38,-56 484.38,-76"/>
<text text-anchor="middle" x="429.12" y="-62.5" font-family="Helvetica,sans-Serif" font-size="10.00">AsyncFw::Task&lt; M &gt;</text>
</a>
</g>
</g>
<!-- Node7&#45;&gt;Node8 -->
<g id="edge7_Node000007_Node000008" class="edge">
<title>Node7&#45;&gt;Node8</title>
<g id="a_edge7_Node000007_Node000008"><a xlink:title=" ">
<path fill="none" stroke="#63b8ff" d="M429.12,-106.25C429.12,-95.97 429.12,-84.09 429.12,-76.11"/>
<polygon fill="#63b8ff" stroke="#63b8ff" points="425.63,-106.11 429.13,-116.11 432.63,-106.11 425.63,-106.11"/>
</a>
</g>
</g>
</g>
</svg>
