<?xml version="1.0" encoding="UTF-8" standalone="no"?>
<!DOCTYPE svg PUBLIC "-//W3C//DTD SVG 1.1//EN"
 "http://www.w3.org/Graphics/SVG/1.1/DTD/svg11.dtd">
<!-- Generated by graphviz version 12.2.1 (20241206.2353)
 -->
<!-- Title: AsyncFw::AnyData::data Pages: 1 -->
<svg width="316pt" height="66pt"
 viewBox="0.00 0.00 316.00 66.00" xmlns="http://www.w3.org/2000/svg" xmlns:xlink="http://www.w3.org/1999/xlink">
<g id="graph0" class="graph" transform="scale(1 1) rotate(0) translate(4 62)">
<title>AsyncFw::AnyData::data</title>
<!-- Node1 -->
<g id="Node000001" class="node">
<title>Node1</title>
<g id="a_Node000001"><a xlink:title="Type&#45;safely extracts and returns the stored data value.">
<polygon fill="#999999" stroke="#666666" points="308,-39 181.75,-39 181.75,-19 308,-19 308,-39"/>
<text text-anchor="middle" x="244.88" y="-25.5" font-family="Helvetica,sans-Serif" font-size="10.00">AsyncFw::AnyData::data</text>
</a>
</g>
</g>
<!-- Node2 -->
<g id="Node000002" class="node">
<title>Node2</title>
<g id="a_Node000002"><a xlink:href="structAsyncFw_1_1AnyData.html#a667ea182dec03e9ca81e86cdc7db8842" target="_top" xlink:title="Constructs an AnyData storage shell with an optional initial type&#45;safe payload.">
<polygon fill="white" stroke="#666666" points="145.75,-58 0,-58 0,-38 145.75,-38 145.75,-58"/>
<text text-anchor="middle" x="72.88" y="-44.5" font-family="Helvetica,sans-Serif" font-size="10.00">AsyncFw::AnyData::AnyData</text>
</a>
</g>
</g>
<!-- Node1&#45;&gt;Node2 -->
<g id="edge1_Node000001_Node000002" class="edge">
<title>Node1&#45;&gt;Node2</title>
<g id="a_edge1_Node000001_Node000002"><a xlink:title=" ">
<path fill="none" stroke="#63b8ff" d="M170.27,-37.23C162.22,-38.13 154.03,-39.04 145.99,-39.94"/>
<polygon fill="#63b8ff" stroke="#63b8ff" points="170.49,-40.72 180.03,-36.14 169.71,-33.77 170.49,-40.72"/>
</a>
</g>
</g>
<!-- Node3 -->
<g id="Node000003" class="node">
<title>Node3</title>
<g id="a_Node000003"><a xlink:href="structAsyncFw_1_1AnyData.html#af4204174192d3b8c2f83dda18366a953" target="_top" xlink:title="Overwrites or assigns a new type&#45;safe payload inside the storage box.">
<polygon fill="white" stroke="#666666" points="143.88,-20 1.88,-20 1.88,0 143.88,0 143.88,-20"/>
<text text-anchor="middle" x="72.88" y="-6.5" font-family="Helvetica,sans-Serif" font-size="10.00">AsyncFw::AnyData::setData</text>
</a>
</g>
</g>
<!-- Node1&#45;&gt;Node3 -->
<g id="edge2_Node000001_Node000003" class="edge">
<title>Node1&#45;&gt;Node3</title>
<g id="a_edge2_Node000001_Node000003"><a xlink:title=" ">
<path fill="none" stroke="#63b8ff" d="M170.3,-20.78C161.65,-19.81 152.85,-18.83 144.25,-17.87"/>
<polygon fill="#63b8ff" stroke="#63b8ff" points="169.71,-24.23 180.03,-21.86 170.49,-17.28 169.71,-24.23"/>
</a>
</g>
</g>
</g>
</svg>
