<?xml version="1.0" encoding="UTF-8" standalone="no"?>
<!DOCTYPE svg PUBLIC "-//W3C//DTD SVG 1.1//EN"
 "http://www.w3.org/Graphics/SVG/1.1/DTD/svg11.dtd">
<!-- Generated by graphviz version 12.2.1 (20241206.2353)
 -->
<!-- Title: AsyncFw::AnyData Pages: 1 -->
<svg width="573pt" height="208pt"
 viewBox="0.00 0.00 573.25 208.00" xmlns="http://www.w3.org/2000/svg" xmlns:xlink="http://www.w3.org/1999/xlink">
<g id="graph0" class="graph" transform="scale(1 1) rotate(0) translate(4 204)">
<title>AsyncFw::AnyData</title>
<!-- Node1 -->
<g id="Node000001" class="node">
<title>Node1</title>
<g id="a_Node000001"><a xlink:title="The AnyData class.">
<polygon fill="#999999" stroke="#666666" points="410.88,-200 309.38,-200 309.38,-180 410.88,-180 410.88,-200"/>
<text text-anchor="middle" x="360.12" y="-186.5" font-family="Helvetica,sans-Serif" font-size="10.00">AsyncFw::AnyData</text>
</a>
</g>
</g>
<!-- Node2 -->
<g id="Node000002" class="node">
<title>Node2</title>
<g id="a_Node000002"><a xlink:href="classAsyncFw_1_1AbstractSocket.html" target="_top" xlink:title="The AbstractSocket class provides the base functionality for socket.">
<polygon fill="white" stroke="#666666" points="281.5,-138 150.75,-138 150.75,-118 281.5,-118 281.5,-138"/>
<text text-anchor="middle" x="216.12" y="-124.5" font-family="Helvetica,sans-Serif" font-size="10.00">AsyncFw::AbstractSocket</text>
</a>
</g>
</g>
<!-- Node1&#45;&gt;Node2 -->
<g id="edge1_Node000001_Node000002" class="edge">
<title>Node1&#45;&gt;Node2</title>
<g id="a_edge1_Node000001_Node000002"><a xlink:title=" ">
<path fill="none" stroke="#63b8ff" d="M327.07,-175.23C299.91,-163.91 262.18,-148.19 238.47,-138.31"/>
<polygon fill="#63b8ff" stroke="#63b8ff" points="325.65,-178.43 336.23,-179.04 328.34,-171.97 325.65,-178.43"/>
</a>
</g>
</g>
<!-- Node6 -->
<g id="Node000006" class="node">
<title>Node6</title>
<g id="a_Node000006"><a xlink:href="classAsyncFw_1_1AbstractTask.html" target="_top" xlink:title="The AbstractTask class.">
<polygon fill="white" stroke="#666666" points="420.62,-138 299.62,-138 299.62,-118 420.62,-118 420.62,-138"/>
<text text-anchor="middle" x="360.12" y="-124.5" font-family="Helvetica,sans-Serif" font-size="10.00">AsyncFw::AbstractTask</text>
</a>
</g>
</g>
<!-- Node1&#45;&gt;Node6 -->
<g id="edge5_Node000001_Node000006" class="edge">
<title>Node1&#45;&gt;Node6</title>
<g id="a_edge5_Node000001_Node000006"><a xlink:title=" ">
<path fill="none" stroke="#63b8ff" d="M360.12,-168.25C360.12,-157.97 360.12,-146.09 360.12,-138.11"/>
<polygon fill="#63b8ff" stroke="#63b8ff" points="356.63,-168.11 360.13,-178.11 363.63,-168.11 356.63,-168.11"/>
</a>
</g>
</g>
<!-- Node8 -->
<g id="Node000008" class="node">
<title>Node8</title>
<g id="a_Node000008"><a xlink:href="structAsyncFw_1_1CoroutineTask_1_1promise__type.html" target="_top" xlink:title="The CoroutineTask::promise_type struct.">
<polygon fill="white" stroke="#666666" points="565.25,-144 439,-144 439,-112 565.25,-112 565.25,-144"/>
<text text-anchor="start" x="447" y="-130.5" font-family="Helvetica,sans-Serif" font-size="10.00">AsyncFw::CoroutineTask</text>
<text text-anchor="middle" x="502.12" y="-118.5" font-family="Helvetica,sans-Serif" font-size="10.00">::promise_type</text>
</a>
</g>
</g>
<!-- Node1&#45;&gt;Node8 -->
<g id="edge7_Node000001_Node000008" class="edge">
<title>Node1&#45;&gt;Node8</title>
<g id="a_edge7_Node000001_Node000008"><a xlink:title=" ">
<path fill="none" stroke="#63b8ff" d="M392.66,-175.25C414.37,-166.08 442.95,-154 465.46,-144.49"/>
<polygon fill="#63b8ff" stroke="#63b8ff" points="391.56,-171.92 383.71,-179.04 394.28,-178.37 391.56,-171.92"/>
</a>
</g>
</g>
<!-- Node3 -->
<g id="Node000003" class="node">
<title>Node3</title>
<g id="a_Node000003"><a xlink:href="classAsyncFw_1_1AbstractTlsSocket.html" target="_top" xlink:title="The AbstractTlsSocket class provides the base functionality for TLS encrypted socket.">
<polygon fill="white" stroke="#666666" points="144.25,-76 0,-76 0,-56 144.25,-56 144.25,-76"/>
<text text-anchor="middle" x="72.12" y="-62.5" font-family="Helvetica,sans-Serif" font-size="10.00">AsyncFw::AbstractTlsSocket</text>
</a>
</g>
</g>
<!-- Node2&#45;&gt;Node3 -->
<g id="edge2_Node000002_Node000003" class="edge">
<title>Node2&#45;&gt;Node3</title>
<g id="a_edge2_Node000002_Node000003"><a xlink:title=" ">
<path fill="none" stroke="#63b8ff" d="M183.07,-113.23C155.91,-101.91 118.18,-86.19 94.47,-76.31"/>
<polygon fill="#63b8ff" stroke="#63b8ff" points="181.65,-116.43 192.23,-117.04 184.34,-109.97 181.65,-116.43"/>
</a>
</g>
</g>
<!-- Node5 -->
<g id="Node000005" class="node">
<title>Node5</title>
<g id="a_Node000005"><a xlink:href="classAsyncFw_1_1ListenSocket.html" target="_top" xlink:title="The ListenSocket class.">
<polygon fill="white" stroke="#666666" points="282.25,-76 162,-76 162,-56 282.25,-56 282.25,-76"/>
<text text-anchor="middle" x="222.12" y="-62.5" font-family="Helvetica,sans-Serif" font-size="10.00">AsyncFw::ListenSocket</text>
</a>
</g>
</g>
<!-- Node2&#45;&gt;Node5 -->
<g id="edge4_Node000002_Node000005" class="edge">
<title>Node2&#45;&gt;Node5</title>
<g id="a_edge4_Node000002_Node000005"><a xlink:title=" ">
<path fill="none" stroke="#8b1a1a" d="M218.2,-106.25C219.23,-95.97 220.42,-84.09 221.21,-76.11"/>
<polygon fill="#8b1a1a" stroke="#8b1a1a" points="214.73,-105.82 217.21,-116.12 221.69,-106.52 214.73,-105.82"/>
</a>
</g>
</g>
<!-- Node4 -->
<g id="Node000004" class="node">
<title>Node4</title>
<g id="a_Node000004"><a xlink:href="classAsyncFw_1_1HttpSocket.html" target="_top" xlink:title="The HttpSocket class.">
<polygon fill="white" stroke="#666666" points="128.5,-20 15.75,-20 15.75,0 128.5,0 128.5,-20"/>
<text text-anchor="middle" x="72.12" y="-6.5" font-family="Helvetica,sans-Serif" font-size="10.00">AsyncFw::HttpSocket</text>
</a>
</g>
</g>
<!-- Node3&#45;&gt;Node4 -->
<g id="edge3_Node000003_Node000004" class="edge">
<title>Node3&#45;&gt;Node4</title>
<g id="a_edge3_Node000003_Node000004"><a xlink:title=" ">
<path fill="none" stroke="#63b8ff" d="M72.12,-44.13C72.12,-35.9 72.12,-26.85 72.12,-20.3"/>
<polygon fill="#63b8ff" stroke="#63b8ff" points="68.63,-44.08 72.13,-54.08 75.63,-44.08 68.63,-44.08"/>
</a>
</g>
</g>
<!-- Node7 -->
<g id="Node000007" class="node">
<title>Node7</title>
<g id="a_Node000007"><a xlink:href="classAsyncFw_1_1Task.html" target="_top" xlink:title="The Task class.">
<polygon fill="white" stroke="#666666" points="415.38,-76 304.88,-76 304.88,-56 415.38,-56 415.38,-76"/>
<text text-anchor="middle" x="360.12" y="-62.5" font-family="Helvetica,sans-Serif" font-size="10.00">AsyncFw::Task&lt; M &gt;</text>
</a>
</g>
</g>
<!-- Node6&#45;&gt;Node7 -->
<g id="edge6_Node000006_Node000007" class="edge">
<title>Node6&#45;&gt;Node7</title>
<g id="a_edge6_Node000006_Node000007"><a xlink:title=" ">
<path fill="none" stroke="#63b8ff" d="M360.12,-106.25C360.12,-95.97 360.12,-84.09 360.12,-76.11"/>
<polygon fill="#63b8ff" stroke="#63b8ff" points="356.63,-106.11 360.13,-116.11 363.63,-106.11 356.63,-106.11"/>
</a>
</g>
</g>
</g>
</svg>
