<?xml version="1.0" encoding="UTF-8" standalone="no"?>
<!DOCTYPE svg PUBLIC "-//W3C//DTD SVG 1.1//EN"
 "http://www.w3.org/Graphics/SVG/1.1/DTD/svg11.dtd">
<!-- Generated by graphviz version 14.1.3 (20260303.0454)
 -->
<!-- Title: AsyncFw::AnyData::data Pages: 1 -->
<svg width="496pt" height="116pt"
 viewBox="0.00 0.00 496.00 116.00" xmlns="http://www.w3.org/2000/svg" xmlns:xlink="http://www.w3.org/1999/xlink">
<g id="graph0" class="graph" transform="scale(1 1) rotate(0) translate(4 112)">
<title>AsyncFw::AnyData::data</title>
<!-- Node1 -->
<g id="Node000001" class="node">
<title>Node1</title>
<g id="a_Node000001"><a xlink:title="Type&#45;safely extracts and returns the stored data value.">
<polygon fill="#999999" stroke="#666666" points="488.25,-64 362,-64 362,-44 488.25,-44 488.25,-64"/>
<text xml:space="preserve" text-anchor="middle" x="425.12" y="-50.5" font-family="Helvetica,sans-Serif" font-size="10.00">AsyncFw::AnyData::data</text>
</a>
</g>
</g>
<!-- Node2 -->
<g id="Node000002" class="node">
<title>Node2</title>
<g id="a_Node000002"><a xlink:href="structAsyncFw_1_1AnyData.html#a667ea182dec03e9ca81e86cdc7db8842" target="_top" xlink:title="Constructs an AnyData storage shell with an optional initial type&#45;safe payload.">
<polygon fill="white" stroke="#666666" points="326,-108 180.25,-108 180.25,-88 326,-88 326,-108"/>
<text xml:space="preserve" text-anchor="middle" x="253.12" y="-94.5" font-family="Helvetica,sans-Serif" font-size="10.00">AsyncFw::AnyData::AnyData</text>
</a>
</g>
</g>
<!-- Node1&#45;&gt;Node2 -->
<g id="edge1_Node000001_Node000002" class="edge">
<title>Node1&#45;&gt;Node2</title>
<g id="a_edge1_Node000001_Node000002"><a xlink:title=" ">
<path fill="none" stroke="#63b8ff" d="M373.01,-67.23C347.85,-73.74 317.94,-81.48 294.42,-87.57"/>
<polygon fill="#63b8ff" stroke="#63b8ff" points="373.57,-70.7 382.37,-64.81 371.81,-63.92 373.57,-70.7"/>
</a>
</g>
</g>
<!-- Node3 -->
<g id="Node000003" class="node">
<title>Node3</title>
<g id="a_Node000003"><a xlink:href="classAsyncFw_1_1DataArraySocket.html#af478bbb530753b5b507e1b490f2fff70" target="_top" xlink:title="Initializes the TLS context for the socket.">
<polygon fill="white" stroke="#666666" points="322.25,-70 184,-70 184,-38 322.25,-38 322.25,-70"/>
<text xml:space="preserve" text-anchor="start" x="192" y="-56.5" font-family="Helvetica,sans-Serif" font-size="10.00">AsyncFw::DataArraySocket</text>
<text xml:space="preserve" text-anchor="middle" x="253.12" y="-44.5" font-family="Helvetica,sans-Serif" font-size="10.00">::initTls</text>
</a>
</g>
</g>
<!-- Node1&#45;&gt;Node3 -->
<g id="edge2_Node000001_Node000003" class="edge">
<title>Node1&#45;&gt;Node3</title>
<g id="a_edge2_Node000001_Node000003"><a xlink:title=" ">
<path fill="none" stroke="#63b8ff" d="M350.54,-54C341.22,-54 331.71,-54 322.47,-54"/>
<polygon fill="#63b8ff" stroke="#63b8ff" points="350.28,-57.5 360.28,-54 350.28,-50.5 350.28,-57.5"/>
</a>
</g>
</g>
<!-- Node5 -->
<g id="Node000005" class="node">
<title>Node5</title>
<g id="a_Node000005"><a xlink:href="structAsyncFw_1_1AnyData.html#af4204174192d3b8c2f83dda18366a953" target="_top" xlink:title="Overwrites or assigns a new type&#45;safe payload inside the storage box.">
<polygon fill="white" stroke="#666666" points="324.12,-20 182.12,-20 182.12,0 324.12,0 324.12,-20"/>
<text xml:space="preserve" text-anchor="middle" x="253.12" y="-6.5" font-family="Helvetica,sans-Serif" font-size="10.00">AsyncFw::AnyData::setData</text>
</a>
</g>
</g>
<!-- Node1&#45;&gt;Node5 -->
<g id="edge4_Node000001_Node000005" class="edge">
<title>Node1&#45;&gt;Node5</title>
<g id="a_edge4_Node000001_Node000005"><a xlink:title=" ">
<path fill="none" stroke="#63b8ff" d="M373.01,-40.77C347.85,-34.26 317.94,-26.52 294.42,-20.43"/>
<polygon fill="#63b8ff" stroke="#63b8ff" points="371.81,-44.08 382.37,-43.19 373.57,-37.3 371.81,-44.08"/>
</a>
</g>
</g>
<!-- Node4 -->
<g id="Node000004" class="node">
<title>Node4</title>
<g id="a_Node000004"><a xlink:href="classAsyncFw_1_1DataArrayAbstractTcp.html#a7a90cfa4a85f3281a356c0d830ba5a57" target="_top" xlink:title="Assigns and initializes TLS security parameters on a specific socket.">
<polygon fill="white" stroke="#666666" points="144.25,-70 0,-70 0,-38 144.25,-38 144.25,-70"/>
<text xml:space="preserve" text-anchor="start" x="8" y="-56.5" font-family="Helvetica,sans-Serif" font-size="10.00">AsyncFw::DataArrayAbstract</text>
<text xml:space="preserve" text-anchor="middle" x="72.12" y="-44.5" font-family="Helvetica,sans-Serif" font-size="10.00">Tcp::initTls</text>
</a>
</g>
</g>
<!-- Node3&#45;&gt;Node4 -->
<g id="edge3_Node000003_Node000004" class="edge">
<title>Node3&#45;&gt;Node4</title>
<g id="a_edge3_Node000003_Node000004"><a xlink:title=" ">
<path fill="none" stroke="#63b8ff" d="M172.43,-54C163.13,-54 153.68,-54 144.5,-54"/>
<polygon fill="#63b8ff" stroke="#63b8ff" points="172.17,-57.5 182.17,-54 172.17,-50.5 172.17,-57.5"/>
</a>
</g>
</g>
</g>
</svg>
