<?xml version="1.0" encoding="UTF-8" standalone="no"?>
<!DOCTYPE svg PUBLIC "-//W3C//DTD SVG 1.1//EN"
 "http://www.w3.org/Graphics/SVG/1.1/DTD/svg11.dtd">
<!-- Generated by graphviz version 14.1.3 (20260303.0454)
 -->
<!-- Title: AsyncFw::AnyData::data Pages: 1 -->
<svg width="316pt" height="166pt"
 viewBox="0.00 0.00 316.00 166.00" xmlns="http://www.w3.org/2000/svg" xmlns:xlink="http://www.w3.org/1999/xlink">
<g id="graph0" class="graph" transform="scale(1 1) rotate(0) translate(4 162)">
<title>AsyncFw::AnyData::data</title>
<!-- Node1 -->
<g id="Node000001" class="node">
<title>Node1</title>
<g id="a_Node000001"><a xlink:title="Type&#45;safely extracts and returns the stored data value.">
<polygon fill="#999999" stroke="#666666" points="308,-92 181.75,-92 181.75,-72 308,-72 308,-92"/>
<text xml:space="preserve" text-anchor="middle" x="244.88" y="-78.5" font-family="Helvetica,sans-Serif" font-size="10.00">AsyncFw::AnyData::data</text>
</a>
</g>
</g>
<!-- Node2 -->
<g id="Node000002" class="node">
<title>Node2</title>
<g id="a_Node000002"><a xlink:href="structAsyncFw_1_1AnyData.html#a667ea182dec03e9ca81e86cdc7db8842" target="_top" xlink:title="Constructs an AnyData storage shell with an optional initial type&#45;safe payload.">
<polygon fill="white" stroke="#666666" points="145.75,-158 0,-158 0,-138 145.75,-138 145.75,-158"/>
<text xml:space="preserve" text-anchor="middle" x="72.88" y="-144.5" font-family="Helvetica,sans-Serif" font-size="10.00">AsyncFw::AnyData::AnyData</text>
</a>
</g>
</g>
<!-- Node1&#45;&gt;Node2 -->
<g id="edge1_Node000001_Node000002" class="edge">
<title>Node1&#45;&gt;Node2</title>
<g id="a_edge1_Node000001_Node000002"><a xlink:title=" ">
<path fill="none" stroke="#63b8ff" d="M214.61,-97.81C195.42,-107.72 169.57,-120.24 145.75,-129 137.15,-132.16 127.79,-135.03 118.76,-137.53"/>
<polygon fill="#63b8ff" stroke="#63b8ff" points="216.22,-100.92 223.45,-93.17 212.97,-94.72 216.22,-100.92"/>
</a>
</g>
</g>
<!-- Node3 -->
<g id="Node000003" class="node">
<title>Node3</title>
<g id="a_Node000003"><a xlink:href="classAsyncFw_1_1AbstractTlsSocket.html#a8c0f2e296d83c3004bd02dd6c2925bf1" target="_top" xlink:title="Low&#45;level decryption routing path proxying requests down to SSL_read().">
<polygon fill="white" stroke="#666666" points="145,-120 0.75,-120 0.75,-88 145,-88 145,-120"/>
<text xml:space="preserve" text-anchor="start" x="8.75" y="-106.5" font-family="Helvetica,sans-Serif" font-size="10.00">AsyncFw::AbstractTlsSocket</text>
<text xml:space="preserve" text-anchor="middle" x="72.88" y="-94.5" font-family="Helvetica,sans-Serif" font-size="10.00">::read_fd</text>
</a>
</g>
</g>
<!-- Node1&#45;&gt;Node3 -->
<g id="edge2_Node000001_Node000003" class="edge">
<title>Node1&#45;&gt;Node3</title>
<g id="a_edge2_Node000001_Node000003"><a xlink:title=" ">
<path fill="none" stroke="#63b8ff" d="M170.37,-91.51C162.09,-92.58 153.66,-93.67 145.41,-94.74"/>
<polygon fill="#63b8ff" stroke="#63b8ff" points="170.57,-95.02 180.04,-90.26 169.67,-88.07 170.57,-95.02"/>
</a>
</g>
</g>
<!-- Node4 -->
<g id="Node000004" class="node">
<title>Node4</title>
<g id="a_Node000004"><a xlink:href="structAsyncFw_1_1AnyData.html#af4204174192d3b8c2f83dda18366a953" target="_top" xlink:title="Overwrites or assigns a new type&#45;safe payload inside the storage box.">
<polygon fill="white" stroke="#666666" points="143.88,-70 1.88,-70 1.88,-50 143.88,-50 143.88,-70"/>
<text xml:space="preserve" text-anchor="middle" x="72.88" y="-56.5" font-family="Helvetica,sans-Serif" font-size="10.00">AsyncFw::AnyData::setData</text>
</a>
</g>
</g>
<!-- Node1&#45;&gt;Node4 -->
<g id="edge3_Node000001_Node000004" class="edge">
<title>Node1&#45;&gt;Node4</title>
<g id="a_edge3_Node000001_Node000004"><a xlink:title=" ">
<path fill="none" stroke="#63b8ff" d="M170.3,-72.48C161.65,-71.36 152.85,-70.22 144.25,-69.11"/>
<polygon fill="#63b8ff" stroke="#63b8ff" points="169.67,-75.93 180.04,-73.74 170.57,-68.98 169.67,-75.93"/>
</a>
</g>
</g>
<!-- Node5 -->
<g id="Node000005" class="node">
<title>Node5</title>
<g id="a_Node000005"><a xlink:href="classAsyncFw_1_1AbstractTlsSocket.html#a84a79c1f921e96efd6b4f47cd7cd91e0" target="_top" xlink:title="Low&#45;level encryption routing path proxying outgoing payload directly up to SSL_write().">
<polygon fill="white" stroke="#666666" points="145,-32 0.75,-32 0.75,0 145,0 145,-32"/>
<text xml:space="preserve" text-anchor="start" x="8.75" y="-18.5" font-family="Helvetica,sans-Serif" font-size="10.00">AsyncFw::AbstractTlsSocket</text>
<text xml:space="preserve" text-anchor="middle" x="72.88" y="-6.5" font-family="Helvetica,sans-Serif" font-size="10.00">::write_fd</text>
</a>
</g>
</g>
<!-- Node1&#45;&gt;Node5 -->
<g id="edge4_Node000001_Node000005" class="edge">
<title>Node1&#45;&gt;Node5</title>
<g id="a_edge4_Node000001_Node000005"><a xlink:title=" ">
<path fill="none" stroke="#63b8ff" d="M209.82,-67.17C191.04,-59.14 167.23,-49.21 145.75,-41 138.22,-38.12 130.2,-35.2 122.35,-32.41"/>
<polygon fill="#63b8ff" stroke="#63b8ff" points="208.28,-70.32 218.85,-71.05 211.05,-63.89 208.28,-70.32"/>
</a>
</g>
</g>
</g>
</svg>
