<?xml version="1.0" encoding="UTF-8" standalone="no"?>
<!DOCTYPE svg PUBLIC "-//W3C//DTD SVG 1.1//EN"
 "http://www.w3.org/Graphics/SVG/1.1/DTD/svg11.dtd">
<!-- Generated by graphviz version 12.2.1 (20241206.2353)
 -->
<!-- Title: main/SystemProcess.h Pages: 1 -->
<svg width="281pt" height="196pt"
 viewBox="0.00 0.00 281.00 196.00" xmlns="http://www.w3.org/2000/svg" xmlns:xlink="http://www.w3.org/1999/xlink">
<g id="graph0" class="graph" transform="scale(1 1) rotate(0) translate(4 192)">
<title>main/SystemProcess.h</title>
<!-- Node1 -->
<g id="Node000001" class="node">
<title>Node1</title>
<g id="a_Node000001"><a xlink:title="The SystemProcess class.">
<polygon fill="#999999" stroke="#666666" points="132,-188 14,-188 14,-168 132,-168 132,-188"/>
<text text-anchor="middle" x="73" y="-174.5" font-family="Helvetica,sans-Serif" font-size="10.00">main/SystemProcess.h</text>
</a>
</g>
</g>
<!-- Node2 -->
<g id="Node000002" class="node">
<title>Node2</title>
<g id="a_Node000002"><a xlink:title=" ">
<polygon fill="#e0e0e0" stroke="#999999" points="40,-132 0,-132 0,-112 40,-112 40,-132"/>
<text text-anchor="middle" x="20" y="-118.5" font-family="Helvetica,sans-Serif" font-size="10.00">string</text>
</a>
</g>
</g>
<!-- Node1&#45;&gt;Node2 -->
<g id="edge1_Node000001_Node000002" class="edge">
<title>Node1&#45;&gt;Node2</title>
<g id="a_edge1_Node000001_Node000002"><a xlink:title=" ">
<path fill="none" stroke="#63b8ff" d="M63.77,-167.59C56.4,-160.08 45.87,-149.35 36.98,-140.3"/>
<polygon fill="#63b8ff" stroke="#63b8ff" points="39.69,-138.06 30.19,-133.38 34.69,-142.97 39.69,-138.06"/>
</a>
</g>
</g>
<!-- Node3 -->
<g id="Node000003" class="node">
<title>Node3</title>
<g id="a_Node000003"><a xlink:href="FunctionConnector_8h.html" target="_top" xlink:title="The AbstractFunctionConnector, FunctionConnector, FunctionConnectorProtected and FunctionConnectionGu...">
<polygon fill="white" stroke="#666666" points="194.38,-132 57.62,-132 57.62,-112 194.38,-112 194.38,-132"/>
<text text-anchor="middle" x="126" y="-118.5" font-family="Helvetica,sans-Serif" font-size="10.00">../core/FunctionConnector.h</text>
</a>
</g>
</g>
<!-- Node1&#45;&gt;Node3 -->
<g id="edge2_Node000001_Node000003" class="edge">
<title>Node1&#45;&gt;Node3</title>
<g id="a_edge2_Node000001_Node000003"><a xlink:title=" ">
<path fill="none" stroke="#63b8ff" d="M82.23,-167.59C89.6,-160.08 100.13,-149.35 109.02,-140.3"/>
<polygon fill="#63b8ff" stroke="#63b8ff" points="111.31,-142.97 115.81,-133.38 106.31,-138.06 111.31,-142.97"/>
</a>
</g>
</g>
<!-- Node4 -->
<g id="Node000004" class="node">
<title>Node4</title>
<g id="a_Node000004"><a xlink:href="AbstractThread_8h.html" target="_top" xlink:title="The AbstractThread class.">
<polygon fill="white" stroke="#666666" points="171.5,-76 80.5,-76 80.5,-56 171.5,-56 171.5,-76"/>
<text text-anchor="middle" x="126" y="-62.5" font-family="Helvetica,sans-Serif" font-size="10.00">AbstractThread.h</text>
</a>
</g>
</g>
<!-- Node3&#45;&gt;Node4 -->
<g id="edge3_Node000003_Node000004" class="edge">
<title>Node3&#45;&gt;Node4</title>
<g id="a_edge3_Node000003_Node000004"><a xlink:title=" ">
<path fill="none" stroke="#63b8ff" d="M126,-111.59C126,-105.01 126,-95.96 126,-87.73"/>
<polygon fill="#63b8ff" stroke="#63b8ff" points="129.5,-87.81 126,-77.81 122.5,-87.81 129.5,-87.81"/>
</a>
</g>
</g>
<!-- Node5 -->
<g id="Node000005" class="node">
<title>Node5</title>
<g id="a_Node000005"><a xlink:title=" ">
<polygon fill="#e0e0e0" stroke="#999999" points="56.5,-20 13.5,-20 13.5,0 56.5,0 56.5,-20"/>
<text text-anchor="middle" x="35" y="-6.5" font-family="Helvetica,sans-Serif" font-size="10.00">thread</text>
</a>
</g>
</g>
<!-- Node4&#45;&gt;Node5 -->
<g id="edge4_Node000004_Node000005" class="edge">
<title>Node4&#45;&gt;Node5</title>
<g id="a_edge4_Node000004_Node000005"><a xlink:title=" ">
<path fill="none" stroke="#63b8ff" d="M110.15,-55.59C96.53,-47.51 76.64,-35.71 60.74,-26.27"/>
<polygon fill="#63b8ff" stroke="#63b8ff" points="62.66,-23.35 52.28,-21.25 59.09,-29.37 62.66,-23.35"/>
</a>
</g>
</g>
<!-- Node6 -->
<g id="Node000006" class="node">
<title>Node6</title>
<g id="a_Node000006"><a xlink:title=" ">
<polygon fill="#e0e0e0" stroke="#999999" points="117.5,-20 74.5,-20 74.5,0 117.5,0 117.5,-20"/>
<text text-anchor="middle" x="96" y="-6.5" font-family="Helvetica,sans-Serif" font-size="10.00">mutex</text>
</a>
</g>
</g>
<!-- Node4&#45;&gt;Node6 -->
<g id="edge5_Node000004_Node000006" class="edge">
<title>Node4&#45;&gt;Node6</title>
<g id="a_edge5_Node000004_Node000006"><a xlink:title=" ">
<path fill="none" stroke="#63b8ff" d="M120.77,-55.59C116.9,-48.63 111.49,-38.89 106.72,-30.29"/>
<polygon fill="#63b8ff" stroke="#63b8ff" points="109.82,-28.66 101.9,-21.62 103.7,-32.06 109.82,-28.66"/>
</a>
</g>
</g>
<!-- Node7 -->
<g id="Node000007" class="node">
<title>Node7</title>
<g id="a_Node000007"><a xlink:title=" ">
<polygon fill="#e0e0e0" stroke="#999999" points="178.5,-20 135.5,-20 135.5,0 178.5,0 178.5,-20"/>
<text text-anchor="middle" x="157" y="-6.5" font-family="Helvetica,sans-Serif" font-size="10.00">vector</text>
</a>
</g>
</g>
<!-- Node4&#45;&gt;Node7 -->
<g id="edge6_Node000004_Node000007" class="edge">
<title>Node4&#45;&gt;Node7</title>
<g id="a_edge6_Node000004_Node000007"><a xlink:title=" ">
<path fill="none" stroke="#63b8ff" d="M131.4,-55.59C135.44,-48.55 141.12,-38.67 146.09,-30"/>
<polygon fill="#63b8ff" stroke="#63b8ff" points="148.97,-32.03 150.91,-21.61 142.89,-28.54 148.97,-32.03"/>
</a>
</g>
</g>
<!-- Node8 -->
<g id="Node000008" class="node">
<title>Node8</title>
<g id="a_Node000008"><a xlink:href="invocable_8hpp_source.html" target="_top" xlink:title=" ">
<polygon fill="white" stroke="#666666" points="273,-20 197,-20 197,0 273,0 273,-20"/>
<text text-anchor="middle" x="235" y="-6.5" font-family="Helvetica,sans-Serif" font-size="10.00">invocable.hpp</text>
</a>
</g>
</g>
<!-- Node4&#45;&gt;Node8 -->
<g id="edge7_Node000004_Node000008" class="edge">
<title>Node4&#45;&gt;Node8</title>
<g id="a_edge7_Node000004_Node000008"><a xlink:title=" ">
<path fill="none" stroke="#63b8ff" d="M144.99,-55.59C161.76,-47.28 186.49,-35.03 205.79,-25.47"/>
<polygon fill="#63b8ff" stroke="#63b8ff" points="207.1,-28.73 214.51,-21.15 203.99,-22.45 207.1,-28.73"/>
</a>
</g>
</g>
</g>
</svg>
