<?xml version="1.0" encoding="UTF-8" standalone="no"?>
<!DOCTYPE svg PUBLIC "-//W3C//DTD SVG 1.1//EN"
 "http://www.w3.org/Graphics/SVG/1.1/DTD/svg11.dtd">
<!-- Generated by graphviz version 12.2.1 (20241206.2353)
 -->
<!-- Title: main/Task.h Pages: 1 -->
<svg width="336pt" height="140pt"
 viewBox="0.00 0.00 336.12 140.00" xmlns="http://www.w3.org/2000/svg" xmlns:xlink="http://www.w3.org/1999/xlink">
<g id="graph0" class="graph" transform="scale(1 1) rotate(0) translate(4 136)">
<title>main/Task.h</title>
<!-- Node1 -->
<g id="Node000001" class="node">
<title>Node1</title>
<g id="a_Node000001"><a xlink:title="The AbstractTask and Task classes.">
<polygon fill="#999999" stroke="#666666" points="241.12,-132 171.88,-132 171.88,-112 241.12,-112 241.12,-132"/>
<text text-anchor="middle" x="206.5" y="-118.5" font-family="Helvetica,sans-Serif" font-size="10.00">main/Task.h</text>
</a>
</g>
</g>
<!-- Node2 -->
<g id="Node000002" class="node">
<title>Node2</title>
<g id="a_Node000002"><a xlink:href="AbstractThread_8h.html" target="_top" xlink:title="The AbstractThread class.">
<polygon fill="white" stroke="#666666" points="204.38,-76 82.62,-76 82.62,-56 204.38,-56 204.38,-76"/>
<text text-anchor="middle" x="143.5" y="-62.5" font-family="Helvetica,sans-Serif" font-size="10.00">../core/AbstractThread.h</text>
</a>
</g>
</g>
<!-- Node1&#45;&gt;Node2 -->
<g id="edge1_Node000001_Node000002" class="edge">
<title>Node1&#45;&gt;Node2</title>
<g id="a_edge1_Node000001_Node000002"><a xlink:title=" ">
<path fill="none" stroke="#63b8ff" d="M195.53,-111.59C186.58,-103.93 173.73,-92.91 163.04,-83.75"/>
<polygon fill="#63b8ff" stroke="#63b8ff" points="165.37,-81.13 155.5,-77.28 160.81,-86.45 165.37,-81.13"/>
</a>
</g>
</g>
<!-- Node7 -->
<g id="Node000007" class="node">
<title>Node7</title>
<g id="a_Node000007"><a xlink:href="AnyData_8h.html" target="_top" xlink:title="The AnyData class.">
<polygon fill="white" stroke="#666666" points="328.12,-76 234.88,-76 234.88,-56 328.12,-56 328.12,-76"/>
<text text-anchor="middle" x="281.5" y="-62.5" font-family="Helvetica,sans-Serif" font-size="10.00">../core/AnyData.h</text>
</a>
</g>
</g>
<!-- Node1&#45;&gt;Node7 -->
<g id="edge6_Node000001_Node000007" class="edge">
<title>Node1&#45;&gt;Node7</title>
<g id="a_edge6_Node000001_Node000007"><a xlink:title=" ">
<path fill="none" stroke="#63b8ff" d="M219.56,-111.59C230.47,-103.74 246.25,-92.38 259.16,-83.09"/>
<polygon fill="#63b8ff" stroke="#63b8ff" points="261.04,-86.05 267.11,-77.36 256.95,-80.37 261.04,-86.05"/>
</a>
</g>
</g>
<!-- Node3 -->
<g id="Node000003" class="node">
<title>Node3</title>
<g id="a_Node000003"><a xlink:title=" ">
<polygon fill="#e0e0e0" stroke="#999999" points="43,-20 0,-20 0,0 43,0 43,-20"/>
<text text-anchor="middle" x="21.5" y="-6.5" font-family="Helvetica,sans-Serif" font-size="10.00">thread</text>
</a>
</g>
</g>
<!-- Node2&#45;&gt;Node3 -->
<g id="edge2_Node000002_Node000003" class="edge">
<title>Node2&#45;&gt;Node3</title>
<g id="a_edge2_Node000002_Node000003"><a xlink:title=" ">
<path fill="none" stroke="#63b8ff" d="M122.25,-55.59C103.21,-47.17 75.02,-34.69 53.3,-25.07"/>
<polygon fill="#63b8ff" stroke="#63b8ff" points="54.86,-21.94 44.3,-21.09 52.03,-28.34 54.86,-21.94"/>
</a>
</g>
</g>
<!-- Node4 -->
<g id="Node000004" class="node">
<title>Node4</title>
<g id="a_Node000004"><a xlink:title=" ">
<polygon fill="#e0e0e0" stroke="#999999" points="104,-20 61,-20 61,0 104,0 104,-20"/>
<text text-anchor="middle" x="82.5" y="-6.5" font-family="Helvetica,sans-Serif" font-size="10.00">mutex</text>
</a>
</g>
</g>
<!-- Node2&#45;&gt;Node4 -->
<g id="edge3_Node000002_Node000004" class="edge">
<title>Node2&#45;&gt;Node4</title>
<g id="a_edge3_Node000002_Node000004"><a xlink:title=" ">
<path fill="none" stroke="#63b8ff" d="M132.87,-55.59C124.22,-47.93 111.77,-36.91 101.42,-27.75"/>
<polygon fill="#63b8ff" stroke="#63b8ff" points="103.94,-25.31 94.14,-21.3 99.3,-30.55 103.94,-25.31"/>
</a>
</g>
</g>
<!-- Node5 -->
<g id="Node000005" class="node">
<title>Node5</title>
<g id="a_Node000005"><a xlink:title=" ">
<polygon fill="#e0e0e0" stroke="#999999" points="165,-20 122,-20 122,0 165,0 165,-20"/>
<text text-anchor="middle" x="143.5" y="-6.5" font-family="Helvetica,sans-Serif" font-size="10.00">vector</text>
</a>
</g>
</g>
<!-- Node2&#45;&gt;Node5 -->
<g id="edge4_Node000002_Node000005" class="edge">
<title>Node2&#45;&gt;Node5</title>
<g id="a_edge4_Node000002_Node000005"><a xlink:title=" ">
<path fill="none" stroke="#63b8ff" d="M143.5,-55.59C143.5,-49.01 143.5,-39.96 143.5,-31.73"/>
<polygon fill="#63b8ff" stroke="#63b8ff" points="147,-31.81 143.5,-21.81 140,-31.81 147,-31.81"/>
</a>
</g>
</g>
<!-- Node6 -->
<g id="Node000006" class="node">
<title>Node6</title>
<g id="a_Node000006"><a xlink:href="invocable_8hpp_source.html" target="_top" xlink:title=" ">
<polygon fill="white" stroke="#666666" points="259.5,-20 183.5,-20 183.5,0 259.5,0 259.5,-20"/>
<text text-anchor="middle" x="221.5" y="-6.5" font-family="Helvetica,sans-Serif" font-size="10.00">invocable.hpp</text>
</a>
</g>
</g>
<!-- Node2&#45;&gt;Node6 -->
<g id="edge5_Node000002_Node000006" class="edge">
<title>Node2&#45;&gt;Node6</title>
<g id="a_edge5_Node000002_Node000006"><a xlink:title=" ">
<path fill="none" stroke="#63b8ff" d="M157.09,-55.59C168.54,-47.67 185.16,-36.16 198.66,-26.82"/>
<polygon fill="#63b8ff" stroke="#63b8ff" points="200.33,-29.91 206.56,-21.34 196.35,-24.16 200.33,-29.91"/>
</a>
</g>
</g>
<!-- Node8 -->
<g id="Node000008" class="node">
<title>Node8</title>
<g id="a_Node000008"><a xlink:title=" ">
<polygon fill="#e0e0e0" stroke="#999999" points="309.38,-20 277.62,-20 277.62,0 309.38,0 309.38,-20"/>
<text text-anchor="middle" x="293.5" y="-6.5" font-family="Helvetica,sans-Serif" font-size="10.00">any</text>
</a>
</g>
</g>
<!-- Node7&#45;&gt;Node8 -->
<g id="edge7_Node000007_Node000008" class="edge">
<title>Node7&#45;&gt;Node8</title>
<g id="a_edge7_Node000007_Node000008"><a xlink:title=" ">
<path fill="none" stroke="#63b8ff" d="M283.59,-55.59C285.07,-48.93 287.11,-39.75 288.96,-31.44"/>
<polygon fill="#63b8ff" stroke="#63b8ff" points="292.35,-32.3 291.11,-21.78 285.52,-30.78 292.35,-32.3"/>
</a>
</g>
</g>
</g>
</svg>
