<?xml version="1.0" encoding="UTF-8" standalone="no"?>
<!DOCTYPE svg PUBLIC "-//W3C//DTD SVG 1.1//EN"
 "http://www.w3.org/Graphics/SVG/1.1/DTD/svg11.dtd">
<!-- Generated by graphviz version 12.2.1 (20241206.2353)
 -->
<!-- Title: main/ThreadPool.h Pages: 1 -->
<svg width="532pt" height="140pt"
 viewBox="0.00 0.00 531.88 140.00" xmlns="http://www.w3.org/2000/svg" xmlns:xlink="http://www.w3.org/1999/xlink">
<g id="graph0" class="graph" transform="scale(1 1) rotate(0) translate(4 136)">
<title>main/ThreadPool.h</title>
<!-- Node1 -->
<g id="Node000001" class="node">
<title>Node1</title>
<g id="a_Node000001"><a xlink:title="The AbstractThreadPool and ThreadPool classes.">
<polygon fill="#999999" stroke="#666666" points="288.12,-132 190.38,-132 190.38,-112 288.12,-112 288.12,-132"/>
<text text-anchor="middle" x="239.25" y="-118.5" font-family="Helvetica,sans-Serif" font-size="10.00">main/ThreadPool.h</text>
</a>
</g>
</g>
<!-- Node2 -->
<g id="Node000002" class="node">
<title>Node2</title>
<g id="a_Node000002"><a xlink:href="Coroutine_8h.html" target="_top" xlink:title="The CoroutineTask, CoroutineAwait, CoroutineInvokeAwait structs.">
<polygon fill="white" stroke="#666666" points="217.38,-76 127.12,-76 127.12,-56 217.38,-56 217.38,-76"/>
<text text-anchor="middle" x="172.25" y="-62.5" font-family="Helvetica,sans-Serif" font-size="10.00">main/Coroutine.h</text>
</a>
</g>
</g>
<!-- Node1&#45;&gt;Node2 -->
<g id="edge1_Node000001_Node000002" class="edge">
<title>Node1&#45;&gt;Node2</title>
<g id="a_edge1_Node000001_Node000002"><a xlink:title=" ">
<path fill="none" stroke="#63b8ff" d="M218.66,-104.4C207.2,-95.17 193.35,-84.01 183.79,-76.3"/>
<polygon fill="#63b8ff" stroke="#63b8ff" points="216.42,-107.09 226.4,-110.64 220.81,-101.64 216.42,-107.09"/>
</a>
</g>
</g>
<!-- Node5 -->
<g id="Node000005" class="node">
<title>Node5</title>
<g id="a_Node000005"><a xlink:href="DataArrayAbstractTcp_8h.html" target="_top" xlink:title="The DataArrayAbstractTcp class.">
<polygon fill="white" stroke="#666666" points="379.38,-76 235.12,-76 235.12,-56 379.38,-56 379.38,-76"/>
<text text-anchor="middle" x="307.25" y="-62.5" font-family="Helvetica,sans-Serif" font-size="10.00">main/DataArrayAbstractTcp.h</text>
</a>
</g>
</g>
<!-- Node1&#45;&gt;Node5 -->
<g id="edge4_Node000001_Node000005" class="edge">
<title>Node1&#45;&gt;Node5</title>
<g id="a_edge4_Node000001_Node000005"><a xlink:title=" ">
<path fill="none" stroke="#63b8ff" d="M259.8,-104.68C271.5,-95.39 285.73,-84.09 295.54,-76.3"/>
<polygon fill="#63b8ff" stroke="#63b8ff" points="257.93,-101.69 252.28,-110.65 262.29,-107.17 257.93,-101.69"/>
</a>
</g>
</g>
<!-- Node3 -->
<g id="Node000003" class="node">
<title>Node3</title>
<g id="a_Node000003"><a xlink:href="AddressResolver_8h.html" target="_top" xlink:title="The AddressResolver class.">
<polygon fill="white" stroke="#666666" points="122.5,-20 0,-20 0,0 122.5,0 122.5,-20"/>
<text text-anchor="middle" x="61.25" y="-6.5" font-family="Helvetica,sans-Serif" font-size="10.00">main/AddressResolver.h</text>
</a>
</g>
</g>
<!-- Node2&#45;&gt;Node3 -->
<g id="edge2_Node000002_Node000003" class="edge">
<title>Node2&#45;&gt;Node3</title>
<g id="a_edge2_Node000002_Node000003"><a xlink:title=" ">
<path fill="none" stroke="#63b8ff" d="M142.68,-50.61C123.06,-41.07 97.87,-28.81 80.74,-20.48"/>
<polygon fill="#63b8ff" stroke="#63b8ff" points="141.03,-53.7 151.55,-54.93 144.09,-47.41 141.03,-53.7"/>
</a>
</g>
</g>
<!-- Node4 -->
<g id="Node000004" class="node">
<title>Node4</title>
<g id="a_Node000004"><a xlink:href="Timer_8h.html" target="_top" xlink:title="The Timer class.">
<polygon fill="white" stroke="#666666" points="212.38,-20 140.12,-20 140.12,0 212.38,0 212.38,-20"/>
<text text-anchor="middle" x="176.25" y="-6.5" font-family="Helvetica,sans-Serif" font-size="10.00">main/Timer.h</text>
</a>
</g>
</g>
<!-- Node2&#45;&gt;Node4 -->
<g id="edge3_Node000002_Node000004" class="edge">
<title>Node2&#45;&gt;Node4</title>
<g id="a_edge3_Node000002_Node000004"><a xlink:title=" ">
<path fill="none" stroke="#63b8ff" d="M173.8,-44.13C174.41,-35.9 175.08,-26.85 175.56,-20.3"/>
<polygon fill="#63b8ff" stroke="#63b8ff" points="170.31,-43.85 173.06,-54.08 177.29,-44.37 170.31,-43.85"/>
</a>
</g>
</g>
<!-- Node6 -->
<g id="Node000006" class="node">
<title>Node6</title>
<g id="a_Node000006"><a xlink:href="DataArrayTcpClient_8h.html" target="_top" xlink:title="The DataArrayTcpClient class.">
<polygon fill="white" stroke="#666666" points="370.75,-20 237.75,-20 237.75,0 370.75,0 370.75,-20"/>
<text text-anchor="middle" x="304.25" y="-6.5" font-family="Helvetica,sans-Serif" font-size="10.00">main/DataArrayTcpClient.h</text>
</a>
</g>
</g>
<!-- Node5&#45;&gt;Node6 -->
<g id="edge5_Node000005_Node000006" class="edge">
<title>Node5&#45;&gt;Node6</title>
<g id="a_edge5_Node000005_Node000006"><a xlink:title=" ">
<path fill="none" stroke="#63b8ff" d="M306.09,-44.13C305.63,-35.9 305.13,-26.85 304.77,-20.3"/>
<polygon fill="#63b8ff" stroke="#63b8ff" points="302.59,-44.29 306.64,-54.08 309.58,-43.9 302.59,-44.29"/>
</a>
</g>
</g>
<!-- Node7 -->
<g id="Node000007" class="node">
<title>Node7</title>
<g id="a_Node000007"><a xlink:href="DataArrayTcpServer_8h.html" target="_top" xlink:title="The DataArrayTcpServer class.">
<polygon fill="white" stroke="#666666" points="523.88,-20 388.62,-20 388.62,0 523.88,0 523.88,-20"/>
<text text-anchor="middle" x="456.25" y="-6.5" font-family="Helvetica,sans-Serif" font-size="10.00">main/DataArrayTcpServer.h</text>
</a>
</g>
</g>
<!-- Node5&#45;&gt;Node7 -->
<g id="edge6_Node000005_Node000007" class="edge">
<title>Node5&#45;&gt;Node7</title>
<g id="a_edge6_Node000005_Node000007"><a xlink:title=" ">
<path fill="none" stroke="#63b8ff" d="M343.7,-51.79C370.44,-42.1 406.14,-29.16 430.09,-20.48"/>
<polygon fill="#63b8ff" stroke="#63b8ff" points="342.84,-48.38 334.63,-55.08 345.22,-54.96 342.84,-48.38"/>
</a>
</g>
</g>
</g>
</svg>
