<?xml version="1.0" encoding="UTF-8" standalone="no"?>
<!DOCTYPE svg PUBLIC "-//W3C//DTD SVG 1.1//EN"
 "http://www.w3.org/Graphics/SVG/1.1/DTD/svg11.dtd">
<!-- Generated by graphviz version 14.1.3 (20260303.0454)
 -->
<!-- Title: core/Thread.h Pages: 1 -->
<svg width="532pt" height="196pt"
 viewBox="0.00 0.00 532.00 196.00" xmlns="http://www.w3.org/2000/svg" xmlns:xlink="http://www.w3.org/1999/xlink">
<g id="graph0" class="graph" transform="scale(1 1) rotate(0) translate(4 192)">
<title>core/Thread.h</title>
<!-- Node1 -->
<g id="Node000001" class="node">
<title>Node1</title>
<g id="a_Node000001"><a xlink:title="The Thread class.">
<polygon fill="#999999" stroke="#666666" points="219.25,-188 143.25,-188 143.25,-168 219.25,-168 219.25,-188"/>
<text xml:space="preserve" text-anchor="middle" x="181.25" y="-174.5" font-family="Helvetica,sans-Serif" font-size="10.00">core/Thread.h</text>
</a>
</g>
</g>
<!-- Node2 -->
<g id="Node000002" class="node">
<title>Node2</title>
<g id="a_Node000002"><a xlink:href="MainThread_8h.html" target="_top" xlink:title="The MainThread class.">
<polygon fill="white" stroke="#666666" points="172.88,-132 73.62,-132 73.62,-112 172.88,-112 172.88,-132"/>
<text xml:space="preserve" text-anchor="middle" x="123.25" y="-118.5" font-family="Helvetica,sans-Serif" font-size="10.00">main/MainThread.h</text>
</a>
</g>
</g>
<!-- Node1&#45;&gt;Node2 -->
<g id="edge1_Node000001_Node000002" class="edge">
<title>Node1&#45;&gt;Node2</title>
<g id="a_edge1_Node000001_Node000002"><a xlink:title=" ">
<path fill="none" stroke="#63b8ff" d="M162.83,-159.85C153.02,-150.72 141.35,-139.86 133.24,-132.3"/>
<polygon fill="#63b8ff" stroke="#63b8ff" points="160.34,-162.31 170.04,-166.56 165.11,-157.19 160.34,-162.31"/>
</a>
</g>
</g>
<!-- Node3 -->
<g id="Node000003" class="node">
<title>Node3</title>
<g id="a_Node000003"><a xlink:href="ThreadPool_8h.html" target="_top" xlink:title="The AbstractThreadPool and ThreadPool classes.">
<polygon fill="white" stroke="#666666" points="289.12,-132 191.38,-132 191.38,-112 289.12,-112 289.12,-132"/>
<text xml:space="preserve" text-anchor="middle" x="240.25" y="-118.5" font-family="Helvetica,sans-Serif" font-size="10.00">main/ThreadPool.h</text>
</a>
</g>
</g>
<!-- Node1&#45;&gt;Node3 -->
<g id="edge2_Node000001_Node000003" class="edge">
<title>Node1&#45;&gt;Node3</title>
<g id="a_edge2_Node000001_Node000003"><a xlink:title=" ">
<path fill="none" stroke="#63b8ff" d="M199.99,-159.85C209.96,-150.72 221.83,-139.86 230.09,-132.3"/>
<polygon fill="#63b8ff" stroke="#63b8ff" points="197.66,-157.24 192.64,-166.57 202.38,-162.4 197.66,-157.24"/>
</a>
</g>
</g>
<!-- Node4 -->
<g id="Node000004" class="node">
<title>Node4</title>
<g id="a_Node000004"><a xlink:href="Coroutine_8h.html" target="_top" xlink:title="The CoroutineTask, CoroutineAwait, CoroutineInvokeAwait structs.">
<polygon fill="white" stroke="#666666" points="217.38,-76 127.12,-76 127.12,-56 217.38,-56 217.38,-76"/>
<text xml:space="preserve" text-anchor="middle" x="172.25" y="-62.5" font-family="Helvetica,sans-Serif" font-size="10.00">main/Coroutine.h</text>
</a>
</g>
</g>
<!-- Node3&#45;&gt;Node4 -->
<g id="edge3_Node000003_Node000004" class="edge">
<title>Node3&#45;&gt;Node4</title>
<g id="a_edge3_Node000003_Node000004"><a xlink:title=" ">
<path fill="none" stroke="#63b8ff" d="M219.7,-104.68C208,-95.39 193.77,-84.09 183.96,-76.3"/>
<polygon fill="#63b8ff" stroke="#63b8ff" points="217.21,-107.17 227.22,-110.65 221.57,-101.69 217.21,-107.17"/>
</a>
</g>
</g>
<!-- Node7 -->
<g id="Node000007" class="node">
<title>Node7</title>
<g id="a_Node000007"><a xlink:href="DataArrayAbstractTcp_8h.html" target="_top" xlink:title="The DataArrayAbstractTcp class.">
<polygon fill="white" stroke="#666666" points="379.38,-76 235.12,-76 235.12,-56 379.38,-56 379.38,-76"/>
<text xml:space="preserve" text-anchor="middle" x="307.25" y="-62.5" font-family="Helvetica,sans-Serif" font-size="10.00">main/DataArrayAbstractTcp.h</text>
</a>
</g>
</g>
<!-- Node3&#45;&gt;Node7 -->
<g id="edge6_Node000003_Node000007" class="edge">
<title>Node3&#45;&gt;Node7</title>
<g id="a_edge6_Node000003_Node000007"><a xlink:title=" ">
<path fill="none" stroke="#63b8ff" d="M260.84,-104.4C272.3,-95.17 286.15,-84.01 295.71,-76.3"/>
<polygon fill="#63b8ff" stroke="#63b8ff" points="258.69,-101.64 253.1,-110.64 263.08,-107.09 258.69,-101.64"/>
</a>
</g>
</g>
<!-- Node5 -->
<g id="Node000005" class="node">
<title>Node5</title>
<g id="a_Node000005"><a xlink:href="AddressResolver_8h.html" target="_top" xlink:title="The AddressResolver class.">
<polygon fill="white" stroke="#666666" points="122.5,-20 0,-20 0,0 122.5,0 122.5,-20"/>
<text xml:space="preserve" text-anchor="middle" x="61.25" y="-6.5" font-family="Helvetica,sans-Serif" font-size="10.00">main/AddressResolver.h</text>
</a>
</g>
</g>
<!-- Node4&#45;&gt;Node5 -->
<g id="edge4_Node000004_Node000005" class="edge">
<title>Node4&#45;&gt;Node5</title>
<g id="a_edge4_Node000004_Node000005"><a xlink:title=" ">
<path fill="none" stroke="#63b8ff" d="M142.68,-50.61C123.06,-41.07 97.87,-28.81 80.74,-20.48"/>
<polygon fill="#63b8ff" stroke="#63b8ff" points="141.03,-53.7 151.55,-54.93 144.09,-47.41 141.03,-53.7"/>
</a>
</g>
</g>
<!-- Node6 -->
<g id="Node000006" class="node">
<title>Node6</title>
<g id="a_Node000006"><a xlink:href="Timer_8h.html" target="_top" xlink:title="The Timer class.">
<polygon fill="white" stroke="#666666" points="212.38,-20 140.12,-20 140.12,0 212.38,0 212.38,-20"/>
<text xml:space="preserve" text-anchor="middle" x="176.25" y="-6.5" font-family="Helvetica,sans-Serif" font-size="10.00">main/Timer.h</text>
</a>
</g>
</g>
<!-- Node4&#45;&gt;Node6 -->
<g id="edge5_Node000004_Node000006" class="edge">
<title>Node4&#45;&gt;Node6</title>
<g id="a_edge5_Node000004_Node000006"><a xlink:title=" ">
<path fill="none" stroke="#63b8ff" d="M173.8,-44.13C174.41,-35.9 175.08,-26.85 175.56,-20.3"/>
<polygon fill="#63b8ff" stroke="#63b8ff" points="170.31,-43.85 173.06,-54.08 177.29,-44.37 170.31,-43.85"/>
</a>
</g>
</g>
<!-- Node8 -->
<g id="Node000008" class="node">
<title>Node8</title>
<g id="a_Node000008"><a xlink:href="DataArrayTcpClient_8h.html" target="_top" xlink:title="The DataArrayTcpClient class.">
<polygon fill="white" stroke="#666666" points="370.75,-20 237.75,-20 237.75,0 370.75,0 370.75,-20"/>
<text xml:space="preserve" text-anchor="middle" x="304.25" y="-6.5" font-family="Helvetica,sans-Serif" font-size="10.00">main/DataArrayTcpClient.h</text>
</a>
</g>
</g>
<!-- Node7&#45;&gt;Node8 -->
<g id="edge7_Node000007_Node000008" class="edge">
<title>Node7&#45;&gt;Node8</title>
<g id="a_edge7_Node000007_Node000008"><a xlink:title=" ">
<path fill="none" stroke="#63b8ff" d="M306.09,-44.13C305.63,-35.9 305.13,-26.85 304.77,-20.3"/>
<polygon fill="#63b8ff" stroke="#63b8ff" points="302.59,-44.29 306.64,-54.08 309.58,-43.9 302.59,-44.29"/>
</a>
</g>
</g>
<!-- Node9 -->
<g id="Node000009" class="node">
<title>Node9</title>
<g id="a_Node000009"><a xlink:href="DataArrayTcpServer_8h.html" target="_top" xlink:title="The DataArrayTcpServer class.">
<polygon fill="white" stroke="#666666" points="523.88,-20 388.62,-20 388.62,0 523.88,0 523.88,-20"/>
<text xml:space="preserve" text-anchor="middle" x="456.25" y="-6.5" font-family="Helvetica,sans-Serif" font-size="10.00">main/DataArrayTcpServer.h</text>
</a>
</g>
</g>
<!-- Node7&#45;&gt;Node9 -->
<g id="edge8_Node000007_Node000009" class="edge">
<title>Node7&#45;&gt;Node9</title>
<g id="a_edge8_Node000007_Node000009"><a xlink:title=" ">
<path fill="none" stroke="#63b8ff" d="M343.7,-51.79C370.44,-42.1 406.14,-29.16 430.09,-20.48"/>
<polygon fill="#63b8ff" stroke="#63b8ff" points="342.84,-48.38 334.63,-55.08 345.22,-54.96 342.84,-48.38"/>
</a>
</g>
</g>
</g>
</svg>
