<?xml version="1.0" encoding="UTF-8" standalone="no"?>
<!DOCTYPE svg PUBLIC "-//W3C//DTD SVG 1.1//EN"
 "http://www.w3.org/Graphics/SVG/1.1/DTD/svg11.dtd">
<!-- Generated by graphviz version 14.1.3 (20260303.0454)
 -->
<!-- Title: main/Timer.h Pages: 1 -->
<svg width="329pt" height="364pt"
 viewBox="0.00 0.00 329.00 364.00" xmlns="http://www.w3.org/2000/svg" xmlns:xlink="http://www.w3.org/1999/xlink">
<g id="graph0" class="graph" transform="scale(1 1) rotate(0) translate(4 360)">
<title>main/Timer.h</title>
<!-- Node1 -->
<g id="Node000001" class="node">
<title>Node1</title>
<g id="a_Node000001"><a xlink:title="The Timer class.">
<polygon fill="#999999" stroke="#666666" points="73.62,-356 1.38,-356 1.38,-336 73.62,-336 73.62,-356"/>
<text xml:space="preserve" text-anchor="middle" x="37.5" y="-342.5" font-family="Helvetica,sans-Serif" font-size="10.00">main/Timer.h</text>
</a>
</g>
</g>
<!-- Node2 -->
<g id="Node000002" class="node">
<title>Node2</title>
<g id="a_Node000002"><a xlink:href="FunctionConnector_8h.html" target="_top" xlink:title="The AbstractFunctionConnector, FunctionConnector, FunctionConnectorProtected, FunctionConnectionGuard...">
<polygon fill="white" stroke="#666666" points="180.88,-132 44.12,-132 44.12,-112 180.88,-112 180.88,-132"/>
<text xml:space="preserve" text-anchor="middle" x="112.5" y="-118.5" font-family="Helvetica,sans-Serif" font-size="10.00">../core/FunctionConnector.h</text>
</a>
</g>
</g>
<!-- Node1&#45;&gt;Node2 -->
<g id="edge1_Node000001_Node000002" class="edge">
<title>Node1&#45;&gt;Node2</title>
<g id="a_edge1_Node000001_Node000002"><a xlink:title=" ">
<path fill="none" stroke="#63b8ff" d="M33.95,-335.53C26.69,-314.66 12,-263.39 26.5,-224 39.46,-188.79 70.75,-157.5 91.79,-139.39"/>
<polygon fill="#63b8ff" stroke="#63b8ff" points="93.76,-142.31 99.2,-133.22 89.28,-136.93 93.76,-142.31"/>
</a>
</g>
</g>
<!-- Node8 -->
<g id="Node000008" class="node">
<title>Node8</title>
<g id="a_Node000008"><a xlink:href="Coroutine_8h.html" target="_top" xlink:title="The CoroutineTask, CoroutineAwait, CoroutineInvokeAwait structs.">
<polygon fill="white" stroke="#666666" points="145.62,-300 79.38,-300 79.38,-280 145.62,-280 145.62,-300"/>
<text xml:space="preserve" text-anchor="middle" x="112.5" y="-286.5" font-family="Helvetica,sans-Serif" font-size="10.00">Coroutine.h</text>
</a>
</g>
</g>
<!-- Node1&#45;&gt;Node8 -->
<g id="edge7_Node000001_Node000008" class="edge">
<title>Node1&#45;&gt;Node8</title>
<g id="a_edge7_Node000001_Node000008"><a xlink:title=" ">
<path fill="none" stroke="#63b8ff" d="M50.56,-335.59C61.47,-327.74 77.25,-316.38 90.16,-307.09"/>
<polygon fill="#63b8ff" stroke="#63b8ff" points="92.04,-310.05 98.11,-301.36 87.95,-304.37 92.04,-310.05"/>
</a>
</g>
</g>
<!-- Node3 -->
<g id="Node000003" class="node">
<title>Node3</title>
<g id="a_Node000003"><a xlink:href="AbstractThread_8h.html" target="_top" xlink:title="The AbstractThread class.">
<polygon fill="white" stroke="#666666" points="158,-76 67,-76 67,-56 158,-56 158,-76"/>
<text xml:space="preserve" text-anchor="middle" x="112.5" y="-62.5" font-family="Helvetica,sans-Serif" font-size="10.00">AbstractThread.h</text>
</a>
</g>
</g>
<!-- Node2&#45;&gt;Node3 -->
<g id="edge2_Node000002_Node000003" class="edge">
<title>Node2&#45;&gt;Node3</title>
<g id="a_edge2_Node000002_Node000003"><a xlink:title=" ">
<path fill="none" stroke="#63b8ff" d="M112.5,-111.59C112.5,-105.01 112.5,-95.96 112.5,-87.73"/>
<polygon fill="#63b8ff" stroke="#63b8ff" points="116,-87.81 112.5,-77.81 109,-87.81 116,-87.81"/>
</a>
</g>
</g>
<!-- Node4 -->
<g id="Node000004" class="node">
<title>Node4</title>
<g id="a_Node000004"><a xlink:title=" ">
<polygon fill="#e0e0e0" stroke="#999999" points="43,-20 0,-20 0,0 43,0 43,-20"/>
<text xml:space="preserve" text-anchor="middle" x="21.5" y="-6.5" font-family="Helvetica,sans-Serif" font-size="10.00">thread</text>
</a>
</g>
</g>
<!-- Node3&#45;&gt;Node4 -->
<g id="edge3_Node000003_Node000004" class="edge">
<title>Node3&#45;&gt;Node4</title>
<g id="a_edge3_Node000003_Node000004"><a xlink:title=" ">
<path fill="none" stroke="#63b8ff" d="M96.65,-55.59C83.03,-47.51 63.14,-35.71 47.24,-26.27"/>
<polygon fill="#63b8ff" stroke="#63b8ff" points="49.16,-23.35 38.78,-21.25 45.59,-29.37 49.16,-23.35"/>
</a>
</g>
</g>
<!-- Node5 -->
<g id="Node000005" class="node">
<title>Node5</title>
<g id="a_Node000005"><a xlink:title=" ">
<polygon fill="#e0e0e0" stroke="#999999" points="104,-20 61,-20 61,0 104,0 104,-20"/>
<text xml:space="preserve" text-anchor="middle" x="82.5" y="-6.5" font-family="Helvetica,sans-Serif" font-size="10.00">mutex</text>
</a>
</g>
</g>
<!-- Node3&#45;&gt;Node5 -->
<g id="edge4_Node000003_Node000005" class="edge">
<title>Node3&#45;&gt;Node5</title>
<g id="a_edge4_Node000003_Node000005"><a xlink:title=" ">
<path fill="none" stroke="#63b8ff" d="M107.27,-55.59C103.4,-48.63 97.99,-38.89 93.22,-30.29"/>
<polygon fill="#63b8ff" stroke="#63b8ff" points="96.32,-28.66 88.4,-21.62 90.2,-32.06 96.32,-28.66"/>
</a>
</g>
</g>
<!-- Node6 -->
<g id="Node000006" class="node">
<title>Node6</title>
<g id="a_Node000006"><a xlink:title=" ">
<polygon fill="#e0e0e0" stroke="#999999" points="165,-20 122,-20 122,0 165,0 165,-20"/>
<text xml:space="preserve" text-anchor="middle" x="143.5" y="-6.5" font-family="Helvetica,sans-Serif" font-size="10.00">vector</text>
</a>
</g>
</g>
<!-- Node3&#45;&gt;Node6 -->
<g id="edge5_Node000003_Node000006" class="edge">
<title>Node3&#45;&gt;Node6</title>
<g id="a_edge5_Node000003_Node000006"><a xlink:title=" ">
<path fill="none" stroke="#63b8ff" d="M117.9,-55.59C121.94,-48.55 127.62,-38.67 132.59,-30"/>
<polygon fill="#63b8ff" stroke="#63b8ff" points="135.47,-32.03 137.41,-21.61 129.39,-28.54 135.47,-32.03"/>
</a>
</g>
</g>
<!-- Node7 -->
<g id="Node000007" class="node">
<title>Node7</title>
<g id="a_Node000007"><a xlink:href="invocable_8hpp_source.html" target="_top" xlink:title=" ">
<polygon fill="white" stroke="#666666" points="259.5,-20 183.5,-20 183.5,0 259.5,0 259.5,-20"/>
<text xml:space="preserve" text-anchor="middle" x="221.5" y="-6.5" font-family="Helvetica,sans-Serif" font-size="10.00">invocable.hpp</text>
</a>
</g>
</g>
<!-- Node3&#45;&gt;Node7 -->
<g id="edge6_Node000003_Node000007" class="edge">
<title>Node3&#45;&gt;Node7</title>
<g id="a_edge6_Node000003_Node000007"><a xlink:title=" ">
<path fill="none" stroke="#63b8ff" d="M131.49,-55.59C148.26,-47.28 172.99,-35.03 192.29,-25.47"/>
<polygon fill="#63b8ff" stroke="#63b8ff" points="193.6,-28.73 201.01,-21.15 190.49,-22.45 193.6,-28.73"/>
</a>
</g>
</g>
<!-- Node9 -->
<g id="Node000009" class="node">
<title>Node9</title>
<g id="a_Node000009"><a xlink:title=" ">
<polygon fill="#e0e0e0" stroke="#999999" points="91.38,-244 35.62,-244 35.62,-224 91.38,-224 91.38,-244"/>
<text xml:space="preserve" text-anchor="middle" x="63.5" y="-230.5" font-family="Helvetica,sans-Serif" font-size="10.00">coroutine</text>
</a>
</g>
</g>
<!-- Node8&#45;&gt;Node9 -->
<g id="edge8_Node000008_Node000009" class="edge">
<title>Node8&#45;&gt;Node9</title>
<g id="a_edge8_Node000008_Node000009"><a xlink:title=" ">
<path fill="none" stroke="#63b8ff" d="M103.96,-279.59C97.22,-272.16 87.61,-261.58 79.46,-252.58"/>
<polygon fill="#63b8ff" stroke="#63b8ff" points="82.27,-250.47 72.95,-245.42 77.08,-255.18 82.27,-250.47"/>
</a>
</g>
</g>
<!-- Node10 -->
<g id="Node000010" class="node">
<title>Node10</title>
<g id="a_Node000010"><a xlink:href="AnyData_8h.html" target="_top" xlink:title="The AnyData class.">
<polygon fill="white" stroke="#666666" points="203.12,-244 109.88,-244 109.88,-224 203.12,-224 203.12,-244"/>
<text xml:space="preserve" text-anchor="middle" x="156.5" y="-230.5" font-family="Helvetica,sans-Serif" font-size="10.00">../core/AnyData.h</text>
</a>
</g>
</g>
<!-- Node8&#45;&gt;Node10 -->
<g id="edge9_Node000008_Node000010" class="edge">
<title>Node8&#45;&gt;Node10</title>
<g id="a_edge9_Node000008_Node000010"><a xlink:title=" ">
<path fill="none" stroke="#63b8ff" d="M120.16,-279.59C126.09,-272.32 134.49,-262.02 141.71,-253.15"/>
<polygon fill="#63b8ff" stroke="#63b8ff" points="144.36,-255.43 147.97,-245.47 138.94,-251.01 144.36,-255.43"/>
</a>
</g>
</g>
<!-- Node12 -->
<g id="Node000012" class="node">
<title>Node12</title>
<g id="a_Node000012"><a xlink:href="ThreadPool_8h.html" target="_top" xlink:title="The AbstractThreadPool and ThreadPool classes.">
<polygon fill="white" stroke="#666666" points="295.38,-244 221.62,-244 221.62,-224 295.38,-224 295.38,-244"/>
<text xml:space="preserve" text-anchor="middle" x="258.5" y="-230.5" font-family="Helvetica,sans-Serif" font-size="10.00">ThreadPool.h</text>
</a>
</g>
</g>
<!-- Node8&#45;&gt;Node12 -->
<g id="edge11_Node000008_Node000012" class="edge">
<title>Node8&#45;&gt;Node12</title>
<g id="a_edge11_Node000008_Node000012"><a xlink:title=" ">
<path fill="none" stroke="#63b8ff" d="M137.93,-279.59C161.24,-270.97 196,-258.12 222.22,-248.42"/>
<polygon fill="#63b8ff" stroke="#63b8ff" points="223.29,-251.76 231.45,-245 220.86,-245.19 223.29,-251.76"/>
</a>
</g>
</g>
<!-- Node11 -->
<g id="Node000011" class="node">
<title>Node11</title>
<g id="a_Node000011"><a xlink:title=" ">
<polygon fill="#e0e0e0" stroke="#999999" points="139.38,-188 107.62,-188 107.62,-168 139.38,-168 139.38,-188"/>
<text xml:space="preserve" text-anchor="middle" x="123.5" y="-174.5" font-family="Helvetica,sans-Serif" font-size="10.00">any</text>
</a>
</g>
</g>
<!-- Node10&#45;&gt;Node11 -->
<g id="edge10_Node000010_Node000011" class="edge">
<title>Node10&#45;&gt;Node11</title>
<g id="a_edge10_Node000010_Node000011"><a xlink:title=" ">
<path fill="none" stroke="#63b8ff" d="M150.75,-223.59C146.45,-216.55 140.41,-206.67 135.11,-198"/>
<polygon fill="#63b8ff" stroke="#63b8ff" points="138.17,-196.3 129.97,-189.59 132.2,-199.95 138.17,-196.3"/>
</a>
</g>
</g>
<!-- Node13 -->
<g id="Node000013" class="node">
<title>Node13</title>
<g id="a_Node000013"><a xlink:href="Thread_8h.html" target="_top" xlink:title="The Thread class.">
<polygon fill="white" stroke="#666666" points="242,-188 157,-188 157,-168 242,-168 242,-188"/>
<text xml:space="preserve" text-anchor="middle" x="199.5" y="-174.5" font-family="Helvetica,sans-Serif" font-size="10.00">../core/Thread.h</text>
</a>
</g>
</g>
<!-- Node12&#45;&gt;Node13 -->
<g id="edge12_Node000012_Node000013" class="edge">
<title>Node12&#45;&gt;Node13</title>
<g id="a_edge12_Node000012_Node000013"><a xlink:title=" ">
<path fill="none" stroke="#63b8ff" d="M248.22,-223.59C239.93,-216.01 228.05,-205.13 218.1,-196.02"/>
<polygon fill="#63b8ff" stroke="#63b8ff" points="220.52,-193.49 210.78,-189.32 215.79,-198.65 220.52,-193.49"/>
</a>
</g>
</g>
<!-- Node14 -->
<g id="Node000014" class="node">
<title>Node14</title>
<g id="a_Node000014"><a xlink:href="Instance_8h.html" target="_top" xlink:title="The AbstractInstance and Instance classes.">
<polygon fill="white" stroke="#666666" points="321.38,-188 259.62,-188 259.62,-168 321.38,-168 321.38,-188"/>
<text xml:space="preserve" text-anchor="middle" x="290.5" y="-174.5" font-family="Helvetica,sans-Serif" font-size="10.00">Instance.h</text>
</a>
</g>
</g>
<!-- Node12&#45;&gt;Node14 -->
<g id="edge14_Node000012_Node000014" class="edge">
<title>Node12&#45;&gt;Node14</title>
<g id="a_edge14_Node000012_Node000014"><a xlink:title=" ">
<path fill="none" stroke="#63b8ff" d="M264.07,-223.59C268.25,-216.55 274.1,-206.67 279.24,-198"/>
<polygon fill="#63b8ff" stroke="#63b8ff" points="282.13,-199.99 284.22,-189.6 276.11,-196.42 282.13,-199.99"/>
</a>
</g>
</g>
<!-- Node13&#45;&gt;Node2 -->
<g id="edge13_Node000013_Node000002" class="edge">
<title>Node13&#45;&gt;Node2</title>
<g id="a_edge13_Node000013_Node000002"><a xlink:title=" ">
<path fill="none" stroke="#63b8ff" d="M184.35,-167.59C171.45,-159.59 152.67,-147.93 137.54,-138.54"/>
<polygon fill="#63b8ff" stroke="#63b8ff" points="139.4,-135.58 129.06,-133.28 135.71,-141.53 139.4,-135.58"/>
</a>
</g>
</g>
<!-- Node15 -->
<g id="Node000015" class="node">
<title>Node15</title>
<g id="a_Node000015"><a xlink:title=" ">
<polygon fill="#e0e0e0" stroke="#999999" points="310.5,-132 270.5,-132 270.5,-112 310.5,-112 310.5,-132"/>
<text xml:space="preserve" text-anchor="middle" x="290.5" y="-118.5" font-family="Helvetica,sans-Serif" font-size="10.00">string</text>
</a>
</g>
</g>
<!-- Node14&#45;&gt;Node15 -->
<g id="edge15_Node000014_Node000015" class="edge">
<title>Node14&#45;&gt;Node15</title>
<g id="a_edge15_Node000014_Node000015"><a xlink:title=" ">
<path fill="none" stroke="#63b8ff" d="M290.5,-167.59C290.5,-161.01 290.5,-151.96 290.5,-143.73"/>
<polygon fill="#63b8ff" stroke="#63b8ff" points="294,-143.81 290.5,-133.81 287,-143.81 294,-143.81"/>
</a>
</g>
</g>
</g>
</svg>
