<?xml version="1.0" encoding="UTF-8" standalone="no"?>
<!DOCTYPE svg PUBLIC "-//W3C//DTD SVG 1.1//EN"
 "http://www.w3.org/Graphics/SVG/1.1/DTD/svg11.dtd">
<!-- Generated by graphviz version 14.1.3 (20260303.0454)
 -->
<!-- Title: core/TlsContext.h Pages: 1 -->
<svg width="336pt" height="140pt"
 viewBox="0.00 0.00 336.00 140.00" xmlns="http://www.w3.org/2000/svg" xmlns:xlink="http://www.w3.org/1999/xlink">
<g id="graph0" class="graph" transform="scale(1 1) rotate(0) translate(4 136)">
<title>core/TlsContext.h</title>
<!-- Node1 -->
<g id="Node000001" class="node">
<title>Node1</title>
<g id="a_Node000001"><a xlink:title="The TlsContext class.">
<polygon fill="#999999" stroke="#666666" points="258.5,-132 164.5,-132 164.5,-112 258.5,-112 258.5,-132"/>
<text xml:space="preserve" text-anchor="middle" x="211.5" y="-118.5" font-family="Helvetica,sans-Serif" font-size="10.00">core/TlsContext.h</text>
</a>
</g>
</g>
<!-- Node2 -->
<g id="Node000002" class="node">
<title>Node2</title>
<g id="a_Node000002"><a xlink:href="DataArrayAbstractTcp_8h.html" target="_top" xlink:title="The DataArrayAbstractTcp class.">
<polygon fill="white" stroke="#666666" points="214.62,-76 70.38,-76 70.38,-56 214.62,-56 214.62,-76"/>
<text xml:space="preserve" text-anchor="middle" x="142.5" y="-62.5" font-family="Helvetica,sans-Serif" font-size="10.00">main/DataArrayAbstractTcp.h</text>
</a>
</g>
</g>
<!-- Node1&#45;&gt;Node2 -->
<g id="edge1_Node000001_Node000002" class="edge">
<title>Node1&#45;&gt;Node2</title>
<g id="a_edge1_Node000001_Node000002"><a xlink:title=" ">
<path fill="none" stroke="#63b8ff" d="M190.65,-104.68C178.77,-95.39 164.33,-84.09 154.38,-76.3"/>
<polygon fill="#63b8ff" stroke="#63b8ff" points="188.26,-107.25 198.29,-110.66 192.57,-101.74 188.26,-107.25"/>
</a>
</g>
</g>
<!-- Node5 -->
<g id="Node000005" class="node">
<title>Node5</title>
<g id="a_Node000005"><a xlink:href="HttpServer_8h.html" target="_top" xlink:title="The HttpServer class.">
<polygon fill="white" stroke="#666666" points="327.88,-76 233.12,-76 233.12,-56 327.88,-56 327.88,-76"/>
<text xml:space="preserve" text-anchor="middle" x="280.5" y="-62.5" font-family="Helvetica,sans-Serif" font-size="10.00">main/HttpServer.h</text>
</a>
</g>
</g>
<!-- Node1&#45;&gt;Node5 -->
<g id="edge4_Node000001_Node000005" class="edge">
<title>Node1&#45;&gt;Node5</title>
<g id="a_edge4_Node000001_Node000005"><a xlink:title=" ">
<path fill="none" stroke="#63b8ff" d="M232.35,-104.68C244.23,-95.39 258.67,-84.09 268.62,-76.3"/>
<polygon fill="#63b8ff" stroke="#63b8ff" points="230.43,-101.74 224.71,-110.66 234.74,-107.25 230.43,-101.74"/>
</a>
</g>
</g>
<!-- Node3 -->
<g id="Node000003" class="node">
<title>Node3</title>
<g id="a_Node000003"><a xlink:href="DataArrayTcpClient_8h.html" target="_top" xlink:title="The DataArrayTcpClient class.">
<polygon fill="white" stroke="#666666" points="133,-20 0,-20 0,0 133,0 133,-20"/>
<text xml:space="preserve" text-anchor="middle" x="66.5" y="-6.5" font-family="Helvetica,sans-Serif" font-size="10.00">main/DataArrayTcpClient.h</text>
</a>
</g>
</g>
<!-- Node2&#45;&gt;Node3 -->
<g id="edge2_Node000002_Node000003" class="edge">
<title>Node2&#45;&gt;Node3</title>
<g id="a_edge2_Node000002_Node000003"><a xlink:title=" ">
<path fill="none" stroke="#63b8ff" d="M119.98,-49C106.92,-39.72 90.92,-28.35 79.84,-20.48"/>
<polygon fill="#63b8ff" stroke="#63b8ff" points="117.85,-51.78 128.03,-54.72 121.9,-46.07 117.85,-51.78"/>
</a>
</g>
</g>
<!-- Node4 -->
<g id="Node000004" class="node">
<title>Node4</title>
<g id="a_Node000004"><a xlink:href="DataArrayTcpServer_8h.html" target="_top" xlink:title="The DataArrayTcpServer class.">
<polygon fill="white" stroke="#666666" points="286.12,-20 150.88,-20 150.88,0 286.12,0 286.12,-20"/>
<text xml:space="preserve" text-anchor="middle" x="218.5" y="-6.5" font-family="Helvetica,sans-Serif" font-size="10.00">main/DataArrayTcpServer.h</text>
</a>
</g>
</g>
<!-- Node2&#45;&gt;Node4 -->
<g id="edge3_Node000002_Node000004" class="edge">
<title>Node2&#45;&gt;Node4</title>
<g id="a_edge3_Node000002_Node000004"><a xlink:title=" ">
<path fill="none" stroke="#63b8ff" d="M165.02,-49C178.08,-39.72 194.08,-28.35 205.16,-20.48"/>
<polygon fill="#63b8ff" stroke="#63b8ff" points="163.1,-46.07 156.97,-54.72 167.15,-51.78 163.1,-46.07"/>
</a>
</g>
</g>
</g>
</svg>
