<?xml version="1.0" encoding="UTF-8" standalone="no"?>
<!DOCTYPE svg PUBLIC "-//W3C//DTD SVG 1.1//EN"
 "http://www.w3.org/Graphics/SVG/1.1/DTD/svg11.dtd">
<!-- Generated by graphviz version 14.1.3 (20260303.0454)
 -->
<!-- Title: core/TlsContext.h Pages: 1 -->
<svg width="256pt" height="84pt"
 viewBox="0.00 0.00 256.00 84.00" xmlns="http://www.w3.org/2000/svg" xmlns:xlink="http://www.w3.org/1999/xlink">
<g id="graph0" class="graph" transform="scale(1 1) rotate(0) translate(4 80)">
<title>core/TlsContext.h</title>
<!-- Node1 -->
<g id="Node000001" class="node">
<title>Node1</title>
<g id="a_Node000001"><a xlink:title="The TlsContext class.">
<polygon fill="#999999" stroke="#666666" points="180.62,-76 86.62,-76 86.62,-56 180.62,-56 180.62,-76"/>
<text xml:space="preserve" text-anchor="middle" x="133.62" y="-62.5" font-family="Helvetica,sans-Serif" font-size="10.00">core/TlsContext.h</text>
</a>
</g>
</g>
<!-- Node2 -->
<g id="Node000002" class="node">
<title>Node2</title>
<g id="a_Node000002"><a xlink:href="DataArrayTcpServer_8h.html" target="_top" xlink:title="The DataArrayTcpServer class.">
<polygon fill="white" stroke="#666666" points="135.25,-20 0,-20 0,0 135.25,0 135.25,-20"/>
<text xml:space="preserve" text-anchor="middle" x="67.62" y="-6.5" font-family="Helvetica,sans-Serif" font-size="10.00">main/DataArrayTcpServer.h</text>
</a>
</g>
</g>
<!-- Node1&#45;&gt;Node2 -->
<g id="edge1_Node000001_Node000002" class="edge">
<title>Node1&#45;&gt;Node2</title>
<g id="a_edge1_Node000001_Node000002"><a xlink:title=" ">
<path fill="none" stroke="#63b8ff" d="M113.34,-48.4C102.05,-39.17 88.41,-28.01 78.99,-20.3"/>
<polygon fill="#63b8ff" stroke="#63b8ff" points="111,-51.01 120.96,-54.64 115.43,-45.59 111,-51.01"/>
</a>
</g>
</g>
<!-- Node3 -->
<g id="Node000003" class="node">
<title>Node3</title>
<g id="a_Node000003"><a xlink:href="HttpServer_8h.html" target="_top" xlink:title="The HttpServer class.">
<polygon fill="white" stroke="#666666" points="248,-20 153.25,-20 153.25,0 248,0 248,-20"/>
<text xml:space="preserve" text-anchor="middle" x="200.62" y="-6.5" font-family="Helvetica,sans-Serif" font-size="10.00">main/HttpServer.h</text>
</a>
</g>
</g>
<!-- Node1&#45;&gt;Node3 -->
<g id="edge2_Node000001_Node000003" class="edge">
<title>Node1&#45;&gt;Node3</title>
<g id="a_edge2_Node000001_Node000003"><a xlink:title=" ">
<path fill="none" stroke="#63b8ff" d="M154.22,-48.4C165.68,-39.17 179.52,-28.01 189.09,-20.3"/>
<polygon fill="#63b8ff" stroke="#63b8ff" points="152.06,-45.64 146.47,-54.64 156.46,-51.09 152.06,-45.64"/>
</a>
</g>
</g>
</g>
</svg>
